<svg width="77" height="77" viewBox="0 0 77 77" fill="none" xmlns="http://www.w3.org/2000/svg">
<g clip-path="url(#clip0_266_3864)">
<circle cx="39" cy="39" r="34" fill="white"/>
<path d="M26.8461 39.5117C26.2988 39.5117 25.7638 39.674 25.3087 39.9781C24.8537 40.2822 24.499 40.7144 24.2896 41.22C24.0802 41.7257 24.0255 42.2821 24.1323 42.8189C24.2392 43.3556 24.5028 43.8486 24.8899 44.2356C25.2769 44.6225 25.7701 44.886 26.3069 44.9926C26.8437 45.0993 27.4001 45.0443 27.9056 44.8347C28.4112 44.6252 28.8433 44.2704 29.1472 43.8152C29.4511 43.36 29.6132 42.825 29.613 42.2777C29.6125 41.5441 29.3208 40.8407 28.802 40.3221C28.2831 39.8034 27.5797 39.512 26.8461 39.5117Z" fill="#1FE0B3"/>
<path d="M38.5004 16.5171C32.6742 16.5171 27.7968 20.6331 26.6084 26.1082H50.3925C49.2041 20.6331 44.3267 16.5171 38.5004 16.5171Z" fill="#1FE0B3"/>
<path d="M50.1537 39.5117C49.6064 39.5117 49.0714 39.674 48.6163 39.9781C48.1613 40.2822 47.8066 40.7144 47.5972 41.22C47.3879 41.7257 47.3331 42.2821 47.44 42.8189C47.5468 43.3556 47.8104 43.8486 48.1975 44.2356C48.5846 44.6225 49.0777 44.886 49.6145 44.9926C50.1513 45.0993 50.7077 45.0443 51.2132 44.8347C51.7188 44.6252 52.1509 44.2704 52.4548 43.8152C52.7587 43.36 52.9208 42.825 52.9206 42.2777C52.9201 41.5441 52.6284 40.8407 52.1096 40.3221C51.5908 39.8034 50.8873 39.512 50.1537 39.5117V39.5117Z" fill="#1FE0B3"/>
<path d="M38.5 0C17.2374 0 0 17.2374 0 38.5C0 59.7626 17.2374 77 38.5 77C59.7626 77 77 59.7636 77 38.5C77 17.2364 59.7626 0 38.5 0ZM59.9901 55.0938C54.8014 61.8041 46.9715 65.6517 38.5 65.6517C34.4008 65.6615 30.3532 64.7383 26.6636 62.9522C22.9741 61.166 19.7394 58.5636 17.2045 55.3422C16.9905 55.0768 16.8312 54.7716 16.7358 54.4442C16.6403 54.1169 16.6107 53.7739 16.6485 53.435C16.6863 53.0962 16.7909 52.7681 16.9562 52.4699C17.1214 52.1717 17.3441 51.9091 17.6114 51.6974C17.8786 51.4857 18.1852 51.3289 18.5133 51.2363C18.8415 51.1437 19.1847 51.1169 19.5232 51.1576C19.8618 51.1983 20.1889 51.3057 20.4857 51.4735C20.7825 51.6413 21.0432 51.8662 21.2526 52.1352C23.3242 54.755 25.9653 56.8685 28.9756 58.3151C31.9859 59.7618 35.2862 60.5037 38.626 60.4844C41.9658 60.4652 45.2573 59.6854 48.2508 58.2041C51.2442 56.7229 53.8608 54.5791 55.902 51.9357C56.1094 51.667 56.3676 51.4419 56.662 51.2731C56.9564 51.1042 57.2811 50.9951 57.6177 50.9517C57.9543 50.9084 58.2961 50.9318 58.6236 51.0206C58.9512 51.1094 59.258 51.2618 59.5266 51.4692C59.7953 51.6765 60.0204 51.9348 60.1892 52.2292C60.358 52.5235 60.4672 52.8483 60.5105 53.1849C60.5539 53.5214 60.5305 53.8632 60.4417 54.1908C60.3529 54.5183 60.2005 54.8251 59.9931 55.0938H59.9901ZM65.6138 42.2817C65.6138 42.9666 65.3418 43.6234 64.8575 44.1077C64.3732 44.592 63.7164 44.8641 63.0315 44.8641H57.6432C57.1077 46.4252 56.0978 47.78 54.7547 48.7391C53.4117 49.6983 51.8025 50.2139 50.1521 50.2139C48.5017 50.2139 46.8925 49.6983 45.5494 48.7391C44.2064 47.78 43.1965 46.4252 42.6609 44.8641H34.3371C33.8015 46.4252 32.7917 47.78 31.4486 48.7391C30.1055 49.6983 28.4963 50.2139 26.8459 50.2139C25.1955 50.2139 23.5864 49.6983 22.2433 48.7391C20.9002 47.78 19.8903 46.4252 19.3548 44.8641H13.9665C13.6274 44.8642 13.2915 44.7975 12.9781 44.6678C12.6648 44.5381 12.38 44.3478 12.1402 44.108C11.9004 43.8682 11.7102 43.5835 11.5805 43.2701C11.4507 42.9567 11.384 42.6209 11.3842 42.2817V35.3967C11.3881 32.9368 12.3671 30.5788 14.1065 28.8393C15.8459 27.0999 18.204 26.121 20.6639 26.117H21.3494C22.5997 17.7772 29.811 11.3612 38.494 11.3612C47.1771 11.3612 54.3883 17.7772 55.6386 26.117H56.3241C58.784 26.121 61.1421 27.0999 62.8815 28.8393C64.621 30.5788 65.5999 32.9368 65.6039 35.3967L65.6138 42.2817Z" fill="#1FE0B3"/>
<path d="M56.33 31.2729H20.6698C19.5778 31.2743 18.5308 31.7087 17.7587 32.4808C16.9865 33.253 16.5521 34.2999 16.5508 35.392V39.6966H19.3547C19.8902 38.1355 20.9001 36.7807 22.2432 35.8215C23.5862 34.8624 25.1954 34.3468 26.8458 34.3468C28.4962 34.3468 30.1054 34.8624 31.4485 35.8215C32.7915 36.7807 33.8014 38.1355 34.337 39.6966H42.6628C43.1984 38.1355 44.2082 36.7807 45.5513 35.8215C46.8944 34.8624 48.5036 34.3468 50.154 34.3468C51.8044 34.3468 53.4135 34.8624 54.7566 35.8215C56.0997 36.7807 57.1096 38.1355 57.6451 39.6966H60.449V35.392C60.4477 34.2999 60.0133 33.253 59.2411 32.4808C58.4689 31.7087 57.422 31.2743 56.33 31.2729V31.2729Z" fill="#1FE0B3"/>
</g>
<defs>
<clipPath id="clip0_266_3864">
<rect width="77" height="77" fill="white"/>
</clipPath>
</defs>
</svg>
