<svg width="260" height="120" viewBox="0 0 260 120" fill="none" xmlns="http://www.w3.org/2000/svg">
<g filter="url(#filter0_d_247_3586)">
<rect x="27" y="16" width="207" height="88" rx="10" fill="white"/>
<path d="M75.2136 59.1261C75.1733 54.5739 78.893 52.3884 79.0613 52.2819C76.9681 49.1874 73.7105 48.7634 72.5484 48.7136C69.7776 48.4302 67.1392 50.3617 65.7348 50.3617C64.3304 50.3617 62.1586 48.7544 59.8613 48.7997C56.837 48.8451 54.0528 50.5748 52.4958 53.3089C49.3572 58.811 51.6949 66.9656 54.7506 71.4317C56.247 73.6148 58.0283 76.0746 60.3706 75.9839C62.6275 75.8932 63.4801 74.5103 66.2037 74.5103C68.9273 74.5103 69.6946 75.9839 72.0795 75.9408C74.5047 75.8932 76.0437 73.71 77.5289 71.5201C79.243 68.9855 79.9519 66.5326 79.9923 66.4033C79.9385 66.3807 75.263 64.5693 75.2136 59.1261" fill="#292929"/>
<path d="M70.7331 45.7593C71.976 44.2381 72.8151 42.1229 72.5839 40.0146C70.7935 40.0873 68.6264 41.2207 67.3408 42.7419C66.1899 44.0864 65.1803 46.24 65.4539 48.3053C67.4507 48.4618 69.49 47.2783 70.7331 45.7593" fill="#292929"/>
<path d="M97.3 53L100.915 42.2H102.775L106.39 53H105.003L101.62 42.98H102.04L98.6875 53H97.3ZM99.04 50.4725V49.22H104.65V50.4725H99.04ZM109.322 53L106.382 44.9H107.732L110.005 51.2975L112.27 44.9H113.627L110.687 53H109.322ZM116.832 53.225C116.227 53.225 115.719 53.115 115.309 52.895C114.904 52.67 114.597 52.375 114.387 52.01C114.182 51.645 114.079 51.245 114.079 50.81C114.079 50.385 114.159 50.0175 114.319 49.7075C114.484 49.3925 114.714 49.1325 115.009 48.9275C115.304 48.7175 115.657 48.5525 116.067 48.4325C116.452 48.3275 116.882 48.2375 117.357 48.1625C117.837 48.0825 118.322 48.01 118.812 47.945C119.302 47.88 119.759 47.8175 120.184 47.7575L119.704 48.035C119.719 47.315 119.574 46.7825 119.269 46.4375C118.969 46.0925 118.449 45.92 117.709 45.92C117.219 45.92 116.789 46.0325 116.419 46.2575C116.054 46.4775 115.797 46.8375 115.647 47.3375L114.379 46.955C114.574 46.245 114.952 45.6875 115.512 45.2825C116.072 44.8775 116.809 44.675 117.724 44.675C118.459 44.675 119.089 44.8075 119.614 45.0725C120.144 45.3325 120.524 45.7275 120.754 46.2575C120.869 46.5075 120.942 46.78 120.972 47.075C121.002 47.365 121.017 47.67 121.017 47.99V53H119.832V51.0575L120.109 51.2375C119.804 51.8925 119.377 52.3875 118.827 52.7225C118.282 53.0575 117.617 53.225 116.832 53.225ZM117.034 52.1075C117.514 52.1075 117.929 52.0225 118.279 51.8525C118.634 51.6775 118.919 51.45 119.134 51.17C119.349 50.885 119.489 50.575 119.554 50.24C119.629 49.99 119.669 49.7125 119.674 49.4075C119.684 49.0975 119.689 48.86 119.689 48.695L120.154 48.8975C119.719 48.9575 119.292 49.015 118.872 49.07C118.452 49.125 118.054 49.185 117.679 49.25C117.304 49.31 116.967 49.3825 116.667 49.4675C116.447 49.5375 116.239 49.6275 116.044 49.7375C115.854 49.8475 115.699 49.99 115.579 50.165C115.464 50.335 115.407 50.5475 115.407 50.8025C115.407 51.0225 115.462 51.2325 115.572 51.4325C115.687 51.6325 115.862 51.795 116.097 51.92C116.337 52.045 116.649 52.1075 117.034 52.1075ZM123.117 43.4675V42.0875H124.452V43.4675H123.117ZM123.117 53V44.9H124.452V53H123.117ZM126.852 53V41.975H128.187V53H126.852ZM132.74 53.225C132.135 53.225 131.628 53.115 131.218 52.895C130.813 52.67 130.505 52.375 130.295 52.01C130.09 51.645 129.988 51.245 129.988 50.81C129.988 50.385 130.068 50.0175 130.228 49.7075C130.393 49.3925 130.623 49.1325 130.918 48.9275C131.213 48.7175 131.565 48.5525 131.975 48.4325C132.36 48.3275 132.79 48.2375 133.265 48.1625C133.745 48.0825 134.23 48.01 134.72 47.945C135.21 47.88 135.668 47.8175 136.093 47.7575L135.613 48.035C135.628 47.315 135.483 46.7825 135.178 46.4375C134.878 46.0925 134.358 45.92 133.618 45.92C133.128 45.92 132.698 46.0325 132.328 46.2575C131.963 46.4775 131.705 46.8375 131.555 47.3375L130.288 46.955C130.483 46.245 130.86 45.6875 131.42 45.2825C131.98 44.8775 132.718 44.675 133.633 44.675C134.368 44.675 134.998 44.8075 135.523 45.0725C136.053 45.3325 136.433 45.7275 136.663 46.2575C136.778 46.5075 136.85 46.78 136.88 47.075C136.91 47.365 136.925 47.67 136.925 47.99V53H135.74V51.0575L136.018 51.2375C135.713 51.8925 135.285 52.3875 134.735 52.7225C134.19 53.0575 133.525 53.225 132.74 53.225ZM132.943 52.1075C133.423 52.1075 133.838 52.0225 134.188 51.8525C134.543 51.6775 134.828 51.45 135.043 51.17C135.258 50.885 135.398 50.575 135.463 50.24C135.538 49.99 135.578 49.7125 135.583 49.4075C135.593 49.0975 135.598 48.86 135.598 48.695L136.063 48.8975C135.628 48.9575 135.2 49.015 134.78 49.07C134.36 49.125 133.963 49.185 133.588 49.25C133.213 49.31 132.875 49.3825 132.575 49.4675C132.355 49.5375 132.148 49.6275 131.953 49.7375C131.763 49.8475 131.608 49.99 131.488 50.165C131.373 50.335 131.315 50.5475 131.315 50.8025C131.315 51.0225 131.37 51.2325 131.48 51.4325C131.595 51.6325 131.77 51.795 132.005 51.92C132.245 52.045 132.558 52.1075 132.943 52.1075ZM142.595 53.225C141.835 53.225 141.195 53.0375 140.675 52.6625C140.155 52.2825 139.76 51.77 139.49 51.125C139.225 50.475 139.093 49.7475 139.093 48.9425C139.093 48.1275 139.225 47.3975 139.49 46.7525C139.76 46.1075 140.155 45.6 140.675 45.23C141.2 44.86 141.843 44.675 142.603 44.675C143.353 44.675 143.998 44.8625 144.538 45.2375C145.083 45.6075 145.5 46.115 145.79 46.76C146.08 47.405 146.225 48.1325 146.225 48.9425C146.225 49.7525 146.08 50.48 145.79 51.125C145.5 51.77 145.083 52.2825 144.538 52.6625C143.998 53.0375 143.35 53.225 142.595 53.225ZM138.868 53V42.2H140.21V47.0375H140.06V53H138.868ZM142.43 52.0025C142.965 52.0025 143.408 51.8675 143.758 51.5975C144.108 51.3275 144.37 50.9625 144.545 50.5025C144.72 50.0375 144.808 49.5175 144.808 48.9425C144.808 48.3725 144.72 47.8575 144.545 47.3975C144.375 46.9375 144.11 46.5725 143.75 46.3025C143.395 46.0325 142.943 45.8975 142.393 45.8975C141.868 45.8975 141.433 46.0275 141.088 46.2875C140.743 46.5425 140.485 46.9 140.315 47.36C140.145 47.815 140.06 48.3425 140.06 48.9425C140.06 49.5325 140.143 50.06 140.308 50.525C140.478 50.985 140.738 51.3475 141.088 51.6125C141.438 51.8725 141.885 52.0025 142.43 52.0025ZM148.019 53V41.975H149.354V53H148.019ZM155.115 53.225C154.32 53.225 153.625 53.05 153.03 52.7C152.44 52.345 151.98 51.8525 151.65 51.2225C151.32 50.5875 151.155 49.8475 151.155 49.0025C151.155 48.1175 151.317 47.3525 151.642 46.7075C151.967 46.0575 152.42 45.5575 153 45.2075C153.585 44.8525 154.27 44.675 155.055 44.675C155.87 44.675 156.562 44.8625 157.132 45.2375C157.707 45.6125 158.137 46.1475 158.422 46.8425C158.712 47.5375 158.837 48.365 158.797 49.325H157.447V48.845C157.432 47.85 157.23 47.1075 156.84 46.6175C156.45 46.1225 155.87 45.875 155.1 45.875C154.275 45.875 153.647 46.14 153.217 46.67C152.787 47.2 152.572 47.96 152.572 48.95C152.572 49.905 152.787 50.645 153.217 51.17C153.647 51.695 154.26 51.9575 155.055 51.9575C155.59 51.9575 156.055 51.835 156.45 51.59C156.845 51.345 157.155 50.9925 157.38 50.5325L158.662 50.975C158.347 51.69 157.872 52.245 157.237 52.64C156.607 53.03 155.9 53.225 155.115 53.225ZM152.122 49.325V48.2525H158.107V49.325H152.122ZM166.92 53.225C166.115 53.225 165.42 53.0425 164.835 52.6775C164.255 52.3125 163.807 51.8075 163.492 51.1625C163.177 50.5175 163.02 49.7775 163.02 48.9425C163.02 48.0925 163.18 47.3475 163.5 46.7075C163.82 46.0675 164.272 45.57 164.857 45.215C165.442 44.855 166.13 44.675 166.92 44.675C167.73 44.675 168.427 44.8575 169.012 45.2225C169.597 45.5825 170.045 46.085 170.355 46.73C170.67 47.37 170.827 48.1075 170.827 48.9425C170.827 49.7875 170.67 50.5325 170.355 51.1775C170.04 51.8175 169.59 52.32 169.005 52.685C168.42 53.045 167.725 53.225 166.92 53.225ZM166.92 51.9575C167.76 51.9575 168.385 51.6775 168.795 51.1175C169.205 50.5575 169.41 49.8325 169.41 48.9425C169.41 48.0275 169.202 47.3 168.787 46.76C168.372 46.215 167.75 45.9425 166.92 45.9425C166.355 45.9425 165.89 46.07 165.525 46.325C165.16 46.58 164.887 46.9325 164.707 47.3825C164.527 47.8325 164.437 48.3525 164.437 48.9425C164.437 49.8525 164.647 50.5825 165.067 51.1325C165.487 51.6825 166.105 51.9575 166.92 51.9575ZM178.246 53V48.9425C178.246 48.5575 178.211 48.1875 178.141 47.8325C178.076 47.4775 177.959 47.16 177.789 46.88C177.624 46.595 177.399 46.37 177.114 46.205C176.834 46.04 176.479 45.9575 176.049 45.9575C175.714 45.9575 175.409 46.015 175.134 46.13C174.864 46.24 174.631 46.41 174.436 46.64C174.241 46.87 174.089 47.16 173.979 47.51C173.874 47.855 173.821 48.2625 173.821 48.7325L172.944 48.4625C172.944 47.6775 173.084 47.005 173.364 46.445C173.649 45.88 174.046 45.4475 174.556 45.1475C175.071 44.8425 175.676 44.69 176.371 44.69C176.896 44.69 177.344 44.7725 177.714 44.9375C178.084 45.1025 178.391 45.3225 178.636 45.5975C178.881 45.8675 179.074 46.1725 179.214 46.5125C179.354 46.8475 179.451 47.19 179.506 47.54C179.566 47.885 179.596 48.2125 179.596 48.5225V53H178.246ZM172.471 53V44.9H173.671V47.0675H173.821V53H172.471ZM189.072 53C188.592 53.095 188.117 53.1325 187.647 53.1125C187.182 53.0975 186.767 53.005 186.402 52.835C186.037 52.66 185.759 52.39 185.569 52.025C185.409 51.705 185.322 51.3825 185.307 51.0575C185.297 50.7275 185.292 50.355 185.292 49.94V42.65H186.627V49.88C186.627 50.21 186.629 50.4925 186.634 50.7275C186.644 50.9625 186.697 51.165 186.792 51.335C186.972 51.655 187.257 51.8425 187.647 51.8975C188.042 51.9525 188.517 51.9375 189.072 51.8525V53ZM183.649 46.0025V44.9H189.072V46.0025H183.649ZM196.484 53V48.9425C196.484 48.5575 196.449 48.1875 196.379 47.8325C196.314 47.4775 196.196 47.16 196.026 46.88C195.861 46.595 195.636 46.37 195.351 46.205C195.071 46.04 194.716 45.9575 194.286 45.9575C193.951 45.9575 193.646 46.015 193.371 46.13C193.101 46.24 192.869 46.41 192.674 46.64C192.479 46.87 192.326 47.16 192.216 47.51C192.111 47.855 192.059 48.2625 192.059 48.7325L191.181 48.4625C191.181 47.6775 191.321 47.005 191.601 46.445C191.886 45.88 192.284 45.4475 192.794 45.1475C193.309 44.8425 193.914 44.69 194.609 44.69C195.134 44.69 195.581 44.7725 195.951 44.9375C196.321 45.1025 196.629 45.3225 196.874 45.5975C197.119 45.8675 197.311 46.1725 197.451 46.5125C197.591 46.8475 197.689 47.19 197.744 47.54C197.804 47.885 197.834 48.2125 197.834 48.5225V53H196.484ZM190.709 53V42.2H191.909V48.1625H192.059V53H190.709ZM203.293 53.225C202.498 53.225 201.803 53.05 201.208 52.7C200.618 52.345 200.158 51.8525 199.828 51.2225C199.498 50.5875 199.333 49.8475 199.333 49.0025C199.333 48.1175 199.496 47.3525 199.821 46.7075C200.146 46.0575 200.598 45.5575 201.178 45.2075C201.763 44.8525 202.448 44.675 203.233 44.675C204.048 44.675 204.741 44.8625 205.311 45.2375C205.886 45.6125 206.316 46.1475 206.601 46.8425C206.891 47.5375 207.016 48.365 206.976 49.325H205.626V48.845C205.611 47.85 205.408 47.1075 205.018 46.6175C204.628 46.1225 204.048 45.875 203.278 45.875C202.453 45.875 201.826 46.14 201.396 46.67C200.966 47.2 200.751 47.96 200.751 48.95C200.751 49.905 200.966 50.645 201.396 51.17C201.826 51.695 202.438 51.9575 203.233 51.9575C203.768 51.9575 204.233 51.835 204.628 51.59C205.023 51.345 205.333 50.9925 205.558 50.5325L206.841 50.975C206.526 51.69 206.051 52.245 205.416 52.64C204.786 53.03 204.078 53.225 203.293 53.225ZM200.301 49.325V48.2525H206.286V49.325H200.301Z" fill="#686674"/>
<path d="M97.36 78L101.446 65.04H104.623L108.709 78H106.477L102.769 66.372H103.255L99.592 78H97.36ZM99.637 75.192V73.167H106.441V75.192H99.637ZM114.829 78.27C113.881 78.27 113.086 78.045 112.444 77.595C111.802 77.145 111.319 76.533 110.995 75.759C110.671 74.979 110.509 74.106 110.509 73.14C110.509 72.162 110.671 71.286 110.995 70.512C111.319 69.738 111.793 69.129 112.417 68.685C113.047 68.235 113.824 68.01 114.748 68.01C115.666 68.01 116.461 68.235 117.133 68.685C117.811 69.129 118.336 69.738 118.708 70.512C119.08 71.28 119.266 72.156 119.266 73.14C119.266 74.112 119.083 74.985 118.717 75.759C118.351 76.533 117.835 77.145 117.169 77.595C116.503 78.045 115.723 78.27 114.829 78.27ZM110.14 82.32V68.28H112.057V75.102H112.327V82.32H110.14ZM114.496 76.326C115.06 76.326 115.525 76.185 115.891 75.903C116.257 75.621 116.527 75.24 116.701 74.76C116.881 74.274 116.971 73.734 116.971 73.14C116.971 72.552 116.881 72.018 116.701 71.538C116.521 71.052 116.242 70.668 115.864 70.386C115.486 70.098 115.006 69.954 114.424 69.954C113.872 69.954 113.422 70.089 113.074 70.359C112.726 70.623 112.468 70.995 112.3 71.475C112.138 71.949 112.057 72.504 112.057 73.14C112.057 73.77 112.138 74.325 112.3 74.805C112.468 75.285 112.729 75.66 113.083 75.93C113.443 76.194 113.914 76.326 114.496 76.326ZM125.743 78.27C124.795 78.27 124 78.045 123.358 77.595C122.716 77.145 122.233 76.533 121.909 75.759C121.585 74.979 121.423 74.106 121.423 73.14C121.423 72.162 121.585 71.286 121.909 70.512C122.233 69.738 122.707 69.129 123.331 68.685C123.961 68.235 124.738 68.01 125.662 68.01C126.58 68.01 127.375 68.235 128.047 68.685C128.725 69.129 129.25 69.738 129.622 70.512C129.994 71.28 130.18 72.156 130.18 73.14C130.18 74.112 129.997 74.985 129.631 75.759C129.265 76.533 128.749 77.145 128.083 77.595C127.417 78.045 126.637 78.27 125.743 78.27ZM121.054 82.32V68.28H122.971V75.102H123.241V82.32H121.054ZM125.41 76.326C125.974 76.326 126.439 76.185 126.805 75.903C127.171 75.621 127.441 75.24 127.615 74.76C127.795 74.274 127.885 73.734 127.885 73.14C127.885 72.552 127.795 72.018 127.615 71.538C127.435 71.052 127.156 70.668 126.778 70.386C126.4 70.098 125.92 69.954 125.338 69.954C124.786 69.954 124.336 70.089 123.988 70.359C123.64 70.623 123.382 70.995 123.214 71.475C123.052 71.949 122.971 72.504 122.971 73.14C122.971 73.77 123.052 74.325 123.214 74.805C123.382 75.285 123.643 75.66 123.997 75.93C124.357 76.194 124.828 76.326 125.41 76.326ZM132.166 78V64.77H134.335V78H132.166ZM141.273 78.27C140.289 78.27 139.425 78.057 138.681 77.631C137.937 77.205 137.355 76.614 136.935 75.858C136.521 75.102 136.314 74.232 136.314 73.248C136.314 72.186 136.518 71.265 136.926 70.485C137.334 69.699 137.901 69.09 138.627 68.658C139.353 68.226 140.193 68.01 141.147 68.01C142.155 68.01 143.01 68.247 143.712 68.721C144.42 69.189 144.945 69.852 145.287 70.71C145.629 71.568 145.758 72.579 145.674 73.743H143.523V72.951C143.517 71.895 143.331 71.124 142.965 70.638C142.599 70.152 142.023 69.909 141.237 69.909C140.349 69.909 139.689 70.185 139.257 70.737C138.825 71.283 138.609 72.084 138.609 73.14C138.609 74.124 138.825 74.886 139.257 75.426C139.689 75.966 140.319 76.236 141.147 76.236C141.681 76.236 142.14 76.119 142.524 75.885C142.914 75.645 143.214 75.3 143.424 74.85L145.566 75.498C145.194 76.374 144.618 77.055 143.838 77.541C143.064 78.027 142.209 78.27 141.273 78.27ZM137.925 73.743V72.105H144.612V73.743H137.925ZM155.727 78.27C154.779 78.27 153.924 78.105 153.162 77.775C152.406 77.445 151.782 76.974 151.29 76.362C150.804 75.744 150.495 75.012 150.363 74.166L152.613 73.824C152.805 74.592 153.198 75.186 153.792 75.606C154.392 76.026 155.082 76.236 155.862 76.236C156.324 76.236 156.759 76.164 157.167 76.02C157.575 75.876 157.905 75.666 158.157 75.39C158.415 75.114 158.544 74.775 158.544 74.373C158.544 74.193 158.514 74.028 158.454 73.878C158.394 73.722 158.304 73.584 158.184 73.464C158.07 73.344 157.92 73.236 157.734 73.14C157.554 73.038 157.344 72.951 157.104 72.879L153.756 71.889C153.468 71.805 153.156 71.694 152.82 71.556C152.49 71.412 152.175 71.217 151.875 70.971C151.581 70.719 151.338 70.401 151.146 70.017C150.96 69.627 150.867 69.147 150.867 68.577C150.867 67.743 151.077 67.044 151.497 66.48C151.923 65.91 152.493 65.484 153.207 65.202C153.927 64.92 154.725 64.782 155.601 64.788C156.489 64.794 157.281 64.947 157.977 65.247C158.673 65.541 159.255 65.97 159.723 66.534C160.191 67.098 160.521 67.779 160.713 68.577L158.382 68.982C158.286 68.526 158.1 68.139 157.824 67.821C157.554 67.497 157.221 67.251 156.825 67.083C156.435 66.915 156.018 66.825 155.574 66.813C155.142 66.807 154.74 66.873 154.368 67.011C154.002 67.143 153.705 67.335 153.477 67.587C153.255 67.839 153.144 68.133 153.144 68.469C153.144 68.787 153.24 69.048 153.432 69.252C153.624 69.45 153.861 69.609 154.143 69.729C154.431 69.843 154.722 69.939 155.016 70.017L157.338 70.665C157.656 70.749 158.013 70.863 158.409 71.007C158.805 71.151 159.186 71.352 159.552 71.61C159.918 71.868 160.218 72.207 160.452 72.627C160.692 73.047 160.812 73.581 160.812 74.229C160.812 74.901 160.671 75.492 160.389 76.002C160.113 76.506 159.738 76.926 159.264 77.262C158.79 77.598 158.247 77.85 157.635 78.018C157.029 78.186 156.393 78.27 155.727 78.27ZM168.279 78C167.637 78.12 167.007 78.171 166.389 78.153C165.777 78.141 165.228 78.03 164.742 77.82C164.256 77.604 163.887 77.265 163.635 76.803C163.413 76.383 163.296 75.954 163.284 75.516C163.272 75.078 163.266 74.583 163.266 74.031V65.58H165.426V73.905C165.426 74.295 165.429 74.637 165.435 74.931C165.447 75.225 165.51 75.465 165.624 75.651C165.84 76.011 166.185 76.212 166.659 76.254C167.133 76.296 167.673 76.272 168.279 76.182V78ZM161.502 69.981V68.28H168.279V69.981H161.502ZM173.992 78.27C173.02 78.27 172.171 78.051 171.445 77.613C170.719 77.175 170.155 76.572 169.753 75.804C169.357 75.03 169.159 74.142 169.159 73.14C169.159 72.12 169.363 71.226 169.771 70.458C170.179 69.69 170.746 69.09 171.472 68.658C172.198 68.226 173.038 68.01 173.992 68.01C174.97 68.01 175.822 68.229 176.548 68.667C177.274 69.105 177.838 69.711 178.24 70.485C178.642 71.253 178.843 72.138 178.843 73.14C178.843 74.148 178.639 75.039 178.231 75.813C177.829 76.581 177.265 77.184 176.539 77.622C175.813 78.054 174.964 78.27 173.992 78.27ZM173.992 76.236C174.856 76.236 175.498 75.948 175.918 75.372C176.338 74.796 176.548 74.052 176.548 73.14C176.548 72.198 176.335 71.448 175.909 70.89C175.483 70.326 174.844 70.044 173.992 70.044C173.41 70.044 172.93 70.176 172.552 70.44C172.18 70.698 171.904 71.061 171.724 71.529C171.544 71.991 171.454 72.528 171.454 73.14C171.454 74.082 171.667 74.835 172.093 75.399C172.525 75.957 173.158 76.236 173.992 76.236ZM180.648 78V68.28H182.565V70.647L182.331 70.341C182.451 70.017 182.61 69.723 182.808 69.459C183.012 69.189 183.255 68.967 183.537 68.793C183.777 68.631 184.041 68.505 184.329 68.415C184.623 68.319 184.923 68.262 185.229 68.244C185.535 68.22 185.832 68.232 186.12 68.28V70.305C185.832 70.221 185.499 70.194 185.121 70.224C184.749 70.254 184.413 70.359 184.113 70.539C183.813 70.701 183.567 70.908 183.375 71.16C183.189 71.412 183.051 71.7 182.961 72.024C182.871 72.342 182.826 72.687 182.826 73.059V78H180.648ZM191.903 78.27C190.919 78.27 190.055 78.057 189.311 77.631C188.567 77.205 187.985 76.614 187.565 75.858C187.151 75.102 186.944 74.232 186.944 73.248C186.944 72.186 187.148 71.265 187.556 70.485C187.964 69.699 188.531 69.09 189.257 68.658C189.983 68.226 190.823 68.01 191.777 68.01C192.785 68.01 193.64 68.247 194.342 68.721C195.05 69.189 195.575 69.852 195.917 70.71C196.259 71.568 196.388 72.579 196.304 73.743H194.153V72.951C194.147 71.895 193.961 71.124 193.595 70.638C193.229 70.152 192.653 69.909 191.867 69.909C190.979 69.909 190.319 70.185 189.887 70.737C189.455 71.283 189.239 72.084 189.239 73.14C189.239 74.124 189.455 74.886 189.887 75.426C190.319 75.966 190.949 76.236 191.777 76.236C192.311 76.236 192.77 76.119 193.154 75.885C193.544 75.645 193.844 75.3 194.054 74.85L196.196 75.498C195.824 76.374 195.248 77.055 194.468 77.541C193.694 78.027 192.839 78.27 191.903 78.27ZM188.555 73.743V72.105H195.242V73.743H188.555Z" fill="#2D2F35"/>
</g>
<defs>
<filter id="filter0_d_247_3586" x="23" y="14" width="215" height="96" filterUnits="userSpaceOnUse" color-interpolation-filters="sRGB">
<feFlood flood-opacity="0" result="BackgroundImageFix"/>
<feColorMatrix in="SourceAlpha" type="matrix" values="0 0 0 0 0 0 0 0 0 0 0 0 0 0 0 0 0 0 127 0" result="hardAlpha"/>
<feOffset dy="2"/>
<feGaussianBlur stdDeviation="2"/>
<feComposite in2="hardAlpha" operator="out"/>
<feColorMatrix type="matrix" values="0 0 0 0 0 0 0 0 0 0 0 0 0 0 0 0 0 0 0.08 0"/>
<feBlend mode="normal" in2="BackgroundImageFix" result="effect1_dropShadow_247_3586"/>
<feBlend mode="normal" in="SourceGraphic" in2="effect1_dropShadow_247_3586" result="shape"/>
</filter>
</defs>
</svg>
