<svg width="198" height="39" viewBox="0 0 198 39" fill="none" xmlns="http://www.w3.org/2000/svg">
<g clip-path="url(#clip0_226_3665)">
<path d="M12.0316 19.9535C11.7863 19.9535 11.5466 20.0262 11.3426 20.1625C11.1387 20.2988 10.9797 20.4925 10.8859 20.7192C10.792 20.9458 10.7675 21.1952 10.8154 21.4357C10.8633 21.6763 10.9814 21.8973 11.1549 22.0707C11.3284 22.2441 11.5494 22.3622 11.79 22.41C12.0306 22.4578 12.2799 22.4332 12.5065 22.3392C12.7331 22.2453 12.9268 22.0863 13.063 21.8823C13.1992 21.6783 13.2719 21.4385 13.2718 21.1932C13.2715 20.8644 13.1408 20.5491 12.9083 20.3167C12.6757 20.0842 12.3604 19.9536 12.0316 19.9535Z" fill="#1FE0B3"/>
<path d="M17.2557 9.64734C14.6444 9.64734 12.4584 11.4921 11.9258 13.946H22.5857C22.053 11.4921 19.867 9.64734 17.2557 9.64734Z" fill="#1FE0B3"/>
<path d="M22.4784 19.9535C22.2331 19.9535 21.9933 20.0262 21.7894 20.1625C21.5854 20.2988 21.4265 20.4925 21.3326 20.7192C21.2388 20.9458 21.2143 21.1952 21.2621 21.4357C21.31 21.6763 21.4282 21.8973 21.6017 22.0707C21.7751 22.2441 21.9962 22.3622 22.2368 22.41C22.4773 22.4578 22.7267 22.4332 22.9533 22.3392C23.1799 22.2453 23.3736 22.0863 23.5098 21.8823C23.646 21.6783 23.7186 21.4385 23.7186 21.1932C23.7183 20.8644 23.5876 20.5491 23.355 20.3167C23.1225 20.0842 22.8072 19.9536 22.4784 19.9535V19.9535Z" fill="#1FE0B3"/>
<path d="M17.2554 2.24451C7.72569 2.24451 0 9.97019 0 19.5C0 29.0297 7.72569 36.7554 17.2554 36.7554C26.7852 36.7554 34.5109 29.0302 34.5109 19.5C34.5109 9.96974 26.7852 2.24451 17.2554 2.24451ZM26.8872 26.9372C24.5616 29.9447 21.0523 31.6692 17.2554 31.6692C15.4182 31.6736 13.6041 31.2598 11.9505 30.4593C10.2968 29.6587 8.84705 28.4924 7.71093 27.0485C7.61502 26.9296 7.54362 26.7928 7.50086 26.6461C7.45809 26.4993 7.4448 26.3456 7.46175 26.1937C7.47871 26.0419 7.52557 25.8949 7.59964 25.7612C7.67371 25.6275 7.77352 25.5098 7.8933 25.4149C8.01309 25.32 8.15048 25.2498 8.29755 25.2083C8.44462 25.1668 8.59846 25.1548 8.75018 25.173C8.90191 25.1913 9.04852 25.2394 9.18156 25.3146C9.31459 25.3898 9.43142 25.4906 9.52529 25.6112C10.4537 26.7854 11.6375 27.7326 12.9867 28.381C14.3359 29.0294 15.815 29.3619 17.3119 29.3532C18.8088 29.3446 20.284 28.9951 21.6257 28.3312C22.9673 27.6673 24.1401 26.7065 25.0549 25.5217C25.1479 25.4013 25.2636 25.3004 25.3955 25.2248C25.5275 25.1491 25.673 25.1002 25.8239 25.0807C25.9747 25.0613 26.1279 25.0718 26.2747 25.1116C26.4215 25.1514 26.5591 25.2197 26.6794 25.3127C26.7998 25.4056 26.9008 25.5213 26.9764 25.6533C27.0521 25.7852 27.101 25.9308 27.1204 26.0816C27.1398 26.2325 27.1294 26.3857 27.0896 26.5325C27.0498 26.6793 26.9815 26.8168 26.8885 26.9372H26.8872ZM29.4077 21.1949C29.4077 21.5019 29.2858 21.7963 29.0687 22.0133C28.8517 22.2304 28.5573 22.3523 28.2503 22.3523H25.8353C25.5953 23.052 25.1427 23.6592 24.5407 24.0891C23.9388 24.519 23.2175 24.75 22.4778 24.75C21.7381 24.75 21.0169 24.519 20.415 24.0891C19.813 23.6592 19.3604 23.052 19.1203 22.3523H15.3897C15.1496 23.052 14.697 23.6592 14.095 24.0891C13.4931 24.519 12.7719 24.75 12.0322 24.75C11.2925 24.75 10.5712 24.519 9.96929 24.0891C9.36733 23.6592 8.91471 23.052 8.67468 22.3523H6.25971C6.1077 22.3524 5.95717 22.3225 5.81672 22.2643C5.67627 22.2062 5.54866 22.1209 5.44117 22.0134C5.33368 21.906 5.24843 21.7783 5.19029 21.6379C5.13215 21.4974 5.10225 21.3469 5.10231 21.1949V18.1091C5.10408 17.0066 5.54284 15.9497 6.32245 15.1701C7.10205 14.3905 8.15891 13.9518 9.26143 13.95H9.56867C10.129 10.2121 13.3611 7.33653 17.2528 7.33653C21.1445 7.33653 24.3765 10.2121 24.9369 13.95H25.2441C26.3466 13.9518 27.4035 14.3905 28.1831 15.1701C28.9627 15.9497 29.4015 17.0066 29.4032 18.1091L29.4077 21.1949Z" fill="#1FE0B3"/>
<path d="M25.2468 16.2608H9.26408C8.77464 16.2614 8.30542 16.4561 7.95934 16.8022C7.61325 17.1483 7.41856 17.6175 7.41797 18.1069V20.0362H8.67465C8.91468 19.3365 9.3673 18.7293 9.96926 18.2995C10.5712 17.8696 11.2924 17.6385 12.0321 17.6385C12.7718 17.6385 13.4931 17.8696 14.095 18.2995C14.697 18.7293 15.1496 19.3365 15.3896 20.0362H19.1212C19.3612 19.3365 19.8139 18.7293 20.4158 18.2995C21.0178 17.8696 21.739 17.6385 22.4787 17.6385C23.2184 17.6385 23.9396 17.8696 24.5416 18.2995C25.1435 18.7293 25.5962 19.3365 25.8362 20.0362H27.0929V18.1069C27.0923 17.6175 26.8976 17.1483 26.5515 16.8022C26.2054 16.4561 25.7362 16.2614 25.2468 16.2608V16.2608Z" fill="#1FE0B3"/>
</g>
<path d="M50.0288 30.4284C48.496 30.4284 47.2156 30.0714 46.1874 29.3574C45.1592 28.6434 44.3833 27.6723 43.8597 26.4442C43.3456 25.2161 43.0885 23.8309 43.0885 22.2886C43.0885 20.7463 43.3456 19.3611 43.8597 18.133C44.3738 16.9049 45.1306 15.9338 46.1302 15.2198C47.1299 14.5058 48.3627 14.1488 49.8289 14.1488C51.3045 14.1488 52.5897 14.501 53.6846 15.2055C54.7794 15.91 55.6267 16.8763 56.2265 18.1044C56.8358 19.323 57.1404 20.7178 57.1404 22.2886C57.1404 23.8309 56.8405 25.2161 56.2408 26.4442C55.6505 27.6723 54.8222 28.6434 53.756 29.3574C52.6897 30.0714 51.4473 30.4284 50.0288 30.4284ZM42.4316 30V9.43626H46.3445V19.4325H45.8589V30H42.4316ZM49.4005 26.9726C50.2382 26.9726 50.9237 26.7631 51.4568 26.3442C51.99 25.9253 52.3851 25.3636 52.6421 24.6591C52.8991 23.9451 53.0277 23.1549 53.0277 22.2886C53.0277 21.4318 52.8944 20.6511 52.6278 19.9466C52.3613 19.2326 51.9471 18.6661 51.3854 18.2473C50.8332 17.8188 50.124 17.6046 49.2576 17.6046C48.4484 17.6046 47.7915 17.7998 47.287 18.1901C46.7919 18.5805 46.4301 19.1279 46.2016 19.8324C45.9732 20.5369 45.8589 21.3556 45.8589 22.2886C45.8589 23.2216 45.9732 24.0403 46.2016 24.7448C46.4301 25.4493 46.8014 25.9967 47.3155 26.3871C47.8391 26.7774 48.5341 26.9726 49.4005 26.9726ZM66.8695 30.4284C65.2892 30.4284 63.8945 30.0904 62.6854 29.4145C61.4858 28.729 60.5433 27.7913 59.8579 26.6013C59.1819 25.4017 58.844 24.0308 58.844 22.4885C58.844 20.8034 59.1772 19.3373 59.8436 18.0902C60.51 16.843 61.4287 15.8767 62.5997 15.1913C63.7707 14.4963 65.1178 14.1488 66.641 14.1488C68.2595 14.1488 69.6352 14.5296 70.7681 15.2912C71.901 16.0528 72.7388 17.1239 73.2814 18.5043C73.8241 19.8847 74.0145 21.5079 73.8526 23.3739H70.0112V21.9459C70.0112 20.375 69.7589 19.2469 69.2544 18.5614C68.7593 17.8664 67.9453 17.519 66.8124 17.519C65.4891 17.519 64.5133 17.9236 63.8849 18.7328C63.2661 19.5325 62.9567 20.7178 62.9567 22.2886C62.9567 23.7262 63.2661 24.84 63.8849 25.6302C64.5133 26.4109 65.432 26.8012 66.641 26.8012C67.4027 26.8012 68.0548 26.6346 68.5975 26.3014C69.1401 25.9682 69.5542 25.4874 69.8398 24.8591L73.7241 25.9729C73.1434 27.3819 72.2247 28.4768 70.968 29.2574C69.7208 30.0381 68.3547 30.4284 66.8695 30.4284ZM61.7572 23.3739V20.4893H71.9819V23.3739H61.7572Z" fill="#1FE0B3"/>
<path d="M83.2926 30.4284C81.6932 30.4284 80.3223 30.0714 79.1798 29.3574C78.0374 28.6434 77.1615 27.6723 76.5522 26.4442C75.9429 25.2161 75.6383 23.8309 75.6383 22.2886C75.6383 20.7273 75.9525 19.3326 76.5808 18.1044C77.2186 16.8763 78.1136 15.91 79.2655 15.2055C80.4175 14.501 81.7788 14.1488 83.3497 14.1488C85.1681 14.1488 86.6913 14.6105 87.9194 15.534C89.157 16.4479 89.9472 17.6998 90.29 19.2897L86.4057 20.3179C86.1772 19.5182 85.7774 18.8946 85.2061 18.4472C84.6444 17.9997 84.0066 17.776 83.2926 17.776C82.4738 17.776 81.8026 17.9759 81.279 18.3758C80.7554 18.7661 80.3699 19.304 80.1223 19.9895C79.8748 20.6654 79.751 21.4318 79.751 22.2886C79.751 23.631 80.0462 24.721 80.6364 25.5588C81.2362 26.3871 82.1216 26.8012 83.2926 26.8012C84.1684 26.8012 84.8348 26.6013 85.2918 26.2014C85.7488 25.8016 86.0915 25.2304 86.32 24.4878L90.29 25.316C89.852 26.9535 89.0238 28.215 87.8052 29.1003C86.5866 29.9857 85.0824 30.4284 83.2926 30.4284ZM96.5695 30.4284C95.4651 30.4284 94.5274 30.219 93.7562 29.8001C92.9946 29.3717 92.4139 28.8052 92.014 28.1007C91.6237 27.3867 91.4285 26.6013 91.4285 25.7444C91.4285 25.0304 91.538 24.3783 91.757 23.788C91.9759 23.1978 92.3282 22.6789 92.8137 22.2315C93.3088 21.7745 93.9704 21.3937 94.7987 21.089C95.3699 20.8796 96.0506 20.694 96.8408 20.5321C97.631 20.3703 98.5259 20.2179 99.5255 20.0751C100.525 19.9228 101.625 19.7562 102.824 19.5753L101.425 20.3465C101.425 19.4325 101.206 18.7613 100.768 18.3329C100.33 17.9045 99.5969 17.6903 98.5687 17.6903C97.9975 17.6903 97.4025 17.8284 96.7837 18.1044C96.1649 18.3805 95.7317 18.8708 95.4842 19.5753L91.9712 18.4615C92.3615 17.1857 93.0946 16.148 94.1704 15.3483C95.2461 14.5486 96.7123 14.1488 98.5687 14.1488C99.9301 14.1488 101.139 14.3582 102.196 14.7771C103.253 15.196 104.052 15.9195 104.595 16.9477C104.9 17.519 105.081 18.0902 105.138 18.6614C105.195 19.2326 105.223 19.8705 105.223 20.575V30H101.825V26.8298L102.31 27.4867C101.558 28.5244 100.744 29.2765 99.8682 29.743C99.0019 30.1999 97.9023 30.4284 96.5695 30.4284ZM97.3977 27.3724C98.1117 27.3724 98.7115 27.2486 99.1971 27.0011C99.6921 26.7441 100.082 26.4537 100.368 26.13C100.663 25.8063 100.863 25.535 100.968 25.316C101.168 24.8971 101.282 24.4116 101.311 23.8594C101.349 23.2977 101.368 22.8313 101.368 22.46L102.51 22.7456C101.358 22.936 100.425 23.0978 99.7111 23.2311C98.9971 23.3549 98.4212 23.4691 97.9832 23.5738C97.5453 23.6786 97.1597 23.7928 96.8265 23.9166C96.4457 24.0689 96.1363 24.2355 95.8983 24.4164C95.6698 24.5877 95.4984 24.7781 95.3842 24.9876C95.2795 25.197 95.2271 25.4303 95.2271 25.6873C95.2271 26.0396 95.3128 26.3442 95.4842 26.6013C95.665 26.8488 95.9173 27.0392 96.241 27.1725C96.5647 27.3058 96.9503 27.3724 97.3977 27.3724ZM108.354 30V14.5772H111.782V18.3472L111.411 17.8617C111.61 17.3285 111.877 16.843 112.21 16.4051C112.543 15.9672 112.953 15.6054 113.438 15.3198C113.81 15.0913 114.214 14.9152 114.652 14.7914C115.09 14.6581 115.542 14.5772 116.009 14.5486C116.475 14.5106 116.942 14.5201 117.408 14.5772V18.2044C116.98 18.0711 116.48 18.0283 115.909 18.0759C115.347 18.114 114.838 18.2425 114.381 18.4615C113.924 18.6709 113.538 18.9518 113.224 19.304C112.91 19.6467 112.672 20.0561 112.51 20.5321C112.348 20.9986 112.267 21.527 112.267 22.1172V30H108.354ZM119.543 30V14.5772H122.584V18.3329L122.213 17.8474C122.404 17.3333 122.656 16.8668 122.97 16.4479C123.294 16.0195 123.679 15.6673 124.127 15.3912C124.507 15.1341 124.926 14.9342 125.383 14.7914C125.85 14.6391 126.326 14.5486 126.811 14.5201C127.297 14.482 127.768 14.501 128.225 14.5772V17.7903C127.768 17.657 127.24 17.6142 126.64 17.6618C126.05 17.7094 125.517 17.876 125.041 18.1616C124.565 18.4186 124.174 18.7471 123.87 19.1469C123.574 19.5468 123.356 20.0037 123.213 20.5178C123.07 21.0224 122.999 21.5698 122.999 22.1601V30H119.543ZM137.101 30.4284C135.54 30.4284 134.169 30.0904 132.988 29.4145C131.808 28.7386 130.884 27.8008 130.218 26.6013C129.561 25.4017 129.233 24.0213 129.233 22.46C129.233 20.7749 129.556 19.3135 130.204 18.0759C130.851 16.8287 131.751 15.8624 132.903 15.177C134.055 14.4915 135.387 14.1488 136.901 14.1488C138.5 14.1488 139.857 14.5248 140.971 15.2769C142.094 16.0195 142.927 17.0715 143.47 18.4329C144.013 19.7943 144.217 21.3985 144.084 23.2454H140.671V21.9887C140.662 20.3131 140.366 19.0898 139.786 18.3187C139.205 17.5475 138.291 17.1619 137.044 17.1619C135.635 17.1619 134.588 17.5999 133.902 18.4757C133.217 19.3421 132.874 20.613 132.874 22.2886C132.874 23.8499 133.217 25.059 133.902 25.9158C134.588 26.7726 135.587 27.201 136.901 27.201C137.748 27.201 138.477 27.0154 139.086 26.6441C139.705 26.2633 140.181 25.7159 140.514 25.0019L143.913 26.0301C143.322 27.42 142.409 28.5006 141.171 29.2717C139.943 30.0428 138.586 30.4284 137.101 30.4284ZM131.789 23.2454V20.6464H142.399V23.2454H131.789ZM156.937 30V22.5742C156.937 22.0887 156.904 21.5508 156.838 20.9605C156.771 20.3703 156.614 19.8038 156.366 19.2612C156.128 18.709 155.767 18.2568 155.281 17.9045C154.805 17.5523 154.158 17.3761 153.339 17.3761C152.901 17.3761 152.468 17.4476 152.039 17.5904C151.611 17.7332 151.221 17.9807 150.868 18.3329C150.526 18.6757 150.25 19.1517 150.04 19.761C149.831 20.3607 149.726 21.1319 149.726 22.0744L147.684 21.2033C147.684 19.8895 147.936 18.6995 148.441 17.6332C148.955 16.5669 149.707 15.7196 150.697 15.0913C151.687 14.4534 152.906 14.1345 154.353 14.1345C155.495 14.1345 156.438 14.3249 157.18 14.7057C157.923 15.0865 158.513 15.5721 158.951 16.1623C159.389 16.7526 159.713 17.3809 159.922 18.0473C160.132 18.7137 160.265 19.3468 160.322 19.9466C160.389 20.5369 160.422 21.0176 160.422 21.3889V30H156.937ZM146.241 30V14.5772H149.312V19.3611H149.726V30H146.241ZM172.606 30C171.587 30.1904 170.588 30.2713 169.607 30.2428C168.636 30.2237 167.765 30.0476 166.994 29.7144C166.223 29.3717 165.637 28.8338 165.237 28.1007C164.885 27.4343 164.699 26.7536 164.68 26.0586C164.661 25.3636 164.652 24.5782 164.652 23.7024V10.2931H168.079V23.5024C168.079 24.1212 168.084 24.6639 168.093 25.1304C168.112 25.5969 168.212 25.9777 168.393 26.2728C168.736 26.844 169.283 27.163 170.035 27.2296C170.788 27.2962 171.644 27.2582 172.606 27.1154V30ZM161.853 17.2762V14.5772H172.606V17.2762H161.853ZM179.653 30.4284C178.539 30.4284 177.597 30.219 176.825 29.8001C176.054 29.3717 175.469 28.8052 175.069 28.1007C174.679 27.3962 174.483 26.6203 174.483 25.773C174.483 25.0304 174.607 24.364 174.855 23.7738C175.102 23.174 175.483 22.6599 175.997 22.2315C176.511 21.7935 177.178 21.4365 177.996 21.1604C178.615 20.9605 179.339 20.7796 180.167 20.6178C181.005 20.4559 181.909 20.3084 182.88 20.1751C183.861 20.0323 184.884 19.88 185.951 19.7181L184.723 20.4179C184.732 19.3516 184.494 18.5662 184.009 18.0616C183.523 17.557 182.704 17.3047 181.552 17.3047C180.857 17.3047 180.186 17.4666 179.539 17.7903C178.891 18.114 178.439 18.6709 178.182 19.4611L175.04 18.4757C175.421 17.1715 176.145 16.1242 177.211 15.3341C178.287 14.5439 179.734 14.1488 181.552 14.1488C182.923 14.1488 184.128 14.3725 185.165 14.82C186.212 15.2674 186.988 16.0005 187.493 17.0191C187.769 17.5618 187.936 18.1187 187.993 18.6899C188.05 19.2516 188.078 19.8657 188.078 20.5321V30H185.065V26.6584L185.565 27.201C184.87 28.3149 184.056 29.1337 183.123 29.6573C182.2 30.1714 181.043 30.4284 179.653 30.4284ZM180.338 27.6866C181.119 27.6866 181.786 27.5485 182.338 27.2724C182.89 26.9964 183.328 26.6584 183.651 26.2585C183.985 25.8587 184.208 25.4826 184.323 25.1304C184.504 24.6925 184.604 24.1926 184.623 23.631C184.651 23.0597 184.665 22.598 184.665 22.2458L185.722 22.5599C184.684 22.7218 183.794 22.8646 183.052 22.9883C182.309 23.1121 181.671 23.2311 181.138 23.3453C180.605 23.4501 180.134 23.5691 179.724 23.7024C179.325 23.8452 178.987 24.0118 178.71 24.2022C178.434 24.3926 178.22 24.6115 178.068 24.8591C177.925 25.1066 177.854 25.397 177.854 25.7302C177.854 26.111 177.949 26.4489 178.139 26.7441C178.33 27.0297 178.606 27.2582 178.968 27.4295C179.339 27.6009 179.796 27.6866 180.338 27.6866ZM191.5 30V9.00785H194.941V30H191.5Z" fill="white"/>
<defs>
<clipPath id="clip0_226_3665">
<rect width="34.5109" height="34.5109" fill="white" transform="translate(0 2.24454)"/>
</clipPath>
</defs>
</svg>
