<svg width="49" height="25" viewBox="0 0 49 25" fill="none" xmlns="http://www.w3.org/2000/svg">
<path d="M32.4118 19.27C31.4938 19.27 30.6838 19.075 29.9818 18.685C29.2798 18.289 28.7308 17.74 28.3348 17.038C27.9448 16.336 27.7498 15.526 27.7498 14.608V10.432C27.7498 9.514 27.9448 8.704 28.3348 8.002C28.7308 7.3 29.2798 6.754 29.9818 6.364C30.6838 5.968 31.4938 5.77 32.4118 5.77C33.3298 5.77 34.1368 5.968 34.8328 6.364C35.5348 6.754 36.0838 7.3 36.4798 8.002C36.8758 8.704 37.0738 9.514 37.0738 10.432V14.608C37.0738 15.526 36.8758 16.336 36.4798 17.038C36.0838 17.74 35.5348 18.289 34.8328 18.685C34.1368 19.075 33.3298 19.27 32.4118 19.27ZM32.4118 17.209C32.8678 17.209 33.2818 17.101 33.6538 16.885C34.0258 16.663 34.3198 16.369 34.5358 16.003C34.7518 15.631 34.8598 15.217 34.8598 14.761V10.27C34.8598 9.808 34.7518 9.394 34.5358 9.028C34.3198 8.656 34.0258 8.362 33.6538 8.146C33.2818 7.924 32.8678 7.813 32.4118 7.813C31.9558 7.813 31.5418 7.924 31.1698 8.146C30.7978 8.362 30.5038 8.656 30.2878 9.028C30.0718 9.394 29.9638 9.808 29.9638 10.27V14.761C29.9638 15.217 30.0718 15.631 30.2878 16.003C30.5038 16.369 30.7978 16.663 31.1698 16.885C31.5418 17.101 31.9558 17.209 32.4118 17.209ZM38.6875 18.982V17.092L44.2315 12.151C44.6635 11.767 44.9635 11.404 45.1315 11.062C45.2995 10.72 45.3835 10.39 45.3835 10.072C45.3835 9.64 45.2905 9.256 45.1045 8.92C44.9185 8.578 44.6605 8.308 44.3305 8.11C44.0065 7.912 43.6315 7.813 43.2055 7.813C42.7555 7.813 42.3565 7.918 42.0085 8.128C41.6665 8.332 41.3995 8.605 41.2075 8.947C41.0155 9.289 40.9255 9.658 40.9375 10.054H38.7055C38.7055 9.19 38.8975 8.437 39.2815 7.795C39.6715 7.153 40.2055 6.655 40.8835 6.301C41.5675 5.947 42.3565 5.77 43.2505 5.77C44.0785 5.77 44.8225 5.956 45.4825 6.328C46.1425 6.694 46.6615 7.204 47.0395 7.858C47.4175 8.506 47.6065 9.253 47.6065 10.099C47.6065 10.717 47.5225 11.236 47.3545 11.656C47.1865 12.076 46.9345 12.463 46.5985 12.817C46.2685 13.171 45.8575 13.564 45.3655 13.996L41.4325 17.479L41.2345 16.939H47.6065V18.982H38.6875Z" fill="#263238"/>
<circle cx="3.13043" cy="7.13055" r="3.13043" fill="#1FE0B3"/>
<circle cx="3.13043" cy="16.8697" r="3.13043" fill="#ECEEF4"/>
<circle cx="12.8687" cy="7.13055" r="3.13043" fill="#1FE0B3"/>
<circle cx="12.8687" cy="16.8697" r="3.13043" fill="#ECEEF4"/>
</svg>
