<svg width="215" height="96" viewBox="0 0 215 96" fill="none" xmlns="http://www.w3.org/2000/svg">
<g filter="url(#filter0_d_230_3874)">
<rect x="4" y="2" width="207" height="88" rx="10" fill="white"/>
<path d="M74.3 39L77.915 28.2H79.775L83.39 39H82.0025L78.62 28.98H79.04L75.6875 39H74.3ZM76.04 36.4725V35.22H81.65V36.4725H76.04ZM86.322 39L83.382 30.9H84.732L87.0045 37.2975L89.2695 30.9H90.627L87.687 39H86.322ZM93.832 39.225C93.227 39.225 92.7195 39.115 92.3095 38.895C91.9045 38.67 91.597 38.375 91.387 38.01C91.182 37.645 91.0795 37.245 91.0795 36.81C91.0795 36.385 91.1595 36.0175 91.3195 35.7075C91.4845 35.3925 91.7145 35.1325 92.0095 34.9275C92.3045 34.7175 92.657 34.5525 93.067 34.4325C93.452 34.3275 93.882 34.2375 94.357 34.1625C94.837 34.0825 95.322 34.01 95.812 33.945C96.302 33.88 96.7595 33.8175 97.1845 33.7575L96.7045 34.035C96.7195 33.315 96.5745 32.7825 96.2695 32.4375C95.9695 32.0925 95.4495 31.92 94.7095 31.92C94.2195 31.92 93.7895 32.0325 93.4195 32.2575C93.0545 32.4775 92.797 32.8375 92.647 33.3375L91.3795 32.955C91.5745 32.245 91.952 31.6875 92.512 31.2825C93.072 30.8775 93.8095 30.675 94.7245 30.675C95.4595 30.675 96.0895 30.8075 96.6145 31.0725C97.1445 31.3325 97.5245 31.7275 97.7545 32.2575C97.8695 32.5075 97.942 32.78 97.972 33.075C98.002 33.365 98.017 33.67 98.017 33.99V39H96.832V37.0575L97.1095 37.2375C96.8045 37.8925 96.377 38.3875 95.827 38.7225C95.282 39.0575 94.617 39.225 93.832 39.225ZM94.0345 38.1075C94.5145 38.1075 94.9295 38.0225 95.2795 37.8525C95.6345 37.6775 95.9195 37.45 96.1345 37.17C96.3495 36.885 96.4895 36.575 96.5545 36.24C96.6295 35.99 96.6695 35.7125 96.6745 35.4075C96.6845 35.0975 96.6895 34.86 96.6895 34.695L97.1545 34.8975C96.7195 34.9575 96.292 35.015 95.872 35.07C95.452 35.125 95.0545 35.185 94.6795 35.25C94.3045 35.31 93.967 35.3825 93.667 35.4675C93.447 35.5375 93.2395 35.6275 93.0445 35.7375C92.8545 35.8475 92.6995 35.99 92.5795 36.165C92.4645 36.335 92.407 36.5475 92.407 36.8025C92.407 37.0225 92.462 37.2325 92.572 37.4325C92.687 37.6325 92.862 37.795 93.097 37.92C93.337 38.045 93.6495 38.1075 94.0345 38.1075ZM100.117 29.4675V28.0875H101.452V29.4675H100.117ZM100.117 39V30.9H101.452V39H100.117ZM103.852 39V27.975H105.187V39H103.852ZM109.74 39.225C109.135 39.225 108.628 39.115 108.218 38.895C107.813 38.67 107.505 38.375 107.295 38.01C107.09 37.645 106.988 37.245 106.988 36.81C106.988 36.385 107.068 36.0175 107.228 35.7075C107.393 35.3925 107.623 35.1325 107.918 34.9275C108.213 34.7175 108.565 34.5525 108.975 34.4325C109.36 34.3275 109.79 34.2375 110.265 34.1625C110.745 34.0825 111.23 34.01 111.72 33.945C112.21 33.88 112.668 33.8175 113.093 33.7575L112.613 34.035C112.628 33.315 112.483 32.7825 112.178 32.4375C111.878 32.0925 111.358 31.92 110.618 31.92C110.128 31.92 109.698 32.0325 109.328 32.2575C108.963 32.4775 108.705 32.8375 108.555 33.3375L107.288 32.955C107.483 32.245 107.86 31.6875 108.42 31.2825C108.98 30.8775 109.718 30.675 110.633 30.675C111.368 30.675 111.998 30.8075 112.523 31.0725C113.053 31.3325 113.433 31.7275 113.663 32.2575C113.778 32.5075 113.85 32.78 113.88 33.075C113.91 33.365 113.925 33.67 113.925 33.99V39H112.74V37.0575L113.018 37.2375C112.713 37.8925 112.285 38.3875 111.735 38.7225C111.19 39.0575 110.525 39.225 109.74 39.225ZM109.943 38.1075C110.423 38.1075 110.838 38.0225 111.188 37.8525C111.543 37.6775 111.828 37.45 112.043 37.17C112.258 36.885 112.398 36.575 112.463 36.24C112.538 35.99 112.578 35.7125 112.583 35.4075C112.593 35.0975 112.598 34.86 112.598 34.695L113.063 34.8975C112.628 34.9575 112.2 35.015 111.78 35.07C111.36 35.125 110.963 35.185 110.588 35.25C110.213 35.31 109.875 35.3825 109.575 35.4675C109.355 35.5375 109.148 35.6275 108.953 35.7375C108.763 35.8475 108.608 35.99 108.488 36.165C108.373 36.335 108.315 36.5475 108.315 36.8025C108.315 37.0225 108.37 37.2325 108.48 37.4325C108.595 37.6325 108.77 37.795 109.005 37.92C109.245 38.045 109.558 38.1075 109.943 38.1075ZM119.595 39.225C118.835 39.225 118.195 39.0375 117.675 38.6625C117.155 38.2825 116.76 37.77 116.49 37.125C116.225 36.475 116.093 35.7475 116.093 34.9425C116.093 34.1275 116.225 33.3975 116.49 32.7525C116.76 32.1075 117.155 31.6 117.675 31.23C118.2 30.86 118.843 30.675 119.603 30.675C120.353 30.675 120.998 30.8625 121.538 31.2375C122.083 31.6075 122.5 32.115 122.79 32.76C123.08 33.405 123.225 34.1325 123.225 34.9425C123.225 35.7525 123.08 36.48 122.79 37.125C122.5 37.77 122.083 38.2825 121.538 38.6625C120.998 39.0375 120.35 39.225 119.595 39.225ZM115.868 39V28.2H117.21V33.0375H117.06V39H115.868ZM119.43 38.0025C119.965 38.0025 120.408 37.8675 120.758 37.5975C121.108 37.3275 121.37 36.9625 121.545 36.5025C121.72 36.0375 121.808 35.5175 121.808 34.9425C121.808 34.3725 121.72 33.8575 121.545 33.3975C121.375 32.9375 121.11 32.5725 120.75 32.3025C120.395 32.0325 119.943 31.8975 119.393 31.8975C118.868 31.8975 118.433 32.0275 118.088 32.2875C117.743 32.5425 117.485 32.9 117.315 33.36C117.145 33.815 117.06 34.3425 117.06 34.9425C117.06 35.5325 117.143 36.06 117.308 36.525C117.478 36.985 117.738 37.3475 118.088 37.6125C118.438 37.8725 118.885 38.0025 119.43 38.0025ZM125.019 39V27.975H126.354V39H125.019ZM132.115 39.225C131.32 39.225 130.625 39.05 130.03 38.7C129.44 38.345 128.98 37.8525 128.65 37.2225C128.32 36.5875 128.155 35.8475 128.155 35.0025C128.155 34.1175 128.317 33.3525 128.642 32.7075C128.967 32.0575 129.42 31.5575 130 31.2075C130.585 30.8525 131.27 30.675 132.055 30.675C132.87 30.675 133.562 30.8625 134.132 31.2375C134.707 31.6125 135.137 32.1475 135.422 32.8425C135.712 33.5375 135.837 34.365 135.797 35.325H134.447V34.845C134.432 33.85 134.23 33.1075 133.84 32.6175C133.45 32.1225 132.87 31.875 132.1 31.875C131.275 31.875 130.647 32.14 130.217 32.67C129.787 33.2 129.572 33.96 129.572 34.95C129.572 35.905 129.787 36.645 130.217 37.17C130.647 37.695 131.26 37.9575 132.055 37.9575C132.59 37.9575 133.055 37.835 133.45 37.59C133.845 37.345 134.155 36.9925 134.38 36.5325L135.662 36.975C135.347 37.69 134.872 38.245 134.237 38.64C133.607 39.03 132.9 39.225 132.115 39.225ZM129.122 35.325V34.2525H135.107V35.325H129.122ZM143.92 39.225C143.115 39.225 142.42 39.0425 141.835 38.6775C141.255 38.3125 140.807 37.8075 140.492 37.1625C140.177 36.5175 140.02 35.7775 140.02 34.9425C140.02 34.0925 140.18 33.3475 140.5 32.7075C140.82 32.0675 141.272 31.57 141.857 31.215C142.442 30.855 143.13 30.675 143.92 30.675C144.73 30.675 145.427 30.8575 146.012 31.2225C146.597 31.5825 147.045 32.085 147.355 32.73C147.67 33.37 147.827 34.1075 147.827 34.9425C147.827 35.7875 147.67 36.5325 147.355 37.1775C147.04 37.8175 146.59 38.32 146.005 38.685C145.42 39.045 144.725 39.225 143.92 39.225ZM143.92 37.9575C144.76 37.9575 145.385 37.6775 145.795 37.1175C146.205 36.5575 146.41 35.8325 146.41 34.9425C146.41 34.0275 146.202 33.3 145.787 32.76C145.372 32.215 144.75 31.9425 143.92 31.9425C143.355 31.9425 142.89 32.07 142.525 32.325C142.16 32.58 141.887 32.9325 141.707 33.3825C141.527 33.8325 141.437 34.3525 141.437 34.9425C141.437 35.8525 141.647 36.5825 142.067 37.1325C142.487 37.6825 143.105 37.9575 143.92 37.9575ZM155.246 39V34.9425C155.246 34.5575 155.211 34.1875 155.141 33.8325C155.076 33.4775 154.959 33.16 154.789 32.88C154.624 32.595 154.399 32.37 154.114 32.205C153.834 32.04 153.479 31.9575 153.049 31.9575C152.714 31.9575 152.409 32.015 152.134 32.13C151.864 32.24 151.631 32.41 151.436 32.64C151.241 32.87 151.089 33.16 150.979 33.51C150.874 33.855 150.821 34.2625 150.821 34.7325L149.944 34.4625C149.944 33.6775 150.084 33.005 150.364 32.445C150.649 31.88 151.046 31.4475 151.556 31.1475C152.071 30.8425 152.676 30.69 153.371 30.69C153.896 30.69 154.344 30.7725 154.714 30.9375C155.084 31.1025 155.391 31.3225 155.636 31.5975C155.881 31.8675 156.074 32.1725 156.214 32.5125C156.354 32.8475 156.451 33.19 156.506 33.54C156.566 33.885 156.596 34.2125 156.596 34.5225V39H155.246ZM149.471 39V30.9H150.671V33.0675H150.821V39H149.471ZM166.072 39C165.592 39.095 165.117 39.1325 164.647 39.1125C164.182 39.0975 163.767 39.005 163.402 38.835C163.037 38.66 162.759 38.39 162.569 38.025C162.409 37.705 162.322 37.3825 162.307 37.0575C162.297 36.7275 162.292 36.355 162.292 35.94V28.65H163.627V35.88C163.627 36.21 163.629 36.4925 163.634 36.7275C163.644 36.9625 163.697 37.165 163.792 37.335C163.972 37.655 164.257 37.8425 164.647 37.8975C165.042 37.9525 165.517 37.9375 166.072 37.8525V39ZM160.649 32.0025V30.9H166.072V32.0025H160.649ZM173.484 39V34.9425C173.484 34.5575 173.449 34.1875 173.379 33.8325C173.314 33.4775 173.196 33.16 173.026 32.88C172.861 32.595 172.636 32.37 172.351 32.205C172.071 32.04 171.716 31.9575 171.286 31.9575C170.951 31.9575 170.646 32.015 170.371 32.13C170.101 32.24 169.869 32.41 169.674 32.64C169.479 32.87 169.326 33.16 169.216 33.51C169.111 33.855 169.059 34.2625 169.059 34.7325L168.181 34.4625C168.181 33.6775 168.321 33.005 168.601 32.445C168.886 31.88 169.284 31.4475 169.794 31.1475C170.309 30.8425 170.914 30.69 171.609 30.69C172.134 30.69 172.581 30.7725 172.951 30.9375C173.321 31.1025 173.629 31.3225 173.874 31.5975C174.119 31.8675 174.311 32.1725 174.451 32.5125C174.591 32.8475 174.689 33.19 174.744 33.54C174.804 33.885 174.834 34.2125 174.834 34.5225V39H173.484ZM167.709 39V28.2H168.909V34.1625H169.059V39H167.709ZM180.293 39.225C179.498 39.225 178.803 39.05 178.208 38.7C177.618 38.345 177.158 37.8525 176.828 37.2225C176.498 36.5875 176.333 35.8475 176.333 35.0025C176.333 34.1175 176.496 33.3525 176.821 32.7075C177.146 32.0575 177.598 31.5575 178.178 31.2075C178.763 30.8525 179.448 30.675 180.233 30.675C181.048 30.675 181.741 30.8625 182.311 31.2375C182.886 31.6125 183.316 32.1475 183.601 32.8425C183.891 33.5375 184.016 34.365 183.976 35.325H182.626V34.845C182.611 33.85 182.408 33.1075 182.018 32.6175C181.628 32.1225 181.048 31.875 180.278 31.875C179.453 31.875 178.826 32.14 178.396 32.67C177.966 33.2 177.751 33.96 177.751 34.95C177.751 35.905 177.966 36.645 178.396 37.17C178.826 37.695 179.438 37.9575 180.233 37.9575C180.768 37.9575 181.233 37.835 181.628 37.59C182.023 37.345 182.333 36.9925 182.558 36.5325L183.841 36.975C183.526 37.69 183.051 38.245 182.416 38.64C181.786 39.03 181.078 39.225 180.293 39.225ZM177.301 35.325V34.2525H183.286V35.325H177.301Z" fill="#686674"/>
<path d="M80.606 64.27C79.766 64.27 78.977 64.123 78.239 63.829C77.507 63.529 76.862 63.091 76.304 62.515C75.752 61.939 75.32 61.234 75.008 60.4C74.696 59.56 74.54 58.6 74.54 57.52C74.54 56.104 74.804 54.895 75.332 53.893C75.86 52.885 76.583 52.114 77.501 51.58C78.419 51.04 79.454 50.77 80.606 50.77C82.202 50.77 83.465 51.142 84.395 51.886C85.331 52.624 85.964 53.662 86.294 55L84.08 55.351C83.834 54.583 83.432 53.971 82.874 53.515C82.316 53.053 81.605 52.822 80.741 52.822C79.871 52.81 79.148 52.999 78.572 53.389C77.996 53.779 77.561 54.328 77.267 55.036C76.979 55.744 76.835 56.572 76.835 57.52C76.835 58.468 76.979 59.293 77.267 59.995C77.555 60.691 77.987 61.234 78.563 61.624C79.145 62.014 79.871 62.215 80.741 62.227C81.395 62.233 81.968 62.116 82.46 61.876C82.952 61.63 83.354 61.261 83.666 60.769C83.978 60.271 84.188 59.65 84.296 58.906H82.01V57.205H86.6C86.612 57.301 86.621 57.442 86.627 57.628C86.633 57.814 86.636 57.925 86.636 57.961C86.636 59.185 86.393 60.274 85.907 61.228C85.427 62.176 84.737 62.92 83.837 63.46C82.937 64 81.86 64.27 80.606 64.27ZM92.5588 64.27C91.5868 64.27 90.7378 64.051 90.0118 63.613C89.2858 63.175 88.7218 62.572 88.3198 61.804C87.9238 61.03 87.7258 60.142 87.7258 59.14C87.7258 58.12 87.9298 57.226 88.3378 56.458C88.7458 55.69 89.3128 55.09 90.0388 54.658C90.7648 54.226 91.6048 54.01 92.5588 54.01C93.5368 54.01 94.3888 54.229 95.1148 54.667C95.8408 55.105 96.4048 55.711 96.8068 56.485C97.2088 57.253 97.4098 58.138 97.4098 59.14C97.4098 60.148 97.2058 61.039 96.7978 61.813C96.3958 62.581 95.8318 63.184 95.1058 63.622C94.3798 64.054 93.5308 64.27 92.5588 64.27ZM92.5588 62.236C93.4228 62.236 94.0648 61.948 94.4848 61.372C94.9048 60.796 95.1148 60.052 95.1148 59.14C95.1148 58.198 94.9018 57.448 94.4758 56.89C94.0498 56.326 93.4108 56.044 92.5588 56.044C91.9768 56.044 91.4968 56.176 91.1188 56.44C90.7468 56.698 90.4708 57.061 90.2908 57.529C90.1108 57.991 90.0208 58.528 90.0208 59.14C90.0208 60.082 90.2338 60.835 90.6598 61.399C91.0918 61.957 91.7248 62.236 92.5588 62.236ZM103.508 64.27C102.536 64.27 101.687 64.051 100.961 63.613C100.235 63.175 99.671 62.572 99.269 61.804C98.873 61.03 98.675 60.142 98.675 59.14C98.675 58.12 98.879 57.226 99.287 56.458C99.695 55.69 100.262 55.09 100.988 54.658C101.714 54.226 102.554 54.01 103.508 54.01C104.486 54.01 105.338 54.229 106.064 54.667C106.79 55.105 107.354 55.711 107.756 56.485C108.158 57.253 108.359 58.138 108.359 59.14C108.359 60.148 108.155 61.039 107.747 61.813C107.345 62.581 106.781 63.184 106.055 63.622C105.329 64.054 104.48 64.27 103.508 64.27ZM103.508 62.236C104.372 62.236 105.014 61.948 105.434 61.372C105.854 60.796 106.064 60.052 106.064 59.14C106.064 58.198 105.851 57.448 105.425 56.89C104.999 56.326 104.36 56.044 103.508 56.044C102.926 56.044 102.446 56.176 102.068 56.44C101.696 56.698 101.42 57.061 101.24 57.529C101.06 57.991 100.97 58.528 100.97 59.14C100.97 60.082 101.183 60.835 101.609 61.399C102.041 61.957 102.674 62.236 103.508 62.236ZM114.25 68.59C113.71 68.59 113.191 68.506 112.693 68.338C112.201 68.17 111.757 67.927 111.361 67.609C110.965 67.297 110.641 66.919 110.389 66.475L112.387 65.485C112.573 65.839 112.834 66.1 113.17 66.268C113.512 66.442 113.875 66.529 114.259 66.529C114.709 66.529 115.111 66.448 115.465 66.286C115.819 66.13 116.092 65.896 116.284 65.584C116.482 65.278 116.575 64.894 116.563 64.432V61.669H116.833V54.28H118.732V64.468C118.732 64.714 118.72 64.948 118.696 65.17C118.678 65.398 118.645 65.62 118.597 65.836C118.453 66.466 118.177 66.982 117.769 67.384C117.361 67.792 116.854 68.095 116.248 68.293C115.648 68.491 114.982 68.59 114.25 68.59ZM114.061 64.27C113.167 64.27 112.387 64.045 111.721 63.595C111.055 63.145 110.539 62.533 110.173 61.759C109.807 60.985 109.624 60.112 109.624 59.14C109.624 58.156 109.807 57.28 110.173 56.512C110.545 55.738 111.07 55.129 111.748 54.685C112.426 54.235 113.224 54.01 114.142 54.01C115.066 54.01 115.84 54.235 116.464 54.685C117.094 55.129 117.571 55.738 117.895 56.512C118.219 57.286 118.381 58.162 118.381 59.14C118.381 60.106 118.219 60.979 117.895 61.759C117.571 62.533 117.088 63.145 116.446 63.595C115.804 64.045 115.009 64.27 114.061 64.27ZM114.394 62.326C114.976 62.326 115.444 62.194 115.798 61.93C116.158 61.66 116.419 61.285 116.581 60.805C116.749 60.325 116.833 59.77 116.833 59.14C116.833 58.504 116.749 57.949 116.581 57.475C116.419 56.995 116.164 56.623 115.816 56.359C115.468 56.089 115.018 55.954 114.466 55.954C113.884 55.954 113.404 56.098 113.026 56.386C112.648 56.668 112.369 57.052 112.189 57.538C112.009 58.018 111.919 58.552 111.919 59.14C111.919 59.734 112.006 60.274 112.18 60.76C112.36 61.24 112.633 61.621 112.999 61.903C113.365 62.185 113.83 62.326 114.394 62.326ZM121.258 64V50.77H123.427V64H121.258ZM130.364 64.27C129.38 64.27 128.516 64.057 127.772 63.631C127.028 63.205 126.446 62.614 126.026 61.858C125.612 61.102 125.405 60.232 125.405 59.248C125.405 58.186 125.609 57.265 126.017 56.485C126.425 55.699 126.992 55.09 127.718 54.658C128.444 54.226 129.284 54.01 130.238 54.01C131.246 54.01 132.101 54.247 132.803 54.721C133.511 55.189 134.036 55.852 134.378 56.71C134.72 57.568 134.849 58.579 134.765 59.743H132.614V58.951C132.608 57.895 132.422 57.124 132.056 56.638C131.69 56.152 131.114 55.909 130.328 55.909C129.44 55.909 128.78 56.185 128.348 56.737C127.916 57.283 127.7 58.084 127.7 59.14C127.7 60.124 127.916 60.886 128.348 61.426C128.78 61.966 129.41 62.236 130.238 62.236C130.772 62.236 131.231 62.119 131.615 61.885C132.005 61.645 132.305 61.3 132.515 60.85L134.657 61.498C134.285 62.374 133.709 63.055 132.929 63.541C132.155 64.027 131.3 64.27 130.364 64.27ZM127.016 59.743V58.105H133.703V59.743H127.016ZM140.021 64V51.04H145.376C145.502 51.04 145.664 51.046 145.862 51.058C146.06 51.064 146.243 51.082 146.411 51.112C147.161 51.226 147.779 51.475 148.265 51.859C148.757 52.243 149.12 52.729 149.354 53.317C149.594 53.899 149.714 54.547 149.714 55.261C149.714 55.969 149.594 56.617 149.354 57.205C149.114 57.787 148.748 58.27 148.256 58.654C147.77 59.038 147.155 59.287 146.411 59.401C146.243 59.425 146.057 59.443 145.853 59.455C145.655 59.467 145.496 59.473 145.376 59.473H142.19V64H140.021ZM142.19 57.448H145.286C145.406 57.448 145.541 57.442 145.691 57.43C145.841 57.418 145.979 57.394 146.105 57.358C146.465 57.268 146.747 57.109 146.951 56.881C147.161 56.653 147.308 56.395 147.392 56.107C147.482 55.819 147.527 55.537 147.527 55.261C147.527 54.985 147.482 54.703 147.392 54.415C147.308 54.121 147.161 53.86 146.951 53.632C146.747 53.404 146.465 53.245 146.105 53.155C145.979 53.119 145.841 53.098 145.691 53.092C145.541 53.08 145.406 53.074 145.286 53.074H142.19V57.448ZM151.52 64V50.77H153.689V64H151.52ZM158.925 64.27C158.223 64.27 157.629 64.138 157.143 63.874C156.657 63.604 156.288 63.247 156.036 62.803C155.79 62.359 155.667 61.87 155.667 61.336C155.667 60.868 155.745 60.448 155.901 60.076C156.057 59.698 156.297 59.374 156.621 59.104C156.945 58.828 157.365 58.603 157.881 58.429C158.271 58.303 158.727 58.189 159.249 58.087C159.777 57.985 160.347 57.892 160.959 57.808C161.577 57.718 162.222 57.622 162.894 57.52L162.12 57.961C162.126 57.289 161.976 56.794 161.67 56.476C161.364 56.158 160.848 55.999 160.122 55.999C159.684 55.999 159.261 56.101 158.853 56.305C158.445 56.509 158.16 56.86 157.998 57.358L156.018 56.737C156.258 55.915 156.714 55.255 157.386 54.757C158.064 54.259 158.976 54.01 160.122 54.01C160.986 54.01 161.745 54.151 162.399 54.433C163.059 54.715 163.548 55.177 163.866 55.819C164.04 56.161 164.145 56.512 164.181 56.872C164.217 57.226 164.235 57.613 164.235 58.033V64H162.336V61.894L162.651 62.236C162.213 62.938 161.7 63.454 161.112 63.784C160.53 64.108 159.801 64.27 158.925 64.27ZM159.357 62.542C159.849 62.542 160.269 62.455 160.617 62.281C160.965 62.107 161.241 61.894 161.445 61.642C161.655 61.39 161.796 61.153 161.868 60.931C161.982 60.655 162.045 60.34 162.057 59.986C162.075 59.626 162.084 59.335 162.084 59.113L162.75 59.311C162.096 59.413 161.535 59.503 161.067 59.581C160.599 59.659 160.197 59.734 159.861 59.806C159.525 59.872 159.228 59.947 158.97 60.031C158.718 60.121 158.505 60.226 158.331 60.346C158.157 60.466 158.022 60.604 157.926 60.76C157.836 60.916 157.791 61.099 157.791 61.309C157.791 61.549 157.851 61.762 157.971 61.948C158.091 62.128 158.265 62.272 158.493 62.38C158.727 62.488 159.015 62.542 159.357 62.542ZM167.133 68.32L169.005 63.181L169.041 64.693L164.802 54.28H167.061L170.067 61.984H169.491L172.416 54.28H174.585L169.167 68.32H167.133Z" fill="#2D2F35"/>
<path fill-rule="evenodd" clip-rule="evenodd" d="M29.5721 30.4958C29.2088 30.8862 29 31.4872 29 32.2681V60.0441C29 60.825 29.2088 61.4259 29.5857 61.8028L29.6841 61.886L45.2477 46.3224V45.9727L29.6705 30.4126L29.5721 30.4958V30.4958Z" fill="url(#paint0_linear_230_3874)"/>
<path fill-rule="evenodd" clip-rule="evenodd" d="M50.4256 51.5304L45.2344 46.3375V45.9742L50.4273 40.7812L50.5394 40.8509L56.6813 44.3411C58.44 45.3325 58.44 46.9656 56.6813 47.9706L50.5394 51.4608C50.5377 51.4608 50.4256 51.5304 50.4256 51.5304V51.5304Z" fill="url(#paint1_linear_230_3874)"/>
<path fill-rule="evenodd" clip-rule="evenodd" d="M50.5376 51.4607L45.2343 46.1558L29.5723 61.8178C30.1444 62.4323 31.1069 62.5019 32.1832 61.9009L50.5376 51.4607Z" fill="url(#paint2_linear_230_3874)"/>
<path fill-rule="evenodd" clip-rule="evenodd" d="M50.5376 40.8524L32.1832 30.4258C31.1086 29.8113 30.1444 29.8945 29.5723 30.509L45.2326 46.1557L50.5376 40.8524Z" fill="url(#paint3_linear_230_3874)"/>
<path opacity="0.2" fill-rule="evenodd" clip-rule="evenodd" d="M50.4256 51.3486L32.1968 61.7057C31.1783 62.2913 30.2701 62.2506 29.6844 61.7192L29.5859 61.8177L29.6844 61.9009C30.2701 62.4305 31.1783 62.473 32.1968 61.8873L50.5512 51.4607L50.4256 51.3486V51.3486Z" fill="black"/>
<path opacity="0.12" fill-rule="evenodd" clip-rule="evenodd" d="M56.6786 47.7888L50.4111 51.3487L50.5232 51.4607L56.6651 47.9705C57.5444 47.468 57.9773 46.8127 57.9773 46.1558C57.9213 46.7567 57.4748 47.3288 56.6786 47.7888V47.7888Z" fill="black"/>
<path opacity="0.25" fill-rule="evenodd" clip-rule="evenodd" d="M32.183 30.6076L56.6793 44.5245C57.4754 44.9709 57.9219 45.5566 57.9915 46.1576C57.9915 45.5023 57.5586 44.8453 56.6793 44.3428L32.183 30.426C30.4243 29.421 29 30.2579 29 32.2678V32.4495C29 30.4395 30.4243 29.6162 32.183 30.6076Z" fill="white"/>
</g>
<defs>
<filter id="filter0_d_230_3874" x="0" y="0" width="215" height="96" filterUnits="userSpaceOnUse" color-interpolation-filters="sRGB">
<feFlood flood-opacity="0" result="BackgroundImageFix"/>
<feColorMatrix in="SourceAlpha" type="matrix" values="0 0 0 0 0 0 0 0 0 0 0 0 0 0 0 0 0 0 127 0" result="hardAlpha"/>
<feOffset dy="2"/>
<feGaussianBlur stdDeviation="2"/>
<feComposite in2="hardAlpha" operator="out"/>
<feColorMatrix type="matrix" values="0 0 0 0 0 0 0 0 0 0 0 0 0 0 0 0 0 0 0.08 0"/>
<feBlend mode="normal" in2="BackgroundImageFix" result="effect1_dropShadow_230_3874"/>
<feBlend mode="normal" in="SourceGraphic" in2="effect1_dropShadow_230_3874" result="shape"/>
</filter>
<linearGradient id="paint0_linear_230_3874" x1="43.8501" y1="31.9695" x2="18.92" y2="38.6122" gradientUnits="userSpaceOnUse">
<stop stop-color="#00A0FF"/>
<stop offset="0.007" stop-color="#00A1FF"/>
<stop offset="0.26" stop-color="#00BEFF"/>
<stop offset="0.512" stop-color="#00D2FF"/>
<stop offset="0.76" stop-color="#00DFFF"/>
<stop offset="1" stop-color="#00E3FF"/>
</linearGradient>
<linearGradient id="paint1_linear_230_3874" x1="58.9698" y1="46.1566" x2="28.5728" y2="46.1566" gradientUnits="userSpaceOnUse">
<stop stop-color="#FFE000"/>
<stop offset="0.409" stop-color="#FFBD00"/>
<stop offset="0.775" stop-color="#FFA500"/>
<stop offset="1" stop-color="#FF9C00"/>
</linearGradient>
<linearGradient id="paint2_linear_230_3874" x1="47.6538" y1="49.0417" x2="27.6398" y2="82.7265" gradientUnits="userSpaceOnUse">
<stop stop-color="#FF3A44"/>
<stop offset="1" stop-color="#C31162"/>
</linearGradient>
<linearGradient id="paint3_linear_230_3874" x1="25.6298" y1="21.2558" x2="34.5586" y2="36.2999" gradientUnits="userSpaceOnUse">
<stop stop-color="#32A071"/>
<stop offset="0.069" stop-color="#2DA771"/>
<stop offset="0.476" stop-color="#15CF74"/>
<stop offset="0.801" stop-color="#06E775"/>
<stop offset="1" stop-color="#00F076"/>
</linearGradient>
</defs>
</svg>
