<svg width="40" height="40" viewBox="0 0 40 40" fill="none" xmlns="http://www.w3.org/2000/svg">
<path d="M32.0472 16.2424C31.9152 16.234 31.7775 16.2056 31.6374 16.1604L34.443 14.2903C35.0175 13.9074 35.1727 13.1313 34.7898 12.5569C34.4069 11.9824 33.6308 11.8271 33.0564 12.2101L29.7129 14.4388L29.688 14.3979C28.7844 12.9091 27.1693 12 25.4263 12H18.75C17.3256 12 15.9705 12.6088 15.0244 13.6734L14.3675 14.4115C12.7119 16.2739 11.8341 16.9438 10.5785 17.1009L7.80902 17.3384C6.18335 17.54 5 18.8806 5 20.4711V22.5973C5 24.338 6.41119 25.7499 8.15253 25.7499H8.96393C9.4787 27.2063 10.8667 28.2496 12.4998 28.2496C14.1328 28.2496 15.5208 27.2063 16.0356 25.7499H25.2139C25.7287 27.2063 27.1167 28.2496 28.7498 28.2496C30.3937 28.2496 31.7891 27.1921 32.2955 25.7204C33.8247 25.5211 35 24.3114 35 22.7186V19.3886C35 17.7223 33.7031 16.3465 32.0472 16.2424ZM12.4998 25.7496C11.8098 25.7496 11.2513 25.1919 11.2499 24.5023C11.2499 24.5015 11.25 24.5007 11.25 24.4999C11.25 23.809 11.8091 23.2499 12.5 23.2499C13.0413 23.2499 13.501 23.5947 13.6748 24.0763C13.7225 24.2087 13.7498 24.3508 13.7498 24.4996C13.7498 25.1905 13.1907 25.7496 12.4998 25.7496ZM28.7498 25.7496C28.0598 25.7496 27.5013 25.1919 27.4999 24.5023C27.4999 24.5015 27.5 24.5007 27.5 24.4999C27.5 23.809 28.0591 23.2499 28.75 23.2499C29.2913 23.2499 29.751 23.5947 29.9248 24.0763C29.9725 24.2087 29.9998 24.3508 29.9998 24.4996C29.9998 25.1905 29.4407 25.7496 28.7498 25.7496ZM32.5 22.7186C32.5 22.9059 32.4116 23.0607 32.2512 23.154C32.2402 23.1254 32.2283 23.0973 32.2167 23.069C32.2115 23.0566 32.2067 23.0441 32.2015 23.0317C32.1804 22.9822 32.1583 22.9333 32.1351 22.885C32.1277 22.8694 32.1197 22.854 32.112 22.8385C32.0955 22.8051 32.0786 22.7719 32.0611 22.7391C32.0509 22.72 32.0405 22.701 32.03 22.6821C32.0134 22.6522 31.9963 22.6226 31.9789 22.5932C31.9682 22.5751 31.9576 22.5568 31.9466 22.5388C31.9207 22.4968 31.8942 22.4552 31.8668 22.4142C31.8553 22.3972 31.8433 22.3804 31.8315 22.3635C31.8118 22.3351 31.7919 22.3068 31.7714 22.2789C31.7568 22.2591 31.7418 22.2396 31.7269 22.2201C31.709 22.1968 31.6909 22.1737 31.6724 22.1508C31.6566 22.1311 31.6407 22.1114 31.6245 22.092C31.6044 22.0681 31.5839 22.0447 31.5633 22.0214C31.5396 21.9945 31.5156 21.9679 31.4911 21.9417C31.4671 21.916 31.443 21.8904 31.4183 21.8654C31.3996 21.8464 31.3804 21.828 31.3613 21.8094C31.342 21.7908 31.3227 21.7722 31.303 21.7539C31.283 21.7352 31.2627 21.7167 31.2422 21.6984C31.2223 21.6807 31.202 21.6633 31.1817 21.6459C31.1613 21.6285 31.1411 21.6109 31.1202 21.5939C31.0833 21.5638 31.0458 21.5343 31.0078 21.5055C30.9861 21.4893 30.9641 21.4736 30.9421 21.4578C30.9207 21.4423 30.8992 21.4269 30.8774 21.4118C30.8544 21.3959 30.8311 21.3804 30.8077 21.365C30.7859 21.3507 30.764 21.3367 30.7419 21.3229C30.7185 21.3082 30.6952 21.2934 30.6714 21.2792C30.6451 21.2634 30.6183 21.2484 30.5916 21.2333C30.555 21.2126 30.5181 21.1926 30.4807 21.1732C30.4547 21.1595 30.4286 21.1459 30.4022 21.133C30.3779 21.121 30.3534 21.1096 30.3288 21.0982C30.3038 21.0866 30.2787 21.0752 30.2534 21.0641C30.2288 21.0533 30.2041 21.0427 30.1792 21.0323C30.1511 21.0207 30.1228 21.0098 30.0944 20.9989C30.0669 20.9883 30.0395 20.9778 30.0118 20.9679C29.9698 20.9529 29.9276 20.9385 29.8851 20.925C29.8614 20.9175 29.8374 20.9107 29.8135 20.9036C29.7842 20.895 29.7548 20.8865 29.7251 20.8785C29.7003 20.8719 29.6754 20.8654 29.6504 20.8592C29.6196 20.8516 29.5885 20.8446 29.5574 20.8378C29.5341 20.8326 29.5108 20.8273 29.4873 20.8226C29.4365 20.8124 29.3853 20.8032 29.3336 20.7952C29.3123 20.7918 29.2906 20.7893 29.2692 20.7863C29.2346 20.7815 29.1999 20.7769 29.165 20.7731C29.1401 20.7703 29.1152 20.768 29.0903 20.7657C29.0573 20.7628 29.0242 20.7603 28.9911 20.7582C28.9665 20.7566 28.9419 20.7549 28.9172 20.7538C28.8757 20.752 28.8339 20.7512 28.7921 20.7507C28.7778 20.7505 28.7638 20.7496 28.7495 20.7496C28.7335 20.7496 28.7178 20.7505 28.7018 20.7508C28.6615 20.7513 28.6213 20.7521 28.5813 20.7538C28.5551 20.755 28.5292 20.7568 28.5032 20.7585C28.4716 20.7606 28.4399 20.7629 28.4085 20.7657C28.3817 20.7682 28.3549 20.7708 28.3283 20.7737C28.297 20.7772 28.2659 20.7814 28.2347 20.7856C28.2094 20.7891 28.1838 20.7924 28.1586 20.7963C28.1116 20.8038 28.065 20.8121 28.0186 20.8213C27.9904 20.8268 27.9625 20.8332 27.9346 20.8394C27.9036 20.8462 27.8726 20.8531 27.8419 20.8608C27.8155 20.8673 27.7894 20.8744 27.7633 20.8815C27.7356 20.8891 27.7079 20.8969 27.6805 20.905C27.6542 20.9128 27.6281 20.9207 27.6021 20.929C27.5741 20.938 27.5464 20.9476 27.5187 20.9572C27.4943 20.9657 27.4696 20.9739 27.4454 20.9828C27.3985 21.0002 27.3521 21.0185 27.3062 21.0377C27.2815 21.048 27.2573 21.0591 27.2328 21.0699C27.2073 21.0812 27.1818 21.0925 27.1567 21.1044C27.1313 21.1163 27.1063 21.1285 27.0812 21.141C27.0573 21.1529 27.0335 21.1651 27.0099 21.1775C26.9852 21.1905 26.9605 21.2034 26.9362 21.2169C26.9115 21.2306 26.8872 21.2449 26.8629 21.259C26.8251 21.2811 26.7878 21.3037 26.7509 21.327C26.7246 21.3435 26.6983 21.36 26.6725 21.3772C26.6492 21.3928 26.6263 21.4089 26.6034 21.4249C26.5821 21.4398 26.5608 21.4548 26.5399 21.4701C26.5169 21.4869 26.4942 21.5039 26.4717 21.5212C26.4511 21.5369 26.4308 21.553 26.4106 21.5691C26.3887 21.5867 26.3667 21.6041 26.3452 21.6221C26.3231 21.6406 26.3016 21.6597 26.28 21.6786C26.2453 21.709 26.2112 21.74 26.1777 21.7716C26.1578 21.7903 26.1379 21.8088 26.1185 21.828C26.0984 21.8478 26.0787 21.8682 26.059 21.8884C26.0412 21.9068 26.0234 21.9253 26.006 21.9441C25.9866 21.9649 25.9673 21.9858 25.9484 22.0071C25.9312 22.0264 25.9144 22.0461 25.8975 22.0658C25.8793 22.087 25.861 22.1081 25.8433 22.1298C25.819 22.1597 25.7954 22.1901 25.772 22.2206C25.7495 22.2501 25.7275 22.2799 25.7058 22.31C25.6902 22.3317 25.6745 22.3533 25.6594 22.3754C25.6434 22.3986 25.6278 22.4222 25.6123 22.4458C25.598 22.4676 25.584 22.4895 25.5701 22.5116C25.5552 22.5355 25.5403 22.5594 25.5259 22.5836C25.5119 22.6071 25.4985 22.631 25.485 22.6548C25.4687 22.6836 25.4525 22.7125 25.4369 22.7417C25.4168 22.7795 25.3972 22.8175 25.3784 22.856C25.3665 22.8803 25.3554 22.905 25.3441 22.9296C25.3325 22.9546 25.3209 22.9797 25.3099 23.0051C25.2988 23.0306 25.2881 23.0563 25.2776 23.082C25.2672 23.1075 25.2571 23.1332 25.2473 23.1591C25.2375 23.1846 25.2276 23.2101 25.2184 23.236C25.2167 23.2406 25.2148 23.2451 25.2132 23.2498H16.0366C16.0338 23.2419 16.0306 23.2342 16.0278 23.2264C16.0218 23.2099 16.0154 23.1936 16.0093 23.1772C15.9957 23.141 15.9816 23.1052 15.9669 23.0696C15.9594 23.0513 15.9517 23.033 15.9438 23.0147C15.9286 22.9794 15.9127 22.9445 15.8964 22.9098C15.8889 22.8939 15.8818 22.8777 15.874 22.8619C15.8508 22.8141 15.8267 22.7668 15.8015 22.7201C15.7931 22.7046 15.7842 22.6896 15.7756 22.6743C15.7576 22.642 15.7394 22.61 15.7205 22.5784C15.7086 22.5583 15.6962 22.5386 15.6839 22.5188C15.6672 22.4921 15.6503 22.4656 15.633 22.4394C15.6196 22.4191 15.6063 22.3989 15.5926 22.379C15.5742 22.3522 15.5553 22.326 15.5363 22.2997C15.5232 22.2818 15.5106 22.2635 15.4972 22.2458C15.4672 22.2059 15.4363 22.1667 15.4048 22.1282C15.3887 22.1085 15.3719 22.0892 15.3554 22.0699C15.337 22.0483 15.3186 22.0267 15.2997 22.0056C15.2816 21.9853 15.2632 21.9653 15.2447 21.9454C15.2264 21.9257 15.2078 21.9064 15.1891 21.8871C15.17 21.8674 15.1509 21.8477 15.1313 21.8284C15.1114 21.8087 15.0909 21.7896 15.0706 21.7704C15.0374 21.7391 15.0037 21.7085 14.9694 21.6784C14.9478 21.6595 14.9265 21.6406 14.9045 21.6222C14.8827 21.6039 14.8604 21.5863 14.8382 21.5686C14.8184 21.5527 14.7985 21.537 14.7783 21.5215C14.7554 21.504 14.7324 21.4868 14.709 21.4697C14.6886 21.4548 14.6678 21.4402 14.647 21.4257C14.6237 21.4093 14.6003 21.3928 14.5765 21.3769C14.5522 21.3608 14.5274 21.3453 14.5027 21.3296C14.4638 21.305 14.4244 21.2811 14.3845 21.2578C14.361 21.2441 14.3376 21.2303 14.3138 21.2172C14.2891 21.2035 14.264 21.1903 14.239 21.1772C14.2156 21.165 14.1923 21.1529 14.1686 21.1412C14.1434 21.1286 14.1182 21.1162 14.0927 21.1042C14.0676 21.0925 14.0422 21.0812 14.0168 21.0699C13.9923 21.0591 13.968 21.048 13.9433 21.0377C13.8973 21.0184 13.8508 21.0001 13.8038 20.9827C13.7801 20.9739 13.756 20.9659 13.7321 20.9576C13.7037 20.9478 13.6755 20.9379 13.6469 20.9288C13.6213 20.9206 13.5956 20.9128 13.5699 20.9052C13.5417 20.8968 13.5134 20.8888 13.4849 20.8811C13.4595 20.8742 13.4341 20.8673 13.4084 20.8609C13.3761 20.8528 13.3435 20.8456 13.3109 20.8384C13.2885 20.8334 13.2662 20.8281 13.2437 20.8235C13.1928 20.8132 13.1415 20.8042 13.09 20.796C13.0659 20.7922 13.0416 20.7892 13.0173 20.7858C12.9849 20.7814 12.9526 20.7771 12.92 20.7735C12.8942 20.7706 12.8683 20.7681 12.8423 20.7657C12.8099 20.7628 12.7773 20.7604 12.7448 20.7584C12.7195 20.7567 12.6942 20.7549 12.6688 20.7538C12.628 20.7519 12.5869 20.7512 12.5457 20.7507C12.5304 20.7505 12.5152 20.7495 12.4998 20.7495C12.4838 20.7495 12.4681 20.7505 12.4521 20.7507C12.4119 20.7512 12.3716 20.752 12.3316 20.7538C12.3054 20.7549 12.2795 20.7568 12.2534 20.7585C12.2218 20.7606 12.1902 20.7628 12.1588 20.7657C12.132 20.7681 12.1052 20.7707 12.0786 20.7737C12.0472 20.7772 12.0161 20.7814 11.9851 20.7856C11.9597 20.7891 11.9342 20.7924 11.9089 20.7963C11.8621 20.8038 11.8155 20.8121 11.7692 20.8213C11.7409 20.8269 11.713 20.8332 11.6849 20.8394C11.6539 20.8463 11.6229 20.8531 11.5922 20.8608C11.5659 20.8673 11.5397 20.8744 11.5136 20.8815C11.4859 20.889 11.4583 20.8968 11.4308 20.905C11.4046 20.9128 11.3784 20.9207 11.3524 20.9291C11.3244 20.938 11.2968 20.9476 11.2692 20.9572C11.2446 20.9658 11.2199 20.9739 11.1956 20.9829C11.1488 21.0002 11.1024 21.0185 11.0565 21.0377C11.0317 21.048 11.0074 21.0592 10.983 21.07C10.9575 21.0812 10.9321 21.0925 10.907 21.1043C10.8816 21.1162 10.8564 21.1285 10.8314 21.141C10.8075 21.153 10.7838 21.1651 10.7603 21.1774C10.7355 21.1904 10.7108 21.2034 10.6863 21.2169C10.6617 21.2305 10.6376 21.2447 10.6133 21.2589C10.5754 21.2811 10.5378 21.3038 10.5008 21.3272C10.4747 21.3437 10.4485 21.3601 10.4228 21.3772C10.3995 21.3928 10.3766 21.4089 10.3537 21.4249C10.3324 21.4398 10.3111 21.4548 10.2902 21.4701C10.2672 21.4869 10.2445 21.5039 10.2219 21.5212C10.2014 21.5369 10.1812 21.5529 10.161 21.5691C10.139 21.5867 10.1169 21.6041 10.0954 21.6222C10.0734 21.6406 10.052 21.6595 10.0305 21.6785C9.99567 21.7089 9.96149 21.74 9.92786 21.7717C9.90808 21.7903 9.88824 21.8089 9.8689 21.8279C9.84869 21.8478 9.82898 21.8682 9.80927 21.8885C9.79144 21.9069 9.77374 21.9253 9.75635 21.944C9.73694 21.9648 9.71771 21.9858 9.69879 22.0071C9.68152 22.0264 9.66467 22.0461 9.64783 22.0659C9.6297 22.0872 9.61139 22.1082 9.59375 22.1298C9.56927 22.1598 9.54553 22.1904 9.52197 22.2211C9.49957 22.2504 9.47772 22.2801 9.45618 22.3101C9.44055 22.3317 9.42487 22.3534 9.40973 22.3754C9.39374 22.3987 9.37817 22.4222 9.36267 22.4459C9.34839 22.4676 9.33435 22.4896 9.3205 22.5117C9.30554 22.5355 9.29065 22.5594 9.27625 22.5837C9.26227 22.6072 9.24884 22.631 9.23535 22.6548C9.21899 22.6838 9.2027 22.7127 9.18707 22.7421C9.16705 22.7797 9.14746 22.8176 9.12872 22.856C9.11682 22.8804 9.10571 22.9051 9.09436 22.9297C9.08282 22.9548 9.07129 22.9799 9.06024 23.0052C9.04913 23.0306 9.03845 23.0563 9.02795 23.0821C9.01752 23.1076 9.00745 23.1333 8.99762 23.1591C8.98785 23.1847 8.97797 23.2102 8.96875 23.236C8.9671 23.2407 8.96521 23.2452 8.96356 23.2499H8.15253C7.79218 23.2499 7.5 22.9576 7.5 22.5973V20.4711C7.5 20.1415 7.74432 19.8647 8.07092 19.824L10.8409 19.5865C12.9412 19.3246 14.1966 18.3664 16.2355 16.0729L16.8925 15.3347C17.3649 14.8032 18.0399 14.4999 18.75 14.4999H25.4263C26.2955 14.4999 27.1005 14.9529 27.5515 15.6959L27.6821 15.9106C28.6191 17.455 30.2293 18.6319 31.8896 18.7374C32.2311 18.7588 32.5001 19.0441 32.5001 19.3886V22.7186H32.5Z" fill="#2D2F35"/>
</svg>
