<svg width="85" height="85" viewBox="0 0 85 85" fill="none" xmlns="http://www.w3.org/2000/svg">
<path d="M73.978 55.4893H76.5873V57.9358H73.978V55.4893Z" fill="#1FE0B3"/>
<path d="M68.7598 55.4893H71.369V57.9358H68.7598V55.4893Z" fill="#1FE0B3"/>
<path d="M63.541 55.4893H66.1503V57.9358H63.541V55.4893Z" fill="#1FE0B3"/>
<path d="M76.5874 31.9248H62.3179V35.8387C62.3179 37.2323 63.4521 38.3666 64.8457 38.3666H75.2828C76.677 38.3666 77.8106 37.2323 77.8106 35.8387V31.9248H76.5874Z" fill="#1FE0B3"/>
<path d="M80.5008 30.7016H59.6268C57.5135 30.7016 55.7943 32.4207 55.7943 34.5341V62.2555L50.4131 58.6671V9.42193L63.6221 18.2282V28.0109H66.0686V16.9191L49.1898 5.66699L42.6406 10.0329L43.9974 12.0681L47.9666 9.42193V58.6678L34.7575 67.474V35.8387H32.311V67.474L19.102 58.6671V9.42193L23.0718 12.0687L24.4286 10.0335L17.8788 5.66699L1 16.9191V72.0446L17.8788 60.7919L33.5343 71.2289L49.1898 60.7919L55.7943 65.1947V78.8914C55.7943 81.0047 57.5135 82.7239 59.6268 82.7239H80.5008C82.6142 82.7239 84.3333 81.0047 84.3333 78.8914V34.5341C84.3333 32.4207 82.6142 30.7016 80.5008 30.7016V30.7016ZM3.44649 18.2282L16.6555 9.42193V58.6678L3.44649 67.474V18.2282ZM81.8869 78.8914C81.8869 79.6556 81.2651 80.2774 80.5008 80.2774H59.6268C58.8626 80.2774 58.2408 79.6556 58.2408 78.8914V34.5341C58.2408 33.7699 58.8626 33.1481 59.6268 33.1481H80.5008C81.2651 33.1481 81.8869 33.7699 81.8869 34.5341V78.8914Z" fill="#1F32E0"/>
<path d="M64.8452 75.0591H75.2822V77.5056H64.8452V75.0591Z" fill="#1F32E0"/>
<path d="M33.5343 2C27.1046 2 21.874 7.23059 21.874 13.6603C21.874 16.3 23.7006 20.3309 27.3036 25.641C29.9167 29.4925 32.4871 32.5792 32.5952 32.7089L33.5343 33.8336L34.4733 32.7089C34.5814 32.5792 37.1513 29.4925 39.765 25.641C43.3673 20.3309 45.1945 16.3 45.1945 13.6603C45.1945 7.23059 39.9633 2 33.5343 2Z" fill="#1FE0B3"/>
<path d="M37.4484 13.6605C37.4484 15.8221 35.6961 17.5743 33.5345 17.5743C31.3728 17.5743 29.6206 15.8221 29.6206 13.6605C29.6206 11.4988 31.3728 9.74658 33.5345 9.74658C35.6961 9.74658 37.4484 11.4988 37.4484 13.6605Z" fill="white"/>
<path d="M33.5341 18.7972C30.7017 18.7972 28.397 16.4925 28.397 13.6601C28.397 10.8277 30.7017 8.52295 33.5341 8.52295C36.3665 8.52295 38.6712 10.8277 38.6712 13.6601C38.6712 16.4925 36.3665 18.7972 33.5341 18.7972ZM33.5341 10.9694C32.0502 10.9694 30.8435 12.1762 30.8435 13.6601C30.8435 15.1434 32.0502 16.3507 33.5341 16.3507C35.018 16.3507 36.2247 15.1434 36.2247 13.6601C36.2247 12.1762 35.018 10.9694 33.5341 10.9694Z" fill="#1F32E0"/>
</svg>
