<svg width="46" height="25" viewBox="0 0 46 25" fill="none" xmlns="http://www.w3.org/2000/svg">
<path d="M32.3269 19.27C31.4089 19.27 30.5989 19.075 29.8969 18.685C29.1949 18.289 28.6459 17.74 28.2499 17.038C27.8599 16.336 27.6649 15.526 27.6649 14.608V10.432C27.6649 9.514 27.8599 8.704 28.2499 8.002C28.6459 7.3 29.1949 6.754 29.8969 6.364C30.5989 5.968 31.4089 5.77 32.3269 5.77C33.2449 5.77 34.0519 5.968 34.7479 6.364C35.4499 6.754 35.9989 7.3 36.3949 8.002C36.7909 8.704 36.9889 9.514 36.9889 10.432V14.608C36.9889 15.526 36.7909 16.336 36.3949 17.038C35.9989 17.74 35.4499 18.289 34.7479 18.685C34.0519 19.075 33.2449 19.27 32.3269 19.27ZM32.3269 17.209C32.7829 17.209 33.1969 17.101 33.5689 16.885C33.9409 16.663 34.2349 16.369 34.4509 16.003C34.6669 15.631 34.7749 15.217 34.7749 14.761V10.27C34.7749 9.808 34.6669 9.394 34.4509 9.028C34.2349 8.656 33.9409 8.362 33.5689 8.146C33.1969 7.924 32.7829 7.813 32.3269 7.813C31.8709 7.813 31.4569 7.924 31.0849 8.146C30.7129 8.362 30.4189 8.656 30.2029 9.028C29.9869 9.394 29.8789 9.808 29.8789 10.27V14.761C29.8789 15.217 29.9869 15.631 30.2029 16.003C30.4189 16.369 30.7129 16.663 31.0849 16.885C31.4569 17.101 31.8709 17.209 32.3269 17.209ZM41.2125 19V8.407L38.7825 9.892V7.498L41.2125 6.04H43.4265V19H41.2125Z" fill="#263238"/>
<circle cx="3.13043" cy="7.13055" r="3.13043" fill="#1FE0B3"/>
<circle cx="3.13043" cy="16.8697" r="3.13043" fill="#ECEEF4"/>
<circle cx="12.8687" cy="7.13055" r="3.13043" fill="#ECEEF4"/>
<circle cx="12.8687" cy="16.8697" r="3.13043" fill="#ECEEF4"/>
</svg>
