<svg width="215" height="96" viewBox="0 0 215 96" fill="none" xmlns="http://www.w3.org/2000/svg">
<g filter="url(#filter0_d_230_3865)">
<rect x="4" y="2" width="207" height="88" rx="10" fill="white"/>
<path d="M52.2132 45.1261C52.1728 40.5739 55.8925 38.3884 56.0608 38.2819C53.9676 35.1874 50.71 34.7634 49.5479 34.7136C46.7771 34.4302 44.1388 36.3617 42.7343 36.3617C41.3299 36.3617 39.1582 34.7544 36.8608 34.7997C33.8366 34.8451 31.0524 36.5748 29.4954 39.3089C26.3567 44.811 28.6944 52.9656 31.7501 57.4317C33.2465 59.6148 35.0279 62.0746 37.3701 61.9839C39.627 61.8932 40.4796 60.5103 43.2032 60.5103C45.9268 60.5103 46.6941 61.9839 49.079 61.9408C51.5042 61.8932 53.0433 59.71 54.5285 57.5201C56.2425 54.9855 56.9515 52.5326 56.9918 52.4033C56.938 52.3807 52.2625 50.5693 52.2132 45.1261" fill="#292929"/>
<path d="M47.7326 31.7593C48.9755 30.2381 49.8146 28.1229 49.5835 26.0146C47.793 26.0873 45.6259 27.2207 44.3403 28.7419C43.1894 30.0864 42.1799 32.24 42.4534 34.3053C44.4502 34.4618 46.4895 33.2783 47.7326 31.7593" fill="#292929"/>
<path d="M74.3 39L77.915 28.2H79.775L83.39 39H82.0025L78.62 28.98H79.04L75.6875 39H74.3ZM76.04 36.4725V35.22H81.65V36.4725H76.04ZM86.322 39L83.382 30.9H84.732L87.0045 37.2975L89.2695 30.9H90.627L87.687 39H86.322ZM93.832 39.225C93.227 39.225 92.7195 39.115 92.3095 38.895C91.9045 38.67 91.597 38.375 91.387 38.01C91.182 37.645 91.0795 37.245 91.0795 36.81C91.0795 36.385 91.1595 36.0175 91.3195 35.7075C91.4845 35.3925 91.7145 35.1325 92.0095 34.9275C92.3045 34.7175 92.657 34.5525 93.067 34.4325C93.452 34.3275 93.882 34.2375 94.357 34.1625C94.837 34.0825 95.322 34.01 95.812 33.945C96.302 33.88 96.7595 33.8175 97.1845 33.7575L96.7045 34.035C96.7195 33.315 96.5745 32.7825 96.2695 32.4375C95.9695 32.0925 95.4495 31.92 94.7095 31.92C94.2195 31.92 93.7895 32.0325 93.4195 32.2575C93.0545 32.4775 92.797 32.8375 92.647 33.3375L91.3795 32.955C91.5745 32.245 91.952 31.6875 92.512 31.2825C93.072 30.8775 93.8095 30.675 94.7245 30.675C95.4595 30.675 96.0895 30.8075 96.6145 31.0725C97.1445 31.3325 97.5245 31.7275 97.7545 32.2575C97.8695 32.5075 97.942 32.78 97.972 33.075C98.002 33.365 98.017 33.67 98.017 33.99V39H96.832V37.0575L97.1095 37.2375C96.8045 37.8925 96.377 38.3875 95.827 38.7225C95.282 39.0575 94.617 39.225 93.832 39.225ZM94.0345 38.1075C94.5145 38.1075 94.9295 38.0225 95.2795 37.8525C95.6345 37.6775 95.9195 37.45 96.1345 37.17C96.3495 36.885 96.4895 36.575 96.5545 36.24C96.6295 35.99 96.6695 35.7125 96.6745 35.4075C96.6845 35.0975 96.6895 34.86 96.6895 34.695L97.1545 34.8975C96.7195 34.9575 96.292 35.015 95.872 35.07C95.452 35.125 95.0545 35.185 94.6795 35.25C94.3045 35.31 93.967 35.3825 93.667 35.4675C93.447 35.5375 93.2395 35.6275 93.0445 35.7375C92.8545 35.8475 92.6995 35.99 92.5795 36.165C92.4645 36.335 92.407 36.5475 92.407 36.8025C92.407 37.0225 92.462 37.2325 92.572 37.4325C92.687 37.6325 92.862 37.795 93.097 37.92C93.337 38.045 93.6495 38.1075 94.0345 38.1075ZM100.117 29.4675V28.0875H101.452V29.4675H100.117ZM100.117 39V30.9H101.452V39H100.117ZM103.852 39V27.975H105.187V39H103.852ZM109.74 39.225C109.135 39.225 108.628 39.115 108.218 38.895C107.813 38.67 107.505 38.375 107.295 38.01C107.09 37.645 106.988 37.245 106.988 36.81C106.988 36.385 107.068 36.0175 107.228 35.7075C107.393 35.3925 107.623 35.1325 107.918 34.9275C108.213 34.7175 108.565 34.5525 108.975 34.4325C109.36 34.3275 109.79 34.2375 110.265 34.1625C110.745 34.0825 111.23 34.01 111.72 33.945C112.21 33.88 112.668 33.8175 113.093 33.7575L112.613 34.035C112.628 33.315 112.483 32.7825 112.178 32.4375C111.878 32.0925 111.358 31.92 110.618 31.92C110.128 31.92 109.698 32.0325 109.328 32.2575C108.963 32.4775 108.705 32.8375 108.555 33.3375L107.288 32.955C107.483 32.245 107.86 31.6875 108.42 31.2825C108.98 30.8775 109.718 30.675 110.633 30.675C111.368 30.675 111.998 30.8075 112.523 31.0725C113.053 31.3325 113.433 31.7275 113.663 32.2575C113.778 32.5075 113.85 32.78 113.88 33.075C113.91 33.365 113.925 33.67 113.925 33.99V39H112.74V37.0575L113.018 37.2375C112.713 37.8925 112.285 38.3875 111.735 38.7225C111.19 39.0575 110.525 39.225 109.74 39.225ZM109.943 38.1075C110.423 38.1075 110.838 38.0225 111.188 37.8525C111.543 37.6775 111.828 37.45 112.043 37.17C112.258 36.885 112.398 36.575 112.463 36.24C112.538 35.99 112.578 35.7125 112.583 35.4075C112.593 35.0975 112.598 34.86 112.598 34.695L113.063 34.8975C112.628 34.9575 112.2 35.015 111.78 35.07C111.36 35.125 110.963 35.185 110.588 35.25C110.213 35.31 109.875 35.3825 109.575 35.4675C109.355 35.5375 109.148 35.6275 108.953 35.7375C108.763 35.8475 108.608 35.99 108.488 36.165C108.373 36.335 108.315 36.5475 108.315 36.8025C108.315 37.0225 108.37 37.2325 108.48 37.4325C108.595 37.6325 108.77 37.795 109.005 37.92C109.245 38.045 109.558 38.1075 109.943 38.1075ZM119.595 39.225C118.835 39.225 118.195 39.0375 117.675 38.6625C117.155 38.2825 116.76 37.77 116.49 37.125C116.225 36.475 116.093 35.7475 116.093 34.9425C116.093 34.1275 116.225 33.3975 116.49 32.7525C116.76 32.1075 117.155 31.6 117.675 31.23C118.2 30.86 118.843 30.675 119.603 30.675C120.353 30.675 120.998 30.8625 121.538 31.2375C122.083 31.6075 122.5 32.115 122.79 32.76C123.08 33.405 123.225 34.1325 123.225 34.9425C123.225 35.7525 123.08 36.48 122.79 37.125C122.5 37.77 122.083 38.2825 121.538 38.6625C120.998 39.0375 120.35 39.225 119.595 39.225ZM115.868 39V28.2H117.21V33.0375H117.06V39H115.868ZM119.43 38.0025C119.965 38.0025 120.408 37.8675 120.758 37.5975C121.108 37.3275 121.37 36.9625 121.545 36.5025C121.72 36.0375 121.808 35.5175 121.808 34.9425C121.808 34.3725 121.72 33.8575 121.545 33.3975C121.375 32.9375 121.11 32.5725 120.75 32.3025C120.395 32.0325 119.943 31.8975 119.393 31.8975C118.868 31.8975 118.433 32.0275 118.088 32.2875C117.743 32.5425 117.485 32.9 117.315 33.36C117.145 33.815 117.06 34.3425 117.06 34.9425C117.06 35.5325 117.143 36.06 117.308 36.525C117.478 36.985 117.738 37.3475 118.088 37.6125C118.438 37.8725 118.885 38.0025 119.43 38.0025ZM125.019 39V27.975H126.354V39H125.019ZM132.115 39.225C131.32 39.225 130.625 39.05 130.03 38.7C129.44 38.345 128.98 37.8525 128.65 37.2225C128.32 36.5875 128.155 35.8475 128.155 35.0025C128.155 34.1175 128.317 33.3525 128.642 32.7075C128.967 32.0575 129.42 31.5575 130 31.2075C130.585 30.8525 131.27 30.675 132.055 30.675C132.87 30.675 133.562 30.8625 134.132 31.2375C134.707 31.6125 135.137 32.1475 135.422 32.8425C135.712 33.5375 135.837 34.365 135.797 35.325H134.447V34.845C134.432 33.85 134.23 33.1075 133.84 32.6175C133.45 32.1225 132.87 31.875 132.1 31.875C131.275 31.875 130.647 32.14 130.217 32.67C129.787 33.2 129.572 33.96 129.572 34.95C129.572 35.905 129.787 36.645 130.217 37.17C130.647 37.695 131.26 37.9575 132.055 37.9575C132.59 37.9575 133.055 37.835 133.45 37.59C133.845 37.345 134.155 36.9925 134.38 36.5325L135.662 36.975C135.347 37.69 134.872 38.245 134.237 38.64C133.607 39.03 132.9 39.225 132.115 39.225ZM129.122 35.325V34.2525H135.107V35.325H129.122ZM143.92 39.225C143.115 39.225 142.42 39.0425 141.835 38.6775C141.255 38.3125 140.807 37.8075 140.492 37.1625C140.177 36.5175 140.02 35.7775 140.02 34.9425C140.02 34.0925 140.18 33.3475 140.5 32.7075C140.82 32.0675 141.272 31.57 141.857 31.215C142.442 30.855 143.13 30.675 143.92 30.675C144.73 30.675 145.427 30.8575 146.012 31.2225C146.597 31.5825 147.045 32.085 147.355 32.73C147.67 33.37 147.827 34.1075 147.827 34.9425C147.827 35.7875 147.67 36.5325 147.355 37.1775C147.04 37.8175 146.59 38.32 146.005 38.685C145.42 39.045 144.725 39.225 143.92 39.225ZM143.92 37.9575C144.76 37.9575 145.385 37.6775 145.795 37.1175C146.205 36.5575 146.41 35.8325 146.41 34.9425C146.41 34.0275 146.202 33.3 145.787 32.76C145.372 32.215 144.75 31.9425 143.92 31.9425C143.355 31.9425 142.89 32.07 142.525 32.325C142.16 32.58 141.887 32.9325 141.707 33.3825C141.527 33.8325 141.437 34.3525 141.437 34.9425C141.437 35.8525 141.647 36.5825 142.067 37.1325C142.487 37.6825 143.105 37.9575 143.92 37.9575ZM155.246 39V34.9425C155.246 34.5575 155.211 34.1875 155.141 33.8325C155.076 33.4775 154.959 33.16 154.789 32.88C154.624 32.595 154.399 32.37 154.114 32.205C153.834 32.04 153.479 31.9575 153.049 31.9575C152.714 31.9575 152.409 32.015 152.134 32.13C151.864 32.24 151.631 32.41 151.436 32.64C151.241 32.87 151.089 33.16 150.979 33.51C150.874 33.855 150.821 34.2625 150.821 34.7325L149.944 34.4625C149.944 33.6775 150.084 33.005 150.364 32.445C150.649 31.88 151.046 31.4475 151.556 31.1475C152.071 30.8425 152.676 30.69 153.371 30.69C153.896 30.69 154.344 30.7725 154.714 30.9375C155.084 31.1025 155.391 31.3225 155.636 31.5975C155.881 31.8675 156.074 32.1725 156.214 32.5125C156.354 32.8475 156.451 33.19 156.506 33.54C156.566 33.885 156.596 34.2125 156.596 34.5225V39H155.246ZM149.471 39V30.9H150.671V33.0675H150.821V39H149.471ZM166.072 39C165.592 39.095 165.117 39.1325 164.647 39.1125C164.182 39.0975 163.767 39.005 163.402 38.835C163.037 38.66 162.759 38.39 162.569 38.025C162.409 37.705 162.322 37.3825 162.307 37.0575C162.297 36.7275 162.292 36.355 162.292 35.94V28.65H163.627V35.88C163.627 36.21 163.629 36.4925 163.634 36.7275C163.644 36.9625 163.697 37.165 163.792 37.335C163.972 37.655 164.257 37.8425 164.647 37.8975C165.042 37.9525 165.517 37.9375 166.072 37.8525V39ZM160.649 32.0025V30.9H166.072V32.0025H160.649ZM173.484 39V34.9425C173.484 34.5575 173.449 34.1875 173.379 33.8325C173.314 33.4775 173.196 33.16 173.026 32.88C172.861 32.595 172.636 32.37 172.351 32.205C172.071 32.04 171.716 31.9575 171.286 31.9575C170.951 31.9575 170.646 32.015 170.371 32.13C170.101 32.24 169.869 32.41 169.674 32.64C169.479 32.87 169.326 33.16 169.216 33.51C169.111 33.855 169.059 34.2625 169.059 34.7325L168.181 34.4625C168.181 33.6775 168.321 33.005 168.601 32.445C168.886 31.88 169.284 31.4475 169.794 31.1475C170.309 30.8425 170.914 30.69 171.609 30.69C172.134 30.69 172.581 30.7725 172.951 30.9375C173.321 31.1025 173.629 31.3225 173.874 31.5975C174.119 31.8675 174.311 32.1725 174.451 32.5125C174.591 32.8475 174.689 33.19 174.744 33.54C174.804 33.885 174.834 34.2125 174.834 34.5225V39H173.484ZM167.709 39V28.2H168.909V34.1625H169.059V39H167.709ZM180.293 39.225C179.498 39.225 178.803 39.05 178.208 38.7C177.618 38.345 177.158 37.8525 176.828 37.2225C176.498 36.5875 176.333 35.8475 176.333 35.0025C176.333 34.1175 176.496 33.3525 176.821 32.7075C177.146 32.0575 177.598 31.5575 178.178 31.2075C178.763 30.8525 179.448 30.675 180.233 30.675C181.048 30.675 181.741 30.8625 182.311 31.2375C182.886 31.6125 183.316 32.1475 183.601 32.8425C183.891 33.5375 184.016 34.365 183.976 35.325H182.626V34.845C182.611 33.85 182.408 33.1075 182.018 32.6175C181.628 32.1225 181.048 31.875 180.278 31.875C179.453 31.875 178.826 32.14 178.396 32.67C177.966 33.2 177.751 33.96 177.751 34.95C177.751 35.905 177.966 36.645 178.396 37.17C178.826 37.695 179.438 37.9575 180.233 37.9575C180.768 37.9575 181.233 37.835 181.628 37.59C182.023 37.345 182.333 36.9925 182.558 36.5325L183.841 36.975C183.526 37.69 183.051 38.245 182.416 38.64C181.786 39.03 181.078 39.225 180.293 39.225ZM177.301 35.325V34.2525H183.286V35.325H177.301Z" fill="#686674"/>
<path d="M74.36 64L78.446 51.04H81.623L85.709 64H83.477L79.769 52.372H80.255L76.592 64H74.36ZM76.637 61.192V59.167H83.441V61.192H76.637ZM91.8294 64.27C90.8814 64.27 90.0864 64.045 89.4444 63.595C88.8024 63.145 88.3194 62.533 87.9954 61.759C87.6714 60.979 87.5094 60.106 87.5094 59.14C87.5094 58.162 87.6714 57.286 87.9954 56.512C88.3194 55.738 88.7934 55.129 89.4174 54.685C90.0474 54.235 90.8244 54.01 91.7484 54.01C92.6664 54.01 93.4614 54.235 94.1334 54.685C94.8114 55.129 95.3364 55.738 95.7084 56.512C96.0804 57.28 96.2664 58.156 96.2664 59.14C96.2664 60.112 96.0834 60.985 95.7174 61.759C95.3514 62.533 94.8354 63.145 94.1694 63.595C93.5034 64.045 92.7234 64.27 91.8294 64.27ZM87.1404 68.32V54.28H89.0574V61.102H89.3274V68.32H87.1404ZM91.4964 62.326C92.0604 62.326 92.5254 62.185 92.8914 61.903C93.2574 61.621 93.5274 61.24 93.7014 60.76C93.8814 60.274 93.9714 59.734 93.9714 59.14C93.9714 58.552 93.8814 58.018 93.7014 57.538C93.5214 57.052 93.2424 56.668 92.8644 56.386C92.4864 56.098 92.0064 55.954 91.4244 55.954C90.8724 55.954 90.4224 56.089 90.0744 56.359C89.7264 56.623 89.4684 56.995 89.3004 57.475C89.1384 57.949 89.0574 58.504 89.0574 59.14C89.0574 59.77 89.1384 60.325 89.3004 60.805C89.4684 61.285 89.7294 61.66 90.0834 61.93C90.4434 62.194 90.9144 62.326 91.4964 62.326ZM102.743 64.27C101.795 64.27 101 64.045 100.358 63.595C99.7164 63.145 99.2334 62.533 98.9094 61.759C98.5854 60.979 98.4234 60.106 98.4234 59.14C98.4234 58.162 98.5854 57.286 98.9094 56.512C99.2334 55.738 99.7074 55.129 100.331 54.685C100.961 54.235 101.738 54.01 102.662 54.01C103.58 54.01 104.375 54.235 105.047 54.685C105.725 55.129 106.25 55.738 106.622 56.512C106.994 57.28 107.18 58.156 107.18 59.14C107.18 60.112 106.997 60.985 106.631 61.759C106.265 62.533 105.749 63.145 105.083 63.595C104.417 64.045 103.637 64.27 102.743 64.27ZM98.0544 68.32V54.28H99.9714V61.102H100.241V68.32H98.0544ZM102.41 62.326C102.974 62.326 103.439 62.185 103.805 61.903C104.171 61.621 104.441 61.24 104.615 60.76C104.795 60.274 104.885 59.734 104.885 59.14C104.885 58.552 104.795 58.018 104.615 57.538C104.435 57.052 104.156 56.668 103.778 56.386C103.4 56.098 102.92 55.954 102.338 55.954C101.786 55.954 101.336 56.089 100.988 56.359C100.64 56.623 100.382 56.995 100.214 57.475C100.052 57.949 99.9714 58.504 99.9714 59.14C99.9714 59.77 100.052 60.325 100.214 60.805C100.382 61.285 100.643 61.66 100.997 61.93C101.357 62.194 101.828 62.326 102.41 62.326ZM109.166 64V50.77H111.335V64H109.166ZM118.273 64.27C117.289 64.27 116.425 64.057 115.681 63.631C114.937 63.205 114.355 62.614 113.935 61.858C113.521 61.102 113.314 60.232 113.314 59.248C113.314 58.186 113.518 57.265 113.926 56.485C114.334 55.699 114.901 55.09 115.627 54.658C116.353 54.226 117.193 54.01 118.147 54.01C119.155 54.01 120.01 54.247 120.712 54.721C121.42 55.189 121.945 55.852 122.287 56.71C122.629 57.568 122.758 58.579 122.674 59.743H120.523V58.951C120.517 57.895 120.331 57.124 119.965 56.638C119.599 56.152 119.023 55.909 118.237 55.909C117.349 55.909 116.689 56.185 116.257 56.737C115.825 57.283 115.609 58.084 115.609 59.14C115.609 60.124 115.825 60.886 116.257 61.426C116.689 61.966 117.319 62.236 118.147 62.236C118.681 62.236 119.14 62.119 119.524 61.885C119.914 61.645 120.214 61.3 120.424 60.85L122.566 61.498C122.194 62.374 121.618 63.055 120.838 63.541C120.064 64.027 119.209 64.27 118.273 64.27ZM114.925 59.743V58.105H121.612V59.743H114.925ZM132.727 64.27C131.779 64.27 130.924 64.105 130.162 63.775C129.406 63.445 128.782 62.974 128.29 62.362C127.804 61.744 127.495 61.012 127.363 60.166L129.613 59.824C129.805 60.592 130.198 61.186 130.792 61.606C131.392 62.026 132.082 62.236 132.862 62.236C133.324 62.236 133.759 62.164 134.167 62.02C134.575 61.876 134.905 61.666 135.157 61.39C135.415 61.114 135.544 60.775 135.544 60.373C135.544 60.193 135.514 60.028 135.454 59.878C135.394 59.722 135.304 59.584 135.184 59.464C135.07 59.344 134.92 59.236 134.734 59.14C134.554 59.038 134.344 58.951 134.104 58.879L130.756 57.889C130.468 57.805 130.156 57.694 129.82 57.556C129.49 57.412 129.175 57.217 128.875 56.971C128.581 56.719 128.338 56.401 128.146 56.017C127.96 55.627 127.867 55.147 127.867 54.577C127.867 53.743 128.077 53.044 128.497 52.48C128.923 51.91 129.493 51.484 130.207 51.202C130.927 50.92 131.725 50.782 132.601 50.788C133.489 50.794 134.281 50.947 134.977 51.247C135.673 51.541 136.255 51.97 136.723 52.534C137.191 53.098 137.521 53.779 137.713 54.577L135.382 54.982C135.286 54.526 135.1 54.139 134.824 53.821C134.554 53.497 134.221 53.251 133.825 53.083C133.435 52.915 133.018 52.825 132.574 52.813C132.142 52.807 131.74 52.873 131.368 53.011C131.002 53.143 130.705 53.335 130.477 53.587C130.255 53.839 130.144 54.133 130.144 54.469C130.144 54.787 130.24 55.048 130.432 55.252C130.624 55.45 130.861 55.609 131.143 55.729C131.431 55.843 131.722 55.939 132.016 56.017L134.338 56.665C134.656 56.749 135.013 56.863 135.409 57.007C135.805 57.151 136.186 57.352 136.552 57.61C136.918 57.868 137.218 58.207 137.452 58.627C137.692 59.047 137.812 59.581 137.812 60.229C137.812 60.901 137.671 61.492 137.389 62.002C137.113 62.506 136.738 62.926 136.264 63.262C135.79 63.598 135.247 63.85 134.635 64.018C134.029 64.186 133.393 64.27 132.727 64.27ZM145.279 64C144.637 64.12 144.007 64.171 143.389 64.153C142.777 64.141 142.228 64.03 141.742 63.82C141.256 63.604 140.887 63.265 140.635 62.803C140.413 62.383 140.296 61.954 140.284 61.516C140.272 61.078 140.266 60.583 140.266 60.031V51.58H142.426V59.905C142.426 60.295 142.429 60.637 142.435 60.931C142.447 61.225 142.51 61.465 142.624 61.651C142.84 62.011 143.185 62.212 143.659 62.254C144.133 62.296 144.673 62.272 145.279 62.182V64ZM138.502 55.981V54.28H145.279V55.981H138.502ZM150.992 64.27C150.02 64.27 149.171 64.051 148.445 63.613C147.719 63.175 147.155 62.572 146.753 61.804C146.357 61.03 146.159 60.142 146.159 59.14C146.159 58.12 146.363 57.226 146.771 56.458C147.179 55.69 147.746 55.09 148.472 54.658C149.198 54.226 150.038 54.01 150.992 54.01C151.97 54.01 152.822 54.229 153.548 54.667C154.274 55.105 154.838 55.711 155.24 56.485C155.642 57.253 155.843 58.138 155.843 59.14C155.843 60.148 155.639 61.039 155.231 61.813C154.829 62.581 154.265 63.184 153.539 63.622C152.813 64.054 151.964 64.27 150.992 64.27ZM150.992 62.236C151.856 62.236 152.498 61.948 152.918 61.372C153.338 60.796 153.548 60.052 153.548 59.14C153.548 58.198 153.335 57.448 152.909 56.89C152.483 56.326 151.844 56.044 150.992 56.044C150.41 56.044 149.93 56.176 149.552 56.44C149.18 56.698 148.904 57.061 148.724 57.529C148.544 57.991 148.454 58.528 148.454 59.14C148.454 60.082 148.667 60.835 149.093 61.399C149.525 61.957 150.158 62.236 150.992 62.236ZM157.648 64V54.28H159.565V56.647L159.331 56.341C159.451 56.017 159.61 55.723 159.808 55.459C160.012 55.189 160.255 54.967 160.537 54.793C160.777 54.631 161.041 54.505 161.329 54.415C161.623 54.319 161.923 54.262 162.229 54.244C162.535 54.22 162.832 54.232 163.12 54.28V56.305C162.832 56.221 162.499 56.194 162.121 56.224C161.749 56.254 161.413 56.359 161.113 56.539C160.813 56.701 160.567 56.908 160.375 57.16C160.189 57.412 160.051 57.7 159.961 58.024C159.871 58.342 159.826 58.687 159.826 59.059V64H157.648ZM168.903 64.27C167.919 64.27 167.055 64.057 166.311 63.631C165.567 63.205 164.985 62.614 164.565 61.858C164.151 61.102 163.944 60.232 163.944 59.248C163.944 58.186 164.148 57.265 164.556 56.485C164.964 55.699 165.531 55.09 166.257 54.658C166.983 54.226 167.823 54.01 168.777 54.01C169.785 54.01 170.64 54.247 171.342 54.721C172.05 55.189 172.575 55.852 172.917 56.71C173.259 57.568 173.388 58.579 173.304 59.743H171.153V58.951C171.147 57.895 170.961 57.124 170.595 56.638C170.229 56.152 169.653 55.909 168.867 55.909C167.979 55.909 167.319 56.185 166.887 56.737C166.455 57.283 166.239 58.084 166.239 59.14C166.239 60.124 166.455 60.886 166.887 61.426C167.319 61.966 167.949 62.236 168.777 62.236C169.311 62.236 169.77 62.119 170.154 61.885C170.544 61.645 170.844 61.3 171.054 60.85L173.196 61.498C172.824 62.374 172.248 63.055 171.468 63.541C170.694 64.027 169.839 64.27 168.903 64.27ZM165.555 59.743V58.105H172.242V59.743H165.555Z" fill="#2D2F35"/>
</g>
<defs>
<filter id="filter0_d_230_3865" x="0" y="0" width="215" height="96" filterUnits="userSpaceOnUse" color-interpolation-filters="sRGB">
<feFlood flood-opacity="0" result="BackgroundImageFix"/>
<feColorMatrix in="SourceAlpha" type="matrix" values="0 0 0 0 0 0 0 0 0 0 0 0 0 0 0 0 0 0 127 0" result="hardAlpha"/>
<feOffset dy="2"/>
<feGaussianBlur stdDeviation="2"/>
<feComposite in2="hardAlpha" operator="out"/>
<feColorMatrix type="matrix" values="0 0 0 0 0 0 0 0 0 0 0 0 0 0 0 0 0 0 0.08 0"/>
<feBlend mode="normal" in2="BackgroundImageFix" result="effect1_dropShadow_230_3865"/>
<feBlend mode="normal" in="SourceGraphic" in2="effect1_dropShadow_230_3865" result="shape"/>
</filter>
</defs>
</svg>
