<svg width="85" height="85" viewBox="0 0 85 85" fill="none" xmlns="http://www.w3.org/2000/svg">
<path d="M12.9637 8.19385V19.1261H2.03076" fill="#72E9CD"/>
<path d="M59.4612 51.6289L67.2736 59.4414L65.5475 61.1682L57.7344 53.3551L59.4612 51.6289Z" fill="#1F32E0"/>
<path d="M79.4318 78.2302C78.1221 78.2302 76.8906 77.7196 75.9643 76.7939L62.0801 62.9097L69.0145 55.9746L82.8994 69.8588C84.8112 71.7712 84.8112 74.8821 82.8994 76.7939C81.973 77.7196 80.7415 78.2302 79.4318 78.2302ZM65.5324 62.9091L77.6904 75.0671C78.1558 75.5325 78.7738 75.7888 79.4318 75.7888C80.0892 75.7888 80.7078 75.5325 81.1726 75.0671C82.1326 74.1071 82.1326 72.545 81.1726 71.585L69.0145 59.4269L65.5324 62.9091Z" fill="#1F32E0"/>
<path d="M50.3176 77.1515H1V18.1319L12.1319 7H50.3176V26.4505H47.8762V9.4414H13.1434L3.4414 19.1434V74.7101H47.8762V62.9094H50.3176V77.1515Z" fill="#1F32E0"/>
<path d="M11.417 25.23H29.6467V27.6714H11.417V25.23Z" fill="#1F32E0"/>
<path d="M11.417 30.438H24.4384V32.8794H11.417V30.438Z" fill="#1F32E0"/>
<path d="M11.417 38.2505H29.6467V40.6919H11.417V38.2505Z" fill="#1F32E0"/>
<path d="M11.417 43.4595H24.4384V45.9009H11.417V43.4595Z" fill="#1F32E0"/>
<path d="M11.417 51.272H29.6467V53.7134H11.417V51.272Z" fill="#1F32E0"/>
<path d="M11.417 56.4805H21.8343V58.9219H11.417V56.4805Z" fill="#1F32E0"/>
<path d="M48.1813 25.23C38.8919 25.23 31.335 32.7869 31.335 42.0757C31.335 51.3651 38.8919 58.922 48.1813 58.922C57.4701 58.922 65.027 51.3651 65.027 42.0757C65.027 32.7869 57.4701 25.23 48.1813 25.23Z" fill="#72E9CD"/>
<path d="M48.5203 35.656C48.4078 35.6497 48.2946 35.6465 48.1814 35.6465C48.0676 35.6465 47.9544 35.6503 47.8425 35.656C41.7778 35.8455 37.0565 41.0366 36.855 41.2617L38.6727 42.8919C38.6962 42.8652 40.0205 41.4168 42.0582 40.1173C41.8598 40.7353 41.7518 41.3927 41.7518 42.0762C41.7518 45.6213 44.6363 48.5052 48.1814 48.5052C51.7259 48.5052 54.6104 45.6213 54.6104 42.0762C54.6104 41.3927 54.5023 40.7353 54.304 40.1173C56.3417 41.4162 57.6654 42.8645 57.6889 42.8906L59.5072 41.2617C59.3057 41.0366 54.5844 35.8455 48.5203 35.656V35.656ZM52.169 42.0755C52.169 44.2747 50.3799 46.0638 48.1814 46.0638C45.9823 46.0638 44.1932 44.2747 44.1932 42.0755C44.1932 39.9501 45.8653 38.2081 47.9627 38.0942C48.0352 38.0923 48.1077 38.0879 48.1814 38.0879C48.2545 38.0879 48.327 38.0923 48.3995 38.0942C50.4969 38.2081 52.169 39.9507 52.169 42.0755V42.0755Z" fill="#1F32E0"/>
</svg>
