<svg width="260" height="120" viewBox="0 0 260 120" fill="none" xmlns="http://www.w3.org/2000/svg">
<g filter="url(#filter0_d_247_3587)">
<rect x="27" y="16" width="207" height="88" rx="10" fill="white"/>
<path d="M97.3 53L100.915 42.2H102.775L106.39 53H105.003L101.62 42.98H102.04L98.6875 53H97.3ZM99.04 50.4725V49.22H104.65V50.4725H99.04ZM109.322 53L106.382 44.9H107.732L110.005 51.2975L112.27 44.9H113.627L110.687 53H109.322ZM116.832 53.225C116.227 53.225 115.719 53.115 115.309 52.895C114.904 52.67 114.597 52.375 114.387 52.01C114.182 51.645 114.079 51.245 114.079 50.81C114.079 50.385 114.159 50.0175 114.319 49.7075C114.484 49.3925 114.714 49.1325 115.009 48.9275C115.304 48.7175 115.657 48.5525 116.067 48.4325C116.452 48.3275 116.882 48.2375 117.357 48.1625C117.837 48.0825 118.322 48.01 118.812 47.945C119.302 47.88 119.759 47.8175 120.184 47.7575L119.704 48.035C119.719 47.315 119.574 46.7825 119.269 46.4375C118.969 46.0925 118.449 45.92 117.709 45.92C117.219 45.92 116.789 46.0325 116.419 46.2575C116.054 46.4775 115.797 46.8375 115.647 47.3375L114.379 46.955C114.574 46.245 114.952 45.6875 115.512 45.2825C116.072 44.8775 116.809 44.675 117.724 44.675C118.459 44.675 119.089 44.8075 119.614 45.0725C120.144 45.3325 120.524 45.7275 120.754 46.2575C120.869 46.5075 120.942 46.78 120.972 47.075C121.002 47.365 121.017 47.67 121.017 47.99V53H119.832V51.0575L120.109 51.2375C119.804 51.8925 119.377 52.3875 118.827 52.7225C118.282 53.0575 117.617 53.225 116.832 53.225ZM117.034 52.1075C117.514 52.1075 117.929 52.0225 118.279 51.8525C118.634 51.6775 118.919 51.45 119.134 51.17C119.349 50.885 119.489 50.575 119.554 50.24C119.629 49.99 119.669 49.7125 119.674 49.4075C119.684 49.0975 119.689 48.86 119.689 48.695L120.154 48.8975C119.719 48.9575 119.292 49.015 118.872 49.07C118.452 49.125 118.054 49.185 117.679 49.25C117.304 49.31 116.967 49.3825 116.667 49.4675C116.447 49.5375 116.239 49.6275 116.044 49.7375C115.854 49.8475 115.699 49.99 115.579 50.165C115.464 50.335 115.407 50.5475 115.407 50.8025C115.407 51.0225 115.462 51.2325 115.572 51.4325C115.687 51.6325 115.862 51.795 116.097 51.92C116.337 52.045 116.649 52.1075 117.034 52.1075ZM123.117 43.4675V42.0875H124.452V43.4675H123.117ZM123.117 53V44.9H124.452V53H123.117ZM126.852 53V41.975H128.187V53H126.852ZM132.74 53.225C132.135 53.225 131.628 53.115 131.218 52.895C130.813 52.67 130.505 52.375 130.295 52.01C130.09 51.645 129.988 51.245 129.988 50.81C129.988 50.385 130.068 50.0175 130.228 49.7075C130.393 49.3925 130.623 49.1325 130.918 48.9275C131.213 48.7175 131.565 48.5525 131.975 48.4325C132.36 48.3275 132.79 48.2375 133.265 48.1625C133.745 48.0825 134.23 48.01 134.72 47.945C135.21 47.88 135.668 47.8175 136.093 47.7575L135.613 48.035C135.628 47.315 135.483 46.7825 135.178 46.4375C134.878 46.0925 134.358 45.92 133.618 45.92C133.128 45.92 132.698 46.0325 132.328 46.2575C131.963 46.4775 131.705 46.8375 131.555 47.3375L130.288 46.955C130.483 46.245 130.86 45.6875 131.42 45.2825C131.98 44.8775 132.718 44.675 133.633 44.675C134.368 44.675 134.998 44.8075 135.523 45.0725C136.053 45.3325 136.433 45.7275 136.663 46.2575C136.778 46.5075 136.85 46.78 136.88 47.075C136.91 47.365 136.925 47.67 136.925 47.99V53H135.74V51.0575L136.018 51.2375C135.713 51.8925 135.285 52.3875 134.735 52.7225C134.19 53.0575 133.525 53.225 132.74 53.225ZM132.943 52.1075C133.423 52.1075 133.838 52.0225 134.188 51.8525C134.543 51.6775 134.828 51.45 135.043 51.17C135.258 50.885 135.398 50.575 135.463 50.24C135.538 49.99 135.578 49.7125 135.583 49.4075C135.593 49.0975 135.598 48.86 135.598 48.695L136.063 48.8975C135.628 48.9575 135.2 49.015 134.78 49.07C134.36 49.125 133.963 49.185 133.588 49.25C133.213 49.31 132.875 49.3825 132.575 49.4675C132.355 49.5375 132.148 49.6275 131.953 49.7375C131.763 49.8475 131.608 49.99 131.488 50.165C131.373 50.335 131.315 50.5475 131.315 50.8025C131.315 51.0225 131.37 51.2325 131.48 51.4325C131.595 51.6325 131.77 51.795 132.005 51.92C132.245 52.045 132.558 52.1075 132.943 52.1075ZM142.595 53.225C141.835 53.225 141.195 53.0375 140.675 52.6625C140.155 52.2825 139.76 51.77 139.49 51.125C139.225 50.475 139.093 49.7475 139.093 48.9425C139.093 48.1275 139.225 47.3975 139.49 46.7525C139.76 46.1075 140.155 45.6 140.675 45.23C141.2 44.86 141.843 44.675 142.603 44.675C143.353 44.675 143.998 44.8625 144.538 45.2375C145.083 45.6075 145.5 46.115 145.79 46.76C146.08 47.405 146.225 48.1325 146.225 48.9425C146.225 49.7525 146.08 50.48 145.79 51.125C145.5 51.77 145.083 52.2825 144.538 52.6625C143.998 53.0375 143.35 53.225 142.595 53.225ZM138.868 53V42.2H140.21V47.0375H140.06V53H138.868ZM142.43 52.0025C142.965 52.0025 143.408 51.8675 143.758 51.5975C144.108 51.3275 144.37 50.9625 144.545 50.5025C144.72 50.0375 144.808 49.5175 144.808 48.9425C144.808 48.3725 144.72 47.8575 144.545 47.3975C144.375 46.9375 144.11 46.5725 143.75 46.3025C143.395 46.0325 142.943 45.8975 142.393 45.8975C141.868 45.8975 141.433 46.0275 141.088 46.2875C140.743 46.5425 140.485 46.9 140.315 47.36C140.145 47.815 140.06 48.3425 140.06 48.9425C140.06 49.5325 140.143 50.06 140.308 50.525C140.478 50.985 140.738 51.3475 141.088 51.6125C141.438 51.8725 141.885 52.0025 142.43 52.0025ZM148.019 53V41.975H149.354V53H148.019ZM155.115 53.225C154.32 53.225 153.625 53.05 153.03 52.7C152.44 52.345 151.98 51.8525 151.65 51.2225C151.32 50.5875 151.155 49.8475 151.155 49.0025C151.155 48.1175 151.317 47.3525 151.642 46.7075C151.967 46.0575 152.42 45.5575 153 45.2075C153.585 44.8525 154.27 44.675 155.055 44.675C155.87 44.675 156.562 44.8625 157.132 45.2375C157.707 45.6125 158.137 46.1475 158.422 46.8425C158.712 47.5375 158.837 48.365 158.797 49.325H157.447V48.845C157.432 47.85 157.23 47.1075 156.84 46.6175C156.45 46.1225 155.87 45.875 155.1 45.875C154.275 45.875 153.647 46.14 153.217 46.67C152.787 47.2 152.572 47.96 152.572 48.95C152.572 49.905 152.787 50.645 153.217 51.17C153.647 51.695 154.26 51.9575 155.055 51.9575C155.59 51.9575 156.055 51.835 156.45 51.59C156.845 51.345 157.155 50.9925 157.38 50.5325L158.662 50.975C158.347 51.69 157.872 52.245 157.237 52.64C156.607 53.03 155.9 53.225 155.115 53.225ZM152.122 49.325V48.2525H158.107V49.325H152.122ZM166.92 53.225C166.115 53.225 165.42 53.0425 164.835 52.6775C164.255 52.3125 163.807 51.8075 163.492 51.1625C163.177 50.5175 163.02 49.7775 163.02 48.9425C163.02 48.0925 163.18 47.3475 163.5 46.7075C163.82 46.0675 164.272 45.57 164.857 45.215C165.442 44.855 166.13 44.675 166.92 44.675C167.73 44.675 168.427 44.8575 169.012 45.2225C169.597 45.5825 170.045 46.085 170.355 46.73C170.67 47.37 170.827 48.1075 170.827 48.9425C170.827 49.7875 170.67 50.5325 170.355 51.1775C170.04 51.8175 169.59 52.32 169.005 52.685C168.42 53.045 167.725 53.225 166.92 53.225ZM166.92 51.9575C167.76 51.9575 168.385 51.6775 168.795 51.1175C169.205 50.5575 169.41 49.8325 169.41 48.9425C169.41 48.0275 169.202 47.3 168.787 46.76C168.372 46.215 167.75 45.9425 166.92 45.9425C166.355 45.9425 165.89 46.07 165.525 46.325C165.16 46.58 164.887 46.9325 164.707 47.3825C164.527 47.8325 164.437 48.3525 164.437 48.9425C164.437 49.8525 164.647 50.5825 165.067 51.1325C165.487 51.6825 166.105 51.9575 166.92 51.9575ZM178.246 53V48.9425C178.246 48.5575 178.211 48.1875 178.141 47.8325C178.076 47.4775 177.959 47.16 177.789 46.88C177.624 46.595 177.399 46.37 177.114 46.205C176.834 46.04 176.479 45.9575 176.049 45.9575C175.714 45.9575 175.409 46.015 175.134 46.13C174.864 46.24 174.631 46.41 174.436 46.64C174.241 46.87 174.089 47.16 173.979 47.51C173.874 47.855 173.821 48.2625 173.821 48.7325L172.944 48.4625C172.944 47.6775 173.084 47.005 173.364 46.445C173.649 45.88 174.046 45.4475 174.556 45.1475C175.071 44.8425 175.676 44.69 176.371 44.69C176.896 44.69 177.344 44.7725 177.714 44.9375C178.084 45.1025 178.391 45.3225 178.636 45.5975C178.881 45.8675 179.074 46.1725 179.214 46.5125C179.354 46.8475 179.451 47.19 179.506 47.54C179.566 47.885 179.596 48.2125 179.596 48.5225V53H178.246ZM172.471 53V44.9H173.671V47.0675H173.821V53H172.471ZM189.072 53C188.592 53.095 188.117 53.1325 187.647 53.1125C187.182 53.0975 186.767 53.005 186.402 52.835C186.037 52.66 185.759 52.39 185.569 52.025C185.409 51.705 185.322 51.3825 185.307 51.0575C185.297 50.7275 185.292 50.355 185.292 49.94V42.65H186.627V49.88C186.627 50.21 186.629 50.4925 186.634 50.7275C186.644 50.9625 186.697 51.165 186.792 51.335C186.972 51.655 187.257 51.8425 187.647 51.8975C188.042 51.9525 188.517 51.9375 189.072 51.8525V53ZM183.649 46.0025V44.9H189.072V46.0025H183.649ZM196.484 53V48.9425C196.484 48.5575 196.449 48.1875 196.379 47.8325C196.314 47.4775 196.196 47.16 196.026 46.88C195.861 46.595 195.636 46.37 195.351 46.205C195.071 46.04 194.716 45.9575 194.286 45.9575C193.951 45.9575 193.646 46.015 193.371 46.13C193.101 46.24 192.869 46.41 192.674 46.64C192.479 46.87 192.326 47.16 192.216 47.51C192.111 47.855 192.059 48.2625 192.059 48.7325L191.181 48.4625C191.181 47.6775 191.321 47.005 191.601 46.445C191.886 45.88 192.284 45.4475 192.794 45.1475C193.309 44.8425 193.914 44.69 194.609 44.69C195.134 44.69 195.581 44.7725 195.951 44.9375C196.321 45.1025 196.629 45.3225 196.874 45.5975C197.119 45.8675 197.311 46.1725 197.451 46.5125C197.591 46.8475 197.689 47.19 197.744 47.54C197.804 47.885 197.834 48.2125 197.834 48.5225V53H196.484ZM190.709 53V42.2H191.909V48.1625H192.059V53H190.709ZM203.293 53.225C202.498 53.225 201.803 53.05 201.208 52.7C200.618 52.345 200.158 51.8525 199.828 51.2225C199.498 50.5875 199.333 49.8475 199.333 49.0025C199.333 48.1175 199.496 47.3525 199.821 46.7075C200.146 46.0575 200.598 45.5575 201.178 45.2075C201.763 44.8525 202.448 44.675 203.233 44.675C204.048 44.675 204.741 44.8625 205.311 45.2375C205.886 45.6125 206.316 46.1475 206.601 46.8425C206.891 47.5375 207.016 48.365 206.976 49.325H205.626V48.845C205.611 47.85 205.408 47.1075 205.018 46.6175C204.628 46.1225 204.048 45.875 203.278 45.875C202.453 45.875 201.826 46.14 201.396 46.67C200.966 47.2 200.751 47.96 200.751 48.95C200.751 49.905 200.966 50.645 201.396 51.17C201.826 51.695 202.438 51.9575 203.233 51.9575C203.768 51.9575 204.233 51.835 204.628 51.59C205.023 51.345 205.333 50.9925 205.558 50.5325L206.841 50.975C206.526 51.69 206.051 52.245 205.416 52.64C204.786 53.03 204.078 53.225 203.293 53.225ZM200.301 49.325V48.2525H206.286V49.325H200.301Z" fill="#686674"/>
<path d="M103.606 78.27C102.766 78.27 101.977 78.123 101.239 77.829C100.507 77.529 99.862 77.091 99.304 76.515C98.752 75.939 98.32 75.234 98.008 74.4C97.696 73.56 97.54 72.6 97.54 71.52C97.54 70.104 97.804 68.895 98.332 67.893C98.86 66.885 99.583 66.114 100.501 65.58C101.419 65.04 102.454 64.77 103.606 64.77C105.202 64.77 106.465 65.142 107.395 65.886C108.331 66.624 108.964 67.662 109.294 69L107.08 69.351C106.834 68.583 106.432 67.971 105.874 67.515C105.316 67.053 104.605 66.822 103.741 66.822C102.871 66.81 102.148 66.999 101.572 67.389C100.996 67.779 100.561 68.328 100.267 69.036C99.979 69.744 99.835 70.572 99.835 71.52C99.835 72.468 99.979 73.293 100.267 73.995C100.555 74.691 100.987 75.234 101.563 75.624C102.145 76.014 102.871 76.215 103.741 76.227C104.395 76.233 104.968 76.116 105.46 75.876C105.952 75.63 106.354 75.261 106.666 74.769C106.978 74.271 107.188 73.65 107.296 72.906H105.01V71.205H109.6C109.612 71.301 109.621 71.442 109.627 71.628C109.633 71.814 109.636 71.925 109.636 71.961C109.636 73.185 109.393 74.274 108.907 75.228C108.427 76.176 107.737 76.92 106.837 77.46C105.937 78 104.86 78.27 103.606 78.27ZM115.559 78.27C114.587 78.27 113.738 78.051 113.012 77.613C112.286 77.175 111.722 76.572 111.32 75.804C110.924 75.03 110.726 74.142 110.726 73.14C110.726 72.12 110.93 71.226 111.338 70.458C111.746 69.69 112.313 69.09 113.039 68.658C113.765 68.226 114.605 68.01 115.559 68.01C116.537 68.01 117.389 68.229 118.115 68.667C118.841 69.105 119.405 69.711 119.807 70.485C120.209 71.253 120.41 72.138 120.41 73.14C120.41 74.148 120.206 75.039 119.798 75.813C119.396 76.581 118.832 77.184 118.106 77.622C117.38 78.054 116.531 78.27 115.559 78.27ZM115.559 76.236C116.423 76.236 117.065 75.948 117.485 75.372C117.905 74.796 118.115 74.052 118.115 73.14C118.115 72.198 117.902 71.448 117.476 70.89C117.05 70.326 116.411 70.044 115.559 70.044C114.977 70.044 114.497 70.176 114.119 70.44C113.747 70.698 113.471 71.061 113.291 71.529C113.111 71.991 113.021 72.528 113.021 73.14C113.021 74.082 113.234 74.835 113.66 75.399C114.092 75.957 114.725 76.236 115.559 76.236ZM126.508 78.27C125.536 78.27 124.687 78.051 123.961 77.613C123.235 77.175 122.671 76.572 122.269 75.804C121.873 75.03 121.675 74.142 121.675 73.14C121.675 72.12 121.879 71.226 122.287 70.458C122.695 69.69 123.262 69.09 123.988 68.658C124.714 68.226 125.554 68.01 126.508 68.01C127.486 68.01 128.338 68.229 129.064 68.667C129.79 69.105 130.354 69.711 130.756 70.485C131.158 71.253 131.359 72.138 131.359 73.14C131.359 74.148 131.155 75.039 130.747 75.813C130.345 76.581 129.781 77.184 129.055 77.622C128.329 78.054 127.48 78.27 126.508 78.27ZM126.508 76.236C127.372 76.236 128.014 75.948 128.434 75.372C128.854 74.796 129.064 74.052 129.064 73.14C129.064 72.198 128.851 71.448 128.425 70.89C127.999 70.326 127.36 70.044 126.508 70.044C125.926 70.044 125.446 70.176 125.068 70.44C124.696 70.698 124.42 71.061 124.24 71.529C124.06 71.991 123.97 72.528 123.97 73.14C123.97 74.082 124.183 74.835 124.609 75.399C125.041 75.957 125.674 76.236 126.508 76.236ZM137.25 82.59C136.71 82.59 136.191 82.506 135.693 82.338C135.201 82.17 134.757 81.927 134.361 81.609C133.965 81.297 133.641 80.919 133.389 80.475L135.387 79.485C135.573 79.839 135.834 80.1 136.17 80.268C136.512 80.442 136.875 80.529 137.259 80.529C137.709 80.529 138.111 80.448 138.465 80.286C138.819 80.13 139.092 79.896 139.284 79.584C139.482 79.278 139.575 78.894 139.563 78.432V75.669H139.833V68.28H141.732V78.468C141.732 78.714 141.72 78.948 141.696 79.17C141.678 79.398 141.645 79.62 141.597 79.836C141.453 80.466 141.177 80.982 140.769 81.384C140.361 81.792 139.854 82.095 139.248 82.293C138.648 82.491 137.982 82.59 137.25 82.59ZM137.061 78.27C136.167 78.27 135.387 78.045 134.721 77.595C134.055 77.145 133.539 76.533 133.173 75.759C132.807 74.985 132.624 74.112 132.624 73.14C132.624 72.156 132.807 71.28 133.173 70.512C133.545 69.738 134.07 69.129 134.748 68.685C135.426 68.235 136.224 68.01 137.142 68.01C138.066 68.01 138.84 68.235 139.464 68.685C140.094 69.129 140.571 69.738 140.895 70.512C141.219 71.286 141.381 72.162 141.381 73.14C141.381 74.106 141.219 74.979 140.895 75.759C140.571 76.533 140.088 77.145 139.446 77.595C138.804 78.045 138.009 78.27 137.061 78.27ZM137.394 76.326C137.976 76.326 138.444 76.194 138.798 75.93C139.158 75.66 139.419 75.285 139.581 74.805C139.749 74.325 139.833 73.77 139.833 73.14C139.833 72.504 139.749 71.949 139.581 71.475C139.419 70.995 139.164 70.623 138.816 70.359C138.468 70.089 138.018 69.954 137.466 69.954C136.884 69.954 136.404 70.098 136.026 70.386C135.648 70.668 135.369 71.052 135.189 71.538C135.009 72.018 134.919 72.552 134.919 73.14C134.919 73.734 135.006 74.274 135.18 74.76C135.36 75.24 135.633 75.621 135.999 75.903C136.365 76.185 136.83 76.326 137.394 76.326ZM144.258 78V64.77H146.427V78H144.258ZM153.364 78.27C152.38 78.27 151.516 78.057 150.772 77.631C150.028 77.205 149.446 76.614 149.026 75.858C148.612 75.102 148.405 74.232 148.405 73.248C148.405 72.186 148.609 71.265 149.017 70.485C149.425 69.699 149.992 69.09 150.718 68.658C151.444 68.226 152.284 68.01 153.238 68.01C154.246 68.01 155.101 68.247 155.803 68.721C156.511 69.189 157.036 69.852 157.378 70.71C157.72 71.568 157.849 72.579 157.765 73.743H155.614V72.951C155.608 71.895 155.422 71.124 155.056 70.638C154.69 70.152 154.114 69.909 153.328 69.909C152.44 69.909 151.78 70.185 151.348 70.737C150.916 71.283 150.7 72.084 150.7 73.14C150.7 74.124 150.916 74.886 151.348 75.426C151.78 75.966 152.41 76.236 153.238 76.236C153.772 76.236 154.231 76.119 154.615 75.885C155.005 75.645 155.305 75.3 155.515 74.85L157.657 75.498C157.285 76.374 156.709 77.055 155.929 77.541C155.155 78.027 154.3 78.27 153.364 78.27ZM150.016 73.743V72.105H156.703V73.743H150.016ZM163.021 78V65.04H168.376C168.502 65.04 168.664 65.046 168.862 65.058C169.06 65.064 169.243 65.082 169.411 65.112C170.161 65.226 170.779 65.475 171.265 65.859C171.757 66.243 172.12 66.729 172.354 67.317C172.594 67.899 172.714 68.547 172.714 69.261C172.714 69.969 172.594 70.617 172.354 71.205C172.114 71.787 171.748 72.27 171.256 72.654C170.77 73.038 170.155 73.287 169.411 73.401C169.243 73.425 169.057 73.443 168.853 73.455C168.655 73.467 168.496 73.473 168.376 73.473H165.19V78H163.021ZM165.19 71.448H168.286C168.406 71.448 168.541 71.442 168.691 71.43C168.841 71.418 168.979 71.394 169.105 71.358C169.465 71.268 169.747 71.109 169.951 70.881C170.161 70.653 170.308 70.395 170.392 70.107C170.482 69.819 170.527 69.537 170.527 69.261C170.527 68.985 170.482 68.703 170.392 68.415C170.308 68.121 170.161 67.86 169.951 67.632C169.747 67.404 169.465 67.245 169.105 67.155C168.979 67.119 168.841 67.098 168.691 67.092C168.541 67.08 168.406 67.074 168.286 67.074H165.19V71.448ZM174.52 78V64.77H176.689V78H174.52ZM181.925 78.27C181.223 78.27 180.629 78.138 180.143 77.874C179.657 77.604 179.288 77.247 179.036 76.803C178.79 76.359 178.667 75.87 178.667 75.336C178.667 74.868 178.745 74.448 178.901 74.076C179.057 73.698 179.297 73.374 179.621 73.104C179.945 72.828 180.365 72.603 180.881 72.429C181.271 72.303 181.727 72.189 182.249 72.087C182.777 71.985 183.347 71.892 183.959 71.808C184.577 71.718 185.222 71.622 185.894 71.52L185.12 71.961C185.126 71.289 184.976 70.794 184.67 70.476C184.364 70.158 183.848 69.999 183.122 69.999C182.684 69.999 182.261 70.101 181.853 70.305C181.445 70.509 181.16 70.86 180.998 71.358L179.018 70.737C179.258 69.915 179.714 69.255 180.386 68.757C181.064 68.259 181.976 68.01 183.122 68.01C183.986 68.01 184.745 68.151 185.399 68.433C186.059 68.715 186.548 69.177 186.866 69.819C187.04 70.161 187.145 70.512 187.181 70.872C187.217 71.226 187.235 71.613 187.235 72.033V78H185.336V75.894L185.651 76.236C185.213 76.938 184.7 77.454 184.112 77.784C183.53 78.108 182.801 78.27 181.925 78.27ZM182.357 76.542C182.849 76.542 183.269 76.455 183.617 76.281C183.965 76.107 184.241 75.894 184.445 75.642C184.655 75.39 184.796 75.153 184.868 74.931C184.982 74.655 185.045 74.34 185.057 73.986C185.075 73.626 185.084 73.335 185.084 73.113L185.75 73.311C185.096 73.413 184.535 73.503 184.067 73.581C183.599 73.659 183.197 73.734 182.861 73.806C182.525 73.872 182.228 73.947 181.97 74.031C181.718 74.121 181.505 74.226 181.331 74.346C181.157 74.466 181.022 74.604 180.926 74.76C180.836 74.916 180.791 75.099 180.791 75.309C180.791 75.549 180.851 75.762 180.971 75.948C181.091 76.128 181.265 76.272 181.493 76.38C181.727 76.488 182.015 76.542 182.357 76.542ZM190.133 82.32L192.005 77.181L192.041 78.693L187.802 68.28H190.061L193.067 75.984H192.491L195.416 68.28H197.585L192.167 82.32H190.133Z" fill="#2D2F35"/>
<path fill-rule="evenodd" clip-rule="evenodd" d="M52.5721 44.4958C52.2088 44.8862 52 45.4872 52 46.2681V74.0441C52 74.825 52.2088 75.4259 52.5857 75.8028L52.6841 75.886L68.2477 60.3224V59.9727L52.6705 44.4126L52.5721 44.4958V44.4958Z" fill="url(#paint0_linear_247_3587)"/>
<path fill-rule="evenodd" clip-rule="evenodd" d="M73.4256 65.5304L68.2344 60.3375V59.9742L73.4273 54.7812L73.5394 54.8509L79.6813 58.3411C81.44 59.3325 81.44 60.9656 79.6813 61.9706L73.5394 65.4608C73.5377 65.4608 73.4256 65.5304 73.4256 65.5304V65.5304Z" fill="url(#paint1_linear_247_3587)"/>
<path fill-rule="evenodd" clip-rule="evenodd" d="M73.5376 65.4607L68.2343 60.1558L52.5723 75.8178C53.1444 76.4323 54.1069 76.5019 55.1832 75.9009L73.5376 65.4607Z" fill="url(#paint2_linear_247_3587)"/>
<path fill-rule="evenodd" clip-rule="evenodd" d="M73.5376 54.8524L55.1832 44.4258C54.1086 43.8113 53.1444 43.8945 52.5723 44.509L68.2326 60.1557L73.5376 54.8524Z" fill="url(#paint3_linear_247_3587)"/>
<path opacity="0.2" fill-rule="evenodd" clip-rule="evenodd" d="M73.4256 65.3486L55.1968 75.7057C54.1783 76.2913 53.2701 76.2506 52.6844 75.7192L52.5859 75.8177L52.6844 75.9009C53.2701 76.4305 54.1783 76.473 55.1968 75.8873L73.5512 65.4607L73.4256 65.3486V65.3486Z" fill="black"/>
<path opacity="0.12" fill-rule="evenodd" clip-rule="evenodd" d="M79.6786 61.7888L73.4111 65.3487L73.5232 65.4607L79.6651 61.9705C80.5444 61.468 80.9773 60.8127 80.9773 60.1558C80.9213 60.7567 80.4748 61.3288 79.6786 61.7888V61.7888Z" fill="black"/>
<path opacity="0.25" fill-rule="evenodd" clip-rule="evenodd" d="M55.183 44.6076L79.6793 58.5245C80.4754 58.9709 80.9219 59.5566 80.9915 60.1576C80.9915 59.5023 80.5586 58.8453 79.6793 58.3428L55.183 44.426C53.4243 43.421 52 44.2579 52 46.2678V46.4495C52 44.4395 53.4243 43.6162 55.183 44.6076Z" fill="white"/>
</g>
<defs>
<filter id="filter0_d_247_3587" x="23" y="14" width="215" height="96" filterUnits="userSpaceOnUse" color-interpolation-filters="sRGB">
<feFlood flood-opacity="0" result="BackgroundImageFix"/>
<feColorMatrix in="SourceAlpha" type="matrix" values="0 0 0 0 0 0 0 0 0 0 0 0 0 0 0 0 0 0 127 0" result="hardAlpha"/>
<feOffset dy="2"/>
<feGaussianBlur stdDeviation="2"/>
<feComposite in2="hardAlpha" operator="out"/>
<feColorMatrix type="matrix" values="0 0 0 0 0 0 0 0 0 0 0 0 0 0 0 0 0 0 0.08 0"/>
<feBlend mode="normal" in2="BackgroundImageFix" result="effect1_dropShadow_247_3587"/>
<feBlend mode="normal" in="SourceGraphic" in2="effect1_dropShadow_247_3587" result="shape"/>
</filter>
<linearGradient id="paint0_linear_247_3587" x1="66.8501" y1="45.9695" x2="41.92" y2="52.6122" gradientUnits="userSpaceOnUse">
<stop stop-color="#00A0FF"/>
<stop offset="0.007" stop-color="#00A1FF"/>
<stop offset="0.26" stop-color="#00BEFF"/>
<stop offset="0.512" stop-color="#00D2FF"/>
<stop offset="0.76" stop-color="#00DFFF"/>
<stop offset="1" stop-color="#00E3FF"/>
</linearGradient>
<linearGradient id="paint1_linear_247_3587" x1="81.9698" y1="60.1566" x2="51.5728" y2="60.1566" gradientUnits="userSpaceOnUse">
<stop stop-color="#FFE000"/>
<stop offset="0.409" stop-color="#FFBD00"/>
<stop offset="0.775" stop-color="#FFA500"/>
<stop offset="1" stop-color="#FF9C00"/>
</linearGradient>
<linearGradient id="paint2_linear_247_3587" x1="70.6538" y1="63.0417" x2="50.6398" y2="96.7265" gradientUnits="userSpaceOnUse">
<stop stop-color="#FF3A44"/>
<stop offset="1" stop-color="#C31162"/>
</linearGradient>
<linearGradient id="paint3_linear_247_3587" x1="48.6298" y1="35.2558" x2="57.5586" y2="50.2999" gradientUnits="userSpaceOnUse">
<stop stop-color="#32A071"/>
<stop offset="0.069" stop-color="#2DA771"/>
<stop offset="0.476" stop-color="#15CF74"/>
<stop offset="0.801" stop-color="#06E775"/>
<stop offset="1" stop-color="#00F076"/>
</linearGradient>
</defs>
</svg>
