<svg width="209" height="109" viewBox="0 0 209 109" fill="none" xmlns="http://www.w3.org/2000/svg">
<rect x="0.5" y="0.5" width="208" height="108" rx="14.5" fill="#1F32E0" stroke="#2F5DFF"/>
<path d="M111.954 59.52C110.514 59.52 109.141 59.2333 107.834 58.66C106.527 58.0733 105.387 57.2533 104.414 56.2C103.454 55.1467 102.767 53.9067 102.354 52.48L107.634 51.08C107.914 52.1333 108.461 52.9533 109.274 53.54C110.101 54.1133 110.994 54.4 111.954 54.4C112.781 54.4 113.534 54.2 114.214 53.8C114.907 53.4 115.454 52.86 115.854 52.18C116.267 51.5 116.474 50.7467 116.474 49.92C116.474 48.68 116.047 47.62 115.194 46.74C114.354 45.8467 113.274 45.4 111.954 45.4C111.554 45.4 111.167 45.46 110.794 45.58C110.421 45.6867 110.061 45.84 109.714 46.04L107.274 41.76L116.434 34.16L116.834 35.32H103.474V30.2H121.474V35.32L114.354 42.2L114.314 40.68C115.967 40.9333 117.361 41.5133 118.494 42.42C119.641 43.3133 120.507 44.42 121.094 45.74C121.694 47.0467 121.994 48.44 121.994 49.92C121.994 51.7333 121.534 53.3667 120.614 54.82C119.694 56.26 118.474 57.4067 116.954 58.26C115.434 59.1 113.767 59.52 111.954 59.52ZM137.689 59.6C135.556 59.6 133.689 59.1533 132.089 58.26C130.489 57.3667 129.242 56.12 128.349 54.52C127.456 52.92 127.009 51.0533 127.009 48.92V40.28C127.009 38.1467 127.456 36.28 128.349 34.68C129.242 33.08 130.489 31.8333 132.089 30.94C133.689 30.0467 135.556 29.6 137.689 29.6C139.822 29.6 141.689 30.0467 143.289 30.94C144.889 31.8333 146.136 33.08 147.029 34.68C147.922 36.28 148.369 38.1467 148.369 40.28V48.92C148.369 51.0533 147.922 52.92 147.029 54.52C146.136 56.12 144.889 57.3667 143.289 58.26C141.689 59.1533 139.822 59.6 137.689 59.6ZM137.689 54.44C138.649 54.44 139.516 54.2133 140.289 53.76C141.062 53.3067 141.676 52.6933 142.129 51.92C142.582 51.1467 142.809 50.28 142.809 49.32V39.84C142.809 38.88 142.582 38.0133 142.129 37.24C141.676 36.4667 141.062 35.8533 140.289 35.4C139.516 34.9467 138.649 34.72 137.689 34.72C136.729 34.72 135.862 34.9467 135.089 35.4C134.316 35.8533 133.702 36.4667 133.249 37.24C132.796 38.0133 132.569 38.88 132.569 39.84V49.32C132.569 50.28 132.796 51.1467 133.249 51.92C133.702 52.6933 134.316 53.3067 135.089 53.76C135.862 54.2133 136.729 54.44 137.689 54.44ZM158.184 59L154.584 55.4L179.784 30.2L183.384 33.84L158.184 59ZM177.384 59.6C176.064 59.6 174.858 59.28 173.764 58.64C172.684 57.9867 171.818 57.12 171.164 56.04C170.511 54.9467 170.184 53.7333 170.184 52.4C170.184 51.0933 170.518 49.8933 171.184 48.8C171.851 47.7067 172.731 46.8333 173.824 46.18C174.918 45.5267 176.104 45.2 177.384 45.2C178.704 45.2 179.911 45.5267 181.004 46.18C182.098 46.82 182.964 47.6867 183.604 48.78C184.258 49.86 184.584 51.0667 184.584 52.4C184.584 53.7333 184.258 54.9467 183.604 56.04C182.964 57.12 182.098 57.9867 181.004 58.64C179.911 59.28 178.704 59.6 177.384 59.6ZM177.384 55C177.851 55 178.278 54.88 178.664 54.64C179.064 54.4 179.384 54.0867 179.624 53.7C179.864 53.3 179.984 52.8667 179.984 52.4C179.984 51.9333 179.864 51.5067 179.624 51.12C179.384 50.72 179.064 50.4 178.664 50.16C178.278 49.92 177.851 49.8 177.384 49.8C176.918 49.8 176.484 49.92 176.084 50.16C175.698 50.4 175.384 50.72 175.144 51.12C174.904 51.5067 174.784 51.9333 174.784 52.4C174.784 52.8667 174.904 53.3 175.144 53.7C175.384 54.0867 175.698 54.4 176.084 54.64C176.484 54.88 176.918 55 177.384 55ZM160.584 44C159.264 44 158.058 43.68 156.964 43.04C155.871 42.3867 154.998 41.52 154.344 40.44C153.704 39.3467 153.384 38.1333 153.384 36.8C153.384 35.4933 153.718 34.2933 154.384 33.2C155.051 32.1067 155.931 31.2333 157.024 30.58C158.118 29.9267 159.304 29.6 160.584 29.6C161.904 29.6 163.104 29.9267 164.184 30.58C165.278 31.22 166.151 32.0867 166.804 33.18C167.458 34.26 167.784 35.4667 167.784 36.8C167.784 38.1333 167.458 39.3467 166.804 40.44C166.151 41.52 165.278 42.3867 164.184 43.04C163.104 43.68 161.904 44 160.584 44ZM160.584 39.4C161.051 39.4 161.478 39.28 161.864 39.04C162.264 38.8 162.584 38.4867 162.824 38.1C163.064 37.7 163.184 37.2667 163.184 36.8C163.184 36.3333 163.064 35.9067 162.824 35.52C162.584 35.12 162.264 34.8 161.864 34.56C161.478 34.32 161.051 34.2 160.584 34.2C160.118 34.2 159.684 34.32 159.284 34.56C158.898 34.8 158.584 35.12 158.344 35.52C158.104 35.9067 157.984 36.3333 157.984 36.8C157.984 37.2667 158.104 37.7 158.344 38.1C158.584 38.4867 158.898 38.8 159.284 39.04C159.684 39.28 160.118 39.4 160.584 39.4Z" fill="#1FE0B3"/>
<path d="M48.0009 79.9999C55.8117 79.9999 63.0309 76.4564 67.8149 70.2764H67.8177C68.0088 70.029 68.1494 69.7464 68.2312 69.4447C68.3131 69.1431 68.3347 68.8283 68.2947 68.5183C68.2548 68.2083 68.1541 67.9093 67.9985 67.6381C67.8428 67.367 67.6352 67.1292 67.3876 66.9382C67.1399 66.7473 66.857 66.6069 66.555 66.5251C66.253 66.4433 65.9379 66.4218 65.6275 66.4617C65.3172 66.5016 65.0178 66.6021 64.7464 66.7576C64.475 66.9131 64.2369 67.1205 64.0457 67.3678C62.1636 69.8024 59.7511 71.7767 56.9912 73.1409C54.2312 74.5051 51.1964 75.2233 48.1171 75.241C45.0378 75.2587 41.9949 74.5755 39.2194 73.2432C36.4439 71.9108 34.0087 69.9644 32.0988 67.5516C31.9057 67.3038 31.6653 67.0967 31.3917 66.9422C31.118 66.7877 30.8164 66.6888 30.5043 66.6513C30.1921 66.6138 29.8757 66.6385 29.5731 66.7238C29.2706 66.8091 28.9879 66.9534 28.7415 67.1484C28.4951 67.3434 28.2898 67.5852 28.1374 67.8599C27.985 68.1345 27.8886 68.4366 27.8538 68.7487C27.8189 69.0608 27.8462 69.3767 27.9342 69.6782C28.0222 69.9796 28.169 70.2607 28.3663 70.5052C30.7035 73.472 33.686 75.8687 37.0877 77.5137C40.4895 79.1587 44.2215 80.0089 48.0009 79.9999Z" fill="#1FE0B3"/>
<path fill-rule="evenodd" clip-rule="evenodd" d="M72.3026 60.1586C72.7491 59.7125 73 59.1076 73 58.4769L72.9908 52.136C72.9872 49.8705 72.0845 47.6988 70.4808 46.0968C68.877 44.4949 66.7029 43.5933 64.4348 43.5896H63.8028C62.65 35.9089 56.0012 30 47.9954 30C39.9896 30 33.3408 35.9089 32.188 43.5896H31.556C29.2879 43.5933 27.1138 44.4949 25.51 46.0968C23.9063 47.6988 23.0036 49.8705 23 52.136V58.4769C22.9999 58.7892 23.0614 59.0985 23.181 59.3871C23.3006 59.6757 23.476 59.938 23.6971 60.1588C23.9182 60.3797 24.1807 60.5549 24.4697 60.6744C24.7586 60.7938 25.0682 60.8553 25.381 60.8551H30.3489C30.8427 62.2929 31.7738 63.5406 33.0121 64.4239C34.2505 65.3073 35.7341 65.7821 37.2558 65.7821C38.7775 65.7821 40.2612 65.3073 41.4995 64.4239C42.7378 63.5406 43.6689 62.2929 44.1627 60.8551H51.8373C52.3311 62.2929 53.2622 63.5406 54.5005 64.4239C55.7388 65.3073 57.2225 65.7821 58.7442 65.7821C60.2659 65.7821 61.7495 65.3073 62.9878 64.4239C64.2262 63.5406 65.1573 62.2929 65.6511 60.8551H70.619C71.2505 60.8551 71.8561 60.6046 72.3026 60.1586ZM48.0005 34.7483C42.6286 34.7483 38.1317 38.539 37.036 43.5814H58.965C57.8693 38.539 53.3723 34.7483 48.0005 34.7483ZM37.255 55.9259C36.7504 55.9259 36.2572 56.0754 35.8376 56.3554C35.418 56.6355 35.0911 57.0335 34.898 57.4992C34.7049 57.9649 34.6545 58.4773 34.753 58.9717C34.8515 59.466 35.0945 59.9201 35.4514 60.2764C35.8083 60.6328 36.263 60.8754 36.7579 60.9736C37.2528 61.0719 37.7658 61.0213 38.232 60.8282C38.6981 60.6352 39.0965 60.3085 39.3767 59.8893C39.6569 59.4701 39.8064 58.9773 39.8062 58.4733C39.8057 57.7977 39.5367 57.1499 39.0584 56.6722C38.58 56.1946 37.9314 55.9261 37.255 55.9259ZM57.3284 56.3554C57.7479 56.0754 58.2412 55.9259 58.7458 55.9259C59.4222 55.9261 60.0708 56.1946 60.5492 56.6722C61.0275 57.1499 61.2965 57.7977 61.297 58.4733C61.2971 58.9773 61.1477 59.4701 60.8675 59.8893C60.5873 60.3085 60.1889 60.6352 59.7227 60.8282C59.2566 61.0213 58.7436 61.0719 58.2487 60.9736C57.7537 60.8754 57.2991 60.6328 56.9422 60.2764C56.5853 59.9201 56.3423 59.466 56.2438 58.9717C56.1452 58.4773 56.1957 57.9649 56.3888 57.4992C56.5818 57.0335 56.9088 56.6355 57.3284 56.3554ZM31.5619 48.338H64.4408C65.4476 48.3392 66.4129 48.7392 67.1249 49.4504C67.8368 50.1615 68.2373 51.1257 68.2385 52.1314V56.0959H65.6533C65.1596 54.6581 64.2285 53.4104 62.9901 52.5271C61.7518 51.6437 60.2681 51.1689 58.7465 51.1689C57.2248 51.1689 55.7411 51.6437 54.5028 52.5271C53.2645 53.4104 52.3334 54.6581 51.8396 56.0959H44.1631C43.6694 54.6581 42.7382 53.4104 41.4999 52.5271C40.2616 51.6437 38.7779 51.1689 37.2563 51.1689C35.7346 51.1689 34.2509 51.6437 33.0126 52.5271C31.7743 53.4104 30.8432 54.6581 30.3494 56.0959H27.7642V52.1314C27.7654 51.1257 28.1659 50.1615 28.8779 49.4504C29.5898 48.7392 30.5551 48.3392 31.5619 48.338Z" fill="#1FE0B3"/>
<path d="M107.82 85.27C106.53 85.27 105.435 84.985 104.535 84.415C103.635 83.845 102.948 83.053 102.474 82.039C102.006 81.025 101.772 79.852 101.772 78.52C101.772 77.188 102.006 76.015 102.474 75.001C102.948 73.987 103.635 73.195 104.535 72.625C105.435 72.055 106.53 71.77 107.82 71.77C109.116 71.77 110.214 72.055 111.114 72.625C112.014 73.195 112.698 73.987 113.166 75.001C113.634 76.015 113.868 77.188 113.868 78.52C113.868 79.852 113.634 81.025 113.166 82.039C112.698 83.053 112.014 83.845 111.114 84.415C110.214 84.985 109.116 85.27 107.82 85.27ZM107.82 83.74C108.786 83.746 109.59 83.53 110.232 83.092C110.88 82.648 111.363 82.033 111.681 81.247C112.005 80.461 112.167 79.552 112.167 78.52C112.167 77.482 112.005 76.573 111.681 75.793C111.363 75.013 110.88 74.404 110.232 73.966C109.59 73.528 108.786 73.306 107.82 73.3C106.854 73.294 106.05 73.51 105.408 73.948C104.772 74.386 104.292 74.998 103.968 75.784C103.644 76.57 103.479 77.482 103.473 78.52C103.467 79.552 103.626 80.458 103.95 81.238C104.274 82.018 104.757 82.63 105.399 83.074C106.047 83.512 106.854 83.734 107.82 83.74ZM115.676 85V72.04H123.236V73.642H117.278V77.719H122.156V79.321H117.278V85H115.676ZM124.852 85V72.04H132.412V73.642H126.454V77.719H131.332V79.321H126.454V85H124.852Z" fill="#1FE0B3"/>
</svg>
