<svg width="49" height="25" viewBox="0 0 49 25" fill="none" xmlns="http://www.w3.org/2000/svg">
<path d="M32.2976 19.27C31.3796 19.27 30.5696 19.075 29.8676 18.685C29.1656 18.289 28.6166 17.74 28.2206 17.038C27.8306 16.336 27.6356 15.526 27.6356 14.608V10.432C27.6356 9.514 27.8306 8.704 28.2206 8.002C28.6166 7.3 29.1656 6.754 29.8676 6.364C30.5696 5.968 31.3796 5.77 32.2976 5.77C33.2156 5.77 34.0226 5.968 34.7186 6.364C35.4206 6.754 35.9696 7.3 36.3656 8.002C36.7616 8.704 36.9596 9.514 36.9596 10.432V14.608C36.9596 15.526 36.7616 16.336 36.3656 17.038C35.9696 17.74 35.4206 18.289 34.7186 18.685C34.0226 19.075 33.2156 19.27 32.2976 19.27ZM32.2976 17.209C32.7536 17.209 33.1676 17.101 33.5396 16.885C33.9116 16.663 34.2056 16.369 34.4216 16.003C34.6376 15.631 34.7456 15.217 34.7456 14.761V10.27C34.7456 9.808 34.6376 9.394 34.4216 9.028C34.2056 8.656 33.9116 8.362 33.5396 8.146C33.1676 7.924 32.7536 7.813 32.2976 7.813C31.8416 7.813 31.4276 7.924 31.0556 8.146C30.6836 8.362 30.3896 8.656 30.1736 9.028C29.9576 9.394 29.8496 9.808 29.8496 10.27V14.761C29.8496 15.217 29.9576 15.631 30.1736 16.003C30.3896 16.369 30.6836 16.663 31.0556 16.885C31.4276 17.101 31.8416 17.209 32.2976 17.209ZM44.3152 19V16.858H38.5732V14.833L42.7222 6.04H45.1972L41.0482 14.833H44.3152V11.458H46.5112V14.833H47.7262V16.858H46.5112V19H44.3152Z" fill="#263238"/>
<circle cx="3.13043" cy="7.13055" r="3.13043" fill="#1FE0B3"/>
<circle cx="3.13043" cy="16.8697" r="3.13043" fill="#1FE0B3"/>
<circle cx="12.8687" cy="7.13055" r="3.13043" fill="#1FE0B3"/>
<circle cx="12.8687" cy="16.8697" r="3.13043" fill="#1FE0B3"/>
</svg>
