<svg width="30" height="30" viewBox="0 0 30 30" fill="none" xmlns="http://www.w3.org/2000/svg">
<path d="M9.99996 19.9995C9.30997 19.9995 8.75 20.5595 8.75 21.2495C8.75 21.9395 9.30997 22.4994 9.99996 22.4994C10.6899 22.4994 11.2499 21.9395 11.2499 21.2495C11.2499 20.5595 10.6899 19.9995 9.99996 19.9995Z" fill="#2D2F35"/>
<path d="M20 19.9995C19.31 19.9995 18.75 20.5595 18.75 21.2495C18.75 21.9395 19.31 22.4994 20 22.4994C20.6899 22.4994 21.2499 21.9395 21.2499 21.2495C21.2499 20.5595 20.6899 19.9995 20 19.9995Z" fill="#2D2F35"/>
<path d="M15.0003 2.5C15.0001 2.5 15 2.5 14.9999 2.5C14.9998 2.5 14.9998 2.5 14.9997 2.5C14.9997 2.5 14.9996 2.5 14.9996 2.5C10.8588 2.50018 7.11017 4.17792 4.39621 6.89065C4.39527 6.89158 4.39422 6.89234 4.39328 6.89328C4.39229 6.89428 4.39152 6.89533 4.39053 6.89633C1.68091 9.60759 0.00421868 13.3511 0.00064452 17.4865C0.00064452 17.4909 0 17.4953 0 17.4997C0 17.504 0.000585927 17.5081 0.00064452 17.5123C0.00357416 21.0397 1.22887 24.3817 3.4292 27.0456C3.66667 27.3331 4.02005 27.4996 4.39293 27.4996H25.6063C25.9792 27.4996 26.3326 27.3331 26.57 27.0456C28.7735 24.3779 30 21.0311 30 17.4997C30 9.21578 23.2842 2.5 15.0003 2.5ZM25.0003 24.9996H4.9989C3.6348 23.1846 2.78925 21.0352 2.56244 18.7497H6.24991C6.94025 18.7497 7.49987 18.1901 7.49987 17.4997C7.49987 16.8094 6.94025 16.2498 6.24991 16.2498H2.56249C2.81204 13.7359 3.80642 11.4413 5.32168 9.58949L6.16073 10.4285C6.64887 10.9167 7.44034 10.9167 7.92847 10.4285C8.41661 9.9404 8.41661 9.14893 7.92847 8.66079L7.08937 7.82168C8.94119 6.30624 11.2357 5.31175 13.7497 5.06208V8.74997C13.7497 9.44031 14.3093 9.99993 14.9997 9.99993C15.69 9.99993 16.2496 9.44031 16.2496 8.74997V5.06197C18.7636 5.31151 21.0582 6.30601 22.9102 7.82145L22.0709 8.66079C21.5827 9.14893 21.5827 9.9404 22.0709 10.4285C22.559 10.9167 23.3505 10.9167 23.8386 10.4285L24.678 9.58913C26.1936 11.4411 27.1883 13.7358 27.4379 16.2498H23.7495C23.0592 16.2498 22.4995 16.8094 22.4995 17.4997C22.4995 18.1901 23.0592 18.7497 23.7495 18.7497H27.4379C27.211 21.0346 26.365 23.1841 25.0003 24.9996Z" fill="#2D2F35"/>
<path d="M15.2146 19.9999L18.7495 12.9287L11.6797 16.4649L15.2146 19.9999Z" fill="#2D2F35"/>
</svg>
