<svg width="40" height="40" viewBox="0 0 40 40" fill="none" xmlns="http://www.w3.org/2000/svg">
<path d="M31 27.7141V20V12.2859C32.4565 11.7712 33.5 10.3831 33.5 8.75C33.5 6.67842 31.8216 5 29.75 5C27.6784 5 26 6.67842 26 8.75C26 10.3831 27.0434 11.7712 28.5 12.2859V18.75H21V12.2859C22.4565 11.7712 23.5 10.3831 23.5 8.75C23.5 6.67842 21.8216 5 19.75 5C17.6784 5 16 6.67842 16 8.75C16 10.3831 17.0434 11.7712 18.5 12.2859V18.75H11V12.2859C12.4565 11.7712 13.5 10.3831 13.5 8.75C13.5 6.67842 11.8216 5 9.75 5C7.67842 5 6 6.67842 6 8.75C6 10.3831 7.04344 11.7712 8.50002 12.2859V20C8.50002 20.6904 9.05965 21.25 9.75 21.25H18.5V27.7141C17.0434 28.2288 16 29.6169 16 31.25C16 33.3216 17.6784 35 19.75 35C21.8216 35 23.5 33.3216 23.5 31.25C23.5 29.6169 22.4565 28.2288 21 27.7141V21.25H28.5V27.7141C27.0434 28.2288 25.9999 29.6169 25.9999 31.25C25.9999 33.3216 27.6784 35 29.7499 35C31.8215 35 33.5 33.3216 33.5 31.25C33.5 29.6169 32.4565 28.2288 31 27.7141ZM29.75 7.50002C30.4409 7.50002 31 8.05912 31 8.75C31 9.44088 30.4409 9.99998 29.75 9.99998C29.0591 9.99998 28.5 9.44088 28.5 8.75C28.5 8.05912 29.0591 7.50002 29.75 7.50002ZM19.75 7.50002C20.4409 7.50002 21 8.05912 21 8.75C21 9.44088 20.4409 9.99998 19.75 9.99998C19.0591 9.99998 18.5 9.44088 18.5 8.75C18.5 8.05912 19.0591 7.50002 19.75 7.50002ZM9.74995 7.50002C10.4408 7.50002 10.9999 8.05912 10.9999 8.75C10.9999 9.44088 10.4408 9.99998 9.74995 9.99998C9.05907 9.99998 8.49996 9.44088 8.49996 8.75C8.49996 8.05912 9.05907 7.50002 9.74995 7.50002ZM19.75 32.5C19.0591 32.5 18.5 31.9409 18.5 31.25C18.5 30.5591 19.0591 30 19.75 30C20.4409 30 21 30.5591 21 31.25C21 31.9409 20.4409 32.5 19.75 32.5ZM29.75 32.5C29.0591 32.5 28.5 31.9409 28.5 31.25C28.5 30.5591 29.0591 30 29.75 30C30.4409 30 31 30.5591 31 31.25C31 31.9409 30.4409 32.5 29.75 32.5Z" fill="#2D2F35"/>
</svg>
