<svg width="252" height="50" viewBox="0 0 252 50" fill="none" xmlns="http://www.w3.org/2000/svg">
<g clip-path="url(#clip0_226_3657)">
<path d="M15.4024 25.5805C15.0884 25.5805 14.7815 25.6736 14.5204 25.8481C14.2593 26.0225 14.0559 26.2705 13.9357 26.5606C13.8156 26.8507 13.7842 27.17 13.8455 27.4779C13.9068 27.7859 14.058 28.0688 14.2801 28.2907C14.5022 28.5127 14.7851 28.6639 15.0931 28.7251C15.4011 28.7863 15.7203 28.7547 16.0104 28.6345C16.3004 28.5143 16.5483 28.3107 16.7227 28.0496C16.8971 27.7884 16.9901 27.4814 16.9899 27.1674C16.9896 26.7465 16.8223 26.343 16.5246 26.0454C16.2269 25.7479 15.8233 25.5807 15.4024 25.5805Z" fill="#1FE0B3"/>
<path d="M22.089 12.3876C18.7463 12.3876 15.9479 14.7491 15.2661 17.8903H28.9119C28.23 14.7491 25.4317 12.3876 22.089 12.3876Z" fill="#1FE0B3"/>
<path d="M28.775 25.5805C28.461 25.5805 28.1541 25.6736 27.893 25.8481C27.6319 26.0225 27.4284 26.2705 27.3083 26.5606C27.1881 26.8507 27.1567 27.17 27.218 27.4779C27.2793 27.7859 27.4306 28.0688 27.6527 28.2907C27.8747 28.5127 28.1577 28.6639 28.4656 28.7251C28.7736 28.7863 29.0928 28.7547 29.3829 28.6345C29.673 28.5143 29.9209 28.3107 30.0952 28.0496C30.2696 27.7884 30.3626 27.4814 30.3625 27.1674C30.3622 26.7465 30.1948 26.343 29.8972 26.0454C29.5995 25.7479 29.1959 25.5807 28.775 25.5805V25.5805Z" fill="#1FE0B3"/>
<path d="M22.0888 2.91119C9.88969 2.91119 0 12.8009 0 25C0 37.1991 9.88969 47.0887 22.0888 47.0887C34.2879 47.0887 44.1776 37.1996 44.1776 25C44.1776 12.8003 34.2879 2.91119 22.0888 2.91119ZM34.4184 34.5204C31.4415 38.3704 26.9492 40.5779 22.0888 40.5779C19.737 40.5835 17.4147 40.0538 15.2979 39.029C13.181 38.0042 11.3252 36.5112 9.8708 34.6629C9.74802 34.5106 9.65663 34.3355 9.60188 34.1477C9.54714 33.9599 9.53012 33.7631 9.55183 33.5687C9.57353 33.3743 9.63352 33.1861 9.72834 33.015C9.82315 32.8439 9.95092 32.6933 10.1043 32.5718C10.2576 32.4503 10.4335 32.3604 10.6217 32.3072C10.81 32.2541 11.0069 32.2388 11.2012 32.2621C11.3954 32.2855 11.5831 32.3471 11.7534 32.4433C11.9237 32.5396 12.0732 32.6686 12.1934 32.823C13.3819 34.326 14.8972 35.5386 16.6243 36.3686C18.3514 37.1986 20.2449 37.6243 22.1611 37.6132C24.0772 37.6022 25.9657 37.1548 27.6831 36.3049C29.4006 35.4551 30.9018 34.2251 32.0729 32.7085C32.1919 32.5544 32.3401 32.4252 32.509 32.3283C32.6779 32.2315 32.8642 32.1688 33.0573 32.144C33.2504 32.1191 33.4465 32.1325 33.6344 32.1835C33.8223 32.2344 33.9984 32.3219 34.1525 32.4408C34.3066 32.5598 34.4358 32.708 34.5326 32.8769C34.6295 33.0458 34.6921 33.2321 34.717 33.4252C34.7418 33.6183 34.7284 33.8144 34.6775 34.0023C34.6266 34.1902 34.5391 34.3663 34.4201 34.5204H34.4184ZM37.6449 27.1697C37.6449 27.5626 37.4888 27.9395 37.211 28.2173C36.9331 28.4952 36.5563 28.6513 36.1633 28.6513H33.0719C32.7647 29.5469 32.1853 30.3242 31.4147 30.8745C30.6441 31.4248 29.7209 31.7206 28.774 31.7206C27.8271 31.7206 26.9039 31.4248 26.1333 30.8745C25.3627 30.3242 24.7833 29.5469 24.476 28.6513H19.7004C19.3931 29.5469 18.8137 30.3242 18.0431 30.8745C17.2726 31.4248 16.3493 31.7206 15.4024 31.7206C14.4555 31.7206 13.5323 31.4248 12.7617 30.8745C11.9912 30.3242 11.4118 29.5469 11.1045 28.6513H8.01308C7.81849 28.6514 7.6258 28.6131 7.44601 28.5387C7.26622 28.4642 7.10286 28.3551 6.96527 28.2175C6.82767 28.0799 6.71854 27.9165 6.64411 27.7368C6.56968 27.557 6.53141 27.3643 6.53149 27.1697V23.2195C6.53376 21.8082 7.09542 20.4553 8.09339 19.4573C9.09137 18.4594 10.4443 17.8977 11.8556 17.8954H12.2489C12.9662 13.1106 17.1036 9.42951 22.0853 9.42951C27.0671 9.42951 31.2045 13.1106 31.9218 17.8954H32.3151C33.7264 17.8977 35.0793 18.4594 36.0773 19.4573C37.0753 20.4553 37.6369 21.8082 37.6392 23.2195L37.6449 27.1697Z" fill="#1FE0B3"/>
<path d="M32.3183 20.8535H11.8588C11.2323 20.8542 10.6316 21.1034 10.1886 21.5465C9.74559 21.9895 9.49636 22.5901 9.49561 23.2167V25.6864H11.1043C11.4116 24.7907 11.991 24.0134 12.7615 23.4631C13.5321 22.9128 14.4553 22.617 15.4022 22.617C16.3491 22.617 17.2724 22.9128 18.0429 23.4631C18.8135 24.0134 19.3929 24.7907 19.7002 25.6864H24.477C24.7842 24.7907 25.3636 24.0134 26.1342 23.4631C26.9048 22.9128 27.828 22.617 28.7749 22.617C29.7218 22.617 30.645 22.9128 31.4156 23.4631C32.1862 24.0134 32.7656 24.7907 33.0729 25.6864H34.6815V23.2167C34.6808 22.5901 34.4316 21.9895 33.9885 21.5465C33.5455 21.1034 32.9448 20.8542 32.3183 20.8535V20.8535Z" fill="#1FE0B3"/>
</g>
<path d="M63.8412 39.5484C61.9157 39.5484 60.3009 39.0914 58.9969 38.1774C57.6929 37.2634 56.7119 36.0203 56.0538 34.4482C55.3957 32.8639 55.0666 31.0907 55.0666 29.1286C55.0666 27.1421 55.3957 25.3628 56.0538 23.7907C56.7119 22.2186 57.6746 20.9816 58.9421 20.0798C60.2217 19.1658 61.7999 18.7088 63.6767 18.7088C65.5413 18.7088 67.156 19.1658 68.521 20.0798C69.8981 20.9816 70.9645 22.2186 71.72 23.7907C72.4756 25.3507 72.8534 27.1299 72.8534 29.1286C72.8534 31.1029 72.4817 32.8761 71.7383 34.4482C70.9949 36.0203 69.9468 37.2634 68.5941 38.1774C67.2414 39.0914 65.6571 39.5484 63.8412 39.5484ZM54.3171 39V12.6763H58.7593V25.1435H58.2108V39H54.3171ZM63.1648 35.5999C64.3104 35.5999 65.2549 35.3135 65.9983 34.7407C66.7417 34.1679 67.2901 33.394 67.6435 32.4191C68.0091 31.4319 68.1919 30.3351 68.1919 29.1286C68.1919 27.9343 68.0091 26.8496 67.6435 25.8747C67.2779 24.8876 66.7112 24.1076 65.9434 23.5348C65.1757 22.9498 64.2007 22.6573 63.0186 22.6573C61.8974 22.6573 60.9834 22.9315 60.2765 23.48C59.5697 24.0162 59.0456 24.7718 58.7044 25.7467C58.3754 26.7095 58.2108 27.8368 58.2108 29.1286C58.2108 30.4082 58.3754 31.5355 58.7044 32.5105C59.0456 33.4854 59.5758 34.2471 60.2948 34.7955C61.026 35.3317 61.9827 35.5999 63.1648 35.5999ZM85.1135 39.5484C83.1148 39.5484 81.3599 39.1158 79.8487 38.2505C78.3376 37.3852 77.1554 36.1848 76.3023 34.6493C75.4614 33.1137 75.041 31.3466 75.041 29.348C75.041 27.1909 75.4553 25.3202 76.2841 23.7359C77.1128 22.1394 78.2644 20.9024 79.7391 20.025C81.2137 19.1475 82.9198 18.7088 84.8576 18.7088C86.905 18.7088 88.6416 19.1902 90.0675 20.1529C91.5055 21.1035 92.5719 22.4502 93.2665 24.1929C93.9612 25.9356 94.2232 27.9891 94.0526 30.3534H89.6836V28.7447C89.6714 26.5998 89.2936 25.0338 88.5502 24.0467C87.8068 23.0595 86.6368 22.5659 85.0404 22.5659C83.2367 22.5659 81.8961 23.1265 81.0187 24.2477C80.1412 25.3567 79.7025 26.9837 79.7025 29.1286C79.7025 31.1273 80.1412 32.675 81.0187 33.7718C81.8961 34.8686 83.1758 35.417 84.8576 35.417C85.9422 35.417 86.8745 35.1794 87.6545 34.7041C88.4466 34.2166 89.0559 33.5159 89.4825 32.6019L93.8332 33.9181C93.0776 35.6973 91.9077 37.0806 90.3234 38.0677C88.7513 39.0548 87.0146 39.5484 85.1135 39.5484ZM78.3132 30.3534V27.0264H91.8955V30.3534H78.3132Z" fill="#1FE0B3"/>
<path d="M105.96 39.5484C103.925 39.5484 102.188 39.0975 100.75 38.1957C99.3119 37.2816 98.209 36.0386 97.4412 34.4665C96.6856 32.8944 96.3018 31.1151 96.2896 29.1286C96.3018 27.1056 96.6978 25.3141 97.4778 23.7542C98.2699 22.1821 99.3911 20.9512 100.841 20.0615C102.292 19.1597 104.016 18.7088 106.015 18.7088C108.257 18.7088 110.152 19.2755 111.7 20.4089C113.26 21.5301 114.277 23.0656 114.753 25.0155L110.365 26.2037C110.024 25.1435 109.458 24.3209 108.665 23.7359C107.873 23.1387 106.971 22.8401 105.96 22.8401C104.814 22.8401 103.87 23.1144 103.126 23.6628C102.383 24.199 101.835 24.9424 101.481 25.893C101.128 26.8436 100.951 27.9221 100.951 29.1286C100.951 31.0054 101.372 32.5227 102.212 33.6804C103.053 34.8382 104.302 35.417 105.96 35.417C107.13 35.417 108.05 35.1489 108.72 34.6127C109.403 34.0765 109.915 33.3026 110.256 32.2911L114.753 33.2965C114.143 35.3074 113.077 36.8551 111.554 37.9397C110.03 39.0122 108.166 39.5484 105.96 39.5484ZM122.87 39.5484C121.444 39.5484 120.238 39.2803 119.251 38.7441C118.264 38.1957 117.514 37.4705 117.002 36.5687C116.503 35.6669 116.253 34.6736 116.253 33.589C116.253 32.6384 116.411 31.7853 116.728 31.0298C117.045 30.262 117.532 29.6039 118.191 29.0555C118.849 28.4949 119.702 28.0379 120.75 27.6844C121.542 27.4285 122.468 27.197 123.528 26.9898C124.601 26.7826 125.759 26.5937 127.002 26.4231C128.257 26.2403 129.567 26.0453 130.932 25.8381L129.36 26.7339C129.372 25.3689 129.067 24.3635 128.446 23.7176C127.824 23.0717 126.776 22.7487 125.302 22.7487C124.412 22.7487 123.553 22.9559 122.724 23.3703C121.895 23.7846 121.316 24.4976 120.987 25.5091L116.966 24.2477C117.453 22.5781 118.379 21.2376 119.744 20.2261C121.121 19.2145 122.974 18.7088 125.302 18.7088C127.057 18.7088 128.598 18.9952 129.927 19.568C131.267 20.1407 132.26 21.0791 132.906 22.3831C133.26 23.0778 133.473 23.7907 133.546 24.5219C133.619 25.241 133.656 26.027 133.656 26.8801V39H129.799V34.7224L130.438 35.417C129.549 36.8429 128.507 37.891 127.312 38.5613C126.13 39.2194 124.65 39.5484 122.87 39.5484ZM123.748 36.0386C124.747 36.0386 125.6 35.8619 126.307 35.5084C127.014 35.155 127.574 34.7224 127.989 34.2105C128.415 33.6987 128.702 33.2173 128.848 32.7664C129.08 32.2058 129.207 31.566 129.232 30.847C129.268 30.1157 129.287 29.5247 129.287 29.0738L130.639 29.4759C129.311 29.6831 128.172 29.8659 127.221 30.0243C126.27 30.1828 125.454 30.3351 124.771 30.4813C124.089 30.6154 123.486 30.7677 122.962 30.9384C122.45 31.1212 122.017 31.3344 121.664 31.5782C121.31 31.8219 121.036 32.1022 120.841 32.4191C120.658 32.7359 120.567 33.1076 120.567 33.5342C120.567 34.0216 120.689 34.4543 120.933 34.8321C121.176 35.1977 121.53 35.4902 121.993 35.7095C122.468 35.9289 123.053 36.0386 123.748 36.0386ZM137.67 39V19.2572H141.564V24.0649L141.088 23.4434C141.332 22.7853 141.655 22.1881 142.057 21.6519C142.472 21.1035 142.965 20.6526 143.538 20.2992C144.025 19.9701 144.562 19.7142 145.147 19.5314C145.744 19.3364 146.353 19.2206 146.975 19.1841C147.596 19.1353 148.199 19.1597 148.784 19.2572V23.3703C148.199 23.1997 147.523 23.1448 146.755 23.2058C146 23.2667 145.317 23.48 144.708 23.8456C144.098 24.1746 143.599 24.5951 143.209 25.1069C142.831 25.6188 142.551 26.2037 142.368 26.8618C142.185 27.5077 142.094 28.2085 142.094 28.9641V39H137.67ZM151.528 39V19.2572H155.421V24.0649L154.946 23.4434C155.19 22.7853 155.513 22.1881 155.915 21.6519C156.329 21.1035 156.823 20.6526 157.396 20.2992C157.883 19.9701 158.419 19.7142 159.004 19.5314C159.602 19.3364 160.211 19.2206 160.832 19.1841C161.454 19.1353 162.057 19.1597 162.642 19.2572V23.3703C162.057 23.1997 161.381 23.1448 160.613 23.2058C159.858 23.2667 159.175 23.48 158.566 23.8456C157.956 24.1746 157.457 24.5951 157.067 25.1069C156.689 25.6188 156.409 26.2037 156.226 26.8618C156.043 27.5077 155.952 28.2085 155.952 28.9641V39H151.528ZM174.004 39.5484C172.006 39.5484 170.251 39.1158 168.74 38.2505C167.228 37.3852 166.046 36.1848 165.193 34.6493C164.352 33.1137 163.932 31.3466 163.932 29.348C163.932 27.1909 164.346 25.3202 165.175 23.7359C166.004 22.1394 167.155 20.9024 168.63 20.025C170.104 19.1475 171.811 18.7088 173.748 18.7088C175.796 18.7088 177.532 19.1902 178.958 20.1529C180.396 21.1035 181.463 22.4502 182.157 24.1929C182.852 25.9356 183.114 27.9891 182.943 30.3534H178.574V28.7447C178.562 26.5998 178.184 25.0338 177.441 24.0467C176.698 23.0595 175.528 22.5659 173.931 22.5659C172.127 22.5659 170.787 23.1265 169.909 24.2477C169.032 25.3567 168.593 26.9837 168.593 29.1286C168.593 31.1273 169.032 32.675 169.909 33.7718C170.787 34.8686 172.067 35.417 173.748 35.417C174.833 35.417 175.765 35.1794 176.545 34.7041C177.337 34.2166 177.947 33.5159 178.373 32.6019L182.724 33.9181C181.968 35.6973 180.798 37.0806 179.214 38.0677C177.642 39.0548 175.905 39.5484 174.004 39.5484ZM167.204 30.3534V27.0264H180.786V30.3534H167.204ZM199.397 39V29.4942C199.397 28.8727 199.354 28.1841 199.269 27.4285C199.184 26.6729 198.983 25.9478 198.666 25.2532C198.361 24.5463 197.898 23.9674 197.277 23.5165C196.667 23.0656 195.838 22.8401 194.79 22.8401C194.23 22.8401 193.675 22.9315 193.127 23.1144C192.578 23.2972 192.079 23.614 191.628 24.0649C191.189 24.5037 190.836 25.113 190.568 25.893C190.3 26.6607 190.165 27.6479 190.165 28.8544L187.551 27.7393C187.551 26.0575 187.874 24.5341 188.52 23.1692C189.178 21.8043 190.141 20.7196 191.409 19.9153C192.676 19.0988 194.236 18.6905 196.088 18.6905C197.551 18.6905 198.757 18.9342 199.708 19.4217C200.658 19.9092 201.414 20.5307 201.975 21.2863C202.535 22.0419 202.95 22.8462 203.218 23.6993C203.486 24.5524 203.656 25.3628 203.73 26.1306C203.815 26.8862 203.857 27.5016 203.857 27.9769V39H199.397ZM185.705 39V19.2572H189.635V25.3811H190.165V39H185.705ZM219.454 39C218.15 39.2437 216.871 39.3473 215.615 39.3108C214.372 39.2864 213.257 39.0609 212.27 38.6344C211.283 38.1957 210.533 37.5071 210.022 36.5687C209.571 35.7156 209.333 34.8443 209.309 33.9546C209.284 33.065 209.272 32.0596 209.272 30.9384V13.7731H213.659V30.6824C213.659 31.4746 213.665 32.1692 213.678 32.7664C213.702 33.3636 213.83 33.851 214.062 34.2288C214.5 34.96 215.201 35.3683 216.164 35.4536C217.127 35.5389 218.223 35.4902 219.454 35.3074V39ZM205.689 22.7122V19.2572H219.454V22.7122H205.689ZM228.475 39.5484C227.049 39.5484 225.843 39.2803 224.856 38.7441C223.869 38.1957 223.119 37.4705 222.607 36.5687C222.108 35.6669 221.858 34.6736 221.858 33.589C221.858 32.6384 222.016 31.7853 222.333 31.0298C222.65 30.262 223.137 29.6039 223.795 29.0555C224.454 28.4949 225.307 28.0379 226.355 27.6844C227.147 27.4285 228.073 27.197 229.133 26.9898C230.206 26.7826 231.364 26.5937 232.607 26.4231C233.862 26.2403 235.172 26.0453 236.537 25.8381L234.965 26.7339C234.977 25.3689 234.672 24.3635 234.051 23.7176C233.429 23.0717 232.381 22.7487 230.907 22.7487C230.017 22.7487 229.158 22.9559 228.329 23.3703C227.5 23.7846 226.921 24.4976 226.592 25.5091L222.571 24.2477C223.058 22.5781 223.984 21.2376 225.349 20.2261C226.726 19.2145 228.579 18.7088 230.907 18.7088C232.661 18.7088 234.203 18.9952 235.531 19.568C236.872 20.1407 237.865 21.0791 238.511 22.3831C238.865 23.0778 239.078 23.7907 239.151 24.5219C239.224 25.241 239.261 26.027 239.261 26.8801V39H235.404V34.7224L236.043 35.417C235.154 36.8429 234.112 37.891 232.917 38.5613C231.735 39.2194 230.255 39.5484 228.475 39.5484ZM229.353 36.0386C230.352 36.0386 231.205 35.8619 231.912 35.5084C232.619 35.155 233.179 34.7224 233.594 34.2105C234.02 33.6987 234.307 33.2173 234.453 32.7664C234.685 32.2058 234.812 31.566 234.837 30.847C234.873 30.1157 234.892 29.5247 234.892 29.0738L236.244 29.4759C234.916 29.6831 233.777 29.8659 232.826 30.0243C231.875 30.1828 231.059 30.3351 230.376 30.4813C229.694 30.6154 229.091 30.7677 228.567 30.9384C228.055 31.1212 227.622 31.3344 227.269 31.5782C226.915 31.8219 226.641 32.1022 226.446 32.4191C226.263 32.7359 226.172 33.1076 226.172 33.5342C226.172 34.0216 226.294 34.4543 226.538 34.8321C226.781 35.1977 227.135 35.4902 227.598 35.7095C228.073 35.9289 228.658 36.0386 229.353 36.0386ZM243.64 39V12.1278H248.046V39H243.64Z" fill="#1F32E0"/>
<defs>
<clipPath id="clip0_226_3657">
<rect width="44.1776" height="44.1776" fill="white" transform="translate(0 2.91119)"/>
</clipPath>
</defs>
</svg>
