<svg width="48" height="25" viewBox="0 0 48 25" fill="none" xmlns="http://www.w3.org/2000/svg">
<path d="M32.0437 19.27C31.1257 19.27 30.3157 19.075 29.6137 18.685C28.9117 18.289 28.3627 17.74 27.9667 17.038C27.5767 16.336 27.3817 15.526 27.3817 14.608V10.432C27.3817 9.514 27.5767 8.704 27.9667 8.002C28.3627 7.3 28.9117 6.754 29.6137 6.364C30.3157 5.968 31.1257 5.77 32.0437 5.77C32.9617 5.77 33.7687 5.968 34.4647 6.364C35.1667 6.754 35.7157 7.3 36.1117 8.002C36.5077 8.704 36.7057 9.514 36.7057 10.432V14.608C36.7057 15.526 36.5077 16.336 36.1117 17.038C35.7157 17.74 35.1667 18.289 34.4647 18.685C33.7687 19.075 32.9617 19.27 32.0437 19.27ZM32.0437 17.209C32.4997 17.209 32.9137 17.101 33.2857 16.885C33.6577 16.663 33.9517 16.369 34.1677 16.003C34.3837 15.631 34.4917 15.217 34.4917 14.761V10.27C34.4917 9.808 34.3837 9.394 34.1677 9.028C33.9517 8.656 33.6577 8.362 33.2857 8.146C32.9137 7.924 32.4997 7.813 32.0437 7.813C31.5877 7.813 31.1737 7.924 30.8017 8.146C30.4297 8.362 30.1357 8.656 29.9197 9.028C29.7037 9.394 29.5957 9.808 29.5957 10.27V14.761C29.5957 15.217 29.7037 15.631 29.9197 16.003C30.1357 16.369 30.4297 16.663 30.8017 16.885C31.1737 17.101 31.5877 17.209 32.0437 17.209ZM42.3873 19.243C41.7393 19.243 41.1273 19.117 40.5513 18.865C39.9753 18.613 39.4743 18.256 39.0483 17.794C38.6283 17.332 38.3253 16.786 38.1393 16.156L40.2363 15.589C40.3863 16.105 40.6593 16.504 41.0553 16.786C41.4573 17.062 41.8983 17.197 42.3783 17.191C42.8043 17.191 43.1853 17.092 43.5213 16.894C43.8573 16.696 44.1213 16.429 44.3133 16.093C44.5053 15.751 44.6013 15.37 44.6013 14.95C44.6013 14.308 44.3943 13.771 43.9803 13.339C43.5663 12.907 43.0323 12.691 42.3783 12.691C42.1803 12.691 41.9853 12.718 41.7933 12.772C41.6073 12.826 41.4273 12.901 41.2533 12.997L40.2633 11.287L44.6193 7.561L44.8083 8.083H38.6433V6.04H46.5903V8.092L43.0893 11.458L43.0713 10.819C43.8573 10.873 44.5263 11.092 45.0783 11.476C45.6363 11.86 46.0623 12.355 46.3563 12.961C46.6563 13.567 46.8063 14.23 46.8063 14.95C46.8063 15.766 46.6053 16.498 46.2033 17.146C45.8073 17.794 45.2733 18.307 44.6013 18.685C43.9353 19.057 43.1973 19.243 42.3873 19.243Z" fill="#263238"/>
<circle cx="3.13043" cy="7.13055" r="3.13043" fill="#1FE0B3"/>
<circle cx="3.13043" cy="16.8697" r="3.13043" fill="#1FE0B3"/>
<circle cx="12.8687" cy="7.13055" r="3.13043" fill="#1FE0B3"/>
<circle cx="12.8687" cy="16.8697" r="3.13043" fill="#ECEEF4"/>
</svg>
