<svg width="85" height="85" viewBox="0 0 85 85" fill="none" xmlns="http://www.w3.org/2000/svg">
<path d="M56.0683 84.21L54.0249 82.8698L71.7518 55.8452C77.4567 47.1464 79.1898 36.3991 76.5062 26.3582C73.8181 16.3014 66.9745 7.8531 57.729 3.18074L58.8314 1C68.6969 5.98581 75.9995 14.9987 78.8668 25.7275C80.2668 30.9651 80.5682 36.3203 79.7639 41.6443C78.9241 47.1979 76.9163 52.4266 73.7952 57.1854L56.0683 84.21Z" fill="#1F32E0"/>
<path d="M5.72777 84.2681L4.05566 82.4866L50.396 38.9908C55.5388 34.1633 58.1633 27.368 57.5962 20.3465C57.0278 13.3052 53.3663 7.02045 47.5502 3.10402L48.9152 1.07715C55.3519 5.41128 59.4037 12.3629 60.0319 20.15C60.6588 27.9167 57.7564 35.4329 52.0681 40.7723L5.72777 84.2681Z" fill="#1F32E0"/>
<path d="M9.14506 32.6338H7.92309C5.45307 32.6338 3.44336 34.6435 3.44336 37.1135V56.6613H5.88731V37.1135C5.88731 35.9907 6.80029 35.0771 7.92309 35.0771H9.14506V36.2991C9.14506 38.3202 10.7892 39.9644 12.8104 39.9644H14.4392C16.4604 39.9644 18.1045 38.3202 18.1045 36.2991V32.6338H9.14506ZM11.5884 35.0771H15.6612V36.2991C15.6612 36.973 15.1132 37.5211 14.4392 37.5211H12.8104C12.1364 37.5211 11.5884 36.973 11.5884 36.2991V35.0771Z" fill="#1F32E0"/>
<path d="M34.1502 19.7651H31.7063C29.2363 19.7651 27.2266 21.7748 27.2266 24.2449V38.906H29.6699V24.2449C29.6699 23.1221 30.5835 22.2084 31.7063 22.2084H32.9283V23.4304C32.9283 25.4516 34.5724 27.0957 36.5936 27.0957H38.2224C40.2436 27.0957 41.8877 25.4516 41.8877 23.4304V19.7651H34.1502ZM39.4444 23.4304C39.4444 24.1037 38.8964 24.6518 38.2224 24.6518H36.5936C35.9196 24.6518 35.3716 24.1037 35.3716 23.4304V22.2084H39.4444V23.4304Z" fill="#1F32E0"/>
<path d="M84.2414 25.0593H81.7975V11.6201H78.9473V9.17676H84.2414V25.0593Z" fill="#1F32E0"/>
<path d="M49.7065 35.1593H47.2632V15.3667H54.1862V17.81H49.7065V35.1593Z" fill="#1F32E0"/>
<path d="M72.8711 48.4871L70.6064 47.569C70.9008 46.8436 71.1704 46.0997 71.4082 45.3584L73.7351 46.1042C73.4783 46.9034 73.1877 47.7051 72.8711 48.4871V48.4871ZM74.4173 43.6621L72.0408 43.0944C72.4629 41.3269 72.73 39.5105 72.8349 37.6953L75.2744 37.8358C75.1612 39.7947 74.8732 41.7554 74.4173 43.6621Z" fill="#1F32E0"/>
<path d="M57.6523 72.8863L55.6089 71.5461L56.9491 69.5033L58.9925 70.8435L57.6523 72.8863ZM60.3328 68.8001L58.2893 67.4599L63.1404 60.0645L65.1831 61.4047L60.3328 68.8001Z" fill="#1F32E0"/>
<path d="M16.0896 81.245L14.4175 79.4629L19.0237 75.1395L20.6958 76.921L16.0896 81.245ZM22.4773 75.2489L20.8052 73.4674L22.5873 71.7947L24.2594 73.5768L22.4773 75.2489ZM26.0409 71.9047L24.3688 70.1226L26.1502 68.4505L27.8223 70.2319L26.0409 71.9047ZM29.6038 68.5598L27.9317 66.7784L36.2458 58.9741L37.9186 60.7562L29.6038 68.5598Z" fill="#1F32E0"/>
<path d="M51.1135 48.3712L49.4414 46.5891L51.2229 44.917L52.8956 46.6984L51.1135 48.3712ZM54.6771 45.0263L53.005 43.2449L53.7406 42.5544C54.075 42.2403 54.4043 41.9154 54.7203 41.5886L56.477 43.2875C56.1337 43.6422 55.7757 43.9951 55.4133 44.3359L54.6771 45.0263ZM58.1688 41.3877L56.278 39.8402C58.2197 37.4681 59.7443 34.8176 60.8098 31.9629L63.0993 32.8174C61.939 35.9245 60.2802 38.8077 58.1688 41.3877Z" fill="#1F32E0"/>
<path d="M30.8073 84.3331L28.9482 82.7469L35.2934 75.3126L37.1524 76.8989L30.8073 84.3331ZM39.267 74.4206L37.4086 72.8344L43.7537 65.4002L45.6121 66.9864L39.267 74.4206ZM47.7274 64.5081L45.8683 62.9219L52.2135 55.487L54.0725 57.0733L47.7274 64.5081ZM56.1877 54.5957L54.3287 53.0094L59.8715 46.5149C60.1283 46.2141 60.3814 45.9058 60.6236 45.5974L62.5443 47.1074C62.2817 47.4412 62.0077 47.7756 61.7305 48.1011L56.1877 54.5957ZM64.493 44.3335L62.4197 43.0397C64.0835 40.3732 65.2807 37.474 65.9782 34.4223L68.3598 34.9665C67.6026 38.284 66.3011 41.4356 64.493 44.3335ZM68.9307 31.6229L66.5033 31.3451C66.6248 30.2795 66.6871 29.1936 66.6871 28.1172C66.6871 26.0763 66.4664 24.0266 66.0322 22.0258L68.4196 21.507C68.8913 23.6782 69.1304 25.9021 69.1304 28.1178C69.1304 29.2864 69.0636 30.4652 68.9307 31.6229V31.6229ZM65.205 19.0134C64.2132 16.0443 62.7579 13.2844 60.8785 10.8112L62.824 9.33301C64.8649 12.0198 66.4455 15.0163 67.5225 18.2391L65.205 19.0134Z" fill="#1FE0B3"/>
<path d="M1 55.4399H8.33057V74.1733H1V55.4399Z" fill="#1FE0B3"/>
<path d="M24.7837 37.6836H32.1143V51.5297H24.7837V37.6836Z" fill="#1FE0B3"/>
</svg>
