<svg width="30" height="30" viewBox="0 0 30 30" fill="none" xmlns="http://www.w3.org/2000/svg">
<path d="M11.2499 3.75H6.24998C5.55963 3.75 5 4.30963 5 4.99998V9.99994C5 10.6903 5.55963 11.2499 6.24998 11.2499H11.2499C11.9403 11.2499 12.4999 10.6903 12.4999 9.99994V4.99998C12.4999 4.30963 11.9403 3.75 11.2499 3.75ZM9.99996 8.74996H7.49995V6.24995H9.99996V8.74996Z" fill="#2D2F35"/>
<path d="M28.8729 3.72739C27.4713 1.41306 24.9597 0.0191775 21.2565 1.7428e-05C20.3694 -0.00455287 19.76 0.890581 20.0894 1.71423L22.5894 7.96423C22.7793 8.43878 23.2389 8.74997 23.7501 8.74997H25V19.9999C25 21.3821 23.8822 22.4999 22.5 22.4999C21.1179 22.4999 20 21.3821 20 19.9999V11.25C20 8.91877 18.4073 6.96181 16.2499 6.40728V1.24999C16.2499 0.559644 15.6903 1.7428e-05 14.9999 1.7428e-05H2.50001C1.80966 1.7428e-05 1.25003 0.559644 1.25003 1.24999V23.7499C0.559627 23.7499 0 24.3096 0 24.9999V28.7499C0 29.4403 0.559627 29.9999 1.24998 29.9999H16.2499C16.9403 29.9999 17.4999 29.4403 17.4999 28.7499V24.9999C17.4999 24.3096 16.9403 23.75 16.2499 23.75V9.08453C16.9974 9.51643 17.5 10.3236 17.5 11.25V19.9999C17.5 22.7628 19.7372 24.9999 22.5 24.9999C25.2628 24.9999 27.4999 22.7627 27.4999 19.9999V8.74997H28.7499C29.4402 8.74997 29.9999 8.19034 29.9999 7.49999C30 6.51081 29.7207 5.12724 28.8729 3.72739ZM14.9999 27.4999H2.50001V26.2499H14.9999V27.4999ZM3.74998 23.7499V2.50003H13.75V23.75H3.74998V23.7499ZM23.1686 2.68085C24.89 3.02626 26.0248 3.85067 26.7345 5.02248C26.9711 5.4133 27.1494 5.82802 27.2761 6.25001H24.5963L23.1686 2.68085Z" fill="#2D2F35"/>
<path d="M9.99998 13.75H7.49998C6.80963 13.75 6.25 14.3096 6.25 15C6.25 15.6903 6.80963 16.25 7.49998 16.25H9.99998C10.6903 16.25 11.25 15.6903 11.25 15C11.25 14.3096 10.6903 13.75 9.99998 13.75Z" fill="#2D2F35"/>
</svg>
