<svg width="85" height="85" viewBox="0 0 85 85" fill="none" xmlns="http://www.w3.org/2000/svg">
<path d="M32.174 36.3122C32.7259 34.9854 32.0984 33.462 30.7715 32.9101L21.6893 29.1304C20.3624 28.5785 18.8397 29.2067 18.2872 30.5336L16.5947 36.3072L29.271 41.5823L32.174 36.3122Z" fill="#1FE0B3"/>
<path d="M11.3469 50.0835L9.91829 53.5174C9.00785 55.7058 10.0435 58.2177 12.2319 59.1288L16.156 60.7615C18.3444 61.672 20.857 60.6363 21.7675 58.4485L23.1961 55.014L11.3469 50.0835Z" fill="#1FE0B3"/>
<path d="M27.2584 18.123C22.8816 16.3015 17.8577 18.3735 16.0361 22.7496C20.4129 24.5711 25.4375 22.4997 27.2584 18.123Z" fill="#1FE0B3"/>
<path d="M34.6549 21.2007C32.8341 25.5774 34.9055 30.6014 39.2822 32.4229C41.1031 28.0462 39.0317 23.0216 34.6549 21.2007Z" fill="#1FE0B3"/>
<path d="M17.6404 71.8371C16.6213 71.8371 15.5856 71.64 14.5874 71.2248L5.91464 67.6155C3.94815 66.7972 2.41845 65.2624 1.60655 63.2934C0.79465 61.3243 0.797829 59.1569 1.61609 57.1905L11.2057 34.1457L13.7768 24.9891L14.9047 22.2788C15.9111 19.8596 17.7994 17.9777 20.2217 16.9789C22.6441 15.98 25.3106 15.9845 27.7297 16.9909L35.1258 20.0688C37.545 21.0759 39.4276 22.9642 40.4258 25.3865C41.4246 27.8089 41.4201 30.4747 40.4137 32.8939L39.2864 35.6042L34.602 43.8815L25.0124 66.9263C23.7389 69.9876 20.766 71.8364 17.6404 71.8371V71.8371ZM16.098 25.7947L13.5269 34.9513L3.88076 58.1327C3.31364 59.4946 3.31173 60.995 3.87376 62.3588C4.4358 63.7219 5.49502 64.7849 6.85687 65.3514L15.5296 68.9608C16.8915 69.5273 18.3919 69.5298 19.7557 68.9671C21.1188 68.4051 22.1819 67.3459 22.7484 65.984L32.3951 42.8026L37.079 34.5253L38.1496 31.9523C38.905 30.1377 38.9081 28.1382 38.1585 26.3211C37.4096 24.5047 35.9981 23.0881 34.1836 22.3335L26.7875 19.2556C24.973 18.5003 22.9734 18.4971 21.157 19.2461C19.3399 19.995 17.924 21.4071 17.1687 23.221L16.098 25.7947Z" fill="#1F32E0"/>
<path d="M75.3352 36.3122C75.8877 34.9853 75.2595 33.462 73.9326 32.9101L64.8504 29.1304C63.5235 28.5785 62.0008 29.2067 61.4483 30.5336L59.7559 36.3071L72.4322 41.5823L75.3352 36.3122Z" fill="#1FE0B3"/>
<path d="M54.5097 50.0835L53.0804 53.5174C52.17 55.7058 53.2057 58.2178 55.394 59.1288L59.3187 60.7615C61.5071 61.672 64.0191 60.6363 64.9296 58.4485L66.3582 55.014L54.5097 50.0835Z" fill="#1FE0B3"/>
<path d="M70.4205 18.123C66.0437 16.3015 61.0198 18.3735 59.1982 22.7496C63.575 24.5711 68.5996 22.4997 70.4205 18.123Z" fill="#1FE0B3"/>
<path d="M77.8161 21.2007C75.9952 25.5774 78.0666 30.6014 82.4434 32.423C84.2649 28.0462 82.1929 23.0216 77.8161 21.2007Z" fill="#1FE0B3"/>
<path d="M60.8021 71.8371C59.7829 71.8371 58.7472 71.64 57.749 71.2248L49.0763 67.6161C47.1098 66.7978 45.5801 65.2624 44.7682 63.2934C43.9563 61.3243 43.9595 59.1569 44.7777 57.1905L54.3673 34.1457L56.9384 24.9891L58.0663 22.2788C59.0727 19.8602 60.961 17.9777 63.3834 16.9789C65.8057 15.98 68.4722 15.9845 70.8914 16.9909L78.2875 20.0688C80.7066 21.0759 82.5892 22.9642 83.5874 25.3865C84.5862 27.8089 84.5817 30.4753 83.5753 32.8945L82.448 35.6042L77.7636 43.8815L68.174 66.9263C66.9005 69.9876 63.9276 71.8364 60.8021 71.8371V71.8371ZM59.2596 25.7947L56.6885 34.9513L47.0424 58.1327C46.4759 59.4946 46.4733 60.995 47.0354 62.3588C47.5974 63.7219 48.6566 64.7849 50.0185 65.3514L58.6913 68.9608C60.0531 69.5273 61.5536 69.5298 62.9173 68.9671C64.2805 68.4051 65.3435 67.3459 65.91 65.984L75.5568 42.8026L80.2406 34.5253L81.3113 31.9523C82.0666 30.1377 82.0698 28.1382 81.3208 26.3211C80.5712 24.5047 79.1598 23.0881 77.3459 22.3335L69.9491 19.2556C68.1346 18.5003 66.135 18.4971 64.3186 19.2461C62.5015 19.995 61.0856 21.4071 60.3303 23.221L59.2596 25.7947Z" fill="#1F32E0"/>
<path d="M27.8963 83.759L25.6094 82.8734L26.4944 80.5865L28.7813 81.4721L27.8963 83.759ZM29.6663 79.1852L27.3794 78.2995L28.2651 76.0126L30.552 76.8983L29.6663 79.1852ZM31.4376 74.6113L29.1507 73.7257L53.7633 10.1477L56.0502 11.0333L31.4376 74.6113ZM56.9358 8.74642L54.6489 7.86077L55.5346 5.57385L57.8215 6.4595L56.9358 8.74642ZM58.7065 4.17194L56.4196 3.28692L57.3052 1L59.5921 1.88501L58.7065 4.17194Z" fill="#1F32E0"/>
<path d="M6.38267 59.9897L9.5527 61.309L8.60982 63.5731L5.44043 62.2538L6.38267 59.9897Z" fill="#1F32E0"/>
<path d="M16.6449 64.2666L19.8149 65.5859L18.8727 67.8505L15.7026 66.5313L16.6449 64.2666Z" fill="#1F32E0"/>
<path d="M49.5423 59.9897L52.7117 61.3084L51.7695 63.5731L48.6001 62.2538L49.5423 59.9897Z" fill="#1F32E0"/>
<path d="M59.8084 64.2676L62.9785 65.5868L62.0362 67.8515L58.8662 66.5322L59.8084 64.2676Z" fill="#1F32E0"/>
</svg>
