<svg width="40" height="40" viewBox="0 0 40 40" fill="none" xmlns="http://www.w3.org/2000/svg">
<path d="M28.5128 21.9748V16.7574L31.3806 19.6251C31.869 20.1135 32.6609 20.1135 33.1493 19.6251C33.6378 19.1367 33.6378 18.3447 33.1493 17.8563L28.5128 13.2198V12.7823C28.5128 10.7485 28.0394 8.7422 27.1299 6.92464C26.9926 6.6502 26.7592 6.43586 26.4742 6.32236L26.3328 6.26608C22.1129 4.57785 17.4027 4.57785 13.181 6.26684L13.0416 6.32242C12.7565 6.43592 12.5231 6.65032 12.3858 6.92469C11.4763 8.74226 11.0029 10.7486 11.0029 12.7824V13.2198L6.36632 17.8564C5.87789 18.3448 5.87789 19.1367 6.36632 19.6252C6.85474 20.1136 7.64668 20.1136 8.1351 19.6252L11.0029 16.7574V21.9749L6.36632 26.6114C5.87789 27.0998 5.87789 27.8918 6.36632 28.3802C6.85474 28.8686 7.64668 28.8686 8.1351 28.3802L11.0029 25.5124V32.4987C11.0029 33.8798 12.1232 35.0001 13.5043 35.0001H26.0114C27.3926 35.0001 28.5129 33.8798 28.5129 32.4987V25.5124L31.3806 28.3801C31.869 28.8686 32.661 28.8686 33.1494 28.3801C33.6378 27.8917 33.6378 27.0998 33.1494 26.6114L28.5128 21.9748ZM26.0114 32.4986H13.5042V12.7824C13.5042 11.2938 13.8177 9.82363 14.422 8.46852C17.8632 7.17925 21.6541 7.17943 25.0936 8.46847C25.6979 9.82358 26.0114 11.2938 26.0114 12.7824V32.4986Z" fill="#2D2F35"/>
<path d="M16.0432 17.7937C16.2373 18.5701 17.1005 18.967 17.8162 18.6088C19.0385 17.9971 20.4774 17.9971 21.6997 18.6088C22.4154 18.967 23.2786 18.5701 23.4728 17.7937L24.7234 12.7908C24.8819 12.1569 24.5257 11.5078 23.9058 11.301L21.9222 10.6394C20.5171 10.171 18.9989 10.171 17.594 10.6393L15.6101 11.301C14.9902 11.5078 14.6339 12.1569 14.7925 12.7908L16.0432 17.7937ZM18.3852 13.0123C19.2764 12.7152 20.2396 12.7152 21.1309 13.0123L22.0159 13.3074L21.3817 15.844C20.3152 15.5834 19.2006 15.5834 18.1342 15.844L17.5 13.3074L18.3852 13.0123Z" fill="#2D2F35"/>
<path d="M22.2592 22.4927H17.2563C15.8752 22.4927 14.7549 23.613 14.7549 24.9941V28.7463C14.7549 29.5999 15.5913 30.2027 16.4011 29.9328C18.5795 29.2067 20.936 29.2067 23.1144 29.9328C23.9243 30.2028 24.7607 29.6 24.7607 28.7463V24.9941C24.7606 23.6129 23.6403 22.4927 22.2592 22.4927ZM22.2592 27.1274C20.6072 26.8065 18.9083 26.8065 17.2563 27.1274V24.9941H22.2592V27.1274Z" fill="#2D2F35"/>
</svg>
