<svg width="99" height="99" viewBox="0 0 99 99" fill="none" xmlns="http://www.w3.org/2000/svg">
<g clip-path="url(#clip0_158_35777)">
<path d="M90.9134 83.4048H7.86104C4.89328 83.4048 2.4873 80.9989 2.4873 78.0311V23.0759C2.4873 20.1079 4.89328 17.7021 7.86104 17.7021H90.9134C93.8811 17.7021 96.2871 20.1081 96.2871 23.0759V78.0311C96.2871 80.9989 93.8811 83.4048 90.9134 83.4048Z" fill="#D49C8D"/>
<path d="M87.5858 74.4958H11.1889C10.94 74.4958 10.7383 74.2941 10.7383 74.0452V27.0609C10.7383 26.8121 10.94 26.6104 11.1889 26.6104H87.5858C87.8346 26.6104 88.0363 26.8121 88.0363 27.0609V74.0454C88.0363 74.294 87.8346 74.4958 87.5858 74.4958Z" fill="#8BB6EF"/>
<path d="M74.8525 67.0505H23.922C23.922 63.9663 21.4218 61.4662 18.3379 61.4662V39.6399C21.422 39.6399 23.922 37.1398 23.922 34.0557H74.8525C74.8525 37.1398 77.3527 39.6399 80.4368 39.6399V61.4662C77.3527 61.4662 74.8525 63.9663 74.8525 67.0505Z" fill="#FEF2A8"/>
<path d="M90.9134 17.7021H76.3406C78.6877 17.7021 80.5904 19.6049 80.5904 21.9519V62.8013C80.5904 65.1483 78.6877 67.0509 76.3406 67.0509H6.7371C4.39007 67.0509 2.4873 65.1483 2.4873 62.8013V78.0313C2.4873 80.9993 4.89328 83.4052 7.86104 83.4052H90.9134C93.8811 83.4052 96.2871 80.9993 96.2871 78.0313V23.0759C96.2871 20.1079 93.8811 17.7021 90.9134 17.7021Z" fill="#C7758D"/>
<path d="M87.5858 26.6104H80.5904V62.8007C80.5904 65.1477 78.6879 67.0505 76.3407 67.0505H10.7383V74.0454C10.7383 74.2942 10.94 74.496 11.1889 74.496H87.5858C87.8346 74.496 88.0363 74.2942 88.0363 74.0454V27.0609C88.0363 26.8123 87.8346 26.6104 87.5858 26.6104Z" fill="#8388EF"/>
<path d="M81.5707 95.8532L75.3027 93.4298L69.0347 95.8532C66.6086 96.7911 63.9971 95.0008 63.9971 92.3998V67.9297H86.6083V92.3998C86.6083 95.0008 83.9967 96.7911 81.5707 95.8532Z" fill="#EF8BBD"/>
<path d="M92.1786 66.6315C92.1786 68.3173 89.4727 69.5545 88.9789 71.0754C88.467 72.6518 89.911 75.2398 88.9561 76.5519C87.9916 77.8772 85.0776 77.2986 83.7523 78.2631C82.4402 79.218 82.0953 82.1732 80.5191 82.6852C78.9982 83.179 76.9888 81.0069 75.3033 81.0069C73.6175 81.0069 71.6084 83.179 70.0872 82.6852C68.5108 82.1733 68.1661 79.218 66.854 78.2631C65.5287 77.2986 62.6147 77.8772 61.6502 76.5519C60.6953 75.2398 62.1395 72.6518 61.6275 71.0754C61.1336 69.5545 58.4277 68.3173 58.4277 66.6315C58.4277 64.9458 61.1336 63.7086 61.6275 62.1877C62.1393 60.6112 60.6953 58.0232 61.6502 56.7112C62.6147 55.3859 65.5287 55.9645 66.854 55C68.1661 54.0451 68.511 51.0899 70.0872 50.5779C71.6082 50.0841 73.6175 52.2562 75.3031 52.2562C76.9888 52.2562 78.9982 50.0841 80.5191 50.5781C82.0955 51.0899 82.4402 54.0452 83.7523 55.0002C85.0776 55.9647 87.9916 55.386 88.9561 56.7113C89.911 58.0234 88.467 60.6114 88.9789 62.1879C89.4727 63.7088 92.1786 64.946 92.1786 66.6315Z" fill="#FFE266"/>
<path d="M90.913 15.7891H7.86086C3.84305 15.7891 0.574219 19.0579 0.574219 23.0757V78.0309C0.574219 82.0487 3.84305 85.3176 7.86086 85.3176H62.0843V92.4C62.0843 94.2526 62.9966 95.9841 64.5248 97.0316C65.4734 97.6818 66.5816 98.0157 67.6996 98.0157C68.3826 98.0157 69.0693 97.8911 69.7247 97.6376L75.303 95.4809L80.8812 97.6376C82.609 98.3055 84.5529 98.0794 86.0811 97.0318C87.6091 95.9843 88.5216 94.253 88.5216 92.4002V85.3176H90.9136C94.9314 85.3176 98.2002 82.0487 98.2002 78.0309V23.0757C98.1996 19.0579 94.9308 15.7891 90.913 15.7891ZM90.3256 76.2694C90.5587 75.3509 90.3759 74.3322 90.2078 73.4037C90.0771 72.6817 89.9288 71.8636 90.0698 71.4293C90.1977 71.0352 90.7792 70.4832 91.2922 69.9963C92.2454 69.0913 93.3257 68.0658 93.3257 66.6312C93.3257 65.1966 92.2454 64.171 91.2924 63.266C90.7794 62.7791 90.1979 62.2271 90.07 61.8328C89.929 61.3985 90.0773 60.5804 90.208 59.8584C90.4375 58.5909 90.6978 57.1541 89.8838 56.0355C89.6842 55.7612 89.4468 55.543 89.1838 55.3659V27.061C89.1838 26.9247 89.1649 26.793 89.1325 26.6665L94.0471 21.6168C94.2547 22.0609 94.374 22.5541 94.374 23.0757V78.0309C94.374 78.4999 94.2793 78.947 94.1095 79.3555L90.3256 76.2694ZM64.5874 76.448C63.8005 76.3424 62.8212 76.2109 62.5774 75.8759C62.3408 75.5509 62.5156 74.5872 62.6559 73.8127C62.8436 72.7763 63.0379 71.7044 62.7185 70.7204C62.4105 69.7719 61.6393 69.0396 60.8934 68.3316C60.306 67.7739 59.5748 67.0798 59.5748 66.6312C59.5748 66.1823 60.3058 65.4883 60.8934 64.9305C61.6393 64.2223 62.4105 63.4902 62.7185 62.5416C63.0379 61.5577 62.8438 60.4857 62.6561 59.4492C62.5158 58.6748 62.3412 57.7109 62.5776 57.386C62.8214 57.0511 63.8007 56.9198 64.5875 56.8141C65.6263 56.6746 66.7005 56.5305 67.5287 55.9275C68.3473 55.3317 68.8109 54.3616 69.2594 53.4234C69.6049 52.7006 70.0348 51.8012 70.4411 51.6693C70.8056 51.552 71.6918 52.0282 72.3389 52.3764C73.2776 52.8815 74.2482 53.4036 75.3027 53.4036C76.3571 53.4036 77.3277 52.8815 78.2664 52.3764C78.9137 52.028 79.8003 51.5508 80.1642 51.6693C80.5705 51.8014 81.0004 52.7008 81.3459 53.4234C81.7944 54.3616 82.258 55.3319 83.0768 55.9277C83.905 56.5305 84.9792 56.6746 86.018 56.8141C86.8048 56.9198 87.7843 57.0513 88.0279 57.3862C88.2645 57.7112 88.0897 58.675 87.9494 59.4494C87.7617 60.4859 87.5676 61.5579 87.887 62.5418C88.195 63.4904 88.9662 64.2225 89.7121 64.9307C90.2995 65.4885 91.0305 66.1825 91.0305 66.6312C91.0305 67.0798 90.2995 67.7739 89.7119 68.3316C88.966 69.0396 88.1948 69.7719 87.8869 70.7206C87.5674 71.7044 87.7615 72.7764 87.9492 73.8129C88.0895 74.5873 88.2641 75.5513 88.0275 75.8763C87.7839 76.2112 86.8046 76.3427 86.0178 76.4484C84.979 76.5879 83.905 76.7321 83.0766 77.3348C82.258 77.9306 81.7942 78.9009 81.3457 79.8391C81.0002 80.5617 80.5705 81.4611 80.1642 81.5932C79.7999 81.7119 78.9135 81.2343 78.2662 80.8861C77.3275 80.3812 76.3571 79.8589 75.3027 79.8589C74.2482 79.8589 73.2778 80.381 72.3391 80.8861C71.6918 81.2345 70.8048 81.7119 70.4411 81.5932C70.0348 81.4611 69.6049 80.5617 69.2594 79.8391C68.8109 78.9009 68.3473 77.9306 67.5285 77.3348C66.7003 76.7317 65.6263 76.5875 64.5874 76.448ZM4.6349 79.2753C4.48522 78.8884 4.39966 78.4698 4.39966 78.0307V23.0757C4.39966 22.6351 4.48561 22.215 4.63643 21.8268L9.63348 26.6975C9.6061 26.8144 9.59022 26.9358 9.59022 27.061V73.614L4.6349 79.2753ZM11.8856 27.7583H86.8883V54.6185C86.698 54.5898 86.5087 54.564 86.3231 54.5391C85.6026 54.4422 84.7859 54.3327 84.4272 54.0717C84.0782 53.8177 83.7268 53.0823 83.4167 52.4334C82.9643 51.4863 82.4622 50.4386 81.584 49.8377V39.6402C81.584 39.0065 81.0701 38.4925 80.4364 38.4925C77.99 38.4925 75.9998 36.5023 75.9998 34.0561C75.9998 33.4224 75.4858 32.9084 74.8521 32.9084H23.9216C23.2878 32.9084 22.7739 33.4224 22.7739 34.0561C22.7739 36.5025 20.7837 38.4925 18.3375 38.4925C17.7037 38.4925 17.1898 39.0065 17.1898 39.6402V61.4664C17.1898 62.1002 17.7037 62.6141 18.3375 62.6141C20.7838 62.6141 22.7739 64.6044 22.7739 67.0507C22.7739 67.6845 23.2878 68.1984 23.9216 68.1984H57.7367C58.1396 68.8798 58.7477 69.4596 59.3128 69.9963C59.8257 70.4832 60.407 71.0352 60.5351 71.4293C60.6725 71.8527 60.5351 72.6404 60.407 73.3486H11.8856V27.7583ZM60.3973 59.8583C60.528 60.58 60.6762 61.3983 60.5353 61.8328C60.4074 62.2269 59.8259 62.7789 59.3128 63.2659C58.5292 64.0098 57.6611 64.8358 57.3765 65.9031H24.9714C24.4897 63.1089 22.2791 60.8987 19.4852 60.4166V40.6901C22.2791 40.2081 24.4895 37.9975 24.9714 35.2038H73.8022C74.2842 37.9977 76.4943 40.2083 79.2887 40.6901V49.448C78.5508 49.6182 77.8388 49.9995 77.1786 50.3547C76.5225 50.7079 75.7787 51.1079 75.3027 51.1079C74.8266 51.1079 74.0828 50.7077 73.4267 50.3547C72.3029 49.7501 71.0291 49.0649 69.7324 49.4859C68.3887 49.9222 67.7511 51.2563 67.1886 52.4334C66.8785 53.0821 66.5271 53.8177 66.1781 54.0715C65.8194 54.3325 65.0027 54.4422 64.2823 54.5389C62.9983 54.7113 61.5432 54.9066 60.7217 56.0351C59.9075 57.1541 60.1678 58.5906 60.3973 59.8583ZM90.913 19.6147C91.4621 19.6147 91.9799 19.7466 92.4416 19.9753L87.1007 25.4627H11.6551L6.1338 20.0808C6.64275 19.786 7.23152 19.6145 7.86086 19.6145H90.913V19.6147ZM7.86086 81.4919C7.23688 81.4919 6.65251 81.3235 6.14663 81.0335L10.8897 75.6148C10.9865 75.6334 11.0862 75.6439 11.1887 75.6439H60.1802C60.2206 76.2045 60.3713 76.7453 60.7219 77.2268C61.0785 77.7168 61.5547 78.0306 62.0843 78.2432V81.4921H7.86086V81.4919ZM83.9177 93.8759C83.4231 94.2147 82.819 94.285 82.2605 94.0691H82.2603L75.9923 91.6459C75.5484 91.4742 75.0567 91.4742 74.6128 91.6459L68.3447 94.0692C67.7856 94.2853 67.1817 94.2149 66.6875 93.8761C66.1933 93.5373 65.9098 92.9993 65.9098 92.4V79.053C66.0131 79.0942 66.1065 79.1386 66.1779 79.1907C66.5269 79.4445 66.8785 80.1799 67.1886 80.8287C67.7511 82.0059 68.3887 83.34 69.7324 83.7762C71.0295 84.1969 72.3029 83.5119 73.4267 82.9074C74.0828 82.5542 74.8266 82.1542 75.3027 82.1542C75.7787 82.1542 76.5223 82.5542 77.1784 82.9074C78.0604 83.3821 79.0349 83.9063 80.0403 83.9063C80.316 83.9063 80.5939 83.8669 80.873 83.7764C82.2164 83.3402 82.8542 82.0061 83.4167 80.8289C83.7268 80.1802 84.0782 79.4447 84.4272 79.1909C84.4986 79.139 84.5922 79.0944 84.6953 79.0532V92.4C84.6953 92.9991 84.4119 93.5373 83.9177 93.8759ZM88.521 81.4919V78.2432C88.6504 78.1911 88.7759 78.1322 88.8979 78.0671L92.5744 81.0657C92.0809 81.3371 91.5148 81.4921 90.9128 81.4921H88.521V81.4919Z" fill="#5F2A5D"/>
<path d="M75.3024 76.8811C80.954 76.8811 85.552 72.2831 85.552 66.6314C85.552 60.9798 80.954 56.3818 75.3024 56.3818C69.6507 56.3818 65.0527 60.9798 65.0527 66.6314C65.0525 72.2831 69.6505 76.8811 75.3024 76.8811ZM75.3024 58.6772C79.6882 58.6772 83.2566 62.2454 83.2566 66.6314C83.2566 71.0173 79.6884 74.5855 75.3024 74.5855C70.9163 74.5855 67.3481 71.0173 67.3481 66.6314C67.3481 62.2454 70.9163 58.6772 75.3024 58.6772Z" fill="#5F2A5D"/>
<path d="M66.2183 44.9871C66.2183 43.9308 65.3619 43.0742 64.3055 43.0742H34.4674C33.411 43.0742 32.5547 43.9306 32.5547 44.9871C32.5547 46.0435 33.411 46.8999 34.4674 46.8999H64.3053C65.3619 46.9 66.2183 46.0437 66.2183 44.9871Z" fill="#5F2A5D"/>
<path d="M44.3394 56.5928H34.4674C33.411 56.5928 32.5547 57.4491 32.5547 58.5057C32.5547 59.5621 33.411 60.4184 34.4674 60.4184H44.3394C45.3958 60.4184 46.2523 59.5621 46.2523 58.5057C46.2523 57.4491 45.3959 56.5928 44.3394 56.5928Z" fill="#5F2A5D"/>
<path d="M73.9491 64.5503C73.2763 64.5503 72.6238 64.1947 72.2745 63.5648C71.7887 62.6885 72.0636 61.5965 72.8811 61.0489C73.154 60.8351 73.5129 60.6918 73.8572 60.6577C74.8131 60.499 75.759 61.0842 76.0201 62.0391C76.2894 63.0244 75.743 64.0391 74.7852 64.3568C74.5166 64.4877 74.2311 64.5503 73.9491 64.5503Z" fill="white"/>
<path d="M71.8819 71.0455C71.2922 71.0455 70.7105 70.7738 70.336 70.2614C69.6038 69.2597 69.2913 68.3448 69.2566 67.1035C69.2271 66.0475 70.0592 65.1677 71.1154 65.1382C72.1744 65.1148 73.0514 65.9409 73.0807 66.9969C73.0937 67.4661 73.1485 67.6261 73.4247 68.0039C74.0481 68.8568 73.8619 70.0535 73.0089 70.6771C72.6688 70.9257 72.2736 71.0455 71.8819 71.0455Z" fill="white"/>
<path d="M59.7282 8.01744C59.7282 9.97668 58.14 11.5652 56.1805 11.5652C54.2211 11.5652 52.6328 9.97687 52.6328 8.01744C52.6328 6.05802 54.2211 4.46973 56.1805 4.46973C58.14 4.46973 59.7282 6.05821 59.7282 8.01744Z" fill="#FFE266"/>
<path d="M89.5379 9.51993C89.5379 10.3497 88.8653 11.0223 88.0355 11.0223C87.2058 11.0223 86.5332 10.3497 86.5332 9.51993C86.5332 8.69018 87.2058 8.01758 88.0355 8.01758C88.8653 8.01739 89.5379 8.68999 89.5379 9.51993Z" fill="#FFE266"/>
<path d="M6.37277 0.374655L7.57806 3.7635C7.62955 3.90859 7.73176 4.02362 7.86076 4.08162L10.8716 5.43812C11.2969 5.62971 11.2969 6.30748 10.8716 6.49908L7.86076 7.85558C7.73176 7.91357 7.62974 8.02861 7.57806 8.17369L6.37277 11.5625C6.20242 12.0412 5.60026 12.0412 5.4301 11.5625L4.22481 8.17369C4.17332 8.02861 4.07111 7.91357 3.9421 7.85558L0.931283 6.49908C0.505979 6.30748 0.505979 5.62971 0.931283 5.43812L3.9421 4.08162C4.07111 4.02343 4.17313 3.90859 4.22481 3.7635L5.4301 0.374655C5.60026 -0.104052 6.20242 -0.104052 6.37277 0.374655Z" fill="#FEF2A8"/>
<path d="M75.8591 0.374655L77.0644 3.7635C77.1161 3.90859 77.2181 4.02362 77.3471 4.08162L80.3579 5.43812C80.7832 5.62971 80.7832 6.30748 80.3579 6.49908L77.3471 7.85558C77.2181 7.91357 77.1161 8.02861 77.0644 8.17369L75.8591 11.5625C75.6888 12.0412 75.0868 12.0412 74.9164 11.5625L73.7111 8.17369C73.6595 8.02861 73.5574 7.91357 73.4284 7.85558L70.4176 6.49908C69.9923 6.30748 69.9923 5.62971 70.4176 5.43812L73.4284 4.08162C73.5574 4.02343 73.6595 3.90859 73.7111 3.7635L74.9164 0.374655C75.0866 -0.104052 75.6888 -0.104052 75.8591 0.374655Z" fill="#FEF2A8"/>
</g>
<defs>
<clipPath id="clip0_158_35777">
<rect width="98" height="98" fill="white" transform="translate(0.386719 0.015625)"/>
</clipPath>
</defs>
</svg>
