<svg width="32" height="33" viewBox="0 0 32 33" fill="none" xmlns="http://www.w3.org/2000/svg">
<g clip-path="url(#clip0_75_1218)">
<path d="M25 0.719727H7C3.134 0.719727 0 3.85373 0 7.71973V25.7197C0 29.5857 3.134 32.7197 7 32.7197H25C28.866 32.7197 32 29.5857 32 25.7197V7.71973C32 3.85373 28.866 0.719727 25 0.719727Z" fill="#C8414B"/>
<path d="M32 7.38403H0V26.0553H32V7.38403Z" fill="#FFD250"/>
<path d="M13.9431 16.7455L14.4591 14.6415C14.5066 14.4477 14.3439 14.2639 14.1249 14.2639H13.7614C13.5424 14.2639 13.3797 14.4477 13.4273 14.6415L13.9431 16.7455Z" fill="#C8414B"/>
<path d="M14.5515 15.6423H13.3345V20.3298H14.5515V15.6423Z" fill="#F5F5F5"/>
<path d="M14.8564 15.0911H13.0308V15.6425H14.8564V15.0911Z" fill="#FAB446"/>
<path d="M14.8556 16.7454H11.813V17.2968H14.8556V16.7454Z" fill="#C8414B"/>
<path d="M14.8558 18.9513L13.0303 18.3998V17.8484L14.8558 18.3998V18.9513Z" fill="#C8414B"/>
<path d="M4.8152 16.7455L5.33113 14.6415C5.37863 14.4477 5.21595 14.2639 4.99695 14.2639H4.63351C4.41451 14.2639 4.25176 14.4477 4.29932 14.6415L4.8152 16.7455Z" fill="#C8414B"/>
<path d="M6.94541 15.0911C6.60935 15.0911 6.33691 15.3379 6.33691 15.6426V19.2271C6.33691 19.8972 7.02698 21.1573 9.37954 21.1573C11.7321 21.1573 12.4222 19.8971 12.4222 19.2271V15.6426C12.4222 15.338 12.1497 15.0911 11.8137 15.0911H6.94541Z" fill="#F5F5F5"/>
<path d="M9.37954 17.8484H6.33691V15.6704C6.33691 15.3504 6.59629 15.0911 6.91623 15.0911H9.37954V17.8484Z" fill="#C8414B"/>
<path d="M9.37939 17.8484H12.422V19.1575C12.422 19.9573 11.7736 20.6058 10.9738 20.6058H10.8276C10.0278 20.6058 9.37939 19.9574 9.37939 19.1575V17.8484Z" fill="#C8414B"/>
<path d="M6.33691 17.8484H9.37954V19.1575C9.37954 19.9573 8.73116 20.6058 7.93129 20.6058H7.78516C6.98535 20.6058 6.33691 19.9574 6.33691 19.1575C6.33691 19.1575 6.33691 17.8484 6.33691 17.8484Z" fill="#FAB446"/>
<path d="M8.7711 20.3238V17.8484H8.1626V20.578C8.38885 20.5363 8.59341 20.4455 8.7711 20.3238Z" fill="#C8414B"/>
<path d="M7.55381 20.578V17.8484H6.94531V20.3238C7.123 20.4455 7.3275 20.5363 7.55381 20.578Z" fill="#C8414B"/>
<path d="M8.77045 16.7454H6.94482V17.2968H8.77045V16.7454Z" fill="#FFB441"/>
<path d="M8.77045 15.6423H6.94482V16.1938H8.77045V15.6423Z" fill="#FAB446"/>
<path d="M8.46609 15.9705H7.24902V16.9695H8.46609V15.9705Z" fill="#FAB446"/>
<path d="M5.42409 15.6423H4.20703V20.3298H5.42409V15.6423Z" fill="#F5F5F5"/>
<path d="M5.72797 20.0542H3.90234V20.6056H5.72797V20.0542Z" fill="#FAB446"/>
<path d="M5.72797 15.0911H3.90234V15.6425H5.72797V15.0911Z" fill="#FAB446"/>
<path d="M6.03221 20.606H3.59814V21.1574H6.03221V20.606Z" fill="#5064AA"/>
<path d="M15.1601 20.0542H13.3345V20.6056H15.1601V20.0542Z" fill="#FAB446"/>
<path d="M15.1601 20.606H12.7261V21.1574H15.1601V20.606Z" fill="#5064AA"/>
<path d="M11.205 14.5398H7.55371V15.0912H11.205V14.5398Z" fill="#FAB446"/>
<path d="M9.6837 12.8853H9.0752V14.5397H9.6837V12.8853Z" fill="#FFB441"/>
<path d="M8.77115 13.7122C8.26784 13.7122 7.8584 13.3412 7.8584 12.885C7.8584 12.4289 8.26784 12.0579 8.77115 12.0579C9.27446 12.0579 9.6839 12.4289 9.6839 12.885C9.6839 13.3412 9.27446 13.7122 8.77115 13.7122ZM8.77115 12.6093C8.60327 12.6093 8.4669 12.7329 8.4669 12.885C8.4669 13.0372 8.60327 13.1608 8.77115 13.1608C8.93902 13.1608 9.0754 13.0372 9.0754 12.885C9.0754 12.7329 8.93902 12.6093 8.77115 12.6093Z" fill="#F5F5F5"/>
<path d="M9.98794 13.7122C9.48463 13.7122 9.0752 13.3412 9.0752 12.885C9.0752 12.4289 9.48463 12.0579 9.98794 12.0579C10.4913 12.0579 10.9007 12.4289 10.9007 12.885C10.9007 13.3412 10.4913 13.7122 9.98794 13.7122ZM9.98794 12.6093C9.82007 12.6093 9.68369 12.7329 9.68369 12.885C9.68369 13.0372 9.82007 13.1608 9.98794 13.1608C10.1558 13.1608 10.2922 13.0372 10.2922 12.885C10.2922 12.7329 10.1558 12.6093 9.98794 12.6093Z" fill="#F5F5F5"/>
<path d="M11.2052 14.2638C10.7019 14.2638 10.2925 13.8927 10.2925 13.4366C10.2925 12.9804 10.7019 12.6094 11.2052 12.6094C11.7085 12.6094 12.118 12.9804 12.118 13.4366C12.118 13.8927 11.7085 14.2638 11.2052 14.2638ZM11.2052 13.1608C11.0374 13.1608 10.901 13.2844 10.901 13.4366C10.901 13.5887 11.0374 13.7123 11.2052 13.7123C11.3731 13.7123 11.5095 13.5887 11.5095 13.4366C11.5095 13.2844 11.3731 13.1608 11.2052 13.1608Z" fill="#F5F5F5"/>
<path d="M7.55386 14.2638C7.05055 14.2638 6.64111 13.8927 6.64111 13.4366C6.64111 12.9804 7.05055 12.6094 7.55386 12.6094C8.05718 12.6094 8.46661 12.9804 8.46661 13.4366C8.46661 13.8927 8.05718 14.2638 7.55386 14.2638ZM7.55386 13.1608C7.38599 13.1608 7.24961 13.2844 7.24961 13.4366C7.24961 13.5887 7.38599 13.7123 7.55386 13.7123C7.72174 13.7123 7.85811 13.5887 7.85811 13.4366C7.85811 13.2844 7.72174 13.1608 7.55386 13.1608Z" fill="#F5F5F5"/>
<path d="M11.2049 18.9514V19.2272C11.2049 19.3792 11.0684 19.5029 10.9006 19.5029C10.7329 19.5029 10.5964 19.3792 10.5964 19.2272V18.9514H11.2049ZM11.8134 18.3999H9.98779V19.2271C9.98779 19.6832 10.3973 20.0543 10.9005 20.0543C11.4039 20.0543 11.8134 19.6832 11.8134 19.2271V18.3999V18.3999Z" fill="#FAB446"/>
<path d="M10.9297 17.297H10.8713C10.5514 17.297 10.292 17.0376 10.292 16.7177V16.2219C10.292 15.902 10.5514 15.6426 10.8713 15.6426H10.9297C11.2497 15.6426 11.5091 15.902 11.5091 16.2219V16.7177C11.5091 17.0377 11.2497 17.297 10.9297 17.297Z" fill="#FFA0D2"/>
<path d="M9.37955 18.6756C9.88365 18.6756 10.2923 18.3053 10.2923 17.8484C10.2923 17.3916 9.88365 17.0212 9.37955 17.0212C8.87545 17.0212 8.4668 17.3916 8.4668 17.8484C8.4668 18.3053 8.87545 18.6756 9.37955 18.6756Z" fill="#5064AA"/>
<path d="M9.6837 11.7822H9.0752V13.4367H9.6837V11.7822Z" fill="#FAB446"/>
<path d="M7.55381 14.5397L6.94531 13.9882L7.30175 13.6651C7.85275 13.1658 8.60012 12.8853 9.37937 12.8853C10.1586 12.8853 10.906 13.1658 11.457 13.6651L11.8134 13.9882L11.2049 14.5397H7.55381Z" fill="#C8414B"/>
<path d="M9.37945 14.2637C9.54748 14.2637 9.6837 14.1402 9.6837 13.9879C9.6837 13.8356 9.54748 13.7122 9.37945 13.7122C9.21141 13.7122 9.0752 13.8356 9.0752 13.9879C9.0752 14.1402 9.21141 14.2637 9.37945 14.2637Z" fill="#FFD250"/>
<path d="M8.16265 14.2637C8.33068 14.2637 8.4669 14.1402 8.4669 13.9879C8.4669 13.8356 8.33068 13.7122 8.16265 13.7122C7.99462 13.7122 7.8584 13.8356 7.8584 13.9879C7.8584 14.1402 7.99462 14.2637 8.16265 14.2637Z" fill="#FFD250"/>
<path d="M10.5962 14.2637C10.7643 14.2637 10.9005 14.1402 10.9005 13.9879C10.9005 13.8356 10.7643 13.7122 10.5962 13.7122C10.4282 13.7122 10.292 13.8356 10.292 13.9879C10.292 14.1402 10.4282 14.2637 10.5962 14.2637Z" fill="#FFD250"/>
<path d="M6.94491 16.7454H3.90234V17.2968H6.94491V16.7454Z" fill="#C8414B"/>
<path d="M3.90234 18.9513L5.72791 18.3998V17.8484L3.90234 18.3998V18.9513Z" fill="#C8414B"/>
</g>
<defs>
<clipPath id="clip0_75_1218">
<rect width="32" height="32" fill="white" transform="translate(0 0.719727)"/>
</clipPath>
</defs>
</svg>
