<svg width="99" height="99" viewBox="0 0 99 99" fill="none" xmlns="http://www.w3.org/2000/svg">
<g clip-path="url(#clip0_158_35776)">
<path d="M69.0595 48.8372C67.5101 47.2877 67.5101 44.7755 69.0595 43.2261L89.3597 22.9257C90.9091 21.3763 93.4213 21.3763 94.9708 22.9257C96.5202 24.4752 96.5202 26.9874 94.9708 28.5368L74.6704 48.8372C73.1212 50.3866 70.609 50.3866 69.0595 48.8372Z" fill="#FFE266"/>
<path d="M24.0046 72.6653C19.6926 68.3533 19.6924 61.362 24.0046 57.05L74.4822 6.57196C78.7942 2.25996 85.7855 2.25977 90.0975 6.57196C94.4097 10.884 94.4097 17.8753 90.0975 22.1875L39.6199 72.6655C35.3081 76.9773 28.3168 76.9773 24.0046 72.6653Z" fill="#8BB6EF"/>
<path d="M90.098 6.57225C86.0013 2.47558 79.4882 2.27403 75.15 5.96128C77.1501 5.99171 79.1412 6.76806 80.6672 8.29414L81.4788 9.10551C84.5934 12.2201 84.5934 17.2698 81.4788 20.3843L37.8173 64.0464C34.7028 67.1609 29.6531 67.1609 26.5385 64.0464L25.7269 63.2348C24.2007 61.7085 23.4243 59.7175 23.3939 57.7173C19.7066 62.0556 19.9082 68.5687 24.0049 72.6654C28.3171 76.9774 35.3082 76.9774 39.6204 72.6654L90.098 22.1876C94.41 17.8756 94.41 10.8842 90.098 6.57225Z" fill="#8388EF"/>
<path d="M66.672 26.5149C66.1967 26.5149 65.7209 26.3399 65.349 25.9872C64.5782 25.2562 64.5458 24.0388 65.2768 23.2682C66.5619 21.9131 70.6264 18.0113 71.2925 17.357C72.0505 16.6125 73.2678 16.6234 74.0124 17.3813C74.7568 18.1391 74.7459 19.3569 73.9881 20.1012C73.3063 20.771 69.2908 24.6257 68.0679 25.9152C67.6897 26.3137 67.1813 26.5149 66.672 26.5149Z" fill="white"/>
<path d="M76.4176 16.9422C75.9198 16.9422 75.4221 16.75 75.0456 16.3668C74.3011 15.6092 74.3118 14.3913 75.0696 13.6469L75.8444 12.8857C76.6018 12.1411 77.8193 12.1515 78.5643 12.9089C79.309 13.6663 79.2987 14.8838 78.5411 15.6288L77.7655 16.3907C77.3909 16.7586 76.9042 16.9422 76.4176 16.9422Z" fill="white"/>
<path d="M8.21966 71.3936L1.97656 94.6934L25.2764 88.4503L23.2368 73.4332L8.21966 71.3936Z" fill="#FFE266"/>
<path d="M27.2447 81.9537L14.7162 69.4254C13.0751 67.7845 13.0751 65.1237 14.7162 63.4828C16.3573 61.8417 19.0179 61.8417 20.6588 63.4828L33.1873 76.0111C34.8282 77.6522 34.8284 80.3128 33.1873 81.9537C31.5464 83.5948 28.8856 83.5948 27.2447 81.9537Z" fill="#FFE266"/>
<path d="M96.3302 21.5653C95.6446 20.8795 94.8192 20.3847 93.9187 20.1051C96.2978 15.2625 95.4798 9.23396 91.4572 5.21156C89.0083 2.7629 85.7525 1.41406 82.2894 1.41406C78.8263 1.41406 75.5705 2.7629 73.1218 5.21156L22.6441 55.6896C21.2308 57.1031 20.1857 58.7862 19.5531 60.6219C17.439 59.9495 15.0296 60.4485 13.3556 62.1226C11.1944 64.2837 10.9894 67.6716 12.74 70.0661L8.47798 69.4873C7.51865 69.3577 6.61177 69.9601 6.36141 70.8955L0.118311 94.1954C-0.0595058 94.859 0.130178 95.5672 0.615967 96.0531C0.981553 96.4185 1.4727 96.6165 1.97629 96.6165C2.14205 96.6165 2.30934 96.595 2.47376 96.5508L25.7736 90.3077C26.7088 90.0572 27.3122 89.1505 27.1818 88.1911L26.603 83.9291C27.6745 84.7125 28.9451 85.1043 30.2154 85.1043C31.7842 85.1043 33.3526 84.5075 34.5469 83.3131C36.2231 81.6368 36.7211 79.2232 36.0443 77.107C37.8485 76.4878 39.5424 75.4619 40.9797 74.0248L66.5108 48.4939C66.7989 49.1192 67.1976 49.6953 67.6989 50.1966C68.8475 51.3451 70.3558 51.9191 71.8643 51.9191C73.3729 51.9191 74.8812 51.3449 76.0298 50.1966L96.3302 29.8963C98.6269 27.5994 98.6269 23.8622 96.3302 21.5653ZM6.9251 91.3759L12.4041 85.8969C13.4163 86.284 14.6051 86.0717 15.4209 85.2559C16.5276 84.1492 16.5276 82.355 15.4209 81.2483C14.3141 80.1415 12.5199 80.1415 11.4134 81.2483C10.5976 82.064 10.3853 83.2529 10.7722 84.265L5.29336 89.7438L9.63867 73.5269L17.1129 74.542L22.1272 79.5564L23.1424 87.0306L6.9251 91.3759ZM31.8267 80.5933C30.9384 81.4816 29.4927 81.4818 28.6042 80.5933L16.0758 68.065C15.1872 67.1765 15.1872 65.731 16.0757 64.8424C16.5199 64.398 17.1035 64.176 17.6871 64.176C18.2705 64.176 18.8541 64.398 19.2984 64.8423L31.8267 77.3708C32.7154 78.2591 32.7154 79.7048 31.8267 80.5933ZM38.2596 71.3049C36.9573 72.6072 35.3554 73.4295 33.6739 73.7777L22.8857 62.9894C23.2425 61.2664 24.0914 59.6829 25.3644 58.4099L75.8419 7.93164C77.564 6.20936 79.8538 5.26075 82.2894 5.26075C84.725 5.26075 87.0148 6.20917 88.7371 7.93164C92.2925 11.487 92.2927 17.2719 88.7373 20.8271L38.2596 71.3049ZM93.6099 27.1762L73.3096 47.4765C72.5124 48.2738 71.2156 48.2738 70.4188 47.4765C70.0325 47.0905 69.82 46.5771 69.82 46.031C69.82 45.485 70.0327 44.9718 70.4188 44.5857L77.8283 37.176L90.721 24.2833C91.1069 23.8986 91.6195 23.6865 92.1644 23.6865C92.7105 23.6865 93.2239 23.8991 93.6099 24.2852C94.4071 25.0824 94.4071 26.3794 93.6099 27.1762Z" fill="#5F2A5D"/>
<path d="M41.9911 55.7127C41.5141 55.2904 40.7847 55.3347 40.362 55.812L38.9031 57.4606C38.4807 57.9378 38.5253 58.6672 39.0025 59.0897C39.222 59.2841 39.495 59.3795 39.7669 59.3795C40.0858 59.3795 40.4036 59.248 40.6315 58.9903L42.0904 57.3417C42.5129 56.8644 42.4683 56.1351 41.9911 55.7127Z" fill="#5F2A5D"/>
<path d="M50.0616 53.8572C49.5846 53.435 48.855 53.4792 48.4325 53.9566L46.9734 55.6051C46.551 56.0823 46.5956 56.8118 47.0728 57.2342C47.2923 57.4287 47.5653 57.524 47.8373 57.524C48.1561 57.524 48.4739 57.3925 48.7018 57.1349L50.1609 55.4863C50.5834 55.0089 50.539 54.2797 50.0616 53.8572Z" fill="#5F2A5D"/>
<path d="M55.5747 9.74497C56.3293 7.92457 55.4652 5.83715 53.6448 5.08259C51.8244 4.32803 49.737 5.19206 48.9825 7.01247C48.2279 8.83287 49.0919 10.9203 50.9123 11.6748C52.7327 12.4294 54.8202 11.5654 55.5747 9.74497Z" fill="#8BB6EF"/>
<path d="M15.1037 25.1251C15.8745 24.8056 16.2404 23.9216 15.9209 23.1508C15.6014 22.3799 14.7174 22.014 13.9466 22.3336C13.1757 22.6531 12.8098 23.537 13.1293 24.3079C13.4489 25.0787 14.3328 25.4446 15.1037 25.1251Z" fill="#8BB6EF"/>
<path d="M27.663 7.74581L28.8747 11.1532C28.9266 11.2991 29.0292 11.4147 29.159 11.4731L32.1865 12.837C32.6141 13.0298 32.6141 13.7112 32.1865 13.9039L29.159 15.2679C29.0294 15.3263 28.9266 15.4419 28.8747 15.5877L27.663 18.9951C27.4916 19.4765 26.8862 19.4765 26.7151 18.9951L25.5033 15.5877C25.4514 15.4419 25.3487 15.3263 25.2191 15.2679L22.1918 13.9039C21.7642 13.7112 21.7642 13.0298 22.1918 12.837L25.2191 11.4731C25.3487 11.4147 25.4514 11.2991 25.5033 11.1532L26.7151 7.74581C26.8862 7.26442 27.4916 7.26442 27.663 7.74581Z" fill="#B2E7F1"/>
<path d="M11.9234 37.3393L13.5887 41.9329C13.6599 42.1295 13.8011 42.2855 13.9791 42.3641L18.139 44.203C18.7266 44.4627 18.7266 45.3815 18.139 45.6412L13.9791 47.48C13.8011 47.5587 13.6599 47.7147 13.5887 47.9113L11.9234 52.5048C11.6882 53.1539 10.8563 53.1539 10.6209 52.5048L8.95586 47.9113C8.88446 47.7147 8.7434 47.5587 8.56539 47.48L4.40556 45.6412C3.81794 45.3815 3.81794 44.4627 4.40556 44.203L8.56539 42.3641C8.74359 42.2855 8.88465 42.1295 8.95586 41.9329L10.6209 37.3393C10.8563 36.6903 11.6882 36.6903 11.9234 37.3393Z" fill="#B2E7F1"/>
</g>
<defs>
<clipPath id="clip0_158_35776">
<rect width="98" height="98" fill="white" transform="translate(0.0527344 0.015625)"/>
</clipPath>
</defs>
</svg>
