<svg width="1920" height="500" viewBox="0 0 1920 500" fill="none" xmlns="http://www.w3.org/2000/svg">
<path d="M1616.82 82.7374C1616.82 81.0974 1616.34 79.4943 1615.42 78.1307C1614.51 76.7671 1613.22 75.7044 1611.7 75.0768C1610.19 74.4492 1608.52 74.285 1606.91 74.6049C1605.3 74.9249 1603.83 75.7146 1602.67 76.8742C1601.51 78.0339 1600.72 79.5113 1600.4 81.1198C1600.08 82.7282 1600.24 84.3954 1600.87 85.9106C1601.5 87.4257 1602.56 88.7207 1603.92 89.6319C1605.29 90.543 1606.89 91.0293 1608.53 91.0293C1610.72 91.016 1612.83 90.1382 1614.38 88.586C1615.93 87.0338 1616.81 84.9325 1616.82 82.7374V82.7374Z" fill="#F9EEE1"/>
<path d="M1616.82 149.677C1616.82 148.037 1616.34 146.434 1615.42 145.07C1614.51 143.707 1613.22 142.644 1611.7 142.016C1610.19 141.389 1608.52 141.224 1606.91 141.544C1605.3 141.864 1603.83 142.654 1602.67 143.814C1601.51 144.973 1600.72 146.451 1600.4 148.059C1600.08 149.668 1600.24 151.335 1600.87 152.85C1601.5 154.365 1602.56 155.66 1603.92 156.571C1605.29 157.482 1606.89 157.969 1608.53 157.969C1610.73 157.969 1612.84 157.095 1614.39 155.54C1615.95 153.985 1616.82 151.876 1616.82 149.677V149.677Z" fill="#F9EEE1"/>
<path d="M1616.82 216.62C1616.82 214.98 1616.34 213.377 1615.42 212.014C1614.51 210.65 1613.22 209.587 1611.7 208.96C1610.19 208.332 1608.52 208.168 1606.91 208.488C1605.3 208.808 1603.83 209.597 1602.67 210.757C1601.51 211.917 1600.72 213.394 1600.4 215.003C1600.08 216.611 1600.24 218.278 1600.87 219.793C1601.5 221.309 1602.56 222.604 1603.92 223.515C1605.29 224.426 1606.89 224.912 1608.53 224.912C1610.73 224.912 1612.84 224.039 1614.39 222.483C1615.95 220.928 1616.82 218.819 1616.82 216.62Z" fill="#F9EEE1"/>
<path d="M1616.82 283.612C1616.82 281.972 1616.34 280.369 1615.42 279.006C1614.51 277.642 1613.22 276.579 1611.7 275.952C1610.19 275.324 1608.52 275.16 1606.91 275.48C1605.3 275.8 1603.83 276.59 1602.67 277.749C1601.51 278.909 1600.72 280.386 1600.4 281.995C1600.08 283.603 1600.24 285.27 1600.87 286.786C1601.5 288.301 1602.56 289.596 1603.92 290.507C1605.29 291.418 1606.89 291.904 1608.53 291.904C1610.72 291.891 1612.83 291.013 1614.38 289.461C1615.93 287.909 1616.81 285.807 1616.82 283.612Z" fill="#F9EEE1"/>
<path d="M1616.82 350.503C1616.82 348.863 1616.34 347.26 1615.42 345.896C1614.51 344.533 1613.22 343.47 1611.7 342.842C1610.19 342.215 1608.52 342.051 1606.91 342.371C1605.3 342.691 1603.83 343.48 1602.67 344.64C1601.51 345.799 1600.72 347.277 1600.4 348.885C1600.08 350.494 1600.24 352.161 1600.87 353.676C1601.5 355.191 1602.56 356.486 1603.92 357.397C1605.29 358.309 1606.89 358.795 1608.53 358.795C1610.72 358.782 1612.83 357.904 1614.38 356.352C1615.93 354.799 1616.81 352.698 1616.82 350.503V350.503Z" fill="#F9EEE1"/>
<path d="M1616.82 417.443C1616.82 415.803 1616.34 414.199 1615.42 412.836C1614.51 411.472 1613.22 410.409 1611.7 409.782C1610.19 409.154 1608.52 408.99 1606.91 409.31C1605.3 409.63 1603.83 410.42 1602.67 411.579C1601.51 412.739 1600.72 414.216 1600.4 415.825C1600.08 417.433 1600.24 419.101 1600.87 420.616C1601.5 422.131 1602.56 423.426 1603.92 424.337C1605.29 425.248 1606.89 425.734 1608.53 425.734C1610.72 425.721 1612.83 424.843 1614.38 423.291C1615.93 421.739 1616.81 419.638 1616.82 417.443V417.443Z" fill="#F9EEE1"/>
<path d="M1563.68 82.7374C1563.68 81.0974 1563.2 79.4943 1562.29 78.1307C1561.38 76.7671 1560.08 75.7044 1558.57 75.0768C1557.05 74.4492 1555.38 74.285 1553.77 74.6049C1552.17 74.9249 1550.69 75.7146 1549.53 76.8742C1548.37 78.0339 1547.58 79.5113 1547.26 81.1198C1546.94 82.7282 1547.1 84.3954 1547.73 85.9106C1548.36 87.4257 1549.42 88.7207 1550.79 89.6319C1552.15 90.543 1553.75 91.0293 1555.39 91.0293C1557.59 91.016 1559.69 90.1382 1561.24 88.586C1562.79 87.0338 1563.67 84.9325 1563.68 82.7374V82.7374Z" fill="#F9EEE1"/>
<path d="M1563.68 149.677C1563.68 148.037 1563.2 146.434 1562.29 145.07C1561.38 143.707 1560.08 142.644 1558.57 142.016C1557.05 141.389 1555.38 141.224 1553.77 141.544C1552.17 141.864 1550.69 142.654 1549.53 143.814C1548.37 144.973 1547.58 146.451 1547.26 148.059C1546.94 149.668 1547.1 151.335 1547.73 152.85C1548.36 154.365 1549.42 155.66 1550.79 156.571C1552.15 157.482 1553.75 157.969 1555.39 157.969C1557.59 157.969 1559.7 157.095 1561.26 155.54C1562.81 153.985 1563.68 151.876 1563.68 149.677V149.677Z" fill="#F9EEE1"/>
<path d="M1563.68 216.62C1563.68 214.98 1563.2 213.377 1562.29 212.014C1561.38 210.65 1560.08 209.587 1558.57 208.96C1557.05 208.332 1555.38 208.168 1553.77 208.488C1552.17 208.808 1550.69 209.597 1549.53 210.757C1548.37 211.917 1547.58 213.394 1547.26 215.003C1546.94 216.611 1547.1 218.278 1547.73 219.793C1548.36 221.309 1549.42 222.604 1550.79 223.515C1552.15 224.426 1553.75 224.912 1555.39 224.912C1557.59 224.912 1559.7 224.039 1561.26 222.483C1562.81 220.928 1563.68 218.819 1563.68 216.62V216.62Z" fill="#F9EEE1"/>
<path d="M1563.68 283.612C1563.68 281.972 1563.2 280.369 1562.29 279.006C1561.38 277.642 1560.08 276.579 1558.57 275.952C1557.05 275.324 1555.38 275.16 1553.77 275.48C1552.17 275.8 1550.69 276.59 1549.53 277.749C1548.37 278.909 1547.58 280.386 1547.26 281.995C1546.94 283.603 1547.1 285.27 1547.73 286.786C1548.36 288.301 1549.42 289.596 1550.79 290.507C1552.15 291.418 1553.75 291.904 1555.39 291.904C1557.59 291.891 1559.69 291.013 1561.24 289.461C1562.79 287.909 1563.67 285.807 1563.68 283.612V283.612Z" fill="#F9EEE1"/>
<path d="M1563.68 350.503C1563.68 348.863 1563.2 347.26 1562.29 345.896C1561.38 344.533 1560.08 343.47 1558.57 342.842C1557.05 342.215 1555.38 342.051 1553.77 342.371C1552.17 342.691 1550.69 343.48 1549.53 344.64C1548.37 345.799 1547.58 347.277 1547.26 348.885C1546.94 350.494 1547.1 352.161 1547.73 353.676C1548.36 355.191 1549.42 356.486 1550.79 357.397C1552.15 358.309 1553.75 358.795 1555.39 358.795C1557.59 358.782 1559.69 357.904 1561.24 356.352C1562.79 354.799 1563.67 352.698 1563.68 350.503V350.503Z" fill="#F9EEE1"/>
<path d="M1563.68 417.443C1563.68 415.803 1563.2 414.199 1562.29 412.836C1561.38 411.472 1560.08 410.409 1558.57 409.782C1557.05 409.154 1555.38 408.99 1553.77 409.31C1552.17 409.63 1550.69 410.42 1549.53 411.579C1548.37 412.739 1547.58 414.216 1547.26 415.825C1546.94 417.433 1547.1 419.101 1547.73 420.616C1548.36 422.131 1549.42 423.426 1550.79 424.337C1552.15 425.248 1553.75 425.734 1555.39 425.734C1557.59 425.721 1559.69 424.843 1561.24 423.291C1562.79 421.739 1563.67 419.638 1563.68 417.443V417.443Z" fill="#F9EEE1"/>
<path d="M1510.55 82.7374C1510.55 81.0974 1510.06 79.4943 1509.15 78.1307C1508.24 76.7671 1506.94 75.7044 1505.43 75.0768C1503.91 74.4492 1502.25 74.285 1500.64 74.6049C1499.03 74.9249 1497.55 75.7146 1496.39 76.8742C1495.23 78.0339 1494.44 79.5113 1494.12 81.1198C1493.8 82.7282 1493.97 84.3954 1494.59 85.9106C1495.22 87.4257 1496.28 88.7207 1497.65 89.6319C1499.01 90.543 1500.61 91.0293 1502.25 91.0293C1504.45 91.016 1506.55 90.1382 1508.1 88.586C1509.65 87.0338 1510.53 84.9325 1510.55 82.7374V82.7374Z" fill="#F9EEE1"/>
<path d="M1510.55 149.677C1510.55 148.037 1510.06 146.434 1509.15 145.07C1508.24 143.707 1506.94 142.644 1505.43 142.016C1503.91 141.389 1502.25 141.224 1500.64 141.544C1499.03 141.864 1497.55 142.654 1496.39 143.814C1495.23 144.973 1494.44 146.451 1494.12 148.059C1493.8 149.668 1493.97 151.335 1494.59 152.85C1495.22 154.365 1496.28 155.66 1497.65 156.571C1499.01 157.482 1500.61 157.969 1502.25 157.969C1504.45 157.969 1506.56 157.095 1508.12 155.54C1509.67 153.985 1510.55 151.876 1510.55 149.677V149.677Z" fill="#F9EEE1"/>
<path d="M1510.55 216.62C1510.55 214.98 1510.06 213.377 1509.15 212.014C1508.24 210.65 1506.94 209.587 1505.43 208.96C1503.91 208.332 1502.25 208.168 1500.64 208.488C1499.03 208.808 1497.55 209.597 1496.39 210.757C1495.23 211.917 1494.44 213.394 1494.12 215.003C1493.8 216.611 1493.97 218.278 1494.59 219.793C1495.22 221.309 1496.28 222.604 1497.65 223.515C1499.01 224.426 1500.61 224.912 1502.25 224.912C1504.45 224.912 1506.56 224.039 1508.12 222.483C1509.67 220.928 1510.55 218.819 1510.55 216.62Z" fill="#F9EEE1"/>
<path d="M1510.55 283.612C1510.55 281.972 1510.06 280.369 1509.15 279.006C1508.24 277.642 1506.94 276.579 1505.43 275.952C1503.91 275.324 1502.25 275.16 1500.64 275.48C1499.03 275.8 1497.55 276.59 1496.39 277.749C1495.23 278.909 1494.44 280.386 1494.12 281.995C1493.8 283.603 1493.97 285.27 1494.59 286.786C1495.22 288.301 1496.28 289.596 1497.65 290.507C1499.01 291.418 1500.61 291.904 1502.25 291.904C1504.45 291.891 1506.55 291.013 1508.1 289.461C1509.65 287.909 1510.53 285.807 1510.55 283.612V283.612Z" fill="#F9EEE1"/>
<path d="M1510.55 350.503C1510.55 348.863 1510.06 347.26 1509.15 345.896C1508.24 344.533 1506.94 343.47 1505.43 342.842C1503.91 342.215 1502.25 342.051 1500.64 342.371C1499.03 342.691 1497.55 343.48 1496.39 344.64C1495.23 345.799 1494.44 347.277 1494.12 348.885C1493.8 350.494 1493.97 352.161 1494.59 353.676C1495.22 355.191 1496.28 356.486 1497.65 357.397C1499.01 358.309 1500.61 358.795 1502.25 358.795C1504.45 358.782 1506.55 357.904 1508.1 356.352C1509.65 354.799 1510.53 352.698 1510.55 350.503V350.503Z" fill="#F9EEE1"/>
<path d="M1510.55 417.443C1510.55 415.803 1510.06 414.199 1509.15 412.836C1508.24 411.472 1506.94 410.409 1505.43 409.782C1503.91 409.154 1502.25 408.99 1500.64 409.31C1499.03 409.63 1497.55 410.42 1496.39 411.579C1495.23 412.739 1494.44 414.216 1494.12 415.825C1493.8 417.433 1493.97 419.101 1494.59 420.616C1495.22 422.131 1496.28 423.426 1497.65 424.337C1499.01 425.248 1500.61 425.734 1502.25 425.734C1504.45 425.721 1506.55 424.843 1508.1 423.291C1509.65 421.739 1510.53 419.638 1510.55 417.443V417.443Z" fill="#F9EEE1"/>
</svg>
