<svg width="99" height="99" viewBox="0 0 99 99" fill="none" xmlns="http://www.w3.org/2000/svg">
<g clip-path="url(#clip0_158_35775)">
<path d="M96.7897 16.5303L3.91496 47.389C2.35807 47.9063 2.1969 50.0445 3.65867 50.7895L24.7172 61.5192L37.319 94.1466C37.7799 95.3414 39.2777 95.7303 40.2617 94.9109L61.2574 80.1368L83.8278 91.6369C84.9592 92.2134 86.3215 91.5033 86.4972 90.2458L96.7897 16.5303Z" fill="#B2E7F1"/>
<path d="M29.5723 75.0225L36.2043 91.5701C37.6033 95.0608 40.216 95.7213 43.1058 93.315L61.2573 80.1369L48.9862 72.9396L96.7895 16.5303L29.5723 75.0225Z" fill="#A7ADF1"/>
<path d="M98.717 16.58C98.7893 15.2865 97.3978 14.2589 96.1812 14.6993L3.30632 45.5578C1.85642 46.0396 0.845409 47.3354 0.730565 48.8588C0.615722 50.3824 1.42116 51.8151 2.78244 52.5089L23.471 63.05L35.5016 94.7595C36.0647 96.2441 37.4545 97.2067 39.0421 97.212H39.0555C40.1247 97.212 41.1048 96.776 41.8054 96.0385L61.4113 82.3813L82.9518 93.3565C84.0378 93.9099 85.3314 93.9039 86.4124 93.3406C87.4935 92.7771 88.2396 91.72 88.4082 90.5128L98.7009 16.7973C98.7068 16.7249 98.716 16.6526 98.717 16.58ZM81.6133 23.6064L24.0728 59.0253L4.70856 49.1587L81.6133 23.6064ZM27.087 61.7018L87.4879 24.5221L47.5141 71.6922C47.3749 71.8562 47.2643 72.0425 47.1866 72.2431L46.8813 73.0317C46.8807 73.0328 46.8803 73.0342 46.88 73.0353L39.0553 93.2468L27.087 61.7018ZM44.7201 89.305L49.7086 76.4186L57.5118 80.3945L44.7201 89.305ZM84.6017 89.8658L62.131 78.4167C62.1266 78.4144 62.1222 78.4121 62.1178 78.41L51.4752 72.9874L93.958 22.8563L84.6017 89.8658Z" fill="#5F2A5D"/>
<path d="M77.4791 74.293C76.8398 74.293 76.3213 74.8113 76.3213 75.4508V77.9781C76.3213 78.6174 76.8396 79.1359 77.4791 79.1359C78.1184 79.1359 78.6369 78.6176 78.6369 77.9781V75.4508C78.6367 74.8115 78.1184 74.293 77.4791 74.293Z" fill="#5F2A5D"/>
<path d="M81.6764 64.4102C81.0371 64.4102 80.5186 64.9285 80.5186 65.568V68.0953C80.5186 68.7346 81.0369 69.2531 81.6764 69.2531C82.3157 69.2531 82.8342 68.7348 82.8342 68.0953V65.568C82.8342 64.9285 82.3159 64.4102 81.6764 64.4102Z" fill="#5F2A5D"/>
<path d="M69.6949 67.793C69.0556 67.793 68.5371 68.3113 68.5371 68.9508V71.4781C68.5371 72.1174 69.0554 72.6359 69.6949 72.6359C70.3344 72.6359 70.8528 72.1176 70.8528 71.4781V68.9508C70.8528 68.3113 70.3342 67.793 69.6949 67.793Z" fill="#5F2A5D"/>
<path d="M32.013 47.3865C31.2078 47.3865 30.4567 46.8787 30.1849 46.0734C29.844 45.0636 30.3864 43.9687 31.3961 43.628L32.2289 43.3468C33.2386 43.0063 34.3334 43.5486 34.6741 44.5582C35.0148 45.5681 34.4726 46.6629 33.4627 47.0036C33.0805 47.1208 32.4121 47.4108 32.013 47.3865Z" fill="white"/>
<path d="M19.6078 51.5698C18.8026 51.5698 18.0513 51.0618 17.7795 50.2564C17.4388 49.2467 17.9813 48.1519 18.9911 47.8112L24.0821 46.0939C25.092 45.7534 26.1865 46.2956 26.5274 47.3055C26.8681 48.3152 26.3256 49.41 25.3158 49.7507L20.2247 51.468C20.0203 51.5371 19.8123 51.5698 19.6078 51.5698Z" fill="white"/>
<path d="M65.0787 5.33673C65.0787 7.31319 63.4765 8.91564 61.4998 8.91564C59.5234 8.91564 57.9209 7.31338 57.9209 5.33673C57.9209 3.36007 59.5232 1.75781 61.4998 1.75781C63.4763 1.75781 65.0787 3.36027 65.0787 5.33673Z" fill="#8BB6EF"/>
<path d="M21.287 23.9745C22.1241 23.9745 22.8026 23.2959 22.8026 22.4589C22.8026 21.6219 22.1241 20.9434 21.287 20.9434C20.45 20.9434 19.7715 21.6219 19.7715 22.4589C19.7715 23.2959 20.45 23.9745 21.287 23.9745Z" fill="#8BB6EF"/>
<path d="M46.1059 11.368L47.3217 14.7866C47.3738 14.933 47.4768 15.0488 47.6069 15.1076L50.6442 16.4759C51.0733 16.6692 51.0733 17.3529 50.6442 17.5463L47.6069 18.9146C47.4768 18.9732 47.3738 19.0892 47.3217 19.2356L46.1059 22.6541C45.9342 23.137 45.3267 23.137 45.155 22.6541L43.9392 19.2356C43.8871 19.0892 43.7842 18.9732 43.654 18.9146L40.6168 17.5463C40.1876 17.3529 40.1876 16.6692 40.6168 16.4759L43.654 15.1076C43.7842 15.049 43.8871 14.933 43.9392 14.7866L45.155 11.368C45.3267 10.8851 45.934 10.8851 46.1059 11.368Z" fill="#B2E7F1"/>
<path d="M9.83939 1.30773L11.51 5.91641C11.5816 6.11375 11.7232 6.27013 11.9018 6.34918L16.0752 8.19395C16.6649 8.45446 16.6649 9.37627 16.0752 9.63677L11.9018 11.4815C11.723 11.5606 11.5816 11.717 11.51 11.9141L9.83939 16.5228C9.60338 17.174 8.76866 17.174 8.53266 16.5228L6.86206 11.9141C6.79048 11.7168 6.64884 11.5604 6.47025 11.4815L2.29664 9.63658C1.70711 9.37589 1.70711 8.45427 2.29664 8.19376L6.47025 6.34899C6.64903 6.26994 6.79048 6.11356 6.86206 5.91622L8.53266 1.30754C8.76866 0.656569 9.60338 0.656569 9.83939 1.30773Z" fill="#B2E7F1"/>
</g>
<defs>
<clipPath id="clip0_158_35775">
<rect width="98" height="98" fill="white" transform="translate(0.719727 0.015625)"/>
</clipPath>
</defs>
</svg>
