<svg width="1920" height="720" viewBox="0 0 1920 720" fill="none" xmlns="http://www.w3.org/2000/svg">
<mask id="mask0_264_9764" style="mask-type:alpha" maskUnits="userSpaceOnUse" x="446" y="18" width="1474" height="702">
<path d="M446.639 18H1920V719.869H446.639V18Z" fill="#C4C4C4"/>
</mask>
<g mask="url(#mask0_264_9764)">
<path fill-rule="evenodd" clip-rule="evenodd" d="M1445.14 1231.58C1479.66 1212.86 1512.2 1191.03 1542.4 1166.44C1572.62 1191.06 1605.19 1212.91 1639.74 1231.65C1739.32 1285.66 1851.64 1311.79 1964.83 1307.27C2078.03 1302.76 2187.91 1267.76 2282.87 1205.99L2588.56 1307.71L2481.38 998.815C2530.64 915.51 2560.02 821.965 2567.23 725.456C2574.44 628.947 2559.3 532.074 2522.97 442.372C2486.65 352.67 2430.12 272.555 2357.79 208.259C2285.45 143.963 2199.26 97.2184 2105.92 71.6602C2012.58 46.102 1914.6 42.4193 1819.6 60.8984C1724.6 79.3775 1635.15 119.52 1558.19 178.205C1552.88 182.254 1547.64 186.384 1542.47 190.593C1537.3 186.384 1532.06 182.254 1526.75 178.205C1449.8 119.52 1360.34 79.3775 1265.34 60.8984C1170.35 42.4193 1072.37 46.102 979.024 71.6602C885.682 97.2184 799.492 143.963 727.159 208.259C654.826 272.555 598.299 352.67 561.973 442.372C525.647 532.074 510.503 628.947 517.717 725.456C524.931 821.965 554.309 915.51 603.566 998.815L496.384 1307.71L802.075 1205.99C897.036 1267.74 1006.91 1302.72 1120.09 1307.22C1233.28 1311.72 1345.58 1285.59 1445.14 1231.58ZM1565.19 770.924C1617.23 758.7 1649.51 706.607 1637.28 654.57C1625.06 602.534 1572.96 570.26 1520.93 582.484C1468.89 594.708 1436.62 646.802 1448.84 698.838C1461.07 750.874 1513.16 783.148 1565.19 770.924ZM1190.25 770.986C1242.29 758.762 1274.56 706.669 1262.34 654.633C1250.11 602.596 1198.02 570.322 1145.98 582.546C1093.95 594.771 1061.67 646.864 1073.9 698.9C1086.12 750.937 1138.21 783.211 1190.25 770.986ZM882.344 714.081C902.937 664.754 879.644 608.073 830.317 587.48C780.991 566.886 724.309 590.179 703.716 639.506C683.123 688.833 706.416 745.514 755.742 766.107C805.069 786.7 861.75 763.408 882.344 714.081ZM1995.7 733.117C2026.81 689.655 2016.8 629.197 1973.34 598.081C1929.88 566.965 1869.42 576.973 1838.31 620.436C1807.19 663.899 1817.2 724.357 1860.66 755.473C1904.12 786.589 1964.58 776.58 1995.7 733.117ZM2381.28 714.042C2401.88 664.715 2378.59 608.034 2329.26 587.441C2279.93 566.847 2223.25 590.14 2202.66 639.467C2182.06 688.794 2205.36 745.475 2254.68 766.068C2304.01 786.662 2360.69 763.369 2381.28 714.042Z" stroke="#FF7C4E" stroke-width="42.6526"/>
</g>
</svg>
