<svg width="33" height="32" viewBox="0 0 33 32" fill="none" xmlns="http://www.w3.org/2000/svg">
<g clip-path="url(#clip0_158_13424)">
<path d="M25.1675 0H7.16748C3.30148 0 0.16748 3.134 0.16748 7V25C0.16748 28.866 3.30148 32 7.16748 32H25.1675C29.0335 32 32.1675 28.866 32.1675 25V7C32.1675 3.134 29.0335 0 25.1675 0Z" fill="#F5F5F5"/>
<path d="M16.1674 22.0691C19.5191 22.0691 22.2361 19.3521 22.2361 16.0004C22.2361 12.6487 19.5191 9.93164 16.1674 9.93164C12.8157 9.93164 10.0986 12.6487 10.0986 16.0004C10.0986 19.3521 12.8157 22.0691 16.1674 22.0691Z" fill="#FF4B55"/>
</g>
<defs>
<clipPath id="clip0_158_13424">
<rect width="32" height="32" fill="white" transform="translate(0.16748)"/>
</clipPath>
</defs>
</svg>
