<svg width="213" height="73" viewBox="0 0 213 73" fill="none" xmlns="http://www.w3.org/2000/svg">
<path d="M88.7493 54.3489C86.8304 54.3489 85.1194 53.9171 83.6163 53.0536C82.1132 52.1901 80.9298 51.0068 80.0664 49.5037V53.8691H74.4536V18.8496H80.8819V33.1453C81.7774 31.6101 82.9447 30.4268 84.3838 29.5953C85.855 28.7318 87.566 28.3001 89.5168 28.3001C91.1479 28.3001 92.635 28.6519 93.9782 29.3555C95.3214 30.0591 96.4728 31.0025 97.4322 32.1858C98.4236 33.3691 99.1752 34.7603 99.6869 36.3594C100.231 37.9584 100.502 39.6375 100.502 41.3964C100.502 43.2194 100.199 44.9144 99.5909 46.4815C99.0153 48.0485 98.1998 49.4237 97.1444 50.607C96.089 51.7584 94.8417 52.6698 93.4026 53.3414C91.9634 54.0131 90.4123 54.3489 88.7493 54.3489ZM86.9743 48.8801C87.9977 48.8801 88.9412 48.6882 89.8047 48.3044C90.6682 47.8886 91.4037 47.345 92.0114 46.6733C92.619 46.0017 93.0827 45.2182 93.4026 44.3227C93.7544 43.4272 93.9303 42.4678 93.9303 41.4444C93.9303 40.421 93.7703 39.4456 93.4505 38.5181C93.1307 37.5907 92.667 36.7751 92.0593 36.0715C91.4837 35.368 90.7961 34.8083 89.9966 34.3925C89.197 33.9768 88.3175 33.7689 87.3581 33.7689C85.9189 33.7689 84.6237 34.2486 83.4724 35.208C82.353 36.1355 81.4895 37.2868 80.8819 38.662V44.6585C81.1057 45.2981 81.4256 45.8738 81.8413 46.3855C82.2891 46.8972 82.7848 47.345 83.3284 47.7287C83.8721 48.0805 84.4638 48.3684 85.1034 48.5922C85.743 48.7841 86.3667 48.8801 86.9743 48.8801ZM113.693 54.3489C111.678 54.3489 109.855 54.0131 108.224 53.3414C106.593 52.6379 105.202 51.6944 104.051 50.5111C102.899 49.3278 102.004 47.9526 101.364 46.3855C100.757 44.8184 100.453 43.1714 100.453 41.4444C100.453 39.6534 100.757 37.9744 101.364 36.4073C101.972 34.8083 102.851 33.4171 104.003 32.2338C105.154 31.0185 106.545 30.0591 108.176 29.3555C109.839 28.6519 111.694 28.3001 113.741 28.3001C115.788 28.3001 117.611 28.6519 119.21 29.3555C120.841 30.0591 122.216 31.0025 123.335 32.1858C124.487 33.3691 125.35 34.7443 125.926 36.3114C126.534 37.8785 126.837 39.5095 126.837 41.2045C126.837 41.6203 126.821 42.0201 126.789 42.4038C126.789 42.7876 126.757 43.1074 126.693 43.3633H107.265C107.361 44.3547 107.601 45.2342 107.984 46.0017C108.368 46.7693 108.864 47.4249 109.472 47.9686C110.079 48.5123 110.767 48.928 111.534 49.2159C112.302 49.5037 113.101 49.6476 113.933 49.6476C115.212 49.6476 116.411 49.3438 117.531 48.7361C118.682 48.0965 119.466 47.265 119.881 46.2416L125.398 47.7767C124.471 49.6956 122.984 51.2787 120.937 52.5259C118.922 53.7412 116.507 54.3489 113.693 54.3489ZM120.217 39.1897C120.057 37.3028 119.354 35.7997 118.106 34.6804C116.891 33.529 115.404 32.9534 113.645 32.9534C112.782 32.9534 111.966 33.1133 111.199 33.4331C110.463 33.7209 109.807 34.1367 109.232 34.6804C108.656 35.224 108.176 35.8797 107.792 36.6472C107.441 37.4148 107.233 38.2623 107.169 39.1897H120.217Z" fill="#5F2A5D"/>
<path d="M133.465 40.9053V30.4802H135.491V39.1286H140.807V40.9053H133.465ZM145.006 30.4802H146.797L150.762 40.9053H148.677L147.707 38.3063H144.066L143.112 40.9053H141.027L145.006 30.4802ZM147.34 36.8821L145.901 32.7855L144.404 36.8821H147.34ZM153.931 34.2244V40.9053H151.905V30.4802H153.476L158.909 37.3226V30.4949H160.935V40.9053H159.291L153.931 34.2244ZM170.343 39.7306C169.511 40.5627 168.542 40.9787 167.435 40.9787C166.75 40.9787 166.104 40.8416 165.497 40.5676C164.9 40.2935 164.376 39.9166 163.926 39.437C163.486 38.9573 163.133 38.3944 162.869 37.7484C162.614 37.0925 162.487 36.3877 162.487 35.634C162.487 34.9194 162.614 34.2489 162.869 33.6224C163.133 32.9861 163.49 32.4331 163.941 31.9632C164.401 31.4835 164.939 31.1067 165.556 30.8326C166.173 30.5487 166.843 30.4068 167.568 30.4068C168.546 30.4068 169.383 30.6123 170.078 31.0235C170.783 31.4346 171.312 31.9877 171.664 32.6827L170.152 33.7986C169.887 33.2798 169.516 32.8833 169.036 32.6093C168.566 32.3352 168.052 32.1981 167.494 32.1981C167.054 32.1981 166.647 32.2911 166.275 32.4771C165.913 32.6631 165.6 32.9176 165.336 33.2406C165.081 33.5637 164.881 33.9356 164.734 34.3566C164.597 34.7775 164.528 35.2229 164.528 35.6927C164.528 36.1822 164.606 36.6422 164.763 37.073C164.92 37.4939 165.135 37.861 165.409 38.1742C165.683 38.4874 166.006 38.7371 166.378 38.923C166.76 39.0992 167.171 39.1873 167.612 39.1873C168.62 39.1873 169.53 38.7126 170.343 37.7631V37.0289H168.243V35.5459H172.017V40.9053H170.343V39.7306ZM178.148 39.1873C178.628 39.1873 179.029 39.0894 179.352 38.8937C179.685 38.6979 179.95 38.4434 180.145 38.1301C180.351 37.8169 180.493 37.4596 180.571 37.0583C180.659 36.6471 180.703 36.2262 180.703 35.7955V30.4802H182.715V35.7955C182.715 36.5101 182.627 37.1806 182.451 37.8071C182.284 38.4336 182.015 38.9818 181.643 39.4516C181.281 39.9215 180.811 40.2935 180.233 40.5676C179.656 40.8416 178.966 40.9787 178.163 40.9787C177.331 40.9787 176.621 40.8368 176.034 40.5529C175.456 40.2592 174.987 39.8774 174.624 39.4076C174.262 38.9279 173.998 38.3749 173.832 37.7484C173.675 37.1219 173.597 36.4709 173.597 35.7955V30.4802H175.623V35.7955C175.623 36.236 175.662 36.6618 175.74 37.073C175.828 37.4743 175.97 37.8316 176.166 38.1448C176.372 38.4581 176.636 38.7126 176.959 38.9084C177.282 39.0943 177.679 39.1873 178.148 39.1873ZM187.277 30.4802H189.069L193.033 40.9053H190.948L189.979 38.3063H186.338L185.383 40.9053H183.298L187.277 30.4802ZM189.612 36.8821L188.173 32.7855L186.675 36.8821H189.612ZM201.028 39.7306C200.196 40.5627 199.227 40.9787 198.121 40.9787C197.436 40.9787 196.79 40.8416 196.183 40.5676C195.586 40.2935 195.062 39.9166 194.612 39.437C194.171 38.9573 193.819 38.3944 193.555 37.7484C193.3 37.0925 193.173 36.3877 193.173 35.634C193.173 34.9194 193.3 34.2489 193.555 33.6224C193.819 32.9861 194.176 32.4331 194.626 31.9632C195.086 31.4835 195.625 31.1067 196.242 30.8326C196.858 30.5487 197.529 30.4068 198.253 30.4068C199.232 30.4068 200.069 30.6123 200.764 31.0235C201.469 31.4346 201.997 31.9877 202.35 32.6827L200.837 33.7986C200.573 33.2798 200.201 32.8833 199.721 32.6093C199.252 32.3352 198.738 32.1981 198.18 32.1981C197.739 32.1981 197.333 32.2911 196.961 32.4771C196.599 32.6631 196.286 32.9176 196.021 33.2406C195.767 33.5637 195.566 33.9356 195.419 34.3566C195.282 34.7775 195.214 35.2229 195.214 35.6927C195.214 36.1822 195.292 36.6422 195.449 37.073C195.605 37.4939 195.821 37.861 196.095 38.1742C196.369 38.4874 196.692 38.7371 197.064 38.923C197.446 39.0992 197.857 39.1873 198.297 39.1873C199.305 39.1873 200.216 38.7126 201.028 37.7631V37.0289H198.929V35.5459H202.702V40.9053H201.028V39.7306ZM211.668 39.1286V40.9053H204.429V30.4802H211.536V32.2569H206.455V34.7677H210.846V36.4122H206.455V39.1286H211.668Z" fill="#5F2A5D"/>
<path d="M139.676 46.9261C139.607 46.8576 139.48 46.7646 139.294 46.6471C139.118 46.5297 138.898 46.4171 138.633 46.3094C138.379 46.192 138.1 46.0941 137.797 46.0158C137.493 45.9374 137.185 45.8983 136.871 45.8983C136.314 45.8983 135.897 46.0011 135.623 46.2066C135.349 46.4122 135.212 46.701 135.212 47.0729C135.212 47.2883 135.261 47.4694 135.359 47.6162C135.467 47.7533 135.619 47.8756 135.814 47.9833C136.01 48.091 136.255 48.1889 136.548 48.277C136.852 48.3651 137.199 48.4581 137.591 48.556C138.1 48.693 138.56 48.8398 138.971 48.9964C139.392 49.1531 139.744 49.3488 140.028 49.5838C140.322 49.8187 140.547 50.1026 140.704 50.4354C140.86 50.7584 140.939 51.1598 140.939 51.6394C140.939 52.1974 140.831 52.677 140.616 53.0784C140.41 53.4699 140.126 53.7881 139.764 54.0328C139.412 54.2775 139.001 54.4586 138.531 54.5761C138.071 54.6837 137.586 54.7376 137.077 54.7376C136.294 54.7376 135.521 54.6201 134.757 54.3852C133.994 54.1503 133.308 53.8174 132.701 53.3867L133.597 51.6394C133.685 51.7275 133.842 51.845 134.067 51.9918C134.302 52.1289 134.576 52.2708 134.889 52.4176C135.202 52.5547 135.55 52.6721 135.932 52.77C136.314 52.8679 136.705 52.9169 137.106 52.9169C138.222 52.9169 138.78 52.5596 138.78 51.845C138.78 51.6198 138.717 51.429 138.589 51.2723C138.462 51.1157 138.281 50.9787 138.046 50.8612C137.811 50.7437 137.527 50.6361 137.195 50.5382C136.862 50.4403 136.49 50.3326 136.079 50.2152C135.579 50.0781 135.144 49.9313 134.772 49.7747C134.41 49.6082 134.106 49.4174 133.861 49.202C133.617 48.9769 133.431 48.7224 133.303 48.4385C133.186 48.1448 133.127 47.7973 133.127 47.396C133.127 46.8674 133.225 46.3975 133.421 45.9864C133.617 45.5753 133.886 45.2326 134.229 44.9586C134.581 44.6845 134.987 44.4789 135.447 44.3419C135.907 44.195 136.402 44.1216 136.93 44.1216C137.664 44.1216 138.34 44.2391 138.956 44.474C139.573 44.6992 140.112 44.9684 140.572 45.2816L139.676 46.9261ZM141.839 49.3342C141.839 48.6979 141.951 48.0714 142.176 47.4547C142.411 46.8282 142.749 46.2703 143.189 45.7808C143.63 45.2914 144.168 44.8949 144.805 44.5915C145.441 44.288 146.165 44.1363 146.978 44.1363C147.937 44.1363 148.764 44.3468 149.459 44.7677C150.164 45.1886 150.688 45.7368 151.03 46.4122L149.474 47.4841C149.337 47.1904 149.17 46.9457 148.975 46.7499C148.779 46.5444 148.568 46.3828 148.343 46.2654C148.118 46.1479 147.883 46.0647 147.638 46.0158C147.394 45.957 147.154 45.9277 146.919 45.9277C146.41 45.9277 145.965 46.0304 145.583 46.236C145.211 46.4416 144.898 46.7108 144.643 47.0436C144.398 47.3666 144.212 47.7386 144.085 48.1595C143.958 48.5706 143.894 48.9818 143.894 49.3929C143.894 49.853 143.968 50.2984 144.114 50.7291C144.261 51.15 144.467 51.522 144.731 51.845C145.005 52.168 145.328 52.4274 145.7 52.6232C146.082 52.819 146.498 52.9169 146.948 52.9169C147.183 52.9169 147.428 52.8875 147.682 52.8288C147.937 52.77 148.177 52.677 148.402 52.5498C148.637 52.4225 148.852 52.261 149.048 52.0652C149.244 51.8597 149.4 51.615 149.518 51.3311L151.177 52.2855C151.011 52.677 150.771 53.0245 150.458 53.328C150.154 53.6217 149.807 53.8713 149.415 54.0768C149.033 54.2824 148.622 54.439 148.182 54.5467C147.741 54.6544 147.31 54.7082 146.89 54.7082C146.146 54.7082 145.465 54.5516 144.849 54.2384C144.232 53.9251 143.698 53.5189 143.248 53.0196C142.808 52.5106 142.46 51.938 142.206 51.3017C141.961 50.6556 141.839 49.9998 141.839 49.3342ZM161.302 44.195V54.6201H159.29V50.1711H154.562V54.6201H152.536V44.195H154.562V48.4091H159.29V44.195H161.302ZM167.926 54.6935C167.162 54.6935 166.467 54.5467 165.841 54.253C165.224 53.9496 164.69 53.5531 164.24 53.0637C163.8 52.5645 163.457 51.9967 163.212 51.3604C162.968 50.7242 162.845 50.0732 162.845 49.4076C162.845 48.7126 162.973 48.0469 163.227 47.4107C163.491 46.7744 163.849 46.2115 164.299 45.7221C164.759 45.2327 165.302 44.846 165.929 44.5621C166.555 44.2685 167.236 44.1216 167.97 44.1216C168.723 44.1216 169.409 44.2782 170.025 44.5915C170.652 44.8949 171.185 45.2963 171.626 45.7955C172.066 46.2947 172.409 46.8625 172.654 47.4988C172.898 48.135 173.021 48.7811 173.021 49.4369C173.021 50.1319 172.893 50.7976 172.639 51.4339C172.384 52.0603 172.032 52.6183 171.582 53.1077C171.132 53.5874 170.593 53.9741 169.967 54.2677C169.34 54.5516 168.66 54.6935 167.926 54.6935ZM164.901 49.4076C164.901 49.8579 164.969 50.2935 165.106 50.7144C165.244 51.1353 165.439 51.5073 165.694 51.8303C165.958 52.1533 166.276 52.4127 166.648 52.6085C167.03 52.8043 167.461 52.9022 167.94 52.9022C168.43 52.9022 168.861 52.8043 169.232 52.6085C169.614 52.403 169.932 52.1338 170.187 51.8009C170.451 51.4681 170.647 51.0961 170.774 50.685C170.911 50.2641 170.98 49.8383 170.98 49.4076C170.98 48.9573 170.906 48.5217 170.76 48.1008C170.622 47.6799 170.422 47.3079 170.158 46.9848C169.903 46.6618 169.585 46.4073 169.203 46.2213C168.831 46.0255 168.41 45.9277 167.94 45.9277C167.451 45.9277 167.015 46.0304 166.634 46.236C166.252 46.4318 165.934 46.6961 165.679 47.0289C165.425 47.3519 165.229 47.7239 165.092 48.1448C164.965 48.556 164.901 48.9769 164.901 49.4076ZM179.024 54.6935C178.261 54.6935 177.566 54.5467 176.939 54.253C176.322 53.9496 175.789 53.5531 175.339 53.0637C174.898 52.5645 174.556 51.9967 174.311 51.3604C174.066 50.7242 173.944 50.0732 173.944 49.4076C173.944 48.7126 174.071 48.0469 174.325 47.4107C174.59 46.7744 174.947 46.2115 175.397 45.7221C175.857 45.2327 176.401 44.846 177.027 44.5621C177.654 44.2685 178.334 44.1216 179.068 44.1216C179.822 44.1216 180.507 44.2782 181.124 44.5915C181.75 44.8949 182.284 45.2963 182.724 45.7955C183.165 46.2947 183.507 46.8625 183.752 47.4988C183.997 48.135 184.119 48.7811 184.119 49.4369C184.119 50.1319 183.992 50.7976 183.737 51.4339C183.483 52.0603 183.131 52.6183 182.68 53.1077C182.23 53.5874 181.692 53.9741 181.065 54.2677C180.439 54.5516 179.758 54.6935 179.024 54.6935ZM175.999 49.4076C175.999 49.8579 176.068 50.2935 176.205 50.7144C176.342 51.1353 176.538 51.5073 176.792 51.8303C177.057 52.1533 177.375 52.4127 177.747 52.6085C178.128 52.8043 178.559 52.9022 179.039 52.9022C179.528 52.9022 179.959 52.8043 180.331 52.6085C180.713 52.403 181.031 52.1338 181.285 51.8009C181.55 51.4681 181.745 51.0961 181.873 50.685C182.01 50.2641 182.078 49.8383 182.078 49.4076C182.078 48.9573 182.005 48.5217 181.858 48.1008C181.721 47.6799 181.52 47.3079 181.256 46.9848C181.001 46.6618 180.683 46.4073 180.302 46.2213C179.93 46.0255 179.509 45.9277 179.039 45.9277C178.549 45.9277 178.114 46.0304 177.732 46.236C177.35 46.4318 177.032 46.6961 176.778 47.0289C176.523 47.3519 176.327 47.7239 176.19 48.1448C176.063 48.556 175.999 48.9769 175.999 49.4076ZM185.674 54.6201V44.195H187.7V52.8434H193.015V54.6201H185.674Z" fill="#5F2A5D"/>
<path d="M40.2926 36.9278C40.2921 40.4844 39.3316 43.9749 37.5124 47.031C35.6932 50.087 33.0827 52.5954 29.9565 54.2912C26.8303 55.9871 23.3043 56.8076 19.7505 56.6662C16.1968 56.5247 12.7471 55.4266 9.76552 53.4877L0.16748 56.6816L3.53278 46.9829C1.98619 44.3673 1.06379 41.4302 0.837285 38.4001C0.610784 35.3699 1.0863 32.3283 2.22684 29.5118C3.36739 26.6954 5.14222 24.18 7.41332 22.1612C9.68443 20.1424 12.3906 18.6748 15.3213 17.8723C18.2521 17.0698 21.3284 16.9542 24.3112 17.5344C27.2939 18.1146 30.1026 19.375 32.5188 21.2176C34.9351 23.0601 36.8937 25.4352 38.2425 28.1581C39.5912 30.881 40.2937 33.8783 40.2953 36.917L40.2926 36.9278Z" fill="#FECC90"/>
<path d="M25.7295 36.9278C25.7296 40.4848 26.6901 43.9758 28.5094 47.0323C30.3288 50.0888 32.9396 52.5974 36.0662 54.2933C39.1929 55.9893 42.7194 56.8097 46.2736 56.6679C49.8277 56.5261 53.2777 55.4274 56.2593 53.4877L65.8573 56.6816L62.492 46.9829C64.0386 44.3673 64.961 41.4302 65.1875 38.4001C65.414 35.3699 64.9385 32.3283 63.798 29.5118C62.6574 26.6954 60.8826 24.18 58.6115 22.1612C56.3404 20.1424 53.6342 18.6748 50.7035 17.8723C47.7727 17.0698 44.6964 16.9542 41.7136 17.5344C38.7309 18.1146 35.9222 19.375 33.506 21.2176C31.0897 23.0601 29.1311 25.4352 27.7823 28.1581C26.4336 30.881 25.7311 33.8783 25.7295 36.917V36.9278Z" fill="#5F2A5D"/>
<path d="M37.5123 47.0309C39.3315 43.9748 40.292 40.4843 40.2925 36.9277L40.2952 36.9168C40.2936 33.8782 39.5911 30.8809 38.2424 28.158C36.9867 25.623 35.2024 23.3895 33.0124 21.6064C30.8223 23.3895 29.038 25.623 27.7823 28.158C26.4336 30.8809 25.7311 33.8782 25.7295 36.9168V36.9277C25.7296 40.4847 26.6901 43.9757 28.5094 47.0322C29.6976 49.0283 31.2234 50.7908 33.0099 52.2458C34.7973 50.7905 36.3237 49.0276 37.5123 47.0309Z" fill="#FF885E"/>
<path d="M21.9532 39.83C23.587 39.4462 24.6003 37.8106 24.2165 36.1768C23.8327 34.543 22.1971 33.5296 20.5633 33.9134C18.9295 34.2973 17.9161 35.9329 18.2999 37.5667C18.6837 39.2005 20.3194 40.2139 21.9532 39.83Z" fill="white"/>
<path d="M33.7256 39.8281C35.3595 39.4443 36.3728 37.8087 35.989 36.1748C35.6052 34.541 33.9696 33.5277 32.3357 33.9115C30.7019 34.2953 29.6886 35.9309 30.0724 37.5647C30.4562 39.1986 32.0918 40.2119 33.7256 39.8281Z" fill="white"/>
<path d="M12.2856 38.0431C12.9322 36.4943 12.2008 34.7147 10.6521 34.0681C9.10335 33.4215 7.32368 34.1529 6.67709 35.7016C6.03051 37.2504 6.76186 39.03 8.3106 39.6766C9.85935 40.3232 11.639 39.5918 12.2856 38.0431Z" fill="white"/>
<path d="M47.2425 38.6413C48.2194 37.2767 47.9052 35.3784 46.5406 34.4014C45.1759 33.4245 43.2777 33.7387 42.3007 35.1033C41.3237 36.468 41.638 38.3662 43.0026 39.3432C44.3672 40.3202 46.2655 40.0059 47.2425 38.6413Z" fill="white"/>
<path d="M59.3491 38.0421C59.9957 36.4934 59.2643 34.7137 57.7156 34.0671C56.1668 33.4205 54.3872 34.1519 53.7406 35.7006C53.094 37.2494 53.8253 39.029 55.3741 39.6756C56.9228 40.3222 58.7025 39.5909 59.3491 38.0421Z" fill="white"/>
</svg>
