<svg width="73" height="74" viewBox="0 0 73 74" fill="none" xmlns="http://www.w3.org/2000/svg">
<g clip-path="url(#clip0_158_36597)">
<path d="M29.6704 56.8467H38.149V66.7869H29.6704V56.8467Z" fill="#FECC90"/>
<path d="M29.6704 56.8467H38.149V66.7869H29.6704V56.8467Z" fill="#FF885E"/>
<path d="M60.1605 55.0946C58.9411 56.3141 56.9638 56.3141 55.7442 55.0946L7.80572 7.15616C6.58625 5.93669 6.58625 3.95941 7.80572 2.7398C9.02533 1.52033 11.0025 1.52033 12.2221 2.7398L60.1605 50.6783C61.38 51.8979 61.38 53.8752 60.1605 55.0946Z" fill="#FECC90"/>
<path d="M60.1605 55.0946C58.9411 56.3141 56.9638 56.3141 55.7442 55.0946L7.80572 7.15616C6.58625 5.93669 6.58625 3.95941 7.80572 2.7398C9.02533 1.52033 11.0025 1.52033 12.2221 2.7398L60.1605 50.6783C61.38 51.8979 61.38 53.8752 60.1605 55.0946Z" fill="#FF885E"/>
<path d="M55.3976 39.3711C51.4813 47.3616 43.2219 52.8527 33.7159 52.7479C20.8173 52.6057 10.2946 42.0829 10.1527 29.1843C10.0482 19.6784 15.5393 11.4193 23.5297 7.50299C25.3275 6.62186 25.7344 4.24152 24.3187 2.82586C23.4417 1.94886 22.1028 1.71888 20.9888 2.26424C11.1153 7.09721 4.30433 17.2565 4.32672 28.9754C4.35794 45.2517 17.6492 58.5428 33.9255 58.574C45.6444 58.5964 55.8036 51.7855 60.6365 41.9121C61.1819 40.7981 60.9519 39.4592 60.0749 38.5822C58.6593 37.1664 56.2788 37.5733 55.3976 39.3711Z" fill="#FECC90"/>
<path d="M44.4212 71.9509H23.41C21.4861 71.9509 19.9263 70.3912 19.9263 68.4672C19.9263 66.5432 21.4859 64.9834 23.41 64.9834H44.4212C46.3451 64.9834 47.9049 66.5431 47.9049 68.4672C47.9049 70.3912 46.3451 71.9509 44.4212 71.9509Z" fill="#FECC90"/>
<path d="M47.0399 41.9822C54.2551 34.767 54.2551 23.0689 47.0399 15.8537C39.8247 8.63855 28.1266 8.63855 20.9114 15.8537C13.6962 23.0689 13.6962 34.767 20.9114 41.9822C28.1266 49.1974 39.8247 49.1974 47.0399 41.9822Z" fill="#9DD3FF"/>
<path d="M38.1021 46.4208C34.573 40.8158 28.3453 41.8539 27.0997 40.8158C25.2797 39.299 28.4284 36.3388 26.2694 34.8995C23.1555 32.8235 17.4468 36.2488 17.4468 36.2488C17.4468 36.2488 18.5503 41.7991 24.8953 45.0985C31.2404 48.3979 38.1021 46.4208 38.1021 46.4208Z" fill="#BDF4E3"/>
<path d="M16.7214 28.6404C23.5106 28.0954 25.1723 26.3196 25.3154 23.8326C25.4586 21.3456 19.3246 19.5371 19.3246 19.5371C19.3246 19.5371 16.9428 19.8032 16.1814 23.1873C15.4199 26.5712 16.7214 28.6404 16.7214 28.6404Z" fill="#BDF4E3"/>
<path d="M51.0374 32.9691C46.2857 35.2297 36.6519 36.4779 35.5762 30.9857C35.2091 29.1109 36.6958 25.6297 37.2869 24.8105C38.1914 23.5572 38.2654 21.6464 36.1906 21.2102C34.8293 20.9241 32.9537 20.826 32.1884 18.6538C30.7203 14.4863 38.0955 11.3662 38.0955 11.3662C38.0955 11.3662 44.0085 11.3376 49.5446 18.9096C55.0809 26.4818 51.0374 32.9691 51.0374 32.9691Z" fill="#BDF4E3"/>
<path d="M33.9823 10.4385C33.4188 10.4385 32.8617 10.4651 32.311 10.5145C40.0298 11.2821 46.0578 17.7947 46.0578 25.7154C46.0578 34.1526 39.2181 40.9924 30.7809 40.9924C22.8601 40.9924 16.3475 34.9642 15.5799 27.2454C15.5306 27.7961 15.5039 28.3533 15.5039 28.9167C15.5039 39.1221 23.777 47.3952 33.9823 47.3952C44.1876 47.3952 52.4607 39.1221 52.4607 28.9167C52.4607 18.7116 44.1876 10.4385 33.9823 10.4385Z" fill="#558BFF"/>
<path d="M27.0997 40.8155C26.9677 40.7054 26.8645 40.5871 26.7809 40.4631C23.6926 39.6273 20.9927 37.8475 19.0094 35.4521C18.0668 35.8766 17.4468 36.2484 17.4468 36.2484C17.4468 36.2484 17.7251 37.6467 18.8043 39.4567C20.7452 42.2467 23.4352 44.4756 26.5835 45.8531C32.399 48.063 38.1022 46.4203 38.1022 46.4203C34.573 40.8155 28.3453 41.8535 27.0997 40.8155Z" fill="#B1B7E3"/>
<path d="M51.0376 32.9691C51.0376 32.9691 52.252 31.02 52.4384 28.0119C52.2704 24.5334 51.1412 21.3073 49.3099 18.5936C43.8428 11.3388 38.0957 11.3662 38.0957 11.3662C38.0957 11.3662 37.7152 11.5273 37.145 11.8246C42.4047 14.2382 46.0577 19.5501 46.0577 25.716C46.0577 29.1538 44.9219 32.3263 43.0054 34.8792C45.8614 34.7748 48.9297 33.9718 51.0376 32.9691Z" fill="#B1B7E3"/>
<path d="M25.6261 19.7792C25.31 19.7792 24.9919 19.6755 24.7264 19.4622C24.1072 18.9648 24.0086 18.0597 24.506 17.4406C25.98 15.6061 28.2162 14.7328 28.3107 14.6966C29.0523 14.4118 29.8839 14.7821 30.1685 15.5236C30.4527 16.2636 30.0841 17.0937 29.3454 17.3799C29.3068 17.3951 27.719 18.0332 26.7479 19.2418C26.4639 19.5953 26.0469 19.7792 25.6261 19.7792Z" fill="white"/>
<path d="M61.1774 49.6619L58.9466 47.4311C60.0825 45.9021 61.0837 44.269 61.9279 42.5442C62.7423 40.8808 62.4061 38.8798 61.0915 37.5654C60.0874 36.5612 58.7089 36.1191 57.3084 36.3516C55.9228 36.5822 54.7257 37.4743 54.1064 38.7383C53.6887 39.5903 53.2174 40.406 52.7024 41.187L50.9116 39.3963C52.8038 36.3502 53.8985 32.7595 53.8985 28.9175C53.8985 17.9357 44.9641 9.00117 33.982 9.00117C30.14 9.00117 26.5493 10.0959 23.5034 11.988L21.7136 10.1983C22.4946 9.68341 23.3105 9.2119 24.1624 8.79443C25.4262 8.17493 26.3183 6.97785 26.5489 5.59227C26.7818 4.1923 26.3394 2.81342 25.3352 1.80925C24.0207 0.494675 22.0199 0.158761 20.3564 0.972882C18.6318 1.81694 16.9987 2.81813 15.4697 3.95405L13.2389 1.72327C11.4605 -0.0549636 8.56719 -0.054821 6.78881 1.72327C5.01072 3.50151 5.01072 6.39484 6.78881 8.17322L9.01816 10.4026C8.56918 11.0068 8.13974 11.6273 7.73353 12.2654C4.55262 17.2619 2.87732 23.041 2.88873 28.9781C2.91767 44.1143 13.856 56.7687 28.2323 59.4753V63.5461H23.4103C20.6965 63.5461 18.4886 65.754 18.4886 68.4678C18.4886 71.1816 20.6965 73.3896 23.4103 73.3896H44.4215C47.1353 73.3896 49.3431 71.1818 49.3431 68.4678C49.3431 65.754 47.1353 63.5461 44.4215 63.5461H39.5868V59.5033C43.4995 58.7873 47.2476 57.3235 50.6353 55.1667C51.2733 54.7605 51.8938 54.3312 52.4979 53.8822L54.7273 56.1115C55.5887 56.973 56.7339 57.4475 57.9523 57.4475C59.1706 57.4475 60.3158 56.973 61.1772 56.1117C62.9556 54.3333 62.9555 51.44 61.1774 49.6619ZM50.9512 43.5028C50.2133 44.3564 49.4137 45.1496 48.5622 45.8791L46.8169 44.1337C47.6764 43.4077 48.4735 42.6104 49.1994 41.7511L50.9512 43.5028ZM15.2761 16.6605L17.0533 18.4377C15.1607 21.4839 14.0659 25.0749 14.0659 28.9173C14.0659 39.8993 23.0002 48.8338 33.9822 48.8338C37.8246 48.8338 41.4158 47.7388 44.4619 45.8462L46.2403 47.6246C42.5811 50.0232 38.2377 51.3607 33.7317 51.3098C21.6557 51.1768 11.7233 41.2441 11.5906 29.1684C11.5409 24.662 12.8783 20.319 15.2761 16.6605ZM26.5471 41.4786C27.0889 41.9302 27.9364 42.0679 29.1094 42.2585C31.2173 42.6011 34.281 43.1013 36.5514 45.7644C35.7132 45.8917 34.8553 45.958 33.9822 45.958C27.3201 45.958 21.5397 42.1144 18.7393 36.5289C20.6058 35.5993 23.9475 34.3891 25.7905 35.6172C26.3147 35.9668 26.2935 36.403 25.9476 37.7213C25.6518 38.8495 25.2463 40.3945 26.5471 41.4786ZM19.2232 20.4077C21.5047 21.1059 24.5203 22.6301 24.454 23.7827C24.3868 24.9488 24.2625 27.1047 16.9826 27.7519C17.1631 25.0914 17.9562 22.5964 19.2232 20.4077ZM51.0227 28.9175C51.0227 30.0304 50.9142 31.1185 50.7094 32.1724C50.6953 32.1782 50.6809 32.1834 50.6669 32.1901C47.0818 33.8956 41.2752 34.7305 38.3461 33.2547C37.2665 32.7108 36.6375 31.9143 36.4231 30.8199C36.1223 29.2839 37.4845 26.0113 37.9866 25.3154C38.7252 24.2922 38.9486 23.049 38.57 22.0706C38.2327 21.1989 37.4508 20.5935 36.3684 20.3661C36.2115 20.3331 36.0478 20.3023 35.8802 20.271C34.41 19.9959 33.4827 19.7305 33.0024 18.3671C32.0146 15.5635 36.5742 13.0654 38.0106 12.3593C45.4688 14.174 51.0227 20.9089 51.0227 28.9175ZM35.2508 11.9243C33.023 13.3589 30.2833 15.8418 31.375 18.9406C32.2209 21.3419 34.2321 21.7181 35.5629 21.9671C35.7178 21.996 35.8686 22.0243 36.0135 22.0546C36.5193 22.161 36.838 22.3759 36.9609 22.6932C37.1259 23.1195 36.9757 23.7676 36.5875 24.3056C35.9411 25.2016 34.2981 28.9469 34.7298 31.1515C35.0444 32.7583 36.0266 34.0182 37.5697 34.7958C38.9319 35.4821 40.6163 35.7582 42.377 35.7582C45.093 35.7582 47.9873 35.1002 50.1588 34.2764C48.3677 39.6692 43.9507 43.8738 38.4305 45.3679C35.7161 41.5868 31.783 40.9449 29.3863 40.5553C28.6984 40.4435 27.842 40.3043 27.6518 40.1531C27.2372 39.8075 27.3226 39.2801 27.6168 38.1594C27.9189 37.0075 28.3757 35.2669 26.7478 34.1816C24.0606 32.3901 19.9596 34.0101 18.0462 34.9508C17.3973 33.2426 17.0157 31.404 16.9524 29.4859C23.2184 28.958 25.9811 27.2781 26.1766 23.8819C26.328 21.2485 22.0464 19.5269 20.1999 18.9089C23.3006 14.6507 28.3232 11.8771 33.9822 11.8771C34.4089 11.8771 34.8319 11.8932 35.2508 11.9243ZM21.1487 13.7004C20.2892 14.4264 19.492 15.2236 18.7659 16.083L17.0216 14.3387C17.7511 13.4871 18.5442 12.6875 19.3979 11.9495L21.1487 13.7004ZM8.82255 6.13963C8.16569 5.48277 8.16569 4.41386 8.82255 3.75686C9.15105 3.42836 9.58235 3.26426 10.0139 3.26426C10.4452 3.26426 10.8768 3.42851 11.2053 3.75686L13.2295 5.78104C12.3938 6.53129 11.6 7.32802 10.8484 8.16552L8.82255 6.13963ZM46.4673 68.4679C46.4673 69.596 45.5495 70.5137 44.4216 70.5137H23.4103C22.2822 70.5137 21.3646 69.596 21.3646 68.4679C21.3646 67.3399 22.2822 66.4222 23.4103 66.4222H44.4215C45.5495 66.4222 46.4673 67.3399 46.4673 68.4679ZM36.711 63.5463H31.1084V59.8773C32.0357 59.963 32.974 60.0101 33.9227 60.0119H33.9827C34.8968 60.0119 35.8069 59.9716 36.7111 59.8923V63.5463H36.711ZM33.9809 57.136C33.9639 57.136 33.9452 57.136 33.9283 57.136C18.4285 57.1062 5.79433 44.4722 5.76467 28.9725C5.74414 18.2575 11.9681 8.28072 21.6211 3.55568C21.8237 3.45645 22.0414 3.4084 22.2578 3.4084C22.6397 3.4084 23.0175 3.55825 23.3019 3.84269C23.6414 4.18203 23.791 4.64769 23.7123 5.12019C23.6327 5.59897 23.3354 5.99691 22.897 6.21177C18.6691 8.28386 15.1047 11.4892 12.5892 15.4808C10.0011 19.5876 8.66143 24.3317 8.71504 29.2001C8.78776 35.8164 11.4225 42.0551 16.1338 46.7664C20.8453 51.4779 27.0838 54.1127 33.7001 54.1857C38.5671 54.2375 43.3128 52.8997 47.4197 50.3118C51.4115 47.7963 54.6168 44.2318 56.689 40.0039C56.9039 39.5654 57.3018 39.2682 57.7806 39.1885C58.2534 39.1098 58.7186 39.2595 59.0582 39.5989C59.5038 40.0444 59.6191 40.72 59.3451 41.2797C54.6275 50.9171 44.6765 57.136 33.9809 57.136ZM59.1436 54.0781C58.8254 54.3962 58.4024 54.5716 57.9523 54.5716C57.5023 54.5716 57.0793 54.3963 56.761 54.0781L54.7351 52.0522C55.5725 51.3007 56.3694 50.5069 57.1195 49.6713L59.1436 51.6953C59.8006 52.3523 59.8006 53.4212 59.1436 54.0781Z" fill="#440A29"/>
<path d="M41.5019 20.7958C41.0254 20.7958 40.6392 20.4096 40.6392 19.9331V18.7192C40.6392 18.2427 41.0255 17.8564 41.5019 17.8564C41.9783 17.8564 42.3646 18.2428 42.3646 18.7192V19.9331C42.3646 20.4094 41.9784 20.7958 41.5019 20.7958Z" fill="#440A29"/>
<path d="M45.8696 23.9402C45.3931 23.9402 45.0068 23.5538 45.0068 23.0775V21.8637C45.0068 21.3872 45.3932 21.001 45.8696 21.001C46.3461 21.001 46.7323 21.3874 46.7323 21.8637V23.0775C46.7323 23.5538 46.3459 23.9402 45.8696 23.9402Z" fill="#440A29"/>
<path d="M42.4189 27.784C41.9424 27.784 41.5562 27.3976 41.5562 26.9212V25.7075C41.5562 25.231 41.9425 24.8447 42.4189 24.8447C42.8954 24.8447 43.2816 25.2311 43.2816 25.7075V26.9212C43.2818 27.3976 42.8954 27.784 42.4189 27.784Z" fill="#440A29"/>
<path d="M9.51219 61.0318C9.79057 59.5854 8.84365 58.1872 7.39718 57.9088C5.95071 57.6304 4.55245 58.5773 4.27407 60.0237C3.99569 61.47 4.94262 62.8683 6.38908 63.1467C7.83555 63.425 9.23381 62.4782 9.51219 61.0318Z" fill="#FECC90"/>
<path d="M45.8461 5.17333C45.9459 4.55764 45.5278 3.97761 44.9122 3.87782C44.2965 3.77802 43.7166 4.19624 43.6168 4.81194C43.5169 5.42764 43.9351 6.00766 44.5507 6.10746C45.1663 6.20725 45.7463 5.78903 45.8461 5.17333Z" fill="#FECC90"/>
<path d="M66.4896 22.1089L67.3955 24.6565C67.4343 24.7655 67.511 24.8519 67.608 24.8957L69.8714 25.9154C70.1912 26.0596 70.1912 26.569 69.8714 26.713L67.608 27.7327C67.511 27.7764 67.4343 27.8628 67.3955 27.9718L66.4896 30.5194C66.3616 30.8793 65.9089 30.8793 65.781 30.5194L64.8749 27.9718C64.8361 27.8628 64.7594 27.7764 64.6625 27.7327L62.399 26.713C62.0792 26.569 62.0792 26.0594 62.399 25.9154L64.6625 24.8957C64.7594 24.8521 64.8361 24.7655 64.8749 24.6565L65.781 22.1089C65.9089 21.7489 66.3616 21.7489 66.4896 22.1089Z" fill="#FEF2A8"/>
<path d="M61.4169 2.76136L62.6619 6.19578C62.7152 6.34278 62.8207 6.45941 62.9539 6.51829L66.0641 7.89303C66.5035 8.08722 66.5035 8.77416 66.0641 8.96835L62.9539 10.3431C62.8207 10.402 62.7152 10.5185 62.6619 10.6655L61.4169 14.0999C61.2409 14.5851 60.619 14.5851 60.4431 14.0999L59.1981 10.6655C59.1447 10.5185 59.0392 10.4018 58.9061 10.3431L55.7959 8.96835C55.3565 8.77416 55.3565 8.08722 55.7959 7.89303L58.9061 6.51829C59.0392 6.45941 59.1447 6.34292 59.1981 6.19578L60.4431 2.76136C60.619 2.27616 61.2411 2.27616 61.4169 2.76136Z" fill="#FEF2A8"/>
</g>
<defs>
<clipPath id="clip0_158_36597">
<rect width="73" height="73" fill="white" transform="translate(0 0.389648)"/>
</clipPath>
</defs>
</svg>
