<svg width="1920" height="718" viewBox="0 0 1920 718" fill="none" xmlns="http://www.w3.org/2000/svg">
<mask id="mask0_233_7538" style="mask-type:alpha" maskUnits="userSpaceOnUse" x="484" y="116" width="953" height="602">
<rect width="953" height="602" transform="matrix(-1 0 0 1 1437 116)" fill="#C4C4C4"/>
</mask>
<g mask="url(#mask0_233_7538)">
<path d="M953.4 621.969L960.034 616.56L966.668 621.968C979.589 632.499 993.509 641.849 1008.27 649.867C1050.87 672.999 1098.92 684.191 1147.34 682.262C1195.76 680.333 1242.76 665.354 1283.39 638.907L1287.63 636.144L1292.43 637.744L1408.1 676.275L1367.44 558.955L1365.84 554.362L1368.32 550.176C1389.39 514.496 1401.96 474.429 1405.05 433.092C1408.13 391.755 1401.65 350.262 1386.11 311.841C1370.57 273.421 1346.38 239.107 1315.44 211.57C1284.49 184.033 1247.62 164.013 1207.68 153.067C1167.75 142.121 1125.84 140.544 1085.19 148.458C1044.55 156.372 1006.28 173.564 973.359 198.698L966.988 190.352L973.359 198.698C971.087 200.432 968.845 202.201 966.634 204.004L960 209.41L953.366 204.004C951.155 202.201 948.913 200.432 946.641 198.698L953.012 190.352L946.641 198.698C913.717 173.564 875.447 156.372 834.806 148.458C794.165 140.544 752.248 142.121 712.315 153.067C672.383 164.013 635.509 184.033 604.563 211.57C573.616 239.107 549.431 273.421 533.889 311.841C518.347 350.262 511.867 391.755 514.953 433.092C518.04 474.429 530.61 514.496 551.685 550.176L554.157 554.362L552.565 558.955L511.9 676.275L627.565 637.744L632.37 636.144L636.614 638.908C677.241 665.365 724.248 680.352 772.675 682.286C821.102 684.22 869.152 673.03 911.755 649.897C926.535 641.871 940.468 632.512 953.4 621.969ZM947.496 464.328C918.713 457.559 900.878 428.722 907.634 399.931C914.391 371.138 943.194 353.262 971.981 360.031C1000.76 366.8 1018.6 395.638 1011.84 424.428C1005.09 453.222 976.283 471.098 947.496 464.328ZM1114.16 464.355C1085.38 457.587 1067.55 428.749 1074.3 399.959C1081.06 371.165 1109.86 353.289 1138.65 360.059C1167.43 366.828 1185.27 395.665 1178.51 424.455C1171.75 453.249 1142.95 471.125 1114.16 464.355ZM1243.74 432.853C1232.36 405.561 1245.23 374.189 1272.51 362.788C1299.8 351.383 1331.14 364.287 1342.53 391.585C1353.91 418.877 1341.04 450.249 1313.76 461.651C1286.47 473.055 1255.13 460.152 1243.74 432.853ZM749.996 443.391C732.795 419.34 738.324 385.883 762.357 368.659C786.396 351.43 819.834 356.975 837.04 381.033C854.24 405.084 848.711 438.541 824.678 455.765C800.639 472.994 767.201 467.449 749.996 443.391ZM577.447 432.836C566.065 405.544 578.934 374.172 606.215 362.77C633.502 351.366 664.846 364.27 676.231 391.568C687.613 418.86 674.743 450.232 647.463 461.634C620.176 473.038 588.831 460.134 577.447 432.836Z" stroke="#F6E6D4" stroke-width="21"/>
</g>
</svg>
