<svg width="33" height="32" viewBox="0 0 33 32" fill="none" xmlns="http://www.w3.org/2000/svg">
<g clip-path="url(#clip0_158_13442)">
<path d="M7.16748 0C3.30148 0 0.16748 3.134 0.16748 7V25C0.16748 28.866 3.30148 32 7.16748 32H10.8342V0H7.16748Z" fill="#73AF00"/>
<path d="M21.5013 0H10.8345V32H21.5013V0Z" fill="#F5F5F5"/>
<path d="M25.1677 0H21.501V32H25.1677C29.0337 32 32.1677 28.866 32.1677 25V7C32.1677 3.134 29.0337 0 25.1677 0Z" fill="#FF4B55"/>
<path d="M17.119 16.4932L16.1675 16.969V17.4448H16.6433L17.119 16.4932Z" fill="#FFD250"/>
<path d="M16.1676 18.6344C16.0361 18.6344 15.9297 18.528 15.9297 18.3965V17.4449C15.9297 17.3134 16.0361 17.207 16.1676 17.207C16.2991 17.207 16.4054 17.3134 16.4054 17.4449V18.3965C16.4054 18.528 16.2991 18.6344 16.1676 18.6344Z" fill="#00C3A0"/>
<path d="M16.1676 17.6831C15.2333 17.6831 14.3309 17.3226 13.6267 16.6679C13.5305 16.5785 13.525 16.4279 13.6144 16.3317C13.7045 16.2358 13.8548 16.2306 13.9506 16.3194C14.5665 16.8921 15.3538 17.2073 16.1676 17.2073C16.9815 17.2073 17.7688 16.8921 18.3847 16.3194C18.4807 16.2304 18.631 16.2353 18.7209 16.3317C18.8103 16.4279 18.8048 16.5785 18.7086 16.6679C18.0044 17.3226 17.102 17.6831 16.1676 17.6831Z" fill="#00C3A0"/>
<path d="M16.1675 18.6345C15.5576 18.6345 14.9669 18.4563 14.459 18.119L14.7224 17.7227C15.5811 18.2932 16.7539 18.2932 17.6125 17.7227L17.876 18.119C17.3681 18.4563 16.7774 18.6345 16.1675 18.6345Z" fill="#00AADC"/>
<path d="M15.7908 15.4229L15.2655 16.2357L15.1763 16.5033L16.5442 16.1861L15.7908 15.4229Z" fill="#732D37"/>
<path d="M14.7114 16.7649C14.0826 16.7649 13.3278 16.2357 13.1274 15.0564L13.5968 14.977C13.7631 15.9576 14.3664 16.2899 14.7286 16.2889C14.8397 16.2859 14.9556 16.2475 14.9647 16.169C14.9754 16.0752 14.9779 16.0529 14.7291 15.9688C14.5939 15.923 14.4406 15.8712 14.333 15.7481C13.8979 15.2512 14.487 14.7252 14.77 14.4724C14.8199 14.4278 14.8406 14.3899 14.8353 14.3755C14.8198 14.3349 14.7264 14.2734 14.6211 14.2734C14.3189 14.2734 14.0896 14.1026 14.0229 13.828C13.9536 13.5436 14.0844 13.2439 14.3335 13.1152L14.5519 13.538C14.4936 13.5682 14.4703 13.6542 14.4852 13.7155C14.491 13.7402 14.5052 13.7975 14.6211 13.7975C14.9124 13.7975 15.1896 13.9695 15.2797 14.206C15.3183 14.3068 15.3763 14.5689 15.0869 14.8274C14.7744 15.1064 14.5874 15.3165 14.691 15.4347C14.7144 15.4614 14.8151 15.4956 14.8815 15.5179C15.0957 15.5904 15.4944 15.7252 15.4372 16.2235C15.4014 16.5369 15.1217 16.7544 14.7416 16.7645C14.7317 16.7647 14.7214 16.7649 14.7114 16.7649Z" fill="#AAD264"/>
<path d="M16.6433 14.115C16.6433 14.115 17.1191 13.1634 16.1675 12.6876C16.1675 12.6876 19.498 12.2118 19.0222 16.494L19.022 16.4938C18.7097 16.244 18.2461 15.7875 18.0805 15.4235L16.6432 14.5908V14.115H16.6433Z" fill="#874150"/>
<path d="M16.1675 15.0664L18.5465 16.4938C18.5465 16.4938 18.5465 16.4938 17.5949 16.9696L16.1675 15.5422V15.0664Z" fill="#732D37"/>
<path d="M15.2158 13.6388C15.4786 13.6388 15.6916 13.8518 15.6916 14.1146L15.6911 14.1151C15.4073 14.399 15.3369 14.8326 15.5164 15.1916L15.6239 15.4067C15.6688 15.4963 15.7278 15.5782 15.7986 15.6491L17.119 16.9695V16.3119C17.119 15.4927 16.9283 14.6848 16.5619 13.9521C16.3201 13.4686 15.8259 13.1631 15.2853 13.1631H15.2158V13.6388Z" fill="#783C46"/>
<path d="M15.216 13.1631L14.7402 13.6389V14.1147C14.7402 14.1147 15.3062 13.8277 15.497 13.7363C15.6303 13.6725 15.606 13.5213 15.5295 13.4486C15.47 13.392 15.216 13.1631 15.216 13.1631Z" fill="#FFD250"/>
<path d="M16.1673 19.5862C13.9372 19.5862 12.123 17.7721 12.123 15.542H12.5989C12.5989 17.5097 14.1995 19.1105 16.1674 19.1105C18.1352 19.1105 19.7359 17.5098 19.7359 15.542H20.2117C20.2115 17.7721 18.3974 19.5862 16.1673 19.5862Z" fill="#AAD264"/>
<path d="M12.6242 17.2767C12.8026 17.2767 12.9471 17.1322 12.9471 16.9538C12.9471 16.7754 12.8026 16.6309 12.6242 16.6309C12.4459 16.6309 12.3013 16.7754 12.3013 16.9538C12.3013 17.1322 12.4459 17.2767 12.6242 17.2767Z" fill="#FFE15A"/>
<path d="M13.3381 18.4164C13.5164 18.4164 13.661 18.2718 13.661 18.0934C13.661 17.9151 13.5164 17.7705 13.3381 17.7705C13.1597 17.7705 13.0151 17.9151 13.0151 18.0934C13.0151 18.2718 13.1597 18.4164 13.3381 18.4164Z" fill="#FFE15A"/>
<path d="M14.4977 19.2797C14.6761 19.2797 14.8207 19.1351 14.8207 18.9567C14.8207 18.7784 14.6761 18.6338 14.4977 18.6338C14.3194 18.6338 14.1748 18.7784 14.1748 18.9567C14.1748 19.1351 14.3194 19.2797 14.4977 19.2797Z" fill="#FFE15A"/>
<path d="M19.7443 17.2767C19.9227 17.2767 20.0673 17.1322 20.0673 16.9538C20.0673 16.7754 19.9227 16.6309 19.7443 16.6309C19.566 16.6309 19.4214 16.7754 19.4214 16.9538C19.4214 17.1322 19.566 17.2767 19.7443 17.2767Z" fill="#FFE15A"/>
<path d="M19.0305 18.4164C19.2088 18.4164 19.3534 18.2718 19.3534 18.0934C19.3534 17.9151 19.2088 17.7705 19.0305 17.7705C18.8521 17.7705 18.7075 17.9151 18.7075 18.0934C18.7075 18.2718 18.8521 18.4164 19.0305 18.4164Z" fill="#FFE15A"/>
<path d="M17.8703 19.2797C18.0487 19.2797 18.1932 19.1351 18.1932 18.9567C18.1932 18.7784 18.0487 18.6338 17.8703 18.6338C17.6919 18.6338 17.5474 18.7784 17.5474 18.9567C17.5474 19.1351 17.6919 19.2797 17.8703 19.2797Z" fill="#FFE15A"/>
<path d="M16.4052 18.8725H15.9294C15.6667 18.8725 15.4536 18.6595 15.4536 18.3967C15.4536 18.134 15.6666 17.9209 15.9294 17.9209H16.4052C16.668 17.9209 16.8811 18.1339 16.8811 18.3967C16.8811 18.6595 16.6681 18.8725 16.4052 18.8725Z" fill="#FFB478"/>
<path d="M18.0806 15.4235C18.2392 15.8894 18.5762 16.3156 19.022 16.4938L19.0223 16.494C19.498 12.2118 16.1675 12.6876 16.1675 12.6876C18.5465 12.6876 18.0806 15.4235 18.0806 15.4235Z" fill="#9B4B5A"/>
</g>
<defs>
<clipPath id="clip0_158_13442">
<rect width="32" height="32" fill="white" transform="translate(0.16748)"/>
</clipPath>
</defs>
</svg>
