<svg width="73" height="74" viewBox="0 0 73 74" fill="none" xmlns="http://www.w3.org/2000/svg">
<g clip-path="url(#clip0_158_36596)">
<path d="M3.39255 7.01562H23.5909C24.2609 7.01562 24.8845 7.35781 25.2444 7.92299L48.3443 44.2047L23.7788 44.8734L1.73594 10.0236C0.910411 8.71844 1.84815 7.01562 3.39255 7.01562Z" fill="#FFA585"/>
<path d="M30.64 41.9192H38.1759L15.7635 6.97461H8.22754L30.64 41.9192Z" fill="#9DD3FF"/>
<path d="M2.13892 8.94218C1.77891 8.40565 1.83537 7.80683 2.15988 7.44824C1.43487 8.03852 1.16782 9.12496 1.73585 10.0231L17.3922 34.7758L2.13892 8.94218Z" fill="#CB2CFF"/>
<path d="M25.2443 7.92314C24.8844 7.35796 24.2608 7.01562 23.5908 7.01562H3.39247C3.12542 7.01562 2.87719 7.06752 2.65234 7.15849C2.76555 7.13069 2.88803 7.11871 3.02048 7.1294L15.6063 8.14099C16.0237 8.1745 16.4295 8.42159 16.682 8.79586L25.6526 22.1526C29.2681 27.5359 25.4115 34.7742 18.9268 34.776L17.3924 34.7764L23.7789 44.8736L48.3444 44.2047L25.2443 7.92314Z" fill="#FF885E"/>
<path d="M26.506 23.791C27.7086 26.9009 26.802 30.2993 24.5854 32.4802L30.6396 41.9195H38.1756L26.5485 23.791H26.506Z" fill="#A7ADF1"/>
<path d="M69.6071 7.01562H50.0473C49.3885 7.01562 48.7737 7.34655 48.411 7.89647L24.019 44.8736H49.0893L71.2609 10.028C72.0913 8.72314 71.1538 7.01562 69.6071 7.01562Z" fill="#FFA585"/>
<path d="M69.6071 7.01562H65.9695L42.7879 39.0162L25.5719 42.5193L24.019 44.8734H49.0893L71.2609 10.028C72.0913 8.72314 71.1538 7.01562 69.6071 7.01562Z" fill="#FF885E"/>
<path d="M42.4613 41.9192H34.9253L57.3377 6.97461H64.8737L42.4613 41.9192Z" fill="#9DD3FF"/>
<path d="M48.5097 61.7837C55.1444 55.149 55.1444 44.392 48.5097 37.7573C41.875 31.1226 31.1181 31.1226 24.4834 37.7573C17.8487 44.392 17.8487 55.149 24.4834 61.7837C31.1181 68.4184 41.875 68.4184 48.5097 61.7837Z" fill="#FECC90"/>
<path d="M36.5053 32.7803C35.7492 32.7803 35.0049 32.8303 34.2749 32.926C40.4367 33.8606 45.1591 39.1802 45.1591 45.603C45.1591 52.6849 39.4181 58.4258 32.3363 58.4258C25.9136 58.4258 20.5938 53.7036 19.6594 47.5418C19.5637 48.2718 19.5137 49.0161 19.5137 49.772C19.5137 59.1564 27.1211 66.7638 36.5054 66.7638C45.8896 66.7638 53.4972 59.1564 53.4972 49.772C53.497 40.3878 45.8896 32.7803 36.5053 32.7803Z" fill="#FF885E"/>
<path d="M72.5813 7.34313C71.9853 6.25755 70.8459 5.58315 69.6074 5.58315H50.0474C48.9038 5.58315 47.8449 6.15318 47.2152 7.10774L36.6352 23.1466L26.4529 7.15365C25.8267 6.17029 24.7569 5.58301 23.591 5.58301H3.39257C2.15599 5.58301 1.01736 6.25598 0.420815 7.33914C-0.175732 8.42231 -0.135525 9.74444 0.525467 10.7894L20.0038 41.5848C18.7743 44.0527 18.0814 46.8328 18.0814 49.7721C18.0814 59.9312 26.3464 68.1965 36.5056 68.1965C46.6647 68.1965 54.93 59.9314 54.93 49.7721C54.93 46.7881 54.2161 43.968 52.9515 41.4723L72.4697 10.7971C73.1345 9.75228 73.1773 8.42872 72.5813 7.34313ZM42.2378 32.2619C42.2378 32.2619 57.4388 8.5569 57.5345 8.44812H63.1121L46.5086 34.3069C45.1909 33.4518 43.7577 32.7608 42.2378 32.2619ZM49.6068 8.68522C49.7048 8.53666 49.8695 8.44812 50.0474 8.44812H55.4856L40.501 31.7854C39.214 31.4997 37.8772 31.3479 36.5056 31.3479C35.8596 31.3479 35.2213 31.3817 34.5921 31.4468L49.6068 8.68522ZM26.7386 34.1568L10.2313 8.44812H15.6874C15.783 8.5569 30.8055 31.9841 30.8055 31.9841L30.5804 32.3254C29.2217 32.7881 27.9345 33.4061 26.7386 34.1568ZM24.036 8.69235L34.9069 25.7665L31.8406 30.4148L17.7364 8.44812H23.591C23.7724 8.44812 23.9388 8.53936 24.036 8.69235ZM2.94673 9.25767C2.80158 9.02855 2.8743 8.82324 2.93033 8.72115C2.98665 8.61907 3.12125 8.44797 3.39257 8.44797H8.19104C8.28186 8.55704 25.3258 35.138 25.3258 35.138C23.9392 36.1998 22.7073 37.4535 21.6704 38.8597L2.94673 9.25767ZM36.5056 65.3314C27.9263 65.3314 20.9464 58.3514 20.9464 49.7721C20.9464 41.1927 27.9263 34.213 36.5056 34.213C45.0851 34.213 52.065 41.1929 52.065 49.7721C52.065 58.3516 45.0851 65.3314 36.5056 65.3314ZM70.0526 9.2591L51.2753 38.7698C50.3082 37.4749 49.175 36.3112 47.9076 35.3098C47.9076 35.3098 65.0716 8.54635 65.1526 8.44812H69.6073C69.8789 8.44812 70.0136 8.61964 70.0698 8.72186C70.126 8.82409 70.1984 9.02983 70.0526 9.2591Z" fill="#440A29"/>
<path d="M36.5055 60.8685C30.387 60.8685 25.4092 55.8907 25.4092 49.7721C25.4092 43.6536 30.387 38.6758 36.5055 38.6758C42.6239 38.6758 47.6018 43.6536 47.6018 49.7721C47.6018 55.8907 42.6239 60.8685 36.5055 60.8685ZM36.5055 40.3947C31.3347 40.3947 27.1281 44.6013 27.1281 49.7721C27.1281 54.9428 31.3347 59.1494 36.5055 59.1494C41.6762 59.1494 45.8828 54.9428 45.8828 49.7721C45.8828 44.6013 41.6762 40.3947 36.5055 40.3947Z" fill="#440A29"/>
<path d="M41.9557 51.2247C41.481 51.2247 41.0962 50.8399 41.0962 50.3652V48.5362C41.0962 48.0616 41.481 47.6768 41.9557 47.6768C42.4303 47.6768 42.8151 48.0616 42.8151 48.5362V50.3652C42.8153 50.8399 42.4303 51.2247 41.9557 51.2247Z" fill="#440A29"/>
<path d="M38.6993 56.4942C38.2247 56.4942 37.8398 56.1094 37.8398 55.6348V53.8058C37.8398 53.3311 38.2247 52.9463 38.6993 52.9463C39.1739 52.9463 39.5588 53.3311 39.5588 53.8058V55.6348C39.5588 56.1093 39.1739 56.4942 38.6993 56.4942Z" fill="#440A29"/>
<path d="M14.2949 59.7835C14.6324 58.3559 13.7486 56.9249 12.3209 56.5874C10.8932 56.2499 9.46222 57.1337 9.12474 58.5614C8.78725 59.9891 9.67105 61.4201 11.0987 61.7575C12.5264 62.095 13.9574 61.2112 14.2949 59.7835Z" fill="#FECC90"/>
<path d="M62.591 44.8741C62.591 45.4955 62.0873 45.9992 61.4659 45.9992C60.8446 45.9992 60.3408 45.4955 60.3408 44.8741C60.3408 44.2528 60.8446 43.749 61.4659 43.749C62.0873 43.7489 62.591 44.2528 62.591 44.8741Z" fill="#FECC90"/>
<path d="M9.76411 42.8353L10.6666 45.3732C10.7053 45.4819 10.7817 45.568 10.8784 45.6115L13.1332 46.6273C13.4518 46.7709 13.4518 47.2784 13.1332 47.4219L10.8784 48.4378C10.7818 48.4813 10.7053 48.5674 10.6666 48.6761L9.76411 51.2139C9.63665 51.5725 9.18567 51.5725 9.05821 51.2139L8.15569 48.6761C8.11705 48.5674 8.04063 48.4813 7.94396 48.4378L5.68909 47.4219C5.37057 47.2784 5.37057 46.7709 5.68909 46.6273L7.94382 45.6115C8.04034 45.568 8.11691 45.4819 8.15555 45.3732L9.05806 42.8353C9.18553 42.4768 9.63651 42.4768 9.76411 42.8353Z" fill="#FEF2A8"/>
<path d="M65.0254 53.508L66.2656 56.9293C66.3187 57.0757 66.4238 57.1919 66.5564 57.2505L69.6548 58.62C70.0925 58.8135 70.0925 59.4977 69.6548 59.6912L66.5564 61.0607C66.4238 61.1193 66.3186 61.2353 66.2656 61.3819L65.0254 64.8032C64.8502 65.2865 64.2305 65.2865 64.0553 64.8032L62.8152 61.3819C62.7621 61.2355 62.6569 61.1194 62.5243 61.0607L59.4259 59.6912C58.9882 59.4977 58.9882 58.8135 59.4259 58.62L62.5243 57.2505C62.657 57.1919 62.7621 57.0759 62.8152 56.9293L64.0553 53.508C64.2307 53.0247 64.8502 53.0247 65.0254 53.508Z" fill="#FEF2A8"/>
</g>
<defs>
<clipPath id="clip0_158_36596">
<rect width="73" height="73" fill="white" transform="translate(0 0.389648)"/>
</clipPath>
</defs>
</svg>
