<svg width="33" height="32" viewBox="0 0 33 32" fill="none" xmlns="http://www.w3.org/2000/svg">
<g clip-path="url(#clip0_158_13448)">
<path d="M25.1675 0H7.16748C3.30148 0 0.16748 3.134 0.16748 7V25C0.16748 28.866 3.30148 32 7.16748 32H25.1675C29.0335 32 32.1675 28.866 32.1675 25V7C32.1675 3.134 29.0335 0 25.1675 0Z" fill="#FF4B55"/>
<path d="M7.29389 5.44929L8.08901 7.83341L10.6021 7.85291C10.9275 7.85541 11.0624 8.27066 10.8007 8.46398L8.77895 9.95691L9.53701 12.3531C9.63513 12.6634 9.28195 12.92 9.0172 12.7307L6.97257 11.2693L4.92795 12.7307C4.66326 12.9199 4.31001 12.6633 4.40813 12.3531L5.1662 9.95691L3.14445 8.46398C2.8827 8.27066 3.01763 7.85548 3.34301 7.85291L5.85613 7.83341L6.65126 5.44929C6.75432 5.1406 7.19095 5.1406 7.29389 5.44929Z" fill="#FFE15A"/>
<path d="M16.4196 6.03673L16.9898 6.81424L17.91 6.52648C18.0291 6.48923 18.1271 6.62505 18.0542 6.72636L17.4909 7.50886L18.0489 8.29511C18.1212 8.39692 18.0222 8.53205 17.9033 8.49405L16.9851 8.20017L16.4098 8.9738C16.3353 9.07399 16.1761 9.02167 16.1756 8.89686L16.1714 7.93274L15.2578 7.62467C15.1395 7.5848 15.1401 7.4173 15.2586 7.37817L16.1743 7.07623L16.185 6.11217C16.1864 5.9873 16.3458 5.93605 16.4196 6.03673Z" fill="#FFE15A"/>
<path d="M12.9485 3.71881L13.907 3.823L14.3159 2.94987C14.3689 2.83681 14.5352 2.85619 14.5607 2.97843L14.7579 3.92218L15.7146 4.04125C15.8385 4.05668 15.8714 4.22087 15.7631 4.28287L14.9264 4.76193L15.1089 5.70862C15.1325 5.83118 14.9865 5.91331 14.894 5.82943L14.1799 5.18175L13.3359 5.64781C13.2266 5.70812 13.1034 5.59468 13.1545 5.48081L13.5498 4.60143L12.8457 3.94275C12.7546 3.85756 12.8245 3.70531 12.9485 3.71881Z" fill="#FFE15A"/>
<path d="M14.4638 13.0621L13.8936 13.8396L12.9734 13.5519C12.8543 13.5146 12.7563 13.6504 12.8292 13.7517L13.3925 14.5342L12.8345 15.3205C12.7622 15.4223 12.8611 15.5574 12.9801 15.5194L13.8983 15.2256L14.4736 15.9992C14.5481 16.0994 14.7073 16.0471 14.7078 15.9222L14.712 14.9581L15.6256 14.6501C15.7438 14.6102 15.7433 14.4427 15.6248 14.4036L14.7091 14.1017L14.6984 13.1376C14.6971 13.0127 14.5376 12.9614 14.4638 13.0621Z" fill="#FFE15A"/>
<path d="M17.9352 10.8848L16.9767 10.989L16.5678 10.1159C16.5149 10.0028 16.3485 10.0222 16.323 10.1444L16.1259 11.0881L15.1691 11.2072C15.0453 11.2226 15.0123 11.3868 15.1206 11.4488L15.9573 11.9279L15.7749 12.8746C15.7513 12.9971 15.8973 13.0793 15.9897 12.9954L16.7039 12.3477L17.5479 12.8138C17.6571 12.8741 17.7803 12.7606 17.7292 12.6468L17.334 11.7674L18.038 11.1087C18.1291 11.0236 18.0593 10.8713 17.9352 10.8848Z" fill="#FFE15A"/>
</g>
<defs>
<clipPath id="clip0_158_13448">
<rect width="32" height="32" fill="white" transform="translate(0.16748)"/>
</clipPath>
</defs>
</svg>
