<svg width="73" height="74" viewBox="0 0 73 74" fill="none" xmlns="http://www.w3.org/2000/svg">
<g clip-path="url(#clip0_158_36598)">
<path d="M58.1893 71.9432H18.2483C16.2294 71.9432 14.5928 70.3065 14.5928 68.2876V13.0472C14.5928 11.0283 16.2294 9.3916 18.2483 9.3916H58.1894C60.2084 9.3916 61.845 11.0283 61.845 13.0472V68.2876C61.845 70.3065 60.2084 71.9432 58.1893 71.9432Z" fill="#FECC90"/>
<path d="M58.1895 9.3916H52.24C53.9834 9.3916 55.3968 10.805 55.3968 12.5484V60.2504C55.3968 61.9938 53.9834 63.407 52.24 63.407H17.7496C16.0062 63.407 14.5928 61.9938 14.5928 60.2504V68.2878C14.5928 70.3067 16.2294 71.9433 18.2483 71.9433H58.1895C60.2084 71.9433 61.845 70.3067 61.845 68.2878V13.0473C61.8452 11.0283 60.2085 9.3916 58.1895 9.3916Z" fill="#FFBF73"/>
<path d="M48.3117 31.4593C43.5001 31.4593 39.5854 27.5448 39.5854 22.733C39.5854 17.9215 43.5001 14.0068 48.3117 14.0068C53.1232 14.0068 57.0379 17.9215 57.0379 22.733C57.0379 27.5448 53.1232 31.4593 48.3117 31.4593ZM48.3117 15.7423C44.4569 15.7423 41.3209 18.8783 41.3209 22.733C41.3209 26.5876 44.4569 29.7238 48.3117 29.7238C52.1664 29.7238 55.3024 26.5878 55.3024 22.733C55.3024 18.8784 52.1664 15.7423 48.3117 15.7423Z" fill="#FF885E"/>
<path d="M52.3161 25.9964L49.3069 18.0225C49.3039 18.0145 49.3007 18.0067 49.2975 17.9987C49.1346 17.6032 48.7532 17.3477 48.3255 17.3477C48.3251 17.3477 48.3248 17.3477 48.3245 17.3477C47.8963 17.3481 47.5149 17.6044 47.3527 18.0007C47.35 18.0072 47.3474 18.0138 47.3449 18.0205L44.3081 25.994C44.1374 26.442 44.3623 26.9433 44.8101 27.1138C45.2579 27.2846 45.7594 27.0595 45.9299 26.6118L46.4734 25.1849H50.1548L50.6923 26.6094C50.8235 26.9568 51.1537 27.171 51.5043 27.1709C51.6061 27.1709 51.7096 27.1529 51.8105 27.1148C52.259 26.9454 52.4854 26.445 52.3161 25.9964ZM47.1344 23.4493L48.3227 20.3295L49.4999 23.4493H47.1344Z" fill="#FF885E"/>
<path d="M22.6141 44.7164C22.6133 44.7164 22.6124 44.7164 22.6114 44.7164C22.2419 44.7152 21.9136 44.4801 21.7935 44.1306L20.3691 39.9859C20.2134 39.5326 20.4545 39.039 20.9078 38.8833C21.3609 38.7279 21.8546 38.9687 22.0103 39.422L22.6221 41.2022L23.2496 39.412C23.408 38.9598 23.9033 38.7215 24.3556 38.8802C24.8078 39.0388 25.0459 39.5338 24.8874 39.9862L23.433 44.1358C23.3111 44.4835 22.9827 44.7164 22.6141 44.7164Z" fill="#FF885E"/>
<path d="M22.6141 55.2994C22.6133 55.2994 22.6124 55.2994 22.6114 55.2994C22.2419 55.2982 21.9136 55.0631 21.7935 54.7136L20.3691 50.5689C20.2134 50.1156 20.4545 49.622 20.9078 49.4664C21.3609 49.3108 21.8546 49.5518 22.0103 50.005L22.6221 51.7852L23.2496 49.995C23.408 49.5428 23.9033 49.3045 24.3556 49.4632C24.8078 49.6218 25.0459 50.1168 24.8874 50.5692L23.433 54.7188C23.3111 55.0665 22.9827 55.2994 22.6141 55.2994Z" fill="#FF885E"/>
<path d="M58.1895 7.94531H18.2484C15.4351 7.94531 13.1465 10.234 13.1465 13.0472V68.2878C13.1465 71.101 15.4351 73.3897 18.2484 73.3897H58.1895C61.0027 73.3897 63.2914 71.101 63.2914 68.2878V13.047C63.2914 10.234 61.0027 7.94531 58.1895 7.94531ZM60.3989 68.2877C60.3989 69.506 59.4078 70.497 58.1895 70.497H18.2484C17.0302 70.497 16.039 69.506 16.039 68.2877V13.047C16.039 11.8289 17.03 10.8377 18.2484 10.8377H58.1895C59.4078 10.8377 60.3989 11.8287 60.3989 13.047V68.2877Z" fill="#440A29"/>
<path d="M43.4272 62.5391H22.0215C21.5423 62.5391 21.1538 62.9276 21.1538 63.4068C21.1538 63.886 21.5423 64.2745 22.0215 64.2745H43.4272C43.9064 64.2745 44.295 63.886 44.295 63.4068C44.295 62.9276 43.9064 62.5391 43.4272 62.5391Z" fill="#440A29"/>
<path d="M22.0215 19.0831H33.924C34.4032 19.0831 34.7917 18.6946 34.7917 18.2154C34.7917 17.7362 34.4032 17.3477 33.924 17.3477H22.0215C21.5423 17.3477 21.1538 17.7362 21.1538 18.2154C21.1538 18.6946 21.5423 19.0831 22.0215 19.0831Z" fill="#440A29"/>
<path d="M22.0215 24.5939H33.924C34.4032 24.5939 34.7917 24.2053 34.7917 23.7261C34.7917 23.2469 34.4032 22.8584 33.924 22.8584H22.0215C21.5423 22.8584 21.1538 23.2469 21.1538 23.7261C21.1538 24.2053 21.5423 24.5939 22.0215 24.5939Z" fill="#440A29"/>
<path d="M54.4164 57.0283H22.0215C21.5423 57.0283 21.1538 57.4168 21.1538 57.8961C21.1538 58.3753 21.5423 58.7638 22.0215 58.7638H54.4164C54.8956 58.7638 55.2842 58.3753 55.2842 57.8961C55.2842 57.4168 54.8956 57.0283 54.4164 57.0283Z" fill="#440A29"/>
<path d="M54.4167 51.5176H27.376C26.8968 51.5176 26.5083 51.9061 26.5083 52.3853C26.5083 52.8645 26.8968 53.253 27.376 53.253H54.4167C54.8959 53.253 55.2844 52.8645 55.2844 52.3853C55.2844 51.9061 54.8959 51.5176 54.4167 51.5176Z" fill="#440A29"/>
<path d="M54.4164 46.0068H22.0215C21.5423 46.0068 21.1538 46.3954 21.1538 46.8746C21.1538 47.3538 21.5423 47.7423 22.0215 47.7423H54.4164C54.8956 47.7423 55.2842 47.3538 55.2842 46.8746C55.2842 46.3954 54.8956 46.0068 54.4164 46.0068Z" fill="#440A29"/>
<path d="M54.4167 40.4971H27.376C26.8968 40.4971 26.5083 40.8856 26.5083 41.3648C26.5083 41.844 26.8968 42.2325 27.376 42.2325H54.4167C54.8959 42.2325 55.2844 41.844 55.2844 41.3648C55.2844 40.8857 54.8959 40.4971 54.4167 40.4971Z" fill="#440A29"/>
<path d="M54.4164 34.9863H22.0215C21.5423 34.9863 21.1538 35.3749 21.1538 35.8541C21.1538 36.3333 21.5423 36.7218 22.0215 36.7218H54.4164C54.8956 36.7218 55.2842 36.3333 55.2842 35.8541C55.2842 35.3749 54.8956 34.9863 54.4164 34.9863Z" fill="#440A29"/>
<path d="M6.48834 13.8334C6.83055 12.392 5.93947 10.9461 4.49806 10.6039C3.05665 10.2617 1.61075 11.1528 1.26854 12.5942C0.926338 14.0356 1.81742 15.4815 3.25883 15.8237C4.70023 16.1659 6.14614 15.2748 6.48834 13.8334Z" fill="#FF885E"/>
<path d="M11.9772 6.02672C12.6046 6.02672 13.1131 5.51815 13.1131 4.8908C13.1131 4.26345 12.6046 3.75488 11.9772 3.75488C11.3499 3.75488 10.8413 4.26345 10.8413 4.8908C10.8413 5.51815 11.3499 6.02672 11.9772 6.02672Z" fill="#FF885E"/>
<path d="M68.162 0.661153L69.0732 3.22342C69.1121 3.33307 69.1894 3.42004 69.2869 3.46395L71.5633 4.48952C71.885 4.63438 71.885 5.1468 71.5633 5.29166L69.2869 6.31723C69.1894 6.36114 69.1123 6.44797 69.0732 6.55776L68.162 9.12003C68.0332 9.48203 67.578 9.48203 67.4492 9.12003L66.538 6.55776C66.4989 6.44797 66.4218 6.36114 66.3243 6.31723L64.0479 5.29166C63.7262 5.1468 63.7262 4.63438 64.0479 4.48952L66.3243 3.46395C66.4218 3.42004 66.4989 3.33307 66.538 3.22342L67.4492 0.661153C67.578 0.299147 68.0332 0.299147 68.162 0.661153Z" fill="#BDF4E3"/>
</g>
<defs>
<clipPath id="clip0_158_36598">
<rect width="73" height="73" fill="white" transform="translate(0 0.389648)"/>
</clipPath>
</defs>
</svg>
