<svg id="Layer_1" data-name="Layer 1" xmlns="http://www.w3.org/2000/svg" viewBox="0 0 190.19 61.78"><defs><style>.cls-1{fill:#212121;stroke:#212121;stroke-linecap:round;stroke-linejoin:round;stroke-width:0.2px;}</style></defs><path class="cls-1" d="M44.8,14.88s0,0,0-.05l0,0A23.28,23.28,0,0,0,32.29,2h0a23.21,23.21,0,0,0-18,0s0,0,0,0h0A23.16,23.16,0,0,0,.1,23.25V38.53c0,.16,0,.32,0,.45a22.64,22.64,0,0,0,.58,4.7,21.72,21.72,0,0,0,1.29,4,.93.93,0,0,0,0,.1,23.16,23.16,0,0,0,1.25,2.49c.24.41.49.8.75,1.19l.14.2A23.1,23.1,0,0,0,15.68,60.4a22.5,22.5,0,0,0,3,.8l.08,0c.36.07.73.13,1.09.18l.64.09h.09l.41,0c.27,0,.53.06.79.07l.27,0h.08c.37,0,.73,0,1.11,0l1.11,0c.16,0,.31,0,.47,0l.63-.05c.2,0,.39,0,.59-.06l.49-.07.69-.11.22,0h0l.09,0c.4-.08.8-.16,1.2-.26l.16,0c.44-.11.87-.23,1.3-.37l.25-.08c.33-.11.65-.22,1-.35.16,0,.31-.12.47-.18l.72-.31a5.05,5.05,0,0,0,.53-.24l.29-.13.09,0,.23-.12c.45-.23.89-.47,1.33-.73l.17-.1.7-.45.11-.07.18-.12c.55-.38,1.1-.77,1.62-1.19A23.11,23.11,0,0,0,45,46.52l0-.07c.11-.29.21-.59.31-.89,0-.1.06-.19.08-.28.08-.26.16-.52.23-.78s.07-.29.11-.44.11-.46.16-.69.07-.36.1-.55l.12-.61.09-.67c0-.18,0-.36.07-.54l.06-.8c0-.14,0-.28,0-.42,0-.42,0-.83,0-1.25V23.25A23.06,23.06,0,0,0,44.8,14.88ZM23.24,17.66a6.09,6.09,0,0,1,5.63,8.43h0a6.25,6.25,0,0,1-1,1.63q-4.23.27-8.26.91a6.1,6.1,0,0,1-2.47-4.85v0s0,0,0,0A6.11,6.11,0,0,1,23.24,17.66Zm22,11.74v1.34A81.46,81.46,0,0,0,33.85,30c-12.8,0-25,3-32.59,7.94V35.47c.91-.47,1.88-.92,2.89-1.36,1.5-.63,3.07-1.22,4.68-1.74s3.55-1.07,5.35-1.49a83.46,83.46,0,0,1,13.93-2h.09c1.86-.11,3.75-.17,5.65-.17A89.77,89.77,0,0,1,45.21,29.4Zm0,3.86a71.59,71.59,0,0,0-11.36-.9c-10,0-19.51,2-26.24,5.59H3.39c7.5-4.31,18.68-6.84,30.46-6.84a79.86,79.86,0,0,1,11.36.79Zm0,2.58a59.89,59.89,0,0,0-11.36-1.08A53.46,53.46,0,0,0,14.94,38H10.28c6.38-2.83,14.81-4.43,23.57-4.43a69.22,69.22,0,0,1,11.36.91Zm-.62,7.86c-.05.19-.09.37-.14.56s-.09.32-.14.48-.11.36-.17.55-.1.31-.16.46-.12.37-.19.54l0,.08-30-7.26H29.84L45,41.33v.06c0,.12,0,.25-.05.37l-.06.38c0,.15-.06.31-.08.46a1.16,1.16,0,0,0,0,.18l-.09.43C44.67,43.37,44.63,43.54,44.59,43.7ZM38.66,54.16l-.35.33-.41.39-.36.31-.44.37-.38.3c-.14.11-.29.23-.45.34l-.39.28-.44.31,0,0-.39.25-.47.29-.11.07-.33.18-.48.28-.38.19-.06,0-31.62-16s0-.05,0-.07c0-.25-.08-.5-.11-.76s0-.29-.05-.43,0-.45-.06-.68a.61.61,0,0,1,0-.14L39.18,53.62l-.12.13Zm-29.82-15,34.47,8.35-.12.26c-.08.17-.16.35-.25.52l-.22.43-.27.5-.24.42-.29.49-.26.4c-.1.16-.21.32-.32.48l-.27.39-.34.46-.3.37q-.16.23-.36.45l0,.06L2.23,39.11Zm36.34.35c0,.16,0,.33,0,.49a1,1,0,0,0,0,.17v.06l-7.29-1.07h7.34C45.19,39.22,45.19,39.34,45.18,39.46Zm0-1.51H18.65a56,56,0,0,1,15.2-2A58.23,58.23,0,0,1,45.21,37ZM3.85,33c-.73-.1-1.63-.21-2.59-.3V31.4c1.7.15,3.39.35,5.06.61C5.48,32.32,4.66,32.64,3.85,33Zm-2,.92-.54.27v-.32Zm27.57-6.26c.12-.19.24-.39.34-.59l1.28.52ZM18.12,28.89c-1.38.25-2.74.52-4.08.83L11.6,29.2l5.17-2.14A7.54,7.54,0,0,0,18.12,28.89Zm-6.61,1.48c-1,.26-1.94.54-2.89.85-2.41-.45-4.88-.77-7.36-1V29A83.84,83.84,0,0,1,11.51,30.37Zm3.3,28.44c-.39-.17-.78-.34-1.17-.53l-.21-.11a22.1,22.1,0,0,1-3.25-2l-.38-.29c-.28-.22-.56-.44-.84-.68l-.48-.43c-.36-.32-.7-.66-1-1S7,53.27,6.73,53s-.32-.38-.48-.57-.45-.56-.66-.85l-.37-.51c-.33-.46-.64-.94-.92-1.42v0h0c-.08-.14-.15-.29-.24-.44L19.92,60.24,19,60.08l-.1,0A21.79,21.79,0,0,1,15,58.88Zm7.47,1.66L3,47a21.36,21.36,0,0,1-1.14-3.5l30,15.19c-.14.06-.28.13-.42.18l-.2.08-.26.1-.87.31-.29.09c-.4.13-.81.25-1.22.35l-.11,0c-.39.1-.78.18-1.18.26l-.16,0c-.51.09-1,.17-1.53.22h0c-.5,0-1,.08-1.5.1h-.35c-.35,0-.69,0-1,0ZM45.21,28.24A90,90,0,0,0,34,27.54L30.14,26a7.21,7.21,0,0,0,.33-1.65h5.2a.58.58,0,1,0,0-1.16h-5.2a7.52,7.52,0,0,0-.33-1.66l13.77-5.7a21.78,21.78,0,0,1,1.3,7.43ZM43.49,14.73l-13.8,5.72a7.41,7.41,0,0,0-.93-1.4l6-6a.59.59,0,0,0,0-.83.59.59,0,0,0-.82,0l-6,6a7.25,7.25,0,0,0-1.4-.93l5.81-14A22.11,22.11,0,0,1,43.49,14.73ZM14.12,3.26,16,7.84a.59.59,0,0,0,.54.35.57.57,0,0,0,.22,0,.58.58,0,0,0,.32-.76l-1.9-4.58a21.92,21.92,0,0,1,16.09,0l-5.81,14a7.54,7.54,0,0,0-1.65-.33V8a.58.58,0,1,0-1.16,0v8.51a7.63,7.63,0,0,0-1.66.33l-2.68-6.47a.57.57,0,0,0-.75-.32.59.59,0,0,0-.32.76l2.68,6.48a7.74,7.74,0,0,0-1.4.93l-2.81-2.81a.58.58,0,1,0-.82.82l2.81,2.81a7.66,7.66,0,0,0-.93,1.39L4.32,15.29a.59.59,0,0,0-.76.31.58.58,0,0,0,.32.76l12.45,5.15A7.06,7.06,0,0,0,16,23.18H9.59a.58.58,0,0,0,0,1.16H16A6.54,6.54,0,0,0,16.34,26L9.49,28.82c-2.65-.46-5.4-.8-8.23-1V23.25A22,22,0,0,1,14.12,3.26Z"/><path class="cls-1" d="M41.24,23.18h-3a.58.58,0,1,0,0,1.16h3a.58.58,0,1,0,0-1.16Z"/><path d="M59.76,43.06a2.66,2.66,0,0,0,1.83-.58,2.15,2.15,0,0,0,.62-1.34c0-.52.07-1.45.07-2.77V23a28,28,0,0,1,.11-2.9l-2.63.15V18.63q5.34-.07,8.28-.07a12.12,12.12,0,0,1,6.65,1.52A5.1,5.1,0,0,1,77,24.67a5.24,5.24,0,0,1-1.56,3.65A7.72,7.72,0,0,1,71,30.5v.07a9,9,0,0,1,6,1.8,5.88,5.88,0,0,1,2.11,4.72A6.57,6.57,0,0,1,78,40.92a7,7,0,0,1-3.08,2.49,10.84,10.84,0,0,1-4.45.86H59.76Zm14.08-1.63a5.08,5.08,0,0,0,1.71-4.12q0-3.11-1.74-4.43a7.36,7.36,0,0,0-4.57-1.32c-1.34,0-2.6,0-3.77.11V40a25.53,25.53,0,0,1-.11,2.86c.47,0,1.34.07,2.64.07h1.24A6.84,6.84,0,0,0,73.84,41.43ZM68.15,30.17a5.34,5.34,0,0,0,4.21-1.6,5.69,5.69,0,0,0,1.32-3.82c0-1.84-.53-3.1-1.6-3.81a6.79,6.79,0,0,0-3.86-1.07,3.69,3.69,0,0,0-1.76.33,1.7,1.7,0,0,0-.79,1.07,8.89,8.89,0,0,0-.2,2.16v6.81Z"/><path d="M82.21,43.06a2.67,2.67,0,0,0,1.84-.58,2.12,2.12,0,0,0,.62-1.3c0-.5.07-1.38.07-2.62V22.73c0-1,0-1.9.11-2.64l-2.64.15V18.63H99.83L100,25H98.81c0-2-.43-3.37-1.3-4.1a5.18,5.18,0,0,0-3.65-1L90.71,20a3.25,3.25,0,0,0-1.9.5,2,2,0,0,0-.74,1.28,17.48,17.48,0,0,0-.14,2.58v5.87l6.89,0-.26-3.15h1.61v7.69H95a5.13,5.13,0,0,0-.33-2.07,1.73,1.73,0,0,0-1-.95,6,6,0,0,0-1.89-.24l-1.14,0-2.67.11v8.39a28.24,28.24,0,0,1-.11,2.86l7-.11a5.72,5.72,0,0,0,3.92-1.3c.9-.85,1.35-2.3,1.35-4.38h1.25l-.22,7.14H82.21Z"/><path d="M114.63,43.06a2.67,2.67,0,0,0,1.84-.58,2.12,2.12,0,0,0,.62-1.3c0-.5.07-1.38.07-2.62V22.73c0-1,0-1.9.11-2.64l-2.64.15V18.63h17.63l.18,6.41h-1.21c0-2-.43-3.37-1.3-4.1a5.18,5.18,0,0,0-3.65-1l-3.15.07a3.25,3.25,0,0,0-1.9.5,2,2,0,0,0-.73,1.28,15.9,15.9,0,0,0-.15,2.58v5.87l6.89,0L127,27.09h1.61v7.69h-1.21a5.13,5.13,0,0,0-.33-2.07,1.73,1.73,0,0,0-1-.95,5.91,5.91,0,0,0-1.89-.24l-1.14,0-2.67.11v8.39a28.24,28.24,0,0,1-.11,2.86l7-.11a5.72,5.72,0,0,0,3.92-1.3c.9-.85,1.35-2.3,1.35-4.38h1.25l-.22,7.14H114.63Z"/><path d="M143.12,43.14a12.07,12.07,0,0,1-4.44-4.69,13.76,13.76,0,0,1-1.59-6.6,15.89,15.89,0,0,1,1.45-6.74A12.24,12.24,0,0,1,142.86,20a12.08,12.08,0,0,1,6.94-2,13.09,13.09,0,0,1,7.4,2.24l-.18-2h2v8.5h-1.32a8.22,8.22,0,0,0-2.4-5.33,7.32,7.32,0,0,0-5.22-1.93A8.29,8.29,0,0,0,145.32,21a9.87,9.87,0,0,0-3.39,4.12,14.56,14.56,0,0,0-1.25,6.19,13.36,13.36,0,0,0,1.32,6,10.39,10.39,0,0,0,3.55,4.14A8.75,8.75,0,0,0,150.5,43a10.65,10.65,0,0,0,4.73-1.1A9.88,9.88,0,0,0,159,38.74l.95.77A11.88,11.88,0,0,1,155,43.67a13.76,13.76,0,0,1-5.49,1.19A12.2,12.2,0,0,1,143.12,43.14Z"/><path d="M168.41,42.92a11.83,11.83,0,0,1-4.32-5,15.42,15.42,0,0,1-1.39-6.47,14.68,14.68,0,0,1,1.45-6.34A12.57,12.57,0,0,1,168.47,20a11.94,11.94,0,0,1,7-2A12.32,12.32,0,0,1,187,25.11a14.45,14.45,0,0,1,0,12.66,12.56,12.56,0,0,1-4.32,5.09,11.94,11.94,0,0,1-7,2A13.05,13.05,0,0,1,168.41,42.92Zm12.29-1.19a10.14,10.14,0,0,0,3.08-4.2,14.05,14.05,0,0,0,1.05-5.38,16.39,16.39,0,0,0-1.14-6,11.78,11.78,0,0,0-3.3-4.76,7.48,7.48,0,0,0-5-1.85,7.63,7.63,0,0,0-4.91,1.63,10.15,10.15,0,0,0-3.1,4.23,14.51,14.51,0,0,0-1,5.42,16.81,16.81,0,0,0,1.06,5.81,11.72,11.72,0,0,0,3.22,4.83,8.11,8.11,0,0,0,10.13.3Z"/></svg>