<svg id="Layer_1" data-name="Layer 1" xmlns="http://www.w3.org/2000/svg" viewBox="0 0 115.52 153.66"><defs><style>.cls-1{fill:#7b7b7b;}</style></defs><path class="cls-1" d="M111.6,36.87s0-.09,0-.14,0-.06-.07-.1a58.07,58.07,0,0,0-31.14-32l0,0h0a57.77,57.77,0,0,0-45,0h-.05l-.06,0A57.85,57.85,0,0,0,0,57.76V95.91c0,.4,0,.8,0,1.14A57.29,57.29,0,0,0,4.7,118.64a1.89,1.89,0,0,0,.11.25A56.46,56.46,0,0,0,8,125.1c.59,1,1.22,2,1.87,3l.34.5a57.82,57.82,0,0,0,28.74,22,55.76,55.76,0,0,0,7.48,2l.21,0c.91.17,1.81.33,2.72.45.53.08,1.07.16,1.6.22l.18,0h0c.34.05.69.06,1,.1.65.06,1.3.14,2,.18l.67,0,.15,0,.06,0c.9,0,1.81.08,2.75.08s1.87,0,2.8-.07c.38,0,.77-.05,1.15-.08s1.06-.07,1.59-.12,1-.11,1.46-.16l1.22-.16c.58-.08,1.15-.18,1.72-.28.19,0,.37,0,.55-.09h0l.21,0c1-.19,2-.4,3-.64l.4-.09c1.1-.28,2.18-.59,3.26-.93l.63-.21c.81-.27,1.62-.55,2.42-.85l1.15-.46c.62-.25,1.22-.5,1.82-.77.44-.2.88-.39,1.32-.6l.71-.34a1.36,1.36,0,0,0,.24-.13l.56-.29q1.69-.85,3.33-1.83l.41-.24c.59-.36,1.17-.73,1.75-1.11l.29-.2.44-.29c1.38-.94,2.74-1.92,4-3A57.67,57.67,0,0,0,112,115.85l.06-.16c.27-.74.52-1.48.76-2.23.07-.24.15-.47.22-.71.2-.64.38-1.29.55-2,.1-.35.19-.71.28-1.07.14-.58.28-1.15.4-1.73s.18-.92.27-1.38.19-1,.28-1.53.15-1.11.23-1.66.12-.89.17-1.34c.07-.67.12-1.33.16-2,0-.36.07-.71.09-1.07,0-1,.08-2.07.08-3.11V57.76A57.58,57.58,0,0,0,111.6,36.87ZM57.77,43.79A15.25,15.25,0,0,1,71.84,64.85h0A14.89,14.89,0,0,1,69.3,69q-10.54.67-20.61,2.28A15.25,15.25,0,0,1,42.53,59.1s0-.05,0-.08,0-.05,0-.08A15.25,15.25,0,0,1,57.77,43.79Zm54.85,29.33v3.34a202.92,202.92,0,0,0-28.35-2c-32,0-62.31,7.41-81.37,19.83v-6c2.27-1.16,4.69-2.3,7.21-3.38,3.75-1.6,7.68-3.07,11.69-4.37,4.36-1.41,8.85-2.65,13.35-3.7a207.4,207.4,0,0,1,34.77-5,1,1,0,0,0,.25,0c4.64-.28,9.34-.44,14.1-.44A224.78,224.78,0,0,1,112.62,73.12Zm0,9.64a176.59,176.59,0,0,0-28.35-2.27c-24.87,0-48.72,5.09-65.52,14H8.22C26.94,83.71,54.86,77.38,84.27,77.38a201.31,201.31,0,0,1,28.35,2Zm0,6.44a148.44,148.44,0,0,0-28.35-2.69c-17.38,0-33.69,2.75-47.23,7.95H25.42c15.94-7.07,37-11.07,58.85-11.07a174,174,0,0,1,28.35,2.28Zm-1.55,19.62c-.11.46-.22.93-.35,1.39s-.22.8-.34,1.2l-.42,1.37c-.13.39-.26.78-.4,1.17s-.32.9-.49,1.35c0,.06,0,.12-.07.19L34.14,97.35h40.1l37.92,5.56,0,.13c0,.31-.08.62-.13.93s-.09.64-.14,1-.13.76-.2,1.15l-.09.45c-.07.36-.14.72-.22,1.07S111.17,108.41,111.07,108.82ZM96.26,134.94l-.85.82c-.35.32-.69.65-1,1l-.9.78c-.35.31-.71.62-1.08.92l-.94.74c-.37.29-.74.58-1.12.86l-1,.7c-.37.26-.73.52-1.11.77l-.09.07-1,.63c-.38.24-.77.49-1.16.72l-.28.17-.82.47-1.2.68-1,.49-.13.07-78.95-40,0-.19c-.1-.62-.2-1.25-.28-1.88,0-.36-.07-.73-.11-1.09-.06-.56-.12-1.12-.16-1.68,0-.12,0-.24,0-.36l94.53,34-.32.33C96.93,134.26,96.6,134.61,96.26,134.94ZM21.82,97.35l86.05,20.85-.3.66c-.2.43-.4.86-.61,1.29s-.36.72-.55,1.07-.44.85-.67,1.26l-.6,1c-.24.41-.49.82-.74,1.23s-.42.66-.64,1-.52.81-.79,1.2l-.69,1-.84,1.15-.74.93c-.29.37-.59.75-.9,1.11a1.07,1.07,0,0,1-.14.16L5.33,97.35Zm90.74.87q0,.63-.06,1.23c0,.15,0,.29,0,.43a.66.66,0,0,1,0,.14l-18.2-2.67h18.33C112.58,97.64,112.57,97.94,112.56,98.22Zm.06-3.76H46.31a139.88,139.88,0,0,1,38-5,145.82,145.82,0,0,1,28.35,2.7ZM9.36,82.07c-1.83-.24-4.07-.51-6.46-.73V78.12c4.24.35,8.47.87,12.64,1.51C13.44,80.41,11.37,81.21,9.36,82.07ZM4.24,84.38c-.46.22-.89.45-1.34.67v-.81ZM73.08,68.74a15.12,15.12,0,0,0,.84-1.47l3.21,1.31C75.78,68.62,74.43,68.68,73.08,68.74ZM45,71.85c-3.44.61-6.84,1.3-10.17,2.08-2-.48-4.05-.9-6.11-1.31l12.92-5.35A18.33,18.33,0,0,0,45,71.85ZM28.48,75.53q-3.64,1-7.22,2.13A185,185,0,0,0,2.9,75.22V72A208.06,208.06,0,0,1,28.48,75.53Zm8.25,71c-1-.41-2-.85-2.92-1.32l-.52-.26a56.33,56.33,0,0,1-8.12-5l-1-.71c-.71-.55-1.41-1.12-2.1-1.7-.41-.35-.8-.72-1.2-1.08-.89-.81-1.75-1.65-2.59-2.51-.61-.63-1.21-1.26-1.79-1.91-.4-.46-.79-.94-1.18-1.42-.56-.69-1.12-1.4-1.65-2.12-.32-.43-.64-.85-.94-1.28-.8-1.16-1.57-2.33-2.29-3.55l0,0h0c-.21-.36-.39-.74-.6-1.11L49.47,150.1c-.76-.11-1.52-.23-2.28-.38l-.26-.05a54.46,54.46,0,0,1-9.76-3Zm18.65,4.15L7.21,117.16a52,52,0,0,1-2.83-8.73l74.88,37.92c-.35.15-.69.31-1.05.45l-.5.19-.63.25c-.72.27-1.45.53-2.19.77l-.71.24c-1,.31-2,.6-3,.86l-.27.06c-1,.24-2,.45-3,.64l-.4.07c-1.27.23-2.54.42-3.83.56h-.09c-1.25.14-2.51.22-3.76.26l-.87,0c-.86,0-1.71,0-2.56,0Zm57.24-80.47a228,228,0,0,0-28.06-1.75L75,64.59a18.35,18.35,0,0,0,.82-4.12h13a1.45,1.45,0,1,0,0-2.9h-13A17.77,17.77,0,0,0,75,53.43L109.39,39.2a54.65,54.65,0,0,1,3.23,18.56ZM108.34,36.5,73.88,50.76a17.77,17.77,0,0,0-2.33-3.48l15-15a1.46,1.46,0,0,0,0-2,1.44,1.44,0,0,0-2,0l-15,15A17.55,17.55,0,0,0,66,42.9l14.5-35A55.15,55.15,0,0,1,108.34,36.5ZM35,7.86l4.72,11.41a1.45,1.45,0,0,0,1.34.9,1.4,1.4,0,0,0,.56-.11,1.45,1.45,0,0,0,.78-1.89L37.68,6.72a54.71,54.71,0,0,1,40.17,0L63.34,41.78A17.49,17.49,0,0,0,59.22,41V19.72a1.45,1.45,0,1,0-2.9,0V41a18.21,18.21,0,0,0-4.13.81L45.5,25.63a1.45,1.45,0,0,0-2.68,1.1L49.51,42.9A18.23,18.23,0,0,0,46,45.23l-7-7a1.46,1.46,0,0,0-2,0,1.44,1.44,0,0,0,0,2l7,7a18.3,18.3,0,0,0-2.33,3.49L10.54,37.89a1.45,1.45,0,0,0-1.11,2.67L40.52,53.43a17.27,17.27,0,0,0-.82,4.14h-16a1.45,1.45,0,0,0,0,2.9h16a18.48,18.48,0,0,0,.83,4.12L23.45,71.66c-6.63-1.14-13.49-2-20.55-2.53V57.76A54.91,54.91,0,0,1,35,7.86Z"/><path class="cls-1" d="M102.71,57.57H95.36a1.45,1.45,0,0,0,0,2.9h7.35a1.45,1.45,0,0,0,0-2.9Z"/></svg>