<svg width="1797" height="468" viewBox="0 0 1797 468" fill="none" xmlns="http://www.w3.org/2000/svg">
<path d="M384.941 178.535L384.982 178.461L385.004 178.378C391.904 152.076 415.857 132.672 444.345 132.672C478.223 132.672 505.685 160.113 505.685 193.962C505.685 198.287 505.237 202.507 504.385 206.577L504.188 207.517L505.139 207.38C508.028 206.963 510.982 206.747 513.987 206.747C547.865 206.747 575.328 234.188 575.328 268.038C575.328 301.887 547.865 329.328 513.987 329.328H335.013C301.135 329.328 273.672 301.887 273.672 268.038C273.672 250.191 281.305 234.127 293.49 222.924C304.415 212.88 318.996 206.747 335.013 206.747H343.064C353.569 206.747 362.742 202.01 369.914 196.145C377.086 190.281 382.313 183.246 384.941 178.535Z" stroke="#409CFF" stroke-width="1.34427"/>
<path d="M1635.08 23.1997L1635.12 23.125L1635.14 23.0422C1638.54 10.1718 1650.35 0.672135 1664.39 0.672135C1681.09 0.672135 1694.62 14.1067 1694.62 30.6683C1694.62 32.785 1694.4 34.8497 1693.98 36.8414L1693.78 37.7818L1694.73 37.6454C1696.16 37.4413 1697.61 37.3356 1699.1 37.3356C1715.8 37.3356 1729.33 50.7701 1729.33 67.3317C1729.33 83.8933 1715.8 97.3279 1699.1 97.3279H1609.9C1593.2 97.3279 1579.67 83.8933 1579.67 67.3317C1579.67 58.5991 1583.43 50.7379 1589.44 45.2544C1594.82 40.3377 1602.01 37.3356 1609.9 37.3356H1613.92C1619.25 37.3356 1623.9 34.9453 1627.51 32.0128C1631.12 29.0809 1633.75 25.565 1635.08 23.1997Z" stroke="#409CFF" stroke-width="1.34427"/>
<path d="M1731.17 371.199L1731.22 371.124L1731.24 371.041C1733.58 362.201 1741.7 355.672 1751.38 355.672C1762.88 355.672 1772.19 364.905 1772.19 376.28C1772.19 377.734 1772.04 379.153 1771.75 380.521L1771.55 381.461L1772.51 381.325C1773.49 381.185 1774.49 381.112 1775.51 381.112C1787.01 381.112 1796.33 390.345 1796.33 401.72C1796.33 413.095 1787.01 422.328 1775.51 422.328H1713.49C1701.99 422.328 1692.67 413.095 1692.67 401.72C1692.67 395.722 1695.26 390.321 1699.4 386.553C1703.1 383.175 1708.05 381.112 1713.49 381.112H1716.28C1720.05 381.112 1723.33 379.426 1725.86 377.373C1728.39 375.321 1730.24 372.861 1731.17 371.199Z" stroke="#409CFF" stroke-width="1.34427"/>
<path d="M10.1737 416.199L10.2158 416.124L10.2377 416.041C12.5779 407.201 20.705 400.672 30.3768 400.672C41.8802 400.672 51.1943 409.905 51.1943 421.28C51.1943 422.734 51.0423 424.153 50.7533 425.521L50.5546 426.461L51.5061 426.325C52.4867 426.185 53.4897 426.112 54.5103 426.112C66.0138 426.112 75.3279 435.345 75.3279 446.72C75.3279 458.095 66.0138 467.328 54.5103 467.328H-7.51034C-19.0138 467.328 -28.3279 458.095 -28.3279 446.72C-28.3279 440.722 -25.7398 435.321 -21.6046 431.553C-17.8969 428.175 -12.9482 426.112 -7.51034 426.112H-4.72029C-0.946592 426.112 2.3267 424.426 4.85989 422.373C7.39239 420.321 9.23832 417.861 10.1737 416.199Z" stroke="#409CFF" stroke-width="1.34427"/>
</svg>
