<svg width="302" height="302" viewBox="0 0 302 302" fill="none" xmlns="http://www.w3.org/2000/svg">
<circle cx="150.512" cy="150.513" r="96.3242" stroke="#363636"/>
<circle cx="150.512" cy="150.512" r="150.012" stroke="#363636"/>
<path d="M272.308 150.77L272.109 153.62C271.627 153.643 271.176 153.83 270.755 154.183C270.348 154.55 270.01 155.043 269.741 155.66C269.486 156.279 269.331 156.982 269.276 157.77C269.226 158.488 269.262 159.084 269.385 159.559C269.507 160.034 269.701 160.394 269.967 160.639C270.233 160.883 270.563 161.019 270.957 161.047C271.336 161.073 271.635 160.953 271.851 160.685C272.082 160.418 272.282 159.987 272.45 159.39C272.633 158.795 272.829 158.01 273.038 157.035C273.205 156.269 273.41 155.548 273.655 154.872C273.914 154.198 274.224 153.604 274.585 153.092C274.945 152.594 275.368 152.206 275.853 151.929C276.352 151.667 276.925 151.558 277.573 151.603C278.375 151.659 279.062 151.933 279.636 152.425C280.209 152.932 280.633 153.647 280.908 154.571C281.183 155.495 281.275 156.611 281.184 157.92C281.047 159.889 280.519 161.373 279.602 162.369C278.697 163.381 277.514 163.821 276.053 163.692L276.244 160.948C277.078 160.949 277.7 160.639 278.111 160.017C278.521 159.41 278.76 158.62 278.827 157.65C278.89 156.749 278.808 155.994 278.582 155.385C278.355 154.789 277.918 154.469 277.27 154.424C277.017 154.406 276.787 154.461 276.58 154.588C276.388 154.716 276.209 154.944 276.045 155.272C275.881 155.6 275.715 156.048 275.549 156.616C275.382 157.184 275.205 157.893 275.019 158.742C274.851 159.536 274.645 160.25 274.403 160.884C274.175 161.532 273.889 162.078 273.547 162.521C273.219 162.978 272.813 163.318 272.331 163.539C271.849 163.76 271.271 163.847 270.595 163.8C269.765 163.742 269.056 163.474 268.467 162.994C267.892 162.53 267.466 161.836 267.191 160.912C266.915 160.002 266.826 158.837 266.925 157.416C266.996 156.403 267.163 155.517 267.428 154.757C267.707 153.999 268.049 153.351 268.454 152.814C268.859 152.277 269.292 151.847 269.753 151.526C270.213 151.204 270.667 150.982 271.114 150.857C271.56 150.747 271.958 150.718 272.308 150.77Z" fill="#FC5830"/>
<path d="M268.816 170.989L271.106 171.508L269.105 180.339L266.815 179.82L268.816 170.989ZM266.659 167.008L278.587 176.305L277.914 179.277L263.129 182.586L263.807 179.594L277.08 176.832L276.781 178.152L265.986 169.979L266.659 167.008Z" fill="#FC5830"/>
<path d="M275.116 190.696L269.745 204.087L267.566 203.213L272.937 189.822L275.116 190.696ZM271.046 195.331L269.999 197.943L259.199 193.611L260.247 191L271.046 195.331Z" fill="#FC5830"/>
<path d="M266.65 210.323L265.3 212.792L253.291 206.225L254.641 203.756L266.65 210.323Z" fill="#FC5830"/>
<path d="M254.496 213.89L252.85 216.223C252.425 215.993 251.942 215.92 251.4 216.003C250.861 216.107 250.316 216.353 249.766 216.741C249.227 217.138 248.731 217.659 248.275 218.304C247.861 218.892 247.583 219.421 247.441 219.891C247.3 220.361 247.279 220.769 247.38 221.116C247.48 221.463 247.692 221.75 248.014 221.978C248.326 222.197 248.643 222.249 248.967 222.132C249.303 222.023 249.697 221.758 250.15 221.335C250.615 220.921 251.19 220.351 251.874 219.626C252.413 219.057 252.963 218.547 253.522 218.096C254.094 217.653 254.666 217.306 255.24 217.055C255.806 216.816 256.369 216.703 256.928 216.718C257.49 216.752 258.037 216.957 258.567 217.33C259.224 217.794 259.67 218.385 259.905 219.103C260.133 219.833 260.125 220.664 259.881 221.597C259.637 222.53 259.138 223.532 258.382 224.604C257.243 226.218 256.024 227.213 254.723 227.589C253.425 227.986 252.185 227.75 251.002 226.881L252.587 224.634C253.3 225.067 253.993 225.124 254.667 224.806C255.332 224.498 255.945 223.947 256.506 223.152C257.026 222.414 257.348 221.726 257.47 221.088C257.585 220.461 257.377 219.96 256.846 219.586C256.639 219.44 256.414 219.367 256.171 219.369C255.94 219.378 255.669 219.481 255.359 219.676C255.049 219.872 254.675 220.169 254.238 220.568C253.801 220.968 253.283 221.482 252.683 222.112C252.128 222.704 251.582 223.208 251.047 223.625C250.515 224.061 249.988 224.379 249.466 224.581C248.948 224.802 248.425 224.882 247.899 224.822C247.372 224.761 246.832 224.535 246.279 224.145C245.599 223.665 245.131 223.068 244.876 222.353C244.624 221.658 244.62 220.844 244.864 219.911C245.099 218.99 245.628 217.947 246.449 216.783C247.034 215.953 247.637 215.282 248.257 214.77C248.888 214.267 249.516 213.89 250.141 213.64C250.766 213.39 251.359 213.248 251.919 213.211C252.48 213.175 252.983 213.22 253.43 213.345C253.869 213.482 254.224 213.663 254.496 213.89Z" fill="#FC5830"/>
<path d="M240.922 244.884L239.225 243.26L246.511 235.65L243.852 233.104L237.883 239.339L236.294 237.817L242.263 231.582L238.32 227.808L240.266 225.775L250.153 235.241L240.922 244.884Z" fill="#FC5830"/>
<path d="M227.842 242.296L229.265 244.165L222.061 249.65L220.638 247.782L227.842 242.296ZM228.745 237.86L231.921 252.646L229.497 254.491L216.037 247.536L218.478 245.678L230.427 252.081L229.35 252.902L226.321 239.705L228.745 237.86Z" fill="#FC5830"/>
<path d="M200.687 261.743C200.293 260.708 200.206 259.696 200.425 258.709C200.644 257.722 201.154 256.79 201.955 255.914C202.756 255.039 203.839 254.247 205.204 253.539C206.343 252.949 207.457 252.538 208.545 252.308C209.62 252.084 210.638 252.057 211.6 252.226C212.549 252.401 213.412 252.78 214.19 253.361C214.975 253.955 215.639 254.778 216.185 255.83C216.73 256.882 217.019 257.9 217.052 258.883C217.086 259.867 216.9 260.797 216.497 261.673C216.087 262.569 215.481 263.391 214.678 264.141C213.869 264.91 212.895 265.589 211.756 266.18C210.391 266.888 209.117 267.31 207.933 267.447C206.736 267.591 205.668 267.461 204.729 267.058C203.796 266.668 203.023 266.005 202.41 265.067L204.889 263.782C205.325 264.224 205.834 264.532 206.417 264.706C206.993 264.9 207.634 264.941 208.339 264.829C209.044 264.718 209.81 264.448 210.636 264.02C211.663 263.488 212.48 262.858 213.088 262.13C213.702 261.414 214.059 260.633 214.161 259.786C214.268 258.952 214.085 258.078 213.611 257.164C213.144 256.262 212.539 255.615 211.795 255.222C211.051 254.829 210.207 254.671 209.261 254.748C208.323 254.838 207.34 255.148 206.313 255.681C205.487 256.109 204.831 256.576 204.347 257.081C203.85 257.593 203.51 258.134 203.33 258.705C203.136 259.282 203.082 259.866 203.166 260.458L200.687 261.743Z" fill="#FC5830"/>
<path d="M199.165 272.044L185.441 276.498L184.716 274.264L198.44 269.811L199.165 272.044ZM192.998 271.888L190.321 272.757L186.729 261.689L189.406 260.821L192.998 271.888Z" fill="#FC5830"/>
<path d="M178.611 278.106L175.849 278.644L173.233 265.209L175.995 264.671L178.611 278.106Z" fill="#FC5830"/>
<path d="M158.827 266.865C160.644 266.76 162.216 266.951 163.544 267.439C164.859 267.942 165.892 268.702 166.643 269.718C167.38 270.735 167.791 271.982 167.877 273.461C167.963 274.953 167.699 276.247 167.084 277.342C166.456 278.438 165.517 279.305 164.268 279.943C163.006 280.595 161.467 280.974 159.651 281.079C157.82 281.185 156.248 280.986 154.933 280.483C153.619 279.994 152.594 279.242 151.857 278.225C151.105 277.209 150.687 275.954 150.6 274.462C150.514 272.983 150.786 271.696 151.415 270.6C152.029 269.505 152.961 268.632 154.209 267.98C155.457 267.343 156.997 266.971 158.827 266.865ZM158.968 269.294C157.842 269.359 156.866 269.585 156.04 269.972C155.201 270.36 154.562 270.912 154.123 271.63C153.671 272.348 153.475 273.236 153.536 274.292C153.597 275.348 153.894 276.206 154.427 276.868C154.946 277.53 155.644 278.005 156.523 278.293C157.388 278.596 158.384 278.715 159.51 278.65C160.622 278.586 161.605 278.352 162.457 277.949C163.311 277.561 163.964 277.007 164.417 276.289C164.87 275.57 165.065 274.683 165.004 273.627C164.943 272.571 164.646 271.712 164.113 271.051C163.581 270.39 162.868 269.915 161.975 269.628C161.083 269.341 160.08 269.229 158.968 269.294Z" fill="#FC5830"/>
<path d="M130.433 268.65L131.36 268.406L129.932 279.57L127.141 279.213L128.877 265.636L131.668 265.993L141.272 278.119L140.345 278.363L141.762 267.283L144.553 267.64L142.817 281.217L140.026 280.86L130.433 268.65Z" fill="#FC5830"/>
<path d="M108.896 259.557C110.075 260.025 111.089 260.587 111.937 261.242C112.772 261.892 113.427 262.63 113.904 263.456C114.367 264.277 114.621 265.167 114.665 266.125C114.71 267.084 114.522 268.094 114.1 269.156C113.674 270.231 113.107 271.106 112.399 271.781C111.672 272.464 110.841 272.953 109.904 273.249C108.954 273.54 107.93 273.635 106.833 273.533C105.717 273.439 104.556 273.153 103.35 272.674C101.921 272.108 100.769 271.415 99.8946 270.598C99.015 269.794 98.4233 268.914 98.1194 267.959C97.8024 266.999 97.8023 266.005 98.1189 264.977L100.636 265.976C100.598 266.568 100.701 267.132 100.943 267.668C101.167 268.213 101.552 268.714 102.098 269.174C102.639 269.646 103.355 270.059 104.247 270.413C105.388 270.866 106.437 271.07 107.395 271.025C108.341 270.975 109.156 270.699 109.841 270.197C110.525 269.695 111.047 268.992 111.406 268.087C111.755 267.209 111.873 266.375 111.761 265.587C111.643 264.812 111.272 264.104 110.647 263.461C110.009 262.814 109.093 262.253 107.9 261.78C106.982 261.416 106.129 261.214 105.341 261.174C104.534 261.142 103.814 261.236 103.181 261.455C102.542 261.687 102.023 262.02 101.624 262.453L100.453 262.421C101.295 260.798 102.46 259.735 103.949 259.233C105.424 258.726 107.073 258.834 108.896 259.557ZM103.15 257.574C102.989 257.98 102.778 258.435 102.518 258.939C102.252 259.455 101.973 259.967 101.681 260.473C101.384 260.993 101.112 261.469 100.864 261.901L106.685 264.211L106.022 265.882L98.4312 262.871L100.889 256.676L103.15 257.574Z" fill="#FC5830"/>
<path d="M82.8648 253.33L78.8362 259.818L76.4458 258.334L80.6306 251.594C81.1067 250.827 81.6372 250.226 82.222 249.793C82.7947 249.351 83.4076 249.06 84.0605 248.917C84.7134 248.775 85.3935 248.749 86.101 248.839C86.7889 248.935 87.4899 249.129 88.2039 249.423C88.9059 249.709 89.6104 250.072 90.3174 250.511C91.0483 250.965 91.7098 251.45 92.3018 251.967C92.8939 252.484 93.3911 253.034 93.7935 253.616C94.1764 254.202 94.4429 254.816 94.5928 255.457C94.7427 256.098 94.7529 256.776 94.6235 257.493C94.482 258.202 94.1732 258.94 93.6971 259.707L89.5123 266.447L87.1218 264.962L91.1504 258.474C91.7159 257.563 91.9676 256.757 91.9057 256.054C91.8364 255.364 91.546 254.735 91.0346 254.169C90.5037 253.607 89.8368 253.076 89.034 252.578C88.2552 252.094 87.5081 251.747 86.7929 251.535C86.0582 251.328 85.3661 251.346 84.7165 251.591C84.0474 251.839 83.4302 252.419 82.8648 253.33Z" fill="#FC5830"/>
<path d="M75.525 244.343L73.9702 246.103L67.1845 240.107L68.7393 238.348L75.525 244.343ZM80.0527 244.362L66.1701 250.362L63.8871 248.345L68.0825 233.787L70.3814 235.818L66.4324 248.787L65.4177 247.891L77.7696 242.345L80.0527 244.362Z" fill="#FC5830"/>
<path d="M64.9972 230.842L54.3535 239.449L48.514 232.227C47.8489 231.404 47.3876 230.598 47.1302 229.809C46.8529 229.017 46.8181 228.256 47.0258 227.526C47.2225 226.805 47.6937 226.143 48.4395 225.54C48.944 225.132 49.4426 224.874 49.9355 224.765C50.4283 224.657 50.913 224.673 51.3895 224.814C51.8572 224.944 52.3154 225.163 52.7641 225.471C53.2019 225.788 53.6235 226.164 54.0288 226.598L54.0834 226.934C53.4737 226.158 53.0296 225.474 52.7511 224.883C52.4618 224.301 52.3731 223.765 52.485 223.275C52.5772 222.783 52.9194 222.298 53.5116 221.819L56.0451 219.771L57.8142 221.959L55.4288 223.888C55.023 224.216 54.7681 224.54 54.6641 224.86C54.549 225.188 54.5984 225.575 54.8122 226.019C55.0171 226.451 55.3989 227.013 55.9575 227.704L59.2963 231.833L63.2281 228.654L64.9972 230.842ZM57.5854 233.217L53.515 228.183C53.0184 227.569 52.4935 227.222 51.9402 227.144C51.3781 227.054 50.8447 227.213 50.3402 227.621C49.8577 228.011 49.6233 228.473 49.6371 229.006C49.642 229.528 49.8928 230.096 50.3894 230.71L54.4597 235.744L57.5854 233.217Z" fill="#FC5830"/>
<path d="M49.0048 214.832L46.9612 215.989L42.5002 208.109L44.5437 206.952L49.0048 214.832ZM53.2787 216.326L38.1987 217.473L36.6978 214.822L45.4093 202.427L46.9206 205.096L38.9601 216.07L38.293 214.891L51.7778 213.675L53.2787 216.326Z" fill="#FC5830"/>
<path d="M36.1335 186.632L36.7717 187.347L26.176 191.142L25.2272 188.493L38.1134 183.878L39.0622 186.527L32.6156 200.589L31.9774 199.873L42.4935 196.107L43.4423 198.756L30.5561 203.371L29.6073 200.722L36.1335 186.632Z" fill="#FC5830"/>
<path d="M23.4041 182.513L20.8636 168.31L23.1752 167.897L25.7157 182.1L23.4041 182.513ZM24.3998 176.425L23.9043 173.655L35.3583 171.606L35.8537 174.376L24.3998 176.425Z" fill="#FC5830"/>
<path d="M27.8894 158.414L31.2523 158.336L31.0078 147.782L33.3555 147.728L33.6651 161.095L19.9809 161.412L19.6718 148.066L22.0195 148.012L22.2634 158.544L25.6686 158.466L25.4687 149.836L27.6895 149.785L27.8894 158.414Z" fill="#FC5830"/>
<path d="M28.1295 139.318L31.4645 139.758L32.8434 129.291L35.1716 129.598L33.4251 142.854L19.8545 141.066L21.5983 127.831L23.9264 128.138L22.5502 138.583L25.9272 139.028L27.0547 130.47L29.257 130.76L28.1295 139.318Z" fill="#FC5830"/>
<path d="M25.0358 113.544C25.4882 112.075 26.0411 110.902 26.6946 110.026C27.3481 109.15 28.0673 108.515 28.8524 108.122C29.6281 107.712 30.4442 107.506 31.3007 107.504C32.1614 107.489 33.0231 107.614 33.8857 107.879C34.7484 108.145 35.5338 108.542 36.2419 109.07C36.9542 109.584 37.527 110.24 37.9602 111.038C38.3842 111.818 38.6266 112.756 38.6876 113.852C38.7392 114.93 38.5492 116.17 38.1175 117.572L35.8139 125.053L22.7322 121.025L25.0358 113.544ZM34.337 121.654L35.7938 116.923C36.0927 115.952 36.2251 115.115 36.191 114.411C36.1476 113.689 35.9818 113.077 35.6937 112.576C35.4055 112.074 35.0302 111.663 34.5678 111.343C34.1054 111.024 33.5979 110.779 33.0452 110.609C32.4926 110.439 31.942 110.358 31.3934 110.366C30.8449 110.374 30.3171 110.507 29.8099 110.764C29.3028 111.021 28.8351 111.438 28.4067 112.014C27.9825 112.577 27.6209 113.344 27.3221 114.314L25.8652 119.045L34.337 121.654Z" fill="#FC5830"/>
<path d="M41.2375 96.2441L42.6811 93.7798C43.1233 93.9735 43.6111 94.0058 44.1443 93.8769C44.6725 93.7286 45.1944 93.4377 45.7099 93.0041C46.2132 92.5634 46.6645 92.0023 47.0637 91.3208C47.4273 90.7001 47.6598 90.1498 47.7611 89.6698C47.8625 89.1898 47.8485 88.7811 47.7192 88.4438C47.5899 88.1065 47.3548 87.8381 47.0141 87.6385C46.6855 87.446 46.3647 87.4216 46.0518 87.5651C45.7267 87.7016 45.3561 87.9994 44.94 88.4585C44.5118 88.9105 43.9873 89.5268 43.3666 90.3074C42.8771 90.9197 42.3726 91.4741 41.8529 91.9706C41.321 92.46 40.7797 92.854 40.2289 93.1524C39.6852 93.4388 39.1342 93.5982 38.5758 93.6306C38.0123 93.6438 37.4506 93.4865 36.8908 93.1585C36.1972 92.7522 35.7027 92.201 35.4076 91.5051C35.1195 90.7969 35.0576 89.9679 35.2218 89.0179C35.3859 88.068 35.7995 87.0271 36.4625 85.8953C37.4605 84.1916 38.592 83.0972 39.8568 82.6122C41.1166 82.1079 42.3722 82.2386 43.6236 83.0044L42.2335 85.3775C41.4869 85.0055 40.7915 85.0068 40.1472 85.3813C39.51 85.7435 38.9454 86.3445 38.4535 87.1842C37.9973 87.9631 37.7351 88.6758 37.6669 89.3224C37.6058 89.9568 37.8552 90.438 38.415 90.7659C38.6341 90.8942 38.8644 90.9474 39.1061 90.9255C39.3356 90.8965 39.5967 90.7716 39.8895 90.5508C40.1823 90.33 40.5296 90.0022 40.9314 89.5675C41.3332 89.1327 41.8063 88.5762 42.3507 87.898C42.8544 87.2613 43.3554 86.713 43.8537 86.253C44.347 85.7737 44.8451 85.4117 45.3481 85.1669C45.846 84.9028 46.3599 84.7789 46.8899 84.7951C47.4198 84.8113 47.9768 84.9905 48.5609 85.3327C49.279 85.7533 49.7952 86.309 50.1097 87C50.4191 87.6716 50.4917 88.4824 50.3276 89.4323C50.1705 90.3701 49.732 91.4536 49.012 92.6827C48.4987 93.5589 47.9547 94.2782 47.3801 94.8406C46.7933 95.3959 46.1991 95.8243 45.5976 96.1257C44.996 96.4271 44.4175 96.6195 43.862 96.7027C43.3065 96.786 42.8009 96.784 42.3453 96.6969C41.8967 96.5976 41.5275 96.4467 41.2375 96.2441Z" fill="#FC5830"/>
<path d="M52.9772 80.1633L51.1511 78.6868L56.8443 71.6458L58.6704 73.1223L52.9772 80.1633ZM53.1552 84.6875L46.5552 71.0801L48.4707 68.7112L63.1981 72.2671L61.2693 74.6524L48.1401 71.2734L48.9914 70.2205L55.0706 82.3186L53.1552 84.6875Z" fill="#FC5830"/>
<path d="M55.8824 59.7584L66.5904 50.088L68.1643 51.8308L57.4563 61.5012L55.8824 59.7584ZM61.5755 57.382L63.6637 55.4962L71.4624 64.1316L69.3742 66.0175L61.5755 57.382Z" fill="#FC5830"/>
<path d="M72.3749 45.5809L74.6743 43.9592L82.5635 55.1448L80.2642 56.7665L72.3749 45.5809Z" fill="#FC5830"/>
<path d="M84.6415 47.8036L87.1474 46.4334C87.4269 46.827 87.8285 47.1058 88.3521 47.2696C88.8813 47.4142 89.4785 47.4333 90.1436 47.3268C90.8019 47.2079 91.4776 46.959 92.1706 46.58C92.8017 46.2349 93.2842 45.8827 93.6182 45.5232C93.9521 45.1638 94.1504 44.8062 94.213 44.4504C94.2757 44.0947 94.2123 43.7436 94.0228 43.3971C93.8401 43.063 93.5776 42.8769 93.2354 42.839C92.8864 42.7888 92.4154 42.8534 91.8224 43.033C91.2226 43.2002 90.4558 43.4588 89.5219 43.8087C88.7872 44.0819 88.0693 44.2977 87.3682 44.456C86.6603 44.6019 85.9934 44.6612 85.3676 44.6337C84.7541 44.5995 84.1996 44.4526 83.704 44.1931C83.2141 43.9145 82.8135 43.4905 82.5022 42.9213C82.1165 42.2159 81.9761 41.4889 82.0812 40.7403C82.1986 39.9849 82.572 39.2421 83.2016 38.5121C83.8312 37.782 84.7214 37.1023 85.8722 36.473C87.6047 35.5257 89.138 35.1695 90.4721 35.4044C91.8118 35.6203 92.8211 36.3784 93.5001 37.6789L91.0871 38.9984C90.6383 38.2954 90.0414 37.9387 89.2962 37.9282C88.5634 37.911 87.7701 38.1358 86.9162 38.6027C86.1243 39.0358 85.5327 39.512 85.1415 40.0313C84.7627 40.5438 84.729 41.0847 85.0402 41.654C85.162 41.8767 85.3322 42.0409 85.5507 42.1465C85.7624 42.2397 86.0506 42.2669 86.4152 42.2283C86.7799 42.1896 87.2463 42.0873 87.8146 41.9212C88.3829 41.7551 89.0749 41.5214 89.8906 41.22C90.6501 40.9333 91.3618 40.7209 92.0258 40.5829C92.6954 40.4257 93.3088 40.3716 93.866 40.4205C94.4289 40.4503 94.9333 40.6085 95.3794 40.8951C95.8254 41.1816 96.2108 41.6219 96.5356 42.2159C96.9349 42.946 97.0916 43.6882 97.0057 44.4424C96.9254 45.1775 96.5705 45.9101 95.9409 46.6402C95.3237 47.3635 94.3902 48.0669 93.1404 48.7503C92.2494 49.2375 91.4128 49.5744 90.6307 49.761C89.8419 49.9351 89.112 49.9967 88.441 49.9456C87.7701 49.8945 87.1751 49.7618 86.656 49.5473C86.1368 49.3329 85.7043 49.0711 85.3584 48.7619C85.0249 48.446 84.7859 48.1265 84.6415 47.8036Z" fill="#FC5830"/>
<path d="M110.167 25.9914L110.976 28.1962L101.084 31.8232L102.352 35.2793L110.456 32.3078L111.213 34.3735L103.109 37.3451L104.988 42.4696L102.346 43.4383L97.6341 30.5872L110.167 25.9914Z" fill="#FC5830"/>
<path d="M120.827 33.9627L120.378 31.6577L129.266 29.9272L129.715 32.2322L120.827 33.9627ZM118.054 37.5416L121.751 22.877L124.741 22.2947L133.732 34.4891L130.721 35.0753L122.84 24.0442L124.169 23.7855L121.044 36.9594L118.054 37.5416Z" fill="#FC5830"/>
<path d="M153.608 28.4208C153.507 29.5235 153.141 30.4701 152.51 31.2607C151.879 32.0512 151.012 32.6638 149.907 33.0985C148.803 33.5332 147.482 33.7684 145.945 33.804C144.662 33.8337 143.481 33.7129 142.403 33.4417C141.339 33.17 140.412 32.7471 139.623 32.1729C138.847 31.5983 138.238 30.8788 137.795 30.0144C137.351 29.1359 137.116 28.1044 137.088 26.92C137.061 25.7356 137.249 24.6943 137.651 23.7962C138.053 22.8981 138.628 22.1442 139.376 21.5343C140.138 20.91 141.044 20.4376 142.094 20.117C143.159 19.782 144.332 19.5996 145.616 19.5699C147.153 19.5343 148.483 19.7151 149.607 20.1123C150.744 20.5092 151.647 21.0949 152.314 21.8695C152.98 22.63 153.383 23.5659 153.521 24.6772L150.73 24.7418C150.533 24.1539 150.211 23.6535 149.764 23.2406C149.331 22.8133 148.773 22.4947 148.091 22.2847C147.409 22.0748 146.603 21.9806 145.672 22.0022C144.516 22.029 143.505 22.2358 142.639 22.6226C141.773 22.9954 141.108 23.5398 140.645 24.2559C140.182 24.9579 139.962 25.8236 139.986 26.8529C140.01 27.8681 140.269 28.7156 140.764 29.3954C141.26 30.0752 141.949 30.5883 142.832 30.9347C143.714 31.2669 144.733 31.4196 145.889 31.3929C146.82 31.3713 147.614 31.2401 148.272 30.9991C148.943 30.7578 149.486 30.4208 149.899 29.988C150.326 29.5549 150.632 29.054 150.816 28.4854L153.608 28.4208Z" fill="#FC5830"/>
<path d="M160.375 19.8064L174.649 21.9104L174.306 24.2336L160.032 22.1296L160.375 19.8064ZM165.831 22.685L168.615 23.0953L166.918 34.6066L164.134 34.1963L165.831 22.685Z" fill="#FC5830"/>
<path d="M181.12 23.3389L183.835 24.0749L180.255 37.2863L177.539 36.5503L181.12 23.3389Z" fill="#FC5830"/>
<path d="M194.371 42.2632C192.698 41.5482 191.376 40.6763 190.405 39.6476C189.452 38.6115 188.865 37.4713 188.645 36.227C188.439 34.9883 188.626 33.688 189.208 32.3263C189.796 30.9515 190.609 29.9109 191.647 29.2042C192.698 28.5031 193.925 28.1454 195.326 28.131C196.747 28.1092 198.294 28.4558 199.967 29.1708C201.653 29.8913 202.972 30.7697 203.925 31.8058C204.883 32.8289 205.466 33.9599 205.673 35.1986C205.893 36.4429 205.709 37.7524 205.121 39.1271C204.539 40.4889 203.723 41.5203 202.672 42.2214C201.633 42.9281 200.411 43.2951 199.003 43.3224C197.601 43.3368 196.057 42.9837 194.371 42.2632ZM195.327 40.026C196.365 40.4694 197.339 40.7018 198.25 40.7231C199.175 40.7499 199.993 40.5398 200.705 40.0928C201.431 39.6513 202.002 38.9442 202.417 37.9715C202.833 36.9988 202.95 36.0977 202.767 35.2682C202.598 34.4443 202.184 33.7076 201.526 33.0583C200.887 32.4015 200.048 31.8514 199.01 31.408C197.986 30.9701 197.002 30.7414 196.06 30.722C195.123 30.6896 194.291 30.8942 193.566 31.3357C192.84 31.7772 192.27 32.4843 191.854 33.457C191.438 34.4297 191.321 35.3307 191.504 36.1602C191.686 36.9897 192.113 37.7319 192.784 38.3868C193.455 39.0417 194.303 39.5881 195.327 40.026Z" fill="#FC5830"/>
<path d="M220.487 53.1769L219.549 52.9826L225.798 43.6221L228.138 45.1844L220.538 56.5684L218.198 55.0061L214.998 39.8715L215.937 40.0657L209.735 49.3559L207.395 47.7936L214.995 36.4096L217.335 37.9719L220.487 53.1769Z" fill="#FC5830"/>
<path d="M235.602 70.6242C234.748 69.6853 234.084 68.7353 233.61 67.7744C233.146 66.824 232.881 65.8729 232.816 64.9214C232.761 63.9803 232.924 63.0694 233.305 62.1889C233.686 61.3083 234.299 60.4836 235.144 59.7149C236 58.9366 236.894 58.3998 237.826 58.1044C238.779 57.81 239.741 57.7357 240.712 57.8814C241.693 58.0376 242.654 58.4026 243.596 58.9762C244.557 59.5508 245.474 60.318 246.347 61.2779C247.382 62.415 248.112 63.5428 248.539 64.6612C248.975 65.7702 249.121 66.8204 248.974 67.8118C248.837 68.8137 248.4 69.7067 247.664 70.4906L245.842 68.4875C246.136 67.9722 246.292 67.4205 246.309 66.8322C246.347 66.245 246.222 65.625 245.933 64.9724C245.655 64.3103 245.193 63.6245 244.548 62.915C243.722 62.0074 242.869 61.363 241.988 60.9819C241.117 60.6113 240.264 60.501 239.428 60.6512C238.592 60.8014 237.814 61.204 237.095 61.8588C236.396 62.4947 235.923 63.1912 235.678 63.9484C235.443 64.6961 235.465 65.4959 235.744 66.3477C236.033 67.21 236.609 68.1159 237.473 69.0653C238.137 69.7956 238.815 70.3518 239.506 70.7339C240.216 71.1169 240.904 71.3491 241.569 71.4305C242.245 71.5023 242.857 71.4315 243.406 71.2178L244.444 71.7611C242.975 72.8498 241.461 73.2924 239.903 73.089C238.355 72.8959 236.921 72.0744 235.602 70.6242ZM239.891 74.9305C240.215 74.6362 240.604 74.3202 241.059 73.9823C241.525 73.6349 242 73.2979 242.485 72.9714C242.98 72.6354 243.434 72.3273 243.846 72.0473L239.632 67.4152L240.963 66.2051L246.458 72.2457L241.528 76.7301L239.891 74.9305Z" fill="#FC5830"/>
<path d="M256.398 87.8047L262.872 83.7523L264.365 86.1373L257.64 90.3468C256.875 90.8258 256.134 91.1313 255.418 91.2634C254.71 91.4074 254.031 91.3997 253.382 91.2402C252.733 91.0807 252.111 90.8046 251.516 90.4118C250.94 90.0235 250.396 89.5403 249.884 88.9621C249.38 88.3958 248.907 87.76 248.466 87.0547C248.009 86.3255 247.629 85.5984 247.325 84.8736C247.021 84.1487 246.816 83.4365 246.711 82.7369C246.626 82.0418 246.656 81.3735 246.804 80.732C246.952 80.0905 247.241 79.4766 247.673 78.8903C248.112 78.3159 248.714 77.7892 249.479 77.3102L256.204 73.1007L257.697 75.4856L251.223 79.538C250.315 80.1068 249.733 80.7202 249.48 81.3782C249.238 82.0287 249.222 82.7209 249.432 83.4548C249.661 84.1931 250.027 84.9628 250.528 85.7638C251.014 86.5408 251.532 87.1818 252.081 87.6867C252.65 88.1961 253.279 88.4842 253.97 88.551C254.68 88.6222 255.49 88.3735 256.398 87.8047Z" fill="#FC5830"/>
<path d="M259.081 99.101L261.254 98.2105L264.688 106.589L262.515 107.479L259.081 99.101ZM255.03 97.0804L270.134 97.841L271.289 100.66L261.087 111.86L259.923 109.022L269.202 99.1375L269.715 100.39L256.185 99.8993L255.03 97.0804Z" fill="#FC5830"/>
<path d="M262.536 115.678L275.885 112.653L277.937 121.711C278.171 122.743 278.229 123.669 278.112 124.491C278.011 125.324 277.707 126.022 277.198 126.586C276.703 127.146 275.988 127.532 275.053 127.744C274.42 127.887 273.859 127.899 273.369 127.779C272.879 127.658 272.451 127.43 272.085 127.093C271.723 126.77 271.409 126.372 271.142 125.897C270.889 125.419 270.677 124.896 270.504 124.328L270.604 124.002C270.808 124.968 270.905 125.777 270.894 126.43C270.897 127.081 270.74 127.601 270.423 127.991C270.123 128.391 269.602 128.675 268.859 128.844L265.682 129.564L265.06 126.82L268.052 126.142C268.561 126.026 268.933 125.848 269.167 125.607C269.416 125.363 269.542 124.994 269.546 124.502C269.553 124.023 269.459 123.35 269.262 122.483L268.089 117.305L263.157 118.422L262.536 115.678ZM270.235 116.818L271.665 123.132C271.84 123.902 272.158 124.445 272.62 124.76C273.084 125.088 273.633 125.181 274.266 125.037C274.871 124.9 275.285 124.589 275.508 124.105C275.734 123.635 275.76 123.014 275.585 122.244L274.155 115.93L270.235 116.818Z" fill="#FC5830"/>
<path d="M269.834 137.091L272.179 136.955L272.702 145.995L270.358 146.131L269.834 137.091ZM266.659 133.863L280.696 139.492L280.872 142.533L267.583 149.809L267.406 146.747L279.393 140.415L279.472 141.767L266.835 136.904L266.659 133.863Z" fill="#FC5830"/>
<path d="M76.0612 164.343V136.938H101.226C104.897 136.938 107.678 137.559 109.57 138.801C111.491 140.016 112.451 141.837 112.451 144.265C112.451 145.819 112.069 147.047 111.307 147.951C110.545 148.826 109.457 149.476 108.045 149.899C106.662 150.323 105.024 150.591 103.132 150.704L103.301 150.407C104.685 150.436 105.984 150.534 107.198 150.704C108.441 150.873 109.528 151.184 110.46 151.636C111.392 152.088 112.126 152.723 112.662 153.542C113.199 154.333 113.467 155.377 113.467 156.676C113.467 158.371 113.015 159.783 112.112 160.912C111.208 162.014 109.952 162.847 108.342 163.411C106.732 163.976 104.869 164.287 102.751 164.343H76.0612ZM81.6949 159.684H102.158C103.937 159.684 105.306 159.401 106.266 158.837C107.226 158.244 107.707 157.312 107.707 156.041C107.707 155.109 107.424 154.431 106.859 154.008C106.295 153.584 105.546 153.33 104.614 153.245C103.683 153.132 102.68 153.076 101.607 153.076H81.6949V159.684ZM81.6949 148.544H101.014C102.793 148.544 104.163 148.289 105.123 147.781C106.083 147.245 106.563 146.341 106.563 145.07C106.563 143.8 106.083 142.91 105.123 142.402C104.163 141.865 102.892 141.597 101.31 141.597H81.6949V148.544Z" fill="#FC5830"/>
<path d="M124.802 152.907V159.641H145.939V164.343H119.169V136.938H145.897V141.639H124.802V148.459H187.035V152.907H124.802Z" fill="#FC5830"/>
<path d="M220.254 152.907V159.641H199.117V164.343H225.887V136.938H199.159V141.639H220.254V148.459H184.694V152.907H220.254Z" fill="#FC5830"/>
</svg>
