<svg width="48" height="48" viewBox="0 0 48 48" fill="none" xmlns="http://www.w3.org/2000/svg">
<rect width="48" height="48" rx="24" fill="white"/>
<path d="M24.0022 18.8734C21.1645 18.8734 18.8756 21.1623 18.8756 24C18.8756 26.8377 21.1645 29.1266 24.0022 29.1266C26.8399 29.1266 29.1288 26.8377 29.1288 24C29.1288 21.1623 26.8399 18.8734 24.0022 18.8734ZM24.0022 27.3329C22.1684 27.3329 20.6693 25.8382 20.6693 24C20.6693 22.1617 22.164 20.667 24.0022 20.667C25.8405 20.667 27.3352 22.1617 27.3352 24C27.3352 25.8382 25.836 27.3329 24.0022 27.3329ZM30.5343 18.6637C30.5343 19.3285 29.9989 19.8594 29.3385 19.8594C28.6737 19.8594 28.1428 19.324 28.1428 18.6637C28.1428 18.0033 28.6782 17.4679 29.3385 17.4679C29.9989 17.4679 30.5343 18.0033 30.5343 18.6637ZM33.9297 19.8773C33.8539 18.2755 33.488 16.8566 32.3146 15.6876C31.1456 14.5187 29.7267 14.1528 28.1249 14.0725C26.4741 13.9788 21.5259 13.9788 19.8751 14.0725C18.2777 14.1483 16.8589 14.5142 15.6854 15.6832C14.512 16.8522 14.1506 18.271 14.0703 19.8728C13.9766 21.5237 13.9766 26.4718 14.0703 28.1227C14.1461 29.7245 14.512 31.1433 15.6854 32.3123C16.8589 33.4813 18.2733 33.8472 19.8751 33.9275C21.5259 34.0212 26.4741 34.0212 28.1249 33.9275C29.7267 33.8516 31.1456 33.4857 32.3146 32.3123C33.4835 31.1433 33.8494 29.7245 33.9297 28.1227C34.0234 26.4718 34.0234 21.5281 33.9297 19.8773ZM31.797 29.894C31.449 30.7685 30.7752 31.4422 29.8963 31.7947C28.58 32.3168 25.4568 32.1963 24.0022 32.1963C22.5477 32.1963 19.42 32.3123 18.1082 31.7947C17.2337 31.4467 16.56 30.773 16.2075 29.894C15.6854 28.5778 15.8059 25.4545 15.8059 24C15.8059 22.5454 15.6899 19.4177 16.2075 18.1059C16.5555 17.2314 17.2292 16.5577 18.1082 16.2052C19.4244 15.6832 22.5477 15.8036 24.0022 15.8036C25.4568 15.8036 28.5845 15.6876 29.8963 16.2052C30.7708 16.5532 31.4445 17.227 31.797 18.1059C32.319 19.4222 32.1985 22.5454 32.1985 24C32.1985 25.4545 32.319 28.5822 31.797 29.894Z" fill="#1C1C1A"/>
</svg>
