<svg width="64" height="64" viewBox="0 0 64 64" fill="none" xmlns="http://www.w3.org/2000/svg">
<path d="M31.9602 51.0184C31.9595 51.0184 31.9588 51.0184 31.9582 51.0184C29.6038 51.0184 27.2846 50.2237 25.4276 48.7806C19.056 43.8291 11.4156 35.603 11.2 24.533C11.233 14.4159 22.6221 9.42447 30.2167 15.8599C30.8918 16.4428 31.4759 17.0879 31.9593 17.7754C32.4427 17.0879 33.0268 16.4429 33.7019 15.8599C35.8477 14.0067 38.6271 12.9861 41.5282 12.9861C42.4239 12.9861 43.15 13.7122 43.15 14.608C43.15 15.5036 42.4239 16.2298 41.5282 16.2298C36.9798 16.2298 33.5811 19.612 33.5811 22.6361C33.5811 23.5318 32.855 24.2579 31.9593 24.2579C31.0636 24.2579 30.3375 23.5318 30.3375 22.6361C30.3375 19.612 26.9388 16.2298 22.3904 16.2298C18.0135 16.2298 14.4516 19.9322 14.4434 24.4861C14.6413 34.2685 21.6073 41.7037 27.418 46.2193C28.7086 47.2223 30.3211 47.7747 31.9584 47.7747C33.5966 47.775 35.2096 47.2227 36.5006 46.2193C41.674 42.199 45.363 37.8046 47.465 33.1584C47.8342 32.3423 48.795 31.98 49.6111 32.3492C50.4273 32.7184 50.7895 33.6792 50.4204 34.4954C48.0988 39.627 44.0851 44.4333 38.4911 48.7806C36.6342 50.2236 34.3147 51.0183 31.9602 51.0184V51.0184ZM25.6262 38.1555L30.0626 33.8662C30.9466 33.0874 32.2533 33.0515 33.1793 33.7839C33.1952 33.7964 33.3641 33.9205 33.3641 33.9205C35.7016 35.7475 39.0761 35.458 41.068 33.257L46.7685 27.1486C47.3796 26.4937 47.3442 25.4674 46.6893 24.8562C46.0344 24.2451 45.0082 24.2805 44.397 24.9355C44.397 24.9355 38.6741 31.068 38.6676 31.0752C37.8114 32.0266 36.3543 32.1499 35.3503 31.356C35.3344 31.3434 35.1656 31.2193 35.1656 31.2193C32.9906 29.5191 29.9293 29.6231 27.8744 31.4713C27.8598 31.4844 23.3715 35.8234 23.3715 35.8234C22.3221 36.833 23.0624 38.6196 24.499 38.6112C24.9049 38.6113 25.3113 38.4599 25.6262 38.1555V38.1555ZM51.1782 29.5289C50.2824 29.5289 49.5563 28.8028 49.5563 27.9071V23.5281C49.5563 22.6338 48.8288 21.9063 47.9345 21.9063H43.5555C41.4036 21.8206 41.4053 18.7475 43.5555 18.6626H47.9345C50.6173 18.6626 52.8 20.8453 52.8 23.5281V27.9071C52.8 28.8028 52.0739 29.5289 51.1782 29.5289V29.5289Z" fill="#BCBDBF"/>
</svg>
