<svg width="138" height="45" viewBox="0 0 138 45" fill="none" xmlns="http://www.w3.org/2000/svg">
<path d="M0 25.1113V0H23.0577C26.4214 0 28.9701 0.569241 30.7037 1.70772C32.4631 2.82033 33.3429 4.48924 33.3429 6.71446C33.3429 8.13756 32.9936 9.26311 32.2949 10.0911C31.5963 10.8932 30.6002 11.4883 29.3064 11.8764C28.0386 12.2646 26.5378 12.5104 24.8042 12.6139L24.9595 12.3422C26.2274 12.3681 27.4176 12.4586 28.5302 12.6139C29.6687 12.7691 30.6649 13.0537 31.5187 13.4677C32.3726 13.8817 33.0453 14.4639 33.5369 15.2143C34.0285 15.9388 34.2744 16.8961 34.2744 18.0864C34.2744 19.6388 33.8604 20.9326 33.0324 21.9675C32.2044 22.9767 31.053 23.74 29.5781 24.2574C28.1033 24.7749 26.3955 25.0596 24.4549 25.1113H0ZM5.16198 20.842H23.9116C25.5417 20.842 26.7966 20.5833 27.6763 20.0658C28.5561 19.5224 28.9959 18.6685 28.9959 17.5042C28.9959 16.6503 28.7372 16.0293 28.2197 15.6412C27.7022 15.2531 27.0165 15.0202 26.1627 14.9426C25.3088 14.8391 24.3903 14.7873 23.407 14.7873H5.16198V20.842ZM5.16198 10.6345H22.8637C24.4938 10.6345 25.7487 10.4016 26.6284 9.93585C27.5081 9.44423 27.948 8.61624 27.948 7.45189C27.948 6.28753 27.5081 5.47248 26.6284 5.00674C25.7487 4.51512 24.5843 4.26931 23.1353 4.26931H5.16198V10.6345Z" fill="white"/>
<path d="M44.6604 14.6321V20.8032H64.0276V25.1113H39.4984V0H63.9888V4.30812H44.6604V10.5568H101.683V14.6321H44.6604Z" fill="white"/>
<path d="M132.12 14.6321V20.8032H112.753V25.1113H137.282V0H112.792V4.30812H132.12V10.5568H99.5379V14.6321H132.12Z" fill="white"/>
<path d="M2.20422 40.1292V38.9123H5.60239C6.00803 38.9123 6.32948 38.8051 6.56674 38.5908C6.804 38.3689 6.92263 38.0627 6.92263 37.6724C6.92263 37.2667 6.804 36.9568 6.56674 36.7425C6.32948 36.5282 6.00803 36.421 5.60239 36.421H2.3879V42.54H0.861023V35.1123H5.46463C5.87792 35.1123 6.26442 35.162 6.62414 35.2615C6.99151 35.361 7.30913 35.5141 7.577 35.7207C7.85253 35.9274 8.06683 36.1914 8.2199 36.5129C8.37297 36.8343 8.44951 37.2208 8.44951 37.6724C8.44951 38.1163 8.37297 38.4951 8.2199 38.8089C8.06683 39.1227 7.85253 39.3791 7.577 39.5781C7.30913 39.7695 6.99151 39.911 6.62414 40.0029C6.26442 40.0871 5.87792 40.1292 5.46463 40.1292H2.20422ZM11.4135 39.4404V41.2657H17.1422V42.54H9.88661V35.1123H17.1307V36.3866H11.4135V38.2349H16.0975V39.4404H11.4135ZM18.7099 42.54V35.1123H23.7497C24.3237 35.1123 24.8212 35.1926 25.2422 35.3534C25.6707 35.5064 26.0037 35.7513 26.2409 36.0881C26.4782 36.4172 26.5968 36.842 26.5968 37.3624C26.5968 37.7145 26.5356 38.013 26.4131 38.2579C26.2907 38.5028 26.1185 38.7018 25.8965 38.8549C25.6822 39.0079 25.4335 39.1266 25.1503 39.2107C24.8671 39.2873 24.5648 39.337 24.2434 39.36L24.0826 39.2682C24.6184 39.2758 25.0585 39.3217 25.4029 39.4059C25.7473 39.4824 26.0037 39.6279 26.1721 39.8422C26.3481 40.0488 26.4361 40.3588 26.4361 40.7721V42.54H24.9092V40.8754C24.9092 40.5922 24.8595 40.3741 24.76 40.221C24.6605 40.0603 24.4806 39.9493 24.2204 39.8881C23.9678 39.8269 23.6005 39.7962 23.1183 39.7962H20.2367V42.54H18.7099ZM20.2367 38.6023H23.7497C24.1783 38.6023 24.5036 38.499 24.7255 38.2923C24.9551 38.0857 25.0699 37.8063 25.0699 37.4543C25.0699 37.1175 24.9551 36.8611 24.7255 36.6851C24.5036 36.509 24.1783 36.421 23.7497 36.421H20.2367V38.6023ZM27.7009 40.0373H29.2508C29.2814 40.2976 29.4 40.5348 29.6066 40.7491C29.8209 40.9558 30.1003 41.1203 30.4447 41.2428C30.7891 41.3576 31.1756 41.415 31.6042 41.415C31.9945 41.415 32.316 41.3729 32.5686 41.2887C32.8211 41.2045 33.0086 41.0859 33.1311 40.9328C33.2536 40.7797 33.3148 40.596 33.3148 40.3817C33.3148 40.1751 33.2382 40.0182 33.0852 39.911C32.9321 39.7962 32.691 39.7044 32.3619 39.6355C32.0328 39.559 31.6004 39.4824 31.0646 39.4059C30.6437 39.3447 30.2457 39.2605 29.8707 39.1533C29.4957 39.0385 29.1627 38.8931 28.8719 38.7171C28.5887 38.5411 28.3629 38.3268 28.1946 38.0742C28.0338 37.814 27.9535 37.5078 27.9535 37.1558C27.9535 36.7195 28.0759 36.3368 28.3208 36.0077C28.5734 35.6786 28.9446 35.4222 29.4344 35.2386C29.9243 35.0549 30.5251 34.963 31.2368 34.963C32.3083 34.963 33.1311 35.1926 33.7051 35.6519C34.2868 36.1034 34.57 36.7272 34.5547 37.5231H33.0622C33.0316 37.0716 32.8403 36.7463 32.4882 36.5473C32.1438 36.3483 31.7075 36.2488 31.1794 36.2488C30.6896 36.2488 30.284 36.3215 29.9625 36.467C29.6487 36.6124 29.4918 36.8611 29.4918 37.2132C29.4918 37.3509 29.5301 37.4734 29.6066 37.5805C29.6832 37.68 29.8133 37.7681 29.997 37.8446C30.1807 37.9211 30.4294 37.9938 30.7432 38.0627C31.057 38.1316 31.4473 38.2005 31.9142 38.2694C32.3504 38.3306 32.7446 38.4148 33.0967 38.5219C33.4564 38.6214 33.7625 38.7554 34.0151 38.9237C34.2753 39.0845 34.4743 39.2911 34.6121 39.5437C34.7498 39.7962 34.8187 40.1062 34.8187 40.4736C34.8187 40.9251 34.7001 41.3193 34.4628 41.6561C34.2332 41.9852 33.8735 42.2416 33.3837 42.4252C32.9015 42.6089 32.2739 42.7008 31.5009 42.7008C30.9498 42.7008 30.4638 42.6434 30.0429 42.5286C29.622 42.4061 29.2584 42.2454 28.9523 42.0464C28.6461 41.8474 28.3974 41.6293 28.206 41.392C28.0147 41.1547 27.8769 40.9175 27.7928 40.6802C27.7162 40.443 27.6856 40.2287 27.7009 40.0373ZM40.5857 42.6893C39.5984 42.6893 38.7527 42.5362 38.0485 42.2301C37.3521 41.9163 36.8163 41.4724 36.4413 40.8984C36.0739 40.3243 35.8902 39.6355 35.8902 38.8319C35.8902 38.0206 36.0739 37.328 36.4413 36.754C36.8163 36.1799 37.3521 35.7399 38.0485 35.4337C38.7527 35.1199 39.5984 34.963 40.5857 34.963C41.5806 34.963 42.4264 35.1199 43.1228 35.4337C43.8193 35.7399 44.3512 36.1799 44.7186 36.754C45.0936 37.328 45.2811 38.0206 45.2811 38.8319C45.2811 39.6355 45.0936 40.3243 44.7186 40.8984C44.3512 41.4724 43.8193 41.9163 43.1228 42.2301C42.4264 42.5362 41.5806 42.6893 40.5857 42.6893ZM40.5857 41.369C41.198 41.369 41.7337 41.2772 42.1929 41.0935C42.6598 40.9098 43.0233 40.6305 43.2835 40.2555C43.5514 39.8804 43.6854 39.4059 43.6854 38.8319C43.6854 38.2579 43.5514 37.7834 43.2835 37.4083C43.0233 37.0333 42.6598 36.754 42.1929 36.5703C41.7337 36.3789 41.198 36.2833 40.5857 36.2833C39.981 36.2833 39.4415 36.3789 38.967 36.5703C38.4924 36.754 38.1212 37.0333 37.8534 37.4083C37.5855 37.7834 37.4516 38.2579 37.4516 38.8319C37.4516 39.4059 37.5855 39.8804 37.8534 40.2555C38.1212 40.6305 38.4924 40.9098 38.967 41.0935C39.4415 41.2772 39.981 41.369 40.5857 41.369ZM54.3027 41.0246L53.8205 41.2198V35.1123H55.3474V42.54H53.8205L47.8163 36.6736L48.2985 36.4784V42.54H46.7716V35.1123H48.2985L54.3027 41.0246ZM58.2791 40.9213V39.647H63.1926V40.9213H58.2791ZM56.4307 42.54L59.9208 35.1123H61.5739L65.0984 42.54H63.4337L60.38 35.847H61.1147L58.0839 42.54H56.4307ZM67.7051 35.1123V41.2657H72.6417V42.54H66.1782V35.1123H67.7051Z" fill="white"/>
<path d="M78.2987 35.1123H86.1283V36.3866H78.2987V35.1123ZM81.4558 36.2259H82.9827V42.54H81.4558V36.2259ZM87.2382 42.54V35.1123H92.278C92.8521 35.1123 93.3495 35.1926 93.7705 35.3534C94.1991 35.5064 94.532 35.7513 94.7693 36.0881C95.0065 36.4172 95.1252 36.842 95.1252 37.3624C95.1252 37.7145 95.0639 38.013 94.9415 38.2579C94.819 38.5028 94.6468 38.7018 94.4249 38.8549C94.2106 39.0079 93.9618 39.1266 93.6786 39.2107C93.3955 39.2873 93.0931 39.337 92.7717 39.36L92.611 39.2682C93.1467 39.2758 93.5868 39.3217 93.9312 39.4059C94.2756 39.4824 94.532 39.6279 94.7004 39.8422C94.8764 40.0488 94.9644 40.3588 94.9644 40.7721V42.54H93.4375V40.8754C93.4375 40.5922 93.3878 40.3741 93.2883 40.221C93.1888 40.0603 93.009 39.9493 92.7487 39.8881C92.4962 39.8269 92.1288 39.7962 91.6466 39.7962H88.7651V42.54H87.2382ZM88.7651 38.6023H92.278C92.7066 38.6023 93.0319 38.499 93.2539 38.2923C93.4835 38.0857 93.5983 37.8063 93.5983 37.4543C93.5983 37.1175 93.4835 36.8611 93.2539 36.6851C93.0319 36.509 92.7066 36.421 92.278 36.421H88.7651V38.6023ZM97.8824 40.9213V39.647H102.796V40.9213H97.8824ZM96.0341 42.54L99.5241 35.1123H101.177L104.702 42.54H103.037L99.9833 35.847H100.718L97.6872 42.54H96.0341ZM106 35.1123H107.527V42.54H106V35.1123ZM117.035 41.0246L116.553 41.2198V35.1123H118.079V42.54H116.553L110.548 36.6736L111.031 36.4784V42.54H109.504V35.1123H111.031L117.035 41.0246ZM121.379 39.4404V41.2657H127.107V42.54H119.852V35.1123H127.096V36.3866H121.379V38.2349H126.063V39.4404H121.379ZM128.675 42.54V35.1123H133.715C134.289 35.1123 134.786 35.1926 135.207 35.3534C135.636 35.5064 135.969 35.7513 136.206 36.0881C136.443 36.4172 136.562 36.842 136.562 37.3624C136.562 37.7145 136.501 38.013 136.378 38.2579C136.256 38.5028 136.084 38.7018 135.862 38.8549C135.647 39.0079 135.399 39.1266 135.115 39.2107C134.832 39.2873 134.53 39.337 134.208 39.36L134.048 39.2682C134.583 39.2758 135.024 39.3217 135.368 39.4059C135.712 39.4824 135.969 39.6279 136.137 39.8422C136.313 40.0488 136.401 40.3588 136.401 40.7721V42.54H134.874V40.8754C134.874 40.5922 134.825 40.3741 134.725 40.221C134.626 40.0603 134.446 39.9493 134.185 39.8881C133.933 39.8269 133.566 39.7962 133.083 39.7962H130.202V42.54H128.675ZM130.202 38.6023H133.715C134.143 38.6023 134.469 38.499 134.691 38.2923C134.92 38.0857 135.035 37.8063 135.035 37.4543C135.035 37.1175 134.92 36.8611 134.691 36.6851C134.469 36.509 134.143 36.421 133.715 36.421H130.202V38.6023Z" fill="white"/>
</svg>
