<svg width="34" height="27" viewBox="0 0 34 27" fill="none" xmlns="http://www.w3.org/2000/svg">
<path d="M12.0114 0.5L13.8519 3.84848C12.8186 5.29293 11.85 6.90151 10.9459 8.67424C10.1064 10.447 9.62203 12.2854 9.49288 14.1894L14.8205 15.1742V26.5H0V18.4242C0 13.7626 1.06553 10.0202 3.19658 7.19697C5.39221 4.30808 8.33048 2.07576 12.0114 0.5ZM31.1909 0.5L33.0313 3.84848C31.9981 5.29293 31.0294 6.90151 30.1254 8.67424C29.2858 10.447 28.8015 12.2854 28.6724 14.1894L34 15.1742V26.5H19.1795V18.4242C19.1795 13.7626 20.245 10.0202 22.3761 7.19697C24.5717 4.30808 27.51 2.07576 31.1909 0.5Z" fill="#1C1C1A"/>
</svg>
