<svg width="64" height="64" viewBox="0 0 64 64" fill="none" xmlns="http://www.w3.org/2000/svg">
<path d="M47.9206 30.2216C46.6731 30.2216 45.4256 29.7467 44.4759 28.7971L35.2198 19.541C30.8385 14.7801 37.3537 8.27205 42.1093 12.6514L51.3654 21.9075C54.4325 24.9617 52.1988 30.2504 47.9206 30.2216ZM38.6645 14.4731C37.2378 14.4636 36.4943 16.2271 37.5163 17.2445L46.7724 26.5006C48.3593 27.961 50.5286 25.7893 49.0689 24.2041L39.8128 14.948C39.4963 14.6314 39.0804 14.4731 38.6645 14.4731ZM25.3488 52.7935C24.1012 52.7935 22.8538 52.3186 21.904 51.369L12.6479 42.1129C8.26664 37.3521 14.7819 30.844 19.5375 35.2233L28.7936 44.4794C31.8606 47.5336 29.6269 52.8223 25.3488 52.7935ZM16.0927 37.045C14.666 37.0355 13.9224 38.799 14.9444 39.8164L24.2005 49.0725C25.7875 50.5329 27.9568 48.3612 26.497 46.776L17.2409 37.5199C16.9243 37.2033 16.5085 37.045 16.0927 37.045ZM27.2974 38.3434C26.8794 38.3434 26.4618 38.1831 26.1442 37.8629C25.5128 37.226 25.5172 36.1978 26.1541 35.5664L35.6538 26.1479C37.2442 24.6917 39.4094 26.878 37.9404 28.4542L28.4407 37.8727C28.1241 38.1866 27.7106 38.3434 27.2974 38.3434ZM50.8552 15.4582L52.3167 13.9967C53.7796 12.4125 51.6026 10.2379 50.0202 11.7002L48.5587 13.1617C47.5345 14.18 48.2818 15.9425 49.707 15.9338C50.1225 15.9338 50.5381 15.7753 50.8552 15.4582ZM13.9932 52.3202L15.4547 50.8588C16.9175 49.2746 14.7406 47.1 13.1582 48.5623L11.6967 50.0238C10.6725 51.0421 11.4197 52.8046 12.8449 52.7959C13.2605 52.7959 13.676 52.6373 13.9932 52.3202Z" fill="#BCBDBF"/>
</svg>
