<svg width="32" height="24" viewBox="0 0 32 24" fill="none" xmlns="http://www.w3.org/2000/svg">
<path d="M11.3048 0L13.037 3.04611C12.0646 4.36012 11.1529 5.82345 10.302 7.4361C9.51187 9.04875 9.05603 10.7211 8.93447 12.4532L13.9487 13.3491V23.6522H0V16.3057C0 12.065 1.00285 8.66052 3.00855 6.09223C5.07502 3.46421 7.84046 1.43346 11.3048 0ZM29.3561 0L31.0883 3.04611C30.1159 4.36012 29.2042 5.82345 28.3533 7.4361C27.5632 9.04875 27.1073 10.7211 26.9858 12.4532L32 13.3491V23.6522H18.0513V16.3057C18.0513 12.065 19.0541 8.66052 21.0598 6.09223C23.1263 3.46421 25.8917 1.43346 29.3561 0Z" fill="#FC5830"/>
</svg>