<svg width="64" height="64" viewBox="0 0 64 64" fill="none" xmlns="http://www.w3.org/2000/svg">
<path d="M20.2244 34.9849C20.066 34.9849 19.9049 34.9616 19.7457 34.9124C18.8883 34.6484 18.4073 33.7393 18.6713 32.882L20.0721 28.3339C20.3361 27.4765 21.2451 26.9953 22.1026 27.2596C22.96 27.5237 23.4409 28.4327 23.1769 29.2901L21.7762 33.8382C21.5612 34.5363 20.9184 34.9849 20.2244 34.9849V34.9849ZM44.2481 34.9145C45.1065 34.654 45.5913 33.747 45.3309 32.8885L40.7516 17.7969C37.6387 7.74407 23.1465 9.74394 22.9039 20.2844C22.8283 27.0302 30.3145 31.5786 36.2527 28.2982C37.0455 27.8783 37.3477 26.8953 36.9278 26.1026C36.5078 25.3098 35.5251 25.0074 34.7321 25.4274C30.9129 27.5555 26.1045 24.6147 26.1526 20.2843C26.3092 13.5017 35.6388 12.2248 37.6294 18.6944C37.6323 18.7048 37.6354 18.7152 37.6384 18.7256L42.2221 33.8318C42.4349 34.5331 43.0792 34.9849 43.776 34.9849C43.9322 34.9849 44.091 34.9621 44.2481 34.9145ZM47.9113 52.773C47.0885 52.773 46.2751 52.5626 45.5375 52.1495C44.4018 51.5135 43.5818 50.4733 43.2285 49.2206L41.5244 43.2106C40.026 36.9119 48.8934 34.4162 50.9039 40.5629L52.6079 46.573C53.3719 49.0816 51.7778 51.9281 49.2412 52.5879C48.8022 52.7117 48.3554 52.773 47.9113 52.773V52.773ZM46.2131 40.2612C46.0676 40.2612 45.9198 40.2809 45.7729 40.3223C44.911 40.5655 44.4074 41.4646 44.6505 42.3267L46.3546 48.3366C46.473 48.7564 46.7463 49.1031 47.1249 49.3151C47.5034 49.5271 47.9419 49.579 48.3594 49.4612C48.777 49.3434 49.1238 49.0701 49.3357 48.6915C49.5477 48.313 49.5996 47.8746 49.4818 47.457L47.7778 41.4469C47.5756 40.73 46.9221 40.2612 46.2131 40.2612V40.2612ZM16.0891 52.773C15.6449 52.773 15.1982 52.7118 14.7591 52.5879C12.2233 51.929 10.6286 49.0813 11.3917 46.5751L13.097 40.5607C13.8259 37.9768 16.5235 36.4664 19.1092 37.1956C21.6953 37.9249 23.2057 40.6222 22.4765 43.2083L20.7711 49.2227C20.2278 51.2804 18.206 52.7992 16.0891 52.773V52.773ZM17.787 40.2612C17.078 40.2612 16.4249 40.7295 16.2231 41.4448L14.5178 47.4592C14.4006 47.8746 14.4525 48.313 14.6645 48.6916C14.8765 49.0701 15.2233 49.3435 15.6408 49.4613C16.0585 49.579 16.4968 49.5272 16.8754 49.3152C17.2539 49.1032 17.5272 48.7565 17.6451 48.3389L19.3505 42.3244C19.5929 41.4646 19.0894 40.5655 18.2274 40.3223C18.0806 40.2809 17.9326 40.2612 17.787 40.2612Z" fill="#BCBDBF"/>
</svg>
