<svg width="1920" height="459" viewBox="0 0 1920 459" fill="none" xmlns="http://www.w3.org/2000/svg">
<path d="M728.129 237.236C538.971 237.236 432.606 118.618 298.792 118.618H1.99902V459H1920V0C1862.76 42.9775 1739.6 99.7079 1611.02 99.7079C1450.3 99.7079 1368.1 34.382 1213.98 34.382C1067.2 34.382 917.288 237.236 728.129 237.236Z" fill="url(#paint0_linear_109_25751)"/>
<line x1="404.54" y1="3" x2="404.54" y2="378" stroke="#CFCFCF" stroke-width="1.5"/>
<line x1="775.347" y1="3" x2="775.347" y2="378" stroke="#CFCFCF" stroke-width="1.5"/>
<line x1="1148.15" y1="3" x2="1148.15" y2="378" stroke="#CFCFCF" stroke-width="1.5"/>
<line x1="1517.96" y1="3" x2="1517.96" y2="378" stroke="#CFCFCF" stroke-width="1.5"/>
<path d="M1872.02 277.895C1772.45 240.541 1700.22 219.823 1574.31 248.281C1401.51 287.335 1340.33 335.755 1186.57 335.755C1040.13 335.755 872.138 244.842 726.431 244.842C580.724 244.842 400.605 340 298.097 340H1.99902" stroke="#595959" stroke-width="3" stroke-linecap="round"/>
<path d="M1875.02 28C1799.29 62.5 1735.54 100.609 1607.26 100.609C1446.91 100.609 1364.9 35.3478 1211.14 35.3478C1064.7 35.3478 915.147 238 726.431 238C537.715 238 431.598 119.5 298.097 119.5H1.99902" stroke="#FC5830" stroke-width="3" stroke-linecap="round"/>
<path d="M0 49H172.904C179.531 49 184.904 54.3726 184.904 61V120H0V49Z" fill="#FC5830"/>
<path d="M48.8019 77.779C49.7259 77.779 50.5379 77.968 51.2379 78.346C51.9379 78.724 52.4769 79.263 52.8549 79.963C53.2469 80.649 53.4429 81.44 53.4429 82.336C53.4429 83.218 53.2399 83.995 52.8339 84.667C52.4419 85.339 51.8819 85.864 51.1539 86.242C50.4399 86.606 49.6139 86.788 48.6759 86.788H45.6939C45.6239 86.788 45.5889 86.823 45.5889 86.893V92.248C45.5889 92.318 45.5609 92.381 45.5049 92.437C45.4629 92.479 45.4069 92.5 45.3369 92.5H42.8799C42.8099 92.5 42.7469 92.479 42.6909 92.437C42.6489 92.381 42.6279 92.318 42.6279 92.248V78.031C42.6279 77.961 42.6489 77.905 42.6909 77.863C42.7469 77.807 42.8099 77.779 42.8799 77.779H48.8019ZM48.3609 84.415C49.0049 84.415 49.5229 84.233 49.9149 83.869C50.3069 83.491 50.5029 83.001 50.5029 82.399C50.5029 81.783 50.3069 81.286 49.9149 80.908C49.5229 80.53 49.0049 80.341 48.3609 80.341H45.6939C45.6239 80.341 45.5889 80.376 45.5889 80.446V84.31C45.5889 84.38 45.6239 84.415 45.6939 84.415H48.3609ZM65.2592 80.089C65.2592 80.159 65.2312 80.222 65.1752 80.278C65.1332 80.32 65.0772 80.341 65.0072 80.341H58.1192C58.0492 80.341 58.0142 80.376 58.0142 80.446V83.701C58.0142 83.771 58.0492 83.806 58.1192 83.806H62.6342C62.7042 83.806 62.7602 83.834 62.8022 83.89C62.8582 83.932 62.8862 83.988 62.8862 84.058V86.095C62.8862 86.165 62.8582 86.228 62.8022 86.284C62.7602 86.326 62.7042 86.347 62.6342 86.347H58.1192C58.0492 86.347 58.0142 86.382 58.0142 86.452V89.854C58.0142 89.924 58.0492 89.959 58.1192 89.959H65.0072C65.0772 89.959 65.1332 89.987 65.1752 90.043C65.2312 90.085 65.2592 90.141 65.2592 90.211V92.248C65.2592 92.318 65.2312 92.381 65.1752 92.437C65.1332 92.479 65.0772 92.5 65.0072 92.5H55.3052C55.2352 92.5 55.1722 92.479 55.1162 92.437C55.0742 92.381 55.0532 92.318 55.0532 92.248V78.052C55.0532 77.982 55.0742 77.926 55.1162 77.884C55.1722 77.828 55.2352 77.8 55.3052 77.8H65.0072C65.0772 77.8 65.1332 77.828 65.1752 77.884C65.2312 77.926 65.2592 77.982 65.2592 78.052V80.089ZM75.1709 92.5C75.0309 92.5 74.9329 92.437 74.8769 92.311L72.2519 86.494C72.2239 86.438 72.1819 86.41 72.1259 86.41H70.1729C70.1029 86.41 70.0679 86.445 70.0679 86.515V92.248C70.0679 92.318 70.0399 92.381 69.9839 92.437C69.9419 92.479 69.8859 92.5 69.8159 92.5H67.3589C67.2889 92.5 67.2259 92.479 67.1699 92.437C67.1279 92.381 67.1069 92.318 67.1069 92.248V78.052C67.1069 77.982 67.1279 77.926 67.1699 77.884C67.2259 77.828 67.2889 77.8 67.3589 77.8H73.3649C74.2609 77.8 75.0449 77.982 75.7169 78.346C76.4029 78.71 76.9279 79.228 77.2919 79.9C77.6699 80.572 77.8589 81.349 77.8589 82.231C77.8589 83.183 77.6209 84.002 77.1449 84.688C76.6689 85.36 76.0039 85.836 75.1499 86.116C75.0799 86.144 75.0589 86.193 75.0869 86.263L77.9429 92.206C77.9709 92.262 77.9849 92.304 77.9849 92.332C77.9849 92.444 77.9079 92.5 77.7539 92.5H75.1709ZM70.1729 80.341C70.1029 80.341 70.0679 80.376 70.0679 80.446V84.037C70.0679 84.107 70.1029 84.142 70.1729 84.142H72.9239C73.5119 84.142 73.9879 83.967 74.3519 83.617C74.7299 83.267 74.9189 82.812 74.9189 82.252C74.9189 81.692 74.7299 81.237 74.3519 80.887C73.9879 80.523 73.5119 80.341 72.9239 80.341H70.1729ZM84.8363 92.668C83.7163 92.668 82.7363 92.493 81.8963 92.143C81.0563 91.779 80.4053 91.268 79.9433 90.61C79.4953 89.938 79.2713 89.161 79.2713 88.279V87.817C79.2713 87.747 79.2923 87.691 79.3343 87.649C79.3903 87.593 79.4533 87.565 79.5233 87.565H81.9173C81.9873 87.565 82.0433 87.593 82.0853 87.649C82.1413 87.691 82.1693 87.747 82.1693 87.817V88.132C82.1693 88.692 82.4283 89.168 82.9463 89.56C83.4643 89.938 84.1643 90.127 85.0463 90.127C85.7883 90.127 86.3413 89.973 86.7053 89.665C87.0693 89.343 87.2513 88.951 87.2513 88.489C87.2513 88.153 87.1393 87.873 86.9153 87.649C86.6913 87.411 86.3833 87.208 85.9913 87.04C85.6133 86.858 85.0043 86.613 84.1643 86.305C83.2263 85.983 82.4283 85.654 81.7703 85.318C81.1263 84.982 80.5803 84.527 80.1323 83.953C79.6983 83.365 79.4813 82.644 79.4813 81.79C79.4813 80.95 79.6983 80.215 80.1323 79.585C80.5663 78.955 81.1683 78.472 81.9383 78.136C82.7083 77.8 83.5973 77.632 84.6053 77.632C85.6693 77.632 86.6143 77.821 87.4403 78.199C88.2803 78.577 88.9313 79.109 89.3933 79.795C89.8693 80.467 90.1073 81.251 90.1073 82.147V82.462C90.1073 82.532 90.0793 82.595 90.0233 82.651C89.9813 82.693 89.9253 82.714 89.8553 82.714H87.4403C87.3703 82.714 87.3073 82.693 87.2513 82.651C87.2093 82.595 87.1883 82.532 87.1883 82.462V82.294C87.1883 81.706 86.9433 81.209 86.4533 80.803C85.9773 80.383 85.3193 80.173 84.4793 80.173C83.8213 80.173 83.3033 80.313 82.9253 80.593C82.5613 80.873 82.3793 81.258 82.3793 81.748C82.3793 82.098 82.4843 82.392 82.6943 82.63C82.9183 82.868 83.2403 83.085 83.6603 83.281C84.0943 83.463 84.7593 83.715 85.6553 84.037C86.6493 84.401 87.4263 84.723 87.9863 85.003C88.5603 85.283 89.0713 85.703 89.5193 86.263C89.9813 86.809 90.2123 87.523 90.2123 88.405C90.2123 89.721 89.7293 90.764 88.7633 91.534C87.7973 92.29 86.4883 92.668 84.8363 92.668ZM97.3045 92.731C96.2125 92.731 95.2465 92.507 94.4065 92.059C93.5805 91.611 92.9365 90.988 92.4745 90.19C92.0125 89.378 91.7815 88.447 91.7815 87.397V82.903C91.7815 81.867 92.0125 80.95 92.4745 80.152C92.9365 79.354 93.5805 78.738 94.4065 78.304C95.2465 77.856 96.2125 77.632 97.3045 77.632C98.4105 77.632 99.3765 77.856 100.203 78.304C101.043 78.738 101.694 79.354 102.156 80.152C102.618 80.95 102.849 81.867 102.849 82.903V87.397C102.849 88.447 102.618 89.378 102.156 90.19C101.694 91.002 101.043 91.632 100.203 92.08C99.3765 92.514 98.4105 92.731 97.3045 92.731ZM97.3045 90.19C98.0745 90.19 98.6975 89.945 99.1735 89.455C99.6495 88.965 99.8875 88.314 99.8875 87.502V82.882C99.8875 82.07 99.6495 81.419 99.1735 80.929C98.7115 80.425 98.0885 80.173 97.3045 80.173C96.5345 80.173 95.9115 80.425 95.4355 80.929C94.9735 81.419 94.7425 82.07 94.7425 82.882V87.502C94.7425 88.314 94.9735 88.965 95.4355 89.455C95.9115 89.945 96.5345 90.19 97.3045 90.19ZM113.35 78.052C113.35 77.982 113.371 77.926 113.413 77.884C113.469 77.828 113.532 77.8 113.602 77.8H116.059C116.129 77.8 116.185 77.828 116.227 77.884C116.283 77.926 116.311 77.982 116.311 78.052V92.248C116.311 92.318 116.283 92.381 116.227 92.437C116.185 92.479 116.129 92.5 116.059 92.5H113.686C113.546 92.5 113.448 92.444 113.392 92.332L107.953 83.344C107.925 83.302 107.897 83.288 107.869 83.302C107.841 83.302 107.827 83.33 107.827 83.386L107.869 92.248C107.869 92.318 107.841 92.381 107.785 92.437C107.743 92.479 107.687 92.5 107.617 92.5H105.16C105.09 92.5 105.027 92.479 104.971 92.437C104.929 92.381 104.908 92.318 104.908 92.248V78.052C104.908 77.982 104.929 77.926 104.971 77.884C105.027 77.828 105.09 77.8 105.16 77.8H107.533C107.673 77.8 107.771 77.856 107.827 77.968L113.245 86.914C113.273 86.956 113.301 86.977 113.329 86.977C113.357 86.963 113.371 86.928 113.371 86.872L113.35 78.052ZM128.009 92.5C127.869 92.5 127.778 92.43 127.736 92.29L127.106 90.232C127.078 90.176 127.043 90.148 127.001 90.148H121.835C121.793 90.148 121.758 90.176 121.73 90.232L121.121 92.29C121.079 92.43 120.988 92.5 120.848 92.5H118.181C118.097 92.5 118.034 92.479 117.992 92.437C117.95 92.381 117.943 92.304 117.971 92.206L122.507 78.01C122.549 77.87 122.64 77.8 122.78 77.8H126.077C126.217 77.8 126.308 77.87 126.35 78.01L130.886 92.206C130.9 92.234 130.907 92.269 130.907 92.311C130.907 92.437 130.83 92.5 130.676 92.5H128.009ZM122.486 87.733C122.472 87.817 122.5 87.859 122.57 87.859H126.266C126.35 87.859 126.378 87.817 126.35 87.733L124.46 81.496C124.446 81.44 124.425 81.419 124.397 81.433C124.369 81.433 124.348 81.454 124.334 81.496L122.486 87.733ZM132.795 92.5C132.725 92.5 132.662 92.479 132.606 92.437C132.564 92.381 132.543 92.318 132.543 92.248V78.052C132.543 77.982 132.564 77.926 132.606 77.884C132.662 77.828 132.725 77.8 132.795 77.8H135.252C135.322 77.8 135.378 77.828 135.42 77.884C135.476 77.926 135.504 77.982 135.504 78.052V89.854C135.504 89.924 135.539 89.959 135.609 89.959H142.476C142.546 89.959 142.602 89.987 142.644 90.043C142.7 90.085 142.728 90.141 142.728 90.211V92.248C142.728 92.318 142.7 92.381 142.644 92.437C142.602 92.479 142.546 92.5 142.476 92.5H132.795Z" fill="white"/>
<path d="M299.841 87.9986C299.841 81.371 305.214 75.9983 311.841 75.9983H349.808C356.436 75.9983 361.809 81.371 361.809 87.9986V104.998C361.809 111.626 356.436 116.998 349.808 116.998H311.841C305.214 116.998 299.841 111.626 299.841 104.998V87.9986Z" fill="#FC5830"/>
<path d="M310.624 99.4157C310.559 99.4157 310.501 99.3962 310.449 99.3572C310.41 99.3052 310.39 99.2467 310.39 99.1817V97.2901C310.39 97.2251 310.41 97.1731 310.449 97.1341C310.501 97.0821 310.559 97.0561 310.624 97.0561H317.001C317.066 97.0561 317.118 97.0821 317.157 97.1341C317.209 97.1731 317.235 97.2251 317.235 97.2901V99.1817C317.235 99.2467 317.209 99.3052 317.157 99.3572C317.118 99.3962 317.066 99.4157 317.001 99.4157H310.624ZM322.153 101.522C322.127 101.548 322.12 101.574 322.133 101.6C322.146 101.626 322.172 101.639 322.211 101.639H327.496C327.561 101.639 327.613 101.665 327.652 101.717C327.704 101.756 327.73 101.808 327.73 101.873V103.764C327.73 103.829 327.704 103.888 327.652 103.94C327.613 103.979 327.561 103.998 327.496 103.998H318.72C318.655 103.998 318.597 103.979 318.545 103.94C318.506 103.888 318.486 103.829 318.486 103.764V101.97C318.486 101.853 318.525 101.756 318.603 101.678C319.24 101.054 319.89 100.378 320.553 99.6497C321.216 98.9087 321.633 98.4472 321.802 98.2651C322.166 97.8361 322.536 97.4266 322.913 97.0366C324.096 95.7236 324.688 94.7486 324.688 94.1115C324.688 93.6565 324.525 93.286 324.2 93C323.875 92.701 323.453 92.5515 322.933 92.5515C322.413 92.5515 321.99 92.701 321.665 93C321.34 93.286 321.177 93.6695 321.177 94.1505V94.6381C321.177 94.7031 321.151 94.7616 321.099 94.8136C321.06 94.8526 321.008 94.8721 320.943 94.8721H318.642C318.577 94.8721 318.519 94.8526 318.467 94.8136C318.428 94.7616 318.408 94.7031 318.408 94.6381V93.7215C318.447 93.0195 318.668 92.402 319.071 91.869C319.474 91.323 320.007 90.907 320.67 90.621C321.346 90.335 322.101 90.192 322.933 90.192C323.856 90.192 324.655 90.3675 325.331 90.7185C326.02 91.0565 326.547 91.518 326.911 92.103C327.288 92.688 327.476 93.338 327.476 94.053C327.476 94.5991 327.34 95.1581 327.067 95.7301C326.794 96.3021 326.384 96.9196 325.838 97.5826C325.435 98.0896 325 98.5902 324.532 99.0842C324.064 99.5782 323.368 100.293 322.445 101.229L322.153 101.522ZM329.749 103.998C329.684 103.998 329.626 103.979 329.574 103.94C329.535 103.888 329.515 103.829 329.515 103.764V90.582C329.515 90.517 329.535 90.465 329.574 90.426C329.626 90.374 329.684 90.348 329.749 90.348H332.031C332.096 90.348 332.148 90.374 332.187 90.426C332.239 90.465 332.265 90.517 332.265 90.582V96.0421C332.265 96.0811 332.278 96.1071 332.304 96.1201C332.33 96.1201 332.356 96.1071 332.382 96.0811L336.886 90.4845C336.965 90.3935 337.062 90.348 337.179 90.348H339.753C339.857 90.348 339.922 90.3805 339.948 90.4455C339.974 90.4975 339.961 90.5625 339.909 90.6405L335.56 96.1981C335.521 96.2501 335.515 96.2956 335.541 96.3346L340.143 103.725C340.169 103.803 340.182 103.849 340.182 103.862C340.182 103.953 340.117 103.998 339.987 103.998H337.413C337.283 103.998 337.192 103.946 337.14 103.842L333.669 98.2261C333.656 98.2001 333.636 98.1871 333.61 98.1871C333.584 98.1871 333.558 98.2001 333.532 98.2261L332.304 99.7667C332.278 99.8187 332.265 99.8577 332.265 99.8837V103.764C332.265 103.829 332.239 103.888 332.187 103.94C332.148 103.979 332.096 103.998 332.031 103.998H329.749ZM345.753 104.154C344.752 104.154 343.868 103.953 343.101 103.55C342.334 103.147 341.736 102.588 341.307 101.873C340.891 101.145 340.683 100.306 340.683 99.3572V94.9891C340.683 94.04 340.891 93.2015 341.307 92.4735C341.736 91.7455 342.334 91.1865 343.101 90.7965C343.868 90.3935 344.752 90.192 345.753 90.192C346.741 90.192 347.612 90.387 348.366 90.777C349.133 91.167 349.725 91.7 350.141 92.376C350.57 93.039 350.784 93.78 350.784 94.5991V94.7356C350.784 94.8006 350.758 94.8591 350.706 94.9111C350.667 94.9501 350.615 94.9696 350.55 94.9696H348.269C348.204 94.9696 348.145 94.9501 348.093 94.9111C348.054 94.8591 348.035 94.8006 348.035 94.7356V94.6771C348.035 94.079 347.827 93.5785 347.411 93.1755C346.995 92.7595 346.442 92.5515 345.753 92.5515C345.051 92.5515 344.485 92.7725 344.056 93.2145C343.64 93.6435 343.432 94.209 343.432 94.9111V99.4352C343.432 100.137 343.66 100.709 344.115 101.151C344.57 101.58 345.148 101.795 345.85 101.795C346.526 101.795 347.066 101.619 347.469 101.268C347.872 100.904 348.074 100.404 348.074 99.7667V98.8892C348.074 98.8242 348.041 98.7917 347.976 98.7917H345.792C345.727 98.7917 345.668 98.7722 345.616 98.7332C345.577 98.6812 345.558 98.6227 345.558 98.5577V96.7636C345.558 96.6986 345.577 96.6466 345.616 96.6076C345.668 96.5556 345.727 96.5296 345.792 96.5296H350.55C350.615 96.5296 350.667 96.5556 350.706 96.6076C350.758 96.6466 350.784 96.6986 350.784 96.7636V99.3377C350.784 100.326 350.576 101.184 350.16 101.912C349.744 102.64 349.153 103.199 348.386 103.589C347.632 103.966 346.754 104.154 345.753 104.154Z" fill="white"/>
<path d="M268.856 256.998C268.856 250.371 274.229 244.998 280.856 244.998H337.813C344.441 244.998 349.814 250.371 349.814 256.998V274.998C349.814 281.625 344.441 286.998 337.813 286.998H280.856C274.229 286.998 268.856 281.625 268.856 274.998V256.998Z" fill="#BCBDBF"/>
<path d="M281.134 268.916C281.069 268.916 281.011 268.896 280.959 268.857C280.92 268.805 280.9 268.747 280.9 268.682V266.79C280.9 266.725 280.92 266.673 280.959 266.634C281.011 266.582 281.069 266.556 281.134 266.556H287.511C287.576 266.556 287.628 266.582 287.667 266.634C287.719 266.673 287.745 266.725 287.745 266.79V268.682C287.745 268.747 287.719 268.805 287.667 268.857C287.628 268.896 287.576 268.916 287.511 268.916H281.134ZM293.657 273.713C292.227 273.713 291.096 273.316 290.264 272.523C289.432 271.717 289.016 270.625 289.016 269.247V264.099C289.016 262.747 289.432 261.674 290.264 260.881C291.096 260.088 292.227 259.692 293.657 259.692C295.087 259.692 296.218 260.088 297.05 260.881C297.895 261.674 298.318 262.747 298.318 264.099V269.247C298.318 270.625 297.895 271.717 297.05 272.523C296.218 273.316 295.087 273.713 293.657 273.713ZM293.657 271.353C294.242 271.353 294.704 271.178 295.042 270.827C295.393 270.463 295.568 269.982 295.568 269.384V264.021C295.568 263.423 295.393 262.948 295.042 262.597C294.704 262.233 294.242 262.051 293.657 262.051C293.085 262.051 292.624 262.233 292.273 262.597C291.935 262.948 291.766 263.423 291.766 264.021V269.384C291.766 269.982 291.935 270.463 292.273 270.827C292.624 271.178 293.085 271.353 293.657 271.353ZM300.06 275.409C299.904 275.409 299.832 275.325 299.845 275.156L300.489 270.632C300.502 270.489 300.586 270.417 300.742 270.417H302.731C302.9 270.417 302.965 270.502 302.926 270.671L301.717 275.214C301.678 275.344 301.587 275.409 301.444 275.409H300.06ZM313.586 267.278C313.781 267.915 313.879 268.532 313.879 269.13C313.879 269.793 313.775 270.391 313.567 270.924C313.268 271.756 312.741 272.419 311.987 272.913C311.233 273.394 310.349 273.635 309.335 273.635C308.347 273.635 307.476 273.401 306.722 272.933C305.981 272.452 305.454 271.802 305.142 270.983C305.012 270.645 304.915 270.287 304.85 269.91V269.871C304.85 269.728 304.928 269.657 305.084 269.657H307.443C307.573 269.657 307.658 269.728 307.697 269.871C307.71 269.949 307.729 270.014 307.755 270.066C307.781 270.118 307.801 270.164 307.814 270.203C307.944 270.541 308.139 270.801 308.399 270.983C308.659 271.165 308.964 271.256 309.315 271.256C309.679 271.256 309.998 271.158 310.271 270.963C310.544 270.768 310.745 270.495 310.875 270.144C311.005 269.884 311.07 269.546 311.07 269.13C311.07 268.753 311.012 268.415 310.895 268.116C310.804 267.778 310.622 267.518 310.349 267.336C310.076 267.154 309.757 267.063 309.393 267.063C309.029 267.063 308.691 267.148 308.379 267.317C308.067 267.486 307.859 267.707 307.755 267.98C307.716 268.11 307.632 268.175 307.502 268.175H305.103C305.038 268.175 304.98 268.155 304.928 268.116C304.889 268.064 304.869 268.006 304.869 267.941V260.082C304.869 260.017 304.889 259.965 304.928 259.926C304.98 259.874 305.038 259.848 305.103 259.848H313.157C313.222 259.848 313.274 259.874 313.313 259.926C313.365 259.965 313.391 260.017 313.391 260.082V261.973C313.391 262.038 313.365 262.097 313.313 262.149C313.274 262.188 313.222 262.207 313.157 262.207H307.716C307.651 262.207 307.619 262.24 307.619 262.305L307.599 265.191C307.599 265.282 307.638 265.301 307.716 265.249C308.301 264.872 308.977 264.684 309.744 264.684C310.654 264.684 311.447 264.918 312.123 265.386C312.813 265.841 313.3 266.471 313.586 267.278ZM315.752 273.498C315.687 273.498 315.628 273.479 315.576 273.44C315.537 273.388 315.518 273.329 315.518 273.264V260.082C315.518 260.017 315.537 259.965 315.576 259.926C315.628 259.874 315.687 259.848 315.752 259.848H318.033C318.098 259.848 318.15 259.874 318.189 259.926C318.241 259.965 318.267 260.017 318.267 260.082V265.542C318.267 265.581 318.28 265.607 318.306 265.62C318.332 265.62 318.358 265.607 318.384 265.581L322.889 259.984C322.967 259.893 323.064 259.848 323.181 259.848H325.756C325.86 259.848 325.925 259.88 325.951 259.945C325.977 259.997 325.964 260.062 325.912 260.14L321.563 265.698C321.524 265.75 321.517 265.795 321.543 265.834L326.146 273.225C326.172 273.303 326.185 273.349 326.185 273.362C326.185 273.453 326.12 273.498 325.99 273.498H323.415C323.285 273.498 323.194 273.446 323.142 273.342L319.671 267.726C319.658 267.7 319.639 267.687 319.613 267.687C319.587 267.687 319.561 267.7 319.535 267.726L318.306 269.267C318.28 269.319 318.267 269.358 318.267 269.384V273.264C318.267 273.329 318.241 273.388 318.189 273.44C318.15 273.479 318.098 273.498 318.033 273.498H315.752ZM331.755 273.654C330.754 273.654 329.87 273.453 329.103 273.05C328.336 272.647 327.738 272.088 327.309 271.373C326.893 270.645 326.685 269.806 326.685 268.857V264.489C326.685 263.54 326.893 262.701 327.309 261.973C327.738 261.245 328.336 260.686 329.103 260.296C329.87 259.893 330.754 259.692 331.755 259.692C332.743 259.692 333.614 259.887 334.369 260.277C335.136 260.667 335.727 261.2 336.143 261.876C336.572 262.539 336.787 263.28 336.787 264.099V264.235C336.787 264.3 336.761 264.359 336.709 264.411C336.67 264.45 336.618 264.469 336.553 264.469H334.271C334.206 264.469 334.148 264.45 334.096 264.411C334.056 264.359 334.037 264.3 334.037 264.235V264.177C334.037 263.579 333.829 263.078 333.413 262.675C332.997 262.259 332.444 262.051 331.755 262.051C331.053 262.051 330.488 262.272 330.059 262.714C329.643 263.143 329.435 263.709 329.435 264.411V268.935C329.435 269.637 329.662 270.209 330.117 270.651C330.572 271.08 331.151 271.295 331.853 271.295C332.529 271.295 333.068 271.119 333.471 270.768C333.874 270.404 334.076 269.904 334.076 269.267V268.389C334.076 268.324 334.043 268.292 333.978 268.292H331.794C331.729 268.292 331.671 268.272 331.619 268.233C331.58 268.181 331.56 268.123 331.56 268.058V266.263C331.56 266.198 331.58 266.146 331.619 266.107C331.671 266.055 331.729 266.029 331.794 266.029H336.553C336.618 266.029 336.67 266.055 336.709 266.107C336.761 266.146 336.787 266.198 336.787 266.263V268.838C336.787 269.826 336.579 270.684 336.163 271.412C335.747 272.14 335.155 272.699 334.388 273.089C333.634 273.466 332.756 273.654 331.755 273.654Z" fill="#595959"/>
<path d="M535.718 202.998C535.718 196.37 541.091 190.998 547.719 190.998H582.687C589.315 190.998 594.688 196.37 594.688 202.998V219.997C594.688 226.625 589.315 231.998 582.687 231.998H547.719C541.091 231.998 535.718 226.625 535.718 219.997V202.998Z" fill="#BCBDBF"/>
<path d="M547.002 214.415C546.937 214.415 546.879 214.395 546.827 214.356C546.788 214.304 546.768 214.246 546.768 214.181V212.289C546.768 212.224 546.788 212.172 546.827 212.133C546.879 212.081 546.937 212.055 547.002 212.055H553.379C553.444 212.055 553.496 212.081 553.535 212.133C553.587 212.172 553.613 212.224 553.613 212.289V214.181C553.613 214.246 553.587 214.304 553.535 214.356C553.496 214.395 553.444 214.415 553.379 214.415H547.002ZM556.912 205.406C556.977 205.367 557.075 205.347 557.205 205.347H559.564C559.629 205.347 559.681 205.373 559.72 205.425C559.772 205.464 559.798 205.516 559.798 205.581V218.764C559.798 218.829 559.772 218.887 559.72 218.939C559.681 218.978 559.629 218.998 559.564 218.998H557.283C557.218 218.998 557.159 218.978 557.107 218.939C557.068 218.887 557.049 218.829 557.049 218.764V208.077C557.049 208.051 557.036 208.025 557.01 207.999C556.984 207.973 556.958 207.967 556.932 207.98L555.001 208.506L554.923 208.526C554.806 208.526 554.748 208.454 554.748 208.311L554.689 206.634C554.689 206.504 554.748 206.413 554.865 206.361L556.912 205.406ZM562.109 218.998C562.044 218.998 561.986 218.978 561.934 218.939C561.895 218.887 561.875 218.829 561.875 218.764V205.581C561.875 205.516 561.895 205.464 561.934 205.425C561.986 205.373 562.044 205.347 562.109 205.347H564.391C564.456 205.347 564.508 205.373 564.547 205.425C564.599 205.464 564.625 205.516 564.625 205.581V211.041C564.625 211.08 564.638 211.106 564.664 211.119C564.69 211.119 564.716 211.106 564.742 211.08L569.247 205.484C569.325 205.393 569.422 205.347 569.539 205.347H572.113C572.217 205.347 572.282 205.38 572.308 205.445C572.334 205.497 572.321 205.562 572.269 205.64L567.92 211.197C567.881 211.249 567.875 211.295 567.901 211.334L572.503 218.725C572.529 218.803 572.542 218.848 572.542 218.861C572.542 218.952 572.477 218.998 572.347 218.998H569.773C569.643 218.998 569.552 218.946 569.5 218.842L566.029 213.225C566.016 213.199 565.996 213.186 565.97 213.186C565.944 213.186 565.918 213.199 565.892 213.225L564.664 214.766C564.638 214.818 564.625 214.857 564.625 214.883V218.764C564.625 218.829 564.599 218.887 564.547 218.939C564.508 218.978 564.456 218.998 564.391 218.998H562.109ZM578.113 219.154C577.112 219.154 576.228 218.952 575.461 218.549C574.694 218.146 574.096 217.587 573.667 216.872C573.251 216.144 573.043 215.305 573.043 214.356V209.988C573.043 209.039 573.251 208.201 573.667 207.473C574.096 206.745 574.694 206.186 575.461 205.796C576.228 205.393 577.112 205.191 578.113 205.191C579.101 205.191 579.972 205.386 580.726 205.776C581.493 206.166 582.085 206.699 582.501 207.375C582.93 208.038 583.144 208.779 583.144 209.598V209.735C583.144 209.8 583.118 209.858 583.066 209.91C583.027 209.949 582.975 209.969 582.91 209.969H580.629C580.564 209.969 580.505 209.949 580.453 209.91C580.414 209.858 580.395 209.8 580.395 209.735V209.676C580.395 209.078 580.187 208.578 579.771 208.175C579.355 207.759 578.802 207.551 578.113 207.551C577.411 207.551 576.845 207.772 576.416 208.214C576 208.643 575.792 209.208 575.792 209.91V214.434C575.792 215.136 576.02 215.708 576.475 216.15C576.93 216.579 577.508 216.794 578.21 216.794C578.886 216.794 579.426 216.618 579.829 216.267C580.232 215.903 580.434 215.403 580.434 214.766V213.888C580.434 213.823 580.401 213.791 580.336 213.791H578.152C578.087 213.791 578.028 213.771 577.976 213.732C577.937 213.68 577.918 213.622 577.918 213.557V211.763C577.918 211.698 577.937 211.646 577.976 211.607C578.028 211.555 578.087 211.529 578.152 211.529H582.91C582.975 211.529 583.027 211.555 583.066 211.607C583.118 211.646 583.144 211.698 583.144 211.763V214.337C583.144 215.325 582.936 216.183 582.52 216.911C582.104 217.639 581.513 218.198 580.746 218.588C579.992 218.965 579.114 219.154 578.113 219.154Z" fill="#595959"/>
<path d="M1013.47 275.998C1013.47 269.37 1018.84 263.998 1025.47 263.998H1081.43C1088.05 263.998 1093.43 269.37 1093.43 275.998V292.997C1093.43 299.625 1088.05 304.998 1081.43 304.998H1025.47C1018.84 304.998 1013.47 299.625 1013.47 292.997V275.998Z" fill="#BCBDBF"/>
<path d="M1025.25 287.415C1025.18 287.415 1025.12 287.395 1025.07 287.356C1025.03 287.304 1025.01 287.246 1025.01 287.181V285.289C1025.01 285.224 1025.03 285.172 1025.07 285.133C1025.12 285.081 1025.18 285.055 1025.25 285.055H1031.62C1031.69 285.055 1031.74 285.081 1031.78 285.133C1031.83 285.172 1031.86 285.224 1031.86 285.289V287.181C1031.86 287.246 1031.83 287.304 1031.78 287.356C1031.74 287.395 1031.69 287.415 1031.62 287.415H1025.25ZM1037.77 292.212C1036.34 292.212 1035.21 291.816 1034.38 291.023C1033.54 290.217 1033.13 289.124 1033.13 287.746V282.598C1033.13 281.246 1033.54 280.174 1034.38 279.381C1035.21 278.588 1036.34 278.191 1037.77 278.191C1039.2 278.191 1040.33 278.588 1041.16 279.381C1042.01 280.174 1042.43 281.246 1042.43 282.598V287.746C1042.43 289.124 1042.01 290.217 1041.16 291.023C1040.33 291.816 1039.2 292.212 1037.77 292.212ZM1037.77 289.853C1038.35 289.853 1038.82 289.677 1039.15 289.326C1039.51 288.962 1039.68 288.481 1039.68 287.883V282.52C1039.68 281.922 1039.51 281.448 1039.15 281.097C1038.82 280.733 1038.35 280.551 1037.77 280.551C1037.2 280.551 1036.74 280.733 1036.39 281.097C1036.05 281.448 1035.88 281.922 1035.88 282.52V287.883C1035.88 288.481 1036.05 288.962 1036.39 289.326C1036.74 289.677 1037.2 289.853 1037.77 289.853ZM1044.17 293.909C1044.02 293.909 1043.94 293.824 1043.96 293.655L1044.6 289.131C1044.61 288.988 1044.7 288.916 1044.85 288.916H1046.84C1047.01 288.916 1047.08 289.001 1047.04 289.17L1045.83 293.714C1045.79 293.844 1045.7 293.909 1045.56 293.909H1044.17ZM1057.7 285.777C1057.89 286.414 1057.99 287.031 1057.99 287.629C1057.99 288.292 1057.89 288.89 1057.68 289.423C1057.38 290.256 1056.85 290.919 1056.1 291.413C1055.35 291.894 1054.46 292.134 1053.45 292.134C1052.46 292.134 1051.59 291.9 1050.83 291.432C1050.09 290.951 1049.57 290.301 1049.25 289.482C1049.12 289.144 1049.03 288.786 1048.96 288.409V288.37C1048.96 288.227 1049.04 288.156 1049.2 288.156H1051.56C1051.69 288.156 1051.77 288.227 1051.81 288.37C1051.82 288.448 1051.84 288.513 1051.87 288.565C1051.89 288.617 1051.91 288.663 1051.93 288.702C1052.06 289.04 1052.25 289.3 1052.51 289.482C1052.77 289.664 1053.08 289.755 1053.43 289.755C1053.79 289.755 1054.11 289.658 1054.38 289.462C1054.66 289.267 1054.86 288.994 1054.99 288.643C1055.12 288.383 1055.18 288.045 1055.18 287.629C1055.18 287.252 1055.12 286.914 1055.01 286.615C1054.92 286.277 1054.73 286.017 1054.46 285.835C1054.19 285.653 1053.87 285.562 1053.51 285.562C1053.14 285.562 1052.8 285.647 1052.49 285.816C1052.18 285.985 1051.97 286.206 1051.87 286.479C1051.83 286.609 1051.74 286.674 1051.61 286.674H1049.22C1049.15 286.674 1049.09 286.654 1049.04 286.615C1049 286.563 1048.98 286.505 1048.98 286.44V278.581C1048.98 278.516 1049 278.464 1049.04 278.425C1049.09 278.373 1049.15 278.347 1049.22 278.347H1057.27C1057.33 278.347 1057.39 278.373 1057.43 278.425C1057.48 278.464 1057.5 278.516 1057.5 278.581V280.473C1057.5 280.538 1057.48 280.596 1057.43 280.648C1057.39 280.687 1057.33 280.707 1057.27 280.707H1051.83C1051.76 280.707 1051.73 280.739 1051.73 280.804L1051.71 283.69C1051.71 283.781 1051.75 283.801 1051.83 283.749C1052.41 283.372 1053.09 283.183 1053.86 283.183C1054.77 283.183 1055.56 283.417 1056.24 283.885C1056.93 284.34 1057.41 284.971 1057.7 285.777ZM1059.86 291.998C1059.8 291.998 1059.74 291.978 1059.69 291.939C1059.65 291.887 1059.63 291.829 1059.63 291.764V278.581C1059.63 278.516 1059.65 278.464 1059.69 278.425C1059.74 278.373 1059.8 278.347 1059.86 278.347H1062.15C1062.21 278.347 1062.26 278.373 1062.3 278.425C1062.35 278.464 1062.38 278.516 1062.38 278.581V284.041C1062.38 284.08 1062.39 284.106 1062.42 284.119C1062.44 284.119 1062.47 284.106 1062.5 284.08L1067 278.484C1067.08 278.393 1067.18 278.347 1067.29 278.347H1069.87C1069.97 278.347 1070.04 278.38 1070.06 278.445C1070.09 278.497 1070.08 278.562 1070.02 278.64L1065.68 284.197C1065.64 284.249 1065.63 284.295 1065.66 284.334L1070.26 291.725C1070.28 291.803 1070.3 291.848 1070.3 291.861C1070.3 291.952 1070.23 291.998 1070.1 291.998H1067.53C1067.4 291.998 1067.31 291.946 1067.26 291.842L1063.78 286.225C1063.77 286.199 1063.75 286.186 1063.73 286.186C1063.7 286.186 1063.67 286.199 1063.65 286.225L1062.42 287.766C1062.39 287.818 1062.38 287.857 1062.38 287.883V291.764C1062.38 291.829 1062.35 291.887 1062.3 291.939C1062.26 291.978 1062.21 291.998 1062.15 291.998H1059.86ZM1075.87 292.154C1074.87 292.154 1073.98 291.952 1073.22 291.549C1072.45 291.146 1071.85 290.587 1071.42 289.872C1071.01 289.144 1070.8 288.305 1070.8 287.356V282.988C1070.8 282.039 1071.01 281.201 1071.42 280.473C1071.85 279.745 1072.45 279.186 1073.22 278.796C1073.98 278.393 1074.87 278.191 1075.87 278.191C1076.86 278.191 1077.73 278.386 1078.48 278.776C1079.25 279.166 1079.84 279.699 1080.26 280.375C1080.68 281.038 1080.9 281.779 1080.9 282.598V282.735C1080.9 282.8 1080.87 282.858 1080.82 282.91C1080.78 282.949 1080.73 282.969 1080.67 282.969H1078.38C1078.32 282.969 1078.26 282.949 1078.21 282.91C1078.17 282.858 1078.15 282.8 1078.15 282.735V282.676C1078.15 282.078 1077.94 281.578 1077.53 281.175C1077.11 280.759 1076.56 280.551 1075.87 280.551C1075.17 280.551 1074.6 280.772 1074.17 281.214C1073.76 281.643 1073.55 282.208 1073.55 282.91V287.434C1073.55 288.136 1073.77 288.708 1074.23 289.15C1074.68 289.579 1075.26 289.794 1075.97 289.794C1076.64 289.794 1077.18 289.618 1077.58 289.267C1077.99 288.903 1078.19 288.403 1078.19 287.766V286.888C1078.19 286.823 1078.16 286.791 1078.09 286.791H1075.91C1075.84 286.791 1075.78 286.771 1075.73 286.732C1075.69 286.68 1075.67 286.622 1075.67 286.557V284.763C1075.67 284.698 1075.69 284.646 1075.73 284.607C1075.78 284.555 1075.84 284.529 1075.91 284.529H1080.67C1080.73 284.529 1080.78 284.555 1080.82 284.607C1080.87 284.646 1080.9 284.698 1080.9 284.763V287.337C1080.9 288.325 1080.69 289.183 1080.28 289.911C1079.86 290.639 1079.27 291.198 1078.5 291.588C1077.75 291.965 1076.87 292.154 1075.87 292.154Z" fill="#595959"/>
<path d="M1769.08 220.998C1769.08 214.371 1774.45 208.998 1781.08 208.998H1816.04C1822.67 208.998 1828.04 214.371 1828.04 220.998V238.998C1828.04 245.625 1822.67 250.998 1816.04 250.998H1781.08C1774.45 250.998 1769.08 245.625 1769.08 238.998V220.998Z" fill="#BCBDBF"/>
<path d="M1780.36 232.915C1780.29 232.915 1780.24 232.896 1780.18 232.857C1780.15 232.805 1780.13 232.746 1780.13 232.681V230.79C1780.13 230.725 1780.15 230.673 1780.18 230.634C1780.24 230.582 1780.29 230.556 1780.36 230.556H1786.74C1786.8 230.556 1786.85 230.582 1786.89 230.634C1786.94 230.673 1786.97 230.725 1786.97 230.79V232.681C1786.97 232.746 1786.94 232.805 1786.89 232.857C1786.85 232.896 1786.8 232.915 1786.74 232.915H1780.36ZM1790.27 223.906C1790.33 223.867 1790.43 223.847 1790.56 223.847H1792.92C1792.99 223.847 1793.04 223.873 1793.08 223.925C1793.13 223.964 1793.16 224.016 1793.16 224.081V237.264C1793.16 237.329 1793.13 237.387 1793.08 237.439C1793.04 237.478 1792.99 237.498 1792.92 237.498H1790.64C1790.57 237.498 1790.52 237.478 1790.46 237.439C1790.43 237.387 1790.41 237.329 1790.41 237.264V226.578C1790.41 226.552 1790.39 226.526 1790.37 226.5C1790.34 226.474 1790.31 226.467 1790.29 226.48L1788.36 227.007L1788.28 227.026C1788.16 227.026 1788.1 226.955 1788.1 226.812L1788.05 225.134C1788.05 225.004 1788.1 224.913 1788.22 224.861L1790.27 223.906ZM1795.47 237.498C1795.4 237.498 1795.34 237.478 1795.29 237.439C1795.25 237.387 1795.23 237.329 1795.23 237.264V224.081C1795.23 224.016 1795.25 223.964 1795.29 223.925C1795.34 223.873 1795.4 223.847 1795.47 223.847H1797.75C1797.81 223.847 1797.87 223.873 1797.9 223.925C1797.96 223.964 1797.98 224.016 1797.98 224.081V229.542C1797.98 229.581 1798 229.607 1798.02 229.62C1798.05 229.62 1798.07 229.607 1798.1 229.581L1802.6 223.984C1802.68 223.893 1802.78 223.847 1802.9 223.847H1805.47C1805.57 223.847 1805.64 223.88 1805.67 223.945C1805.69 223.997 1805.68 224.062 1805.63 224.14L1801.28 229.698C1801.24 229.75 1801.23 229.795 1801.26 229.834L1805.86 237.225C1805.89 237.303 1805.9 237.348 1805.9 237.361C1805.9 237.452 1805.83 237.498 1805.7 237.498H1803.13C1803 237.498 1802.91 237.446 1802.86 237.342L1799.39 231.726C1799.37 231.7 1799.35 231.687 1799.33 231.687C1799.3 231.687 1799.28 231.7 1799.25 231.726L1798.02 233.266C1798 233.318 1797.98 233.357 1797.98 233.383V237.264C1797.98 237.329 1797.96 237.387 1797.9 237.439C1797.87 237.478 1797.81 237.498 1797.75 237.498H1795.47ZM1811.47 237.654C1810.47 237.654 1809.59 237.452 1808.82 237.049C1808.05 236.646 1807.45 236.087 1807.02 235.372C1806.61 234.644 1806.4 233.806 1806.4 232.857V228.489C1806.4 227.54 1806.61 226.701 1807.02 225.973C1807.45 225.245 1808.05 224.686 1808.82 224.296C1809.59 223.893 1810.47 223.691 1811.47 223.691C1812.46 223.691 1813.33 223.886 1814.08 224.276C1814.85 224.666 1815.44 225.199 1815.86 225.876C1816.29 226.539 1816.5 227.28 1816.5 228.099V228.235C1816.5 228.3 1816.48 228.359 1816.42 228.411C1816.38 228.45 1816.33 228.469 1816.27 228.469H1813.99C1813.92 228.469 1813.86 228.45 1813.81 228.411C1813.77 228.359 1813.75 228.3 1813.75 228.235V228.177C1813.75 227.579 1813.54 227.078 1813.13 226.675C1812.71 226.259 1812.16 226.051 1811.47 226.051C1810.77 226.051 1810.2 226.272 1809.77 226.714C1809.36 227.143 1809.15 227.709 1809.15 228.411V232.935C1809.15 233.637 1809.38 234.209 1809.83 234.651C1810.29 235.08 1810.87 235.294 1811.57 235.294C1812.24 235.294 1812.78 235.119 1813.19 234.768C1813.59 234.404 1813.79 233.903 1813.79 233.266V232.389C1813.79 232.324 1813.76 232.291 1813.69 232.291H1811.51C1811.44 232.291 1811.39 232.272 1811.33 232.233C1811.29 232.181 1811.28 232.122 1811.28 232.057V230.263C1811.28 230.198 1811.29 230.146 1811.33 230.107C1811.39 230.055 1811.44 230.029 1811.51 230.029H1816.27C1816.33 230.029 1816.38 230.055 1816.42 230.107C1816.48 230.146 1816.5 230.198 1816.5 230.263V232.837C1816.5 233.825 1816.29 234.683 1815.88 235.411C1815.46 236.139 1814.87 236.698 1814.1 237.088C1813.35 237.465 1812.47 237.654 1811.47 237.654Z" fill="#595959"/>
<path d="M734.617 225C734.617 218.373 739.99 213 746.618 213H779.587C786.215 213 791.588 218.373 791.588 225V242C791.588 248.627 786.215 254 779.587 254H746.618C739.99 254 734.617 248.627 734.617 242V225Z" fill="#FC5830"/>
<path d="M744.902 236.417C744.837 236.417 744.779 236.398 744.727 236.359C744.688 236.307 744.668 236.248 744.668 236.183V234.292C744.668 234.227 744.688 234.175 744.727 234.136C744.779 234.084 744.837 234.058 744.902 234.058H751.279C751.344 234.058 751.396 234.084 751.435 234.136C751.487 234.175 751.513 234.227 751.513 234.292V236.183C751.513 236.248 751.487 236.307 751.435 236.359C751.396 236.398 751.344 236.417 751.279 236.417H744.902ZM754.812 227.408C754.877 227.369 754.974 227.35 755.104 227.35H757.464C757.529 227.35 757.581 227.376 757.62 227.428C757.672 227.467 757.698 227.519 757.698 227.584V240.766C757.698 240.831 757.672 240.889 757.62 240.941C757.581 240.98 757.529 241 757.464 241H755.182C755.117 241 755.059 240.98 755.007 240.941C754.968 240.889 754.948 240.831 754.948 240.766V230.08C754.948 230.054 754.935 230.028 754.909 230.002C754.883 229.976 754.857 229.969 754.831 229.982L752.901 230.509L752.823 230.528C752.706 230.528 752.647 230.457 752.647 230.314L752.589 228.637C752.589 228.507 752.647 228.416 752.764 228.364L754.812 227.408ZM760.009 241C759.944 241 759.885 240.98 759.833 240.941C759.794 240.889 759.775 240.831 759.775 240.766V227.584C759.775 227.519 759.794 227.467 759.833 227.428C759.885 227.376 759.944 227.35 760.009 227.35H762.291C762.356 227.35 762.408 227.376 762.447 227.428C762.499 227.467 762.525 227.519 762.525 227.584V233.044C762.525 233.083 762.538 233.109 762.564 233.122C762.59 233.122 762.616 233.109 762.642 233.083L767.146 227.486C767.224 227.395 767.322 227.35 767.439 227.35H770.013C770.117 227.35 770.182 227.382 770.208 227.447C770.234 227.499 770.221 227.564 770.169 227.642L765.82 233.2C765.781 233.252 765.775 233.297 765.801 233.336L770.403 240.727C770.429 240.805 770.442 240.85 770.442 240.863C770.442 240.954 770.377 241 770.247 241H767.673C767.543 241 767.452 240.948 767.4 240.844L763.929 235.228C763.916 235.202 763.896 235.189 763.87 235.189C763.844 235.189 763.818 235.202 763.792 235.228L762.564 236.768C762.538 236.82 762.525 236.859 762.525 236.885V240.766C762.525 240.831 762.499 240.889 762.447 240.941C762.408 240.98 762.356 241 762.291 241H760.009ZM776.013 241.156C775.012 241.156 774.128 240.954 773.361 240.551C772.594 240.148 771.996 239.589 771.567 238.874C771.151 238.146 770.943 237.308 770.943 236.359V231.991C770.943 231.042 771.151 230.203 771.567 229.475C771.996 228.747 772.594 228.188 773.361 227.798C774.128 227.395 775.012 227.194 776.013 227.194C777.001 227.194 777.872 227.389 778.626 227.779C779.393 228.169 779.984 228.702 780.4 229.378C780.829 230.041 781.044 230.782 781.044 231.601V231.737C781.044 231.802 781.018 231.861 780.966 231.913C780.927 231.952 780.875 231.971 780.81 231.971H778.528C778.463 231.971 778.405 231.952 778.353 231.913C778.314 231.861 778.294 231.802 778.294 231.737V231.679C778.294 231.081 778.086 230.58 777.67 230.177C777.254 229.761 776.702 229.553 776.013 229.553C775.311 229.553 774.745 229.774 774.316 230.216C773.9 230.645 773.692 231.211 773.692 231.913V236.437C773.692 237.139 773.92 237.711 774.375 238.153C774.83 238.582 775.408 238.796 776.11 238.796C776.786 238.796 777.326 238.621 777.729 238.27C778.132 237.906 778.333 237.405 778.333 236.768V235.891C778.333 235.826 778.301 235.793 778.236 235.793H776.052C775.987 235.793 775.928 235.774 775.876 235.735C775.837 235.683 775.818 235.624 775.818 235.559V233.765C775.818 233.7 775.837 233.648 775.876 233.609C775.928 233.557 775.987 233.531 776.052 233.531H780.81C780.875 233.531 780.927 233.557 780.966 233.609C781.018 233.648 781.044 233.7 781.044 233.765V236.339C781.044 237.327 780.836 238.185 780.42 238.913C780.004 239.641 779.412 240.2 778.645 240.59C777.891 240.967 777.014 241.156 776.013 241.156Z" fill="white"/>
<path d="M1114.42 42.0003C1114.42 35.3727 1119.79 30 1126.42 30H1165.39C1172.01 30 1177.39 35.3727 1177.39 42.0003V58.9997C1177.39 65.6273 1172.01 71 1165.39 71H1126.42C1119.79 71 1114.42 65.6273 1114.42 58.9997V42.0003Z" fill="#FC5830"/>
<path d="M1125.2 53.4174C1125.14 53.4174 1125.08 53.3979 1125.03 53.3589C1124.99 53.3069 1124.97 53.2484 1124.97 53.1834V51.2918C1124.97 51.2268 1124.99 51.1748 1125.03 51.1358C1125.08 51.0838 1125.14 51.0578 1125.2 51.0578H1131.58C1131.64 51.0578 1131.7 51.0838 1131.74 51.1358C1131.79 51.1748 1131.81 51.2268 1131.81 51.2918V53.1834C1131.81 53.2484 1131.79 53.3069 1131.74 53.3589C1131.7 53.3979 1131.64 53.4174 1131.58 53.4174H1125.2ZM1142.83 52.0524C1142.9 52.0524 1142.95 52.0784 1142.99 52.1304C1143.04 52.1694 1143.07 52.2214 1143.07 52.2864V54.2559C1143.07 54.3209 1143.04 54.3794 1142.99 54.4314C1142.95 54.4704 1142.9 54.4899 1142.83 54.4899H1142C1141.93 54.4899 1141.9 54.5224 1141.9 54.5874V57.766C1141.9 57.831 1141.87 57.8895 1141.82 57.9415C1141.78 57.9805 1141.73 58 1141.66 58H1139.38C1139.32 58 1139.26 57.9805 1139.21 57.9415C1139.17 57.8895 1139.15 57.831 1139.15 57.766V54.5874C1139.15 54.5224 1139.12 54.4899 1139.05 54.4899H1133.06C1133 54.4899 1132.94 54.4704 1132.89 54.4314C1132.85 54.3794 1132.83 54.3209 1132.83 54.2559V52.6959C1132.83 52.6179 1132.85 52.5204 1132.89 52.4034L1136.4 44.5252C1136.45 44.4082 1136.54 44.3497 1136.67 44.3497H1139.11C1139.2 44.3497 1139.26 44.3757 1139.29 44.4277C1139.32 44.4667 1139.32 44.5317 1139.29 44.6227L1136.03 51.9354C1136.02 51.9614 1136.02 51.9874 1136.03 52.0134C1136.04 52.0394 1136.06 52.0524 1136.09 52.0524H1139.05C1139.12 52.0524 1139.15 52.0199 1139.15 51.9549V49.5368C1139.15 49.4718 1139.17 49.4198 1139.21 49.3808C1139.26 49.3288 1139.32 49.3028 1139.38 49.3028H1141.66C1141.73 49.3028 1141.78 49.3288 1141.82 49.3808C1141.87 49.4198 1141.9 49.4718 1141.9 49.5368V51.9549C1141.9 52.0199 1141.93 52.0524 1142 52.0524H1142.83ZM1145.22 58C1145.16 58 1145.1 57.9805 1145.05 57.9415C1145.01 57.8895 1144.99 57.831 1144.99 57.766V44.5837C1144.99 44.5187 1145.01 44.4667 1145.05 44.4277C1145.1 44.3757 1145.16 44.3497 1145.22 44.3497H1147.5C1147.57 44.3497 1147.62 44.3757 1147.66 44.4277C1147.71 44.4667 1147.74 44.5187 1147.74 44.5837V50.0438C1147.74 50.0828 1147.75 50.1088 1147.78 50.1218C1147.8 50.1218 1147.83 50.1088 1147.86 50.0828L1152.36 44.4862C1152.44 44.3952 1152.54 44.3497 1152.65 44.3497H1155.23C1155.33 44.3497 1155.4 44.3822 1155.42 44.4472C1155.45 44.4992 1155.43 44.5642 1155.38 44.6422L1151.03 50.1998C1150.99 50.2518 1150.99 50.2973 1151.01 50.3363L1155.62 57.727C1155.64 57.805 1155.66 57.8505 1155.66 57.8635C1155.66 57.9545 1155.59 58 1155.46 58H1152.89C1152.76 58 1152.67 57.948 1152.61 57.844L1149.14 52.2279C1149.13 52.2019 1149.11 52.1889 1149.08 52.1889C1149.06 52.1889 1149.03 52.2019 1149.01 52.2279L1147.78 53.7684C1147.75 53.8204 1147.74 53.8594 1147.74 53.8854V57.766C1147.74 57.831 1147.71 57.8895 1147.66 57.9415C1147.62 57.9805 1147.57 58 1147.5 58H1145.22ZM1161.23 58.156C1160.23 58.156 1159.34 57.9545 1158.57 57.5515C1157.81 57.1485 1157.21 56.5895 1156.78 55.8744C1156.36 55.1464 1156.16 54.3079 1156.16 53.3589V48.9908C1156.16 48.0418 1156.36 47.2032 1156.78 46.4752C1157.21 45.7472 1157.81 45.1882 1158.57 44.7982C1159.34 44.3952 1160.23 44.1937 1161.23 44.1937C1162.21 44.1937 1163.09 44.3887 1163.84 44.7787C1164.61 45.1687 1165.2 45.7017 1165.61 46.3777C1166.04 47.0407 1166.26 47.7817 1166.26 48.6008V48.7373C1166.26 48.8023 1166.23 48.8608 1166.18 48.9128C1166.14 48.9518 1166.09 48.9713 1166.02 48.9713H1163.74C1163.68 48.9713 1163.62 48.9518 1163.57 48.9128C1163.53 48.8608 1163.51 48.8023 1163.51 48.7373V48.6788C1163.51 48.0808 1163.3 47.5802 1162.88 47.1772C1162.47 46.7612 1161.92 46.5532 1161.23 46.5532C1160.52 46.5532 1159.96 46.7742 1159.53 47.2162C1159.11 47.6452 1158.91 48.2108 1158.91 48.9128V53.4369C1158.91 54.1389 1159.13 54.7109 1159.59 55.1529C1160.04 55.5819 1160.62 55.7964 1161.32 55.7964C1162 55.7964 1162.54 55.6209 1162.94 55.2699C1163.35 54.9059 1163.55 54.4054 1163.55 53.7684V52.8909C1163.55 52.8259 1163.51 52.7934 1163.45 52.7934H1161.27C1161.2 52.7934 1161.14 52.7739 1161.09 52.7349C1161.05 52.6829 1161.03 52.6244 1161.03 52.5594V50.7653C1161.03 50.7003 1161.05 50.6483 1161.09 50.6093C1161.14 50.5573 1161.2 50.5313 1161.27 50.5313H1166.02C1166.09 50.5313 1166.14 50.5573 1166.18 50.6093C1166.23 50.6483 1166.26 50.7003 1166.26 50.7653V53.3394C1166.26 54.3274 1166.05 55.1854 1165.63 55.9134C1165.22 56.6415 1164.63 57.2005 1163.86 57.5905C1163.11 57.9675 1162.23 58.156 1161.23 58.156Z" fill="white"/>
<path d="M1477.23 85.0003C1477.23 78.3727 1482.6 73 1489.23 73H1527.2C1533.83 73 1539.2 78.3727 1539.2 85.0003V103C1539.2 109.627 1533.83 115 1527.2 115H1489.23C1482.6 115 1477.23 109.627 1477.23 103V85.0003Z" fill="#FC5830"/>
<path d="M1488.01 96.9174C1487.95 96.9174 1487.89 96.8979 1487.84 96.8589C1487.8 96.8069 1487.78 96.7484 1487.78 96.6834V94.7918C1487.78 94.7268 1487.8 94.6748 1487.84 94.6358C1487.89 94.5838 1487.95 94.5578 1488.01 94.5578H1494.39C1494.46 94.5578 1494.51 94.5838 1494.55 94.6358C1494.6 94.6748 1494.62 94.7268 1494.62 94.7918V96.6834C1494.62 96.7484 1494.6 96.8069 1494.55 96.8589C1494.51 96.8979 1494.46 96.9174 1494.39 96.9174H1488.01ZM1504.3 94.9868C1504.56 95.5849 1504.69 96.2739 1504.69 97.0539C1504.69 97.7559 1504.57 98.4059 1504.34 99.0039C1504.03 99.836 1503.5 100.486 1502.76 100.954C1502.03 101.422 1501.17 101.656 1500.17 101.656C1499.18 101.656 1498.31 101.409 1497.55 100.915C1496.81 100.421 1496.28 99.7515 1495.95 98.9064C1495.77 98.3994 1495.67 97.8534 1495.64 97.2684C1495.64 97.1124 1495.72 97.0344 1495.88 97.0344H1498.18C1498.33 97.0344 1498.41 97.1124 1498.41 97.2684C1498.46 97.6974 1498.53 98.0159 1498.63 98.2239C1498.74 98.5619 1498.93 98.8284 1499.19 99.0234C1499.46 99.2054 1499.78 99.2964 1500.15 99.2964C1500.87 99.2964 1501.38 98.9779 1501.65 98.3409C1501.83 97.9509 1501.92 97.4959 1501.92 96.9759C1501.92 96.3649 1501.82 95.8644 1501.63 95.4744C1501.33 94.8633 1500.83 94.5578 1500.13 94.5578C1499.98 94.5578 1499.83 94.6033 1499.68 94.6943C1499.52 94.7723 1499.33 94.8893 1499.11 95.0453C1499.06 95.0843 1499.01 95.1038 1498.96 95.1038C1498.88 95.1038 1498.82 95.0648 1498.78 94.9868L1497.63 93.3683C1497.61 93.3293 1497.59 93.2838 1497.59 93.2318C1497.59 93.1538 1497.62 93.0888 1497.67 93.0368L1500.77 90.3262C1500.8 90.3002 1500.8 90.2742 1500.79 90.2482C1500.79 90.2222 1500.77 90.2092 1500.73 90.2092H1496.15C1496.08 90.2092 1496.03 90.1897 1495.97 90.1507C1495.93 90.0987 1495.92 90.0402 1495.92 89.9752V88.0837C1495.92 88.0187 1495.93 87.9667 1495.97 87.9277C1496.03 87.8757 1496.08 87.8497 1496.15 87.8497H1504.28C1504.35 87.8497 1504.4 87.8757 1504.44 87.9277C1504.49 87.9667 1504.51 88.0187 1504.51 88.0837V90.2287C1504.51 90.3327 1504.47 90.4302 1504.38 90.5212L1501.82 92.8613C1501.8 92.8873 1501.78 92.9133 1501.78 92.9393C1501.8 92.9653 1501.83 92.9783 1501.88 92.9783C1503.01 93.1993 1503.82 93.8688 1504.3 94.9868ZM1506.76 101.5C1506.69 101.5 1506.63 101.48 1506.58 101.441C1506.54 101.389 1506.52 101.331 1506.52 101.266V88.0837C1506.52 88.0187 1506.54 87.9667 1506.58 87.9277C1506.63 87.8757 1506.69 87.8497 1506.76 87.8497H1509.04C1509.1 87.8497 1509.16 87.8757 1509.2 87.9277C1509.25 87.9667 1509.27 88.0187 1509.27 88.0837V93.5438C1509.27 93.5828 1509.29 93.6088 1509.31 93.6218C1509.34 93.6218 1509.36 93.6088 1509.39 93.5828L1513.9 87.9862C1513.97 87.8952 1514.07 87.8497 1514.19 87.8497H1516.76C1516.87 87.8497 1516.93 87.8822 1516.96 87.9472C1516.98 87.9992 1516.97 88.0642 1516.92 88.1422L1512.57 93.6998C1512.53 93.7518 1512.52 93.7973 1512.55 93.8363L1517.15 101.227C1517.18 101.305 1517.19 101.35 1517.19 101.363C1517.19 101.454 1517.13 101.5 1517 101.5H1514.42C1514.29 101.5 1514.2 101.448 1514.15 101.344L1510.68 95.7279C1510.66 95.7019 1510.65 95.6889 1510.62 95.6889C1510.59 95.6889 1510.57 95.7019 1510.54 95.7279L1509.31 97.2684C1509.29 97.3204 1509.27 97.3594 1509.27 97.3854V101.266C1509.27 101.331 1509.25 101.389 1509.2 101.441C1509.16 101.48 1509.1 101.5 1509.04 101.5H1506.76ZM1522.76 101.656C1521.76 101.656 1520.88 101.454 1520.11 101.051C1519.34 100.648 1518.74 100.089 1518.32 99.3744C1517.9 98.6464 1517.69 97.8079 1517.69 96.8589V92.4908C1517.69 91.5418 1517.9 90.7032 1518.32 89.9752C1518.74 89.2472 1519.34 88.6882 1520.11 88.2982C1520.88 87.8952 1521.76 87.6937 1522.76 87.6937C1523.75 87.6937 1524.62 87.8887 1525.37 88.2787C1526.14 88.6687 1526.73 89.2017 1527.15 89.8777C1527.58 90.5407 1527.79 91.2817 1527.79 92.1008V92.2373C1527.79 92.3023 1527.77 92.3608 1527.71 92.4128C1527.68 92.4518 1527.62 92.4713 1527.56 92.4713H1525.28C1525.21 92.4713 1525.15 92.4518 1525.1 92.4128C1525.06 92.3608 1525.04 92.3023 1525.04 92.2373V92.1788C1525.04 91.5808 1524.84 91.0802 1524.42 90.6772C1524 90.2612 1523.45 90.0532 1522.76 90.0532C1522.06 90.0532 1521.49 90.2742 1521.07 90.7162C1520.65 91.1452 1520.44 91.7108 1520.44 92.4128V96.9369C1520.44 97.6389 1520.67 98.2109 1521.12 98.6529C1521.58 99.0819 1522.16 99.2964 1522.86 99.2964C1523.54 99.2964 1524.07 99.1209 1524.48 98.7699C1524.88 98.4059 1525.08 97.9054 1525.08 97.2684V96.3909C1525.08 96.3259 1525.05 96.2934 1524.98 96.2934H1522.8C1522.74 96.2934 1522.68 96.2739 1522.63 96.2349C1522.59 96.1829 1522.57 96.1244 1522.57 96.0594V94.2653C1522.57 94.2003 1522.59 94.1483 1522.63 94.1093C1522.68 94.0573 1522.74 94.0313 1522.8 94.0313H1527.56C1527.62 94.0313 1527.68 94.0573 1527.71 94.1093C1527.77 94.1483 1527.79 94.2003 1527.79 94.2653V96.8394C1527.79 97.8274 1527.58 98.6854 1527.17 99.4134C1526.75 100.141 1526.16 100.7 1525.39 101.09C1524.64 101.467 1523.76 101.656 1522.76 101.656Z" fill="white"/>
<path d="M1838.04 18.0003C1838.04 11.3727 1843.42 6 1850.04 6H1891.01C1897.64 6 1903.01 11.3727 1903.01 18.0003V34.9997C1903.01 41.6273 1897.64 47 1891.01 47H1850.04C1843.42 47 1838.04 41.6273 1838.04 34.9997V18.0003Z" fill="#FC5830"/>
<path d="M1849.83 29.4174C1849.76 29.4174 1849.7 29.3979 1849.65 29.3589C1849.61 29.3069 1849.59 29.2484 1849.59 29.1834V27.2918C1849.59 27.2268 1849.61 27.1748 1849.65 27.1358C1849.7 27.0838 1849.76 27.0578 1849.83 27.0578H1856.2C1856.27 27.0578 1856.32 27.0838 1856.36 27.1358C1856.41 27.1748 1856.44 27.2268 1856.44 27.2918V29.1834C1856.44 29.2484 1856.41 29.3069 1856.36 29.3589C1856.32 29.3979 1856.27 29.4174 1856.2 29.4174H1849.83ZM1867.46 28.0524C1867.52 28.0524 1867.57 28.0784 1867.61 28.1304C1867.67 28.1694 1867.69 28.2214 1867.69 28.2864V30.2559C1867.69 30.3209 1867.67 30.3794 1867.61 30.4314C1867.57 30.4704 1867.52 30.4899 1867.46 30.4899H1866.62C1866.55 30.4899 1866.52 30.5224 1866.52 30.5874V33.766C1866.52 33.831 1866.5 33.8895 1866.44 33.9415C1866.4 33.9805 1866.35 34 1866.29 34H1864.01C1863.94 34 1863.88 33.9805 1863.83 33.9415C1863.79 33.8895 1863.77 33.831 1863.77 33.766V30.5874C1863.77 30.5224 1863.74 30.4899 1863.67 30.4899H1857.69C1857.62 30.4899 1857.56 30.4704 1857.51 30.4314C1857.47 30.3794 1857.45 30.3209 1857.45 30.2559V28.6959C1857.45 28.6179 1857.47 28.5204 1857.51 28.4034L1861.02 20.5252C1861.07 20.4082 1861.17 20.3497 1861.3 20.3497H1863.73C1863.82 20.3497 1863.88 20.3757 1863.91 20.4277C1863.95 20.4667 1863.95 20.5317 1863.91 20.6227L1860.65 27.9354C1860.64 27.9614 1860.64 27.9874 1860.65 28.0134C1860.66 28.0394 1860.68 28.0524 1860.71 28.0524H1863.67C1863.74 28.0524 1863.77 28.0199 1863.77 27.9549V25.5368C1863.77 25.4718 1863.79 25.4198 1863.83 25.3808C1863.88 25.3288 1863.94 25.3028 1864.01 25.3028H1866.29C1866.35 25.3028 1866.4 25.3288 1866.44 25.3808C1866.5 25.4198 1866.52 25.4718 1866.52 25.5368V27.9549C1866.52 28.0199 1866.55 28.0524 1866.62 28.0524H1867.46ZM1869.85 34C1869.78 34 1869.72 33.9805 1869.67 33.9415C1869.63 33.8895 1869.61 33.831 1869.61 33.766V20.5837C1869.61 20.5187 1869.63 20.4667 1869.67 20.4277C1869.72 20.3757 1869.78 20.3497 1869.85 20.3497H1872.13C1872.19 20.3497 1872.24 20.3757 1872.28 20.4277C1872.34 20.4667 1872.36 20.5187 1872.36 20.5837V26.0438C1872.36 26.0828 1872.37 26.1088 1872.4 26.1218C1872.43 26.1218 1872.45 26.1088 1872.48 26.0828L1876.98 20.4862C1877.06 20.3952 1877.16 20.3497 1877.28 20.3497H1879.85C1879.95 20.3497 1880.02 20.3822 1880.04 20.4472C1880.07 20.4992 1880.06 20.5642 1880.01 20.6422L1875.66 26.1998C1875.62 26.2518 1875.61 26.2973 1875.64 26.3363L1880.24 33.727C1880.27 33.805 1880.28 33.8505 1880.28 33.8635C1880.28 33.9545 1880.21 34 1880.08 34H1877.51C1877.38 34 1877.29 33.948 1877.24 33.844L1873.77 28.2279C1873.75 28.2019 1873.73 28.1889 1873.71 28.1889C1873.68 28.1889 1873.65 28.2019 1873.63 28.2279L1872.4 29.7684C1872.37 29.8204 1872.36 29.8594 1872.36 29.8854V33.766C1872.36 33.831 1872.34 33.8895 1872.28 33.9415C1872.24 33.9805 1872.19 34 1872.13 34H1869.85ZM1885.85 34.156C1884.85 34.156 1883.96 33.9545 1883.2 33.5515C1882.43 33.1485 1881.83 32.5895 1881.4 31.8744C1880.99 31.1464 1880.78 30.3079 1880.78 29.3589V24.9908C1880.78 24.0418 1880.99 23.2032 1881.4 22.4752C1881.83 21.7472 1882.43 21.1882 1883.2 20.7982C1883.96 20.3952 1884.85 20.1937 1885.85 20.1937C1886.84 20.1937 1887.71 20.3887 1888.46 20.7787C1889.23 21.1687 1889.82 21.7017 1890.24 22.3777C1890.67 23.0407 1890.88 23.7817 1890.88 24.6008V24.7373C1890.88 24.8023 1890.85 24.8608 1890.8 24.9128C1890.76 24.9518 1890.71 24.9713 1890.65 24.9713H1888.36C1888.3 24.9713 1888.24 24.9518 1888.19 24.9128C1888.15 24.8608 1888.13 24.8023 1888.13 24.7373V24.6788C1888.13 24.0808 1887.92 23.5802 1887.51 23.1772C1887.09 22.7612 1886.54 22.5532 1885.85 22.5532C1885.15 22.5532 1884.58 22.7742 1884.15 23.2162C1883.74 23.6452 1883.53 24.2108 1883.53 24.9128V29.4369C1883.53 30.1389 1883.76 30.7109 1884.21 31.1529C1884.67 31.5819 1885.24 31.7964 1885.95 31.7964C1886.62 31.7964 1887.16 31.6209 1887.57 31.2699C1887.97 30.9059 1888.17 30.4054 1888.17 29.7684V28.8909C1888.17 28.8259 1888.14 28.7934 1888.07 28.7934H1885.89C1885.82 28.7934 1885.76 28.7739 1885.71 28.7349C1885.67 28.6829 1885.65 28.6244 1885.65 28.5594V26.7653C1885.65 26.7003 1885.67 26.6483 1885.71 26.6093C1885.76 26.5573 1885.82 26.5313 1885.89 26.5313H1890.65C1890.71 26.5313 1890.76 26.5573 1890.8 26.6093C1890.85 26.6483 1890.88 26.7003 1890.88 26.7653V29.3394C1890.88 30.3274 1890.67 31.1854 1890.26 31.9134C1889.84 32.6415 1889.25 33.2005 1888.48 33.5905C1887.73 33.9675 1886.85 34.156 1885.85 34.156Z" fill="white"/>
<path d="M0 270H178.901C185.528 270 190.901 275.373 190.901 282V341H0V270Z" fill="#595959"/>
<path d="M43.4832 313.5C43.4132 313.5 43.3502 313.479 43.2942 313.437C43.2522 313.381 43.2312 313.318 43.2312 313.248V299.052C43.2312 298.982 43.2522 298.926 43.2942 298.884C43.3502 298.828 43.4132 298.8 43.4832 298.8H45.9402C46.0102 298.8 46.0662 298.828 46.1082 298.884C46.1642 298.926 46.1922 298.982 46.1922 299.052V313.248C46.1922 313.318 46.1642 313.381 46.1082 313.437C46.0662 313.479 46.0102 313.5 45.9402 313.5H43.4832ZM56.9798 299.052C56.9798 298.982 57.0008 298.926 57.0428 298.884C57.0988 298.828 57.1618 298.8 57.2318 298.8H59.6888C59.7588 298.8 59.8148 298.828 59.8568 298.884C59.9128 298.926 59.9408 298.982 59.9408 299.052V313.248C59.9408 313.318 59.9128 313.381 59.8568 313.437C59.8148 313.479 59.7588 313.5 59.6888 313.5H57.3158C57.1758 313.5 57.0778 313.444 57.0218 313.332L51.5828 304.344C51.5548 304.302 51.5268 304.288 51.4988 304.302C51.4708 304.302 51.4568 304.33 51.4568 304.386L51.4988 313.248C51.4988 313.318 51.4708 313.381 51.4148 313.437C51.3728 313.479 51.3168 313.5 51.2468 313.5H48.7898C48.7198 313.5 48.6568 313.479 48.6008 313.437C48.5588 313.381 48.5378 313.318 48.5378 313.248V299.052C48.5378 298.982 48.5588 298.926 48.6008 298.884C48.6568 298.828 48.7198 298.8 48.7898 298.8H51.1628C51.3028 298.8 51.4008 298.856 51.4568 298.968L56.8748 307.914C56.9028 307.956 56.9308 307.977 56.9588 307.977C56.9868 307.963 57.0008 307.928 57.0008 307.872L56.9798 299.052ZM62.4226 313.5C62.3526 313.5 62.2896 313.479 62.2336 313.437C62.1916 313.381 62.1706 313.318 62.1706 313.248V299.052C62.1706 298.982 62.1916 298.926 62.2336 298.884C62.2896 298.828 62.3526 298.8 62.4226 298.8H67.6726C68.7226 298.8 69.6396 298.989 70.4236 299.367C71.2216 299.731 71.8376 300.249 72.2716 300.921C72.7056 301.593 72.9226 302.37 72.9226 303.252V309.048C72.9226 309.93 72.7056 310.707 72.2716 311.379C71.8376 312.051 71.2216 312.576 70.4236 312.954C69.6396 313.318 68.7226 313.5 67.6726 313.5H62.4226ZM65.1316 310.854C65.1316 310.924 65.1666 310.959 65.2366 310.959H67.7776C68.4216 310.959 68.9396 310.742 69.3316 310.308C69.7376 309.874 69.9476 309.293 69.9616 308.565V303.735C69.9616 303.007 69.7586 302.426 69.3526 301.992C68.9606 301.558 68.4286 301.341 67.7566 301.341H65.2366C65.1666 301.341 65.1316 301.376 65.1316 301.446V310.854ZM75.194 313.5C75.124 313.5 75.061 313.479 75.005 313.437C74.963 313.381 74.942 313.318 74.942 313.248V299.052C74.942 298.982 74.963 298.926 75.005 298.884C75.061 298.828 75.124 298.8 75.194 298.8H77.651C77.721 298.8 77.777 298.828 77.819 298.884C77.875 298.926 77.903 298.982 77.903 299.052V313.248C77.903 313.318 77.875 313.381 77.819 313.437C77.777 313.479 77.721 313.5 77.651 313.5H75.194ZM84.1546 313.5C84.0146 313.5 83.9236 313.43 83.8816 313.29L79.5556 299.094L79.5346 299.01C79.5346 298.87 79.6116 298.8 79.7656 298.8H82.4116C82.5656 298.8 82.6636 298.87 82.7056 299.01L85.4986 309.258C85.5126 309.3 85.5336 309.321 85.5616 309.321C85.5896 309.321 85.6106 309.3 85.6246 309.258L88.3756 299.01C88.4176 298.87 88.5156 298.8 88.6696 298.8H91.2526C91.3366 298.8 91.3996 298.828 91.4416 298.884C91.4836 298.94 91.4906 299.01 91.4626 299.094L87.0736 313.29C87.0316 313.43 86.9406 313.5 86.8006 313.5H84.1546ZM93.3541 313.5C93.2841 313.5 93.2211 313.479 93.1651 313.437C93.1231 313.381 93.1021 313.318 93.1021 313.248V299.052C93.1021 298.982 93.1231 298.926 93.1651 298.884C93.2211 298.828 93.2841 298.8 93.3541 298.8H95.8111C95.8811 298.8 95.9371 298.828 95.9791 298.884C96.0351 298.926 96.0631 298.982 96.0631 299.052V313.248C96.0631 313.318 96.0351 313.381 95.9791 313.437C95.9371 313.479 95.8811 313.5 95.8111 313.5H93.3541ZM98.6607 313.5C98.5907 313.5 98.5277 313.479 98.4717 313.437C98.4297 313.381 98.4087 313.318 98.4087 313.248V299.052C98.4087 298.982 98.4297 298.926 98.4717 298.884C98.5277 298.828 98.5907 298.8 98.6607 298.8H103.911C104.961 298.8 105.878 298.989 106.662 299.367C107.46 299.731 108.076 300.249 108.51 300.921C108.944 301.593 109.161 302.37 109.161 303.252V309.048C109.161 309.93 108.944 310.707 108.51 311.379C108.076 312.051 107.46 312.576 106.662 312.954C105.878 313.318 104.961 313.5 103.911 313.5H98.6607ZM101.37 310.854C101.37 310.924 101.405 310.959 101.475 310.959H104.016C104.66 310.959 105.178 310.742 105.57 310.308C105.976 309.874 106.186 309.293 106.2 308.565V303.735C106.2 303.007 105.997 302.426 105.591 301.992C105.199 301.558 104.667 301.341 103.995 301.341H101.475C101.405 301.341 101.37 301.376 101.37 301.446V310.854ZM116.514 313.668C115.436 313.668 114.484 313.458 113.658 313.038C112.846 312.618 112.209 312.03 111.747 311.274C111.299 310.504 111.075 309.622 111.075 308.628V299.052C111.075 298.982 111.096 298.926 111.138 298.884C111.194 298.828 111.257 298.8 111.327 298.8H113.784C113.854 298.8 113.91 298.828 113.952 298.884C114.008 298.926 114.036 298.982 114.036 299.052V308.649C114.036 309.391 114.26 309.993 114.708 310.455C115.17 310.903 115.772 311.127 116.514 311.127C117.256 311.127 117.851 310.903 118.299 310.455C118.761 309.993 118.992 309.391 118.992 308.649V299.052C118.992 298.982 119.013 298.926 119.055 298.884C119.111 298.828 119.174 298.8 119.244 298.8H121.701C121.771 298.8 121.827 298.828 121.869 298.884C121.925 298.926 121.953 298.982 121.953 299.052V308.628C121.953 309.622 121.722 310.504 121.26 311.274C120.812 312.03 120.175 312.618 119.349 313.038C118.537 313.458 117.592 313.668 116.514 313.668ZM133.133 313.5C132.993 313.5 132.902 313.43 132.86 313.29L132.23 311.232C132.202 311.176 132.167 311.148 132.125 311.148H126.959C126.917 311.148 126.882 311.176 126.854 311.232L126.245 313.29C126.203 313.43 126.112 313.5 125.972 313.5H123.305C123.221 313.5 123.158 313.479 123.116 313.437C123.074 313.381 123.067 313.304 123.095 313.206L127.631 299.01C127.673 298.87 127.764 298.8 127.904 298.8H131.201C131.341 298.8 131.432 298.87 131.474 299.01L136.01 313.206C136.024 313.234 136.031 313.269 136.031 313.311C136.031 313.437 135.954 313.5 135.8 313.5H133.133ZM127.61 308.733C127.596 308.817 127.624 308.859 127.694 308.859H131.39C131.474 308.859 131.502 308.817 131.474 308.733L129.584 302.496C129.57 302.44 129.549 302.419 129.521 302.433C129.493 302.433 129.472 302.454 129.458 302.496L127.61 308.733ZM137.918 313.5C137.848 313.5 137.785 313.479 137.729 313.437C137.687 313.381 137.666 313.318 137.666 313.248V299.052C137.666 298.982 137.687 298.926 137.729 298.884C137.785 298.828 137.848 298.8 137.918 298.8H140.375C140.445 298.8 140.501 298.828 140.543 298.884C140.599 298.926 140.627 298.982 140.627 299.052V310.854C140.627 310.924 140.662 310.959 140.732 310.959H147.599C147.669 310.959 147.725 310.987 147.767 311.043C147.823 311.085 147.851 311.141 147.851 311.211V313.248C147.851 313.318 147.823 313.381 147.767 313.437C147.725 313.479 147.669 313.5 147.599 313.5H137.918Z" fill="white"/>
<defs>
<linearGradient id="paint0_linear_109_25751" x1="1139.12" y1="27.0359" x2="1127.34" y2="425.989" gradientUnits="userSpaceOnUse">
<stop stop-color="#898A8B" stop-opacity="0.55"/>
<stop offset="1" stop-color="#BCBDBF" stop-opacity="0"/>
</linearGradient>
</defs>
</svg>
