<svg width="48" height="48" viewBox="0 0 48 48" fill="none" xmlns="http://www.w3.org/2000/svg">
<rect width="48" height="48" rx="24" fill="#1C1C1A"/>
<path d="M34 24.0605C34 18.5364 29.5242 14.0605 24 14.0605C18.4758 14.0605 14 18.5364 14 24.0605C14 29.0517 17.6569 33.1888 22.4375 33.9396V26.9513H19.8972V24.0605H22.4375V21.8573C22.4375 19.3513 23.9294 17.967 26.2145 17.967C27.3089 17.967 28.4532 18.1622 28.4532 18.1622V20.6218H27.1919C25.95 20.6218 25.5625 21.3928 25.5625 22.1835V24.0605H28.3359L27.8923 26.9513H25.5625V33.9396C30.3431 33.1888 34 29.0517 34 24.0605Z" fill="white"/>
</svg>
