<svg width="160" height="53" viewBox="0 0 160 53" fill="none" xmlns="http://www.w3.org/2000/svg">
<path d="M0 29.2643V0H26.8711C30.7911 0 33.7612 0.663383 35.7815 1.99015C37.832 3.28677 38.8572 5.23169 38.8572 7.82492C38.8572 9.48338 38.4501 10.7951 37.636 11.76C36.8218 12.6948 35.6609 13.3883 34.1532 13.8406C32.6757 14.2929 30.9268 14.5794 28.9065 14.7L29.0874 14.3834C30.5649 14.4135 31.952 14.5191 33.2486 14.7C34.5754 14.8809 35.7363 15.2126 36.7314 15.6951C37.7265 16.1775 38.5105 16.856 39.0834 17.7305C39.6563 18.5748 39.9428 19.6905 39.9428 21.0775C39.9428 22.8868 39.4603 24.3945 38.4954 25.6006C37.5305 26.7766 36.1886 27.6661 34.4698 28.2692C32.7511 28.8723 30.7609 29.204 28.4994 29.2643H0ZM6.01569 24.2889H27.8661C29.7658 24.2889 31.2283 23.9874 32.2535 23.3843C33.2788 22.7511 33.7914 21.756 33.7914 20.3991C33.7914 19.404 33.4898 18.6803 32.8868 18.228C32.2837 17.7757 31.4846 17.5043 30.4895 17.4138C29.4945 17.2932 28.424 17.2329 27.2782 17.2329H6.01569V24.2889ZM6.01569 12.3932H26.6449C28.5446 12.3932 30.0071 12.1218 31.0323 11.5791C32.0575 11.0062 32.5702 10.0412 32.5702 8.68431C32.5702 7.32738 32.0575 6.37754 31.0323 5.83477C30.0071 5.26185 28.6502 4.97538 26.9615 4.97538H6.01569V12.3932Z" fill="#FC5830"/>
<path d="M52.0465 17.052V24.2437H74.6167V29.2643H46.0308V0H74.5714V5.02061H52.0465V12.3028H118.5V17.052H52.0465Z" fill="#FC5830"/>
<path d="M153.971 17.052V24.2437H131.401V29.2643H159.987V0H131.446V5.02061H153.971V12.3028H116V17.052H153.971Z" fill="#FC5830"/>
<path d="M2.56876 45.9463V44.5281H6.52893C7.00166 44.5281 7.37627 44.4032 7.65277 44.1535C7.92927 43.8948 8.06751 43.5381 8.06751 43.0832C8.06751 42.6104 7.92927 42.2492 7.65277 41.9995C7.37627 41.7497 7.00166 41.6249 6.52893 41.6249H2.78282V48.7559H1.00342V40.0997H6.36839C6.85003 40.0997 7.30045 40.1576 7.71966 40.2736C8.14779 40.3895 8.51794 40.5679 8.83011 40.8087C9.15121 41.0496 9.40095 41.3573 9.57934 41.7319C9.75772 42.1065 9.84692 42.5569 9.84692 43.0832C9.84692 43.6005 9.75772 44.042 9.57934 44.4077C9.40095 44.7734 9.15121 45.0722 8.83011 45.3041C8.51794 45.5271 8.14779 45.6921 7.71966 45.7991C7.30045 45.8972 6.85003 45.9463 6.36839 45.9463H2.56876ZM13.3011 45.1435V47.2708H19.9772V48.7559H11.5217V40.0997H19.9638V41.5847H13.3011V43.7387H18.7597V45.1435H13.3011ZM21.8042 48.7559V40.0997H27.6775C28.3465 40.0997 28.9262 40.1933 29.4168 40.3806C29.9163 40.559 30.3043 40.8444 30.5808 41.2369C30.8573 41.6204 30.9955 42.1154 30.9955 42.7219C30.9955 43.1322 30.9241 43.4801 30.7814 43.7655C30.6387 44.0509 30.438 44.2828 30.1794 44.4612C29.9296 44.6396 29.6398 44.7778 29.3098 44.876C28.9797 44.9651 28.6274 45.0231 28.2528 45.0499L28.0655 44.9428C28.6899 44.9518 29.2027 45.0053 29.6041 45.1034C30.0055 45.1926 30.3043 45.3621 30.5005 45.6118C30.7056 45.8526 30.8082 46.2138 30.8082 46.6955V48.7559H29.0288V46.8159C29.0288 46.4859 28.9708 46.2317 28.8549 46.0533C28.7389 45.866 28.5293 45.7367 28.2261 45.6653C27.9317 45.594 27.5036 45.5583 26.9417 45.5583H23.5836V48.7559H21.8042ZM23.5836 44.1669H27.6775C28.177 44.1669 28.5561 44.0465 28.8147 43.8056C29.0823 43.5648 29.2161 43.2393 29.2161 42.829C29.2161 42.4365 29.0823 42.1377 28.8147 41.9326C28.5561 41.7274 28.177 41.6249 27.6775 41.6249H23.5836V44.1669ZM32.2822 45.8392H34.0883C34.124 46.1425 34.2623 46.419 34.5031 46.6687C34.7528 46.9096 35.0784 47.1013 35.4798 47.244C35.8811 47.3778 36.3315 47.4447 36.831 47.4447C37.2859 47.4447 37.6605 47.3957 37.9549 47.2975C38.2492 47.1994 38.4677 47.0612 38.6104 46.8828C38.7531 46.7044 38.8245 46.4903 38.8245 46.2406C38.8245 45.9998 38.7353 45.8169 38.5569 45.6921C38.3785 45.5583 38.0976 45.4512 37.714 45.371C37.3305 45.2818 36.8266 45.1926 36.2022 45.1034C35.7117 45.032 35.2478 44.9339 34.8108 44.8091C34.3738 44.6753 33.9858 44.5058 33.6468 44.3007C33.3168 44.0955 33.0537 43.8458 32.8575 43.5514C32.6702 43.2482 32.5765 42.8914 32.5765 42.4811C32.5765 41.9727 32.7192 41.5268 33.0046 41.1432C33.299 40.7597 33.7316 40.4609 34.3024 40.2468C34.8732 40.0328 35.5734 39.9257 36.4029 39.9257C37.6516 39.9257 38.6104 40.1933 39.2794 40.7285C39.9572 41.2547 40.2873 41.9816 40.2694 42.9092H38.5302C38.4945 42.383 38.2715 42.0039 37.8612 41.772C37.4598 41.5401 36.9514 41.4242 36.336 41.4242C35.7652 41.4242 35.2924 41.5089 34.9178 41.6784C34.5521 41.8478 34.3693 42.1377 34.3693 42.548C34.3693 42.7086 34.4139 42.8513 34.5031 42.9761C34.5923 43.0921 34.7439 43.1947 34.958 43.2839C35.172 43.373 35.4619 43.4578 35.8276 43.5381C36.1933 43.6183 36.6482 43.6986 37.1923 43.7789C37.7007 43.8502 38.16 43.9483 38.5703 44.0732C38.9895 44.1892 39.3463 44.3453 39.6406 44.5415C39.9439 44.7288 40.1758 44.9696 40.3363 45.2639C40.4969 45.5583 40.5771 45.9195 40.5771 46.3476C40.5771 46.8739 40.4389 47.3332 40.1624 47.7257C39.8948 48.1092 39.4756 48.408 38.9048 48.6221C38.3428 48.8361 37.6115 48.9432 36.7106 48.9432C36.0684 48.9432 35.5021 48.8763 35.0115 48.7425C34.5209 48.5998 34.0973 48.4125 33.7405 48.1806C33.3837 47.9487 33.0938 47.6945 32.8709 47.418C32.6479 47.1415 32.4873 46.865 32.3892 46.5885C32.3 46.312 32.2643 46.0622 32.2822 45.8392ZM47.2979 48.9298C46.1473 48.9298 45.1617 48.7514 44.3411 48.3946C43.5295 48.0289 42.9051 47.5116 42.4681 46.8427C42.0399 46.1737 41.8259 45.371 41.8259 44.4344C41.8259 43.489 42.0399 42.6818 42.4681 42.0129C42.9051 41.3439 43.5295 40.831 44.3411 40.4743C45.1617 40.1086 46.1473 39.9257 47.2979 39.9257C48.4574 39.9257 49.443 40.1086 50.2546 40.4743C51.0663 40.831 51.6862 41.3439 52.1143 42.0129C52.5513 42.6818 52.7699 43.489 52.7699 44.4344C52.7699 45.371 52.5513 46.1737 52.1143 46.8427C51.6862 47.5116 51.0663 48.0289 50.2546 48.3946C49.443 48.7514 48.4574 48.9298 47.2979 48.9298ZM47.2979 47.3912C48.0114 47.3912 48.6358 47.2842 49.1709 47.0701C49.715 46.856 50.1387 46.5305 50.4419 46.0934C50.7541 45.6564 50.9102 45.1034 50.9102 44.4344C50.9102 43.7655 50.7541 43.2125 50.4419 42.7755C50.1387 42.3384 49.715 42.0129 49.1709 41.7988C48.6358 41.5758 48.0114 41.4643 47.2979 41.4643C46.5932 41.4643 45.9644 41.5758 45.4114 41.7988C44.8584 42.0129 44.4259 42.3384 44.1137 42.7755C43.8015 43.2125 43.6454 43.7655 43.6454 44.4344C43.6454 45.1034 43.8015 45.6564 44.1137 46.0934C44.4259 46.5305 44.8584 46.856 45.4114 47.0701C45.9644 47.2842 46.5932 47.3912 47.2979 47.3912ZM63.2834 46.9898L62.7215 47.2173V40.0997H64.5009V48.7559H62.7215L55.7243 41.9192L56.2862 41.6918V48.7559H54.5068V40.0997H56.2862L63.2834 46.9898ZM67.9175 46.8694V45.3844H73.6437V46.8694H67.9175ZM65.7635 48.7559L69.8307 40.0997H71.7572L75.8646 48.7559H73.9246L70.3658 40.9559H71.2221L67.69 48.7559H65.7635ZM78.9024 40.0997V47.2708H84.6554V48.7559H77.123V40.0997H78.9024Z" fill="white"/>
<path d="M91.248 40.0997H100.373V41.5847H91.248V40.0997ZM94.9273 41.3974H96.7067V48.7559H94.9273V41.3974ZM101.666 48.7559V40.0997H107.539C108.208 40.0997 108.788 40.1933 109.279 40.3806C109.778 40.559 110.166 40.8444 110.443 41.2369C110.719 41.6204 110.857 42.1154 110.857 42.7219C110.857 43.1322 110.786 43.4801 110.643 43.7655C110.501 44.0509 110.3 44.2828 110.041 44.4612C109.791 44.6396 109.502 44.7778 109.172 44.876C108.842 44.9651 108.489 45.0231 108.115 45.0499L107.927 44.9428C108.552 44.9518 109.065 45.0053 109.466 45.1034C109.867 45.1926 110.166 45.3621 110.362 45.6118C110.567 45.8526 110.67 46.2138 110.67 46.6955V48.7559H108.891V46.8159C108.891 46.4859 108.833 46.2317 108.717 46.0533C108.601 45.866 108.391 45.7367 108.088 45.6653C107.794 45.594 107.365 45.5583 106.803 45.5583H103.445V48.7559H101.666ZM103.445 44.1669H107.539C108.039 44.1669 108.418 44.0465 108.677 43.8056C108.944 43.5648 109.078 43.2393 109.078 42.829C109.078 42.4365 108.944 42.1377 108.677 41.9326C108.418 41.7274 108.039 41.6249 107.539 41.6249H103.445V44.1669ZM114.071 46.8694V45.3844H119.797V46.8694H114.071ZM111.917 48.7559L115.984 40.0997H117.91L122.018 48.7559H120.078L116.519 40.9559H117.375L113.843 48.7559H111.917ZM123.53 40.0997H125.31V48.7559H123.53V40.0997ZM136.39 46.9898L135.829 47.2173V40.0997H137.608V48.7559H135.829L128.831 41.9192L129.393 41.6918V48.7559H127.614V40.0997H129.393L136.39 46.9898ZM141.453 45.1435V47.2708H148.129V48.7559H139.673V40.0997H148.115V41.5847H141.453V43.7387H146.911V45.1435H141.453ZM149.956 48.7559V40.0997H155.829C156.498 40.0997 157.078 40.1933 157.568 40.3806C158.068 40.559 158.456 40.8444 158.732 41.2369C159.009 41.6204 159.147 42.1154 159.147 42.7219C159.147 43.1322 159.076 43.4801 158.933 43.7655C158.79 44.0509 158.59 44.2828 158.331 44.4612C158.081 44.6396 157.791 44.7778 157.461 44.876C157.131 44.9651 156.779 45.0231 156.404 45.0499L156.217 44.9428C156.841 44.9518 157.354 45.0053 157.756 45.1034C158.157 45.1926 158.456 45.3621 158.652 45.6118C158.857 45.8526 158.96 46.2138 158.96 46.6955V48.7559H157.18V46.8159C157.18 46.4859 157.122 46.2317 157.006 46.0533C156.89 45.866 156.681 45.7367 156.378 45.6653C156.083 45.594 155.655 45.5583 155.093 45.5583H151.735V48.7559H149.956ZM151.735 44.1669H155.829C156.329 44.1669 156.708 44.0465 156.966 43.8056C157.234 43.5648 157.368 43.2393 157.368 42.829C157.368 42.4365 157.234 42.1377 156.966 41.9326C156.708 41.7274 156.329 41.6249 155.829 41.6249H151.735V44.1669Z" fill="white"/>
</svg>
