<svg width="48" height="48" viewBox="0 0 48 48" fill="none" xmlns="http://www.w3.org/2000/svg">
<rect width="48" height="48" rx="24" fill="white"/>
<path d="M18.4768 33.9998H14.3304V20.6471H18.4768V33.9998ZM16.4013 18.8257C15.0754 18.8257 14 17.7275 14 16.4016C14 15.7647 14.253 15.1539 14.7033 14.7036C15.1537 14.2532 15.7645 14.0002 16.4013 14.0002C17.0382 14.0002 17.649 14.2532 18.0993 14.7036C18.5497 15.1539 18.8027 15.7647 18.8027 16.4016C18.8027 17.7275 17.7268 18.8257 16.4013 18.8257ZM33.9955 33.9998H29.858V27.4998C29.858 25.9507 29.8268 23.9641 27.7022 23.9641C25.5464 23.9641 25.2161 25.6471 25.2161 27.3882V33.9998H21.0741V20.6471H25.0509V22.4685H25.1089C25.6625 21.4194 27.0147 20.3123 29.0321 20.3123C33.2286 20.3123 34 23.0757 34 26.665V33.9998H33.9955Z" fill="#1C1C1A"/>
</svg>
