<svg width="64" height="64" viewBox="0 0 64 64" fill="none" xmlns="http://www.w3.org/2000/svg">
<path d="M28.8313 52.8002H20.95C15.5739 52.8002 11.2 48.4263 11.2 43.0502V20.9502C11.2 15.574 15.5739 11.2002 20.95 11.2002H35.9C41.2762 11.2002 45.65 15.574 45.65 20.9502V26.2314C45.5642 28.3875 42.4851 28.3859 42.4 26.2314V20.9502C42.4 17.3661 39.4841 14.4502 35.9 14.4502H20.95C17.3659 14.4502 14.45 17.3661 14.45 20.9502V43.0502C14.45 46.6343 17.3659 49.5502 20.95 49.5502H28.8313C30.9873 49.636 30.9857 52.7151 28.8313 52.8002ZM37.2 19.1627C37.1142 17.0069 34.0352 17.008 33.95 19.1627C33.95 20.5067 32.8565 21.6002 31.5125 21.6002H25.3375C23.9935 21.6002 22.9 20.5067 22.9 19.1627C22.9 18.2652 22.1725 17.5377 21.275 17.5377C20.3775 17.5377 19.65 18.2652 19.65 19.1627C19.65 22.2988 22.2014 24.8502 25.3375 24.8502H31.5125C34.6486 24.8502 37.2 22.2988 37.2 19.1627ZM52.8 41.8314C52.8 35.7833 47.8794 30.8627 41.8313 30.8627C27.2791 31.4653 27.2847 52.2003 41.8313 52.8002C47.8794 52.8002 52.8 47.8796 52.8 41.8314ZM49.55 41.8314C49.55 46.0876 46.0874 49.5502 41.8313 49.5502C31.5908 49.1261 31.5948 34.5348 41.8313 34.1127C46.0874 34.1127 49.55 37.5753 49.55 41.8314ZM44.5927 43.4564H41.8313C40.9338 43.4564 40.2063 42.7289 40.2063 41.8314V38.5002C40.2921 36.3441 43.3712 36.3458 43.4563 38.5002V40.2064H44.5927C46.7488 40.2922 46.7471 43.3714 44.5927 43.4564ZM32.5688 30.5377C32.5688 29.6402 31.8412 28.9127 30.9438 28.9127H21.7625C19.6065 28.9985 19.6081 32.0776 21.7625 32.1627H30.9438C31.8412 32.1627 32.5688 31.4352 32.5688 30.5377ZM28.5063 37.0377C28.5063 36.1402 27.7787 35.4127 26.8813 35.4127H21.7625C19.6065 35.4985 19.6081 38.5776 21.7625 38.6627H26.8813C27.7787 38.6627 28.5063 37.9352 28.5063 37.0377ZM27.6938 43.5377C27.6938 42.6402 26.9662 41.9127 26.0688 41.9127H21.7625C19.6065 41.9985 19.6081 45.0776 21.7625 45.1627H26.0688C26.9662 45.1627 27.6938 44.4352 27.6938 43.5377Z" fill="#BCBDBF"/>
</svg>
