<svg width="101" height="100" viewBox="0 0 101 100" fill="none" xmlns="http://www.w3.org/2000/svg"><path d="M39.2484 35.6781h-1.6291V12.125L26.1748 26.9654v8.7129h-2.1416c-5.3934 0-9.7656 4.3723-9.7656 9.7656v14.7127l1.9531 6.1065-1.9531 7.2357v22.1067c0 1.6179 1.3117 2.9296 2.9297 2.9296h28.8871c1.6179 0 2.9297-1.3117 2.9297-2.9296V45.4437c0-5.3933-4.3721-9.7656-9.7657-9.7656z" fill="#FA5F6C"/><path d="M41.2014 35.6783h-1.6291v-8.7129L35.2754 12.125v21.924c0 .8998.7295 1.6291 1.6291 1.6291 5.3933 0 9.7656 4.3723 9.7656 9.7656v50.1619c0 1.618-1.3117 2.9297-2.9297 2.9297h4.2969c1.618 0 2.9297-1.3117 2.9297-2.9297V74.0111l-1.9531-7.1834 1.9531-7.1834V45.4439c0-5.3933-4.3721-9.7656-9.7656-9.7656z" fill="#F44654"/><path d="M46.6703 55.347L34.2547 42.9314c-.7627-.7627-1.9994-.7627-2.7621 0l-17.225 17.225v13.3422l17.225 17.225c.7627.7627 1.9994.7627 2.7621 0L46.6703 78.308l1.9531-11.5055-1.9531-11.4555z" fill="#9DE8AA"/><path d="M50.9668 74.0113V59.6445l-4.2969-4.2968v22.9605l4.2969-4.2969z" fill="#6DD9B1"/><path d="M37.6193 26.9652H26.1748V3.41797c0-1.07871.8744-1.95313 1.9531-1.95313h7.5383c1.0787 0 1.9531.87442 1.9531 1.95313V26.9652z" fill="#9DE8AA"/><path d="M37.6191 1.46484h-4.2968c1.0787 0 1.9531.87442 1.9531 1.95313V26.9652h4.2969V3.41797c0-1.07871-.8744-1.95313-1.9532-1.95313z" fill="#6DD9B1"/><path d="M32.1826 78.8625L20.8388 67.5187c-.3814-.3814-.3814-.9996 0-1.381l11.3438-11.3438c.3814-.3814.9996-.3814 1.381 0l11.3438 11.3438c.3812.3814.3812.9996 0 1.381L33.5636 78.8625c-.3814.3812-.9998.3812-1.381 0zM39.192 17.8105H24.6025c-1.5701 0-2.8427-1.2728-2.8427-2.8427 0-1.5701 1.2726-2.8428 2.8427-2.8428H39.192c1.5701 0 2.8428 1.2729 2.8428 2.8428s-1.2727 2.8427-2.8428 2.8427z" fill="#FFD65E"/><path d="M41.1445 12.125h-4.4922c1.5702 0 2.8428 1.2727 2.8428 2.8428 0 1.5699-1.2726 2.8427-2.8428 2.8427h4.4922c1.5701 0 2.8428-1.2728 2.8428-2.8427 0-1.5701-1.2727-2.8428-2.8428-2.8428z" fill="#FFB83F"/><path d="M60.3027 83.3543v-2.7336c0-1.8947 1.536-3.4307 3.4307-3.4307h4.3324c.6317 0 1.1436-.5119 1.1436-1.1435v-1.7401c0-.7795.7629-1.3304 1.5029-1.0855l5.7768 1.9119 1.9099 1.4738c1.4045.4649 2.3528 1.7776 2.3528 3.2569v5.4437l-20.4491-1.9529z" fill="#FA5F6C"/><path d="M80.3523 76.4113l-3.863-1.2785c1.0502.6027 1.7236 1.7277 1.7236 2.9731v7.2015l4.4922-1.9531v-3.6859c0-1.4795-.9483-2.7922-2.3528-3.2571z" fill="#F44654"/><path d="M78.51 98.5361H62.5439c-3.1578 0-5.7177-2.5599-5.7177-5.7177v-7.1758c0-1.2631 1.024-2.2871 2.2871-2.2871h22.8273c1.2631 0 2.2871 1.024 2.2871 2.2871v7.1758c0 3.1578-2.5599 5.7177-5.7177 5.7177z" fill="#98D5FD"/><path d="M83.8936 83.3555h-5.8594c1.2631 0 2.2871 1.024 2.2871 2.2871v7.1758c0 3.1578-2.56 5.7177-5.7178 5.7177h5.8594c3.1578 0 5.7178-2.5599 5.7178-5.7177v-7.1758c0-1.2633-1.0241-2.2871-2.2871-2.2871z" fill="#75B5F8"/><path d="M20.1357 91.4707c0 .809.6559 1.4648 1.4649 1.4648s1.4648-.6558 1.4648-1.4648-.6558-1.4648-1.4648-1.4648c-.8092 0-1.4649.6558-1.4649 1.4648zM42.9375 91.4707c0 .809.6559 1.4648 1.4648 1.4648.809 0 1.4649-.6558 1.4649-1.4648s-.6559-1.4648-1.4649-1.4648c-.8089 0-1.4648.6558-1.4648 1.4648zM36.9357 65.3379h-7.8185c-.8092 0-1.4649.6558-1.4649 1.4648s.6557 1.4649 1.4649 1.4649h7.8185c.8092 0 1.4649-.6559 1.4649-1.4649s-.6559-1.4648-1.4649-1.4648z" fill="#000"/><path d="M24.8379 34.2133h-.6768c-6.1925 0-11.2304 5.0379-11.2304 11.2304v1.7495c0 .8089.6556 1.4648 1.4648 1.4648.8092 0 1.4649-.6559 1.4649-1.4648v-1.7495c0-4.5771 3.7236-8.3007 8.3007-8.3007h2.1416c.8092 0 1.4649-.6559 1.4649-1.4649v-7.2478h10.4681v7.2478c0 .809.6557 1.4649 1.4649 1.4649h1.6291c4.5771 0 8.3008 3.7236 8.3008 8.3007v10.6639L35.4186 41.8957c-.6457-.6455-1.5039-1.001-2.417-1.001-.9129 0-1.7711.3555-2.4168 1.001L15.8604 56.6199v-3.0428c0-.8089-.6557-1.4648-1.4649-1.4648-.8092 0-1.4648.6559-1.4648 1.4648v42.0284c0 2.4232 1.9714 4.3945 4.3945 4.3945h30.8402c2.4231 0 4.3946-1.9713 4.3946-4.3945v-6.275c0-.809-.6557-1.4649-1.4649-1.4649-.8092 0-1.4648.6559-1.4648 1.4649v6.275c0 .8078-.6571 1.4648-1.4649 1.4648h-30.84c-.8078 0-1.4649-.657-1.4649-1.4648V77.0352L30.585 91.7594c.6457.6455 1.5039 1.001 2.4168 1.001.913 0 1.7713-.3555 2.417-1.001l14.2119-14.2119v5.399c0 .809.6556 1.4648 1.4648 1.4648.8092 0 1.4649-.6558 1.4649-1.4648V45.4437c0-6.1925-5.0379-11.2304-11.2305-11.2304h-.1643V19.2754h.1076c2.3752 0 4.3077-1.9324 4.3077-4.3076s-1.9325-4.3076-4.3077-4.3076h-.1076V3.41797C41.1656 1.5334 39.6322 0 37.7477 0h-9.4916c-1.8846 0-3.418 1.5334-3.418 3.41797v7.24223h-.1076c-2.3752 0-4.3076 1.9324-4.3076 4.3076s1.9324 4.3076 4.3076 4.3076h.1076v14.9379h-.0002zm2.9297-30.79533c0-.26914.2189-.48828.4883-.48828h9.4916c.2693 0 .4882.21914.4882.48828v7.24223H27.7676V3.41797zM23.3525 14.9678c0-.7598.6182-1.378 1.378-1.378h16.5426c.7597 0 1.3779.6182 1.3779 1.378 0 .7597-.6182 1.3779-1.3779 1.3779H24.7305c-.7598 0-1.378-.6182-1.378-1.3779zm4.4151 4.3076h10.4681v6.2252H27.7676v-6.2252zm5.5793 70.4125c-.1244.1244-.2697.143-.3453.143-.0754 0-.2207-.0186-.3452-.143l-16.796-16.7961V60.7633l16.796-16.7961c.1245-.1244.2698-.143.3452-.143.0756 0 .2209.0186.3453.143l16.2836 16.2836v13.1533L33.3469 89.6879z" fill="#000"/><path d="M46.0719 65.102l-3.8774-3.8774c-.572-.5721-1.4994-.5721-2.0716 0-.5721.5721-.5721 1.4994 0 2.0717l3.532 3.532-10.6533 10.6533-10.6532-10.6533L33.0018 56.175l2.6068 2.607c.5723.5721 1.4996.5721 2.0717 0 .572-.572.572-1.4996 0-2.0716l-2.9522-2.9522c-.4609-.4611-1.0742-.7152-1.7263-.7152-.6522 0-1.2651.2539-1.7266.715L19.9314 65.1018c-.9515.9519-.9515 2.5005 0 3.4525l11.344 11.3439c.4611.461 1.0742.7149 1.7264.7149.6521 0 1.2654-.2539 1.7263-.715l11.3436-11.3436c.4611-.4611.7152-1.0742.7152-1.7266 0-.6517-.2539-1.2648-.715-1.7259zM84.0424 81.9039v-2.2352c0-2.1152-1.3492-3.9828-3.3572-4.6474l-9.6399-3.1906c-.7928-.2623-1.6703-.1272-2.3473.3619-.6767.489-1.0808 1.2795-1.0808 2.1144v1.4188h-4.011c-2.6994 0-4.8955 2.1961-4.8955 4.8953v1.2828c-1.9402.142-3.4763 1.7621-3.4763 3.7379v7.1758c0 3.9603 3.222 7.1824 7.1824 7.1824h17.9191c3.9606 0 7.1827-3.2221 7.1827-7.1824v-7.1758c0-1.9756-1.536-3.5957-3.4762-3.7379zm-20.4362-3.2484h4.3325c1.4381 0 2.6084-1.1702 2.6084-2.6084v-1.2953l9.2176 3.0509c.8064.267 1.348 1.0168 1.348 1.8662v2.2213H61.6404v-1.2687c-.0002-1.0842.8819-1.966 1.9658-1.966zm20.9827 14.1623c0 2.3449-1.908 4.2527-4.253 4.2527H62.4168c-2.3451 0-4.2527-1.9078-4.2527-4.2527V85.642c0-.4533.3689-.8223.8222-.8223h24.7805c.4533 0 .8223.369.8223.8223v7.1758h-.0002z" fill="#000"/></svg>