<svg width="101" height="100" viewBox="0 0 101 100" fill="none" xmlns="http://www.w3.org/2000/svg"><path d="M59.3159 48.6409C45.6053 62.3514 29.069 85.1388 28.1574 94.4125c-.1433 1.4591 1.4623 1.2216 2.1645 1.9236 5.1642 5.1639 30.465-14.4886 46.3329-30.3565 3.5436-3.5436 6.1813-6.5989 8.0834-9.2647 4.1696-10.5259-.301-6.4723-4.3121-10.4834-4.011-4.011-1.861-9.1817-11.8455-5.6742-2.6658 1.9023-5.7209 4.54-9.2647 8.0836z" fill="#FA5F6C"/><path d="M85.5786 41.0787c-.702-.702-3.0256.2543-3.7837-.3033 2.6147 3.5538 5.669 5.5191.3046 13.0931-1.9082 2.6941-4.572 5.7883-8.1694 9.3858C60.2192 76.9654 37.4319 93.5014 28.1586 94.412c-.1432 1.4587.0992 2.584.8012 3.2858 5.1642 5.1642 33.1896-14.4886 49.0575-30.3565 3.5436-3.5436 6.1813-6.5989 8.0834-9.2647 6.6147-9.2708 3.4887-12.987-.5221-16.9979z" fill="#F44654"/><path d="M86.286 40.3712c4.0107 4.0106 5.8415 7.2384-.7719 16.508-.954 1.337-2.1851 1.8057-2.4847.1908l-.2126-2.9897c-.0132-.0721-.6959-.1439-.7168-.2123-.2936-.9544-1.3071-1.5198-2.2914-1.2345l-4.9072 1.4228c-1.4055.4075-2.7082-.8952-2.3007-2.3007l1.4228-4.9072c.3056-1.0546-.3653-2.1428-1.4449-2.343l-3.2639-.6053c-1.6149-.2994-2.0702-2.3888-.7332-3.3426 7.648-5.4566 12.0905-4.8589 15.6632-2.2304.7575.5576 1.3397 1.3424 2.0413 2.0441z" fill="#9DE8AA"/><path d="M82.0996 53.8691c.0211.0683.0391.1384.0526.2107l.6053 3.2639c.2994 1.615 2.3888 2.0703 3.3426.7333 6.6135-9.2698 4.3333-13.8303.3227-17.8409-.7016-.7016-1.4203-1.3499-2.1779-1.9074l-.0012-.0006c2.6146 3.5536 3.2194 7.9678-2.1441 15.541z" fill="#6DD9B1"/><path d="M35.1342 24.4573C21.4237 38.1678 4.88739 60.9552 3.9758 70.2289c-.14337 1.4591 1.46222 1.2214 2.16441 1.9236C11.3044 77.3167 36.6053 57.6639 52.4732 41.796c3.5436-3.5436 6.1813-6.5989 8.0833-9.2647 4.1697-10.5259-.3009-6.4723-4.312-10.4834-4.011-4.011-1.861-9.1817-11.8455-5.6742-2.6658 1.9021-5.7209 4.5398-9.2648 8.0836z" fill="#FA5F6C"/><path d="M61.3972 16.8971c-.702-.702-3.0256.2543-3.7837-.3033 2.6146 3.5537 5.669 5.5191.3045 13.0933-1.9081 2.6941-4.5718 5.7882-8.1693 9.3858C36.0378 52.7836 13.2502 69.3197 3.97691 70.2301c-.14317 1.4587.09923 2.5838.80123 3.2858C9.94237 78.6801 37.9678 59.0274 53.8357 43.1595c3.5436-3.5436 6.1813-6.5989 8.0834-9.2647 6.6149-9.2706 3.4889-12.9869-.5219-16.9977z" fill="#F44654"/><path d="M62.1045 16.1895c4.0107 4.0106 5.8415 7.2384-.7721 16.508-.954 1.337-2.1851 1.8058-2.4847.1908l-.2125-2.9896c-.0133-.0721-.696-.1442-.7169-.2123-.2936-.9544-1.3071-1.5199-2.2914-1.2345l-4.9071 1.4228c-1.4056.4074-2.7082-.8952-2.3008-2.3008l1.4228-4.9072c.3059-1.0545-.3653-2.1427-1.4449-2.3429l-3.2639-.6053c-1.6149-.2995-2.0702-2.3889-.733-3.3426 7.648-5.4567 12.0905-4.859 15.6632-2.2305.7575.5577 1.3397 1.3425 2.0413 2.0441z" fill="#9DE8AA"/><path d="M57.918 29.6857c.0211.0683.039.1384.0525.2107l.6053 3.2639c.2995 1.615 2.3889 2.0701 3.3426.7331 6.6136-9.2698 4.3333-13.8303.3227-17.8409-.7016-.7016-1.4202-1.3499-2.1779-1.9074-.0004-.0002-.0008-.0004-.0011-.0006 2.6144 3.5536 3.2193 7.9678-2.1441 15.5412z" fill="#6DD9B1"/><path d="M97.9796 28.8265c0-1.2411-.4832-2.4082-1.3608-3.2858-.8776-.8776-2.0447-1.361-3.2858-1.361-1.2411 0-2.4082.4834-3.2858 1.361l-1.3622 1.3622c-.5721.5721-.5721 1.4997.0002 2.0719.5719.5721 1.4995.5719 2.0716-.0002l1.3622-1.3622c.6692-.6694 1.7588-.6694 2.4279 0 .6696.6693.6696 1.7585 0 2.4279l-8.1507 8.1507c-2.3869-2.1331-5.4258-3.8809-9.7771-3.0807-4.8859.8993-10.7127 4.8695-18.3378 12.4945-8.0535 8.0535-16.9656 19.0818-23.2583 28.7811-3.3586 5.1769-5.7473 9.6116-7.0991 13.1808-1.6945 4.4736-1.6941 7.472.001 9.1673.8432.8432 2.0189 1.2657 3.5434 1.2657 2.1949 0 5.1128-.8762 8.8004-2.6336 4.9875-2.3767 11.2125-6.2791 18.0026-11.2854.6513-.4801.7899-1.3971.3096-2.0483-.4799-.6515-1.3971-.7897-2.0484-.3098-16.671 12.2915-25.0035 14.4725-26.5356 12.9398-1.0446-1.0445-.6434-6.1542 7.4841-18.6816 6.1889-9.5396 14.953-20.3851 22.8723-28.3042 2.3139-2.3138 4.4568-4.2773 6.4419-5.9028.4748.8134 1.2768 1.3865 2.2535 1.5675l3.2637.6054c.1414.0261.2207.1123.2623.1797.0416.0675.083.1769.043.315l-1.4228 4.9072c-.3373 1.1634-.0146 2.4177.8419 3.2743.8561.8561 2.1105 1.1788 3.2738.8414l4.9072-1.4229c.1375-.0401.2473.0011.3151.0429.0675.0416.1533.1209.1797.2622l.6053 3.2641c.1807.9741.7512 1.7741 1.561 2.2495-1.5735 1.9279-3.5162 4.0659-5.8963 6.446-4.3841 4.3843-9.7126 9.0768-15.4091 13.5703-.6354.501-.7442 1.4222-.243 2.0576.501.6352 1.4226.744 2.0574.243 5.7852-4.5635 11.2028-9.3351 15.6665-13.7991 7.625-7.6249 11.5952-13.4519 12.4945-18.3376.8008-4.3515-.9474-7.3904-3.0807-9.7773l8.151-8.1507c.8772-.8778 1.3604-2.0447 1.3604-3.2858zm-13.1355 28.471c-.116.1074-.2494.1099-.3485.0881-.166-.037-.266-.1409-.2972-.3093l-.6054-3.264c-.1707-.9204-.7256-1.7302-1.5225-2.2217-.797-.4916-1.7695-.6237-2.669-.3629l-4.9071 1.4229c-.1838.0528-.3116-.0246-.3864-.0992-.0748-.0748-.1525-.2025-.0994-.3865l1.4227-4.9072c.2608-.8993.1284-1.8718-.3629-2.6688-.4914-.7969-1.301-1.3518-2.2218-1.5225l-3.2639-.6055c-.1684-.0313-.2725-.1313-.3092-.2975-.0262-.1176-.0196-.2844.1598-.4124.0164-.0117.0312-.025.047-.0373 2.9323-2.086 5.4744-3.3178 7.6689-3.7217 3.4766-.6403 5.8071.8485 8.2381 3.2795 2.7766 2.7764 6.362 6.3665-.5432 16.026zM34.3985 59.8504c-.4803-.6514-1.3974-.7897-2.0486-.3098-13.691 10.0941-21.757 13.3697-25.05254 13.3692-.71743 0-1.20926-.1553-1.48331-.4294-1.04441-1.0444-.64321-6.1541 7.48415-18.6818 6.1891-9.5393 14.9532-20.3848 22.8723-28.3039 2.3181-2.3181 4.4595-4.2814 6.4411-5.9041.4746.8139 1.277 1.3876 2.2544 1.5688l3.2639.6053c.1414.0262.2207.1124.2623.1799.0417.0674.0831.177.043.3149l-1.4229 4.9074c-.3372 1.1631-.0147 2.4177.8416 3.274.8565.8563 2.1107 1.1788 3.2743.8415l4.9072-1.4228c.1385-.0396.2474.0014.3146.043.0676.0416.1536.1209.1799.2621l.6055 3.264c.1807.974.7513 1.7741 1.5611 2.2495-1.5736 1.9279-3.5163 4.0659-5.8963 6.446-4.3847 4.3847-9.713 9.0772-15.4093 13.5703-.6354.5012-.7442 1.4222-.243 2.0575.2891.3665.718.5577 1.1513.5577.3176 0 .6375-.1029.9063-.3149 5.7848-4.5628 11.2023-9.3344 15.6667-13.7988 7.6249-7.6251 11.5952-13.4521 12.4944-18.3376.8009-4.3513-.9473-7.3902-3.0807-9.7771l8.1504-8.15113c.8776-.8776 1.3609-2.04448 1.3609-3.28558 0-1.2413-.4833-2.40818-1.3609-3.28578-1.8118-1.811845-4.7599-1.811649-6.5713 0l-1.3622 1.36221c-.5721.57211-.5722 1.49971.0002 2.07182.5719.57211 1.4995.57192 2.0718 0l1.3622-1.3622c.669-.66919 1.7583-.66939 2.4277 0 .6696.66938.6696 1.75852 0 2.4279l-8.151 8.15116c-1.3042-1.1639-2.9461-2.3336-4.97-2.9053-.7788-.2199-1.5879.233-1.808 1.0116-.2199.7786.233 1.588 1.0118 1.808 1.5343.4334 3.002 1.4096 4.758 3.1656 2.7765 2.7766 6.3617 6.3665-.5434 16.0259-.1161.1075-.2495.1098-.3483.0881-.1662-.0369-.266-.1408-.2973-.3092l-.6055-3.2641c-.1707-.9205-.7258-1.7302-1.5228-2.2218-.7967-.4914-1.769-.6233-2.6685-.3629l-4.9072 1.4227c-.1828.053-.3115-.0246-.3865-.0994-.0749-.0746-.1526-.2025-.0995-.3861l1.423-4.9072c.2607-.8991.1283-1.8718-.3629-2.6688-.4915-.7969-1.3011-1.3518-2.2219-1.5225l-3.2641-.6055c-.1681-.0313-.2724-.1313-.3092-.2973-.0261-.1174-.0195-.2844.1598-.4124.0266-.0189.0512-.0398.076-.0603 2.0765-1.4741 3.9569-2.5172 5.6635-3.1454.7592-.2795 1.1481-1.1215.8686-1.8808-.2795-.7594-1.1218-1.1483-1.8808-.8688-4.3341 1.5953-9.5284 5.458-15.8796 11.8091-8.0537 8.0537-16.9659 19.082-23.2583 28.7813-3.35865 5.1769-5.7473 9.6116-7.09915 13.1808-1.69465 4.4736-1.69426 7.4722.00078 9.1673.84322.8432 2.01889 1.2657 3.54341 1.2657 2.19488 0 5.11286-.8763 8.80046-2.6336 4.9874-2.3767 11.2127-6.2792 18.0028-11.2854.651-.4803.7897-1.3973.3096-2.0486z" fill="#000"/></svg>