<svg width="101" height="100" viewBox="0 0 101 100" fill="none" xmlns="http://www.w3.org/2000/svg"><g clip-path="url(#clip0_205_22469)"><path d="M84.7859 43.99c0 23.4857-17.0859 42.5248-40.5716 42.5248-23.4858 0-42.52485-19.0391-42.52485-42.5248 0-22.501 17.47575-40.92034 39.59495-42.42542.9681-.06582 1.9451.0959 2.9299.0959C67.7 1.66048 84.7859 20.5042 84.7859 43.99z" fill="#FFB83F"/><path d="M44.2139 1.46484c-.985 0-1.9614.03653-2.9297.10235C63.4029 3.07266 80.8793 21.4889 80.8793 43.9896c0 22.5008-17.4762 40.917-39.5951 42.4225.9683.0658 1.9447.1024 2.9297.1024 23.4857 0 42.5248-19.0391 42.5248-42.5249 0-23.4857-19.0391-42.52476-42.5248-42.52476z" fill="#FFA100"/><path d="M64.8605 16.8966L17.1199 64.6372c-1.323 1.323-1.7625 3.2818-1.1609 5.0535 5.3949 15.8895 19.9279 27.5582 37.3394 28.7459.9702.0662 1.9493-.0955 2.9362-.0955 23.489.0002 40.5722-18.8406 40.572-42.3297 0-18.7-9.7269-32.6273-26.5017-38.3228-1.4662-.4979-3.4512-2.2358-4.7074-1.3969-.2618.1748-.5088.3767-.737.6049z" fill="#FFD65E"/><path d="M69.9145 15.7328c-1.4661-.4978-3.0594-.2807-4.3155.558 15.9666 6.1235 27.3018 21.5967 27.3018 39.718 0 22.506-17.4774 40.9213-39.602 42.423.9703.0662 1.949.102 2.936.102 23.489.0002 42.5254-19.036 42.5252-42.525.0002-18.7-12.0706-34.5805-28.8455-40.276z" fill="#FFB83F"/><path d="M17.25 64.5051l47.4797-47.4797c13.0994 13.0994 13.0994 34.3379 0 47.4375l-.0422.0422c-13.0996 13.0994-34.3381 13.0994-47.4375 0z" fill="#FFE296"/><path d="M29.7715 36.7656c1.9146 0 3.4668-1.5521 3.4668-3.4668 0-1.9146-1.5522-3.4668-3.4668-3.4668-1.9147 0-3.4668 1.5522-3.4668 3.4668 0 1.9147 1.5521 3.4668 3.4668 3.4668z" fill="#FFA100"/><path d="M74.9941 76.6094c1.9147 0 3.4668-1.5522 3.4668-3.4668 0-1.9147-1.5521-3.4668-3.4668-3.4668-1.9146 0-3.4668 1.5521-3.4668 3.4668 0 1.9146 1.5522 3.4668 3.4668 3.4668z" fill="#FFB83F"/><path d="M55.7617 54.1641c1.9147 0 3.4668-1.5522 3.4668-3.4668 0-1.9147-1.5521-3.4668-3.4668-3.4668-1.9146 0-3.4668 1.5521-3.4668 3.4668 0 1.9146 1.5522 3.4668 3.4668 3.4668z" fill="#FFD65E"/><path d="M23.6475 22.875c0-.809-.6559-1.4648-1.4649-1.4648s-1.4648.6558-1.4648 1.4648.6558 1.4648 1.4648 1.4648c.8092 0 1.4649-.6558 1.4649-1.4648zM12.7646 45.7656c0 .809.6559 1.4649 1.4649 1.4649s1.4648-.6559 1.4648-1.4649-.6558-1.4648-1.4648-1.4648c-.8092 0-1.4649.6558-1.4649 1.4648zM47.3672 19.7422c0-.809-.6559-1.4649-1.4649-1.4649-.8089 0-1.4648.6559-1.4648 1.4649s.6559 1.4648 1.4648 1.4648c.809 0 1.4649-.6558 1.4649-1.4648zM80 43.9883c0 .809.6559 1.4648 1.4648 1.4648.809 0 1.4649-.6558 1.4649-1.4648s-.6559-1.4649-1.4649-1.4649c-.8089 0-1.4648.6559-1.4648 1.4649zM61.6211 36.7656c0-.809-.6559-1.4648-1.4649-1.4648-.8089 0-1.4648.6558-1.4648 1.4648s.6559 1.4649 1.4648 1.4649c.8092 0 1.4649-.6559 1.4649-1.4649zM55.7617 81.5977c0 .8089.6559 1.4648 1.4649 1.4648.8089 0 1.4648-.6559 1.4648-1.4648 0-.809-.6559-1.4649-1.4648-1.4649-.809 0-1.4649.6557-1.4649 1.4649zM41.2852 62.6367c0 .809.6558 1.4649 1.4648 1.4649s1.4648-.6559 1.4648-1.4649-.6558-1.4648-1.4648-1.4648-1.4648.6556-1.4648 1.4648zM70.0625 73.1426c0 2.7193 2.2123 4.9318 4.9318 4.9318 2.7194 0 4.9317-2.2123 4.9317-4.9318 0-2.7194-2.2123-4.9317-4.9317-4.9317-2.7193 0-4.9318 2.2123-4.9318 4.9317zm6.9338 0c0 1.1039-.8981 2.0021-2.002 2.0021-1.1039 0-2.0021-.898-2.0021-2.0021 0-1.1039.8982-2.002 2.0021-2.002 1.1041 0 2.002.8981 2.002 2.002zM34.7031 33.2988c0-2.7193-2.2123-4.9316-4.9316-4.9316-2.7194 0-4.9317 2.2123-4.9317 4.9316 0 2.7194 2.2123 4.9317 4.9317 4.9317 2.7193 0 4.9316-2.2123 4.9316-4.9317zm-6.9336 0c0-1.1039.8981-2.0019 2.002-2.0019 1.1039 0 2.0019.898 2.0019 2.0019 0 1.1039-.898 2.002-2.0019 2.002-1.1039 0-2.002-.8981-2.002-2.002zM50.8301 50.6973c0 2.7193 2.2123 4.9318 4.9316 4.9318 2.7194 0 4.9317-2.2123 4.9317-4.9318 0-2.7194-2.2123-4.9317-4.9317-4.9317-2.7191 0-4.9316 2.2123-4.9316 4.9317zm6.9336 0c0 1.1039-.8981 2.0021-2.002 2.0021-1.1039 0-2.0019-.898-2.0019-2.0021 0-1.1039.898-2.002 2.0019-2.002 1.1041 0 2.002.8981 2.002 2.002z" fill="#000"/><path d="M80.7256 19.4527C72.5223 7.26719 58.9006 0 44.2143 0c-9.9524 0-19.3405 3.24199-27.1497 9.37539-.6361.49981-.7468 1.42051-.247 2.05681.4998.6364 1.4205.7467 2.0568.2473 7.2877-5.72423 16.0502-8.74981 25.3399-8.74981 11.4148 0 22.1396 4.70566 29.831 12.84671-1.1904-.5262-2.4103-1.0049-3.6603-1.4293-2.3245-.7887-4.8383-.2098-6.5604 1.5125L16.0842 63.6002c-1.7221 1.7221-2.3016 4.2359-1.5123 6.5603.4244 1.2497.9029 2.4696 1.4289 3.6598C7.86035 66.1281 3.1543 55.4014 3.1543 43.9896c0-10.5062 3.96504-20.5021 11.1648-28.1462.5547-.5889.527-1.5161-.0619-2.0707-.5886-.5547-1.5158-.527-2.0707.0619C4.47266 22.0246.224609 32.7338.224609 43.9896c0 14.6833 7.268161 28.3096 19.453491 36.5124C27.7057 92.4854 41.3061 99.9998 56.2344 100h.0004c13.3478 0 25.8232-5.9588 34.2236-16.3473.5086-.6291.4109-1.5513-.218-2.0601-.6293-.5086-1.5511-.411-2.0601.2179-7.8418 9.6979-19.4858 15.2598-31.9459 15.2598-17.6043-.0002-33.2324-11.193-38.8885-27.8517-.2871-.8459-.2404-1.7356.1008-2.51 4.0842 3.7066 8.9926 6.4113 14.298 7.8551 3.0096.8189 6.1174 1.2293 9.2264 1.2293 2.75 0 5.5008-.3209 8.1851-.9641.7868-.1885 1.2717-.9789 1.0833-1.7656-.1885-.7867-.9801-1.2721-1.7659-1.0832-5.2422 1.2558-10.7611 1.1717-15.9595-.2432-4.8885-1.3303-9.41-3.8301-13.1657-7.258l45.3571-45.3568c11.4847 12.5718 11.1488 32.1451-1.01 44.3043l-.0437.0433c-2.7371 2.7371-5.8946 4.9305-9.3842 6.519-.7363.3351-1.0615 1.2039-.7264 1.9402.2457.5395.7777.8584 1.3342.8584.2029 0 .4092-.0424.606-.132 3.8102-1.7344 7.2559-4.128 10.2409-7.1129l.0437-.0434c13.2469-13.247 13.6365-34.556 1.1711-48.2787.7734-.3396 1.6615-.3857 2.5061-.0992 16.6589 5.6564 27.8517 21.2846 27.8517 38.8891 0 7.2964-1.9371 14.4613-5.6017 20.7197-.409.6982-.1744 1.5955.5238 2.0043.6978.4084 1.5955.1744 2.0043-.524 3.9273-6.7069 6.0037-14.3836 6.0037-22.2 0-14.9289-7.515-28.5299-19.4994-36.5575z" fill="#000"/></g><defs><clipPath id="clip0_205_22469"><path fill="#fff" transform="translate(.224609)" d="M0 0h100v100H0z"/></clipPath></defs></svg>