<svg width="228" height="147" viewBox="0 0 228 147" fill="none" xmlns="http://www.w3.org/2000/svg"><path d="M59.8695 122.784H57.835l-.3527-2.344h-2.4611l-.3445 2.344h-1.854l2.0509-12.887h2.9614l2.0345 12.887zm-4.6022-4.112h1.9442l-.9761-6.464-.9681 6.464zM64.4797 109.897h2.0181v11.045h3.3224v1.842h-5.3405v-12.887zM78.5405 115.917l-.7384 6.867h-2.7728l-1.4274-12.887h1.9607l1.0828 10.156 1.0091-10.156h1.9442l1.009 10.23 1.0501-10.23h1.7391l-1.4356 12.887h-2.6661l-.7547-6.867zM94.3322 122.784h-2.0426l-.3446-2.344h-2.4611l-.3445 2.344h-1.854l2.0509-12.887h2.9614l2.0345 12.887zm-4.6103-4.112h1.9442l-.9762-6.464-.968 6.464zM100.829 118.507l-2.5592-8.61h2.1162l1.543 5.872 1.542-5.872h1.928l-2.552 8.61v4.277h-2.018v-4.277zM112.462 109.741c1.969 0 2.978 1.176 2.978 3.24v.403h-1.912v-.534c0-.921-.369-1.267-1.009-1.267-.639 0-1.009.346-1.009 1.267 0 2.656 3.946 3.149 3.946 6.833 0 2.056-1.025 3.24-3.01 3.24-1.986 0-3.011-1.184-3.011-3.24v-.822h1.911v.921c0 .921.402 1.258 1.042 1.258s1.05-.337 1.05-1.258c0-2.648-3.946-3.141-3.946-6.825 0-2.032.977-3.216 2.97-3.216zM128.82 115.621h2.608v1.842h-2.608v5.321h-2.018v-12.887h5.34v1.843h-3.281l-.041 3.881zM141.01 122.784c-.163-.513-.224-1.052-.18-1.588v-2.023c0-1.2-.411-1.644-1.329-1.644h-.698v5.246h-2.018v-12.878h3.052c2.092 0 2.994.979 2.994 2.961v.995c0 1.324-.426 2.196-1.329 2.615 1.018.428 1.346 1.398 1.346 2.747v2.039c-.038.531.037 1.063.221 1.563l-2.059-.033zm-2.207-11.044v3.955h.821c.746 0 1.206-.329 1.206-1.365v-1.299c0-.921-.312-1.324-1.026-1.324l-1.001.033zM149.845 115.325h2.773v1.817h-2.773v3.775h3.495v1.842h-5.513v-12.862h5.513v1.843h-3.495v3.585zM160.986 109.741c1.96 0 2.969 1.176 2.969 3.24v.403h-1.911v-.534c0-.921-.361-1.267-1.009-1.267-.648 0-1.009.346-1.009 1.267 0 2.656 3.946 3.149 3.946 6.833 0 2.056-1.026 3.24-3.011 3.24s-3.011-1.184-3.011-3.24v-.822h1.912v.921c0 .921.402 1.258 1.05 1.258s1.042-.337 1.042-1.258c0-2.648-3.946-3.141-3.946-6.825.041-2.032 1.009-3.216 2.978-3.216zM170.822 122.784h-2.019v-12.887h2.019v5.518h2.297v-5.518h2.059v12.887h-2.059v-5.527h-2.297v5.527zM6.94836 77.8511l8.97464.0575v6.0854l-8.97464.0822v17.9848c-2.78098.156-4.16737.238-6.94836.411V58.0654c7.38315.4523 11.0337.6579 18.3923 1.0444v6.0443c-4.5776-.1727-6.8664-.2632-11.44394-.4523v13.1493zM21.1733 69.3567c0-6.7185 3.7244-10.3616 10.5579-10.0491s10.5579 4.1118 10.5579 10.5425v20.8712c0 6.4225-3.7244 10.2297-10.5579 10.5427-6.8335.312-10.5579-3.3307-10.5579-10.0575V69.3567zm6.9566 22.0882c0 2.9522 1.3864 4.0295 3.6013 3.9555 2.215-.074 3.6014-1.2171 3.6014-4.1117V69.2909c0-2.9029-1.3864-4.0541-3.6014-4.1117-2.2149-.0576-3.6013 1.0033-3.6013 3.9555v22.3102zM46.2268 69.9234c0-6.3732 3.7326-9.8682 10.5661-9.6544 6.8335.2138 10.5661 3.8239 10.5661 9.9915v20.0488c0 6.1676-3.7326 9.7777-10.5661 9.9917-6.8335.214-10.5661-3.2896-10.5661-9.6545V69.9234zm6.9566 20.9862c0 2.8124 1.3945 3.8486 3.6095 3.7992 2.2149-.0493 3.6095-1.1348 3.6095-3.9143V69.7753c0-2.7795-1.3946-3.865-3.6095-3.9143-2.215-.0494-3.6095.9868-3.6095 3.791v21.2576zM71.8299 61.125c4.4052.0987 6.612.1398 11.009.2138 6.9648.1151 10.3775 3.421 10.3775 9.4405V89.792c0 6.0195-3.4127 9.3254-10.3775 9.4405-4.397.074-6.5627.1151-11.009.2138V61.125zm6.9647 5.5755v27.1374l3.9213-.0493c2.2149 0 3.5439-1.0115 3.5439-3.7088V70.4257c0-2.6973-1.329-3.6841-3.5439-3.7088l-3.9213-.0164zM105.423 61.585h21.51v5.3534h-7.269v32.0715h-6.989V66.9795h-7.276l.024-5.3945zM144.521 99.2236c-.377-.9786-.632-1.5789-.632-4.6627v-5.9456c0-3.5196-1.394-4.8189-4.553-4.8271h-2.403v15.3285l-6.965-.0658V61.5355c4.2 0 6.309-.0658 10.509-.1234 7.211-.1069 10.312 2.7055 10.312 8.5853v2.9934c0 3.9225-1.461 6.4307-4.562 7.6725v.1069c3.487 1.2499 4.619 4.1117 4.619 8.0589v5.8798c-.123 1.5878.138 3.1819.763 4.6463-2.838-.0576-4.249-.0905-7.088-.1316zm-7.588-32.384v11.5622h2.715c2.601 0 4.176-.9786 4.176-4.013v-3.7253c0-2.7055-1.075-3.8815-3.544-3.8568l-3.347.0329zM162.044 60.9756v29.7936c0 2.7549 1.394 3.7746 3.609 3.8157 2.215.0411 3.602-.921 3.602-3.7088V60.7783l6.562-.2138v30.0238c0 6.3156-3.535 9.7857-10.369 9.5967-6.833-.1891-10.377-3.7663-10.377-9.8681V61.1401c2.797-.0576 4.192-.0905 6.973-.1645zM200.756 85.5482v5.5097c0 6.6281-3.544 10.2381-10.369 9.9501-6.826-.288-10.378-4.0375-10.378-10.3942V69.9565c0-6.3568 3.544-10.1067 10.378-10.3945 6.833-.2878 10.369 3.2894 10.369 9.9504v4.046l-6.563.0986v-4.3749c0-2.9193-1.386-3.9801-3.601-3.9143-2.215.0658-3.61 1.2006-3.61 4.1117v21.7264c0 2.8782 1.395 3.9473 3.61 4.0131 2.215.0658 3.601-.9375 3.601-3.8487v-5.8386l6.563.0165zM214.095 84.6193c-.82 1.5542-1.288 2.3272-2.149 3.865v13.0337l-6.957-.353v-41.8l6.957-.3536v18.4124h.123c3.593-7.4012 5.389-11.1675 8.974-18.914 2.781-.1562 4.176-.2385 6.957-.4112-3.872 8.1495-5.8 12.1132-9.672 19.8432 3.281 8.1495 6.497 16.34 9.672 24.5392l-7.145-.428c-2.699-7.1133-4.053-10.5836-6.76-17.4337zM113.996 129.796l-2.79 5.666-6.234.904 4.512 4.416-1.067 6.217 5.579-2.935 5.578 2.935-1.067-6.217 4.512-4.416-6.234-.904-2.789-5.666zM93.4869 132.666l-1.854 3.775-4.1592.608 3.0107 2.936-.7137 4.153 3.7162-1.966 3.7244 1.966-.7137-4.153 3.0107-2.936-4.1592-.608-1.8622-3.775zM134.504 132.666l-1.854 3.775-4.159.608 3.011 2.936-.714 4.153 3.716-1.966 3.725 1.966-.714-4.153 3.011-2.936-4.159-.608-1.863-3.775z" fill="#fff"/><path d="M25.4021 43.1318h26.2512M176.346 43.1318h26.252" stroke="#fff" stroke-width="1.40906" stroke-miterlimit="10"/><path d="M60.7079 37.3818h2.7831l1.2408 8.9025h.0355l1.2408-8.9025h2.7831v12.4387h-1.8436v-9.4179h-.0354l-1.4181 9.4179h-1.6309l-1.4181-9.4179h-.0354v9.4179h-1.7018V37.3818zM83.7183 37.3818h5.318v1.777h-3.368v3.2873h2.6766v1.777h-2.6766v3.8204h3.368v1.777h-5.318V37.3818zM105.384 43.459l-2.145-6.0772h2.057l1.311 4.0159h.036l1.347-4.0159h1.844l-2.145 6.0772 2.251 6.3615h-2.056l-1.419-4.3358h-.035l-1.454 4.3358h-1.843l2.251-6.3615zM124.338 37.3818h1.95v12.4387h-1.95V37.3818zM143.968 49.9982c-.934 0-1.648-.2666-2.145-.7997-.484-.533-.727-1.2853-.727-2.2567v-6.6813c0-.9714.243-1.7237.727-2.2568.497-.5331 1.211-.7996 2.145-.7996.934 0 1.643.2665 2.127.7996.497.5331.745 1.2854.745 2.2568v1.3149h-1.844v-1.4393c0-.77-.325-1.155-.975-1.155-.65 0-.975.385-.975 1.155v6.9479c0 .7581.325 1.1372.975 1.1372.65 0 .975-.3791.975-1.1372v-1.9014h1.844v1.7592c0 .9714-.248 1.7237-.745 2.2567-.484.5331-1.193.7997-2.127.7997zM164.332 49.9982c-.958 0-1.69-.2725-2.199-.8174-.508-.545-.762-1.315-.762-2.3101v-6.5392c0-.9951.254-1.7651.762-2.31.509-.5449 1.241-.8174 2.199-.8174.957 0 1.689.2725 2.198.8174.508.5449.762 1.3149.762 2.31v6.5392c0 .9951-.254 1.7651-.762 2.3101-.509.5449-1.241.8174-2.198.8174zm0-1.777c.673 0 1.01-.4087 1.01-1.2261v-6.7879c0-.8174-.337-1.2261-1.01-1.2261-.674 0-1.011.4087-1.011 1.2261v6.7879c0 .8174.337 1.2261 1.011 1.2261z" fill="#fff"/><g clip-path="url(#clip0_81_3432)" fill="#fff"><path d="M125.427 7.80824c.072-.34205.109-.69068.109-1.04158 0-1.59771-.765-3.11904-2.046-4.06944-.342-.25334-.823-.18118-1.076.16108-.253.34221-.181.82504.161 1.07833.891.66093 1.423 1.71891 1.423 2.83003 0 .09725-.005.19418-.013.29071-.007-.00211-.013-.00458-.02-.00663-2.067-.61873-4.262.34776-5.219 2.2573.035.033.069.06959.099.11025.585.79541 1.485 1.25161 2.468 1.25161.44 0 .865-.0911 1.261-.2709.217-.098.466-.0905.676.0204.21.1109.357.3128.398.547.26 1.4657 1.529 2.5296 3.018 2.5296l.012-.0003c.012-.0002.023.0009.035.0012.145-.4702.261-.947.345-1.4286.29-1.655-.379-3.27645-1.631-4.26006zM122.371 12.09c-.344.0812-.698.1221-1.058.1221-1.249 0-2.446-.5171-3.307-1.4064-1.901 3.3309-5.371 5.912-9.538 7.0312-2.215.595-4.537.7407-6.714.4213-.322-.0472-.639.1141-.791.4029-.152.2887-.106.6422.114.8824 2.511 2.7309 6.326 4.2245 10.398 4.2245 1.463 0 2.96-.193 4.44-.5905 2.887-.7754 5.468-2.2487 7.465-4.2608 1.176-1.1847 2.103-2.506 2.752-3.9094-1.707-.1972-3.151-1.33-3.761-2.9173z"/></g><defs><clipPath id="clip0_81_3432"><path fill="#fff" transform="translate(100.874)" d="M0 0h26.2512v26.3151H0z"/></clipPath></defs></svg>