<svg width="32" height="32" viewBox="0 0 32 32" fill="none" xmlns="http://www.w3.org/2000/svg"><path d="M16.0005 30.2939c-.1314.0007-.2616-.025-.383-.0753-.1213-.0504-.2314-.1245-.3237-.218l-7.68-7.68c-1.66081-1.6591-2.79222-3.7735-3.25109-6.0758-.45887-2.3022-.22459-4.6888.67321-6.85788.8978-2.16907 2.41877-4.02311 4.3705-5.32758 1.95178-1.30447 4.24648-2.00075 6.59408-2.00075 2.3475 0 4.6423.69628 6.594 2.00075 1.9517 1.30447 3.4727 3.15851 4.3705 5.32758.8978 2.16908 1.1321 4.55568.6732 6.85788-.4588 2.3023-1.5903 4.4167-3.2511 6.0758l-7.68 7.68c-.0923.0935-.2024.1676-.3237.218-.1214.0503-.2515.076-.3829.0753zm0-26.22664c-1.9505.00136-3.8568.58077-5.478 1.66503C8.90115 6.81655 7.63758 8.357 6.89137 10.1591c-.74622 1.802-.9416 3.7848-.56146 5.6978.38013 1.9131 1.31873 3.6705 2.69722 5.0504l6.97337 6.9733 6.9733-6.9733c1.3785-1.3799 2.3171-3.1373 2.6972-5.0504.3802-1.913.1848-3.8958-.5614-5.6978-.7463-1.8021-2.0098-3.34255-3.6311-4.42681-1.6213-1.08426-3.5276-1.66367-5.478-1.66503z" fill="#42170D"/><path d="M16 18.332c-.9889 0-1.9556-.2932-2.7778-.8426-.8223-.5494-1.4632-1.3303-1.8416-2.2439-.3784-.9137-.4775-1.919-.2845-2.8889.1929-.9699.6691-1.8608 1.3684-2.5601.6992-.69926 1.5901-1.17547 2.5601-1.36839.9699-.19293 1.9752-.09391 2.8888.28453.9136.37844 1.6945 1.0193 2.244 1.84156.5494.8222.8426 1.7889.8426 2.7778 0 1.3261-.5268 2.5979-1.4645 3.5356-.9376.9377-2.2094 1.4644-3.5355 1.4644zm0-8c-.5933 0-1.1734.176-1.6667.5056-.4934.3297-.8779.7982-1.1049 1.3464-.2271.5482-.2865 1.1514-.1708 1.7333.1158.582.4015 1.1165.8211 1.5361.4195.4195.9541.7052 1.536.821.582.1158 1.1852.0563 1.7334-.1707.5481-.2271 1.0167-.6116 1.3463-1.1049.3297-.4934.5056-1.0734.5056-1.6668 0-.7956-.3161-1.5587-.8787-2.1213-.5626-.5626-1.3256-.8787-2.1213-.8787z" fill="#42170D"/></svg>