<svg width="311" height="11" viewBox="0 0 311 11" fill="none" xmlns="http://www.w3.org/2000/svg">
<path d="M63.7575 5.35989L67.9215 1.00098L72.0855 5.35989L67.9215 9.71881L63.7575 5.35989Z" stroke="white" stroke-width="1.06713" stroke-miterlimit="10" stroke-linecap="square"/>
<path d="M49.1282 5.35989L53.2922 1.00098L57.4561 5.35989L53.2922 9.71881L49.1282 5.35989Z" stroke="white" stroke-width="1.06713" stroke-miterlimit="10" stroke-linecap="square"/>
<path d="M34.492 5.3638L38.656 1.00488L42.82 5.3638L38.656 9.72272L34.492 5.3638Z" stroke="white" stroke-width="1.06713" stroke-miterlimit="10" stroke-linecap="square"/>
<path d="M19.8628 5.35892L24.0267 1L28.1907 5.35892L24.0267 9.71784L19.8628 5.35892Z" stroke="white" stroke-width="1.06713" stroke-miterlimit="10" stroke-linecap="square"/>
<path d="M5.23441 5.35989L9.39838 1.00098L13.5623 5.35989L9.39838 9.71881L5.23441 5.35989Z" stroke="white" stroke-width="1.06713" stroke-miterlimit="10" stroke-linecap="square"/>
<path d="M67.9217 7.41453L65.9622 5.36328L67.9217 3.31203L69.8812 5.36328L67.9217 7.41453Z" fill="white"/>
<path d="M53.2983 7.43309L51.3387 5.38184L53.2983 3.33058L55.2578 5.38184L53.2983 7.43309Z" fill="white"/>
<path d="M38.666 7.4243L36.7065 5.37305L38.666 3.3218L40.6255 5.37305L38.666 7.4243Z" fill="white"/>
<path d="M24.0367 7.42723L22.0771 5.37598L24.0367 3.32473L25.9962 5.37598L24.0367 7.42723Z" fill="white"/>
<path d="M9.40348 7.42918L7.44397 5.37793L9.40348 3.32668L11.363 5.37793L9.40348 7.42918Z" fill="white"/>
<path d="M60.5998 10.9927L58.6403 8.94141L60.5998 6.89016L62.5593 8.94143L60.5998 10.9927Z" fill="white"/>
<path d="M45.9392 10.9927L43.9797 8.94141L45.9392 6.89016L47.8987 8.94141L45.9392 10.9927Z" fill="white"/>
<path d="M31.2787 10.9956L29.3192 8.94434L31.2787 6.89308L33.2382 8.94434L31.2787 10.9956Z" fill="white"/>
<path d="M16.623 11.0005L14.6635 8.94922L16.623 6.89797L18.5825 8.94922L16.623 11.0005Z" fill="white"/>
<path d="M1.95951 10.9956L0 8.94434L1.95951 6.89308L3.91901 8.94434L1.95951 10.9956Z" fill="white"/>
<path d="M136.862 5.35989L141.026 1.00098L145.19 5.35989L141.026 9.71881L136.862 5.35989Z" stroke="white" stroke-width="1.06713" stroke-miterlimit="10" stroke-linecap="square"/>
<path d="M122.233 5.35989L126.397 1.00098L130.561 5.35989L126.397 9.71881L122.233 5.35989Z" stroke="white" stroke-width="1.06713" stroke-miterlimit="10" stroke-linecap="square"/>
<path d="M107.597 5.3638L111.761 1.00488L115.925 5.3638L111.761 9.72272L107.597 5.3638Z" stroke="white" stroke-width="1.06713" stroke-miterlimit="10" stroke-linecap="square"/>
<path d="M92.9676 5.35892L97.1315 1L101.295 5.35892L97.1315 9.71784L92.9676 5.35892Z" stroke="white" stroke-width="1.06713" stroke-miterlimit="10" stroke-linecap="square"/>
<path d="M78.3392 5.35989L82.5032 1.00098L86.6671 5.35989L82.5032 9.71881L78.3392 5.35989Z" stroke="white" stroke-width="1.06713" stroke-miterlimit="10" stroke-linecap="square"/>
<path d="M141.027 7.41453L139.067 5.36328L141.027 3.31203L142.986 5.36328L141.027 7.41453Z" fill="white"/>
<path d="M126.403 7.43309L124.444 5.38184L126.403 3.33058L128.363 5.38184L126.403 7.43309Z" fill="white"/>
<path d="M111.771 7.4243L109.811 5.37305L111.771 3.3218L113.73 5.37305L111.771 7.4243Z" fill="white"/>
<path d="M97.1415 7.42723L95.1819 5.37598L97.1415 3.32473L99.101 5.37598L97.1415 7.42723Z" fill="white"/>
<path d="M82.5083 7.42918L80.5488 5.37793L82.5083 3.32668L84.4678 5.37793L82.5083 7.42918Z" fill="white"/>
<path d="M133.705 10.9927L131.745 8.94141L133.705 6.89016L135.664 8.94143L133.705 10.9927Z" fill="white"/>
<path d="M119.044 10.9927L117.084 8.94141L119.044 6.89016L121.003 8.94141L119.044 10.9927Z" fill="white"/>
<path d="M104.383 10.9956L102.424 8.94434L104.383 6.89308L106.343 8.94434L104.383 10.9956Z" fill="white"/>
<path d="M89.7278 11.0005L87.7682 8.94922L89.7278 6.89797L91.6873 8.94922L89.7278 11.0005Z" fill="white"/>
<path d="M75.0643 10.9956L73.1048 8.94434L75.0643 6.89308L77.0238 8.94434L75.0643 10.9956Z" fill="white"/>
<path d="M209.967 5.35989L214.131 1.00098L218.295 5.35989L214.131 9.71881L209.967 5.35989Z" stroke="white" stroke-width="1.06713" stroke-miterlimit="10" stroke-linecap="square"/>
<path d="M195.338 5.35989L199.502 1.00098L203.666 5.35989L199.502 9.71881L195.338 5.35989Z" stroke="white" stroke-width="1.06713" stroke-miterlimit="10" stroke-linecap="square"/>
<path d="M180.702 5.3638L184.866 1.00488L189.03 5.3638L184.866 9.72272L180.702 5.3638Z" stroke="white" stroke-width="1.06713" stroke-miterlimit="10" stroke-linecap="square"/>
<path d="M166.072 5.35892L170.236 1L174.4 5.35892L170.236 9.71784L166.072 5.35892Z" stroke="white" stroke-width="1.06713" stroke-miterlimit="10" stroke-linecap="square"/>
<path d="M151.444 5.35989L155.608 1.00098L159.772 5.35989L155.608 9.71881L151.444 5.35989Z" stroke="white" stroke-width="1.06713" stroke-miterlimit="10" stroke-linecap="square"/>
<path d="M214.131 7.41453L212.172 5.36328L214.131 3.31203L216.091 5.36328L214.131 7.41453Z" fill="white"/>
<path d="M199.508 7.43309L197.548 5.38184L199.508 3.33058L201.467 5.38184L199.508 7.43309Z" fill="white"/>
<path d="M184.876 7.4243L182.916 5.37305L184.876 3.3218L186.835 5.37305L184.876 7.4243Z" fill="white"/>
<path d="M170.246 7.42723L168.287 5.37598L170.246 3.32473L172.206 5.37598L170.246 7.42723Z" fill="white"/>
<path d="M155.613 7.42918L153.654 5.37793L155.613 3.32668L157.573 5.37793L155.613 7.42918Z" fill="white"/>
<path d="M206.809 10.9927L204.85 8.94141L206.809 6.89016L208.769 8.94143L206.809 10.9927Z" fill="white"/>
<path d="M192.149 10.9927L190.189 8.94141L192.149 6.89016L194.108 8.94141L192.149 10.9927Z" fill="white"/>
<path d="M177.488 10.9956L175.529 8.94434L177.488 6.89308L179.448 8.94434L177.488 10.9956Z" fill="white"/>
<path d="M162.833 11.0005L160.873 8.94922L162.833 6.89797L164.792 8.94922L162.833 11.0005Z" fill="white"/>
<path d="M148.169 10.9956L146.21 8.94434L148.169 6.89308L150.129 8.94434L148.169 10.9956Z" fill="white"/>
<path d="M283.071 5.35989L287.235 1.00098L291.399 5.35989L287.235 9.71881L283.071 5.35989Z" stroke="white" stroke-width="1.06713" stroke-miterlimit="10" stroke-linecap="square"/>
<path d="M268.442 5.35989L272.606 1.00098L276.77 5.35989L272.606 9.71881L268.442 5.35989Z" stroke="white" stroke-width="1.06713" stroke-miterlimit="10" stroke-linecap="square"/>
<path d="M253.806 5.3638L257.969 1.00488L262.133 5.3638L257.969 9.72272L253.806 5.3638Z" stroke="white" stroke-width="1.06713" stroke-miterlimit="10" stroke-linecap="square"/>
<path d="M239.176 5.35892L243.34 1L247.504 5.35892L243.34 9.71784L239.176 5.35892Z" stroke="white" stroke-width="1.06713" stroke-miterlimit="10" stroke-linecap="square"/>
<path d="M224.548 5.35989L228.712 1.00098L232.876 5.35989L228.712 9.71881L224.548 5.35989Z" stroke="white" stroke-width="1.06713" stroke-miterlimit="10" stroke-linecap="square"/>
<path d="M287.236 7.41453L285.277 5.36328L287.236 3.31203L289.196 5.36328L287.236 7.41453Z" fill="white"/>
<path d="M272.612 7.43309L270.652 5.38184L272.612 3.33058L274.571 5.38184L272.612 7.43309Z" fill="white"/>
<path d="M257.979 7.4243L256.02 5.37305L257.979 3.3218L259.939 5.37305L257.979 7.4243Z" fill="white"/>
<path d="M243.35 7.42723L241.391 5.37598L243.35 3.32473L245.31 5.37598L243.35 7.42723Z" fill="white"/>
<path d="M228.717 7.42918L226.757 5.37793L228.717 3.32668L230.676 5.37793L228.717 7.42918Z" fill="white"/>
<path d="M279.913 10.9927L277.954 8.94141L279.913 6.89016L281.873 8.94143L279.913 10.9927Z" fill="white"/>
<path d="M265.253 10.9927L263.293 8.94141L265.253 6.89016L267.212 8.94141L265.253 10.9927Z" fill="white"/>
<path d="M250.592 10.9956L248.633 8.94434L250.592 6.89308L252.552 8.94434L250.592 10.9956Z" fill="white"/>
<path d="M235.936 11.0005L233.977 8.94922L235.936 6.89797L237.896 8.94922L235.936 11.0005Z" fill="white"/>
<path d="M221.273 10.9956L219.313 8.94434L221.273 6.89308L223.232 8.94434L221.273 10.9956Z" fill="white"/>
<path d="M297.652 5.35989L301.816 1.00098L305.98 5.35989L301.816 9.71881L297.652 5.35989Z" stroke="white" stroke-width="1.06713" stroke-miterlimit="10" stroke-linecap="square"/>
<path d="M301.821 7.42918L299.861 5.37793L301.821 3.32668L303.78 5.37793L301.821 7.42918Z" fill="white"/>
<path d="M309.04 11.0005L307.081 8.94922L309.04 6.89797L311 8.94922L309.04 11.0005Z" fill="white"/>
<path d="M294.377 10.9956L292.417 8.94434L294.377 6.89308L296.336 8.94434L294.377 10.9956Z" fill="white"/>
</svg>
