<svg width="101" height="100" viewBox="0 0 101 100" fill="none" xmlns="http://www.w3.org/2000/svg"><g clip-path="url(#clip0_205_22406)"><path d="M91.4113 72.0566c4.1287 0 6.6899-4.4207 4.7118-8.0447-.4753-.8709-.8681-1.7454-1.0702-2.635-.8351-3.6741 1.1804-8.3331-.4189-11.6477-1.6256-3.3696-6.5413-4.6895-8.8524-7.5837-2.3223-2.9082-2.5235-7.991-5.4317-10.3132-2.8942-2.311-7.8905-1.3845-11.2601-3.01-3.3148-1.5991-3.7416-4.1459-7.4158-4.981-1.4554-.3308-2.9995-1.977-4.5764-1.4987-2.2786.6909-4.6257 1.7399-6.8733 1.7399-3.8031 0-7.8914-3.003-11.4496-2.1942-3.6741.8351-6.0541 5.3347-9.3687 6.9338-3.3696 1.6255-8.3659.699-11.2601 3.01-2.9082 2.3224-3.1096 7.405-5.4319 10.3132-2.3111 2.8942-7.22684 4.2141-8.85235 7.5837-1.59914 3.3148.41619 7.9738-.41893 11.6479-.20213.8896-.59489 1.7641-1.07026 2.635-1.97803 3.624.58318 8.0447 4.71189 8.0447H91.4113z" fill="#9DE8AA"/><path d="M98.0762 64.0119c-.4754-.8709-.8681-1.7455-1.0702-2.6351-.8352-3.674 1.1804-8.333-.419-11.6477-1.6255-3.3695-6.5413-4.6894-8.8523-7.5836-2.3223-2.9083-2.5235-7.9908-5.4318-10.3132-2.8942-2.311-7.8904-1.3843-11.26-3.01-3.3149-1.5991-5.6947-6.0989-9.3689-6.9341-1.4554-.3308-2.9995-.0236-4.5763.4545 2.9817 1.4298 5.173 5.0742 8.0861 6.4794 3.3696 1.6257 8.3658.699 11.26 3.01 2.9083 2.3224 3.1096 7.4049 5.4318 10.3132 2.311 2.8942 7.2268 4.2141 8.8523 7.5836 1.5992 3.3149-.4162 7.9737.419 11.6477.2021.8897.5948 1.7642 1.0702 2.6351 1.978 3.624-.5832 8.0447-4.7119 8.0447h5.8591c4.1285.0002 6.6897-4.4205 4.7119-8.0445z" fill="#6DD9B1"/><path d="M60.4775 33.4834c0 6.7415-3.512 12.2064-10.2535 12.2064-6.7414 0-12.2064-5.4649-12.2064-12.2064 0-5.8359 4.0955-10.7153 9.5691-11.9207.8493-.1871 1.7317-.0905 2.6371-.0905 6.7417 0 10.2537 5.2697 10.2537 12.0112zM90.6591 48.3271c0 6.7415-3.512 12.2065-10.2534 12.2065-6.7415 0-12.2065-5.465-12.2065-12.2065 0-5.8358 4.0955-10.7153 9.5693-11.9207.8494-.1871 1.7317-.0904 2.6372-.0904 6.7414 0 10.2534 5.2697 10.2534 12.0111z" fill="#FA5F6C"/><path d="M50.2245 21.2773c-.9056 0-1.7872.1018-2.6366.2889 5.4734 1.2056 9.5699 6.0819 9.5699 11.9176 0 5.8359-4.0965 10.712-9.5699 11.9178.8494.1871 1.731.2887 2.6366.2887 6.7415 0 12.2064-5.465 12.2064-12.2065S56.966 21.2773 50.2245 21.2773zM80.4052 36.1211c-.9057 0-1.7873.1017-2.6366.2888 5.4733 1.2057 9.5698 6.082 9.5698 11.9177 0 5.8358-4.0965 10.712-9.5698 11.9178.8493.1871 1.7309.2886 2.6366.2886 6.7414 0 12.2064-5.465 12.2064-12.2064 0-6.7415-5.465-12.2065-12.2064-12.2065z" fill="#F44654"/><path d="M29.1703 50.0001c0 6.7415 2.1722 7.9528-4.5693 7.9528-5.657 0-14.97179-1.2671-16.35629-6.4886-.26542-1.0009-.40682-2.0524-.40682-3.1367 0-6.7415 5.46501-12.2065 12.20651-12.2065.2035 0 .4058.0049.607.0148 6.4594.3164 8.5189 7.3263 8.5189 13.8642z" fill="#FA5F6C"/><path d="M8.24609 51.4641C9.6306 56.6854 14.387 60.5342 20.044 60.5342c6.7415 0 12.2064-5.465 12.2064-12.2064 0-6.5378-5.14-11.8747-11.5994-12.1911-5.2465 4.0453-9.5191 9.2908-12.40491 15.3274z" fill="#F44654"/><path d="M87.3451 78.7202H10.371c-1.61794 0-2.92959-1.3116-2.92959-2.9295v-2.747c0-22.4282 17.41699-40.7885 39.46339-42.2935.9679-.066 1.9448.0957 2.9297.0957 23.413 0 40.4401 18.7847 40.4401 42.1978v2.747c0 1.6179-1.3116 2.9295-2.9295 2.9295z" fill="#FFD65E"/><path d="M49.8338 30.6523c-.9851 0-1.9614.0366-2.9295.1026 22.046 1.505 39.4636 19.8623 39.4636 42.2906v2.7469c0 1.6179-1.3117 2.9296-2.9296 2.9296h5.8591c1.6179 0 2.9296-1.3117 2.9296-2.9296v-2.7469c0-23.4132-18.98-42.3932-42.3932-42.3932z" fill="#FFB83F"/><path d="M34.2738 67.251c.2191.1164.4542.1717.6863.1717.5243 0 1.0314-.2822 1.2946-.7777l9.3711-17.631c.3796-.7144.1084-1.6013-.6061-1.981-.7144-.3797-1.6012-.1086-1.9809.6058l-9.3711 17.6311c-.3796.7146-.1084 1.6014.6061 1.9811zM55.5977 47.033c-.7142-.3797-1.6013-.1086-1.9808.6058l-9.371 17.6311c-.3797.7144-.1084 1.6012.606 1.9809.2191.1164.4543.1717.6863.1717.5244 0 1.0314-.2822 1.2946-.7777l9.3711-17.631c.3795-.7143.1082-1.6011-.6062-1.9808zM55.43 67.251c.2191.1164.4542.1717.6863.1717.5243 0 1.0314-.2822 1.2946-.7777l9.3711-17.631c.3796-.7144.1084-1.6013-.6061-1.981-.7142-.3797-1.6013-.1086-1.9809.6058l-9.3711 17.6311c-.3796.7146-.1082 1.6014.6061 1.9811zM75.5254 57.1426c0-.809-.6559-1.4649-1.4649-1.4649-.8089 0-1.4648.6559-1.4648 1.4649s.6559 1.4648 1.4648 1.4648c.809 0 1.4649-.6558 1.4649-1.4648zM71.1289 70.0039c0-.809-.6559-1.4648-1.4648-1.4648-.809 0-1.4649.6558-1.4649 1.4648s.6559 1.4649 1.4649 1.4649c.8091 0 1.4648-.6559 1.4648-1.4649zM37.8906 44.2266c0-.809-.6558-1.4649-1.4648-1.4649s-1.4649.6559-1.4649 1.4649c0 .8089.6559 1.4648 1.4649 1.4648s1.4648-.6559 1.4648-1.4648zM20.0449 65.957c0 .809.6559 1.4649 1.4649 1.4649s1.4648-.6559 1.4648-1.4649-.6558-1.4648-1.4648-1.4648c-.809.0002-1.4649.6558-1.4649 1.4648z" fill="#000"/><path d="M99.3625 63.3095c-.4846-.8879-.7793-1.6054-.9277-2.2579-.3154-1.3875-.1461-3.0296.0332-4.7684.2517-2.4416.5121-4.9665-.5613-7.1912-.9181-1.9032-2.5964-3.1838-4.2975-4.3055-1.0153-3.7834-3.617-6.9221-7.0457-8.6597-.781-2.1144-1.6634-4.0961-3.3462-5.4398-1.9434-1.5519-4.4706-1.862-6.9147-2.1618-.5296-.0651-1.0775-.1322-1.5976-.2108-.7997-.1203-1.5462.4301-1.6669 1.2299-.1207.7999.4301 1.5462 1.2299 1.6669.5601.0846 1.1282.1541 1.6776.2217 2.1333.2619 4.1483.5091 5.4437 1.5434.5955.4754 1.0617 1.1291 1.4659 1.9035-.7954-.1446-1.6134-.2242-2.4498-.2242-2.3013 0-4.5549.5786-6.5587 1.6755-3.1536-2.0718-6.5452-3.7169-10.1042-4.9025-.4854-3.2392-2.0804-6.072-4.3739-8.1295.6942-.1073 1.3644-.1233 1.9812.0169 1.665.3785 3.1278 1.8199 4.6764 3.3458.5484.5404 1.1155 1.0992 1.7014 1.6169.2787.2463.6248.3672.9693.3672.4053 0 .8088-.1672 1.0982-.4949.5357-.6062.4785-1.532-.1277-2.0675-.5264-.465-1.0408-.9718-1.5853-1.5085-1.7724-1.7464-3.6053-3.5524-6.0833-4.1157-2.0118-.4574-4.0158.0504-5.9105.6643-1.7802-.8408-3.7681-1.3111-5.8639-1.3111-2.0462 0-4.0385.4576-5.8504 1.3162-1.9885-.6442-3.9457-1.1193-5.9239-.6694-2.478.5633-4.3105 2.3693-6.0829 4.1157-1.2189 1.2009-2.3702 2.3354-3.5975 2.9276-1.2662.6109-2.8965.8109-4.6226 1.0226-2.4443.3-4.9715.6099-6.9149 2.1618-1.7685 1.4122-2.6628 3.5729-3.347 5.4404-3.4283 1.738-6.02995 4.8765-7.04514 8.6601-1.7132 1.131-3.38929 2.4223-4.29726 4.3045-1.07339 2.2249-.81305 4.7498-.5613 7.1916.17929 1.7386.34861 3.3807.0332 4.768-.14843.6529-.44314 1.3704-.92769 2.2581-1.188422 2.1776-1.146432 4.7443.11269 6.8659 1.05151 1.7718 2.78854 2.9362 4.77634 3.2543v2.3622c0 2.4231 1.97119 4.3943 4.39436 4.3943h24.3527c.809 0 1.4648-.6558 1.4648-1.4648 0-.8089-.6558-1.4647-1.4648-1.4647H10.3708c-.80782 0-1.46482-.657-1.46482-1.4648v-2.7469c0-8.6039 2.63912-16.8362 7.63182-23.8063.4711-.6576.32-1.5726-.3378-2.0437-.6574-.4711-1.5726-.3199-2.0437.3379-1.3503 1.885-2.5395 3.8564-3.5635 5.8983-.84057-1.5565-1.28996-3.3084-1.28996-5.1042 0-5.923 4.81876-10.7417 10.74166-10.7417 1.1181 0 2.2232.1748 3.2762.5113-1.7288 1.3185-3.3734 2.7747-4.92 4.3639-.5643.5796-.5516 1.5071.0283 2.0711.5794.5641 1.5069.5516 2.0712-.0283 7.773-7.9877 18.1909-12.3867 29.3343-12.3867 22.5679 0 40.9284 18.3605 40.9284 40.9284v2.7469c0 .8078-.6572 1.4648-1.4648 1.4648H41.1072c-.8089 0-1.4648.6558-1.4648 1.4647 0 .809.6559 1.4648 1.4648 1.4648h48.1907c2.4231 0 4.3943-1.9712 4.3943-4.3943v-2.2815c2.3097-.1067 4.3703-1.3343 5.5576-3.335 1.2592-2.122 1.3012-4.6885.1127-6.8661zM6.05123 70.4554c-.9689-.2599-1.80265-.8833-2.33192-1.7753-.72595-1.2234-.7486-2.7065-.06055-3.9672.61755-1.1316 1.00289-2.0885 1.21284-3.0121.42224-1.8576.21971-3.8202.02421-5.7179-.21952-2.1296-.42693-4.141.28573-5.6183.27616-.5723.6947-1.0847 1.20229-1.5623.09824 2.8282 1.07085 5.5486 2.77741 7.7932-1.7798 4.3934-2.8319 9.0592-3.11001 13.8599zm13.99307-35.8c-.8365 0-1.6542.0796-2.4495.2242.4074-.7822.8711-1.4287 1.4658-1.9035 1.2954-1.0343 3.3104-1.2815 5.4437-1.5432 1.8862-.2315 3.8367-.4707 5.5388-1.292 1.6645-.8031 3.0453-2.1635 4.3806-3.4793 1.5486-1.5259 3.0114-2.9671 4.6764-3.3456.6203-.1408 1.2941-.1246 2.0034-.0126-.0322.0289-.0658.056-.0979.0853-2.2547 2.0603-3.7392 4.7892-4.2507 7.7676-3.7333 1.1593-7.2889 2.8188-10.589 4.9439-1.8917-.9474-3.9891-1.4448-6.1216-1.4448zm19.9182-4.3627c1.3576-4.4258 5.4461-7.5508 10.2624-7.5508 4.8801 0 9.0273 3.2242 10.3226 7.7553-3.4614-.865-7.053-1.3103-10.7132-1.3103-3.3678 0-6.6737.3751-9.8718 1.1058zm36.6251 7.9926c1.212-.4604 2.5047-.7004 3.818-.7004 5.9229 0 10.7416 4.8187 10.7416 10.7417 0 2.0913-.5982 4.0994-1.7114 5.821-2.1224-4.4392-5.007-8.5328-8.5892-12.1151-1.3498-1.3497-2.7732-2.5987-4.259-3.7472zm20.1428 30.3948c-.6662 1.1226-1.8148 1.8208-3.1081 1.9029-.2543-4.6248-1.221-9.116-2.852-13.3445 2.0329-2.3597 3.1877-5.3121 3.2952-8.4338.5054.4761.928.9904 1.203 1.5603.7125 1.4771.5051 3.4885.2856 5.6179-.1957 1.8979-.3981 3.8603.0242 5.7181.2099.9234.5953 1.8803 1.2128 3.0119.6879 1.2607.6654 2.7438-.0607 3.9672z" fill="#000"/></g><defs><clipPath id="clip0_205_22406"><path fill="#fff" transform="translate(.224609)" d="M0 0h100v100H0z"/></clipPath></defs></svg>