<svg width="1278" height="15" viewBox="0 0 1278 15" fill="none" xmlns="http://www.w3.org/2000/svg"><path d="M89.6847 7.10636l5.8573-5.66691 5.857 5.66691-5.857 5.66694-5.8573-5.66694zM69.1066 7.10636l5.8573-5.66691 5.8573 5.66691-5.8573 5.66694-5.8573-5.66694zM48.5187 7.11124l5.8573-5.6669 5.8573 5.6669-5.8573 5.66686-5.8573-5.66686zM27.9396 7.10538l5.8573-5.6669 5.8573 5.6669-5.8573 5.66692-5.8573-5.66692zM7.36243 7.10636l5.85727-5.66691 5.8573 5.66691-5.8573 5.66694-5.85727-5.66694z" stroke="#EBDEBA" stroke-width="1.5" stroke-miterlimit="10" stroke-linecap="square"/><path d="M95.5435 9.77712l-2.7564-2.66677 2.7564-2.66677 2.7563 2.66677-2.7563 2.66677zM74.9732 9.80154l-2.7564-2.66677 2.7564-2.66678 2.7563 2.66678-2.7563 2.66677zM54.3892 9.78982l-2.7564-2.66677 2.7564-2.66678 2.7563 2.66678-2.7563 2.66677zM33.8111 9.7947l-2.7564-2.66677 2.7564-2.66677 2.7563 2.66677-2.7563 2.66677zM13.228 9.79568l-2.7563-2.66677 2.7563-2.66678 2.7564 2.66678-2.7564 2.66677zM85.2427 14.4305l-2.7564-2.6668 2.7564-2.6668 2.7564 2.6668-2.7564 2.6668zM64.6206 14.4295l-2.7563-2.6668 2.7563-2.66678 2.7564 2.66678-2.7564 2.6668zM43.9995 14.4334l-2.7563-2.6668 2.7563-2.66677 2.7564 2.66677-2.7564 2.6668zM23.3833 14.4383l-2.7563-2.6668 2.7563-2.66679 2.7564 2.66679-2.7564 2.6668zM2.75637 14.4334L0 11.7666l2.75637-2.66677 2.75636 2.66677-2.75636 2.6668z" fill="#EBDEBA"/><path d="M192.519 7.10636l5.857-5.66691 5.857 5.66691-5.857 5.66694-5.857-5.66694zM171.94 7.10636l5.857-5.66691 5.857 5.66691-5.857 5.66694-5.857-5.66694zM151.352 7.11124l5.857-5.6669 5.857 5.6669-5.857 5.66686-5.857-5.66686zM130.774 7.10538l5.857-5.6669 5.857 5.6669-5.857 5.66692-5.857-5.66692zM110.195 7.10636l5.858-5.66691 5.857 5.66691-5.857 5.66694-5.858-5.66694z" stroke="#EBDEBA" stroke-width="1.5" stroke-miterlimit="10" stroke-linecap="square"/><path d="M198.376 9.77712l-2.756-2.66677 2.756-2.66677 2.757 2.66677-2.757 2.66677zM177.807 9.80154l-2.756-2.66677 2.756-2.66678 2.757 2.66678-2.757 2.66677zM157.223 9.78982l-2.756-2.66677 2.756-2.66678 2.757 2.66678-2.757 2.66677zM136.644 9.7947l-2.756-2.66677 2.756-2.66677 2.756 2.66677-2.756 2.66677zM116.061 9.79568l-2.756-2.66677 2.756-2.66678 2.756 2.66678-2.756 2.66677zM188.077 14.4305l-2.757-2.6668 2.757-2.6668 2.756 2.6668-2.756 2.6668zM167.455 14.4295l-2.757-2.6668 2.757-2.66678 2.756 2.66678-2.756 2.6668zM146.832 14.4334l-2.757-2.6668 2.757-2.66677 2.756 2.66677-2.756 2.6668zM126.216 14.4383l-2.756-2.6668 2.756-2.66679 2.757 2.66679-2.757 2.6668zM105.589 14.4334l-2.756-2.6668 2.756-2.66677 2.757 2.66677-2.757 2.6668z" fill="#EBDEBA"/><path d="M295.353 7.10636l5.857-5.66691 5.857 5.66691-5.857 5.66694-5.857-5.66694zM274.774 7.10636l5.857-5.66691 5.857 5.66691-5.857 5.66694-5.857-5.66694zM254.186 7.11124l5.857-5.6669 5.857 5.6669-5.857 5.66686-5.857-5.66686zM233.608 7.10538l5.857-5.6669 5.857 5.6669-5.857 5.66692-5.857-5.66692zM213.029 7.10636l5.858-5.66691 5.857 5.66691-5.857 5.66694-5.858-5.66694z" stroke="#EBDEBA" stroke-width="1.5" stroke-miterlimit="10" stroke-linecap="square"/><path d="M301.21 9.77712l-2.756-2.66677 2.756-2.66677 2.757 2.66677-2.757 2.66677zM280.641 9.80154l-2.756-2.66677 2.756-2.66678 2.756 2.66678-2.756 2.66677zM260.057 9.78982l-2.756-2.66677 2.756-2.66678 2.757 2.66678-2.757 2.66677zM239.478 9.7947l-2.756-2.66677 2.756-2.66677 2.756 2.66677-2.756 2.66677zM218.895 9.79568l-2.756-2.66677 2.756-2.66678 2.756 2.66678-2.756 2.66677zM290.911 14.4305l-2.757-2.6668 2.757-2.6668 2.756 2.6668-2.756 2.6668zM270.289 14.4295l-2.757-2.6668 2.757-2.66678 2.756 2.66678-2.756 2.6668zM249.666 14.4334l-2.757-2.6668 2.757-2.66677 2.756 2.66677-2.756 2.6668zM229.05 14.4383l-2.756-2.6668 2.756-2.66679 2.757 2.66679-2.757 2.6668zM208.423 14.4334l-2.756-2.6668 2.756-2.66677 2.757 2.66677-2.757 2.6668z" fill="#EBDEBA"/><path d="M398.185 7.10636l5.857-5.66691 5.857 5.66691-5.857 5.66694-5.857-5.66694zM377.607 7.10636l5.857-5.66691 5.857 5.66691-5.857 5.66694-5.857-5.66694zM357.02 7.11124l5.857-5.6669 5.857 5.6669-5.857 5.66686-5.857-5.66686zM336.441 7.10538l5.857-5.6669 5.857 5.6669-5.857 5.66692-5.857-5.66692zM315.862 7.10636l5.858-5.66691 5.857 5.66691-5.857 5.66694-5.858-5.66694z" stroke="#EBDEBA" stroke-width="1.5" stroke-miterlimit="10" stroke-linecap="square"/><path d="M404.043 9.77712l-2.756-2.66677 2.756-2.66677 2.757 2.66677-2.757 2.66677zM383.473 9.80154l-2.756-2.66677 2.756-2.66678 2.757 2.66678-2.757 2.66677zM362.889 9.78982l-2.756-2.66677 2.756-2.66678 2.757 2.66678-2.757 2.66677zM342.311 9.7947l-2.756-2.66677 2.756-2.66677 2.756 2.66677-2.756 2.66677zM321.728 9.79568l-2.756-2.66677 2.756-2.66678 2.756 2.66678-2.756 2.66677zM393.743 14.4305l-2.757-2.6668 2.757-2.6668 2.756 2.6668-2.756 2.6668zM373.121 14.4295l-2.757-2.6668 2.757-2.66678 2.756 2.66678-2.756 2.6668zM352.499 14.4334l-2.757-2.6668 2.757-2.66677 2.756 2.66677-2.756 2.6668zM331.883 14.4383l-2.756-2.6668 2.756-2.66679 2.757 2.66679-2.757 2.6668zM311.256 14.4334l-2.756-2.6668 2.756-2.66677 2.757 2.66677-2.757 2.6668z" fill="#EBDEBA"/><path d="M501.019 7.10636l5.857-5.66691 5.857 5.66691-5.857 5.66694-5.857-5.66694zM480.44 7.10636l5.857-5.66691 5.857 5.66691-5.857 5.66694-5.857-5.66694zM459.852 7.11124l5.857-5.6669 5.857 5.6669-5.857 5.66686-5.857-5.66686zM439.274 7.10538l5.857-5.6669 5.857 5.6669-5.857 5.66692-5.857-5.66692zM418.695 7.10636l5.858-5.66691 5.857 5.66691-5.857 5.66694-5.858-5.66694z" stroke="#EBDEBA" stroke-width="1.5" stroke-miterlimit="10" stroke-linecap="square"/><path d="M506.876 9.77712l-2.756-2.66677 2.756-2.66677 2.757 2.66677-2.757 2.66677zM486.307 9.80154l-2.756-2.66677 2.756-2.66678 2.757 2.66678-2.757 2.66677zM465.723 9.78982l-2.756-2.66677 2.756-2.66678 2.757 2.66678-2.757 2.66677zM445.144 9.7947l-2.756-2.66677 2.756-2.66677 2.756 2.66677-2.756 2.66677zM424.561 9.79568l-2.756-2.66677 2.756-2.66678 2.756 2.66678-2.756 2.66677zM496.577 14.4305l-2.757-2.6668 2.757-2.6668 2.756 2.6668-2.756 2.6668zM475.955 14.4295l-2.757-2.6668 2.757-2.66678 2.756 2.66678-2.756 2.6668zM455.332 14.4334l-2.757-2.6668 2.757-2.66677 2.756 2.66677-2.756 2.6668zM434.716 14.4383l-2.756-2.6668 2.756-2.66679 2.757 2.66679-2.757 2.6668zM414.089 14.4334l-2.756-2.6668 2.756-2.66677 2.757 2.66677-2.757 2.6668z" fill="#EBDEBA"/><path d="M603.853 7.10636l5.857-5.66691 5.857 5.66691-5.857 5.66694-5.857-5.66694zM583.275 7.10636l5.857-5.66691 5.857 5.66691-5.857 5.66694-5.857-5.66694zM562.686 7.11124l5.857-5.6669 5.857 5.6669-5.857 5.66686-5.857-5.66686zM542.108 7.10538l5.857-5.6669 5.857 5.6669-5.857 5.66692-5.857-5.66692zM521.529 7.10636l5.858-5.66691 5.857 5.66691-5.857 5.66694-5.858-5.66694z" stroke="#EBDEBA" stroke-width="1.5" stroke-miterlimit="10" stroke-linecap="square"/><path d="M609.71 9.77712l-2.756-2.66677 2.756-2.66677 2.757 2.66677-2.757 2.66677zM589.141 9.80154l-2.756-2.66677 2.756-2.66678 2.756 2.66678-2.756 2.66677zM568.557 9.78982l-2.756-2.66677 2.756-2.66678 2.757 2.66678-2.757 2.66677zM547.978 9.7947l-2.756-2.66677 2.756-2.66677 2.756 2.66677-2.756 2.66677zM527.395 9.79568l-2.756-2.66677 2.756-2.66678 2.756 2.66678-2.756 2.66677zM599.411 14.4305l-2.757-2.6668 2.757-2.6668 2.756 2.6668-2.756 2.6668zM578.789 14.4295l-2.757-2.6668 2.757-2.66678 2.756 2.66678-2.756 2.6668zM558.166 14.4334l-2.757-2.6668 2.757-2.66677 2.756 2.66677-2.756 2.6668zM537.55 14.4383l-2.756-2.6668 2.756-2.66679 2.757 2.66679-2.757 2.6668zM516.923 14.4334l-2.756-2.6668 2.756-2.66677 2.757 2.66677-2.757 2.6668z" fill="#EBDEBA"/><path d="M706.685 7.10636l5.857-5.66691 5.857 5.66691-5.857 5.66694-5.857-5.66694zM686.107 7.10636l5.857-5.66691 5.857 5.66691-5.857 5.66694-5.857-5.66694zM665.518 7.11124l5.857-5.6669 5.857 5.6669-5.857 5.66686-5.857-5.66686zM644.941 7.10538l5.857-5.6669 5.857 5.6669-5.857 5.66692-5.857-5.66692zM624.361 7.10636l5.858-5.66691 5.857 5.66691-5.857 5.66694-5.858-5.66694z" stroke="#EBDEBA" stroke-width="1.5" stroke-miterlimit="10" stroke-linecap="square"/><path d="M712.543 9.77712l-2.756-2.66677 2.756-2.66677 2.757 2.66677-2.757 2.66677zM691.973 9.80154l-2.756-2.66677 2.756-2.66678 2.757 2.66678-2.757 2.66677zM671.389 9.78982l-2.756-2.66677 2.756-2.66678 2.757 2.66678-2.757 2.66677zM650.811 9.7947l-2.756-2.66677 2.756-2.66677 2.756 2.66677-2.756 2.66677zM630.228 9.79568l-2.756-2.66677 2.756-2.66678 2.756 2.66678-2.756 2.66677zM702.243 14.4305l-2.757-2.6668 2.757-2.6668 2.756 2.6668-2.756 2.6668zM681.621 14.4295l-2.757-2.6668 2.757-2.66678 2.756 2.66678-2.756 2.6668zM660.999 14.4334l-2.757-2.6668 2.757-2.66677 2.756 2.66677-2.756 2.6668zM640.383 14.4383l-2.756-2.6668 2.756-2.66679 2.757 2.66679-2.757 2.6668zM619.756 14.4334L617 11.7666l2.756-2.66677 2.757 2.66677-2.757 2.6668z" fill="#EBDEBA"/><path d="M809.519 7.10636l5.857-5.66691 5.857 5.66691-5.857 5.66694-5.857-5.66694zM788.941 7.10636l5.857-5.66691 5.857 5.66691-5.857 5.66694-5.857-5.66694zM768.354 7.11124l5.857-5.6669 5.857 5.6669-5.857 5.66686-5.857-5.66686zM747.775 7.10538l5.857-5.6669 5.857 5.6669-5.857 5.66692-5.857-5.66692zM727.195 7.10636l5.858-5.66691 5.857 5.66691-5.857 5.66694-5.858-5.66694z" stroke="#EBDEBA" stroke-width="1.5" stroke-miterlimit="10" stroke-linecap="square"/><path d="M815.377 9.77712l-2.756-2.66677 2.756-2.66677 2.757 2.66677-2.757 2.66677zM794.807 9.80154l-2.756-2.66677 2.756-2.66678 2.757 2.66678-2.757 2.66677zM774.223 9.78982l-2.756-2.66677 2.756-2.66678 2.757 2.66678-2.757 2.66677zM753.645 9.7947l-2.756-2.66677 2.756-2.66677 2.756 2.66677-2.756 2.66677zM733.062 9.79568l-2.756-2.66677 2.756-2.66678 2.756 2.66678-2.756 2.66677zM805.077 14.4305l-2.757-2.6668 2.757-2.6668 2.756 2.6668-2.756 2.6668zM784.455 14.4295l-2.757-2.6668 2.757-2.66678 2.756 2.66678-2.756 2.6668zM763.834 14.4334l-2.757-2.6668 2.757-2.66677 2.756 2.66677-2.756 2.6668zM743.217 14.4383l-2.756-2.6668 2.756-2.66679 2.757 2.66679-2.757 2.6668zM722.59 14.4334l-2.756-2.6668 2.756-2.66677 2.757 2.66677-2.757 2.6668z" fill="#EBDEBA"/><path d="M912.353 7.10636l5.857-5.66691 5.857 5.66691-5.857 5.66694-5.857-5.66694zM891.774 7.10636l5.857-5.66691 5.857 5.66691-5.857 5.66694-5.857-5.66694zM871.186 7.11124l5.857-5.6669 5.857 5.6669-5.857 5.66686-5.857-5.66686zM850.608 7.10538l5.857-5.6669 5.857 5.6669-5.857 5.66692-5.857-5.66692zM830.029 7.10636l5.858-5.66691 5.857 5.66691-5.857 5.66694-5.858-5.66694z" stroke="#EBDEBA" stroke-width="1.5" stroke-miterlimit="10" stroke-linecap="square"/><path d="M918.21 9.77712l-2.756-2.66677 2.756-2.66677 2.757 2.66677-2.757 2.66677zM897.641 9.80154l-2.756-2.66677 2.756-2.66678 2.756 2.66678-2.756 2.66677zM877.057 9.78982l-2.756-2.66677 2.756-2.66678 2.757 2.66678-2.757 2.66677zM856.477 9.7947l-2.756-2.66677 2.756-2.66677 2.756 2.66677-2.756 2.66677zM835.896 9.79568l-2.756-2.66677 2.756-2.66678 2.756 2.66678-2.756 2.66677zM907.911 14.4305l-2.757-2.6668 2.757-2.6668 2.756 2.6668-2.756 2.6668zM887.289 14.4295l-2.757-2.6668 2.757-2.66678 2.756 2.66678-2.756 2.6668zM866.666 14.4334l-2.757-2.6668 2.757-2.66677 2.756 2.66677-2.756 2.6668zM846.051 14.4383l-2.756-2.6668 2.756-2.66679 2.757 2.66679-2.757 2.6668zM825.423 14.4334l-2.756-2.6668 2.756-2.66677 2.757 2.66677-2.757 2.6668z" fill="#EBDEBA"/><path d="M1015.18 7.10636l5.86-5.66691 5.86 5.66691-5.86 5.66694-5.86-5.66694zM994.607 7.10636l5.853-5.66691 5.86 5.66691-5.86 5.66694-5.853-5.66694zM974.019 7.11124l5.857-5.6669 5.857 5.6669-5.857 5.66686-5.857-5.66686zM953.441 7.10538l5.857-5.6669 5.857 5.6669-5.857 5.66692-5.857-5.66692zM932.861 7.10636l5.858-5.66691 5.857 5.66691-5.857 5.66694-5.858-5.66694z" stroke="#EBDEBA" stroke-width="1.5" stroke-miterlimit="10" stroke-linecap="square"/><path d="M1021.04 9.77712l-2.75-2.66677 2.75-2.66677 2.76 2.66677-2.76 2.66677zM1000.47 9.80154l-2.753-2.66677 2.753-2.66678 2.76 2.66678-2.76 2.66677zM979.889 9.78982l-2.756-2.66677 2.756-2.66678 2.757 2.66678-2.757 2.66677zM959.311 9.7947l-2.756-2.66677 2.756-2.66677 2.756 2.66677-2.756 2.66677zM938.728 9.79568l-2.756-2.66677 2.756-2.66678 2.756 2.66678-2.756 2.66677zM1010.74 14.4305l-2.75-2.6668 2.75-2.6668 2.76 2.6668-2.76 2.6668zM990.121 14.4295l-2.757-2.6668 2.757-2.66678 2.756 2.66678-2.756 2.6668zM969.5 14.4334l-2.757-2.6668 2.757-2.66677 2.756 2.66677-2.756 2.6668zM948.883 14.4383l-2.756-2.6668 2.756-2.66679 2.757 2.66679-2.757 2.6668zM928.256 14.4334l-2.756-2.6668 2.756-2.66677 2.757 2.66677-2.757 2.6668z" fill="#EBDEBA"/><path d="M1118.02 7.10636l5.86-5.66691 5.85 5.66691-5.85 5.66694-5.86-5.66694zM1097.44 7.10636l5.86-5.66691 5.85 5.66691-5.85 5.66694-5.86-5.66694zM1076.85 7.11124l5.86-5.6669 5.86 5.6669-5.86 5.66686-5.86-5.66686zM1056.27 7.10538l5.86-5.6669 5.86 5.6669-5.86 5.66692-5.86-5.66692zM1035.69 7.10636l5.86-5.66691 5.86 5.66691-5.86 5.66694-5.86-5.66694z" stroke="#EBDEBA" stroke-width="1.5" stroke-miterlimit="10" stroke-linecap="square"/><path d="M1123.88 9.77712l-2.76-2.66677 2.76-2.66677 2.75 2.66677-2.75 2.66677zM1103.31 9.80154l-2.76-2.66677 2.76-2.66678 2.75 2.66678-2.75 2.66677zM1082.72 9.78982l-2.75-2.66677 2.75-2.66678 2.76 2.66678-2.76 2.66677zM1062.14 9.7947l-2.75-2.66677 2.75-2.66677 2.76 2.66677-2.76 2.66677zM1041.56 9.79568l-2.76-2.66677 2.76-2.66678 2.76 2.66678-2.76 2.66677zM1113.57 14.4305l-2.75-2.6668 2.75-2.6668 2.76 2.6668-2.76 2.6668zM1092.95 14.4295l-2.75-2.6668 2.75-2.66678 2.76 2.66678-2.76 2.6668zM1072.33 14.4334l-2.76-2.6668 2.76-2.66677 2.76 2.66677-2.76 2.6668zM1051.72 14.4383l-2.76-2.6668 2.76-2.66679 2.75 2.66679-2.75 2.6668zM1031.09 14.4334l-2.76-2.6668 2.76-2.66677 2.75 2.66677-2.75 2.6668z" fill="#EBDEBA"/><path d="M1220.85 7.10636l5.86-5.66691 5.86 5.66691-5.86 5.66694-5.86-5.66694zM1260.03 7.10636l5.86-5.66691 5.85 5.66691-5.85 5.66694-5.86-5.66694zM1200.27 7.10636l5.86-5.66691 5.86 5.66691-5.86 5.66694-5.86-5.66694zM1239.45 7.10636l5.86-5.66691 5.86 5.66691-5.86 5.66694-5.86-5.66694zM1179.68 7.11124l5.86-5.6669 5.86 5.6669-5.86 5.66686-5.86-5.66686zM1159.11 7.10538l5.85-5.6669 5.86 5.6669-5.86 5.66692-5.85-5.66692zM1138.53 7.10636l5.86-5.66691 5.85 5.66691-5.85 5.66694-5.86-5.66694z" stroke="#EBDEBA" stroke-width="1.5" stroke-miterlimit="10" stroke-linecap="square"/><path d="M1226.71 9.77712l-2.76-2.66677 2.76-2.66677 2.76 2.66677-2.76 2.66677zM1265.89 9.77712l-2.76-2.66677 2.76-2.66677 2.76 2.66677-2.76 2.66677zM1206.14 9.80154l-2.76-2.66677 2.76-2.66678 2.76 2.66678-2.76 2.66677zM1245.32 9.80154l-2.76-2.66677 2.76-2.66678 2.76 2.66678-2.76 2.66677zM1185.56 9.78982l-2.76-2.66677 2.76-2.66678 2.75 2.66678-2.75 2.66677zM1164.98 9.7947l-2.76-2.66677 2.76-2.66677 2.75 2.66677-2.75 2.66677zM1144.4 9.79568l-2.76-2.66677 2.76-2.66678 2.75 2.66678-2.75 2.66677zM1216.41 14.4305l-2.76-2.6668 2.76-2.6668 2.76 2.6668-2.76 2.6668zM1255.59 14.4305l-2.76-2.6668 2.76-2.6668 2.75 2.6668-2.75 2.6668zM1236.06 14.4305l-2.75-2.6668 2.75-2.6668 2.76 2.6668-2.76 2.6668zM1275.24 14.4305l-2.75-2.6668 2.75-2.6668 2.76 2.6668-2.76 2.6668zM1195.79 14.4295l-2.76-2.6668 2.76-2.66678 2.75 2.66678-2.75 2.6668zM1175.16 14.4334l-2.75-2.6668 2.75-2.66677 2.76 2.66677-2.76 2.6668zM1154.55 14.4383l-2.76-2.6668 2.76-2.66679 2.76 2.66679-2.76 2.6668zM1133.92 14.4334l-2.75-2.6668 2.75-2.66677 2.76 2.66677-2.76 2.6668z" fill="#EBDEBA"/></svg>