<svg width="183" height="62" viewBox="0 0 183 62" fill="none" xmlns="http://www.w3.org/2000/svg">
<path d="M14.1288 48.8535C13.7955 48.8535 13.6288 48.6868 13.6288 48.3535C13.6288 41.8201 14.3788 34.8201 15.8788 27.3535C14.3455 27.7535 12.9122 28.2201 11.5788 28.7535C10.2455 29.2868 9.01215 29.8035 7.87882 30.3035C7.61215 32.4035 7.42882 34.3535 7.32882 36.1535C7.26215 37.9535 7.36215 39.3868 7.62882 40.4535C7.69549 40.7535 7.56215 40.9535 7.22882 41.0535H7.12882C6.89549 41.0535 6.72882 40.9368 6.62882 40.7035C6.12882 38.8035 6.17882 35.5035 6.77882 30.8035C5.71215 31.3035 4.77882 31.7035 3.97882 32.0035C3.21215 32.3035 2.54549 32.4535 1.97882 32.4535C1.51215 32.4535 1.17882 32.3701 0.97882 32.2035C0.712153 32.0368 0.662153 31.8035 0.82882 31.5035C1.02882 31.2368 1.26215 31.1868 1.52882 31.3535C1.86215 31.5868 2.47882 31.5368 3.37882 31.2035C4.31215 30.8368 5.36215 30.3868 6.52882 29.8535C6.72882 29.7868 6.87882 29.7201 6.97882 29.6535C7.17882 28.1868 7.42882 26.6535 7.72882 25.0535C7.99549 23.6201 8.26215 22.2535 8.52882 20.9535C8.79549 19.6535 9.04549 18.5035 9.27882 17.5035C9.51215 16.5035 9.69549 15.7035 9.82882 15.1035C9.96215 14.5035 10.0288 14.2035 10.0288 14.2035C10.1288 13.9035 10.3288 13.7868 10.6288 13.8535C10.9622 13.9201 11.0955 14.1201 11.0288 14.4535C11.0288 14.4868 10.9122 14.9368 10.6788 15.8035C10.4788 16.6701 10.2288 17.8035 9.92882 19.2035C9.62882 20.5701 9.31215 22.1201 8.97882 23.8535C8.64549 25.5868 8.34549 27.3535 8.07882 29.1535C9.74549 28.3535 11.5788 27.6368 13.5788 27.0035C14.0122 26.8701 14.4288 26.7535 14.8288 26.6535C15.2288 26.5201 15.6455 26.4035 16.0788 26.3035L16.6788 23.5035C17.0788 21.7368 17.4955 20.0868 17.9288 18.5535C18.3622 16.9868 18.7788 15.5701 19.1788 14.3035C19.5788 13.0368 19.9288 11.9201 20.2288 10.9535C20.5622 9.9868 20.8288 9.20347 21.0288 8.60347C21.1288 8.30347 21.2122 8.0368 21.2788 7.80347C21.3788 7.5368 21.4288 7.37014 21.4288 7.30347C21.4955 7.00347 21.6622 6.85347 21.9288 6.85347C22.2622 6.85347 22.4288 7.02013 22.4288 7.35347C22.4288 7.42013 22.3955 7.55347 22.3288 7.75347C22.2955 7.92013 22.1788 8.30347 21.9788 8.90347C21.7788 9.50347 21.5122 10.2868 21.1788 11.2535C20.8788 12.1868 20.5288 13.3035 20.1288 14.6035C19.7288 15.8701 19.3122 17.2868 18.8788 18.8535C18.4788 20.3868 18.0788 22.0201 17.6788 23.7535C17.5788 24.1535 17.4788 24.5535 17.3788 24.9535C17.3122 25.3201 17.2455 25.6868 17.1788 26.0535C19.0788 25.6535 20.9622 25.4535 22.8288 25.4535C23.1622 25.4535 23.3288 25.6201 23.3288 25.9535C23.3288 26.2868 23.1622 26.4535 22.8288 26.4535C21.7622 26.4535 20.7455 26.5201 19.7788 26.6535C18.8122 26.7535 17.8622 26.9035 16.9288 27.1035C16.1622 30.8701 15.5788 34.5201 15.1788 38.0535C14.8122 41.5868 14.6288 45.0201 14.6288 48.3535C14.6288 48.6868 14.4622 48.8535 14.1288 48.8535Z" fill="#42170D"/>
<path d="M32.9362 32.8535C32.9362 32.9201 32.9029 33.0535 32.8362 33.2535C32.8029 33.4201 32.7862 33.6035 32.7862 33.8035C32.7862 33.9701 32.8029 34.1201 32.8362 34.2535C32.8696 34.3868 32.9529 34.4368 33.0862 34.4035C33.6529 34.2368 34.3029 33.9035 35.0362 33.4035C35.8029 32.8701 36.6196 32.1535 37.4862 31.2535C38.1862 30.5868 38.7696 29.9868 39.2362 29.4535C39.7029 28.8868 39.9362 28.5868 39.9362 28.5535C40.0029 28.4535 40.1029 28.4035 40.2362 28.4035C40.4029 28.3701 40.5362 28.4035 40.6362 28.5035C40.9029 28.7035 40.9196 28.9368 40.6862 29.2035C40.6862 29.2368 40.4529 29.5368 39.9862 30.1035C39.5196 30.6368 38.9196 31.2535 38.1862 31.9535C36.3196 33.8535 34.7196 34.9868 33.3862 35.3535C32.8529 35.4535 32.4529 35.3701 32.1862 35.1035C31.8196 34.6701 31.7196 34.0035 31.8862 33.1035C32.0862 32.2035 32.4196 31.0535 32.8862 29.6535L33.2862 28.3535C32.8196 28.9868 32.3362 29.6868 31.8362 30.4535C30.7696 32.0201 29.8862 33.2368 29.1862 34.1035C28.5196 34.9701 27.9029 35.4035 27.3362 35.4035C27.1362 35.4035 26.9196 35.3868 26.6862 35.3535C26.4529 35.2868 26.2196 35.1701 25.9862 35.0035C25.7862 34.8368 25.6029 34.6035 25.4362 34.3035C25.2696 33.9701 25.1696 33.5535 25.1362 33.0535C25.0696 32.2868 25.1196 31.5368 25.2862 30.8035C25.4529 30.0368 25.6029 29.4701 25.7362 29.1035L26.4362 27.5035C26.7362 27.0035 27.0529 26.7035 27.3862 26.6035C27.7196 26.5368 27.9196 26.6701 27.9862 27.0035C28.0529 27.3035 27.9362 27.5035 27.6362 27.6035C27.5362 27.6701 27.3696 27.9035 27.1362 28.3035C26.9362 28.7035 26.7362 29.2535 26.5362 29.9535C26.3029 30.6535 26.1529 31.3201 26.0862 31.9535C26.0529 32.5868 26.0862 33.1035 26.1862 33.5035C26.3862 34.1035 26.7696 34.4035 27.3362 34.4035C27.3696 34.4035 27.4862 34.3535 27.6862 34.2535C27.8862 34.1201 28.2529 33.7201 28.7862 33.0535C29.1529 32.5868 29.5196 32.0868 29.8862 31.5535C30.2529 31.0201 30.6196 30.4701 30.9862 29.9035L32.5862 27.6535C32.8529 27.3201 33.1029 27.0535 33.3362 26.8535C33.5696 26.6201 33.8196 26.5535 34.0862 26.6535C34.3862 26.7535 34.5196 26.9701 34.4862 27.3035C34.4862 27.6368 34.4529 27.9035 34.3862 28.1035C34.3196 28.3701 34.2362 28.6535 34.1362 28.9535C34.0362 29.2535 33.9362 29.5868 33.8362 29.9535C33.6696 30.4201 33.5029 30.9035 33.3362 31.4035C33.1696 31.9035 33.0362 32.3868 32.9362 32.8535Z" fill="#42170D"/>
<path d="M53.1499 28.5035C53.3833 28.7701 53.3999 29.0035 53.1999 29.2035C53.1666 29.2701 52.8999 29.6035 52.3999 30.2035C51.9332 30.7701 51.3332 31.4201 50.5999 32.1535C49.8999 32.8535 49.1166 33.5201 48.2499 34.1535C47.4166 34.7868 46.6166 35.2035 45.8499 35.4035C45.7499 35.4368 45.6332 35.4535 45.4999 35.4535C45.3999 35.4535 45.3166 35.4535 45.2499 35.4535C44.8166 35.4535 44.4832 35.3368 44.2499 35.1035C43.9166 34.7701 43.7832 34.3035 43.8499 33.7035C43.9166 33.0701 44.0166 32.4535 44.1499 31.8535L44.3499 31.0535L43.5999 31.8535C43.2999 32.2201 42.9499 32.6035 42.5499 33.0035C42.1499 33.4035 41.6999 33.7868 41.1999 34.1535C40.7332 34.4868 40.2166 34.7868 39.6499 35.0535C39.1166 35.2868 38.5499 35.4035 37.9499 35.4035C37.3166 35.4368 36.8999 35.3035 36.6999 35.0035C36.5332 34.6701 36.4332 34.4201 36.3999 34.2535C36.3666 33.9201 36.4832 33.4035 36.7499 32.7035C37.0166 31.9701 37.6499 30.9701 38.6499 29.7035C38.9166 29.3368 39.1999 28.9868 39.4999 28.6535C39.8332 28.2868 40.1332 27.9535 40.3999 27.6535C40.8999 27.1868 41.2499 26.9035 41.4499 26.8035C41.6499 26.7035 41.7832 26.6368 41.8499 26.6035C42.5166 26.5035 43.0666 26.6868 43.4999 27.1535C43.6332 27.3201 43.7499 27.6035 43.8499 28.0035C43.9499 28.4035 43.8666 28.9368 43.5999 29.6035C43.4666 29.9035 43.2499 29.9868 42.9499 29.8535C42.6166 29.7201 42.5166 29.5035 42.6499 29.2035C42.9499 28.5701 42.9832 28.1035 42.7499 27.8035C42.6166 27.6035 42.3832 27.5368 42.0499 27.6035C41.8832 27.6701 41.5499 27.9535 41.0499 28.4535C40.5499 28.9535 39.9666 29.6368 39.2999 30.5035C38.5332 31.5035 38.0166 32.3201 37.7499 32.9535C37.4832 33.5535 37.3666 33.9701 37.3999 34.2035C37.4332 34.2701 37.4666 34.3201 37.4999 34.3535C37.5332 34.3868 37.6666 34.4035 37.8999 34.4035C38.3999 34.4035 38.8832 34.3035 39.3499 34.1035C39.8499 33.8701 40.2999 33.5868 40.6999 33.2535C41.1332 32.9201 41.5166 32.5701 41.8499 32.2035C42.2166 31.8368 42.5499 31.4868 42.8499 31.1535C43.3166 30.6868 43.6999 30.3201 43.9999 30.0535C44.2999 29.7868 44.5999 29.7201 44.8999 29.8535C45.2999 29.9535 45.4666 30.3035 45.3999 30.9035L45.1499 32.1035C45.0832 32.3701 45.0166 32.6368 44.9499 32.9035C44.9166 33.1368 44.8832 33.3701 44.8499 33.6035C44.8166 33.9035 44.8166 34.1035 44.8499 34.2035C44.8832 34.3035 44.9332 34.3701 44.9999 34.4035C45.0666 34.5035 45.2666 34.5035 45.5999 34.4035C46.7332 34.1368 48.1999 33.1035 49.9999 31.3035C50.3666 30.9368 50.6832 30.6035 50.9499 30.3035C51.2499 30.0035 51.5166 29.7201 51.7499 29.4535C52.0166 29.1535 52.2499 28.8701 52.4499 28.6035C52.5166 28.4701 52.6166 28.4035 52.7499 28.4035C52.9166 28.4035 53.0499 28.4368 53.1499 28.5035Z" fill="#42170D"/>
<path d="M58.2382 31.4535C58.0715 32.8201 58.1382 33.6868 58.4382 34.0535C58.7715 34.4201 59.2049 34.5035 59.7382 34.3035C60.3049 34.0701 60.9215 33.6535 61.5882 33.0535C62.2882 32.4535 62.9382 31.8535 63.5382 31.2535C64.2382 30.5868 64.8215 29.9868 65.2882 29.4535C65.7549 28.8868 65.9882 28.5868 65.9882 28.5535C66.0549 28.4535 66.1549 28.4035 66.2882 28.4035C66.4549 28.3701 66.5882 28.4035 66.6882 28.5035C66.9549 28.7035 66.9715 28.9368 66.7382 29.2035C66.7382 29.2368 66.5049 29.5368 66.0382 30.1035C65.5715 30.6368 64.9715 31.2535 64.2382 31.9535C64.0049 32.2201 63.6715 32.5535 63.2382 32.9535C62.8049 33.3535 62.3382 33.7368 61.8382 34.1035C61.3715 34.4701 60.8882 34.8035 60.3882 35.1035C59.9215 35.3701 59.5049 35.5035 59.1382 35.5035H58.7882C58.1882 35.5035 57.7882 35.2368 57.5882 34.7035C57.3882 34.1368 57.2882 33.4868 57.2882 32.7535C57.2882 32.0201 57.3382 31.3035 57.4382 30.6035C57.5715 29.8701 57.6715 29.3368 57.7382 29.0035C57.8382 28.6368 57.9215 28.2701 57.9882 27.9035C58.0882 27.5035 58.1715 27.1535 58.2382 26.8535C58.2715 26.6535 58.2715 26.4868 58.2382 26.3535C58.2382 26.2201 58.2382 26.1201 58.2382 26.0535C58.2049 25.9535 58.1882 25.8701 58.1882 25.8035C58.0882 25.7035 57.9715 25.6868 57.8382 25.7535C57.2382 25.8201 56.6215 26.1701 55.9882 26.8035C55.3882 27.4035 54.8215 28.1035 54.2882 28.9035C53.7549 29.7035 53.2715 30.5201 52.8382 31.3535C52.4049 32.1535 52.0882 32.8035 51.8882 33.3035C51.7882 33.5701 51.5882 33.6535 51.2882 33.5535C50.9549 33.4868 50.8549 33.2868 50.9882 32.9535L52.6382 26.7535C52.7049 26.4535 52.9049 26.3368 53.2382 26.4035C53.5382 26.4701 53.6549 26.6701 53.5882 27.0035L53.0382 28.9535C54.6715 26.3535 56.2215 24.9535 57.6882 24.7535C58.0215 24.6868 58.2715 24.7035 58.4382 24.8035C58.6382 24.9035 58.7882 25.0035 58.8882 25.1035C59.2549 25.4701 59.3715 26.0368 59.2382 26.8035C59.1382 27.5368 58.9549 28.3535 58.6882 29.2535C58.6215 29.6201 58.5382 30.0035 58.4382 30.4035C58.3382 30.7701 58.2715 31.1201 58.2382 31.4535Z" fill="#42170D"/>
<path d="M98.6409 48.8535C98.4743 48.8535 98.3409 48.7868 98.2409 48.6535C97.5743 47.5868 97.0576 46.3368 96.6909 44.9035C96.3576 43.4701 96.1243 41.9368 95.9909 40.3035C95.8909 38.6368 95.8743 36.9201 95.9409 35.1535C96.0076 33.3535 96.1243 31.5535 96.2909 29.7535C96.4909 27.9535 96.7076 26.2035 96.9409 24.5035C97.2076 22.7701 97.4576 21.1535 97.6909 19.6535C97.8576 18.5868 98.0076 17.6201 98.1409 16.7535C98.2743 15.8535 98.3743 15.0701 98.4409 14.4035C98.5076 13.7701 98.5409 13.3035 98.5409 13.0035C98.5409 12.6701 98.5243 12.4201 98.4909 12.2535C98.4243 12.3201 98.3243 12.4201 98.1909 12.5535C98.0909 12.6868 97.9576 12.8868 97.7909 13.1535C97.5576 13.4868 97.3076 13.8868 97.0409 14.3535C96.8076 14.8201 96.5409 15.3368 96.2409 15.9035C95.7409 16.8701 95.1743 18.0201 94.5409 19.3535C93.9409 20.6868 93.2909 22.2035 92.5909 23.9035C91.9576 25.3368 91.3576 26.7368 90.7909 28.1035C90.2243 29.4701 89.7243 30.6868 89.2909 31.7535C88.8909 32.8201 88.5576 33.6868 88.2909 34.3535C88.0243 35.0201 87.8909 35.3535 87.8909 35.3535C87.8243 35.5535 87.6743 35.6535 87.4409 35.6535C86.9076 35.6535 86.4576 35.4201 86.0909 34.9535C85.4243 34.1868 85.0576 32.5201 84.9909 29.9535C84.9576 28.0201 85.1076 25.6035 85.4409 22.7035C85.6743 20.7701 85.9243 18.9868 86.1909 17.3535C86.4909 15.6868 86.7076 14.5035 86.8409 13.8035L86.2909 14.0535C85.9909 14.2868 85.6743 14.6201 85.3409 15.0535C85.0409 15.4535 84.7576 15.9201 84.4909 16.4535C84.2243 16.9535 83.9743 17.4868 83.7409 18.0535C83.5076 18.6201 83.2909 19.1535 83.0909 19.6535C82.6243 20.9201 82.1576 22.3535 81.6909 23.9535C81.2576 25.5201 80.8243 27.2701 80.3909 29.2035C80.0243 30.8368 79.6909 32.4368 79.3909 34.0035C79.0909 35.5368 78.8243 36.9035 78.5909 38.1035C78.3909 39.3035 78.2243 40.2701 78.0909 41.0035C77.9909 41.7368 77.9409 42.1035 77.9409 42.1035C77.8743 42.4368 77.6909 42.5701 77.3909 42.5035C77.0243 42.4368 76.8743 42.2535 76.9409 41.9535C76.9409 41.9535 76.9909 41.5868 77.0909 40.8535C77.2243 40.1201 77.3909 39.1535 77.5909 37.9535C77.8243 36.7535 78.0909 35.3868 78.3909 33.8535C78.6909 32.2868 79.0243 30.6701 79.3909 29.0035C79.8576 27.0368 80.3076 25.2535 80.7409 23.6535C81.2076 22.0201 81.6743 20.5701 82.1409 19.3035C83.3409 16.0368 84.5409 14.0201 85.7409 13.2535C86.2743 12.8535 86.8743 12.7035 87.5409 12.8035C87.8743 12.9035 88.0076 13.1035 87.9409 13.4035C87.9409 13.4035 87.8909 13.6701 87.7909 14.2035C87.6909 14.7368 87.5576 15.4368 87.3909 16.3035C87.2576 17.1701 87.0909 18.1701 86.8909 19.3035C86.7243 20.4368 86.5743 21.6201 86.4409 22.8535C86.0743 25.6535 85.9243 28.0201 85.9909 29.9535C86.0243 31.3535 86.1243 32.3868 86.2909 33.0535C86.4909 33.6868 86.6743 34.1201 86.8409 34.3535C86.9743 34.4868 87.0743 34.5701 87.1409 34.6035C87.2743 34.2701 87.4909 33.7201 87.7909 32.9535C88.0909 32.1868 88.4409 31.2868 88.8409 30.2535C89.2743 29.2201 89.7243 28.1035 90.1909 26.9035C90.6909 25.7035 91.2076 24.4868 91.7409 23.2535C92.5076 21.5201 93.1909 19.9868 93.7909 18.6535C94.4243 17.2868 95.0076 16.1035 95.5409 15.1035C96.1743 13.8701 96.7076 12.9701 97.1409 12.4035C97.7409 11.5701 98.2409 11.1535 98.6409 11.1535C98.8743 11.1535 99.0576 11.2368 99.1909 11.4035C99.3243 11.5701 99.4076 11.8368 99.4409 12.2035C99.5076 12.5368 99.5076 13.0368 99.4409 13.7035C99.4076 14.3368 99.3243 15.1535 99.1909 16.1535C99.0576 17.1535 98.8909 18.3701 98.6909 19.8035C98.3243 22.0368 97.9576 24.4701 97.5909 27.1035C97.2576 29.7368 97.0409 32.3701 96.9409 35.0035C96.8409 37.8701 96.9409 40.3368 97.2409 42.4035C97.6076 44.8368 98.2243 46.7368 99.0909 48.1035C99.2576 48.4035 99.1909 48.6368 98.8909 48.8035C98.8576 48.8368 98.7743 48.8535 98.6409 48.8535Z" fill="#42170D"/>
<path d="M116.335 28.5035C116.569 28.7701 116.585 29.0035 116.385 29.2035C116.352 29.2701 116.085 29.6035 115.585 30.2035C115.119 30.7701 114.519 31.4201 113.785 32.1535C113.085 32.8535 112.302 33.5201 111.435 34.1535C110.602 34.7868 109.802 35.2035 109.035 35.4035C108.935 35.4368 108.819 35.4535 108.685 35.4535C108.585 35.4535 108.502 35.4535 108.435 35.4535C108.002 35.4535 107.669 35.3368 107.435 35.1035C107.102 34.7701 106.969 34.3035 107.035 33.7035C107.102 33.0701 107.202 32.4535 107.335 31.8535L107.535 31.0535L106.785 31.8535C106.485 32.2201 106.135 32.6035 105.735 33.0035C105.335 33.4035 104.885 33.7868 104.385 34.1535C103.919 34.4868 103.402 34.7868 102.835 35.0535C102.302 35.2868 101.735 35.4035 101.135 35.4035C100.502 35.4368 100.085 35.3035 99.8855 35.0035C99.7188 34.6701 99.6188 34.4201 99.5855 34.2535C99.5521 33.9201 99.6688 33.4035 99.9355 32.7035C100.202 31.9701 100.835 30.9701 101.835 29.7035C102.102 29.3368 102.385 28.9868 102.685 28.6535C103.019 28.2868 103.319 27.9535 103.585 27.6535C104.085 27.1868 104.435 26.9035 104.635 26.8035C104.835 26.7035 104.969 26.6368 105.035 26.6035C105.702 26.5035 106.252 26.6868 106.685 27.1535C106.819 27.3201 106.935 27.6035 107.035 28.0035C107.135 28.4035 107.052 28.9368 106.785 29.6035C106.652 29.9035 106.435 29.9868 106.135 29.8535C105.802 29.7201 105.702 29.5035 105.835 29.2035C106.135 28.5701 106.169 28.1035 105.935 27.8035C105.802 27.6035 105.569 27.5368 105.235 27.6035C105.069 27.6701 104.735 27.9535 104.235 28.4535C103.735 28.9535 103.152 29.6368 102.485 30.5035C101.719 31.5035 101.202 32.3201 100.935 32.9535C100.669 33.5535 100.552 33.9701 100.585 34.2035C100.619 34.2701 100.652 34.3201 100.685 34.3535C100.719 34.3868 100.852 34.4035 101.085 34.4035C101.585 34.4035 102.069 34.3035 102.535 34.1035C103.035 33.8701 103.485 33.5868 103.885 33.2535C104.319 32.9201 104.702 32.5701 105.035 32.2035C105.402 31.8368 105.735 31.4868 106.035 31.1535C106.502 30.6868 106.885 30.3201 107.185 30.0535C107.485 29.7868 107.785 29.7201 108.085 29.8535C108.485 29.9535 108.652 30.3035 108.585 30.9035L108.335 32.1035C108.269 32.3701 108.202 32.6368 108.135 32.9035C108.102 33.1368 108.069 33.3701 108.035 33.6035C108.002 33.9035 108.002 34.1035 108.035 34.2035C108.069 34.3035 108.119 34.3701 108.185 34.4035C108.252 34.5035 108.452 34.5035 108.785 34.4035C109.919 34.1368 111.385 33.1035 113.185 31.3035C113.552 30.9368 113.869 30.6035 114.135 30.3035C114.435 30.0035 114.702 29.7201 114.935 29.4535C115.202 29.1535 115.435 28.8701 115.635 28.6035C115.702 28.4701 115.802 28.4035 115.935 28.4035C116.102 28.4035 116.235 28.4368 116.335 28.5035Z" fill="#42170D"/>
<path d="M121.424 31.4535C121.257 32.8201 121.324 33.6868 121.624 34.0535C121.957 34.4201 122.39 34.5035 122.924 34.3035C123.49 34.0701 124.107 33.6535 124.774 33.0535C125.474 32.4535 126.124 31.8535 126.724 31.2535C127.424 30.5868 128.007 29.9868 128.474 29.4535C128.94 28.8868 129.174 28.5868 129.174 28.5535C129.24 28.4535 129.34 28.4035 129.474 28.4035C129.64 28.3701 129.774 28.4035 129.874 28.5035C130.14 28.7035 130.157 28.9368 129.924 29.2035C129.924 29.2368 129.69 29.5368 129.224 30.1035C128.757 30.6368 128.157 31.2535 127.424 31.9535C127.19 32.2201 126.857 32.5535 126.424 32.9535C125.99 33.3535 125.524 33.7368 125.024 34.1035C124.557 34.4701 124.074 34.8035 123.574 35.1035C123.107 35.3701 122.69 35.5035 122.324 35.5035H121.974C121.374 35.5035 120.974 35.2368 120.774 34.7035C120.574 34.1368 120.474 33.4868 120.474 32.7535C120.474 32.0201 120.524 31.3035 120.624 30.6035C120.757 29.8701 120.857 29.3368 120.924 29.0035C121.024 28.6368 121.107 28.2701 121.174 27.9035C121.274 27.5035 121.357 27.1535 121.424 26.8535C121.457 26.6535 121.457 26.4868 121.424 26.3535C121.424 26.2201 121.424 26.1201 121.424 26.0535C121.39 25.9535 121.374 25.8701 121.374 25.8035C121.274 25.7035 121.157 25.6868 121.024 25.7535C120.424 25.8201 119.807 26.1701 119.174 26.8035C118.574 27.4035 118.007 28.1035 117.474 28.9035C116.94 29.7035 116.457 30.5201 116.024 31.3535C115.59 32.1535 115.274 32.8035 115.074 33.3035C114.974 33.5701 114.774 33.6535 114.474 33.5535C114.14 33.4868 114.04 33.2868 114.174 32.9535L115.824 26.7535C115.89 26.4535 116.09 26.3368 116.424 26.4035C116.724 26.4701 116.84 26.6701 116.774 27.0035L116.224 28.9535C117.857 26.3535 119.407 24.9535 120.874 24.7535C121.207 24.6868 121.457 24.7035 121.624 24.8035C121.824 24.9035 121.974 25.0035 122.074 25.1035C122.44 25.4701 122.557 26.0368 122.424 26.8035C122.324 27.5368 122.14 28.3535 121.874 29.2535C121.807 29.6201 121.724 30.0035 121.624 30.4035C121.524 30.7701 121.457 31.1201 121.424 31.4535Z" fill="#42170D"/>
<path d="M143.336 40.1535C143.636 40.3201 143.703 40.5368 143.536 40.8035C143.403 41.1035 143.186 41.1868 142.886 41.0535C140.786 40.0201 138.736 39.4368 136.736 39.3035C136.17 39.2368 135.62 39.2201 135.086 39.2535C134.586 39.2868 134.053 39.3368 133.486 39.4035C133.32 40.4701 133.136 41.6035 132.936 42.8035C132.736 43.9701 132.503 45.1368 132.236 46.3035C131.77 48.3035 131.303 50.1201 130.836 51.7535C130.37 53.3868 129.87 54.8368 129.336 56.1035C128.003 59.2035 126.57 61.0535 125.036 61.6535C124.603 61.8201 124.22 61.9035 123.886 61.9035C122.82 61.9035 121.72 61.2868 120.586 60.0535C118.953 58.2868 118.32 55.9701 118.686 53.1035C118.853 51.8035 119.22 50.4868 119.786 49.1535C120.353 47.8201 121.103 46.5535 122.036 45.3535C123.203 43.7868 124.536 42.4701 126.036 41.4035C127.57 40.3035 129.203 39.4868 130.936 38.9535C131.503 38.7535 132.07 38.6035 132.636 38.5035C132.77 37.6035 132.87 36.8035 132.936 36.1035C133.036 35.3701 133.12 34.7535 133.186 34.2535C133.32 33.1868 133.403 32.3035 133.436 31.6035C133.47 30.9035 133.503 30.3535 133.536 29.9535L132.886 30.8035C132.553 31.2701 132.186 31.7701 131.786 32.3035C131.386 32.8035 130.936 33.2868 130.436 33.7535C129.97 34.2201 129.453 34.6201 128.886 34.9535C128.353 35.2535 127.77 35.4035 127.136 35.4035C126.47 35.4368 126.053 35.3035 125.886 35.0035C125.72 34.6701 125.62 34.4201 125.586 34.2535C125.52 33.9201 125.62 33.4035 125.886 32.7035C126.186 31.9701 126.82 30.9701 127.786 29.7035C128.086 29.3368 128.386 28.9868 128.686 28.6535C129.02 28.2868 129.32 27.9535 129.586 27.6535C130.053 27.1868 130.386 26.9035 130.586 26.8035C130.786 26.7035 130.92 26.6368 130.986 26.6035C131.686 26.5035 132.253 26.6868 132.686 27.1535C132.786 27.3201 132.886 27.5535 132.986 27.8535C133.12 28.1535 133.103 28.5535 132.936 29.0535H132.986C133.086 28.9201 133.22 28.7868 133.386 28.6535C133.586 28.4868 133.82 28.4368 134.086 28.5035C134.32 28.5701 134.453 28.7201 134.486 28.9535C134.52 29.1535 134.536 29.3868 134.536 29.6535C134.536 30.3201 134.47 31.4201 134.336 32.9535C134.203 34.4535 133.986 36.2535 133.686 38.3535C134.653 38.2201 135.703 38.2035 136.836 38.3035C137.903 38.3701 138.986 38.5701 140.086 38.9035C141.186 39.2035 142.27 39.6201 143.336 40.1535ZM131.636 44.3535C131.803 43.4868 131.953 42.6535 132.086 41.8535C132.22 41.0535 132.336 40.2868 132.436 39.5535C132.236 39.6201 132.036 39.6868 131.836 39.7535C131.636 39.7868 131.436 39.8368 131.236 39.9035C129.603 40.4035 128.053 41.1701 126.586 42.2035C125.153 43.2368 123.903 44.4868 122.836 45.9535C121.97 47.0868 121.27 48.2701 120.736 49.5035C120.203 50.7701 119.853 52.0035 119.686 53.2035C119.386 55.7701 119.92 57.8201 121.286 59.3535C122.62 60.7868 123.853 61.2035 124.986 60.6035C126.22 59.9368 127.403 58.2035 128.536 55.4035C129.67 52.6368 130.703 48.9535 131.636 44.3535ZM132.086 30.2535C132.12 30.1868 132.153 30.1368 132.186 30.1035C132.22 30.0368 132.253 29.9701 132.286 29.9035C132.22 29.9035 132.153 29.8868 132.086 29.8535C131.786 29.7201 131.703 29.5035 131.836 29.2035C132.136 28.5368 132.153 28.0701 131.886 27.8035C131.753 27.6035 131.536 27.5368 131.236 27.6035C131.07 27.6701 130.736 27.9535 130.236 28.4535C129.736 28.9535 129.153 29.6368 128.486 30.5035C127.72 31.5035 127.186 32.3201 126.886 32.9535C126.62 33.5535 126.52 33.9701 126.586 34.2035C126.586 34.2701 126.603 34.3201 126.636 34.3535C126.703 34.3868 126.853 34.4035 127.086 34.4035C127.586 34.4035 128.07 34.2701 128.536 34.0035C129.003 33.7035 129.453 33.3535 129.886 32.9535C130.32 32.5201 130.72 32.0701 131.086 31.6035C131.453 31.1035 131.786 30.6535 132.086 30.2535Z" fill="#42170D"/>
<path d="M152.921 28.5035C153.155 28.7701 153.171 29.0035 152.971 29.2035C152.938 29.2701 152.671 29.6035 152.171 30.2035C151.705 30.7701 151.105 31.4201 150.371 32.1535C149.671 32.8535 148.888 33.5201 148.021 34.1535C147.188 34.7868 146.388 35.2035 145.621 35.4035C145.521 35.4368 145.405 35.4535 145.271 35.4535C145.171 35.4535 145.088 35.4535 145.021 35.4535C144.588 35.4535 144.255 35.3368 144.021 35.1035C143.688 34.7701 143.555 34.3035 143.621 33.7035C143.688 33.0701 143.788 32.4535 143.921 31.8535L144.121 31.0535L143.371 31.8535C143.071 32.2201 142.721 32.6035 142.321 33.0035C141.921 33.4035 141.471 33.7868 140.971 34.1535C140.505 34.4868 139.988 34.7868 139.421 35.0535C138.888 35.2868 138.321 35.4035 137.721 35.4035C137.088 35.4368 136.671 35.3035 136.471 35.0035C136.305 34.6701 136.205 34.4201 136.171 34.2535C136.138 33.9201 136.255 33.4035 136.521 32.7035C136.788 31.9701 137.421 30.9701 138.421 29.7035C138.688 29.3368 138.971 28.9868 139.271 28.6535C139.605 28.2868 139.905 27.9535 140.171 27.6535C140.671 27.1868 141.021 26.9035 141.221 26.8035C141.421 26.7035 141.555 26.6368 141.621 26.6035C142.288 26.5035 142.838 26.6868 143.271 27.1535C143.405 27.3201 143.521 27.6035 143.621 28.0035C143.721 28.4035 143.638 28.9368 143.371 29.6035C143.238 29.9035 143.021 29.9868 142.721 29.8535C142.388 29.7201 142.288 29.5035 142.421 29.2035C142.721 28.5701 142.755 28.1035 142.521 27.8035C142.388 27.6035 142.155 27.5368 141.821 27.6035C141.655 27.6701 141.321 27.9535 140.821 28.4535C140.321 28.9535 139.738 29.6368 139.071 30.5035C138.305 31.5035 137.788 32.3201 137.521 32.9535C137.255 33.5535 137.138 33.9701 137.171 34.2035C137.205 34.2701 137.238 34.3201 137.271 34.3535C137.305 34.3868 137.438 34.4035 137.671 34.4035C138.171 34.4035 138.655 34.3035 139.121 34.1035C139.621 33.8701 140.071 33.5868 140.471 33.2535C140.905 32.9201 141.288 32.5701 141.621 32.2035C141.988 31.8368 142.321 31.4868 142.621 31.1535C143.088 30.6868 143.471 30.3201 143.771 30.0535C144.071 29.7868 144.371 29.7201 144.671 29.8535C145.071 29.9535 145.238 30.3035 145.171 30.9035L144.921 32.1035C144.855 32.3701 144.788 32.6368 144.721 32.9035C144.688 33.1368 144.655 33.3701 144.621 33.6035C144.588 33.9035 144.588 34.1035 144.621 34.2035C144.655 34.3035 144.705 34.3701 144.771 34.4035C144.838 34.5035 145.038 34.5035 145.371 34.4035C146.505 34.1368 147.971 33.1035 149.771 31.3035C150.138 30.9368 150.455 30.6035 150.721 30.3035C151.021 30.0035 151.288 29.7201 151.521 29.4535C151.788 29.1535 152.021 28.8701 152.221 28.6035C152.288 28.4701 152.388 28.4035 152.521 28.4035C152.688 28.4035 152.821 28.4368 152.921 28.5035Z" fill="#42170D"/>
<path d="M160.81 31.9535C160.51 32.3868 160.043 32.8701 159.41 33.4035C158.81 33.9035 158.143 34.3535 157.41 34.7535C156.676 35.1201 155.926 35.3701 155.16 35.5035C154.393 35.6368 153.71 35.5368 153.11 35.2035C152.543 34.8701 152.11 34.2535 151.81 33.3535C151.543 32.4535 151.51 31.1535 151.71 29.4535C151.843 28.3868 152.06 27.2035 152.36 25.9035C152.66 24.6035 153.043 23.2035 153.51 21.7035C153.943 20.3368 154.426 18.9535 154.96 17.5535C155.526 16.1201 156.11 14.7201 156.71 13.3535C157.343 11.9868 157.976 10.6701 158.61 9.40347C159.276 8.1368 159.943 6.97013 160.61 5.90347C161.61 4.27014 162.543 2.9868 163.41 2.05347C164.41 0.986803 165.276 0.470135 166.01 0.503468C166.61 0.503468 167.043 0.786802 167.31 1.35347C167.676 2.22013 167.543 3.65347 166.91 5.65347C166.643 6.52014 166.276 7.4868 165.81 8.55347C165.376 9.62014 164.876 10.7535 164.31 11.9535C163.776 13.0535 163.21 14.1701 162.61 15.3035C162.01 16.4368 161.393 17.5368 160.76 18.6035C160.16 19.6368 159.56 20.6201 158.96 21.5535C158.36 22.4535 157.793 23.2535 157.26 23.9535C156.96 24.3868 156.593 24.8368 156.16 25.3035C155.76 25.7701 155.343 26.2201 154.91 26.6535C154.476 27.0868 154.06 27.4701 153.66 27.8035C153.293 28.1368 152.993 28.3868 152.76 28.5535C152.426 30.7201 152.56 32.3201 153.16 33.3535C153.56 34.0868 154.076 34.4535 154.71 34.4535C155.376 34.4535 156.043 34.2868 156.71 33.9535C157.376 33.5868 158.01 33.1368 158.61 32.6035C159.243 32.0701 159.743 31.6201 160.11 31.2535C160.81 30.5868 161.393 29.9868 161.86 29.4535C162.326 28.8868 162.56 28.5868 162.56 28.5535C162.626 28.4535 162.726 28.4035 162.86 28.4035C163.026 28.3701 163.16 28.4035 163.26 28.5035C163.526 28.7035 163.543 28.9368 163.31 29.2035C163.31 29.2368 163.076 29.5368 162.61 30.1035C162.143 30.6368 161.543 31.2535 160.81 31.9535ZM157.41 22.1035C158.043 21.1368 158.71 20.0701 159.41 18.9035C160.143 17.7035 160.86 16.4701 161.56 15.2035C162.36 13.7035 163.076 12.2701 163.71 10.9035C164.376 9.5368 164.91 8.30347 165.31 7.20347C165.743 6.07014 166.06 5.0868 166.26 4.25347C166.46 3.3868 166.543 2.70347 166.51 2.20347C166.443 1.8368 166.343 1.6368 166.21 1.60347C166.11 1.5368 166.026 1.50347 165.96 1.50347C165.86 1.50347 165.66 1.57013 165.36 1.70347C165.093 1.80347 164.693 2.1368 164.16 2.70347C163.726 3.17013 163.293 3.70347 162.86 4.30347C162.426 4.90347 161.96 5.60347 161.46 6.40347C160.793 7.47013 160.143 8.6368 159.51 9.90347C158.876 11.1368 158.26 12.4368 157.66 13.8035C157.06 15.1368 156.476 16.5035 155.91 17.9035C155.376 19.3035 154.893 20.6701 154.46 22.0035C154.126 23.0368 153.843 23.9868 153.61 24.8535C153.376 25.6868 153.176 26.4701 153.01 27.2035C153.243 26.9701 153.543 26.6701 153.91 26.3035C154.276 25.9035 154.66 25.4868 155.06 25.0535C155.46 24.5868 155.86 24.1035 156.26 23.6035C156.66 23.1035 157.043 22.6035 157.41 22.1035Z" fill="#42170D"/>
<path d="M170.451 31.9535C169.484 32.9535 168.467 33.8035 167.401 34.5035C166.334 35.1701 165.067 35.5535 163.601 35.6535H163.151C162.217 35.6535 161.551 35.3701 161.151 34.8035C160.884 34.4035 160.751 33.9201 160.751 33.3535C160.784 32.7868 160.884 32.1868 161.051 31.5535C161.217 30.9201 161.434 30.2868 161.701 29.6535C162.001 29.0201 162.267 28.4368 162.501 27.9035L163.101 26.6035C163.167 26.3035 163.367 26.1868 163.701 26.2535C164.001 26.3535 164.117 26.5701 164.051 26.9035C163.984 27.0701 163.901 27.2701 163.801 27.5035C163.701 27.7368 163.584 28.0035 163.451 28.3035C163.217 28.7701 162.967 29.3035 162.701 29.9035C162.434 30.5035 162.217 31.0868 162.051 31.6535C161.817 32.4201 161.717 33.0035 161.751 33.4035C161.784 33.7701 161.851 34.0368 161.951 34.2035C162.217 34.5701 162.734 34.7201 163.501 34.6535C164.734 34.4868 165.851 34.1035 166.851 33.5035C167.884 32.9035 168.851 32.1535 169.751 31.2535C170.451 30.5868 171.034 29.9868 171.501 29.4535C171.967 28.8868 172.201 28.5868 172.201 28.5535C172.267 28.4535 172.367 28.4035 172.501 28.4035C172.667 28.3701 172.801 28.4035 172.901 28.5035C173.167 28.7035 173.184 28.9368 172.951 29.2035C172.951 29.2368 172.717 29.5368 172.251 30.1035C171.784 30.6368 171.184 31.2535 170.451 31.9535ZM164.951 23.8535C164.584 23.8535 164.251 23.7201 163.951 23.4535C163.684 23.1535 163.551 22.8035 163.551 22.4035C163.551 22.0035 163.684 21.6701 163.951 21.4035C164.251 21.1035 164.584 20.9535 164.951 20.9535C165.351 20.9535 165.684 21.1035 165.951 21.4035C166.251 21.6701 166.401 22.0035 166.401 22.4035C166.401 22.8035 166.251 23.1535 165.951 23.4535C165.684 23.7201 165.351 23.8535 164.951 23.8535ZM164.951 21.9535C164.684 21.9535 164.551 22.1035 164.551 22.4035C164.551 22.7035 164.684 22.8535 164.951 22.8535C165.251 22.8535 165.401 22.7035 165.401 22.4035C165.401 22.1035 165.251 21.9535 164.951 21.9535Z" fill="#42170D"/>
<path d="M182.506 29.3535C182.506 29.5201 182.272 29.7035 181.806 29.9035C181.372 30.0701 180.856 30.2368 180.256 30.4035C179.656 30.5701 179.056 30.7201 178.456 30.8535C177.856 30.9868 177.406 31.0701 177.106 31.1035L176.706 31.8035C175.606 33.4035 174.372 34.2035 173.006 34.2035C172.539 34.2035 172.106 34.0201 171.706 33.6535C171.306 33.2868 171.022 32.8201 170.856 32.2535C170.689 31.5868 170.756 30.9868 171.056 30.4535C171.156 30.1868 171.306 29.9535 171.506 29.7535C171.739 29.5201 171.989 29.3035 172.256 29.1035C172.189 28.9368 172.139 28.7535 172.106 28.5535C172.072 28.3201 172.056 28.1201 172.056 27.9535C172.156 27.0535 172.539 26.3035 173.206 25.7035C173.472 25.4701 173.822 25.2535 174.256 25.0535C174.689 24.8201 175.239 24.7035 175.906 24.7035C177.372 24.7701 178.106 25.6868 178.106 27.4535C178.106 27.8535 178.056 28.2701 177.956 28.7035C177.889 29.1368 177.772 29.5868 177.606 30.0535C178.639 29.9201 179.539 29.7035 180.306 29.4035C181.072 29.1035 181.539 28.9035 181.706 28.8035C181.739 28.7701 181.756 28.7368 181.756 28.7035C181.789 28.6701 181.822 28.6368 181.856 28.6035L181.906 28.5535C181.972 28.4535 182.072 28.4035 182.206 28.4035C182.372 28.3701 182.506 28.4035 182.606 28.5035C182.872 28.7035 182.889 28.9368 182.656 29.2035C182.622 29.2035 182.606 29.2201 182.606 29.2535C182.539 29.3201 182.506 29.3535 182.506 29.3535ZM176.506 30.1035C176.906 29.2035 177.106 28.3201 177.106 27.4535C177.106 26.2868 176.706 25.7035 175.906 25.7035C175.406 25.7035 174.989 25.7868 174.656 25.9535C174.322 26.1201 174.056 26.2868 173.856 26.4535C173.389 26.8868 173.122 27.4035 173.056 28.0035C173.056 28.4701 173.139 28.8035 173.306 29.0035V29.1035C173.639 29.5701 174.189 29.8701 174.956 30.0035C175.222 30.0701 175.472 30.1035 175.706 30.1035C175.972 30.1035 176.239 30.1035 176.506 30.1035ZM175.956 31.1035C175.756 31.1035 175.556 31.1035 175.356 31.1035C175.156 31.0701 174.972 31.0368 174.806 31.0035C174.339 30.9368 173.939 30.8201 173.606 30.6535C173.272 30.4535 172.989 30.2368 172.756 30.0035C171.922 30.5368 171.606 31.2035 171.806 32.0035C171.906 32.3701 172.056 32.6701 172.256 32.9035C172.489 33.1035 172.739 33.2035 173.006 33.2035C173.306 33.2035 173.706 33.1035 174.206 32.9035C174.739 32.6701 175.289 32.1201 175.856 31.2535L175.956 31.1035Z" fill="#42170D"/>
</svg>
