<svg width="128" height="129" viewBox="0 0 128 129" fill="none" xmlns="http://www.w3.org/2000/svg">
<g clip-path="url(#clip0_61_854)">
<path d="M64 128.868C99.2505 128.868 128 100.117 128 64.8679C128 29.6174 99.2505 0.86792 64 0.86792C28.7495 0.86792 0 29.6187 0 64.8679C0 100.117 28.7508 128.868 64 128.868Z" fill="#FFE5D9"/>
<path d="M64.0002 32.7789C95.2842 32.7789 120.642 58.1382 120.642 89.4212C120.642 91.3854 120.542 93.3252 120.348 95.2374C109.532 115.262 88.3562 128.868 64.0002 128.868C39.6442 128.868 18.4694 115.263 7.65341 95.2387C7.45816 93.3264 7.35791 91.3854 7.35791 89.4214C7.35791 58.1372 32.7184 32.7789 64.0002 32.7789Z" fill="#B9C2BD"/>
<path d="M99.3891 45.1967C109.922 53.6364 117.376 65.7572 119.795 79.6122C119.624 79.3502 119.45 79.0059 119.274 78.4957C118.168 78.8582 118.132 78.8882 116.826 79.1054L116.768 79.1852C116.249 79.9254 116.795 79.6124 115.882 80.3837C114.795 81.2982 114.087 82.5464 112.872 83.2867C112.726 84.5799 112.98 84.8709 112.654 86.4089C112.527 86.9759 111.892 88.5002 111.148 88.3847C110.913 88.3407 109.915 85.8722 109.68 85.1897C109.28 84.0282 108.827 83.1712 108.538 81.8352C108.375 81.1227 108.265 79.7579 108.102 79.2787C107.323 79.3942 107.358 79.8894 106.614 79.3664C106.088 78.9877 106.325 78.7567 106.033 78.1897C105.418 77.6089 104.783 77.0282 104.149 76.4472C103.658 76.2879 101.772 76.5627 100.973 76.4759C99.5413 76.3442 99.4153 76.4319 98.5633 75.2854C97.0566 75.3594 97.1846 75.9239 95.7146 74.6607C94.7538 73.8477 94.9351 72.5407 93.5391 73.2809C93.4861 74.4714 94.0656 74.7347 94.5911 75.2854C94.9711 75.7069 95.4433 75.9967 95.6418 76.5624C95.6603 76.5787 95.7516 77.1144 95.7701 77.1872C97.1303 77.2749 97.4558 76.6224 98.1996 76.0707C98.9258 76.7519 98.2181 76.8697 99.2701 77.4054C100.104 77.8279 99.9411 77.5809 100.484 78.2622C100.756 79.1767 98.6176 81.6604 97.9086 82.1107C97.3648 82.4594 97.0761 82.2562 96.5853 82.6604C95.8601 83.2724 96.6766 83.1847 95.4076 83.6489C94.0473 84.1432 92.7043 85.1882 91.2726 85.2759C90.9643 84.4319 90.6561 83.5774 90.3476 82.7207C89.4401 79.8017 89.4768 80.9344 88.5508 79.4239C88.1156 78.7692 88.2968 78.3489 88.0071 77.7682C87.8061 77.3329 87.5001 77.1434 87.2266 76.6077C86.8098 75.7797 86.3213 74.4877 85.3593 74.6182C85.1596 75.2707 86.2473 77.4784 86.5186 78.0152C86.7911 78.5532 87.2263 78.7854 87.3533 79.5554C87.5346 80.6142 87.3176 80.4827 87.8971 81.1939C89.1131 82.6592 87.8428 82.3994 89.7296 83.8359C91.1428 84.9122 90.7816 85.2307 91.3796 86.6694C92.3046 86.9292 95.0608 85.6972 95.5306 86.0597C96.0928 87.0607 94.8793 88.6577 94.5711 89.5294C93.5548 92.4484 91.7778 92.4057 90.4176 94.6412C89.6751 95.8479 89.3298 96.0072 88.6406 97.4597C87.8601 99.1004 90.2178 103.645 88.8046 105.549C88.4963 105.984 87.4986 106.246 86.2481 107.568C84.9236 109.004 86.2838 108.758 85.7758 111.153C85.3776 111.705 84.8878 111.734 84.3983 112.128C84.2171 112.692 84.3626 113.141 84.0531 113.84C83.7263 114.682 83.6731 114.232 83.1998 114.915C82.8558 115.451 82.8926 115.669 82.4931 116.163C82.1491 116.615 81.9666 116.743 81.6421 117.035C80.0636 118.488 76.6723 118.53 76.3826 118.327C75.5836 117.646 76.1286 117.471 75.9298 116.513C75.7358 115.67 75.2891 114.965 74.9161 114.315L74.8781 114.248C74.6978 113.929 74.5341 113.623 74.4428 113.332C73.7893 111.27 74.0261 109.704 72.8841 107.612C71.4511 104.91 73.6808 103.502 73.5896 101.977C73.5538 101.57 73.4093 101.323 73.3713 101.003C73.1001 99.3184 72.9383 97.8092 71.8136 96.4872C70.5793 95.0507 70.7431 95.5577 71.1416 93.1917C71.6486 90.4759 70.4891 91.1722 68.8563 91.1004C68.0573 88.6329 66.4973 89.8359 64.9386 90.5634C63.9583 91.0127 63.5968 90.4329 62.4896 90.5922C60.0231 90.9259 61.9641 91.9869 58.6628 89.3729C57.2841 88.2829 58.2091 88.8349 57.3938 87.4699C57.1226 86.9757 56.2876 86.3234 55.9053 85.8279C54.6548 84.2599 56.1421 82.6767 55.9238 80.8767C55.5428 77.5362 54.9988 80.4402 56.8673 76.4034C57.8476 74.2544 59.3338 74.2407 59.7161 73.2812C60.0428 72.4254 59.8246 71.8147 60.4413 71.0307C60.9851 70.3922 61.7658 70.5227 62.0741 69.5204C62.5093 68.2862 61.6746 68.1279 60.7681 68.0967C60.3881 66.8047 60.3881 67.1232 60.6768 65.9327C60.8408 65.2642 60.6953 64.9442 60.8408 64.2769C61.2033 62.6072 64.0508 64.2632 64.8673 63.5794C65.2473 62.8682 65.3026 62.1719 64.8673 61.4882C64.4123 60.8057 63.8153 60.8924 63.5071 60.2399C64.1963 59.7757 63.6883 60.1822 64.2866 60.0507C64.9933 59.8914 64.9021 59.6869 65.7368 59.5287C66.4816 59.3819 66.9538 58.7007 67.6778 58.2367C68.7113 57.5682 68.2216 56.9712 69.4733 56.7702C71.4861 56.4204 70.1801 56.4792 70.3993 54.6052C70.7066 54.4897 70.9963 54.3569 71.2861 54.2277C71.9211 55.0557 71.1233 54.7219 71.8843 55.2727C72.0841 55.1572 72.3196 55.0417 72.5378 54.9262C72.4281 54.0244 72.0123 54.1987 71.7398 53.0822C70.7421 53.2414 70.3796 54.0832 69.5818 53.7784C68.8023 53.4887 68.7656 52.3697 68.8023 51.4402C69.0921 50.7439 70.5423 50.3664 71.1036 50.1909C72.0123 49.8862 71.8841 49.2764 72.7178 48.4474C73.8066 47.3587 73.0076 48.4624 73.5341 47.0549C74.7316 47.0099 74.1691 46.9672 74.8758 46.6047L74.9116 46.5909L74.9843 46.5609C75.4023 46.3717 75.9461 46.3289 76.4901 46.1407C78.4843 45.4732 79.3006 45.8069 80.7508 46.4004C81.8756 46.8657 85.2668 46.8797 85.5208 48.3044C84.7056 49.1589 83.9261 48.5354 82.7461 48.6092C82.9631 49.7119 83.0533 49.7119 84.0521 50.0167C84.2161 49.4937 83.9793 49.6979 84.2518 49.3632C84.5786 49.4359 84.9053 49.4937 85.2311 49.5537C85.5591 48.4347 85.9388 48.5952 87.0463 48.4637C86.8638 47.6934 86.6641 47.9117 87.0811 47.3022C88.2253 47.4199 87.2993 47.3184 87.8616 48.2329C88.6596 48.1302 89.4401 47.2444 90.5451 47.1289C91.2343 47.0562 91.1986 47.3182 92.1766 47.2154C92.9746 47.1289 92.9376 46.8379 93.7378 47.1727C94.0266 46.6347 93.7378 46.6484 94.4446 46.5192C95.5311 46.3299 96.4756 46.9972 97.5266 47.1439C96.7483 46.1867 96.0036 46.3737 96.9653 44.7769C98.1801 44.5299 98.2886 44.7042 98.8151 45.6199C99.1131 45.4524 99.2401 45.2839 99.3878 45.1984L99.3891 45.1967ZM38.3901 123.533C36.5033 122.709 34.6651 121.795 32.8788 120.8C32.8568 120.726 32.8373 120.645 32.8198 120.552C32.5486 118.939 33.2378 118.764 32.4746 116.077C31.9746 114.3 32.1756 110.09 31.6466 107.932C31.5623 107.588 31.4583 107.296 31.3326 107.073C30.8431 106.261 29.6456 105.884 28.6861 105.229C28.6306 105.216 28.5948 105.2 28.5776 105.171C27.2531 104.242 26.0016 100.596 24.9496 99.2327C24.4611 98.5779 24.1528 98.8677 23.9346 97.8379C23.6991 96.8944 24.0616 97.0549 24.3711 96.2687C22.7568 93.3069 26.4563 93.3497 25.6956 89.7919C25.5316 89.1384 25.0616 88.2239 24.6621 87.9352C23.9001 88.2689 24.2613 88.4559 23.8631 89.0957C23.2476 88.7469 22.6311 88.3972 22.0328 88.0507C20.1646 86.2494 21.1611 87.5554 20.6368 86.3799C19.5121 83.9112 18.4406 85.2922 17.0988 84.0717C16.4996 83.5624 16.3911 82.7634 15.3946 82.9102C13.8888 83.1134 14.7226 83.3454 13.1638 82.6179C11.8393 81.9932 10.4618 81.2682 9.53584 80.4252C9.50009 79.1182 9.97234 79.0592 9.15584 77.8409C9.01159 77.6147 8.84859 77.4044 8.68359 77.2034C11.2353 65.5929 17.3461 55.3184 25.8168 47.5822C26.4751 47.8119 27.3456 47.6607 27.9991 47.6342C28.2336 47.1989 28.3791 46.8202 28.7971 46.6607C28.9598 46.6029 29.1596 46.5892 29.4311 46.6029C29.4668 46.8189 29.5223 47.0382 29.5766 47.2554C29.5766 47.2717 29.6136 47.4159 29.5951 47.3872C29.6136 47.3572 29.6308 47.4737 29.6481 47.5164C30.7923 46.8489 29.8306 46.8339 30.4461 45.6284C29.4853 45.4392 29.6123 45.5544 29.0131 44.9449C29.5951 44.3064 30.7173 44.0882 31.5523 44.1469C31.4968 44.7289 31.2256 44.7139 31.4448 45.2069C32.0973 44.8004 32.5511 43.7127 33.6018 43.9149C33.8016 44.0592 34.0383 44.1909 34.2553 44.3214C33.7103 44.8294 32.8951 44.8594 32.1883 45.1494C31.8788 48.3017 33.1861 45.6587 32.7496 47.8224C33.5291 47.7647 34.2911 47.1977 34.5808 46.6169C34.2911 46.2394 33.8731 46.2394 33.6386 45.7889C33.8211 45.2082 34.2113 44.7682 34.7633 44.5062C35.1363 44.3294 35.5821 44.2349 36.0878 44.2349C41.8543 44.2789 39.1153 44.5397 40.8936 45.3539C41.2918 45.5272 41.9986 45.6159 42.2353 45.9637C42.5978 46.5157 42.2538 47.0374 42.8336 47.4739C43.3416 47.8514 43.4143 47.4589 44.0853 48.3029C43.9411 48.7809 43.5958 49.2752 42.8891 49.2902C41.9098 49.3039 42.4896 48.6354 41.4376 48.7382C41.4573 49.7242 42.4353 50.1029 41.5276 50.6399C40.7296 51.1202 41.2366 50.4667 40.6396 50.8004C40.6211 50.8154 40.5668 50.8444 40.5496 50.8594C40.5138 50.8882 40.4768 50.9322 40.4583 50.9609C40.3508 51.0774 40.2586 51.1792 40.1696 51.2819C38.7193 50.8882 38.9918 51.0637 38.1201 50.1052C37.7946 49.7427 37.7401 49.6549 37.1593 49.6987C36.7968 49.7124 36.3256 49.8719 35.9803 49.5532C36.6881 48.6674 37.0333 49.5244 38.0668 49.0002C38.2481 48.9124 39.3901 48.0279 39.5726 47.8234C39.2643 47.1259 39.5356 47.7057 39.0841 47.2564C38.0678 46.2264 37.7758 46.4862 36.4006 46.4862C35.7551 47.2287 35.2723 48.1467 34.5693 48.5497C34.1443 48.7934 33.6398 48.8487 32.9723 48.5634C33.2806 49.8129 34.0786 48.8544 34.1501 50.3637C33.6246 50.2622 33.3521 49.9999 32.8083 50.1894C31.6468 50.6247 32.6813 50.5809 32.7713 50.8142C32.7713 50.8292 33.3151 50.8869 32.7713 51.0902C32.1721 51.3072 32.6801 50.9737 31.5208 50.2912C31.6836 50.0014 31.8476 49.6964 32.0103 49.3917C31.0681 49.6827 29.8881 50.1469 28.7831 50.6837C27.5303 51.3084 26.3523 52.0209 25.6446 52.6732C25.6261 53.7632 25.8258 53.0357 25.9356 54.3302C27.6213 54.4307 27.0776 54.9374 28.7646 55.4179C29.0891 55.5069 29.5081 55.5934 30.0163 55.6799C30.0163 56.4939 29.2901 57.1037 29.7968 57.9467C30.9758 58.7722 31.0116 57.1614 31.3026 56.1314C35.2943 55.2977 33.3706 54.1247 34.4018 51.9284C34.5566 51.6004 34.7758 51.2507 35.0923 50.8729C35.3996 50.8879 36.6511 51.0197 36.9236 51.0762C37.8311 51.2354 37.3416 51.4537 38.3208 51.8892C38.3023 52.6744 37.9041 53.6904 39.0643 53.5022C39.9533 53.3439 39.7548 52.6454 40.8413 52.4709C41.3298 53.6187 41.2038 54.1129 41.4211 55.4917C44.0331 56.5089 42.8713 57.3357 42.3633 59.2399C42.6913 59.3992 43.0343 59.5447 43.3796 59.6892C43.3623 60.2412 43.3426 60.7792 43.3253 61.3172C43.2711 61.3172 40.5311 60.7202 40.3508 60.6637C40.7676 59.4719 41.5298 59.4582 42.0193 58.2389C41.0401 58.4122 41.1118 58.7169 40.4051 58.9352C39.7711 59.1244 39.2816 58.9929 38.6106 59.0807C38.3751 59.8637 38.5921 58.3972 38.6661 59.3982C38.7018 59.7769 38.8843 59.4144 38.6291 59.8197C37.7216 59.3982 38.0308 58.4109 36.3438 59.3254C36.7248 59.4997 37.1048 59.6592 37.5043 59.8197C37.4513 60.9362 37.3601 60.0944 37.1243 60.8359C36.5436 62.7377 38.7016 61.5612 39.2641 61.4607C39.1186 62.4629 38.5021 62.4629 37.6313 62.7377C36.6718 63.0287 36.3808 63.4212 35.6186 63.5957C35.6186 62.4039 35.4383 63.4064 35.9626 62.5794C35.2006 62.6509 34.6381 62.9997 33.9131 63.3057L33.8416 63.3334C32.9098 63.7134 32.7688 63.7699 32.6616 64.9604C31.8636 65.2064 30.9388 65.4847 30.3763 66.0654C29.8151 66.6024 29.2516 67.1382 28.7066 67.6612C28.6536 67.7052 28.6153 67.7489 28.5818 67.7779C28.7816 69.2732 28.5818 69.3022 27.6731 69.8852C26.9121 70.3772 26.6581 70.3632 25.9513 70.9879C23.6846 73.0214 24.7736 72.0757 24.8983 75.5767C24.4273 75.4324 23.9746 75.2719 23.5393 75.1124C23.1941 72.7879 23.6651 73.5594 21.7981 73.0212C19.7843 72.4404 20.0556 73.4277 19.2221 73.6019C18.2971 73.8039 17.8433 72.7589 16.5016 73.6307C15.7591 74.1377 15.0513 74.4724 14.8701 75.3719C14.6531 76.4619 14.1633 77.2587 14.2351 78.4654C14.3633 81.7344 17.3366 81.9214 18.0986 80.3972C18.6056 79.3809 18.4796 78.8292 20.1296 79.0902C20.2923 79.9619 20.0383 80.6004 19.8201 81.2692C19.6758 81.6607 19.2763 82.3719 19.4761 82.9112C20.6551 83.3904 20.6908 82.4887 22.2508 83.4182C22.3606 84.9712 21.5441 86.7137 22.7403 87.6144C23.6641 88.2969 23.7196 87.6872 24.5348 87.5429C25.4423 87.3837 25.2796 87.9494 26.1143 88.0809C26.5853 87.4989 26.3856 87.8639 26.6951 87.1502C27.2388 85.9182 27.3833 86.4977 28.6718 85.7437C28.7976 85.6709 28.9063 85.5969 29.0343 85.5104C29.1786 85.8152 29.3426 86.1062 29.4858 86.3962C30.4293 85.2784 30.5378 86.3674 31.6266 86.6722C32.0953 86.8004 32.4278 86.8464 32.6853 86.8499C33.4763 86.8614 33.5571 86.4769 34.6368 86.8592C34.7651 86.9192 34.9278 86.9619 35.0733 87.0059C35.0906 87.0059 35.1448 87.0347 35.1448 87.0649C35.1646 87.0799 35.2176 87.1227 35.2361 87.1389C35.4173 87.3409 35.4371 87.5454 35.5813 87.7624C36.3248 88.4737 37.0686 89.1862 37.7938 89.8824C39.2256 90.4494 39.2256 89.3882 40.8583 90.9702C41.5476 91.6237 41.2383 91.6109 41.6193 92.4517C41.6748 92.5834 41.7833 92.7127 41.8548 92.8732C42.0003 93.2657 42.1631 93.6422 42.3271 94.0197C43.0696 94.9932 44.0856 94.3834 45.1191 95.3857C45.7173 95.9664 45.2646 95.7922 46.5878 96.0242C48.6373 96.3579 47.8406 96.1697 49.3996 97.3462C49.9978 97.7814 50.1421 97.5344 50.7043 97.9119C51.4848 99.0007 51.2851 100.177 50.6328 101.136C48.6191 104.069 49.3083 103.59 49.2171 105.914C49.1443 107.249 48.7633 110.008 47.5116 110.342C42.9608 111.622 45.6076 112.507 44.4113 114.758C44.0673 115.397 43.8121 115.557 43.5951 116.066C42.6898 118.185 43.3238 118.897 40.6391 118.418C40.8943 118.867 40.7303 118.562 40.9843 118.969C41.7823 120.203 41.9093 121.134 40.2766 121.436C38.9163 121.698 39.4971 121.436 39.3701 122.946C38.8436 123.165 38.6081 122.946 38.2638 123.295L38.3921 123.534L38.3901 123.533ZM26.4378 47.0267C26.7888 46.9804 26.7876 46.8282 27.7068 46.6052C27.6341 46.3004 27.5786 46.3004 27.5071 46.1849L27.4783 46.1272C27.1286 46.4227 26.7808 46.7242 26.4378 47.0279V47.0267ZM74.9131 63.8669L74.8773 63.8414C74.7503 63.7549 74.6243 63.6682 74.5158 63.5667C73.7178 62.8542 73.5528 62.2169 72.6661 62.3762C72.6463 63.0447 72.7388 63.0724 73.0643 63.5089C74.2976 65.0482 73.9166 64.5262 74.8771 65.0919L74.9128 65.1127C75.1403 65.2432 75.4036 65.4257 75.7651 65.6877C74.5318 66.7742 75.6751 66.8909 74.9128 67.2547L74.8771 67.2719C74.8031 67.2997 74.7328 67.3297 74.6786 67.3584C74.4233 66.7187 74.9858 67.0247 74.3333 66.0952C73.9708 65.6159 73.6266 65.4704 73.0643 65.2072C71.6486 64.5397 71.8311 64.0179 70.9606 63.1459C69.9803 63.1759 70.1996 63.4807 69.5103 63.8294C68.6766 64.2347 68.8036 63.7579 67.8233 63.8432C67.0253 65.2532 68.1673 64.0764 66.7171 65.2379C64.9758 66.5877 66.4088 67.9964 63.6168 68.4192C63.4171 68.4479 63.3443 68.4192 63.1458 68.4907C62.6181 68.6789 62.9263 68.5194 62.6181 68.8244C62.8548 69.3774 62.5281 69.2887 63.4713 69.4202C65.1941 69.6512 65.4123 68.5922 66.6641 68.3302C67.2796 68.1997 71.1431 68.0392 71.4146 68.1119C72.2483 69.0427 71.5601 69.6962 71.5601 70.4792C72.4688 70.9584 73.7551 71.0749 74.2816 71.5692C74.8798 72.1349 74.5898 72.0472 74.8798 72.1489L74.9156 72.1604C75.0253 72.1917 75.1836 72.2482 75.4606 72.3532C76.1858 72.5992 76.1488 72.7447 76.9281 72.8024C77.6358 70.4352 76.9096 70.6824 80.3193 71.7702C83.8736 72.9342 82.2776 71.8729 83.7833 72.0322C84.5281 72.1062 84.3283 72.3369 85.3618 72.2064C85.5603 71.7999 87.0291 68.1107 85.1251 68.5762C84.5628 68.7204 84.9448 68.9237 84.1458 68.7204C83.3121 68.5044 84.1101 68.3439 83.1863 68.4734C82.2776 68.6052 81.1911 69.4042 80.4831 66.6594C80.2118 65.6709 79.7211 64.8154 78.5976 66.3094C78.8873 66.8174 79.0871 66.8614 79.4128 67.3557C79.3228 67.4999 79.0146 67.8637 78.9058 67.9804C78.2903 68.5902 79.1611 68.3002 78.1623 68.4297C77.6186 68.0232 77.7281 67.5002 77.2016 66.7749C76.2766 65.4227 76.8748 66.0487 76.4036 64.7554C76.0328 64.4299 75.4176 64.1862 74.9151 63.8664H74.9131V63.8669ZM94.2818 102.963C93.4851 103.37 93.3753 104.301 92.7773 104.822C92.1248 105.418 91.2531 105.143 91.0003 106.246C90.6736 107.625 91.5441 107.205 90.5836 109.005C90.2396 109.672 90.2211 111.342 90.7476 111.837C92.3238 113.36 93.1771 109.514 93.5396 108.308C93.8121 107.452 94.0661 106.479 94.3558 105.679C94.6456 104.823 95.0626 104.069 94.2818 102.963ZM91.6711 62.4464C91.7981 64.2199 92.8488 64.9014 93.5936 65.7142C93.5036 66.5572 93.3026 66.3389 93.3211 67.5144C94.2101 68.1552 94.8613 68.5457 96.0243 68.2279C96.1871 66.8042 95.7333 66.8757 95.2991 65.9034C95.3718 65.7869 95.5703 65.6424 95.6063 65.6137C95.9343 65.1784 95.7703 65.7869 95.9343 65.0467C95.0821 64.7719 93.7036 63.8989 93.5961 62.7534C94.0128 62.4197 93.8858 62.6217 94.1931 62.4197C94.8641 61.9832 94.3571 62.6507 94.7553 61.9104C94.4113 61.2429 94.0301 61.1264 93.1966 61.4602C92.8341 61.6057 91.8721 62.2882 91.6723 62.4474L91.6711 62.4464ZM84.2533 62.9119C83.6921 62.1289 83.7268 61.7352 82.6391 61.7064C82.2048 62.1717 81.6968 62.8679 81.4613 63.5794C81.0988 64.6544 81.3528 63.9132 81.3886 65.0759C81.3701 65.1187 81.3886 65.1787 81.3886 65.2214C81.3701 65.9177 81.2061 65.0897 81.3158 65.7294C82.1691 65.5539 81.5168 65.5689 82.1518 65.3657C82.7501 65.1624 84.5813 64.6104 85.1078 64.7422C86.3583 65.0319 87.4103 66.0204 88.8258 65.0319C88.7518 63.7687 87.2288 63.2894 86.1771 62.7364C86.2326 61.5759 86.5396 62.4904 86.4668 61.3717C86.1043 61.3567 85.8861 61.2989 85.5418 61.4444C84.7256 61.8069 85.1793 61.9097 85.1793 62.0402C85.2151 62.6637 85.9956 61.9097 85.1621 62.6799C84.9266 62.8819 84.5443 62.8819 84.2546 62.9119H84.2533ZM63.0706 54.1119C63.0358 56.1454 63.7426 55.4617 64.4123 56.4652C64.1051 57.3219 64.0498 56.6544 63.7068 57.5389C63.3986 58.2802 63.7783 57.6129 63.5786 58.9037C64.1051 58.9337 64.8846 58.7454 65.5738 58.6867C66.5541 58.5989 66.5346 58.5124 66.8798 57.5099C66.3361 56.8424 65.7921 56.1739 65.2298 55.5064C64.5208 54.4302 65.2298 55.1717 65.0128 54.2709C64.8501 53.9512 64.7033 53.6334 64.5591 53.3124C63.6156 53.6339 63.7068 53.5462 63.0706 54.1119Z" fill="#D8E2DC"/>
<path d="M98.9145 50.5139L98.366 49.9654L96.105 47.7044L95.5565 47.1559C93.7725 47.8327 91.5392 50.7574 90.6582 52.6027L90.932 52.8774L93.193 55.1384L93.4677 55.4132C95.313 54.5309 98.2377 52.2989 98.9145 50.5149V50.5139Z" fill="#FFCAD4"/>
<path d="M98.9145 50.5139L98.366 49.9654L96.105 47.7044L95.5565 47.1559C95.1442 47.3129 94.71 47.5889 94.2712 47.9434L98.1267 51.7989C98.4812 51.3612 98.7572 50.9259 98.9142 50.5149V50.5139H98.9145Z" fill="white"/>
<path d="M102.701 61.2652L102.152 60.7167L99.8911 58.4557L99.3426 57.9072C97.5586 58.5839 95.3253 61.5087 94.4443 63.3539L94.7191 63.6287L96.9801 65.8897L97.2548 66.1645C99.1001 65.2822 102.025 63.0502 102.702 61.2652H102.701Z" fill="#FFCAD4"/>
<path d="M102.701 61.2652L102.152 60.7179L99.8914 58.4559L99.3429 57.9087C98.9306 58.0647 98.4964 58.3404 98.0576 58.6962L101.913 62.5517C102.268 62.1139 102.545 61.6787 102.701 61.2664V61.2652H102.701Z" fill="white"/>
<path d="M71.8333 23.4329L72.3818 23.9814L74.6428 26.2424L75.1913 26.7909C74.5146 28.5749 71.5898 30.8082 69.7446 31.6902L69.4698 31.4154L67.2088 29.1544L66.9341 28.8797C67.8163 27.0357 70.0483 24.1097 71.8323 23.4329H71.8333Z" fill="#FFCAD4"/>
<path d="M71.8336 23.4329L72.3821 23.9814L74.6431 26.2424L75.1916 26.7909C75.0356 27.2032 74.7598 27.6384 74.4041 28.0762L70.5483 24.2204C70.9861 23.8647 71.4213 23.5889 71.8336 23.4329Z" fill="white"/>
<path d="M61.0821 19.6479L61.6306 20.1964L63.8916 22.4574L64.4401 23.0059C63.7634 24.7899 60.8386 27.0232 58.9934 27.9042L58.7186 27.6294L56.4576 25.3684L56.1829 25.0937C57.0651 23.2497 59.2971 20.3237 61.0811 19.6469L61.0821 19.6479Z" fill="#FFCAD4"/>
<path d="M61.0819 19.6479L61.6304 20.1964L63.8924 22.4574L64.4396 23.0059C64.2836 23.4182 64.0079 23.8534 63.6534 24.2912L59.7969 20.4354C60.2344 20.0797 60.6696 19.8037 61.0819 19.6479Z" fill="white"/>
<path d="M53.0512 70.6182L59.6849 80.0497L61.8004 77.492L58.0464 67.5742C58.5175 67.1677 57.6319 67.9737 59.5694 66.2302C61.5069 64.4867 70.0207 56.6602 77.7317 50.3912L99.9399 81.785L101.965 79.7597L89.6897 40.6307C94.7069 36.4947 98.5889 33.1957 99.6349 32.0004C102.832 28.3469 105.725 23.4742 103.442 18.9074C98.8739 16.6234 94.0024 19.5172 90.3489 22.7132C89.1527 23.7594 85.8549 27.6414 81.7187 32.6584L42.5897 20.3834L40.5645 22.4087L71.9572 44.6169C65.6894 52.3292 57.8619 60.8414 56.1194 62.7792C54.3747 64.7167 55.182 63.8312 54.7755 64.3022L44.8577 60.5482L42.3 62.6637L51.7315 69.2974C50.7072 71.0594 51.2905 71.6427 53.0525 70.6185H53.0512V70.6182Z" fill="white"/>
<path d="M53.0515 70.6181L59.6853 80.0496L60.1955 79.4331L53.765 70.1264L53.0525 70.6184H53.0515V70.6181Z" fill="#C8CACC"/>
<path d="M42.9156 62.1532L42.2991 62.6637L51.7306 69.2974L52.2226 68.5849L42.9146 62.1532H42.9156Z" fill="#C8CACC"/>
<path d="M77.7329 50.3904L99.9412 81.7841L100.722 81.0024L79.0447 49.3199L77.7329 50.3904Z" fill="#C8CACC"/>
<path d="M41.344 21.6269L40.5635 22.4087L71.9562 44.6169L73.0267 43.3052L41.3427 21.6282L41.344 21.6269Z" fill="#C8CACC"/>
<path d="M101.533 20.8142C101.084 20.3649 100.54 20.0487 99.9363 19.8604L99.5703 20.8824C99.9513 21.1099 100.309 21.3869 100.636 21.7127C100.962 22.0394 101.239 22.3974 101.466 22.7774L102.488 22.4114C102.3 21.8087 101.984 21.2649 101.535 20.8144H101.533V20.8142ZM99.1201 19.6872C98.1883 19.5752 97.1663 19.7219 96.1536 20.1109C97.0658 20.0347 97.9826 20.1674 98.8243 20.5104L99.1201 19.6872ZM101.838 23.5242C102.182 24.3659 102.314 25.2817 102.238 26.1949C102.628 25.1822 102.774 24.1604 102.662 23.2284L101.838 23.5242Z" fill="#15BDB1"/>
<path d="M46.2119 76.7659L46.2199 76.7579L46.3539 76.6287L46.4867 76.5004L46.6217 76.3699L46.7567 76.2394L46.8917 76.1089L47.0279 75.9772L47.1642 75.8454L47.3017 75.7137L47.4402 75.5809L47.5777 75.4482L47.7162 75.3142L47.8547 75.1792L47.9944 75.0442L48.1342 74.9079L48.2749 74.7717L48.4169 74.6354L48.5589 74.4979L48.7009 74.3604L48.8442 74.2219L48.9874 74.0822L49.1317 73.9424L49.2759 73.8027L49.4202 73.6617L49.5657 73.5197L49.7112 73.3777L49.8579 73.2344L50.0047 73.0912L50.1524 72.9469L50.3002 72.8014L50.4479 72.6559L49.6224 71.8154L49.4747 71.9597L49.3279 72.1039L49.1812 72.2472L49.0344 72.3914L48.8889 72.5334L48.7447 72.6754L48.6004 72.8164L48.4562 72.9572L48.3129 73.0969L48.1697 73.2354L48.0264 73.3739L47.8844 73.5124L47.7424 73.6499L47.6004 73.7874L47.4597 73.9237L47.3189 74.0599L47.1792 74.1949L47.0394 74.3289L46.9009 74.4639L46.7624 74.5979L46.6239 74.7307L46.4864 74.8634L46.3489 74.9952L46.2127 75.1269L46.0764 75.2574L45.9402 75.3879L45.8052 75.5184L45.6712 75.6477L45.5372 75.7782L45.4032 75.9064L45.3952 75.9144L46.2127 76.7632L46.2119 76.7659ZM112.23 76.2797L112.09 76.6447L111.951 77.0049L111.811 77.3594L111.671 77.7082L111.53 78.0522L111.389 78.3904L111.249 78.7242L111.108 79.0522L110.967 79.3754L110.825 79.6929L110.684 80.0069L110.542 80.3152L110.4 80.6177L110.258 80.9157L110.251 80.9294L111.31 81.4479L111.32 81.4272L111.466 81.1212L111.611 80.8107L111.756 80.4954L111.901 80.1757L112.045 79.8512L112.19 79.5209L112.334 79.1862L112.477 78.8454L112.62 78.5014L112.765 78.1504L112.907 77.7947L113.05 77.4344L113.192 77.0684L113.334 76.6967L112.232 76.2787L112.23 76.2797ZM108.608 84.0047L108.535 84.1247L108.391 84.3624L108.247 84.5957L108.102 84.8254L107.957 85.0494L107.811 85.2689L107.666 85.4849L107.52 85.6962L107.375 85.9039L107.229 86.1072L107.084 86.3069L106.937 86.5022L106.792 86.6939L106.645 86.8809L106.498 87.0644L106.35 87.2447L106.204 87.4202L106.057 87.5922L105.91 87.7597L105.762 87.9247L105.616 88.0852L105.468 88.2422L105.32 88.3957L105.172 88.5457L105.147 88.5712L105.972 89.4129L106.008 89.3772L106.166 89.2167L106.323 89.0527L106.48 88.8852L106.637 88.7142L106.793 88.5399L106.949 88.3622L107.104 88.1797L107.259 87.9937L107.414 87.8032L107.568 87.6104L107.722 87.4129L107.875 87.2119L108.029 87.0074L108.181 86.7984L108.334 86.5849L108.486 86.3679L108.638 86.1462L108.79 85.9209L108.94 85.6912L109.091 85.4579L109.241 85.2202L109.393 84.9777L109.543 84.7307L109.614 84.6094L108.604 84.0022L108.608 84.0047ZM102.495 90.6904L102.492 90.6927L102.34 90.7839L102.189 90.8729L102.038 90.9584L101.887 91.0417L101.734 91.1224L101.583 91.1997L101.43 91.2759L101.278 91.3487L101.125 91.4192L100.973 91.4874L100.819 91.5532L100.666 91.6167L100.512 91.6779L100.359 91.7379L100.204 91.7944L100.049 91.8499L99.8947 91.9029L99.7399 91.9537L99.5839 92.0034L99.4279 92.0497L99.2709 92.0947L99.1149 92.1387L98.9579 92.1792L98.8009 92.2184L98.6427 92.2554L98.4844 92.2912L98.3262 92.3247L98.1669 92.3569L98.0077 92.3869L97.8484 92.4157L97.6879 92.4434L97.5274 92.4689L97.3669 92.4932L97.2052 92.5162L97.1959 92.5174L97.3459 93.6872L97.3657 93.6837L97.5389 93.6594L97.7109 93.6339L97.8819 93.6062L98.0539 93.5774L98.2259 93.5462L98.3979 93.5139L98.5689 93.4792L98.7399 93.4422L98.9097 93.4042L99.0807 93.3637L99.2517 93.3209L99.4227 93.2759L99.5937 93.2297L99.7622 93.1812L99.9319 93.1304L100.1 93.0774L100.269 93.0219L100.439 92.9642L100.607 92.9042L100.775 92.8419L100.943 92.7772L101.111 92.7102L101.278 92.6409L101.446 92.5682L101.613 92.4932L101.779 92.4159L101.946 92.3362L102.112 92.2542L102.278 92.1687L102.444 92.0809L102.609 91.9897L102.774 91.8962L102.939 91.8004L103.103 91.7012L103.107 91.6989L102.491 90.6944L102.495 90.6904ZM93.7472 92.7144H93.7274L93.5577 92.7132L93.3867 92.7109L93.2157 92.7087L93.0437 92.7052L92.8717 92.7017L92.6997 92.6972L92.5264 92.6927L92.3532 92.6869L92.1789 92.6812L92.0047 92.6754L91.8304 92.6697L91.6562 92.6627L91.4807 92.6557L91.3039 92.6499L91.1272 92.6429L90.9504 92.6359L90.7737 92.6279L90.5969 92.6209L90.4192 92.6139L90.2414 92.6069L90.0624 92.5999L89.8834 92.5929L89.7044 92.5859L89.5242 92.5789L89.3439 92.5719L89.1627 92.5649L88.9814 92.5592L88.8002 92.5534L88.6177 92.5477L88.4352 92.5419L88.2527 92.5374L88.0692 92.5329L87.8857 92.5294L87.8672 92.5282L87.8464 93.7072H87.8627L88.0429 93.7107L88.2232 93.7152L88.4034 93.7197L88.5824 93.7254L88.7627 93.7312L88.9429 93.7369L89.1219 93.7427L89.3009 93.7497L89.4799 93.7567L89.6589 93.7637L89.8367 93.7707L90.0144 93.7777L90.1922 93.7847L90.3699 93.7917L90.5477 93.7987L90.7254 93.8057L90.9032 93.8127L91.0809 93.8197L91.2587 93.8267L91.4354 93.8337L91.6122 93.8407L91.7899 93.8477L91.9654 93.8534L92.1422 93.8592L92.3189 93.8649L92.4957 93.8694L92.6724 93.8739L92.8492 93.8784L93.0247 93.8819L93.2002 93.8854L93.3757 93.8877L93.5512 93.8899L93.7267 93.8912H93.7464L93.7509 92.7122L93.7472 92.7144ZM84.2739 92.6094L84.1214 92.6209L83.9297 92.6372L83.7357 92.6544L83.5439 92.6729L83.3499 92.6927L83.1559 92.7147L82.9619 92.7377L82.7679 92.7619L82.5727 92.7874L82.3774 92.8162L82.1812 92.8462L81.9849 92.8784L81.7887 92.9107L81.5924 92.9464L81.3949 92.9834L81.1974 93.0214L80.9989 93.0619L80.8004 93.1047L80.6019 93.1497L80.4022 93.1969L80.2024 93.2467L80.0014 93.2974L79.8017 93.3494L79.6007 93.4049L79.3997 93.4627L79.1987 93.5227L78.9967 93.5849L78.7947 93.6497L78.5914 93.7167L78.3882 93.7872L78.3617 93.7964L78.7612 94.9062L78.7774 94.9004L78.9692 94.8347L79.1597 94.7724L79.3502 94.7112L79.5407 94.6522L79.7312 94.5967L79.9217 94.5412L80.1109 94.4892L80.3002 94.4384L80.4894 94.3899L80.6787 94.3437L80.8669 94.2987L81.0552 94.2572L81.2434 94.2167L81.4304 94.1787L81.6174 94.1417L81.8057 94.1069L81.9927 94.0747L82.1797 94.0424L82.3667 94.0124L82.5527 93.9847L82.7397 93.9582L82.9257 93.9327L83.1117 93.9097L83.2977 93.8877L83.4824 93.8669L83.6672 93.8472L83.8532 93.8287L84.0367 93.8124L84.2214 93.7974L84.3739 93.7859L84.2814 92.6104L84.2739 92.6094ZM75.0479 95.2917L74.8909 95.3794L74.6819 95.4994L74.4729 95.6229L74.2639 95.7487L74.0537 95.8792L73.8447 96.0119L73.6344 96.1482L73.4254 96.2867L73.2152 96.4299L73.0049 96.5754L72.7937 96.7254L72.5824 96.8789L72.3722 97.0359L72.1609 97.1952L71.9497 97.3592L71.7384 97.5267L71.5259 97.6977L71.3134 97.8719L71.1009 98.0497L70.8874 98.2309L70.6739 98.4179L70.4614 98.6072L70.2479 98.7999L70.1949 98.8497L70.9987 99.7122L71.0437 99.6717L71.2492 99.4847L71.4547 99.3022L71.6592 99.1244L71.8637 98.9502L72.0669 98.7792L72.2714 98.6117L72.4734 98.4477L72.6767 98.2884L72.8787 98.1324L73.0807 97.9789L73.2827 97.8289L73.4837 97.6834L73.6847 97.5414L73.8857 97.4017L74.0854 97.2667L74.2852 97.1339L74.4849 97.0047L74.6847 96.8789L74.8832 96.7564L75.0817 96.6364L75.2792 96.5199L75.4767 96.4057L75.6337 96.3179L75.0507 95.2927L75.0479 95.2917ZM67.6834 101.416L67.6627 101.438L67.4457 101.685L67.2344 101.928L67.0232 102.167L66.8119 102.403L66.6017 102.637L66.3914 102.868L66.1812 103.095L65.9722 103.319L65.7632 103.541L65.5554 103.76L65.3477 103.976L65.1399 104.19L64.9332 104.4L64.7264 104.608L64.5197 104.812L64.3142 105.014L64.1087 105.214L63.9042 105.41L63.6997 105.604L63.6604 105.64L64.4629 106.503L64.5069 106.462L64.7172 106.264L64.9274 106.063L65.1377 105.859L65.3479 105.653L65.5592 105.442L65.7704 105.23L65.9817 105.014L66.1942 104.797L66.4067 104.576L66.6202 104.354L66.8327 104.127L67.0462 103.898L67.2597 103.666L67.4744 103.431L67.6892 103.193L67.9039 102.952L68.1199 102.708L68.3359 102.462L68.5462 102.222L68.5669 102.2L67.6847 101.418L67.6834 101.416ZM61.0219 107.921L60.8799 108.033L60.6837 108.186L60.4862 108.337L60.2899 108.486L60.0937 108.633L59.8984 108.777L59.7044 108.918L59.5104 109.057L59.3164 109.193L59.1237 109.327L58.9309 109.459L58.7382 109.588L58.5464 109.715L58.3559 109.84L58.1654 109.961L57.9749 110.08L57.7857 110.198L57.5964 110.312L57.4072 110.424L57.2202 110.534L57.0332 110.641L56.8462 110.746L56.6602 110.85L56.4742 110.951L56.2894 111.049L56.2004 111.095L56.7409 112.144L56.8392 112.093L57.0332 111.989L57.2272 111.884L57.4212 111.776L57.6164 111.666L57.8117 111.554L58.0069 111.439L58.2032 111.322L58.3994 111.203L58.5969 111.081L58.7944 110.957L58.9929 110.831L59.1914 110.702L59.3899 110.57L59.5897 110.436L59.7894 110.3L59.9904 110.161L60.1914 110.02L60.3924 109.876L60.5944 109.729L60.7964 109.58L60.9984 109.429L61.2017 109.275L61.4062 109.118L61.6094 108.959L61.7502 108.847L61.0217 107.92L61.0219 107.921ZM53.0407 112.448L52.8859 112.499L52.7127 112.554L52.5394 112.607L52.3674 112.659L52.1964 112.709L52.0254 112.756L51.8557 112.801L51.6859 112.845L51.5174 112.887L51.3499 112.926L51.1824 112.963L51.0149 112.999L50.8487 113.032L50.6837 113.065L50.5187 113.095L50.3537 113.123L50.1909 113.15L50.0282 113.174L49.8654 113.197L49.7037 113.218L49.5432 113.238L49.3827 113.255L49.2234 113.271L49.0642 113.285L48.9049 113.296L48.7479 113.307L48.5909 113.315L48.4339 113.322L48.2779 113.328L48.1232 113.331L47.9697 113.333H47.8162L47.6627 113.332L47.5114 113.33L47.4524 113.328L47.4097 114.505L47.4824 114.508L47.6474 114.511L47.8124 114.512H47.9787L48.1462 114.51L48.3137 114.506L48.4812 114.5L48.6497 114.493L48.8207 114.482L48.9904 114.471L49.1614 114.458L49.3324 114.443L49.5044 114.427L49.6777 114.407L49.8509 114.386L50.0252 114.363L50.1984 114.339L50.3739 114.314L50.5494 114.285L50.7262 114.254L50.9029 114.222L51.0807 114.188L51.2584 114.152L51.4362 114.114L51.6152 114.073L51.7954 114.031L51.9757 113.987L52.1559 113.94L52.3372 113.892L52.5197 113.841L52.7022 113.788L52.8847 113.734L53.0682 113.677L53.2517 113.618L53.4064 113.568L53.0427 112.446L53.0407 112.448ZM44.1079 112.814L44.0502 112.798L43.9152 112.759L43.7812 112.717L43.6462 112.674L43.5122 112.63L43.3782 112.584L43.2454 112.538L43.1149 112.491L42.9832 112.441L42.8527 112.39L42.7234 112.338L42.5942 112.285L42.4659 112.231L42.3389 112.175L42.2119 112.119L42.0862 112.06L41.9614 112.001L41.8367 111.941L41.7119 111.88L41.5894 111.817L41.4682 111.754L41.3457 111.688L41.2244 111.622L41.1044 111.554L40.9854 111.486L40.8664 111.417L40.7474 111.345L40.6309 111.274L40.5142 111.201L40.3987 111.127L40.2832 111.052L40.1689 110.976L40.0547 110.9L39.9427 110.821L39.8307 110.743L39.7187 110.662L39.6079 110.581L39.4982 110.499L39.3897 110.416L39.2812 110.333L39.1737 110.248L39.1252 110.209L38.3827 111.125L38.4382 111.17L38.5537 111.261L38.6702 111.351L38.7869 111.44L38.9059 111.529L39.0249 111.617L39.1449 111.702L39.2662 111.788L39.3887 111.872L39.5112 111.954L39.6347 112.036L39.7594 112.117L39.8842 112.197L40.0099 112.276L40.1369 112.354L40.2639 112.43L40.3932 112.505L40.5224 112.579L40.6529 112.652L40.7847 112.723L40.9164 112.794L41.0492 112.863L41.1832 112.931L41.3172 112.997L41.4522 113.062L41.5884 113.127L41.7247 113.189L41.8622 113.251L42.0007 113.311L42.1404 113.37L42.2789 113.427L42.4197 113.484L42.5617 113.539L42.7037 113.592L42.8469 113.645L42.9912 113.696L43.1354 113.746L43.2809 113.793L43.4277 113.839L43.5744 113.884L43.7222 113.928L43.7799 113.945L44.1079 112.812V112.814ZM36.7087 107.807L36.6602 107.747L36.5747 107.641L36.4892 107.535L36.4059 107.427L36.3227 107.319L36.2407 107.21L36.1599 107.102L36.0792 106.992L35.9994 106.881L35.9209 106.771L35.8424 106.66L35.7662 106.548L35.6899 106.436L35.6149 106.323L35.5409 106.209L35.4669 106.095L35.3954 105.981L35.3239 105.865L35.2534 105.75L35.1842 105.634L35.1149 105.518L35.0467 105.401L34.9797 105.284L34.9139 105.167L34.8492 105.049L34.7844 104.93L34.7209 104.813L34.6587 104.694L34.5964 104.575L34.5364 104.455L34.4764 104.336L34.4174 104.216L34.3597 104.094L34.3032 103.973L34.2477 103.852L34.1934 103.731L34.1392 103.609L34.0862 103.488L34.0342 103.366L33.9834 103.244L33.9337 103.122L33.8839 102.999L33.8434 102.897L32.7454 103.323L32.7894 103.435L32.8414 103.565L32.8944 103.696L32.9487 103.826L33.0042 103.955L33.0597 104.085L33.1174 104.215L33.1764 104.344L33.2364 104.474L33.2964 104.602L33.3577 104.73L33.4199 104.858L33.4834 104.987L33.5482 105.114L33.6129 105.241L33.6787 105.366L33.7469 105.492L33.8152 105.617L33.8844 105.743L33.9549 105.867L34.0264 105.992L34.0992 106.116L34.1719 106.239L34.2469 106.363L34.3219 106.485L34.3969 106.606L34.4742 106.729L34.5514 106.85L34.6299 106.971L34.7097 107.091L34.7904 107.21L34.8724 107.329L34.9557 107.448L35.0389 107.566L35.1244 107.684L35.2099 107.801L35.2964 107.917L35.3842 108.033L35.4719 108.148L35.5609 108.262L35.6509 108.377L35.7422 108.491L35.7919 108.551L36.7064 107.807H36.7087ZM32.9099 99.6069C32.5692 97.7364 32.5139 95.8507 32.9249 93.9859L31.7737 93.7319C31.3234 95.7214 31.3857 97.8229 31.7507 99.8194L32.9099 99.6059V99.6069ZM34.0427 90.7862C34.8429 89.0877 36.0334 87.4537 37.2182 86.0047L36.3094 85.2542C35.0717 86.7494 33.8119 88.5127 32.9827 90.2714L34.0427 90.7862ZM39.5367 83.3857L39.5447 83.3777L39.6452 83.2714L39.7457 83.1652L39.8472 83.0589L39.9499 82.9514L40.0527 82.8439L40.1554 82.7364L40.2594 82.6289L40.3644 82.5204L40.4694 82.4119L40.5744 82.3034L40.6807 82.1949L40.7882 82.0852L40.8957 81.9754L41.0042 81.8657L41.1127 81.7559L41.2224 81.6452L41.3332 81.5332L41.4439 81.4212L41.5547 81.3104L41.6667 81.1984L41.7787 81.0864L41.8929 80.9732L42.0072 80.8599L42.1214 80.7467L42.2369 80.6324L42.3524 80.5182L42.4689 80.4039L42.5857 80.2884L42.7034 80.1729L42.8212 80.0574L42.9402 79.9409L43.0592 79.8244L43.1792 79.7079L43.2992 79.5902L43.4204 79.4724L43.5417 79.3547L43.6642 79.2357L43.6722 79.2287L42.8499 78.3834L42.8419 78.3914L42.7194 78.5104L42.5969 78.6294L42.4757 78.7472L42.3544 78.8662L42.2344 78.9827L42.1144 79.1004L41.9954 79.2169L41.8764 79.3334L41.7587 79.4499L41.6409 79.5654L41.5232 79.6809L41.4064 79.7964L41.2909 79.9107L41.1754 80.0262L41.0612 80.1404L40.9469 80.2537L40.8327 80.3679L40.7207 80.4812L40.6087 80.5932L40.4967 80.7064L40.3859 80.8184L40.2752 80.9304L40.1654 81.0424L40.0557 81.1532L39.9472 81.2639L39.8387 81.3747L39.7302 81.4854L39.6227 81.5952L39.5164 81.7049L39.4102 81.8147L39.3052 81.9244L39.2002 82.0342L39.0962 82.1427L38.9934 82.2502L38.8894 82.3587L38.7867 82.4672L38.6852 82.5747L38.6772 82.5839L39.5362 83.3912V83.3857H39.5367Z" fill="white"/>
</g>
<defs>
<clipPath id="clip0_61_854">
<rect width="128" height="128" fill="white" transform="translate(0 0.86792)"/>
</clipPath>
</defs>
</svg>
