<svg width="1920" height="736" viewBox="0 0 1920 736" fill="none" xmlns="http://www.w3.org/2000/svg">
<g clip-path="url(#clip0_232_3616)">
<path d="M1920.05 580.634C1861.79 580.634 1814.56 533.405 1814.56 475.145" stroke="#F6FAF7" stroke-width="18"/>
<path d="M1920.05 631.425C1833.74 631.425 1763.77 561.456 1763.77 475.145" stroke="#F6FAF7" stroke-width="18"/>
<path d="M1920.05 678.309C1807.84 678.309 1716.88 587.349 1716.88 475.145" stroke="#F6FAF7" stroke-width="18"/>
<path d="M1920.05 725.193C1781.95 725.193 1670 613.243 1670 475.145" stroke="#F6FAF7" stroke-width="18"/>
<path d="M1920.05 369.656C1861.79 369.656 1814.56 416.885 1814.56 475.145" stroke="#F6FAF7" stroke-width="18"/>
<path d="M1920.05 318.865C1833.74 318.865 1763.77 388.834 1763.77 475.145" stroke="#F6FAF7" stroke-width="18"/>
<path d="M1920.05 271.981C1807.84 271.981 1716.88 362.94 1716.88 475.145" stroke="#F6FAF7" stroke-width="18"/>
<path d="M1920.05 225.097C1781.95 225.097 1670 337.047 1670 475.145" stroke="#F6FAF7" stroke-width="18"/>
<path d="M0.0483445 145.537C-58.2117 145.537 -105.441 98.3081 -105.441 40.0481" stroke="#F6FAF7" stroke-width="18"/>
<path d="M0.0483467 196.328C-86.2628 196.328 -156.232 126.359 -156.232 40.0481" stroke="#F6FAF7" stroke-width="18"/>
<path d="M0.0478604 243.212C-112.157 243.212 -203.116 152.253 -203.116 40.0481" stroke="#F6FAF7" stroke-width="18"/>
<path d="M0.0478625 290.096C-138.05 290.096 -250 178.146 -250 40.0481" stroke="#F6FAF7" stroke-width="18"/>
<path d="M0.0483352 -65.441C-58.2117 -65.441 -105.441 -18.2119 -105.441 40.0481" stroke="#F6FAF7" stroke-width="18"/>
<path d="M0.048333 -116.232C-86.2628 -116.232 -156.232 -46.263 -156.232 40.0481" stroke="#F6FAF7" stroke-width="18"/>
<path d="M0.0478427 -163.116C-112.157 -163.116 -203.116 -72.1564 -203.116 40.0481" stroke="#F6FAF7" stroke-width="18"/>
<path d="M0.0478406 -210C-138.05 -210 -250 -98.0497 -250 40.0481" stroke="#F6FAF7" stroke-width="18"/>
<path d="M0.0483445 -65.4408C58.3084 -65.4408 105.537 -18.2117 105.537 40.0483" stroke="#F6FAF7" stroke-width="18"/>
<path d="M0.0483467 -116.232C86.3595 -116.232 156.328 -46.2628 156.328 40.0483" stroke="#F6FAF7" stroke-width="18"/>
<path d="M0.048837 -163.116C112.253 -163.116 203.213 -72.1561 203.213 40.0483" stroke="#F6FAF7" stroke-width="18"/>
<path d="M0.0488391 -210C138.147 -210 250.097 -98.0495 250.097 40.0484" stroke="#F6FAF7" stroke-width="18"/>
<path d="M0.0483352 145.537C58.3084 145.537 105.537 98.3084 105.537 40.0483" stroke="#F6FAF7" stroke-width="18"/>
<path d="M0.048333 196.328C86.3595 196.328 156.328 126.359 156.328 40.0483" stroke="#F6FAF7" stroke-width="18"/>
<path d="M0.0488192 243.213C112.253 243.213 203.213 152.253 203.213 40.0483" stroke="#F6FAF7" stroke-width="18"/>
<path d="M0.0488172 290.097C138.147 290.097 250.097 178.146 250.097 40.0484" stroke="#F6FAF7" stroke-width="18"/>
</g>
<defs>
<clipPath id="clip0_232_3616">
<rect width="1920" height="736" fill="white"/>
</clipPath>
</defs>
</svg>
