<svg width="128" height="129" viewBox="0 0 128 129" fill="none" xmlns="http://www.w3.org/2000/svg">
<g clip-path="url(#clip0_61_909)">
<path d="M2.42025 70.5344C2.369 69.9494 0.15275 69.3622 0.11725 68.7729C0.0395 67.4812 0 66.1792 0 64.8679C0 29.5217 28.6538 0.86792 64 0.86792C99.3463 0.86792 128 29.5217 128 64.8679C128 66.1792 127.961 67.4812 127.883 68.7729C127.847 69.3622 124.854 69.9494 124.803 70.5344H2.42025Z" fill="#FFE5D9"/>
<path d="M119.68 58.9387C119.68 86.6492 97.216 109.113 69.5053 109.113C41.7946 109.113 19.3311 86.6492 19.3311 58.9387C19.3311 31.2282 41.7948 8.76418 69.5053 8.76418C97.2158 8.76418 119.68 31.2282 119.68 58.9387Z" fill="#FFF2EC"/>
<path d="M127.883 68.7729C125.865 102.301 98.0349 128.868 63.9999 128.868C29.9649 128.868 2.13519 102.301 0.117188 68.7729H127.883Z" fill="#FFE5D9"/>
<path d="M51.9759 10.1304C52.3749 18.7964 49.8244 26.7777 44.0896 32.5122C38.3549 38.2467 30.3736 40.7974 21.7079 40.3984C21.3089 31.7324 23.8594 23.7512 29.5941 18.0167C35.3289 12.2822 43.3099 9.73143 51.9759 10.1304Z" fill="#C1D0C7"/>
<path d="M13.3811 4.99992C17.4446 4.29942 21.0138 5.01442 23.3468 7.34717C25.6798 9.67991 26.3948 13.2492 25.6941 17.3129C21.6306 18.0134 18.0613 17.2984 15.7283 14.9657C13.3953 12.6329 12.6806 9.06341 13.3811 4.99992Z" fill="#C1D0C7"/>
<path d="M26.8156 95.1947H7.26685C6.7146 95.1947 6.26685 94.7469 6.26685 94.1947V23.6964C6.26685 23.1442 6.7146 22.6964 7.26685 22.6964H21.6786C25.0681 22.6964 27.8158 25.4442 27.8158 28.8337V94.1949C27.8156 94.7469 27.3678 95.1947 26.8156 95.1947Z" fill="#E5F2FD"/>
<path d="M62.1651 22.6964V95.1947H19.5376V22.6964H62.1651Z" fill="#FFF5F5"/>
<path d="M70.3179 32.2317C70.3179 39.0202 64.8146 44.5234 58.0261 44.5234C56.9546 44.5234 55.9151 44.3862 54.9244 44.1284C54.9296 44.2759 54.9324 44.4242 54.9324 44.5732C54.9324 51.3617 49.4291 56.8649 42.6406 56.8649C35.8521 56.8649 30.3489 51.3617 30.3489 44.5732C30.3489 37.7847 35.8521 32.2814 42.6406 32.2814C43.7121 32.2814 44.7516 32.4187 45.7426 32.6764C45.7374 32.5289 45.7346 32.3807 45.7346 32.2317C45.7346 25.4432 51.2379 19.9399 58.0264 19.9399C64.8149 19.9399 70.3179 25.4432 70.3179 32.2317Z" fill="#C1D0C7"/>
<path d="M116.115 47.7397C116.115 54.5282 110.612 60.0314 103.823 60.0314C100.303 60.0314 97.1283 58.5514 94.8875 56.1802C93.6178 56.6237 92.253 56.8652 90.832 56.8652C88.87 56.8652 87.0153 56.4054 85.37 55.5879C82.1563 62.5464 75.1158 67.3752 66.9478 67.3752C55.7465 67.3752 46.6663 58.2949 46.6663 47.0937C46.6663 35.8924 55.7465 26.8122 66.9478 26.8122C67.2075 26.8122 67.466 26.8172 67.7233 26.8267C69.4683 22.1619 73.9658 18.8409 79.2395 18.8409C86.028 18.8409 91.5313 24.3442 91.5313 31.1327C91.5313 31.5257 91.5125 31.9144 91.4765 32.2982C94.7388 32.4667 97.6643 33.9072 99.7675 36.1329C101.037 35.6894 102.402 35.4479 103.823 35.4479C110.612 35.4479 116.115 40.9512 116.115 47.7397Z" fill="#D8E2DC"/>
<path d="M95.2334 27.7934C95.2334 31.4609 92.2604 34.4342 88.5927 34.4342C84.9252 34.4342 81.9519 31.4612 81.9519 27.7934C81.9519 24.1257 84.9249 21.1527 88.5927 21.1527C92.2602 21.1527 95.2334 24.1259 95.2334 27.7934Z" fill="#FFC143"/>
<path d="M94.3271 31.1437C93.1746 33.1119 91.0382 34.4339 88.5927 34.4339C84.9252 34.4339 81.9519 31.4607 81.9519 27.7932C81.9519 25.3477 83.2739 23.2109 85.2421 22.0587C84.6664 23.0422 84.3362 24.1872 84.3362 25.4092C84.3362 29.0767 87.3091 32.0499 90.9769 32.0499C92.1989 32.0499 93.3436 31.7197 94.3271 31.1437Z" fill="#FFB509"/>
<path d="M79.2024 42.7679C79.2024 48.5869 74.4851 53.3042 68.6661 53.3042C62.8471 53.3042 58.1299 48.5869 58.1299 42.7679C58.1299 36.9489 62.8471 32.2317 68.6661 32.2317C74.4851 32.2317 79.2024 36.9489 79.2024 42.7679Z" fill="#F0AEBB"/>
<path d="M76.5284 42.7679C76.5284 46.1979 73.7479 48.9784 70.3179 48.9784C66.8879 48.9784 64.1074 46.1979 64.1074 42.7679C64.1074 39.3379 66.8879 36.5574 70.3179 36.5574C73.7479 36.5574 76.5284 39.3379 76.5284 42.7679Z" fill="#FFCAD4"/>
<path d="M109.519 11.3864L93.3668 75.9949C93.0913 77.0956 92.1038 77.8309 91.0181 77.8309C90.8233 77.8309 90.6261 77.8072 90.4286 77.7579C89.1303 77.4334 88.3413 76.1179 88.6656 74.8199L104.818 10.2114C105.142 8.91316 106.458 8.12416 107.756 8.44866C109.054 8.77291 109.843 10.0884 109.519 11.3864Z" fill="#A44F3E"/>
<path d="M97.8842 105.292H72.8582V93.3844C56.1687 84.3314 44.68 66.9094 44.0225 46.7482C44.0027 46.1409 53.5525 44.2214 53.5525 44.2214H127.996C127.999 44.4534 128 44.6862 128 44.9189C128 65.8522 116.327 84.0589 99.1345 93.3844V104.042C99.1342 104.732 98.5747 105.292 97.8842 105.292Z" fill="#19305C"/>
<path d="M69.5053 83.6982V105.292H46.6663V93.3842C29.474 84.0587 17.8005 65.8519 17.8005 44.9187C17.8005 44.6859 17.802 44.4534 17.805 44.2212H53.5523C53.5493 44.4532 53.5478 44.6859 53.5478 44.9187C53.548 60.0419 59.6408 73.7419 69.5053 83.6982Z" fill="#304979"/>
<path d="M57.8164 71.8989V114.209C57.8164 115.314 56.9209 116.209 55.8164 116.209H42.0974C40.9929 116.209 40.0974 115.314 40.0974 114.209V71.8989C40.0974 70.7944 40.9929 69.8989 42.0974 69.8989H55.8164C56.9209 69.8989 57.8164 70.7944 57.8164 71.8989Z" fill="#F0AEBB"/>
<path d="M75.5349 71.8989V114.209C75.5349 115.314 74.6394 116.209 73.5349 116.209H53.5051C52.4006 116.209 51.5051 115.314 51.5051 114.209V71.8989C51.5051 70.7944 52.4006 69.8989 53.5051 69.8989H73.5349C74.6396 69.8989 75.5349 70.7944 75.5349 71.8989Z" fill="#FFCAD4"/>
<path d="M81.0464 116.209C81.0464 117.674 79.8594 118.861 78.3952 118.861H37.2369C35.7727 118.861 34.5857 117.674 34.5857 116.209C34.5857 114.745 35.7727 113.558 37.2369 113.558H78.3949C79.8594 113.558 81.0464 114.745 81.0464 116.209Z" fill="#FF9500"/>
<path d="M34.649 119.574C25.983 119.973 18.0017 117.423 12.267 111.688C6.53224 105.954 3.98174 97.9722 4.38074 89.3064C13.0467 88.9074 21.028 91.4579 26.7625 97.1927C32.4972 102.927 35.048 110.909 34.649 119.574Z" fill="#FFA78F"/>
<path d="M33.7639 118.644C25.6232 115.646 19.2589 110.196 16.2014 102.684C13.1442 95.1727 13.8934 86.8274 17.6264 78.9967C25.7672 81.9944 32.1314 87.4444 35.1889 94.9562C38.2464 102.468 37.4972 110.813 33.7639 118.644Z" fill="#FFBFAB"/>
<path d="M53.1466 102.685C50.0891 110.196 43.7249 115.646 35.5841 118.644C31.8509 110.813 31.1016 102.468 34.1591 94.9564C37.2166 87.4447 43.5809 81.9947 51.7216 78.9969C55.4546 86.8277 56.2039 95.1729 53.1466 102.685Z" fill="#FFA78F"/>
<path d="M44.8357 98.2122C44.8357 106.322 40.9957 113.769 34.5857 119.615C28.1759 113.769 24.3357 106.322 24.3357 98.2122C24.3357 90.1022 28.1759 82.6549 34.5857 76.8094C40.9957 82.6549 44.8357 90.1022 44.8357 98.2122Z" fill="#FFCEBF"/>
<path d="M57.0081 111.688C51.2736 117.423 43.2921 119.973 34.6261 119.574C34.2271 110.908 36.7776 102.927 42.5124 97.1927C48.2469 91.4579 56.2284 88.9074 64.8941 89.3064C65.2934 97.9722 62.7429 105.954 57.0081 111.688Z" fill="#FFBFAB"/>
<path d="M58.9348 51.8869C62.3036 54.2649 64.3218 57.2944 64.3218 60.5934C64.3218 60.7112 64.3193 60.8287 64.3141 60.9459C64.0201 67.6717 53.8496 67.6717 53.5556 60.9459C53.5506 60.8289 53.5479 60.7114 53.5479 60.5934C53.5481 57.2944 55.5664 54.2649 58.9348 51.8869Z" fill="#FFC143"/>
<path d="M61.9169 63.1884C61.7154 66.9144 56.1539 66.9144 55.9524 63.1884C55.9512 63.1654 55.9414 62.8849 55.9414 62.7672C55.9414 60.3477 57.0269 58.0729 58.9347 56.0942C60.8424 58.0732 61.9279 60.3477 61.9279 62.7672C61.9282 62.8849 61.9182 63.1657 61.9169 63.1884Z" fill="#FF9500"/>
<path d="M89.2874 42.7679C90.8414 42.7679 92.1009 44.0277 92.1009 45.5814C92.1009 47.1354 90.8411 48.3949 89.2874 48.3949C87.7334 48.3949 86.4739 47.1352 86.4739 45.5814C86.4739 44.0277 87.7334 42.7679 89.2874 42.7679Z" fill="#D8E2DC"/>
<path d="M97.3798 50.8604C98.9338 50.8604 100.193 52.1202 100.193 53.6739C100.193 55.2279 98.9336 56.4874 97.3798 56.4874C95.8261 56.4874 94.5663 55.2277 94.5663 53.6739C94.5663 52.1202 95.8261 50.8604 97.3798 50.8604ZM89.6113 69.3499C89.6113 70.9039 90.8711 72.1634 92.4248 72.1634C93.9786 72.1634 95.2383 70.9037 95.2383 69.3499C95.2383 67.7962 93.9786 66.5364 92.4248 66.5364C90.8711 66.5364 89.6113 67.7959 89.6113 69.3499Z" fill="#D8E2DC"/>
<path d="M69.505 22.4509C71.059 22.4509 72.3185 23.7107 72.3185 25.2644C72.3185 26.8182 71.0588 28.0779 69.505 28.0779C67.9513 28.0779 66.6915 26.8182 66.6915 25.2644C66.6915 23.7107 67.9513 22.4509 69.505 22.4509ZM47.5195 36.5574C47.5195 38.1114 48.7793 39.3709 50.333 39.3709C51.8868 39.3709 53.1465 38.1112 53.1465 36.5574C53.1465 35.0034 51.8868 33.7439 50.333 33.7439C48.7793 33.7439 47.5195 35.0037 47.5195 36.5574Z" fill="#A44F3E"/>
</g>
<defs>
<clipPath id="clip0_61_909">
<rect width="128" height="128" fill="white" transform="translate(0 0.86792)"/>
</clipPath>
</defs>
</svg>
