<svg width="24" height="19" viewBox="0 0 24 19" fill="none" xmlns="http://www.w3.org/2000/svg">
<path d="M10.3704 2.05405L5.77778 10.7838L3.48148 11.3707C3.72839 10.8327 4.02469 10.3925 4.37037 10.0502C4.76543 9.70785 5.20988 9.53668 5.7037 9.53668C6.74074 9.53668 7.67901 9.95238 8.51852 10.7838C9.40741 11.6152 9.85185 12.6911 9.85185 14.0116C9.85185 15.332 9.35802 16.5058 8.37037 17.5328C7.4321 18.5109 6.2963 19 4.96296 19C3.62963 19 2.46914 18.5109 1.48148 17.5328C0.493827 16.5547 0 15.381 0 14.0116C0 13.4247 0.123457 12.7645 0.37037 12.0309C0.617284 11.2484 1.03704 10.2703 1.62963 9.09652L6.59259 0L10.3704 2.05405ZM24 2.05405L19.4074 10.7838L17.1111 11.3707C17.358 10.8327 17.6543 10.3925 18 10.0502C18.3951 9.70785 18.8395 9.53668 19.3333 9.53668C20.3704 9.53668 21.3086 9.95238 22.1481 10.7838C23.037 11.6152 23.4815 12.6911 23.4815 14.0116C23.4815 15.332 22.9877 16.5058 22 17.5328C21.0617 18.5109 19.9259 19 18.5926 19C17.2593 19 16.0988 18.5109 15.1111 17.5328C14.1235 16.5547 13.6296 15.381 13.6296 14.0116C13.6296 13.4247 13.7531 12.7645 14 12.0309C14.2469 11.2484 14.6667 10.2703 15.2593 9.09652L20.2222 0L24 2.05405Z" fill="#19305C"/>
</svg>
