<svg width="128" height="129" viewBox="0 0 128 129" fill="none" xmlns="http://www.w3.org/2000/svg">
<g clip-path="url(#clip0_61_836)">
<path d="M64 0.86792C99.3463 0.86792 128 29.5217 128 64.8679C128 92.5737 110.395 116.167 85.7617 125.073C84.9125 125.38 83.307 124.495 82.4415 124.767C76.3835 126.668 70.4567 127.639 63.7713 127.639C62.3203 127.639 61.1095 128.82 59.6828 128.725C57.1948 128.559 54.7455 128.251 52.3433 127.809C51.2525 127.608 50.1715 125.746 49.101 125.49C42.2812 123.864 36.3897 121.019 30.6117 117.405C29.929 116.978 28.75 118.3 28.0847 117.848C11.135 106.335 0 86.9019 0 64.8679C0 29.5217 28.6538 0.86792 64 0.86792Z" fill="#FFE5D9"/>
<path d="M65.3403 7.1259C95.0946 7.1259 119.215 31.2466 119.215 61.0009C119.215 90.7551 95.0946 114.876 65.3403 114.876C35.5861 114.876 11.4653 90.7551 11.4653 61.0009C11.4653 31.2466 35.5858 7.1259 65.3403 7.1259Z" fill="#FFF2EC"/>
<path d="M52.2382 87.7624C52.1289 87.8392 52.0197 87.9144 51.9102 87.9882C48.4089 90.3462 44.7537 85.1497 48.1564 82.6517C48.2629 82.5734 48.3707 82.4959 48.4799 82.4192C51.9719 79.9627 55.7067 79.0302 57.6439 79.9667C57.8704 82.1064 55.7304 85.3062 52.2382 87.7624ZM107.444 28.8912C109.381 29.8277 113.116 28.8952 116.608 26.4387C116.717 26.3619 116.825 26.2844 116.932 26.2062C120.334 23.7079 116.679 18.5114 113.178 20.8697C113.068 20.9434 112.959 21.0187 112.85 21.0954C109.358 23.5519 107.218 26.7514 107.444 28.8912Z" fill="#9D8189"/>
<path d="M96.9383 46.7692C102.626 52.4572 105.339 59.9937 105.077 67.4452C97.6258 67.7074 90.0891 64.9947 84.4011 59.3064C81.0964 56.0017 78.7961 52.0729 77.4999 47.8994C76.2039 52.0729 73.9034 56.0017 70.5986 59.3064C64.9106 64.9944 57.3741 67.7074 49.9226 67.4452C49.6604 59.9939 52.3731 52.4574 58.0614 46.7692C61.3661 43.4644 65.2949 41.1642 69.4684 39.8679C65.2949 38.5717 61.3661 36.2714 58.0614 32.9667C52.3734 27.2787 49.6604 19.7422 49.9226 12.2907C57.3739 12.0284 64.9104 14.7412 70.5986 20.4294C73.9034 23.7342 76.2036 27.6629 77.4999 31.8364C78.7961 27.6629 81.0964 23.7342 84.4011 20.4294C90.0891 14.7414 97.6256 12.0284 105.077 12.2907C105.339 19.7419 102.626 27.2787 96.9383 32.9667C93.6336 36.2714 89.7048 38.5717 85.5313 39.8679C89.7048 41.1642 93.6336 43.4644 96.9383 46.7692Z" fill="#FFB4C2"/>
<path d="M94.6184 13.9274C97.9861 12.7119 101.541 12.1664 105.077 12.2909C105.202 15.8269 104.656 19.382 103.441 22.7497C101.928 26.94 96.5286 27.9672 93.4619 24.7357C93.3276 24.5942 93.1911 24.4542 93.0526 24.3155C92.9139 24.1767 92.7739 24.0402 92.6324 23.9062C89.4009 20.8395 90.4279 15.4397 94.6184 13.9274ZM62.3674 55.83C62.2259 55.6957 62.0859 55.5592 61.9471 55.4207C61.8084 55.282 61.6721 55.142 61.5379 55.0005C58.4711 51.769 53.0716 52.7962 51.5591 56.9865C50.3436 60.3542 49.7981 63.9092 49.9226 67.4452C53.4586 67.5697 57.0136 67.0242 60.3814 65.8087C64.5719 64.2962 65.5989 58.8965 62.3674 55.83ZM60.3814 13.9272C57.0139 12.7117 53.4586 12.1662 49.9226 12.2907C49.7981 15.8267 50.3436 19.3817 51.5591 22.7495C53.0716 26.9397 58.4711 27.967 61.5379 24.7355C61.6721 24.5942 61.8086 24.454 61.9471 24.3152C62.0859 24.1765 62.2259 24.04 62.3674 23.906C65.5989 20.8395 64.5719 15.4397 60.3814 13.9272ZM93.4619 55.0002C93.3276 55.1417 93.1911 55.2817 93.0526 55.4205C92.9139 55.5592 92.7739 55.6957 92.6324 55.8297C89.4009 58.8965 90.4281 64.296 94.6184 65.8085C97.9861 67.024 101.541 67.5695 105.077 67.445C105.202 63.909 104.656 60.354 103.441 56.9862C101.928 52.796 96.5284 51.769 93.4619 55.0002Z" fill="#FFCAD4"/>
<path d="M116.5 39.8679C111.417 45.3222 104.169 48.7332 96.125 48.7332C91.4512 48.7332 87.0468 47.5817 83.1793 45.5472C85.2138 49.4149 86.3652 53.8194 86.3652 58.4932C86.3652 66.5372 82.9545 73.7847 77.5 78.8682C72.0457 73.7847 68.6348 66.5372 68.6348 58.4932C68.6348 53.8194 69.7862 49.4149 71.8207 45.5472C67.9532 47.5817 63.5485 48.7332 58.875 48.7332C50.831 48.7332 43.5835 45.3224 38.5 39.8679C43.5835 34.4137 50.831 31.0027 58.875 31.0027C63.5487 31.0027 67.9532 32.1542 71.8207 34.1887C69.7862 30.3212 68.6348 25.9164 68.6348 21.2429C68.6348 13.1987 72.0455 5.95142 77.5 0.86792C82.9543 5.95142 86.3652 13.1987 86.3652 21.2429C86.3652 25.9164 85.2138 30.3212 83.1793 34.1887C87.0468 32.1542 91.4515 31.0027 96.125 31.0027C104.169 31.0027 111.417 34.4137 116.5 39.8679Z" fill="#FBC1CC"/>
<path d="M83.7383 9.42042C85.6318 13.4529 82.54 17.9974 78.0867 17.8809C77.8917 17.8757 77.6963 17.8732 77.5003 17.8732C77.3043 17.8732 77.1085 17.8757 76.9137 17.8809C72.4603 17.9977 69.3685 13.4532 71.262 9.42067C72.7838 6.17992 74.9118 3.28017 77.5 0.86792C80.0882 3.28017 82.2165 6.17992 83.7383 9.42042ZM47.0527 33.6297C43.812 35.1514 40.9123 37.2797 38.5 39.8679C40.9123 42.4562 43.8117 44.5842 47.0527 46.1062C51.0852 47.9997 55.6298 44.9079 55.513 40.4544C55.5077 40.2594 55.5052 40.0639 55.5052 39.8679C55.5052 39.6719 55.5077 39.4762 55.513 39.2814C55.6295 34.8279 51.0852 31.7362 47.0527 33.6297ZM107.947 33.6297C103.915 31.7362 99.3703 34.8279 99.487 39.2814C99.4922 39.4764 99.4948 39.6719 99.4948 39.8679C99.4948 40.0639 99.4922 40.2597 99.487 40.4544C99.3705 44.9079 103.915 47.9997 107.947 46.1062C111.188 44.5844 114.088 42.4562 116.5 39.8679C114.088 37.2797 111.188 35.1514 107.947 33.6297ZM78.0865 61.8549C77.8915 61.8602 77.696 61.8627 77.5 61.8627C77.304 61.8627 77.1082 61.8602 76.9135 61.8549C72.46 61.7384 69.3683 66.2827 71.262 70.3152C72.7838 73.5559 74.912 76.4557 77.5003 78.8679C80.0885 76.4557 82.2168 73.5559 83.7385 70.3152C85.6318 66.2827 82.54 61.7384 78.0865 61.8549Z" fill="#FFCAD4"/>
<path d="M96.9384 46.7691C97.5361 47.3669 98.1009 47.9851 98.6331 48.6216C97.8069 48.6954 96.9704 48.7331 96.1252 48.7331C91.4514 48.7331 87.0469 47.5816 83.1794 45.5469C85.2139 49.4146 86.3654 53.8191 86.3654 58.4929C86.3654 59.3381 86.3277 60.1749 86.2539 61.0009C85.6177 60.4689 84.9994 59.9041 84.4017 59.3064C81.0969 56.0016 78.7967 52.0729 77.5004 47.8994C76.2042 52.0729 73.9039 56.0016 70.5992 59.3064C70.0014 59.9041 69.3832 60.4689 68.7469 61.0009C68.6732 60.1746 68.6354 59.3381 68.6354 58.4929C68.6354 53.8194 69.7869 49.4146 71.8214 45.5469C67.9539 47.5814 63.5492 48.7331 58.8757 48.7331C58.0302 48.7331 57.1937 48.6954 56.3677 48.6216C56.8997 47.9854 57.4644 47.3669 58.0624 46.7691C61.3672 43.4644 65.2959 41.1641 69.4694 39.8679C65.2959 38.5716 61.3672 36.2714 58.0624 32.9666C57.4647 32.3689 56.8999 31.7506 56.3677 31.1141C57.1939 31.0404 58.0304 31.0026 58.8757 31.0026C63.5494 31.0026 67.9539 32.1541 71.8214 34.1889C69.7869 30.3211 68.6354 25.9166 68.6354 21.2429C68.6354 20.3976 68.6732 19.5609 68.7469 18.7349C69.3832 19.2669 70.0014 19.8316 70.5992 20.4294C73.9039 23.7341 76.2042 27.6629 77.5004 31.8364C78.7967 27.6629 81.0969 23.7341 84.4017 20.4294C84.9994 19.8316 85.6177 19.2669 86.2539 18.7349C86.3277 19.5611 86.3654 20.3976 86.3654 21.2429C86.3654 25.9164 85.2139 30.3211 83.1794 34.1889C87.0469 32.1544 91.4517 31.0026 96.1252 31.0026C96.9706 31.0026 97.8071 31.0404 98.6331 31.1141C98.1011 31.7504 97.5364 32.3689 96.9384 32.9666C93.6337 36.2714 89.7049 38.5716 85.5314 39.8679C89.7049 41.1641 93.6337 43.4644 96.9384 46.7691Z" fill="#FFCAD4"/>
<path d="M54.6553 41.0374C55.3698 40.6159 56.109 40.2227 56.8725 39.8597C61.0933 37.8527 65.5658 37.0012 69.9323 37.1779C66.434 34.5587 63.5025 31.0754 61.4958 26.8547C61.1328 26.0912 60.8078 25.3194 60.5195 24.5417C61.3228 24.7489 62.1235 24.9934 62.92 25.2767C67.3238 26.8419 71.0883 29.4024 74.051 32.6149C73.4295 28.2892 73.8198 23.7532 75.3853 19.3497C75.6685 18.5532 75.9843 17.7777 76.3305 17.0239C76.7518 17.7384 77.1453 18.4777 77.5083 19.2409C79.5153 23.4617 80.3668 27.9339 80.1903 32.3007C82.8095 28.8024 86.2928 25.8709 90.5135 23.8639C91.277 23.5009 92.0488 23.1759 92.8265 22.8877C92.6193 23.6909 92.3748 24.4917 92.0915 25.2884C90.526 29.6922 87.9658 33.4567 84.7533 36.4194C89.079 35.7979 93.6148 36.1882 98.0185 37.7537C98.815 38.0369 99.5908 38.3527 100.345 38.6989C99.63 39.1204 98.8908 39.5137 98.1273 39.8767C93.9065 41.8837 89.434 42.7352 85.0675 42.5584C88.5658 45.1777 91.4973 48.6612 93.504 52.8817C93.867 53.6452 94.192 54.4169 94.4803 55.1947C93.677 54.9874 92.8763 54.7429 92.0798 54.4597C87.676 52.8944 83.9115 50.3339 80.9488 47.1214C81.5703 51.4472 81.18 55.9832 79.6145 60.3867C79.3313 61.1832 79.0155 61.9587 78.6693 62.7124C78.248 61.9979 77.8545 61.2587 77.4915 60.4954C75.4845 56.2747 74.633 51.8024 74.8095 47.4357C72.1903 50.9339 68.707 53.8654 64.4863 55.8724C63.7228 56.2354 62.951 56.5604 62.1733 56.8487C62.3805 56.0454 62.625 55.2447 62.9083 54.4479C64.4738 50.0442 67.034 46.2797 70.2465 43.3169C65.9208 43.9384 61.385 43.5482 56.9813 41.9827C56.1848 41.6994 55.409 41.3837 54.6553 41.0374Z" fill="#FFF5F5"/>
<path d="M77.5 33.6179C80.9517 33.6179 83.75 36.4162 83.75 39.8679C83.75 43.3197 80.9517 46.1179 77.5 46.1179C74.0482 46.1179 71.25 43.3197 71.25 39.8679C71.25 36.4162 74.0482 33.6179 77.5 33.6179Z" fill="#958FCA"/>
<path d="M77.5 36.7429C79.226 36.7429 80.625 38.1419 80.625 39.8679C80.625 41.5939 79.226 42.9929 77.5 42.9929C75.774 42.9929 74.375 41.5939 74.375 39.8679C74.375 38.1419 75.774 36.7429 77.5 36.7429Z" fill="#51489A"/>
<path d="M34.3354 19.4982C34.2587 19.3889 34.1834 19.2797 34.1097 19.1702C31.7517 15.6689 36.9482 12.0137 39.4462 15.4164C39.5244 15.5229 39.6019 15.6307 39.6787 15.7399C42.1352 19.2319 43.0677 22.9667 42.1312 24.9039C39.9914 25.1304 36.7919 22.9904 34.3354 19.4982Z" fill="#FFCAD4"/>
<path d="M52.3436 101.368V127.809C43.4839 126.179 35.2631 122.724 28.0851 117.848V116.028V88.7104C28.0851 86.8124 27.3656 84.9852 26.0716 83.5969L4.86485 60.8442C1.1026 56.8077 -0.615153 51.2767 0.198847 45.8189L1.8021 35.0677C1.9861 33.8332 3.0171 32.9009 4.26385 32.8419C5.24235 32.7954 6.1646 33.2999 6.65335 34.1489L12.4131 44.1527C13.4251 45.9104 14.6643 47.5274 16.0986 48.9617L29.6611 62.5242C30.1581 63.0212 30.8321 63.3004 31.5349 63.3004C33.7134 63.3004 34.9613 60.8177 33.6614 59.0694L24.6044 46.8894C22.9991 44.9167 23.2026 42.0364 25.0691 40.3092C25.6861 39.7382 26.6394 39.7407 27.2536 40.3144L47.4766 58.8412C50.5781 61.6824 52.3441 65.6954 52.3441 69.9014V101.368H52.3436ZM59.6831 128.725C61.1099 128.82 62.5494 128.868 64.0004 128.868C71.6409 128.868 78.9686 127.529 85.7621 125.073L88.3756 115.268L88.7709 113.785C89.2596 111.951 90.4256 110.371 92.0336 109.363L118.385 92.8397C123.06 89.9084 126.144 85.0064 126.764 79.5232L127.984 68.7217C128.137 67.3637 127.216 66.0939 125.828 65.8509C124.971 65.7009 124.098 66.0159 123.485 66.6325L115.391 74.7672C113.96 76.2049 112.346 77.4482 110.591 78.4647L94.0603 88.0372C93.4251 88.4052 92.6664 88.5325 91.9586 88.3372C89.8729 87.7622 89.3174 85.0569 91.0173 83.7077L102.906 74.2715C104.965 72.7787 105.51 69.9432 104.152 67.7934C103.702 67.0829 102.781 66.8397 102.04 67.2359L77.7271 79.9289C73.9986 81.8754 71.2586 85.2982 70.1751 89.3624L63.3381 115.013L59.6831 128.725Z" fill="#FFBEAA"/>
<path d="M24.6038 46.8892C22.9985 44.9164 23.202 42.0362 25.0685 40.3089C25.4918 39.9174 26.073 39.7954 26.5945 39.9427C26.0078 41.4629 26.2685 43.2427 27.404 44.5462L36.2845 55.6852C37.5593 57.2839 36.467 59.6524 34.4235 59.7211C34.2853 59.7259 34.1475 59.7187 34.0123 59.7006C33.9275 59.4837 33.8113 59.2714 33.6608 59.0689L24.6038 46.8892ZM28.0848 117.848C30.1848 119.274 32.3743 120.579 34.6428 121.752V86.4784C34.6428 84.4689 33.8808 82.5339 32.5108 81.0639L10.0555 56.9717C6.07177 52.6974 4.25302 46.8409 5.11477 41.0619L6.22802 33.5967C5.71527 33.0882 5.00552 32.8064 4.26327 32.8417C3.01652 32.9009 1.98552 33.8329 1.80152 35.0674L0.198273 45.8187C-0.615477 51.2764 1.10202 56.8074 4.86427 60.8439L26.071 83.5966C27.365 84.9849 28.0845 86.8124 28.0845 88.7101V117.848H28.0848ZM93.9218 88.1104C93.0638 89.6384 93.267 91.2849 95.1383 91.7324C95.8888 91.9119 96.681 91.7506 97.335 91.3414L117.516 79.6386C119.323 78.5076 127.937 67.6631 127.7 67.2124C127.336 66.5214 126.667 65.9986 125.827 65.8516C124.971 65.7016 124.098 66.0167 123.484 66.6331L115.39 74.7679C113.959 76.2056 112.346 77.4489 110.59 78.4654L93.9218 88.1104ZM69.2023 119.734L75.4578 92.5446C76.449 88.2366 79.2033 84.5424 83.0495 82.3631L104.883 69.9919C104.824 69.2334 104.584 68.4786 104.151 67.7936C103.702 67.0831 102.781 66.8399 102.039 67.2361L77.7268 79.9289C73.9983 81.8756 71.2583 85.2981 70.1748 89.3624L63.3378 115.013L59.6828 128.725C61.1095 128.82 62.5493 128.868 64 128.868C65.0455 128.868 66.085 128.843 67.118 128.793L69.2023 119.734Z" fill="#FAA68E"/>
<path d="M102.392 70.4642C100.707 71.5289 99.6399 71.3637 99.1721 70.6234C98.7041 69.8832 99.0129 68.8482 100.698 67.7834C102.382 66.7187 104.805 66.0272 105.273 66.7674C105.741 67.5074 104.077 69.3992 102.392 70.4642ZM26.0811 43.3424C27.4349 44.8052 28.5086 44.9204 29.1514 44.3254C29.7941 43.7307 29.7626 42.6512 28.4089 41.1884C27.0551 39.7257 24.8921 38.4334 24.2494 39.0282C23.6064 39.6229 24.7274 41.8797 26.0811 43.3424Z" fill="#FFEEE5"/>
<path d="M112.687 76.9805C112.82 76.9952 112.952 77.0115 113.083 77.0287C117.267 77.5837 116.56 83.8977 112.356 83.5127C112.225 83.5007 112.093 83.4872 111.96 83.4724C107.717 82.9969 104.302 81.22 103.473 79.2347C104.721 77.4822 108.444 76.505 112.687 76.9805Z" fill="#FBC1CC"/>
</g>
<defs>
<clipPath id="clip0_61_836">
<rect width="128" height="128" fill="white" transform="translate(0 0.86792)"/>
</clipPath>
</defs>
</svg>
