<svg width="1920" height="801" viewBox="0 0 1920 801" fill="none" xmlns="http://www.w3.org/2000/svg">
<g clip-path="url(#clip0_295_779)">
<path d="M-0.0790973 431.014C53.4563 431.014 96.8554 387.615 96.8554 334.079" stroke="#DFEDFB" stroke-width="18"/>
<path d="M-0.0795838 472.879C76.5773 472.879 138.72 410.736 138.72 334.079" stroke="#DFEDFB" stroke-width="18"/>
<path d="M-0.0790937 514.518C99.5748 514.518 180.36 433.733 180.36 334.079" stroke="#DFEDFB" stroke-width="18"/>
<path d="M-0.079336 556.158C122.572 556.158 222 456.73 222 334.079" stroke="#DFEDFB" stroke-width="18"/>
<path d="M-0.0793499 237.145C53.4561 237.145 96.8551 280.544 96.8551 334.08" stroke="#DFEDFB" stroke-width="18"/>
<path d="M-0.0795959 195.28C76.5773 195.28 138.72 257.422 138.72 334.079" stroke="#DFEDFB" stroke-width="18"/>
<path d="M-0.0793536 153.64C99.5746 153.64 180.36 234.425 180.36 334.079" stroke="#DFEDFB" stroke-width="18"/>
<path d="M-0.0793554 112C122.572 112 222 211.428 222 334.079" stroke="#DFEDFB" stroke-width="18"/>
<path d="M1601.14 -0.0791016C1601.14 53.4563 1644.54 96.8554 1698.08 96.8554" stroke="#DFEDFB" stroke-width="18"/>
<path d="M1559.28 -0.0795898C1559.28 76.5773 1621.42 138.72 1698.08 138.72" stroke="#DFEDFB" stroke-width="18"/>
<path d="M1517.64 -0.0791016C1517.64 99.5748 1598.43 180.36 1698.08 180.36" stroke="#DFEDFB" stroke-width="18"/>
<path d="M1476 -0.0791016C1476 122.572 1575.43 222 1698.08 222" stroke="#DFEDFB" stroke-width="18"/>
<path d="M1795.01 -0.0791016C1795.01 53.4563 1751.61 96.8554 1698.08 96.8554" stroke="#DFEDFB" stroke-width="18"/>
<path d="M1836.88 -0.0795898C1836.88 76.5773 1774.74 138.72 1698.08 138.72" stroke="#DFEDFB" stroke-width="18"/>
<path d="M1878.52 -0.0791016C1878.52 99.5748 1797.73 180.36 1698.08 180.36" stroke="#DFEDFB" stroke-width="18"/>
<path d="M1920.16 -0.0791016C1920.16 122.572 1820.73 222 1698.08 222" stroke="#DFEDFB" stroke-width="18"/>
</g>
<defs>
<clipPath id="clip0_295_779">
<rect width="1920" height="801" fill="white"/>
</clipPath>
</defs>
</svg>
