<svg width="147" height="59" viewBox="0 0 147 59" fill="none" xmlns="http://www.w3.org/2000/svg">
<path d="M12.8103 24.4901C12.3245 25.7732 11.8457 27.0002 11.3738 28.1716C11.3461 27.8509 11.3183 27.4394 11.2906 26.9374C11.2628 26.4354 11.2351 25.8846 11.2073 25.285C11.1934 24.6853 11.1795 24.0578 11.1657 23.4025C11.1518 22.7331 11.1448 22.0778 11.1448 21.4364C11.1448 19.512 11.1934 17.8385 11.2906 16.4163C11.4016 14.9939 11.5334 13.7808 11.6861 12.7768C11.8527 11.7588 12.0331 10.9222 12.2274 10.2667C12.4217 9.61142 12.616 9.10246 12.8103 8.73985C13.0046 8.36335 13.185 8.10539 13.3516 7.96599C13.532 7.81249 13.6777 7.73584 13.7887 7.73584C14.1218 7.73584 14.3925 7.88915 14.6006 8.19595C14.8227 8.50275 14.9962 8.88621 15.1211 9.34651C15.246 9.80662 15.3293 10.3156 15.3709 10.8734C15.4264 11.4171 15.4542 11.9402 15.4542 12.4422C15.4542 13.7669 15.3293 15.1124 15.0794 16.4791C14.8296 17.8457 14.5104 19.1982 14.1218 20.5368C13.7332 21.8756 13.296 23.1934 12.8103 24.4901Z" fill="#FFCAD4"/>
<path d="M29.1108 32.313C28.7638 32.592 28.3752 32.8221 27.945 33.0032C27.8756 32.7522 27.8131 32.4873 27.7576 32.2085C27.716 31.9295 27.6952 31.6646 27.6952 31.4136C27.6952 31.0093 27.7299 30.6048 27.7992 30.2005C27.8825 29.7821 28.0074 29.4056 28.174 29.071C28.3405 28.7364 28.5556 28.4643 28.8193 28.2552C29.083 28.0461 29.4022 27.9414 29.777 27.9414C30.0545 27.9414 30.2974 28.053 30.5056 28.2761C30.7138 28.4853 30.8179 28.7991 30.8179 29.2173C30.8179 29.5938 30.7485 29.9703 30.6097 30.3468C30.4709 30.7094 30.2766 31.0581 30.0268 31.3927C29.777 31.7274 29.4716 32.0342 29.1108 32.313Z" fill="#FFCAD4"/>
<path fill-rule="evenodd" clip-rule="evenodd" d="M12.5636 0.680703C5.01332 4.74329 0 12.6789 0 21.8861C0 35.2037 10.7452 46 24 46C37.2548 46 48 35.2037 48 21.8861C48 18.9466 47.4765 16.13 46.5182 13.5251C45.8654 11.7509 42.6611 12.7055 40.1264 13.5105C37.2486 14.4243 33.96 15.4685 30.6361 13.5315C28.4092 12.2336 26.7689 10.0277 25.1113 7.79859C22.1442 3.8084 17.5351 -1.99432 12.5636 0.680703ZM25.8632 33.3797C26.0082 33.1944 26.1437 33.0154 26.2699 32.8426C26.3129 33.0496 26.3647 33.2565 26.4253 33.4635C26.6334 34.1746 26.9526 34.816 27.3829 35.3878C27.8131 35.9456 28.3613 36.3987 29.0275 36.7474C29.6937 37.11 30.4848 37.2913 31.4008 37.2913C32.8303 37.2633 34.1071 36.7125 35.2313 35.6388C36.3693 34.565 37.4172 32.9685 38.3748 30.8488C38.4026 30.793 38.4234 30.7444 38.4373 30.7025C38.441 30.6876 38.4442 30.6722 38.4469 30.6561C38.4492 30.6426 38.4512 30.6287 38.4528 30.6144C38.4563 30.5828 38.4581 30.5494 38.4581 30.5142C38.4581 30.319 38.3817 30.1377 38.2291 29.9703C38.0903 29.8031 37.9029 29.7193 37.667 29.7193C37.5143 29.7193 37.3755 29.7612 37.2506 29.8448C37.1257 29.9145 37.0286 30.0261 36.9592 30.1796C36.6677 30.8349 36.3416 31.4902 35.9807 32.1458C35.6199 32.8011 35.2105 33.3938 34.7525 33.9236C34.2945 34.4534 33.7879 34.8858 33.2327 35.2206C32.6776 35.5413 32.06 35.7015 31.3799 35.7015C30.7138 35.7015 30.1517 35.583 29.6937 35.3461C29.2357 35.095 28.861 34.7674 28.5695 34.3629C29.1108 34.098 29.6174 33.7842 30.0892 33.4216C30.5611 33.059 30.9636 32.6617 31.2967 32.2294C31.6436 31.7971 31.9143 31.33 32.1086 30.828C32.3029 30.326 32.4 29.789 32.4 29.2173C32.4 28.7711 32.3237 28.3737 32.171 28.025C32.0184 27.6765 31.8171 27.3836 31.5673 27.1465C31.3175 26.8955 31.033 26.7073 30.7138 26.5818C30.4084 26.4424 30.0962 26.3727 29.777 26.3727C29.2357 26.3727 28.7361 26.4982 28.2781 26.7492C27.8339 27.0002 27.4453 27.3489 27.1123 27.7951C26.793 28.2413 26.5432 28.7642 26.3628 29.3639C26.3129 29.5436 26.2704 29.7286 26.2354 29.9184C26.1604 29.9817 26.0988 30.0617 26.0505 30.1586C25.8701 30.5351 25.6411 30.9465 25.3635 31.3927C25.086 31.8251 24.7806 32.2363 24.4475 32.6267C24.1283 33.0032 23.7883 33.3241 23.4275 33.589C23.0805 33.84 22.7405 33.9655 22.4074 33.9655C22.0188 33.9655 21.6788 33.9028 21.3873 33.7773C21.0959 33.6518 20.846 33.5052 20.6379 33.338C20.4297 33.1706 20.2631 32.9963 20.1382 32.815C20.0968 32.7549 20.0592 32.6985 20.0253 32.646C20.0042 32.6132 19.9845 32.5819 19.9664 32.5522C19.9261 32.486 19.8932 32.4271 19.8676 32.3757C19.9092 32.0411 19.93 31.6995 19.93 31.3508C19.93 30.7513 19.8606 30.1586 19.7219 29.573C19.5831 28.9874 19.368 28.4643 19.0765 28.0042C18.7851 27.5441 18.4173 27.1745 17.9731 26.8955C17.5429 26.6167 17.0294 26.4773 16.4326 26.4773C16.0857 26.4773 15.7526 26.547 15.4334 26.6864C15.128 26.8119 14.8504 27.0002 14.6006 27.2512C14.3647 27.4883 14.1773 27.781 14.0385 28.1297C13.8998 28.4643 13.8304 28.8339 13.8304 29.2384C13.8304 29.4894 13.872 29.7612 13.9553 30.0541C14.0385 30.3468 14.1565 30.6258 14.3092 30.8907C14.4618 31.1417 14.6423 31.3508 14.8504 31.5182C15.0725 31.6856 15.3223 31.7693 15.5999 31.7693C15.7942 31.7693 15.9677 31.6995 16.1203 31.5601C16.2869 31.4205 16.3702 31.2323 16.3702 30.9954C16.3702 30.7025 16.2522 30.4723 16.0163 30.3051C15.7803 30.1516 15.6207 29.9773 15.5374 29.7821C15.4542 29.5869 15.4125 29.3917 15.4125 29.1965C15.4125 29.1546 15.4195 29.071 15.4334 28.9455C15.4472 28.82 15.4889 28.6945 15.5583 28.569C15.6277 28.4295 15.7317 28.311 15.8705 28.2133C16.0093 28.1019 16.2036 28.0461 16.4534 28.0461C16.7865 28.0461 17.071 28.1436 17.307 28.3388C17.5429 28.534 17.7372 28.7922 17.8899 29.1129C18.0564 29.4197 18.1744 29.7751 18.2438 30.1796C18.3271 30.57 18.3687 30.9604 18.3687 31.3508C18.3687 31.9367 18.2785 32.5084 18.0981 33.066C17.9315 33.6238 17.6956 34.1258 17.3902 34.572C17.0849 35.0043 16.7241 35.36 16.3077 35.6388C15.8914 35.9039 15.4472 36.0363 14.9754 36.0363C14.5035 36.0363 14.0871 35.8967 13.7263 35.6179C13.3654 35.325 13.0532 34.9416 12.7895 34.4675C12.5258 33.9794 12.3106 33.4286 12.1441 32.815C11.9776 32.1875 11.8527 31.5321 11.7694 30.8488C12.38 29.4824 12.9976 28.0391 13.6222 26.519C14.2467 24.9852 14.8088 23.4303 15.3084 21.8546C15.822 20.265 16.2383 18.6753 16.5575 17.0855C16.8767 15.4959 17.0363 13.9551 17.0363 12.463C17.0363 11.5287 16.9669 10.6712 16.8282 9.89022C16.6894 9.10941 16.4812 8.44695 16.2036 7.90324C15.9399 7.34543 15.6068 6.91313 15.2044 6.60632C14.8158 6.29952 14.3647 6.14621 13.8512 6.14621C13.532 6.14621 13.2058 6.21591 12.8727 6.35532C12.5396 6.49472 12.2135 6.75963 11.8943 7.15023C11.5751 7.52673 11.2697 8.0635 10.9783 8.76071C10.7007 9.44402 10.4509 10.3434 10.2288 11.459C10.0207 12.5607 9.85412 13.9063 9.72922 15.4959C9.60431 17.0716 9.54186 18.9403 9.54186 21.1016C9.54186 22.2311 9.55574 23.4234 9.58349 24.6784C9.61125 25.9334 9.68064 27.1745 9.79167 28.4016C9.91658 29.6288 10.0901 30.8 10.3121 31.9156C10.5342 33.0312 10.8395 34.0144 11.2281 34.8649C11.6306 35.7015 12.1302 36.3709 12.727 36.8729C13.3238 37.3749 14.0455 37.6259 14.8921 37.6259C15.3501 37.6259 15.7942 37.5423 16.2244 37.3749C16.6686 37.2075 17.0849 36.9704 17.4735 36.6638C17.8621 36.3709 18.216 36.0222 18.5352 35.6179C18.8544 35.2136 19.1251 34.7674 19.3471 34.2793C19.6663 34.6 20.0758 34.8929 20.5754 35.1578C21.075 35.4088 21.6857 35.5343 22.4074 35.5343C22.8515 35.5343 23.2817 35.4297 23.6981 35.2206C24.1145 35.0113 24.5031 34.7463 24.8639 34.4256C25.2248 34.1049 25.5578 33.7562 25.8632 33.3797Z" fill="#FFCAD4"/>
<path d="M75.3801 31.7051C75.3398 31.7853 75.2523 31.9524 75.1177 32.2065C74.9831 32.4471 74.8082 32.7346 74.5929 33.0688C74.3776 33.3897 74.1219 33.7373 73.8258 34.1117C73.5297 34.4727 73.2068 34.8069 72.8569 35.1144C72.507 35.4219 72.1302 35.676 71.7265 35.8765C71.3227 36.0771 70.9056 36.1774 70.4749 36.1774C69.7752 36.1774 69.183 36.057 68.6986 35.8164C68.2141 35.5623 67.8171 35.2816 67.5076 34.974C67.2923 35.442 67.0299 35.8698 66.7203 36.2576C66.4108 36.6453 66.0677 36.9796 65.6909 37.2603C65.3141 37.5545 64.9103 37.7818 64.4797 37.9422C64.0625 38.1026 63.6319 38.1829 63.1878 38.1829C62.3669 38.1829 61.6671 37.9422 61.0885 37.4609C60.5098 36.9796 60.0253 36.3378 59.6351 35.5356C59.2583 34.72 58.9622 33.7774 58.7469 32.7078C58.5316 31.6382 58.3633 30.5151 58.2422 29.3386C58.1346 28.162 58.0673 26.9721 58.0404 25.7688C58.0135 24.5655 58 23.4223 58 22.3394C58 20.267 58.0606 18.4754 58.1817 16.9646C58.3028 15.4404 58.4643 14.1502 58.6661 13.094C58.8815 12.0244 59.1237 11.162 59.3928 10.5069C59.6754 9.83838 59.9715 9.32363 60.281 8.96264C60.5905 8.58828 60.9068 8.33425 61.2298 8.20055C61.5527 8.06685 61.869 8 62.1785 8C62.6764 8 63.1138 8.14707 63.4906 8.44121C63.8808 8.73535 64.2038 9.14982 64.4595 9.68463C64.7287 10.2061 64.9305 10.8411 65.0651 11.5899C65.1997 12.3386 65.267 13.1608 65.267 14.0566C65.267 15.4872 65.1122 16.9646 64.8027 18.4888C64.4932 20.013 64.0894 21.5372 63.5915 23.0613C63.1071 24.5722 62.562 26.0629 61.9565 27.5336C61.3509 28.991 60.752 30.3748 60.1599 31.685C60.2406 32.3401 60.3618 32.9685 60.5232 33.5702C60.6847 34.1585 60.8933 34.6866 61.149 35.1545C61.4047 35.6091 61.7075 35.9768 62.0574 36.2576C62.4073 36.525 62.811 36.6587 63.2685 36.6587C63.7261 36.6587 64.1567 36.5317 64.5604 36.2776C64.9642 36.0102 65.3141 35.6693 65.6101 35.2548C65.9062 34.827 66.135 34.3457 66.2964 33.8109C66.4714 33.2761 66.5589 32.7279 66.5589 32.1663C66.5589 31.792 66.5185 31.4176 66.4377 31.0433C66.3705 30.6555 66.2561 30.3146 66.0946 30.0204C65.9465 29.7129 65.7581 29.4656 65.5294 29.2784C65.3006 29.0912 65.0247 28.9976 64.7017 28.9976C64.4595 28.9976 64.2711 29.0511 64.1365 29.1581C64.002 29.2517 63.901 29.3653 63.8337 29.499C63.7665 29.6193 63.7261 29.7397 63.7126 29.86C63.6992 29.9803 63.6924 30.0606 63.6924 30.1007C63.6924 30.2878 63.7328 30.475 63.8136 30.6622C63.8943 30.8494 64.0491 31.0165 64.2778 31.1636C64.5066 31.324 64.621 31.5446 64.621 31.8254C64.621 32.0527 64.5403 32.2332 64.3788 32.3669C64.2307 32.5006 64.0625 32.5674 63.8741 32.5674C63.605 32.5674 63.3627 32.4872 63.1474 32.3268C62.9456 32.1663 62.7706 31.9658 62.6226 31.7251C62.4746 31.4711 62.3602 31.2037 62.2794 30.9229C62.1987 30.6422 62.1583 30.3814 62.1583 30.1408C62.1583 29.753 62.2256 29.3987 62.3602 29.0779C62.4947 28.7436 62.6764 28.4628 62.9052 28.2355C63.1474 27.9949 63.4166 27.8144 63.7126 27.6941C64.0222 27.5604 64.3451 27.4935 64.6816 27.4935C65.2602 27.4935 65.7581 27.6272 66.1753 27.8946C66.606 28.162 66.9626 28.5163 67.2452 28.9575C67.5278 29.3987 67.7364 29.9001 67.8709 30.4617C68.0055 31.0232 68.0728 31.5914 68.0728 32.1663C68.0728 32.5006 68.0526 32.8282 68.0122 33.149C68.0661 33.256 68.1535 33.3964 68.2747 33.5702C68.3958 33.744 68.5573 33.9111 68.7591 34.0716C68.961 34.232 69.2032 34.3724 69.4858 34.4927C69.7684 34.6131 70.0981 34.6732 70.4749 34.6732C70.7979 34.6732 71.1276 34.5529 71.464 34.3122C71.8139 34.0582 72.1436 33.7507 72.4532 33.3897C72.7761 33.0153 73.0722 32.6209 73.3413 32.2065C73.6105 31.7786 73.8325 31.3842 74.0075 31.0232C74.0748 30.8895 74.169 30.7892 74.2901 30.7224C74.4112 30.6422 74.5458 30.602 74.6938 30.602C74.9226 30.602 75.1043 30.6823 75.2388 30.8427C75.3869 31.0031 75.4609 31.1836 75.4609 31.3842C75.4609 31.4644 75.434 31.5714 75.3801 31.7051ZM59.7764 29.118C60.2339 27.9949 60.6982 26.8183 61.1692 25.5883C61.6402 24.3449 62.0641 23.0814 62.4409 21.7979C62.8177 20.5144 63.1272 19.2175 63.3695 17.9072C63.6117 16.5969 63.7328 15.3067 63.7328 14.0366C63.7328 13.5552 63.7059 13.0539 63.6521 12.5324C63.6117 11.9976 63.531 11.5096 63.4098 11.0684C63.2887 10.6272 63.1205 10.2595 62.9052 9.9654C62.7033 9.67125 62.4409 9.52418 62.1179 9.52418C62.0103 9.52418 61.869 9.59772 61.694 9.74479C61.5325 9.87849 61.3576 10.1258 61.1692 10.4868C60.9808 10.8344 60.7924 11.3225 60.604 11.9508C60.4156 12.5792 60.2406 13.3814 60.0792 14.3575C59.9311 15.3201 59.8033 16.4833 59.6956 17.847C59.6014 19.2108 59.5543 20.8152 59.5543 22.6602C59.5543 23.2753 59.561 23.9037 59.5745 24.5454C59.588 25.1738 59.6014 25.7755 59.6149 26.3504C59.6418 26.9253 59.6687 27.4534 59.6956 27.9347C59.7225 28.416 59.7495 28.8105 59.7764 29.118Z" fill="#19305C"/>
<path d="M85.5135 31.7051C85.3655 32.0126 85.1771 32.3803 84.9483 32.8081C84.733 33.2226 84.484 33.6571 84.2014 34.1117C83.9188 34.5663 83.6026 35.0208 83.2527 35.4754C82.9028 35.9166 82.5192 36.3177 82.1021 36.6787C81.6983 37.0263 81.261 37.3071 80.79 37.521C80.3324 37.7483 79.8412 37.862 79.3164 37.862C78.509 37.862 77.8159 37.6146 77.2372 37.1199C76.6586 36.6252 76.1674 35.9768 75.7637 35.1746C75.3599 34.3724 75.0302 33.4632 74.7746 32.4471C74.5323 31.4176 74.3439 30.3748 74.2093 29.3185C74.0748 28.2489 73.9806 27.2127 73.9267 26.21C73.8864 25.2072 73.8662 24.3181 73.8662 23.5427C73.8662 22.4196 73.8998 21.2564 73.9671 20.0531C74.0479 18.8498 74.169 17.6732 74.3305 16.5234C74.4919 15.3736 74.6938 14.2839 74.936 13.2544C75.1917 12.2249 75.4878 11.3225 75.8242 10.547C76.1741 9.77153 76.5711 9.15651 77.0152 8.70193C77.4593 8.24735 77.9639 8.02005 78.5291 8.02005C78.9732 8.02005 79.3702 8.12702 79.7201 8.34094C80.0835 8.54149 80.3863 8.87574 80.6285 9.34369C80.8707 9.81164 81.0591 10.42 81.1937 11.1687C81.3283 11.9174 81.3956 12.8333 81.3956 13.9162C81.3956 15.2532 81.2543 16.637 80.9716 18.0676C80.689 19.4849 80.3055 20.9155 79.821 22.3594C79.3366 23.8034 78.7646 25.2473 78.1052 26.6913C77.4458 28.1219 76.7393 29.5191 75.9857 30.8828C76.3221 32.5808 76.773 33.9178 77.3382 34.8938C77.9034 35.8565 78.583 36.3378 79.377 36.3378C79.9152 36.3378 80.4334 36.1306 80.9313 35.7161C81.4292 35.2882 81.8867 34.7869 82.3039 34.212C82.7211 33.637 83.0844 33.0554 83.394 32.4672C83.7169 31.8655 83.9659 31.3842 84.1408 31.0232C84.2081 30.8895 84.3023 30.7892 84.4235 30.7224C84.5446 30.6422 84.6791 30.602 84.8272 30.602C85.0559 30.602 85.2376 30.6823 85.3722 30.8427C85.5202 31.0031 85.5942 31.1836 85.5942 31.3842C85.5942 31.4644 85.5673 31.5714 85.5135 31.7051ZM75.4003 23.6429C75.4003 24.4986 75.4205 25.3209 75.4609 26.1097C75.5012 26.8985 75.5551 27.654 75.6224 28.3759C76.1876 27.293 76.7259 26.1431 77.2372 24.9265C77.7486 23.6964 78.1994 22.4597 78.5897 21.2163C78.98 19.9595 79.2895 18.7161 79.5183 17.486C79.7605 16.2426 79.8816 15.0594 79.8816 13.9363C79.8816 12.3586 79.7538 11.2289 79.4981 10.547C79.2424 9.86512 78.8992 9.52418 78.4686 9.52418C78.186 9.52418 77.9101 9.71805 77.641 10.1058C77.3853 10.4935 77.143 11.0216 76.9143 11.6901C76.6855 12.3586 76.4769 13.1475 76.2885 14.0566C76.1001 14.9658 75.9386 15.9418 75.804 16.9847C75.6829 18.0275 75.582 19.1172 75.5012 20.2536C75.434 21.3901 75.4003 22.5199 75.4003 23.6429Z" fill="#19305C"/>
<path d="M93.4668 35.0543C93.1303 35.0543 92.8343 35.0275 92.5786 34.974C92.3767 35.3751 92.1345 35.7495 91.8519 36.0971C91.5693 36.4314 91.2396 36.7255 90.8628 36.9796C90.4994 37.2336 90.089 37.4341 89.6314 37.5812C89.1739 37.7283 88.676 37.8018 88.1377 37.8018C87.5052 37.8018 86.9265 37.6882 86.4017 37.4609C85.8768 37.247 85.4193 36.9461 85.029 36.5584C84.6388 36.1573 84.336 35.6827 84.1207 35.1345C83.9053 34.5729 83.7977 33.9579 83.7977 33.2894C83.7977 32.4337 83.9524 31.6917 84.262 31.0633C84.5715 30.4216 84.9281 29.8934 85.3318 29.479C85.7355 29.0511 86.1393 28.7369 86.543 28.5364C86.9467 28.3225 87.2495 28.2155 87.4513 28.2155C87.6801 28.2155 87.8483 28.2757 87.956 28.396C88.0771 28.5163 88.1377 28.6768 88.1377 28.8773C88.1377 29.1046 88.0637 29.2784 87.9156 29.3987C87.7811 29.5057 87.6061 29.6127 87.3908 29.7196C87.1755 29.8266 86.9467 29.9803 86.7045 30.1809C86.4622 30.3681 86.2335 30.6087 86.0181 30.9029C85.8163 31.197 85.6481 31.5446 85.5135 31.9457C85.3789 32.3468 85.3116 32.7947 85.3116 33.2894C85.3116 33.7306 85.3789 34.1451 85.5135 34.5328C85.6481 34.9072 85.8432 35.2348 86.0989 35.5155C86.3546 35.7829 86.6574 35.9969 87.0073 36.1573C87.3571 36.3044 87.7474 36.3779 88.178 36.3779C88.9451 36.3779 89.5776 36.2041 90.0755 35.8565C90.5869 35.4955 90.9772 35.0409 91.2463 34.4927C90.4523 34.0783 89.7997 33.49 89.2883 32.7279C88.7769 31.9658 88.5212 31.1101 88.5212 30.1608C88.5212 29.3987 88.7029 28.777 89.0662 28.2957C89.443 27.8144 89.9342 27.5737 90.5398 27.5737C90.9031 27.5737 91.2463 27.6606 91.5693 27.8344C91.8923 28.0083 92.1749 28.2823 92.4171 28.6567C92.6728 29.0311 92.8746 29.5124 93.0227 30.1007C93.1707 30.689 93.2447 31.3909 93.2447 32.2065C93.2447 32.6343 93.1909 33.0822 93.0832 33.5501C93.164 33.5635 93.2447 33.5702 93.3255 33.5702C93.4062 33.5702 93.4937 33.5702 93.5879 33.5702C94.0454 33.5702 94.4559 33.5167 94.8192 33.4098C95.1826 33.3028 95.5123 33.1424 95.8083 32.9284C96.1044 32.7145 96.3668 32.4404 96.5956 32.1062C96.8378 31.7719 97.0666 31.3842 97.2819 30.943C97.3223 30.8628 97.4098 30.7892 97.5443 30.7224C97.6789 30.6422 97.8135 30.602 97.9481 30.602C98.123 30.602 98.2845 30.6756 98.4325 30.8227C98.594 30.9564 98.6748 31.1368 98.6748 31.3641C98.6748 31.4711 98.6478 31.5914 98.594 31.7251C98.5402 31.8455 98.4864 31.9591 98.4325 32.0661C98.2037 32.4672 97.9346 32.8549 97.6251 33.2293C97.329 33.5902 96.9724 33.9111 96.5552 34.1919C96.1515 34.4593 95.694 34.6732 95.1826 34.8337C94.6712 34.9941 94.0993 35.0676 93.4668 35.0543ZM90.015 30.0004C90.015 30.2544 90.0486 30.5218 90.1159 30.8026C90.1832 31.0834 90.2841 31.3641 90.4187 31.6449C90.5667 31.9123 90.7417 32.173 90.9435 32.4271C91.1588 32.6677 91.4078 32.875 91.6904 33.0488C91.7308 32.768 91.751 32.4939 91.751 32.2265C91.751 31.8655 91.724 31.4978 91.6702 31.1235C91.6164 30.7491 91.5356 30.4082 91.428 30.1007C91.3338 29.7798 91.2127 29.5258 91.0646 29.3386C90.9166 29.138 90.7417 29.0378 90.5398 29.0378C90.4591 29.0378 90.3514 29.0979 90.2168 29.2182C90.0823 29.3386 90.015 29.5993 90.015 30.0004Z" fill="#19305C"/>
<path d="M104.549 39.2257C107.079 35.9501 108.835 33.2293 109.817 31.0633C109.885 30.9162 109.972 30.8093 110.08 30.7424C110.201 30.6622 110.336 30.6221 110.484 30.6221C110.712 30.6221 110.901 30.7023 111.049 30.8628C111.197 31.0098 111.271 31.1836 111.271 31.3842C111.271 31.4778 111.251 31.5714 111.21 31.665C110.618 33.002 109.777 34.4927 108.687 36.1372C107.597 37.7818 106.218 39.6402 104.549 41.7125C104.549 42.5549 104.556 43.3972 104.569 44.2395C104.583 45.0818 104.589 46.0043 104.589 47.0071C104.589 48.0098 104.562 48.9992 104.509 49.9752C104.468 50.9646 104.387 51.9005 104.266 52.7829C104.145 53.6787 103.977 54.501 103.762 55.2497C103.56 56.0118 103.291 56.6669 102.954 57.2151C102.631 57.7766 102.234 58.2112 101.763 58.5187C101.306 58.8396 100.761 59 100.128 59C99.2265 59 98.5335 58.6591 98.049 57.9772C97.5645 57.2953 97.3223 56.326 97.3223 55.0692C97.3223 54.4007 97.3829 53.672 97.504 52.8832C97.6385 52.1077 97.8269 51.3055 98.0692 50.4766C98.3114 49.6477 98.6007 48.8054 98.9372 47.9497C99.2871 47.1074 99.6706 46.2851 100.088 45.4829C100.505 44.6807 100.956 43.9119 101.44 43.1766C101.938 42.4412 102.463 41.7727 103.015 41.1711C103.028 40.2352 103.035 39.3059 103.035 38.3834C103.048 37.4609 103.069 36.6119 103.095 35.8364C102.692 36.3445 102.207 36.7456 101.642 37.0397C101.09 37.3339 100.539 37.4809 99.9868 37.4809C99.5158 37.4809 99.0852 37.394 98.6949 37.2202C98.3181 37.033 97.9952 36.779 97.726 36.4581C97.4569 36.1239 97.2483 35.7361 97.1002 35.2949C96.9522 34.8537 96.8782 34.3724 96.8782 33.851C96.8782 32.8081 97.0531 31.8923 97.403 31.1034C97.7664 30.3012 98.2239 29.6327 98.7757 29.0979C99.3274 28.5631 99.933 28.162 100.592 27.8946C101.265 27.6272 101.911 27.4935 102.53 27.4935C102.947 27.4935 103.331 27.547 103.681 27.654C104.031 27.7609 104.327 27.8812 104.569 28.0149C104.825 28.1486 105.02 28.2757 105.154 28.396C105.289 28.5163 105.363 28.5832 105.377 28.5965C105.525 28.757 105.599 28.9375 105.599 29.138C105.599 29.3386 105.525 29.5191 105.377 29.6795C105.228 29.8266 105.054 29.9001 104.852 29.9001C104.663 29.9001 104.482 29.8266 104.307 29.6795C104.253 29.6394 104.179 29.5859 104.085 29.5191C104.004 29.4389 103.889 29.3586 103.741 29.2784C103.607 29.1982 103.439 29.1313 103.237 29.0779C103.048 29.0244 102.82 28.9976 102.55 28.9976C102.147 28.9976 101.703 29.0912 101.218 29.2784C100.734 29.4522 100.283 29.733 99.8657 30.1207C99.4486 30.5085 99.0987 31.0098 98.8161 31.6249C98.5334 32.2265 98.3921 32.9552 98.3921 33.8109C98.3921 34.4526 98.5334 34.974 98.8161 35.3751C99.0987 35.7629 99.536 35.9567 100.128 35.9567C100.411 35.9567 100.707 35.8765 101.016 35.7161C101.339 35.5556 101.649 35.3083 101.945 34.974C102.241 34.6398 102.497 34.2186 102.712 33.7106C102.941 33.2025 103.102 32.6009 103.196 31.9056C103.223 31.7184 103.311 31.5647 103.459 31.4444C103.607 31.3107 103.782 31.2438 103.984 31.2438C104.212 31.2438 104.387 31.324 104.509 31.4845C104.643 31.6449 104.71 31.8254 104.71 32.026C104.71 32.0393 104.704 32.2466 104.69 32.6477C104.677 33.0354 104.663 33.5568 104.65 34.212C104.636 34.8671 104.616 35.6292 104.589 36.4982C104.576 37.3539 104.562 38.2631 104.549 39.2257ZM103.015 43.6178C102.382 44.4868 101.81 45.4294 101.299 46.4455C100.788 47.475 100.35 48.5112 99.9868 49.5541C99.6235 50.5969 99.3409 51.6064 99.139 52.5824C98.9506 53.5718 98.8564 54.4542 98.8564 55.2297C98.8564 55.7243 98.8968 56.1188 98.9775 56.4129C99.0717 56.707 99.1794 56.9343 99.3005 57.0948C99.4351 57.2552 99.5764 57.3622 99.7244 57.4157C99.8859 57.4691 100.034 57.4959 100.169 57.4959C100.586 57.4959 100.949 57.3287 101.259 56.9945C101.568 56.6602 101.83 56.2124 102.046 55.6508C102.261 55.1026 102.436 54.4676 102.571 53.7456C102.705 53.0236 102.806 52.2749 102.873 51.4994C102.941 50.7373 102.988 49.9752 103.015 49.2131C103.042 48.451 103.055 47.7491 103.055 47.1074C103.055 46.5324 103.055 45.9575 103.055 45.3826C103.055 44.8077 103.042 44.2194 103.015 43.6178Z" fill="#19305C"/>
<path d="M117.145 39.2257C119.675 35.9501 121.431 33.2293 122.413 31.0633C122.481 30.9162 122.568 30.8093 122.676 30.7424C122.797 30.6622 122.932 30.6221 123.08 30.6221C123.308 30.6221 123.497 30.7023 123.645 30.8628C123.793 31.0098 123.867 31.1836 123.867 31.3842C123.867 31.4778 123.847 31.5714 123.806 31.665C123.214 33.002 122.373 34.4927 121.283 36.1372C120.193 37.7818 118.814 39.6402 117.145 41.7125C117.145 42.5549 117.152 43.3972 117.165 44.2395C117.179 45.0818 117.185 46.0043 117.185 47.0071C117.185 48.0098 117.158 48.9992 117.105 49.9752C117.064 50.9646 116.983 51.9005 116.862 52.7829C116.741 53.6787 116.573 54.501 116.358 55.2497C116.156 56.0118 115.887 56.6669 115.55 57.2151C115.227 57.7766 114.83 58.2112 114.359 58.5187C113.902 58.8396 113.357 59 112.724 59C111.823 59 111.13 58.6591 110.645 57.9772C110.161 57.2953 109.918 56.326 109.918 55.0692C109.918 54.4007 109.979 53.672 110.1 52.8832C110.235 52.1077 110.423 51.3055 110.665 50.4766C110.907 49.6477 111.197 48.8054 111.533 47.9497C111.883 47.1074 112.267 46.2851 112.684 45.4829C113.101 44.6807 113.552 43.9119 114.036 43.1766C114.534 42.4412 115.059 41.7727 115.611 41.1711C115.624 40.2352 115.631 39.3059 115.631 38.3834C115.644 37.4609 115.665 36.6119 115.692 35.8364C115.288 36.3445 114.803 36.7456 114.238 37.0397C113.686 37.3339 113.135 37.4809 112.583 37.4809C112.112 37.4809 111.681 37.394 111.291 37.2202C110.914 37.033 110.591 36.779 110.322 36.4581C110.053 36.1239 109.844 35.7361 109.696 35.2949C109.548 34.8537 109.474 34.3724 109.474 33.851C109.474 32.8081 109.649 31.8923 109.999 31.1034C110.362 30.3012 110.82 29.6327 111.372 29.0979C111.923 28.5631 112.529 28.162 113.188 27.8946C113.861 27.6272 114.507 27.4935 115.126 27.4935C115.544 27.4935 115.927 27.547 116.277 27.654C116.627 27.7609 116.923 27.8812 117.165 28.0149C117.421 28.1486 117.616 28.2757 117.751 28.396C117.885 28.5163 117.959 28.5832 117.973 28.5965C118.121 28.757 118.195 28.9375 118.195 29.138C118.195 29.3386 118.121 29.5191 117.973 29.6795C117.825 29.8266 117.65 29.9001 117.448 29.9001C117.259 29.9001 117.078 29.8266 116.903 29.6795C116.849 29.6394 116.775 29.5859 116.681 29.5191C116.6 29.4389 116.486 29.3586 116.337 29.2784C116.203 29.1982 116.035 29.1313 115.833 29.0779C115.644 29.0244 115.416 28.9976 115.147 28.9976C114.743 28.9976 114.299 29.0912 113.814 29.2784C113.33 29.4522 112.879 29.733 112.462 30.1207C112.045 30.5085 111.695 31.0098 111.412 31.6249C111.13 32.2265 110.988 32.9552 110.988 33.8109C110.988 34.4526 111.13 34.974 111.412 35.3751C111.695 35.7629 112.132 35.9567 112.724 35.9567C113.007 35.9567 113.303 35.8765 113.612 35.7161C113.935 35.5556 114.245 35.3083 114.541 34.974C114.837 34.6398 115.093 34.2186 115.308 33.7106C115.537 33.2025 115.698 32.6009 115.792 31.9056C115.819 31.7184 115.907 31.5647 116.055 31.4444C116.203 31.3107 116.378 31.2438 116.58 31.2438C116.808 31.2438 116.983 31.324 117.105 31.4845C117.239 31.6449 117.306 31.8254 117.306 32.026C117.306 32.0393 117.3 32.2466 117.286 32.6477C117.273 33.0354 117.259 33.5568 117.246 34.212C117.232 34.8671 117.212 35.6292 117.185 36.4982C117.172 37.3539 117.158 38.2631 117.145 39.2257ZM115.611 43.6178C114.978 44.4868 114.406 45.4294 113.895 46.4455C113.384 47.475 112.946 48.5112 112.583 49.5541C112.22 50.5969 111.937 51.6064 111.735 52.5824C111.547 53.5718 111.452 54.4542 111.452 55.2297C111.452 55.7243 111.493 56.1188 111.574 56.4129C111.668 56.707 111.775 56.9343 111.897 57.0948C112.031 57.2552 112.172 57.3622 112.32 57.4157C112.482 57.4691 112.63 57.4959 112.765 57.4959C113.182 57.4959 113.545 57.3287 113.855 56.9945C114.164 56.6602 114.427 56.2124 114.642 55.6508C114.857 55.1026 115.032 54.4676 115.167 53.7456C115.301 53.0236 115.402 52.2749 115.469 51.4994C115.537 50.7373 115.584 49.9752 115.611 49.2131C115.638 48.451 115.651 47.7491 115.651 47.1074C115.651 46.5324 115.651 45.9575 115.651 45.3826C115.651 44.8077 115.638 44.2194 115.611 43.6178Z" fill="#19305C"/>
<path d="M124.856 35.0543C125.139 35.442 125.502 35.7562 125.946 35.9969C126.39 36.2241 126.935 36.3378 127.581 36.3378C128.24 36.3378 128.839 36.184 129.378 35.8765C129.916 35.5556 130.407 35.1412 130.851 34.6331C131.295 34.125 131.692 33.5568 132.042 32.9284C132.392 32.3 132.708 31.6716 132.991 31.0433C133.058 30.8962 133.152 30.7892 133.274 30.7224C133.395 30.6422 133.529 30.602 133.677 30.602C133.906 30.602 134.088 30.6823 134.222 30.8427C134.37 31.0031 134.444 31.177 134.444 31.3641C134.444 31.431 134.438 31.4912 134.424 31.5446C134.411 31.5847 134.39 31.6315 134.364 31.685C133.435 33.7173 132.419 35.2481 131.315 36.2776C130.225 37.3071 128.987 37.8352 127.601 37.862C126.713 37.862 125.946 37.6882 125.3 37.3405C124.654 37.0063 124.123 36.5718 123.705 36.037C123.288 35.4888 122.979 34.8738 122.777 34.1919C122.575 33.51 122.474 32.8282 122.474 32.1463C122.474 31.4644 122.555 30.836 122.716 30.2611C122.891 29.6862 123.133 29.1848 123.443 28.757C123.766 28.3291 124.143 27.9949 124.573 27.7542C125.017 27.5136 125.502 27.3932 126.027 27.3932C126.336 27.3932 126.639 27.4601 126.935 27.5938C127.245 27.7141 127.521 27.8946 127.763 28.1353C128.005 28.3626 128.2 28.6433 128.348 28.9776C128.496 29.3118 128.57 29.6929 128.57 30.1207C128.57 30.6689 128.476 31.1836 128.288 31.665C128.099 32.1463 127.837 32.5942 127.5 33.0087C127.177 33.4231 126.787 33.8042 126.33 34.1518C125.872 34.4994 125.381 34.8002 124.856 35.0543ZM124.25 33.7507C124.668 33.5769 125.044 33.3563 125.381 33.0889C125.731 32.8215 126.027 32.5273 126.269 32.2065C126.511 31.8856 126.7 31.5513 126.834 31.2037C126.969 30.8427 127.036 30.4817 127.036 30.1207C127.036 29.7196 126.935 29.4188 126.733 29.2182C126.531 29.0043 126.296 28.8974 126.027 28.8974C125.663 28.8974 125.354 28.9976 125.098 29.1982C124.843 29.3987 124.634 29.6595 124.472 29.9803C124.311 30.3012 124.19 30.6622 124.109 31.0633C124.042 31.451 124.008 31.8388 124.008 32.2265C124.008 32.4672 124.028 32.7212 124.069 32.9886C124.123 33.256 124.183 33.51 124.25 33.7507Z" fill="#19305C"/>
<path d="M135.131 29.0177C135.077 29.3787 135.01 29.7196 134.929 30.0405C134.848 30.348 134.767 30.6221 134.687 30.8628C134.619 31.0901 134.559 31.2772 134.505 31.4243C134.451 31.5714 134.417 31.6516 134.404 31.665C134.269 31.9725 134.034 32.1262 133.697 32.1262C133.509 32.1262 133.334 32.0594 133.173 31.9257C133.011 31.7786 132.93 31.5981 132.93 31.3842C132.93 31.304 132.944 31.2438 132.971 31.2037C132.998 31.1636 133.038 31.0834 133.092 30.963C133.146 30.8427 133.213 30.6422 133.294 30.3614C133.374 30.0806 133.475 29.6461 133.597 29.0578C133.368 29.0578 133.132 29.0511 132.89 29.0378C132.648 29.0244 132.426 28.9776 132.224 28.8974C132.009 28.8171 131.834 28.6901 131.699 28.5163C131.564 28.3425 131.497 28.1018 131.497 27.7943C131.497 27.567 131.564 27.2595 131.699 26.8718C131.82 26.4841 131.988 26.103 132.204 25.7287C132.419 25.3543 132.661 25.0334 132.93 24.766C133.2 24.4853 133.469 24.3449 133.738 24.3449C134.047 24.3449 134.296 24.4585 134.485 24.6858C134.687 24.9131 134.841 25.1939 134.949 25.5281C135.057 25.849 135.131 26.1899 135.171 26.5509C135.225 26.9119 135.252 27.2261 135.252 27.4935C135.481 27.4935 135.703 27.4935 135.918 27.4935C136.147 27.4801 136.362 27.4735 136.564 27.4735C137.331 27.4735 137.916 27.6406 138.32 27.9748C138.724 28.3091 138.926 28.8573 138.926 29.6193C138.926 29.9269 138.905 30.2477 138.865 30.582C138.825 30.9162 138.778 31.2639 138.724 31.6249C138.67 31.9725 138.623 32.3201 138.582 32.6677C138.542 33.0153 138.522 33.3563 138.522 33.6905C138.522 34.1718 138.589 34.5729 138.724 34.8938C138.858 35.2013 139.027 35.4487 139.228 35.6359C139.43 35.823 139.646 35.9567 139.874 36.037C140.103 36.1038 140.312 36.1372 140.5 36.1372C141.079 36.1372 141.624 35.9501 142.135 35.5757C142.647 35.2013 143.118 34.7534 143.548 34.232C143.979 33.6972 144.362 33.1357 144.699 32.5474C145.049 31.9591 145.338 31.4444 145.567 31.0031C145.634 30.8828 145.728 30.7892 145.849 30.7224C145.971 30.6555 146.098 30.6221 146.233 30.6221C146.475 30.6221 146.664 30.7023 146.798 30.8628C146.933 31.0098 147 31.177 147 31.3641C147 31.4978 146.973 31.6182 146.919 31.7251C146.61 32.2733 146.246 32.895 145.829 33.5902C145.425 34.2721 144.961 34.9139 144.436 35.5155C143.912 36.1172 143.319 36.6252 142.66 37.0397C142.014 37.4542 141.301 37.6614 140.52 37.6614C140.036 37.6614 139.578 37.5678 139.148 37.3807C138.717 37.2068 138.34 36.9528 138.017 36.6186C137.708 36.2709 137.459 35.8498 137.27 35.3551C137.082 34.847 136.988 34.2788 136.988 33.6504C136.988 32.9819 137.055 32.3201 137.19 31.665C137.324 30.9965 137.391 30.3614 137.391 29.7597C137.391 29.5057 137.331 29.3185 137.21 29.1982C137.102 29.0645 136.853 28.9976 136.463 28.9976C136.275 28.9976 136.066 28.9976 135.837 28.9976C135.622 28.9976 135.386 29.0043 135.131 29.0177ZM133.778 27.5336C133.778 27.44 133.771 27.3197 133.758 27.1726C133.758 27.0122 133.745 26.8584 133.718 26.7114C133.704 26.5643 133.677 26.4373 133.637 26.3303C133.61 26.2234 133.576 26.1699 133.536 26.1699C133.496 26.1699 133.442 26.2234 133.374 26.3303C133.321 26.4239 133.26 26.5442 133.193 26.6913C133.126 26.825 133.065 26.9721 133.011 27.1325C132.957 27.293 132.917 27.4267 132.89 27.5336H133.778Z" fill="#19305C"/>
</svg>
