<svg width="128" height="129" viewBox="0 0 128 129" fill="none" xmlns="http://www.w3.org/2000/svg">
<g clip-path="url(#clip0_61_890)">
<path d="M0 64.8679C0 29.5154 28.664 0.857907 64.0188 0.867907C99.2755 0.878157 128 29.6117 128 64.8682C128 87.2872 116.473 107.014 99.0215 118.444C89.3345 112.546 77.9575 109.149 65.7872 109.149C53.1132 109.149 41.3 112.833 31.3592 119.189C30.9952 119.422 30.53 119.431 30.1635 119.202C12.0513 107.899 0 87.7907 0 64.8679H0Z" fill="#FFF2EC"/>
<path d="M120.539 70.3862C120.539 98.3442 97.8744 121.008 69.9167 121.008C41.9589 121.008 19.2942 98.3442 19.2942 70.3862C19.2942 42.4282 41.9587 19.7639 69.9167 19.7639C97.8747 19.7639 120.539 42.4282 120.539 70.3862Z" fill="#FFE5D9"/>
<path d="M108.043 62.1179H19.4575C14.932 62.1179 11.25 58.4362 11.25 53.9107V50.8679C11.25 50.1777 11.8095 49.6179 12.5 49.6179C13.1905 49.6179 13.75 50.1777 13.75 50.8679V53.9104C13.75 57.0577 16.3103 59.6179 19.4575 59.6179H108.043C111.19 59.6179 113.75 57.0577 113.75 53.9104V50.8679C113.75 50.1777 114.31 49.6179 115 49.6179C115.69 49.6179 116.25 50.1777 116.25 50.8679V53.9104C116.25 58.4362 112.568 62.1179 108.043 62.1179ZM65.25 32.7039V30.2569C65.25 26.3744 67.1722 22.6314 70.392 20.2442C73.2457 18.1282 74.869 14.7444 74.734 11.1927C74.5225 5.61917 69.9907 1.08742 64.417 0.87567C61.46 0.76342 58.6725 1.82742 56.5503 3.87042C54.427 5.91467 53.2575 8.66317 53.2575 11.6099C53.2575 12.3002 53.817 12.8599 54.5075 12.8599C55.198 12.8599 55.7575 12.3002 55.7575 11.6099C55.7575 9.34917 56.6548 7.24017 58.284 5.67142C59.9123 4.10367 62.0605 3.28767 64.322 3.37392C68.5972 3.53617 72.0732 7.01217 72.2355 11.2874C72.339 14.0139 71.0932 16.6114 68.9027 18.2357C65.0502 21.0924 62.75 25.5864 62.75 30.2572V32.7042C62.75 33.3944 63.3095 33.9542 64 33.9542C64.6905 33.9542 65.25 33.3942 65.25 32.7039Z" fill="#9D8189"/>
<path d="M71.172 39.1179C71.172 42.0304 68.811 44.3914 65.8985 44.3914H62.555C57.0758 44.3914 51.9292 47.0217 48.7197 51.4624L47.5067 53.1409C46.691 54.2697 45.383 54.9382 43.9902 54.9382H12.9683C11.329 54.9382 10 53.6092 10 51.9699C10 50.5182 11.05 49.2797 12.482 49.0417L38.4342 44.7327C39.734 44.5169 40.8652 43.7222 41.509 42.5727C44.5282 37.1824 50.2242 33.8444 56.4022 33.8444H61.8903V31.8404C61.8903 30.6172 62.8818 29.6257 64.105 29.6257C65.3283 29.6257 66.3197 30.6174 66.3197 31.8404V33.8612C69.0355 34.0762 71.172 36.3477 71.172 39.1179Z" fill="#F0AEBB"/>
<path d="M118 51.9699C118 53.6094 116.671 54.9382 115.032 54.9382H84.0099C82.6171 54.9382 81.3091 54.2697 80.4934 53.1409L79.2804 51.4624C76.0709 47.0217 70.9244 44.3914 65.4451 44.3914H62.1016C59.1891 44.3914 56.8281 42.0304 56.8281 39.1179C56.8281 36.2054 59.1891 33.8444 62.1016 33.8444H71.5976C77.7756 33.8444 83.4716 37.1827 86.4909 42.5727C87.1346 43.7222 88.2659 44.5169 89.5656 44.7327L115.518 49.0417C116.95 49.2797 118 50.5184 118 51.9699Z" fill="#FFCAD4"/>
<path d="M103.959 92.2162L97.8955 119.165C88.0667 125.314 76.4485 128.868 64 128.868C58.0195 128.868 52.2307 128.048 46.74 126.513C36.8707 123.756 29.3382 115.759 27.0887 105.762L24.041 92.2162C23.095 88.0124 24.5825 83.6327 27.8927 80.8742C30.2047 78.9474 31.668 76.1899 31.9675 73.1954L34.7767 45.1022C34.9182 43.6877 35.6857 42.4109 36.8685 41.6224L40.369 39.2887C41.323 38.6527 42.6087 39.2787 42.6967 40.4217L44.5137 64.0419C44.8167 67.9797 47.1217 71.4852 50.617 73.3239L50.7167 73.3764C59.0317 77.7527 68.969 77.7527 77.284 73.3764C80.8332 71.5084 83.1507 67.9237 83.397 63.9204L84.84 40.4699C84.911 39.3154 86.2067 38.6724 87.1692 39.3139L90.666 41.6452C91.8292 42.4207 92.5917 43.6692 92.7505 45.0582L95.9777 73.2962C96.313 76.2307 97.7662 78.9229 100.035 80.8137L100.108 80.8742C103.418 83.6327 104.905 88.0124 103.959 92.2162Z" fill="white"/>
<path d="M60.0001 117.118C60.0001 121.354 58.5956 125.261 56.2269 128.401C53.1559 128.029 50.1516 127.439 47.2306 126.648C46.7059 126.506 46.5144 124.56 45.9949 124.405C40.7361 122.835 36.5304 121.305 31.9346 118.515C31.6901 118.367 30.3469 119.317 30.1044 119.165L26.9224 105.023C30.3619 100.953 35.5041 98.3679 41.2501 98.3679C51.6054 98.3679 60.0001 106.763 60.0001 117.118ZM40.0001 82.1179C40.0001 85.5697 42.7984 88.3679 46.2501 88.3679C49.7019 88.3679 52.5001 85.5697 52.5001 82.1179C52.5001 78.6662 49.7019 75.8679 46.2501 75.8679C42.7984 75.8679 40.0001 78.6662 40.0001 82.1179Z" fill="#FFE5D9"/>
<path d="M52.4999 117.118C52.4999 121.133 50.3959 124.658 47.2304 126.648C41.1449 125 35.3219 122.471 30.1044 119.165C29.9752 118.483 29.9999 117.837 29.9999 117.118C29.9999 110.905 35.0367 105.868 41.2499 105.868C47.4632 105.868 52.4999 110.905 52.4999 117.118ZM54.9999 92.1179C54.9999 98.3312 60.0367 103.368 66.2499 103.368C72.4632 103.368 77.4999 98.3312 77.4999 92.1179C77.4999 85.9047 72.4632 80.8679 66.2499 80.8679C60.0367 80.8679 54.9999 85.9047 54.9999 92.1179Z" fill="#FFCAD4"/>
<path d="M41.25 113.368C43.321 113.368 45 115.047 45 117.118C45 119.189 43.321 120.868 41.25 120.868C39.179 120.868 37.5 119.189 37.5 117.118C37.5 115.047 39.179 113.368 41.25 113.368ZM62.5 92.1179C62.5 94.1889 64.179 95.8679 66.25 95.8679C68.321 95.8679 70 94.1889 70 92.1179C70 90.0469 68.321 88.3679 66.25 88.3679C64.179 88.3679 62.5 90.0469 62.5 92.1179ZM44.1667 82.1179C44.1667 83.2684 45.0995 84.2012 46.25 84.2012C47.4005 84.2012 48.3332 83.2684 48.3332 82.1179C48.3332 80.9674 47.4005 80.0347 46.25 80.0347C45.0995 80.0347 44.1667 80.9674 44.1667 82.1179ZM69.9167 117.868C69.9167 119.018 70.8495 119.951 72 119.951C73.1505 119.951 74.0832 119.018 74.0832 117.868C74.0832 116.717 73.1505 115.785 72 115.785C70.8495 115.785 69.9167 116.717 69.9167 117.868ZM34.5 88.2847C35.6505 88.2847 36.5832 89.2174 36.5832 90.3679C36.5832 91.5184 35.6505 92.4512 34.5 92.4512C33.3495 92.4512 32.4167 91.5184 32.4167 90.3679C32.4167 89.2174 33.3495 88.2847 34.5 88.2847Z" fill="#9D8189"/>
<path d="M90.964 118.23H88.5113C86.503 118.23 84.875 116.602 84.875 114.593V79.8102C84.875 77.8019 86.503 76.1739 88.5113 76.1739H90.964C92.9722 76.1739 94.6003 77.8019 94.6003 79.8102V114.593C94.6005 116.602 92.9725 118.23 90.964 118.23Z" fill="#19305C"/>
<path d="M109.25 118.23H89.3435V76.1737H109.25C111.321 76.1737 113 77.8527 113 79.9237V114.48C113 116.551 111.321 118.23 109.25 118.23Z" fill="#FFE5D9"/>
<path d="M100.188 45.8154V79.6499C100.188 80.3402 99.628 80.8999 98.9375 80.8999C98.247 80.8999 97.6875 80.3402 97.6875 79.6499V45.8154C97.6875 45.1252 98.247 44.5654 98.9375 44.5654C99.628 44.5654 100.188 45.1252 100.188 45.8154Z" fill="#19305C"/>
<path d="M102.109 82.3992H95.7654C94.5974 82.3992 93.6506 81.4524 93.6506 80.2844C93.6506 79.1164 94.5974 78.1697 95.7654 78.1697H102.109C103.277 78.1697 104.224 79.1164 104.224 80.2844C104.224 81.4524 103.277 82.3992 102.109 82.3992Z" fill="#9D8189"/>
<path d="M91.7478 89.2314C91.7478 88.3554 92.4578 87.6454 93.3338 87.6454H105.387C106.263 87.6454 106.973 88.3554 106.973 89.2314C106.973 90.1074 106.263 90.8174 105.387 90.8174H93.3338C92.4578 90.8174 91.7478 90.1072 91.7478 89.2314ZM105.387 93.9894H93.3338C92.4578 93.9894 91.7478 94.6994 91.7478 95.5754C91.7478 96.4514 92.4578 97.1614 93.3338 97.1614H105.387C106.263 97.1614 106.973 96.4514 106.973 95.5754C106.973 94.6994 106.263 93.9894 105.387 93.9894Z" fill="#FF956A"/>
<path d="M115.09 113.025C113.849 113.688 113.402 115.245 114.104 116.465C114.592 117.313 113.958 118.368 112.98 118.335C111.574 118.289 110.408 119.415 110.406 120.821C110.404 121.8 109.328 122.397 108.497 121.879C107.303 121.136 105.731 121.528 105.025 122.745C104.534 123.592 103.304 123.571 102.843 122.707C102.18 121.467 100.623 121.02 99.4033 121.721C98.5548 122.209 97.5 121.576 97.5325 120.597C97.579 119.192 96.4533 118.026 95.0468 118.024C94.068 118.022 93.4713 116.946 93.9885 116.115C94.7315 114.921 94.3395 113.348 93.1225 112.643C92.2758 112.152 92.297 110.922 93.1605 110.461C94.4013 109.798 94.8478 108.241 94.1465 107.021C93.6585 106.173 94.292 105.118 95.2705 105.15C96.6763 105.197 97.8418 104.071 97.8443 102.665C97.846 101.686 98.922 101.089 99.753 101.606C100.947 102.349 102.52 101.957 103.225 100.74C103.716 99.8936 104.946 99.9149 105.407 100.778C106.07 102.019 107.627 102.466 108.847 101.764C109.695 101.276 110.75 101.91 110.718 102.888C110.671 104.294 111.797 105.46 113.203 105.462C114.182 105.464 114.779 106.54 114.262 107.371C113.519 108.565 113.911 110.137 115.128 110.843C115.974 111.334 115.953 112.564 115.09 113.025Z" fill="#FFCAD4"/>
<path d="M115.09 113.025C113.849 113.688 113.402 115.245 114.104 116.465C114.592 117.313 113.958 118.368 112.98 118.335C111.574 118.289 110.408 119.415 110.406 120.821C110.404 121.8 109.328 122.397 108.497 121.879C107.837 121.468 107.06 121.405 106.379 121.636C104.205 117.739 102.966 113.249 102.966 108.469C102.966 105.555 103.427 102.749 104.279 100.118C104.722 100.109 105.168 100.331 105.407 100.779C106.07 102.019 107.627 102.466 108.847 101.765C109.695 101.277 110.75 101.91 110.718 102.889C110.671 104.294 111.797 105.46 113.203 105.462C114.182 105.464 114.779 106.54 114.262 107.371C113.519 108.565 113.911 110.138 115.128 110.843C115.974 111.334 115.953 112.564 115.09 113.025Z" fill="#FFF04A"/>
</g>
<defs>
<clipPath id="clip0_61_890">
<rect width="128" height="128" fill="white" transform="translate(0 0.86792)"/>
</clipPath>
</defs>
</svg>
