<svg width="61" height="61" viewBox="0 0 61 61" fill="none" xmlns="http://www.w3.org/2000/svg">
<rect width="61" height="61" rx="30.5" fill="white"/>
<path d="M25.691 37.18C24.755 37.18 23.897 36.916 23.117 36.388C22.349 35.86 21.737 35.116 21.281 34.156C20.825 33.184 20.597 32.044 20.597 30.736C20.597 29.428 20.819 28.294 21.263 27.334C21.719 26.374 22.331 25.636 23.099 25.12C23.867 24.592 24.713 24.328 25.637 24.328C26.585 24.328 27.443 24.592 28.211 25.12C28.979 25.636 29.585 26.374 30.029 27.334C30.485 28.294 30.713 29.434 30.713 30.754C30.713 32.062 30.485 33.202 30.029 34.174C29.585 35.134 28.979 35.878 28.211 36.406C27.455 36.922 26.615 37.18 25.691 37.18ZM25.655 35.578C26.315 35.578 26.891 35.398 27.383 35.038C27.887 34.666 28.283 34.12 28.571 33.4C28.859 32.68 29.003 31.792 29.003 30.736C29.003 29.68 28.859 28.798 28.571 28.09C28.283 27.37 27.887 26.83 27.383 26.47C26.879 26.098 26.297 25.912 25.637 25.912C24.989 25.912 24.413 26.098 23.909 26.47C23.405 26.83 23.009 27.37 22.721 28.09C22.445 28.798 22.307 29.68 22.307 30.736C22.307 31.792 22.445 32.68 22.721 33.4C23.009 34.12 23.405 34.666 23.909 35.038C24.413 35.398 24.995 35.578 25.655 35.578ZM36.0095 37.18C35.1935 37.18 34.4495 37.03 33.7775 36.73C33.1175 36.418 32.5595 35.968 32.1035 35.38L33.2555 34.228C33.5315 34.648 33.9095 34.984 34.3895 35.236C34.8695 35.476 35.4035 35.596 35.9915 35.596C36.5435 35.596 37.0175 35.494 37.4135 35.29C37.8215 35.074 38.1395 34.774 38.3675 34.39C38.6075 34.006 38.7275 33.562 38.7275 33.058C38.7275 32.542 38.6075 32.098 38.3675 31.726C38.1395 31.342 37.8155 31.048 37.3955 30.844C36.9755 30.64 36.4775 30.538 35.9015 30.538C35.6855 30.538 35.4695 30.556 35.2535 30.592C35.0375 30.616 34.8275 30.658 34.6235 30.718L35.3435 29.746C35.5715 29.638 35.8175 29.554 36.0815 29.494C36.3455 29.434 36.6095 29.404 36.8735 29.404C37.5455 29.404 38.1455 29.56 38.6735 29.872C39.2135 30.184 39.6395 30.622 39.9515 31.186C40.2755 31.75 40.4375 32.404 40.4375 33.148C40.4375 33.94 40.2455 34.642 39.8615 35.254C39.4895 35.854 38.9735 36.328 38.3135 36.676C37.6535 37.012 36.8855 37.18 36.0095 37.18ZM34.6235 30.718V29.692L38.2775 25.534L40.2935 25.516L36.5315 29.782L34.6235 30.718ZM32.6975 26.02V24.508H40.2935V25.516L38.8175 26.02H32.6975Z" fill="#19305C"/>
</svg>
