<svg width="325" height="246" viewBox="0 0 325 246" fill="none" xmlns="http://www.w3.org/2000/svg">
<g clip-path="url(#clip0_123_1233)">
<path d="M233.495 183.086L242.295 198.571C191.573 182.742 139.75 168.273 88.1971 155.547C76.8279 152.862 65.5962 149.621 54.5458 145.837L71.7278 139.409C73.5847 141.483 77.0807 142.829 80.5259 143.752C81.6743 144.06 82.8074 144.364 83.9108 144.533C94.7113 146.671 134.717 157.043 147.079 160.64C175.069 168.817 203.616 176.262 232.07 182.83L233.495 183.086Z" fill="#19305C"/>
<path d="M246.046 199.35C246.074 199.274 246.086 199.192 246.079 199.111C246.072 199.031 246.048 198.952 246.007 198.882L241.023 190.114C240.289 188.823 239.596 187.56 238.907 186.281C238.219 185.002 237.351 183.414 236.487 181.875C237.253 181.379 237.925 180.752 238.473 180.023C240.34 177.237 241.626 174.104 242.251 170.81C246.393 154.802 250.336 139.9 254.134 125.482C257.932 111.064 261.895 96.1513 266.058 80.0669C268.358 71.1769 265.819 65.0737 259.099 63.273L259.007 63.2485C254.853 62.1353 250.529 61.1073 246.051 60.0383C246.601 58.3092 246.912 56.513 246.974 54.6994C246.598 54.0269 245.093 53.4113 241.226 52.3261L240.692 52.1829C239.101 51.675 237.428 51.4707 235.762 51.5807C234.827 51.7712 233.691 56.9877 233.679 57.0335L233.646 57.1554L232.386 56.8503C220.592 54.1311 208.382 51.2515 196.232 48.0285C181.692 44.1326 167.166 40.0608 154.358 36.4819C148.178 34.7442 142.375 33.124 137.022 31.6571C137.276 30.7122 138.362 26.6584 138.003 26.1048C137.838 25.8647 137.367 25.1178 131.716 23.6036C128.875 22.8424 127.06 22.6502 126.562 23.1047C125.71 24.7412 125.103 26.4934 124.759 28.3058C112.342 24.9787 104.094 23.0138 102.008 23.2876C99.4136 23.6216 97.0865 26.8692 95.0661 32.9431C94.9191 33.4918 82.1012 88.8433 71.5451 120.725C70.1805 125.561 69.651 130.594 69.9793 135.61C63.0373 138.242 55.8712 140.977 48.9798 144.03C48.9008 144.058 48.831 144.107 48.7781 144.172V144.172C48.7463 144.239 48.7269 144.312 48.7209 144.386V144.386C44.4857 155.448 41.3211 166.89 39.2704 178.556C39.2418 178.69 39.263 178.831 39.3302 178.951C39.3973 179.071 39.5058 179.163 39.6355 179.209C58.0838 186.602 77.5307 191.552 96.3321 196.345C106.353 198.899 116.73 201.533 126.878 204.53C137.5 207.653 148.43 210.664 159.213 213.553L174.853 217.744L190.126 221.836C208.585 226.929 222.521 230.206 236.735 232.692C236.886 232.719 237.041 232.687 237.168 232.602C237.295 232.517 237.383 232.386 237.414 232.236C239.663 221.119 242.545 210.139 246.046 199.35V199.35ZM237.935 186.853C238.62 188.147 239.313 189.411 240.066 190.691L244.921 199.211C244.883 199.321 244.853 199.433 244.831 199.547L243.059 199.072L234.183 182.712C234.432 182.7 234.679 182.674 234.925 182.633C235.115 182.579 235.301 182.514 235.484 182.44C236.275 184.007 237.068 185.51 237.858 186.898L237.935 186.853ZM241.438 198.523C190.849 182.665 139.167 168.196 87.7361 155.542C76.3932 152.874 65.1915 149.638 54.1734 145.847L71.4344 139.038C73.2559 141.159 76.7389 142.517 80.1906 143.442C81.3361 143.749 82.4663 144.052 83.5528 144.212C94.3484 146.321 134.24 156.651 146.564 160.263C174.48 168.429 202.956 175.847 231.347 182.36L232.762 182.641L241.438 198.523ZM236.311 52.7079C237.708 52.7138 239.097 52.9209 240.435 53.3229L240.985 53.4703C242.702 53.8398 244.366 54.4229 245.938 55.2058C245.729 56.7741 245.401 58.3243 244.958 59.8433L234.849 57.4939C234.877 57.4199 234.897 57.3434 234.91 57.2653C235.2 55.721 235.638 54.2084 236.219 52.7484L236.311 52.7079ZM127.397 24.0799C128.781 24.1116 130.152 24.3416 131.471 24.7629C133.371 25.1594 135.214 25.7959 136.954 26.657C136.75 28.2262 136.417 29.7758 135.958 31.2903L125.97 28.6139C126.278 27.0787 126.724 25.5746 127.305 24.1204L127.397 24.0799ZM72.6263 121.21C83.1099 89.5383 95.7757 34.8157 96.1718 33.3374C98.6075 26.019 100.95 24.6702 102.137 24.5147C105.377 24.0924 126.835 30.0872 154.005 37.6777C166.828 41.2606 181.419 45.3336 195.894 49.2284C208.112 52.5023 220.284 55.3391 232.094 58.0624C241.542 60.251 250.467 62.3157 258.685 64.4524L258.776 64.477C266.993 66.6787 266.132 75.0234 264.871 79.9124C260.733 95.9053 256.786 110.822 252.972 125.236C249.159 139.65 245.227 154.571 241.089 170.564C240.5 173.721 239.282 176.727 237.509 179.405C236.816 180.436 235.779 181.188 234.582 181.528C233.557 181.646 232.518 181.551 231.53 181.25C203.215 174.757 174.693 167.327 146.823 159.173C134.408 155.536 94.5284 145.161 83.7053 143.094C77.1416 141.809 72.822 139.785 71.5689 137.375C70.086 134.479 71.5692 124.422 72.6263 121.21ZM70.1771 136.888C70.2582 137.231 70.3775 137.565 70.5328 137.882L70.6376 138.04L52.4456 145.269L50.7494 144.635C57.1416 141.856 63.7444 139.33 70.1618 136.884L70.1771 136.888ZM190.298 220.706L175.025 216.614C159.248 212.386 142.927 208.111 127.072 203.438C116.924 200.441 106.532 197.804 96.5263 195.253C77.9082 190.51 58.6599 185.613 40.4854 178.359C42.4937 167.126 45.5455 156.105 49.6011 145.438L52.2809 146.434L52.3878 146.463C63.8829 150.511 75.5897 153.931 87.4563 156.709C140.011 169.631 192.826 184.452 244.466 200.723C241.197 210.823 238.473 221.09 236.306 231.482C222.293 228.92 208.421 225.709 190.298 220.706V220.706Z" fill="#19305C"/>
<path d="M77.6582 127.57C77.2126 128.794 77.0179 130.096 77.0855 131.397C77.1532 132.698 77.4819 133.972 78.0521 135.144C78.7051 136.264 79.7572 137.096 80.9976 137.472C98.792 142.437 116.679 147.323 134.657 152.129C164.86 160.222 195.205 168.091 225.359 175.63C227.369 176.316 229.525 176.453 231.606 176.026C235.454 174.863 237.084 170.615 238.176 166.601L259.982 86.1974C260.989 82.4383 262.848 75.5008 259.756 71.8227C256.381 67.921 237.88 63.881 227.947 61.6615L227.763 61.6123C223.646 60.7221 219.621 59.6109 215.734 58.5365C211.441 57.3862 207.011 56.1991 202.47 55.179C192.476 53.1235 182.89 50.5222 172.724 47.7654L166.033 45.9725C160.258 44.4251 154.43 42.6505 148.78 40.9403C143.131 39.23 136.936 37.3572 130.898 35.7555L129.813 35.4649C123.366 33.7375 113.635 31.1299 105.317 30.7027C100.245 30.4411 90.6656 74.7479 90.5621 75.1951C86.0704 96.0526 77.7442 127.249 77.6582 127.57ZM105.226 31.956C113.445 32.3892 123.088 34.9569 129.49 36.6721L130.574 36.9627C136.548 38.5633 142.594 40.3799 148.426 42.1393C154.259 43.8986 159.904 45.6241 165.709 47.1797L172.401 48.9726C182.59 51.703 192.261 54.2941 202.208 56.4026C206.738 57.3381 211.141 58.567 215.395 59.7396C219.321 60.7916 223.355 61.8723 227.501 62.8359L227.684 62.885C236.797 64.8682 255.734 68.9923 258.861 72.5982C261.581 75.7674 259.801 82.3493 258.84 85.8751L237.03 166.294C236.039 169.992 234.565 173.904 231.272 174.889C229.395 175.246 227.457 175.105 225.651 174.48C177.586 162.469 129.025 149.621 81.2894 136.322C80.3443 136.02 79.5473 135.374 79.0564 134.512C78.098 132.427 78.0058 130.046 78.7999 127.892C78.8858 127.571 87.2509 96.3525 91.6997 75.5327C96.0664 55.264 102.919 31.829 105.226 31.956Z" fill="#19305C"/>
<path d="M179.778 191.652C178.109 189.785 175.803 188.59 173.305 188.3C170.508 187.749 167.658 187.528 164.813 187.642C164.405 186.892 163.822 186.247 163.114 185.759C162.406 185.271 161.592 184.955 160.739 184.836C159.68 184.749 158.614 184.846 157.592 185.125L157.21 185.201C153.372 186.087 149.387 186.209 145.489 185.558C141.59 184.908 137.856 183.499 134.504 181.413C133.624 180.815 132.792 180.149 132.018 179.421C129.738 177.452 126.904 174.978 124.2 174.9C123.702 174.886 123.206 174.944 122.726 175.071C119.041 172.467 109.907 169.307 105.887 172.177C104.996 172.801 104.292 173.652 103.848 174.639C103.404 175.627 103.238 176.715 103.365 177.792C103.527 178.845 103.905 179.855 104.475 180.761C105.045 181.668 105.795 182.451 106.68 183.064C108.318 184.218 110.155 185.067 112.1 185.567C113.811 186.083 115.614 186.218 117.378 185.962C117.973 187.286 118.745 188.527 119.673 189.65C124.829 195.136 131.48 199.031 138.815 200.86C144.004 202.242 149.398 202.684 154.733 202.166C157.476 201.834 160.033 200.643 162.029 198.768C163.196 199.193 164.39 199.578 165.6 199.902C167.65 200.453 169.739 200.851 171.847 201.091C173.796 201.446 175.802 201.236 177.623 200.488C178.385 200.106 179.053 199.566 179.582 198.904C180.111 198.243 180.489 197.476 180.69 196.656C180.891 195.835 180.911 194.98 180.748 194.149C180.585 193.317 180.242 192.529 179.744 191.837L179.778 191.652ZM107.417 181.967C106.671 181.439 106.036 180.771 105.549 180.002C105.062 179.234 104.733 178.379 104.579 177.487C104.486 176.62 104.626 175.746 104.986 174.954C105.345 174.161 105.911 173.478 106.626 172.973C109.885 170.612 117.596 173.082 121.407 175.462C120.216 176.051 119.155 176.866 118.285 177.86C117.648 178.645 117.184 179.553 116.922 180.527C116.661 181.502 116.609 182.52 116.769 183.519C116.824 183.922 116.903 184.321 117.007 184.715C113.587 184.914 110.194 183.937 107.406 181.948L107.417 181.967ZM154.678 200.841C136.164 202.544 123.864 192.698 120.669 188.753C119.283 187.233 118.351 185.364 117.978 183.357C117.837 182.519 117.878 181.661 118.097 180.842C118.317 180.023 118.71 179.26 119.251 178.604C119.857 177.855 120.612 177.236 121.469 176.785C122.326 176.333 123.269 176.059 124.24 175.978C124.56 175.985 124.878 176.032 125.187 176.119C127.488 177.059 129.572 178.455 131.311 180.218C132.157 180.996 133.065 181.705 134.027 182.337C141.07 186.67 149.544 188.085 157.596 186.275L157.977 186.199C158.876 185.956 159.811 185.862 160.744 185.921C161.884 186.163 162.905 186.789 163.631 187.693C164.358 188.596 164.743 189.72 164.721 190.868C164.577 196.183 159.345 200.393 154.682 200.826L154.678 200.841ZM177.113 199.267C175.512 199.904 173.758 200.079 172.053 199.772C168.986 199.419 165.968 198.724 163.054 197.7C164.789 195.832 165.783 193.407 165.854 190.865C165.851 190.134 165.717 189.409 165.46 188.721C168.03 188.668 170.6 188.901 173.121 189.416C175.345 189.663 177.402 190.716 178.896 192.37C179.296 192.923 179.571 193.554 179.701 194.22C179.832 194.886 179.815 195.571 179.651 196.228C179.478 196.885 179.161 197.495 178.724 198.018C178.286 198.54 177.738 198.961 177.117 199.252L177.113 199.267Z" fill="#19305C"/>
<path d="M176.578 197.69C175.526 198.311 174.316 198.643 173.076 198.65C171.836 198.658 170.611 198.341 169.53 197.732C169.486 197.706 169.438 197.688 169.387 197.681C169.337 197.673 169.286 197.674 169.236 197.686C169.187 197.697 169.14 197.718 169.1 197.747C169.059 197.776 169.024 197.812 168.998 197.854C168.945 197.939 168.93 198.041 168.955 198.139C168.981 198.236 169.045 198.32 169.133 198.373C169.703 198.706 170.319 198.96 170.96 199.127C171.974 199.397 173.032 199.465 174.067 199.328C175.103 199.191 176.096 198.851 176.986 198.329C177.037 198.308 177.082 198.276 177.119 198.236C177.155 198.196 177.182 198.149 177.199 198.098C177.215 198.047 177.219 197.992 177.212 197.939C177.204 197.885 177.185 197.834 177.156 197.788C177.126 197.742 177.087 197.702 177.041 197.672C176.995 197.641 176.942 197.621 176.887 197.611C176.833 197.602 176.777 197.604 176.723 197.618C176.67 197.632 176.62 197.656 176.578 197.69V197.69Z" fill="#19305C"/>
<path d="M111.647 182.323C110.576 182.014 109.587 181.467 108.745 180.72C107.903 179.973 107.228 179.042 106.766 177.99C106.75 177.936 106.725 177.886 106.69 177.843C106.655 177.8 106.613 177.765 106.564 177.74C106.516 177.715 106.463 177.701 106.409 177.698C106.354 177.696 106.3 177.704 106.248 177.724C106.143 177.76 106.055 177.837 106.002 177.938C105.949 178.04 105.935 178.158 105.964 178.268C106.465 179.458 107.212 180.513 108.151 181.359C109.09 182.206 110.2 182.823 111.403 183.169C111.51 183.193 111.623 183.174 111.719 183.115C111.815 183.056 111.887 182.962 111.921 182.852C111.95 182.742 111.938 182.626 111.887 182.527C111.836 182.429 111.75 182.355 111.647 182.323Z" fill="#19305C"/>
<path d="M139.049 197.821C135.9 197.013 132.855 195.851 129.996 194.364C129.928 194.327 129.867 194.279 129.818 194.223C129.768 194.167 129.732 194.104 129.709 194.038C129.687 193.972 129.679 193.903 129.687 193.837C129.695 193.77 129.718 193.706 129.756 193.649C129.793 193.593 129.843 193.544 129.903 193.505C129.964 193.467 130.034 193.44 130.108 193.426C130.183 193.412 130.262 193.411 130.339 193.423C130.417 193.436 130.492 193.461 130.561 193.498C136.42 196.405 142.871 198.133 149.399 198.546C149.477 198.55 149.556 198.568 149.628 198.598C149.701 198.629 149.768 198.671 149.824 198.723C149.88 198.775 149.924 198.835 149.954 198.9C149.984 198.965 149.999 199.034 149.998 199.102C149.997 199.238 149.934 199.364 149.823 199.453C149.712 199.542 149.562 199.587 149.405 199.579C145.92 199.322 142.447 198.732 139.049 197.821V197.821Z" fill="#19305C"/>
<path d="M143.915 194.983C143.153 194.779 142.359 194.567 141.464 194.236C141.405 194.228 141.347 194.212 141.294 194.187C141.24 194.163 141.193 194.131 141.155 194.094C141.117 194.058 141.089 194.017 141.074 193.974C141.059 193.932 141.057 193.89 141.067 193.851C141.078 193.811 141.101 193.776 141.135 193.747C141.169 193.718 141.214 193.697 141.265 193.684C141.316 193.671 141.373 193.667 141.432 193.673C141.49 193.678 141.549 193.693 141.603 193.716C143.804 194.526 146.13 195.025 148.432 195.182C148.484 195.181 148.537 195.189 148.588 195.203C148.64 195.218 148.688 195.24 148.731 195.267C148.774 195.295 148.81 195.327 148.837 195.363C148.864 195.399 148.881 195.437 148.888 195.474C148.906 195.549 148.884 195.62 148.826 195.672C148.769 195.725 148.68 195.755 148.579 195.755C147.025 195.682 145.449 195.421 143.915 194.983V194.983Z" fill="#19305C"/>
<path d="M159.664 189.934C159.244 189.73 158.773 189.652 158.312 189.707C157.85 189.763 157.418 189.951 157.071 190.248C156.707 190.522 156.427 190.887 156.26 191.306C156.093 191.724 156.046 192.18 156.124 192.627C156.194 193.118 156.423 193.577 156.777 193.938C157.131 194.3 157.593 194.544 158.094 194.636C158.509 194.704 158.932 194.681 159.333 194.571C159.735 194.46 160.105 194.265 160.416 193.997C160.678 193.701 160.868 193.352 160.972 192.973C161.077 192.595 161.094 192.198 161.022 191.809C160.95 191.421 160.791 191.052 160.556 190.727C160.322 190.403 160.017 190.132 159.664 189.934V189.934Z" fill="#19305C"/>
<path d="M123.624 182.16C123.425 182.451 123.299 182.781 123.256 183.128C123.214 183.475 123.254 183.83 123.376 184.17C123.497 184.509 123.697 184.825 123.96 185.095C124.224 185.366 124.546 185.585 124.904 185.737C126.46 186.354 128.707 184.97 128.24 182.473C128.073 182.106 127.813 181.777 127.482 181.514C127.15 181.251 126.758 181.062 126.338 180.962C126.063 180.874 125.775 180.835 125.489 180.847C125.204 180.86 124.927 180.924 124.675 181.035C124.423 181.146 124.201 181.303 124.02 181.496C123.84 181.689 123.705 181.915 123.624 182.16V182.16Z" fill="#19305C"/>
<path d="M172.216 192.494C171.892 192.673 171.612 192.928 171.4 193.239C171.187 193.55 171.047 193.907 170.992 194.282C170.945 194.677 171.014 195.075 171.189 195.424C171.364 195.773 171.638 196.056 171.974 196.237C172.297 196.408 172.658 196.493 173.024 196.485C173.39 196.477 173.751 196.376 174.075 196.191C174.348 196.011 174.574 195.765 174.735 195.474C174.895 195.182 174.983 194.856 174.991 194.524C175.147 192.974 172.934 192.111 172.216 192.494Z" fill="#19305C"/>
<path d="M109.262 177.725C109.258 178.105 109.344 178.478 109.511 178.811C109.678 179.144 109.922 179.426 110.221 179.633C110.511 179.839 110.854 179.951 111.208 179.955C111.563 179.959 111.913 179.855 112.218 179.656C112.603 179.365 112.897 178.96 113.061 178.495C113.359 177.744 113.416 176.918 113.222 176.143C112.798 174.279 109.313 174.733 109.262 177.725Z" fill="#19305C"/>
<path d="M231.887 223.734C231.837 223.719 231.792 223.688 231.754 223.645C231.717 223.602 231.687 223.546 231.668 223.481C231.648 223.417 231.639 223.344 231.641 223.269C231.643 223.193 231.656 223.116 231.679 223.041C233.643 216.445 235.424 209.718 236.962 203.04C236.975 202.954 237 202.87 237.037 202.793C237.074 202.716 237.121 202.648 237.174 202.594C237.228 202.54 237.287 202.501 237.348 202.479C237.408 202.458 237.469 202.454 237.525 202.469C237.581 202.484 237.632 202.518 237.674 202.566C237.715 202.615 237.747 202.679 237.766 202.753C237.785 202.827 237.792 202.909 237.785 202.994C237.779 203.079 237.759 203.164 237.728 203.245C236.178 209.969 234.389 216.726 232.416 223.353C232.364 223.489 232.281 223.603 232.184 223.673C232.086 223.744 231.981 223.765 231.887 223.734V223.734Z" fill="#19305C"/>
<path d="M229.287 222.003C229.159 221.968 229.052 221.876 228.99 221.745C228.928 221.614 228.916 221.456 228.956 221.306L230.464 215.679C230.507 215.531 230.597 215.403 230.715 215.321C230.833 215.24 230.971 215.211 231.099 215.241C231.227 215.276 231.334 215.368 231.396 215.499C231.458 215.63 231.47 215.787 231.43 215.938L229.926 221.55C229.885 221.701 229.796 221.834 229.676 221.918C229.557 222.003 229.417 222.033 229.287 222.003Z" fill="#19305C"/>
<path d="M45.306 174.776C45.1915 174.745 45.0977 174.656 45.0453 174.527C44.993 174.399 44.9863 174.242 45.0267 174.091L50.5608 152.982C50.6006 152.834 50.6827 152.703 50.7897 152.618C50.8968 152.533 51.0202 152.5 51.1338 152.526V152.526C51.2484 152.557 51.3421 152.646 51.3945 152.774C51.4469 152.903 51.4536 153.06 51.4131 153.211L45.879 174.319C45.8393 174.467 45.7571 174.598 45.6501 174.684C45.5431 174.769 45.4196 174.802 45.306 174.776Z" fill="#19305C"/>
<path d="M49.1003 175.792C48.9763 175.759 48.8726 175.67 48.8113 175.543C48.75 175.417 48.7359 175.263 48.7721 175.114C48.9852 174.319 49.2599 173.294 49.5304 172.284C49.8009 171.275 50.0633 170.296 50.2723 169.515C50.2893 169.438 50.319 169.364 50.3597 169.298C50.4005 169.231 50.4514 169.174 50.5096 169.129C50.5679 169.083 50.6323 169.051 50.6991 169.034C50.766 169.016 50.834 169.014 50.8992 169.028C51.0259 169.061 51.1328 169.15 51.1985 169.277C51.2642 169.404 51.2837 169.56 51.2532 169.713C51.036 170.523 50.7654 171.533 50.4908 172.558C50.2162 173.583 49.9579 174.547 49.7489 175.327C49.7321 175.403 49.7025 175.477 49.6619 175.542C49.6212 175.607 49.5704 175.664 49.5123 175.708C49.4542 175.752 49.3901 175.783 49.3238 175.798C49.2574 175.814 49.1902 175.814 49.1261 175.799L49.1003 175.792Z" fill="#19305C"/>
<path d="M69.6773 184.412C69.5263 184.371 69.4022 184.255 69.3313 184.087C69.2604 183.919 69.2484 183.713 69.2978 183.512C69.3224 183.412 69.362 183.317 69.4142 183.231C69.4665 183.146 69.5303 183.073 69.602 183.015C69.6736 182.958 69.7516 182.918 69.8314 182.898C69.9112 182.878 69.9911 182.878 70.0664 182.899L86.4224 186.828C86.4985 186.846 86.5688 186.883 86.6293 186.938C86.6897 186.993 86.7391 187.065 86.7745 187.149C86.8099 187.233 86.8305 187.327 86.8353 187.426C86.84 187.526 86.8287 187.629 86.802 187.728C86.7798 187.828 86.7422 187.923 86.6917 188.009C86.6412 188.094 86.5788 188.169 86.5082 188.226C86.4377 188.284 86.3606 188.325 86.2815 188.345C86.2025 188.366 86.1232 188.366 86.0486 188.346L69.6773 184.412Z" fill="#19305C"/>
<path d="M190.852 218.951C190.705 218.906 190.585 218.788 190.517 218.621C190.449 218.455 190.438 218.252 190.487 218.055C190.511 217.955 190.551 217.86 190.603 217.774C190.656 217.689 190.72 217.616 190.791 217.558C190.863 217.501 190.941 217.461 191.021 217.441C191.101 217.421 191.181 217.422 191.257 217.442L212.441 222.665C212.592 222.706 212.716 222.822 212.787 222.99C212.859 223.159 212.871 223.365 212.821 223.565C212.797 223.665 212.757 223.761 212.705 223.846C212.652 223.931 212.589 224.005 212.517 224.062C212.445 224.119 212.367 224.159 212.287 224.179C212.207 224.199 212.127 224.199 212.051 224.178L190.867 218.955L190.852 218.951Z" fill="#19305C"/>
<path d="M81.0124 184.343C80.8734 184.289 80.7563 184.205 80.6821 184.106C80.6079 184.008 80.5814 183.9 80.6073 183.803C80.6332 183.707 80.7099 183.627 80.8236 183.578C80.9373 183.53 81.0807 183.516 81.2281 183.538L86.8909 184.883C87.0513 184.923 87.1959 185.003 87.2939 185.107C87.3919 185.211 87.4355 185.329 87.4153 185.438C87.4055 185.492 87.3796 185.542 87.3392 185.585C87.2988 185.627 87.2448 185.662 87.1803 185.687C87.1158 185.711 87.0421 185.725 86.9637 185.728C86.8852 185.73 86.8036 185.721 86.7235 185.701L81.0607 184.356L81.0124 184.343Z" fill="#19305C"/>
<path d="M197.314 217.57L191.776 216.086C191.685 216.074 191.597 216.046 191.516 216.004C191.436 215.963 191.365 215.908 191.31 215.845C191.254 215.781 191.215 215.71 191.195 215.637C191.175 215.563 191.174 215.489 191.193 215.419C191.212 215.349 191.249 215.285 191.304 215.231C191.358 215.178 191.427 215.136 191.507 215.109C191.587 215.081 191.675 215.069 191.766 215.074C191.856 215.078 191.947 215.098 192.031 215.133L197.569 216.617C197.707 216.674 197.822 216.767 197.893 216.879C197.963 216.991 197.985 217.116 197.954 217.231C197.924 217.345 197.842 217.442 197.725 217.504C197.608 217.566 197.462 217.59 197.314 217.57V217.57Z" fill="#19305C"/>
<path d="M152.575 175.565C150.497 175.008 148.434 174.456 146.402 173.911C143.11 173.029 139.736 172.032 136.376 171.225C136.299 171.208 136.225 171.178 136.159 171.137C136.093 171.096 136.037 171.045 135.993 170.987C135.949 170.93 135.919 170.866 135.904 170.8C135.89 170.735 135.891 170.669 135.908 170.606C135.94 170.483 136.031 170.381 136.159 170.32C136.288 170.26 136.444 170.247 136.595 170.284C139.983 171.112 143.36 172.097 146.667 172.983C149.973 173.869 153.351 174.854 156.708 175.674C156.858 175.714 156.99 175.801 157.075 175.915C157.159 176.03 157.19 176.164 157.161 176.288C157.128 176.411 157.038 176.514 156.91 176.574C156.781 176.634 156.625 176.647 156.473 176.61C155.203 176.256 153.88 175.915 152.575 175.565Z" fill="#19305C"/>
<path d="M144.114 175.369L143.57 175.224C143.493 175.201 143.419 175.17 143.354 175.13C143.288 175.09 143.232 175.043 143.188 174.992C143.145 174.941 143.114 174.886 143.099 174.832C143.084 174.777 143.084 174.723 143.1 174.672C143.14 174.572 143.236 174.494 143.371 174.454C143.505 174.413 143.668 174.413 143.828 174.453C145.037 174.79 146.257 175.087 147.483 175.343C148.781 175.624 150.123 175.927 151.238 176.249C151.327 176.263 151.416 176.29 151.496 176.328C151.577 176.366 151.649 176.414 151.706 176.47C151.763 176.525 151.805 176.586 151.828 176.648C151.851 176.71 151.855 176.772 151.839 176.829C151.824 176.887 151.79 176.939 151.739 176.981C151.688 177.023 151.621 177.055 151.544 177.074C151.467 177.094 151.381 177.1 151.292 177.092C151.202 177.085 151.113 177.064 151.028 177.032C149.823 176.7 148.607 176.408 147.386 176.156C146.257 175.888 145.123 175.64 144.114 175.369Z" fill="#19305C"/>
<path d="M209.552 199.115C207.957 198.688 207.221 198.373 206.947 197.931C206.284 196.899 208.604 189.195 208.625 189.117C208.679 188.964 208.791 188.838 208.938 188.765C209.085 188.693 209.255 188.678 209.414 188.725C209.565 188.779 209.691 188.888 209.764 189.029C209.838 189.17 209.854 189.333 209.808 189.485C208.97 192.056 208.37 194.698 208.017 197.38C209.835 198.041 211.708 198.543 213.613 198.88L214.41 199.093L214.49 199.115C215.468 196.744 216.286 194.31 216.937 191.83C216.983 191.677 217.088 191.547 217.23 191.469C217.372 191.392 217.54 191.372 217.698 191.414V191.414C217.777 191.433 217.851 191.467 217.916 191.515C217.981 191.563 218.035 191.623 218.076 191.692C218.117 191.761 218.143 191.837 218.152 191.916C218.162 191.995 218.156 192.075 218.133 192.151C218.112 192.229 216.064 199.872 215.112 200.236C214.789 200.365 214.429 200.375 214.096 200.266L213.299 200.052C211.78 199.662 210.524 199.376 209.552 199.115Z" fill="#19305C"/>
<path d="M210.1 197.191C209.984 197.16 209.884 197.086 209.822 196.986C209.761 196.885 209.743 196.767 209.773 196.656L210.84 192.321L211.306 192.338L211.723 192.539L210.655 196.875C210.626 196.984 210.555 197.078 210.455 197.138C210.355 197.198 210.235 197.218 210.118 197.196L210.1 197.191Z" fill="#19305C"/>
<path d="M212.746 194.794C212.683 194.776 212.623 194.748 212.571 194.713C212.518 194.678 212.474 194.637 212.44 194.592C212.406 194.546 212.383 194.497 212.373 194.448C212.363 194.399 212.365 194.35 212.38 194.304L212.968 192.11C213.001 192.023 213.078 191.953 213.184 191.915C213.29 191.877 213.417 191.872 213.541 191.902C213.669 191.936 213.782 192.006 213.855 192.096C213.928 192.186 213.955 192.29 213.93 192.383L213.342 194.577C213.311 194.67 213.232 194.745 213.121 194.786C213.01 194.826 212.875 194.829 212.746 194.794V194.794Z" fill="#19305C"/>
<path d="M77.5326 163.726C76.7918 163.577 76.0798 163.31 75.4221 162.935C74.6818 162.301 77.2673 154.057 77.2915 153.967C77.3487 153.839 77.4483 153.735 77.5724 153.674C77.6965 153.613 77.8371 153.599 77.9691 153.634C78.101 153.67 78.2158 153.752 78.2928 153.867C78.3699 153.982 78.4042 154.121 78.3896 154.261C77.7211 156.405 76.6152 160.883 76.3885 162.081C78.4698 162.752 80.6006 163.259 82.7621 163.595C82.9275 162.978 83.0888 162.376 83.2541 161.759C83.7501 159.908 84.2623 157.996 84.7057 155.873C84.7532 155.739 84.8457 155.627 84.9665 155.556C85.0872 155.485 85.2282 155.461 85.3637 155.487C85.4991 155.514 85.6201 155.59 85.7046 155.7C85.7891 155.811 85.8315 155.95 85.824 156.092C85.4124 158.272 84.8669 160.191 84.328 162.143C84.1385 162.851 83.953 163.543 83.7635 164.25C83.7332 164.371 83.6774 164.483 83.6 164.58C83.5226 164.676 83.4256 164.754 83.3159 164.808C83.1714 164.873 83.0132 164.897 82.8575 164.879C80.573 164.444 78.7918 164.064 77.5326 163.726Z" fill="#19305C"/>
<path d="M80.9746 161.557C80.8741 161.53 80.7882 161.464 80.7349 161.373C80.6816 161.282 80.6651 161.173 80.6889 161.068L81.5806 156.993C81.5906 156.939 81.6114 156.887 81.6417 156.841C81.672 156.795 81.7113 156.756 81.7569 156.726C81.8025 156.697 81.8535 156.677 81.9066 156.668C81.9598 156.66 82.0139 156.662 82.0656 156.676C82.1182 156.683 82.1686 156.701 82.2134 156.73C82.2582 156.758 82.2964 156.797 82.3254 156.842C82.3543 156.887 82.3734 156.938 82.3813 156.992C82.3892 157.046 82.3858 157.101 82.3712 157.154L81.4751 161.244C81.4631 161.298 81.441 161.348 81.4101 161.393C81.3792 161.437 81.3401 161.476 81.2951 161.505C81.25 161.535 81.1999 161.555 81.1476 161.564C81.0953 161.574 81.0418 161.573 80.9901 161.561L80.9746 161.557Z" fill="#19305C"/>
<path d="M80.4326 159.341C80.3161 159.31 80.2122 159.249 80.1416 159.17C80.071 159.09 80.039 158.999 80.052 158.913C80.127 158.522 80.2299 158.138 80.3604 157.762C80.485 157.408 80.582 157.046 80.6511 156.677C80.6577 156.632 80.6764 156.591 80.7062 156.554C80.736 156.518 80.7762 156.487 80.8246 156.464C80.8731 156.442 80.9287 156.428 80.9883 156.422C81.0479 156.417 81.1103 156.421 81.172 156.434C81.2946 156.463 81.4059 156.524 81.4834 156.605C81.5609 156.686 81.5988 156.782 81.5896 156.872C81.5146 157.263 81.4116 157.647 81.2811 158.023C81.1565 158.377 81.0595 158.739 80.9904 159.108C80.9839 159.153 80.9651 159.195 80.9353 159.231C80.9055 159.268 80.8653 159.298 80.8169 159.321C80.7685 159.343 80.7128 159.358 80.6532 159.363C80.5936 159.368 80.5312 159.364 80.4695 159.351L80.4326 159.341Z" fill="#19305C"/>
<path d="M95.7103 78.5423C95.5438 78.4979 95.3988 78.3988 95.3051 78.2655C95.2113 78.1322 95.1761 77.9749 95.2066 77.826L101.247 52.6878C101.262 52.6128 101.294 52.5424 101.341 52.4808C101.389 52.4192 101.45 52.3677 101.522 52.3295C101.594 52.2914 101.675 52.2673 101.76 52.2588C101.844 52.2503 101.931 52.2575 102.015 52.28C102.1 52.2986 102.182 52.3321 102.255 52.3787C102.328 52.4253 102.39 52.4839 102.439 52.5511C102.487 52.6183 102.521 52.6928 102.537 52.77C102.554 52.8473 102.554 52.9258 102.536 53.0009L96.4956 78.1391C96.4805 78.214 96.4483 78.2845 96.4009 78.3461C96.3535 78.4077 96.2919 78.4591 96.22 78.4973C96.1481 78.5355 96.0673 78.5596 95.9826 78.5681C95.8979 78.5766 95.811 78.5694 95.7274 78.5468L95.7103 78.5423Z" fill="#19305C"/>
<path d="M97.7885 82.2049C97.6168 82.1597 97.4649 82.0637 97.3622 81.9355C97.2596 81.8074 97.2136 81.6561 97.2331 81.5111C97.9582 76.2205 99.248 71.0415 101.087 66.0351C101.145 65.8946 101.267 65.7836 101.427 65.7253C101.588 65.6669 101.776 65.6657 101.952 65.7217C102.04 65.7493 102.123 65.7914 102.194 65.8455C102.266 65.8995 102.325 65.9643 102.368 66.0359C102.411 66.1075 102.437 66.1843 102.444 66.2617C102.451 66.3391 102.44 66.4153 102.41 66.4857C100.612 71.4346 99.3463 76.5494 98.6262 81.7722C98.6026 81.9225 98.5098 82.0535 98.3672 82.1378C98.2247 82.2221 98.0434 82.2531 97.8613 82.2244L97.7885 82.2049Z" fill="#19305C"/>
<path d="M243.866 126.522C243.771 126.499 243.68 126.461 243.599 126.41C243.518 126.359 243.449 126.297 243.395 126.226C243.342 126.156 243.304 126.079 243.286 126C243.268 125.922 243.269 125.843 243.289 125.768C244.1 122.742 245.043 119.606 245.941 116.636C247.928 110.547 249.49 104.335 250.62 98.0255C250.619 97.9391 250.64 97.8556 250.683 97.7807C250.726 97.7058 250.789 97.6413 250.869 97.5915C250.948 97.5418 251.042 97.5079 251.144 97.4922C251.246 97.4765 251.353 97.4794 251.458 97.5007C251.564 97.5219 251.665 97.561 251.756 97.6153C251.846 97.6696 251.923 97.7379 251.982 97.8155C252.041 97.8931 252.08 97.9783 252.097 98.0651C252.113 98.152 252.107 98.2386 252.079 98.3191C250.937 104.668 249.364 110.921 247.367 117.05C246.556 120.076 245.554 123.051 244.744 126.076C244.704 126.225 244.591 126.347 244.43 126.417C244.269 126.486 244.074 126.497 243.886 126.447L243.866 126.522Z" fill="#19305C"/>
<path d="M238.799 132.412C238.734 132.395 238.675 132.362 238.623 132.317C238.571 132.272 238.529 132.215 238.498 132.149C238.468 132.083 238.45 132.01 238.445 131.934C238.44 131.857 238.449 131.78 238.471 131.705C239.147 129.182 239.762 126.888 240.381 124.578C240.999 122.268 241.602 120.019 242.307 117.39C242.349 117.243 242.439 117.116 242.557 117.035C242.675 116.955 242.812 116.927 242.94 116.957C243.068 116.996 243.174 117.091 243.236 117.223C243.297 117.355 243.309 117.513 243.268 117.664C242.588 120.202 241.965 122.527 241.346 124.837C240.727 127.147 240.125 129.396 239.433 131.979C239.393 132.128 239.303 132.257 239.185 132.339C239.066 132.42 238.927 132.446 238.799 132.412V132.412Z" fill="#19305C"/>
<path d="M288.942 108.561C288.809 108.526 288.689 108.452 288.595 108.346C288.501 108.239 288.436 108.106 288.407 107.959C288.368 107.741 288.409 107.511 288.52 107.316C288.631 107.122 288.804 106.979 289.003 106.916C289.925 106.645 290.859 106.435 291.799 106.287C292.015 106.265 292.225 106.338 292.383 106.49C292.541 106.642 292.634 106.86 292.642 107.096C292.65 107.333 292.572 107.568 292.426 107.751C292.279 107.934 292.075 108.049 291.859 108.071C290.998 108.192 290.143 108.383 289.301 108.64C289.176 108.645 289.053 108.618 288.942 108.561V108.561Z" fill="#19305C"/>
<path d="M264.041 120.54C263.898 120.506 263.766 120.434 263.662 120.332C263.558 120.23 263.484 120.102 263.451 119.963C263.417 119.823 263.425 119.678 263.472 119.544C263.519 119.41 263.605 119.292 263.719 119.204C269.872 114.26 277.057 110.654 284.801 108.623C284.903 108.594 285.009 108.585 285.115 108.597C285.221 108.609 285.323 108.641 285.417 108.692C285.51 108.742 285.592 108.81 285.659 108.891C285.726 108.973 285.775 109.066 285.805 109.165C285.834 109.264 285.843 109.368 285.831 109.47C285.819 109.572 285.786 109.671 285.734 109.76C285.682 109.848 285.612 109.926 285.528 109.988C285.445 110.05 285.349 110.095 285.246 110.12C277.723 112.087 270.745 115.591 264.775 120.4C264.676 120.482 264.556 120.537 264.428 120.561C264.3 120.586 264.167 120.578 264.041 120.54V120.54Z" fill="#19305C"/>
<path d="M305.044 142.915L304.952 142.891C303.926 142.456 303.732 142.386 302.712 141.988C302.615 141.953 302.526 141.897 302.45 141.823C302.375 141.75 302.315 141.66 302.273 141.559C302.232 141.459 302.21 141.349 302.209 141.237C302.207 141.125 302.227 141.013 302.267 140.908C302.301 140.8 302.356 140.7 302.427 140.614C302.499 140.529 302.585 140.459 302.681 140.41C302.777 140.36 302.881 140.332 302.985 140.327C303.09 140.322 303.194 140.341 303.29 140.381C304.345 140.771 304.549 140.861 305.591 141.301C305.78 141.387 305.928 141.55 306.004 141.756C306.08 141.962 306.077 142.194 305.997 142.406C305.915 142.596 305.774 142.752 305.6 142.845C305.425 142.938 305.228 142.963 305.044 142.915V142.915Z" fill="#19305C"/>
<path d="M264.279 135.098C264.091 135.047 263.927 134.933 263.817 134.776C263.707 134.62 263.658 134.431 263.68 134.245C263.702 134.06 263.793 133.889 263.936 133.765C264.079 133.641 264.264 133.572 264.458 133.57C275.453 133.568 286.408 135.353 296.864 138.849C296.963 138.882 297.055 138.933 297.134 139C297.214 139.066 297.279 139.147 297.327 139.237C297.374 139.328 297.403 139.426 297.411 139.526C297.42 139.626 297.408 139.727 297.376 139.822C297.305 140.009 297.162 140.162 296.977 140.25C296.792 140.337 296.578 140.354 296.378 140.295C286.092 136.844 275.309 135.09 264.49 135.107L264.279 135.098Z" fill="#19305C"/>
<path d="M280.143 173.513C280.011 173.479 279.888 173.417 279.783 173.332C279.679 173.247 279.595 173.141 279.539 173.021C279.145 172.256 279.136 172.217 278.719 171.464C278.64 171.261 278.64 171.039 278.719 170.84C278.798 170.641 278.951 170.479 279.149 170.382C279.347 170.285 279.577 170.261 279.797 170.315C280.016 170.368 280.21 170.495 280.343 170.672C280.787 171.469 280.8 171.491 281.204 172.295C281.31 172.512 281.323 172.757 281.242 172.978C281.161 173.199 280.992 173.379 280.77 173.48C280.572 173.555 280.352 173.566 280.143 173.513Z" fill="#19305C"/>
<path d="M276.798 167.44C276.594 167.385 276.421 167.252 276.316 167.07C272.153 159.695 266.291 153.408 259.214 148.728C259.069 148.604 258.975 148.432 258.949 148.244C258.922 148.055 258.967 147.864 259.072 147.706C259.178 147.549 259.339 147.435 259.523 147.387C259.708 147.34 259.904 147.361 260.074 147.448C267.335 152.261 273.349 158.72 277.621 166.295C277.673 166.383 277.707 166.481 277.721 166.583C277.734 166.684 277.728 166.788 277.701 166.887C277.675 166.986 277.629 167.079 277.566 167.16C277.503 167.241 277.425 167.309 277.336 167.359C277.173 167.451 276.981 167.48 276.798 167.44V167.44Z" fill="#19305C"/>
<path d="M55.6709 57.4609C55.5437 57.4254 55.4276 57.3572 55.332 57.2617C54.7383 56.6204 54.0983 56.032 53.4174 55.5018C53.2477 55.3782 53.1328 55.1842 53.0976 54.9617C53.0624 54.7392 53.1097 54.5062 53.2293 54.3129C53.2901 54.2161 53.3673 54.1324 53.4565 54.0668C53.5457 54.0012 53.6451 53.9549 53.7489 53.9306C53.8527 53.9063 53.9589 53.9045 54.0612 53.9253C54.1636 53.9461 54.2601 53.989 54.3453 54.0517C55.0982 54.629 55.8058 55.2717 56.4615 55.9741C56.6074 56.1312 56.6887 56.3471 56.6883 56.5762C56.6878 56.8054 56.6058 57.0299 56.4593 57.2023C56.3588 57.3193 56.232 57.4053 56.0929 57.451C55.9538 57.4966 55.8078 57.5 55.6709 57.4609Z" fill="#19305C"/>
<path d="M72.2329 80.5336C72.1069 80.5018 71.9902 80.4408 71.8932 80.3558C71.7962 80.2708 71.7219 80.1645 71.6767 80.0462C68.8903 72.9135 64.5991 66.3959 59.08 60.914C58.9292 60.763 58.8444 60.5619 58.8437 60.354C58.8431 60.1461 58.9267 59.9477 59.0766 59.8014C59.2319 59.6621 59.4375 59.5865 59.6514 59.5899C59.8653 59.5933 60.0714 59.6755 60.2275 59.8198C65.9024 65.4584 70.3207 72.1571 73.2 79.4877C73.2552 79.6218 73.2707 79.7674 73.2445 79.9081C73.2184 80.0487 73.1517 80.1786 73.0521 80.283C72.9525 80.3873 72.824 80.4619 72.6813 80.4983C72.5386 80.5346 72.3874 80.5312 72.245 80.4885L72.2329 80.5336Z" fill="#19305C"/>
<path d="M25.6719 79.4441C25.4447 79.398 25.246 79.2611 25.1194 79.0635C24.9929 78.8658 24.9488 78.6237 24.997 78.3903C25.0451 78.1569 25.1816 77.9513 25.3763 77.8189C25.571 77.6865 25.808 77.6379 26.0351 77.684L26.3216 77.7608L27.9063 77.9811L28.2264 78.0669C28.3415 78.0822 28.4519 78.1215 28.551 78.1822C28.6502 78.2429 28.7359 78.3238 28.8031 78.4199C28.8702 78.5161 28.9174 78.6256 28.9417 78.7417C28.966 78.8577 28.9669 78.978 28.9444 79.0951C28.9023 79.3273 28.7727 79.5345 28.5838 79.6716C28.3949 79.8088 28.1619 79.8648 27.9353 79.8277L27.6151 79.7419L26.0856 79.5178L25.7992 79.441L25.6719 79.4441Z" fill="#19305C"/>
<path d="M63.7998 92.7679L63.6031 92.7152C53.9649 87.0736 43.4019 83.1287 32.4047 81.0635C32.1998 81.0253 32.0177 80.9096 31.8984 80.7418C31.7792 80.5739 31.7325 80.3677 31.7686 80.1685C31.8048 79.9694 31.9209 79.7935 32.0913 79.6797C32.2617 79.5658 32.4725 79.5233 32.6774 79.5615C43.8578 81.6437 54.6 85.6367 64.4055 91.355C64.5706 91.4529 64.6948 91.605 64.7553 91.7835C64.8158 91.9619 64.8086 92.1547 64.735 92.3265C64.6614 92.4983 64.5262 92.6375 64.3545 92.7186C64.1827 92.7997 63.9857 92.8172 63.7998 92.7679V92.7679Z" fill="#19305C"/>
<path d="M31.7815 118.353C31.5787 118.295 31.4011 118.173 31.2787 118.007C31.2089 117.915 31.1588 117.812 31.1312 117.702C31.1037 117.593 31.0993 117.48 31.1182 117.37C31.1372 117.261 31.1792 117.156 31.2418 117.064C31.3043 116.971 31.3861 116.891 31.4824 116.83C32.2051 116.355 32.3662 116.24 33.1149 115.807C33.3104 115.724 33.533 115.711 33.7416 115.772C33.9501 115.834 34.1305 115.964 34.2492 116.14C34.3679 116.315 34.417 116.524 34.3872 116.728C34.3575 116.931 34.2511 117.116 34.0876 117.247C33.3737 117.689 33.2214 117.771 32.5378 118.239C32.4301 118.31 32.3063 118.358 32.1755 118.377C32.0447 118.397 31.9101 118.389 31.7815 118.353Z" fill="#19305C"/>
<path d="M36.8447 114.533C36.6433 114.477 36.4694 114.351 36.3572 114.179C36.303 114.091 36.2673 113.993 36.2522 113.892C36.2371 113.79 36.2429 113.688 36.2692 113.59C36.2955 113.491 36.3418 113.4 36.4055 113.319C36.4692 113.239 36.549 113.173 36.6403 113.123C44.3282 108.764 53.0246 106.262 62.0053 105.824C62.1164 105.805 62.2309 105.809 62.3412 105.836C62.4515 105.863 62.5552 105.912 62.6454 105.98C62.7356 106.047 62.8102 106.133 62.8644 106.229C62.9186 106.326 62.9512 106.433 62.9598 106.542C62.9685 106.651 62.9532 106.76 62.9148 106.862C62.8764 106.964 62.8159 107.056 62.7373 107.133C62.6586 107.21 62.5636 107.269 62.4585 107.308C62.3533 107.346 62.2405 107.362 62.1273 107.356C53.4 107.791 44.9504 110.227 37.4789 114.464C37.3844 114.516 37.2795 114.549 37.1705 114.561C37.0616 114.573 36.9508 114.563 36.8447 114.533V114.533Z" fill="#19305C"/>
</g>
<defs>
<clipPath id="clip0_123_1233">
<rect width="288" height="177" fill="white" transform="translate(46) rotate(15)"/>
</clipPath>
</defs>
</svg>
