<svg width="781" height="490" viewBox="0 0 781 490" fill="none" xmlns="http://www.w3.org/2000/svg">
<path fill-rule="evenodd" clip-rule="evenodd" d="M638.992 110.579C645.578 88.5023 640.249 63.8072 622.702 46.2559C597.321 20.8689 556.002 21.04 530.848 46.2005C505.693 71.3609 506.228 111.983 531.609 137.37C537.211 142.973 543.912 147.663 550.695 150.809C555.315 152.952 559.423 145.148 562.699 138.802C566.419 131.597 571.059 123.055 581.059 120.438C587.759 118.685 594.862 119.348 602.256 120.451C615.491 122.425 634.655 125.115 638.992 110.579Z" fill="#E2F0F6"/>
<path d="M407.575 254.566C404.158 263.65 400.905 272.246 397.586 280.54C397.39 278.269 397.781 275.103 397.586 271.549C397.39 267.995 396.782 263.805 396.587 259.561C396.489 255.315 396.684 251.214 396.587 246.574C396.489 241.835 395.588 237.13 395.588 232.589C395.588 218.964 396.902 206.695 397.586 196.626C398.367 186.555 398.51 178.759 399.583 171.651C400.755 164.445 402.213 158.31 403.579 153.67C404.946 149.03 406.208 145.248 407.575 142.681C408.942 140.015 410.399 137.674 411.571 136.687C412.84 135.6 413.787 135.688 414.568 135.688C416.911 135.688 419.097 136.513 420.562 138.685C422.124 140.857 422.68 143.418 423.559 146.677C424.437 149.934 425.264 153.716 425.556 157.665C425.947 161.515 426.555 165.1 426.555 168.654C426.555 178.033 425.316 187.949 423.559 197.625C421.801 207.3 419.299 217.118 416.566 226.595C413.832 236.073 410.992 245.386 407.575 254.566Z" fill="#E2F0F6"/>
<path d="M522.456 309.51C520.015 311.485 517.49 313.223 514.464 314.505C513.976 312.728 512.857 310.485 512.466 308.511C512.173 306.536 512.466 305.293 512.466 303.516C512.466 300.654 512.977 297.388 513.465 294.525C514.051 291.563 514.291 288.902 515.463 286.533C516.634 284.165 518.603 282.02 520.458 280.54C522.313 279.059 524.815 278.542 527.45 278.542C529.403 278.542 530.981 278.961 532.445 280.54C533.91 282.021 534.443 284.572 534.443 287.532C534.443 290.198 534.42 292.859 533.444 295.524C532.468 298.091 530.207 300.148 528.449 302.517C526.692 304.886 524.994 307.536 522.456 309.51Z" fill="#E2F0F6"/>
<path fill-rule="evenodd" clip-rule="evenodd" d="M405.577 85.7392C352.466 114.501 317.669 170.401 317.669 235.586C317.669 329.871 393.254 406.411 486.493 406.411C579.732 406.411 655.317 329.871 655.317 235.586C655.317 214.775 652.069 195.088 645.328 176.646C640.736 164.085 618.204 170.947 600.375 176.646C580.131 183.116 556.826 190.359 533.444 176.646C517.779 167.457 506.145 151.469 494.485 135.688C473.614 107.439 440.549 66.8008 405.577 85.7392ZM499.48 317.502C500.499 316.189 501.589 314.729 502.476 313.506C502.779 314.971 503.049 316.036 503.475 317.502C504.94 322.536 507.442 327.44 510.468 331.487C513.495 335.437 516.771 338.01 521.457 340.478C526.143 343.045 531.996 344.474 538.439 344.474C548.495 344.276 557.503 341.087 565.411 333.485C573.416 325.884 580.652 314.527 587.388 299.52C587.583 299.125 588.289 298.818 588.387 298.521C588.413 298.416 588.368 297.636 588.387 297.522C588.403 297.427 588.376 297.623 588.387 297.522C588.412 297.298 588.387 296.772 588.387 296.523C588.387 295.141 587.463 293.712 586.389 292.527C585.413 291.344 584.053 291.528 582.393 291.528C581.319 291.528 580.275 291.935 579.396 292.527C578.518 293.021 577.887 293.439 577.398 294.525C575.348 299.165 572.944 303.87 570.406 308.511C567.867 313.15 565.636 316.748 562.414 320.499C559.192 324.25 555.331 328.118 551.425 330.488C547.52 332.759 543.223 333.485 538.439 333.485C533.753 333.485 529.673 332.166 526.451 330.488C523.23 328.711 520.51 327.358 518.46 324.495C522.267 322.619 526.129 320.069 529.448 317.502C532.768 314.935 535.097 311.572 537.44 308.511C539.881 305.45 542.067 302.075 543.434 298.521C544.801 294.967 545.432 291.58 545.432 287.532C545.432 284.373 545.507 282.009 544.433 279.541C543.359 277.073 541.195 274.226 539.438 272.548C537.681 270.771 535.69 269.44 533.444 268.552C531.296 267.565 529.696 267.553 527.45 267.553C523.643 267.553 519.684 268.773 516.462 270.55C513.338 272.327 510.813 274.384 508.47 277.543C506.225 280.702 504.745 284.286 503.475 288.531C503.124 289.804 502.722 291.184 502.476 292.527C501.949 292.976 500.818 293.839 500.479 294.525C499.209 297.191 498.435 299.358 496.483 302.517C494.53 305.578 491.833 308.744 489.49 311.508C487.245 314.173 485.036 316.625 482.497 318.501C480.057 320.278 477.848 321.498 475.504 321.498C472.771 321.498 470.562 320.388 468.512 319.5C466.462 318.611 463.982 317.687 462.518 316.503C461.054 315.318 460.4 314.789 459.521 313.506C459.23 313.081 458.76 311.88 458.522 311.508C458.373 311.276 458.65 311.718 458.522 311.508C458.239 311.039 457.703 309.874 457.523 309.51C457.816 307.141 457.523 304.986 457.523 302.517C457.523 298.273 457.5 294.675 456.524 290.529C455.548 286.383 453.58 281.799 451.529 278.542C449.479 275.284 447.661 273.524 444.537 271.549C441.51 269.575 437.746 268.552 433.548 268.552C431.107 268.552 428.801 268.564 426.555 269.551C424.408 270.439 422.319 271.77 420.562 273.547C418.902 275.225 417.542 277.072 416.566 279.541C415.59 281.91 414.568 284.669 414.568 287.532C414.568 289.309 414.981 291.453 415.567 293.526C416.153 295.599 417.49 297.645 418.564 299.52C419.638 301.297 421.095 302.331 422.56 303.516C424.122 304.701 425.602 305.514 427.554 305.514C428.921 305.514 430.476 305.502 431.55 304.515C432.722 303.527 432.549 302.196 432.549 300.519C432.549 298.446 432.211 296.708 430.551 295.524C428.892 294.438 427.141 292.91 426.555 291.528C425.97 290.146 426.555 288.914 426.555 287.532C426.555 287.236 426.458 286.423 426.555 285.535C426.653 284.646 427.066 283.426 427.554 282.538C428.043 281.551 428.576 281.231 429.552 280.54C430.529 279.751 431.791 279.541 433.548 279.541C435.891 279.541 437.882 280.157 439.542 281.539C441.202 282.921 442.464 284.263 443.538 286.533C444.709 288.706 445.048 291.662 445.536 294.525C446.121 297.289 446.535 299.753 446.535 302.517C446.535 306.664 445.806 310.557 444.537 314.505C443.365 318.454 441.69 322.335 439.542 325.494C437.394 328.554 435.478 331.512 432.549 333.485C429.62 335.362 425.879 335.483 422.56 335.483C419.24 335.483 417.106 334.46 414.568 332.486C412.03 330.413 409.43 327.85 407.575 324.495C405.72 321.039 404.751 317.85 403.579 313.506C402.408 309.063 401.168 304.358 400.582 299.52C404.878 289.846 409.176 279.314 413.569 268.552C417.962 257.693 422.042 246.741 425.556 235.586C429.169 224.332 432.302 212.876 434.547 201.62C436.793 190.366 437.544 179.218 437.544 168.654C437.544 162.04 436.522 156.202 435.546 150.673C434.57 145.145 433.503 140.536 431.55 136.687C429.695 132.738 427.389 129.868 424.557 127.696C421.824 125.524 419.179 124.699 415.567 124.699C413.321 124.699 410.917 124.711 408.574 125.698C406.231 126.685 403.827 128.927 401.581 131.692C399.336 134.358 396.639 137.745 394.589 142.681C392.636 147.518 391.156 153.763 389.594 161.661C388.129 169.461 387.476 179.378 386.597 190.632C385.718 201.787 384.599 215.289 384.599 230.591C384.599 238.587 384.404 246.68 384.599 255.565C384.794 264.45 385.816 272.852 386.597 281.539C387.476 290.227 389.031 298.615 390.593 306.513C392.155 314.411 393.853 321.47 396.587 327.492C399.418 333.415 403.377 337.923 407.575 341.477C411.773 345.031 416.604 347.471 422.56 347.471C425.781 347.471 428.524 346.658 431.55 345.473C434.674 344.288 437.807 342.649 440.541 340.478C443.274 338.405 446.287 335.349 448.533 332.486C450.778 329.624 451.965 326.951 453.527 323.496C455.773 325.766 459.003 327.614 462.518 329.489C466.033 331.267 470.428 332.486 475.504 332.486C478.629 332.486 481.566 331.969 484.495 330.488C487.424 329.007 489.949 326.765 492.487 324.495C495.025 322.224 497.332 320.167 499.48 317.502Z" fill="#E2F0F6"/>
<path d="M273.11 323.185L259.261 315.221L257.53 314.226C266.677 307.514 276.205 300.581 286.03 294.924C286.236 294.78 285.903 295.142 286.03 294.924C286.156 294.706 286.508 294.311 286.53 294.061C286.576 293.818 287.096 293.434 287.031 293.197C286.965 292.961 286.329 292.881 286.165 292.7C283.09 289.366 279.803 286.834 275.914 284.502C275.664 284.325 275.356 284.016 275.048 284.004C274.741 283.992 273.949 284.213 273.682 284.37C272.153 285.167 271.339 285.804 269.949 286.828C264.709 290.482 258.469 293.629 252.785 296.53C241.517 290.05 231.031 283.77 219.893 277.615C202.366 267.751 185.53 258.248 168.825 248.248C196.325 225.276 224.997 204.425 255.095 185.03C255.312 184.882 255.464 184.394 255.596 184.167C255.728 183.939 256.076 183.565 256.096 183.303C256.119 183.04 256.696 182.683 256.597 182.44C256.498 182.196 255.93 182.112 255.731 181.942C251.391 178.348 246.515 175.225 241.517 172.617C241.259 172.466 240.952 172.108 240.651 172.119C240.351 172.129 240.402 172.813 240.151 172.982C229.216 179.928 217.283 186.429 205.322 193.249C191.442 184.123 187.659 183.464 185.278 184.026C184.637 184.229 184.413 183.939 183.912 184.392C183.411 184.844 183.18 185.499 182.911 186.119C181.771 187.93 180.96 189.672 180.774 191.797C181.14 194.404 186.443 199.376 190.889 202.22C181.687 207.336 172.989 211.881 164.027 216.706C147.598 204.826 143.784 205.007 142.252 206.487C139.866 209.128 138.644 213.44 138.478 216.981C138.595 218.551 141.139 219.777 147.863 224.681V224.681L137.164 231.193C118.341 218.769 98.6299 207.149 78.3062 197.346C68.0173 192.967 60.8647 196.531 58.3155 201.968C57.7028 203.403 56.6977 205.229 56.6785 206.783C56.6594 208.338 57.1962 209.432 57.7736 210.867C59.532 215.421 63.4465 219.296 67.8894 221.29C77.2971 226.7 86.5207 232.905 95.9524 238.579C105.384 244.253 114.964 249.476 124.516 255.005C124.2 260.868 123.708 266.702 123.432 272.802C119.142 270.729 109.498 265.99 107.216 266.931C104.934 267.872 102.022 275.071 102.576 276.927C103.487 278.626 104.977 280.93 106.768 281.641L109.365 283.134V283.134L116.289 287.116L122.849 289.737C122.585 299.647 122.353 310.188 122.318 320.517C118.226 318.163 111.102 313.609 108.834 313.914C108.024 314.125 106.725 314.082 106.102 314.646C105.479 315.209 104.893 316.449 104.601 317.236C104.601 317.236 101.796 322.144 102.828 324.276C106.165 327.374 110.372 330.067 114.446 332.108C117.289 333.743 120.428 334.754 122.736 335.724C122.812 347.392 122.481 359.286 122.8 371.452C122.802 371.733 123.027 372.57 123.165 372.813C123.304 373.055 123.79 373.169 124.031 373.311L125.762 374.306C129.536 376.476 134.064 378.287 137.515 379.913C137.758 380.029 138.11 380.421 138.38 380.411C138.651 380.401 139.009 381.042 139.246 380.909C139.483 380.775 139.596 380.272 139.746 380.045C139.897 379.818 140.216 379.451 140.247 379.182C143.562 345.894 148.136 310.777 153.309 275.016C180.841 290.849 206.45 304.954 233.942 319.082C234.815 325.951 236.209 333.813 237.05 341.593C237.086 341.83 237.289 342.753 237.415 342.955C237.542 343.157 237.219 342.82 237.415 342.955C241.88 346.046 246.251 348.821 251.264 350.919C251.513 351.02 252.362 350.579 252.63 350.553C252.899 350.527 253.269 351.199 253.496 351.051C253.73 350.904 253.858 350.426 253.997 350.187C254.135 349.949 254.487 349.598 254.497 349.324C254.87 338.451 254.744 327.189 255.163 316.319L257.76 317.812C260.949 319.646 264.039 321.423 267.281 323.287C268.796 324.158 270.121 324.92 271.609 325.776C271.994 325.97 272.058 326.4 272.474 326.274C272.891 326.147 273.622 326.286 273.84 325.908C274.011 325.731 274.26 325.276 274.341 325.044C274.421 324.813 274.866 324.424 274.841 324.181C274.817 323.938 274.101 323.891 273.976 323.683C273.85 323.475 273.313 323.32 273.11 323.185V323.185ZM184.371 191.563C184.692 190.218 184.785 188.794 185.508 187.612C185.674 187.211 186.535 187.517 186.874 187.246C188.681 186.819 196.418 192.341 201.588 195.708L194.623 199.761C190.7 197.875 187.225 194.848 184.371 191.563V191.563ZM149.365 222.09C146.726 220.305 144.91 218.053 142.576 215.884C142.885 213.512 143.712 211.213 145.214 209.342C145.875 209.364 149.136 209.988 160.794 218.301L152.462 222.72L151.096 223.086L149.365 222.09ZM118.292 283.662C115.953 282.317 113.651 280.814 111.367 279.68L110.501 279.182C108.743 278.351 107.776 277.795 106.174 276.693C106.514 274.423 106.744 271.617 107.946 269.653C113.178 271.26 118.794 273.9 123.662 276.388L122.619 286.151L118.292 283.662ZM106.561 321.817C106.904 319.868 108.404 318.246 109.564 316.637C114.355 318.605 118.248 321.224 122.548 324.103C122.529 326.703 122.499 329.523 122.507 332.138C116.914 329.378 111.616 325.466 106.561 321.817V321.817ZM251.535 346.469C247.835 344.715 243.659 342.313 240.283 339.998C239.409 332.092 238.866 324.934 238.04 317.985C238.001 317.717 237.831 316.844 237.675 316.624C237.519 316.404 237.048 316.251 236.809 316.126C208.276 301.47 182.149 286.995 153.58 270.567C153.343 270.429 152.989 270.077 152.714 270.069C152.44 270.061 151.596 270.311 151.348 270.435C151.101 270.558 151.008 271.073 150.848 271.298C150.687 271.524 150.884 271.024 150.848 271.298C145.659 307.086 140.689 342.947 137.285 376.327C133.919 374.677 129.955 372.112 126.898 370.354C126.595 358.162 126.044 345.797 125.969 334.129C125.811 305.425 126.377 278.516 127.749 253.41C127.773 253.101 128.392 252.818 128.249 252.546C128.106 252.274 127.651 252.2 127.384 252.048C117.498 246.363 107.439 240.83 97.9545 235.125C88.4696 229.42 78.9737 224.174 69.391 218.699C65.7159 217.054 63.3762 213.514 61.8719 209.77C61.4423 208.75 61.1422 208.159 61.1418 207.047C61.1413 205.936 61.3491 204.99 61.7778 203.959C63.7336 199.791 69.2863 196.865 77.6702 200.434C96.8209 209.086 117.079 221.988 136.528 234.281C136.78 234.433 137.599 233.902 137.894 233.915C138.19 233.929 137.627 234.044 137.894 233.915C142.284 231.539 146.726 229.106 151.326 226.672C151.634 226.591 152.456 226.523 152.692 226.306L154.558 225.077C182.485 210.091 214.841 193.278 241.747 176.203C245.555 178.253 248.205 180.404 251.633 183.039C221.437 202.598 192.452 223.99 164.862 247.121C164.655 247.292 164.468 247.737 164.362 247.984C164.256 248.231 165.208 248.215 165.227 248.482C165.246 248.749 164.587 249.119 164.727 249.345C164.867 249.572 165.363 249.708 165.592 249.843C183.099 260.232 200.241 269.768 218.392 280.206C229.722 286.578 241.488 293.511 253.014 300.116C253.26 300.259 252.729 300.115 253.014 300.116C253.3 300.117 254.131 299.892 254.38 299.75C260.376 296.631 266.516 293.085 272.045 289.185C273.039 288.435 273.325 287.694 274.412 287.092C277.133 288.809 280.247 290.705 282.567 292.933C272.935 298.633 263.56 304.693 254.568 311.372C251.539 309.629 248.863 308.09 245.913 306.394C245.535 306.241 244.935 306.625 244.547 306.76C244.158 306.895 243.388 306.769 243.181 307.125C242.974 307.482 243.469 308.084 243.546 308.487C243.623 308.889 243.588 309.598 243.911 309.848L252.566 314.825C252.202 325.561 251.922 335.818 251.535 346.469V346.469Z" fill="#19305C"/>
<path d="M119.65 229.768C119.835 229.874 120.32 230.29 120.513 230.264C120.707 230.237 120.895 229.589 120.988 229.444C121.04 229.372 120.978 229.534 120.988 229.444C120.999 229.354 121.021 229.537 120.988 229.444C120.956 229.351 121.058 229.525 120.988 229.444C120.919 229.363 120.22 229.002 120.125 228.948L87.7978 209.264C87.613 209.193 87.1066 208.724 86.9346 208.768C86.7626 208.811 86.5397 209.449 86.4593 209.588C86.3789 209.726 86.4112 209.418 86.4593 209.588C86.5074 209.758 87.168 209.961 87.3225 210.084L119.65 229.768V229.768Z" fill="#19305C"/>
<path d="M118.328 233.176L109.761 228.249C109.565 228.185 109.102 227.675 108.904 227.757C108.706 227.838 108.549 228.37 108.438 228.56C108.328 228.751 107.944 229.152 107.972 229.364C108.001 229.576 108.675 229.72 108.829 229.857L117.397 234.783C117.587 234.893 118.034 235.339 118.253 235.276C118.473 235.213 118.594 234.673 118.719 234.472C118.804 234.266 119.245 233.875 119.185 233.669C119.124 233.463 118.506 233.285 118.328 233.176V233.176Z" fill="#19305C"/>
<path d="M217.799 285.058C206.343 277.497 194.728 270.777 182.408 264.706C182.315 264.652 181.655 264.215 181.544 264.209C181.434 264.204 181.654 264.166 181.544 264.209C181.435 264.253 181.635 264.124 181.544 264.209C181.454 264.295 181.6 264.097 181.544 264.209C181.433 264.432 180.857 265.086 180.906 265.31C180.956 265.534 181.585 265.701 181.77 265.806C193.993 271.984 205.669 278.779 217.161 286.159C217.347 286.266 217.804 286.734 218.024 286.655C218.245 286.577 218.536 285.772 218.662 285.555C218.789 285.337 218.704 285.784 218.662 285.555C218.62 285.325 217.985 285.165 217.799 285.058V285.058Z" fill="#19305C"/>
<path d="M173.604 224.063C173.695 224.017 173.536 224.14 173.604 224.063C173.671 223.985 173.571 224.16 173.604 224.063C173.636 223.965 174.103 223.315 174.096 223.213C174.089 223.112 174.142 223.303 174.096 223.213C174.007 223.038 173.433 222.783 173.246 222.725C173.06 222.666 173.423 222.633 173.246 222.725C171.603 223.58 169.62 224.601 168.235 225.506C167.659 225.895 166.896 226.412 166.4 226.716C166.231 226.828 165.957 227.368 165.908 227.566C165.859 227.763 165.81 227.392 165.908 227.566C165.997 227.647 166.642 228.018 166.758 228.054C166.874 228.123 166.622 228.057 166.758 228.054C166.894 228.052 166.64 228.127 166.758 228.054C167.253 227.75 167.992 227.219 168.592 226.844C169.801 225.968 171.98 224.994 173.604 224.063Z" fill="#19305C"/>
<path d="M193.314 206.711C193.206 206.526 192.659 206.267 192.453 206.215C192.247 206.163 192.647 206.107 192.453 206.215L162.336 224.477C162.24 224.529 162.406 224.391 162.336 224.477C162.265 224.563 162.369 224.372 162.336 224.477C162.303 224.583 161.827 225.23 161.837 225.338C161.847 225.446 161.786 225.246 161.837 225.338C161.939 225.429 162.568 225.791 162.698 225.834C162.819 225.899 162.559 225.842 162.698 225.834C162.838 225.826 162.577 225.912 162.698 225.834L192.815 207.572C192.973 207.459 192.762 207.759 192.815 207.572C192.869 207.384 193.392 206.88 193.314 206.711V206.711Z" fill="#19305C"/>
<path d="M129.899 293.67C129.667 293.66 129.571 294.38 129.4 294.531C129.23 294.682 129.414 294.303 129.4 294.531C128.936 304.522 128.335 315.114 128.801 325.171C128.809 325.316 129.583 325.538 129.659 325.664C129.736 325.79 129.532 325.587 129.659 325.664C129.784 325.768 130.365 326.102 130.517 326.157C130.749 326.143 130.863 325.465 131.016 325.297C131.169 325.129 131.027 325.525 131.016 325.297C130.575 315.326 130.64 305.466 131.117 295.518C131.145 295.283 130.903 294.355 130.757 294.164C130.611 293.972 130.138 293.711 129.899 293.67V293.67Z" fill="#19305C"/>
<path d="M132.894 293.678C132.657 293.684 132.551 294.37 132.4 294.531C132.248 294.692 132.381 294.305 132.4 294.531C132.766 297.708 132.417 301.522 132.209 304.663C132.203 304.825 132.975 305.004 133.062 305.153C133.148 305.302 132.909 305.063 133.062 305.153V305.153C133.18 305.171 133.801 305.669 133.914 305.643C134.027 305.617 133.825 305.709 133.914 305.643C134.004 305.577 134.357 304.886 134.409 304.79C134.461 304.693 134.403 304.901 134.409 304.79C134.612 301.556 134.958 297.928 134.599 294.658C134.585 294.429 133.926 294.337 133.747 294.168C133.567 293.999 133.137 293.689 132.894 293.678V293.678Z" fill="#19305C"/>
<path d="M254.665 228.061C254.458 227.952 254.77 228.276 254.665 228.061C254.56 227.846 254.273 226.965 254.307 226.718C254.341 226.471 254.64 226.06 254.801 225.866C254.962 225.672 254.568 225.94 254.801 225.866C256.913 225.078 259.412 224.8 261.533 224.054C261.695 223.976 261.854 223.206 262.027 223.202C262.201 223.198 262.725 223.622 262.88 223.692C263.035 223.762 262.771 223.56 262.88 223.692C262.989 223.824 263.689 224.011 263.732 224.182C263.776 224.353 263.268 224.856 263.238 225.035C263.208 225.214 263.336 224.879 263.238 225.035C263.141 225.19 262.892 225.783 262.744 225.887C262.596 225.992 262.916 225.852 262.744 225.887C260.623 226.633 257.604 227.749 255.517 228.551C255.349 228.612 255.69 228.563 255.517 228.551C255.344 228.539 254.815 228.143 254.665 228.061Z" fill="#19305C"/>
<path d="M205.651 250.453C205.447 250.406 205.793 250.605 205.651 250.453C205.565 250.314 204.812 250.12 204.787 249.957C204.762 249.794 205.246 249.256 205.286 249.096C205.326 248.935 205.187 249.229 205.286 249.096C205.385 248.962 205.643 248.32 205.785 248.235C219.639 239.838 234.661 232.985 249.928 227.704C250.252 227.623 250.505 228.036 250.792 228.201C251.079 228.366 251.565 228.377 251.656 228.698C251.698 228.858 251.18 229.393 251.157 229.558C251.134 229.724 251.241 229.413 251.157 229.558C251.073 229.703 250.79 230.317 250.658 230.419C250.525 230.522 250.818 230.375 250.658 230.419C235.56 235.639 220.226 242.668 206.514 250.95C206.344 251.004 206.689 250.976 206.514 250.95C206.339 250.924 205.795 250.554 205.651 250.453V250.453Z" fill="#19305C"/>
<path d="M263.182 248.155C262.971 248.031 262.411 247.931 262.338 247.67C262.264 247.368 262.68 247.139 262.83 246.822C262.98 246.504 263.033 246.126 263.321 245.973L268.313 243.189C268.462 243.13 268.167 243.182 268.313 243.189C268.46 243.195 269.036 243.604 269.158 243.674C269.28 243.744 269.079 243.551 269.158 243.674C269.236 243.797 269.979 244.002 270.002 244.16C270.026 244.315 269.545 244.842 269.511 245.008C269.476 245.174 269.598 244.857 269.511 245.008C269.423 245.159 269.146 245.744 269.019 245.856C268.892 245.969 269.166 245.8 269.019 245.856L264.519 247.793C264.367 247.87 264.182 248.633 264.027 248.641C263.872 248.65 263.315 248.218 263.182 248.155V248.155Z" fill="#19305C"/>
<path d="M225.692 264.801C225.496 264.684 225.801 265.002 225.692 264.801C225.541 264.505 225.232 263.77 225.332 263.448C225.432 263.126 225.536 262.751 225.83 262.588C236.299 256.813 247.714 251.561 258.803 247.164C259.121 247.045 259.355 247.522 259.661 247.657C259.968 247.793 260.397 247.837 260.52 248.151C260.632 248.463 260.159 248.704 260.021 249.011C259.883 249.317 259.833 249.744 259.523 249.87C248.526 254.232 237.437 258.718 227.048 264.435C226.855 264.535 226.765 265.298 226.55 265.295C226.335 265.291 225.878 264.907 225.692 264.801Z" fill="#19305C"/>
<path d="M178.967 366.308C178.82 366.228 178.223 365.962 178.126 365.824C178.028 365.685 178.155 365.995 178.126 365.824L176.889 358.277C176.822 357.952 177.212 357.72 177.384 357.423C177.557 357.125 177.563 356.673 177.88 356.568C178.038 356.52 178.56 357.035 178.721 357.052C178.882 357.069 178.583 356.973 178.721 357.052C178.86 357.132 179.468 357.406 179.563 357.536C179.658 357.667 179.526 357.375 179.563 357.536C179.918 359.762 180.428 362.885 180.8 365.083C180.867 365.403 180.474 365.644 180.304 365.937C180.134 366.23 180.121 366.69 179.809 366.792C179.664 366.86 179.123 366.303 178.967 366.308C178.811 366.313 179.109 366.367 178.967 366.308V366.308Z" fill="#19305C"/>
<path d="M176.837 352.203C176.685 352.112 176.078 351.853 175.975 351.708C175.873 351.562 176.012 351.883 175.975 351.708C173 336.002 171.436 319.393 171.831 303.344C171.835 303.177 172.264 302.635 172.331 302.481C172.398 302.328 172.211 302.598 172.331 302.481C172.451 302.364 172.676 301.682 172.831 301.619C172.985 301.557 173.527 302.113 173.693 302.115C173.856 302.115 173.544 302.051 173.693 302.115C173.842 302.179 174.443 302.493 174.555 302.611C174.666 302.728 174.498 302.458 174.555 302.611C174.611 302.763 174.062 303.308 174.055 303.473C173.677 319.409 175.725 335.384 178.699 350.975C178.773 351.297 178.367 351.547 178.199 351.837C178.031 352.126 178.017 352.602 177.699 352.699C177.512 352.719 177.013 352.267 176.837 352.203C176.662 352.139 176.967 352.338 176.837 352.203Z" fill="#19305C"/>
<path d="M199.783 361.447C199.654 361.369 199.019 361.097 198.939 360.961C198.859 360.825 198.957 361.133 198.939 360.961L198.866 355.263C198.854 354.941 199.159 354.699 199.357 354.414C199.556 354.129 199.554 353.652 199.849 353.566C199.997 353.523 200.554 354.029 200.693 354.051C200.833 354.073 200.584 353.967 200.693 354.051C200.803 354.135 201.475 354.404 201.538 354.537C201.6 354.669 201.04 355.225 201.046 355.385L201.611 360.235C201.626 360.396 201.657 360.068 201.611 360.235C201.565 360.403 201.218 360.937 201.119 361.084C201.02 361.23 201.255 360.982 201.119 361.084C200.983 361.186 200.778 361.892 200.627 361.932C200.367 362.004 199.993 361.57 199.783 361.447V361.447Z" fill="#19305C"/>
<path d="M199.782 350.023C199.618 349.93 199.031 349.684 198.924 349.529C198.817 349.374 198.953 349.717 198.924 349.529C197.189 337.764 196.036 325.315 195.835 313.399C195.83 313.066 196.102 312.783 196.333 312.54C196.563 312.297 197.357 312.185 197.689 312.175C198.02 312.165 198.309 312.44 198.547 312.669C198.785 312.897 198.044 313.194 198.049 313.527C198.288 325.302 199.891 337.177 201.636 348.798C201.681 349.128 201.335 349.386 201.138 349.657C200.941 349.928 200.968 350.458 200.64 350.516C200.343 350.606 200.065 350.143 199.782 350.023V350.023Z" fill="#19305C"/>
<path d="M546.463 401.325C546.047 401.323 545.83 401.535 545.498 401.325C545.167 401.115 544.646 400.7 544.534 400.367C544.421 400.034 544.382 399.732 544.534 399.41C544.686 399.088 545.143 398.633 545.498 398.452C546.529 397.922 547.434 397.067 548.393 396.537C548.808 396.334 548.887 396.453 549.358 396.537C549.829 396.621 551.01 397.168 551.288 397.495C551.566 397.821 551.351 398.056 551.288 398.452C551.225 398.849 550.693 399.154 550.323 399.41C549.364 399.999 548.529 400.765 547.428 401.325C547.121 401.488 546.828 401.334 546.463 401.325V401.325Z" fill="#19305C"/>
<path d="M498.594 418.393C498.191 418.36 496.885 417.694 496.604 417.398C496.323 417.102 496.623 416.814 496.604 416.403C496.586 415.992 496.351 415.729 496.604 415.408C496.858 415.087 497.201 415.479 497.599 415.408C511.1 413.617 525.013 409.225 537.397 403.468C537.595 403.375 537.178 403.476 537.397 403.468C537.615 403.459 538.187 403.391 538.392 403.468C538.597 403.545 538.231 403.317 538.392 403.468C538.552 403.619 539.295 404.261 539.387 404.463C539.478 404.665 539.378 405.236 539.387 405.458C539.395 405.68 539.462 405.249 539.387 405.458C539.311 405.666 539.535 406.29 539.387 406.453C539.238 406.616 538.59 406.36 538.392 406.453C525.679 412.383 512.464 416.572 498.594 418.393V418.393Z" fill="#19305C"/>
<path d="M355.57 409.311V409.311L351.727 408.375C351.511 408.339 351.907 408.465 351.727 408.375C351.547 408.284 350.883 408.507 350.767 408.375C350.531 408.109 350.664 407.743 350.767 407.439C350.869 407.134 351.346 406.667 351.727 406.502C352.108 406.338 352.252 406.431 352.688 406.502C353.681 406.676 354.452 406.372 355.57 406.502C356.014 406.528 357.203 407.201 357.491 407.439C357.779 407.676 357.528 408.064 357.491 408.375C357.454 408.685 356.871 409.11 356.53 409.311C356.19 409.512 356.014 409.337 355.57 409.311V409.311Z" fill="#19305C"/>
<path d="M341.533 408.321C341.341 408.354 341.725 408.354 341.533 408.321C327.576 402.96 313.897 394.853 302.822 384.468C302.514 384.139 302.822 383.934 302.822 383.474C302.822 383.014 302.514 382.808 302.822 382.48C302.975 382.317 303.613 381.575 303.814 381.486C304.016 381.398 304.588 381.486 304.807 381.486C305.026 381.486 304.605 381.398 304.807 381.486C305.009 381.575 305.646 382.317 305.799 382.48C316.56 392.536 328.979 400.156 342.525 405.339C342.935 405.504 343.335 405.915 343.518 406.333C343.7 406.751 343.667 406.895 343.518 407.327C343.374 407.65 342.82 408.144 342.525 408.321C342.23 408.498 341.871 408.354 341.533 408.321V408.321Z" fill="#19305C"/>
<path d="M478.991 406.249C456.897 406.249 437.391 399.052 422.937 386.356C402.879 398.012 378.582 402.289 355.872 397.297C333.163 392.305 312.998 378.462 299.818 359.499C299.571 359.142 299.738 358.929 299.818 358.504C299.898 358.079 300.459 357.754 300.819 357.51C301.176 357.262 301.391 357.436 301.82 357.51C302.249 357.583 302.569 357.158 302.821 357.51C315.653 375.945 334.748 389.626 356.873 394.313C378.998 399.001 402.597 394.991 421.936 383.371C422.245 383.187 422.578 382.339 422.937 382.377C423.296 382.415 423.676 383.126 423.938 383.371C439.492 397.488 462.368 404.115 486.999 402.271C516.488 400.064 538.157 393.292 552.062 381.382C552.27 381.207 551.796 381.445 552.062 381.382C552.327 381.319 552.797 381.32 553.063 381.382C591.323 392.083 655.638 380.181 673.179 336.621C673.362 336.251 673.791 335.775 674.18 335.626C674.568 335.478 674.794 335.473 675.181 335.626C675.567 335.779 676.004 336.249 676.182 336.621C676.36 336.993 676.307 337.223 676.182 337.616C667.809 358.413 648.899 374.275 622.129 382.377C599.865 389.096 575.698 389.739 553.063 384.366C538.578 396.458 516.763 404.073 486.999 406.249C484.371 406.612 481.619 406.249 478.991 406.249Z" fill="#19305C"/>
<path d="M668.312 140.732C668.057 140.731 668.539 140.841 668.312 140.732C668.086 140.623 667.501 139.948 667.354 139.755L665.438 137.801C665.173 137.49 665.388 137.217 665.438 136.824C665.487 136.431 666.06 136.093 666.396 135.846C666.562 135.728 666.193 135.897 666.396 135.846C666.599 135.796 667.146 135.821 667.354 135.846C667.563 135.872 667.172 135.749 667.354 135.846C667.536 135.944 668.185 136.669 668.312 136.824C668.874 137.45 669.697 138.124 670.229 138.778C670.406 139 670.206 138.503 670.229 138.778C670.252 139.053 670.368 139.511 670.229 139.755C670.09 139.999 669.528 140.593 669.271 140.732C669.013 140.872 668.611 140.74 668.312 140.732V140.732Z" fill="#19305C"/>
<path d="M659.193 132.669C658.767 132.671 658.51 132.98 658.201 132.669C648.323 122.495 636.156 116.202 622.473 114.92C622.038 114.88 620.77 114.289 620.488 113.934C620.206 113.58 620.454 113.412 620.488 112.948C620.541 112.491 621.151 111.274 621.48 110.976C621.81 110.679 622.041 110.957 622.473 110.976C636.916 112.335 650.753 118.969 661.178 129.711C661.48 130.036 661.178 130.239 661.178 130.697C661.178 131.154 661.48 131.358 661.178 131.683C661.035 131.856 660.383 132.575 660.186 132.669C659.988 132.763 659.41 132.671 659.193 132.669V132.669Z" fill="#19305C"/>
<path d="M465.535 70.8093C465.158 70.807 464.834 71.0089 464.549 70.8093C464.265 70.6097 463.618 70.1594 463.564 69.8586C463.535 69.6942 463.511 69.0683 463.564 68.9079C463.616 68.7475 463.438 69.0394 463.564 68.9079C463.689 68.7765 464.37 68.99 464.549 68.9079C464.728 68.8258 464.345 67.9772 464.549 67.9572C465.842 67.7951 467.228 68.0498 468.492 67.9572C468.696 67.9435 469.283 67.907 469.478 67.9572C469.672 68.0074 469.322 67.8508 469.478 67.9572C469.634 68.0636 470.37 68.7615 470.463 68.9079C470.557 69.0544 470.447 68.7437 470.463 68.9079C470.48 69.0721 470.526 69.7017 470.463 69.8586C470.401 70.0155 470.596 69.7328 470.463 69.8586C470.331 69.9844 469.659 69.7831 469.478 69.8586C469.296 69.9341 469.681 70.7956 469.478 70.8093C468.271 70.8093 466.77 70.6704 465.535 70.8093V70.8093Z" fill="#19305C"/>
<path d="M415.644 92.7639C415.284 92.7764 414.943 92.9863 414.65 92.7639C414.358 92.5416 413.76 92.1409 413.657 91.776C413.553 91.4112 413.528 91.144 413.657 90.7881C413.785 90.4322 414.344 89.9994 414.65 89.8002C426.227 81.4464 438.888 74.9086 452.412 71.03C452.829 70.9126 453.032 70.8024 453.406 71.03C453.779 71.2576 454.286 71.5777 454.399 72.0179C454.51 72.4672 454.62 73.5924 454.399 73.9937C454.179 74.395 453.83 73.8736 453.406 73.9937C440.244 77.7656 427.895 84.6215 416.638 92.7639C416.363 92.9663 415.979 92.7579 415.644 92.7639V92.7639Z" fill="#19305C"/>
<path d="M676.654 213.575H675.654C675.238 213.446 674.865 212.962 674.655 212.577C674.444 212.193 674.541 212.004 674.655 211.58C677.779 200.718 677.994 188.724 675.654 177.663C673.315 166.603 668.905 156.37 661.658 147.737C654.411 139.104 645.098 132.939 634.664 128.784C624.23 124.629 612.815 123.484 601.672 124.794C601.391 124.829 600.934 123.904 600.672 123.796C600.41 123.689 599.848 124.019 599.672 123.796C569.505 86.003 531.956 81.6708 492.698 80.902C451.732 80.1025 413.481 100.533 394.721 131.777C394.472 132.157 394.159 131.662 393.721 131.777C393.279 131.865 392.101 132.023 391.722 131.777C382.76 125.617 372.554 122.494 361.729 121.801C350.904 121.109 340.399 122.818 330.736 127.786C321.468 132.809 313.44 140.814 307.742 149.732C302.044 158.65 298.448 168.077 297.744 178.661C297.746 178.883 297.834 179.455 297.744 179.659C297.655 179.862 297.909 180.508 297.744 180.656C297.58 180.804 296.955 180.589 296.744 180.656C296.534 180.723 296.964 180.682 296.744 180.656C296.527 180.648 295.942 180.749 295.745 180.656C295.547 180.563 294.89 179.822 294.745 179.659C294.6 179.495 294.815 179.867 294.745 179.659C294.675 179.45 294.728 178.88 294.745 178.661C295.49 167.511 298.741 157.133 304.743 147.737C310.744 138.342 318.976 130.091 328.737 124.794C338.658 119.659 349.589 117.271 360.729 117.811C371.869 118.351 383.334 121.716 392.722 127.786C412.396 96.3894 451.366 77.1406 492.698 77.9094C532.535 78.6782 570.558 82.7644 601.672 120.804C613.288 119.61 625.851 121.35 636.664 125.791C647.476 130.233 656.177 136.704 663.657 145.742C671.138 154.78 676.256 166.144 678.654 177.663C681.052 189.183 680.899 201.27 677.654 212.577C677.597 212.972 677.95 213.31 677.654 213.575C677.358 213.839 677.049 213.565 676.654 213.575Z" fill="#19305C"/>
<path d="M778.198 248.576C777.943 248.575 778.424 248.685 778.198 248.576C777.972 248.467 777.386 247.791 777.24 247.599L775.323 245.644C775.058 245.333 775.273 245.06 775.323 244.667C775.373 244.274 775.946 243.936 776.281 243.69C776.448 243.571 776.078 243.741 776.281 243.69C776.485 243.639 777.031 243.665 777.24 243.69C777.448 243.715 777.058 243.593 777.24 243.69C777.422 243.787 778.071 244.513 778.198 244.667C778.759 245.294 779.583 245.967 780.114 246.621C780.292 246.843 780.092 246.347 780.114 246.621C780.137 246.896 780.253 247.354 780.114 247.599C779.976 247.843 779.414 248.436 779.156 248.576C778.899 248.715 778.497 248.584 778.198 248.576V248.576Z" fill="#19305C"/>
<path d="M771.077 240.512C770.651 240.514 770.394 240.824 770.084 240.512C760.206 230.338 748.039 224.045 734.356 222.764C733.922 222.723 732.654 222.133 732.371 221.778C732.089 221.423 732.338 221.256 732.371 220.792C732.424 220.335 733.034 219.117 733.364 218.82C733.694 218.522 733.925 218.8 734.356 218.82C748.799 220.178 762.637 226.812 773.061 237.554C773.363 237.879 773.061 238.083 773.061 238.54C773.061 238.997 773.363 239.201 773.061 239.526C772.919 239.699 772.267 240.418 772.069 240.512C771.871 240.606 771.293 240.514 771.077 240.512V240.512Z" fill="#19305C"/>
<path d="M621.848 429.056C621.739 429.163 621.989 429.006 621.848 429.056C621.706 429.105 621.316 429.749 621.173 429.73L619.125 429.029C618.881 429.01 619.269 429.216 619.125 429.029C618.98 428.842 618.4 428.588 618.437 428.342C618.457 428.221 619.047 427.775 619.111 427.667C619.176 427.56 619.013 427.745 619.111 427.667C619.21 427.59 618.993 427.703 619.111 427.667C619.229 427.632 619.667 426.982 619.786 426.993C620.287 427.021 621.334 427.642 621.834 427.694C622.003 427.713 621.709 427.587 621.834 427.694C621.96 427.8 622.477 428.22 622.522 428.381C622.566 428.543 622.572 428.213 622.522 428.381C622.472 428.549 621.977 428.933 621.848 429.056V429.056Z" fill="#19305C"/>
<path d="M615.106 429.295C614.923 429.479 614.678 430.003 614.404 429.996C605.568 429.675 597.078 431.742 590.604 437.063C590.398 437.232 590.184 437.803 589.902 437.765C589.621 437.727 589.4 437.291 589.205 437.068C589.022 436.839 588.5 436.646 588.508 436.37C588.516 436.094 589.015 435.846 589.209 435.668C596.045 430.053 605.086 426.857 614.413 427.198C614.689 427.214 614.904 427.69 615.11 427.895C615.316 428.101 615.791 428.316 615.807 428.593C615.824 428.733 615.148 429.167 615.106 429.295C615.063 429.422 615.2 429.202 615.106 429.295V429.295Z" fill="#19305C"/>
<path d="M300.182 30.6336C300.074 30.741 300.323 30.5842 300.182 30.6336C300.04 30.6831 299.651 31.3275 299.508 31.308L297.459 30.6074C297.216 30.5879 297.604 30.7944 297.459 30.6074C297.314 30.4205 296.734 30.1657 296.771 29.92C296.792 29.7996 297.381 29.3527 297.446 29.2456C297.51 29.1385 297.347 29.323 297.446 29.2456C297.544 29.1682 297.328 29.2814 297.446 29.2456C297.564 29.2098 298.001 28.5598 298.12 28.5712C298.621 28.5989 299.668 29.2202 300.169 29.2718C300.337 29.2907 300.043 29.1654 300.169 29.2718C300.294 29.3782 300.811 29.7977 300.856 29.9593C300.901 30.1209 300.906 29.7916 300.856 29.9593C300.806 30.1269 300.311 30.5108 300.182 30.6336V30.6336Z" fill="#19305C"/>
<path d="M293.44 30.8729C293.258 31.0573 293.012 31.5813 292.739 31.5745C283.903 31.2533 275.412 33.3199 268.938 38.6417C268.733 38.8107 268.518 39.3815 268.237 39.3434C267.956 39.3053 267.734 38.8692 267.54 38.6459C267.357 38.4175 266.834 38.2246 266.842 37.9485C266.85 37.6724 267.349 37.4241 267.544 37.2468C274.38 31.6319 283.42 28.4352 292.747 28.7763C293.023 28.7924 293.239 29.2679 293.444 29.4738C293.65 29.6796 294.126 29.8948 294.142 30.1712C294.158 30.3109 293.483 30.7452 293.44 30.8729C293.397 31.0005 293.534 30.7804 293.44 30.8729V30.8729Z" fill="#19305C"/>
<ellipse cx="731.239" cy="286.585" rx="48.9491" ry="48.929" fill="#E7F0EB"/>
<ellipse cx="292.695" cy="66.9032" rx="24.974" ry="24.9638" fill="#FFF4EF"/>
<ellipse cx="616.359" cy="464.327" rx="24.974" ry="24.9638" fill="#FFF4EF"/>
</svg>
