<svg width="1920" height="555" viewBox="0 0 1920 555" fill="none" xmlns="http://www.w3.org/2000/svg">
<g opacity="0.5">
<path d="M1139.76 158.347C1139.76 123.783 1167.78 95.7631 1202.35 95.7631" stroke="#FFCAD4"/>
<path d="M1109.63 158.347C1109.63 107.141 1151.14 65.6302 1202.35 65.6302" stroke="#FFCAD4"/>
<path d="M1081.81 158.346C1081.81 91.7786 1135.78 37.8148 1202.35 37.8148" stroke="#FFCAD4"/>
<path d="M1054 158.346C1054 76.417 1120.42 10.0002 1202.35 10.0002" stroke="#FFCAD4"/>
<path d="M1264.93 158.347C1264.93 123.783 1236.91 95.7631 1202.35 95.7631" stroke="#FFCAD4"/>
<path d="M1295.06 158.347C1295.06 107.141 1253.55 65.6302 1202.35 65.6302" stroke="#FFCAD4"/>
<path d="M1322.88 158.346C1322.88 91.7786 1268.91 37.8148 1202.35 37.8148" stroke="#FFCAD4"/>
<path d="M1350.69 158.346C1350.69 76.417 1284.28 10.0002 1202.35 10.0002" stroke="#FFCAD4"/>
</g>
<g opacity="0.5">
<path d="M1139.76 158.347C1139.76 192.911 1167.78 220.93 1202.35 220.93" stroke="#FFCAD4"/>
<path d="M1109.63 158.347C1109.63 209.553 1151.14 251.063 1202.35 251.063" stroke="#FFCAD4"/>
<path d="M1081.81 158.347C1081.81 224.915 1135.78 278.879 1202.35 278.879" stroke="#FFCAD4"/>
<path d="M1054 158.347C1054 240.276 1120.42 306.693 1202.35 306.693" stroke="#FFCAD4"/>
<path d="M1264.93 158.347C1264.93 192.911 1236.91 220.93 1202.35 220.93" stroke="#FFCAD4"/>
<path d="M1295.06 158.347C1295.06 209.553 1253.55 251.063 1202.35 251.063" stroke="#FFCAD4"/>
<path d="M1322.88 158.347C1322.88 224.915 1268.91 278.879 1202.35 278.879" stroke="#FFCAD4"/>
<path d="M1350.69 158.347C1350.69 240.276 1284.28 306.693 1202.35 306.693" stroke="#FFCAD4"/>
</g>
<g opacity="0.5">
<path d="M655.763 396.347C655.763 361.783 683.782 333.763 718.346 333.763" stroke="#FFCAD4"/>
<path d="M625.63 396.347C625.63 345.141 667.14 303.63 718.346 303.63" stroke="#FFCAD4"/>
<path d="M597.815 396.346C597.815 329.779 651.779 275.815 718.346 275.815" stroke="#FFCAD4"/>
<path d="M570 396.346C570 314.417 636.417 248 718.346 248" stroke="#FFCAD4"/>
<path d="M780.93 396.347C780.93 361.783 752.91 333.763 718.346 333.763" stroke="#FFCAD4"/>
<path d="M811.063 396.347C811.063 345.141 769.552 303.63 718.346 303.63" stroke="#FFCAD4"/>
<path d="M838.878 396.346C838.878 329.779 784.914 275.815 718.346 275.815" stroke="#FFCAD4"/>
<path d="M866.693 396.346C866.693 314.417 800.276 248 718.346 248" stroke="#FFCAD4"/>
</g>
<g opacity="0.5">
<path d="M655.763 396.347C655.763 430.911 683.782 458.93 718.346 458.93" stroke="#FFCAD4"/>
<path d="M625.63 396.347C625.63 447.553 667.14 489.063 718.346 489.063" stroke="#FFCAD4"/>
<path d="M597.815 396.347C597.815 462.915 651.779 516.879 718.346 516.879" stroke="#FFCAD4"/>
<path d="M570 396.347C570 478.276 636.417 544.693 718.346 544.693" stroke="#FFCAD4"/>
<path d="M780.93 396.347C780.93 430.911 752.91 458.93 718.346 458.93" stroke="#FFCAD4"/>
<path d="M811.063 396.347C811.063 447.553 769.552 489.063 718.346 489.063" stroke="#FFCAD4"/>
<path d="M838.878 396.347C838.878 462.915 784.914 516.879 718.346 516.879" stroke="#FFCAD4"/>
<path d="M866.693 396.347C866.693 478.276 800.276 544.693 718.346 544.693" stroke="#FFCAD4"/>
</g>
</svg>
