<svg width="24" height="17" viewBox="0 0 24 17" fill="none" xmlns="http://www.w3.org/2000/svg">
<path d="M8.07143 0.0114746L9.42857 2.5829C7.38095 3.10671 5.78571 3.96385 4.64286 5.15433C3.54762 6.29719 3 7.67814 3 9.29719C3 10.5353 3.21429 11.4162 3.64286 11.94C3.88095 11.2734 4.28571 10.7258 4.85714 10.2972C5.42857 9.821 6.09524 9.5829 6.85714 9.5829C7.80952 9.5829 8.64286 9.91623 9.35714 10.5829C10.0714 11.2019 10.4286 12.0591 10.4286 13.1543C10.4286 14.2019 10.0476 15.0353 9.28571 15.6543C8.52381 16.2734 7.61905 16.6305 6.57143 16.7258C4.76191 16.8686 3.21429 16.2496 1.92857 14.8686C0.642857 13.44 0 11.5591 0 9.22576C0 6.89243 0.738095 4.96386 2.21429 3.44005C3.69048 1.91624 5.64286 0.773378 8.07143 0.0114746ZM21.7143 0.0114746L23 2.5829C21 3.10671 19.4286 3.96385 18.2857 5.15433C17.1905 6.29719 16.6429 7.67814 16.6429 9.29719C16.6429 10.5353 16.8333 11.4162 17.2143 11.94C17.4524 11.2734 17.8571 10.7258 18.4286 10.2972C19.0476 9.821 19.7143 9.5829 20.4286 9.5829C21.4286 9.5829 22.2619 9.91623 22.9286 10.5829C23.6429 11.2019 24 12.0591 24 13.1543C24 14.2019 23.619 15.0353 22.8571 15.6543C22.1429 16.2734 21.2381 16.6305 20.1429 16.7258C18.381 16.8686 16.8571 16.2496 15.5714 14.8686C14.2857 13.44 13.6429 11.5591 13.6429 9.22576C13.6429 6.89243 14.3571 4.96386 15.7857 3.44005C17.2619 1.91624 19.2381 0.773378 21.7143 0.0114746Z" fill="#FFCAD4"/>
</svg>
