<svg width="61" height="61" viewBox="0 0 61 61" fill="none" xmlns="http://www.w3.org/2000/svg">
<rect width="61" height="61" rx="30.5" fill="white"/>
<path d="M25.6822 37.18C24.7462 37.18 23.8882 36.916 23.1082 36.388C22.3402 35.86 21.7282 35.116 21.2722 34.156C20.8162 33.184 20.5882 32.044 20.5882 30.736C20.5882 29.428 20.8102 28.294 21.2542 27.334C21.7102 26.374 22.3222 25.636 23.0902 25.12C23.8582 24.592 24.7042 24.328 25.6282 24.328C26.5762 24.328 27.4342 24.592 28.2022 25.12C28.9702 25.636 29.5762 26.374 30.0202 27.334C30.4762 28.294 30.7042 29.434 30.7042 30.754C30.7042 32.062 30.4762 33.202 30.0202 34.174C29.5762 35.134 28.9702 35.878 28.2022 36.406C27.4462 36.922 26.6062 37.18 25.6822 37.18ZM25.6462 35.578C26.3062 35.578 26.8822 35.398 27.3742 35.038C27.8782 34.666 28.2742 34.12 28.5622 33.4C28.8502 32.68 28.9942 31.792 28.9942 30.736C28.9942 29.68 28.8502 28.798 28.5622 28.09C28.2742 27.37 27.8782 26.83 27.3742 26.47C26.8702 26.098 26.2882 25.912 25.6282 25.912C24.9802 25.912 24.4042 26.098 23.9002 26.47C23.3962 26.83 23.0002 27.37 22.7122 28.09C22.4362 28.798 22.2982 29.68 22.2982 30.736C22.2982 31.792 22.4362 32.68 22.7122 33.4C23.0002 34.12 23.3962 34.666 23.9002 35.038C24.4042 35.398 24.9862 35.578 25.6462 35.578ZM32.1135 35.974L36.7215 31.114C37.1895 30.634 37.5555 30.22 37.8195 29.872C38.0835 29.512 38.2695 29.182 38.3775 28.882C38.4975 28.582 38.5575 28.27 38.5575 27.946C38.5575 27.31 38.3535 26.812 37.9455 26.452C37.5375 26.092 37.0095 25.912 36.3615 25.912C35.7255 25.912 35.1675 26.068 34.6875 26.38C34.2075 26.68 33.7815 27.148 33.4095 27.784L32.2215 26.794C32.7135 25.978 33.3075 25.366 34.0035 24.958C34.6995 24.538 35.5035 24.328 36.4155 24.328C37.1835 24.328 37.8495 24.478 38.4135 24.778C38.9895 25.078 39.4335 25.498 39.7455 26.038C40.0575 26.578 40.2135 27.208 40.2135 27.928C40.2135 28.444 40.1475 28.906 40.0155 29.314C39.8955 29.722 39.6735 30.142 39.3495 30.574C39.0375 30.994 38.5995 31.498 38.0355 32.086L34.3095 35.92L32.1135 35.974ZM32.1135 37V35.974L33.5535 35.488H40.5015V37H32.1135Z" fill="#19305C"/>
</svg>
