<svg width="61" height="61" viewBox="0 0 61 61" fill="none" xmlns="http://www.w3.org/2000/svg">
<rect width="61" height="61" rx="30.5" fill="white"/>
<path d="M27.4136 37.18C26.4776 37.18 25.6196 36.916 24.8396 36.388C24.0716 35.86 23.4596 35.116 23.0036 34.156C22.5476 33.184 22.3196 32.044 22.3196 30.736C22.3196 29.428 22.5416 28.294 22.9856 27.334C23.4416 26.374 24.0536 25.636 24.8216 25.12C25.5896 24.592 26.4356 24.328 27.3596 24.328C28.3076 24.328 29.1656 24.592 29.9336 25.12C30.7016 25.636 31.3076 26.374 31.7516 27.334C32.2076 28.294 32.4356 29.434 32.4356 30.754C32.4356 32.062 32.2076 33.202 31.7516 34.174C31.3076 35.134 30.7016 35.878 29.9336 36.406C29.1776 36.922 28.3376 37.18 27.4136 37.18ZM27.3776 35.578C28.0376 35.578 28.6136 35.398 29.1056 35.038C29.6096 34.666 30.0056 34.12 30.2936 33.4C30.5816 32.68 30.7256 31.792 30.7256 30.736C30.7256 29.68 30.5816 28.798 30.2936 28.09C30.0056 27.37 29.6096 26.83 29.1056 26.47C28.6016 26.098 28.0196 25.912 27.3596 25.912C26.7116 25.912 26.1356 26.098 25.6316 26.47C25.1276 26.83 24.7316 27.37 24.4436 28.09C24.1676 28.798 24.0296 29.68 24.0296 30.736C24.0296 31.792 24.1676 32.68 24.4436 33.4C24.7316 34.12 25.1276 34.666 25.6316 35.038C26.1356 35.398 26.7176 35.578 27.3776 35.578ZM36.4001 37V24.508H38.0741V37H36.4001ZM33.8441 26.02V24.508H37.8941V26.02H33.8441Z" fill="#19305C"/>
</svg>
