<svg width="96" height="96" viewBox="0 0 96 96" fill="none" xmlns="http://www.w3.org/2000/svg">
<rect width="96" height="96" rx="15" fill="#FFF4E6"/>
<path d="M60.2538 47.408C61.5935 47.7258 63.0576 47.7189 64.6193 47.0599C67.3039 45.9275 69.2128 43.3526 69.2724 40.4391C69.3398 37.1758 67.2694 34.3927 64.3688 33.3752C64.165 30.4124 61.7032 28.0716 58.6895 28.0716C58.6809 28.0716 58.6723 28.0725 58.6636 28.0725C58.7172 27.6242 58.6869 27.15 58.5418 26.655C58.1341 25.2644 56.9119 24.1976 55.4729 24.0266C54.293 23.8867 53.2098 24.309 52.4505 25.0597C51.7301 24.4092 50.7835 24.0015 49.734 24.0015C47.4856 24.0015 45.663 25.8241 45.663 28.0725C45.663 28.0794 45.6648 28.0863 45.6648 28.0932C42.9318 28.3005 40.7775 30.5791 40.7775 33.3648C40.7775 33.7906 40.8328 34.2027 40.9278 34.5991C37.6749 34.7347 35.0775 37.4064 35.0775 40.6922C35.0775 41.8056 35.3798 42.8455 35.9007 43.7447C34.9013 44.5662 34.2639 45.8117 34.2639 47.2059C34.2639 49.1554 35.512 50.8095 37.2516 51.4245C37.0271 59.3859 39.868 64.0831 45.3642 70.4102C45.4626 70.5233 45.562 70.6373 45.6622 70.7505C45.6838 70.7747 45.7054 70.7989 45.7269 70.8231C48.0125 73.3876 53.1675 71.4234 52.0584 68.1721C46.1372 50.8017 64.3887 53.3127 64.3887 53.3127C64.3887 53.3127 64.9104 48.0584 60.202 47.8122C60.208 47.6809 60.2141 47.5488 60.2201 47.4175C60.2322 47.4149 60.2417 47.4106 60.2538 47.408Z" fill="#88C057"/>
<path d="M45.7277 70.8231C45.7062 70.799 45.6846 70.7748 45.663 70.7506C45.5628 70.6374 45.4634 70.5243 45.365 70.4103C39.8679 64.0831 37.027 59.386 37.2524 51.4246C35.5128 50.8096 34.2647 49.1555 34.2647 47.2059C34.2647 45.811 34.9021 44.5663 35.9015 43.7448C35.3815 42.8456 35.0783 41.8057 35.0783 40.6923C35.0783 37.4065 37.6757 34.734 40.9286 34.5992C40.8336 34.2028 40.7783 33.7907 40.7783 33.3649C40.7783 31.1519 42.1397 29.2637 44.0684 28.4742C43.9406 28.0553 43.7782 27.6329 43.5649 27.2105C42.5007 25.1021 40.6281 23.7779 38.9187 24.0561C37.5098 24.2849 36.5243 25.4346 36.1002 26.9808C34.9185 26.1852 33.6073 25.876 32.4231 26.2932C29.8845 27.1872 29.0838 30.8375 30.5375 34.2183C30.5418 34.2287 30.5479 34.2373 30.5522 34.2477C27.8002 35.5623 27.0686 39.4709 28.8134 42.9968C29.0682 43.5107 29.3645 43.9832 29.6875 44.4194C26.6479 45.6762 25.8455 49.4923 27.7596 52.8274C28.3712 53.8933 29.1883 54.7708 30.097 55.4334C29.6668 56.4621 29.7601 57.7275 30.4442 58.8953C31.3624 60.464 33.0856 61.3951 34.6991 61.3839C37.5349 66.9526 41.0142 69.1129 46.2823 71.3483C46.3376 71.3716 46.3929 71.395 46.4481 71.4174C46.189 71.2533 45.9428 71.065 45.7277 70.8231Z" fill="#659C35"/>
<path d="M47.7933 45.094C47.8434 44.9835 47.8667 44.8677 47.8685 44.7537C48.4878 43.1955 49.2332 41.8877 50.0089 40.7968C53.882 39.9917 56.8042 41.2019 56.8689 41.2295C56.9821 41.2796 57.0996 41.3021 57.2136 41.3021C57.5461 41.3021 57.8631 41.1086 58.0057 40.7855C58.1974 40.3485 57.9979 39.8388 57.5617 39.6471C57.4416 39.5953 55.0585 38.5777 51.6319 38.8274C53.3059 37.0817 54.7752 36.2896 54.9946 36.1791C56.2496 35.5779 58.0834 36.3553 58.6855 36.706C58.8228 36.7871 58.9731 36.8252 59.1225 36.8252C59.4179 36.8252 59.7064 36.6731 59.8671 36.4002C60.1089 35.989 59.9733 35.4604 59.5613 35.2177C59.4628 35.1589 57.5211 34.0369 55.5318 34.2623C55.702 33.5618 56.0795 32.9244 56.2721 32.6687C56.5614 32.2904 56.4889 31.7488 56.1097 31.4594C55.7322 31.1701 55.1889 31.2409 54.8996 31.6209C54.8451 31.6909 53.7119 33.1939 53.7145 34.924C52.4577 35.6936 49.2108 38.0267 46.939 42.7152C46.8164 42.9674 46.6981 43.2386 46.5806 43.5107C44.2242 41.8998 44.6121 39.0338 44.6336 38.8947C44.7071 38.4249 44.3866 37.9835 43.9159 37.9083C43.446 37.8332 43.002 38.1545 42.9268 38.6253C42.6763 40.193 43.0357 43.4235 45.9457 45.1588C45.3031 47.0487 44.8159 49.3049 44.6656 51.9679C44.6483 52.0517 44.6449 52.1329 44.6518 52.2158C44.562 54.0824 44.6483 56.1529 44.9489 58.4203C43.8537 57.8174 43.3527 56.9354 43.3207 56.8758C43.0953 56.4569 42.5753 56.2971 42.1555 56.5182C41.734 56.7402 41.5707 57.2628 41.7936 57.6852C41.8394 57.7724 42.8733 59.684 45.2633 60.4225C45.8861 63.8396 46.9961 67.6764 48.791 71.9823C49.3827 71.9434 49.9588 71.7871 50.4684 71.5332C50.4658 71.5262 50.4667 71.5185 50.4641 71.5107C48.5802 67.0286 47.4435 63.0803 46.8389 59.5915C46.8354 59.5708 46.8337 59.5509 46.8294 59.5311C46.3802 56.9138 46.2342 54.5618 46.3189 52.4551C47.5281 50.3933 51.0826 50.3103 51.1188 50.3095C51.5956 50.3017 51.9766 49.9104 51.9696 49.4336C51.9627 48.9603 51.5784 48.5819 51.1067 48.5819C51.1033 48.5819 51.0998 48.5819 51.0964 48.5819C50.9556 48.5837 48.493 48.6372 46.5391 49.862C46.7775 48.1518 47.174 46.6367 47.6655 45.291C47.7164 45.2314 47.7605 45.1666 47.7933 45.094Z" fill="#659C35"/>
</svg>
