<svg width="96" height="97" viewBox="0 0 96 97" fill="none" xmlns="http://www.w3.org/2000/svg">
<path d="M24.9598 59.076H26.5926V63.6108H29.3076V64.8058H24.9598V59.076Z" fill="#047857"/>
<path d="M34.8977 64.8058L34.26 63.7008H32.1152L31.4871 64.8058H29.6321L33.1972 58.7158L36.7527 64.8058H34.8977ZM33.1972 61.1878L32.4436 62.6449H33.9412L33.1972 61.1878Z" fill="#047857"/>
<path d="M38.2053 62.7922C38.4115 63.1033 38.653 63.3515 38.93 63.5371C39.2134 63.7172 39.5258 63.8072 39.8671 63.8072C40.1119 63.8072 40.3084 63.7581 40.4565 63.6599C40.6111 63.5562 40.6884 63.417 40.6884 63.2424C40.6884 63.1005 40.6433 62.9832 40.5531 62.8904C40.4629 62.7977 40.318 62.7104 40.1183 62.6285C39.9251 62.5466 39.6642 62.4539 39.3358 62.3502C39.1683 62.2956 38.9815 62.2247 38.7754 62.1374C38.5693 62.0501 38.3696 61.9382 38.1764 61.8018C37.9896 61.6653 37.835 61.4989 37.7126 61.3024C37.5902 61.1005 37.529 60.8604 37.529 60.5821C37.529 60.2383 37.6321 59.9464 37.8382 59.7063C38.0508 59.4607 38.3342 59.2724 38.6884 59.1415C39.0491 59.0105 39.4485 58.945 39.8865 58.945C40.3438 58.945 40.7367 59.0078 41.0652 59.1333C41.3937 59.2588 41.6674 59.417 41.8864 59.608C42.1054 59.799 42.2729 59.9928 42.3888 60.1892L41.1425 60.7786C40.9943 60.5712 40.8172 60.4075 40.6111 60.2874C40.405 60.1619 40.1699 60.0992 39.9058 60.0992C39.6739 60.0992 39.4968 60.1428 39.3744 60.2301C39.2585 60.312 39.2005 60.4157 39.2005 60.5412C39.2005 60.7376 39.3293 60.8986 39.587 61.0241C39.851 61.1442 40.2182 61.2752 40.6884 61.417C41.004 61.5098 41.2906 61.6353 41.5483 61.7936C41.8123 61.9464 42.0217 62.1374 42.1763 62.3666C42.3373 62.5903 42.4178 62.8604 42.4178 63.1769C42.4178 63.5644 42.2986 63.8945 42.0603 64.1674C41.822 64.4348 41.5096 64.6394 41.1231 64.7813C40.7431 64.9177 40.3406 64.9859 39.9154 64.9859C39.4775 64.9859 39.0685 64.9204 38.6884 64.7895C38.3148 64.653 37.9864 64.473 37.7029 64.2492C37.426 64.02 37.2134 63.7663 37.0653 63.488L38.2053 62.7922Z" fill="#047857"/>
<path d="M42.8236 60.3202V59.076H48.1761V60.3202H46.3211V64.8058H44.6786V60.3202H42.8236Z" fill="#047857"/>
<path d="M45.5564 23.5283H25C21.134 23.5283 18 26.6623 18 30.5283V66.4743C18 70.3403 21.134 73.4743 25 73.4743H45.5564" stroke="#047857" stroke-width="3"/>
<path fill-rule="evenodd" clip-rule="evenodd" d="M71.0001 22.2363H48.7214V59.0761H49.8808C50.7439 59.0761 51.3977 59.2426 51.8421 59.5755C52.2866 59.9083 52.5088 60.3667 52.5088 60.9506C52.5088 61.5291 52.2866 61.9874 51.8421 62.3258C51.3977 62.6587 50.7439 62.8251 49.8808 62.8251H49.1659V64.806H48.7214V74.7657H71.0001C74.8661 74.7657 78.0001 71.6317 78.0001 67.7657V29.2363C78.0001 25.3703 74.8661 22.2363 71.0001 22.2363ZM56.7767 63.701L57.4143 64.806H59.2693L55.7139 58.716L52.1488 64.806H54.0038L54.6318 63.701H56.7767ZM54.9603 62.645L55.7139 61.188L56.4578 62.645H54.9603ZM49.1659 60.2139H49.8808C50.2093 60.2139 50.467 60.2767 50.6538 60.4022C50.8406 60.5277 50.934 60.7105 50.934 60.9506C50.934 61.1853 50.8406 61.3653 50.6538 61.4909C50.467 61.6164 50.2093 61.6791 49.8808 61.6791H49.1659V60.2139ZM63.0381 62.7351V61.6709H66.4583C66.4905 62.1239 66.4358 62.5522 66.2941 62.9561C66.1524 63.3544 65.9334 63.7064 65.6371 64.012C65.3408 64.3176 64.9704 64.5577 64.526 64.7323C64.088 64.9015 63.5792 64.9861 62.9995 64.9861C62.2845 64.9861 61.6469 64.8578 61.0865 64.6014C60.5325 64.3449 60.0946 63.9902 59.7725 63.5372C59.4569 63.0789 59.2991 62.5468 59.2991 61.9411C59.2991 61.3353 59.4633 60.8087 59.7918 60.3613C60.1203 59.9083 60.568 59.5591 61.1348 59.3135C61.7016 59.068 62.3425 58.9452 63.0574 58.9452C63.7724 58.9452 64.3811 59.0734 64.8835 59.3299C65.3859 59.5809 65.7949 59.9056 66.1105 60.304L64.6516 60.9424C64.497 60.7187 64.2909 60.5304 64.0333 60.3776C63.7821 60.2248 63.4568 60.1484 63.0574 60.1484C62.6839 60.1484 62.3393 60.2194 62.0237 60.3613C61.7145 60.5031 61.4665 60.7078 61.2797 60.9752C61.0994 61.2426 61.0092 61.5645 61.0092 61.9411C61.0092 62.3176 61.0961 62.645 61.27 62.9233C61.4504 63.1962 61.6952 63.409 62.0043 63.5618C62.3135 63.7091 62.6645 63.7828 63.0574 63.7828C63.5534 63.7828 63.9463 63.6846 64.2362 63.4881C64.526 63.2862 64.7257 63.0352 64.8352 62.7351H63.0381ZM72.0471 59.0761H67.5545V64.806H72.0471V63.6682H69.1293V62.3585H71.8539V61.2371H69.1293V60.2139H72.0471V59.0761Z" fill="#047857"/>
</svg>
