<svg width="96" height="96" viewBox="0 0 96 96" fill="none" xmlns="http://www.w3.org/2000/svg">
<rect width="96" height="96" rx="15" fill="#FFF4E6"/>
<path d="M53.4465 43.3639C53.4465 43.3639 63.9247 37.1527 70.5774 45.9295C70.5774 45.9295 72.3025 47.9246 70.9764 49.8348C69.6715 51.7128 66.7586 51.3138 65.3086 49.3229C64.0003 47.5273 60.848 45.2478 53.4465 43.3639Z" fill="#88C057"/>
<path d="M53.4469 43.3639C53.4469 43.3639 59.8194 33.047 51.6258 26.9776C51.6258 26.9776 48.9218 24.5469 46.4792 25.4121C44.2073 26.2161 44.1479 29.3836 46.2381 30.5815C48.5287 31.8949 51.6665 35.1754 53.4469 43.3639Z" fill="#88C057"/>
<path d="M70.3579 46.4696C70.3579 46.4696 70.4148 46.5426 70.4895 46.6436C70.7077 46.4483 70.9191 46.2378 71.111 45.9916C72.8802 43.7248 71.4624 41.9708 71.4624 41.9708C66.2106 34.0701 53.9869 42.6559 53.9869 42.6559C54.5752 42.6967 55.1254 42.7493 55.6577 42.8053C59.153 41.5302 65.6936 40.3161 70.3579 46.4696Z" fill="#88C057"/>
<path d="M51.6263 26.9776C57.9471 31.6589 55.6005 38.8651 54.1971 41.9164C54.1996 41.9851 54.2047 42.0471 54.2073 42.1159C54.2073 42.1159 62.9306 30.0297 55.5274 25.2754C55.5274 25.2754 53.1681 23.2573 50.4344 24.6471C49.9649 24.8857 49.5599 25.1947 49.222 25.5437C50.5897 26.048 51.6263 26.9776 51.6263 26.9776Z" fill="#A4E869"/>
<path d="M66.8388 29.2054C63.7425 27.1992 59.8125 30.2284 59.8125 30.2284C59.1605 31.0095 58.5688 31.85 58.0229 32.7134C57.4812 36.6603 54.9096 40.9265 53.6311 42.8452C53.5555 43.1118 53.4918 43.3453 53.4477 43.5134C54.9292 42.5183 59.2446 39.8262 63.4861 39.1292C64.5389 38.4313 65.5424 37.6647 66.416 36.8327C71.0981 32.3746 66.8388 29.2054 66.8388 29.2054Z" fill="#659C35"/>
<path d="M53.4465 43.3639C53.4465 43.3639 63.9247 37.1527 70.5774 45.9295C70.5774 45.9295 72.3025 47.9246 70.9764 49.8348C69.6715 51.7128 66.7586 51.3138 65.3086 49.3229C64.0003 47.5273 60.848 45.2478 53.4465 43.3639Z" fill="#A4E869"/>
<path d="M54.0334 42.4241C53.7948 42.8885 53.6326 43.1517 53.6326 43.1517C53.6326 43.1517 54.03 42.9174 54.7125 42.6058C54.491 42.5447 54.2677 42.4844 54.0334 42.4241Z" fill="#F2681C"/>
<path d="M59.495 48.0071C59.8524 47.0121 59.8303 46.0255 59.6071 45.0959C58.0118 44.426 56.0532 43.7672 53.6327 43.1517C53.0461 40.4545 52.3117 38.2989 51.5094 36.5619C50.4032 36.1773 49.1934 36.0406 47.9691 36.4804C44.1275 37.8608 27.2343 62.1665 24.0753 70.6411C23.7781 71.4383 24.4038 72.0631 25.2002 71.766C33.6748 68.6069 58.1145 51.8479 59.495 48.0071Z" fill="#ED8F20"/>
<path d="M30.9919 63.7812C30.4197 63.5079 29.8636 63.1742 29.3389 62.7896C28.9603 62.5111 28.4297 62.5943 28.1529 62.9721C27.8761 63.3499 27.9576 63.8814 28.3354 64.1582C28.945 64.6056 29.5928 64.9944 30.2601 65.3128C30.3781 65.3688 30.5029 65.396 30.626 65.396C30.9427 65.396 31.2466 65.2177 31.3926 64.9129C31.5938 64.4901 31.4147 63.9824 30.9919 63.7812Z" fill="#DD7017"/>
<path d="M57.2467 47.6224C55.5097 46.9602 53.8974 45.7699 52.4567 44.0847C52.1519 43.7281 51.6162 43.6865 51.2596 43.9913C50.9031 44.2961 50.8614 44.8318 51.1662 45.1884C52.7937 47.0918 54.636 48.4451 56.6422 49.21C56.7415 49.2474 56.8434 49.2661 56.9444 49.2661C57.2866 49.2661 57.6084 49.0572 57.7382 48.7185C57.9046 48.2804 57.6848 47.7897 57.2467 47.6224Z" fill="#DD7017"/>
<path d="M43.2901 40.9358C43.6204 41.0215 43.8853 41.2992 43.9252 41.6608C44.0771 43.0464 44.7928 44.842 46.0519 45.7292C46.4348 45.9992 46.5265 46.5289 46.2557 46.9127C46.0909 47.147 45.8278 47.2718 45.5612 47.2718C45.3922 47.2718 45.2216 47.2217 45.0722 47.1164C43.3733 45.9185 42.5286 43.7655 42.2841 42.1524" fill="#DD7017"/>
<path d="M45.0722 47.1164C45.2207 47.2217 45.3914 47.2718 45.5612 47.2718C45.8278 47.2718 46.0909 47.147 46.2556 46.9127C46.5256 46.5289 46.4348 46 46.0519 45.7292C44.7937 44.8411 44.0771 43.0455 43.9252 41.6608C43.8853 41.3 43.6204 41.0215 43.2901 40.9358C42.9633 41.3238 42.6288 41.7262 42.2841 42.1515C42.5286 43.7655 43.3733 45.9185 45.0722 47.1164Z" fill="#DD7017"/>
<path d="M49.7644 56.7525C48.1599 56.4927 46.0552 55.6471 44.876 53.9755C44.606 53.5926 44.6977 53.0628 45.0806 52.792C45.4626 52.522 45.9932 52.6137 46.2641 52.9966C47.1513 54.254 48.9469 54.9713 50.3324 55.1233C50.7043 55.1641 50.9827 55.4417 51.0592 55.7872" fill="#DD7017"/>
<path d="M50.3333 55.1233C48.9469 54.9713 47.1513 54.2547 46.2649 52.9965C45.995 52.6136 45.4635 52.5211 45.0815 52.7919C44.6977 53.0619 44.606 53.5917 44.8769 53.9754C46.0561 55.6471 48.1607 56.4927 49.7653 56.7525C50.2059 56.4273 50.6381 56.1064 51.06 55.788C50.9836 55.4416 50.7043 55.164 50.3333 55.1233Z" fill="#DD7017"/>
<path d="M36.5272 49.8179C36.8659 49.8977 37.1385 50.1778 37.1792 50.5446C37.2743 51.4148 37.7183 52.5389 38.4943 53.0873C38.8772 53.3573 38.9689 53.8871 38.6981 54.2708C38.5325 54.5051 38.2702 54.6299 38.0036 54.6299C37.8346 54.6299 37.664 54.5798 37.5146 54.4746C36.3871 53.6791 35.7826 52.3012 35.5627 51.1932" fill="#DD7017"/>
<path d="M37.515 54.4746C37.6635 54.5798 37.8342 54.6299 38.004 54.6299C38.2706 54.6299 38.5329 54.5051 38.6984 54.2708C38.9684 53.8879 38.8776 53.3582 38.4947 53.0873C37.7179 52.5389 37.2747 51.4157 37.1796 50.5446C37.1397 50.177 36.8672 49.8968 36.5276 49.8179C36.2058 50.2721 35.8849 50.7305 35.5631 51.1932C35.783 52.3012 36.3875 53.6791 37.515 54.4746Z" fill="#DD7017"/>
<path d="M39.3018 63.9426C38.1498 63.7923 36.5477 63.1887 35.6639 61.9347C35.3939 61.551 35.4848 61.022 35.8677 60.7512C36.2514 60.4795 36.7812 60.5729 37.0512 60.955C37.5996 61.7318 38.7228 62.175 39.593 62.2701C40.0591 62.321 40.3953 62.7404 40.3444 63.2065C40.3418 63.2328 40.3274 63.2549 40.3223 63.2803" fill="#DD7017"/>
<path d="M39.593 62.271C38.7228 62.1759 37.5987 61.7319 37.0511 60.9559C36.7811 60.573 36.2522 60.4805 35.8676 60.7522C35.4847 61.0222 35.393 61.5519 35.6639 61.9357C36.5485 63.1896 38.1497 63.7933 39.3018 63.9435C39.6414 63.7253 39.9818 63.5037 40.3223 63.2822C40.3273 63.2567 40.3418 63.2346 40.3443 63.2083C40.3961 62.7422 40.0591 62.322 39.593 62.271Z" fill="#DD7017"/>
</svg>
