<svg width="96" height="96" viewBox="0 0 96 96" fill="none" xmlns="http://www.w3.org/2000/svg">
<path d="M30.2929 73.7757C30.2929 74.6792 30.1052 75.4478 29.7297 76.0814C29.3659 76.7151 28.8907 77.1962 28.304 77.5247C27.7173 77.8415 27.0954 77.9999 26.4383 77.9999C25.2414 77.9999 24.3203 77.513 23.675 76.5391V77.8239H21.0172V64.0952H23.675V71.0124C24.3203 70.0385 25.2414 69.5515 26.4383 69.5515C27.0954 69.5515 27.7173 69.7158 28.304 70.0443C28.8907 70.3611 29.3659 70.8364 29.7297 71.47C30.1052 72.0919 30.2929 72.8605 30.2929 73.7757ZM27.4944 73.7757C27.4944 73.1421 27.3007 72.6375 26.9135 72.262C26.538 71.8866 26.0863 71.6988 25.5583 71.6988C25.2649 71.6988 24.9716 71.781 24.6782 71.9452C24.3849 72.1095 24.1443 72.3442 23.9566 72.6493C23.7688 72.9543 23.675 73.3298 23.675 73.7757C23.675 74.2099 23.7688 74.5854 23.9566 74.9022C24.1443 75.2073 24.3849 75.4419 24.6782 75.6062C24.9716 75.7705 25.2649 75.8526 25.5583 75.8526C26.0863 75.8526 26.538 75.6649 26.9135 75.2894C27.3007 74.9139 27.4944 74.4094 27.4944 73.7757Z" fill="#047857"/>
<path d="M31.4055 73.7757C31.4055 72.9191 31.6049 72.174 32.0039 71.5404C32.4146 70.9068 32.9661 70.4139 33.6584 70.0619C34.3624 69.7099 35.1545 69.5339 36.0345 69.5339C36.9263 69.5339 37.7183 69.7099 38.4106 70.0619C39.1029 70.4139 39.6486 70.9068 40.0475 71.5404C40.4582 72.174 40.6636 72.9191 40.6636 73.7757C40.6636 74.6206 40.4582 75.3598 40.0475 75.9934C39.6486 76.6271 39.1029 77.1199 38.4106 77.4719C37.7183 77.8239 36.9263 77.9999 36.0345 77.9999C35.1545 77.9999 34.3624 77.8239 33.6584 77.4719C32.9661 77.1199 32.4146 76.6271 32.0039 75.9934C31.6049 75.3598 31.4055 74.6206 31.4055 73.7757ZM34.1512 73.7757C34.1512 74.3976 34.3331 74.8905 34.6968 75.2542C35.0723 75.618 35.5182 75.7998 36.0345 75.7998C36.5508 75.7998 36.9908 75.618 37.3546 75.2542C37.7301 74.8905 37.9178 74.3976 37.9178 73.7757C37.9178 73.1538 37.7301 72.661 37.3546 72.2972C36.9908 71.9218 36.5508 71.734 36.0345 71.734C35.5182 71.734 35.0723 71.9218 34.6968 72.2972C34.3331 72.661 34.1512 73.1538 34.1512 73.7757Z" fill="#047857"/>
<path d="M41.7701 73.7757C41.7701 72.9191 41.9696 72.174 42.3685 71.5404C42.7792 70.9068 43.3307 70.4139 44.023 70.0619C44.727 69.7099 45.5191 69.5339 46.3991 69.5339C47.2909 69.5339 48.0829 69.7099 48.7752 70.0619C49.4676 70.4139 50.0132 70.9068 50.4121 71.5404C50.8228 72.174 51.0282 72.9191 51.0282 73.7757C51.0282 74.6206 50.8228 75.3598 50.4121 75.9934C50.0132 76.6271 49.4676 77.1199 48.7752 77.4719C48.0829 77.8239 47.2909 77.9999 46.3991 77.9999C45.5191 77.9999 44.727 77.8239 44.023 77.4719C43.3307 77.1199 42.7792 76.6271 42.3685 75.9934C41.9696 75.3598 41.7701 74.6206 41.7701 73.7757ZM44.5158 73.7757C44.5158 74.3976 44.6977 74.8905 45.0615 75.2542C45.4369 75.618 45.8828 75.7998 46.3991 75.7998C46.9154 75.7998 47.3554 75.618 47.7192 75.2542C48.0947 74.8905 48.2824 74.3976 48.2824 73.7757C48.2824 73.1538 48.0947 72.661 47.7192 72.2972C47.3554 71.9218 46.9154 71.734 46.3991 71.734C45.8828 71.734 45.4369 71.9218 45.0615 72.2972C44.6977 72.661 44.5158 73.1538 44.5158 73.7757Z" fill="#047857"/>
<path d="M58.1014 69.7275H61.2696L57.8022 73.0717L61.6216 77.8239H58.4886L55.1444 73.7053V77.8239H52.5923V64.0952H55.1444V72.5789L58.1014 69.7275Z" fill="#047857"/>
<path d="M62.6099 66.7002C62.6099 66.2777 62.7565 65.9316 63.0499 65.6617C63.355 65.3918 63.7246 65.2569 64.1587 65.2569C64.5929 65.2569 64.9566 65.3918 65.25 65.6617C65.5551 65.9316 65.7076 66.2777 65.7076 66.7002C65.7076 67.1226 65.5551 67.4687 65.25 67.7386C64.9566 67.9968 64.5929 68.1258 64.1587 68.1258C63.7246 68.1258 63.355 67.9968 63.0499 67.7386C62.7565 67.4687 62.6099 67.1226 62.6099 66.7002ZM62.8563 69.7275H65.4436V77.8239H62.8563V69.7275Z" fill="#047857"/>
<path d="M71.7688 77.9999C70.8183 77.9999 69.997 77.8298 69.3047 77.4895C68.6241 77.1375 68.0961 76.6447 67.7206 76.011C67.3451 75.3774 67.1574 74.6323 67.1574 73.7757C67.1574 72.4615 67.5622 71.4289 68.3718 70.678C69.1815 69.927 70.2962 69.5515 71.716 69.5515C73.1123 69.5515 74.186 69.9094 74.937 70.6252C75.6997 71.3409 76.081 72.35 76.081 73.6525C76.081 73.7816 76.081 73.9048 76.081 74.0221C76.081 74.1395 76.0752 74.2451 76.0634 74.339H69.8855C69.9559 74.8905 70.1495 75.3187 70.4663 75.6238C70.7831 75.9289 71.1997 76.0814 71.716 76.0814C72.6547 76.0814 73.3235 75.7294 73.7225 75.0254L76.1162 75.6062C75.2596 77.202 73.8105 77.9999 71.7688 77.9999ZM71.6632 71.3292C70.701 71.3292 70.1202 71.8396 69.9207 72.8605H73.2297C73.1827 72.3911 73.0185 72.0215 72.7368 71.7516C72.467 71.47 72.1091 71.3292 71.6632 71.3292Z" fill="#047857"/>
<path d="M35.3518 35.1294H28.4374V38.5245H35.3518V35.1294Z" fill="#047857"/>
<path d="M65.8845 23.9966H58.9701V27.3917H65.8845V23.9966Z" fill="#047857"/>
<path d="M65.8845 46.8716H58.9701V50.2667H65.8845V46.8716Z" fill="#047857"/>
<path d="M19.8838 44.2361H29.5485C28.8178 45.3536 28.4032 46.6481 28.3487 47.9823C28.2943 49.3164 28.602 50.6404 29.2393 51.8137C29.8765 52.9871 30.8195 53.966 31.9683 54.6467C33.117 55.3274 34.4285 55.6844 35.7637 55.6799H74.7411L73.4281 53.1938C72.6285 51.6723 72.2107 49.9793 72.2107 48.2605C72.2107 46.5417 72.6285 44.8486 73.4281 43.3271L74.6867 40.8566H65.0531C65.8314 39.6601 66.2457 38.2634 66.2457 36.8361C66.2457 35.4087 65.8314 34.0121 65.0531 32.8156H74.71L73.397 30.3295C72.5988 28.8104 72.1817 27.12 72.1817 25.4039C72.1817 23.6878 72.5988 21.9975 73.397 20.4783L74.6789 18H35.756C34.4244 17.9982 33.117 18.356 31.9719 19.0355C30.8267 19.715 29.8863 20.6911 29.2497 21.8607C28.6132 23.0303 28.3043 24.35 28.3555 25.6806C28.4067 27.0112 28.8162 28.3033 29.5407 29.4205H22.6962H19.9071L21.2045 31.9066C22.0007 33.4222 22.4167 35.1086 22.4167 36.8205C22.4167 38.5325 22.0007 40.2189 21.2045 41.7345L19.8838 44.2361ZM69.4038 44.2361C68.6181 46.8562 68.6181 49.6492 69.4038 52.2693H35.756C34.6907 52.2693 33.6691 51.8461 32.9158 51.0929C32.1625 50.3396 31.7394 49.318 31.7394 48.2527C31.7394 47.1874 32.1625 46.1658 32.9158 45.4125C33.6691 44.6593 34.6907 44.2361 35.756 44.2361H69.4038ZM35.756 21.3796H69.4038C68.6181 23.9997 68.6181 26.7926 69.4038 29.4128H35.655C34.6206 29.3561 33.648 28.9019 32.9406 28.1451C32.2331 27.3884 31.8454 26.3875 31.8584 25.3516C31.8714 24.3157 32.2842 23.3249 33.0105 22.5862C33.7368 21.8475 34.7204 21.4179 35.756 21.3873V21.3796ZM35.655 32.8001H58.9621C60.0274 32.8135 61.0437 33.2495 61.7875 34.0122C62.5313 34.7749 62.9416 35.8019 62.9283 36.8672C62.9149 37.9324 62.4788 38.9487 61.7161 39.6925C60.9534 40.4363 59.9264 40.8467 58.8611 40.8333H25.2056C25.9982 38.2142 25.9982 35.4191 25.2056 32.8001H35.655Z" fill="#047857"/>
</svg>
