<svg viewBox="0 0 145 27" fill="none" xmlns="http://www.w3.org/2000/svg">
<path d="M32.5562 3.77793V5.84305C32.7312 5.86233 32.8988 5.92411 33.0442 6.02298C33.1896 6.12185 33.3085 6.25479 33.3904 6.41014V23.9992C30.7078 23.1675 24.698 21.8017 18.8067 23.9141V3.21557C20.2777 2.47689 21.9027 2.09449 23.5497 2.09942C25.1967 2.10434 26.8194 2.49645 28.2859 3.24392V17.9219L30.3192 21.1874V1.99161L29.7883 1.69862C27.9681 0.637255 25.9073 0.0540345 23.7992 0.00361549C21.6912 -0.0468035 19.6048 0.437222 17.7355 1.41035C15.8672 0.437204 13.7815 -0.0468488 11.6742 0.00357222C9.56687 0.0539932 7.50691 0.637244 5.68751 1.69862L5.15194 1.99161V21.2252L7.18996 17.9597V3.24392C8.65372 2.48794 10.2771 2.09062 11.9255 2.08487C13.574 2.07911 15.2001 2.46509 16.6691 3.21084V23.9141C10.7778 21.8017 4.76803 23.1675 2.08542 23.9992V6.41014C2.16842 6.25469 2.28822 6.12179 2.43441 6.02296C2.5806 5.92414 2.74877 5.86238 2.92433 5.84305V3.77793C2.3098 3.79886 1.71443 3.99645 1.20991 4.34691C0.70538 4.69736 0.313199 5.18574 0.0805758 5.75326L0 5.94702V27L1.42188 26.4046C1.50245 26.3715 9.18533 23.2667 16.2805 25.984H19.0816C26.1531 23.2761 33.8596 26.3715 33.9402 26.4046L35.3621 27V5.94702L35.4 5.77217C35.1688 5.20214 34.7774 4.71076 34.273 4.35701C33.7686 4.00327 33.1725 3.80219 32.5562 3.77793Z" fill="#98E066"/>
<path d="M62.472 13.0008C63.7616 13.4792 64.76 14.176 65.4672 15.0912C66.1744 16.0064 66.528 17.1088 66.528 18.3984C66.528 20.312 65.7376 21.7992 64.1568 22.86C62.576 23.9 60.288 24.42 57.2928 24.42H45V2.57998H56.6688C59.5808 2.57998 61.7752 3.09998 63.252 4.13998C64.7496 5.17998 65.4984 6.56318 65.4984 8.28958C65.4984 9.30878 65.2384 10.224 64.7184 11.0352C64.2192 11.8464 63.4704 12.5016 62.472 13.0008ZM52.2384 7.72798V10.9728H55.6704C57.272 10.9728 58.0728 10.432 58.0728 9.35038C58.0728 8.26878 57.272 7.72798 55.6704 7.72798H52.2384ZM56.6688 19.272C58.2912 19.272 59.1024 18.7 59.1024 17.556C59.1024 16.412 58.2912 15.84 56.6688 15.84H52.2384V19.272H56.6688Z" fill="#55A78F"/>
<path d="M80.5817 24.9192C78.2313 24.9192 76.1201 24.4304 74.2481 23.4528C72.3761 22.4752 70.9097 21.1232 69.8489 19.3968C68.7881 17.6496 68.2577 15.684 68.2577 13.5C68.2577 11.316 68.7881 9.36078 69.8489 7.63438C70.9097 5.88718 72.3761 4.52478 74.2481 3.54718C76.1201 2.56958 78.2313 2.08078 80.5817 2.08078C82.9321 2.08078 85.0433 2.56958 86.9153 3.54718C88.7873 4.52478 90.2537 5.88718 91.3145 7.63438C92.3753 9.36078 92.9057 11.316 92.9057 13.5C92.9057 15.684 92.3753 17.6496 91.3145 19.3968C90.2537 21.1232 88.7873 22.4752 86.9153 23.4528C85.0433 24.4304 82.9321 24.9192 80.5817 24.9192ZM80.5817 18.96C81.4969 18.96 82.3185 18.7416 83.0465 18.3048C83.7953 17.8472 84.3881 17.2128 84.8249 16.4016C85.2617 15.5696 85.4801 14.6024 85.4801 13.5C85.4801 12.3976 85.2617 11.4408 84.8249 10.6296C84.3881 9.79758 83.7953 9.16318 83.0465 8.72638C82.3185 8.26878 81.4969 8.03998 80.5817 8.03998C79.6665 8.03998 78.8345 8.26878 78.0857 8.72638C77.3577 9.16318 76.7753 9.79758 76.3385 10.6296C75.9017 11.4408 75.6833 12.3976 75.6833 13.5C75.6833 14.6024 75.9017 15.5696 76.3385 16.4016C76.7753 17.2128 77.3577 17.8472 78.0857 18.3048C78.8345 18.7416 79.6665 18.96 80.5817 18.96Z" fill="#55A78F"/>
<path d="M107.029 24.9192C104.678 24.9192 102.567 24.4304 100.695 23.4528C98.823 22.4752 97.3566 21.1232 96.2958 19.3968C95.235 17.6496 94.7046 15.684 94.7046 13.5C94.7046 11.316 95.235 9.36078 96.2958 7.63438C97.3566 5.88718 98.823 4.52478 100.695 3.54718C102.567 2.56958 104.678 2.08078 107.029 2.08078C109.379 2.08078 111.49 2.56958 113.362 3.54718C115.234 4.52478 116.701 5.88718 117.761 7.63438C118.822 9.36078 119.353 11.316 119.353 13.5C119.353 15.684 118.822 17.6496 117.761 19.3968C116.701 21.1232 115.234 22.4752 113.362 23.4528C111.49 24.4304 109.379 24.9192 107.029 24.9192ZM107.029 18.96C107.944 18.96 108.765 18.7416 109.493 18.3048C110.242 17.8472 110.835 17.2128 111.272 16.4016C111.709 15.5696 111.927 14.6024 111.927 13.5C111.927 12.3976 111.709 11.4408 111.272 10.6296C110.835 9.79758 110.242 9.16318 109.493 8.72638C108.765 8.26878 107.944 8.03998 107.029 8.03998C106.113 8.03998 105.281 8.26878 104.533 8.72638C103.805 9.16318 103.222 9.79758 102.785 10.6296C102.349 11.4408 102.13 12.3976 102.13 13.5C102.13 14.6024 102.349 15.5696 102.785 16.4016C103.222 17.2128 103.805 17.8472 104.533 18.3048C105.281 18.7416 106.113 18.96 107.029 18.96Z" fill="#55A78F"/>
<path d="M130.917 17.1816L129.263 19.0224V24.42H122.025V2.57998H129.263V10.5048L136.439 2.57998H144.458L135.722 12.1896L144.895 24.42H136.377L130.917 17.1816Z" fill="#55A78F"/>
</svg>
