<svg width="96" height="97" viewBox="0 0 96 97" fill="none" xmlns="http://www.w3.org/2000/svg">
<path d="M34.9873 67.8142C34.5512 67.8142 34.1537 67.7287 33.7946 67.5578C33.4356 67.3782 33.1492 67.1175 32.9354 66.7755H32.8457L32.7303 67.6603H31.2299V58.3887H32.9867V61.6972H33.0637C33.2603 61.398 33.5296 61.1672 33.8716 61.0047C34.2221 60.8423 34.6239 60.7611 35.077 60.7611C35.8636 60.7611 36.4919 61.056 36.9621 61.6459C37.4409 62.2358 37.6803 63.1121 37.6803 64.2748C37.6803 65.4632 37.4452 66.3523 36.975 66.9422C36.5048 67.5236 35.8422 67.8142 34.9873 67.8142ZM34.423 66.2882C34.9445 66.2882 35.3164 66.1343 35.5387 65.8265C35.761 65.5102 35.8721 65.0357 35.8721 64.4031V64.1722C35.8721 63.5396 35.761 63.0694 35.5387 62.7616C35.3164 62.4453 34.9445 62.2871 34.423 62.2871C33.4655 62.2871 32.9867 62.9241 32.9867 64.1979V64.4031C32.9867 65.6598 33.4655 66.2882 34.423 66.2882Z" fill="#047857"/>
<path d="M41.3578 67.8142C40.2037 67.8142 39.3445 67.5278 38.7802 66.955C38.216 66.3822 37.9338 65.4931 37.9338 64.2877C37.9338 63.0822 38.216 62.1931 38.7802 61.6203C39.3445 61.0475 40.2037 60.7611 41.3578 60.7611C42.512 60.7611 43.3712 61.0475 43.9354 61.6203C44.5082 62.1931 44.7946 63.0822 44.7946 64.2877C44.7946 65.4931 44.5082 66.3822 43.9354 66.955C43.3712 67.5278 42.512 67.8142 41.3578 67.8142ZM41.3578 66.378C41.9306 66.378 42.3453 66.2155 42.6017 65.8906C42.8582 65.5572 42.9864 65.0571 42.9864 64.3903V64.1851C42.9864 63.5182 42.8582 63.0224 42.6017 62.6975C42.3453 62.3641 41.9306 62.1974 41.3578 62.1974C40.785 62.1974 40.3704 62.3641 40.1139 62.6975C39.866 63.0224 39.742 63.5182 39.742 64.1851V64.3903C39.742 65.0571 39.866 65.5572 40.1139 65.8906C40.3704 66.2155 40.785 66.378 41.3578 66.378Z" fill="#047857"/>
<path d="M48.485 67.8142C47.3308 67.8142 46.4716 67.5278 45.9074 66.955C45.3431 66.3822 45.061 65.4931 45.061 64.2877C45.061 63.0822 45.3431 62.1931 45.9074 61.6203C46.4716 61.0475 47.3308 60.7611 48.485 60.7611C49.6391 60.7611 50.4983 61.0475 51.0626 61.6203C51.6354 62.1931 51.9218 63.0822 51.9218 64.2877C51.9218 65.4931 51.6354 66.3822 51.0626 66.955C50.4983 67.5278 49.6391 67.8142 48.485 67.8142ZM48.485 66.378C49.0578 66.378 49.4724 66.2155 49.7289 65.8906C49.9854 65.5572 50.1136 65.0571 50.1136 64.3903V64.1851C50.1136 63.5182 49.9854 63.0224 49.7289 62.6975C49.4724 62.3641 49.0578 62.1974 48.485 62.1974C47.9122 62.1974 47.4975 62.3641 47.2411 62.6975C46.9931 63.0224 46.8692 63.5182 46.8692 64.1851V64.3903C46.8692 65.0571 46.9931 65.5572 47.2411 65.8906C47.4975 66.2155 47.9122 66.378 48.485 66.378Z" fill="#047857"/>
<path d="M52.6114 58.3887H54.3682V63.5952L56.5996 60.915H58.6258L56.3944 63.5054L58.754 67.6603H56.7406L55.2659 64.8006L54.3682 65.6726V67.6603H52.6114V58.3887Z" fill="#047857"/>
<path d="M61.7177 67.8142C60.7773 67.8142 60.0378 67.6219 59.4992 67.2372C58.9691 66.8439 58.7041 66.3224 58.7041 65.6726L58.7169 65.5188H60.4225V65.6085C60.431 65.9077 60.5636 66.1258 60.82 66.2625C61.0851 66.3908 61.4057 66.4549 61.7818 66.4549C62.1323 66.4549 62.4316 66.4079 62.6795 66.3138C62.9274 66.2198 63.0514 66.0659 63.0514 65.8522C63.0514 65.6128 62.9232 65.4333 62.6667 65.3136C62.4187 65.1939 62.0255 65.0742 61.4869 64.9545C60.9312 64.8263 60.4781 64.698 60.1275 64.5698C59.777 64.433 59.4735 64.2235 59.217 63.9414C58.9606 63.6593 58.8323 63.2831 58.8323 62.8129C58.8323 62.1546 59.1059 61.6502 59.6531 61.2997C60.2088 60.9406 60.9226 60.7611 61.7946 60.7611C62.6068 60.7611 63.2779 60.9278 63.808 61.2612C64.3381 61.5861 64.6031 62.0307 64.6031 62.5949L64.5903 62.8899H62.8847V62.8129C62.8847 62.5906 62.7778 62.4196 62.5641 62.3C62.3589 62.1803 62.081 62.1204 61.7305 62.1204C61.38 62.1204 61.1022 62.1674 60.897 62.2615C60.6918 62.3555 60.5892 62.488 60.5892 62.659C60.5892 62.8728 60.7046 63.0309 60.9354 63.1335C61.1748 63.2361 61.5553 63.3387 62.0768 63.4413C62.6496 63.5695 63.1155 63.6978 63.4746 63.826C63.8336 63.9542 64.1457 64.1637 64.4107 64.4544C64.6758 64.745 64.8083 65.1383 64.8083 65.6342C64.8083 67.0875 63.7781 67.8142 61.7177 67.8142Z" fill="#047857"/>
<path d="M43.9996 78.5009C42.9224 78.5009 42.1144 78.2145 41.5758 77.6417C41.0458 77.0689 40.7808 76.1798 40.7808 74.9743C40.7808 73.7774 41.0458 72.8926 41.5758 72.3198C42.1144 71.7384 42.9224 71.4478 43.9996 71.4478C44.8972 71.4478 45.6111 71.6786 46.1411 72.1402C46.6798 72.5934 46.9491 73.2602 46.9491 74.1408H45.1794C45.1794 73.7304 45.0725 73.4141 44.8588 73.1918C44.645 72.9695 44.3458 72.8584 43.9611 72.8584C43.4823 72.8584 43.1275 73.0294 42.8967 73.3713C42.6744 73.7048 42.5633 74.2049 42.5633 74.8717V75.0769C42.5633 75.7438 42.6787 76.2482 42.9095 76.5901C43.1489 76.9236 43.5293 77.0903 44.0509 77.0903C44.4185 77.0903 44.7091 76.9791 44.9229 76.7568C45.1452 76.526 45.2563 76.2097 45.2563 75.8079H46.9491C46.9491 76.6884 46.684 77.3596 46.154 77.8212C45.6239 78.2743 44.9058 78.5009 43.9996 78.5009Z" fill="#047857"/>
<path d="M50.6181 78.5009C49.4639 78.5009 48.6047 78.2145 48.0405 77.6417C47.4762 77.0689 47.1941 76.1798 47.1941 74.9743C47.1941 73.7689 47.4762 72.8798 48.0405 72.307C48.6047 71.7342 49.4639 71.4478 50.6181 71.4478C51.7722 71.4478 52.6314 71.7342 53.1957 72.307C53.7685 72.8798 54.0549 73.7689 54.0549 74.9743C54.0549 76.1798 53.7685 77.0689 53.1957 77.6417C52.6314 78.2145 51.7722 78.5009 50.6181 78.5009ZM50.6181 77.0646C51.1909 77.0646 51.6055 76.9022 51.862 76.5773C52.1185 76.2439 52.2467 75.7438 52.2467 75.0769V74.8717C52.2467 74.2049 52.1185 73.709 51.862 73.3842C51.6055 73.0507 51.1909 72.884 50.6181 72.884C50.0453 72.884 49.6306 73.0507 49.3742 73.3842C49.1262 73.709 49.0023 74.2049 49.0023 74.8717V75.0769C49.0023 75.7438 49.1262 76.2439 49.3742 76.5773C49.6306 76.9022 50.0453 77.0646 50.6181 77.0646Z" fill="#047857"/>
<path d="M54.7444 71.6016H56.2448L56.3731 72.4865H56.4629C56.9587 71.794 57.5999 71.4478 58.3864 71.4478C59.2414 71.4478 59.8313 71.794 60.1561 72.4865H60.2587C60.7717 71.794 61.4385 71.4478 62.2592 71.4478C62.9004 71.4478 63.4091 71.6358 63.7853 72.012C64.17 72.3882 64.3624 72.9909 64.3624 73.8202V78.347H62.6055V74.1921C62.6055 73.397 62.2763 72.9994 61.6181 72.9994C61.2761 72.9994 60.994 73.1405 60.7717 73.4226C60.5494 73.6962 60.4383 74.0382 60.4383 74.4485V78.347H58.6814V74.1921C58.6814 73.397 58.3522 72.9994 57.6939 72.9994C57.352 72.9994 57.0656 73.1405 56.8347 73.4226C56.6125 73.6962 56.5013 74.0382 56.5013 74.4485V78.347H54.7444V71.6016Z" fill="#047857"/>
<path d="M33.03 53.2021C33.2929 53.2021 33.5532 53.1503 33.7961 53.0497C34.039 52.9491 34.2597 52.8016 34.4456 52.6157C34.6315 52.4298 34.779 52.2091 34.8796 51.9663C34.9802 51.7234 35.032 51.463 35.032 51.2001V20.6223C35.0482 20.3498 35.0086 20.0769 34.9155 19.8203C34.8225 19.5637 34.6779 19.3289 34.4908 19.1302C34.3036 18.9315 34.0778 18.7732 33.8272 18.665C33.5766 18.5568 33.3065 18.501 33.0336 18.501C32.7606 18.501 32.4905 18.5568 32.24 18.665C31.9894 18.7732 31.7635 18.9315 31.5764 19.1302C31.3892 19.3289 31.2447 19.5637 31.1516 19.8203C31.0585 20.0769 31.0189 20.3498 31.0352 20.6223V51.2001C31.0342 51.4627 31.0851 51.7229 31.185 51.9657C31.2848 52.2086 31.4316 52.4293 31.6169 52.6153C31.8023 52.8013 32.0225 52.9489 32.265 53.0496C32.5075 53.1503 32.7674 53.2021 33.03 53.2021V53.2021Z" fill="#047857"/>
<path d="M40.6457 39.6727C41.1767 39.6727 41.6859 39.4617 42.0613 39.0863C42.4368 38.7109 42.6477 38.2017 42.6477 37.6707V20.6221C42.6477 20.0911 42.4368 19.5819 42.0613 19.2065C41.6859 18.831 41.1767 18.6201 40.6457 18.6201C40.1148 18.6201 39.6056 18.831 39.2302 19.2065C38.8547 19.5819 38.6438 20.0911 38.6438 20.6221V37.6707C38.6438 38.2017 38.8547 38.7109 39.2302 39.0863C39.6056 39.4617 40.1148 39.6727 40.6457 39.6727V39.6727Z" fill="#047857"/>
<path d="M40.5677 53.2023C40.8306 53.2023 41.091 53.1505 41.3338 53.0499C41.5767 52.9493 41.7974 52.8018 41.9833 52.616C42.1692 52.4301 42.3167 52.2094 42.4173 51.9665C42.5179 51.7236 42.5697 51.4633 42.5697 51.2004V43.8694C42.586 43.5969 42.5463 43.324 42.4533 43.0674C42.3602 42.8108 42.2156 42.5759 42.0285 42.3773C41.8413 42.1786 41.6155 42.0203 41.3649 41.9121C41.1143 41.8039 40.8442 41.748 40.5713 41.748C40.2983 41.748 40.0283 41.8039 39.7777 41.9121C39.5271 42.0203 39.3013 42.1786 39.1141 42.3773C38.9269 42.5759 38.7824 42.8108 38.6893 43.0674C38.5962 43.324 38.5566 43.5969 38.5729 43.8694V51.2004C38.572 51.4629 38.6229 51.7231 38.7227 51.9659C38.8225 52.2088 38.9693 52.4295 39.1546 52.6155C39.34 52.8015 39.5602 52.9491 39.8027 53.0498C40.0452 53.1505 40.3052 53.2023 40.5677 53.2023V53.2023Z" fill="#047857"/>
<path d="M31.0314 75.3578C31.0314 75.6207 31.0832 75.881 31.1838 76.1239C31.2844 76.3668 31.4319 76.5875 31.6178 76.7734C31.8037 76.9593 32.0244 77.1067 32.2673 77.2073C32.5101 77.3079 32.7705 77.3597 33.0334 77.3597L36.0897 77.3597C36.3622 77.376 36.6351 77.3364 36.8917 77.2433C37.1483 77.1502 37.3832 77.0057 37.5818 76.8185C37.7805 76.6314 37.9388 76.4055 38.047 76.1549C38.1552 75.9044 38.2111 75.6343 38.2111 75.3613C38.2111 75.0884 38.1552 74.8183 38.047 74.5677C37.9388 74.3171 37.7805 74.0913 37.5818 73.9041C37.3832 73.717 37.1483 73.5724 36.8917 73.4793C36.6351 73.3863 36.3622 73.3467 36.0897 73.3629L33.0334 73.3629C32.7708 73.362 32.5106 73.4129 32.2678 73.5127C32.025 73.6126 31.8042 73.7594 31.6182 73.9447C31.4322 74.13 31.2846 74.3502 31.1839 74.5927C31.0833 74.8352 31.0314 75.0952 31.0314 75.3578Z" fill="#047857"/>
<path d="M48.1268 53.2019C48.6578 53.2019 49.167 52.9909 49.5424 52.6155C49.9179 52.2401 50.1288 51.7309 50.1288 51.1999V20.6221C50.1288 20.0911 49.9179 19.5819 49.5424 19.2065C49.167 18.831 48.6578 18.6201 48.1268 18.6201C47.5959 18.6201 47.0867 18.831 46.7112 19.2065C46.3358 19.5819 46.1249 20.0911 46.1249 20.6221V51.1999C46.1249 51.7309 46.3358 52.2401 46.7112 52.6155C47.0867 52.9909 47.5959 53.2019 48.1268 53.2019Z" fill="#047857"/>
<path d="M62.9665 53.2019C63.4975 53.2019 64.0067 52.9909 64.3821 52.6155C64.7576 52.2401 64.9685 51.7309 64.9685 51.1999V20.6221C64.9685 20.0911 64.7576 19.5819 64.3821 19.2065C64.0067 18.831 63.4975 18.6201 62.9665 18.6201C62.4356 18.6201 61.9264 18.831 61.551 19.2065C61.1755 19.5819 60.9646 20.0911 60.9646 20.6221V51.1999C60.9646 51.7309 61.1755 52.2401 61.551 52.6155C61.9264 52.9909 62.4356 53.2019 62.9665 53.2019Z" fill="#047857"/>
<path d="M55.6427 53.2008C55.9053 53.2008 56.1653 53.149 56.4078 53.0483C56.6502 52.9476 56.8705 52.8 57.0558 52.614C57.2411 52.428 57.3879 52.2073 57.4878 51.9644C57.5876 51.7216 57.6385 51.4614 57.6375 51.1988V29.7829C57.6538 29.5105 57.6142 29.2376 57.5211 28.981C57.4281 28.7244 57.2835 28.4895 57.0963 28.2908C56.9092 28.0922 56.6834 27.9338 56.4328 27.8256C56.1822 27.7174 55.9121 27.6616 55.6392 27.6616C55.3662 27.6616 55.0961 27.7174 54.8455 27.8256C54.595 27.9338 54.3691 28.0922 54.182 28.2908C53.9948 28.4895 53.8503 28.7244 53.7572 28.981C53.6641 29.2376 53.6245 29.5105 53.6408 29.7829V51.1561C53.6351 51.4226 53.6827 51.6875 53.7807 51.9353C53.8788 52.1832 54.0253 52.409 54.2118 52.5994C54.3983 52.7899 54.6209 52.9411 54.8666 53.0444C55.1123 53.1477 55.3762 53.2008 55.6427 53.2008V53.2008Z" fill="#047857"/>
<path d="M55.6428 24.8967C55.9057 24.8967 56.166 24.8449 56.4089 24.7443C56.6518 24.6437 56.8725 24.4962 57.0584 24.3103C57.2443 24.1244 57.3918 23.9037 57.4924 23.6609C57.593 23.418 57.6448 23.1576 57.6448 22.8947V20.6221C57.6448 20.0911 57.4339 19.5819 57.0584 19.2065C56.683 18.831 56.1738 18.6201 55.6428 18.6201C55.1119 18.6201 54.6027 18.831 54.2272 19.2065C53.8518 19.5819 53.6409 20.0911 53.6409 20.6221V22.8947C53.6409 23.1576 53.6927 23.418 53.7933 23.6609C53.8939 23.9037 54.0413 24.1244 54.2272 24.3103C54.4131 24.4962 54.6338 24.6437 54.8767 24.7443C55.1196 24.8449 55.3799 24.8967 55.6428 24.8967V24.8967Z" fill="#047857"/>
</svg>
