<svg width="96" height="97" viewBox="0 0 96 97" fill="none" xmlns="http://www.w3.org/2000/svg">
<rect y="0.500977" width="96" height="96" rx="10" fill="#047857"/>
<path d="M30.2929 74.2767C30.2929 75.1802 30.1052 75.9488 29.7297 76.5824C29.3659 77.2161 28.8907 77.6971 28.304 78.0257C27.7173 78.3425 27.0954 78.5009 26.4383 78.5009C25.2414 78.5009 24.3203 78.014 23.675 77.04V78.3249H21.0172V64.5962H23.675V71.5134C24.3203 70.5394 25.2414 70.0525 26.4383 70.0525C27.0954 70.0525 27.7173 70.2168 28.304 70.5453C28.8907 70.8621 29.3659 71.3373 29.7297 71.971C30.1052 72.5929 30.2929 73.3615 30.2929 74.2767ZM27.4944 74.2767C27.4944 73.6431 27.3007 73.1385 26.9135 72.763C26.538 72.3875 26.0863 72.1998 25.5583 72.1998C25.2649 72.1998 24.9716 72.2819 24.6782 72.4462C24.3849 72.6105 24.1443 72.8452 23.9566 73.1502C23.7688 73.4553 23.675 73.8308 23.675 74.2767C23.675 74.7109 23.7688 75.0863 23.9566 75.4032C24.1443 75.7082 24.3849 75.9429 24.6782 76.1072C24.9716 76.2715 25.2649 76.3536 25.5583 76.3536C26.0863 76.3536 26.538 76.1659 26.9135 75.7904C27.3007 75.4149 27.4944 74.9103 27.4944 74.2767Z" fill="white"/>
<path d="M31.4055 74.2767C31.4055 73.4201 31.6049 72.675 32.0039 72.0414C32.4146 71.4078 32.9661 70.9149 33.6584 70.5629C34.3624 70.2109 35.1545 70.0349 36.0345 70.0349C36.9263 70.0349 37.7183 70.2109 38.4106 70.5629C39.1029 70.9149 39.6486 71.4078 40.0475 72.0414C40.4582 72.675 40.6636 73.4201 40.6636 74.2767C40.6636 75.1215 40.4582 75.8608 40.0475 76.4944C39.6486 77.1281 39.1029 77.6209 38.4106 77.9729C37.7183 78.3249 36.9263 78.5009 36.0345 78.5009C35.1545 78.5009 34.3624 78.3249 33.6584 77.9729C32.9661 77.6209 32.4146 77.1281 32.0039 76.4944C31.6049 75.8608 31.4055 75.1215 31.4055 74.2767ZM34.1512 74.2767C34.1512 74.8986 34.3331 75.3914 34.6968 75.7552C35.0723 76.1189 35.5182 76.3008 36.0345 76.3008C36.5508 76.3008 36.9908 76.1189 37.3546 75.7552C37.7301 75.3914 37.9178 74.8986 37.9178 74.2767C37.9178 73.6548 37.7301 73.162 37.3546 72.7982C36.9908 72.4227 36.5508 72.235 36.0345 72.235C35.5182 72.235 35.0723 72.4227 34.6968 72.7982C34.3331 73.162 34.1512 73.6548 34.1512 74.2767Z" fill="white"/>
<path d="M41.7701 74.2767C41.7701 73.4201 41.9696 72.675 42.3685 72.0414C42.7792 71.4078 43.3307 70.9149 44.023 70.5629C44.727 70.2109 45.5191 70.0349 46.3991 70.0349C47.2909 70.0349 48.0829 70.2109 48.7752 70.5629C49.4676 70.9149 50.0132 71.4078 50.4121 72.0414C50.8228 72.675 51.0282 73.4201 51.0282 74.2767C51.0282 75.1215 50.8228 75.8608 50.4121 76.4944C50.0132 77.1281 49.4676 77.6209 48.7752 77.9729C48.0829 78.3249 47.2909 78.5009 46.3991 78.5009C45.5191 78.5009 44.727 78.3249 44.023 77.9729C43.3307 77.6209 42.7792 77.1281 42.3685 76.4944C41.9696 75.8608 41.7701 75.1215 41.7701 74.2767ZM44.5158 74.2767C44.5158 74.8986 44.6977 75.3914 45.0615 75.7552C45.4369 76.1189 45.8828 76.3008 46.3991 76.3008C46.9154 76.3008 47.3554 76.1189 47.7192 75.7552C48.0947 75.3914 48.2824 74.8986 48.2824 74.2767C48.2824 73.6548 48.0947 73.162 47.7192 72.7982C47.3554 72.4227 46.9154 72.235 46.3991 72.235C45.8828 72.235 45.4369 72.4227 45.0615 72.7982C44.6977 73.162 44.5158 73.6548 44.5158 74.2767Z" fill="white"/>
<path d="M58.1014 70.2285H61.2696L57.8022 73.5727L61.6216 78.3249H58.4886L55.1444 74.2063V78.3249H52.5923V64.5962H55.1444V73.0798L58.1014 70.2285Z" fill="white"/>
<path d="M62.6099 67.2011C62.6099 66.7787 62.7565 66.4326 63.0499 66.1627C63.355 65.8928 63.7246 65.7579 64.1587 65.7579C64.5929 65.7579 64.9566 65.8928 65.25 66.1627C65.5551 66.4326 65.7076 66.7787 65.7076 67.2011C65.7076 67.6236 65.5551 67.9697 65.25 68.2396C64.9566 68.4977 64.5929 68.6268 64.1587 68.6268C63.7246 68.6268 63.355 68.4977 63.0499 68.2396C62.7565 67.9697 62.6099 67.6236 62.6099 67.2011ZM62.8563 70.2285H65.4436V78.3249H62.8563V70.2285Z" fill="white"/>
<path d="M71.7688 78.5009C70.8183 78.5009 69.997 78.3308 69.3047 77.9905C68.6241 77.6385 68.0961 77.1457 67.7206 76.512C67.3451 75.8784 67.1574 75.1333 67.1574 74.2767C67.1574 72.9625 67.5622 71.9299 68.3718 71.1789C69.1815 70.428 70.2962 70.0525 71.716 70.0525C73.1123 70.0525 74.186 70.4104 74.937 71.1261C75.6997 71.8419 76.081 72.851 76.081 74.1535C76.081 74.2826 76.081 74.4058 76.081 74.5231C76.081 74.6405 76.0752 74.7461 76.0634 74.8399H69.8855C69.9559 75.3914 70.1495 75.8197 70.4663 76.1248C70.7831 76.4299 71.1997 76.5824 71.716 76.5824C72.6547 76.5824 73.3235 76.2304 73.7225 75.5264L76.1162 76.1072C75.2596 77.703 73.8105 78.5009 71.7688 78.5009ZM71.6632 71.8302C70.701 71.8302 70.1202 72.3406 69.9207 73.3615H73.2297C73.1827 72.8921 73.0185 72.5225 72.7368 72.2526C72.467 71.971 72.1091 71.8302 71.6632 71.8302Z" fill="white"/>
<path d="M35.3518 35.6304H28.4374V39.0255H35.3518V35.6304Z" fill="white"/>
<path d="M65.8845 24.4976H58.9701V27.8926H65.8845V24.4976Z" fill="white"/>
<path d="M65.8845 47.3726H58.9701V50.7676H65.8845V47.3726Z" fill="white"/>
<path d="M19.8838 44.7371H29.5485C28.8178 45.8546 28.4032 47.1491 28.3487 48.4832C28.2943 49.8174 28.602 51.1414 29.2393 52.3147C29.8765 53.4881 30.8195 54.467 31.9683 55.1477C33.117 55.8284 34.4285 56.1854 35.7637 56.1809H74.7411L73.4281 53.6948C72.6285 52.1733 72.2107 50.4803 72.2107 48.7615C72.2107 47.0427 72.6285 45.3496 73.4281 43.8281L74.6867 41.3575H65.0531C65.8314 40.1611 66.2457 38.7644 66.2457 37.3371C66.2457 35.9097 65.8314 34.513 65.0531 33.3166H74.71L73.397 30.8305C72.5988 29.3114 72.1817 27.621 72.1817 25.9049C72.1817 24.1888 72.5988 22.4984 73.397 20.9793L74.6789 18.501H35.756C34.4244 18.4992 33.117 18.857 31.9719 19.5365C30.8267 20.216 29.8863 21.1921 29.2497 22.3617C28.6132 23.5313 28.3043 24.851 28.3555 26.1816C28.4067 27.5122 28.8162 28.8043 29.5407 29.9215H22.6962H19.9071L21.2045 32.4076C22.0007 33.9232 22.4167 35.6095 22.4167 37.3215C22.4167 39.0335 22.0007 40.7199 21.2045 42.2354L19.8838 44.7371ZM69.4038 44.7371C68.6181 47.3572 68.6181 50.1502 69.4038 52.7703H35.756C34.6907 52.7703 33.6691 52.3471 32.9158 51.5939C32.1625 50.8406 31.7394 49.819 31.7394 48.7537C31.7394 47.6884 32.1625 46.6668 32.9158 45.9135C33.6691 45.1603 34.6907 44.7371 35.756 44.7371H69.4038ZM35.756 21.8805H69.4038C68.6181 24.5006 68.6181 27.2936 69.4038 29.9137H35.655C34.6206 29.8571 33.648 29.4029 32.9406 28.6461C32.2331 27.8893 31.8454 26.8885 31.8584 25.8526C31.8714 24.8167 32.2842 23.8259 33.0105 23.0872C33.7368 22.3485 34.7204 21.9189 35.756 21.8883V21.8805ZM35.655 33.301H58.9621C60.0274 33.3144 61.0437 33.7505 61.7875 34.5132C62.5313 35.2759 62.9416 36.3029 62.9283 37.3681C62.9149 38.4334 62.4788 39.4497 61.7161 40.1935C60.9534 40.9373 59.9264 41.3476 58.8611 41.3342H25.2056C25.9982 38.7151 25.9982 35.9201 25.2056 33.301H35.655Z" fill="white"/>
</svg>
