<svg width="96" height="96" viewBox="0 0 96 96" fill="none" xmlns="http://www.w3.org/2000/svg">
<rect width="96" height="96" rx="15" fill="#FFF4E6"/>
<path d="M61.8825 28.9262C61.6851 28.9262 61.4859 28.8632 61.3181 28.7334C60.9122 28.4211 60.8371 27.8391 61.1495 27.4341C62.4061 25.8021 64.1049 24.6557 65.9315 24.2062C67.836 23.7382 69.6525 24.0728 71.0491 25.1496C71.455 25.462 71.5301 26.044 71.2178 26.449C70.9045 26.854 70.3225 26.929 69.9185 26.6176C68.9769 25.892 67.7202 25.677 66.3745 26.006C64.9547 26.3554 63.6193 27.2645 62.6174 28.5657C62.4358 28.802 62.1605 28.9262 61.8825 28.9262Z" fill="#4C312C"/>
<path d="M30.4076 69.4553C22.8962 64.095 23.1993 53.6633 28.2325 45.4912C30.0721 42.5042 32.5929 39.9945 35.4474 37.9557L48.9614 28.3025C52.4979 25.2396 56.6155 24.399 60.5561 27.2117C64.4976 30.0235 65.0407 34.1912 63.2947 38.5312L58.5589 54.4492C57.559 57.8115 56.0048 61.0107 53.7778 63.7215C47.6852 71.1383 37.919 74.8157 30.4076 69.4553Z" fill="#436B1C"/>
<path d="M32.8799 65.9901C27.3592 62.0495 28.1423 53.5946 32.4628 46.719C34.042 44.2056 36.1217 42.0426 38.4349 40.2428L45.748 35.5719C47.9935 34.1382 50.2094 32.6498 52.2816 30.9752C54.3446 29.307 56.1277 28.6045 58.4038 30.2291C60.7374 31.8945 60.6012 33.8741 59.6336 36.4653C59.0294 38.0853 58.4993 39.7368 58.0906 41.4161L55.4234 52.3676C54.4734 55.1405 53.1037 57.8105 51.24 60.1209C46.1418 66.4414 38.4015 69.9307 32.8799 65.9901Z" fill="#F9EA80"/>
<path d="M46.2644 58.9885C43.6398 62.6668 39.0264 63.8753 35.9616 61.6873C32.8968 59.5001 32.54 54.7449 35.1646 51.0666C37.7892 47.3883 44.7788 42.8508 47.8436 45.038C50.9084 47.2251 48.889 55.3102 46.2644 58.9885Z" fill="#A46F3E"/>
<path d="M36.8522 57.8671C37.6199 57.8671 38.2423 57.2447 38.2423 56.4769C38.2423 55.7092 37.6199 55.0868 36.8522 55.0868C36.0844 55.0868 35.462 55.7092 35.462 56.4769C35.462 57.2447 36.0844 57.8671 36.8522 57.8671Z" fill="#DC9628"/>
<path d="M40.5831 54.8949C41.3509 54.8949 41.9733 54.2725 41.9733 53.5048C41.9733 52.737 41.3509 52.1146 40.5831 52.1146C39.8154 52.1146 39.193 52.737 39.193 53.5048C39.193 54.2725 39.8154 54.8949 40.5831 54.8949Z" fill="#DC9628"/>
<path d="M40.9663 59.9987C41.734 59.9987 42.3564 59.3763 42.3564 58.6086C42.3564 57.8408 41.734 57.2184 40.9663 57.2184C40.1985 57.2184 39.5761 57.8408 39.5761 58.6086C39.5761 59.3763 40.1985 59.9987 40.9663 59.9987Z" fill="#DC9628"/>
</svg>
