<svg width="96" height="96" viewBox="0 0 96 96" fill="none" xmlns="http://www.w3.org/2000/svg">
<rect width="96" height="96" rx="15" fill="#FFF4E6"/>
<path d="M30.2765 69.3035C21.8468 65.4591 32.9465 55.0262 36.0853 50.8346C40.4371 45.0241 45.8125 39.6814 51.7213 35.4571C54.7497 33.2919 60.051 28.2017 63.9824 28.1319C67.9827 28.0604 68.1172 32.6259 66.9127 34.9178C63.9169 40.6154 59.9632 45.8598 55.5441 50.5124C53.8554 52.2924 33.1111 72.1381 30.2765 69.3035Z" fill="#FBD490"/>
<path d="M33.0464 54.4955C34.2543 53.0549 35.3744 51.7841 36.0852 50.8346C40.4379 45.0241 45.8125 39.6815 51.7212 35.4571C52.3441 35.0117 53.067 34.4396 53.851 33.8158C54.7815 32.408 55.6526 30.9631 56.434 29.4752C57.4059 27.6262 57.2974 23.9429 54.0699 24.0007C50.8984 24.0575 46.6224 28.1638 44.1789 29.9103C39.4126 33.3178 35.0763 37.6274 31.5654 42.3153C29.0349 45.6962 20.0813 54.1121 26.8809 57.2138C27.6581 57.9909 30.1041 56.6529 33.0464 54.4955Z" fill="#EEAF4B"/>
<path d="M69.1191 38.7862C68.3419 38.009 65.8968 39.3471 62.9536 41.5045C62.839 41.6415 62.7305 41.7681 62.6185 41.9017C60.4757 44.9491 58.0917 47.8328 55.5457 50.5132C55.4182 50.6476 55.1701 50.8957 54.8418 51.2179C52.4225 53.8139 49.805 56.2401 47.0471 58.438C45.2895 59.9932 43.4172 61.5991 41.5743 63.0966C40.8635 64.2166 40.1811 65.3539 39.5651 66.5248C38.5933 68.3738 38.7018 72.057 41.9293 71.9993C45.1008 71.9424 49.3768 67.8361 51.8194 66.0897C56.5857 62.6822 60.922 58.3725 64.4329 53.6847C66.9651 50.3038 75.9187 41.8879 69.1191 38.7862Z" fill="#EEAF4B"/>
<path d="M36.7814 62.9632C35.8449 62.9632 34.9083 62.6065 34.1949 61.894C33.441 61.1401 32.2124 61.1401 31.4585 61.894C31.1217 62.2308 30.5771 62.2308 30.2403 61.894C29.9034 61.5571 29.9034 61.0126 30.2403 60.6757C31.6653 59.2489 33.9881 59.2489 35.4132 60.6757C36.1671 61.4296 37.3957 61.4296 38.1496 60.6757C38.4865 60.3388 39.031 60.3388 39.3679 60.6757C39.7047 61.0126 39.7047 61.5579 39.3679 61.894C38.6536 62.6065 37.7179 62.9632 36.7814 62.9632Z" fill="#F1B501"/>
<path d="M42.0535 57.6901C41.1169 57.6901 40.1795 57.3343 39.467 56.6209C38.7347 55.8877 37.463 55.8894 36.7315 56.6209C36.3946 56.9578 35.8501 56.9578 35.5132 56.6209C35.1763 56.2849 35.1763 55.7395 35.5132 55.4026C36.2042 54.7108 37.1218 54.3308 38.0997 54.3308C39.0767 54.3308 39.9943 54.7108 40.6853 55.4026C41.4392 56.1565 42.6678 56.1565 43.4217 55.4026C43.7586 55.0657 44.3031 55.0657 44.64 55.4026C44.9768 55.7395 44.9768 56.284 44.64 56.6209C43.9274 57.3343 42.99 57.6901 42.0535 57.6901Z" fill="#F1B501"/>
<path d="M47.3261 52.4174C46.3896 52.4174 45.4522 52.0616 44.7397 51.3482C43.9858 50.5943 42.7572 50.5943 42.0033 51.3482C41.6664 51.6851 41.1219 51.6851 40.785 51.3482C40.4481 51.0113 40.4481 50.4668 40.785 50.1299C42.2101 48.7031 44.5329 48.7031 45.9579 50.1299C46.7118 50.8838 47.9404 50.8838 48.6943 50.1299C49.0312 49.793 49.5757 49.793 49.9126 50.1299C50.2495 50.4668 50.2495 51.0113 49.9126 51.3482C49.2001 52.0616 48.2627 52.4174 47.3261 52.4174Z" fill="#F1B501"/>
<path d="M52.598 47.1446C51.6615 47.1446 50.7241 46.7887 50.0116 46.0754C49.2577 45.3215 48.029 45.3215 47.2752 46.0754C46.9383 46.4122 46.3938 46.4122 46.0569 46.0754C45.72 45.7385 45.72 45.194 46.0569 44.8571C47.4819 43.4303 49.8048 43.4303 51.2298 44.8571C51.9837 45.611 53.2123 45.611 53.9662 44.8571C54.3031 44.5202 54.8476 44.5202 55.1845 44.8571C55.5214 45.194 55.5214 45.7385 55.1845 46.0754C54.472 46.7887 53.5346 47.1446 52.598 47.1446Z" fill="#F1B501"/>
<path d="M57.871 41.8751C56.894 41.8751 55.9764 41.4951 55.2845 40.8033C54.5306 40.0494 53.302 40.0494 52.5481 40.8033C52.2113 41.1401 51.6667 41.1401 51.3299 40.8033C50.993 40.4664 50.993 39.9219 51.3299 39.585C52.7549 38.1582 55.0777 38.1582 56.5028 39.585C57.2334 40.3165 58.5043 40.3173 59.2383 39.585C59.5752 39.2481 60.1197 39.2481 60.4566 39.585C60.7935 39.921 60.7935 40.4664 60.4566 40.8033C59.7656 41.4951 58.848 41.8751 57.871 41.8751Z" fill="#F1B501"/>
<path d="M49.1875 34.6222C48.3354 34.6222 47.4824 34.2974 46.8345 33.6486C46.2082 33.0222 45.1906 33.0222 44.5643 33.6486C44.2274 33.9855 43.6829 33.9855 43.346 33.6486C43.0091 33.3117 43.0091 32.7672 43.346 32.4303C44.6435 31.1328 46.7553 31.1328 48.0528 32.4303C48.6792 33.0567 49.6967 33.0567 50.3231 32.4303C50.66 32.0934 51.2045 32.0934 51.5414 32.4303C51.8782 32.7672 51.8782 33.3117 51.5414 33.6486C50.8926 34.2974 50.0396 34.6222 49.1875 34.6222Z" fill="#FBD490"/>
<path d="M41.7309 40.8248C40.8788 40.8248 40.0258 40.5008 39.3779 39.8521C38.7507 39.2248 37.7332 39.2266 37.1077 39.8521C36.7708 40.189 36.2263 40.189 35.8894 39.8521C35.5525 39.5152 35.5525 38.9707 35.8894 38.6338C37.1869 37.3363 39.2987 37.3363 40.5962 38.6338C41.2226 39.2584 42.2401 39.2584 42.8665 38.6338C43.2033 38.2969 43.7479 38.2969 44.0847 38.6338C44.4216 38.9707 44.4216 39.5161 44.0847 39.8521C43.4351 40.5008 42.583 40.8248 41.7309 40.8248Z" fill="#FBD490"/>
<path d="M35.2054 48.2818C34.3533 48.2818 33.5012 47.9579 32.8525 47.3091C32.2459 46.7025 31.1913 46.7008 30.5831 47.3091C30.2462 47.646 29.7017 47.646 29.3648 47.3091C29.0279 46.9731 29.0279 46.4277 29.3648 46.0908C30.6227 44.832 32.8146 44.832 34.0707 46.0908C34.698 46.718 35.7155 46.7163 36.341 46.0908C36.6779 45.7539 37.2224 45.7539 37.5593 46.0908C37.8962 46.4277 37.8962 46.9722 37.5593 47.3091C36.9105 47.9579 36.0584 48.2818 35.2054 48.2818Z" fill="#FBD490"/>
<path d="M65.0231 50.4607C64.134 50.4607 63.2983 50.1143 62.6702 49.4845C62.0627 48.8771 61.0073 48.8771 60.3999 49.4845C60.063 49.8214 59.5185 49.8214 59.1816 49.4845C58.8447 49.1485 58.8447 48.6031 59.1816 48.2662C60.4378 47.0075 62.6288 47.0075 63.8884 48.2662C64.4959 48.8736 65.5513 48.8736 66.1587 48.2662C66.4956 47.9293 67.0401 47.9293 67.377 48.2662C67.7139 48.6031 67.7139 49.1476 67.377 49.4845C66.7472 50.1143 65.9114 50.4607 65.0231 50.4607Z" fill="#FBD490"/>
<path d="M57.5673 56.6632C56.6781 56.6632 55.8424 56.3169 55.2143 55.687C54.5879 55.0598 53.5704 55.0615 52.944 55.687C52.6071 56.0239 52.0626 56.0239 51.7257 55.687C51.3889 55.3502 51.3889 54.8056 51.7257 54.4688C53.0233 53.1712 55.1333 53.1712 56.4326 54.4688C57.04 55.0762 58.0954 55.0762 58.7028 54.4688C59.0397 54.1319 59.5842 54.1319 59.9211 54.4688C60.258 54.8056 60.258 55.3502 59.9211 55.687C59.2913 56.3169 58.4556 56.6632 57.5673 56.6632Z" fill="#FBD490"/>
<path d="M51.0413 64.1177C50.1892 64.1177 49.3363 63.7928 48.6883 63.1441C48.062 62.5194 47.0444 62.5194 46.4181 63.1441C46.0812 63.4809 45.5367 63.4809 45.1998 63.1441C44.8629 62.8072 44.8629 62.2618 45.1998 61.9258C46.4973 60.6283 48.6091 60.6283 49.9066 61.9258C50.5339 62.5522 51.5514 62.5522 52.1769 61.9258C52.5138 61.5889 53.0583 61.5889 53.3952 61.9258C53.732 62.2627 53.732 62.8072 53.3952 63.1441C52.7464 63.7928 51.8943 64.1177 51.0413 64.1177Z" fill="#FBD490"/>
<path d="M62.1549 36.466C61.3027 36.466 60.5006 36.1335 59.8984 35.5304C59.3254 34.9565 58.3923 34.9583 57.8211 35.5304C57.4842 35.8672 56.9397 35.8672 56.6028 35.5304C56.2659 35.1935 56.2659 34.6481 56.6028 34.3121C57.8495 33.068 59.8734 33.0697 61.1166 34.3121C61.6724 34.8678 62.6382 34.8678 63.1931 34.3121C63.5299 33.9752 64.0745 33.9752 64.4113 34.3121C64.7482 34.6481 64.7482 35.1935 64.4113 35.5304C63.8091 36.1335 63.007 36.466 62.1549 36.466Z" fill="#F1B501"/>
</svg>
