<svg width="64" height="64" viewBox="0 0 64 64" fill="none" xmlns="http://www.w3.org/2000/svg">
<path d="M0 64H64V0H0V64ZM3.75 33.875H30.125V60.25H3.75V33.875ZM33.875 60.25V33.875H60.25V60.25H33.875ZM60.25 30.125H33.875V3.75H60.25V30.125ZM30.125 3.75V30.125H3.75V3.75H30.125Z" fill="white"/>
<path d="M15.125 26.375H18.875V18.875H26.375V15.125H18.875V7.5H15.125V15.125H7.5V18.875H15.125V26.375Z" fill="white"/>
<path d="M24.9549 41.6967L22.3033 39.045L16.9999 44.3484L11.6965 39.045L9.04492 41.6967L14.3483 47L9.04492 52.3032L11.6965 54.955L16.9999 49.6516L22.3033 54.955L24.9549 52.3032L19.6515 47L24.9549 41.6967Z" fill="white"/>
<path d="M56.5 15.125H37.625V18.875H56.5V15.125Z" fill="white"/>
<path d="M56.5 45.125H37.625V48.875H56.5V45.125Z" fill="white"/>
<path d="M48.875 37.625H45.125V41.375H48.875V37.625Z" fill="white"/>
<path d="M48.875 52.625H45.125V56.375H48.875V52.625Z" fill="white"/>
</svg>
