<svg width="48" height="48" viewBox="0 0 48 48" fill="none" xmlns="http://www.w3.org/2000/svg">
<path d="M33.3033 0.00854492H14.6967L11.7056 5.99067L0 11.8679L5.93742 47.9915H42.0625L47.9999 11.8679L36.2944 5.99067L33.3033 0.00854492ZM22.4093 19.689H25.5907L28.1527 37.7943L23.9999 43.6496L19.8471 37.7943L22.4093 19.689ZM26.2292 16.8775H21.7708L20.365 15.4718L24 11.8368L27.635 15.4718L26.2292 16.8775ZM24 7.86069L18.9593 2.81995H29.0407L24 7.86069ZM29.4045 13.2652L25.988 9.8487L32.0493 3.7873L33.6238 6.93618L29.4045 13.2652ZM15.9506 3.78739L22.0119 9.8488L18.5954 13.2653L14.3761 6.93627L15.9506 3.78739ZM3.10971 13.4526L12.2739 8.85128L17.2846 16.3673L19.6984 18.781L16.9069 38.5081L21.6386 45.1799H8.32457L3.10971 13.4526ZM42.9256 25.4058H39.4633V22.5943H36.6518V25.4058H33.8403V28.2173H42.4635L39.6754 45.18H26.3615L31.0932 38.5082L28.3016 18.7812L30.7155 16.3674L35.7261 8.85146L44.8903 13.4526L42.9256 25.4058Z" fill="#313133"/>
</svg>
