<svg width="48" height="48" viewBox="0 0 48 48" fill="none" xmlns="http://www.w3.org/2000/svg">
<rect width="48" height="48" rx="24" fill="#EDF2F4"/>
<g clip-path="url(#clip0_142_8205)">
<path d="M23.3834 31.6772C18.8428 25.0947 18 24.4192 18 22C18 18.6863 20.6863 16 24 16C27.3137 16 30 18.6863 30 22C30 24.4192 29.1572 25.0947 24.6166 31.6772C24.3187 32.1076 23.6813 32.1076 23.3834 31.6772ZM24 24.5C25.3807 24.5 26.5 23.3807 26.5 22C26.5 20.6193 25.3807 19.5 24 19.5C22.6193 19.5 21.5 20.6193 21.5 22C21.5 23.3807 22.6193 24.5 24 24.5Z" fill="#E62F43"/>
</g>
<defs>
<clipPath id="clip0_142_8205">
<rect width="16" height="16" fill="white" transform="translate(16 16)"/>
</clipPath>
</defs>
</svg>
