<svg width="48" height="48" viewBox="0 0 48 48" fill="none" xmlns="http://www.w3.org/2000/svg">
<path d="M12.365 29.9554C8.51391 30.7256 5.71875 34.1351 5.71875 38.0625V48H42.2812V38.0625C42.2812 34.1351 39.4862 30.7256 35.6349 29.9554L28.2188 28.4722V27.2334C31.6204 25.6159 33.8438 22.1723 33.8438 18.375V11.25C36.9454 11.25 39.4688 8.72663 39.4688 5.625C39.4688 2.52338 36.9454 0 33.8438 0C31.7298 0 29.7779 1.1865 28.8153 3.10472C28.1801 2.91563 27.5083 2.8125 26.8125 2.8125H21.1875C17.3105 2.8125 14.1562 5.96672 14.1562 9.84375V18.375C14.1562 22.1723 16.3796 25.616 19.7812 27.2334V28.4721L12.365 29.9554ZM25.4062 45.1875H22.5938V39.4688H25.4062V45.1875ZM8.53125 38.0625C8.53125 35.4712 10.3755 33.2215 12.9166 32.7133L19.7812 31.3403V45.1875H14.1562V39.4688H11.3438V45.1875H8.53125V38.0625ZM35.0835 32.7133C37.6244 33.2215 39.4688 35.4712 39.4688 38.0625V45.1875H36.6562V39.4688H33.8438V45.1875H28.2188V31.3403L35.0835 32.7133ZM33.8438 2.8125C35.3946 2.8125 36.6562 4.07419 36.6562 5.625C36.6562 7.17581 35.3946 8.4375 33.8438 8.4375C33.7959 8.4375 33.7487 8.43384 33.7012 8.4315C33.3746 6.83634 32.506 5.43656 31.2973 4.43297C31.7517 3.47119 32.7377 2.8125 33.8438 2.8125ZM21.1875 5.625H26.8125C29.1387 5.625 31.0312 7.51753 31.0312 9.84375V13.6875L27.5697 8.4375H17.2106C17.7911 6.80072 19.3542 5.625 21.1875 5.625ZM16.9688 18.375V11.25H26.0553L31.0182 18.777C30.7061 24.124 25.5997 25.1705 25.4062 25.3032C25.4062 25.611 25.4062 36.346 25.4062 36.6562H22.5938C22.5938 36.3466 22.5938 25.6132 22.5938 25.3032C22.559 25.2787 16.9688 23.8888 16.9688 18.375Z" fill="#313133"/>
<path d="M28.2188 18.375H25.4062C25.4062 19.1504 24.7754 19.7812 24 19.7812C23.2246 19.7812 22.5938 19.1504 22.5938 18.375H19.7812C19.7812 20.7012 21.6738 22.5938 24 22.5938C26.3262 22.5938 28.2188 20.7012 28.2188 18.375Z" fill="#313133"/>
</svg>
