<svg width="73" height="73" viewBox="0 0 73 73" fill="none" xmlns="http://www.w3.org/2000/svg">
<rect width="73" height="73" rx="36.5" fill="#EDF2F4"/>
<g clip-path="url(#clip0_176_4205)">
<path d="M41.4316 35.2148L41.952 35.7352C42.1723 35.9555 42.1723 36.3117 41.952 36.5297L37.398 41.0859C37.1777 41.3062 36.8215 41.3062 36.6035 41.0859L32.0473 36.5297C31.827 36.3094 31.827 35.9531 32.0473 35.7352L32.5676 35.2148C32.7902 34.9922 33.1535 34.9969 33.3715 35.2242L36.0621 38.0484L36.0621 31.3125C36.0621 31.0008 36.3129 30.75 36.6246 30.75L37.3746 30.75C37.6863 30.75 37.9371 31.0008 37.9371 31.3125L37.9371 38.0484L40.6277 35.2242C40.8457 34.9945 41.209 34.9898 41.4316 35.2148Z" fill="#E62F43"/>
</g>
<defs>
<clipPath id="clip0_176_4205">
<rect width="12" height="12" fill="white" transform="translate(43 30) rotate(90)"/>
</clipPath>
</defs>
</svg>
