<svg width="64" height="64" viewBox="0 0 64 64" fill="none" xmlns="http://www.w3.org/2000/svg">
<g clip-path="url(#clip0_94_1313)">
<path d="M24.5033 37.7609H28.2518V33.8875H32.0002V22.6422H24.5033V18.8937H32.0002V15.1453H28.2518V11.3969H24.5033V15.1453H20.7549V26.3906H28.2518V30.139H20.7549V33.8875H24.5033V37.7609Z" fill="white"/>
<path d="M41.3709 0L37.6225 3.74844L33.874 0L30.1256 3.74844L26.3772 0L22.6287 3.74844L18.8803 0L15.1318 3.74844L11.3834 0L5.76074 5.62266V54.6289C5.76074 59.7961 9.96462 64 15.1318 64H50.742C54.8758 64 58.2389 60.6369 58.2389 56.5031V37.7609H46.9936V5.62266L41.3709 0ZM9.50918 54.6289V7.17539L11.3834 5.30117L15.1318 9.04961L18.8803 5.30117L22.6287 9.04961L26.3772 5.30117L30.1256 9.04961L33.874 5.30117L37.6225 9.04961L41.3709 5.30117L43.2451 7.17539C43.2451 9.37048 43.2451 54.3219 43.2451 56.5032C43.2451 57.8683 43.6136 59.148 44.2537 60.2517H15.1318C12.0315 60.2516 9.50918 57.7292 9.50918 54.6289ZM54.4905 56.5031C54.4905 58.57 52.8089 60.2516 50.742 60.2516C48.6751 60.2516 46.9936 58.57 46.9936 56.5031V41.5094H54.4905V56.5031Z" fill="white"/>
<path d="M39.4969 41.5093H13.2578V45.2578H39.4969V41.5093Z" fill="white"/>
<path d="M39.4969 49.0062H13.2578V52.7547H39.4969V49.0062Z" fill="white"/>
</g>
<defs>
<clipPath id="clip0_94_1313">
<rect width="64" height="64" fill="white"/>
</clipPath>
</defs>
</svg>
