<svg width="64" height="64" viewBox="0 0 64 64" fill="none" xmlns="http://www.w3.org/2000/svg">
<path d="M11.25 52.625H15V48.875H18.75V37.625H11.25V33.875H18.75V30.125H15V26.375H11.25V30.125H7.5V41.375H15V45.125H7.5V48.875H11.25V52.625Z" fill="white"/>
<path d="M5.625 60.125H64V18.875H56.5V11.375H49V3.875H37.75V18.875H30.125V11.375H5.625C2.52338 11.375 0 13.8984 0 17V54.5C0 57.6016 2.52338 60.125 5.625 60.125ZM52.75 15.125V18.875H49V15.125H52.75ZM43.375 46.5574L41.5 42.8074V41.375H45.25V42.8074L43.375 46.5574ZM41.5 37.625V15.125H45.25V37.625H41.5ZM45.25 7.625V11.375H41.5V7.625H45.25ZM37.75 22.625V33.875H22.5V37.625H37.75V41.375H22.5V45.125H38.4661L40.3411 48.875H22.5V52.625C30.0101 52.625 49.7959 52.625 56.5 52.625V48.875H46.4089L48.2839 45.125H56.5V41.375H49V37.625H56.5V33.875H49V22.625H52.75V30.125H56.5V22.625H60.25V56.375H5.625C4.59113 56.375 3.75 55.5339 3.75 54.5V22.3025C4.33688 22.5106 4.96775 22.625 5.625 22.625C6.27812 22.625 36.8596 22.625 37.75 22.625ZM5.625 15.125H26.375V18.875H5.625C4.59113 18.875 3.75 18.0339 3.75 17C3.75 15.9661 4.59113 15.125 5.625 15.125Z" fill="white"/>
</svg>
