<svg width="48" height="48" viewBox="0 0 48 48" fill="none" xmlns="http://www.w3.org/2000/svg">
<path d="M44.0195 40.875L35.582 36.6562H0V45.0938H35.582L44.0195 40.875ZM31.0312 39.4688V42.2812H8.4375V39.4688H31.0312ZM2.8125 39.4688H5.625V42.2812H2.8125V39.4688ZM33.8438 42.2812V39.4688H34.918L37.7305 40.875L34.918 42.2812H33.8438Z" fill="#313133"/>
<path d="M16.9688 8.53125H2.90625V28.2187H11.3438V35.0651L21.6133 28.2187H33.8438V23.8151L42.2812 29.4401V22.5937H48V2.90625H16.9688V8.53125ZM31.0312 25.4062H20.7617L14.1562 29.8099V25.4062H5.71875V11.3437H31.0312V25.4062ZM45.1875 5.71875V19.7812H39.4688V24.1849L33.8438 20.4349V8.53125H19.7812V5.71875H45.1875Z" fill="#313133"/>
<path d="M14.1562 16.9688H11.3438V19.7812H14.1562V16.9688Z" fill="#313133"/>
<path d="M19.7812 16.9688H16.9688V19.7812H19.7812V16.9688Z" fill="#313133"/>
<path d="M25.4062 16.9688H22.5938V19.7812H25.4062V16.9688Z" fill="#313133"/>
</svg>
