<svg width="189" height="50" viewBox="0 0 189 50" fill="none" xmlns="http://www.w3.org/2000/svg">
<path fill-rule="evenodd" clip-rule="evenodd" d="M47.4921 23.0318L46.1684 25.7973L56.1854 43.1397C57.1287 44.7674 56.9438 46.7186 55.7231 48.1526C54.5024 49.5866 52.4119 50.4279 50.8485 49.3827L35.2646 39.0515C34.6356 38.6352 34.2753 38.0249 34.2012 37.2758C34.1272 36.5266 34.3767 35.8609 34.9131 35.3333L47.5015 23.0225L47.4921 23.0318Z" fill="#E62F43"/>
<path fill-rule="evenodd" clip-rule="evenodd" d="M32.7028 2.48022L44.2268 22.4411L48.9161 20.36C38.4187 27.7501 26.9035 35.3619 16.2575 42.5491L5.93512 49.3931C4.37218 50.429 2.28171 49.5892 1.06097 48.163C-0.159775 46.7369 -0.345093 44.7778 0.598655 43.1501L11.4108 24.4296L24.082 2.48757C24.9979 0.905998 26.5608 0 28.3924 0C30.224 0 31.787 0.905998 32.7023 2.48757L32.7028 2.48022Z" fill="#E62F43"/>
<path d="M80.4356 15.247C81.3365 14.7728 81.9055 13.9194 81.9055 12.813C81.9055 11.0903 80.483 9.9365 77.7171 9.9365H72.3118V21H78.0332C80.9413 21 82.4586 19.8936 82.4586 17.9812C82.4586 16.5904 81.6684 15.6421 80.4356 15.247ZM77.401 11.8647C78.6496 11.8647 79.3292 12.2914 79.3292 13.1607C79.3292 14.03 78.6496 14.4725 77.401 14.4725H74.8564V11.8647H77.401ZM77.8436 19.0718H74.8564V16.3375H77.8436C79.1712 16.3375 79.8824 16.7801 79.8824 17.7126C79.8824 18.6609 79.1712 19.0718 77.8436 19.0718ZM86.9417 18.9453V16.3849H92.0783V14.3935H86.9417V11.9911H92.7579V9.9365H84.3971V21H92.9634V18.9453H86.9417Z" fill="#E62F43"/>
<path d="M80.5778 40H83.2647L78.3177 28.9365H75.7889L70.8578 40H73.4814L74.4613 37.6292H79.5979L80.5778 40ZM75.2832 35.6852L77.0375 31.4495L78.7919 35.6852H75.2832ZM89.5528 40.1897C91.4811 40.1897 93.0774 39.4942 94.1205 38.214L92.4768 36.6968C91.7339 37.566 90.8014 38.0086 89.6951 38.0086C87.6246 38.0086 86.1548 36.5545 86.1548 34.4682C86.1548 32.382 87.6246 30.9279 89.6951 30.9279C90.8014 30.9279 91.7339 31.3705 92.4768 32.2239L94.1205 30.7067C93.0774 29.4423 91.4811 28.7468 89.5687 28.7468C86.1232 28.7468 83.5628 31.1334 83.5628 34.4682C83.5628 37.8031 86.1232 40.1897 89.5528 40.1897ZM100.913 40.1897C102.841 40.1897 104.437 39.4942 105.48 38.214L103.837 36.6968C103.094 37.566 102.161 38.0086 101.055 38.0086C98.9845 38.0086 97.5146 36.5545 97.5146 34.4682C97.5146 32.382 98.9845 30.9279 101.055 30.9279C102.161 30.9279 103.094 31.3705 103.837 32.2239L105.48 30.7067C104.437 29.4423 102.841 28.7468 100.928 28.7468C97.483 28.7468 94.9226 31.1334 94.9226 34.4682C94.9226 37.8031 97.483 40.1897 100.913 40.1897ZM112.336 40.1897C115.813 40.1897 118.389 37.7715 118.389 34.4682C118.389 31.165 115.813 28.7468 112.336 28.7468C108.843 28.7468 106.282 31.1808 106.282 34.4682C106.282 37.7557 108.843 40.1897 112.336 40.1897ZM112.336 38.0086C110.36 38.0086 108.874 36.5703 108.874 34.4682C108.874 32.3662 110.36 30.9279 112.336 30.9279C114.311 30.9279 115.797 32.3662 115.797 34.4682C115.797 36.5703 114.311 38.0086 112.336 38.0086ZM125.229 40.1897C128.374 40.1897 130.239 38.3879 130.239 35.1321V28.9365H127.71V35.0372C127.71 37.1393 126.809 38.0086 125.244 38.0086C123.696 38.0086 122.779 37.1393 122.779 35.0372V28.9365H120.218V35.1321C120.218 38.3879 122.083 40.1897 125.229 40.1897ZM140.387 28.9365V35.6536L134.887 28.9365H132.769V40H135.298V33.2829L140.814 40H142.916V28.9365H140.387ZM147.825 40H150.386V31.0228H153.926V28.9365H144.285V31.0228H147.825V40ZM163.014 40H165.701L160.754 28.9365H158.225L153.294 40H155.917L156.897 37.6292H162.034L163.014 40ZM157.719 35.6852L159.474 31.4495L161.228 35.6852H157.719ZM174.467 28.9365V35.6536L168.966 28.9365H166.849V40H169.377V33.2829L174.893 40H176.995V28.9365H174.467ZM181.905 40H184.465V31.0228H188.005V28.9365H178.364V31.0228H181.905V40Z" fill="#313133"/>
</svg>
