<svg width="48" height="48" viewBox="0 0 48 48" fill="none" xmlns="http://www.w3.org/2000/svg">
<path d="M28.2188 4.21875C28.2188 1.89253 26.3262 0 24 0C21.6738 0 19.7812 1.89253 19.7812 4.21875V5.71875H0V8.53125H2.90625V33.8438H0V36.6562H8.53125V48H16.9688V42.2812H31.0312V48H39.4688V36.6562H48V33.8438H45.1875V8.53125H48V5.71875H28.2188V4.21875ZM22.5938 4.21875C22.5938 3.44334 23.2246 2.8125 24 2.8125C24.7754 2.8125 25.4062 3.44334 25.4062 4.21875V5.71875H22.5938V4.21875ZM11.3438 45.1875V36.6562H14.1562V45.1875H11.3438ZM16.9688 39.4688V36.6562H31.0312V39.4688H16.9688ZM36.6562 45.1875H33.8438V36.6562H36.6562V45.1875ZM42.375 33.8438H5.71875V8.53125H42.375V33.8438Z" fill="#313133"/>
<path d="M39.4688 31.0312V28.2188H28.2188V21.77L33.8438 16.145V19.7812H36.6562V11.3438H28.2188V14.1562H31.855L26.8125 19.1988L21.1875 13.5738L15.5625 19.1988L11.3438 14.98V11.3438H8.53125V31.0312H39.4688ZM16.9688 21.77L19.7812 18.9575V28.2188H16.9688V21.77ZM22.5938 28.2188V18.9575L25.4062 21.77V28.2188H22.5938ZM14.1562 21.77V28.2188H11.3438V18.9575L14.1562 21.77Z" fill="#313133"/>
</svg>
