<svg width="209" height="432" viewBox="0 0 209 432" fill="none" xmlns="http://www.w3.org/2000/svg">
<path fill-rule="evenodd" clip-rule="evenodd" d="M0 28.1734C0 12.6137 12.6137 0 28.1734 0H180.149C195.709 0 208.323 12.6136 208.323 28.1734V403.771C208.323 419.331 195.709 431.945 180.149 431.945H28.1734C12.6137 431.945 0 419.331 0 403.771V28.1734ZM9.42031 29.1048C9.42031 17.7887 18.5938 8.61508 29.91 8.61508H57.3407V12.917C57.3407 18.4804 61.8507 22.9905 67.4141 22.9905H140.909C146.472 22.9905 150.982 18.4804 150.982 12.917V8.61508H178.413C189.729 8.61508 198.903 17.7886 198.903 29.1048V404.04C198.903 415.357 189.729 424.53 178.413 424.53H29.91C18.5939 424.53 9.42031 415.357 9.42031 404.04V29.1048Z" fill="#F5F5F5"/>
<path d="M29.9116 8.61523C18.5954 8.61523 9.42188 17.7888 9.42188 29.105V404.041C9.42188 415.357 18.5955 424.53 29.9116 424.53H178.414C189.731 424.53 198.904 415.357 198.904 404.041V29.105C198.904 17.7888 189.731 8.61523 178.414 8.61523H150.984V12.9172C150.984 18.4806 146.474 22.9906 140.91 22.9906H67.4157C61.8523 22.9906 57.3422 18.4806 57.3422 12.9172V8.61523H29.9116Z" fill="white"/>
<circle cx="69.6762" cy="13.7636" r="3.38126" fill="#D1D1D1"/>
<circle cx="85.5356" cy="13.7636" r="3.38126" fill="#D1D1D1"/>
<circle cx="122.995" cy="13.7636" r="3.38126" fill="#D1D1D1"/>
<circle cx="138.647" cy="13.7636" r="3.38126" fill="#D1D1D1"/>
<rect x="93.502" y="12.2007" width="21.5248" height="3.321" rx="1.6605" fill="#D1D1D1"/>
<mask id="mask0_142_8214" style="mask-type:alpha" maskUnits="userSpaceOnUse" x="9" y="97" width="191" height="272">
<rect x="9.15625" y="97" width="190" height="272" fill="#E62F43"/>
</mask>
<g mask="url(#mask0_142_8214)">
<g opacity="0.5" filter="url(#filter0_dddddd_142_8214)">
<path fill-rule="evenodd" clip-rule="evenodd" d="M126.078 193.427L119.457 207.26L169.561 294.006C174.28 302.148 173.355 311.908 167.249 319.081C161.143 326.254 150.686 330.462 142.866 325.234L64.9159 273.557C61.7697 271.475 59.9673 268.422 59.597 264.675C59.2267 260.928 60.4749 257.598 63.1577 254.959L126.124 193.38L126.078 193.427Z" fill="white"/>
<path fill-rule="evenodd" clip-rule="evenodd" d="M52.0981 90.6279L109.741 190.472L133.197 180.062C80.6891 217.027 23.0903 255.101 -30.1606 291.052L-81.7931 325.285C-89.6109 330.467 -100.067 326.266 -106.174 319.132C-112.28 311.999 -113.207 302.2 -108.486 294.058L-54.4037 200.418L8.9775 90.6647C13.5583 82.7537 21.3762 78.2219 30.5378 78.2219C39.6995 78.2219 47.5173 82.7537 52.0957 90.6647L52.0981 90.6279Z" fill="white"/>
</g>
</g>
<path fill-rule="evenodd" clip-rule="evenodd" d="M136.942 131.663L134.662 136.426L151.912 166.291C153.537 169.094 153.218 172.455 151.116 174.924C149.014 177.394 145.414 178.842 142.722 177.042L115.884 159.251C114.801 158.534 114.181 157.483 114.053 156.193C113.926 154.903 114.355 153.756 115.279 152.848L136.958 131.647L136.942 131.663Z" fill="#E62F43"/>
<path fill-rule="evenodd" clip-rule="evenodd" d="M111.474 96.2712L131.319 130.646L139.395 127.062C121.317 139.789 101.487 152.897 83.1534 165.274L65.3772 177.06C62.6856 178.844 59.0856 177.398 56.9834 174.942C54.8811 172.486 54.562 169.112 56.1872 166.309L74.8069 134.07L96.6281 96.2839C98.2052 93.5602 100.897 92 104.051 92C107.205 92 109.897 93.5602 111.473 96.2839L111.474 96.2712Z" fill="#E62F43"/>
<path d="M54.5918 363.247C55.224 363.447 55.7193 363.784 56.0775 364.258C56.4358 364.722 56.6149 365.296 56.6149 365.981C56.6149 366.951 56.2356 367.699 55.4769 368.226C54.7288 368.742 53.633 369 52.1895 369H46.4681V357.936H51.8734C53.2221 357.936 54.2547 358.195 54.9712 358.711C55.6982 359.227 56.0617 359.928 56.0617 360.813C56.0617 361.35 55.93 361.83 55.6666 362.251C55.4137 362.673 55.0554 363.005 54.5918 363.247ZM49.0127 359.865V362.473H51.5573C52.1895 362.473 52.6689 362.362 52.9955 362.141C53.3222 361.919 53.4855 361.593 53.4855 361.161C53.4855 360.729 53.3222 360.407 52.9955 360.197C52.6689 359.975 52.1895 359.865 51.5573 359.865H49.0127ZM51.9998 367.072C52.6742 367.072 53.1799 366.961 53.5171 366.74C53.8648 366.519 54.0387 366.176 54.0387 365.713C54.0387 364.796 53.359 364.338 51.9998 364.338H49.0127V367.072H51.9998ZM67.1196 366.945V369H58.5533V357.936H66.9142V359.991H61.0979V362.394H66.2346V364.385H61.0979V366.945H67.1196Z" fill="#E62F43"/>
<path d="M53.7542 385.629H48.6175L47.6376 388H45.014L49.9452 376.936H52.474L57.4209 388H54.7341L53.7542 385.629ZM52.9481 383.685L51.1938 379.449L49.4394 383.685H52.9481ZM63.7091 388.19C62.5817 388.19 61.5596 387.947 60.6429 387.463C59.7368 386.967 59.0203 386.288 58.4934 385.424C57.9772 384.549 57.719 383.564 57.719 382.468C57.719 381.372 57.9772 380.393 58.4934 379.529C59.0203 378.654 59.7368 377.974 60.6429 377.49C61.5596 376.994 62.5869 376.747 63.7249 376.747C64.6837 376.747 65.5477 376.915 66.3169 377.253C67.0966 377.59 67.7499 378.074 68.2767 378.707L66.633 380.224C65.8849 379.36 64.9577 378.928 63.8513 378.928C63.1665 378.928 62.5553 379.081 62.018 379.386C61.4806 379.681 61.0591 380.097 60.7536 380.635C60.4585 381.172 60.311 381.783 60.311 382.468C60.311 383.153 60.4585 383.764 60.7536 384.302C61.0591 384.839 61.4806 385.26 62.018 385.566C62.5553 385.861 63.1665 386.009 63.8513 386.009C64.9577 386.009 65.8849 385.571 66.633 384.697L68.2767 386.214C67.7499 386.857 67.0966 387.347 66.3169 387.684C65.5372 388.021 64.6679 388.19 63.7091 388.19ZM75.0689 388.19C73.9415 388.19 72.9195 387.947 72.0028 387.463C71.0966 386.967 70.3801 386.288 69.8533 385.424C69.337 384.549 69.0788 383.564 69.0788 382.468C69.0788 381.372 69.337 380.393 69.8533 379.529C70.3801 378.654 71.0966 377.974 72.0028 377.49C72.9195 376.994 73.9468 376.747 75.0847 376.747C76.0436 376.747 76.9076 376.915 77.6768 377.253C78.4565 377.59 79.1098 378.074 79.6366 378.707L77.9929 380.224C77.2448 379.36 76.3175 378.928 75.2112 378.928C74.5263 378.928 73.9152 379.081 73.3778 379.386C72.8404 379.681 72.419 380.097 72.1134 380.635C71.8184 381.172 71.6709 381.783 71.6709 382.468C71.6709 383.153 71.8184 383.764 72.1134 384.302C72.419 384.839 72.8404 385.26 73.3778 385.566C73.9152 385.861 74.5263 386.009 75.2112 386.009C76.3175 386.009 77.2448 385.571 77.9929 384.697L79.6366 386.214C79.1098 386.857 78.4565 387.347 77.6768 387.684C76.8971 388.021 76.0278 388.19 75.0689 388.19ZM86.492 388.19C85.3435 388.19 84.3056 387.942 83.3784 387.447C82.4617 386.952 81.74 386.272 81.2131 385.408C80.6968 384.533 80.4387 383.554 80.4387 382.468C80.4387 381.383 80.6968 380.408 81.2131 379.544C81.74 378.67 82.4617 377.985 83.3784 377.49C84.3056 376.994 85.3435 376.747 86.492 376.747C87.6405 376.747 88.6731 376.994 89.5898 377.49C90.5065 377.985 91.2282 378.67 91.7551 379.544C92.2819 380.408 92.5453 381.383 92.5453 382.468C92.5453 383.554 92.2819 384.533 91.7551 385.408C91.2282 386.272 90.5065 386.952 89.5898 387.447C88.6731 387.942 87.6405 388.19 86.492 388.19ZM86.492 386.009C87.1453 386.009 87.7353 385.861 88.2622 385.566C88.789 385.26 89.1999 384.839 89.495 384.302C89.8005 383.764 89.9533 383.153 89.9533 382.468C89.9533 381.783 89.8005 381.172 89.495 380.635C89.1999 380.097 88.789 379.681 88.2622 379.386C87.7353 379.081 87.1453 378.928 86.492 378.928C85.8387 378.928 85.2487 379.081 84.7218 379.386C84.195 379.681 83.7788 380.097 83.4733 380.635C83.1782 381.172 83.0307 381.783 83.0307 382.468C83.0307 383.153 83.1782 383.764 83.4733 384.302C83.7788 384.839 84.195 385.26 84.7218 385.566C85.2487 385.861 85.8387 386.009 86.492 386.009ZM99.3849 388.19C97.8044 388.19 96.5716 387.752 95.6866 386.878C94.812 386.003 94.3747 384.755 94.3747 383.132V376.936H96.9352V383.037C96.9352 385.018 97.757 386.009 99.4007 386.009C100.202 386.009 100.813 385.771 101.234 385.297C101.656 384.813 101.866 384.059 101.866 383.037V376.936H104.395V383.132C104.395 384.755 103.953 386.003 103.068 386.878C102.193 387.752 100.965 388.19 99.3849 388.19ZM117.072 376.936V388H114.97L109.454 381.283V388H106.925V376.936H109.043L114.543 383.654V376.936H117.072ZM121.981 379.023H118.441V376.936H128.082V379.023H124.542V388H121.981V379.023ZM136.19 385.629H131.054L130.074 388H127.45L132.381 376.936H134.91L139.857 388H137.17L136.19 385.629ZM135.384 383.685L133.63 379.449L131.875 383.685H135.384ZM151.152 376.936V388H149.05L143.534 381.283V388H141.005V376.936H143.123L148.623 383.654V376.936H151.152ZM156.061 379.023H152.521V376.936H162.162V379.023H158.621V388H156.061V379.023Z" fill="#313133"/>
<defs>
<filter id="filter0_dddddd_142_8214" x="-137.116" y="77.8065" width="335.306" height="307.464" filterUnits="userSpaceOnUse" color-interpolation-filters="sRGB">
<feFlood flood-opacity="0" result="BackgroundImageFix"/>
<feColorMatrix in="SourceAlpha" type="matrix" values="0 0 0 0 0 0 0 0 0 0 0 0 0 0 0 0 0 0 127 0" result="hardAlpha"/>
<feOffset dy="0.59341"/>
<feGaussianBlur stdDeviation="0.504399"/>
<feColorMatrix type="matrix" values="0 0 0 0 0.443137 0 0 0 0 0 0 0 0 0 0 0 0 0 0.0168519 0"/>
<feBlend mode="normal" in2="BackgroundImageFix" result="effect1_dropShadow_142_8214"/>
<feColorMatrix in="SourceAlpha" type="matrix" values="0 0 0 0 0 0 0 0 0 0 0 0 0 0 0 0 0 0 127 0" result="hardAlpha"/>
<feOffset dy="2.61101"/>
<feGaussianBlur stdDeviation="1.0444"/>
<feColorMatrix type="matrix" values="0 0 0 0 0.443137 0 0 0 0 0 0 0 0 0 0 0 0 0 0.0274815 0"/>
<feBlend mode="normal" in2="effect1_dropShadow_142_8214" result="effect2_dropShadow_142_8214"/>
<feColorMatrix in="SourceAlpha" type="matrix" values="0 0 0 0 0 0 0 0 0 0 0 0 0 0 0 0 0 0 127 0" result="hardAlpha"/>
<feOffset dy="6.40883"/>
<feGaussianBlur stdDeviation="2.08287"/>
<feColorMatrix type="matrix" values="0 0 0 0 0.443137 0 0 0 0 0 0 0 0 0 0 0 0 0 0.035 0"/>
<feBlend mode="normal" in2="effect2_dropShadow_142_8214" result="effect3_dropShadow_142_8214"/>
<feColorMatrix in="SourceAlpha" type="matrix" values="0 0 0 0 0 0 0 0 0 0 0 0 0 0 0 0 0 0 127 0" result="hardAlpha"/>
<feOffset dy="12.3429"/>
<feGaussianBlur stdDeviation="4.08266"/>
<feColorMatrix type="matrix" values="0 0 0 0 0.443137 0 0 0 0 0 0 0 0 0 0 0 0 0 0.0425185 0"/>
<feBlend mode="normal" in2="effect3_dropShadow_142_8214" result="effect4_dropShadow_142_8214"/>
<feColorMatrix in="SourceAlpha" type="matrix" values="0 0 0 0 0 0 0 0 0 0 0 0 0 0 0 0 0 0 127 0" result="hardAlpha"/>
<feOffset dy="20.7694"/>
<feGaussianBlur stdDeviation="7.50664"/>
<feColorMatrix type="matrix" values="0 0 0 0 0.443137 0 0 0 0 0 0 0 0 0 0 0 0 0 0.0531481 0"/>
<feBlend mode="normal" in2="effect4_dropShadow_142_8214" result="effect5_dropShadow_142_8214"/>
<feColorMatrix in="SourceAlpha" type="matrix" values="0 0 0 0 0 0 0 0 0 0 0 0 0 0 0 0 0 0 127 0" result="hardAlpha"/>
<feOffset dy="32.0442"/>
<feGaussianBlur stdDeviation="12.8177"/>
<feColorMatrix type="matrix" values="0 0 0 0 0.443137 0 0 0 0 0 0 0 0 0 0 0 0 0 0.07 0"/>
<feBlend mode="normal" in2="effect5_dropShadow_142_8214" result="effect6_dropShadow_142_8214"/>
<feBlend mode="normal" in="SourceGraphic" in2="effect6_dropShadow_142_8214" result="shape"/>
</filter>
</defs>
</svg>
