<svg width="45" height="45" viewBox="0 0 45 45" fill="none" xmlns="http://www.w3.org/2000/svg">
<rect y="45" width="45" height="45" rx="22.5" transform="rotate(-90 0 45)" fill="#313133"/>
<path d="M21.2148 17.5684L21.7352 17.048C21.9555 16.8277 22.3117 16.8277 22.5297 17.048L27.0859 21.602C27.3062 21.8223 27.3062 22.1785 27.0859 22.3965L22.5297 26.9527C22.3094 27.173 21.9531 27.173 21.7352 26.9527L21.2148 26.4324C20.9922 26.2098 20.9969 25.8465 21.2242 25.6285L24.0484 22.9379H17.3125C17.0008 22.9379 16.75 22.6871 16.75 22.3754V21.6254C16.75 21.3137 17.0008 21.0629 17.3125 21.0629H24.0484L21.2242 18.3723C20.9945 18.1543 20.9898 17.791 21.2148 17.5684Z" fill="white"/>
</svg>
