<svg width="73" height="73" viewBox="0 0 73 73" fill="none" xmlns="http://www.w3.org/2000/svg">
<rect y="73" width="73" height="73" rx="36.5" transform="rotate(-90 0 73)" fill="black"/>
<path d="M35.2148 31.5684L35.7352 31.048C35.9555 30.8277 36.3117 30.8277 36.5297 31.048L41.0859 35.602C41.3062 35.8223 41.3062 36.1785 41.0859 36.3965L36.5297 40.9527C36.3094 41.173 35.9531 41.173 35.7352 40.9527L35.2148 40.4324C34.9922 40.2098 34.9969 39.8465 35.2242 39.6285L38.0484 36.9379H31.3125C31.0008 36.9379 30.75 36.6871 30.75 36.3754V35.6254C30.75 35.3137 31.0008 35.0629 31.3125 35.0629H38.0484L35.2242 32.3723C34.9945 32.1543 34.9898 31.791 35.2148 31.5684Z" fill="white"/>
</svg>
