<svg width="48" height="48" viewBox="0 0 48 48" fill="none" xmlns="http://www.w3.org/2000/svg">
<path d="M8.4375 39.4688H11.25V36.6562H14.0625V28.2188H8.4375V25.4062H14.0625V22.5938H11.25V19.7812H8.4375V22.5938H5.625V31.0312H11.25V33.8438H5.625V36.6562H8.4375V39.4688Z" fill="#313133"/>
<path d="M4.21875 45.0938H48V14.1562H42.375V8.53125H36.75V2.90625H28.3125V14.1562H22.5938V8.53125H4.21875C1.89253 8.53125 0 10.4238 0 12.75V40.875C0 43.2012 1.89253 45.0938 4.21875 45.0938ZM39.5625 11.3438V14.1562H36.75V11.3438H39.5625ZM32.5312 34.918L31.125 32.1055V31.0312H33.9375V32.1055L32.5312 34.918ZM31.125 28.2188V11.3438H33.9375V28.2188H31.125ZM33.9375 5.71875V8.53125H31.125V5.71875H33.9375ZM28.3125 16.9688V25.4062H16.875V28.2188H28.3125V31.0312H16.875V33.8438H28.8496L30.2558 36.6562H16.875V39.4688C22.5076 39.4688 37.3469 39.4688 42.375 39.4688V36.6562H34.8067L36.2129 33.8438H42.375V31.0312H36.75V28.2188H42.375V25.4062H36.75V16.9688H39.5625V22.5938H42.375V16.9688H45.1875V42.2812H4.21875C3.44334 42.2812 2.8125 41.6504 2.8125 40.875V16.7269C3.25266 16.883 3.72581 16.9688 4.21875 16.9688C4.70859 16.9688 27.6447 16.9688 28.3125 16.9688ZM4.21875 11.3438H19.7812V14.1562H4.21875C3.44334 14.1562 2.8125 13.5254 2.8125 12.75C2.8125 11.9746 3.44334 11.3438 4.21875 11.3438Z" fill="#313133"/>
</svg>
