<svg width="48" height="48" viewBox="0 0 48 48" fill="none" xmlns="http://www.w3.org/2000/svg">
<path d="M14.1562 11.25H11.3438V25.5H14.1562V11.25Z" fill="#313133"/>
<path d="M25.4062 11.25H22.5938V25.5H25.4062V11.25Z" fill="#313133"/>
<path d="M5.71875 0V48C17.11 48 30.8969 48 42.2812 48V0C38.8594 0 9.51187 0 5.71875 0ZM16.9688 39.5625H8.53125V8.4375H16.9688V39.5625ZM19.7812 8.4375H28.2188V39.5625H19.7812V8.4375ZM31.0312 8.4375H39.4688V39.5625H31.0312V8.4375ZM28.2188 2.8125V5.625H19.7812V2.8125H28.2188ZM16.9688 2.8125V5.625H8.53125V2.8125H16.9688ZM8.53125 45.1875V42.375H16.9688V45.1875H8.53125ZM19.7812 45.1875V42.375H28.2188V45.1875H19.7812ZM31.0312 45.1875V42.375H39.4688V45.1875H31.0312ZM39.4688 2.8125V5.625H31.0312V2.8125H39.4688Z" fill="#313133"/>
<path d="M36.6562 11.25H33.8438V25.5H36.6562V11.25Z" fill="#313133"/>
<path d="M36.6562 28.3125H33.8438V31.125H36.6562V28.3125Z" fill="#313133"/>
<path d="M36.6562 33.9375H33.8438V36.75H36.6562V33.9375Z" fill="#313133"/>
<path d="M25.4062 28.3125H22.5938V31.125H25.4062V28.3125Z" fill="#313133"/>
<path d="M25.4062 33.9375H22.5938V36.75H25.4062V33.9375Z" fill="#313133"/>
<path d="M14.1562 28.3125H11.3438V31.125H14.1562V28.3125Z" fill="#313133"/>
<path d="M14.1562 33.9375H11.3438V36.75H14.1562V33.9375Z" fill="#313133"/>
</svg>
