<svg width="60" height="60" viewBox="0 0 60 60" fill="none" xmlns="http://www.w3.org/2000/svg">
<path d="M16 9H12C11.4477 9 11 9.41041 11 9.91667V30.0833C11 30.5896 11.4477 31 12 31H16C16.5523 31 17 30.5896 17 30.0833V9.91667C17 9.41041 16.5523 9 16 9Z" fill="#1268FB"/>
<path d="M50 9H46C45.4477 9 45 9.41041 45 9.91667V30.0833C45 30.5896 45.4477 31 46 31H50C50.5523 31 51 30.5896 51 30.0833V9.91667C51 9.41041 50.5523 9 50 9Z" fill="#1268FB"/>
<path d="M31 28C32.6569 28 34 26.6569 34 25C34 23.3431 32.6569 22 31 22C29.3431 22 28 23.3431 28 25C28 26.6569 29.3431 28 31 28Z" fill="#1268FB"/>
<path d="M34.0996 21C33.8782 21.0002 33.6645 20.923 33.4998 20.7832C32.664 20.1075 31.6001 19.7361 30.5 19.7361C29.3999 19.7361 28.336 20.1075 27.5002 20.7832C27.3223 20.9337 27.0885 21.0112 26.8502 20.9987C26.6119 20.9862 26.3886 20.8849 26.2294 20.7168C26.0702 20.5488 25.9882 20.3279 26.0014 20.1027C26.0146 19.8776 26.1219 19.6666 26.2997 19.5162C27.4547 18.5398 28.9502 18 30.5 18C32.0498 18 33.5452 18.5398 34.7003 19.5162C34.8361 19.631 34.9318 19.7821 34.9747 19.9495C35.0176 20.1169 35.0057 20.2926 34.9406 20.4535C34.8755 20.6143 34.7602 20.7527 34.61 20.8503C34.4599 20.9479 34.2819 21.0001 34.0996 21Z" fill="#2A3C4C"/>
<path d="M36.0707 18.9998C35.8699 18.9999 35.6745 18.9296 35.514 18.7996C34.0675 17.6314 32.3082 16.9999 30.5001 16.9999C28.6921 16.9999 26.9328 17.6314 25.4863 18.7996C25.2894 18.9589 25.0417 19.0274 24.7979 18.99C24.554 18.9527 24.334 18.8125 24.1861 18.6004C24.0382 18.3883 23.9746 18.1216 24.0093 17.859C24.0439 17.5964 24.1741 17.3594 24.371 17.2001C26.1393 15.772 28.2899 15 30.5001 15C32.7104 15 34.861 15.772 36.6293 17.2001C36.7851 17.3262 36.9001 17.5019 36.958 17.7023C37.0159 17.9027 37.0139 18.1176 36.9521 18.3167C36.8903 18.5158 36.772 18.6888 36.6138 18.8114C36.4556 18.934 36.2656 18.9999 36.0707 18.9998Z" fill="#2A3C4C"/>
<path d="M38.0543 14.9998C37.8614 14.9997 37.6731 14.9441 37.5148 14.8404C35.4561 13.495 33.0081 12.7738 30.4999 12.7738C27.9918 12.7738 25.5438 13.495 23.4851 14.8404C23.2796 14.9751 23.0256 15.0275 22.779 14.9863C22.5323 14.945 22.3132 14.8134 22.1699 14.6205C22.0266 14.4275 21.9707 14.189 22.0146 13.9573C22.0586 13.7257 22.1987 13.5199 22.4042 13.3853C24.78 11.8324 27.6053 11 30.4999 11C33.3946 11 36.2198 11.8324 38.5957 13.3853C38.7607 13.4934 38.8846 13.648 38.9495 13.8268C39.0144 14.0056 39.0168 14.1991 38.9564 14.3793C38.896 14.5595 38.7759 14.7168 38.6136 14.8284C38.4514 14.94 38.2554 15.0001 38.0543 14.9998Z" fill="#2A3C4C"/>
<path d="M13 35C13.5523 35 14 34.5523 14 34C14 33.4477 13.5523 33 13 33C12.4477 33 12 33.4477 12 34C12 34.5523 12.4477 35 13 35Z" fill="#2A3C4C"/>
<path d="M17 35C17.5523 35 18 34.5523 18 34C18 33.4477 17.5523 33 17 33C16.4477 33 16 33.4477 16 34C16 34.5523 16.4477 35 17 35Z" fill="#2A3C4C"/>
<path d="M20 35C20.5523 35 21 34.5523 21 34C21 33.4477 20.5523 33 20 33C19.4477 33 19 33.4477 19 34C19 34.5523 19.4477 35 20 35Z" fill="#2A3C4C"/>
<path d="M48 39C48.5523 39 49 38.5523 49 38C49 37.4477 48.5523 37 48 37C47.4477 37 47 37.4477 47 38C47 38.5523 47.4477 39 48 39Z" fill="#2A3C4C"/>
<path d="M45 39C45.5523 39 46 38.5523 46 38C46 37.4477 45.5523 37 45 37C44.4477 37 44 37.4477 44 38C44 38.5523 44.4477 39 45 39Z" fill="#2A3C4C"/>
<path d="M52.0625 30H8.9375C8.81438 30 8.69245 30.0235 8.5787 30.0691C8.46494 30.1148 8.36158 30.1818 8.27452 30.2662C8.18745 30.3506 8.1184 30.4508 8.0713 30.5612C8.0242 30.6715 7.99997 30.7897 8 30.9091V45.4545C7.99997 45.5739 8.0242 45.6922 8.0713 45.8025C8.1184 45.9128 8.18745 46.013 8.27452 46.0974C8.36158 46.1819 8.46494 46.2488 8.5787 46.2945C8.69245 46.3402 8.81438 46.3637 8.9375 46.3636H9.875V49.0909C9.87497 49.2103 9.8992 49.3285 9.9463 49.4388C9.9934 49.5492 10.0625 49.6494 10.1495 49.7338C10.2366 49.8182 10.3399 49.8852 10.4537 49.9309C10.5675 49.9765 10.6894 50 10.8125 50H16.4375C16.5606 50 16.6825 49.9765 16.7963 49.9309C16.9101 49.8852 17.0134 49.8182 17.1005 49.7338C17.1875 49.6494 17.2566 49.5492 17.3037 49.4388C17.3508 49.3285 17.375 49.2103 17.375 49.0909V46.3636H43.625V49.0909C43.625 49.2103 43.6492 49.3285 43.6963 49.4388C43.7434 49.5492 43.8125 49.6494 43.8995 49.7338C43.9866 49.8182 44.0899 49.8852 44.2037 49.9309C44.3175 49.9765 44.4394 50 44.5625 50H50.1875C50.3106 50 50.4325 49.9765 50.5463 49.9309C50.6601 49.8852 50.7634 49.8182 50.8505 49.7338C50.9375 49.6494 51.0066 49.5492 51.0537 49.4388C51.1008 49.3285 51.125 49.2103 51.125 49.0909V46.3636H52.0625C52.1856 46.3637 52.3075 46.3402 52.4213 46.2945C52.5351 46.2488 52.6384 46.1819 52.7255 46.0974C52.8125 46.013 52.8816 45.9128 52.9287 45.8025C52.9758 45.6922 53 45.5739 53 45.4545V30.9091C53 30.7897 52.9758 30.6715 52.9287 30.5612C52.8816 30.4508 52.8125 30.3506 52.7255 30.2662C52.6384 30.1818 52.5351 30.1148 52.4213 30.0691C52.3075 30.0235 52.1856 30 52.0625 30ZM15.5 48.1818H11.75V46.3636H15.5V48.1818ZM49.25 48.1818H45.5V46.3636H49.25V48.1818ZM51.125 33.6364H23.9375C23.6889 33.6364 23.4504 33.7321 23.2746 33.9026C23.0988 34.0731 23 34.3043 23 34.5455C23 34.7866 23.0988 35.0178 23.2746 35.1883C23.4504 35.3588 23.6889 35.4545 23.9375 35.4545H51.125V44.5455H9.875V31.8182H51.125V33.6364Z" fill="#2A3C4C"/>
<path d="M52.0625 41H8.9375C8.41973 41 8 41.4477 8 42V46C8 46.5523 8.41973 47 8.9375 47H52.0625C52.5803 47 53 46.5523 53 46V42C53 41.4477 52.5803 41 52.0625 41Z" fill="#1268FB"/>
<path d="M16 9H12C11.4477 9 11 9.41041 11 9.91667V30.0833C11 30.5896 11.4477 31 12 31H16C16.5523 31 17 30.5896 17 30.0833V9.91667C17 9.41041 16.5523 9 16 9Z" fill="#1268FB"/>
<path d="M50 9H46C45.4477 9 45 9.41041 45 9.91667V30.0833C45 30.5896 45.4477 31 46 31H50C50.5523 31 51 30.5896 51 30.0833V9.91667C51 9.41041 50.5523 9 50 9Z" fill="#1268FB"/>
<path d="M31 28C32.6569 28 34 26.6569 34 25C34 23.3431 32.6569 22 31 22C29.3431 22 28 23.3431 28 25C28 26.6569 29.3431 28 31 28Z" fill="#1268FB"/>
<path d="M34.0996 21C33.8782 21.0002 33.6645 20.923 33.4998 20.7832C32.664 20.1075 31.6001 19.7361 30.5 19.7361C29.3999 19.7361 28.336 20.1075 27.5002 20.7832C27.3223 20.9337 27.0885 21.0112 26.8502 20.9987C26.6119 20.9862 26.3886 20.8849 26.2294 20.7168C26.0702 20.5488 25.9882 20.3279 26.0014 20.1027C26.0146 19.8776 26.1219 19.6666 26.2997 19.5162C27.4547 18.5398 28.9502 18 30.5 18C32.0498 18 33.5452 18.5398 34.7003 19.5162C34.8361 19.631 34.9318 19.7821 34.9747 19.9495C35.0176 20.1169 35.0057 20.2926 34.9406 20.4535C34.8755 20.6143 34.7602 20.7527 34.61 20.8503C34.4599 20.9479 34.2819 21.0001 34.0996 21V21Z" fill="#2A3C4C"/>
<path d="M36.0707 18.9998C35.8699 18.9999 35.6745 18.9296 35.514 18.7996C34.0675 17.6314 32.3082 16.9999 30.5001 16.9999C28.6921 16.9999 26.9328 17.6314 25.4863 18.7996C25.2894 18.9589 25.0417 19.0274 24.7979 18.99C24.554 18.9527 24.334 18.8125 24.1861 18.6004C24.0382 18.3883 23.9746 18.1216 24.0093 17.859C24.0439 17.5964 24.1741 17.3594 24.371 17.2001C26.1393 15.772 28.2899 15 30.5001 15C32.7104 15 34.861 15.772 36.6293 17.2001C36.7851 17.3262 36.9001 17.5019 36.958 17.7023C37.0159 17.9027 37.0139 18.1176 36.9521 18.3167C36.8903 18.5158 36.772 18.6888 36.6138 18.8114C36.4556 18.934 36.2656 18.9999 36.0707 18.9998Z" fill="#2A3C4C"/>
<path d="M38.0543 14.9998C37.8614 14.9997 37.6731 14.9441 37.5148 14.8404C35.4561 13.495 33.0081 12.7738 30.4999 12.7738C27.9918 12.7738 25.5438 13.495 23.4851 14.8404C23.2796 14.9751 23.0256 15.0275 22.779 14.9863C22.5323 14.945 22.3132 14.8134 22.1699 14.6205C22.0266 14.4275 21.9707 14.189 22.0146 13.9573C22.0586 13.7257 22.1987 13.5199 22.4042 13.3853C24.78 11.8324 27.6053 11 30.4999 11C33.3946 11 36.2198 11.8324 38.5957 13.3853C38.7607 13.4934 38.8846 13.648 38.9495 13.8268C39.0144 14.0056 39.0168 14.1991 38.9564 14.3793C38.896 14.5595 38.7759 14.7168 38.6136 14.8284C38.4514 14.94 38.2554 15.0001 38.0543 14.9998Z" fill="#2A3C4C"/>
<path d="M13 35C13.5523 35 14 34.5523 14 34C14 33.4477 13.5523 33 13 33C12.4477 33 12 33.4477 12 34C12 34.5523 12.4477 35 13 35Z" fill="#2A3C4C"/>
<path d="M17 35C17.5523 35 18 34.5523 18 34C18 33.4477 17.5523 33 17 33C16.4477 33 16 33.4477 16 34C16 34.5523 16.4477 35 17 35Z" fill="#2A3C4C"/>
<path d="M20 35C20.5523 35 21 34.5523 21 34C21 33.4477 20.5523 33 20 33C19.4477 33 19 33.4477 19 34C19 34.5523 19.4477 35 20 35Z" fill="#2A3C4C"/>
<path d="M48 39C48.5523 39 49 38.5523 49 38C49 37.4477 48.5523 37 48 37C47.4477 37 47 37.4477 47 38C47 38.5523 47.4477 39 48 39Z" fill="#2A3C4C"/>
<path d="M45 39C45.5523 39 46 38.5523 46 38C46 37.4477 45.5523 37 45 37C44.4477 37 44 37.4477 44 38C44 38.5523 44.4477 39 45 39Z" fill="#2A3C4C"/>
<path d="M52.0625 30H8.9375C8.81438 30 8.69245 30.0235 8.5787 30.0691C8.46494 30.1148 8.36158 30.1818 8.27452 30.2662C8.18745 30.3506 8.1184 30.4508 8.0713 30.5612C8.0242 30.6715 7.99997 30.7897 8 30.9091V45.4545C7.99997 45.5739 8.0242 45.6922 8.0713 45.8025C8.1184 45.9128 8.18745 46.013 8.27452 46.0974C8.36158 46.1819 8.46494 46.2488 8.5787 46.2945C8.69245 46.3402 8.81438 46.3637 8.9375 46.3636H9.875V49.0909C9.87497 49.2103 9.8992 49.3285 9.9463 49.4388C9.9934 49.5492 10.0625 49.6494 10.1495 49.7338C10.2366 49.8182 10.3399 49.8852 10.4537 49.9309C10.5675 49.9765 10.6894 50 10.8125 50H16.4375C16.5606 50 16.6825 49.9765 16.7963 49.9309C16.9101 49.8852 17.0134 49.8182 17.1005 49.7338C17.1875 49.6494 17.2566 49.5492 17.3037 49.4388C17.3508 49.3285 17.375 49.2103 17.375 49.0909V46.3636H43.625V49.0909C43.625 49.2103 43.6492 49.3285 43.6963 49.4388C43.7434 49.5492 43.8125 49.6494 43.8995 49.7338C43.9866 49.8182 44.0899 49.8852 44.2037 49.9309C44.3175 49.9765 44.4394 50 44.5625 50H50.1875C50.3106 50 50.4325 49.9765 50.5463 49.9309C50.6601 49.8852 50.7634 49.8182 50.8505 49.7338C50.9375 49.6494 51.0066 49.5492 51.0537 49.4388C51.1008 49.3285 51.125 49.2103 51.125 49.0909V46.3636H52.0625C52.1856 46.3637 52.3075 46.3402 52.4213 46.2945C52.5351 46.2488 52.6384 46.1819 52.7255 46.0974C52.8125 46.013 52.8816 45.9128 52.9287 45.8025C52.9758 45.6922 53 45.5739 53 45.4545V30.9091C53 30.7897 52.9758 30.6715 52.9287 30.5612C52.8816 30.4508 52.8125 30.3506 52.7255 30.2662C52.6384 30.1818 52.5351 30.1148 52.4213 30.0691C52.3075 30.0235 52.1856 30 52.0625 30V30ZM15.5 48.1818H11.75V46.3636H15.5V48.1818ZM49.25 48.1818H45.5V46.3636H49.25V48.1818ZM51.125 33.6364H23.9375C23.6889 33.6364 23.4504 33.7321 23.2746 33.9026C23.0988 34.0731 23 34.3043 23 34.5455C23 34.7866 23.0988 35.0178 23.2746 35.1883C23.4504 35.3588 23.6889 35.4545 23.9375 35.4545H51.125V44.5455H9.875V31.8182H51.125V33.6364Z" fill="#2A3C4C"/>
<path d="M52.0625 41H8.9375C8.41973 41 8 41.4477 8 42V46C8 46.5523 8.41973 47 8.9375 47H52.0625C52.5803 47 53 46.5523 53 46V42C53 41.4477 52.5803 41 52.0625 41Z" fill="#1268FB"/>
</svg>
