<svg width="80" height="80" viewBox="0 0 80 80" fill="none" xmlns="http://www.w3.org/2000/svg">
<path d="M52.5002 53.75H27.5002C26.8099 53.75 26.2502 54.3096 26.2502 55V60C26.2502 60.6904 26.8099 61.25 27.5002 61.25H52.5002C53.1906 61.25 53.7502 60.6904 53.7502 60V55C53.7502 54.3096 53.1906 53.75 52.5002 53.75Z" fill="#5292FF"/>
<path d="M69.5967 30.1697C69.8611 28.8798 69.9963 27.5667 70.0001 26.25C70.0033 21.9902 68.6453 17.8407 66.1241 14.407C63.6029 10.9734 60.0505 8.43511 55.9852 7.16256C51.9198 5.89001 47.5542 5.94976 43.5252 7.33309C39.4962 8.71641 36.0146 11.3509 33.5884 14.8523C31.8746 14.0315 29.9806 13.6587 28.0836 13.7689C26.1866 13.8791 24.3485 14.4686 22.7413 15.4824C21.1341 16.4961 19.8103 17.901 18.8937 19.5655C17.977 21.23 17.4976 23.0998 17.5001 25C17.5006 25.4927 17.5348 25.9848 17.6026 26.4728C14.2172 27.0708 11.1789 28.916 9.08705 31.6441C6.99522 34.3723 6.00181 37.7853 6.30281 41.21C6.60381 44.6346 8.17737 47.822 10.713 50.1435C13.2487 52.4649 16.5623 53.7517 20.0001 53.75H22.5001V42.5H57.5001V53.75H60.0001C62.7338 53.7524 65.406 52.9392 67.6749 51.4144C69.9438 49.8896 71.7062 47.7226 72.7367 45.1905C73.7672 42.6585 74.0188 39.8767 73.4594 37.2008C72.9001 34.525 71.5551 32.0769 69.5967 30.1697Z" fill="#5292FF"/>
<path d="M66.0574 25.0007C65.7591 25.0004 65.4707 24.8934 65.2444 24.6991C65.0181 24.5048 64.8687 24.236 64.8232 23.9412C64.4578 21.6176 63.5527 19.4121 62.1807 17.5016C60.8087 15.5911 59.0079 14.0288 56.9229 12.9402C56.7773 12.8644 56.6481 12.7606 56.5427 12.6349C56.4372 12.5091 56.3575 12.3638 56.3082 12.2073C56.2589 12.0507 56.2409 11.886 56.2553 11.7225C56.2696 11.559 56.316 11.4 56.3919 11.2544C56.4677 11.1089 56.5714 10.9797 56.6972 10.8742C56.8229 10.7687 56.9682 10.6891 57.1248 10.6398C57.2813 10.5905 57.446 10.5725 57.6095 10.5868C57.773 10.6012 57.9321 10.6476 58.0776 10.7234C60.5103 11.9938 62.6112 13.8169 64.2118 16.0463C65.8123 18.2756 66.868 20.8492 67.2939 23.5603C67.3189 23.7225 67.3117 23.8881 67.2727 24.0476C67.2338 24.207 67.1638 24.3572 67.0667 24.4896C66.9697 24.622 66.8475 24.734 66.7072 24.8192C66.5669 24.9044 66.4112 24.9611 66.249 24.9861C66.1855 24.9958 66.1215 25.0007 66.0574 25.0007Z" fill="white"/>
<path d="M57.5002 41.25H22.5002C22.3361 41.2499 22.1735 41.2822 22.0218 41.345C21.8701 41.4077 21.7322 41.4998 21.6162 41.6159C21.5001 41.732 21.408 41.8698 21.3452 42.0215C21.2824 42.1732 21.2502 42.3358 21.2502 42.5V55C21.2502 55.1642 21.2824 55.3268 21.3452 55.4785C21.408 55.6302 21.5001 55.768 21.6162 55.8841C21.7322 56.0002 21.8701 56.0923 22.0218 56.155C22.1735 56.2178 22.3361 56.2501 22.5002 56.25H57.5002C57.6644 56.2501 57.827 56.2178 57.9787 56.155C58.1304 56.0923 58.2682 56.0002 58.3843 55.8841C58.5004 55.768 58.5925 55.6302 58.6553 55.4785C58.7181 55.3268 58.7503 55.1642 58.7502 55V42.5C58.7503 42.3358 58.7181 42.1732 58.6553 42.0215C58.5925 41.8698 58.5004 41.732 58.3843 41.6159C58.2682 41.4998 58.1304 41.4077 57.9787 41.345C57.827 41.2822 57.6644 41.2499 57.5002 41.25ZM56.2502 53.75H23.7502V51.25H37.5002C37.8318 51.25 38.1497 51.1183 38.3841 50.8839C38.6185 50.6495 38.7502 50.3315 38.7502 50C38.7502 49.6685 38.6185 49.3505 38.3841 49.1161C38.1497 48.8817 37.8318 48.75 37.5002 48.75H23.7502V43.75H56.2502V53.75Z" fill="white"/>
<path d="M52.5002 48.75C53.1906 48.75 53.7502 48.1904 53.7502 47.5C53.7502 46.8096 53.1906 46.25 52.5002 46.25C51.8099 46.25 51.2502 46.8096 51.2502 47.5C51.2502 48.1904 51.8099 48.75 52.5002 48.75Z" fill="white"/>
<path d="M47.5002 48.75C48.1906 48.75 48.7502 48.1904 48.7502 47.5C48.7502 46.8096 48.1906 46.25 47.5002 46.25C46.8099 46.25 46.2502 46.8096 46.2502 47.5C46.2502 48.1904 46.8099 48.75 47.5002 48.75Z" fill="white"/>
<path d="M42.5002 48.75C43.1906 48.75 43.7502 48.1904 43.7502 47.5C43.7502 46.8096 43.1906 46.25 42.5002 46.25C41.8099 46.25 41.2502 46.8096 41.2502 47.5C41.2502 48.1904 41.8099 48.75 42.5002 48.75Z" fill="white"/>
<path d="M52.5002 66.25C53.1906 66.25 53.7502 65.6904 53.7502 65C53.7502 64.3096 53.1906 63.75 52.5002 63.75C51.8099 63.75 51.2502 64.3096 51.2502 65C51.2502 65.6904 51.8099 66.25 52.5002 66.25Z" fill="white"/>
<path d="M47.5002 66.25C48.1906 66.25 48.7502 65.6904 48.7502 65C48.7502 64.3096 48.1906 63.75 47.5002 63.75C46.8099 63.75 46.2502 64.3096 46.2502 65C46.2502 65.6904 46.8099 66.25 47.5002 66.25Z" fill="white"/>
<path d="M42.5002 66.25C43.1906 66.25 43.7502 65.6904 43.7502 65C43.7502 64.3096 43.1906 63.75 42.5002 63.75C41.8099 63.75 41.2502 64.3096 41.2502 65C41.2502 65.6904 41.8099 66.25 42.5002 66.25Z" fill="white"/>
<path d="M57.5002 58.75H22.5002C22.3361 58.7499 22.1735 58.7822 22.0218 58.845C21.8701 58.9077 21.7322 58.9998 21.6162 59.1159C21.5001 59.232 21.408 59.3698 21.3452 59.5215C21.2824 59.6732 21.2502 59.8358 21.2502 60V72.5C21.2502 72.6642 21.2824 72.8268 21.3452 72.9785C21.408 73.1302 21.5001 73.268 21.6162 73.3841C21.7322 73.5002 21.8701 73.5923 22.0218 73.655C22.1735 73.7178 22.3361 73.7501 22.5002 73.75H57.5002C57.6644 73.7501 57.827 73.7178 57.9787 73.655C58.1304 73.5923 58.2682 73.5002 58.3843 73.3841C58.5004 73.268 58.5925 73.1302 58.6553 72.9785C58.7181 72.8268 58.7503 72.6642 58.7502 72.5V60C58.7503 59.8358 58.7181 59.6732 58.6553 59.5215C58.5925 59.3698 58.5004 59.232 58.3843 59.1159C58.2682 58.9998 58.1304 58.9077 57.9787 58.845C57.827 58.7822 57.6644 58.7499 57.5002 58.75ZM56.2502 71.25H23.7502V68.75H37.5002C37.8318 68.75 38.1497 68.6183 38.3841 68.3839C38.6185 68.1495 38.7502 67.8315 38.7502 67.5C38.7502 67.1685 38.6185 66.8505 38.3841 66.6161C38.1497 66.3817 37.8318 66.25 37.5002 66.25H23.7502V61.25H56.2502V71.25Z" fill="white"/>
</svg>
