<svg width="146" height="97" viewBox="0 0 146 97" fill="none" xmlns="http://www.w3.org/2000/svg">
<path d="M0.644727 48.38C0.644727 48.1562 0.645227 47.9328 0.646235 47.7099L-0.353755 47.7054C-0.354769 47.9298 -0.355273 48.1547 -0.355273 48.38H0.644727ZM0.658421 46.3777C0.664606 45.9312 0.672914 45.4867 0.6834 45.0441L-0.316319 45.0204C-0.326885 45.4663 -0.335254 45.9142 -0.341484 46.3639L0.658421 46.3777ZM0.72171 43.7145C0.73691 43.2677 0.754428 42.8231 0.774321 42.3807L-0.22467 42.3358C-0.24473 42.7819 -0.26239 43.2302 -0.277712 43.6805L0.72171 43.7145ZM0.841467 41.055C0.866689 40.6081 0.894444 40.1636 0.924794 39.7215L-0.0728579 39.653C-0.103492 40.0992 -0.131499 40.5478 -0.156944 40.9986L0.841467 41.055ZM1.02409 38.3977C1.0604 37.9521 1.09947 37.5092 1.14136 37.0689L0.145854 36.9742C0.103524 37.4191 0.0640602 37.8665 0.0273943 38.3165L1.02409 38.3977ZM1.27664 35.7465C1.3252 35.3034 1.37676 34.8632 1.43139 34.426L0.439105 34.302C0.383836 34.7444 0.33169 35.1896 0.282594 35.6376L1.27664 35.7465ZM1.60696 33.1063C1.66909 32.6666 1.73448 32.2301 1.8032 31.7969L0.815549 31.6402C0.745919 32.0792 0.679695 32.5212 0.616797 32.9664L1.60696 33.1063ZM2.02396 30.4817C2.10161 30.0437 2.18286 29.6092 2.26779 29.1784L1.28666 28.985C1.20048 29.4222 1.11805 29.863 1.03931 30.3071L2.02396 30.4817ZM2.53761 27.8788C2.63275 27.4431 2.73187 27.0115 2.83504 26.5839L1.86294 26.3493C1.75803 26.7841 1.65729 27.2229 1.56063 27.6654L2.53761 27.8788ZM3.1597 25.3026C3.27426 24.8716 3.3932 24.445 3.5166 24.023L2.55679 23.7423C2.43103 24.1724 2.30988 24.6069 2.19325 25.0457L3.1597 25.3026ZM3.90485 22.7564C4.04024 22.3348 4.18037 21.9181 4.32535 21.5063L3.38212 21.1742C3.23398 21.5949 3.09089 22.0204 2.95274 22.4507L3.90485 22.7564ZM4.78446 20.2615C4.94427 19.8475 5.10932 19.4391 5.27973 19.0362L4.35873 18.6466C4.1841 19.0595 4.01509 19.4778 3.85156 19.9013L4.78446 20.2615ZM5.8129 17.8319C5.99943 17.4292 6.19172 17.0326 6.3899 16.6422L5.4982 16.1895C5.29448 16.5909 5.09696 16.9983 4.90552 17.4116L5.8129 17.8319ZM7.00895 15.4775C7.22343 15.092 7.44415 14.7132 7.67123 14.341L6.81761 13.8201C6.5834 14.2039 6.35595 14.5944 6.1351 14.9913L7.00895 15.4775ZM8.38025 13.2322C8.62562 12.8659 8.87778 12.5069 9.13683 12.1551L8.33166 11.5621C8.06363 11.926 7.80294 12.2972 7.54946 12.6756L8.38025 13.2322ZM9.93995 11.1158C10.2162 10.7751 10.4997 10.442 10.7906 10.1167L10.0451 9.45016C9.74337 9.78762 9.44945 10.133 9.1632 10.486L9.93995 11.1158ZM11.6896 9.16C11.997 8.84891 12.312 8.54583 12.6348 8.25095L11.9602 7.51271C11.6248 7.81919 11.2975 8.13407 10.9783 8.45715L11.6896 9.16ZM13.6251 7.39201C13.9622 7.11467 14.3071 6.84559 14.66 6.58492L14.066 5.78051C13.6989 6.05159 13.3402 6.33142 12.9897 6.61979L13.6251 7.39201ZM15.7333 5.83481C16.0958 5.5953 16.4662 5.36405 16.8447 5.1412L16.3373 4.27948C15.944 4.51107 15.5589 4.75146 15.182 5.0005L15.7333 5.83481ZM17.9929 4.50412C18.378 4.30307 18.7709 4.11016 19.1719 3.92556L18.7537 3.0172C18.3378 3.20868 17.9299 3.40889 17.5301 3.61766L17.9929 4.50412ZM20.3743 3.40677C20.7769 3.24435 21.1871 3.08981 21.6051 2.94331L21.2743 1.9996C20.8419 2.15116 20.4172 2.31114 20.0002 2.4794L20.3743 3.40677ZM22.8589 2.53507C23.2724 2.41046 23.6931 2.29329 24.1211 2.18369L23.873 1.21495C23.4317 1.32797 22.9975 1.4489 22.5704 1.57761L22.8589 2.53507ZM25.406 1.88224C25.8309 1.79143 26.2626 1.70773 26.7013 1.63124L26.5295 0.646103C26.0786 0.724726 25.6345 0.810829 25.197 0.904322L25.406 1.88224ZM28.0001 1.42879C28.4338 1.369 28.874 1.31596 29.3207 1.26976L29.2179 0.275066C28.7601 0.322403 28.3086 0.376795 27.8635 0.438158L28.0001 1.42879ZM30.6272 1.15564C31.0628 1.12442 31.5043 1.09945 31.9519 1.08081L31.9103 0.0816803C31.4529 0.100721 31.0014 0.126253 30.5557 0.158197L30.6272 1.15564ZM33.2718 1.04455C33.4947 1.04152 33.719 1.04 33.9447 1.04V0.0399952C33.7145 0.0399952 33.4857 0.0415459 33.2582 0.0446434L33.2718 1.04455ZM33.9447 1.04C34.1705 1.04 34.3947 1.04152 34.6176 1.04455L34.6312 0.0446434C34.4038 0.0415459 34.175 0.0399952 33.9447 0.0399952V1.04ZM35.9375 1.08081C36.3851 1.09945 36.8267 1.12442 37.2622 1.15564L37.3337 0.158197C36.888 0.126251 36.4365 0.100721 35.9791 0.0816784L35.9375 1.08081ZM38.5687 1.26976C39.0155 1.31595 39.4557 1.369 39.8894 1.42879L40.0259 0.438154C39.5808 0.376793 39.1294 0.322401 38.6716 0.275064L38.5687 1.26976ZM41.1882 1.63124C41.6268 1.70772 42.0586 1.79143 42.4834 1.88223L42.6924 0.904318C42.255 0.810825 41.8109 0.724722 41.3599 0.646101L41.1882 1.63124ZM43.7683 2.18368C44.1963 2.29328 44.617 2.41046 45.0305 2.53507L45.3191 1.5776C44.892 1.44889 44.4578 1.32797 44.0164 1.21494L43.7683 2.18368ZM46.2844 2.9433C46.7024 3.08981 47.1126 3.24435 47.5151 3.40677L47.8893 2.4794C47.4722 2.31113 47.0476 2.15116 46.6152 1.9996L46.2844 2.9433ZM48.7176 3.92556C49.1185 4.11015 49.5115 4.30306 49.8966 4.50411L50.3594 3.61766C49.9595 3.40888 49.5517 3.20868 49.1358 3.0172L48.7176 3.92556ZM51.0448 5.1412C51.4233 5.36404 51.7937 5.5953 52.1561 5.83481L52.7074 5.00049C52.3305 4.75146 51.9455 4.51106 51.5522 4.27948L51.0448 5.1412ZM53.2294 6.58492C53.5824 6.84558 53.9273 7.11466 54.2644 7.392L54.8997 6.61978C54.5492 6.33141 54.1905 6.05159 53.8235 5.78051L53.2294 6.58492ZM55.2547 8.25094C55.5774 8.54583 55.8924 8.8489 56.1998 9.15999L56.9111 8.45713C56.5919 8.13406 56.2647 7.81919 55.9292 7.51271L55.2547 8.25094ZM57.0989 10.1167C57.3897 10.442 57.6732 10.7751 57.9495 11.1158L58.7262 10.486C58.44 10.133 58.1461 9.78761 57.8444 9.45015L57.0989 10.1167ZM58.7526 12.1551C59.0117 12.5069 59.2638 12.8659 59.5092 13.2322L60.34 12.6756C60.0865 12.2972 59.8258 11.926 59.5578 11.5621L58.7526 12.1551ZM60.2182 14.341C60.4453 14.7131 60.666 15.092 60.8805 15.4775L61.7543 14.9913C61.5335 14.5944 61.3061 14.2039 61.0718 13.8201L60.2182 14.341ZM61.4995 16.6422C61.6977 17.0326 61.89 17.4292 62.0766 17.8319L62.9839 17.4116C62.7925 16.9983 62.595 16.5909 62.3913 16.1895L61.4995 16.6422ZM62.6097 19.0361C62.7801 19.439 62.9452 19.8475 63.105 20.2615L64.0379 19.9013C63.8744 19.4778 63.7054 19.0595 63.5307 18.6466L62.6097 19.0361ZM63.5641 21.5063C63.7091 21.918 63.8492 22.3348 63.9846 22.7564L64.9367 22.4507C64.7986 22.0204 64.6555 21.5949 64.5073 21.1742L63.5641 21.5063ZM64.3729 24.0229C64.4963 24.445 64.6152 24.8715 64.7298 25.3026L65.6962 25.0457C65.5796 24.6069 65.4584 24.1724 65.3327 23.7423L64.3729 24.0229ZM65.0544 26.5838C65.1576 27.0114 65.2567 27.4431 65.3519 27.8788L66.3288 27.6654C66.2322 27.2228 66.1314 26.7841 66.0265 26.3493L65.0544 26.5838ZM65.6217 29.1783C65.7066 29.6092 65.7878 30.0437 65.8655 30.4817L66.8501 30.3071C66.7714 29.863 66.689 29.4222 66.6028 28.985L65.6217 29.1783ZM66.0863 31.7969C66.155 32.2301 66.2204 32.6666 66.2825 33.1063L67.2727 32.9664C67.2098 32.5212 67.1435 32.0791 67.0739 31.6402L66.0863 31.7969ZM66.4581 34.426C66.5127 34.8632 66.5643 35.3034 66.6128 35.7465L67.6069 35.6375C67.5578 35.1896 67.5056 34.7444 67.4504 34.302L66.4581 34.426ZM66.7481 37.0689C66.79 37.5092 66.8291 37.9521 66.8654 38.3977L67.8621 38.3164C67.8254 37.8665 67.7859 37.419 67.7436 36.9742L66.7481 37.0689ZM66.9647 39.7215C66.995 40.1636 67.0228 40.6081 67.048 41.055L68.0464 40.9986C68.021 40.5478 67.993 40.0992 67.9623 39.653L66.9647 39.7215ZM67.1151 42.3807C67.135 42.8231 67.1525 43.2677 67.1677 43.7144L68.1672 43.6804C68.1518 43.2302 68.1342 42.7819 68.1141 42.3357L67.1151 42.3807ZM67.2061 45.044C67.2165 45.4866 67.2249 45.9312 67.231 46.3777L68.2309 46.3638C68.2247 45.9142 68.2163 45.4663 68.2058 45.0204L67.2061 45.044ZM67.2432 47.7098C67.2442 47.9328 67.2447 48.1562 67.2447 48.38H68.2447C68.2447 48.1547 68.2442 47.9298 68.2432 47.7053L67.2432 47.7098ZM67.2447 48.38C67.2447 48.6056 67.2442 48.8307 67.2433 49.0554L68.2432 49.0597C68.2442 48.8336 68.2447 48.607 68.2447 48.38H67.2447ZM67.2313 50.3975C67.2253 50.8474 67.2172 51.2952 67.2069 51.741L68.2067 51.764C68.217 51.3149 68.2252 50.8639 68.2313 50.411L67.2313 50.3975ZM67.1694 53.0808C67.1546 53.5309 67.1374 53.9787 67.118 54.4243L68.117 54.468C68.1366 54.0188 68.1539 53.5674 68.1689 53.1138L67.1694 53.0808ZM67.0522 55.7605C67.0275 56.2107 67.0003 56.6585 66.9706 57.1037L67.9684 57.1703C67.9984 56.721 68.0258 56.2693 68.0507 55.8153L67.0522 55.7605ZM66.8734 58.4366C66.8378 58.8861 66.7994 59.3329 66.7583 59.7769L67.7541 59.8691C67.7956 59.4205 67.8343 58.9694 67.8703 58.5156L66.8734 58.4366ZM66.6257 61.1085C66.5781 61.5556 66.5274 61.9997 66.4737 62.4407L67.4664 62.5615C67.5207 62.1154 67.5719 61.6664 67.6201 61.2145L66.6257 61.1085ZM66.3015 63.7699C66.2404 64.2137 66.1761 64.6542 66.1085 65.0914L67.0968 65.2442C67.1653 64.8014 67.2304 64.3554 67.2922 63.9063L66.3015 63.7699ZM65.8918 66.4164C65.8155 66.8577 65.7357 67.2953 65.6523 67.7292L66.6343 67.9179C66.7189 67.4778 66.7999 67.034 66.8772 66.5867L65.8918 66.4164ZM65.3864 69.042C65.2929 69.4811 65.1954 69.9161 65.0939 70.347L66.0673 70.5762C66.1704 70.1382 66.2695 69.6963 66.3645 69.2504L65.3864 69.042ZM64.7744 71.6391C64.6613 72.0747 64.544 72.5057 64.4222 72.9321L65.3837 73.2068C65.5078 72.7724 65.6273 72.3335 65.7423 71.8903L64.7744 71.6391ZM64.0397 74.2094C63.9059 74.6359 63.7674 75.0574 63.6241 75.4737L64.5697 75.7992C64.716 75.3739 64.8574 74.9437 64.9939 74.5088L64.0397 74.2094ZM63.1709 76.7306C63.0131 77.1486 62.8501 77.5611 62.6818 77.9678L63.6059 78.3501C63.7783 77.9334 63.9451 77.5113 64.1065 77.0838L63.1709 76.7306ZM62.1541 79.1863C61.9693 79.5938 61.7789 79.9952 61.5826 80.3902L62.4781 80.8352C62.6798 80.4293 62.8753 80.0172 63.0648 79.5992L62.1541 79.1863ZM60.9695 81.5681C60.7569 81.9583 60.5381 82.3418 60.3129 82.7184L61.1713 83.2315C61.4034 82.8432 61.6288 82.4482 61.8476 82.0466L60.9695 81.5681ZM59.6078 83.8436C59.364 84.2148 59.1135 84.5787 58.856 84.9352L59.6667 85.5207C59.933 85.152 60.1919 84.7759 60.4437 84.3926L59.6078 83.8436ZM58.0569 85.9894C57.7817 86.3354 57.4991 86.6737 57.2092 87.004L57.9608 87.6636C58.2615 87.321 58.5544 86.9704 58.8395 86.6119L58.0569 85.9894ZM56.3122 87.9761C56.0053 88.2923 55.6907 88.6004 55.3683 88.9001L56.0493 89.6325C56.3843 89.321 56.7111 89.0009 57.0298 88.6725L56.3122 87.9761ZM54.378 89.7739C54.0409 90.056 53.6958 90.3297 53.3426 90.5947L53.9429 91.3945C54.3103 91.1188 54.6691 90.8342 55.0197 90.5408L54.378 89.7739ZM52.2672 91.3585C51.9036 91.6025 51.532 91.8381 51.1522 92.065L51.6652 92.9234C52.06 92.6875 52.4464 92.4426 52.8244 92.1888L52.2672 91.3585ZM49.9992 92.7142C49.613 92.9188 49.2188 93.115 48.8165 93.3028L49.2394 94.2089C49.6568 94.0141 50.066 93.8104 50.4672 93.598L49.9992 92.7142ZM47.6073 93.8315C47.2023 93.9971 46.7895 94.1546 46.3689 94.3038L46.7033 95.2463C47.1385 95.0918 47.566 94.9287 47.9856 94.7572L47.6073 93.8315ZM45.1091 94.719C44.6928 94.846 44.2691 94.9653 43.838 95.077L44.0887 96.045C44.5334 95.9299 44.9707 95.8067 45.4009 95.6755L45.1091 94.719ZM42.5438 95.3839C42.1165 95.4762 41.6822 95.5613 41.241 95.639L41.4144 96.6238C41.8681 96.5439 42.3149 96.4564 42.7549 96.3614L42.5438 95.3839ZM39.9322 95.845C39.4953 95.9058 39.0518 95.9597 38.6017 96.0067L38.7054 97.0013C39.1668 96.9532 39.6216 96.8979 40.0701 96.8355L39.9322 95.845ZM37.2865 96.1226C36.8477 96.1543 36.4029 96.1796 35.9519 96.1986L35.9938 97.1977C36.4547 97.1784 36.9096 97.1524 37.3586 97.12L37.2865 96.1226ZM34.6225 96.2354C34.3981 96.2385 34.1721 96.24 33.9447 96.24V97.24C34.1767 97.24 34.4072 97.2384 34.6362 97.2353L34.6225 96.2354ZM33.9447 96.24C33.7173 96.24 33.4914 96.2385 33.267 96.2354L33.2533 97.2353C33.4823 97.2384 33.7128 97.24 33.9447 97.24V96.24ZM31.9376 96.1986C31.4866 96.1796 31.0418 96.1543 30.603 96.1226L30.5309 97.12C30.9799 97.1524 31.4348 97.1784 31.8957 97.1977L31.9376 96.1986ZM29.2878 96.0067C28.8376 95.9597 28.3942 95.9058 27.9572 95.845L27.8194 96.8355C28.2679 96.8979 28.7227 96.9532 29.1841 97.0013L29.2878 96.0067ZM26.6485 95.639C26.2072 95.5613 25.773 95.4762 25.3457 95.3839L25.1346 96.3614C25.5746 96.4564 26.0214 96.5439 26.4751 96.6238L26.6485 95.639ZM24.0515 95.077C23.6204 94.9653 23.1967 94.846 22.7803 94.719L22.4886 95.6755C22.9188 95.8067 23.3561 95.9299 23.8008 96.045L24.0515 95.077ZM21.5206 94.3038C21.1 94.1546 20.6872 93.9971 20.2822 93.8316L19.9038 94.7572C20.3235 94.9287 20.7509 95.0918 21.1862 95.2463L21.5206 94.3038ZM19.073 93.3028C18.6707 93.115 18.2765 92.9188 17.8903 92.7142L17.4223 93.598C17.8234 93.8104 18.2326 94.0141 18.65 94.2089L19.073 93.3028ZM16.7372 92.0651C16.3575 91.8381 15.9859 91.6025 15.6223 91.3585L15.065 92.1888C15.4431 92.4426 15.8295 92.6875 16.2242 92.9234L16.7372 92.0651ZM14.5468 90.5948C14.1937 90.3297 13.8486 90.056 13.5115 89.7739L12.8697 90.5408C13.2203 90.8342 13.5792 91.1188 13.9465 91.3945L14.5468 90.5948ZM12.5211 88.9001C12.1988 88.6004 11.8842 88.2923 11.5773 87.9761L10.8597 88.6725C11.1784 89.0009 11.5052 89.321 11.8402 89.6325L12.5211 88.9001ZM10.6802 87.004C10.3903 86.6737 10.1078 86.3354 9.83252 85.9894L9.04994 86.6119C9.3351 86.9704 9.62795 87.321 9.92865 87.6636L10.6802 87.004ZM9.03345 84.9352C8.77599 84.5787 8.52543 84.2148 8.28163 83.8436L7.44577 84.3926C7.69754 84.7759 7.9565 85.152 8.22281 85.5207L9.03345 84.9352ZM7.57652 82.7184C7.35137 82.3418 7.13256 81.9583 6.91996 81.5682L6.04186 82.0466C6.26068 82.4482 6.48608 82.8432 6.7182 83.2315L7.57652 82.7184ZM6.3069 80.3902C6.11059 79.9952 5.92013 79.5938 5.73541 79.1863L4.82461 79.5992C5.01411 80.0172 5.20966 80.4293 5.41138 80.8352L6.3069 80.3902ZM5.20763 77.9678C5.03934 77.5611 4.87636 77.1486 4.71857 76.7306L3.78301 77.0838C3.94439 77.5113 4.11121 77.9335 4.28358 78.3501L5.20763 77.9678ZM4.26536 75.4737C4.12205 75.0574 3.98355 74.6359 3.84976 74.2094L2.89561 74.5088C3.03208 74.9438 3.17344 75.3739 3.31981 75.7992L4.26536 75.4737ZM3.46727 72.9322C3.34549 72.5058 3.22813 72.0747 3.1151 71.6391L2.14716 71.8903C2.26217 72.3335 2.38166 72.7724 2.50572 73.2068L3.46727 72.9322ZM2.79552 70.347C2.69406 69.9161 2.59659 69.4811 2.50303 69.042L1.52499 69.2504C1.62 69.6963 1.71902 70.1382 1.82215 70.5762L2.79552 70.347ZM2.23716 67.7292C2.15376 67.2953 2.07397 66.8577 1.99771 66.4164L1.01231 66.5867C1.08962 67.034 1.17053 67.4778 1.25514 67.918L2.23716 67.7292ZM1.78092 65.0914C1.71333 64.6543 1.64903 64.2137 1.58794 63.77L0.597285 63.9063C0.659105 64.3554 0.724204 64.8014 0.792658 65.2442L1.78092 65.0914ZM1.41572 62.4408C1.36205 61.9997 1.31141 61.5556 1.26371 61.1085L0.269354 61.2146C0.317557 61.6665 0.368762 62.1155 0.423038 62.5615L1.41572 62.4408ZM1.13114 59.7769C1.09003 59.3329 1.0517 58.8861 1.01607 58.4366L0.0191994 58.5156C0.0551615 58.9694 0.0938721 59.4206 0.135399 59.8691L1.13114 59.7769ZM0.918858 57.1038C0.889138 56.6585 0.861959 56.2107 0.837261 55.7605L-0.161237 55.8153C-0.136328 56.2694 -0.108911 56.7211 -0.0789218 57.1704L0.918858 57.1038ZM0.771499 54.4244C0.752034 53.9788 0.734895 53.5309 0.720021 53.0808L-0.279433 53.1139C-0.264446 53.5674 -0.24717 54.0188 -0.227549 54.468L0.771499 54.4244ZM0.682538 51.741C0.672286 51.2952 0.664163 50.8474 0.658114 50.3976L-0.341795 50.411C-0.335705 50.864 -0.327525 51.315 -0.317198 51.764L0.682538 51.741ZM0.646201 49.0554C0.645216 48.8307 0.644727 48.6056 0.644727 48.38H-0.355273C-0.355273 48.607 -0.354781 48.8336 -0.353789 49.0598L0.646201 49.0554ZM53.6847 48.38C53.6847 48.1598 53.6844 47.9397 53.6838 47.7197L52.6838 47.7226C52.6844 47.9415 52.6847 48.1607 52.6847 48.38H53.6847ZM53.6759 46.4007C53.6717 45.9601 53.6661 45.5204 53.6587 45.0819L52.6588 45.0988C52.6662 45.5346 52.6718 45.9718 52.6759 46.4101L53.6759 46.4007ZM53.6308 43.761C53.6195 43.3191 53.6062 42.8787 53.5907 42.44L52.5913 42.4753C52.6067 42.9106 52.6199 43.3477 52.6311 43.7865L53.6308 43.761ZM53.5367 41.1193C53.5162 40.6772 53.493 40.2371 53.4671 39.7992L52.4689 39.8583C52.4945 40.2917 52.5174 40.7276 52.5378 41.1658L53.5367 41.1193ZM53.38 38.4802C53.3475 38.0377 53.312 37.5978 53.273 37.1608L52.277 37.2496C52.3154 37.6811 52.3506 38.1157 52.3827 38.5533L53.38 38.4802ZM53.1438 35.841C53.0964 35.3983 53.0452 34.959 52.9898 34.5233L51.9978 34.6494C52.0523 35.0782 52.1027 35.511 52.1495 35.9475L53.1438 35.841ZM52.8081 33.2084C52.7421 32.7669 52.6713 32.3297 52.5955 31.8971L51.6105 32.0696C51.6848 32.4937 51.7542 32.9227 51.8191 33.3564L52.8081 33.2084ZM52.3483 30.5907C52.2588 30.152 52.1636 29.7185 52.0623 29.2907L51.0892 29.5211C51.188 29.9383 51.281 30.3616 51.3685 30.7906L52.3483 30.5907ZM51.7329 27.999C51.614 27.5654 51.4881 27.1384 51.3548 26.7183L50.4016 27.0208C50.5307 27.4277 50.6529 27.842 50.7685 28.2635L51.7329 27.999ZM50.9222 25.4521C50.7665 25.0282 50.6023 24.6123 50.429 24.2051L49.5088 24.5966C49.6752 24.9877 49.8334 25.3879 49.9835 25.7968L50.9222 25.4521ZM49.8685 22.9832C49.6676 22.5767 49.4563 22.1802 49.2341 21.7942L48.3674 22.2932C48.5787 22.66 48.78 23.0378 48.9719 23.4262L49.8685 22.9832ZM48.5197 20.6475C48.2659 20.2708 47.9997 19.9062 47.7206 19.5543L46.9371 20.1757C47.1996 20.5066 47.4505 20.8503 47.6904 21.2063L48.5197 20.6475ZM46.8339 18.527C46.5233 18.1966 46.1988 17.8802 45.8599 17.5787L45.1951 18.3257C45.5113 18.6071 45.8145 18.9027 46.1053 19.2119L46.8339 18.527ZM44.8027 16.7214C44.4397 16.4539 44.0623 16.2017 43.67 15.9654L43.154 16.822C43.5196 17.0422 43.8713 17.2772 44.2095 17.5265L44.8027 16.7214ZM42.473 15.3169C42.0707 15.122 41.6547 14.9423 41.2246 14.7783L40.8683 15.7127C41.2717 15.8665 41.6611 16.0348 42.0369 16.2169L42.473 15.3169ZM39.9384 14.3477C39.5136 14.2241 39.0764 14.1146 38.6266 14.0194L38.4197 14.9978C38.8458 15.0879 39.2588 15.1915 39.6591 15.3079L39.9384 14.3477ZM37.2995 13.786C36.8654 13.7245 36.4205 13.6753 35.9644 13.6387L35.8844 14.6355C36.3209 14.6705 36.7457 14.7175 37.1591 14.7761L37.2995 13.786ZM34.6259 13.5686C34.4014 13.5629 34.1743 13.56 33.9447 13.56V14.56C34.166 14.56 34.3845 14.5628 34.6004 14.5683L34.6259 13.5686ZM33.9447 13.56C33.7151 13.56 33.4881 13.5629 33.2635 13.5686L33.2891 14.5683C33.505 14.5628 33.7235 14.56 33.9447 14.56V13.56ZM31.925 13.6387C31.469 13.6753 31.024 13.7245 30.5899 13.786L30.7303 14.7761C31.1437 14.7175 31.5685 14.6705 32.005 14.6355L31.925 13.6387ZM29.2628 14.0194C28.813 14.1146 28.3759 14.2241 27.9511 14.3477L28.2303 15.3079C28.6307 15.1915 29.0437 15.0879 29.4698 14.9978L29.2628 14.0194ZM26.6649 14.7783C26.2348 14.9423 25.8188 15.122 25.4165 15.3169L25.8525 16.2169C26.2284 16.0348 26.6177 15.8665 27.0211 15.7127L26.6649 14.7783ZM24.2194 15.9654C23.8272 16.2017 23.4498 16.4539 23.0868 16.7214L23.68 17.5265C24.0182 17.2772 24.3698 17.0422 24.7355 16.8219L24.2194 15.9654ZM22.0295 17.5786C21.6906 17.8802 21.3662 18.1966 21.0556 18.527L21.7842 19.2119C22.0749 18.9027 22.3781 18.6071 22.6943 18.3257L22.0295 17.5786ZM20.1689 19.5543C19.8898 19.9061 19.6236 20.2708 19.3697 20.6475L20.199 21.2063C20.439 20.8503 20.6899 20.5066 20.9524 20.1757L20.1689 19.5543ZM18.6554 21.7942C18.4332 22.1802 18.2219 22.5767 18.021 22.9832L18.9175 23.4262C19.1094 23.0378 19.3108 22.66 19.522 22.2932L18.6554 21.7942ZM17.4605 24.2051C17.2872 24.6123 17.1229 25.0282 16.9672 25.4521L17.9059 25.7968C18.0561 25.3879 18.2142 24.9877 18.3806 24.5966L17.4605 24.2051ZM16.5347 26.7183C16.4014 27.1384 16.2755 27.5654 16.1566 27.999L17.121 28.2635C17.2365 27.842 17.3587 27.4277 17.4878 27.0208L16.5347 26.7183ZM15.8271 29.2907C15.7258 29.7185 15.6306 30.152 15.5411 30.5907L16.521 30.7906C16.6085 30.3616 16.7015 29.9383 16.8002 29.5211L15.8271 29.2907ZM15.2939 31.8971C15.2182 32.3297 15.1474 32.7669 15.0813 33.2084L16.0703 33.3564C16.1352 32.9227 16.2047 32.4937 16.2789 32.0696L15.2939 31.8971ZM14.8997 34.5233C14.8443 34.959 14.7931 35.3983 14.7457 35.841L15.74 35.9475C15.7867 35.511 15.8372 35.0782 15.8917 34.6494L14.8997 34.5233ZM14.6164 37.1608C14.5775 37.5978 14.5419 38.0377 14.5095 38.4802L15.5068 38.5533C15.5389 38.1157 15.574 37.6811 15.6125 37.2496L14.6164 37.1608ZM14.4223 39.7992C14.3964 40.2371 14.3733 40.6772 14.3527 41.1193L15.3516 41.1658C15.372 40.7276 15.3949 40.2917 15.4206 39.8583L14.4223 39.7992ZM14.2987 42.44C14.2832 42.8787 14.2699 43.3191 14.2586 43.761L15.2583 43.7865C15.2695 43.3477 15.2827 42.9106 15.2981 42.4753L14.2987 42.44ZM14.2308 45.0819C14.2234 45.5204 14.2177 45.9601 14.2136 46.4007L15.2136 46.4101C15.2176 45.9718 15.2233 45.5346 15.2306 45.0988L14.2308 45.0819ZM14.2057 47.7197C14.205 47.9397 14.2047 48.1598 14.2047 48.38H15.2047C15.2047 48.1607 15.205 47.9415 15.2057 47.7226L14.2057 47.7197ZM14.2047 48.38C14.2047 48.6034 14.205 48.8265 14.2056 49.0492L15.2056 49.0466C15.205 48.8248 15.2047 48.6026 15.2047 48.38H14.2047ZM14.213 50.3838C14.2168 50.8305 14.2221 51.2756 14.2289 51.719L15.2288 51.7034C15.222 51.2626 15.2167 50.8198 15.2129 50.3752L14.213 50.3838ZM14.255 53.0565C14.2655 53.5043 14.278 53.95 14.2925 54.3935L15.2919 54.3608C15.2775 53.9205 15.2652 53.4778 15.2547 53.0329L14.255 53.0565ZM14.3431 55.7298C14.3624 56.1775 14.3842 56.6227 14.4085 57.0651L15.407 57.0101C15.3829 56.5719 15.3613 56.1307 15.3421 55.6867L14.3431 55.7298ZM14.4908 58.4013C14.5215 58.8504 14.5552 59.2964 14.5921 59.7389L15.5886 59.6557C15.5521 59.2184 15.5188 58.7775 15.4884 58.3331L14.4908 58.4013ZM14.7148 61.075C14.7598 61.5236 14.8086 61.9683 14.8613 62.409L15.8543 62.2901C15.8023 61.8561 15.7542 61.4176 15.7098 60.975L14.7148 61.075ZM15.0348 63.7403C15.098 64.1877 15.1658 64.6304 15.2384 65.0682L16.2249 64.9046C16.1537 64.4751 16.0871 64.0403 16.0249 63.6003L15.0348 63.7403ZM15.4759 66.3917C15.5622 66.8368 15.654 67.2762 15.7517 67.7095L16.7272 67.4895C16.6318 67.0666 16.5421 66.6371 16.4577 66.2015L15.4759 66.3917ZM16.0709 69.0211C16.1864 69.462 16.3089 69.8959 16.4386 70.3224L17.3953 70.0314C17.2696 69.6179 17.1506 69.1965 17.0382 68.7676L16.0709 69.0211ZM16.8608 71.6094C17.0132 72.0408 17.1741 72.4637 17.344 72.8776L18.269 72.4978C18.1058 72.1001 17.9508 71.6929 17.8037 71.2764L16.8608 71.6094ZM17.8951 74.1209C18.0933 74.5353 18.302 74.9394 18.5217 75.3324L19.3946 74.8444C19.1857 74.4708 18.9867 74.0856 18.7972 73.6894L17.8951 74.1209ZM19.2309 76.5028C19.4837 76.8878 19.7491 77.2602 20.0277 77.6194L20.8178 77.0065C20.556 76.6689 20.3058 76.3178 20.0668 75.9539L19.2309 76.5028ZM20.9151 78.6689C21.2267 79.0067 21.5526 79.3299 21.8933 79.6377L22.5637 78.8957C22.246 78.6087 21.9417 78.3069 21.6501 77.9909L20.9151 78.6689ZM22.9581 80.5127C23.3242 80.7856 23.7051 81.0427 24.1013 81.2834L24.6204 80.4287C24.2513 80.2045 23.8966 79.9651 23.5558 79.711L22.9581 80.5127ZM25.3114 81.9432C25.7181 82.1413 26.139 82.3237 26.5745 82.49L26.9313 81.5558C26.5229 81.3998 26.129 81.2291 25.7491 81.0441L25.3114 81.9432ZM27.8766 82.9262C28.3065 83.0511 28.7491 83.1617 29.2048 83.2578L29.411 82.2793C28.9792 82.1882 28.5608 82.0836 28.1556 81.9659L27.8766 82.9262ZM30.5486 83.493C30.988 83.5549 31.4385 83.6044 31.9004 83.6411L31.9798 82.6443C31.5373 82.6091 31.1069 82.5618 30.6882 82.5028L30.5486 83.493ZM33.2554 83.7114C33.4826 83.7171 33.7124 83.72 33.9447 83.72V82.72C33.7206 82.72 33.4993 82.7172 33.2807 82.7117L33.2554 83.7114ZM33.9447 83.72C34.1771 83.72 34.4068 83.7171 34.634 83.7114L34.6088 82.7117C34.3901 82.7172 34.1688 82.72 33.9447 82.72V83.72ZM35.989 83.6411C36.4509 83.6044 36.9014 83.5549 37.3408 83.493L37.2012 82.5028C36.7825 82.5618 36.3521 82.6091 35.9097 82.6443L35.989 83.6411ZM38.6846 83.2578C39.1403 83.1617 39.5829 83.0511 40.0129 82.9262L39.7339 81.9659C39.3286 82.0836 38.9103 82.1882 38.4784 82.2793L38.6846 83.2578ZM41.315 82.49C41.7504 82.3237 42.1713 82.1413 42.5781 81.9432L42.1403 81.0441C41.7604 81.2291 41.3665 81.3998 40.9582 81.5558L41.315 82.49ZM43.7882 81.2834C44.1844 81.0427 44.5653 80.7856 44.9314 80.5127L44.3337 79.711C43.9928 79.9651 43.6381 80.2045 43.269 80.4287L43.7882 81.2834ZM45.9962 79.6377C46.3369 79.3299 46.6627 79.0067 46.9743 78.6689L46.2393 77.9909C45.9478 78.3069 45.6434 78.6087 45.3258 78.8957L45.9962 79.6377ZM47.8618 77.6194C48.1404 77.2602 48.4057 76.8878 48.6585 76.5028L47.8226 75.9539C47.5837 76.3178 47.3335 76.6689 47.0716 77.0065L47.8618 77.6194ZM49.3677 75.3324C49.5875 74.9394 49.7962 74.5353 49.9944 74.1209L49.0922 73.6894C48.9027 74.0856 48.7038 74.4708 48.4949 74.8444L49.3677 75.3324ZM50.5455 72.8776C50.7154 72.4637 50.8763 72.0408 51.0286 71.6095L50.0857 71.2764C49.9386 71.6929 49.7837 72.1001 49.6204 72.4978L50.5455 72.8776ZM51.4508 70.3224C51.5806 69.8959 51.703 69.462 51.8186 69.0211L50.8512 68.7676C50.7388 69.1965 50.6199 69.6179 50.4941 70.0314L51.4508 70.3224ZM52.1377 67.7095C52.2355 67.2762 52.3273 66.8368 52.4135 66.3917L51.4318 66.2015C51.3474 66.6371 51.2576 67.0666 51.1622 67.4895L52.1377 67.7095ZM52.6511 65.0682C52.7237 64.6304 52.7914 64.1877 52.8547 63.7403L51.8645 63.6003C51.8023 64.0403 51.7358 64.4751 51.6646 64.9046L52.6511 65.0682ZM53.0281 62.409C53.0808 61.9683 53.1296 61.5236 53.1747 61.075L52.1797 60.975C52.1352 61.4176 52.0871 61.8561 52.0352 62.2902L53.0281 62.409ZM53.2973 59.7389C53.3343 59.2964 53.368 58.8504 53.3987 58.4013L52.401 58.3331C52.3706 58.7775 52.3373 59.2184 52.3008 59.6557L53.2973 59.7389ZM53.481 57.0651C53.5053 56.6227 53.527 56.1775 53.5464 55.7298L52.5473 55.6867C52.5281 56.1307 52.5066 56.5719 52.4825 57.0101L53.481 57.0651ZM53.597 54.3935C53.6115 53.95 53.6239 53.5043 53.6345 53.0565L52.6348 53.0329C52.6243 53.4778 52.6119 53.9205 52.5975 54.3608L53.597 54.3935ZM53.6605 51.719C53.6674 51.2756 53.6727 50.8305 53.6765 50.3838L52.6765 50.3752C52.6727 50.8198 52.6675 51.2626 52.6606 51.7034L53.6605 51.719ZM53.6839 49.0492C53.6844 48.8265 53.6847 48.6034 53.6847 48.38H52.6847C52.6847 48.6026 52.6844 48.8248 52.6839 49.0466L53.6839 49.0492ZM1.14473 48.38C1.14473 48.1569 1.14523 47.9343 1.14623 47.7121L-0.85375 47.7031C-0.854768 47.9283 -0.855273 48.1539 -0.855273 48.38H1.14473ZM1.15837 46.3846C1.16454 45.9398 1.17281 45.4968 1.18326 45.0559L-0.816179 45.0085C-0.826784 45.4562 -0.835184 45.9057 -0.841435 46.3569L1.15837 46.3846ZM1.22142 43.7315C1.23656 43.2865 1.25401 42.8437 1.27382 42.4031L-0.724165 42.3133C-0.744309 42.7613 -0.762041 43.2114 -0.777422 43.6635L1.22142 43.7315ZM1.34067 41.0832C1.36578 40.6383 1.39341 40.1958 1.42362 39.7557L-0.571684 39.6188C-0.60246 40.0671 -0.630593 40.5176 -0.65615 40.9704L1.34067 41.0832ZM1.52244 38.4383C1.55857 37.9949 1.59744 37.5542 1.63911 37.1163L-0.351898 36.9268C-0.394446 37.374 -0.434108 37.8237 -0.470954 38.2759L1.52244 38.4383ZM1.77367 35.801C1.82196 35.3604 1.87322 34.9227 1.92753 34.488L-0.0570378 34.2401C-0.112627 34.685 -0.165065 35.1327 -0.21443 35.5831L1.77367 35.801ZM2.10204 33.1762C2.16378 32.7393 2.22875 32.3056 2.29702 31.8753L0.321724 31.5619C0.251641 32.0037 0.184999 32.4486 0.121716 32.8964L2.10204 33.1762ZM2.51628 30.569C2.59339 30.134 2.67406 29.7027 2.75835 29.2751L0.796103 28.8883C0.709284 29.3287 0.626274 29.7726 0.546988 30.2199L2.51628 30.569ZM3.02609 27.9855C3.12049 27.5533 3.21879 27.1251 3.3211 26.7011L1.37689 26.232C1.2711 26.6704 1.16956 27.1127 1.07215 27.5588L3.02609 27.9855ZM3.64292 25.431C3.75645 25.0039 3.87429 24.5813 3.99651 24.1633L2.07689 23.602C1.94994 24.0361 1.82769 24.4746 1.71003 24.9173L3.64292 25.431ZM4.38091 22.9093C4.51491 22.492 4.65357 22.0796 4.79697 21.6724L2.9105 21.0081C2.76078 21.4333 2.61621 21.8633 2.47668 22.2978L4.38091 22.9093ZM5.25091 20.4416C5.40886 20.0324 5.57194 19.6288 5.74024 19.2309L3.89823 18.4518C3.72149 18.8697 3.55049 19.2929 3.38512 19.7213L5.25091 20.4416ZM6.26659 18.042C6.45066 17.6447 6.64035 17.2534 6.83575 16.8685L5.05235 15.9632C4.84585 16.37 4.64573 16.7828 4.45183 17.2014L6.26659 18.042ZM7.44587 15.7206C7.65716 15.3409 7.87452 14.9678 8.09804 14.6015L6.3908 13.5597C6.15303 13.9493 5.92221 14.3456 5.69818 14.7482L7.44587 15.7206ZM8.79564 13.5105C9.03696 13.1503 9.28485 12.7973 9.53942 12.4517L7.92907 11.2656C7.65655 11.6356 7.39161 12.0129 7.13407 12.3973L8.79564 13.5105ZM10.3283 11.4307C10.5996 11.0961 10.8779 10.7692 11.1633 10.45L9.67236 9.11689C9.36519 9.46044 9.06606 9.81192 8.77482 10.1711L10.3283 11.4307ZM12.0453 9.51143C12.3468 9.20633 12.6556 8.90915 12.972 8.62006L11.6229 7.1436C11.2812 7.45588 10.9478 7.77665 10.6227 8.10572L12.0453 9.51143ZM13.9428 7.77811C14.2731 7.5063 14.6112 7.24258 14.9571 6.98713L13.7689 5.37831C13.3948 5.6546 13.0292 5.93979 12.672 6.23368L13.9428 7.77811ZM16.009 6.25197C16.3642 6.01722 16.7273 5.79053 17.0984 5.57207L16.0836 3.84862C15.6828 4.08458 15.2905 4.32954 14.9064 4.58334L16.009 6.25197ZM18.2243 4.94735C18.602 4.75015 18.9875 4.5609 19.381 4.37974L18.5446 2.56302C18.1212 2.75795 17.7059 2.9618 17.2986 3.17444L18.2243 4.94735ZM20.5614 3.87046C20.9567 3.71096 21.3597 3.55914 21.7704 3.41516L21.1089 1.52775C20.6693 1.68184 20.2374 1.84453 19.8131 2.01572L20.5614 3.87046ZM23.0032 3.01381C23.4099 2.89124 23.8238 2.77595 24.2451 2.66806L23.749 0.730577C23.3009 0.845314 22.86 0.968115 22.4261 1.09888L23.0032 3.01381ZM25.5105 2.37119C25.9291 2.28173 26.3546 2.19923 26.7872 2.12381L26.4436 0.153534C25.9866 0.233225 25.5362 0.32053 25.0925 0.415363L25.5105 2.37119ZM28.0683 1.9241C28.4964 1.8651 28.9309 1.81273 29.3722 1.76711L29.1664 -0.222282C28.7031 -0.174374 28.2461 -0.119307 27.7952 -0.0571594L28.0683 1.9241ZM30.6629 1.65436C31.0935 1.6235 31.53 1.59881 31.9727 1.58038L31.8895 -0.417887C31.4272 -0.398642 30.9707 -0.372831 30.52 -0.340523L30.6629 1.65436ZM33.2786 1.5445C33.4992 1.5415 33.7212 1.54 33.9447 1.54V-0.460005C33.7122 -0.460005 33.4811 -0.458439 33.2514 -0.455311L33.2786 1.5445ZM33.9447 1.54C34.1682 1.54 34.3902 1.5415 34.6108 1.5445L34.638 -0.455311C34.4083 -0.458439 34.1772 -0.460005 33.9447 -0.460005V1.54ZM35.9168 1.58038C36.3594 1.59881 36.796 1.6235 37.2265 1.65436L37.3695 -0.340525C36.9187 -0.372833 36.4622 -0.398642 35.9999 -0.417889L35.9168 1.58038ZM38.5173 1.76711C38.9585 1.81273 39.3931 1.8651 39.8211 1.9241L40.0942 -0.0571613C39.6434 -0.119308 39.1863 -0.174376 38.723 -0.222284L38.5173 1.76711ZM41.1023 2.12381C41.5348 2.19922 41.9603 2.28173 42.3789 2.37119L42.7969 0.415359C42.3532 0.320526 41.9029 0.233221 41.4458 0.153532L41.1023 2.12381ZM43.6443 2.66805C44.0656 2.77594 44.4795 2.89124 44.8862 3.0138L45.4633 1.09887C45.0294 0.968109 44.5885 0.84531 44.1405 0.730574L43.6443 2.66805ZM46.119 3.41516C46.5298 3.55913 46.9327 3.71095 47.3281 3.87045L48.0764 2.01571C47.6521 1.84453 47.2202 1.68183 46.7806 1.52775L46.119 3.41516ZM48.5085 4.37974C48.902 4.56089 49.2875 4.75015 49.6652 4.94734L50.5908 3.17443C50.1835 2.96179 49.7682 2.75794 49.3449 2.56302L48.5085 4.37974ZM50.7911 5.57206C51.1621 5.79053 51.5252 6.01722 51.8805 6.25196L52.9831 4.58333C52.599 4.32953 52.2066 4.08457 51.8059 3.84862L50.7911 5.57206ZM52.9324 6.98712C53.2783 7.24258 53.6163 7.50629 53.9467 7.77811L55.2174 6.23367C54.8602 5.93978 54.4946 5.65459 54.1205 5.3783L52.9324 6.98712ZM54.9174 8.62006C55.2338 8.90915 55.5427 9.20632 55.8441 9.51142L57.2668 8.10571C56.9417 7.77664 56.6083 7.45587 56.2665 7.14359L54.9174 8.62006ZM56.7262 10.45C57.0116 10.7692 57.2898 11.0961 57.5611 11.4307L59.1146 10.1711C58.8234 9.8119 58.5243 9.46043 58.2171 9.11688L56.7262 10.45ZM58.35 12.4516C58.6046 12.7973 58.8525 13.1503 59.0938 13.5105L60.7554 12.3973C60.4978 12.0129 60.2329 11.6356 59.9604 11.2656L58.35 12.4516ZM59.7914 14.6015C60.0149 14.9678 60.2323 15.3408 60.4436 15.7206L62.1913 14.7482C61.9672 14.3455 61.7364 13.9493 61.4987 13.5597L59.7914 14.6015ZM61.0537 16.8685C61.2491 17.2534 61.4388 17.6447 61.6229 18.042L63.4376 17.2014C63.2437 16.7828 63.0436 16.37 62.8371 15.9632L61.0537 16.8685ZM62.1492 19.2309C62.3175 19.6288 62.4806 20.0324 62.6385 20.4416L64.5043 19.7213C64.339 19.2929 64.168 18.8697 63.9912 18.4518L62.1492 19.2309ZM63.0925 21.6724C63.2359 22.0796 63.3745 22.492 63.5085 22.9093L65.4128 22.2978C65.2732 21.8633 65.1287 21.4333 64.979 21.0081L63.0925 21.6724ZM63.8929 24.1633C64.0152 24.5812 64.133 25.0039 64.2465 25.431L66.1794 24.9172C66.0618 24.4746 65.9395 24.0361 65.8126 23.602L63.8929 24.1633ZM64.5684 26.7011C64.6707 27.1251 64.769 27.5533 64.8634 27.9855L66.8173 27.5587C66.7199 27.1127 66.6183 26.6704 66.5126 26.232L64.5684 26.7011ZM65.1311 29.275C65.2154 29.7027 65.2961 30.134 65.3732 30.569L67.3425 30.2198C67.2632 29.7726 67.1802 29.3287 67.0934 28.8883L65.1311 29.275ZM65.5924 31.8752C65.6607 32.3056 65.7257 32.7393 65.7874 33.1762L67.7677 32.8964C67.7045 32.4485 67.6378 32.0037 67.5677 31.5619L65.5924 31.8752ZM65.9619 34.488C66.0162 34.9227 66.0675 35.3603 66.1158 35.801L68.1039 35.5831C68.0545 35.1326 68.0021 34.6849 67.9465 34.24L65.9619 34.488ZM66.2504 37.1163C66.292 37.5542 66.3309 37.9949 66.367 38.4383L68.3604 38.2758C68.3236 37.8237 68.2839 37.374 68.2414 36.9268L66.2504 37.1163ZM66.4658 39.7557C66.496 40.1957 66.5237 40.6382 66.5488 41.0831L68.5456 40.9704C68.5201 40.5176 68.4919 40.067 68.4611 39.6187L66.4658 39.7557ZM66.6156 42.4031C66.6355 42.8437 66.6529 43.2865 66.668 43.7315L68.6669 43.6634C68.6515 43.2114 68.6338 42.7613 68.6136 42.3133L66.6156 42.4031ZM66.7062 45.0559C66.7166 45.4968 66.7249 45.9398 66.7311 46.3846L68.7309 46.3569C68.7246 45.9056 68.7162 45.4561 68.7056 45.0085L66.7062 45.0559ZM66.7432 47.7121C66.7442 47.9343 66.7447 48.1569 66.7447 48.38H68.7447C68.7447 48.1539 68.7442 47.9283 68.7432 47.7031L66.7432 47.7121ZM66.7447 48.38C66.7447 48.6049 66.7442 48.8292 66.7433 49.0532L68.7432 49.0619C68.7442 48.8351 68.7447 48.6077 68.7447 48.38H66.7447ZM66.7314 50.3908C66.7254 50.8391 66.7173 51.2853 66.7071 51.7295L68.7065 51.7755C68.7169 51.3248 68.7251 50.8722 68.7312 50.4177L66.7314 50.3908ZM66.6697 53.0643C66.6549 53.5126 66.6378 53.9587 66.6184 54.4025L68.6165 54.4898C68.6362 54.0388 68.6536 53.5856 68.6686 53.1303L66.6697 53.0643ZM66.5529 55.7331C66.5284 56.1814 66.5013 56.6272 66.4717 57.0704L68.4673 57.2036C68.4974 56.7523 68.5249 56.2987 68.5499 55.8427L66.5529 55.7331ZM66.375 58.3971C66.3395 58.8444 66.3014 59.289 66.2605 59.7308L68.2519 59.9152C68.2937 59.4644 68.3326 59.011 68.3687 58.5551L66.375 58.3971ZM66.1286 61.0554C66.0811 61.5001 66.0308 61.9418 65.9774 62.3803L67.9628 62.6219C68.0173 62.1733 68.0688 61.7219 68.1173 61.2676L66.1286 61.0554ZM65.8062 63.7018C65.7455 64.1429 65.6816 64.5806 65.6144 65.015L67.5909 65.3206C67.6598 64.875 67.7253 64.4263 67.7875 63.9745L65.8062 63.7018ZM65.3991 66.3313C65.3233 66.7695 65.2441 67.204 65.1613 67.6348L67.1253 68.0123C67.2105 67.569 67.292 67.1221 67.3698 66.6719L65.3991 66.3313ZM64.8974 68.9378C64.8046 69.3735 64.7079 69.805 64.6073 70.2324L66.554 70.6908C66.658 70.2493 66.7578 69.8038 66.8535 69.3546L64.8974 68.9378ZM64.2904 71.5135C64.1784 71.9453 64.062 72.3724 63.9414 72.7948L65.8645 73.3441C65.9897 72.9057 66.1103 72.4629 66.2263 72.0159L64.2904 71.5135ZM63.5626 74.0598C63.4302 74.4819 63.2931 74.8991 63.1513 75.311L65.0424 75.9619C65.1903 75.5322 65.3331 75.0977 65.4709 74.6584L63.5626 74.0598ZM62.7031 76.554C62.5471 76.9673 62.3861 77.3748 62.2198 77.7767L64.0679 78.5413C64.2423 78.1197 64.4111 77.6926 64.5742 77.2604L62.7031 76.554ZM61.6987 78.9799C61.5163 79.3821 61.3284 79.7781 61.1348 80.1677L62.9258 81.0577C63.1303 80.6464 63.3284 80.2289 63.5202 79.8056L61.6987 78.9799ZM60.5304 81.3289C60.321 81.7134 60.1054 82.091 59.8838 82.4618L61.6004 83.4881C61.836 83.0939 62.0647 82.6931 62.2867 82.2859L60.5304 81.3289ZM59.1899 83.5691C58.9501 83.9343 58.7037 84.2921 58.4507 84.6424L60.072 85.8135C60.3427 85.4387 60.6059 85.0565 60.8616 84.667L59.1899 83.5691ZM57.6656 85.6781C57.3953 86.0179 57.118 86.35 56.8335 86.6741L58.3366 87.9934C58.6427 87.6447 58.9407 87.2879 59.2308 86.9232L57.6656 85.6781ZM55.9534 87.6278C55.6524 87.938 55.3439 88.2401 55.0279 88.5339L56.3897 89.9986C56.7311 89.6812 57.064 89.3552 57.3886 89.0207L55.9534 87.6278ZM54.0572 89.3904C53.7267 89.6669 53.3885 89.9351 53.0425 90.1949L54.2431 91.7944C54.6175 91.5134 54.9833 91.2233 55.3406 90.9243L54.0572 89.3904ZM51.9885 90.9433C51.6322 91.1825 51.268 91.4134 50.8957 91.6359L51.9218 93.3526C52.324 93.1122 52.7177 92.8626 53.1031 92.604L51.9885 90.9433ZM49.7652 92.2724C49.3864 92.473 48.9997 92.6655 48.605 92.8497L49.4509 94.662C49.8759 94.4637 50.2926 94.2562 50.7012 94.0398L49.7652 92.2724ZM47.4181 93.3687C47.0204 93.5313 46.615 93.686 46.2016 93.8326L46.8705 95.7175C47.3131 95.5604 47.7478 95.3946 48.1748 95.22L47.4181 93.3687ZM44.9633 94.2407C44.5538 94.3656 44.137 94.483 43.7127 94.5929L44.2141 96.5291C44.6655 96.4122 45.1097 96.287 45.5467 96.1537L44.9633 94.2407ZM42.4382 94.8952C42.0173 94.9861 41.5893 95.0699 41.1542 95.1466L41.5012 97.1162C41.961 97.0353 42.4141 96.9465 42.8604 96.8501L42.4382 94.8952ZM39.8633 95.3498C39.4322 95.4098 38.9944 95.463 38.5498 95.5094L38.7573 97.4986C39.2242 97.4499 39.6848 97.3939 40.139 97.3307L39.8633 95.3498ZM37.2504 95.6239C36.8168 95.6552 36.377 95.6803 35.9309 95.699L36.0148 97.6973C36.4806 97.6777 36.9405 97.6515 37.3946 97.6187L37.2504 95.6239ZM34.6157 95.7354C34.3935 95.7385 34.1699 95.74 33.9447 95.74V97.74C34.1789 97.74 34.4117 97.7384 34.6431 97.7352L34.6157 95.7354ZM33.9447 95.74C33.7196 95.74 33.496 95.7385 33.2738 95.7354L33.2464 97.7352C33.4778 97.7384 33.7106 97.74 33.9447 97.74V95.74ZM31.9586 95.699C31.5125 95.6803 31.0727 95.6552 30.6391 95.6239L30.4949 97.6187C30.949 97.6515 31.4089 97.6777 31.8747 97.6973L31.9586 95.699ZM29.3397 95.5094C28.8951 95.463 28.4573 95.4098 28.0262 95.3498L27.7505 97.3307C28.2047 97.3939 28.6653 97.4499 29.1322 97.4986L29.3397 95.5094ZM26.7353 95.1466C26.3002 95.0699 25.8722 94.9861 25.4513 94.8952L25.0291 96.8501C25.4754 96.9465 25.9285 97.0353 26.3883 97.1163L26.7353 95.1466ZM24.1768 94.5929C23.7525 94.4831 23.3357 94.3656 22.9262 94.2407L22.3428 96.1537C22.7798 96.287 23.224 96.4122 23.6754 96.5291L24.1768 94.5929ZM21.6878 93.8326C21.2745 93.686 20.8691 93.5313 20.4714 93.3687L19.7147 95.22C20.1417 95.3946 20.5764 95.5604 21.019 95.7175L21.6878 93.8326ZM19.2845 92.8497C18.8897 92.6655 18.5031 92.473 18.1243 92.2724L17.1883 94.0398C17.5969 94.2562 18.0136 94.4637 18.4385 94.662L19.2845 92.8497ZM16.9938 91.6359C16.6215 91.4134 16.2573 91.1825 15.901 90.9433L14.7864 92.604C15.1717 92.8626 15.5655 93.1122 15.9677 93.3526L16.9938 91.6359ZM14.847 90.1949C14.5009 89.9351 14.1627 89.6669 13.8323 89.3904L12.5489 90.9243C12.9062 91.2233 13.272 91.5134 13.6464 91.7944L14.847 90.1949ZM12.8616 88.5339C12.5456 88.2401 12.2371 87.938 11.9361 87.6278L10.5008 89.0207C10.8255 89.3552 11.1584 89.6813 11.4997 89.9986L12.8616 88.5339ZM11.056 86.6741C10.7715 86.35 10.4942 86.0179 10.2238 85.6781L8.65865 86.9232C8.94875 87.2879 9.24677 87.6447 9.55287 87.9934L11.056 86.6741ZM9.43878 84.6424C9.18574 84.2921 8.93937 83.9343 8.69956 83.5691L7.02785 84.667C7.2836 85.0565 7.54675 85.4387 7.81748 85.8135L9.43878 84.6424ZM8.00568 82.4618C7.78402 82.091 7.5685 81.7134 7.35901 81.3289L5.60281 82.2859C5.82474 82.6932 6.05343 83.0939 6.28905 83.4881L8.00568 82.4618ZM6.75466 80.1677C6.56105 79.7781 6.37314 79.3821 6.19081 78.9799L4.36921 79.8056C4.5611 80.2289 4.75919 80.6464 4.96362 81.0577L6.75466 80.1677ZM5.66965 77.7767C5.50341 77.3749 5.34234 76.9673 5.18635 76.554L3.31523 77.2604C3.47841 77.6926 3.64714 78.1197 3.82156 78.5413L5.66965 77.7767ZM4.73814 75.311C4.59636 74.8991 4.45929 74.482 4.32683 74.0598L2.41854 74.6584C2.55634 75.0977 2.69913 75.5322 2.84703 75.9619L4.73814 75.311ZM3.94805 72.7948C3.82741 72.3724 3.71111 71.9453 3.59907 71.5135L1.66319 72.0159C1.77919 72.4629 1.89974 72.9057 2.02494 73.3441L3.94805 72.7948ZM3.28221 70.2324C3.18159 69.8051 3.08489 69.3735 2.99205 68.9378L1.03597 69.3546C1.1317 69.8039 1.23149 70.2493 1.33546 70.6908L3.28221 70.2324ZM2.72818 67.6348C2.64538 67.2041 2.56614 66.7695 2.4904 66.3313L0.519619 66.6719C0.59744 67.1222 0.678914 67.569 0.76413 68.0123L2.72818 67.6348ZM2.27505 65.015C2.20789 64.5807 2.14399 64.1429 2.08327 63.7018L0.101955 63.9745C0.164145 64.4263 0.229642 64.875 0.298529 65.3206L2.27505 65.015ZM1.91206 62.3804C1.8587 61.9418 1.80833 61.5002 1.76089 61.0555L-0.227825 61.2676C-0.179366 61.7219 -0.127882 62.1734 -0.0733004 62.6219L1.91206 62.3804ZM1.62901 59.7308C1.58811 59.289 1.54996 58.8444 1.51451 58.3971L-0.479238 58.5551C-0.443105 59.011 -0.404206 59.4644 -0.362472 59.9152L1.62901 59.7308ZM1.41775 57.0705C1.38816 56.6272 1.3611 56.1814 1.33651 55.7331L-0.660487 55.8427C-0.635472 56.2987 -0.607935 56.7524 -0.577812 57.2037L1.41775 57.0705ZM1.27102 54.4026C1.25164 53.9588 1.23456 53.5127 1.21975 53.0643L-0.77916 53.1304C-0.764116 53.5856 -0.746773 54.0388 -0.727072 54.4898L1.27102 54.4026ZM1.18241 51.7295C1.17219 51.2854 1.1641 50.8391 1.15807 50.3908L-0.84175 50.4177C-0.835639 50.8722 -0.82743 51.3249 -0.817065 51.7755L1.18241 51.7295ZM1.1462 49.0532C1.14522 48.8293 1.14473 48.6049 1.14473 48.38H-0.855273C-0.855273 48.6078 -0.854779 48.8351 -0.853784 49.062L1.1462 49.0532ZM54.1847 48.38C54.1847 48.1593 54.1844 47.9387 54.1838 47.7183L52.1838 47.724C52.1844 47.9425 52.1847 48.1611 52.1847 48.38H54.1847ZM54.1758 46.3961C54.1717 45.9543 54.166 45.5133 54.1586 45.0735L52.1589 45.1072C52.1662 45.5417 52.1718 45.9776 52.1759 46.4147L54.1758 46.3961ZM54.1307 43.7482C54.1193 43.3048 54.106 42.8627 54.0904 42.4223L52.0916 42.493C52.107 42.9265 52.1201 43.362 52.1313 43.7993L54.1307 43.7482ZM54.0362 41.096C54.0155 40.6519 53.9923 40.2097 53.9663 39.7697L51.9697 39.8878C51.9953 40.319 52.0181 40.7529 52.0384 41.189L54.0362 41.096ZM53.8786 38.4437C53.846 37.9986 53.8102 37.5561 53.771 37.1164L51.7789 37.294C51.8172 37.7227 51.8521 38.1548 51.884 38.5898L53.8786 38.4437ZM53.6409 35.7878C53.5932 35.342 53.5416 34.8994 53.4858 34.4603L51.5018 34.7124C51.5558 35.1378 51.6059 35.5673 51.6523 36.0007L53.6409 35.7878ZM53.3026 33.1344C53.236 32.6891 53.1646 32.2478 53.088 31.8109L51.118 32.1559C51.1915 32.5757 51.2603 33.0006 51.3246 33.4304L53.3026 33.1344ZM52.8382 30.4908C52.7477 30.0472 52.6514 29.6086 52.5489 29.1755L50.6027 29.6363C50.7002 30.0482 50.7921 30.4663 50.8786 30.8905L52.8382 30.4908ZM52.2151 27.8668C52.0945 27.4272 51.9668 26.9938 51.8314 26.5671L49.925 27.172C50.0521 27.5723 50.1724 27.9803 50.2863 28.3957L52.2151 27.8668ZM51.3916 25.2797C51.2331 24.8483 51.0658 24.4246 50.8891 24.0093L49.0488 24.7924C49.2117 25.1754 49.3668 25.5678 49.5142 25.9692L51.3916 25.2797ZM50.3167 22.7617C50.1114 22.3462 49.8951 21.9403 49.6674 21.5447L47.9341 22.5427C48.1398 22.8999 48.3362 23.2684 48.5237 23.6477L50.3167 22.7617ZM48.9343 20.3681C48.6735 19.9811 48.3997 19.6059 48.1123 19.2435L46.5454 20.4864C46.7995 20.8068 47.0428 21.14 47.2758 21.4858L48.9343 20.3681ZM47.1982 18.1845C46.8776 17.8436 46.5426 17.5168 46.1923 17.2051L44.8627 18.6992C45.1676 18.9705 45.4602 19.2557 45.741 19.5544L47.1982 18.1845ZM45.0993 16.3189C44.7239 16.0423 44.3336 15.7814 43.928 15.5371L42.896 17.2502C43.2483 17.4625 43.587 17.6889 43.9129 17.929L45.0993 16.3189ZM42.691 14.867C42.2755 14.6657 41.8462 14.4802 41.4027 14.3111L40.6902 16.1799C41.0802 16.3286 41.4563 16.4911 41.8189 16.6668L42.691 14.867ZM40.078 13.8675C39.641 13.7405 39.1918 13.6279 38.7301 13.5303L38.3162 15.487C38.7305 15.5746 39.1314 15.6751 39.5195 15.788L40.078 13.8675ZM37.3697 13.291C36.9253 13.228 36.4702 13.1776 36.0044 13.1403L35.8445 15.1339C36.2711 15.1681 36.6859 15.214 37.0889 15.2712L37.3697 13.291ZM34.6387 13.0688C34.4098 13.0629 34.1785 13.06 33.9447 13.06V15.06C34.1618 15.06 34.3761 15.0627 34.5876 15.0681L34.6387 13.0688ZM33.9447 13.06C33.711 13.06 33.4797 13.0629 33.2508 13.0688L33.3018 15.0681C33.5134 15.0627 33.7277 15.06 33.9447 15.06V13.06ZM31.8851 13.1403C31.4192 13.1776 30.9642 13.228 30.5197 13.291L30.8005 15.2712C31.2036 15.214 31.6183 15.1681 32.045 15.1339L31.8851 13.1403ZM29.1593 13.5303C28.6977 13.6279 28.2485 13.7405 27.8115 13.8675L28.37 15.788C28.758 15.6751 29.159 15.5746 29.5732 15.487L29.1593 13.5303ZM26.4868 14.3111C26.0433 14.4802 25.614 14.6657 25.1985 14.867L26.0705 16.6668C26.4332 16.4911 26.8092 16.3286 27.1992 16.1799L26.4868 14.3111ZM23.9614 15.5371C23.5559 15.7814 23.1656 16.0423 22.7901 16.3189L23.9766 17.929C24.3024 17.6889 24.6412 17.4625 24.9935 17.2502L23.9614 15.5371ZM21.6971 17.2051C21.3469 17.5168 21.0118 17.8436 20.6913 18.1845L22.1485 19.5544C22.4293 19.2557 22.7219 18.9705 23.0267 18.6992L21.6971 17.2051ZM19.7772 19.2435C19.4897 19.6059 19.2159 19.9811 18.9551 20.3681L20.6137 21.4857C20.8466 21.14 21.09 20.8068 21.3441 20.4864L19.7772 19.2435ZM18.2221 21.5447C17.9943 21.9402 17.7781 22.3462 17.5727 22.7617L19.3658 23.6477C19.5532 23.2684 19.7496 22.8999 19.9553 22.5427L18.2221 21.5447ZM17.0004 24.0093C16.8236 24.4246 16.6563 24.8483 16.4979 25.2797L18.3753 25.9692C18.5227 25.5678 18.6777 25.1754 18.8407 24.7924L17.0004 24.0093ZM16.0581 26.5671C15.9227 26.9938 15.7949 27.4272 15.6744 27.8668L17.6032 28.3957C17.7171 27.9803 17.8374 27.5723 17.9644 27.172L16.0581 26.5671ZM15.3406 29.1755C15.238 29.6086 15.1417 30.0472 15.0512 30.4908L17.0109 30.8905C17.0974 30.4663 17.1893 30.0482 17.2868 29.6363L15.3406 29.1755ZM14.8014 31.8109C14.7249 32.2478 14.6535 32.689 14.5868 33.1344L16.5648 33.4304C16.6291 33.0006 16.6979 32.5757 16.7714 32.1559L14.8014 31.8109ZM14.4037 34.4603C14.3479 34.8994 14.2962 35.342 14.2485 35.7878L16.2372 36.0007C16.2835 35.5673 16.3336 35.1378 16.3877 34.7124L14.4037 34.4603ZM14.1184 37.1164C14.0792 37.5561 14.0434 37.9986 14.0108 38.4437L16.0055 38.5898C16.0373 38.1548 16.0723 37.7227 16.1105 37.294L14.1184 37.1164ZM13.9232 39.7697C13.8972 40.2097 13.8739 40.6519 13.8533 41.096L15.8511 41.189C15.8714 40.7529 15.8942 40.319 15.9197 39.8878L13.9232 39.7697ZM13.7991 42.4223C13.7835 42.8627 13.7701 43.3048 13.7588 43.7482L15.7582 43.7993C15.7693 43.362 15.7825 42.9265 15.7978 42.493L13.7991 42.4223ZM13.7308 45.0735C13.7234 45.5134 13.7177 45.9543 13.7136 46.3961L15.7135 46.4147C15.7176 45.9776 15.7232 45.5417 15.7305 45.1072L13.7308 45.0735ZM13.7057 47.7183C13.705 47.9387 13.7047 48.1593 13.7047 48.38H15.7047C15.7047 48.1611 15.705 47.9425 15.7057 47.724L13.7057 47.7183ZM13.7047 48.38C13.7047 48.6038 13.705 48.8273 13.7056 49.0505L15.7056 49.0453C15.705 48.8239 15.7047 48.6021 15.7047 48.38H13.7047ZM13.713 50.3881C13.7168 50.8359 13.7221 51.2822 13.729 51.7267L15.7288 51.6957C15.7219 51.256 15.7167 50.8144 15.7129 50.3709L13.713 50.3881ZM13.7551 53.0682C13.7657 53.5175 13.7782 53.9648 13.7927 54.4099L15.7917 54.3444C15.7773 53.9058 15.765 53.4646 15.7545 53.0211L13.7551 53.0682ZM13.8435 55.7514C13.863 56.201 13.8848 56.6481 13.9092 57.0926L15.9062 56.9827C15.8822 56.5465 15.8608 56.1072 15.8417 55.6651L13.8435 55.7514ZM13.9919 58.4354C14.0228 58.8869 14.0567 59.3354 14.0938 59.7805L16.0869 59.6142C16.0506 59.1795 16.0175 58.741 15.9873 58.299L13.9919 58.4354ZM14.2173 61.125C14.2627 61.5766 14.3118 62.0245 14.3649 62.4684L16.3507 62.2307C16.2992 61.8 16.2514 61.3647 16.2073 60.925L14.2173 61.125ZM14.5397 63.8102C14.6035 64.2614 14.6718 64.7081 14.7451 65.15L16.7182 64.8228C16.6476 64.3974 16.5817 63.9665 16.52 63.5304L14.5397 63.8102ZM14.9851 66.4868C15.0722 66.9366 15.1651 67.381 15.264 67.8195L17.215 67.3795C17.1207 66.9617 17.032 66.5373 16.9486 66.1064L14.9851 66.4868ZM15.5872 69.1478C15.7043 69.5947 15.8285 70.0349 15.9603 70.4679L17.8737 69.8858C17.7499 69.4789 17.6327 69.0638 17.5219 68.6408L15.5872 69.1478ZM16.3893 71.776C16.5443 72.2148 16.7082 72.6455 16.8814 73.0675L18.7316 72.3079C18.5717 71.9183 18.4196 71.5189 18.2752 71.1099L16.3893 71.776ZM17.444 74.3366C17.6466 74.7602 17.8602 75.1737 18.0853 75.5764L19.831 74.6004C19.6275 74.2365 19.4334 73.8608 19.2483 73.4737L17.444 74.3366ZM18.813 76.7772C19.0727 77.1728 19.3457 77.5559 19.6326 77.9258L21.2129 76.7001C20.9594 76.3732 20.7168 76.0329 20.4848 75.6795L18.813 76.7772ZM20.5476 79.008C20.8693 79.3566 21.2059 79.6905 21.5581 80.0087L22.8989 78.5247C22.5927 78.2481 22.2991 77.957 22.0176 77.6518L20.5476 79.008ZM22.6592 80.9135C23.0379 81.1959 23.4319 81.4618 23.8417 81.7107L24.88 80.0014C24.5244 79.7854 24.1828 79.5548 23.8546 79.3101L22.6592 80.9135ZM25.0925 82.3927C25.5127 82.5973 25.9471 82.7856 26.3961 82.9571L27.1097 81.0887C26.7149 80.9379 26.3345 80.773 25.968 80.5946L25.0925 82.3927ZM27.7371 83.4063C28.1794 83.5348 28.6341 83.6485 29.1017 83.747L29.5141 81.79C29.0942 81.7015 28.688 81.5999 28.2951 81.4857L27.7371 83.4063ZM30.4789 83.9881C30.9286 84.0515 31.3892 84.102 31.8608 84.1395L32.0194 82.1458C31.5867 82.1114 31.1664 82.0652 30.758 82.0077L30.4789 83.9881ZM33.2428 84.2112C33.4743 84.2171 33.7082 84.22 33.9447 84.22V82.22C33.7248 82.22 33.5076 82.2173 33.2933 82.2119L33.2428 84.2112ZM33.9447 84.22C34.1812 84.22 34.4152 84.2171 34.6466 84.2112L34.5961 82.2119C34.3818 82.2173 34.1647 82.22 33.9447 82.22V84.22ZM36.0286 84.1395C36.5003 84.102 36.9609 84.0515 37.4106 83.9881L37.1315 82.0077C36.7231 82.0652 36.3027 82.1114 35.87 82.1458L36.0286 84.1395ZM38.7878 83.747C39.2553 83.6485 39.7101 83.5348 40.1523 83.4063L39.5944 81.4857C39.2015 81.5999 38.7953 81.7015 38.3753 81.79L38.7878 83.747ZM41.4934 82.9571C41.9424 82.7856 42.3768 82.5973 42.797 82.3927L41.9214 80.5946C41.555 80.773 41.1746 80.9379 40.7798 81.0887L41.4934 82.9571ZM44.0477 81.7107C44.4575 81.4618 44.8515 81.1959 45.2303 80.9135L44.0348 79.3101C43.7066 79.5548 43.365 79.7854 43.0095 80.0014L44.0477 81.7107ZM46.3314 80.0087C46.6836 79.6905 47.0202 79.3566 47.3418 79.008L45.8718 77.6518C45.5903 77.957 45.2967 78.2481 44.9906 78.5247L46.3314 80.0087ZM48.2569 77.9258C48.5438 77.5559 48.8168 77.1728 49.0765 76.7772L47.4047 75.6795C47.1726 76.0329 46.9301 76.3732 46.6765 76.7001L48.2569 77.9258ZM49.8041 75.5764C50.0293 75.1737 50.2429 74.7602 50.4454 74.3366L48.6412 73.4737C48.456 73.8608 48.2619 74.2365 48.0584 74.6004L49.8041 75.5764ZM51.008 73.0675C51.1813 72.6455 51.3451 72.2148 51.5001 71.776L49.6143 71.1099C49.4698 71.5189 49.3178 71.9184 49.1579 72.3079L51.008 73.0675ZM51.9292 70.4679C52.0609 70.0349 52.1851 69.5947 52.3022 69.1478L50.3676 68.6408C50.2567 69.0638 50.1396 69.4789 50.0158 69.8858L51.9292 70.4679ZM52.6255 67.8195C52.7244 67.381 52.8172 66.9366 52.9044 66.4868L50.9409 66.1064C50.8574 66.5373 50.7687 66.9617 50.6745 67.3795L52.6255 67.8195ZM53.1443 65.15C53.2176 64.7081 53.286 64.2614 53.3498 63.8102L51.3694 63.5304C51.3078 63.9665 51.2418 64.3974 51.1713 64.8228L53.1443 65.15ZM53.5246 62.4684C53.5777 62.0245 53.6268 61.5766 53.6722 61.125L51.6822 60.925C51.638 61.3647 51.5903 61.8 51.5387 62.2307L53.5246 62.4684ZM53.7956 59.7805C53.8328 59.3354 53.8667 58.8869 53.8975 58.4354L51.9022 58.299C51.872 58.741 51.8388 59.1795 51.8025 59.6142L53.7956 59.7805ZM53.9802 57.0926C54.0047 56.6481 54.0265 56.201 54.0459 55.7514L52.0478 55.6651C52.0287 56.1072 52.0072 56.5465 51.9832 56.9827L53.9802 57.0926ZM54.0967 54.4099C54.1113 53.9648 54.1238 53.5175 54.1344 53.0682L52.1349 53.0211C52.1245 53.4646 52.1121 53.9058 52.0978 54.3444L54.0967 54.4099ZM54.1604 51.7267C54.1674 51.2822 54.1726 50.8359 54.1765 50.3881L52.1765 50.3709C52.1727 50.8144 52.1675 51.2561 52.1607 51.6957L54.1604 51.7267ZM54.1839 49.0505C54.1844 48.8273 54.1847 48.6038 54.1847 48.38H52.1847C52.1847 48.6021 52.1845 48.8239 52.1839 49.0453L54.1839 49.0505ZM82.256 95.7H81.756V96.2H82.256V95.7ZM145.436 95.7V96.2H145.936V95.7H145.436ZM145.436 83.35H145.936V82.85H145.436V83.35ZM104.226 83.35L103.889 82.981L102.938 83.85H104.226V83.35ZM82.126 30.83L81.6261 30.8173L81.6132 31.33H82.126V30.83ZM96.426 30.83V31.33H96.908L96.9256 30.8483L96.426 30.83ZM82.256 84.91L81.9261 84.5343L81.756 84.6836V84.91H82.256ZM82.756 95.7V95.0256H81.756V95.7H82.756ZM82.756 93.6769V92.3281H81.756V93.6769H82.756ZM82.756 90.9794V89.6306H81.756V90.9794H82.756ZM82.756 88.2819V86.9331H81.756V88.2819H82.756ZM82.756 85.5844V84.91H81.756V85.5844H82.756ZM82.5858 85.2857C82.757 85.1355 82.9282 84.9854 83.0994 84.8355L82.4407 84.0831C82.2691 84.2334 82.0976 84.3837 81.9261 84.5343L82.5858 85.2857ZM84.1276 83.9375C84.4709 83.6383 84.8144 83.3397 85.1579 83.0417L84.5026 82.2863C84.1585 82.5848 83.8145 82.8839 83.4706 83.1835L84.1276 83.9375ZM86.1901 82.1478C86.5348 81.8498 86.8794 81.5525 87.2239 81.2556L86.5711 80.498C86.2262 80.7952 85.8812 81.093 85.5362 81.3912L86.1901 82.1478ZM88.2592 80.3645C88.6047 80.0674 88.9501 79.7709 89.2952 79.4747L88.644 78.7158C88.2987 79.0121 87.9531 79.3089 87.6073 79.6062L88.2592 80.3645ZM90.3325 78.5853C90.6786 78.2887 91.0244 77.9925 91.3697 77.6967L90.7192 76.9372C90.3739 77.233 90.028 77.5292 89.6817 77.826L90.3325 78.5853ZM92.4079 76.8076C92.7543 76.511 93.1001 76.2147 93.4453 75.9189L92.7945 75.1596C92.4495 75.4553 92.1037 75.7515 91.7574 76.0481L92.4079 76.8076ZM94.4831 75.0289C94.8294 74.7317 95.175 74.435 95.5196 74.1386L94.8676 73.3804C94.5233 73.6765 94.178 73.973 93.8319 74.27L94.4831 75.0289ZM96.556 73.2463C96.9018 72.9482 97.2467 72.6504 97.5904 72.353L96.9362 71.5968C96.5929 71.8937 96.2485 72.1911 95.903 72.489L96.556 73.2463ZM98.624 71.4571C98.9689 71.1575 99.3127 70.8582 99.6552 70.5592L98.9976 69.8059C98.6558 70.1042 98.3126 70.403 97.9682 70.7022L98.624 71.4571ZM100.684 69.6583C101.028 69.3565 101.37 69.0551 101.711 68.754L101.049 68.0046C100.709 68.305 100.368 68.6057 100.025 68.9068L100.684 69.6583ZM102.734 67.8465C103.076 67.542 103.417 67.2379 103.755 66.934L103.087 66.1898C102.75 66.4927 102.411 66.796 102.069 67.0996L102.734 67.8465ZM104.771 66.0185C105.111 65.7106 105.448 65.4029 105.784 65.0956L105.109 64.3579C104.775 64.6641 104.438 64.9706 104.099 65.2774L104.771 66.0185ZM106.79 64.1705C107.127 63.8584 107.462 63.5465 107.794 63.2349L107.11 62.5052C106.779 62.8154 106.446 63.1258 106.11 63.4366L106.79 64.1705ZM108.787 62.2984C109.121 61.9813 109.452 61.6644 109.78 61.3477L109.086 60.6278C108.76 60.9427 108.43 61.2579 108.098 61.5733L108.787 62.2984ZM110.761 60.3948C111.09 60.0728 111.415 59.7511 111.738 59.4295L111.032 58.7214C110.711 59.0408 110.388 59.3605 110.061 59.6805L110.761 60.3948ZM112.704 58.4571C113.026 58.1297 113.344 57.8024 113.66 57.4752L112.939 56.7814C112.627 57.106 112.31 57.4308 111.991 57.7559L112.704 58.4571ZM114.608 56.4801C114.922 56.1464 115.232 55.8129 115.539 55.4795L114.802 54.8029C114.499 55.1332 114.191 55.4637 113.88 55.7945L114.608 56.4801ZM116.465 54.4579C116.771 54.115 117.074 53.772 117.372 53.4291L116.617 52.7734C116.322 53.1125 116.023 53.4518 115.719 53.7913L116.465 54.4579ZM118.265 52.3846C118.562 52.0308 118.855 51.677 119.142 51.3231L118.366 50.6927C118.082 51.042 117.793 51.3914 117.499 51.7409L118.265 52.3846ZM119.996 50.2511C120.282 49.8858 120.562 49.5205 120.835 49.155L120.035 48.5554C119.765 48.9153 119.49 49.2752 119.208 49.6353L119.996 50.2511ZM121.649 48.0433C121.918 47.6682 122.18 47.2929 122.435 46.9173L121.607 46.3553C121.357 46.724 121.1 47.0928 120.836 47.4616L121.649 48.0433ZM123.198 45.762C123.448 45.3714 123.691 44.9805 123.927 44.5893L123.07 44.0737C122.84 44.4565 122.602 44.8392 122.356 45.2221L123.198 45.762ZM124.619 43.3982C124.847 42.9918 125.066 42.5851 125.276 42.1778L124.387 41.7191C124.182 42.1159 123.969 42.5127 123.746 42.9095L124.619 43.3982ZM125.889 40.9348C126.087 40.514 126.275 40.0927 126.453 39.6707L125.532 39.2816C125.359 39.6909 125.177 40.1001 124.984 40.5092L125.889 40.9348ZM126.965 38.3835C127.128 37.9457 127.28 37.5071 127.421 37.0678L126.468 36.7631C126.332 37.1871 126.186 37.6109 126.028 38.0346L126.965 38.3835ZM127.812 35.7325C127.931 35.2821 128.039 34.8309 128.133 34.3787L127.155 34.1737C127.064 34.6081 126.96 35.0421 126.845 35.4758L127.812 35.7325ZM128.381 33.0081C128.451 32.5471 128.507 32.0851 128.55 31.6222L127.554 31.5308C127.513 31.9738 127.459 32.4163 127.392 32.8583L128.381 33.0081ZM128.635 30.229C128.642 29.9963 128.646 29.7632 128.646 29.53H127.646C127.646 29.7529 127.643 29.9756 127.636 30.1981L128.635 30.229ZM128.646 29.53C128.646 29.3088 128.644 29.0891 128.64 28.8709L127.64 28.8904C127.644 29.102 127.646 29.3152 127.646 29.53H128.646ZM128.587 27.5566C128.559 27.1113 128.522 26.6729 128.474 26.2417L127.48 26.3511C127.526 26.7658 127.562 27.1883 127.588 27.6185L128.587 27.5566ZM128.295 24.9331C128.222 24.4907 128.138 24.0568 128.041 23.6321L127.066 23.8541C127.158 24.2582 127.239 24.6722 127.308 25.0956L128.295 24.9331ZM127.702 22.3467C127.573 21.9158 127.429 21.4956 127.27 21.0868L126.338 21.4483C126.487 21.832 126.622 22.2277 126.745 22.6351L127.702 22.3467ZM126.733 19.8603C126.534 19.4548 126.318 19.0627 126.085 18.6847L125.234 19.21C125.45 19.5597 125.65 19.9236 125.836 20.3014L126.733 19.8603ZM125.319 17.5772C125.044 17.2206 124.751 16.8799 124.438 16.5559L123.718 17.2501C124.005 17.5473 124.275 17.8601 124.528 18.1882L125.319 17.5772ZM123.447 15.6379C123.104 15.3538 122.742 15.0868 122.362 14.8374L121.813 15.6737C122.163 15.903 122.495 16.1481 122.81 16.4086L123.447 15.6379ZM121.198 14.1603C120.806 13.9589 120.398 13.7738 119.973 13.6056L119.605 14.5353C120 14.6919 120.379 14.8635 120.741 15.0496L121.198 14.1603ZM118.709 13.1694C118.292 13.0455 117.861 12.9359 117.416 12.841L117.207 13.819C117.628 13.9086 118.033 14.0118 118.424 14.128L118.709 13.1694ZM116.107 12.6102C115.679 12.5497 115.239 12.5015 114.787 12.4657L114.708 13.4626C115.141 13.4968 115.56 13.5428 115.967 13.6004L116.107 12.6102ZM113.47 12.3982C113.251 12.3927 113.03 12.39 112.806 12.39V13.39C113.022 13.39 113.235 13.3926 113.445 13.3979L113.47 12.3982ZM112.806 12.39C112.57 12.39 112.336 12.3937 112.104 12.401L112.136 13.4005C112.357 13.3935 112.58 13.39 112.806 13.39V12.39ZM110.708 12.4916C110.234 12.5387 109.77 12.6021 109.317 12.6814L109.49 13.6665C109.918 13.5915 110.357 13.5314 110.807 13.4867L110.708 12.4916ZM107.943 12.9789C107.481 13.0988 107.032 13.2365 106.596 13.3916L106.931 14.3339C107.339 14.1888 107.76 14.0595 108.194 13.9468L107.943 12.9789ZM105.288 13.9255C104.856 14.1258 104.438 14.3447 104.035 14.5816L104.542 15.4437C104.917 15.2233 105.306 15.0195 105.708 14.8327L105.288 13.9255ZM102.852 15.3582C102.47 15.6373 102.103 15.9345 101.752 16.2491L102.419 16.994C102.746 16.7015 103.087 16.4252 103.442 16.1658L102.852 15.3582ZM100.746 17.2431C100.428 17.5886 100.126 17.9503 99.84 18.3274L100.637 18.932C100.904 18.5793 101.186 18.2416 101.482 17.9195L100.746 17.2431ZM99.0381 19.4883C98.791 19.8819 98.5586 20.2892 98.3407 20.7095L99.2285 21.1697C99.4341 20.7731 99.653 20.3897 99.885 20.0201L99.0381 19.4883ZM97.7432 21.9803C97.5625 22.4055 97.3952 22.8421 97.2411 23.2894L98.1866 23.615C98.3333 23.1891 98.4923 22.7745 98.6636 22.3714L97.7432 21.9803ZM96.8296 24.6245C96.708 25.0683 96.5985 25.5213 96.5009 25.9831L97.4793 26.1898C97.5729 25.7467 97.6779 25.3129 97.794 24.8887L96.8296 24.6245ZM96.2507 27.3517C96.1803 27.8046 96.1206 28.2652 96.0716 28.7328L97.0662 28.837C97.1135 28.3853 97.171 27.9413 97.2388 27.5052L96.2507 27.3517ZM95.9593 30.1164C95.9458 30.3466 95.9348 30.5784 95.9263 30.8117L96.9256 30.8483C96.9339 30.6221 96.9446 30.3976 96.9576 30.1747L95.9593 30.1164ZM96.426 30.33H95.711V31.33H96.426V30.33ZM94.281 30.33H92.851V31.33H94.281V30.33ZM91.421 30.33H89.991V31.33H91.421V30.33ZM88.561 30.33H87.131V31.33H88.561V30.33ZM85.701 30.33H84.271V31.33H85.701V30.33ZM82.841 30.33H82.126V31.33H82.841V30.33ZM82.6258 30.8427C82.6315 30.6164 82.6388 30.3914 82.6477 30.1678L81.6485 30.1283C81.6394 30.3567 81.632 30.5864 81.6261 30.8173L82.6258 30.8427ZM82.7194 28.8379C82.7503 28.3878 82.7877 27.9433 82.8314 27.5043L81.8364 27.4052C81.7916 27.8545 81.7534 28.3092 81.7218 28.7694L82.7194 28.8379ZM82.9853 26.1761C83.0442 25.7305 83.1099 25.291 83.1823 24.8575L82.1959 24.6929C82.1217 25.1376 82.0543 25.5883 81.9939 26.0449L82.9853 26.1761ZM83.4244 23.5495C83.514 23.1094 83.6107 22.6759 83.7143 22.249L82.7425 22.0131C82.6359 22.4522 82.5365 22.8979 82.4445 23.35L83.4244 23.5495ZM84.0541 20.9592C84.1768 20.5278 84.307 20.1035 84.4444 19.6864L83.4946 19.3736C83.3529 19.8038 83.2187 20.2411 83.0923 20.6854L84.0541 20.9592ZM84.8869 18.4328C85.0447 18.0146 85.2101 17.604 85.3829 17.2011L84.4639 16.8069C84.2852 17.2236 84.1142 17.6479 83.9513 18.0798L84.8869 18.4328ZM85.9337 15.9939C86.1281 15.5926 86.3303 15.1995 86.54 14.8144L85.6618 14.3361C85.4445 14.7352 85.235 15.1424 85.0337 15.5579L85.9337 15.9939ZM87.2027 13.6654C87.4347 13.2852 87.6745 12.9137 87.9218 12.5506L87.0954 11.9875C86.8386 12.3645 86.5897 12.7502 86.3491 13.1446L87.2027 13.6654ZM88.6961 11.4745C88.9647 11.1209 89.2409 10.7762 89.5247 10.4404L88.7608 9.795C88.4659 10.1441 88.1787 10.5024 87.8997 10.8698L88.6961 11.4745ZM90.4059 9.45139C90.7092 9.12859 91.0199 8.8149 91.338 8.51031L90.6463 7.78811C90.3156 8.10485 89.9924 8.43104 89.6771 8.7667L90.4059 9.45139ZM92.3184 7.61974C92.6533 7.33125 92.9953 7.05195 93.3443 6.78184L92.7323 5.99104C92.3695 6.27179 92.0139 6.56213 91.6657 6.86208L92.3184 7.61974ZM94.4128 5.99833C94.7754 5.74657 95.1447 5.50396 95.5204 5.27049L94.9927 4.4211C94.6026 4.66345 94.2191 4.91538 93.8425 5.17691L94.4128 5.99833ZM96.6638 4.59914C97.0496 4.38532 97.4416 4.1805 97.8395 3.98468L97.3979 3.08746C96.9856 3.29038 96.5793 3.50271 96.1791 3.72449L96.6638 4.59914ZM99.0439 3.42707C99.4484 3.25127 99.8584 3.08423 100.274 2.92596L99.9177 1.99151C99.4882 2.15516 99.064 2.32797 98.6453 2.50996L99.0439 3.42707ZM101.526 2.48067C101.945 2.34205 102.368 2.21191 102.797 2.09025L102.524 1.12828C102.082 1.25379 101.644 1.38813 101.212 1.53131L101.526 2.48067ZM104.084 1.75359C104.514 1.6507 104.947 1.55597 105.385 1.4694L105.191 0.488398C104.74 0.577518 104.294 0.675085 103.851 0.781122L104.084 1.75359ZM106.697 1.2363C107.133 1.16738 107.573 1.10627 108.017 1.05297L107.897 0.0601158C107.442 0.11487 106.99 0.177675 106.541 0.248549L106.697 1.2363ZM109.342 0.917776C109.783 0.880751 110.226 0.851192 110.673 0.829094L110.623 -0.169683C110.165 -0.147026 109.71 -0.116707 109.258 -0.0787086L109.342 0.917776ZM112.006 0.785419C112.229 0.781805 112.452 0.779997 112.676 0.779997V-0.220003C112.447 -0.220003 112.218 -0.218151 111.99 -0.214449L112.006 0.785419ZM112.676 0.779997C112.894 0.779997 113.111 0.781502 113.327 0.784502L113.341 -0.215401C113.121 -0.218466 112.899 -0.220003 112.676 -0.220003V0.779997ZM114.615 0.820559C115.05 0.838964 115.479 0.863594 115.904 0.894358L115.977 -0.103033C115.542 -0.134527 115.102 -0.159723 114.657 -0.178545L114.615 0.820559ZM117.192 1.00773C117.624 1.05266 118.05 1.10414 118.472 1.16205L118.608 0.171364C118.175 0.111933 117.738 0.0591507 117.295 0.0130978L117.192 1.00773ZM119.743 1.359C120.17 1.43263 120.59 1.5131 121.005 1.6003L121.211 0.621664C120.784 0.531961 120.352 0.449238 119.914 0.373585L119.743 1.359ZM122.261 1.88895C122.682 1.99406 123.096 2.10636 123.504 2.22572L123.785 1.26598C123.364 1.14285 122.937 1.0271 122.504 0.918823L122.261 1.88895ZM124.73 2.61203C125.139 2.7504 125.541 2.89622 125.937 3.04935L126.298 2.11679C125.889 1.9584 125.473 1.80768 125.05 1.66475L124.73 2.61203ZM127.122 3.539C127.516 3.71239 127.903 3.89345 128.283 4.08202L128.728 3.18641C128.334 2.99085 127.933 2.8032 127.525 2.6236L127.122 3.539ZM129.416 4.6792C129.791 4.88868 130.159 5.10597 130.518 5.33091L131.049 4.48319C130.675 4.24937 130.293 4.02363 129.904 3.80611L129.416 4.6792ZM131.585 6.03714C131.937 6.28278 132.28 6.53627 132.614 6.79745L133.23 6.00905C132.881 5.73709 132.524 5.47324 132.158 5.21765L131.585 6.03714ZM133.602 7.61092C133.924 7.89148 134.238 8.17981 134.544 8.47575L135.24 7.75758C134.921 7.44913 134.594 7.14866 134.258 6.85635L133.602 7.61092ZM135.438 9.39001C135.727 9.70292 136.008 10.0234 136.281 10.3513L137.05 9.71255C136.766 9.3708 136.473 9.03674 136.171 8.71055L135.438 9.39001ZM137.07 11.3568C137.324 11.6984 137.569 12.0473 137.805 12.4033L138.639 11.8506C138.393 11.4799 138.138 11.1164 137.873 10.7604L137.07 11.3568ZM138.484 13.4876C138.7 13.8538 138.907 14.2267 139.106 14.6062L139.992 14.143C139.786 13.7484 139.57 13.3605 139.345 12.9795L138.484 13.4876ZM139.67 15.7554C139.847 16.1413 140.016 16.5335 140.177 16.9318L141.104 16.5585C140.938 16.1452 140.763 15.7381 140.578 15.3373L139.67 15.7554ZM140.627 18.1319C140.767 18.5331 140.898 18.94 141.021 19.3525L141.979 19.0668C141.852 18.6399 141.716 18.2185 141.571 17.8029L140.627 18.1319ZM141.36 20.5905C141.464 21.0028 141.559 21.4204 141.646 21.843L142.626 21.6409C142.536 21.2047 142.437 20.7734 142.33 20.3472L141.36 20.5905ZM141.88 23.1076C141.949 23.5277 142.011 23.9525 142.064 24.3819L143.057 24.2583C143.001 23.8163 142.938 23.3786 142.867 22.9455L141.88 23.1076ZM142.199 25.6615C142.236 26.0851 142.265 26.5129 142.287 26.9448L143.286 26.8939C143.263 26.4504 143.233 26.0107 143.195 25.575L142.199 25.6615ZM142.331 28.2317C142.334 28.4468 142.336 28.6629 142.336 28.88H143.336C143.336 28.6574 143.334 28.4358 143.33 28.215L142.331 28.2317ZM142.336 28.88C142.336 29.0989 142.334 29.3172 142.33 29.5351L143.329 29.5547C143.334 29.3303 143.336 29.1054 143.336 28.88H142.336ZM142.279 30.8364C142.253 31.2723 142.219 31.7063 142.177 32.1383L143.172 32.2354C143.216 31.7906 143.251 31.3438 143.277 30.8948L142.279 30.8364ZM142.026 33.4327C141.967 33.8645 141.9 34.2942 141.825 34.7221L142.81 34.8944C142.887 34.4543 142.956 34.0121 143.017 33.5678L142.026 33.4327ZM141.576 36.0033C141.485 36.429 141.387 36.8527 141.281 37.2745L142.251 37.5182C142.36 37.0849 142.461 36.6495 142.554 36.2119L141.576 36.0033ZM140.94 38.5355C140.82 38.9537 140.692 39.3699 140.557 39.7842L141.507 40.0941C141.646 39.6692 141.777 39.2422 141.901 38.813L140.94 38.5355ZM140.131 41.0209C139.983 41.4299 139.828 41.8371 139.666 42.2425L140.595 42.6127C140.76 42.1978 140.919 41.7808 141.071 41.3617L140.131 41.0209ZM139.163 43.4507C138.99 43.8504 138.81 44.2482 138.624 44.6443L139.53 45.0687C139.72 44.6641 139.903 44.2575 140.08 43.8488L139.163 43.4507ZM138.052 45.8218C137.857 46.2115 137.655 46.5995 137.448 46.9857L138.329 47.4582C138.54 47.0645 138.746 46.6687 138.946 46.2709L138.052 45.8218ZM136.814 48.1327C136.598 48.5118 136.378 48.8892 136.152 49.2649L137.009 49.7798C137.239 49.3975 137.464 49.0132 137.683 48.6271L136.814 48.1327ZM135.463 50.3833C135.23 50.752 134.992 51.1191 134.75 51.4845L135.584 52.0366C135.83 51.6654 136.071 51.2924 136.308 50.9175L135.463 50.3833ZM134.013 52.5729C133.765 52.9323 133.512 53.29 133.256 53.6462L134.067 54.2307C134.327 53.8696 134.584 53.5066 134.836 53.1418L134.013 52.5729ZM132.478 54.7055C132.215 55.0561 131.949 55.4052 131.68 55.7527L132.47 56.3655C132.743 56.0136 133.012 55.66 133.278 55.3046L132.478 54.7055ZM130.866 56.7846C130.592 57.1265 130.314 57.4668 130.034 57.8056L130.805 58.443C131.088 58.1004 131.368 57.7561 131.646 57.4101L130.866 56.7846ZM129.188 58.8138C128.903 59.1475 128.616 59.4797 128.327 59.8104L129.079 60.4691C129.372 60.1351 129.662 59.7994 129.949 59.4622L129.188 58.8138ZM127.452 60.7965C127.159 61.1229 126.864 61.4478 126.566 61.7711L127.302 62.4482C127.602 62.122 127.9 61.7942 128.196 61.4648L127.452 60.7965ZM125.668 62.7364C125.367 63.0563 125.064 63.3747 124.759 63.6917L125.48 64.3846C125.787 64.0652 126.093 63.7442 126.396 63.4217L125.668 62.7364ZM123.841 64.6382C123.533 64.9522 123.224 65.2648 122.913 65.5759L123.621 66.2824C123.933 65.9692 124.245 65.6544 124.555 65.3382L123.841 64.6382ZM121.977 66.5061C121.663 66.8149 121.348 67.1223 121.033 67.4283L121.729 68.1462C122.046 67.8385 122.363 67.5293 122.678 67.2185L121.977 66.5061ZM120.081 68.3441C119.763 68.6486 119.443 68.9517 119.123 69.2533L119.81 69.9808C120.131 69.6777 120.452 69.3731 120.772 69.067L120.081 68.3441ZM118.16 70.1562C117.837 70.4572 117.514 70.7568 117.191 71.055L117.868 71.7903C118.193 71.4909 118.518 71.1901 118.842 70.8878L118.16 70.1562ZM116.218 71.9474C115.891 72.2456 115.565 72.5423 115.239 72.8376L115.91 73.5788C116.237 73.2826 116.565 72.985 116.892 72.6859L116.218 71.9474ZM114.257 73.7233C113.929 74.0187 113.601 74.3126 113.274 74.6051L113.94 75.3506C114.268 75.0575 114.597 74.7629 114.926 74.4669L114.257 73.7233ZM112.285 75.487C111.955 75.781 111.626 76.0736 111.298 76.3647L111.961 77.1127C112.29 76.8213 112.619 76.5284 112.95 76.234L112.285 75.487ZM110.306 77.2433C109.974 77.5377 109.644 77.8304 109.315 78.1218L109.978 78.8704C110.307 78.5791 110.637 78.2862 110.97 77.9918L110.306 77.2433ZM108.327 78.9976C107.993 79.2932 107.662 79.5873 107.334 79.8799L107.998 80.6269C108.327 80.3347 108.657 80.041 108.99 79.7456L108.327 78.9976ZM106.345 80.7622C106.014 81.0578 105.686 81.352 105.362 81.6446L106.031 82.3875C106.355 82.0958 106.682 81.8025 107.011 81.5075L106.345 80.7622ZM104.375 82.5377C104.212 82.6859 104.05 82.8337 103.889 82.981L104.563 83.719C104.724 83.5723 104.885 83.4251 105.047 83.2775L104.375 82.5377ZM104.226 83.85H104.913V82.85H104.226V83.85ZM106.286 83.85H107.66V82.85H106.286V83.85ZM109.034 83.85H110.407V82.85H109.034V83.85ZM111.781 83.85H113.155V82.85H111.781V83.85ZM114.528 83.85H115.902V82.85H114.528V83.85ZM117.276 83.85H118.649V82.85H117.276V83.85ZM120.023 83.85H121.397V82.85H120.023V83.85ZM122.77 83.85H124.144V82.85H122.77V83.85ZM125.518 83.85H126.891V82.85H125.518V83.85ZM128.265 83.85H129.639V82.85H128.265V83.85ZM131.012 83.85H132.386V82.85H131.012V83.85ZM133.76 83.85H135.133V82.85H133.76V83.85ZM136.507 83.85H137.881V82.85H136.507V83.85ZM139.254 83.85H140.628V82.85H139.254V83.85ZM142.002 83.85H143.375V82.85H142.002V83.85ZM144.749 83.85H145.436V82.85H144.749V83.85ZM144.936 83.35V83.9675H145.936V83.35H144.936ZM144.936 85.2025V86.4375H145.936V85.2025H144.936ZM144.936 87.6725V88.9075H145.936V87.6725H144.936ZM144.936 90.1425V91.3775H145.936V90.1425H144.936ZM144.936 92.6125V93.8475H145.936V92.6125H144.936ZM144.936 95.0825V95.7H145.936V95.0825H144.936ZM145.436 95.2H144.778V96.2H145.436V95.2ZM143.462 95.2H142.145V96.2H143.462V95.2ZM140.829 95.2H139.513V96.2H140.829V95.2ZM138.197 95.2H136.88V96.2H138.197V95.2ZM135.564 95.2H134.248V96.2H135.564V95.2ZM132.932 95.2H131.615V96.2H132.932V95.2ZM130.299 95.2H128.983V96.2H130.299V95.2ZM127.667 95.2H126.35V96.2H127.667V95.2ZM125.034 95.2H123.718V96.2H125.034V95.2ZM122.402 95.2H121.085V96.2H122.402V95.2ZM119.769 95.2H118.453V96.2H119.769V95.2ZM117.137 95.2H115.82V96.2H117.137V95.2ZM114.504 95.2H113.188V96.2H114.504V95.2ZM111.872 95.2H110.555V96.2H111.872V95.2ZM109.239 95.2H107.923V96.2H109.239V95.2ZM106.607 95.2H105.29V96.2H106.607V95.2ZM103.974 95.2H102.658V96.2H103.974V95.2ZM101.342 95.2H100.025V96.2H101.342V95.2ZM98.7091 95.2H97.3929V96.2H98.7091V95.2ZM96.0766 95.2H94.7604V96.2H96.0766V95.2ZM93.4441 95.2H92.1279V96.2H93.4441V95.2ZM90.8116 95.2H89.4954V96.2H90.8116V95.2ZM88.1791 95.2H86.8629V96.2H88.1791V95.2ZM85.5466 95.2H84.2304V96.2H85.5466V95.2ZM82.9141 95.2H82.256V96.2H82.9141V95.2ZM82.256 95.7H81.256V96.7H82.256V95.7ZM145.436 95.7V96.7H146.436V95.7H145.436ZM145.436 83.35H146.436V82.35H145.436V83.35ZM104.226 83.35L103.551 82.6121L101.651 84.35H104.226V83.35ZM82.126 30.83L81.1263 30.8047L81.1003 31.83H82.126V30.83ZM96.426 30.83V31.83H97.3901L97.4253 30.8666L96.426 30.83ZM82.256 84.91L81.5962 84.1585L81.256 84.4572V84.91H82.256ZM83.256 95.7V95.0256H81.256V95.7H83.256ZM83.256 93.6769V92.3281H81.256V93.6769H83.256ZM83.256 90.9794V89.6306H81.256V90.9794H83.256ZM83.256 88.2819V86.9331H81.256V88.2819H83.256ZM83.256 85.5844V84.91H81.256V85.5844H83.256ZM82.9157 85.6615C83.0867 85.5114 83.2577 85.3615 83.4288 85.2117L82.1113 83.707C81.9395 83.8573 81.7679 84.0078 81.5962 84.1585L82.9157 85.6615ZM84.456 84.3145C84.7991 84.0156 85.1423 83.7172 85.4856 83.4193L84.1749 81.9087C83.8306 82.2074 83.4863 82.5067 83.1422 82.8066L84.456 84.3145ZM86.5171 82.526C86.8616 82.2283 87.206 81.9311 87.5503 81.6343L86.2447 80.1193C85.8996 80.4166 85.5545 80.7145 85.2092 81.013L86.5171 82.526ZM88.5851 80.7437C88.9305 80.4467 89.2758 80.1502 89.6208 79.8542L88.3184 78.3364C87.973 78.6327 87.6273 78.9296 87.2813 79.2271L88.5851 80.7437ZM90.6578 78.965C91.0039 78.6684 91.3497 78.3722 91.695 78.0765L90.394 76.5574C90.0486 76.8532 89.7027 77.1495 89.3564 77.4464L90.6578 78.965ZM92.7331 77.1874C93.0795 76.8907 93.4254 76.5944 93.7706 76.2986L92.4692 74.78C92.1242 75.0756 91.7785 75.3717 91.4321 75.6684L92.7331 77.1874ZM94.8088 75.4083C95.1552 75.1111 95.5008 74.8142 95.8456 74.5177L94.5417 73.0013C94.1974 73.2972 93.8523 73.5937 93.5063 73.8906L94.8088 75.4083ZM96.8825 73.625C97.2285 73.3267 97.5736 73.0288 97.9175 72.7312L96.6091 71.2186C96.266 71.5154 95.9218 71.8126 95.5765 72.1103L96.8825 73.625ZM98.9519 71.8346C99.2971 71.5347 99.6412 71.2351 99.984 70.9359L98.6687 69.4292C98.3273 69.7273 97.9844 70.0258 97.6403 70.3247L98.9519 71.8346ZM101.014 70.034C101.358 69.7319 101.701 69.4301 102.042 69.1287L100.718 67.6299C100.378 67.9299 100.037 68.2303 99.6948 68.531L101.014 70.034ZM103.067 68.22C103.409 67.9151 103.75 67.6104 104.089 67.3061L102.753 65.8177C102.416 66.1201 102.078 66.423 101.737 66.7262L103.067 68.22ZM105.106 66.3891C105.447 66.0806 105.785 65.7724 106.122 65.4644L104.772 63.9891C104.438 64.2946 104.102 64.6005 103.764 64.9069L105.106 66.3891ZM107.129 64.5375C107.467 64.2247 107.803 63.9121 108.136 63.5997L106.769 62.1404C106.438 62.4498 106.106 62.7596 105.771 63.0697L107.129 64.5375ZM109.131 62.6609C109.466 62.343 109.798 62.0252 110.127 61.7077L108.739 60.2679C108.414 60.5819 108.085 60.8962 107.754 61.2108L109.131 62.6609ZM111.111 60.7519C111.441 60.429 111.767 60.1062 112.091 59.7835L110.679 58.3674C110.359 58.6857 110.037 59.0044 109.711 59.3234L111.111 60.7519ZM113.06 58.8078C113.383 58.4791 113.703 58.1506 114.02 57.8221L112.579 56.4345C112.268 56.7578 111.953 57.0813 111.634 57.4052L113.06 58.8078ZM114.972 56.8229C115.287 56.4878 115.599 56.1528 115.907 55.8177L114.434 54.4646C114.132 54.7934 113.826 55.1224 113.516 55.4517L114.972 56.8229ZM116.837 54.7913C117.146 54.4465 117.45 54.1018 117.749 53.7569L116.239 52.4455C115.946 52.7828 115.649 53.1203 115.347 53.458L116.837 54.7913ZM118.647 52.7065C118.947 52.3505 119.241 51.9945 119.53 51.6383L117.978 50.3775C117.696 50.7245 117.409 51.0717 117.117 51.4191L118.647 52.7065ZM120.39 50.559C120.678 50.1912 120.96 49.8231 121.236 49.4548L119.635 48.2556C119.367 48.6126 119.094 48.9699 118.814 49.3274L120.39 50.559ZM122.056 48.3341C122.327 47.9559 122.591 47.5773 122.848 47.1983L121.194 46.0744C120.946 46.4396 120.691 46.8051 120.429 47.1708L122.056 48.3341ZM123.619 46.032C123.872 45.6375 124.117 45.2425 124.355 44.8471L122.642 43.8159C122.414 44.1944 122.178 44.5732 121.935 44.9521L123.619 46.032ZM125.055 43.6425C125.285 43.2314 125.507 42.8197 125.72 42.4072L123.943 41.4897C123.741 41.8814 123.53 42.2731 123.31 42.6651L125.055 43.6425ZM126.342 41.1476C126.542 40.721 126.733 40.2935 126.914 39.8652L125.072 39.0871C124.901 39.4901 124.721 39.8931 124.532 40.2964L126.342 41.1476ZM127.434 38.5579C127.599 38.113 127.754 37.6671 127.897 37.2201L125.992 36.6107C125.859 37.0271 125.714 37.4436 125.559 37.8601L127.434 38.5579ZM128.295 35.8609C128.417 35.4021 128.526 34.9423 128.623 34.4813L126.665 34.0712C126.576 34.4967 126.475 34.9221 126.362 35.3474L128.295 35.8609ZM128.875 33.083C128.946 32.6124 129.004 32.1408 129.047 31.668L127.056 31.485C127.016 31.9182 126.963 32.3509 126.898 32.7834L128.875 33.083ZM129.135 30.2445C129.142 30.0066 129.146 29.7684 129.146 29.53H127.146C127.146 29.7477 127.143 29.9653 127.136 30.1827L129.135 30.2445ZM129.146 29.53C129.146 29.3056 129.144 29.0826 129.139 28.8611L127.14 28.9002C127.144 29.1084 127.146 29.3184 127.146 29.53H129.146ZM129.086 27.5256C129.057 27.0728 129.019 26.6264 128.971 26.187L126.983 26.4058C127.028 26.8122 127.063 27.2269 127.089 27.6494L129.086 27.5256ZM128.789 24.8519C128.714 24.3999 128.628 23.9561 128.529 23.5211L126.578 23.9651C126.668 24.3589 126.747 24.763 126.815 25.1769L128.789 24.8519ZM128.181 22.2025C128.048 21.7598 127.9 21.3274 127.736 20.906L125.872 21.6291C126.016 22.0002 126.147 22.3837 126.266 22.7793L128.181 22.2025ZM127.182 19.6397C126.976 19.2204 126.752 18.8142 126.51 18.4221L124.808 19.4726C125.015 19.8082 125.208 20.1581 125.387 20.522L127.182 19.6397ZM125.715 17.2717C125.429 16.9009 125.123 16.5462 124.798 16.2087L123.358 17.5972C123.632 17.8809 123.89 18.1799 124.132 18.4937L125.715 17.2717ZM123.766 15.2526C123.408 14.9567 123.031 14.6787 122.636 14.4193L121.539 16.0919C121.873 16.3111 122.191 16.5452 122.491 16.7939L123.766 15.2526ZM121.426 13.7156C121.02 13.5065 120.597 13.3148 120.157 13.1407L119.421 15.0001C119.801 15.1509 120.165 15.3158 120.512 15.4943L121.426 13.7156ZM118.851 12.6901C118.421 12.5623 117.978 12.4495 117.52 12.352L117.103 14.308C117.511 14.395 117.904 14.4949 118.282 14.6072L118.851 12.6901ZM116.177 12.1152C115.739 12.0531 115.288 12.0038 114.826 11.9673L114.669 13.9611C115.091 13.9945 115.501 14.0394 115.897 14.0955L116.177 12.1152ZM113.483 11.8983C113.26 11.8928 113.034 11.89 112.806 11.89V13.89C113.018 13.89 113.227 13.8926 113.433 13.8977L113.483 11.8983ZM112.806 11.89C112.565 11.89 112.325 11.8938 112.088 11.9012L112.152 13.9002C112.367 13.8934 112.585 13.89 112.806 13.89V11.89ZM110.659 11.994C110.172 12.0424 109.696 12.1074 109.231 12.1889L109.576 14.159C109.991 14.0862 110.418 14.0278 110.857 13.9842L110.659 11.994ZM107.817 12.495C107.342 12.6185 106.879 12.7604 106.429 12.9205L107.098 14.805C107.493 14.6649 107.9 14.5399 108.32 14.4308L107.817 12.495ZM105.077 13.4719C104.631 13.679 104.199 13.9054 103.782 14.1505L104.795 15.8748C105.156 15.6627 105.531 15.4663 105.919 15.2863L105.077 13.4719ZM102.557 14.9544C102.161 15.2434 101.782 15.551 101.418 15.8766L102.752 17.3665C103.067 17.085 103.395 16.8192 103.737 16.5696L102.557 14.9544ZM100.377 16.9048C100.049 17.2621 99.7373 17.6358 99.4418 18.0252L101.035 19.2343C101.293 18.8938 101.565 18.5681 101.85 18.2578L100.377 16.9048ZM98.6147 19.2225C98.3601 19.628 98.1208 20.0472 97.8968 20.4794L99.6725 21.3997C99.8719 21.015 100.084 20.6436 100.308 20.286L98.6147 19.2225ZM97.2831 21.7848C97.0976 22.2211 96.9261 22.6686 96.7684 23.1267L98.6594 23.7778C98.8023 23.3627 98.9572 22.9589 99.1237 22.567L97.2831 21.7848ZM96.3473 24.4925C96.2231 24.946 96.1113 25.4085 96.0117 25.8797L97.9685 26.2932C98.0601 25.8594 98.1628 25.4352 98.2763 25.0208L96.3473 24.4925ZM95.7566 27.2749C95.6849 27.7363 95.6241 28.2051 95.5743 28.6808L97.5635 28.889C97.6099 28.4454 97.6664 28.0097 97.7329 27.582L95.7566 27.2749ZM95.4601 30.0872C95.4465 30.3211 95.4353 30.5565 95.4266 30.7934L97.4253 30.8666C97.4334 30.644 97.4439 30.4231 97.4567 30.2039L95.4601 30.0872ZM96.426 29.83H95.711V31.83H96.426V29.83ZM94.281 29.83H92.851V31.83H94.281V29.83ZM91.421 29.83H89.991V31.83H91.421V29.83ZM88.561 29.83H87.131V31.83H88.561V29.83ZM85.701 29.83H84.271V31.83H85.701V29.83ZM82.841 29.83H82.126V31.83H82.841V29.83ZM83.1257 30.8553C83.1313 30.6314 83.1385 30.4088 83.1473 30.1875L81.1488 30.1086C81.1397 30.3393 81.1322 30.5714 81.1263 30.8047L83.1257 30.8553ZM83.2183 28.8722C83.2488 28.4271 83.2858 27.9877 83.329 27.5539L81.3388 27.3557C81.2936 27.8101 81.2549 28.2699 81.223 28.7352L83.2183 28.8722ZM83.4809 26.2417C83.5392 25.8016 83.6041 25.3677 83.6755 24.9398L81.7028 24.6106C81.6276 25.0609 81.5594 25.5172 81.4982 25.9793L83.4809 26.2417ZM83.9143 23.6493C84.0027 23.2152 84.098 22.7877 84.2002 22.3669L82.2566 21.8951C82.1485 22.3404 82.0478 22.7921 81.9545 23.2502L83.9143 23.6493ZM84.535 21.096C84.6559 20.6711 84.7841 20.2534 84.9193 19.8428L83.0197 19.2172C82.8758 19.6539 82.7397 20.0977 82.6114 20.5485L84.535 21.096ZM85.3547 18.6094C85.5099 18.198 85.6726 17.7942 85.8424 17.3981L84.0044 16.6098C83.8227 17.0334 83.649 17.4645 83.4835 17.9033L85.3547 18.6094ZM86.3836 16.2119C86.5746 15.8177 86.7732 15.4316 86.9791 15.0536L85.2227 14.0969C85.0015 14.503 84.7885 14.9173 84.5838 15.3398L86.3836 16.2119ZM87.6296 13.9258C87.8572 13.5528 88.0924 13.1882 88.335 12.8322L86.6822 11.706C86.4206 12.0899 86.1672 12.4826 85.9222 12.8842L87.6296 13.9258ZM89.0943 11.7769C89.3576 11.4302 89.6284 11.0923 89.9066 10.7631L88.3789 9.47229C88.0783 9.82803 87.7858 10.1931 87.5015 10.5674L89.0943 11.7769ZM90.7703 9.79373C91.0676 9.47736 91.3721 9.16993 91.6838 8.87141L90.3004 7.42701C89.9634 7.74982 89.634 8.08227 89.3127 8.42436L90.7703 9.79373ZM92.6447 7.99857C92.9729 7.71581 93.3083 7.44204 93.6504 7.17724L92.4262 5.59564C92.0566 5.8817 91.6943 6.17757 91.3394 6.48325L92.6447 7.99857ZM94.698 6.40904C95.0535 6.16216 95.4157 5.92421 95.7843 5.69519L94.7288 3.9964C94.3316 4.2432 93.941 4.49979 93.5573 4.7662L94.698 6.40904ZM96.9062 5.03647C97.2848 4.82663 97.6696 4.62556 98.0603 4.43328L97.1771 2.63885C96.7576 2.84532 96.3441 3.06141 95.9367 3.28716L96.9062 5.03647ZM99.2432 3.88563C99.6406 3.71292 100.044 3.54877 100.452 3.39319L99.7396 1.52428C99.3031 1.69063 98.8718 1.86633 98.446 2.0514L99.2432 3.88563ZM101.683 2.95535C102.095 2.81901 102.512 2.69097 102.933 2.57124L102.387 0.647289C101.938 0.774736 101.494 0.911173 101.054 1.05663L101.683 2.95535ZM104.201 2.23983C104.623 2.13851 105.051 2.0452 105.482 1.9599L105.094 -0.00210571C104.637 0.0882912 104.184 0.187279 103.735 0.294888L104.201 2.23983ZM106.775 1.73017C107.205 1.66223 107.639 1.60197 108.076 1.5494L107.838 -0.436312C107.376 -0.380831 106.918 -0.317177 106.463 -0.245325L106.775 1.73017ZM109.384 1.41602C109.819 1.37948 110.256 1.3503 110.697 1.32848L110.598 -0.669073C110.135 -0.646133 109.674 -0.615435 109.217 -0.57695L109.384 1.41602ZM112.014 1.28535C112.234 1.28178 112.455 1.28 112.676 1.28V-0.720003C112.444 -0.720003 112.212 -0.71813 111.982 -0.714382L112.014 1.28535ZM112.676 1.28C112.892 1.28 113.107 1.28149 113.321 1.28445L113.348 -0.715353C113.125 -0.718451 112.901 -0.720003 112.676 -0.720003V1.28ZM114.594 1.32011C115.024 1.33831 115.448 1.36265 115.868 1.39305L116.013 -0.601728C115.573 -0.633587 115.128 -0.659067 114.679 -0.678097L114.594 1.32011ZM117.14 1.50504C117.567 1.54942 117.988 1.60024 118.404 1.6574L118.676 -0.32398C118.238 -0.384169 117.795 -0.437605 117.347 -0.484217L117.14 1.50504ZM119.658 1.8517C120.079 1.92433 120.494 2.00367 120.903 2.08961L121.314 0.132349C120.881 0.0413933 120.443 -0.0424595 119.999 -0.11912L119.658 1.8517ZM122.14 2.37402C122.554 2.47755 122.962 2.58812 123.363 2.7056L123.925 0.786106C123.498 0.661098 123.065 0.543617 122.625 0.433758L122.14 2.37402ZM124.569 3.08567C124.972 3.22177 125.367 3.36514 125.756 3.51564L126.478 1.65051C126.062 1.48949 125.64 1.33632 125.21 1.1911L124.569 3.08567ZM126.921 3.99669C127.308 4.16699 127.688 4.34475 128.061 4.52983L128.95 2.73861C128.55 2.53955 128.141 2.3486 127.726 2.16591L126.921 3.99669ZM129.172 5.11574C129.54 5.32121 129.901 5.53427 130.253 5.75477L131.314 4.05933C130.933 3.82107 130.544 3.5911 130.148 3.36957L129.172 5.11574ZM131.299 6.44688C131.643 6.68755 131.979 6.93587 132.307 7.19165L133.537 5.61485C133.182 5.3375 132.818 5.06846 132.445 4.80791L131.299 6.44688ZM133.274 7.9882C133.59 8.26289 133.897 8.54515 134.196 8.83484L135.588 7.39849C135.263 7.08379 134.929 6.77726 134.586 6.47906L133.274 7.9882ZM135.071 9.72973C135.354 10.036 135.63 10.3497 135.896 10.6706L137.435 9.39319C137.145 9.0445 136.846 8.70365 136.538 8.37083L135.071 9.72973ZM136.669 11.6549C136.918 11.9894 137.157 12.3311 137.389 12.6797L139.055 11.5743C138.805 11.1962 138.544 10.8255 138.275 10.4622L136.669 11.6549ZM138.053 13.7417C138.265 14.1004 138.468 14.4658 138.663 14.8378L140.435 13.9114C140.225 13.5092 140.005 13.1138 139.776 12.7254L138.053 13.7417ZM139.216 15.9645C139.39 16.3429 139.556 16.7276 139.713 17.1185L141.568 16.3718C141.399 15.9511 141.22 15.5365 141.032 15.1283L139.216 15.9645ZM140.155 18.2965C140.292 18.6904 140.421 19.09 140.542 19.4953L142.459 18.924C142.329 18.4899 142.191 18.0613 142.043 17.6383L140.155 18.2965ZM140.875 20.7121C140.977 21.1175 141.071 21.5282 141.157 21.944L143.115 21.5399C143.024 21.0969 142.924 20.6587 142.815 20.2256L140.875 20.7121ZM141.387 23.1886C141.455 23.6023 141.515 24.0207 141.568 24.4437L143.553 24.1966C143.497 23.7481 143.433 23.304 143.361 22.8644L141.387 23.1886ZM141.701 25.7047C141.737 26.1224 141.766 26.5442 141.788 26.9702L143.785 26.8685C143.762 26.4191 143.732 25.9735 143.694 25.5318L141.701 25.7047ZM141.831 28.24C141.834 28.4524 141.836 28.6657 141.836 28.88H143.836C143.836 28.6547 143.834 28.4302 143.83 28.2067L141.831 28.24ZM141.836 28.88C141.836 29.0956 141.834 29.3107 141.83 29.5253L143.829 29.5645C143.834 29.3368 143.836 29.1087 143.836 28.88H141.836ZM141.78 30.8071C141.754 31.2366 141.721 31.6641 141.679 32.0897L143.67 32.2839C143.714 31.8328 143.749 31.3795 143.776 30.924L141.78 30.8071ZM141.53 33.3651C141.472 33.7906 141.406 34.2142 141.332 34.6359L143.303 34.9806C143.381 34.5344 143.451 34.086 143.512 33.6353L141.53 33.3651ZM141.087 35.899C140.998 36.3187 140.901 36.7366 140.796 37.1527L142.736 37.6401C142.846 37.201 142.949 36.7597 143.043 36.3162L141.087 35.899ZM140.46 38.3968C140.341 38.8094 140.215 39.2202 140.081 39.6293L141.983 40.2491C142.123 39.8189 142.256 39.3865 142.382 38.9518L140.46 38.3968ZM139.661 40.8504C139.514 41.2545 139.361 41.6568 139.202 42.0574L141.059 42.7978C141.227 42.3781 141.387 41.9562 141.541 41.5321L139.661 40.8504ZM138.704 43.2517C138.533 43.6468 138.355 44.0403 138.172 44.4321L139.983 45.2809C140.174 44.872 140.36 44.461 140.539 44.0478L138.704 43.2517ZM137.606 45.5972C137.412 45.9829 137.212 46.367 137.007 46.7495L138.77 47.6945C138.983 47.2969 139.191 46.8973 139.393 46.4955L137.606 45.5972ZM136.38 47.8855C136.166 48.2611 135.947 48.6351 135.723 49.0075L137.438 50.0373C137.67 49.6516 137.896 49.264 138.118 48.8743L136.38 47.8855ZM135.04 50.1163C134.809 50.4819 134.573 50.8459 134.333 51.2084L136.001 52.3126C136.249 51.9385 136.492 51.5625 136.731 51.1846L135.04 50.1163ZM133.602 52.2885C133.355 52.6452 133.105 53.0003 132.85 53.3539L134.473 54.523C134.735 54.1593 134.993 53.7937 135.247 53.4263L133.602 52.2885ZM132.077 54.4059C131.817 54.7542 131.552 55.101 131.284 55.4462L132.865 56.6719C133.139 56.3178 133.411 55.9619 133.678 55.6042L132.077 54.4059ZM130.476 56.4718C130.203 56.8117 129.927 57.15 129.649 57.4869L131.19 58.7617C131.475 58.4171 131.757 58.0709 132.036 57.7229L130.476 56.4718ZM128.807 58.4895C128.524 58.8215 128.239 59.152 127.951 59.4811L129.456 60.7984C129.749 60.4628 130.041 60.1254 130.33 59.7864L128.807 58.4895ZM127.08 60.4624C126.789 60.7872 126.495 61.1106 126.198 61.4326L127.67 62.7868C127.972 62.4591 128.271 62.1298 128.568 61.7989L127.08 60.4624ZM125.304 62.3937C125.004 62.7123 124.702 63.0295 124.399 63.3452L125.841 64.7311C126.149 64.4104 126.456 64.0882 126.76 63.7643L125.304 62.3937ZM123.484 64.2882C123.177 64.6011 122.869 64.9126 122.559 65.2227L123.975 66.6356C124.288 66.3214 124.601 66.0055 124.912 65.6881L123.484 64.2882ZM121.626 66.1498C121.313 66.4577 120.999 66.7642 120.685 67.0693L122.077 68.5052C122.395 68.1966 122.713 67.8864 123.029 67.5748L121.626 66.1498ZM119.736 67.9826C119.418 68.2863 119.1 68.5886 118.78 68.8896L120.153 70.3446C120.475 70.0407 120.797 69.7354 121.118 69.4285L119.736 67.9826ZM117.819 69.7904C117.497 70.0908 117.174 70.3898 116.852 70.6874L118.207 72.1579C118.533 71.858 118.858 71.5565 119.183 71.2536L117.819 69.7904ZM115.881 71.5782C115.555 71.8758 115.229 72.1721 114.903 72.4669L116.246 73.9494C116.573 73.6528 116.901 73.3547 117.229 73.0551L115.881 71.5782ZM113.923 73.3515C113.595 73.6465 113.267 73.9401 112.941 74.2324L114.274 75.7234C114.602 75.43 114.931 75.1351 115.26 74.8386L113.923 73.3515ZM111.953 75.1136C111.623 75.4073 111.294 75.6997 110.966 75.9907L112.293 77.4866C112.622 77.1951 112.951 76.9021 113.282 76.6075L111.953 75.1136ZM109.975 76.8691C109.643 77.1635 109.312 77.456 108.983 77.7475L110.309 79.2446C110.638 78.9535 110.969 78.6604 111.301 78.3661L109.975 76.8691ZM107.995 78.6235C107.661 78.9193 107.33 79.2136 107.001 79.5064L108.331 81.0004C108.659 80.7084 108.989 80.4149 109.322 80.1196L107.995 78.6235ZM106.011 80.3895C105.68 80.6855 105.352 80.98 105.027 81.2731L106.366 82.759C106.689 82.4677 107.015 82.1748 107.345 81.8801L106.011 80.3895ZM104.038 82.1678C103.875 82.3163 103.713 82.4644 103.551 82.6121L104.901 84.0879C105.061 83.9415 105.222 83.7947 105.384 83.6474L104.038 82.1678ZM104.226 84.35H104.913V82.35H104.226V84.35ZM106.286 84.35H107.66V82.35H106.286V84.35ZM109.034 84.35H110.407V82.35H109.034V84.35ZM111.781 84.35H113.155V82.35H111.781V84.35ZM114.528 84.35H115.902V82.35H114.528V84.35ZM117.276 84.35H118.649V82.35H117.276V84.35ZM120.023 84.35H121.397V82.35H120.023V84.35ZM122.77 84.35H124.144V82.35H122.77V84.35ZM125.518 84.35H126.891V82.35H125.518V84.35ZM128.265 84.35H129.639V82.35H128.265V84.35ZM131.012 84.35H132.386V82.35H131.012V84.35ZM133.76 84.35H135.133V82.35H133.76V84.35ZM136.507 84.35H137.881V82.35H136.507V84.35ZM139.254 84.35H140.628V82.35H139.254V84.35ZM142.002 84.35H143.375V82.35H142.002V84.35ZM144.749 84.35H145.436V82.35H144.749V84.35ZM144.436 83.35V83.9675H146.436V83.35H144.436ZM144.436 85.2025V86.4375H146.436V85.2025H144.436ZM144.436 87.6725V88.9075H146.436V87.6725H144.436ZM144.436 90.1425V91.3775H146.436V90.1425H144.436ZM144.436 92.6125V93.8475H146.436V92.6125H144.436ZM144.436 95.0825V95.7H146.436V95.0825H144.436ZM145.436 94.7H144.778V96.7H145.436V94.7ZM143.462 94.7H142.145V96.7H143.462V94.7ZM140.829 94.7H139.513V96.7H140.829V94.7ZM138.197 94.7H136.88V96.7H138.197V94.7ZM135.564 94.7H134.248V96.7H135.564V94.7ZM132.932 94.7H131.615V96.7H132.932V94.7ZM130.299 94.7H128.983V96.7H130.299V94.7ZM127.667 94.7H126.35V96.7H127.667V94.7ZM125.034 94.7H123.718V96.7H125.034V94.7ZM122.402 94.7H121.085V96.7H122.402V94.7ZM119.769 94.7H118.453V96.7H119.769V94.7ZM117.137 94.7H115.82V96.7H117.137V94.7ZM114.504 94.7H113.188V96.7H114.504V94.7ZM111.872 94.7H110.555V96.7H111.872V94.7ZM109.239 94.7H107.923V96.7H109.239V94.7ZM106.607 94.7H105.29V96.7H106.607V94.7ZM103.974 94.7H102.658V96.7H103.974V94.7ZM101.342 94.7H100.025V96.7H101.342V94.7ZM98.7091 94.7H97.3929V96.7H98.7091V94.7ZM96.0766 94.7H94.7604V96.7H96.0766V94.7ZM93.4441 94.7H92.1279V96.7H93.4441V94.7ZM90.8116 94.7H89.4954V96.7H90.8116V94.7ZM88.1791 94.7H86.8629V96.7H88.1791V94.7ZM85.5466 94.7H84.2304V96.7H85.5466V94.7ZM82.9141 94.7H82.256V96.7H82.9141V94.7Z" fill="#1268FB"/>
</svg>
