<svg width="80" height="80" viewBox="0 0 80 80" fill="none" xmlns="http://www.w3.org/2000/svg">
<path d="M53.75 26.25H51.9177C51.6977 25.5521 51.4165 24.8751 51.0773 24.2267L52.3743 22.9291C52.4904 22.813 52.5825 22.6753 52.6453 22.5236C52.7081 22.372 52.7405 22.2094 52.7405 22.0453C52.7405 21.8811 52.7081 21.7186 52.6453 21.567C52.5825 21.4153 52.4904 21.2775 52.3743 21.1615L48.8385 17.6257C48.7225 17.5096 48.5847 17.4175 48.433 17.3547C48.2814 17.2919 48.1189 17.2595 47.9547 17.2595C47.7906 17.2595 47.628 17.2919 47.4764 17.3547C47.3247 17.4175 47.187 17.5096 47.0709 17.6257L45.7733 18.9227C45.1249 18.5835 44.4479 18.3023 43.75 18.0823V16.25C43.75 15.9185 43.6183 15.6005 43.3839 15.3661C43.1495 15.1317 42.8315 15 42.5 15H37.5C37.1685 15 36.8505 15.1317 36.6161 15.3661C36.3817 15.6005 36.25 15.9185 36.25 16.25V18.0823C35.5521 18.3023 34.8751 18.5835 34.2267 18.9227L32.9291 17.6257C32.813 17.5096 32.6753 17.4175 32.5236 17.3547C32.372 17.2919 32.2094 17.2595 32.0453 17.2595C31.8811 17.2595 31.7186 17.2919 31.567 17.3547C31.4153 17.4175 31.2775 17.5096 31.1615 17.6257L27.6257 21.1615C27.5096 21.2775 27.4175 21.4153 27.3547 21.567C27.2919 21.7186 27.2595 21.8811 27.2595 22.0453C27.2595 22.2094 27.2919 22.372 27.3547 22.5236C27.4175 22.6753 27.5096 22.813 27.6257 22.9291L28.9227 24.2267C28.5835 24.8751 28.3023 25.5521 28.0823 26.25H26.25C25.9185 26.25 25.6005 26.3817 25.3661 26.6161C25.1317 26.8505 25 27.1685 25 27.5V32.5C25 32.8315 25.1317 33.1495 25.3661 33.3839C25.6005 33.6183 25.9185 33.75 26.25 33.75H28.0823C28.3023 34.4479 28.5835 35.1249 28.9227 35.7733L27.6257 37.0709C27.5096 37.187 27.4175 37.3247 27.3547 37.4764C27.2919 37.628 27.2595 37.7906 27.2595 37.9547C27.2595 38.1189 27.2919 38.2814 27.3547 38.433C27.4175 38.5847 27.5096 38.7225 27.6257 38.8385L31.1615 42.3743C31.2775 42.4904 31.4153 42.5825 31.567 42.6453C31.7186 42.7081 31.8811 42.7405 32.0453 42.7405C32.2094 42.7405 32.372 42.7081 32.5236 42.6453C32.6753 42.5825 32.813 42.4904 32.9291 42.3743L34.2267 41.0773C34.8751 41.4165 35.5521 41.6977 36.25 41.9177V43.75C36.25 44.0815 36.3817 44.3995 36.6161 44.6339C36.8505 44.8683 37.1685 45 37.5 45H42.5C42.8315 45 43.1495 44.8683 43.3839 44.6339C43.6183 44.3995 43.75 44.0815 43.75 43.75V41.9177C44.4479 41.6977 45.1249 41.4165 45.7733 41.0773L47.0709 42.3743C47.187 42.4904 47.3247 42.5825 47.4764 42.6453C47.628 42.7081 47.7906 42.7405 47.9547 42.7405C48.1189 42.7405 48.2814 42.7081 48.433 42.6453C48.5847 42.5825 48.7225 42.4904 48.8385 42.3743L52.3743 38.8385C52.4904 38.7225 52.5825 38.5847 52.6453 38.433C52.7081 38.2814 52.7405 38.1189 52.7405 37.9547C52.7405 37.7906 52.7081 37.628 52.6453 37.4764C52.5825 37.3247 52.4904 37.187 52.3743 37.0709L51.0773 35.7733C51.4165 35.1249 51.6977 34.4479 51.9177 33.75H53.75C54.0815 33.75 54.3995 33.6183 54.6339 33.3839C54.8683 33.1495 55 32.8315 55 32.5V27.5C55 27.1685 54.8683 26.8505 54.6339 26.6161C54.3995 26.3817 54.0815 26.25 53.75 26.25ZM40 36.25C38.7639 36.25 37.5555 35.8834 36.5277 35.1967C35.4999 34.5099 34.6988 33.5338 34.2258 32.3918C33.7527 31.2497 33.6289 29.9931 33.8701 28.7807C34.1112 27.5683 34.7065 26.4547 35.5806 25.5806C36.4547 24.7065 37.5683 24.1112 38.7807 23.8701C39.9931 23.6289 41.2497 23.7527 42.3918 24.2258C43.5338 24.6988 44.5099 25.4999 45.1967 26.5277C45.8834 27.5555 46.25 28.7639 46.25 30C46.25 31.6576 45.5915 33.2473 44.4194 34.4194C43.2473 35.5915 41.6576 36.25 40 36.25Z" fill="#5292FF"/>
<path d="M40 37.5C38.5166 37.5 37.0666 37.0601 35.8332 36.236C34.5999 35.4119 33.6386 34.2406 33.0709 32.8701C32.5032 31.4997 32.3547 29.9917 32.6441 28.5368C32.9335 27.082 33.6478 25.7456 34.6967 24.6967C35.7456 23.6478 37.082 22.9335 38.5368 22.6441C39.9917 22.3547 41.4997 22.5032 42.8701 23.0709C44.2406 23.6386 45.4119 24.5999 46.236 25.8332C47.0601 27.0666 47.5 28.5166 47.5 30C47.4978 31.9885 46.7069 33.8948 45.3009 35.3009C43.8948 36.7069 41.9885 37.4978 40 37.5ZM40 25C39.0111 25 38.0444 25.2932 37.2222 25.8427C36.3999 26.3921 35.759 27.173 35.3806 28.0866C35.0022 29.0002 34.9032 30.0055 35.0961 30.9755C35.289 31.9454 35.7652 32.8363 36.4645 33.5355C37.1637 34.2348 38.0546 34.711 39.0245 34.9039C39.9945 35.0969 40.9998 34.9978 41.9134 34.6194C42.827 34.241 43.6079 33.6001 44.1573 32.7778C44.7068 31.9556 45 30.9889 45 30C44.9985 28.6744 44.4712 27.4035 43.5339 26.4661C42.5965 25.5288 41.3256 25.0015 40 25Z" fill="white"/>
<path d="M62.5 52.5H38.75V48.75C38.75 48.4185 38.6183 48.1005 38.3839 47.8661C38.1495 47.6317 37.8315 47.5 37.5 47.5H27.5C27.1685 47.5 26.8505 47.6317 26.6161 47.8661C26.3817 48.1005 26.25 48.4185 26.25 48.75V56.25C26.25 56.5815 26.3817 56.8995 26.6161 57.1339C26.8505 57.3683 27.1685 57.5 27.5 57.5H37.5C37.8315 57.5 38.1495 57.3683 38.3839 57.1339C38.6183 56.8995 38.75 56.5815 38.75 56.25V55H61.25V57.774L42.3462 62.5H27.5C27.1685 62.5 26.8505 62.6317 26.6161 62.8661C26.3817 63.1005 26.25 63.4185 26.25 63.75C26.25 64.0815 26.3817 64.3995 26.6161 64.6339C26.8505 64.8683 27.1685 65 27.5 65H42.5C42.6022 64.9998 42.7041 64.9873 42.8033 64.9628L62.8033 59.9628C63.0737 59.8951 63.3138 59.7389 63.4853 59.5192C63.6568 59.2995 63.75 59.0287 63.75 58.75V53.75C63.75 53.4185 63.6183 53.1005 63.3839 52.8661C63.1495 52.6317 62.8315 52.5 62.5 52.5ZM36.25 55H28.75V50H36.25V55Z" fill="white"/>
<path d="M27.5 45H17.5C16.8096 45 16.25 45.5596 16.25 46.25V66.25C16.25 66.9404 16.8096 67.5 17.5 67.5H27.5C28.1904 67.5 28.75 66.9404 28.75 66.25V46.25C28.75 45.5596 28.1904 45 27.5 45Z" fill="#5292FF"/>
<path d="M25 50C25.6904 50 26.25 49.4404 26.25 48.75C26.25 48.0596 25.6904 47.5 25 47.5C24.3096 47.5 23.75 48.0596 23.75 48.75C23.75 49.4404 24.3096 50 25 50Z" fill="white"/>
<path d="M25 55C25.6904 55 26.25 54.4404 26.25 53.75C26.25 53.0596 25.6904 52.5 25 52.5C24.3096 52.5 23.75 53.0596 23.75 53.75C23.75 54.4404 24.3096 55 25 55Z" fill="white"/>
<path d="M25 60C25.6904 60 26.25 59.4404 26.25 58.75C26.25 58.0596 25.6904 57.5 25 57.5C24.3096 57.5 23.75 58.0596 23.75 58.75C23.75 59.4404 24.3096 60 25 60Z" fill="white"/>
</svg>
