<svg width="58" height="58" viewBox="0 0 58 58" fill="none" xmlns="http://www.w3.org/2000/svg">
<rect width="58" height="58" rx="29" fill="url(#paint0_radial_262_1715)"/>
<path d="M19.6689 28.642C19.6689 32.246 20.6209 34.966 24.0889 34.966C27.5569 34.966 28.5089 32.246 28.5089 28.642C28.5089 25.106 27.5569 22.386 24.0889 22.386C20.6209 22.386 19.6689 25.106 19.6689 28.642ZM26.6049 28.642C26.6049 31.073 26.3499 33.198 24.0889 33.198C21.8279 33.198 21.5729 31.073 21.5729 28.642C21.5729 26.33 21.8279 24.154 24.0889 24.154C26.3499 24.154 26.6049 26.33 26.6049 28.642ZM30.4066 34.83H38.6686V33.215H33.2796C35.2686 31.396 38.3286 29.101 38.3286 26.092C38.3286 23.865 36.9006 22.352 34.3846 22.352C32.1916 22.352 30.4576 23.661 30.3896 26.347H32.2596C32.3106 24.953 33.0416 24.001 34.4016 24.001C35.8466 24.001 36.4076 24.885 36.4076 26.177C36.4076 28.608 33.3306 30.852 30.4066 33.419V34.83Z" fill="white"/>
<defs>
<radialGradient id="paint0_radial_262_1715" cx="0" cy="0" r="1" gradientUnits="userSpaceOnUse" gradientTransform="translate(43.5001 13.3243) rotate(125.727) scale(55.0325)">
<stop stop-color="#383837"/>
<stop offset="0.4375" stop-color="#262322"/>
<stop offset="1" stop-color="#1C1816"/>
</radialGradient>
</defs>
</svg>
