<svg width="146" height="55" viewBox="0 0 146 55" fill="none" xmlns="http://www.w3.org/2000/svg">
<path d="M112 15H118.286V40H112V15Z" fill="url(#paint0_linear_210_1569)"/>
<path d="M121.835 15L133.637 15C136.046 15 138 16.9536 138 19.3634V20.2802H121.835V15ZM131.714 19.2504L138 20.2416V40H131.714V19.2504Z" fill="url(#paint1_linear_210_1569)"/>
<path d="M143 15H146C146 15 146 16.3392 146 20H139V19C139 16.7909 140.791 15 143 15Z" fill="#3D8CEB"/>
<path d="M54 39.5448V15H68.144C71.4304 15 73.9205 15.5564 75.6142 16.6692C77.3332 17.7567 78.1927 19.388 78.1927 21.563C78.1927 22.954 77.8515 24.0541 77.1689 24.8634C76.4864 25.6474 75.5131 26.2291 74.2491 26.6085C73.0104 26.9879 71.5442 27.2281 69.8504 27.3293L70.0021 27.0637C71.2408 27.089 72.4037 27.1775 73.4907 27.3293C74.603 27.481 75.5763 27.7592 76.4105 28.1639C77.2447 28.5685 77.902 29.1376 78.3823 29.871C78.8627 30.5792 79.1028 31.5149 79.1028 32.6783C79.1028 34.1958 78.6983 35.4603 77.8894 36.4719C77.0804 37.4583 75.9555 38.2044 74.5145 38.7102C73.0736 39.216 71.4051 39.4942 69.5091 39.5448H54ZM59.0433 35.3718H68.9783C70.5709 35.3718 71.797 35.1189 72.6565 34.6131C73.516 34.0819 73.9457 33.2473 73.9457 32.1093C73.9457 31.2747 73.6929 30.6677 73.1873 30.2883C72.6817 29.909 72.0118 29.6813 71.1776 29.6055C70.3434 29.5043 69.4459 29.4537 68.4853 29.4537H59.0433V35.3718ZM59.0433 25.3945H67.9544C69.5471 25.3945 70.7731 25.1669 71.6326 24.7117C72.4922 24.2312 72.9219 23.4219 72.9219 22.2838C72.9219 21.1457 72.4922 20.349 71.6326 19.8938C70.7731 19.4133 69.6355 19.173 68.2199 19.173H59.0433V25.3945Z" fill="#262322"/>
<path d="M100.121 33.2853H104.899C104.696 34.5751 104.153 35.7258 103.268 36.7375C102.408 37.7491 101.233 38.5458 99.7415 39.1275C98.25 39.7092 96.4298 40 94.281 40C91.8795 40 89.756 39.6206 87.9105 38.8619C86.0651 38.0779 84.6242 36.9525 83.5877 35.4856C82.5512 34.0187 82.033 32.2484 82.033 30.1745C82.033 28.1007 82.5386 26.3303 83.5498 24.8634C84.561 23.3713 85.964 22.2332 87.7589 21.4492C89.579 20.6651 91.7025 20.2731 94.1294 20.2731C96.6068 20.2731 98.6671 20.6651 100.31 21.4492C101.953 22.2332 103.167 23.4219 103.951 25.0152C104.76 26.5832 105.101 28.5938 104.974 31.047H87.0005C87.1269 32.0081 87.4808 32.8806 88.0622 33.6646C88.6689 34.4487 89.4779 35.0683 90.4891 35.5235C91.5255 35.9788 92.7516 36.2064 94.1673 36.2064C95.7346 36.2064 97.0365 35.9408 98.073 35.4097C99.1348 34.8533 99.8173 34.1452 100.121 33.2853ZM93.9018 24.0288C92.0817 24.0288 90.6028 24.4335 89.4652 25.2428C88.3277 26.0268 87.5945 27.0005 87.2659 28.1639H100.083C99.9563 26.8993 99.3496 25.9004 98.2626 25.1669C97.2009 24.4082 95.7473 24.0288 93.9018 24.0288Z" fill="#262322"/>
<path d="M18.3553 53.4563L20.0695 55C20.6807 54.4516 21.1658 53.8003 21.497 53.0832C21.8283 52.3661 21.9992 51.5974 22 50.8209C22.0008 50.0444 21.8315 49.2754 21.5018 48.5577C21.1721 47.8401 20.6883 47.188 20.0783 46.6385L19.3699 46L19.2608 46.0981C18.6102 46.7534 15.1191 50.5458 18.3553 53.4563Z" fill="url(#paint2_linear_210_1569)"/>
<path d="M30.0327 20.9263C30.0327 20.9263 36.3672 26.3898 30.8594 33L34.3418 29.4996C35.1846 28.6526 35.8531 27.647 36.3092 26.5402C36.7652 25.4335 37 24.2473 37 23.0493C37 21.8514 36.7652 20.6652 36.3092 19.5585C35.8531 18.4517 35.1846 17.4461 34.3418 16.5991L26.7839 9C26.2183 9.56814 25.7697 10.2427 25.4636 10.9852C25.1575 11.7277 25 12.5235 25 13.3272C25 14.1309 25.1575 14.9267 25.4636 15.6692C25.7697 16.4117 26.2183 17.0862 26.7839 17.6544L30.0327 20.9263Z" fill="url(#paint3_linear_210_1569)"/>
<path d="M30.9379 33.8686C36.3623 27.1778 30.1099 21.6501 30.1099 21.6501C30.3843 21.9324 30.6019 22.2678 30.7505 22.6368C30.8991 23.0059 30.9755 23.4015 30.9755 23.8011C30.9755 24.2007 30.8991 24.5963 30.7505 24.9654C30.6019 25.3345 30.3842 25.6697 30.1097 25.952L14.7631 41.766C14.2042 42.3415 13.7608 43.025 13.4582 43.7772C13.1557 44.5294 13 45.3356 13 46.1498C13 46.9641 13.1557 47.7703 13.4582 48.5225C13.7128 49.1555 14.0672 49.7399 14.5063 50.2522L14.5034 50.258L14.5827 50.3397C14.6414 50.4056 14.7016 50.4703 14.7631 50.5337L14.7671 50.5296L18.1353 54C15.139 50.9129 18.3714 46.8905 18.9738 46.1954L30.9379 33.8686Z" fill="url(#paint4_linear_210_1569)"/>
<path d="M35.5629 28.8122C35.8565 28.3442 36.1092 27.8487 36.3172 27.3314C36.768 26.2102 37 25.0084 37 23.7948C37 22.5812 36.768 21.3794 36.3172 20.2582C35.8664 19.1369 35.2057 18.1182 34.3727 17.26L31.2107 14L31.2051 14.0057L34.3688 17.2663C35.2018 18.1244 35.8625 19.1432 36.3133 20.2644C36.7641 21.3857 36.9961 22.5874 36.9961 23.801C36.9961 25.0147 36.7641 26.2164 36.3133 27.3376C36.1062 27.8527 35.8549 28.3461 35.5629 28.8122Z" fill="url(#paint5_linear_210_1569)"/>
<path d="M6.96375 34.079C6.96375 34.079 0.632643 28.6119 6.1375 22L2.65694 25.5013C0.955723 27.2128 0 29.534 0 31.9543C0 34.3746 0.955723 36.6958 2.65694 38.4073L10.2171 46C10.7823 45.4317 11.2307 44.757 11.5366 44.0143C11.8425 43.2716 12 42.4756 12 41.6717C12 40.8678 11.8425 40.0718 11.5366 39.3291C11.2307 38.5864 10.7823 37.9117 10.2171 37.3434L6.96375 34.079Z" fill="url(#paint6_linear_210_1569)"/>
<path d="M23.5452 7.40077C23.292 6.77593 22.9393 6.19926 22.5022 5.69382L22.5076 5.68284L18.9033 2C22.1117 5.27848 18.1331 9.62051 17.983 9.78201L6.19607 21.8324C0.813736 28.4212 7.01855 33.8665 7.01855 33.8665C6.74633 33.5882 6.53066 33.2578 6.38333 32.8941C6.236 32.5305 6.16017 32.1408 6.16017 31.7472C6.16017 31.3536 6.236 30.9639 6.38333 30.6002C6.53066 30.2366 6.74661 29.9062 7.01883 29.6279L22.25 14.0562C22.8048 13.4892 23.2449 12.816 23.5452 12.0751C23.8454 11.3341 24 10.5399 24 9.73792C24 8.93589 23.8454 8.14172 23.5452 7.40077Z" fill="url(#paint7_linear_210_1569)"/>
<path d="M19.6423 1.54426L17.9272 0C17.3162 0.549032 16.8315 1.20091 16.5009 1.9184C16.1702 2.63589 16 3.40492 16 4.18157C16 4.95821 16.1702 5.72724 16.5009 6.44473C16.8315 7.16222 17.3162 7.8141 17.9272 8.36313L18.6355 9L18.6402 8.99577C18.8038 8.84113 23.1357 4.6835 19.6423 1.54426Z" fill="url(#paint8_linear_210_1569)"/>
<defs>
<linearGradient id="paint0_linear_210_1569" x1="100.218" y1="20.1117" x2="124.816" y2="58.8691" gradientUnits="userSpaceOnUse">
<stop stop-color="#36D9FF"/>
<stop offset="1" stop-color="#4A00C5"/>
</linearGradient>
<linearGradient id="paint1_linear_210_1569" x1="100.218" y1="20.1117" x2="124.816" y2="58.8691" gradientUnits="userSpaceOnUse">
<stop stop-color="#36D9FF"/>
<stop offset="1" stop-color="#4A00C5"/>
</linearGradient>
<linearGradient id="paint2_linear_210_1569" x1="23.5655" y1="55.3151" x2="16.5357" y2="45.1196" gradientUnits="userSpaceOnUse">
<stop stop-color="#36D9FF"/>
<stop offset="1" stop-color="#680EE6"/>
</linearGradient>
<linearGradient id="paint3_linear_210_1569" x1="19.562" y1="13.9073" x2="44.6842" y2="32.9374" gradientUnits="userSpaceOnUse">
<stop stop-color="#36D9FF"/>
<stop offset="1" stop-color="#4A00C5"/>
</linearGradient>
<linearGradient id="paint4_linear_210_1569" x1="715.567" y1="2423.21" x2="1473.94" y2="2433.42" gradientUnits="userSpaceOnUse">
<stop stop-color="#36D9FF"/>
<stop offset="1" stop-color="#4A00C5"/>
</linearGradient>
<linearGradient id="paint5_linear_210_1569" x1="715.567" y1="2423.21" x2="1473.94" y2="2433.42" gradientUnits="userSpaceOnUse">
<stop stop-color="#36D9FF"/>
<stop offset="1" stop-color="#4A00C5"/>
</linearGradient>
<linearGradient id="paint6_linear_210_1569" x1="13.1237" y1="29.0255" x2="3.16929" y2="38.921" gradientUnits="userSpaceOnUse">
<stop stop-color="#13ABD4"/>
<stop offset="1" stop-color="#00E5C2"/>
</linearGradient>
<linearGradient id="paint7_linear_210_1569" x1="720.472" y1="1789.06" x2="1473.18" y2="1799.29" gradientUnits="userSpaceOnUse">
<stop stop-color="#00E5C2"/>
<stop offset="1" stop-color="#1899D9"/>
</linearGradient>
<linearGradient id="paint8_linear_210_1569" x1="14.4888" y1="-0.317888" x2="21.6095" y2="9.6277" gradientUnits="userSpaceOnUse">
<stop stop-color="#00E5C2"/>
<stop offset="1" stop-color="#1899D9"/>
</linearGradient>
</defs>
</svg>
