<svg width="60" height="60" viewBox="0 0 60 60" fill="none" xmlns="http://www.w3.org/2000/svg">
<path d="M52.1975 24.5023C52.3959 23.5348 52.4972 22.5501 52.5001 21.5625C52.5025 18.3676 51.4839 15.2555 49.5931 12.6803C47.7022 10.105 45.0379 8.20133 41.9889 7.24692C38.9399 6.29251 35.6657 6.33732 32.6439 7.37481C29.6222 8.41231 27.011 10.3882 25.1913 13.0142C23.906 12.3986 22.4855 12.119 21.0627 12.2017C19.64 12.2843 18.2614 12.7265 17.056 13.4868C15.8506 14.2471 14.8577 15.3007 14.1702 16.5491C13.4828 17.7975 13.1232 19.1999 13.1251 20.625C13.1254 20.9945 13.1511 21.3636 13.202 21.7296C10.6629 22.1781 8.38416 23.562 6.81529 25.6081C5.24641 27.6542 4.50135 30.214 4.72711 32.7825C4.95286 35.3509 6.13303 37.7415 8.03477 39.4826C9.93651 41.2237 12.4217 42.1888 15.0001 42.1875H16.8751V26.25H43.1251V42.1875H45.0001C47.0503 42.1893 49.0545 41.5794 50.7562 40.4358C52.4579 39.2922 53.7797 37.6669 54.5525 35.7679C55.3254 33.8689 55.5141 31.7825 55.0946 29.7756C54.6751 27.7688 53.6664 25.9327 52.1975 24.5023Z" fill="#1268FB"/>
<path d="M49.5429 20.625C49.3192 20.6249 49.1029 20.5447 48.9331 20.3989C48.7634 20.2532 48.6514 20.0515 48.6173 19.8304C48.3432 18.0877 47.6644 16.4335 46.6354 15.0005C45.6063 13.5676 44.2558 12.3958 42.692 11.5792C42.5829 11.5223 42.486 11.4445 42.4069 11.3502C42.3278 11.2559 42.268 11.1469 42.231 11.0295C42.1941 10.9121 42.1806 10.7885 42.1913 10.6659C42.2021 10.5433 42.2369 10.424 42.2938 10.3148C42.3506 10.2057 42.4285 10.1088 42.5228 10.0297C42.6171 9.95058 42.7261 9.89083 42.8435 9.85385C42.9609 9.81687 43.0844 9.80337 43.207 9.81414C43.3296 9.8249 43.4489 9.85971 43.5581 9.91658C45.3826 10.8695 46.9583 12.2369 48.1587 13.909C49.3592 15.581 50.1509 17.5113 50.4703 19.5447C50.5081 19.7904 50.4467 20.0411 50.2998 20.2416C50.1528 20.4421 49.9323 20.5761 49.6866 20.614C49.6391 20.6213 49.591 20.625 49.5429 20.625Z" fill="#2A3C4C"/>
<path d="M43.125 53.4375H16.875C16.7519 53.4375 16.63 53.4133 16.5162 53.3662C16.4024 53.3191 16.2991 53.25 16.212 53.163C16.125 53.0759 16.0559 52.9726 16.0088 52.8588C15.9617 52.745 15.9375 52.6231 15.9375 52.5V26.25C15.9375 26.1269 15.9617 26.005 16.0088 25.8912C16.0559 25.7774 16.125 25.6741 16.212 25.587C16.2991 25.5 16.4024 25.4309 16.5162 25.3838C16.63 25.3367 16.7519 25.3125 16.875 25.3125H43.125C43.2481 25.3125 43.37 25.3367 43.4838 25.3838C43.5976 25.4309 43.7009 25.5 43.788 25.587C43.875 25.6741 43.9441 25.7774 43.9912 25.8912C44.0383 26.005 44.0625 26.1269 44.0625 26.25V52.5C44.0625 52.6231 44.0383 52.745 43.9912 52.8588C43.9441 52.9726 43.875 53.0759 43.788 53.163C43.7009 53.25 43.5976 53.3191 43.4838 53.3662C43.37 53.4133 43.2481 53.4375 43.125 53.4375ZM17.8125 51.5625H42.1875V27.1875H17.8125V51.5625Z" fill="#2A3C4C"/>
<path d="M38.3662 40.8911C38.2953 40.7198 38.1751 40.5734 38.021 40.4704C37.8668 40.3674 37.6856 40.3125 37.5002 40.3125H33.7502V30C33.7502 29.8769 33.726 29.755 33.6789 29.6412C33.6318 29.5274 33.5627 29.4241 33.4756 29.337C33.3886 29.25 33.2852 29.1809 33.1715 29.1338C33.0577 29.0867 32.9358 29.0625 32.8127 29.0625H27.1877C27.0645 29.0625 26.9426 29.0867 26.8289 29.1338C26.7151 29.1809 26.6117 29.25 26.5247 29.337C26.4376 29.4241 26.3686 29.5274 26.3215 29.6412C26.2744 29.755 26.2501 29.8769 26.2502 30V40.3125H22.5002C22.3148 40.3125 22.1335 40.3675 21.9793 40.4705C21.8252 40.5735 21.705 40.7199 21.6341 40.8912C21.5631 41.0625 21.5446 41.251 21.5808 41.4328C21.6169 41.6147 21.7062 41.7817 21.8374 41.9128L29.3373 49.4128C29.4244 49.4999 29.5277 49.569 29.6414 49.6161C29.7552 49.6632 29.8771 49.6875 30.0002 49.6875C30.1233 49.6875 30.2452 49.6632 30.3589 49.6161C30.4727 49.569 30.576 49.4999 30.663 49.4128L38.163 41.9128C38.2943 41.7818 38.3836 41.6147 38.4198 41.4328C38.456 41.2509 38.4373 41.0624 38.3662 40.8911Z" fill="#1268FB"/>
<path d="M39.375 30.9375C39.8928 30.9375 40.3125 30.5178 40.3125 30C40.3125 29.4822 39.8928 29.0625 39.375 29.0625C38.8572 29.0625 38.4375 29.4822 38.4375 30C38.4375 30.5178 38.8572 30.9375 39.375 30.9375Z" fill="#2A3C4C"/>
<path d="M39.375 34.6875C39.8928 34.6875 40.3125 34.2678 40.3125 33.75C40.3125 33.2322 39.8928 32.8125 39.375 32.8125C38.8572 32.8125 38.4375 33.2322 38.4375 33.75C38.4375 34.2678 38.8572 34.6875 39.375 34.6875Z" fill="#2A3C4C"/>
<path d="M39.375 38.4375C39.8928 38.4375 40.3125 38.0178 40.3125 37.5C40.3125 36.9822 39.8928 36.5625 39.375 36.5625C38.8572 36.5625 38.4375 36.9822 38.4375 37.5C38.4375 38.0178 38.8572 38.4375 39.375 38.4375Z" fill="#2A3C4C"/>
</svg>
