<svg width="150" height="55" viewBox="0 0 150 55" fill="none" xmlns="http://www.w3.org/2000/svg">
<path d="M115 15H120.27V40H115V15Z" fill="white"/>
<path d="M124.835 15L136.711 15C139.08 15 141 16.9203 141 19.289H124.835V15ZM135.73 19.2504H141V40H135.73V19.2504Z" fill="white"/>
<path d="M147.275 15H141C141 15 143.077 16.6448 143.077 19H150V17.7251C150 16.2201 148.78 15 147.275 15Z" fill="white"/>
<path d="M20.2142 55L15 49.5186L19.3081 45L20.2224 45.9629C20.7867 46.5567 21.2341 47.2616 21.5391 48.0372C21.8442 48.8128 22.0008 49.644 22 50.4832C21.9992 51.3225 21.8411 52.1533 21.5347 52.9283C21.2283 53.7033 20.7796 54.4073 20.2142 55Z" fill="white"/>
<path d="M27.5288 18.3178L30.8226 21.5385C31.1085 21.8166 31.3353 22.147 31.4901 22.5107C31.6448 22.8743 31.7245 23.2642 31.7245 23.6579C31.7245 24.0517 31.6448 24.4415 31.4901 24.8052C31.3353 25.1689 31.1085 25.4993 30.8226 25.7774L14.8366 41.3603C14.2543 41.9275 13.7924 42.6009 13.4773 43.3422C13.1622 44.0834 13 44.8778 13 45.6802C13 46.4825 13.1622 47.277 13.4773 48.0182C13.7924 48.7594 14.2543 49.4328 14.8366 50L35.2633 30.091C36.1309 29.2454 36.8192 28.2415 37.2887 27.1367C37.7583 26.0318 38 24.8476 38 23.6517C38 22.4558 37.7583 21.2716 37.2887 20.1668C36.8192 19.0619 36.1309 18.058 35.2633 17.2124L31.9695 14L27.5288 18.3178Z" fill="white"/>
<path d="M31.0327 20.9263C31.0327 20.9263 37.3672 26.3898 31.8594 33L35.3418 29.4996C36.1846 28.6526 36.8531 27.647 37.3092 26.5402C37.7653 25.4335 38 24.2473 38 23.0493C38 21.8514 37.7653 20.6652 37.3092 19.5585C36.8531 18.4517 36.1846 17.4461 35.3418 16.5991L27.7839 9C27.2183 9.56814 26.7697 10.2427 26.4636 10.9852C26.1575 11.7277 26 12.5235 26 13.3272C26 14.1309 26.1575 14.9267 26.4636 15.6692C26.7697 16.4117 27.2183 17.0862 27.7839 17.6544L31.0327 20.9263Z" fill="white"/>
<path d="M20 45.7648C20 45.7648 15.3738 50.4697 18.9794 54L15 50.1037L17.603 45L20 45.7648Z" fill="white"/>
<path d="M17.7828 0L23 5.48048L18.6976 10L17.7828 9.03904C17.2176 8.44563 16.7692 7.74107 16.4633 6.96559C16.1574 6.19012 16 5.35893 16 4.51952C16 3.68011 16.1574 2.84892 16.4633 2.07345C16.7692 1.29797 17.2176 0.593405 17.7828 0Z" fill="white"/>
<path d="M10.4712 36.6739L7.17748 33.4636C6.89177 33.1852 6.66513 32.8546 6.5105 32.4907C6.35587 32.1269 6.27628 31.7369 6.27628 31.3431C6.27628 30.9493 6.35587 30.5593 6.5105 30.1955C6.66513 29.8317 6.89177 29.5011 7.17748 29.2226L23.1633 13.6417C23.7456 13.0744 24.2075 12.4008 24.5226 11.6594C24.8378 10.918 25 10.1234 25 9.32087C25 8.51837 24.8378 7.72374 24.5226 6.98235C24.2075 6.24096 23.7456 5.56735 23.1633 5L2.73687 24.909C0.984476 26.6171 0 28.9338 0 31.3493C0 33.7649 0.984476 36.0816 2.73687 37.7897L6.03063 41L10.4712 36.6739Z" fill="white"/>
<path d="M6.96375 34.079C6.96375 34.079 0.632643 28.6119 6.1375 22L2.65694 25.5013C0.955723 27.2128 0 29.534 0 31.9543C0 34.3746 0.955723 36.6958 2.65694 38.4073L10.2171 46C10.7823 45.4317 11.2307 44.757 11.5366 44.0143C11.8425 43.2716 12 42.4756 12 41.6717C12 40.8678 11.8425 40.0718 11.5366 39.3291C11.2307 38.5864 10.7823 37.9117 10.2171 37.3434L6.96375 34.079Z" fill="white"/>
<path d="M19 10.235C19 10.235 23.6307 5.53337 20.0206 2L24 5.89503L21.3926 11L19 10.235Z" fill="white"/>
<path d="M53 39.5448V15H67.144C70.4304 15 72.9205 15.5564 74.6142 16.6692C76.3332 17.7567 77.1927 19.388 77.1927 21.563C77.1927 22.954 76.8515 24.0541 76.1689 24.8634C75.4864 25.6474 74.5131 26.2291 73.2491 26.6085C72.0104 26.9879 70.5442 27.2281 68.8504 27.3293L69.0021 27.0637C70.2408 27.089 71.4037 27.1775 72.4907 27.3293C73.603 27.481 74.5763 27.7592 75.4105 28.1639C76.2447 28.5685 76.902 29.1376 77.3823 29.871C77.8627 30.5792 78.1028 31.5149 78.1028 32.6783C78.1028 34.1958 77.6983 35.4603 76.8894 36.4719C76.0804 37.4583 74.9555 38.2044 73.5145 38.7102C72.0736 39.216 70.4051 39.4942 68.5091 39.5448H53ZM58.0433 35.3718H67.9783C69.5709 35.3718 70.797 35.1189 71.6565 34.6131C72.516 34.0819 72.9457 33.2473 72.9457 32.1093C72.9457 31.2747 72.6929 30.6677 72.1873 30.2883C71.6817 29.909 71.0118 29.6813 70.1776 29.6055C69.3434 29.5043 68.4459 29.4537 67.4853 29.4537H58.0433V35.3718ZM58.0433 25.3945H66.9544C68.5471 25.3945 69.7731 25.1669 70.6326 24.7117C71.4922 24.2312 71.9219 23.4219 71.9219 22.2838C71.9219 21.1457 71.4922 20.349 70.6326 19.8938C69.7731 19.4133 68.6355 19.173 67.2199 19.173H58.0433V25.3945Z" fill="white"/>
<path d="M99.1207 33.2853H103.899C103.696 34.5751 103.153 35.7258 102.268 36.7375C101.408 37.7491 100.233 38.5458 98.7415 39.1275C97.25 39.7092 95.4298 40 93.281 40C90.8795 40 88.756 39.6206 86.9105 38.8619C85.0651 38.0779 83.6242 36.9525 82.5877 35.4856C81.5512 34.0187 81.033 32.2484 81.033 30.1745C81.033 28.1007 81.5386 26.3303 82.5498 24.8634C83.561 23.3713 84.964 22.2332 86.7589 21.4492C88.579 20.6651 90.7025 20.2731 93.1294 20.2731C95.6068 20.2731 97.6671 20.6651 99.3103 21.4492C100.953 22.2332 102.167 23.4219 102.951 25.0152C103.76 26.5832 104.101 28.5938 103.974 31.047H86.0005C86.1269 32.0081 86.4808 32.8806 87.0622 33.6646C87.6689 34.4487 88.4779 35.0683 89.4891 35.5235C90.5255 35.9788 91.7516 36.2064 93.1673 36.2064C94.7346 36.2064 96.0365 35.9408 97.073 35.4097C98.1348 34.8533 98.8173 34.1452 99.1207 33.2853ZM92.9018 24.0288C91.0817 24.0288 89.6028 24.4335 88.4652 25.2428C87.3277 26.0268 86.5945 27.0005 86.2659 28.1639H99.0827C98.9563 26.8993 98.3496 25.9004 97.2626 25.1669C96.2009 24.4082 94.7473 24.0288 92.9018 24.0288Z" fill="white"/>
</svg>
