<svg width="80" height="80" viewBox="0 0 80 80" fill="none" xmlns="http://www.w3.org/2000/svg">
<path d="M20 12.5H15C14.3096 12.5 13.75 13.0596 13.75 13.75V41.25C13.75 41.9404 14.3096 42.5 15 42.5H20C20.6904 42.5 21.25 41.9404 21.25 41.25V13.75C21.25 13.0596 20.6904 12.5 20 12.5Z" fill="#5292FF"/>
<path d="M65 12.5H60C59.3096 12.5 58.75 13.0596 58.75 13.75V41.25C58.75 41.9404 59.3096 42.5 60 42.5H65C65.6904 42.5 66.25 41.9404 66.25 41.25V13.75C66.25 13.0596 65.6904 12.5 65 12.5Z" fill="#5292FF"/>
<path d="M40 37.5C42.0711 37.5 43.75 35.8211 43.75 33.75C43.75 31.6789 42.0711 30 40 30C37.9289 30 36.25 31.6789 36.25 33.75C36.25 35.8211 37.9289 37.5 40 37.5Z" fill="#5292FF"/>
<path d="M45.0002 29.4104C44.6927 29.4108 44.3959 29.2973 44.1671 29.0918C43.006 28.0983 41.5283 27.5524 40.0002 27.5524C38.4721 27.5524 36.9943 28.0983 35.8333 29.0918C35.5863 29.313 35.2616 29.4269 34.9305 29.4086C34.5995 29.3903 34.2893 29.2412 34.0682 28.9942C33.847 28.7472 33.7331 28.4224 33.7514 28.0914C33.7697 27.7603 33.9188 27.4501 34.1658 27.229C35.7702 25.7936 37.8474 25 40.0002 25C42.153 25 44.2302 25.7936 45.8346 27.229C46.0232 27.3979 46.1561 27.62 46.2158 27.8661C46.2754 28.1122 46.2589 28.3705 46.1684 28.607C46.078 28.8435 45.9178 29.0469 45.7092 29.1904C45.5006 29.3338 45.2534 29.4106 45.0002 29.4104Z" fill="white"/>
<path d="M47.4992 25C47.2289 25.0001 46.9658 24.9123 46.7497 24.7498C44.8024 23.2894 42.434 22.5 39.9999 22.5C37.5658 22.5 35.1973 23.2894 33.25 24.7498C32.9848 24.9489 32.6515 25.0345 32.3232 24.9878C31.9949 24.9411 31.6986 24.7659 31.4995 24.5007C31.3004 24.2356 31.2148 23.9022 31.2615 23.5739C31.3082 23.2456 31.4834 22.9494 31.7485 22.7502C34.129 20.965 37.0243 20 39.9999 20C42.9754 20 45.8707 20.965 48.2512 22.7502C48.4609 22.9079 48.6158 23.1275 48.6938 23.378C48.7718 23.6285 48.769 23.8972 48.6858 24.1461C48.6027 24.3949 48.4433 24.6113 48.2304 24.7645C48.0174 24.9178 47.7616 25.0002 47.4992 25Z" fill="white"/>
<path d="M49.9986 20.6372C49.7432 20.6371 49.4939 20.5587 49.2845 20.4126C46.5596 18.5164 43.3195 17.5 39.9998 17.5C36.6801 17.5 33.44 18.5164 30.7151 20.4126C30.4432 20.6023 30.107 20.6762 29.7805 20.6181C29.4541 20.5599 29.1641 20.3745 28.9744 20.1025C28.7847 19.8306 28.7107 19.4944 28.7689 19.168C28.827 18.8415 29.0125 18.5515 29.2844 18.3618C32.4291 16.1732 36.1685 15 39.9998 15C43.8311 15 47.5705 16.1732 50.7151 18.3618C50.9335 18.5141 51.0976 18.732 51.1834 18.984C51.2693 19.236 51.2725 19.5088 51.1925 19.7627C51.1126 20.0166 50.9536 20.2383 50.7389 20.3956C50.5241 20.5529 50.2648 20.6376 49.9986 20.6372Z" fill="white"/>
<path d="M16.25 47.5C16.9404 47.5 17.5 46.9404 17.5 46.25C17.5 45.5596 16.9404 45 16.25 45C15.5596 45 15 45.5596 15 46.25C15 46.9404 15.5596 47.5 16.25 47.5Z" fill="white"/>
<path d="M21.25 47.5C21.9404 47.5 22.5 46.9404 22.5 46.25C22.5 45.5596 21.9404 45 21.25 45C20.5596 45 20 45.5596 20 46.25C20 46.9404 20.5596 47.5 21.25 47.5Z" fill="white"/>
<path d="M26.25 47.5C26.9404 47.5 27.5 46.9404 27.5 46.25C27.5 45.5596 26.9404 45 26.25 45C25.5596 45 25 45.5596 25 46.25C25 46.9404 25.5596 47.5 26.25 47.5Z" fill="white"/>
<path d="M63.75 52.5C64.4404 52.5 65 51.9404 65 51.25C65 50.5596 64.4404 50 63.75 50C63.0596 50 62.5 50.5596 62.5 51.25C62.5 51.9404 63.0596 52.5 63.75 52.5Z" fill="white"/>
<path d="M58.75 52.5C59.4404 52.5 60 51.9404 60 51.25C60 50.5596 59.4404 50 58.75 50C58.0596 50 57.5 50.5596 57.5 51.25C57.5 51.9404 58.0596 52.5 58.75 52.5Z" fill="white"/>
<path d="M68.75 40H11.25C11.0858 40 10.9233 40.0323 10.7716 40.0951C10.6199 40.1579 10.4821 40.2499 10.366 40.366C10.2499 40.4821 10.1579 40.6199 10.0951 40.7716C10.0323 40.9233 9.99996 41.0858 10 41.25V61.25C9.99996 61.4142 10.0323 61.5767 10.0951 61.7284C10.1579 61.8801 10.2499 62.0179 10.366 62.134C10.4821 62.2501 10.6199 62.3421 10.7716 62.4049C10.9233 62.4677 11.0858 62.5 11.25 62.5H12.5V66.25C12.5 66.4142 12.5323 66.5767 12.5951 66.7284C12.6579 66.8801 12.7499 67.0179 12.866 67.134C12.9821 67.2501 13.1199 67.3421 13.2716 67.4049C13.4233 67.4677 13.5858 67.5 13.75 67.5H21.25C21.4142 67.5 21.5767 67.4677 21.7284 67.4049C21.8801 67.3421 22.0179 67.2501 22.134 67.134C22.2501 67.0179 22.3421 66.8801 22.4049 66.7284C22.4677 66.5767 22.5 66.4142 22.5 66.25V62.5H57.5V66.25C57.5 66.4142 57.5323 66.5767 57.5951 66.7284C57.6579 66.8801 57.7499 67.0179 57.866 67.134C57.9821 67.2501 58.1199 67.3421 58.2716 67.4049C58.4233 67.4677 58.5858 67.5 58.75 67.5H66.25C66.4142 67.5 66.5767 67.4677 66.7284 67.4049C66.8801 67.3421 67.0179 67.2501 67.134 67.134C67.2501 67.0179 67.3421 66.8801 67.4049 66.7284C67.4677 66.5767 67.5 66.4142 67.5 66.25V62.5H68.75C68.9142 62.5 69.0767 62.4677 69.2284 62.4049C69.3801 62.3421 69.5179 62.2501 69.634 62.134C69.7501 62.0179 69.8421 61.8801 69.9049 61.7284C69.9677 61.5767 70 61.4142 70 61.25V41.25C70 41.0858 69.9677 40.9233 69.9049 40.7716C69.8421 40.6199 69.7501 40.4821 69.634 40.366C69.5179 40.2499 69.3801 40.1579 69.2284 40.0951C69.0767 40.0323 68.9142 40 68.75 40ZM20 65H15V62.5H20V65ZM65 65H60V62.5H65V65ZM67.5 45H31.25C30.9185 45 30.6005 45.1317 30.3661 45.3661C30.1317 45.6005 30 45.9185 30 46.25C30 46.5815 30.1317 46.8995 30.3661 47.1339C30.6005 47.3683 30.9185 47.5 31.25 47.5H67.5V60H12.5V42.5H67.5V45Z" fill="white"/>
<path d="M68.75 55H11.25C10.5596 55 10 55.5596 10 56.25V61.25C10 61.9404 10.5596 62.5 11.25 62.5H68.75C69.4404 62.5 70 61.9404 70 61.25V56.25C70 55.5596 69.4404 55 68.75 55Z" fill="#5292FF"/>
</svg>
