<svg width="109" height="97" viewBox="0 0 109 97" fill="none" xmlns="http://www.w3.org/2000/svg">
<path d="M0.909375 48.38C0.909375 48.1562 0.909876 47.9328 0.910883 47.7099L-0.0891064 47.7054C-0.0901209 47.9298 -0.0906247 48.1547 -0.0906247 48.38H0.909375ZM0.923069 46.3777C0.929254 45.9312 0.937562 45.4867 0.948048 45.0441L-0.051671 45.0204C-0.0622364 45.4663 -0.0706053 45.9142 -0.076835 46.3639L0.923069 46.3777ZM0.986358 43.7145C1.00156 43.2677 1.01908 42.8231 1.03897 42.3807L0.0399785 42.3358C0.0199184 42.7819 0.0022581 43.2302 -0.0130633 43.6805L0.986358 43.7145ZM1.10612 41.055C1.13134 40.6081 1.15909 40.1636 1.18944 39.7215L0.19179 39.653C0.161156 40.0992 0.133149 40.5478 0.107704 40.9986L1.10612 41.055ZM1.28874 38.3977C1.32505 37.9521 1.36411 37.5092 1.40601 37.0689L0.410502 36.9742C0.368173 37.4191 0.328709 37.8665 0.292043 38.3165L1.28874 38.3977ZM1.54129 35.7465C1.58985 35.3034 1.64141 34.8632 1.69604 34.426L0.703753 34.302C0.648484 34.7444 0.596338 35.1896 0.547243 35.6376L1.54129 35.7465ZM1.87161 33.1063C1.93374 32.6666 1.99912 32.2301 2.06785 31.7969L1.0802 31.6402C1.01057 32.0792 0.944343 32.5212 0.881446 32.9664L1.87161 33.1063ZM2.28861 30.4817C2.36626 30.0437 2.44751 29.6092 2.53243 29.1784L1.55131 28.985C1.46513 29.4222 1.3827 29.863 1.30396 30.3071L2.28861 30.4817ZM2.80225 27.8788C2.8974 27.4431 2.99652 27.0115 3.09969 26.5839L2.12759 26.3493C2.02268 26.7841 1.92194 27.2229 1.82528 27.6654L2.80225 27.8788ZM3.42434 25.3026C3.53891 24.8716 3.65785 24.445 3.78125 24.023L2.82144 23.7423C2.69567 24.1724 2.57453 24.6069 2.4579 25.0457L3.42434 25.3026ZM4.1695 22.7564C4.30489 22.3348 4.44502 21.9181 4.59 21.5063L3.64676 21.1742C3.49863 21.5949 3.35554 22.0204 3.21738 22.4507L4.1695 22.7564ZM5.04911 20.2615C5.20891 19.8475 5.37397 19.4391 5.54438 19.0362L4.62338 18.6466C4.44875 19.0595 4.27973 19.4778 4.11621 19.9013L5.04911 20.2615ZM6.07755 17.8319C6.26408 17.4292 6.45637 17.0326 6.65455 16.6422L5.76285 16.1895C5.55913 16.5909 5.36161 16.9983 5.17017 17.4116L6.07755 17.8319ZM7.27359 15.4775C7.48807 15.092 7.70879 14.7132 7.93588 14.341L7.08226 13.8201C6.84805 14.2039 6.6206 14.5944 6.39975 14.9913L7.27359 15.4775ZM8.64489 13.2322C8.89027 12.8659 9.14242 12.5069 9.40148 12.1551L8.5963 11.5621C8.32827 11.926 8.06759 12.2972 7.81411 12.6756L8.64489 13.2322ZM10.2046 11.1158C10.4809 10.7751 10.7644 10.442 11.0552 10.1167L10.3097 9.45016C10.008 9.78762 9.7141 10.133 9.42784 10.486L10.2046 11.1158ZM11.9543 9.16C12.2617 8.84891 12.5767 8.54583 12.8994 8.25095L12.2249 7.51272C11.8894 7.8192 11.5622 8.13407 11.243 8.45714L11.9543 9.16ZM13.8897 7.39201C14.2268 7.11467 14.5717 6.84559 14.9247 6.58492L14.3306 5.78051C13.9636 6.05159 13.6049 6.33142 13.2544 6.61979L13.8897 7.39201ZM15.998 5.83481C16.3604 5.5953 16.7308 5.36405 17.1093 5.14121L16.6019 4.27948C16.2086 4.51107 15.8236 4.75146 15.4467 5.0005L15.998 5.83481ZM18.2575 4.50412C18.6426 4.30307 19.0356 4.11016 19.4365 3.92556L19.0183 3.0172C18.6024 3.20869 18.1946 3.40889 17.7947 3.61766L18.2575 4.50412ZM20.639 3.40677C21.0415 3.24435 21.4517 3.08981 21.8697 2.94331L21.5389 1.9996C21.1065 2.15116 20.6819 2.31114 20.2648 2.4794L20.639 3.40677ZM23.1236 2.53507C23.5371 2.41046 23.9578 2.29329 24.3857 2.18369L24.1377 1.21495C23.6963 1.32797 23.2621 1.4489 22.835 1.57761L23.1236 2.53507ZM25.6707 1.88224C26.0955 1.79143 26.5273 1.70773 26.9659 1.63124L26.7941 0.646103C26.3432 0.724725 25.8991 0.81083 25.4617 0.904321L25.6707 1.88224ZM28.2647 1.42879C28.6984 1.369 29.1386 1.31596 29.5854 1.26976L29.4825 0.275067C29.0247 0.322403 28.5733 0.376795 28.1282 0.438157L28.2647 1.42879ZM30.8918 1.15564C31.3274 1.12442 31.769 1.09945 32.2165 1.08081L32.1749 0.0816799C31.7176 0.100722 31.2661 0.126252 30.8204 0.158198L30.8918 1.15564ZM33.5365 1.04455C33.7593 1.04152 33.9836 1.03999 34.2094 1.03999V0.0399944C33.9791 0.0399944 33.7503 0.0415467 33.5229 0.044643L33.5365 1.04455ZM34.2094 1.03999C34.4351 1.03999 34.6594 1.04152 34.8822 1.04455L34.8959 0.0446427C34.6684 0.0415466 34.4396 0.0399944 34.2094 0.0399944V1.03999ZM36.2022 1.08081C36.6498 1.09945 37.0913 1.12442 37.5269 1.15564L37.5984 0.158197C37.1527 0.126251 36.7012 0.100721 36.2438 0.0816791L36.2022 1.08081ZM38.8334 1.26976C39.2801 1.31595 39.7203 1.369 40.154 1.42879L40.2906 0.438155C39.8455 0.376793 39.394 0.322401 38.9362 0.275065L38.8334 1.26976ZM41.4528 1.63124C41.8915 1.70772 42.3232 1.79143 42.7481 1.88223L42.9571 0.904317C42.5196 0.810826 42.0755 0.724722 41.6246 0.6461L41.4528 1.63124ZM44.033 2.18368C44.461 2.29328 44.8817 2.41046 45.2952 2.53507L45.5837 1.5776C45.1566 1.44889 44.7224 1.32797 44.2811 1.21494L44.033 2.18368ZM46.549 2.9433C46.967 3.08981 47.3772 3.24435 47.7798 3.40677L48.1539 2.4794C47.7369 2.31113 47.3122 2.15116 46.8798 1.9996L46.549 2.9433ZM48.9822 3.92556C49.3832 4.11015 49.7761 4.30306 50.1612 4.50411L50.624 3.61766C50.2242 3.40888 49.8163 3.20868 49.4004 3.0172L48.9822 3.92556ZM51.3094 5.1412C51.6879 5.36404 52.0583 5.5953 52.4208 5.83481L52.9721 5.00049C52.5952 4.75146 52.2101 4.51106 51.8168 4.27948L51.3094 5.1412ZM53.494 6.58492C53.847 6.84558 54.1919 7.11466 54.529 7.392L55.1644 6.61978C54.8139 6.33141 54.4552 6.05159 54.0881 5.78051L53.494 6.58492ZM55.5193 8.25094C55.8421 8.54583 56.1571 8.8489 56.4645 9.15999L57.1758 8.45713C56.8566 8.13406 56.5293 7.81919 56.1939 7.51271L55.5193 8.25094ZM57.3635 10.1167C57.6544 10.442 57.9379 10.7751 58.2141 11.1158L58.9909 10.486C58.7046 10.133 58.4107 9.78761 58.109 9.45015L57.3635 10.1167ZM59.0173 12.1551C59.2763 12.5069 59.5285 12.8659 59.7739 13.2322L60.6046 12.6756C60.3512 12.2972 60.0905 11.926 59.8224 11.5621L59.0173 12.1551ZM60.4829 14.341C60.71 14.7131 60.9307 15.092 61.1452 15.4775L62.019 14.9913C61.7982 14.5944 61.5707 14.2039 61.3365 13.8201L60.4829 14.341ZM61.7642 16.6422C61.9624 17.0326 62.1547 17.4292 62.3412 17.8319L63.2486 17.4116C63.0571 16.9983 62.8596 16.5909 62.6559 16.1895L61.7642 16.6422ZM62.8744 19.0361C63.0448 19.439 63.2098 19.8475 63.3696 20.2615L64.3025 19.9013C64.139 19.4778 63.97 19.0595 63.7954 18.6466L62.8744 19.0361ZM63.8288 21.5063C63.9737 21.918 64.1139 22.3348 64.2492 22.7564L65.2014 22.4507C65.0632 22.0204 64.9201 21.5949 64.772 21.1742L63.8288 21.5063ZM64.6375 24.0229C64.7609 24.445 64.8798 24.8715 64.9944 25.3026L65.9608 25.0457C65.8442 24.6069 65.7231 24.1724 65.5973 23.7423L64.6375 24.0229ZM65.3191 26.5838C65.4222 27.0114 65.5214 27.4431 65.6165 27.8788L66.5935 27.6654C66.4968 27.2228 66.3961 26.7841 66.2912 26.3493L65.3191 26.5838ZM65.8863 29.1783C65.9712 29.6092 66.0525 30.0437 66.1301 30.4817L67.1148 30.3071C67.0361 29.863 66.9536 29.4222 66.8674 28.985L65.8863 29.1783ZM66.3509 31.7969C66.4196 32.2301 66.485 32.6666 66.5471 33.1063L67.5373 32.9664C67.4744 32.5212 67.4082 32.0791 67.3386 31.6402L66.3509 31.7969ZM66.7227 34.426C66.7773 34.8632 66.8289 35.3034 66.8775 35.7465L67.8715 35.6375C67.8224 35.1896 67.7703 34.7444 67.715 34.302L66.7227 34.426ZM67.0127 37.0689C67.0546 37.5092 67.0937 37.9521 67.13 38.3977L68.1267 38.3164C68.09 37.8665 68.0506 37.419 68.0083 36.9742L67.0127 37.0689ZM67.2293 39.7215C67.2597 40.1636 67.2874 40.6081 67.3126 41.055L68.3111 40.9986C68.2856 40.5478 68.2576 40.0992 68.227 39.653L67.2293 39.7215ZM67.3798 42.3807C67.3997 42.8231 67.4172 43.2677 67.4324 43.7144L68.4318 43.6804C68.4165 43.2302 68.3988 42.7819 68.3788 42.3357L67.3798 42.3807ZM67.4707 45.044C67.4812 45.4866 67.4895 45.9312 67.4957 46.3777L68.4956 46.3638C68.4894 45.9142 68.481 45.4663 68.4704 45.0204L67.4707 45.044ZM67.5079 47.7099C67.5089 47.9328 67.5094 48.1562 67.5094 48.38H68.5094C68.5094 48.1547 68.5089 47.9298 68.5079 47.7053L67.5079 47.7099ZM67.5094 48.38C67.5094 48.6056 67.5089 48.8307 67.5079 49.0554L68.5079 49.0597C68.5089 48.8336 68.5094 48.607 68.5094 48.38H67.5094ZM67.496 50.3975C67.4899 50.8474 67.4818 51.2952 67.4716 51.741L68.4713 51.764C68.4816 51.3149 68.4898 50.8639 68.4959 50.411L67.496 50.3975ZM67.4341 53.0808C67.4192 53.5309 67.4021 53.9787 67.3826 54.4243L68.3817 54.468C68.4013 54.0188 68.4186 53.5674 68.4335 53.1138L67.4341 53.0808ZM67.3168 55.7605C67.2922 56.2107 67.265 56.6585 67.2353 57.1037L68.233 57.1703C68.263 56.721 68.2904 56.2693 68.3153 55.8153L67.3168 55.7605ZM67.138 58.4366C67.1024 58.8861 67.0641 59.3329 67.023 59.7769L68.0187 59.8691C68.0602 59.4206 68.0989 58.9694 68.1349 58.5156L67.138 58.4366ZM66.8904 61.1085C66.8427 61.5556 66.7921 61.9997 66.7384 62.4407L67.7311 62.5615C67.7853 62.1154 67.8366 61.6664 67.8848 61.2145L66.8904 61.1085ZM66.5662 63.7699C66.5051 64.2137 66.4408 64.6542 66.3732 65.0914L67.3615 65.2442C67.4299 64.8014 67.495 64.3554 67.5568 63.9063L66.5662 63.7699ZM66.1564 66.4164C66.0801 66.8577 66.0003 67.2953 65.9169 67.7292L66.899 67.9179C66.9836 67.4778 67.0645 67.034 67.1418 66.5867L66.1564 66.4164ZM65.6511 69.042C65.5575 69.4811 65.46 69.9161 65.3586 70.347L66.332 70.5762C66.4351 70.1382 66.5341 69.6963 66.6291 69.2504L65.6511 69.042ZM65.039 71.6391C64.926 72.0747 64.8086 72.5057 64.6868 72.9321L65.6484 73.2068C65.7725 72.7724 65.8919 72.3335 66.007 71.8903L65.039 71.6391ZM64.3044 74.2094C64.1706 74.6359 64.0321 75.0574 63.8887 75.4737L64.8343 75.7992C64.9807 75.3739 65.122 74.9437 65.2585 74.5088L64.3044 74.2094ZM63.4355 76.7306C63.2778 77.1486 63.1148 77.561 62.9465 77.9678L63.8705 78.3501C64.0429 77.9334 64.2097 77.5113 64.3711 77.0838L63.4355 76.7306ZM62.4187 79.1863C62.234 79.5938 62.0435 79.9952 61.8472 80.3902L62.7427 80.8352C62.9445 80.4293 63.14 80.0172 63.3295 79.5992L62.4187 79.1863ZM61.2342 81.5681C61.0216 81.9583 60.8027 82.3418 60.5776 82.7184L61.4359 83.2315C61.668 82.8432 61.8934 82.4482 62.1122 82.0466L61.2342 81.5681ZM59.8725 83.8436C59.6287 84.2148 59.3781 84.5787 59.1207 84.9352L59.9313 85.5207C60.1976 85.152 60.4566 84.7759 60.7083 84.3926L59.8725 83.8436ZM58.3216 85.9894C58.0463 86.3354 57.7638 86.6737 57.4739 87.004L58.2255 87.6636C58.5262 87.321 58.819 86.9704 59.1042 86.6119L58.3216 85.9894ZM56.5768 87.9761C56.2699 88.2923 55.9554 88.6004 55.633 88.9001L56.3139 89.6325C56.6489 89.321 56.9757 89.0009 57.2945 88.6725L56.5768 87.9761ZM54.6427 89.7739C54.3055 90.056 53.9604 90.3297 53.6073 90.5947L54.2076 91.3945C54.5749 91.1188 54.9338 90.8342 55.2844 90.5408L54.6427 89.7739ZM52.5318 91.3585C52.1682 91.6025 51.7966 91.8381 51.4169 92.065L51.9299 92.9234C52.3246 92.6875 52.711 92.4426 53.0891 92.1888L52.5318 91.3585ZM50.2638 92.7142C49.8776 92.9188 49.4834 93.115 49.0811 93.3028L49.5041 94.2089C49.9215 94.0141 50.3307 93.8104 50.7318 93.598L50.2638 92.7142ZM47.8719 93.8315C47.4669 93.9971 47.0542 94.1546 46.6335 94.3038L46.9679 95.2463C47.4032 95.0918 47.8306 94.9287 48.2503 94.7572L47.8719 93.8315ZM45.3738 94.719C44.9574 94.846 44.5338 94.9653 44.1027 95.077L44.3534 96.045C44.798 95.9299 45.2354 95.8067 45.6655 95.6755L45.3738 94.719ZM42.8084 95.3839C42.3811 95.4762 41.9469 95.5613 41.5056 95.639L41.6791 96.6238C42.1327 96.5439 42.5795 96.4564 43.0195 96.3614L42.8084 95.3839ZM40.1969 95.845C39.76 95.9058 39.3165 95.9597 38.8663 96.0067L38.9701 97.0013C39.4314 96.9532 39.8863 96.8979 40.3347 96.8355L40.1969 95.845ZM37.5511 96.1226C37.1123 96.1543 36.6675 96.1796 36.2165 96.1986L36.2585 97.1977C36.7193 97.1784 37.1742 97.1524 37.6232 97.12L37.5511 96.1226ZM34.8872 96.2354C34.6627 96.2385 34.4368 96.24 34.2094 96.24V97.24C34.4413 97.24 34.6718 97.2384 34.9009 97.2353L34.8872 96.2354ZM34.2094 96.24C33.982 96.24 33.7561 96.2385 33.5316 96.2354L33.5179 97.2353C33.747 97.2384 33.9775 97.24 34.2094 97.24V96.24ZM32.2023 96.1986C31.7513 96.1797 31.3064 96.1543 30.8677 96.1226L30.7956 97.12C31.2446 97.1524 31.6995 97.1784 32.1603 97.1977L32.2023 96.1986ZM29.5525 96.0067C29.1023 95.9597 28.6588 95.9058 28.2219 95.845L28.0841 96.8355C28.5325 96.8979 28.9874 96.9532 29.4487 97.0013L29.5525 96.0067ZM26.9132 95.639C26.4719 95.5613 26.0377 95.4762 25.6104 95.3839L25.3993 96.3614C25.8393 96.4564 26.2861 96.5439 26.7397 96.6238L26.9132 95.639ZM24.3161 95.077C23.885 94.9653 23.4613 94.846 23.045 94.719L22.7533 95.6755C23.1834 95.8067 23.6208 95.9299 24.0654 96.045L24.3161 95.077ZM21.7853 94.3039C21.3646 94.1546 20.9519 93.9971 20.5469 93.8315L20.1685 94.7572C20.5882 94.9287 21.0156 95.0918 21.4508 95.2463L21.7853 94.3039ZM19.3376 93.3028C18.9354 93.115 18.5412 92.9188 18.1549 92.7142L17.6869 93.598C18.0881 93.8104 18.4973 94.0141 18.9147 94.2089L19.3376 93.3028ZM17.0019 92.0651C16.6221 91.8381 16.2505 91.6025 15.887 91.3585L15.3297 92.1888C15.7078 92.4426 16.0941 92.6875 16.4889 92.9234L17.0019 92.0651ZM14.8115 90.5948C14.4583 90.3297 14.1132 90.056 13.7761 89.7739L13.1344 90.5408C13.485 90.8342 13.8439 91.1188 14.2112 91.3945L14.8115 90.5948ZM12.7858 88.9001C12.4634 88.6004 12.1488 88.2923 11.8419 87.9761L11.1243 88.6725C11.443 89.0009 11.7698 89.321 12.1048 89.6325L12.7858 88.9001ZM10.9449 87.004C10.655 86.6737 10.3725 86.3354 10.0972 85.9894L9.31459 86.6119C9.59975 86.9704 9.8926 87.321 10.1933 87.6636L10.9449 87.004ZM9.2981 84.9352C9.04064 84.5787 8.79008 84.2148 8.54628 83.8436L7.71042 84.3926C7.96219 84.7759 8.22115 85.152 8.48745 85.5207L9.2981 84.9352ZM7.84117 82.7184C7.61602 82.3418 7.39721 81.9583 7.18461 81.5682L6.30651 82.0466C6.52533 82.4482 6.75073 82.8432 6.98285 83.2315L7.84117 82.7184ZM6.57155 80.3902C6.37524 79.9952 6.18478 79.5938 6.00006 79.1863L5.08926 79.5992C5.27876 80.0172 5.47431 80.4293 5.67603 80.8352L6.57155 80.3902ZM5.47228 77.9678C5.30399 77.5611 5.141 77.1486 4.98322 76.7306L4.04766 77.0838C4.20904 77.5113 4.37586 77.9335 4.54823 78.3501L5.47228 77.9678ZM4.53001 75.4737C4.3867 75.0574 4.2482 74.6359 4.11441 74.2094L3.16026 74.5088C3.29672 74.9438 3.43809 75.3739 3.58446 75.7992L4.53001 75.4737ZM3.73192 72.9322C3.61014 72.5058 3.49278 72.0747 3.37975 71.6391L2.41181 71.8903C2.52682 72.3335 2.64631 72.7724 2.77037 73.2068L3.73192 72.9322ZM3.06017 70.347C2.95871 69.9161 2.86124 69.4811 2.76768 69.042L1.78964 69.2504C1.88464 69.6963 1.98367 70.1382 2.0868 70.5762L3.06017 70.347ZM2.50181 67.7292C2.41841 67.2953 2.33862 66.8577 2.26235 66.4164L1.27696 66.5867C1.35426 67.034 1.43518 67.4778 1.51979 67.918L2.50181 67.7292ZM2.04556 65.0914C1.97798 64.6542 1.91368 64.2137 1.85259 63.77L0.861933 63.9063C0.923754 64.3554 0.988853 64.8014 1.05731 65.2442L2.04556 65.0914ZM1.68037 62.4408C1.6267 61.9997 1.57605 61.5556 1.52836 61.1085L0.534002 61.2146C0.582206 61.6665 0.63341 62.1155 0.687687 62.5615L1.68037 62.4408ZM1.39579 59.7769C1.35468 59.3329 1.31634 58.8861 1.28072 58.4366L0.283848 58.5156C0.31981 58.9694 0.358521 59.4206 0.400047 59.8691L1.39579 59.7769ZM1.18351 57.1038C1.15379 56.6585 1.12661 56.2107 1.10191 55.7605L0.103411 55.8153C0.12832 56.2694 0.155738 56.7211 0.185727 57.1704L1.18351 57.1038ZM1.03615 54.4244C1.01668 53.9788 0.999543 53.5309 0.98467 53.0808L-0.0147844 53.1139C0.000202693 53.5674 0.0174778 54.0188 0.0370999 54.468L1.03615 54.4244ZM0.947186 51.741C0.936934 51.2952 0.928811 50.8474 0.922763 50.3976L-0.0771465 50.411C-0.0710569 50.864 -0.0628763 51.315 -0.0525492 51.764L0.947186 51.741ZM0.91085 49.0554C0.909865 48.8307 0.909375 48.6056 0.909375 48.38H-0.0906247C-0.0906247 48.607 -0.0901322 48.8336 -0.0891405 49.0598L0.91085 49.0554ZM53.9494 48.38C53.9494 48.1598 53.9491 47.9397 53.9484 47.7197L52.9485 47.7226C52.9491 47.9415 52.9494 48.1607 52.9494 48.38H53.9494ZM53.9405 46.4007C53.9364 45.9601 53.9307 45.5204 53.9233 45.0819L52.9235 45.0988C52.9308 45.5346 52.9365 45.9718 52.9406 46.4101L53.9405 46.4007ZM53.8955 43.761C53.8842 43.3191 53.8709 42.8787 53.8554 42.44L52.856 42.4753C52.8714 42.9106 52.8846 43.3477 52.8958 43.7865L53.8955 43.761ZM53.8014 41.1193C53.7808 40.6772 53.7577 40.2371 53.7318 39.7992L52.7335 39.8583C52.7592 40.2917 52.7821 40.7276 52.8025 41.1658L53.8014 41.1193ZM53.6446 38.4802C53.6122 38.0377 53.5766 37.5978 53.5377 37.1608L52.5416 37.2496C52.5801 37.6811 52.6152 38.1157 52.6473 38.5533L53.6446 38.4802ZM53.4084 35.841C53.361 35.3983 53.3098 34.959 53.2544 34.5233L52.2624 34.6494C52.3169 35.0782 52.3674 35.511 52.4141 35.9475L53.4084 35.841ZM53.0728 33.2084C53.0067 32.7669 52.9359 32.3297 52.8602 31.8971L51.8752 32.0696C51.9494 32.4937 52.0189 32.9227 52.0838 33.3564L53.0728 33.2084ZM52.613 30.5907C52.5235 30.152 52.4283 29.7185 52.327 29.2907L51.3539 29.5211C51.4526 29.9383 51.5456 30.3616 51.6331 30.7906L52.613 30.5907ZM51.9975 27.999C51.8786 27.5654 51.7527 27.1384 51.6194 26.7183L50.6663 27.0208C50.7954 27.4277 50.9176 27.842 51.0331 28.2635L51.9975 27.999ZM51.1869 25.4521C51.0312 25.0282 50.8669 24.6123 50.6936 24.2051L49.7735 24.5966C49.9399 24.9877 50.098 25.3879 50.2482 25.7968L51.1869 25.4521ZM50.1331 22.9832C49.9322 22.5767 49.721 22.1802 49.4987 21.7942L48.6321 22.2932C48.8433 22.66 49.0447 23.0378 49.2366 23.4262L50.1331 22.9832ZM48.7844 20.6475C48.5305 20.2708 48.2643 19.9062 47.9852 19.5543L47.2017 20.1757C47.4642 20.5066 47.7152 20.8503 47.9551 21.2063L48.7844 20.6475ZM47.0985 18.527C46.7879 18.1966 46.4635 17.8802 46.1246 17.5787L45.4598 18.3257C45.776 18.6071 46.0792 18.9027 46.3699 19.2119L47.0985 18.527ZM45.0674 16.7214C44.7043 16.4539 44.3269 16.2017 43.9347 15.9654L43.4186 16.822C43.7843 17.0422 44.1359 17.2772 44.4741 17.5265L45.0674 16.7214ZM42.7376 15.3169C42.3353 15.122 41.9193 14.9423 41.4892 14.7783L41.133 15.7127C41.5364 15.8665 41.9257 16.0348 42.3016 16.2169L42.7376 15.3169ZM40.203 14.3477C39.7782 14.2241 39.3411 14.1146 38.8913 14.0194L38.6843 14.9978C39.1104 15.0879 39.5234 15.1915 39.9238 15.3079L40.203 14.3477ZM37.5642 13.786C37.1301 13.7245 36.6851 13.6753 36.2291 13.6387L36.1491 14.6355C36.5856 14.6705 37.0104 14.7175 37.4238 14.7761L37.5642 13.786ZM34.8906 13.5686C34.666 13.5629 34.439 13.56 34.2094 13.56V14.56C34.4306 14.56 34.6491 14.5628 34.865 14.5683L34.8906 13.5686ZM34.2094 13.56C33.9798 13.56 33.7527 13.5629 33.5282 13.5686L33.5537 14.5683C33.7696 14.5628 33.9882 14.56 34.2094 14.56V13.56ZM32.1897 13.6387C31.7337 13.6753 31.2887 13.7245 30.8546 13.786L30.995 14.7761C31.4084 14.7175 31.8332 14.6705 32.2697 14.6355L32.1897 13.6387ZM29.5275 14.0194C29.0777 14.1146 28.6405 14.2241 28.2157 14.3477L28.495 15.3079C28.8953 15.1915 29.3083 15.0879 29.7344 14.9978L29.5275 14.0194ZM26.9295 14.7783C26.4994 14.9423 26.0834 15.122 25.6812 15.3169L26.1172 16.2169C26.493 16.0348 26.8824 15.8665 27.2858 15.7127L26.9295 14.7783ZM24.4841 15.9654C24.0918 16.2017 23.7144 16.4539 23.3514 16.7214L23.9446 17.5265C24.2829 17.2772 24.6345 17.0422 25.0001 16.822L24.4841 15.9654ZM22.2942 17.5786C21.9553 17.8802 21.6308 18.1966 21.3202 18.527L22.0488 19.2119C22.3396 18.9027 22.6428 18.6071 22.959 18.3257L22.2942 17.5786ZM20.4335 19.5543C20.1544 19.9061 19.8882 20.2708 19.6344 20.6475L20.4637 21.2063C20.7036 20.8503 20.9546 20.5066 21.217 20.1757L20.4335 19.5543ZM18.92 21.7942C18.6978 22.1802 18.4865 22.5767 18.2857 22.9832L19.1822 23.4262C19.3741 23.0378 19.5754 22.66 19.7867 22.2932L18.92 21.7942ZM17.7251 24.2051C17.5518 24.6123 17.3876 25.0282 17.2319 25.4521L18.1706 25.7968C18.3208 25.3879 18.4789 24.9877 18.6453 24.5966L17.7251 24.2051ZM16.7993 26.7183C16.666 27.1384 16.5401 27.5654 16.4212 27.999L17.3856 28.2635C17.5012 27.842 17.6234 27.4277 17.7525 27.0208L16.7993 26.7183ZM16.0918 29.2907C15.9905 29.7185 15.8953 30.152 15.8058 30.5907L16.7856 30.7906C16.8731 30.3616 16.9661 29.9383 17.0649 29.5211L16.0918 29.2907ZM15.5586 31.8971C15.4828 32.3297 15.412 32.7669 15.346 33.2084L16.335 33.3564C16.3999 32.9227 16.4693 32.4937 16.5436 32.0696L15.5586 31.8971ZM15.1643 34.5233C15.109 34.959 15.0577 35.3983 15.0103 35.841L16.0047 35.9475C16.0514 35.511 16.1018 35.0782 16.1563 34.6494L15.1643 34.5233ZM14.8811 37.1608C14.8421 37.5978 14.8066 38.0377 14.7741 38.4802L15.7715 38.5533C15.8035 38.1157 15.8387 37.6811 15.8771 37.2496L14.8811 37.1608ZM14.687 39.7992C14.6611 40.2371 14.638 40.6772 14.6174 41.1193L15.6163 41.1658C15.6367 40.7276 15.6596 40.2917 15.6852 39.8583L14.687 39.7992ZM14.5634 42.44C14.5479 42.8787 14.5346 43.3191 14.5233 43.761L15.523 43.7865C15.5342 43.3477 15.5474 42.9106 15.5628 42.4753L14.5634 42.44ZM14.4954 45.0819C14.488 45.5204 14.4824 45.9601 14.4782 46.4007L15.4782 46.4101C15.4823 45.9718 15.4879 45.5346 15.4953 45.0988L14.4954 45.0819ZM14.4703 47.7197C14.4697 47.9397 14.4694 48.1598 14.4694 48.38H15.4694C15.4694 48.1607 15.4697 47.9415 15.4703 47.7226L14.4703 47.7197ZM14.4694 48.38C14.4694 48.6034 14.4697 48.8265 14.4702 49.0492L15.4702 49.0466C15.4697 48.8248 15.4694 48.6026 15.4694 48.38H14.4694ZM14.4776 50.3838C14.4814 50.8305 14.4867 51.2756 14.4936 51.719L15.4935 51.7034C15.4866 51.2626 15.4814 50.8198 15.4776 50.3752L14.4776 50.3838ZM14.5196 53.0565C14.5302 53.5043 14.5426 53.95 14.5571 54.3935L15.5566 54.3608C15.5422 53.9205 15.5298 53.4778 15.5193 53.0329L14.5196 53.0565ZM14.6077 55.7298C14.6271 56.1775 14.6488 56.6227 14.6731 57.0651L15.6716 57.0101C15.6475 56.5719 15.626 56.1307 15.6068 55.6867L14.6077 55.7298ZM14.7554 58.4013C14.7861 58.8504 14.8198 59.2964 14.8568 59.7389L15.8533 59.6557C15.8168 59.2184 15.7835 58.7775 15.7531 58.3331L14.7554 58.4013ZM14.9794 61.075C15.0245 61.5236 15.0733 61.9683 15.126 62.409L16.1189 62.2901C16.067 61.8561 16.0189 61.4176 15.9744 60.975L14.9794 61.075ZM15.2994 63.7403C15.3627 64.1877 15.4304 64.6304 15.503 65.0682L16.4896 64.9046C16.4183 64.4751 16.3518 64.0403 16.2896 63.6003L15.2994 63.7403ZM15.7406 66.3917C15.8268 66.8368 15.9186 67.2762 16.0164 67.7095L16.9919 67.4895C16.8965 67.0666 16.8067 66.6371 16.7223 66.2015L15.7406 66.3917ZM16.3355 69.0211C16.4511 69.462 16.5735 69.8959 16.7033 70.3224L17.66 70.0314C17.5342 69.6179 17.4153 69.1965 17.3029 68.7676L16.3355 69.0211ZM17.1255 71.6094C17.2778 72.0408 17.4387 72.4637 17.6086 72.8776L18.5337 72.4978C18.3704 72.1001 18.2155 71.6929 18.0684 71.2764L17.1255 71.6094ZM18.1597 74.1209C18.3579 74.5353 18.5666 74.9394 18.7864 75.3324L19.6592 74.8444C19.4503 74.4708 19.2514 74.0856 19.0619 73.6894L18.1597 74.1209ZM19.4956 76.5028C19.7484 76.8878 20.0137 77.2602 20.2923 77.6194L21.0825 77.0065C20.8206 76.6689 20.5704 76.3178 20.3315 75.9539L19.4956 76.5028ZM21.1798 78.6689C21.4914 79.0067 21.8172 79.3299 22.1579 79.6377L22.8283 78.8957C22.5107 78.6087 22.2063 78.3069 21.9148 77.9909L21.1798 78.6689ZM23.2227 80.5127C23.5888 80.7856 23.9697 81.0427 24.366 81.2834L24.8851 80.4287C24.516 80.2045 24.1613 79.9651 23.8204 79.711L23.2227 80.5127ZM25.576 81.9432C25.9828 82.1413 26.4037 82.3237 26.8391 82.49L27.1959 81.5558C26.7876 81.3998 26.3937 81.2291 26.0138 81.0441L25.576 81.9432ZM28.1412 82.9262C28.5712 83.0511 29.0138 83.1617 29.4695 83.2578L29.6757 82.2793C29.2438 82.1882 28.8255 82.0836 28.4202 81.9659L28.1412 82.9262ZM30.8133 83.493C31.2527 83.5549 31.7032 83.6044 32.1651 83.6411L32.2444 82.6443C31.802 82.6091 31.3716 82.5618 30.9528 82.5028L30.8133 83.493ZM33.5201 83.7114C33.7473 83.7171 33.977 83.72 34.2094 83.72V82.72C33.9853 82.72 33.7639 82.7172 33.5453 82.7117L33.5201 83.7114ZM34.2094 83.72C34.4417 83.72 34.6715 83.7171 34.8987 83.7114L34.8734 82.7117C34.6548 82.7172 34.4335 82.72 34.2094 82.72V83.72ZM36.2536 83.6411C36.7155 83.6044 37.1661 83.5549 37.6055 83.493L37.4659 82.5028C37.0472 82.5618 36.6168 82.6091 36.1743 82.6443L36.2536 83.6411ZM38.9493 83.2578C39.405 83.1617 39.8476 83.0511 40.2775 82.9262L39.9985 81.9659C39.5933 82.0836 39.1749 82.1882 38.7431 82.2793L38.9493 83.2578ZM41.5796 82.49C42.0151 82.3237 42.436 82.1413 42.8427 81.9432L42.405 81.0441C42.0251 81.2291 41.6312 81.3998 41.2228 81.5558L41.5796 82.49ZM44.0528 81.2834C44.449 81.0427 44.8299 80.7856 45.196 80.5127L44.5983 79.711C44.2575 79.9651 43.9028 80.2045 43.5337 80.4287L44.0528 81.2834ZM46.2608 79.6377C46.6015 79.3299 46.9274 79.0067 47.239 78.6689L46.504 77.9909C46.2124 78.3069 45.9081 78.6087 45.5904 78.8957L46.2608 79.6377ZM48.1264 77.6194C48.405 77.2602 48.6704 76.8878 48.9232 76.5028L48.0873 75.9539C47.8483 76.3178 47.5981 76.6689 47.3363 77.0065L48.1264 77.6194ZM49.6324 75.3324C49.8521 74.9394 50.0608 74.5353 50.259 74.1209L49.3569 73.6894C49.1674 74.0856 48.9684 74.4708 48.7595 74.8444L49.6324 75.3324ZM50.8101 72.8776C50.98 72.4637 51.1409 72.0408 51.2933 71.6094L50.3504 71.2764C50.2033 71.6929 50.0483 72.1001 49.8851 72.4978L50.8101 72.8776ZM51.7155 70.3224C51.8452 69.8959 51.9677 69.462 52.0832 69.0211L51.1159 68.7676C51.0035 69.1965 50.8845 69.6179 50.7588 70.0314L51.7155 70.3224ZM52.4024 67.7095C52.5001 67.2762 52.5919 66.8368 52.6782 66.3917L51.6964 66.2015C51.612 66.6371 51.5223 67.0666 51.4269 67.4895L52.4024 67.7095ZM52.9157 65.0682C52.9883 64.6304 53.0561 64.1877 53.1193 63.7403L52.1292 63.6003C52.067 64.0403 52.0004 64.4751 51.9292 64.9046L52.9157 65.0682ZM53.2928 62.409C53.3455 61.9683 53.3943 61.5236 53.4393 61.075L52.4443 60.975C52.3999 61.4176 52.3518 61.8561 52.2998 62.2901L53.2928 62.409ZM53.562 59.7389C53.5989 59.2964 53.6326 58.8504 53.6633 58.4013L52.6657 58.3331C52.6353 58.7775 52.602 59.2184 52.5655 59.6557L53.562 59.7389ZM53.7456 57.0651C53.77 56.6227 53.7917 56.1775 53.811 55.7298L52.812 55.6867C52.7928 56.1307 52.7712 56.5719 52.7471 57.0101L53.7456 57.0651ZM53.8616 54.3935C53.8762 53.95 53.8886 53.5043 53.8991 53.0565L52.8994 53.0329C52.8889 53.4778 52.8766 53.9205 52.8622 54.3608L53.8616 54.3935ZM53.9252 51.719C53.932 51.2756 53.9373 50.8305 53.9411 50.3838L52.9412 50.3752C52.9374 50.8198 52.9321 51.2626 52.9253 51.7034L53.9252 51.719ZM53.9485 49.0492C53.9491 48.8265 53.9494 48.6034 53.9494 48.38H52.9494C52.9494 48.6026 52.9491 48.8248 52.9485 49.0466L53.9485 49.0492ZM1.40938 48.38C1.40938 48.1569 1.40987 47.9343 1.41088 47.7121L-0.589101 47.7031C-0.590119 47.9283 -0.590625 48.1539 -0.590625 48.38H1.40938ZM1.42302 46.3846C1.42918 45.9398 1.43746 45.4968 1.44791 45.0559L-0.551531 45.0085C-0.562136 45.4562 -0.570535 45.9057 -0.576787 46.3569L1.42302 46.3846ZM1.48607 43.7315C1.50121 43.2865 1.51866 42.8437 1.53846 42.4031L-0.459517 42.3133C-0.47966 42.7613 -0.497392 43.2114 -0.512774 43.6635L1.48607 43.7315ZM1.60532 41.0831C1.63043 40.6383 1.65806 40.1958 1.68827 39.7557L-0.307035 39.6188C-0.337811 40.0671 -0.365945 40.5176 -0.391501 40.9704L1.60532 41.0831ZM1.78709 38.4383C1.82322 37.9949 1.86208 37.5542 1.90376 37.1163L-0.0872494 36.9268C-0.129798 37.374 -0.16946 37.8237 -0.206305 38.2759L1.78709 38.4383ZM2.03831 35.801C2.0866 35.3604 2.13787 34.9227 2.19218 34.488L0.207611 34.2401C0.152022 34.685 0.099583 35.1327 0.0502186 35.5831L2.03831 35.801ZM2.36669 33.1762C2.42843 32.7393 2.4934 32.3056 2.56167 31.8753L0.586373 31.5619C0.51629 32.0037 0.449647 32.4486 0.386364 32.8964L2.36669 33.1762ZM2.78093 30.569C2.85804 30.134 2.9387 29.7027 3.02299 29.2751L1.06075 28.8883C0.973932 29.3287 0.890923 29.7726 0.811636 30.2199L2.78093 30.569ZM3.29074 27.9855C3.38513 27.5533 3.48344 27.1251 3.58574 26.7011L1.64154 26.232C1.53575 26.6705 1.43421 27.1127 1.3368 27.5588L3.29074 27.9855ZM3.90756 25.431C4.0211 25.0039 4.13894 24.5813 4.26115 24.1633L2.34153 23.602C2.21459 24.0361 2.09234 24.4746 1.97468 24.9173L3.90756 25.431ZM4.64556 22.9093C4.77956 22.492 4.91822 22.0796 5.06162 21.6724L3.17515 21.0081C3.02543 21.4333 2.88086 21.8633 2.74133 22.2978L4.64556 22.9093ZM5.51555 20.4416C5.67351 20.0324 5.83658 19.6288 6.00489 19.2309L4.16287 18.4518C3.98614 18.8697 3.81514 19.2929 3.64977 19.7213L5.51555 20.4416ZM6.53124 18.042C6.71531 17.6447 6.90499 17.2534 7.1004 16.8685L5.317 15.9632C5.1105 16.37 4.91038 16.7828 4.71648 17.2014L6.53124 18.042ZM7.71052 15.7206C7.92181 15.3409 8.13917 14.9678 8.36269 14.6015L6.65544 13.5597C6.41768 13.9493 6.18686 14.3456 5.96283 14.7482L7.71052 15.7206ZM9.06029 13.5105C9.30161 13.1503 9.5495 12.7973 9.80407 12.4517L8.19372 11.2656C7.9212 11.6356 7.65625 12.0129 7.39872 12.3973L9.06029 13.5105ZM10.593 11.4307C10.8643 11.0961 11.1425 10.7692 11.4279 10.45L9.937 9.11689C9.62984 9.46044 9.33071 9.81192 9.03947 10.1711L10.593 11.4307ZM12.31 9.51143C12.6114 9.20633 12.9203 8.90915 13.2367 8.62006L11.8876 7.1436C11.5458 7.45588 11.2124 7.77665 10.8873 8.10572L12.31 9.51143ZM14.2074 7.77811C14.5378 7.5063 14.8758 7.24258 15.2217 6.98713L14.0336 5.37831C13.6595 5.6546 13.2939 5.93979 12.9367 6.23368L14.2074 7.77811ZM16.2736 6.25197C16.6289 6.01722 16.992 5.79054 17.363 5.57207L16.3482 3.84862C15.9475 4.08458 15.5551 4.32954 15.171 4.58334L16.2736 6.25197ZM18.4889 4.94735C18.8666 4.75015 19.2521 4.5609 19.6456 4.37974L18.8092 2.56303C18.3858 2.75795 17.9706 2.9618 17.5633 3.17444L18.4889 4.94735ZM20.826 3.87046C21.2214 3.71096 21.6243 3.55914 22.0351 3.41516L21.3735 1.52775C20.9339 1.68184 20.502 1.84453 20.0777 2.01572L20.826 3.87046ZM23.2679 3.01381C23.6745 2.89124 24.0885 2.77595 24.5098 2.66806L24.0136 0.730577C23.5656 0.845315 23.1246 0.968115 22.6908 1.09888L23.2679 3.01381ZM25.7752 2.37119C26.1938 2.28173 26.6193 2.19923 27.0518 2.12381L26.7083 0.153535C26.2512 0.233224 25.8009 0.320529 25.3572 0.415363L25.7752 2.37119ZM28.333 1.92411C28.761 1.8651 29.1956 1.81273 29.6368 1.76711L29.4311 -0.222282C28.9678 -0.174373 28.5107 -0.119307 28.0599 -0.0571586L28.333 1.92411ZM30.9276 1.65436C31.3581 1.6235 31.7947 1.59881 32.2373 1.58038L32.1541 -0.417887C31.6919 -0.398641 31.2354 -0.372832 30.7846 -0.340522L30.9276 1.65436ZM33.5433 1.5445C33.7639 1.5415 33.9859 1.53999 34.2094 1.53999V-0.460006C33.9769 -0.460006 33.7458 -0.458438 33.5161 -0.455311L33.5433 1.5445ZM34.2094 1.53999C34.4329 1.53999 34.6549 1.5415 34.8754 1.5445L34.9027 -0.455311C34.6729 -0.458438 34.4419 -0.460006 34.2094 -0.460006V1.53999ZM36.1814 1.58038C36.6241 1.59881 37.0606 1.6235 37.4911 1.65436L37.6341 -0.340524C37.1833 -0.372833 36.7268 -0.398642 36.2646 -0.417888L36.1814 1.58038ZM38.7819 1.76711C39.2232 1.81273 39.6577 1.8651 40.0857 1.9241L40.3589 -0.0571609C39.908 -0.119309 39.451 -0.174375 38.9876 -0.222284L38.7819 1.76711ZM41.3669 2.12381C41.7995 2.19922 42.225 2.28173 42.6436 2.37119L43.0616 0.415359C42.6179 0.320526 42.1675 0.233221 41.7105 0.153532L41.3669 2.12381ZM43.909 2.66805C44.3303 2.77594 44.7442 2.89124 45.1509 3.0138L45.728 1.09887C45.2941 0.96811 44.8532 0.84531 44.4051 0.730573L43.909 2.66805ZM46.3836 3.41515C46.7944 3.55913 47.1974 3.71095 47.5927 3.87045L48.341 2.01571C47.9167 1.84453 47.4848 1.68183 47.0452 1.52775L46.3836 3.41515ZM48.7731 4.37974C49.1666 4.56089 49.5521 4.75015 49.9298 4.94734L50.8555 3.17443C50.4482 2.96179 50.0329 2.75794 49.6095 2.56302L48.7731 4.37974ZM51.0557 5.57206C51.4268 5.79053 51.7899 6.01722 52.1451 6.25197L53.2477 4.58333C52.8636 4.32954 52.4713 4.08457 52.0705 3.84862L51.0557 5.57206ZM53.197 6.98712C53.5429 7.24258 53.881 7.50629 54.2113 7.77811L55.4821 6.23367C55.1249 5.93978 54.7593 5.65459 54.3852 5.3783L53.197 6.98712ZM55.1821 8.62006C55.4985 8.90915 55.8073 9.20632 56.1088 9.51142L57.5314 8.1057C57.2063 7.77664 56.8729 7.45587 56.5312 7.14359L55.1821 8.62006ZM56.9908 10.45C57.2762 10.7692 57.5545 11.0961 57.8258 11.4307L59.3793 10.1711C59.088 9.81191 58.7889 9.46043 58.4817 9.11688L56.9908 10.45ZM58.6147 12.4516C58.8692 12.7973 59.1171 13.1503 59.3585 13.5105L61.02 12.3973C60.7625 12.0129 60.4975 11.6356 60.225 11.2656L58.6147 12.4516ZM60.0561 14.6015C60.2796 14.9678 60.4969 15.3408 60.7082 15.7206L62.4559 14.7482C62.2319 14.3455 62.0011 13.9493 61.7633 13.5597L60.0561 14.6015ZM61.3183 16.8685C61.5138 17.2534 61.7034 17.6447 61.8875 18.042L63.7023 17.2014C63.5084 16.7828 63.3082 16.37 63.1017 15.9632L61.3183 16.8685ZM62.4139 19.2309C62.5822 19.6288 62.7452 20.0324 62.9032 20.4416L64.769 19.7213C64.6036 19.2929 64.4326 18.8697 64.2559 18.4518L62.4139 19.2309ZM63.3571 21.6724C63.5005 22.0796 63.6392 22.492 63.7732 22.9093L65.6774 22.2978C65.5379 21.8633 65.3933 21.4333 65.2436 21.0081L63.3571 21.6724ZM64.1576 24.1633C64.2798 24.5813 64.3976 25.0039 64.5112 25.431L66.4441 24.9172C66.3264 24.4746 66.2042 24.0361 66.0772 23.602L64.1576 24.1633ZM64.833 26.7011C64.9353 27.1251 65.0336 27.5533 65.128 27.9855L67.082 27.5587C66.9845 27.1127 66.883 26.6704 66.7772 26.232L64.833 26.7011ZM65.3958 29.275C65.48 29.7027 65.5607 30.134 65.6378 30.569L67.6071 30.2198C67.5278 29.7726 67.4448 29.3287 67.358 28.8883L65.3958 29.275ZM65.8571 31.8752C65.9254 32.3056 65.9903 32.7393 66.0521 33.1762L68.0324 32.8964C67.9691 32.4485 67.9025 32.0037 67.8324 31.5619L65.8571 31.8752ZM66.2266 34.488C66.2809 34.9227 66.3321 35.3603 66.3804 35.801L68.3685 35.5831C68.3192 35.1326 68.2667 34.6849 68.2111 34.24L66.2266 34.488ZM66.515 37.1163C66.5567 37.5542 66.5955 37.9949 66.6317 38.4383L68.6251 38.2758C68.5882 37.8237 68.5486 37.374 68.506 36.9268L66.515 37.1163ZM66.7305 39.7557C66.7607 40.1958 66.7883 40.6382 66.8134 41.0831L68.8103 40.9704C68.7847 40.5176 68.7566 40.067 68.7258 39.6187L66.7305 39.7557ZM66.8803 42.4031C66.9001 42.8437 66.9175 43.2865 66.9327 43.7314L68.9315 43.6634C68.9161 43.2114 68.8984 42.7613 68.8783 42.3133L66.8803 42.4031ZM66.9708 45.0559C66.9813 45.4968 66.9896 45.9398 66.9957 46.3846L68.9955 46.3569C68.9893 45.9056 68.9809 45.4561 68.9703 45.0085L66.9708 45.0559ZM67.0079 47.7121C67.0089 47.9343 67.0094 48.1569 67.0094 48.38H69.0094C69.0094 48.1539 69.0089 47.9283 69.0079 47.7031L67.0079 47.7121ZM67.0094 48.38C67.0094 48.6049 67.0089 48.8293 67.0079 49.0532L69.0079 49.0619C69.0089 48.8351 69.0094 48.6078 69.0094 48.38H67.0094ZM66.996 50.3908C66.99 50.8391 66.9819 51.2853 66.9717 51.7295L68.9712 51.7755C68.9815 51.3248 68.9897 50.8722 68.9959 50.4177L66.996 50.3908ZM66.9344 53.0643C66.9195 53.5126 66.9025 53.9587 66.8831 54.4025L68.8812 54.4898C68.9009 54.0388 68.9182 53.5856 68.9333 53.1303L66.9344 53.0643ZM66.8176 55.7331C66.793 56.1814 66.7659 56.6272 66.7364 57.0704L68.7319 57.2036C68.762 56.7523 68.7896 56.2987 68.8146 55.8427L66.8176 55.7331ZM66.6396 58.3971C66.6041 58.8444 66.566 59.289 66.5251 59.7308L68.5166 59.9152C68.5583 59.4644 68.5972 59.011 68.6333 58.5551L66.6396 58.3971ZM66.3932 61.0554C66.3458 61.5001 66.2954 61.9418 66.2421 62.3803L68.2274 62.6219C68.282 62.1733 68.3335 61.7219 68.3819 61.2676L66.3932 61.0554ZM66.0708 63.7018C66.0101 64.1429 65.9462 64.5806 65.8791 65.015L67.8556 65.3206C67.9245 64.875 67.99 64.4263 68.0522 63.9745L66.0708 63.7018ZM65.6637 66.3313C65.588 66.7695 65.5087 67.204 65.4259 67.6348L67.39 68.0123C67.4752 67.569 67.5567 67.1221 67.6345 66.6719L65.6637 66.3313ZM65.1621 68.9378C65.0692 69.3735 64.9725 69.805 64.8719 70.2324L66.8187 70.6908C66.9226 70.2493 67.0224 69.8038 67.1181 69.3546L65.1621 68.9378ZM64.555 71.5135C64.443 71.9453 64.3267 72.3724 64.2061 72.7948L66.1292 73.3441C66.2544 72.9057 66.3749 72.4629 66.4909 72.0159L64.555 71.5135ZM63.8273 74.0598C63.6948 74.482 63.5578 74.8991 63.416 75.311L65.3071 75.9619C65.455 75.5322 65.5978 75.0977 65.7356 74.6584L63.8273 74.0598ZM62.9678 76.554C62.8118 76.9673 62.6507 77.3748 62.4845 77.7767L64.3325 78.5413C64.507 78.1197 64.6757 77.6926 64.8389 77.2604L62.9678 76.554ZM61.9633 78.9799C61.781 79.3821 61.5931 79.7781 61.3994 80.1677L63.1905 81.0577C63.3949 80.6464 63.593 80.2289 63.7849 79.8056L61.9633 78.9799ZM60.7951 81.3289C60.5856 81.7134 60.3701 82.091 60.1484 82.4618L61.8651 83.4881C62.1007 83.0939 62.3294 82.6931 62.5513 82.2859L60.7951 81.3289ZM59.4545 83.5691C59.2147 83.9343 58.9684 84.2921 58.7153 84.6424L60.3366 85.8135C60.6074 85.4387 60.8705 85.0565 61.1263 84.667L59.4545 83.5691ZM57.9303 85.6781C57.66 86.0179 57.3826 86.35 57.0981 86.6741L58.6012 87.9934C58.9073 87.6447 59.2054 87.2879 59.4955 86.9232L57.9303 85.6781ZM56.218 87.6278C55.917 87.938 55.6086 88.2401 55.2925 88.5339L56.6544 89.9986C56.9957 89.6812 57.3287 89.3552 57.6533 89.0207L56.218 87.6278ZM54.3218 89.3904C53.9914 89.6669 53.6532 89.9351 53.3071 90.1949L54.5078 91.7944C54.8822 91.5133 55.2479 91.2232 55.6052 90.9243L54.3218 89.3904ZM52.2532 90.9433C51.8969 91.1825 51.5326 91.4134 51.1604 91.6359L52.1864 93.3526C52.5887 93.1122 52.9824 92.8626 53.3677 92.604L52.2532 90.9433ZM50.0298 92.2724C49.6511 92.473 49.2644 92.6655 48.8697 92.8497L49.7156 94.662C50.1405 94.4637 50.5572 94.2562 50.9658 94.0398L50.0298 92.2724ZM47.6827 93.3687C47.2851 93.5313 46.8796 93.686 46.4663 93.8326L47.1352 95.7175C47.5777 95.5604 48.0125 95.3946 48.4395 95.22L47.6827 93.3687ZM45.2279 94.2407C44.8185 94.3656 44.4017 94.4831 43.9773 94.5929L44.4787 96.5291C44.9301 96.4122 45.3743 96.287 45.8114 96.1537L45.2279 94.2407ZM42.7029 94.8952C42.2819 94.9861 41.854 95.0699 41.4189 95.1466L41.7658 97.1163C42.2257 97.0353 42.6787 96.9465 43.1251 96.8501L42.7029 94.8952ZM40.128 95.3498C39.6968 95.4098 39.259 95.463 38.8145 95.5094L39.022 97.4986C39.4889 97.4499 39.9494 97.3939 40.4036 97.3307L40.128 95.3498ZM37.5151 95.6239C37.0814 95.6552 36.6416 95.6803 36.1956 95.699L36.2794 97.6973C36.7452 97.6777 37.2051 97.6515 37.6593 97.6187L37.5151 95.6239ZM34.8803 95.7354C34.6582 95.7385 34.4345 95.74 34.2094 95.74V97.74C34.4436 97.74 34.6764 97.7384 34.9077 97.7352L34.8803 95.7354ZM34.2094 95.74C33.9843 95.74 33.7606 95.7385 33.5385 95.7354L33.511 97.7352C33.7424 97.7384 33.9752 97.74 34.2094 97.74V95.74ZM32.2232 95.699C31.7772 95.6803 31.3374 95.6552 30.9037 95.6239L30.7595 97.6187C31.2137 97.6515 31.6736 97.6777 32.1394 97.6973L32.2232 95.699ZM29.6043 95.5094C29.1598 95.463 28.7219 95.4098 28.2908 95.3498L28.0152 97.3307C28.4694 97.3939 28.9299 97.4499 29.3968 97.4986L29.6043 95.5094ZM26.9999 95.1466C26.5648 95.0699 26.1369 94.9861 25.7159 94.8952L25.2937 96.8501C25.7401 96.9465 26.1931 97.0353 26.653 97.1163L26.9999 95.1466ZM24.4415 94.5929C24.0171 94.4831 23.6003 94.3656 23.1908 94.2407L22.6074 96.1537C23.0444 96.287 23.4886 96.4122 23.9401 96.5291L24.4415 94.5929ZM21.9525 93.8326C21.5391 93.686 21.1337 93.5313 20.736 93.3687L19.9793 95.22C20.4063 95.3946 20.8411 95.5604 21.2836 95.7175L21.9525 93.8326ZM19.5491 92.8497C19.1544 92.6655 18.7677 92.473 18.3889 92.2724L17.4529 94.0398C17.8615 94.2562 18.2783 94.4637 18.7032 94.662L19.5491 92.8497ZM17.2584 91.6359C16.8861 91.4134 16.5219 91.1825 16.1656 90.9433L15.051 92.604C15.4364 92.8626 15.8301 93.1122 16.2324 93.3526L17.2584 91.6359ZM15.1117 90.1949C14.7656 89.9351 14.4274 89.6669 14.097 89.3904L12.8135 90.9243C13.1708 91.2233 13.5366 91.5134 13.911 91.7944L15.1117 90.1949ZM13.1262 88.5339C12.8102 88.2401 12.5018 87.938 12.2007 87.6278L10.7655 89.0207C11.0901 89.3552 11.423 89.6812 11.7644 89.9986L13.1262 88.5339ZM11.3207 86.6741C11.0362 86.35 10.7588 86.0179 10.4885 85.6781L8.9233 86.9232C9.2134 87.2879 9.51142 87.6447 9.81752 87.9934L11.3207 86.6741ZM9.70343 84.6424C9.45039 84.2921 9.20402 83.9343 8.96421 83.5691L7.29249 84.667C7.54824 85.0565 7.8114 85.4387 8.08213 85.8135L9.70343 84.6424ZM8.27032 82.4618C8.04866 82.091 7.83314 81.7134 7.62366 81.3289L5.86746 82.2859C6.08939 82.6932 6.31808 83.0939 6.55369 83.4881L8.27032 82.4618ZM7.01931 80.1677C6.8257 79.7781 6.63778 79.3821 6.45546 78.9799L4.63386 79.8056C4.82575 80.2289 5.02384 80.6464 5.22827 81.0577L7.01931 80.1677ZM5.9343 77.7767C5.76806 77.3749 5.60699 76.9673 5.451 76.554L3.57988 77.2604C3.74306 77.6926 3.91179 78.1197 4.08621 78.5413L5.9343 77.7767ZM5.00279 75.311C4.86101 74.8991 4.72393 74.482 4.59148 74.0598L2.68319 74.6584C2.82099 75.0977 2.96378 75.5322 3.11168 75.9619L5.00279 75.311ZM4.2127 72.7948C4.09206 72.3724 3.97576 71.9453 3.86372 71.5135L1.92784 72.0159C2.04384 72.4629 2.16439 72.9057 2.28959 73.3441L4.2127 72.7948ZM3.54686 70.2324C3.44623 69.8051 3.34954 69.3735 3.2567 68.9378L1.30062 69.3546C1.39634 69.8039 1.49614 70.2493 1.60011 70.6908L3.54686 70.2324ZM2.99282 67.6348C2.91003 67.2041 2.83079 66.7695 2.75505 66.3313L0.784267 66.6719C0.862088 67.1222 0.943562 67.569 1.02878 68.0123L2.99282 67.6348ZM2.53969 65.015C2.47254 64.5807 2.40864 64.1429 2.34792 63.7018L0.366603 63.9745C0.428793 64.4263 0.494291 64.875 0.563177 65.3206L2.53969 65.015ZM2.17671 62.3804C2.12334 61.9418 2.07298 61.5002 2.02554 61.0555L0.0368231 61.2676C0.0852825 61.7219 0.136766 62.1734 0.191348 62.6219L2.17671 62.3804ZM1.89366 59.7308C1.85276 59.289 1.81461 58.8444 1.77916 58.3971L-0.214589 58.5551C-0.178457 59.011 -0.139558 59.4644 -0.0978236 59.9152L1.89366 59.7308ZM1.6824 57.0705C1.65281 56.6272 1.62575 56.1814 1.60116 55.7331L-0.395838 55.8427C-0.370823 56.2987 -0.343287 56.7524 -0.313163 57.2037L1.6824 57.0705ZM1.53567 54.4026C1.51629 53.9588 1.49921 53.5127 1.4844 53.0643L-0.514512 53.1304C-0.499467 53.5856 -0.482125 54.0388 -0.462424 54.4898L1.53567 54.4026ZM1.44705 51.7295C1.43684 51.2854 1.42874 50.8391 1.42272 50.3908L-0.577101 50.4177C-0.570991 50.8722 -0.562781 51.3248 -0.552417 51.7755L1.44705 51.7295ZM1.41085 49.0532C1.40986 48.8293 1.40938 48.6049 1.40938 48.38H-0.590625C-0.590625 48.6078 -0.590131 48.8351 -0.589136 49.062L1.41085 49.0532ZM54.4494 48.38C54.4494 48.1593 54.4491 47.9387 54.4484 47.7183L52.4485 47.724C52.4491 47.9425 52.4494 48.1611 52.4494 48.38H54.4494ZM54.4405 46.3961C54.4364 45.9543 54.4307 45.5133 54.4233 45.0735L52.4236 45.1072C52.4309 45.5417 52.4365 45.9776 52.4406 46.4147L54.4405 46.3961ZM54.3953 43.7482C54.384 43.3048 54.3706 42.8627 54.355 42.4223L52.3563 42.493C52.3716 42.9265 52.3848 43.362 52.396 43.7993L54.3953 43.7482ZM54.3008 41.096C54.2802 40.6519 54.2569 40.2097 54.2309 39.7697L52.2344 39.8878C52.2599 40.319 52.2827 40.7529 52.303 41.189L54.3008 41.096ZM54.1433 38.4437C54.1107 37.9986 54.0749 37.5561 54.0357 37.1164L52.0436 37.294C52.0818 37.7227 52.1168 38.1548 52.1486 38.5898L54.1433 38.4437ZM53.9056 35.7878C53.8579 35.342 53.8062 34.8994 53.7504 34.4603L51.7664 34.7124C51.8205 35.1378 51.8706 35.5673 51.9169 36.0007L53.9056 35.7878ZM53.5673 33.1344C53.5006 32.6891 53.4292 32.2478 53.3527 31.8109L51.3827 32.1559C51.4562 32.5757 51.525 33.0006 51.5893 33.4304L53.5673 33.1344ZM53.1029 30.4908C53.0124 30.0472 52.9161 29.6086 52.8135 29.1755L50.8673 29.6363C50.9648 30.0482 51.0567 30.4663 51.1432 30.8905L53.1029 30.4908ZM52.4797 27.8668C52.3592 27.4272 52.2314 26.9938 52.096 26.5671L50.1897 27.172C50.3167 27.5723 50.437 27.9803 50.5509 28.3957L52.4797 27.8668ZM51.6562 25.2797C51.4978 24.8483 51.3305 24.4246 51.1537 24.0093L49.3134 24.7924C49.4764 25.1754 49.6314 25.5678 49.7788 25.9692L51.6562 25.2797ZM50.5814 22.7617C50.376 22.3462 50.1598 21.9403 49.932 21.5447L48.1988 22.5427C48.4045 22.8999 48.6009 23.2684 48.7883 23.6477L50.5814 22.7617ZM49.199 20.3681C48.9382 19.9811 48.6644 19.6059 48.3769 19.2435L46.81 20.4864C47.0641 20.8068 47.3075 21.14 47.5404 21.4858L49.199 20.3681ZM47.4628 18.1845C47.1423 17.8436 46.8072 17.5168 46.457 17.2051L45.1274 18.6992C45.4322 18.9705 45.7248 19.2557 46.0056 19.5544L47.4628 18.1845ZM45.364 16.3189C44.9885 16.0423 44.5983 15.7814 44.1927 15.5371L43.1606 17.2502C43.5129 17.4625 43.8517 17.6889 44.1775 17.929L45.364 16.3189ZM42.9556 14.867C42.5401 14.6657 42.1108 14.4802 41.6673 14.3111L40.9549 16.1799C41.3449 16.3286 41.7209 16.4911 42.0836 16.6668L42.9556 14.867ZM40.3426 13.8675C39.9056 13.7405 39.4564 13.6279 38.9948 13.5303L38.5809 15.487C38.9951 15.5746 39.3961 15.6751 39.7841 15.788L40.3426 13.8675ZM37.6344 13.291C37.1899 13.228 36.7349 13.1776 36.269 13.1403L36.1091 15.1339C36.5358 15.1681 36.9505 15.214 37.3536 15.2712L37.6344 13.291ZM34.9033 13.0688C34.6744 13.0629 34.4431 13.06 34.2094 13.06V15.06C34.4264 15.06 34.6407 15.0627 34.8523 15.0681L34.9033 13.0688ZM34.2094 13.06C33.9756 13.06 33.7443 13.0629 33.5154 13.0688L33.5665 15.0681C33.778 15.0627 33.9923 15.06 34.2094 15.06V13.06ZM32.1497 13.1403C31.6839 13.1776 31.2288 13.228 30.7844 13.291L31.0652 15.2712C31.4682 15.214 31.883 15.1681 32.3096 15.1339L32.1497 13.1403ZM29.424 13.5303C28.9623 13.6279 28.5131 13.7405 28.0761 13.8675L28.6346 15.788C29.0227 15.6751 29.4236 15.5746 29.8379 15.487L29.424 13.5303ZM26.7514 14.3111C26.3079 14.4802 25.8786 14.6657 25.4631 14.867L26.3352 16.6668C26.6978 16.4911 27.0739 16.3286 27.4639 16.1799L26.7514 14.3111ZM24.2261 15.5371C23.8205 15.7814 23.4302 16.0423 23.0548 16.3189L24.2412 17.929C24.5671 17.6889 24.9058 17.4625 25.2581 17.2502L24.2261 15.5371ZM21.9618 17.2051C21.6116 17.5168 21.2765 17.8436 20.9559 18.1845L22.4131 19.5544C22.6939 19.2557 22.9865 18.9705 23.2914 18.6992L21.9618 17.2051ZM20.0418 19.2435C19.7544 19.6059 19.4806 19.9811 19.2198 20.3681L20.8783 21.4857C21.1113 21.14 21.3546 20.8068 21.6087 20.4864L20.0418 19.2435ZM18.4867 21.5447C18.259 21.9402 18.0427 22.3462 17.8374 22.7617L19.6304 23.6477C19.8179 23.2684 20.0143 22.8999 20.22 22.5427L18.4867 21.5447ZM17.265 24.0093C17.0883 24.4246 16.921 24.8483 16.7625 25.2797L18.6399 25.9692C18.7873 25.5678 18.9424 25.1754 19.1054 24.7924L17.265 24.0093ZM16.3227 26.5671C16.1873 26.9938 16.0596 27.4272 15.939 27.8668L17.8678 28.3957C17.9817 27.9803 18.102 27.5723 18.2291 27.172L16.3227 26.5671ZM15.6052 29.1755C15.5027 29.6086 15.4064 30.0472 15.3159 30.4908L17.2755 30.8905C17.362 30.4663 17.4539 30.0482 17.5514 29.6363L15.6052 29.1755ZM15.0661 31.8109C14.9896 32.2478 14.9181 32.689 14.8515 33.1344L16.8295 33.4304C16.8938 33.0006 16.9626 32.5757 17.0361 32.1559L15.0661 31.8109ZM14.6683 34.4603C14.6125 34.8994 14.5609 35.342 14.5132 35.7878L16.5018 36.0007C16.5482 35.5673 16.5983 35.1378 16.6524 34.7124L14.6683 34.4603ZM14.3831 37.1164C14.3439 37.5561 14.3081 37.9986 14.2755 38.4437L16.2701 38.5898C16.302 38.1548 16.3369 37.7227 16.3752 37.294L14.3831 37.1164ZM14.1878 39.7697C14.1618 40.2097 14.1386 40.6519 14.1179 41.096L16.1157 41.189C16.1361 40.7529 16.1589 40.319 16.1844 39.8878L14.1878 39.7697ZM14.0637 42.4223C14.0481 42.8627 14.0348 43.3048 14.0235 43.7482L16.0228 43.7993C16.034 43.362 16.0471 42.9265 16.0625 42.493L14.0637 42.4223ZM13.9955 45.0735C13.9881 45.5134 13.9824 45.9543 13.9783 46.3961L15.9782 46.4147C15.9823 45.9776 15.9879 45.5417 15.9952 45.1072L13.9955 45.0735ZM13.9703 47.7183C13.9697 47.9387 13.9694 48.1593 13.9694 48.38H15.9694C15.9694 48.1611 15.9697 47.9425 15.9703 47.724L13.9703 47.7183ZM13.9694 48.38C13.9694 48.6038 13.9697 48.8273 13.9702 49.0505L15.9702 49.0453C15.9697 48.8239 15.9694 48.6021 15.9694 48.38H13.9694ZM13.9776 50.3881C13.9815 50.8359 13.9867 51.2821 13.9937 51.7267L15.9934 51.6957C15.9866 51.256 15.9814 50.8144 15.9776 50.3709L13.9776 50.3881ZM14.0198 53.0682C14.0303 53.5175 14.0428 53.9648 14.0574 54.4099L16.0563 54.3444C16.042 53.9058 16.0296 53.4646 16.0192 53.0211L14.0198 53.0682ZM14.1082 55.7514C14.1276 56.201 14.1494 56.6481 14.1739 57.0926L16.1709 56.9827C16.1469 56.5465 16.1254 56.1072 16.1063 55.6651L14.1082 55.7514ZM14.2566 58.4354C14.2874 58.8869 14.3213 59.3354 14.3585 59.7805L16.3516 59.6142C16.3153 59.1795 16.2821 58.741 16.2519 58.299L14.2566 58.4354ZM14.4819 61.125C14.5273 61.5766 14.5764 62.0245 14.6295 62.4684L16.6154 62.2307C16.5638 61.8 16.5161 61.3647 16.4719 60.925L14.4819 61.125ZM14.8043 63.8102C14.8681 64.2614 14.9365 64.7081 15.0098 65.15L16.9828 64.8228C16.9123 64.3974 16.8463 63.9665 16.7847 63.5304L14.8043 63.8102ZM15.2497 66.4868C15.3369 66.9366 15.4297 67.381 15.5286 67.8195L17.4796 67.3795C17.3854 66.9617 17.2967 66.5373 17.2132 66.1064L15.2497 66.4868ZM15.8519 69.1478C15.969 69.5947 16.0932 70.0349 16.2249 70.4679L18.1383 69.8858C18.0145 69.4789 17.8974 69.0638 17.7865 68.6408L15.8519 69.1478ZM16.654 71.776C16.809 72.2148 16.9728 72.6455 17.1461 73.0675L18.9962 72.3079C18.8363 71.9183 18.6843 71.5189 18.5398 71.1099L16.654 71.776ZM17.7087 74.3366C17.9112 74.7602 18.1248 75.1737 18.35 75.5764L20.0957 74.6004C19.8922 74.2365 19.6981 73.8608 19.513 73.4737L17.7087 74.3366ZM19.0776 76.7772C19.3373 77.1728 19.6103 77.5559 19.8972 77.9258L21.4776 76.7001C21.224 76.3732 20.9815 76.0329 20.7494 75.6795L19.0776 76.7772ZM20.8123 79.008C21.1339 79.3566 21.4705 79.6905 21.8227 80.0087L23.1636 78.5247C22.8574 78.2481 22.5638 77.957 22.2823 77.6518L20.8123 79.008ZM22.9239 80.9135C23.3026 81.1959 23.6966 81.4618 24.1064 81.7107L25.1446 80.0014C24.7891 79.7854 24.4475 79.5548 24.1193 79.3101L22.9239 80.9135ZM25.3571 82.3927C25.7773 82.5973 26.2117 82.7856 26.6607 82.9571L27.3743 81.0887C26.9795 80.9379 26.5991 80.773 26.2327 80.5946L25.3571 82.3927ZM28.0018 83.4063C28.444 83.5348 28.8988 83.6485 29.3663 83.747L29.7788 81.79C29.3588 81.7015 28.9526 81.5999 28.5597 81.4857L28.0018 83.4063ZM30.7435 83.9881C31.1932 84.0515 31.6538 84.102 32.1254 84.1395L32.2841 82.1458C31.8514 82.1114 31.431 82.0652 31.0226 82.0077L30.7435 83.9881ZM33.5074 84.2112C33.7389 84.2171 33.9729 84.22 34.2094 84.22V82.22C33.9894 82.22 33.7723 82.2173 33.5579 82.2119L33.5074 84.2112ZM34.2094 84.22C34.4459 84.22 34.6798 84.2171 34.9113 84.2112L34.8608 82.2119C34.6465 82.2173 34.4293 82.22 34.2094 82.22V84.22ZM36.2933 84.1395C36.7649 84.102 37.2255 84.0515 37.6752 83.9881L37.3961 82.0077C36.9877 82.0652 36.5674 82.1114 36.1347 82.1458L36.2933 84.1395ZM39.0524 83.747C39.52 83.6485 39.9747 83.5348 40.417 83.4063L39.859 81.4857C39.4661 81.5999 39.0599 81.7015 38.64 81.79L39.0524 83.747ZM41.758 82.9571C42.207 82.7856 42.6414 82.5973 43.0616 82.3927L42.1861 80.5946C41.8196 80.773 41.4392 80.9379 41.0444 81.0887L41.758 82.9571ZM44.3124 81.7108C44.7222 81.4618 45.1162 81.1959 45.4949 80.9135L44.2995 79.3101C43.9713 79.5548 43.6297 79.7854 43.2741 80.0014L44.3124 81.7108ZM46.596 80.0087C46.9482 79.6905 47.2848 79.3566 47.6065 79.008L46.1365 77.6518C45.855 77.957 45.5614 78.2481 45.2552 78.5247L46.596 80.0087ZM48.5215 77.9258C48.8084 77.5559 49.0814 77.1728 49.3411 76.7772L47.6693 75.6795C47.4373 76.0329 47.1947 76.3732 46.9412 76.7001L48.5215 77.9258ZM50.0688 75.5764C50.294 75.1737 50.5075 74.7602 50.7101 74.3366L48.9058 73.4737C48.7207 73.8608 48.5266 74.2365 48.3231 74.6004L50.0688 75.5764ZM51.2727 73.0675C51.4459 72.6455 51.6098 72.2148 51.7648 71.776L49.8789 71.1099C49.7345 71.5189 49.5825 71.9183 49.4225 72.3079L51.2727 73.0675ZM52.1938 70.4679C52.3256 70.0349 52.4498 69.5947 52.5669 69.1478L50.6322 68.6408C50.5214 69.0638 50.4042 69.4789 50.2804 69.8858L52.1938 70.4679ZM52.8901 67.8195C52.989 67.381 53.0819 66.9366 53.169 66.4868L51.2055 66.1064C51.1221 66.5373 51.0334 66.9617 50.9391 67.3795L52.8901 67.8195ZM53.409 65.15C53.4823 64.7081 53.5506 64.2614 53.6144 63.8103L51.6341 63.5304C51.5724 63.9665 51.5065 64.3974 51.4359 64.8228L53.409 65.15ZM53.7892 62.4684C53.8423 62.0245 53.8915 61.5766 53.9368 61.125L51.9469 60.925C51.9027 61.3647 51.8549 61.8 51.8034 62.2307L53.7892 62.4684ZM54.0603 59.7805C54.0974 59.3354 54.1313 58.8869 54.1622 58.4354L52.1668 58.299C52.1366 58.741 52.1035 59.1795 52.0672 59.6142L54.0603 59.7805ZM54.2449 57.0926C54.2693 56.6481 54.2911 56.201 54.3106 55.7514L52.3124 55.6651C52.2933 56.1072 52.2719 56.5465 52.2479 56.9827L54.2449 57.0926ZM54.3614 54.4099C54.3759 53.9648 54.3884 53.5175 54.399 53.0682L52.3996 53.0211C52.3891 53.4646 52.3768 53.9058 52.3624 54.3444L54.3614 54.4099ZM54.4251 51.7267C54.432 51.2822 54.4373 50.8359 54.4411 50.3881L52.4412 50.3709C52.4374 50.8144 52.4322 51.2561 52.4253 51.6957L54.4251 51.7267ZM54.4485 49.0505C54.4491 48.8273 54.4494 48.6038 54.4494 48.38H52.4494C52.4494 48.6021 52.4491 48.8239 52.4485 49.0453L54.4485 49.0505ZM93.8306 97H93.3306V97.5H93.8306V97ZM108.781 97V97.5H109.281V97H108.781ZM108.781 2.23H109.281V1.73H108.781V2.23ZM81.7406 2.23V1.73H81.2406V2.23H81.7406ZM81.7406 15.75H81.2406V16.25H81.7406V15.75ZM93.8306 15.75H94.3306V15.25H93.8306V15.75ZM94.3306 97V96.3229H93.3306V97H94.3306ZM94.3306 94.9687V93.6146H93.3306V94.9687H94.3306ZM94.3306 92.2604V90.9063H93.3306V92.2604H94.3306ZM94.3306 89.5521V88.1979H93.3306V89.5521H94.3306ZM94.3306 86.8438V85.4896H93.3306V86.8438H94.3306ZM94.3306 84.1354V82.7812H93.3306V84.1354H94.3306ZM94.3306 81.4271V80.0729H93.3306V81.4271H94.3306ZM94.3306 78.7188V77.3646H93.3306V78.7188H94.3306ZM94.3306 76.0104V74.6563H93.3306V76.0104H94.3306ZM94.3306 73.3021V71.9479H93.3306V73.3021H94.3306ZM94.3306 70.5938V69.2396H93.3306V70.5938H94.3306ZM94.3306 67.8854V66.5313H93.3306V67.8854H94.3306ZM94.3306 65.1771V63.8229H93.3306V65.1771H94.3306ZM94.3306 62.4688V61.1146H93.3306V62.4688H94.3306ZM94.3306 59.7604V58.4063H93.3306V59.7604H94.3306ZM94.3306 57.0521V55.6979H93.3306V57.0521H94.3306ZM94.3306 54.3437V52.9896H93.3306V54.3437H94.3306ZM94.3306 51.6354V50.2812H93.3306V51.6354H94.3306ZM94.3306 48.9271V47.5729H93.3306V48.9271H94.3306ZM94.3306 46.2187V44.8646H93.3306V46.2187H94.3306ZM94.3306 43.5104V42.1562H93.3306V43.5104H94.3306ZM94.3306 40.8021V39.4479H93.3306V40.8021H94.3306ZM94.3306 38.0937V36.7396H93.3306V38.0937H94.3306ZM94.3306 35.3854V34.0312H93.3306V35.3854H94.3306ZM94.3306 32.6771V31.3229H93.3306V32.6771H94.3306ZM94.3306 29.9687V28.6146H93.3306V29.9687H94.3306ZM94.3306 27.2604V25.9062H93.3306V27.2604H94.3306ZM94.3306 24.5521V23.1979H93.3306V24.5521H94.3306ZM94.3306 21.8437V20.4896H93.3306V21.8437H94.3306ZM94.3306 19.1354V17.7813H93.3306V19.1354H94.3306ZM94.3306 16.4271V15.75H93.3306V16.4271H94.3306ZM93.8306 15.25H93.2261V16.25H93.8306V15.25ZM92.0171 15.25H90.8081V16.25H92.0171V15.25ZM89.5991 15.25H88.3901V16.25H89.5991V15.25ZM87.1811 15.25H85.9721V16.25H87.1811V15.25ZM84.7631 15.25H83.5541V16.25H84.7631V15.25ZM82.3451 15.25H81.7406V16.25H82.3451V15.25ZM82.2406 15.75V15.074H81.2406V15.75H82.2406ZM82.2406 13.722V12.37H81.2406V13.722H82.2406ZM82.2406 11.018V9.666H81.2406V11.018H82.2406ZM82.2406 8.314V6.962H81.2406V8.314H82.2406ZM82.2406 5.61V4.258H81.2406V5.61H82.2406ZM82.2406 2.906V2.23H81.2406V2.906H82.2406ZM81.7406 2.73H82.4166V1.73H81.7406V2.73ZM83.7686 2.73H85.1206V1.73H83.7686V2.73ZM86.4726 2.73H87.8246V1.73H86.4726V2.73ZM89.1766 2.73H90.5286V1.73H89.1766V2.73ZM91.8806 2.73H93.2326V1.73H91.8806V2.73ZM94.5846 2.73H95.9366V1.73H94.5846V2.73ZM97.2886 2.73H98.6406V1.73H97.2886V2.73ZM99.9926 2.73H101.345V1.73H99.9926V2.73ZM102.697 2.73H104.049V1.73H102.697V2.73ZM105.401 2.73H106.753V1.73H105.401V2.73ZM108.105 2.73H108.781V1.73H108.105V2.73ZM108.281 2.23V2.90692H109.281V2.23H108.281ZM108.281 4.26078V5.61464H109.281V4.26078H108.281ZM108.281 6.9685V8.32235H109.281V6.9685H108.281ZM108.281 9.67621V11.0301H109.281V9.67621H108.281ZM108.281 12.3839V13.7378H109.281V12.3839H108.281ZM108.281 15.0916V16.4455H109.281V15.0916H108.281ZM108.281 17.7994V19.1532H109.281V17.7994H108.281ZM108.281 20.5071V21.8609H109.281V20.5071H108.281ZM108.281 23.2148V24.5686H109.281V23.2148H108.281ZM108.281 25.9225V27.2764H109.281V25.9225H108.281ZM108.281 28.6302V29.9841H109.281V28.6302H108.281ZM108.281 31.3379V32.6918H109.281V31.3379H108.281ZM108.281 34.0456V35.3995H109.281V34.0456H108.281ZM108.281 36.7534V38.1072H109.281V36.7534H108.281ZM108.281 39.4611V40.8149H109.281V39.4611H108.281ZM108.281 42.1688V43.5226H109.281V42.1688H108.281ZM108.281 44.8765V46.2304H109.281V44.8765H108.281ZM108.281 47.5842V48.9381H109.281V47.5842H108.281ZM108.281 50.2919V51.6458H109.281V50.2919H108.281ZM108.281 52.9997V54.3535H109.281V52.9997H108.281ZM108.281 55.7074V57.0612H109.281V55.7074H108.281ZM108.281 58.4151V59.769H109.281V58.4151H108.281ZM108.281 61.1228V62.4767H109.281V61.1228H108.281ZM108.281 63.8305V65.1844H109.281V63.8305H108.281ZM108.281 66.5382V67.8921H109.281V66.5382H108.281ZM108.281 69.246V70.5998H109.281V69.246H108.281ZM108.281 71.9537V73.3075H109.281V71.9537H108.281ZM108.281 74.6614V76.0153H109.281V74.6614H108.281ZM108.281 77.3691V78.723H109.281V77.3691H108.281ZM108.281 80.0768V81.4307H109.281V80.0768H108.281ZM108.281 82.7846V84.1384H109.281V82.7846H108.281ZM108.281 85.4923V86.8461H109.281V85.4923H108.281ZM108.281 88.2V89.5538H109.281V88.2H108.281ZM108.281 90.9077V92.2616H109.281V90.9077H108.281ZM108.281 93.6154V94.9693H109.281V93.6154H108.281ZM108.281 96.3231V97H109.281V96.3231H108.281ZM108.781 96.5H108.158V97.5H108.781V96.5ZM106.912 96.5H105.666V97.5H106.912V96.5ZM104.42 96.5H103.174V97.5H104.42V96.5ZM101.929 96.5H100.683V97.5H101.929V96.5ZM99.4369 96.5H98.191V97.5H99.4369V96.5ZM96.9452 96.5H95.6994V97.5H96.9452V96.5ZM94.4535 96.5H93.8306V97.5H94.4535V96.5ZM93.8306 97H92.8306V98H93.8306V97ZM108.781 97V98H109.781V97H108.781ZM108.781 2.23H109.781V1.23H108.781V2.23ZM81.7406 2.23V1.23H80.7406V2.23H81.7406ZM81.7406 15.75H80.7406V16.75H81.7406V15.75ZM93.8306 15.75H94.8306V14.75H93.8306V15.75ZM94.8306 97V96.3229H92.8306V97H94.8306ZM94.8306 94.9687V93.6146H92.8306V94.9687H94.8306ZM94.8306 92.2604V90.9063H92.8306V92.2604H94.8306ZM94.8306 89.5521V88.1979H92.8306V89.5521H94.8306ZM94.8306 86.8438V85.4896H92.8306V86.8438H94.8306ZM94.8306 84.1354V82.7812H92.8306V84.1354H94.8306ZM94.8306 81.4271V80.0729H92.8306V81.4271H94.8306ZM94.8306 78.7188V77.3646H92.8306V78.7188H94.8306ZM94.8306 76.0104V74.6563H92.8306V76.0104H94.8306ZM94.8306 73.3021V71.9479H92.8306V73.3021H94.8306ZM94.8306 70.5938V69.2396H92.8306V70.5938H94.8306ZM94.8306 67.8854V66.5313H92.8306V67.8854H94.8306ZM94.8306 65.1771V63.8229H92.8306V65.1771H94.8306ZM94.8306 62.4688V61.1146H92.8306V62.4688H94.8306ZM94.8306 59.7604V58.4063H92.8306V59.7604H94.8306ZM94.8306 57.0521V55.6979H92.8306V57.0521H94.8306ZM94.8306 54.3437V52.9896H92.8306V54.3437H94.8306ZM94.8306 51.6354V50.2812H92.8306V51.6354H94.8306ZM94.8306 48.9271V47.5729H92.8306V48.9271H94.8306ZM94.8306 46.2187V44.8646H92.8306V46.2187H94.8306ZM94.8306 43.5104V42.1562H92.8306V43.5104H94.8306ZM94.8306 40.8021V39.4479H92.8306V40.8021H94.8306ZM94.8306 38.0937V36.7396H92.8306V38.0937H94.8306ZM94.8306 35.3854V34.0312H92.8306V35.3854H94.8306ZM94.8306 32.6771V31.3229H92.8306V32.6771H94.8306ZM94.8306 29.9687V28.6146H92.8306V29.9687H94.8306ZM94.8306 27.2604V25.9062H92.8306V27.2604H94.8306ZM94.8306 24.5521V23.1979H92.8306V24.5521H94.8306ZM94.8306 21.8437V20.4896H92.8306V21.8437H94.8306ZM94.8306 19.1354V17.7813H92.8306V19.1354H94.8306ZM94.8306 16.4271V15.75H92.8306V16.4271H94.8306ZM93.8306 14.75H93.2261V16.75H93.8306V14.75ZM92.0171 14.75H90.8081V16.75H92.0171V14.75ZM89.5991 14.75H88.3901V16.75H89.5991V14.75ZM87.1811 14.75H85.9721V16.75H87.1811V14.75ZM84.7631 14.75H83.5541V16.75H84.7631V14.75ZM82.3451 14.75H81.7406V16.75H82.3451V14.75ZM82.7406 15.75V15.074H80.7406V15.75H82.7406ZM82.7406 13.722V12.37H80.7406V13.722H82.7406ZM82.7406 11.018V9.666H80.7406V11.018H82.7406ZM82.7406 8.314V6.962H80.7406V8.314H82.7406ZM82.7406 5.61V4.258H80.7406V5.61H82.7406ZM82.7406 2.906V2.23H80.7406V2.906H82.7406ZM81.7406 3.23H82.4166V1.23H81.7406V3.23ZM83.7686 3.23H85.1206V1.23H83.7686V3.23ZM86.4726 3.23H87.8246V1.23H86.4726V3.23ZM89.1766 3.23H90.5286V1.23H89.1766V3.23ZM91.8806 3.23H93.2326V1.23H91.8806V3.23ZM94.5846 3.23H95.9366V1.23H94.5846V3.23ZM97.2886 3.23H98.6406V1.23H97.2886V3.23ZM99.9926 3.23H101.345V1.23H99.9926V3.23ZM102.697 3.23H104.049V1.23H102.697V3.23ZM105.401 3.23H106.753V1.23H105.401V3.23ZM108.105 3.23H108.781V1.23H108.105V3.23ZM107.781 2.23V2.90692H109.781V2.23H107.781ZM107.781 4.26078V5.61464H109.781V4.26078H107.781ZM107.781 6.9685V8.32235H109.781V6.9685H107.781ZM107.781 9.67621V11.0301H109.781V9.67621H107.781ZM107.781 12.3839V13.7378H109.781V12.3839H107.781ZM107.781 15.0916V16.4455H109.781V15.0916H107.781ZM107.781 17.7994V19.1532H109.781V17.7994H107.781ZM107.781 20.5071V21.8609H109.781V20.5071H107.781ZM107.781 23.2148V24.5686H109.781V23.2148H107.781ZM107.781 25.9225V27.2764H109.781V25.9225H107.781ZM107.781 28.6302V29.9841H109.781V28.6302H107.781ZM107.781 31.3379V32.6918H109.781V31.3379H107.781ZM107.781 34.0456V35.3995H109.781V34.0456H107.781ZM107.781 36.7534V38.1072H109.781V36.7534H107.781ZM107.781 39.4611V40.8149H109.781V39.4611H107.781ZM107.781 42.1688V43.5226H109.781V42.1688H107.781ZM107.781 44.8765V46.2304H109.781V44.8765H107.781ZM107.781 47.5842V48.9381H109.781V47.5842H107.781ZM107.781 50.2919V51.6458H109.781V50.2919H107.781ZM107.781 52.9997V54.3535H109.781V52.9997H107.781ZM107.781 55.7074V57.0612H109.781V55.7074H107.781ZM107.781 58.4151V59.769H109.781V58.4151H107.781ZM107.781 61.1228V62.4767H109.781V61.1228H107.781ZM107.781 63.8305V65.1844H109.781V63.8305H107.781ZM107.781 66.5382V67.8921H109.781V66.5382H107.781ZM107.781 69.246V70.5998H109.781V69.246H107.781ZM107.781 71.9537V73.3075H109.781V71.9537H107.781ZM107.781 74.6614V76.0153H109.781V74.6614H107.781ZM107.781 77.3691V78.723H109.781V77.3691H107.781ZM107.781 80.0768V81.4307H109.781V80.0768H107.781ZM107.781 82.7846V84.1384H109.781V82.7846H107.781ZM107.781 85.4923V86.8461H109.781V85.4923H107.781ZM107.781 88.2V89.5538H109.781V88.2H107.781ZM107.781 90.9077V92.2616H109.781V90.9077H107.781ZM107.781 93.6154V94.9693H109.781V93.6154H107.781ZM107.781 96.3231V97H109.781V96.3231H107.781ZM108.781 96H108.158V98H108.781V96ZM106.912 96H105.666V98H106.912V96ZM104.42 96H103.174V98H104.42V96ZM101.929 96H100.683V98H101.929V96ZM99.4369 96H98.191V98H99.4369V96ZM96.9452 96H95.6994V98H96.9452V96ZM94.4535 96H93.8306V98H94.4535V96Z" fill="#1268FB"/>
</svg>
