<svg width="145" height="98" viewBox="0 0 145 98" fill="none" xmlns="http://www.w3.org/2000/svg">
<path d="M0.565625 48.38C0.565625 48.1562 0.566126 47.9328 0.567133 47.7099L-0.432856 47.7054C-0.433871 47.9298 -0.434375 48.1547 -0.434375 48.38H0.565625ZM0.579319 46.3777C0.585504 45.9312 0.593812 45.4867 0.604298 45.0441L-0.395421 45.0204C-0.405986 45.4663 -0.414355 45.9142 -0.420585 46.3639L0.579319 46.3777ZM0.642608 43.7145C0.657809 43.2677 0.675326 42.8231 0.695219 42.3807L-0.303771 42.3358C-0.323832 42.7819 -0.341492 43.2302 -0.356813 43.6805L0.642608 43.7145ZM0.762365 41.055C0.787587 40.6081 0.815342 40.1636 0.845692 39.7215L-0.15196 39.653C-0.182594 40.0992 -0.210601 40.5478 -0.236046 40.9986L0.762365 41.055ZM0.944989 38.3977C0.981297 37.9521 1.02036 37.5092 1.06226 37.0689L0.0667524 36.9742C0.0244226 37.4191 -0.0150409 37.8665 -0.0517071 38.3165L0.944989 38.3977ZM1.19754 35.7465C1.2461 35.3034 1.29766 34.8632 1.35229 34.426L0.360003 34.302C0.304734 34.7444 0.252588 35.1896 0.203493 35.6376L1.19754 35.7465ZM1.52786 33.1063C1.58999 32.6666 1.65537 32.2301 1.7241 31.7969L0.736448 31.6402C0.666818 32.0792 0.600593 32.5212 0.537696 32.9664L1.52786 33.1063ZM1.94486 30.4817C2.02251 30.0437 2.10376 29.6092 2.18868 29.1784L1.20756 28.985C1.12138 29.4222 1.03895 29.863 0.960209 30.3071L1.94486 30.4817ZM2.4585 27.8788C2.55365 27.4431 2.65277 27.0115 2.75594 26.5839L1.78384 26.3493C1.67893 26.7841 1.57819 27.2229 1.48153 27.6654L2.4585 27.8788ZM3.08059 25.3026C3.19516 24.8716 3.3141 24.445 3.4375 24.023L2.47769 23.7423C2.35192 24.1724 2.23078 24.6069 2.11415 25.0457L3.08059 25.3026ZM3.82575 22.7564C3.96114 22.3348 4.10127 21.9181 4.24625 21.5063L3.30301 21.1742C3.15488 21.5949 3.01179 22.0204 2.87363 22.4507L3.82575 22.7564ZM4.70536 20.2615C4.86516 19.8475 5.03022 19.4391 5.20063 19.0362L4.27963 18.6466C4.105 19.0595 3.93598 19.4778 3.77246 19.9013L4.70536 20.2615ZM5.7338 17.8319C5.92033 17.4292 6.11262 17.0326 6.3108 16.6422L5.4191 16.1895C5.21538 16.5909 5.01786 16.9983 4.82642 17.4116L5.7338 17.8319ZM6.92984 15.4775C7.14432 15.092 7.36504 14.7132 7.59213 14.341L6.73851 13.8201C6.5043 14.2039 6.27685 14.5944 6.056 14.9913L6.92984 15.4775ZM8.30114 13.2322C8.54652 12.8659 8.79867 12.5069 9.05773 12.1551L8.25255 11.5621C7.98452 11.926 7.72384 12.2972 7.47036 12.6756L8.30114 13.2322ZM9.86085 11.1158C10.1371 10.7751 10.4206 10.442 10.7115 10.1167L9.96599 9.45016C9.66426 9.78762 9.37035 10.133 9.08409 10.486L9.86085 11.1158ZM11.6105 9.16C11.9179 8.84891 12.2329 8.54583 12.5556 8.25095L11.8811 7.51272C11.5457 7.8192 11.2184 8.13407 10.8992 8.45714L11.6105 9.16ZM13.546 7.39201C13.8831 7.11467 14.228 6.84559 14.5809 6.58492L13.9869 5.78051C13.6198 6.05159 13.2611 6.33142 12.9106 6.61979L13.546 7.39201ZM15.6542 5.83481C16.0167 5.5953 16.3871 5.36405 16.7656 5.14121L16.2582 4.27948C15.8649 4.51107 15.4798 4.75146 15.1029 5.0005L15.6542 5.83481ZM17.9138 4.50412C18.2989 4.30307 18.6918 4.11016 19.0928 3.92556L18.6746 3.0172C18.2587 3.20869 17.8508 3.40889 17.4509 3.61766L17.9138 4.50412ZM20.2952 3.40677C20.6978 3.24435 21.108 3.08981 21.5259 2.94331L21.1952 1.9996C20.7628 2.15116 20.3381 2.31114 19.9211 2.4794L20.2952 3.40677ZM22.7798 2.53507C23.1933 2.41046 23.614 2.29329 24.042 2.18369L23.7939 1.21495C23.3526 1.32797 22.9184 1.4489 22.4913 1.57761L22.7798 2.53507ZM25.3269 1.88224C25.7518 1.79143 26.1835 1.70773 26.6222 1.63124L26.4504 0.646103C25.9995 0.724725 25.5554 0.81083 25.1179 0.904321L25.3269 1.88224ZM27.921 1.42879C28.3547 1.369 28.7949 1.31596 29.2416 1.26976L29.1388 0.275067C28.681 0.322403 28.2295 0.376795 27.7844 0.438157L27.921 1.42879ZM30.5481 1.15564C30.9837 1.12442 31.4252 1.09945 31.8728 1.08081L31.8312 0.0816799C31.3738 0.100722 30.9223 0.126252 30.4766 0.158198L30.5481 1.15564ZM33.1927 1.04455C33.4156 1.04152 33.6399 1.03999 33.8656 1.03999V0.0399944C33.6354 0.0399944 33.4066 0.0415467 33.1791 0.044643L33.1927 1.04455ZM33.8656 1.03999C34.0914 1.03999 34.3156 1.04152 34.5385 1.04455L34.5521 0.0446427C34.3247 0.0415466 34.0959 0.0399944 33.8656 0.0399944V1.03999ZM35.8584 1.08081C36.306 1.09945 36.7476 1.12442 37.1831 1.15564L37.2546 0.158197C36.8089 0.126251 36.3574 0.100721 35.9 0.0816791L35.8584 1.08081ZM38.4896 1.26976C38.9364 1.31595 39.3766 1.369 39.8103 1.42879L39.9468 0.438155C39.5017 0.376793 39.0503 0.322401 38.5925 0.275065L38.4896 1.26976ZM41.1091 1.63124C41.5477 1.70772 41.9794 1.79143 42.4043 1.88223L42.6133 0.904317C42.1759 0.810826 41.7318 0.724722 41.2808 0.6461L41.1091 1.63124ZM43.6892 2.18368C44.1172 2.29328 44.5379 2.41046 44.9514 2.53507L45.24 1.5776C44.8129 1.44889 44.3787 1.32797 43.9373 1.21494L43.6892 2.18368ZM46.2053 2.9433C46.6233 3.08981 47.0335 3.24435 47.436 3.40677L47.8102 2.4794C47.3931 2.31113 46.9685 2.15116 46.5361 1.9996L46.2053 2.9433ZM48.6385 3.92556C49.0394 4.11015 49.4324 4.30306 49.8175 4.50411L50.2803 3.61766C49.8804 3.40888 49.4726 3.20868 49.0567 3.0172L48.6385 3.92556ZM50.9657 5.1412C51.3442 5.36404 51.7146 5.5953 52.077 5.83481L52.6283 5.00049C52.2514 4.75146 51.8664 4.51106 51.4731 4.27948L50.9657 5.1412ZM53.1503 6.58492C53.5033 6.84558 53.8482 7.11466 54.1853 7.392L54.8206 6.61978C54.4701 6.33141 54.1114 6.05159 53.7444 5.78051L53.1503 6.58492ZM55.1756 8.25094C55.4983 8.54583 55.8133 8.8489 56.1207 9.15999L56.832 8.45713C56.5128 8.13406 56.1856 7.81919 55.8501 7.51271L55.1756 8.25094ZM57.0198 10.1167C57.3106 10.442 57.5941 10.7751 57.8704 11.1158L58.6472 10.486C58.3609 10.133 58.067 9.78761 57.7653 9.45015L57.0198 10.1167ZM58.6735 12.1551C58.9326 12.5069 59.1847 12.8659 59.4301 13.2322L60.2609 12.6756C60.0074 12.2972 59.7467 11.926 59.4787 11.5621L58.6735 12.1551ZM60.1391 14.341C60.3662 14.7131 60.5869 15.092 60.8014 15.4775L61.6752 14.9913C61.4544 14.5944 61.2269 14.2039 60.9927 13.8201L60.1391 14.341ZM61.4204 16.6422C61.6186 17.0326 61.8109 17.4292 61.9974 17.8319L62.9048 17.4116C62.7134 16.9983 62.5159 16.5909 62.3121 16.1895L61.4204 16.6422ZM62.5306 19.0361C62.701 19.439 62.8661 19.8475 63.0259 20.2615L63.9588 19.9013C63.7953 19.4778 63.6263 19.0595 63.4516 18.6466L62.5306 19.0361ZM63.485 21.5063C63.63 21.918 63.7701 22.3348 63.9055 22.7564L64.8576 22.4507C64.7195 22.0204 64.5764 21.5949 64.4282 21.1742L63.485 21.5063ZM64.2938 24.0229C64.4172 24.445 64.5361 24.8715 64.6507 25.3026L65.6171 25.0457C65.5005 24.6069 65.3793 24.1724 65.2536 23.7423L64.2938 24.0229ZM64.9753 26.5838C65.0785 27.0114 65.1776 27.4431 65.2727 27.8788L66.2497 27.6654C66.1531 27.2228 66.0523 26.7841 65.9474 26.3493L64.9753 26.5838ZM65.5426 29.1783C65.6275 29.6092 65.7087 30.0437 65.7864 30.4817L66.771 30.3071C66.6923 29.863 66.6099 29.4222 66.5237 28.985L65.5426 29.1783ZM66.0072 31.7969C66.0759 32.2301 66.1413 32.6666 66.2034 33.1063L67.1936 32.9664C67.1307 32.5212 67.0644 32.0791 66.9948 31.6402L66.0072 31.7969ZM66.379 34.426C66.4336 34.8632 66.4852 35.3034 66.5337 35.7465L67.5278 35.6375C67.4787 35.1896 67.4265 34.7444 67.3713 34.302L66.379 34.426ZM66.669 37.0689C66.7109 37.5092 66.75 37.9521 66.7863 38.3977L67.783 38.3164C67.7463 37.8665 67.7068 37.419 67.6645 36.9742L66.669 37.0689ZM66.8856 39.7215C66.9159 40.1636 66.9437 40.6081 66.9689 41.055L67.9673 40.9986C67.9419 40.5478 67.9138 40.0992 67.8832 39.653L66.8856 39.7215ZM67.036 42.3807C67.0559 42.8231 67.0734 43.2677 67.0886 43.7144L68.0881 43.6804C68.0727 43.2302 68.0551 42.7819 68.035 42.3357L67.036 42.3807ZM67.127 45.044C67.1374 45.4866 67.1458 45.9312 67.1519 46.3777L68.1518 46.3638C68.1456 45.9142 68.1372 45.4663 68.1267 45.0204L67.127 45.044ZM67.1641 47.7099C67.1651 47.9328 67.1656 48.1562 67.1656 48.38H68.1656C68.1656 48.1547 68.1651 47.9298 68.1641 47.7053L67.1641 47.7099ZM67.1656 48.38C67.1656 48.6056 67.1651 48.8307 67.1642 49.0554L68.1641 49.0597C68.1651 48.8336 68.1656 48.607 68.1656 48.38H67.1656ZM67.1522 50.3975C67.1462 50.8474 67.1381 51.2952 67.1278 51.741L68.1276 51.764C68.1379 51.3149 68.1461 50.8639 68.1522 50.411L67.1522 50.3975ZM67.0903 53.0808C67.0755 53.5309 67.0583 53.9787 67.0389 54.4243L68.0379 54.468C68.0575 54.0188 68.0748 53.5674 68.0898 53.1138L67.0903 53.0808ZM66.9731 55.7605C66.9484 56.2107 66.9212 56.6585 66.8915 57.1037L67.8893 57.1703C67.9193 56.721 67.9467 56.2693 67.9716 55.8153L66.9731 55.7605ZM66.7943 58.4366C66.7587 58.8861 66.7203 59.3329 66.6792 59.7769L67.675 59.8691C67.7165 59.4206 67.7552 58.9694 67.7912 58.5156L66.7943 58.4366ZM66.5466 61.1085C66.499 61.5556 66.4483 61.9997 66.3946 62.4407L67.3873 62.5615C67.4416 62.1154 67.4928 61.6664 67.541 61.2145L66.5466 61.1085ZM66.2224 63.7699C66.1613 64.2137 66.097 64.6542 66.0294 65.0914L67.0177 65.2442C67.0862 64.8014 67.1513 64.3554 67.2131 63.9063L66.2224 63.7699ZM65.8127 66.4164C65.7364 66.8577 65.6566 67.2953 65.5732 67.7292L66.5552 67.9179C66.6398 67.4778 66.7207 67.034 66.798 66.5867L65.8127 66.4164ZM65.3073 69.042C65.2138 69.4811 65.1163 69.9161 65.0148 70.347L65.9882 70.5762C66.0913 70.1382 66.1904 69.6963 66.2854 69.2504L65.3073 69.042ZM64.6953 71.6391C64.5822 72.0747 64.4649 72.5057 64.3431 72.9321L65.3046 73.2068C65.4287 72.7724 65.5482 72.3335 65.6632 71.8903L64.6953 71.6391ZM63.9606 74.2094C63.8268 74.6359 63.6883 75.0574 63.545 75.4737L64.4906 75.7992C64.6369 75.3739 64.7783 74.9437 64.9147 74.5088L63.9606 74.2094ZM63.0918 76.7306C62.934 77.1486 62.771 77.561 62.6027 77.9678L63.5268 78.3501C63.6992 77.9334 63.866 77.5113 64.0274 77.0838L63.0918 76.7306ZM62.0749 79.1863C61.8902 79.5938 61.6998 79.9952 61.5035 80.3902L62.399 80.8352C62.6007 80.4293 62.7962 80.0172 62.9857 79.5992L62.0749 79.1863ZM60.8904 81.5681C60.6778 81.9583 60.459 82.3418 60.2338 82.7184L61.0922 83.2315C61.3243 82.8432 61.5497 82.4482 61.7685 82.0466L60.8904 81.5681ZM59.5287 83.8436C59.2849 84.2148 59.0344 84.5787 58.7769 84.9352L59.5876 85.5207C59.8539 85.152 60.1128 84.7759 60.3646 84.3926L59.5287 83.8436ZM57.9778 85.9894C57.7026 86.3354 57.42 86.6737 57.1301 87.004L57.8817 87.6636C58.1824 87.321 58.4753 86.9704 58.7604 86.6119L57.9778 85.9894ZM56.2331 87.9761C55.9262 88.2923 55.6116 88.6004 55.2892 88.9001L55.9702 89.6325C56.3052 89.321 56.632 89.0009 56.9507 88.6725L56.2331 87.9761ZM54.2989 89.7739C53.9618 90.056 53.6167 90.3297 53.2635 90.5947L53.8638 91.3945C54.2312 91.1188 54.59 90.8342 54.9406 90.5408L54.2989 89.7739ZM52.1881 91.3585C51.8245 91.6025 51.4529 91.8381 51.0731 92.065L51.5861 92.9234C51.9809 92.6875 52.3673 92.4426 52.7453 92.1888L52.1881 91.3585ZM49.9201 92.7142C49.5339 92.9188 49.1397 93.115 48.7374 93.3028L49.1603 94.2089C49.5777 94.0141 49.9869 93.8104 50.3881 93.598L49.9201 92.7142ZM47.5282 93.8315C47.1232 93.9971 46.7104 94.1546 46.2898 94.3038L46.6242 95.2463C47.0594 95.0918 47.4869 94.9287 47.9065 94.7572L47.5282 93.8315ZM45.03 94.719C44.6137 94.846 44.19 94.9653 43.7589 95.077L44.0096 96.045C44.4543 95.9299 44.8916 95.8067 45.3218 95.6755L45.03 94.719ZM42.4647 95.3839C42.0374 95.4762 41.6031 95.5613 41.1619 95.639L41.3353 96.6238C41.789 96.5439 42.2358 96.4564 42.6758 96.3614L42.4647 95.3839ZM39.8531 95.845C39.4162 95.9058 38.9727 95.9597 38.5226 96.0067L38.6263 97.0013C39.0877 96.9532 39.5425 96.8979 39.991 96.8355L39.8531 95.845ZM37.2074 96.1226C36.7686 96.1543 36.3238 96.1796 35.8728 96.1986L35.9147 97.1977C36.3756 97.1784 36.8305 97.1524 37.2795 97.12L37.2074 96.1226ZM34.5434 96.2354C34.319 96.2385 34.093 96.24 33.8656 96.24V97.24C34.0976 97.24 34.3281 97.2384 34.5571 97.2353L34.5434 96.2354ZM33.8656 96.24C33.6382 96.24 33.4123 96.2385 33.1879 96.2354L33.1742 97.2353C33.4032 97.2384 33.6337 97.24 33.8656 97.24V96.24ZM31.8585 96.1986C31.4075 96.1797 30.9627 96.1543 30.5239 96.1226L30.4518 97.12C30.9008 97.1524 31.3557 97.1784 31.8166 97.1977L31.8585 96.1986ZM29.2087 96.0067C28.7585 95.9597 28.3151 95.9058 27.8781 95.845L27.7403 96.8355C28.1888 96.8979 28.6436 96.9532 29.105 97.0013L29.2087 96.0067ZM26.5694 95.639C26.1281 95.5613 25.6939 95.4762 25.2666 95.3839L25.0555 96.3614C25.4955 96.4564 25.9423 96.5439 26.396 96.6238L26.5694 95.639ZM23.9724 95.077C23.5413 94.9653 23.1176 94.846 22.7012 94.719L22.4095 95.6755C22.8397 95.8067 23.277 95.9299 23.7217 96.045L23.9724 95.077ZM21.4415 94.3039C21.0209 94.1546 20.6081 93.9971 20.2031 93.8315L19.8247 94.7572C20.2444 94.9287 20.6718 95.0918 21.1071 95.2463L21.4415 94.3039ZM18.9939 93.3028C18.5916 93.115 18.1974 92.9188 17.8112 92.7142L17.3432 93.598C17.7443 93.8104 18.1535 94.0141 18.5709 94.2089L18.9939 93.3028ZM16.6581 92.0651C16.2784 91.8381 15.9068 91.6025 15.5432 91.3585L14.9859 92.1888C15.364 92.4426 15.7504 92.6875 16.1451 92.9234L16.6581 92.0651ZM14.4677 90.5948C14.1146 90.3297 13.7695 90.056 13.4324 89.7739L12.7906 90.5408C13.1412 90.8342 13.5001 91.1188 13.8674 91.3945L14.4677 90.5948ZM12.442 88.9001C12.1197 88.6004 11.8051 88.2923 11.4982 87.9761L10.7806 88.6725C11.0993 89.0009 11.4261 89.321 11.7611 89.6325L12.442 88.9001ZM10.6011 87.004C10.3112 86.6737 10.0287 86.3354 9.75342 85.9894L8.97084 86.6119C9.256 86.9704 9.54885 87.321 9.84955 87.6636L10.6011 87.004ZM8.95435 84.9352C8.69689 84.5787 8.44633 84.2148 8.20253 83.8436L7.36667 84.3926C7.61844 84.7759 7.8774 85.152 8.1437 85.5207L8.95435 84.9352ZM7.49742 82.7184C7.27227 82.3418 7.05346 81.9583 6.84086 81.5682L5.96276 82.0466C6.18158 82.4482 6.40698 82.8432 6.6391 83.2315L7.49742 82.7184ZM6.2278 80.3902C6.03149 79.9952 5.84103 79.5938 5.65631 79.1863L4.74551 79.5992C4.93501 80.0172 5.13056 80.4293 5.33228 80.8352L6.2278 80.3902ZM5.12853 77.9678C4.96024 77.5611 4.79725 77.1486 4.63947 76.7306L3.70391 77.0838C3.86529 77.5113 4.03211 77.9335 4.20448 78.3501L5.12853 77.9678ZM4.18626 75.4737C4.04295 75.0574 3.90445 74.6359 3.77066 74.2094L2.81651 74.5088C2.95297 74.9438 3.09434 75.3739 3.24071 75.7992L4.18626 75.4737ZM3.38817 72.9322C3.26639 72.5058 3.14903 72.0747 3.036 71.6391L2.06806 71.8903C2.18307 72.3335 2.30256 72.7724 2.42662 73.2068L3.38817 72.9322ZM2.71642 70.347C2.61496 69.9161 2.51749 69.4811 2.42393 69.042L1.44589 69.2504C1.54089 69.6963 1.63992 70.1382 1.74305 70.5762L2.71642 70.347ZM2.15806 67.7292C2.07466 67.2953 1.99487 66.8577 1.9186 66.4164L0.933213 66.5867C1.01051 67.034 1.09143 67.4778 1.17604 67.918L2.15806 67.7292ZM1.70181 65.0914C1.63423 64.6542 1.56993 64.2137 1.50884 63.77L0.518183 63.9063C0.580004 64.3554 0.645103 64.8014 0.713556 65.2442L1.70181 65.0914ZM1.33662 62.4408C1.28295 61.9997 1.2323 61.5556 1.18461 61.1085L0.190252 61.2146C0.238456 61.6665 0.28966 62.1155 0.343937 62.5615L1.33662 62.4408ZM1.05204 59.7769C1.01093 59.3329 0.972594 58.8861 0.936972 58.4366L-0.0599022 58.5156C-0.02394 58.9694 0.0147706 59.4206 0.0562969 59.8691L1.05204 59.7769ZM0.839756 57.1038C0.810036 56.6585 0.782857 56.2107 0.75816 55.7605L-0.240339 55.8153C-0.21543 56.2694 -0.188012 56.7211 -0.158023 57.1704L0.839756 57.1038ZM0.692397 54.4244C0.672933 53.9788 0.655793 53.5309 0.64092 53.0808L-0.358534 53.1139C-0.343547 53.5674 -0.326272 54.0188 -0.30665 54.468L0.692397 54.4244ZM0.603436 51.741C0.593184 51.2952 0.585061 50.8474 0.579013 50.3976L-0.420897 50.411C-0.414807 50.864 -0.406626 51.315 -0.396299 51.764L0.603436 51.741ZM0.5671 49.0554C0.566115 48.8307 0.565625 48.6056 0.565625 48.38H-0.434375C-0.434375 48.607 -0.433882 48.8336 -0.43289 49.0598L0.5671 49.0554ZM53.6056 48.38C53.6056 48.1598 53.6053 47.9397 53.6047 47.7197L52.6047 47.7226C52.6053 47.9415 52.6056 48.1607 52.6056 48.38H53.6056ZM53.5968 46.4007C53.5926 45.9601 53.587 45.5204 53.5796 45.0819L52.5797 45.0988C52.5871 45.5346 52.5927 45.9718 52.5968 46.4101L53.5968 46.4007ZM53.5517 43.761C53.5404 43.3191 53.5271 42.8787 53.5116 42.44L52.5122 42.4753C52.5276 42.9106 52.5408 43.3477 52.552 43.7865L53.5517 43.761ZM53.4576 41.1193C53.4371 40.6772 53.4139 40.2371 53.388 39.7992L52.3898 39.8583C52.4154 40.2917 52.4383 40.7276 52.4587 41.1658L53.4576 41.1193ZM53.3009 38.4802C53.2684 38.0377 53.2329 37.5978 53.1939 37.1608L52.1979 37.2496C52.2363 37.6811 52.2715 38.1157 52.3036 38.5533L53.3009 38.4802ZM53.0647 35.841C53.0173 35.3983 52.9661 34.959 52.9107 34.5233L51.9187 34.6494C51.9732 35.0782 52.0236 35.511 52.0704 35.9475L53.0647 35.841ZM52.729 33.2084C52.663 32.7669 52.5922 32.3297 52.5164 31.8971L51.5314 32.0696C51.6057 32.4937 51.6751 32.9227 51.74 33.3564L52.729 33.2084ZM52.2692 30.5907C52.1797 30.152 52.0845 29.7185 51.9832 29.2907L51.0101 29.5211C51.1089 29.9383 51.2019 30.3616 51.2894 30.7906L52.2692 30.5907ZM51.6538 27.999C51.5349 27.5654 51.409 27.1384 51.2757 26.7183L50.3225 27.0208C50.4516 27.4277 50.5738 27.842 50.6894 28.2635L51.6538 27.999ZM50.8431 25.4521C50.6874 25.0282 50.5232 24.6123 50.3499 24.2051L49.4297 24.5966C49.5961 24.9877 49.7543 25.3879 49.9044 25.7968L50.8431 25.4521ZM49.7894 22.9832C49.5885 22.5767 49.3772 22.1802 49.155 21.7942L48.2883 22.2932C48.4996 22.66 48.7009 23.0378 48.8928 23.4262L49.7894 22.9832ZM48.4406 20.6475C48.1868 20.2708 47.9206 19.9062 47.6415 19.5543L46.858 20.1757C47.1204 20.5066 47.3714 20.8503 47.6113 21.2063L48.4406 20.6475ZM46.7548 18.527C46.4442 18.1966 46.1197 17.8802 45.7808 17.5787L45.116 18.3257C45.4322 18.6071 45.7354 18.9027 46.0262 19.2119L46.7548 18.527ZM44.7236 16.7214C44.3606 16.4539 43.9832 16.2017 43.5909 15.9654L43.0749 16.822C43.4405 17.0422 43.7922 17.2772 44.1304 17.5265L44.7236 16.7214ZM42.3939 15.3169C41.9916 15.122 41.5756 14.9423 41.1455 14.7783L40.7892 15.7127C41.1926 15.8665 41.582 16.0348 41.9578 16.2169L42.3939 15.3169ZM39.8593 14.3477C39.4345 14.2241 38.9973 14.1146 38.5475 14.0194L38.3406 14.9978C38.7667 15.0879 39.1797 15.1915 39.58 15.3079L39.8593 14.3477ZM37.2204 13.786C36.7863 13.7245 36.3413 13.6753 35.8853 13.6387L35.8053 14.6355C36.2418 14.6705 36.6666 14.7175 37.08 14.7761L37.2204 13.786ZM34.5468 13.5686C34.3223 13.5629 34.0952 13.56 33.8656 13.56V14.56C34.0868 14.56 34.3054 14.5628 34.5213 14.5683L34.5468 13.5686ZM33.8656 13.56C33.636 13.56 33.409 13.5629 33.1844 13.5686L33.21 14.5683C33.4259 14.5628 33.6444 14.56 33.8656 14.56V13.56ZM31.8459 13.6387C31.3899 13.6753 30.9449 13.7245 30.5108 13.786L30.6512 14.7761C31.0646 14.7175 31.4894 14.6705 31.9259 14.6355L31.8459 13.6387ZM29.1837 14.0194C28.7339 14.1146 28.2968 14.2241 27.872 14.3477L28.1512 15.3079C28.5516 15.1915 28.9646 15.0879 29.3907 14.9978L29.1837 14.0194ZM26.5858 14.7783C26.1557 14.9423 25.7397 15.122 25.3374 15.3169L25.7734 16.2169C26.1493 16.0348 26.5386 15.8665 26.942 15.7127L26.5858 14.7783ZM24.1403 15.9654C23.7481 16.2017 23.3707 16.4539 23.0077 16.7214L23.6009 17.5265C23.9391 17.2772 24.2907 17.0422 24.6564 16.822L24.1403 15.9654ZM21.9504 17.5786C21.6115 17.8802 21.2871 18.1966 20.9765 18.527L21.7051 19.2119C21.9958 18.9027 22.299 18.6071 22.6152 18.3257L21.9504 17.5786ZM20.0898 19.5543C19.8107 19.9061 19.5445 20.2708 19.2906 20.6475L20.1199 21.2063C20.3599 20.8503 20.6108 20.5066 20.8733 20.1757L20.0898 19.5543ZM18.5763 21.7942C18.3541 22.1802 18.1428 22.5767 17.9419 22.9832L18.8384 23.4262C19.0303 23.0378 19.2317 22.66 19.4429 22.2932L18.5763 21.7942ZM17.3814 24.2051C17.2081 24.6123 17.0438 25.0282 16.8881 25.4521L17.8268 25.7968C17.977 25.3879 18.1351 24.9877 18.3015 24.5966L17.3814 24.2051ZM16.4556 26.7183C16.3223 27.1384 16.1964 27.5654 16.0775 27.999L17.0419 28.2635C17.1574 27.842 17.2796 27.4277 17.4087 27.0208L16.4556 26.7183ZM15.748 29.2907C15.6467 29.7185 15.5515 30.152 15.462 30.5907L16.4419 30.7906C16.5294 30.3616 16.6224 29.9383 16.7211 29.5211L15.748 29.2907ZM15.2148 31.8971C15.1391 32.3297 15.0683 32.7669 15.0022 33.2084L15.9912 33.3564C16.0561 32.9227 16.1256 32.4937 16.1998 32.0696L15.2148 31.8971ZM14.8206 34.5233C14.7652 34.959 14.714 35.3983 14.6666 35.841L15.6609 35.9475C15.7076 35.511 15.7581 35.0782 15.8126 34.6494L14.8206 34.5233ZM14.5373 37.1608C14.4984 37.5978 14.4628 38.0377 14.4304 38.4802L15.4277 38.5533C15.4598 38.1157 15.4949 37.6811 15.5334 37.2496L14.5373 37.1608ZM14.3432 39.7992C14.3173 40.2371 14.2942 40.6772 14.2736 41.1193L15.2725 41.1658C15.2929 40.7276 15.3158 40.2917 15.3415 39.8583L14.3432 39.7992ZM14.2196 42.44C14.2041 42.8787 14.1908 43.3191 14.1795 43.761L15.1792 43.7865C15.1904 43.3477 15.2036 42.9106 15.219 42.4753L14.2196 42.44ZM14.1517 45.0819C14.1443 45.5204 14.1386 45.9601 14.1345 46.4007L15.1345 46.4101C15.1385 45.9718 15.1442 45.5346 15.1515 45.0988L14.1517 45.0819ZM14.1266 47.7197C14.1259 47.9397 14.1256 48.1598 14.1256 48.38H15.1256C15.1256 48.1607 15.1259 47.9415 15.1266 47.7226L14.1266 47.7197ZM14.1256 48.38C14.1256 48.6034 14.1259 48.8265 14.1265 49.0492L15.1265 49.0466C15.1259 48.8248 15.1256 48.6026 15.1256 48.38H14.1256ZM14.1339 50.3838C14.1377 50.8305 14.143 51.2756 14.1498 51.719L15.1497 51.7034C15.1429 51.2626 15.1376 50.8198 15.1338 50.3752L14.1339 50.3838ZM14.1759 53.0565C14.1864 53.5043 14.1989 53.95 14.2134 54.3935L15.2128 54.3608C15.1984 53.9205 15.1861 53.4778 15.1756 53.0329L14.1759 53.0565ZM14.264 55.7298C14.2833 56.1775 14.3051 56.6227 14.3294 57.0651L15.3279 57.0101C15.3038 56.5719 15.2822 56.1307 15.263 55.6867L14.264 55.7298ZM14.4117 58.4013C14.4424 58.8504 14.4761 59.2964 14.513 59.7389L15.5095 59.6557C15.473 59.2184 15.4397 58.7775 15.4093 58.3331L14.4117 58.4013ZM14.6357 61.075C14.6807 61.5236 14.7295 61.9683 14.7822 62.409L15.7752 62.2901C15.7232 61.8561 15.6751 61.4176 15.6307 60.975L14.6357 61.075ZM14.9557 63.7403C15.0189 64.1877 15.0867 64.6304 15.1593 65.0682L16.1458 64.9046C16.0746 64.4751 16.008 64.0403 15.9458 63.6003L14.9557 63.7403ZM15.3968 66.3917C15.4831 66.8368 15.5749 67.2762 15.6726 67.7095L16.6481 67.4895C16.5527 67.0666 16.463 66.6371 16.3786 66.2015L15.3968 66.3917ZM15.9918 69.0211C16.1073 69.462 16.2298 69.8959 16.3595 70.3224L17.3162 70.0314C17.1905 69.6179 17.0715 69.1965 16.9591 68.7676L15.9918 69.0211ZM16.7817 71.6094C16.9341 72.0408 17.095 72.4637 17.2649 72.8776L18.1899 72.4978C18.0267 72.1001 17.8717 71.6929 17.7246 71.2764L16.7817 71.6094ZM17.816 74.1209C18.0142 74.5353 18.2229 74.9394 18.4426 75.3324L19.3155 74.8444C19.1066 74.4708 18.9076 74.0856 18.7181 73.6894L17.816 74.1209ZM19.1518 76.5028C19.4046 76.8878 19.67 77.2602 19.9486 77.6194L20.7387 77.0065C20.4769 76.6689 20.2267 76.3178 19.9877 75.9539L19.1518 76.5028ZM20.836 78.6689C21.1476 79.0067 21.4735 79.3299 21.8142 79.6377L22.4846 78.8957C22.1669 78.6087 21.8626 78.3069 21.571 77.9909L20.836 78.6689ZM22.879 80.5127C23.2451 80.7856 23.626 81.0427 24.0222 81.2834L24.5413 80.4287C24.1722 80.2045 23.8175 79.9651 23.4767 79.711L22.879 80.5127ZM25.2323 81.9432C25.639 82.1413 26.0599 82.3237 26.4954 82.49L26.8522 81.5558C26.4438 81.3998 26.0499 81.2291 25.67 81.0441L25.2323 81.9432ZM27.7975 82.9262C28.2274 83.0511 28.67 83.1617 29.1257 83.2578L29.3319 82.2793C28.9001 82.1882 28.4817 82.0836 28.0765 81.9659L27.7975 82.9262ZM30.4695 83.493C30.9089 83.5549 31.3594 83.6044 31.8213 83.6411L31.9007 82.6443C31.4582 82.6091 31.0278 82.5618 30.6091 82.5028L30.4695 83.493ZM33.1763 83.7114C33.4035 83.7171 33.6333 83.72 33.8656 83.72V82.72C33.6415 82.72 33.4202 82.7172 33.2016 82.7117L33.1763 83.7114ZM33.8656 83.72C34.098 83.72 34.3277 83.7171 34.5549 83.7114L34.5297 82.7117C34.311 82.7172 34.0897 82.72 33.8656 82.72V83.72ZM35.9099 83.6411C36.3718 83.6044 36.8223 83.5549 37.2617 83.493L37.1221 82.5028C36.7034 82.5618 36.273 82.6091 35.8306 82.6443L35.9099 83.6411ZM38.6055 83.2578C39.0612 83.1617 39.5038 83.0511 39.9338 82.9262L39.6548 81.9659C39.2495 82.0836 38.8312 82.1882 38.3993 82.2793L38.6055 83.2578ZM41.2359 82.49C41.6713 82.3237 42.0922 82.1413 42.499 81.9432L42.0612 81.0441C41.6813 81.2291 41.2874 81.3998 40.8791 81.5558L41.2359 82.49ZM43.7091 81.2834C44.1053 81.0427 44.4862 80.7856 44.8523 80.5127L44.2546 79.711C43.9137 79.9651 43.559 80.2045 43.1899 80.4287L43.7091 81.2834ZM45.9171 79.6377C46.2578 79.3299 46.5836 79.0067 46.8952 78.6689L46.1602 77.9909C45.8687 78.3069 45.5643 78.6087 45.2467 78.8957L45.9171 79.6377ZM47.7827 77.6194C48.0613 77.2602 48.3266 76.8878 48.5794 76.5028L47.7435 75.9539C47.5046 76.3178 47.2544 76.6689 46.9925 77.0065L47.7827 77.6194ZM49.2886 75.3324C49.5084 74.9394 49.7171 74.5353 49.9153 74.1209L49.0131 73.6894C48.8236 74.0856 48.6247 74.4708 48.4158 74.8444L49.2886 75.3324ZM50.4664 72.8776C50.6363 72.4637 50.7972 72.0408 50.9495 71.6094L50.0066 71.2764C49.8595 71.6929 49.7046 72.1001 49.5413 72.4978L50.4664 72.8776ZM51.3717 70.3224C51.5015 69.8959 51.6239 69.462 51.7395 69.0211L50.7721 68.7676C50.6597 69.1965 50.5408 69.6179 50.415 70.0314L51.3717 70.3224ZM52.0586 67.7095C52.1564 67.2762 52.2482 66.8368 52.3344 66.3917L51.3527 66.2015C51.2683 66.6371 51.1785 67.0666 51.0831 67.4895L52.0586 67.7095ZM52.572 65.0682C52.6446 64.6304 52.7123 64.1877 52.7756 63.7403L51.7854 63.6003C51.7232 64.0403 51.6567 64.4751 51.5854 64.9046L52.572 65.0682ZM52.949 62.409C53.0017 61.9683 53.0505 61.5236 53.0956 61.075L52.1006 60.975C52.0561 61.4176 52.008 61.8561 51.9561 62.2901L52.949 62.409ZM53.2182 59.7389C53.2552 59.2964 53.2889 58.8504 53.3196 58.4013L52.3219 58.3331C52.2915 58.7775 52.2582 59.2184 52.2217 59.6557L53.2182 59.7389ZM53.4019 57.0651C53.4262 56.6227 53.4479 56.1775 53.4673 55.7298L52.4682 55.6867C52.449 56.1307 52.4275 56.5719 52.4034 57.0101L53.4019 57.0651ZM53.5179 54.3935C53.5324 53.95 53.5448 53.5043 53.5554 53.0565L52.5557 53.0329C52.5452 53.4778 52.5328 53.9205 52.5184 54.3608L53.5179 54.3935ZM53.5814 51.719C53.5883 51.2756 53.5936 50.8305 53.5974 50.3838L52.5974 50.3752C52.5936 50.8198 52.5884 51.2626 52.5815 51.7034L53.5814 51.719ZM53.6048 49.0492C53.6053 48.8265 53.6056 48.6034 53.6056 48.38H52.6056C52.6056 48.6026 52.6053 48.8248 52.6048 49.0466L53.6048 49.0492ZM1.06563 48.38C1.06563 48.1569 1.06612 47.9343 1.06713 47.7121L-0.932851 47.7031C-0.933869 47.9283 -0.934375 48.1539 -0.934375 48.38H1.06563ZM1.07927 46.3846C1.08543 45.9398 1.09371 45.4968 1.10416 45.0559L-0.895281 45.0085C-0.905886 45.4562 -0.914285 45.9057 -0.920537 46.3569L1.07927 46.3846ZM1.14232 43.7315C1.15746 43.2865 1.17491 42.8437 1.19471 42.4031L-0.803267 42.3133C-0.82341 42.7613 -0.841142 43.2114 -0.856524 43.6635L1.14232 43.7315ZM1.26157 41.0831C1.28668 40.6383 1.31431 40.1958 1.34452 39.7557L-0.650785 39.6188C-0.681561 40.0671 -0.709695 40.5176 -0.735251 40.9704L1.26157 41.0831ZM1.44334 38.4383C1.47947 37.9949 1.51833 37.5542 1.56001 37.1163L-0.430999 36.9268C-0.473548 37.374 -0.51321 37.8237 -0.550055 38.2759L1.44334 38.4383ZM1.69456 35.801C1.74285 35.3604 1.79412 34.9227 1.84843 34.488L-0.136139 34.2401C-0.191728 34.685 -0.244167 35.1327 -0.293531 35.5831L1.69456 35.801ZM2.02294 33.1762C2.08468 32.7393 2.14965 32.3056 2.21792 31.8753L0.242623 31.5619C0.17254 32.0037 0.105897 32.4486 0.0426138 32.8964L2.02294 33.1762ZM2.43718 30.569C2.51429 30.134 2.59495 29.7027 2.67924 29.2751L0.717002 28.8883C0.630182 29.3287 0.547173 29.7726 0.467886 30.2199L2.43718 30.569ZM2.94699 27.9855C3.04138 27.5533 3.13969 27.1251 3.24199 26.7011L1.29779 26.232C1.192 26.6705 1.09046 27.1127 0.993046 27.5588L2.94699 27.9855ZM3.56381 25.431C3.67735 25.0039 3.79519 24.5813 3.9174 24.1633L1.99778 23.602C1.87084 24.0361 1.74859 24.4746 1.63093 24.9173L3.56381 25.431ZM4.30181 22.9093C4.43581 22.492 4.57447 22.0796 4.71787 21.6724L2.8314 21.0081C2.68168 21.4333 2.53711 21.8633 2.39758 22.2978L4.30181 22.9093ZM5.1718 20.4416C5.32976 20.0324 5.49283 19.6288 5.66114 19.2309L3.81912 18.4518C3.64239 18.8697 3.47139 19.2929 3.30602 19.7213L5.1718 20.4416ZM6.18749 18.042C6.37156 17.6447 6.56124 17.2534 6.75665 16.8685L4.97325 15.9632C4.76675 16.37 4.56663 16.7828 4.37273 17.2014L6.18749 18.042ZM7.36677 15.7206C7.57806 15.3409 7.79542 14.9678 8.01894 14.6015L6.31169 13.5597C6.07393 13.9493 5.84311 14.3456 5.61908 14.7482L7.36677 15.7206ZM8.71654 13.5105C8.95786 13.1503 9.20575 12.7973 9.46032 12.4517L7.84997 11.2656C7.57745 11.6356 7.3125 12.0129 7.05497 12.3973L8.71654 13.5105ZM10.2492 11.4307C10.5205 11.0961 10.7988 10.7692 11.0842 10.45L9.59325 9.11689C9.28609 9.46044 8.98696 9.81192 8.69572 10.1711L10.2492 11.4307ZM11.9662 9.51143C12.2677 9.20633 12.5765 8.90915 12.8929 8.62006L11.5438 7.1436C11.2021 7.45588 10.8687 7.77665 10.5435 8.10572L11.9662 9.51143ZM13.8637 7.77811C14.194 7.5063 14.5321 7.24258 14.878 6.98713L13.6898 5.37831C13.3157 5.6546 12.9501 5.93979 12.5929 6.23368L13.8637 7.77811ZM15.9299 6.25197C16.2851 6.01722 16.6482 5.79054 17.0192 5.57207L16.0045 3.84862C15.6037 4.08458 15.2114 4.32954 14.8273 4.58334L15.9299 6.25197ZM18.1452 4.94735C18.5229 4.75015 18.9084 4.5609 19.3019 4.37974L18.4655 2.56303C18.0421 2.75795 17.6268 2.9618 17.2195 3.17444L18.1452 4.94735ZM20.4823 3.87046C20.8776 3.71096 21.2806 3.55914 21.6913 3.41516L21.0298 1.52775C20.5902 1.68184 20.1583 1.84453 19.734 2.01572L20.4823 3.87046ZM22.9241 3.01381C23.3308 2.89124 23.7447 2.77595 24.166 2.66806L23.6699 0.730577C23.2218 0.845315 22.7809 0.968115 22.347 1.09888L22.9241 3.01381ZM25.4314 2.37119C25.85 2.28173 26.2755 2.19923 26.7081 2.12381L26.3645 0.153535C25.9075 0.233224 25.4571 0.320529 25.0134 0.415363L25.4314 2.37119ZM27.9892 1.92411C28.4173 1.8651 28.8518 1.81273 29.293 1.76711L29.0873 -0.222282C28.624 -0.174373 28.167 -0.119307 27.7161 -0.0571586L27.9892 1.92411ZM30.5838 1.65436C31.0144 1.6235 31.4509 1.59881 31.8936 1.58038L31.8104 -0.417887C31.3481 -0.398641 30.8916 -0.372832 30.4409 -0.340522L30.5838 1.65436ZM33.1995 1.5445C33.4201 1.5415 33.6421 1.53999 33.8656 1.53999V-0.460006C33.6331 -0.460006 33.402 -0.458438 33.1723 -0.455311L33.1995 1.5445ZM33.8656 1.53999C34.0891 1.53999 34.3111 1.5415 34.5317 1.5445L34.5589 -0.455311C34.3292 -0.458438 34.0981 -0.460006 33.8656 -0.460006V1.53999ZM35.8376 1.58038C36.2803 1.59881 36.7169 1.6235 37.1474 1.65436L37.2904 -0.340524C36.8396 -0.372833 36.3831 -0.398642 35.9208 -0.417888L35.8376 1.58038ZM38.4382 1.76711C38.8794 1.81273 39.314 1.8651 39.742 1.9241L40.0151 -0.0571609C39.5643 -0.119309 39.1072 -0.174375 38.6439 -0.222284L38.4382 1.76711ZM41.0232 2.12381C41.4557 2.19922 41.8812 2.28173 42.2998 2.37119L42.7178 0.415359C42.2741 0.320526 41.8238 0.233221 41.3667 0.153532L41.0232 2.12381ZM43.5652 2.66805C43.9865 2.77594 44.4004 2.89124 44.8071 3.0138L45.3842 1.09887C44.9503 0.96811 44.5094 0.84531 44.0614 0.730573L43.5652 2.66805ZM46.0399 3.41515C46.4506 3.55913 46.8536 3.71095 47.249 3.87045L47.9973 2.01571C47.573 1.84453 47.1411 1.68183 46.7015 1.52775L46.0399 3.41515ZM48.4294 4.37974C48.8229 4.56089 49.2084 4.75015 49.5861 4.94734L50.5117 3.17443C50.1044 2.96179 49.6891 2.75794 49.2658 2.56302L48.4294 4.37974ZM50.712 5.57206C51.083 5.79053 51.4461 6.01722 51.8014 6.25197L52.904 4.58333C52.5199 4.32954 52.1275 4.08457 51.7268 3.84862L50.712 5.57206ZM52.8533 6.98712C53.1992 7.24258 53.5372 7.50629 53.8676 7.77811L55.1383 6.23367C54.7811 5.93978 54.4155 5.65459 54.0414 5.3783L52.8533 6.98712ZM54.8383 8.62006C55.1547 8.90915 55.4636 9.20632 55.765 9.51142L57.1877 8.1057C56.8626 7.77664 56.5292 7.45587 56.1874 7.14359L54.8383 8.62006ZM56.647 10.45C56.9324 10.7692 57.2107 11.0961 57.482 11.4307L59.0355 10.1711C58.7443 9.81191 58.4452 9.46043 58.138 9.11688L56.647 10.45ZM58.2709 12.4516C58.5255 12.7973 58.7734 13.1503 59.0147 13.5105L60.6763 12.3973C60.4187 12.0129 60.1538 11.6356 59.8813 11.2656L58.2709 12.4516ZM59.7123 14.6015C59.9358 14.9678 60.1532 15.3408 60.3645 15.7206L62.1122 14.7482C61.8881 14.3455 61.6573 13.9493 61.4196 13.5597L59.7123 14.6015ZM60.9746 16.8685C61.17 17.2534 61.3597 17.6447 61.5438 18.042L63.3585 17.2014C63.1646 16.7828 62.9645 16.37 62.758 15.9632L60.9746 16.8685ZM62.0701 19.2309C62.2384 19.6288 62.4015 20.0324 62.5594 20.4416L64.4252 19.7213C64.2599 19.2929 64.0889 18.8697 63.9121 18.4518L62.0701 19.2309ZM63.0134 21.6724C63.1568 22.0796 63.2954 22.492 63.4294 22.9093L65.3337 22.2978C65.1941 21.8633 65.0496 21.4333 64.8999 21.0081L63.0134 21.6724ZM63.8138 24.1633C63.9361 24.5813 64.0539 25.0039 64.1674 25.431L66.1003 24.9172C65.9827 24.4746 65.8604 24.0361 65.7335 23.602L63.8138 24.1633ZM64.4893 26.7011C64.5916 27.1251 64.6899 27.5533 64.7843 27.9855L66.7382 27.5587C66.6408 27.1127 66.5392 26.6704 66.4335 26.232L64.4893 26.7011ZM65.052 29.275C65.1363 29.7027 65.217 30.134 65.2941 30.569L67.2634 30.2198C67.1841 29.7726 67.1011 29.3287 67.0143 28.8883L65.052 29.275ZM65.5133 31.8752C65.5816 32.3056 65.6466 32.7393 65.7083 33.1762L67.6886 32.8964C67.6254 32.4485 67.5587 32.0037 67.4886 31.5619L65.5133 31.8752ZM65.8828 34.488C65.9371 34.9227 65.9884 35.3603 66.0367 35.801L68.0248 35.5831C67.9754 35.1326 67.923 34.6849 67.8674 34.24L65.8828 34.488ZM66.1712 37.1163C66.2129 37.5542 66.2518 37.9949 66.2879 38.4383L68.2813 38.2758C68.2445 37.8237 68.2048 37.374 68.1623 36.9268L66.1712 37.1163ZM66.3867 39.7557C66.4169 40.1958 66.4446 40.6382 66.4697 41.0831L68.4665 40.9704C68.4409 40.5176 68.4128 40.067 68.382 39.6187L66.3867 39.7557ZM66.5365 42.4031C66.5563 42.8437 66.5738 43.2865 66.5889 43.7314L68.5878 43.6634C68.5724 43.2114 68.5547 42.7613 68.5345 42.3133L66.5365 42.4031ZM66.6271 45.0559C66.6375 45.4968 66.6458 45.9398 66.652 46.3846L68.6518 46.3569C68.6455 45.9056 68.6371 45.4561 68.6265 45.0085L66.6271 45.0559ZM66.6641 47.7121C66.6651 47.9343 66.6656 48.1569 66.6656 48.38H68.6656C68.6656 48.1539 68.6651 47.9283 68.6641 47.7031L66.6641 47.7121ZM66.6656 48.38C66.6656 48.6049 66.6651 48.8293 66.6642 49.0532L68.6641 49.0619C68.6651 48.8351 68.6656 48.6078 68.6656 48.38H66.6656ZM66.6523 50.3908C66.6463 50.8391 66.6382 51.2853 66.628 51.7295L68.6274 51.7755C68.6378 51.3248 68.646 50.8722 68.6521 50.4177L66.6523 50.3908ZM66.5906 53.0643C66.5758 53.5126 66.5587 53.9587 66.5393 54.4025L68.5374 54.4898C68.5571 54.0388 68.5745 53.5856 68.5895 53.1303L66.5906 53.0643ZM66.4738 55.7331C66.4493 56.1814 66.4222 56.6272 66.3926 57.0704L68.3882 57.2036C68.4183 56.7523 68.4458 56.2987 68.4708 55.8427L66.4738 55.7331ZM66.2958 58.3971C66.2604 58.8444 66.2223 59.289 66.1814 59.7308L68.1728 59.9152C68.2146 59.4644 68.2535 59.011 68.2896 58.5551L66.2958 58.3971ZM66.0495 61.0554C66.002 61.5001 65.9517 61.9418 65.8983 62.3803L67.8837 62.6219C67.9382 62.1733 67.9897 61.7219 68.0382 61.2676L66.0495 61.0554ZM65.7271 63.7018C65.6664 64.1429 65.6025 64.5806 65.5353 65.015L67.5118 65.3206C67.5807 64.875 67.6462 64.4263 67.7084 63.9745L65.7271 63.7018ZM65.32 66.3313C65.2442 66.7695 65.165 67.204 65.0822 67.6348L67.0462 68.0123C67.1314 67.569 67.2129 67.1221 67.2907 66.6719L65.32 66.3313ZM64.8183 68.9378C64.7255 69.3735 64.6288 69.805 64.5281 70.2324L66.4749 70.6908C66.5789 70.2493 66.6787 69.8038 66.7744 69.3546L64.8183 68.9378ZM64.2113 71.5135C64.0992 71.9453 63.983 72.3724 63.8623 72.7948L65.7854 73.3441C65.9106 72.9057 66.0312 72.4629 66.1472 72.0159L64.2113 71.5135ZM63.4835 74.0598C63.3511 74.482 63.214 74.8991 63.0722 75.311L64.9633 75.9619C65.1112 75.5322 65.254 75.0977 65.3918 74.6584L63.4835 74.0598ZM62.624 76.554C62.468 76.9673 62.307 77.3748 62.1407 77.7767L63.9888 78.5413C64.1632 78.1197 64.332 77.6926 64.4951 77.2604L62.624 76.554ZM61.6196 78.9799C61.4372 79.3821 61.2493 79.7781 61.0557 80.1677L62.8467 81.0577C63.0512 80.6464 63.2493 80.2289 63.4411 79.8056L61.6196 78.9799ZM60.4514 81.3289C60.2419 81.7134 60.0263 82.091 59.8047 82.4618L61.5213 83.4881C61.7569 83.0939 61.9856 82.6931 62.2075 82.2859L60.4514 81.3289ZM59.1108 83.5691C58.871 83.9343 58.6246 84.2921 58.3716 84.6424L59.9929 85.8135C60.2636 85.4387 60.5268 85.0565 60.7825 84.667L59.1108 83.5691ZM57.5865 85.6781C57.3162 86.0179 57.0389 86.35 56.7544 86.6741L58.2575 87.9934C58.5636 87.6447 58.8616 87.2879 59.1517 86.9232L57.5865 85.6781ZM55.8743 87.6278C55.5733 87.938 55.2648 88.2401 54.9488 88.5339L56.3106 89.9986C56.652 89.6812 56.9849 89.3552 57.3095 89.0207L55.8743 87.6278ZM53.9781 89.3904C53.6476 89.6669 53.3094 89.9351 52.9634 90.1949L54.164 91.7944C54.5384 91.5133 54.9042 91.2232 55.2615 90.9243L53.9781 89.3904ZM51.9094 90.9433C51.5531 91.1825 51.1889 91.4134 50.8166 91.6359L51.8427 93.3526C52.2449 93.1122 52.6386 92.8626 53.024 92.604L51.9094 90.9433ZM49.6861 92.2724C49.3073 92.473 48.9206 92.6655 48.5259 92.8497L49.3718 94.662C49.7968 94.4637 50.2135 94.2562 50.6221 94.0398L49.6861 92.2724ZM47.339 93.3687C46.9413 93.5313 46.5359 93.686 46.1225 93.8326L46.7914 95.7175C47.234 95.5604 47.6687 95.3946 48.0957 95.22L47.339 93.3687ZM44.8842 94.2407C44.4747 94.3656 44.0579 94.4831 43.6336 94.5929L44.135 96.5291C44.5864 96.4122 45.0306 96.287 45.4676 96.1537L44.8842 94.2407ZM42.3591 94.8952C41.9382 94.9861 41.5102 95.0699 41.0751 95.1466L41.4221 97.1163C41.8819 97.0353 42.335 96.9465 42.7813 96.8501L42.3591 94.8952ZM39.7842 95.3498C39.3531 95.4098 38.9153 95.463 38.4707 95.5094L38.6782 97.4986C39.1451 97.4499 39.6057 97.3939 40.0599 97.3307L39.7842 95.3498ZM37.1713 95.6239C36.7377 95.6552 36.2979 95.6803 35.8518 95.699L35.9357 97.6973C36.4015 97.6777 36.8614 97.6515 37.3155 97.6187L37.1713 95.6239ZM34.5366 95.7354C34.3144 95.7385 34.0908 95.74 33.8656 95.74V97.74C34.0998 97.74 34.3326 97.7384 34.564 97.7352L34.5366 95.7354ZM33.8656 95.74C33.6405 95.74 33.4169 95.7385 33.1947 95.7354L33.1673 97.7352C33.3987 97.7384 33.6315 97.74 33.8656 97.74V95.74ZM31.8795 95.699C31.4334 95.6803 30.9936 95.6552 30.56 95.6239L30.4158 97.6187C30.8699 97.6515 31.3298 97.6777 31.7956 97.6973L31.8795 95.699ZM29.2606 95.5094C28.816 95.463 28.3782 95.4098 27.9471 95.3498L27.6714 97.3307C28.1256 97.3939 28.5862 97.4499 29.0531 97.4986L29.2606 95.5094ZM26.6562 95.1466C26.2211 95.0699 25.7931 94.9861 25.3722 94.8952L24.95 96.8501C25.3963 96.9465 25.8494 97.0353 26.3092 97.1163L26.6562 95.1466ZM24.0977 94.5929C23.6734 94.4831 23.2565 94.3656 22.8471 94.2407L22.2637 96.1537C22.7007 96.287 23.1449 96.4122 23.5963 96.5291L24.0977 94.5929ZM21.6087 93.8326C21.1954 93.686 20.79 93.5313 20.3923 93.3687L19.6356 95.22C20.0626 95.3946 20.4973 95.5604 20.9399 95.7175L21.6087 93.8326ZM19.2054 92.8497C18.8106 92.6655 18.424 92.473 18.0452 92.2724L17.1092 94.0398C17.5178 94.2562 17.9345 94.4637 18.3594 94.662L19.2054 92.8497ZM16.9147 91.6359C16.5424 91.4134 16.1782 91.1825 15.8219 90.9433L14.7073 92.604C15.0926 92.8626 15.4864 93.1122 15.8886 93.3526L16.9147 91.6359ZM14.7679 90.1949C14.4218 89.9351 14.0836 89.6669 13.7532 89.3904L12.4698 90.9243C12.8271 91.2233 13.1929 91.5134 13.5673 91.7944L14.7679 90.1949ZM12.7825 88.5339C12.4665 88.2401 12.158 87.938 11.857 87.6278L10.4217 89.0207C10.7464 89.3552 11.0793 89.6812 11.4206 89.9986L12.7825 88.5339ZM10.9769 86.6741C10.6924 86.35 10.4151 86.0179 10.1447 85.6781L8.57955 86.9232C8.86965 87.2879 9.16767 87.6447 9.47377 87.9934L10.9769 86.6741ZM9.35968 84.6424C9.10664 84.2921 8.86027 83.9343 8.62046 83.5691L6.94874 84.667C7.20449 85.0565 7.46765 85.4387 7.73838 85.8135L9.35968 84.6424ZM7.92657 82.4618C7.70491 82.091 7.48939 81.7134 7.27991 81.3289L5.52371 82.2859C5.74564 82.6932 5.97433 83.0939 6.20994 83.4881L7.92657 82.4618ZM6.67556 80.1677C6.48195 79.7781 6.29403 79.3821 6.11171 78.9799L4.29011 79.8056C4.482 80.2289 4.68009 80.6464 4.88452 81.0577L6.67556 80.1677ZM5.59055 77.7767C5.42431 77.3749 5.26324 76.9673 5.10725 76.554L3.23613 77.2604C3.39931 77.6926 3.56804 78.1197 3.74246 78.5413L5.59055 77.7767ZM4.65904 75.311C4.51726 74.8991 4.38018 74.482 4.24773 74.0598L2.33944 74.6584C2.47724 75.0977 2.62003 75.5322 2.76793 75.9619L4.65904 75.311ZM3.86895 72.7948C3.74831 72.3724 3.63201 71.9453 3.51997 71.5135L1.58409 72.0159C1.70009 72.4629 1.82064 72.9057 1.94584 73.3441L3.86895 72.7948ZM3.20311 70.2324C3.10248 69.8051 3.00579 69.3735 2.91295 68.9378L0.956866 69.3546C1.05259 69.8039 1.15239 70.2493 1.25636 70.6908L3.20311 70.2324ZM2.64907 67.6348C2.56628 67.2041 2.48704 66.7695 2.4113 66.3313L0.440517 66.6719C0.518338 67.1222 0.599812 67.569 0.685028 68.0123L2.64907 67.6348ZM2.19594 65.015C2.12879 64.5807 2.06489 64.1429 2.00417 63.7018L0.0228534 63.9745C0.0850427 64.4263 0.150541 64.875 0.219427 65.3206L2.19594 65.015ZM1.83296 62.3804C1.77959 61.9418 1.72923 61.5002 1.68179 61.0555L-0.306927 61.2676C-0.258467 61.7219 -0.206984 62.1734 -0.152402 62.6219L1.83296 62.3804ZM1.54991 59.7308C1.50901 59.289 1.47086 58.8444 1.43541 58.3971L-0.558339 58.5551C-0.522207 59.011 -0.483308 59.4644 -0.441574 59.9152L1.54991 59.7308ZM1.33865 57.0705C1.30906 56.6272 1.282 56.1814 1.25741 55.7331L-0.739588 55.8427C-0.714573 56.2987 -0.687037 56.7524 -0.656913 57.2037L1.33865 57.0705ZM1.19192 54.4026C1.17254 53.9588 1.15546 53.5127 1.14065 53.0643L-0.858262 53.1304C-0.843217 53.5856 -0.825875 54.0388 -0.806174 54.4898L1.19192 54.4026ZM1.1033 51.7295C1.09309 51.2854 1.08499 50.8391 1.07897 50.3908L-0.920851 50.4177C-0.914741 50.8722 -0.906531 51.3248 -0.896167 51.7755L1.1033 51.7295ZM1.0671 49.0532C1.06611 48.8293 1.06563 48.6049 1.06563 48.38H-0.934375C-0.934375 48.6078 -0.933881 48.8351 -0.932886 49.062L1.0671 49.0532ZM54.1056 48.38C54.1056 48.1593 54.1053 47.9387 54.1047 47.7183L52.1047 47.724C52.1053 47.9425 52.1056 48.1611 52.1056 48.38H54.1056ZM54.0967 46.3961C54.0926 45.9543 54.0869 45.5133 54.0795 45.0735L52.0798 45.1072C52.0871 45.5417 52.0927 45.9776 52.0968 46.4147L54.0967 46.3961ZM54.0516 43.7482C54.0402 43.3048 54.0269 42.8627 54.0113 42.4223L52.0125 42.493C52.0279 42.9265 52.041 43.362 52.0522 43.7993L54.0516 43.7482ZM53.9571 41.096C53.9364 40.6519 53.9132 40.2097 53.8872 39.7697L51.8906 39.8878C51.9162 40.319 51.9389 40.7529 51.9593 41.189L53.9571 41.096ZM53.7995 38.4437C53.7669 37.9986 53.7311 37.5561 53.6919 37.1164L51.6998 37.294C51.7381 37.7227 51.773 38.1548 51.8049 38.5898L53.7995 38.4437ZM53.5618 35.7878C53.5141 35.342 53.4625 34.8994 53.4067 34.4603L51.4227 34.7124C51.4767 35.1378 51.5268 35.5673 51.5732 36.0007L53.5618 35.7878ZM53.2235 33.1344C53.1569 32.6891 53.0854 32.2478 53.0089 31.8109L51.0389 32.1559C51.1124 32.5757 51.1812 33.0006 51.2456 33.4304L53.2235 33.1344ZM52.7591 30.4908C52.6686 30.0472 52.5723 29.6086 52.4698 29.1755L50.5236 29.6363C50.6211 30.0482 50.713 30.4663 50.7995 30.8905L52.7591 30.4908ZM52.136 27.8668C52.0154 27.4272 51.8877 26.9938 51.7523 26.5671L49.8459 27.172C49.973 27.5723 50.0933 27.9803 50.2072 28.3957L52.136 27.8668ZM51.3125 25.2797C51.154 24.8483 50.9867 24.4246 50.81 24.0093L48.9697 24.7924C49.1326 25.1754 49.2877 25.5678 49.4351 25.9692L51.3125 25.2797ZM50.2376 22.7617C50.0323 22.3462 49.816 21.9403 49.5883 21.5447L47.855 22.5427C48.0607 22.8999 48.2571 23.2684 48.4446 23.6477L50.2376 22.7617ZM48.8552 20.3681C48.5944 19.9811 48.3206 19.6059 48.0332 19.2435L46.4663 20.4864C46.7204 20.8068 46.9637 21.14 47.1967 21.4858L48.8552 20.3681ZM47.1191 18.1845C46.7985 17.8436 46.4635 17.5168 46.1132 17.2051L44.7836 18.6992C45.0885 18.9705 45.3811 19.2557 45.6619 19.5544L47.1191 18.1845ZM45.0202 16.3189C44.6448 16.0423 44.2545 15.7814 43.8489 15.5371L42.8169 17.2502C43.1692 17.4625 43.5079 17.6889 43.8338 17.929L45.0202 16.3189ZM42.6119 14.867C42.1964 14.6657 41.7671 14.4802 41.3236 14.3111L40.6111 16.1799C41.0011 16.3286 41.3772 16.4911 41.7398 16.6668L42.6119 14.867ZM39.9989 13.8675C39.5619 13.7405 39.1127 13.6279 38.651 13.5303L38.2371 15.487C38.6514 15.5746 39.0523 15.6751 39.4404 15.788L39.9989 13.8675ZM37.2906 13.291C36.8462 13.228 36.3911 13.1776 35.9253 13.1403L35.7654 15.1339C36.192 15.1681 36.6068 15.214 37.0098 15.2712L37.2906 13.291ZM34.5596 13.0688C34.3307 13.0629 34.0994 13.06 33.8656 13.06V15.06C34.0827 15.06 34.297 15.0627 34.5085 15.0681L34.5596 13.0688ZM33.8656 13.06C33.6319 13.06 33.4006 13.0629 33.1717 13.0688L33.2227 15.0681C33.4343 15.0627 33.6486 15.06 33.8656 15.06V13.06ZM31.806 13.1403C31.3401 13.1776 30.8851 13.228 30.4406 13.291L30.7214 15.2712C31.1245 15.214 31.5392 15.1681 31.9659 15.1339L31.806 13.1403ZM29.0802 13.5303C28.6186 13.6279 28.1694 13.7405 27.7324 13.8675L28.2909 15.788C28.6789 15.6751 29.0799 15.5746 29.4941 15.487L29.0802 13.5303ZM26.4077 14.3111C25.9642 14.4802 25.5349 14.6657 25.1194 14.867L25.9914 16.6668C26.3541 16.4911 26.7301 16.3286 27.1201 16.1799L26.4077 14.3111ZM23.8823 15.5371C23.4768 15.7814 23.0865 16.0423 22.711 16.3189L23.8975 17.929C24.2233 17.6889 24.5621 17.4625 24.9144 17.2502L23.8823 15.5371ZM21.618 17.2051C21.2678 17.5168 20.9327 17.8436 20.6122 18.1845L22.0694 19.5544C22.3502 19.2557 22.6428 18.9705 22.9476 18.6992L21.618 17.2051ZM19.6981 19.2435C19.4106 19.6059 19.1368 19.9811 18.876 20.3681L20.5346 21.4857C20.7675 21.14 21.0109 20.8068 21.265 20.4864L19.6981 19.2435ZM18.143 21.5447C17.9152 21.9402 17.699 22.3462 17.4936 22.7617L19.2867 23.6477C19.4741 23.2684 19.6705 22.8999 19.8762 22.5427L18.143 21.5447ZM16.9213 24.0093C16.7445 24.4246 16.5772 24.8483 16.4188 25.2797L18.2962 25.9692C18.4436 25.5678 18.5986 25.1754 18.7616 24.7924L16.9213 24.0093ZM15.979 26.5671C15.8436 26.9938 15.7158 27.4272 15.5953 27.8668L17.5241 28.3957C17.638 27.9803 17.7583 27.5723 17.8853 27.172L15.979 26.5671ZM15.2615 29.1755C15.1589 29.6086 15.0626 30.0472 14.9721 30.4908L16.9318 30.8905C17.0183 30.4663 17.1102 30.0482 17.2077 29.6363L15.2615 29.1755ZM14.7223 31.8109C14.6458 32.2478 14.5744 32.689 14.5077 33.1344L16.4857 33.4304C16.55 33.0006 16.6188 32.5757 16.6923 32.1559L14.7223 31.8109ZM14.3246 34.4603C14.2688 34.8994 14.2171 35.342 14.1694 35.7878L16.1581 36.0007C16.2044 35.5673 16.2545 35.1378 16.3086 34.7124L14.3246 34.4603ZM14.0393 37.1164C14.0001 37.5561 13.9643 37.9986 13.9317 38.4437L15.9264 38.5898C15.9582 38.1548 15.9932 37.7227 16.0314 37.294L14.0393 37.1164ZM13.8441 39.7697C13.8181 40.2097 13.7948 40.6519 13.7742 41.096L15.772 41.189C15.7923 40.7529 15.8151 40.319 15.8406 39.8878L13.8441 39.7697ZM13.72 42.4223C13.7044 42.8627 13.691 43.3048 13.6797 43.7482L15.679 43.7993C15.6902 43.362 15.7034 42.9265 15.7187 42.493L13.72 42.4223ZM13.6517 45.0735C13.6443 45.5134 13.6386 45.9543 13.6345 46.3961L15.6344 46.4147C15.6385 45.9776 15.6441 45.5417 15.6514 45.1072L13.6517 45.0735ZM13.6266 47.7183C13.6259 47.9387 13.6256 48.1593 13.6256 48.38H15.6256C15.6256 48.1611 15.6259 47.9425 15.6266 47.724L13.6266 47.7183ZM13.6256 48.38C13.6256 48.6038 13.6259 48.8273 13.6265 49.0505L15.6265 49.0453C15.6259 48.8239 15.6256 48.6021 15.6256 48.38H13.6256ZM13.6339 50.3881C13.6377 50.8359 13.643 51.2821 13.6499 51.7267L15.6497 51.6957C15.6428 51.256 15.6376 50.8144 15.6338 50.3709L13.6339 50.3881ZM13.676 53.0682C13.6866 53.5175 13.6991 53.9648 13.7136 54.4099L15.7126 54.3444C15.6982 53.9058 15.6859 53.4646 15.6754 53.0211L13.676 53.0682ZM13.7644 55.7514C13.7839 56.201 13.8057 56.6481 13.8301 57.0926L15.8271 56.9827C15.8031 56.5465 15.7817 56.1072 15.7626 55.6651L13.7644 55.7514ZM13.9128 58.4354C13.9437 58.8869 13.9776 59.3354 14.0147 59.7805L16.0078 59.6142C15.9715 59.1795 15.9384 58.741 15.9082 58.299L13.9128 58.4354ZM14.1382 61.125C14.1836 61.5766 14.2327 62.0245 14.2858 62.4684L16.2716 62.2307C16.2201 61.8 16.1723 61.3647 16.1282 60.925L14.1382 61.125ZM14.4606 63.8102C14.5244 64.2614 14.5927 64.7081 14.666 65.15L16.6391 64.8228C16.5685 64.3974 16.5026 63.9665 16.4409 63.5304L14.4606 63.8102ZM14.906 66.4868C14.9931 66.9366 15.086 67.381 15.1849 67.8195L17.1359 67.3795C17.0416 66.9617 16.9529 66.5373 16.8695 66.1064L14.906 66.4868ZM15.5081 69.1478C15.6252 69.5947 15.7494 70.0349 15.8812 70.4679L17.7946 69.8858C17.6708 69.4789 17.5536 69.0638 17.4428 68.6408L15.5081 69.1478ZM16.3102 71.776C16.4652 72.2148 16.6291 72.6455 16.8023 73.0675L18.6525 72.3079C18.4925 71.9183 18.3405 71.5189 18.1961 71.1099L16.3102 71.776ZM17.3649 74.3366C17.5675 74.7602 17.7811 75.1737 18.0062 75.5764L19.7519 74.6004C19.5484 74.2365 19.3543 73.8608 19.1692 73.4737L17.3649 74.3366ZM18.7339 76.7772C18.9936 77.1728 19.2666 77.5559 19.5535 77.9258L21.1338 76.7001C20.8803 76.3732 20.6377 76.0329 20.4057 75.6795L18.7339 76.7772ZM20.4685 79.008C20.7902 79.3566 21.1268 79.6905 21.479 80.0087L22.8198 78.5247C22.5136 78.2481 22.22 77.957 21.9385 77.6518L20.4685 79.008ZM22.5801 80.9135C22.9588 81.1959 23.3528 81.4618 23.7626 81.7107L24.8009 80.0014C24.4453 79.7854 24.1037 79.5548 23.7755 79.3101L22.5801 80.9135ZM25.0134 82.3927C25.4336 82.5973 25.868 82.7856 26.317 82.9571L27.0306 81.0887C26.6358 80.9379 26.2554 80.773 25.8889 80.5946L25.0134 82.3927ZM27.658 83.4063C28.1003 83.5348 28.555 83.6485 29.0226 83.747L29.435 81.79C29.0151 81.7015 28.6089 81.5999 28.216 81.4857L27.658 83.4063ZM30.3998 83.9881C30.8495 84.0515 31.3101 84.102 31.7817 84.1395L31.9403 82.1458C31.5076 82.1114 31.0873 82.0652 30.6789 82.0077L30.3998 83.9881ZM33.1637 84.2112C33.3952 84.2171 33.6291 84.22 33.8656 84.22V82.22C33.6457 82.22 33.4285 82.2173 33.2142 82.2119L33.1637 84.2112ZM33.8656 84.22C34.1021 84.22 34.3361 84.2171 34.5675 84.2112L34.517 82.2119C34.3027 82.2173 34.0856 82.22 33.8656 82.22V84.22ZM35.9495 84.1395C36.4212 84.102 36.8818 84.0515 37.3315 83.9881L37.0524 82.0077C36.644 82.0652 36.2236 82.1114 35.7909 82.1458L35.9495 84.1395ZM38.7086 83.747C39.1762 83.6485 39.631 83.5348 40.0732 83.4063L39.5153 81.4857C39.1224 81.5999 38.7162 81.7015 38.2962 81.79L38.7086 83.747ZM41.4143 82.9571C41.8633 82.7856 42.2977 82.5973 42.7179 82.3927L41.8423 80.5946C41.4759 80.773 41.0955 80.9379 40.7007 81.0887L41.4143 82.9571ZM43.9686 81.7108C44.3784 81.4618 44.7724 81.1959 45.1511 80.9135L43.9557 79.3101C43.6275 79.5548 43.2859 79.7854 42.9304 80.0014L43.9686 81.7108ZM46.2523 80.0087C46.6045 79.6905 46.9411 79.3566 47.2627 79.008L45.7927 77.6518C45.5112 77.957 45.2176 78.2481 44.9114 78.5247L46.2523 80.0087ZM48.1778 77.9258C48.4647 77.5559 48.7377 77.1728 48.9974 76.7772L47.3256 75.6795C47.0935 76.0329 46.851 76.3732 46.5974 76.7001L48.1778 77.9258ZM49.725 75.5764C49.9502 75.1737 50.1638 74.7602 50.3663 74.3366L48.5621 73.4737C48.3769 73.8608 48.1828 74.2365 47.9793 74.6004L49.725 75.5764ZM50.9289 73.0675C51.1022 72.6455 51.266 72.2148 51.421 71.776L49.5352 71.1099C49.3907 71.5189 49.2387 71.9183 49.0788 72.3079L50.9289 73.0675ZM51.8501 70.4679C51.9818 70.0349 52.106 69.5947 52.2231 69.1478L50.2885 68.6408C50.1776 69.0638 50.0605 69.4789 49.9367 69.8858L51.8501 70.4679ZM52.5464 67.8195C52.6453 67.381 52.7381 66.9366 52.8253 66.4868L50.8618 66.1064C50.7783 66.5373 50.6896 66.9617 50.5954 67.3795L52.5464 67.8195ZM53.0652 65.15C53.1385 64.7081 53.2069 64.2614 53.2707 63.8103L51.2903 63.5304C51.2287 63.9665 51.1627 64.3974 51.0922 64.8228L53.0652 65.15ZM53.4455 62.4684C53.4986 62.0245 53.5477 61.5766 53.5931 61.125L51.6031 60.925C51.5589 61.3647 51.5112 61.8 51.4596 62.2307L53.4455 62.4684ZM53.7165 59.7805C53.7537 59.3354 53.7876 58.8869 53.8184 58.4354L51.8231 58.299C51.7929 58.741 51.7597 59.1795 51.7234 59.6142L53.7165 59.7805ZM53.9011 57.0926C53.9256 56.6481 53.9474 56.201 53.9668 55.7514L51.9687 55.6651C51.9496 56.1072 51.9281 56.5465 51.9041 56.9827L53.9011 57.0926ZM54.0176 54.4099C54.0322 53.9648 54.0447 53.5175 54.0553 53.0682L52.0558 53.0211C52.0454 53.4646 52.033 53.9058 52.0187 54.3444L54.0176 54.4099ZM54.0813 51.7267C54.0883 51.2822 54.0935 50.8359 54.0974 50.3881L52.0974 50.3709C52.0936 50.8144 52.0884 51.2561 52.0816 51.6957L54.0813 51.7267ZM54.1048 49.0505C54.1053 48.8273 54.1056 48.6038 54.1056 48.38H52.1056C52.1056 48.6021 52.1053 48.8239 52.1048 49.0453L54.1048 49.0505ZM83.0869 25.63L82.5879 25.5983L82.5541 26.13H83.0869V25.63ZM97.5169 25.63V26.13H97.9529L98.0122 25.698L97.5169 25.63ZM107.527 40.58V41.08L107.532 41.08L107.527 40.58ZM104.017 40.58V40.08H103.517V40.58H104.017ZM104.017 52.8H103.517V53.3H104.017V52.8ZM96.0869 69.57L96.5855 69.5333L96.5515 69.07H96.0869V69.57ZM81.7869 69.57V69.07H81.2618L81.2875 69.5944L81.7869 69.57ZM128.717 46.69H128.217V47.0611L128.572 47.1686L128.717 46.69ZM128.717 46.17L128.559 45.6957L128.217 45.8096V46.17H128.717ZM83.0869 26.13H83.8084V25.13H83.0869V26.13ZM85.2514 26.13H86.6944V25.13H85.2514V26.13ZM88.1374 26.13H89.5804V25.13H88.1374V26.13ZM91.0234 26.13H92.4664V25.13H91.0234V26.13ZM93.9094 26.13H95.3524V25.13H93.9094V26.13ZM96.7954 26.13H97.5169V25.13H96.7954V26.13ZM98.0122 25.698C98.0435 25.4701 98.0795 25.2428 98.1203 25.0163L97.1362 24.839C97.0929 25.0794 97.0547 25.3205 97.0215 25.562L98.0122 25.698ZM98.4227 23.671C98.5428 23.228 98.6824 22.7903 98.8421 22.3597L97.9045 22.0119C97.7341 22.4715 97.5853 22.9381 97.4576 23.4094L98.4227 23.671ZM99.3803 21.095C99.579 20.6839 99.798 20.2819 100.038 19.8907L99.1852 19.3681C98.9276 19.7883 98.6928 20.2195 98.48 20.6598L99.3803 21.095ZM100.813 18.7611C101.088 18.4013 101.384 18.0536 101.701 17.7198L100.976 17.0314C100.634 17.3912 100.315 17.7659 100.019 18.1533L100.813 18.7611ZM102.695 16.7789C103.037 16.4874 103.4 16.2099 103.783 15.9481L103.219 15.1226C102.807 15.4042 102.416 15.703 102.047 16.0172L102.695 16.7789ZM104.953 15.2332C105.347 15.019 105.759 14.8196 106.19 14.6363L105.799 13.7161C105.339 13.9117 104.898 14.1251 104.475 14.3548L104.953 15.2332ZM107.48 14.1553C107.907 14.0171 108.35 13.8934 108.81 13.7853L108.581 12.8119C108.095 12.9261 107.626 13.0571 107.172 13.2039L107.48 14.1553ZM110.171 13.5194C110.616 13.4493 111.074 13.3927 111.547 13.3505L111.459 12.3545C110.964 12.3986 110.483 12.4579 110.015 12.5316L110.171 13.5194ZM112.937 13.2698C113.167 13.2633 113.4 13.26 113.637 13.26V12.26C113.391 12.26 113.148 12.2634 112.909 12.2702L112.937 13.2698ZM113.637 13.26C113.853 13.26 114.066 13.2625 114.278 13.2675L114.301 12.2678C114.082 12.2626 113.861 12.26 113.637 12.26V13.26ZM115.548 13.3295C115.981 13.3618 116.403 13.4053 116.814 13.4596L116.945 12.4682C116.514 12.4113 116.074 12.3659 115.623 12.3322L115.548 13.3295ZM118.063 13.6641C118.487 13.7474 118.897 13.8431 119.295 13.9509L119.556 12.9857C119.135 12.8716 118.702 12.7706 118.256 12.6829L118.063 13.6641ZM120.497 14.327C120.9 14.4707 121.288 14.6281 121.66 14.7987L122.077 13.8895C121.677 13.7066 121.263 13.5383 120.834 13.3852L120.497 14.327ZM122.771 15.3719C123.138 15.5838 123.486 15.8102 123.818 16.0505L124.405 15.241C124.045 14.9801 123.667 14.735 123.272 14.5063L122.771 15.3719ZM124.784 16.8344C125.093 17.1148 125.384 17.41 125.655 17.7194L126.407 17.0594C126.11 16.7215 125.793 16.3994 125.456 16.0938L124.784 16.8344ZM126.42 18.6973C126.655 19.0365 126.872 19.3897 127.07 19.7564L127.95 19.2817C127.735 18.8825 127.499 18.4974 127.242 18.1272L126.42 18.6973ZM127.601 20.8825C127.756 21.263 127.894 21.6558 128.014 22.0606L128.973 21.7769C128.844 21.3409 128.695 20.9165 128.527 20.5044L127.601 20.8825ZM128.313 23.2768C128.393 23.6807 128.457 24.0949 128.504 24.5189L129.498 24.4076C129.447 23.9567 129.379 23.5148 129.294 23.0825L128.313 23.2768ZM128.596 25.7772C128.603 25.986 128.607 26.197 128.607 26.41H129.607C129.607 26.1854 129.603 25.9627 129.595 25.7418L128.596 25.7772ZM128.607 26.41C128.607 26.6297 128.603 26.8463 128.595 27.0596L129.594 27.0964C129.603 26.8705 129.607 26.6417 129.607 26.41H128.607ZM128.497 28.3425C128.445 28.7789 128.375 29.2004 128.287 29.6075L129.265 29.8176C129.359 29.3789 129.434 28.9266 129.49 28.4605L128.497 28.3425ZM127.955 30.8392C127.821 31.2491 127.666 31.6428 127.492 32.0207L128.4 32.4395C128.591 32.0259 128.759 31.5964 128.906 31.1508L127.955 30.8392ZM126.892 33.1375C126.669 33.4976 126.425 33.8419 126.161 34.1708L126.94 34.7977C127.23 34.437 127.498 34.0591 127.743 33.6638L126.892 33.1375ZM125.308 35.1093C125.008 35.4025 124.688 35.6818 124.348 35.9473L124.964 36.7352C125.332 36.4477 125.679 36.1443 126.007 35.8244L125.308 35.1093ZM123.303 36.6821C122.949 36.9066 122.577 37.1193 122.188 37.3204L122.648 38.2086C123.061 37.9948 123.458 37.7677 123.838 37.527L123.303 36.6821ZM121.019 37.8689C120.63 38.034 120.227 38.1893 119.811 38.3351L120.141 39.2791C120.577 39.1265 121 38.9633 121.41 38.7892L121.019 37.8689ZM118.571 38.7289C118.161 38.8467 117.74 38.9565 117.307 39.0583L117.536 40.0317C117.984 39.9263 118.421 39.8125 118.847 39.69L118.571 38.7289ZM116.03 39.3296C115.609 39.41 115.179 39.4837 114.738 39.5508L114.889 40.5394C115.341 40.4705 115.784 40.3947 116.218 40.3119L116.03 39.3296ZM113.436 39.7271C113.008 39.778 112.572 39.8233 112.129 39.8631L112.218 40.8591C112.671 40.8185 113.116 40.7722 113.554 40.7201L113.436 39.7271ZM110.818 39.9632C110.386 39.9906 109.948 40.0133 109.503 40.0312L109.543 41.0304C109.996 41.0122 110.442 40.9891 110.882 40.9611L110.818 39.9632ZM108.185 40.0704C107.966 40.0747 107.745 40.0779 107.522 40.08L107.532 41.08C107.758 41.0778 107.982 41.0745 108.205 41.0702L108.185 40.0704ZM107.527 40.08H106.649V41.08H107.527V40.08ZM104.894 40.08H104.017V41.08H104.894V40.08ZM103.517 40.58V41.191H104.517V40.58H103.517ZM103.517 42.413V43.635H104.517V42.413H103.517ZM103.517 44.857V46.079H104.517V44.857H103.517ZM103.517 47.301V48.523H104.517V47.301H103.517ZM103.517 49.745V50.967H104.517V49.745H103.517ZM103.517 52.189V52.8H104.517V52.189H103.517ZM104.017 53.3H104.862V52.3H104.017V53.3ZM106.552 53.3H107.397V52.3H106.552V53.3ZM107.397 53.3C107.63 53.3 107.861 53.301 108.09 53.3029L108.098 52.303C107.866 52.301 107.632 52.3 107.397 52.3V53.3ZM109.464 53.3272C109.929 53.3399 110.387 53.3569 110.836 53.3786L110.884 52.3797C110.427 52.3577 109.963 52.3404 109.491 52.3276L109.464 53.3272ZM112.206 53.4603C112.67 53.4936 113.125 53.5323 113.571 53.5764L113.669 52.5813C113.214 52.5362 112.75 52.4968 112.278 52.4629L112.206 53.4603ZM114.93 53.7313C115.39 53.7911 115.84 53.8574 116.279 53.9303L116.443 52.9437C115.991 52.8688 115.53 52.8009 115.059 52.7397L114.93 53.7313ZM117.62 54.1799C118.074 54.2743 118.517 54.3768 118.947 54.4876L119.196 53.5191C118.75 53.4043 118.292 53.2983 117.823 53.2008L117.62 54.1799ZM120.251 54.8602C120.69 54.9991 121.114 55.1478 121.524 55.3066L121.885 54.3741C121.455 54.2073 121.01 54.0517 120.552 53.9068L120.251 54.8602ZM122.764 55.8387C123.176 56.0342 123.571 56.2417 123.949 56.4617L124.452 55.5974C124.048 55.3627 123.629 55.1422 123.193 54.9353L122.764 55.8387ZM125.072 57.1881C125.437 57.4502 125.783 57.7268 126.11 58.0184L126.775 57.272C126.421 56.9563 126.048 56.6578 125.655 56.3758L125.072 57.1881ZM127.05 58.9552C127.344 59.284 127.619 59.6292 127.875 59.9914L128.692 59.414C128.414 59.0205 128.114 58.6454 127.794 58.2881L127.05 58.9552ZM128.579 61.1172C128.789 61.499 128.982 61.8976 129.157 62.3135L130.079 61.926C129.891 61.4786 129.683 61.0484 129.455 60.6351L128.579 61.1172ZM129.614 63.5706C129.744 63.986 129.858 64.4169 129.957 64.8637L130.933 64.6476C130.829 64.1745 130.707 63.7164 130.569 63.273L129.614 63.5706ZM130.198 66.1904C130.261 66.6245 130.311 67.0721 130.348 67.5334L131.345 67.4534C131.306 66.9719 131.254 66.5031 131.188 66.047L130.198 66.1904ZM130.418 68.885C130.424 69.1104 130.427 69.3387 130.427 69.57H131.427C131.427 69.3306 131.424 69.0939 131.418 68.8601L130.418 68.885ZM130.427 69.57C130.427 69.7807 130.424 69.9902 130.417 70.1983L131.417 70.2288C131.424 70.0104 131.427 69.7908 131.427 69.57H130.427ZM130.339 71.449C130.299 71.8686 130.246 72.2818 130.179 72.6879L131.165 72.8509C131.236 72.4216 131.293 71.9856 131.335 71.5436L130.339 71.449ZM129.93 73.9117C129.831 74.3194 129.718 74.7187 129.589 75.1092L130.54 75.4213C130.676 75.0051 130.797 74.5802 130.902 74.1475L129.93 73.9117ZM129.153 76.2717C128.99 76.6549 128.811 77.028 128.617 77.3903L129.499 77.8625C129.707 77.4733 129.899 77.0733 130.073 76.6631L129.153 76.2717ZM127.982 78.453C127.754 78.7969 127.51 79.1291 127.25 79.4491L128.027 80.0797C128.307 79.7344 128.57 79.3761 128.816 79.0057L127.982 78.453ZM126.425 80.3689C126.137 80.6597 125.833 80.9381 125.514 81.2033L126.153 81.9728C126.497 81.6868 126.825 81.3864 127.136 81.0724L126.425 80.3689ZM124.526 81.9465C124.189 82.1758 123.837 82.3924 123.47 82.5956L123.955 83.4704C124.348 83.2525 124.726 83.02 125.088 82.7733L124.526 81.9465ZM122.359 83.1492C121.987 83.315 121.602 83.4684 121.203 83.6089L121.536 84.552C121.959 84.4028 122.369 84.2395 122.766 84.0625L122.359 83.1492ZM120.011 83.9792C119.617 84.0857 119.211 84.1807 118.794 84.2635L118.989 85.2443C119.428 85.1572 119.855 85.0571 120.272 84.9445L120.011 83.9792ZM117.557 84.4684C117.15 84.5231 116.733 84.5669 116.306 84.5996L116.382 85.5967C116.828 85.5626 117.264 85.5168 117.69 85.4596L117.557 84.4684ZM115.051 84.6623C114.842 84.6674 114.63 84.67 114.417 84.67V85.67C114.638 85.67 114.858 85.6673 115.075 85.662L115.051 84.6623ZM114.417 84.67C114.195 84.67 113.975 84.6673 113.757 84.6619L113.732 85.6616C113.959 85.6672 114.187 85.67 114.417 85.67V84.67ZM112.449 84.5961C112.005 84.5621 111.57 84.5165 111.144 84.4597L111.012 85.451C111.457 85.5103 111.91 85.5578 112.373 85.5932L112.449 84.5961ZM109.853 84.2489C109.419 84.1643 108.994 84.0675 108.58 83.9589L108.327 84.9262C108.762 85.0403 109.207 85.1419 109.662 85.2305L109.853 84.2489ZM107.331 83.5856C106.913 83.445 106.507 83.2916 106.113 83.126L105.726 84.048C106.143 84.2231 106.571 84.385 107.011 84.5333L107.331 83.5856ZM104.936 82.5776C104.546 82.3773 104.169 82.1641 103.806 81.9386L103.278 82.7884C103.665 83.0282 104.065 83.2547 104.479 83.4671L104.936 82.5776ZM102.734 81.2106C102.385 80.951 102.049 80.6788 101.729 80.3946L101.066 81.1432C101.408 81.4465 101.765 81.7368 102.138 82.0134L102.734 81.2106ZM100.798 79.495C100.5 79.1808 100.218 78.8548 99.9505 78.5176L99.167 79.139C99.4525 79.499 99.7543 79.8472 100.072 80.1827L100.798 79.495ZM99.1915 77.4694C98.9542 77.1096 98.7322 76.7391 98.5259 76.3588L97.6469 76.8356C97.8668 77.241 98.1035 77.636 98.3567 78.02L99.1915 77.4694ZM97.9565 75.1948C97.7837 74.8008 97.6263 74.3977 97.4844 73.9862L96.539 74.3122C96.6896 74.7489 96.8569 75.1772 97.0407 75.5964L97.9565 75.1948ZM97.1095 72.7424C97.0015 72.3263 96.9085 71.9028 96.8305 71.4726L95.8465 71.6509C95.9288 72.1052 96.0273 72.553 96.1416 72.9936L97.1095 72.7424ZM96.6445 70.1833C96.6212 69.9681 96.6016 69.7514 96.5855 69.5333L95.5882 69.6067C95.6051 69.8361 95.6258 70.0642 95.6504 70.2909L96.6445 70.1833ZM96.0869 69.07H95.3719V70.07H96.0869V69.07ZM93.9419 69.07H92.5119V70.07H93.9419V69.07ZM91.0819 69.07H89.6519V70.07H91.0819V69.07ZM88.2219 69.07H86.7919V70.07H88.2219V69.07ZM85.3619 69.07H83.9319V70.07H85.3619V69.07ZM82.5019 69.07H81.7869V70.07H82.5019V69.07ZM81.2875 69.5944C81.2987 69.8236 81.3119 70.0513 81.327 70.2777L82.3247 70.2112C82.31 69.9907 82.2972 69.7688 82.2863 69.5456L81.2875 69.5944ZM81.4415 71.6281C81.4885 72.0824 81.5435 72.531 81.6064 72.974L82.5964 72.8333C82.5353 72.4031 82.4819 71.9671 82.4362 71.5253L81.4415 71.6281ZM81.8248 74.3187C81.9075 74.7696 81.9986 75.2142 82.0982 75.6526L83.0734 75.4311C82.977 75.0066 82.8886 74.5757 82.8085 74.1384L81.8248 74.3187ZM82.4284 76.9732C82.5492 77.4149 82.6789 77.8499 82.8173 78.278L83.7688 77.9705C83.6352 77.5569 83.5098 77.1366 83.3929 76.7093L82.4284 76.9732ZM83.2664 79.5639C83.4276 79.9924 83.5979 80.4136 83.777 80.8275L84.6947 80.4302C84.5221 80.0314 84.3579 79.6252 84.2024 79.2118L83.2664 79.5639ZM84.3498 82.065C84.5525 82.4755 84.7643 82.8782 84.9852 83.2731L85.8579 82.7849C85.6455 82.4051 85.4416 82.0175 85.2464 81.6223L84.3498 82.065ZM85.6827 84.4475C85.9265 84.8344 86.1793 85.2132 86.441 85.5837L87.2578 85.0069C87.0063 84.6507 86.7632 84.2866 86.5288 83.9145L85.6827 84.4475ZM87.2583 86.6782C87.541 87.0365 87.8325 87.3863 88.1325 87.7277L88.8836 87.0675C88.5952 86.7393 88.315 86.4031 88.0434 86.0588L87.2583 86.6782ZM89.0608 88.7292C89.379 89.0549 89.7055 89.3719 90.0401 89.6805L90.718 88.9453C90.3961 88.6484 90.082 88.3435 89.7761 88.0303L89.0608 88.7292ZM91.067 90.5795C91.4162 90.8699 91.7732 91.1517 92.1377 91.425L92.7376 90.6249C92.3864 90.3616 92.0425 90.0901 91.7063 89.8106L91.067 90.5795ZM93.2484 92.216C93.6238 92.4698 94.0062 92.7152 94.3955 92.9523L94.9156 92.0982C94.5397 91.8693 94.1706 91.6324 93.8085 91.3876L93.2484 92.216ZM95.575 93.6338C95.9715 93.851 96.3745 94.06 96.7836 94.261L97.2245 93.3635C96.8285 93.1689 96.4387 92.9667 96.0554 92.7567L95.575 93.6338ZM98.0177 94.8347C98.4309 95.0162 98.8498 95.1899 99.2742 95.3559L99.6384 94.4246C99.2265 94.2635 98.8203 94.0951 98.4198 93.9191L98.0177 94.8347ZM100.55 95.8258C100.976 95.9732 101.407 96.1132 101.843 96.2457L102.134 95.2889C101.71 95.16 101.291 95.024 100.877 94.8808L100.55 95.8258ZM103.148 96.6165C103.583 96.7315 104.022 96.8394 104.465 96.9403L104.687 95.9652C104.255 95.8669 103.827 95.7617 103.404 95.6498L103.148 96.6165ZM105.792 97.2186C106.233 97.3035 106.678 97.3816 107.127 97.453L107.284 96.4654C106.846 96.3957 106.411 96.3194 105.981 96.2366L105.792 97.2186ZM108.469 97.6449C108.914 97.7017 109.363 97.752 109.816 97.7958L109.912 96.8005C109.47 96.7576 109.031 96.7084 108.595 96.6529L108.469 97.6449ZM111.166 97.907C111.613 97.9374 112.063 97.9616 112.516 97.9797L112.556 96.9805C112.113 96.9628 111.672 96.939 111.234 96.9093L111.166 97.907ZM113.868 98.0155C114.093 98.0185 114.32 98.02 114.547 98.02V97.02C114.324 97.02 114.102 97.0185 113.881 97.0156L113.868 98.0155ZM114.547 98.02C114.775 98.02 115.003 98.0185 115.229 98.0155L115.215 97.0156C114.994 97.0185 114.771 97.02 114.547 97.02V98.02ZM116.576 97.9792C117.032 97.9607 117.482 97.9359 117.927 97.9049L117.858 96.9073C117.422 96.9376 116.982 96.9619 116.536 96.98L116.576 97.9792ZM119.278 97.7905C119.732 97.7451 120.181 97.6931 120.623 97.6346L120.492 96.6433C120.06 96.7004 119.622 96.7511 119.179 96.7955L119.278 97.7905ZM121.961 97.4354C122.411 97.3607 122.854 97.2791 123.292 97.1907L123.094 96.2105C122.668 96.2966 122.236 96.3761 121.798 96.4489L121.961 97.4354ZM124.618 96.8975C125.063 96.7904 125.501 96.676 125.933 96.5544L125.661 95.5919C125.242 95.71 124.816 95.8211 124.384 95.9253L124.618 96.8975ZM127.233 96.1598C127.668 96.0181 128.096 95.8687 128.516 95.7118L128.166 94.7749C127.759 94.9268 127.345 95.0716 126.923 95.209L127.233 96.1598ZM129.779 95.2086C130.201 95.0297 130.614 94.843 131.019 94.6486L130.587 93.747C130.195 93.9347 129.796 94.1151 129.389 94.288L129.779 95.2086ZM132.232 94.0305C132.635 93.8128 133.029 93.587 133.415 93.3534L132.896 92.4983C132.525 92.7233 132.146 92.9408 131.757 93.1507L132.232 94.0305ZM134.562 92.6168C134.941 92.3595 135.31 92.0941 135.67 91.8208L135.065 91.0245C134.72 91.287 134.365 91.5421 134 91.7896L134.562 92.6168ZM136.735 90.9659C137.083 90.6696 137.422 90.3654 137.751 90.0533L137.062 89.3282C136.747 89.6275 136.422 89.9194 136.087 90.2036L136.735 90.9659ZM138.714 89.0849C139.027 88.752 139.33 88.4114 139.621 88.0632L138.855 87.4209C138.576 87.7544 138.286 88.0808 137.986 88.3999L138.714 89.0849ZM140.469 86.9912C140.741 86.6255 141.003 86.2525 141.253 85.8724L140.419 85.322C140.179 85.6861 139.928 86.0435 139.667 86.3938L140.469 86.9912ZM141.973 84.7108C142.201 84.3173 142.418 83.9171 142.625 83.5105L141.733 83.058C141.535 83.448 141.327 83.8316 141.108 84.2088L141.973 84.7108ZM143.209 82.2761C143.391 81.8606 143.563 81.4391 143.724 81.0119L142.788 80.6599C142.633 81.0703 142.468 81.4749 142.293 81.8737L143.209 82.2761ZM144.17 79.7225C144.306 79.2909 144.432 78.854 144.547 78.4122L143.58 78.1599C143.469 78.5853 143.348 79.0056 143.216 79.4206L144.17 79.7225ZM144.858 77.0851C144.95 76.6429 145.032 76.1962 145.103 75.7452L144.115 75.5893C144.046 76.0245 143.968 76.4554 143.879 76.8816L144.858 77.0851ZM145.283 74.3959C145.333 73.9479 145.372 73.4961 145.402 73.0406L144.404 72.976C144.375 73.4166 144.337 73.8535 144.289 74.2864L145.283 74.3959ZM145.46 71.6822C145.464 71.4556 145.467 71.2282 145.467 71H144.467C144.467 71.2212 144.465 71.4415 144.46 71.661L145.46 71.6822ZM145.467 71C145.467 70.7754 145.465 70.5522 145.461 70.3303L144.462 70.3469C144.465 70.5631 144.467 70.7808 144.467 71H145.467ZM145.417 68.9984C145.394 68.5491 145.363 68.1057 145.325 67.6683L144.328 67.7558C144.366 68.1808 144.396 68.612 144.418 69.0494L145.417 68.9984ZM145.182 66.3421C145.125 65.8947 145.06 65.454 144.987 65.0201L144.001 65.1871C144.072 65.6072 144.135 66.0343 144.19 66.4682L145.182 66.3421ZM144.734 63.705C144.639 63.2634 144.536 62.8293 144.423 62.4026L143.456 62.658C143.565 63.0694 143.665 63.4885 143.757 63.9152L144.734 63.705ZM144.049 61.1165C143.913 60.6858 143.766 60.2633 143.611 59.849L142.675 60.2006C142.824 60.5984 142.965 61.0046 143.096 61.4191L144.049 61.1165ZM143.105 58.6042C142.923 58.1904 142.731 57.7856 142.53 57.3899L141.639 57.8433C141.831 58.2219 142.015 58.6095 142.189 59.0062L143.105 58.6042ZM141.885 56.2094C141.657 55.8193 141.419 55.4391 141.17 55.0687L140.34 55.6256C140.577 55.979 140.804 56.342 141.022 56.7146L141.885 56.2094ZM140.386 53.9746C140.112 53.6162 139.828 53.2682 139.534 52.9306L138.78 53.5875C139.06 53.909 139.331 54.2406 139.592 54.5823L140.386 53.9746ZM138.617 51.9436C138.3 51.6239 137.974 51.315 137.638 51.0169L136.974 51.7646C137.294 52.0486 137.605 52.3428 137.906 52.6473L138.617 51.9436ZM136.603 50.1546C136.25 49.8787 135.888 49.6136 135.517 49.3593L134.951 50.1842C135.306 50.4268 135.651 50.6797 135.988 50.9428L136.603 50.1546ZM134.384 48.6326C134.001 48.4028 133.61 48.1837 133.211 47.9751L132.747 48.8614C133.129 49.061 133.504 49.2706 133.87 49.4902L134.384 48.6326ZM132.003 47.3871C131.597 47.2035 131.184 47.0301 130.764 46.8669L130.402 47.7989C130.805 47.9557 131.201 48.1221 131.59 48.2982L132.003 47.3871ZM129.502 46.4139C129.29 46.344 129.077 46.2765 128.862 46.2114L128.572 47.1686C128.779 47.2312 128.985 47.2962 129.188 47.3635L129.502 46.4139ZM129.217 46.69V46.56H128.217V46.69H129.217ZM129.217 46.3V46.17H128.217V46.3H129.217ZM128.875 46.6443C129.099 46.5698 129.322 46.4907 129.545 46.407L129.193 45.4708C128.982 45.5501 128.77 45.6251 128.559 45.6957L128.875 46.6443ZM130.855 45.86C131.281 45.664 131.704 45.4513 132.122 45.2223L131.642 44.3451C131.244 44.5631 130.842 44.7653 130.437 44.9516L130.855 45.86ZM133.342 44.5001C133.737 44.248 134.127 43.9808 134.511 43.6988L133.919 42.8929C133.553 43.1619 133.181 43.4168 132.804 43.6571L133.342 44.5001ZM135.625 42.8237C135.984 42.5225 136.336 42.2077 136.68 41.8795L135.989 41.1561C135.661 41.4695 135.325 41.7701 134.982 42.0577L135.625 42.8237ZM137.673 40.87C137.991 40.5255 138.3 40.1687 138.6 39.7996L137.824 39.169C137.537 39.5217 137.242 39.8626 136.938 40.1917L137.673 40.87ZM139.457 38.674C139.729 38.2926 139.991 37.8999 140.243 37.496L139.394 36.9675C139.153 37.3535 138.903 37.7289 138.643 38.0934L139.457 38.674ZM140.953 36.2721C141.175 35.8603 141.386 35.4383 141.585 35.0063L140.677 34.5872C140.487 35.0003 140.285 35.4038 140.072 35.7975L140.953 36.2721ZM142.139 33.7038C142.308 33.2686 142.466 32.8243 142.611 32.3711L141.659 32.0657C141.519 32.4996 141.369 32.9249 141.207 33.3413L142.139 33.7038ZM143.002 31.012C143.118 30.5604 143.221 30.1008 143.312 29.6332L142.331 29.4423C142.244 29.8907 142.144 30.3313 142.033 30.7641L143.002 31.012ZM143.542 28.24C143.605 27.7784 143.656 27.3097 143.693 26.8342L142.697 26.7547C142.66 27.2118 142.612 27.6621 142.551 28.1053L143.542 28.24ZM143.768 25.4275C143.774 25.1932 143.777 24.9574 143.777 24.72H142.777C142.777 24.9487 142.774 25.1758 142.768 25.4014L143.768 25.4275ZM143.777 24.72C143.777 24.4908 143.774 24.2624 143.769 24.0348L142.769 24.0592C142.774 24.2787 142.777 24.4989 142.777 24.72H143.777ZM143.701 22.6696C143.667 22.2124 143.621 21.7587 143.564 21.3089L142.572 21.4349C142.627 21.8674 142.671 22.3039 142.704 22.7441L143.701 22.6696ZM143.356 19.9565C143.274 19.5055 143.18 19.0587 143.074 18.6167L142.102 18.8493C142.203 19.2733 142.293 19.7021 142.372 20.1353L143.356 19.9565ZM142.718 17.294C142.587 16.855 142.443 16.4212 142.287 15.993L141.348 16.3349C141.497 16.7449 141.634 17.1604 141.76 17.581L142.718 17.294ZM141.781 14.7184C141.599 14.2981 141.405 13.8838 141.2 13.4759L140.307 13.9266C140.504 14.3166 140.689 14.7129 140.863 15.115L141.781 14.7184ZM140.545 12.2704C140.314 11.8756 140.072 11.4876 139.818 11.1067L138.986 11.6618C139.229 12.0259 139.461 12.3967 139.681 12.7741L140.545 12.2704ZM139.022 9.98913C138.746 9.62588 138.459 9.27001 138.16 8.92186L137.401 9.57338C137.687 9.90628 137.962 10.2465 138.225 10.5937L139.022 9.98913ZM137.235 7.90838C136.919 7.58155 136.591 7.26253 136.253 6.95164L135.576 7.68826C135.901 7.98595 136.214 8.29131 136.517 8.60401L137.235 7.90838ZM135.216 6.05395C134.865 5.7668 134.503 5.4877 134.131 5.21695L133.543 6.02551C133.9 6.28533 134.247 6.55301 134.584 6.82825L135.216 6.05395ZM133.003 4.44203C132.623 4.19618 132.234 3.95842 131.835 3.72901L131.337 4.59576C131.72 4.8165 132.094 5.04513 132.459 5.28137L133.003 4.44203ZM130.633 3.07754C130.231 2.87257 129.821 2.67559 129.401 2.48684L128.991 3.39875C129.396 3.58092 129.792 3.77089 130.179 3.96842L130.633 3.07754ZM128.143 1.95573C127.724 1.79032 127.298 1.63269 126.863 1.48304L126.538 2.42851C126.958 2.57339 127.371 2.72588 127.776 2.88577L128.143 1.95573ZM125.566 1.06708C125.136 0.939039 124.699 0.818488 124.254 0.705597L124.008 1.67482C124.44 1.78443 124.864 1.9014 125.281 2.02553L125.566 1.06708ZM122.93 0.396502C122.491 0.302999 122.046 0.216662 121.595 0.137645L121.423 1.12266C121.862 1.19959 122.295 1.2836 122.721 1.37451L122.93 0.396502ZM120.252 -0.0731149C119.808 -0.134923 119.358 -0.189884 118.902 -0.237864L118.798 0.756641C119.242 0.803471 119.681 0.857086 120.114 0.917339L120.252 -0.0731149ZM117.547 -0.358604C117.101 -0.391214 116.65 -0.417351 116.194 -0.436898L116.151 0.562185C116.597 0.581307 117.038 0.606864 117.474 0.63873L117.547 -0.358604ZM114.841 -0.475226C114.614 -0.478409 114.386 -0.480007 114.157 -0.480007V0.519993C114.381 0.519993 114.605 0.521559 114.827 0.524675L114.841 -0.475226ZM114.157 -0.480007C113.933 -0.480007 113.709 -0.478472 113.487 -0.475405L113.501 0.5245C113.719 0.521497 113.937 0.519993 114.157 0.519993V-0.480007ZM112.154 -0.438407C111.707 -0.419669 111.263 -0.394616 110.823 -0.363282L110.894 0.634196C111.324 0.603559 111.758 0.579051 112.196 0.560715L112.154 -0.438407ZM109.492 -0.248483C109.046 -0.203108 108.603 -0.151103 108.165 -0.0925031L108.297 0.898698C108.725 0.841502 109.158 0.790718 109.594 0.74639L109.492 -0.248483ZM106.842 0.105961C106.4 0.179859 105.961 0.260681 105.527 0.348389L105.725 1.32858C106.148 1.24314 106.575 1.16437 107.007 1.09231L106.842 0.105961ZM104.221 0.636293C103.784 0.740712 103.352 0.852362 102.925 0.971203L103.194 1.93458C103.609 1.81907 104.029 1.71048 104.454 1.60888L104.221 0.636293ZM101.643 1.35464C101.215 1.49159 100.792 1.63608 100.375 1.78807L100.718 2.72761C101.122 2.58022 101.532 2.44002 101.948 2.30705L101.643 1.35464ZM99.1256 2.27292C98.7099 2.44428 98.3002 2.62348 97.8968 2.81046L98.3173 3.71774C98.7075 3.53688 99.104 3.36343 99.5067 3.19747L99.1256 2.27292ZM96.6919 3.4018C96.2925 3.60906 95.8999 3.82442 95.5143 4.04782L96.0156 4.91309C96.3877 4.69754 96.7667 4.48961 97.1525 4.28938L96.6919 3.4018ZM94.3678 4.7491C93.9897 4.99309 93.6191 5.24536 93.2562 5.50586L93.8393 6.31825C94.1886 6.06748 94.5456 5.82449 94.91 5.58934L94.3678 4.7491ZM92.1833 6.31792C91.8317 6.59847 91.4883 6.88739 91.1533 7.18461L91.8169 7.93266C92.1388 7.64709 92.4689 7.36937 92.807 7.09957L92.1833 6.31792ZM90.17 8.10474C89.8502 8.42041 89.5392 8.74438 89.2372 9.07661L89.9772 9.74925C90.267 9.43045 90.5655 9.11948 90.8725 8.81641L90.17 8.10474ZM88.3585 10.0979C88.0754 10.4459 87.8015 10.8019 87.537 11.166L88.3461 11.7536C88.5998 11.4044 88.8625 11.0629 89.1341 10.7291L88.3585 10.0979ZM86.7755 12.2775C86.5327 12.6536 86.2995 13.0374 86.076 13.4289L86.9445 13.9247C87.159 13.5489 87.3828 13.1806 87.6156 12.8199L86.7755 12.2775ZM85.4402 14.6164C85.2401 15.0155 85.0495 15.422 84.8689 15.8357L85.7853 16.2359C85.9589 15.8383 86.1419 15.4479 86.3341 15.0646L85.4402 14.6164ZM84.3624 17.083C84.2055 17.4999 84.0581 17.9236 83.9205 18.354L84.873 18.6586C85.0055 18.2441 85.1474 17.8363 85.2983 17.4352L84.3624 17.083ZM83.5425 19.644C83.4281 20.0729 83.3229 20.508 83.2272 20.9492L84.2045 21.1612C84.2969 20.7352 84.3984 20.3154 84.5087 19.9018L83.5425 19.644ZM82.9726 22.2664C82.8984 22.703 82.833 23.1451 82.7767 23.5928L83.7689 23.7175C83.8234 23.284 83.8867 22.8562 83.9585 22.4341L82.9726 22.2664ZM82.6374 24.9255C82.6187 25.1485 82.6022 25.3727 82.5879 25.5983L83.5859 25.6617C83.5998 25.4428 83.6158 25.2252 83.6339 25.009L82.6374 24.9255ZM83.0869 25.63L82.0889 25.5666L82.0214 26.63H83.0869V25.63ZM97.5169 25.63V26.63H98.389L98.5076 25.766L97.5169 25.63ZM107.527 40.58V41.58L107.537 41.58L107.527 40.58ZM104.017 40.58V39.58H103.017V40.58H104.017ZM104.017 52.8H103.017V53.8H104.017V52.8ZM96.0869 69.57L97.0842 69.4967L97.016 68.57H96.0869V69.57ZM81.7869 69.57V68.57H80.7367L80.7881 69.6189L81.7869 69.57ZM128.717 46.69H127.717V47.4322L128.427 47.6471L128.717 46.69ZM128.717 46.17L128.401 45.2213L127.717 45.4492V46.17H128.717ZM83.0869 26.63H83.8084V24.63H83.0869V26.63ZM85.2514 26.63H86.6944V24.63H85.2514V26.63ZM88.1374 26.63H89.5804V24.63H88.1374V26.63ZM91.0234 26.63H92.4664V24.63H91.0234V26.63ZM93.9094 26.63H95.3524V24.63H93.9094V26.63ZM96.7954 26.63H97.5169V24.63H96.7954V26.63ZM98.5076 25.766C98.5379 25.545 98.5728 25.3245 98.6124 25.1049L96.6441 24.7503C96.5995 24.9976 96.5603 25.2456 96.5262 25.494L98.5076 25.766ZM98.9053 23.8018C99.0215 23.373 99.1566 22.9496 99.3109 22.5336L97.4357 21.8381C97.2599 22.3122 97.1065 22.7931 96.975 23.2787L98.9053 23.8018ZM99.8305 21.3126C100.022 20.9161 100.233 20.5287 100.464 20.152L98.7589 19.1068C98.4924 19.5415 98.2497 19.9874 98.0298 20.4422L99.8305 21.3126ZM101.21 19.065C101.475 18.7191 101.759 18.3848 102.064 18.064L100.613 16.6872C100.259 17.0601 99.9288 17.4482 99.6217 17.8494L101.21 19.065ZM103.019 17.1598C103.348 16.8796 103.697 16.6128 104.065 16.3609L102.937 14.7098C102.51 15.0014 102.106 15.3108 101.723 15.6363L103.019 17.1598ZM105.192 15.6725C105.572 15.466 105.969 15.2735 106.386 15.0964L105.603 13.2559C105.128 13.4578 104.673 13.6781 104.236 13.9155L105.192 15.6725ZM107.634 14.631C108.048 14.4971 108.478 14.3771 108.925 14.272L108.467 12.3252C107.968 12.4425 107.485 12.5771 107.018 12.7281L107.634 14.631ZM110.249 14.0133C110.682 13.945 111.13 13.8898 111.592 13.8486L111.414 11.8565C110.909 11.9016 110.416 11.9622 109.937 12.0377L110.249 14.0133ZM112.951 13.7696C113.176 13.7632 113.405 13.76 113.637 13.76V11.76C113.387 11.76 113.139 11.7635 112.894 11.7704L112.951 13.7696ZM113.637 13.76C113.849 13.76 114.058 13.7625 114.266 13.7674L114.313 11.7679C114.09 11.7627 113.864 11.76 113.637 11.76V13.76ZM115.511 13.8281C115.934 13.8597 116.347 13.9023 116.748 13.9553L117.01 11.9725C116.57 11.9144 116.12 11.868 115.66 11.8336L115.511 13.8281ZM117.967 14.1547C118.379 14.2358 118.778 14.3289 119.164 14.4334L119.687 12.5031C119.254 12.3858 118.81 12.2822 118.353 12.1923L117.967 14.1547ZM120.329 14.7979C120.719 14.9369 121.093 15.0889 121.452 15.2533L122.285 13.4349C121.872 13.2458 121.444 13.0722 121.002 12.9143L120.329 14.7979ZM122.521 15.8047C122.873 16.0081 123.207 16.2252 123.524 16.4553L124.698 14.8362C124.324 14.565 123.932 14.3106 123.523 14.0735L122.521 15.8047ZM124.448 17.2048C124.743 17.4726 125.021 17.7543 125.28 18.0494L126.782 16.7294C126.473 16.3773 126.143 16.0417 125.792 15.7235L124.448 17.2048ZM126.009 18.9824C126.234 19.306 126.441 19.6433 126.63 19.9938L128.39 19.0443C128.166 18.6289 127.92 18.2279 127.653 17.8422L126.009 18.9824ZM127.138 21.0715C127.287 21.4362 127.419 21.8133 127.534 22.2025L129.452 21.635C129.319 21.1835 129.164 20.7433 128.99 20.3153L127.138 21.0715ZM127.822 23.374C127.899 23.7637 127.961 24.164 128.007 24.5746L129.995 24.352C129.943 23.8875 129.873 23.4318 129.784 22.9854L127.822 23.374ZM128.096 25.7949C128.103 25.9977 128.107 26.2028 128.107 26.41H130.107C130.107 26.1796 130.103 25.951 130.095 25.7242L128.096 25.7949ZM128.107 26.41C128.107 26.6238 128.103 26.8341 128.095 27.0412L130.094 27.1148C130.103 26.8826 130.107 26.6477 130.107 26.41H128.107ZM128 28.2835C127.95 28.705 127.883 29.1112 127.799 29.5025L129.754 29.9227C129.852 29.4681 129.929 29.0004 129.986 28.5195L128 28.2835ZM127.48 30.6834C127.352 31.0755 127.204 31.4512 127.038 31.8113L128.854 32.6489C129.053 32.2175 129.229 31.7701 129.381 31.3066L127.48 30.6834ZM126.467 32.8743C126.255 33.2168 126.023 33.5443 125.771 33.8574L127.329 35.1112C127.632 34.7346 127.912 34.3399 128.168 33.9269L126.467 32.8743ZM124.958 34.7517C124.672 35.0316 124.366 35.2988 124.04 35.5534L125.272 37.1291C125.654 36.8307 126.015 36.5152 126.356 36.1819L124.958 34.7517ZM123.036 36.2596C122.694 36.476 122.335 36.6815 121.958 36.8763L122.877 38.6527C123.303 38.4326 123.713 38.1983 124.106 37.9494L123.036 36.2596ZM120.823 37.4087C120.445 37.5693 120.053 37.7208 119.646 37.8632L120.306 39.751C120.752 39.595 121.185 39.428 121.605 39.2494L120.823 37.4087ZM118.433 38.2484C118.031 38.3638 117.618 38.4715 117.193 38.5716L117.651 40.5184C118.106 40.4113 118.551 40.2954 118.985 40.1705L118.433 38.2484ZM115.937 38.8385C115.522 38.9176 115.097 38.9903 114.663 39.0565L114.965 41.0337C115.422 40.9639 115.871 40.8871 116.312 40.803L115.937 38.8385ZM113.377 39.2306C112.954 39.281 112.523 39.3257 112.084 39.3651L112.263 41.3571C112.72 41.3161 113.17 41.2693 113.613 41.2166L113.377 39.2306ZM110.786 39.4642C110.359 39.4914 109.924 39.5138 109.483 39.5316L109.564 41.53C110.02 41.5116 110.47 41.4884 110.913 41.4601L110.786 39.4642ZM108.176 39.5705C107.958 39.5747 107.738 39.5779 107.517 39.58L107.537 41.58C107.764 41.5777 107.99 41.5745 108.215 41.5701L108.176 39.5705ZM107.527 39.58H106.649V41.58H107.527V39.58ZM104.894 39.58H104.017V41.58H104.894V39.58ZM103.017 40.58V41.191H105.017V40.58H103.017ZM103.017 42.413V43.635H105.017V42.413H103.017ZM103.017 44.857V46.079H105.017V44.857H103.017ZM103.017 47.301V48.523H105.017V47.301H103.017ZM103.017 49.745V50.967H105.017V49.745H103.017ZM103.017 52.189V52.8H105.017V52.189H103.017ZM104.017 53.8H104.862V51.8H104.017V53.8ZM106.552 53.8H107.397V51.8H106.552V53.8ZM107.397 53.8C107.628 53.8 107.858 53.801 108.086 53.8029L108.103 51.803C107.869 51.801 107.634 51.8 107.397 51.8V53.8ZM109.451 53.8271C109.912 53.8396 110.366 53.8565 110.812 53.878L110.908 51.8803C110.448 51.8581 109.98 51.8407 109.505 51.8278L109.451 53.8271ZM112.17 53.959C112.63 53.992 113.08 54.0303 113.522 54.074L113.719 52.0837C113.258 52.0382 112.79 51.9984 112.313 51.9642L112.17 53.959ZM114.865 54.2272C115.32 54.2862 115.764 54.3516 116.197 54.4235L116.525 52.4505C116.067 52.3746 115.6 52.3058 115.123 52.2438L114.865 54.2272ZM117.518 54.6694C117.965 54.7624 118.4 54.8631 118.822 54.9718L119.321 53.0349C118.867 52.918 118.401 52.8102 117.925 52.7112L117.518 54.6694ZM120.1 55.3369C120.529 55.4728 120.944 55.6181 121.344 55.7729L122.066 53.9079C121.625 53.7371 121.171 53.5779 120.703 53.43L120.1 55.3369ZM122.55 56.2904C122.949 56.4802 123.332 56.6812 123.697 56.8938L124.703 55.1653C124.287 54.9232 123.855 54.6962 123.407 54.4836L122.55 56.2904ZM124.78 57.5942C125.131 57.8464 125.463 58.1121 125.777 58.3916L127.108 56.8988C126.74 56.5711 126.353 56.2616 125.947 55.9697L124.78 57.5942ZM126.677 59.2888C126.959 59.6034 127.222 59.9336 127.467 60.28L129.1 59.1253C128.811 58.7162 128.5 58.3261 128.167 57.9546L126.677 59.2888ZM128.141 61.3582C128.343 61.7243 128.528 62.107 128.696 62.5072L130.54 61.7323C130.345 61.2692 130.13 60.8231 129.893 60.394L128.141 61.3582ZM129.137 63.7194C129.262 64.1208 129.373 64.5381 129.469 64.9717L131.422 64.5395C131.314 64.0534 131.189 63.5816 131.046 63.1242L129.137 63.7194ZM129.704 66.2621C129.765 66.6852 129.814 67.1222 129.85 67.5734L131.844 67.4134C131.804 66.9218 131.751 66.4424 131.683 65.9752L129.704 66.2621ZM129.919 68.8975C129.924 69.1186 129.927 69.3427 129.927 69.57H131.927C131.927 69.3265 131.924 69.0857 131.918 68.8476L129.919 68.8975ZM129.927 69.57C129.927 69.7757 129.924 69.9801 129.918 70.183L131.917 70.244C131.923 70.0205 131.927 69.7958 131.927 69.57H129.927ZM129.842 71.4017C129.803 71.8101 129.751 72.2119 129.686 72.6064L131.659 72.9325C131.732 72.4915 131.79 72.0441 131.833 71.591L129.842 71.4017ZM129.444 73.7939C129.348 74.189 129.238 74.5756 129.114 74.9531L131.015 75.5774C131.156 75.1483 131.28 74.7107 131.388 74.2653L129.444 73.7939ZM128.693 76.076C128.535 76.4458 128.363 76.8053 128.176 77.1542L129.939 78.0986C130.155 77.696 130.353 77.2824 130.533 76.8588L128.693 76.076ZM127.566 78.1767C127.347 78.5072 127.112 78.8265 126.862 79.1338L128.415 80.395C128.705 80.037 128.978 79.6657 129.233 79.282L127.566 78.1767ZM126.07 80.0171C125.793 80.2964 125.502 80.5638 125.195 80.8186L126.472 82.3576C126.829 82.0612 127.169 81.7498 127.491 81.4242L126.07 80.0171ZM124.245 81.5331C123.92 81.7537 123.581 81.9623 123.228 82.1582L124.197 83.9077C124.603 83.6826 124.994 83.442 125.37 83.1866L124.245 81.5331ZM122.155 82.6925C121.796 82.8527 121.423 83.0012 121.037 83.1373L121.702 85.0236C122.138 84.87 122.56 84.7017 122.97 84.5192L122.155 82.6925ZM119.88 83.4965C119.497 83.6001 119.103 83.6924 118.697 83.773L119.086 85.7348C119.536 85.6455 119.975 85.5428 120.402 85.4271L119.88 83.4965ZM117.491 83.9729C117.093 84.0262 116.686 84.0691 116.268 84.101L116.42 86.0952C116.875 86.0604 117.321 86.0136 117.757 85.9551L117.491 83.9729ZM115.039 84.1625C114.834 84.1675 114.626 84.17 114.417 84.17V86.17C114.642 86.17 114.866 86.1673 115.088 86.1619L115.039 84.1625ZM114.417 84.17C114.199 84.17 113.983 84.1673 113.769 84.1621L113.72 86.1614C113.95 86.1671 114.183 86.17 114.417 86.17V84.17ZM112.487 84.0976C112.052 84.0642 111.627 84.0196 111.21 83.9641L110.946 85.9466C111.4 86.0071 111.863 86.0556 112.334 86.0917L112.487 84.0976ZM109.949 83.7581C109.524 83.6755 109.111 83.5811 108.707 83.4753L108.2 85.4099C108.645 85.5267 109.101 85.6306 109.567 85.7212L109.949 83.7581ZM107.49 83.1118C107.084 82.975 106.69 82.8259 106.307 82.6651L105.532 84.509C105.96 84.6888 106.4 84.855 106.852 85.0071L107.49 83.1118ZM105.164 82.1329C104.786 81.9387 104.421 81.7321 104.069 81.5138L103.015 83.2133C103.413 83.4603 103.825 83.6933 104.25 83.9118L105.164 82.1329ZM103.032 80.8092C102.694 80.5582 102.37 80.295 102.06 80.0204L100.734 81.5175C101.087 81.8303 101.456 82.1296 101.84 82.4148L103.032 80.8092ZM101.161 79.1511C100.874 78.8476 100.601 78.5326 100.342 78.2069L98.7752 79.4497C99.0699 79.8212 99.3813 80.1804 99.7092 80.5266L101.161 79.1511ZM99.6089 77.1941C99.3795 76.8463 99.1649 76.4882 98.9654 76.1204L97.2074 77.0741C97.4341 77.4919 97.6781 77.8992 97.9394 78.2953L99.6089 77.1941ZM98.4144 74.994C98.2471 74.6125 98.0946 74.2221 97.9571 73.8232L96.0664 74.4752C96.2213 74.9245 96.3935 75.3654 96.5828 75.7971L98.4144 74.994ZM97.5935 72.6168C97.4887 72.2129 97.3983 71.8016 97.3225 71.3835L95.3545 71.74C95.439 72.2064 95.5401 72.6664 95.6577 73.1193L97.5935 72.6168ZM97.1416 70.1295C97.119 69.92 97.0998 69.709 97.0842 69.4967L95.0896 69.6433C95.1069 69.8784 95.1281 70.1123 95.1533 70.3448L97.1416 70.1295ZM96.0869 68.57H95.3719V70.57H96.0869V68.57ZM93.9419 68.57H92.5119V70.57H93.9419V68.57ZM91.0819 68.57H89.6519V70.57H91.0819V68.57ZM88.2219 68.57H86.7919V70.57H88.2219V68.57ZM85.3619 68.57H83.9319V70.57H85.3619V68.57ZM82.5019 68.57H81.7869V70.57H82.5019V68.57ZM80.7881 69.6189C80.7994 69.8509 80.8128 70.0816 80.8281 70.311L82.8236 70.1779C82.8091 69.9604 82.7965 69.7414 82.7857 69.5211L80.7881 69.6189ZM80.9442 71.6794C80.9917 72.14 81.0475 72.595 81.1113 73.0443L83.0915 72.763C83.0313 72.3392 82.9786 71.9095 82.9336 71.4739L80.9442 71.6794ZM81.333 74.4089C81.4169 74.8666 81.5095 75.318 81.6106 75.7633L83.5609 75.3204C83.4661 74.9028 83.3792 74.4788 83.3003 74.0483L81.333 74.4089ZM81.9461 77.1051C82.0689 77.5541 82.2008 77.9963 82.3415 78.4318L84.2446 77.8167C84.1133 77.4105 83.9901 76.9974 83.8752 76.5774L81.9461 77.1051ZM82.7984 79.7399C82.9625 80.176 83.1358 80.6047 83.3182 81.0261L85.1536 80.2316C84.9842 79.8403 84.823 79.4417 84.6704 79.0358L82.7984 79.7399ZM83.9015 82.2864C84.1079 82.7045 84.3237 83.1147 84.5488 83.5171L86.2943 82.5409C86.0861 82.1685 85.8861 81.7885 85.6948 81.4009L83.9015 82.2864ZM85.2597 84.714C85.5081 85.1084 85.7658 85.4944 86.0326 85.8722L87.6662 84.7184C87.4198 84.3694 87.1816 84.0127 86.9519 83.648L85.2597 84.714ZM86.8658 86.9879C87.1539 87.3531 87.4511 87.7098 87.7569 88.0577L89.2592 86.7374C88.9766 86.4159 88.7021 86.0864 88.4359 85.7491L86.8658 86.9879ZM88.7032 89.0786C89.0275 89.4105 89.3602 89.7337 89.7012 90.0481L91.0569 88.5777C90.7413 88.2867 90.4335 87.9878 90.1337 87.6809L88.7032 89.0786ZM90.7473 90.964C91.1031 91.2597 91.4666 91.5468 91.8377 91.825L93.0376 90.2249C92.693 89.9665 92.3557 89.7002 92.0259 89.4261L90.7473 90.964ZM92.9684 92.6303C93.3504 92.8885 93.7395 93.1382 94.1354 93.3793L95.1757 91.6712C94.8064 91.4463 94.444 91.2137 94.0886 90.9734L92.9684 92.6303ZM95.3349 94.0723C95.738 94.2931 96.1474 94.5056 96.5631 94.7098L97.445 92.9147C97.0556 92.7234 96.6723 92.5245 96.2955 92.3182L95.3349 94.0723ZM97.8166 95.2925C98.2361 95.4768 98.6614 95.6531 99.0921 95.8216L99.8204 93.9589C99.4149 93.8003 99.015 93.6345 98.6209 93.4614L97.8166 95.2925ZM100.387 96.2983C100.819 96.4478 101.256 96.5897 101.698 96.7241L102.279 94.8106C101.862 94.6835 101.449 94.5494 101.041 94.4083L100.387 96.2983ZM103.02 97.0998C103.461 97.2164 103.905 97.3257 104.354 97.4278L104.798 95.4776C104.371 95.3806 103.949 95.2769 103.532 95.1664L103.02 97.0998ZM105.698 97.7096C106.144 97.7955 106.594 97.8746 107.048 97.9468L107.363 95.9716C106.93 95.9027 106.5 95.8274 106.075 95.7456L105.698 97.7096ZM108.406 98.1409C108.856 98.1983 109.31 98.2492 109.767 98.2935L109.961 96.3028C109.523 96.2604 109.089 96.2118 108.658 96.1569L108.406 98.1409ZM111.133 98.4059C111.584 98.4365 112.039 98.461 112.496 98.4793L112.576 96.4809C112.137 96.4634 111.701 96.4399 111.268 96.4105L111.133 98.4059ZM113.861 98.5155C114.089 98.5185 114.318 98.52 114.547 98.52V96.52C114.326 96.52 114.107 96.5186 113.887 96.5157L113.861 98.5155ZM114.547 98.52C114.778 98.52 115.007 98.5185 115.235 98.5154L115.209 96.5156C114.989 96.5185 114.769 96.52 114.547 96.52V98.52ZM116.597 98.4788C117.057 98.4601 117.512 98.435 117.962 98.4037L117.823 96.4085C117.393 96.4385 116.957 96.4625 116.515 96.4804L116.597 98.4788ZM119.328 98.288C119.787 98.2421 120.241 98.1895 120.689 98.1303L120.427 96.1476C120 96.204 119.567 96.2541 119.129 96.298L119.328 98.288ZM122.043 97.9286C122.499 97.853 122.948 97.7704 123.391 97.6808L122.995 95.7205C122.575 95.8053 122.148 95.8838 121.716 95.9556L122.043 97.9286ZM124.735 97.3836C125.186 97.2751 125.63 97.1591 126.068 97.0357L125.526 95.1107C125.113 95.227 124.693 95.3365 124.267 95.4391L124.735 97.3836ZM127.388 96.6352C127.829 96.4913 128.264 96.3396 128.691 96.1802L127.992 94.3065C127.591 94.4559 127.183 94.5983 126.768 94.7336L127.388 96.6352ZM129.975 95.6688C130.403 95.4871 130.823 95.2972 131.236 95.0994L130.37 93.2962C129.986 93.4806 129.594 93.6578 129.193 93.8278L129.975 95.6688ZM132.47 94.4704C132.88 94.2488 133.282 94.0189 133.674 93.7809L132.637 92.0708C132.273 92.2914 131.901 92.5048 131.519 92.7108L132.47 94.4704ZM134.843 93.0304C135.229 92.7682 135.606 92.4976 135.973 92.2189L134.763 90.6263C134.424 90.8835 134.077 91.1334 133.719 91.3759L134.843 93.0304ZM137.058 91.347C137.414 91.0448 137.76 90.7343 138.095 90.4158L136.718 88.9657C136.409 89.2585 136.091 89.5442 135.764 89.8225L137.058 91.347ZM139.078 89.4275C139.398 89.0876 139.707 88.7399 140.005 88.3844L138.472 87.0997C138.198 87.4259 137.915 87.7452 137.621 88.0574L139.078 89.4275ZM140.87 87.2899C141.148 86.9165 141.415 86.5357 141.671 86.1477L140.001 85.0468C139.766 85.4029 139.521 85.7525 139.266 86.0952L140.87 87.2899ZM142.405 84.9618C142.638 84.5601 142.86 84.1517 143.071 83.7368L141.287 82.8318C141.094 83.2134 140.89 83.5888 140.675 83.9578L142.405 84.9618ZM143.666 82.4773C143.853 82.0534 144.028 81.6235 144.192 81.1879L142.32 80.4839C142.168 80.8858 142.007 81.2821 141.835 81.6725L143.666 82.4773ZM144.646 79.8734C144.786 79.4336 144.914 78.9884 145.031 78.5383L143.096 78.0338C142.987 78.4509 142.868 78.8629 142.74 79.2697L144.646 79.8734ZM145.348 77.1869C145.441 76.7367 145.524 76.282 145.597 75.8231L143.621 75.5113C143.554 75.9387 143.476 76.3616 143.389 76.7798L145.348 77.1869ZM145.78 74.4507C145.83 73.9951 145.871 73.5358 145.9 73.0729L143.905 72.9437C143.877 73.3769 143.839 73.8063 143.792 74.2316L145.78 74.4507ZM145.96 71.6928C145.964 71.4627 145.967 71.2317 145.967 71H143.967C143.967 71.2177 143.965 71.4345 143.96 71.6504L145.96 71.6928ZM145.967 71C145.967 70.7727 145.965 70.5467 145.961 70.322L143.962 70.3551C143.965 70.5686 143.967 70.7836 143.967 71H145.967ZM145.916 68.973C145.893 68.5176 145.862 68.0681 145.823 67.6246L143.83 67.7995C143.867 68.2183 143.897 68.6434 143.919 69.0749L145.916 68.973ZM145.678 66.2791C145.621 65.825 145.554 65.3774 145.48 64.9366L143.508 65.2706C143.578 65.6838 143.64 66.1041 143.694 66.5313L145.678 66.2791ZM145.223 63.6C145.127 63.1509 145.021 62.7092 144.906 62.2749L142.973 62.7857C143.079 63.1895 143.178 63.601 143.268 64.0203L145.223 63.6ZM144.526 60.9653C144.387 60.5264 144.238 60.0957 144.079 59.6733L142.207 60.3763C142.353 60.766 142.491 61.164 142.62 61.5704L144.526 60.9653ZM143.563 58.4032C143.377 57.9808 143.182 57.5675 142.976 57.1633L141.193 58.07C141.381 58.44 141.561 58.8191 141.731 59.2072L143.563 58.4032ZM142.317 55.9568C142.084 55.558 141.84 55.1691 141.586 54.7902L139.924 55.904C140.156 56.2489 140.378 56.6033 140.591 56.9673L142.317 55.9568ZM140.783 53.6708C140.503 53.304 140.212 52.9478 139.911 52.6022L138.403 53.9159C138.676 54.2294 138.94 54.5529 139.195 54.8861L140.783 53.6708ZM138.972 51.5917C138.648 51.2645 138.314 50.9483 137.971 50.6431L136.642 52.1384C136.954 52.4153 137.257 52.7022 137.551 52.9991L138.972 51.5917ZM136.911 49.7606C136.55 49.4782 136.179 49.207 135.8 48.9469L134.669 50.5966C135.014 50.8335 135.352 51.0802 135.68 51.3368L136.911 49.7606ZM134.641 48.2038C134.25 47.969 133.85 47.745 133.442 47.5319L132.516 49.3045C132.889 49.4997 133.255 49.7045 133.613 49.919L134.641 48.2038ZM132.209 46.9316C131.795 46.7442 131.373 46.5673 130.945 46.4008L130.221 48.265C130.616 48.4185 131.004 48.5815 131.384 48.7537L132.209 46.9316ZM129.659 45.9392C129.443 45.8679 129.226 45.7991 129.007 45.7329L128.427 47.6471C128.63 47.7086 128.832 47.7723 129.032 47.8383L129.659 45.9392ZM129.717 46.69V46.56H127.717V46.69H129.717ZM129.717 46.3V46.17H127.717V46.3H129.717ZM129.033 47.1187C129.263 47.0421 129.492 46.9609 129.721 46.8751L129.018 45.0027C128.812 45.0799 128.606 45.1527 128.401 45.2213L129.033 47.1187ZM131.064 46.3142C131.5 46.1133 131.934 45.8954 132.362 45.6609L131.402 43.9064C131.014 44.1189 130.622 44.316 130.228 44.4974L131.064 46.3142ZM133.611 44.9217C134.016 44.6636 134.415 44.3902 134.807 44.1018L133.623 42.49C133.266 42.7525 132.903 43.0011 132.535 43.2356L133.611 44.9217ZM135.946 43.2067C136.313 42.8987 136.673 42.5768 137.025 42.2412L135.644 40.7943C135.323 41.1004 134.995 41.3939 134.661 41.6746L135.946 43.2067ZM138.04 41.2091C138.365 40.857 138.681 40.4922 138.988 40.1149L137.436 38.8537C137.156 39.1982 136.867 39.5312 136.57 39.8525L138.04 41.2091ZM139.864 38.9643C140.142 38.5745 140.41 38.1731 140.667 37.7603L138.969 36.7033C138.735 37.0803 138.49 37.447 138.236 37.8031L139.864 38.9643ZM141.393 36.5094C141.62 36.0885 141.835 35.6573 142.039 35.2159L140.223 34.3776C140.037 34.7813 139.84 35.1756 139.632 35.5602L141.393 36.5094ZM142.605 33.8851C142.777 33.4405 142.939 32.9867 143.087 32.5238L141.183 31.913C141.046 32.3373 140.899 32.753 140.741 33.16L142.605 33.8851ZM143.487 31.136C143.605 30.675 143.71 30.2058 143.803 29.7287L141.84 29.3468C141.755 29.7857 141.657 30.2168 141.549 30.6401L143.487 31.136ZM144.038 28.3073C144.102 27.8365 144.153 27.3587 144.192 26.874L142.198 26.7149C142.162 27.1629 142.115 27.604 142.056 28.038L144.038 28.3073ZM144.267 25.4405C144.274 25.2019 144.277 24.9617 144.277 24.72H142.277C142.277 24.9443 142.274 25.1671 142.268 25.3883L144.267 25.4405ZM144.277 24.72C144.277 24.4868 144.274 24.2543 144.268 24.0225L142.269 24.0715C142.274 24.2868 142.277 24.503 142.277 24.72H144.277ZM144.2 22.6324C144.165 22.1666 144.118 21.7044 144.06 21.2459L142.076 21.4979C142.13 21.9218 142.173 22.3497 142.205 22.7814L144.2 22.6324ZM143.848 19.8671C143.764 19.4071 143.668 18.9515 143.56 18.5004L141.615 18.9656C141.715 19.3806 141.803 19.8004 141.88 20.2247L143.848 19.8671ZM143.197 17.1505C143.063 16.7023 142.916 16.2594 142.757 15.8221L140.878 16.5058C141.023 16.9067 141.158 17.313 141.281 17.7246L143.197 17.1505ZM142.24 14.5201C142.054 14.0907 141.856 13.6674 141.646 13.2506L139.86 14.1519C140.053 14.533 140.234 14.9202 140.404 15.3133L142.24 14.5201ZM140.977 12.0186C140.741 11.615 140.494 11.2184 140.234 10.8291L138.57 11.9394C138.808 12.295 139.034 12.6573 139.249 13.026L140.977 12.0186ZM139.42 9.68685C139.138 9.31558 138.845 8.95188 138.539 8.5961L137.022 9.89914C137.301 10.2244 137.57 10.5568 137.827 10.896L139.42 9.68685ZM137.595 7.56056C137.271 7.22667 136.937 6.90081 136.591 6.58333L135.238 8.05658C135.555 8.34767 135.862 8.64619 136.158 8.95182L137.595 7.56056ZM135.533 5.6668C135.174 5.37369 134.805 5.08889 134.425 4.81267L133.249 6.42978C133.598 6.68415 133.938 6.94612 134.267 7.2154L135.533 5.6668ZM133.275 4.02235C132.888 3.7717 132.491 3.52938 132.085 3.29564L131.087 5.02913C131.463 5.24555 131.83 5.46961 132.187 5.70104L133.275 4.02235ZM130.861 2.63211C130.451 2.42341 130.033 2.22293 129.606 2.03089L128.786 3.8547C129.183 4.03358 129.572 4.22005 129.952 4.41386L130.861 2.63211ZM128.327 1.49071C127.901 1.32254 127.468 1.16234 127.026 1.0103L126.375 2.90125C126.789 3.04373 127.194 3.19365 127.592 3.35078L128.327 1.49071ZM125.709 0.587846C125.272 0.457858 124.828 0.335516 124.377 0.220984L123.885 2.15944C124.31 2.2674 124.728 2.38258 125.139 2.50476L125.709 0.587846ZM123.034 -0.0925012C122.59 -0.1873 122.139 -0.274802 121.681 -0.354863L121.336 1.61517C121.77 1.69106 122.197 1.7739 122.617 1.86351L123.034 -0.0925012ZM120.321 -0.568342C119.871 -0.630927 119.416 -0.686561 118.955 -0.735116L118.745 1.25389C119.185 1.30015 119.618 1.35309 120.045 1.41257L120.321 -0.568342ZM117.583 -0.85727C117.132 -0.890253 116.677 -0.91668 116.215 -0.936439L116.13 1.06173C116.571 1.08064 117.007 1.1059 117.437 1.1374L117.583 -0.85727ZM114.848 -0.975177C114.619 -0.978393 114.388 -0.980007 114.157 -0.980007V1.01999C114.379 1.01999 114.6 1.02154 114.82 1.02463L114.848 -0.975177ZM114.157 -0.980007C113.93 -0.980007 113.705 -0.978456 113.48 -0.975358L113.507 1.02445C113.723 1.02148 113.94 1.01999 114.157 1.01999V-0.980007ZM112.133 -0.937968C111.681 -0.919029 111.233 -0.893704 110.787 -0.862021L110.929 1.13294C111.355 1.10265 111.784 1.07841 112.217 1.06028L112.133 -0.937968ZM109.442 -0.74592C108.99 -0.700021 108.543 -0.647406 108.098 -0.588104L108.363 1.3943C108.786 1.3378 109.213 1.28763 109.644 1.24383L109.442 -0.74592ZM106.76 -0.387213C106.312 -0.312395 105.868 -0.230549 105.428 -0.141705L105.824 1.81867C106.242 1.73437 106.663 1.65662 107.089 1.58548L106.76 -0.387213ZM104.105 0.150003C103.662 0.255827 103.224 0.369008 102.791 0.489513L103.328 2.41627C103.737 2.30242 104.151 2.19537 104.57 2.09517L104.105 0.150003ZM101.49 0.878427C101.056 1.01738 100.627 1.16402 100.204 1.31831L100.889 3.19737C101.287 3.05229 101.691 2.91423 102.1 2.78326L101.49 0.878427ZM98.9351 1.81065C98.5128 1.98471 98.0965 2.16678 97.6865 2.35682L98.5275 4.17139C98.9112 3.99358 99.3011 3.823 99.6972 3.65974L98.9351 1.81065ZM96.4615 2.95801C96.0554 3.16879 95.656 3.38786 95.2637 3.61518L96.2663 5.34573C96.6316 5.1341 97.0038 4.92989 97.3828 4.73317L96.4615 2.95801ZM94.0967 4.32897C93.7117 4.57739 93.3343 4.83431 92.9646 5.09967L94.1308 6.72444C94.4734 6.47853 94.8236 6.24018 95.1811 6.00946L94.0967 4.32897ZM91.8715 5.92709C91.5131 6.21302 91.163 6.50754 90.8214 6.81058L92.1487 8.30669C92.4641 8.02694 92.7875 7.75482 93.1189 7.4904L91.8715 5.92709ZM89.8187 7.74891C89.4925 8.07087 89.1753 8.40135 88.8672 8.74029L90.3471 10.0856C90.6308 9.77348 90.9231 9.46901 91.2237 9.17224L89.8187 7.74891ZM87.9707 9.78235C87.6818 10.1374 87.4023 10.5007 87.1325 10.8722L88.7507 12.0475C88.9989 11.7057 89.2561 11.3714 89.5219 11.0447L87.9707 9.78235ZM86.3554 12.0064C86.1077 12.3901 85.8698 12.7817 85.6418 13.1811L87.3787 14.1725C87.5887 13.8047 87.8078 13.4442 88.0357 13.0911L86.3554 12.0064ZM84.9932 14.3923C84.7891 14.7994 84.5949 15.2139 84.4107 15.6356L86.2435 16.436C86.4136 16.0465 86.5929 15.664 86.7811 15.2886L84.9932 14.3923ZM83.8944 16.9069C83.7346 17.3317 83.5844 17.7633 83.4442 18.2017L85.3492 18.8109C85.4792 18.4043 85.6183 18.0044 85.7663 17.6113L83.8944 16.9069ZM83.0594 19.5151C82.943 19.9516 82.836 20.3944 82.7386 20.8431L84.6931 21.2673C84.7839 20.8488 84.8835 20.4366 84.9918 20.0307L83.0594 19.5151ZM82.4797 22.1826C82.4042 22.6263 82.3378 23.0756 82.2807 23.5304L84.265 23.7799C84.3186 23.3535 84.3808 22.9328 84.4514 22.5179L82.4797 22.1826ZM82.1391 24.8837C82.1202 25.1101 82.1034 25.3377 82.0889 25.5666L84.0849 25.6934C84.0986 25.4778 84.1143 25.2636 84.1322 25.0507L82.1391 24.8837Z" fill="#1268FB"/>
</svg>
