<svg width="1920" height="564" viewBox="0 0 1920 564" fill="none" xmlns="http://www.w3.org/2000/svg">
<g clip-path="url(#clip0_214_1684)">
<path d="M1246.31 385.267C1246.31 385.267 1339.32 465.078 1258.45 561.64L1309.58 510.506C1321.95 498.133 1331.77 483.443 1338.47 467.276C1345.16 451.108 1348.61 433.78 1348.61 416.281C1348.61 398.782 1345.16 381.454 1338.47 365.286C1331.77 349.119 1321.95 334.429 1309.58 322.056L1198.6 211.049C1190.3 219.348 1183.71 229.202 1179.22 240.049C1174.72 250.895 1172.41 262.52 1172.41 274.26C1172.41 286.001 1174.72 297.626 1179.22 308.472C1183.71 319.318 1190.3 329.172 1198.6 337.472L1246.31 385.267Z" stroke="#347FFF"/>
<path d="M1246.31 385.253C1246.31 385.253 1339.2 464.957 1258.61 561.431L1080.87 739.173C1071.92 749.195 1023.9 807.194 1068.41 851.708L1018.37 801.668L1018.32 801.727C1017.4 800.813 1016.51 799.88 1015.63 798.929L1014.46 797.752L1014.5 797.668C1007.98 790.28 1002.71 781.855 998.93 772.727C994.435 761.881 992.122 750.256 992.122 738.516C992.122 726.775 994.435 715.15 998.93 704.304C1003.42 693.458 1010.01 683.604 1018.32 675.304L1246.31 447.282C1250.38 443.212 1253.62 438.378 1255.83 433.056C1258.03 427.734 1259.17 422.029 1259.17 416.268C1259.17 410.507 1258.03 404.802 1255.83 399.48C1253.62 394.159 1250.39 389.323 1246.31 385.253ZM1246.31 385.253L1243.41 382.343M1338.53 467.172C1335.44 474.631 1331.68 481.775 1327.32 488.523C1331.66 481.802 1335.39 474.688 1338.47 467.262C1345.17 451.094 1348.61 433.766 1348.61 416.267C1348.61 398.768 1345.17 381.439 1338.47 365.272C1331.77 349.105 1321.96 334.415 1309.58 322.042L1262.58 275.028L1262.66 274.945L1309.64 321.952C1322.01 334.325 1331.83 349.015 1338.53 365.182C1345.22 381.35 1348.67 398.678 1348.67 416.177C1348.67 433.676 1345.22 451.005 1338.53 467.172Z" stroke="#347FFF"/>
<path d="M906.306 563.186C906.306 563.186 813.294 483.345 894.167 386.783L843.034 437.917C818.041 462.912 804 496.811 804 532.157C804 567.504 818.041 601.403 843.034 626.398L954.101 737.283C962.405 728.984 968.992 719.13 973.487 708.283C977.981 697.437 980.294 685.812 980.294 674.072C980.294 662.331 977.981 650.706 973.487 639.86C968.992 629.014 962.405 619.16 954.101 610.86L906.306 563.186Z" stroke="#347FFF"/>
<path d="M906.311 563.199C906.311 563.199 813.432 483.471 894 387.002L1070.43 210.567C1072.68 208.202 1132.24 144.629 1084.21 96.627L1138.16 150.549L1138.08 150.71C1144.63 158.11 1149.9 166.553 1153.69 175.702C1158.19 186.551 1160.5 198.178 1160.5 209.921C1160.5 221.664 1158.19 233.292 1153.69 244.14C1149.2 254.989 1142.61 264.846 1134.31 273.148L906.315 501.14C902.24 505.214 899.008 510.052 896.803 515.376C894.597 520.7 893.462 526.406 893.462 532.169C893.462 537.931 894.597 543.638 896.803 548.962C899.008 554.286 902.236 559.124 906.311 563.199ZM906.311 563.199L908.271 565.153" stroke="#347FFF"/>
<path d="M1084.2 96.613L1060.62 73C1052.23 81.3952 1045.56 91.363 1041.02 102.334C1036.47 113.305 1034.13 125.064 1034.13 136.94C1034.13 148.815 1036.47 160.574 1041.02 171.545C1045.56 182.516 1052.23 192.484 1060.62 200.879L1070.36 210.618L1070.43 210.553C1072.68 208.188 1132.23 144.615 1084.2 96.613Z" stroke="#347FFF"/>
</g>
<defs>
<clipPath id="clip0_214_1684">
<rect width="1920" height="564" fill="white"/>
</clipPath>
</defs>
</svg>
