<svg width="80" height="80" viewBox="0 0 80 80" fill="none" xmlns="http://www.w3.org/2000/svg">
<path d="M70 16.25H57.5C57.1685 16.25 56.8505 16.3817 56.6161 16.6161C56.3817 16.8505 56.25 17.1685 56.25 17.5C56.25 17.8315 56.3817 18.1495 56.6161 18.3839C56.8505 18.6183 57.1685 18.75 57.5 18.75H68.75V58.75H11.25V18.75H22.5C22.8315 18.75 23.1495 18.6183 23.3839 18.3839C23.6183 18.1495 23.75 17.8315 23.75 17.5C23.75 17.1685 23.6183 16.8505 23.3839 16.6161C23.1495 16.3817 22.8315 16.25 22.5 16.25H10C9.66848 16.25 9.35054 16.3817 9.11612 16.6161C8.8817 16.8505 8.75 17.1685 8.75 17.5V60C8.75 60.3315 8.8817 60.6495 9.11612 60.8839C9.35054 61.1183 9.66848 61.25 10 61.25H36.25V67.5C36.25 67.8315 36.3817 68.1495 36.6161 68.3839C36.8505 68.6183 37.1685 68.75 37.5 68.75H42.5C42.8315 68.75 43.1495 68.6183 43.3839 68.3839C43.6183 68.1495 43.75 67.8315 43.75 67.5V61.25H70C70.3315 61.25 70.6495 61.1183 70.8839 60.8839C71.1183 60.6495 71.25 60.3315 71.25 60V17.5C71.25 17.1685 71.1183 16.8505 70.8839 16.6161C70.6495 16.3817 70.3315 16.25 70 16.25ZM41.25 66.25H38.75V61.25H41.25V66.25Z" fill="white"/>
<path d="M70 51.25H10C9.30964 51.25 8.75 51.8096 8.75 52.5V60C8.75 60.6904 9.30964 61.25 10 61.25H70C70.6904 61.25 71.25 60.6904 71.25 60V52.5C71.25 51.8096 70.6904 51.25 70 51.25Z" fill="#5292FF"/>
<path d="M53.75 66.25H26.25C25.5596 66.25 25 66.8096 25 67.5V72.5C25 73.1904 25.5596 73.75 26.25 73.75H53.75C54.4404 73.75 55 73.1904 55 72.5V67.5C55 66.8096 54.4404 66.25 53.75 66.25Z" fill="#5292FF"/>
<path d="M15 27.5C14.6685 27.5 14.3505 27.3683 14.1161 27.1339C13.8817 26.8995 13.75 26.5815 13.75 26.25V22.5C13.75 22.1685 13.8817 21.8505 14.1161 21.6161C14.3505 21.3817 14.6685 21.25 15 21.25H22.5C22.8315 21.25 23.1495 21.3817 23.3839 21.6161C23.6183 21.8505 23.75 22.1685 23.75 22.5C23.75 22.8315 23.6183 23.1495 23.3839 23.3839C23.1495 23.6183 22.8315 23.75 22.5 23.75H16.25V26.25C16.25 26.5815 16.1183 26.8995 15.8839 27.1339C15.6495 27.3683 15.3315 27.5 15 27.5Z" fill="white"/>
<path d="M15 32.5C15.6904 32.5 16.25 31.9404 16.25 31.25C16.25 30.5596 15.6904 30 15 30C14.3096 30 13.75 30.5596 13.75 31.25C13.75 31.9404 14.3096 32.5 15 32.5Z" fill="white"/>
<path d="M65 48.75C65.6904 48.75 66.25 48.1904 66.25 47.5C66.25 46.8096 65.6904 46.25 65 46.25C64.3096 46.25 63.75 46.8096 63.75 47.5C63.75 48.1904 64.3096 48.75 65 48.75Z" fill="white"/>
<path d="M60 48.75C60.6904 48.75 61.25 48.1904 61.25 47.5C61.25 46.8096 60.6904 46.25 60 46.25C59.3096 46.25 58.75 46.8096 58.75 47.5C58.75 48.1904 59.3096 48.75 60 48.75Z" fill="white"/>
<path d="M57.5 6.25H22.5C22.1685 6.25 21.8505 6.3817 21.6161 6.61612C21.3817 6.85054 21.25 7.16848 21.25 7.5V42.5C21.25 42.8315 21.3817 43.1495 21.6161 43.3839C21.8505 43.6183 22.1685 43.75 22.5 43.75H57.5C57.8315 43.75 58.1495 43.6183 58.3839 43.3839C58.6183 43.1495 58.75 42.8315 58.75 42.5V7.5C58.75 7.16848 58.6183 6.85054 58.3839 6.61612C58.1495 6.3817 57.8315 6.25 57.5 6.25ZM40 37.5C37.5277 37.5 35.111 36.7669 33.0554 35.3934C30.9998 34.0199 29.3976 32.0676 28.4515 29.7835C27.5054 27.4995 27.2579 24.9861 27.7402 22.5614C28.2225 20.1366 29.413 17.9093 31.1612 16.1612C32.9093 14.413 35.1366 13.2225 37.5614 12.7402C39.9861 12.2579 42.4995 12.5054 44.7835 13.4515C47.0676 14.3976 49.0199 15.9998 50.3934 18.0554C51.7669 20.111 52.5 22.5277 52.5 25C52.5 28.3152 51.183 31.4946 48.8388 33.8388C46.4946 36.183 43.3152 37.5 40 37.5Z" fill="#5292FF"/>
<path d="M55 48.75C55.6904 48.75 56.25 48.1904 56.25 47.5C56.25 46.8096 55.6904 46.25 55 46.25C54.3096 46.25 53.75 46.8096 53.75 47.5C53.75 48.1904 54.3096 48.75 55 48.75Z" fill="white"/>
<path d="M40 11.25C37.2805 11.25 34.6221 12.0564 32.3609 13.5673C30.0997 15.0782 28.3374 17.2256 27.2967 19.7381C26.256 22.2506 25.9837 25.0153 26.5142 27.6825C27.0448 30.3497 28.3543 32.7997 30.2773 34.7227C32.2003 36.6457 34.6503 37.9552 37.3175 38.4858C39.9848 39.0163 42.7494 38.744 45.2619 37.7033C47.7744 36.6626 49.9218 34.9003 51.4327 32.6391C52.9436 30.3779 53.75 27.7195 53.75 25C53.7459 21.3545 52.2959 17.8596 49.7182 15.2818C47.1404 12.7041 43.6455 11.2541 40 11.25ZM51.1763 23.75H47.4546C47.385 20.7143 46.6194 17.735 45.2169 15.0418C46.8457 15.8966 48.2403 17.1371 49.2791 18.6551C50.3179 20.1731 50.9693 21.9223 51.1763 23.75ZM38.75 14.1681V23.75H35.0325C35.2807 18.9098 36.9463 15.3374 38.75 14.1681ZM38.75 26.25V35.8319C36.9463 34.6626 35.2807 31.0902 35.0325 26.25H38.75ZM41.25 35.8319V26.25H44.9675C44.7193 31.0902 43.0538 34.6626 41.25 35.8319ZM41.25 23.75V14.1681C43.0538 15.3374 44.7193 18.9098 44.9675 23.75H41.25ZM34.7878 15.0396C33.3831 17.733 32.6162 20.7131 32.5463 23.75H28.8238C29.0309 21.9214 29.6827 20.1714 30.7224 18.653C31.7621 17.1346 33.1579 15.894 34.7878 15.0396ZM28.8238 26.25H32.5471C32.6176 29.2898 33.3883 32.2724 34.7991 34.9659C33.1664 34.1124 31.7678 32.8716 30.7261 31.352C29.6844 29.8325 29.0312 28.0806 28.8238 26.25ZM45.1884 34.9719C46.6057 32.2782 47.3802 29.293 47.4514 26.25H51.1763C50.9685 28.0829 50.3139 29.8368 49.2698 31.3575C48.2258 32.8783 46.8243 34.1194 45.1885 34.9719H45.1884Z" fill="white"/>
</svg>
