<svg width="80" height="80" viewBox="0 0 80 80" fill="none" xmlns="http://www.w3.org/2000/svg">
<path d="M58.75 28.75H21.25C20.5596 28.75 20 29.3096 20 30V35C20 35.6904 20.5596 36.25 21.25 36.25H58.75C59.4404 36.25 60 35.6904 60 35V30C60 29.3096 59.4404 28.75 58.75 28.75Z" fill="#5292FF"/>
<path d="M58.75 43.75H21.25C20.5596 43.75 20 44.3096 20 45V50C20 50.6904 20.5596 51.25 21.25 51.25H58.75C59.4404 51.25 60 50.6904 60 50V45C60 44.3096 59.4404 43.75 58.75 43.75Z" fill="#5292FF"/>
<path d="M60 26.25C60.6904 26.25 61.25 25.6904 61.25 25C61.25 24.3096 60.6904 23.75 60 23.75C59.3096 23.75 58.75 24.3096 58.75 25C58.75 25.6904 59.3096 26.25 60 26.25Z" fill="white"/>
<path d="M55 26.25C55.6904 26.25 56.25 25.6904 56.25 25C56.25 24.3096 55.6904 23.75 55 23.75C54.3096 23.75 53.75 24.3096 53.75 25C53.75 25.6904 54.3096 26.25 55 26.25Z" fill="white"/>
<path d="M50 26.25C50.6904 26.25 51.25 25.6904 51.25 25C51.25 24.3096 50.6904 23.75 50 23.75C49.3096 23.75 48.75 24.3096 48.75 25C48.75 25.6904 49.3096 26.25 50 26.25Z" fill="white"/>
<path d="M65 18.75H15C14.6685 18.75 14.3505 18.8817 14.1161 19.1161C13.8817 19.3505 13.75 19.6685 13.75 20V30C13.75 30.3315 13.8817 30.6495 14.1161 30.8839C14.3505 31.1183 14.6685 31.25 15 31.25H65C65.3315 31.25 65.6495 31.1183 65.8839 30.8839C66.1183 30.6495 66.25 30.3315 66.25 30V20C66.25 19.6685 66.1183 19.3505 65.8839 19.1161C65.6495 18.8817 65.3315 18.75 65 18.75ZM26.25 21.25H43.75V28.75H26.25V21.25ZM23.75 28.75H21.25V21.25H23.75V28.75ZM16.25 21.25H18.75V28.75H16.25V21.25ZM63.75 28.75H46.25V21.25H63.75V28.75Z" fill="white"/>
<path d="M60 41.25C60.6904 41.25 61.25 40.6904 61.25 40C61.25 39.3096 60.6904 38.75 60 38.75C59.3096 38.75 58.75 39.3096 58.75 40C58.75 40.6904 59.3096 41.25 60 41.25Z" fill="white"/>
<path d="M55 41.25C55.6904 41.25 56.25 40.6904 56.25 40C56.25 39.3096 55.6904 38.75 55 38.75C54.3096 38.75 53.75 39.3096 53.75 40C53.75 40.6904 54.3096 41.25 55 41.25Z" fill="white"/>
<path d="M50 41.25C50.6904 41.25 51.25 40.6904 51.25 40C51.25 39.3096 50.6904 38.75 50 38.75C49.3096 38.75 48.75 39.3096 48.75 40C48.75 40.6904 49.3096 41.25 50 41.25Z" fill="white"/>
<path d="M65 33.75H15C14.6685 33.75 14.3505 33.8817 14.1161 34.1161C13.8817 34.3505 13.75 34.6685 13.75 35V45C13.75 45.3315 13.8817 45.6495 14.1161 45.8839C14.3505 46.1183 14.6685 46.25 15 46.25H65C65.3315 46.25 65.6495 46.1183 65.8839 45.8839C66.1183 45.6495 66.25 45.3315 66.25 45V35C66.25 34.6685 66.1183 34.3505 65.8839 34.1161C65.6495 33.8817 65.3315 33.75 65 33.75ZM26.25 36.25H43.75V43.75H26.25V36.25ZM23.75 43.75H21.25V36.25H23.75V43.75ZM16.25 36.25H18.75V43.75H16.25V36.25ZM63.75 43.75H46.25V36.25H63.75V43.75Z" fill="white"/>
<path d="M60 56.25C60.6904 56.25 61.25 55.6904 61.25 55C61.25 54.3096 60.6904 53.75 60 53.75C59.3096 53.75 58.75 54.3096 58.75 55C58.75 55.6904 59.3096 56.25 60 56.25Z" fill="white"/>
<path d="M55 56.25C55.6904 56.25 56.25 55.6904 56.25 55C56.25 54.3096 55.6904 53.75 55 53.75C54.3096 53.75 53.75 54.3096 53.75 55C53.75 55.6904 54.3096 56.25 55 56.25Z" fill="white"/>
<path d="M50 56.25C50.6904 56.25 51.25 55.6904 51.25 55C51.25 54.3096 50.6904 53.75 50 53.75C49.3096 53.75 48.75 54.3096 48.75 55C48.75 55.6904 49.3096 56.25 50 56.25Z" fill="white"/>
<path d="M65 48.75H15C14.6685 48.75 14.3505 48.8817 14.1161 49.1161C13.8817 49.3505 13.75 49.6685 13.75 50V60C13.75 60.3315 13.8817 60.6495 14.1161 60.8839C14.3505 61.1183 14.6685 61.25 15 61.25H65C65.3315 61.25 65.6495 61.1183 65.8839 60.8839C66.1183 60.6495 66.25 60.3315 66.25 60V50C66.25 49.6685 66.1183 49.3505 65.8839 49.1161C65.6495 48.8817 65.3315 48.75 65 48.75ZM26.25 51.25H43.75V58.75H26.25V51.25ZM23.75 58.75H21.25V51.25H23.75V58.75ZM16.25 51.25H18.75V58.75H16.25V51.25ZM63.75 58.75H46.25V51.25H63.75V58.75Z" fill="white"/>
</svg>
