<svg width="359" height="529" viewBox="0 0 359 529" fill="none" xmlns="http://www.w3.org/2000/svg">
<path d="M174.197 513.392L189.625 529C195.126 523.455 199.492 516.869 202.473 509.619C205.454 502.369 206.993 494.596 207 486.745C207.007 478.893 205.484 471.118 202.516 463.862C199.548 456.606 195.195 450.012 189.704 444.456L183.329 438L182.347 438.992C176.492 445.618 145.072 483.963 174.197 513.392Z" fill="url(#paint0_linear_210_1597)"/>
<path d="M291.65 205.79C291.65 205.79 352.883 258.377 299.641 322L333.304 288.309C341.451 280.156 347.913 270.477 352.322 259.825C356.731 249.172 359 237.755 359 226.225C359 214.695 356.731 203.278 352.322 192.625C347.913 181.973 341.451 172.294 333.304 164.141L260.244 91C254.777 96.4684 250.44 102.961 247.482 110.108C244.523 117.254 243 124.914 243 132.649C243 140.385 244.523 148.045 247.482 155.191C250.44 162.337 254.777 168.83 260.244 174.298L291.65 205.79Z" fill="url(#paint1_linear_210_1597)"/>
<path d="M299.642 321.751C352.755 258.189 291.534 205.676 291.534 205.676C294.222 208.358 296.352 211.544 297.807 215.05C299.262 218.556 300.01 222.315 300.01 226.111C300.01 229.906 299.262 233.665 297.807 237.171C296.352 240.677 294.22 243.863 291.532 246.544L141.264 396.777C135.791 402.245 131.449 408.737 128.487 415.883C125.525 423.029 124 430.688 124 438.423C124 446.159 125.525 453.818 128.487 460.964C130.98 466.978 134.45 472.529 138.749 477.396L138.721 477.451L139.497 478.227C140.072 478.853 140.661 479.468 141.264 480.07L141.302 480.032L174.283 513C144.944 483.672 176.595 445.459 182.493 438.856L299.642 321.751Z" fill="url(#paint2_linear_210_1597)"/>
<path d="M344.928 273.716C347.804 269.27 350.278 264.563 352.314 259.648C356.728 248.997 359 237.58 359 226.051C359 214.521 356.728 203.105 352.314 192.453C347.9 181.801 341.431 172.123 333.275 163.97L302.313 133L302.258 133.054L333.237 164.029C341.392 172.182 347.862 181.86 352.276 192.512C356.69 203.164 358.962 214.58 358.962 226.11C358.962 237.639 356.69 249.056 352.276 259.708C350.249 264.6 347.787 269.288 344.928 273.716Z" fill="url(#paint3_linear_210_1597)"/>
<path d="M67.3162 323.26C67.3162 323.26 6.11555 270.64 59.3292 207L25.6838 240.7C9.23865 257.173 0 279.514 0 302.81C0 326.106 9.23865 348.447 25.6838 364.92L98.7652 438C104.229 432.53 108.563 426.036 111.521 418.888C114.478 411.739 116 404.078 116 396.34C116 388.602 114.478 380.941 111.521 373.792C108.563 366.644 104.229 360.15 98.7652 354.68L67.3162 323.26Z" fill="url(#paint4_linear_210_1597)"/>
<path d="M230.52 68.1512C228.026 62.1176 224.552 56.5491 220.247 51.6684L220.3 51.5625L184.797 16C216.4 47.6578 177.211 89.5855 175.732 91.145L59.6313 207.507C6.6153 271.13 67.7327 323.711 67.7327 323.711C65.0513 321.024 62.927 317.833 61.4758 314.321C60.0246 310.81 59.2777 307.047 59.2777 303.246C59.2777 299.446 60.0246 295.682 61.4758 292.171C62.927 288.66 65.0541 285.469 67.7355 282.782L217.762 132.418C223.227 126.943 227.562 120.442 230.52 113.287C233.478 106.133 235 98.4638 235 90.7193C235 82.9747 233.478 75.306 230.52 68.1512Z" fill="url(#paint5_linear_210_1597)"/>
<path d="M184.781 15.6142L169.345 0C163.846 5.55132 159.484 12.1426 156.508 19.3972C153.532 26.6518 152 34.4276 152 42.2803C152 50.133 153.532 57.9088 156.508 65.1634C159.484 72.418 163.846 79.0092 169.345 84.5606L175.72 91L175.762 90.9572C177.234 89.3936 216.222 47.3554 184.781 15.6142Z" fill="url(#paint6_linear_210_1597)"/>
<defs>
<linearGradient id="paint0_linear_210_1597" x1="221.09" y1="532.186" x2="147.455" y2="437.128" gradientUnits="userSpaceOnUse">
<stop stop-color="#36D9FF"/>
<stop offset="1" stop-color="#680EE6"/>
</linearGradient>
<linearGradient id="paint1_linear_210_1597" x1="190.433" y1="138.233" x2="432.514" y2="322.404" gradientUnits="userSpaceOnUse">
<stop stop-color="#36D9FF"/>
<stop offset="1" stop-color="#4A00C5"/>
</linearGradient>
<linearGradient id="paint2_linear_210_1597" x1="7003.3" y1="23020.4" x2="14428.9" y2="23123.6" gradientUnits="userSpaceOnUse">
<stop stop-color="#36D9FF"/>
<stop offset="1" stop-color="#4A00C5"/>
</linearGradient>
<linearGradient id="paint3_linear_210_1597" x1="7003.3" y1="23020.4" x2="14428.9" y2="23123.6" gradientUnits="userSpaceOnUse">
<stop stop-color="#36D9FF"/>
<stop offset="1" stop-color="#4A00C5"/>
</linearGradient>
<linearGradient id="paint4_linear_210_1597" x1="126.863" y1="274.621" x2="31.0497" y2="370.278" gradientUnits="userSpaceOnUse">
<stop stop-color="#13ABD4"/>
<stop offset="1" stop-color="#00E5C2"/>
</linearGradient>
<linearGradient id="paint5_linear_210_1597" x1="7095.25" y1="17272.3" x2="14509.4" y2="17375" gradientUnits="userSpaceOnUse">
<stop stop-color="#00E5C2"/>
<stop offset="1" stop-color="#1899D9"/>
</linearGradient>
<linearGradient id="paint6_linear_210_1597" x1="138.399" y1="-3.2142" x2="212.686" y2="89.1416" gradientUnits="userSpaceOnUse">
<stop stop-color="#00E5C2"/>
<stop offset="1" stop-color="#1899D9"/>
</linearGradient>
</defs>
</svg>
