<svg width="58" height="58" viewBox="0 0 58 58" fill="none" xmlns="http://www.w3.org/2000/svg">
<rect width="58" height="58" rx="29" fill="url(#paint0_radial_262_1713)"/>
<path d="M21.603 28.642C21.603 26.6813 21.9317 25.1513 22.589 24.052C23.2577 22.9413 24.4023 22.386 26.023 22.386C27.6437 22.386 28.7827 22.9413 29.44 24.052C30.1087 25.1513 30.443 26.6813 30.443 28.642C30.443 30.6253 30.1087 32.178 29.44 33.3C28.7827 34.4107 27.6437 34.966 26.023 34.966C24.4023 34.966 23.2577 34.4107 22.589 33.3C21.9317 32.178 21.603 30.6253 21.603 28.642ZM28.539 28.642C28.539 27.724 28.4767 26.9477 28.352 26.313C28.2387 25.6783 28.0007 25.1627 27.638 24.766C27.2753 24.358 26.737 24.154 26.023 24.154C25.309 24.154 24.7707 24.358 24.408 24.766C24.0453 25.1627 23.8017 25.6783 23.677 26.313C23.5637 26.9477 23.507 27.724 23.507 28.642C23.507 29.594 23.5637 30.393 23.677 31.039C23.7903 31.685 24.0283 32.2063 24.391 32.603C24.765 32.9997 25.309 33.198 26.023 33.198C26.737 33.198 27.2753 32.9997 27.638 32.603C28.012 32.2063 28.2557 31.685 28.369 31.039C28.4823 30.393 28.539 29.594 28.539 28.642ZM32.2386 24.375V22.607H35.7746V35H33.8196V24.375H32.2386Z" fill="white"/>
<defs>
<radialGradient id="paint0_radial_262_1713" cx="0" cy="0" r="1" gradientUnits="userSpaceOnUse" gradientTransform="translate(43.5001 13.3243) rotate(125.727) scale(55.0325)">
<stop stop-color="#383837"/>
<stop offset="0.4375" stop-color="#262322"/>
<stop offset="1" stop-color="#1C1816"/>
</radialGradient>
</defs>
</svg>
