<svg width="80" height="80" viewBox="0 0 80 80" fill="none" xmlns="http://www.w3.org/2000/svg">
<path d="M59.8218 51.8576C59.7323 51.7083 59.6125 51.5794 59.4701 51.4791C59.3278 51.3788 59.1661 51.3094 58.9954 51.2753L53.75 50.2263V45.0009H62.5C62.8315 45.0009 63.1495 44.8692 63.3839 44.6348C63.6183 44.4004 63.75 44.0825 63.75 43.7509C63.75 43.4194 63.6183 43.1015 63.3839 42.8671C63.1495 42.6326 62.8315 42.5009 62.5 42.5009H53.75V37.2756L58.9954 36.2265C59.1661 36.1924 59.3278 36.123 59.4701 36.0228C59.6125 35.9225 59.7323 35.7936 59.8218 35.6443L63.5718 29.3943C63.6563 29.2535 63.7122 29.0975 63.7364 28.9351C63.7606 28.7728 63.7526 28.6072 63.7128 28.448C63.673 28.2887 63.6022 28.1388 63.5045 28.0069C63.4068 27.875 63.2841 27.7636 63.1433 27.6792C63.0026 27.5947 62.8466 27.5388 62.6842 27.5146C62.5219 27.4904 62.3563 27.4984 62.1971 27.5382C62.0378 27.578 61.8879 27.6487 61.756 27.7464C61.6241 27.8442 61.5127 27.9669 61.4282 28.1076L57.9627 33.8834L53.75 34.7262V33.7509C53.7473 31.4311 52.8246 29.2071 51.1842 27.5667C49.5439 25.9264 47.3198 25.0036 45 25.0009H43.9755L44.9829 18.9566C45.0343 18.631 44.955 18.2983 44.7623 18.0309C44.5696 17.7635 44.2791 17.583 43.9539 17.5288C43.6288 17.4745 43.2954 17.5509 43.0263 17.7413C42.7572 17.9316 42.5742 18.2206 42.5171 18.5453L41.4411 25.0009H38.5589L37.4829 18.5453C37.4259 18.2206 37.2428 17.9316 36.9738 17.7413C36.7047 17.5509 36.3713 17.4745 36.0461 17.5288C35.721 17.583 35.4304 17.7635 35.2377 18.0309C35.045 18.2983 34.9657 18.631 35.0171 18.9566L36.0245 25.0009H35C32.6802 25.0036 30.4562 25.9264 28.8158 27.5667C27.1755 29.2071 26.2527 31.4311 26.25 33.7509V34.7262L22.0374 33.8834L18.5718 28.1077C18.4012 27.8234 18.1246 27.6186 17.803 27.5382C17.4814 27.4579 17.141 27.5086 16.8567 27.6792C16.5725 27.8498 16.3676 28.1264 16.2873 28.448C16.2069 28.7697 16.2576 29.1101 16.4282 29.3943L20.1782 35.6443C20.2678 35.7936 20.3876 35.9225 20.5299 36.0228C20.6722 36.1231 20.8339 36.1925 21.0047 36.2266L26.25 37.2756V42.5009H17.5C17.1685 42.5009 16.8506 42.6326 16.6161 42.8671C16.3817 43.1015 16.25 43.4194 16.25 43.7509C16.25 44.0825 16.3817 44.4004 16.6161 44.6348C16.8506 44.8692 17.1685 45.0009 17.5 45.0009H26.25V50.2263L21.0047 51.2753C20.8339 51.3094 20.6722 51.3788 20.5299 51.4791C20.3876 51.5794 20.2678 51.7083 20.1782 51.8576L16.4282 58.1076C16.2576 58.3919 16.2069 58.7323 16.2873 59.0539C16.3676 59.3755 16.5725 59.6521 16.8567 59.8227C17.141 59.9933 17.4814 60.044 17.803 59.9637C18.1246 59.8833 18.4012 59.6785 18.5718 59.3942L22.0374 53.6184L26.25 52.7757V53.7509C26.2527 56.0707 27.1755 58.2948 28.8158 59.9351C30.4562 61.5755 32.6802 62.4982 35 62.5009H45C47.3198 62.4982 49.5439 61.5755 51.1842 59.9351C52.8246 58.2948 53.7473 56.0707 53.75 53.7509V52.7757L57.9627 53.6185L61.4282 59.3942C61.5127 59.535 61.6241 59.6577 61.756 59.7554C61.8879 59.8531 62.0378 59.9239 62.1971 59.9637C62.3563 60.0035 62.5219 60.0115 62.6842 59.9873C62.8466 59.9631 63.0026 59.9072 63.1433 59.8227C63.2841 59.7382 63.4068 59.6268 63.5045 59.4949C63.6022 59.363 63.673 59.2132 63.7128 59.0539C63.7526 58.8946 63.7606 58.7291 63.7364 58.5667C63.7122 58.4044 63.6563 58.2484 63.5718 58.1076L59.8218 51.8576ZM51.25 53.7509C51.2481 55.4079 50.589 56.9965 49.4173 58.1682C48.2456 59.3399 46.657 59.999 45 60.0009H41.25V38.7509C41.25 38.4194 41.1183 38.1015 40.8839 37.8671C40.6495 37.6326 40.3315 37.5009 40 37.5009C39.6685 37.5009 39.3506 37.6326 39.1161 37.8671C38.8817 38.1015 38.75 38.4194 38.75 38.7509V60.0009H35C33.343 59.999 31.7544 59.3399 30.5828 58.1682C29.4111 56.9965 28.752 55.4079 28.75 53.7509V33.7509C28.752 32.0939 29.4111 30.5054 30.5828 29.3337C31.7544 28.162 33.343 27.5029 35 27.5009H45C46.657 27.5029 48.2456 28.162 49.4173 29.3337C50.589 30.5054 51.2481 32.0939 51.25 33.7509V53.7509Z" fill="white"/>
<path d="M35 45C34.8358 45 34.6733 44.9677 34.5216 44.9049C34.3699 44.8421 34.2321 44.7501 34.116 44.634C33.9999 44.5179 33.9079 44.3801 33.8451 44.2284C33.7823 44.0767 33.75 43.9142 33.75 43.75V38.75C33.75 38.4185 33.8817 38.1005 34.1161 37.8661C34.3505 37.6317 34.6685 37.5 35 37.5C35.3315 37.5 35.6495 37.6317 35.8839 37.8661C36.1183 38.1005 36.25 38.4185 36.25 38.75V43.75C36.25 43.9142 36.2177 44.0767 36.1549 44.2284C36.0921 44.3801 36.0001 44.5179 35.884 44.634C35.7679 44.7501 35.6301 44.8421 35.4784 44.9049C35.3267 44.9677 35.1642 45 35 45Z" fill="white"/>
<path d="M45 45C44.8358 45 44.6733 44.9677 44.5216 44.9049C44.3699 44.8421 44.2321 44.7501 44.116 44.634C43.9999 44.5179 43.9079 44.3801 43.8451 44.2284C43.7823 44.0767 43.75 43.9142 43.75 43.75V38.75C43.75 38.4185 43.8817 38.1005 44.1161 37.8661C44.3505 37.6317 44.6685 37.5 45 37.5C45.3315 37.5 45.6495 37.6317 45.8839 37.8661C46.1183 38.1005 46.25 38.4185 46.25 38.75V43.75C46.25 43.9142 46.2177 44.0767 46.1549 44.2284C46.0921 44.3801 46.0001 44.5179 45.884 44.634C45.7679 44.7501 45.6301 44.8421 45.4784 44.9049C45.3267 44.9677 45.1642 45 45 45Z" fill="white"/>
<path d="M45 25H35C32.6802 25.0027 30.4562 25.9254 28.8158 27.5658C27.1754 29.2062 26.2527 31.4302 26.25 33.75V38.75C26.25 38.9142 26.2823 39.0767 26.3451 39.2284C26.4079 39.3801 26.4999 39.5179 26.616 39.634C26.7321 39.7501 26.8699 39.8421 27.0216 39.9049C27.1733 39.9677 27.3358 40 27.5 40H52.5C52.6642 40 52.8267 39.9677 52.9784 39.9049C53.1301 39.8421 53.2679 39.7501 53.384 39.634C53.5001 39.5179 53.5921 39.3801 53.6549 39.2284C53.7177 39.0767 53.75 38.9142 53.75 38.75V33.75C53.7473 31.4302 52.8246 29.2062 51.1842 27.5658C49.5438 25.9254 47.3198 25.0027 45 25Z" fill="#5292FF"/>
<path d="M17.4988 60.0007C17.2777 60.0004 17.0606 59.9416 16.8696 59.8301C16.6787 59.7186 16.5207 59.5584 16.4119 59.3659C16.3031 59.1734 16.2472 58.9555 16.2501 58.7344C16.253 58.5133 16.3144 58.2969 16.4282 58.1073L20.1782 51.8573C20.2678 51.708 20.3876 51.5791 20.5299 51.4788C20.6722 51.3785 20.8339 51.3091 21.0047 51.2751L27.2547 50.0251C27.4158 49.9923 27.5819 49.9917 27.7433 50.0232C27.9047 50.0547 28.0583 50.1178 28.1952 50.2088C28.3322 50.2998 28.4499 50.4169 28.5415 50.5534C28.6332 50.69 28.697 50.8433 28.7292 51.0046C28.7615 51.1658 28.7617 51.3318 28.7297 51.4932C28.6977 51.6545 28.6341 51.8079 28.5427 51.9446C28.4514 52.0813 28.3339 52.1986 28.197 52.2899C28.0602 52.3811 27.9067 52.4444 27.7454 52.4762L22.0374 53.6182L18.5718 59.394C18.4607 59.5793 18.3035 59.7326 18.1154 59.8389C17.9273 59.9453 17.7149 60.001 17.4988 60.0007Z" fill="white"/>
<path d="M50 37.5C50.6904 37.5 51.25 36.9404 51.25 36.25C51.25 35.5596 50.6904 35 50 35C49.3096 35 48.75 35.5596 48.75 36.25C48.75 36.9404 49.3096 37.5 50 37.5Z" fill="white"/>
<path d="M45 37.5C45.6904 37.5 46.25 36.9404 46.25 36.25C46.25 35.5596 45.6904 35 45 35C44.3096 35 43.75 35.5596 43.75 36.25C43.75 36.9404 44.3096 37.5 45 37.5Z" fill="white"/>
<path d="M45 50C45.6904 50 46.25 49.4404 46.25 48.75C46.25 48.0596 45.6904 47.5 45 47.5C44.3096 47.5 43.75 48.0596 43.75 48.75C43.75 49.4404 44.3096 50 45 50Z" fill="white"/>
<path d="M35 50C35.6904 50 36.25 49.4404 36.25 48.75C36.25 48.0596 35.6904 47.5 35 47.5C34.3096 47.5 33.75 48.0596 33.75 48.75C33.75 49.4404 34.3096 50 35 50Z" fill="white"/>
</svg>
