<svg width="60" height="60" viewBox="0 0 60 60" fill="none" xmlns="http://www.w3.org/2000/svg">
<path d="M26.25 28.125H20.625C20.1072 28.125 19.6875 28.5447 19.6875 29.0625V38.4375C19.6875 38.9553 20.1072 39.375 20.625 39.375H26.25C26.7678 39.375 27.1875 38.9553 27.1875 38.4375V29.0625C27.1875 28.5447 26.7678 28.125 26.25 28.125Z" fill="#1268FB"/>
<path d="M54.375 16.875H41.25C41.0014 16.875 40.7629 16.9738 40.5871 17.1496C40.4113 17.3254 40.3125 17.5639 40.3125 17.8125C40.3125 18.0611 40.4113 18.2996 40.5871 18.4754C40.7629 18.6512 41.0014 18.75 41.25 18.75H53.4375V43.125H6.5625V18.75H22.5V24.375H18.75C18.5014 24.375 18.2629 24.4738 18.0871 24.6496C17.9113 24.8254 17.8125 25.0639 17.8125 25.3125V29.0625C17.8125 29.3111 17.9113 29.5496 18.0871 29.7254C18.2629 29.9012 18.5014 30 18.75 30H28.125C28.3736 30 28.6121 29.9012 28.7879 29.7254C28.9637 29.5496 29.0625 29.3111 29.0625 29.0625V25.3125C29.0625 25.0639 28.9637 24.8254 28.7879 24.6496C28.6121 24.4738 28.3736 24.375 28.125 24.375H24.375V18.75H33.75C33.9986 18.75 34.2371 18.6512 34.4129 18.4754C34.5887 18.2996 34.6875 18.0611 34.6875 17.8125C34.6875 17.5639 34.5887 17.3254 34.4129 17.1496C34.2371 16.9738 33.9986 16.875 33.75 16.875H24.375V14.0625C24.375 13.8139 24.2762 13.5754 24.1004 13.3996C23.9246 13.2238 23.6861 13.125 23.4375 13.125C23.1889 13.125 22.9504 13.2238 22.7746 13.3996C22.5988 13.5754 22.5 13.8139 22.5 14.0625V16.875H5.625C5.37636 16.875 5.1379 16.9738 4.96209 17.1496C4.78627 17.3254 4.6875 17.5639 4.6875 17.8125V44.0625C4.6875 44.3111 4.78627 44.5496 4.96209 44.7254C5.1379 44.9012 5.37636 45 5.625 45H54.375C54.6236 45 54.8621 44.9012 55.0379 44.7254C55.2137 44.5496 55.3125 44.3111 55.3125 44.0625V17.8125C55.3125 17.5639 55.2137 17.3254 55.0379 17.1496C54.8621 16.9738 54.6236 16.875 54.375 16.875ZM27.1875 26.25V28.125H19.6875V26.25H27.1875Z" fill="#2A3C4C"/>
<path d="M57.1875 43.125H2.8125C2.56386 43.125 2.3254 43.2238 2.14959 43.3996C1.97377 43.5754 1.875 43.8139 1.875 44.0625V51.5625C1.875 51.8111 1.97377 52.0496 2.14959 52.2254C2.3254 52.4012 2.56386 52.5 2.8125 52.5H57.1875C57.4361 52.5 57.6746 52.4012 57.8504 52.2254C58.0262 52.0496 58.125 51.8111 58.125 51.5625V44.0625C58.125 43.8139 58.0262 43.5754 57.8504 43.3996C57.6746 43.2238 57.4361 43.125 57.1875 43.125ZM39.375 47.8125H20.625V44.0625H39.375V47.8125Z" fill="#1268FB"/>
<path d="M40.3125 26.888V19.9858C41.4863 19.4301 42.4686 18.5382 43.1347 17.4233C43.8008 16.3084 44.1207 15.0207 44.0538 13.7237C43.9869 12.4267 43.5362 11.1788 42.759 10.1384C41.9817 9.09792 40.9129 8.31181 39.6881 7.87978C39.5467 7.82979 39.3953 7.81446 39.2467 7.83506C39.0981 7.85567 38.9566 7.91161 38.8341 7.9982C38.7116 8.08479 38.6117 8.19949 38.5427 8.33269C38.4736 8.46589 38.4376 8.6137 38.4375 8.76372V13.1244H36.5625V8.76372C36.5624 8.6137 36.5264 8.46589 36.4574 8.33269C36.3883 8.19949 36.2884 8.08479 36.1659 7.9982C36.0434 7.91161 35.9019 7.85567 35.7533 7.83506C35.6047 7.81446 35.4533 7.82979 35.3119 7.87978C34.0871 8.31181 33.0183 9.09792 32.241 10.1384C31.4638 11.1788 31.0131 12.4267 30.9462 13.7237C30.8793 15.0207 31.1992 16.3084 31.8653 17.4233C32.5314 18.5382 33.5137 19.4301 34.6875 19.9858V26.888C33.5137 27.4437 32.5314 28.3356 31.8653 29.4505C31.1992 30.5654 30.8793 31.853 30.9462 33.15C31.0131 34.447 31.4638 35.6949 32.241 36.7354C33.0183 37.7759 34.0871 38.562 35.3119 38.994C35.4533 39.044 35.6047 39.0593 35.7533 39.0387C35.9019 39.0181 36.0434 38.9622 36.1659 38.8756C36.2884 38.789 36.3883 38.6743 36.4574 38.5411C36.5264 38.4079 36.5624 38.2601 36.5625 38.1101V33.7494H38.4375V38.1101C38.4376 38.3587 38.5364 38.597 38.7122 38.7728C38.888 38.9486 39.1264 39.0474 39.375 39.0476C39.4817 39.0474 39.5875 39.0293 39.6881 38.994C40.9129 38.562 41.9817 37.7759 42.759 36.7354C43.5362 35.6949 43.9869 34.447 44.0538 33.15C44.1207 31.853 43.8008 30.5654 43.1347 29.4505C42.4686 28.3356 41.4863 27.4437 40.3125 26.888Z" fill="#1268FB"/>
<path d="M39.375 48.75H20.625C20.3764 48.75 20.1379 48.6512 19.9621 48.4754C19.7863 48.2996 19.6875 48.0611 19.6875 47.8125V44.0625C19.6875 43.8139 19.7863 43.5754 19.9621 43.3996C20.1379 43.2238 20.3764 43.125 20.625 43.125H39.375C39.6236 43.125 39.8621 43.2238 40.0379 43.3996C40.2137 43.5754 40.3125 43.8139 40.3125 44.0625V47.8125C40.3125 48.0611 40.2137 48.2996 40.0379 48.4754C39.8621 48.6512 39.6236 48.75 39.375 48.75ZM21.5625 46.875H38.4375V45H21.5625V46.875Z" fill="#2A3C4C"/>
<path d="M9.375 25.3125C9.12636 25.3125 8.8879 25.2137 8.71209 25.0379C8.53627 24.8621 8.4375 24.6236 8.4375 24.375V21.5625C8.4375 21.3139 8.53627 21.0754 8.71209 20.8996C8.8879 20.7238 9.12636 20.625 9.375 20.625H16.875C17.1236 20.625 17.3621 20.7238 17.5379 20.8996C17.7137 21.0754 17.8125 21.3139 17.8125 21.5625C17.8125 21.8111 17.7137 22.0496 17.5379 22.2254C17.3621 22.4012 17.1236 22.5 16.875 22.5H10.3125V24.375C10.3125 24.6236 10.2137 24.8621 10.0379 25.0379C9.8621 25.2137 9.62364 25.3125 9.375 25.3125Z" fill="#2A3C4C"/>
<path d="M9.375 29.0625C9.89277 29.0625 10.3125 28.6428 10.3125 28.125C10.3125 27.6072 9.89277 27.1875 9.375 27.1875C8.85723 27.1875 8.4375 27.6072 8.4375 28.125C8.4375 28.6428 8.85723 29.0625 9.375 29.0625Z" fill="#2A3C4C"/>
<path d="M50.625 41.25C51.1428 41.25 51.5625 40.8303 51.5625 40.3125C51.5625 39.7947 51.1428 39.375 50.625 39.375C50.1072 39.375 49.6875 39.7947 49.6875 40.3125C49.6875 40.8303 50.1072 41.25 50.625 41.25Z" fill="#2A3C4C"/>
<path d="M46.875 41.25C47.3928 41.25 47.8125 40.8303 47.8125 40.3125C47.8125 39.7947 47.3928 39.375 46.875 39.375C46.3572 39.375 45.9375 39.7947 45.9375 40.3125C45.9375 40.8303 46.3572 41.25 46.875 41.25Z" fill="#2A3C4C"/>
<path d="M43.125 41.25C43.6428 41.25 44.0625 40.8303 44.0625 40.3125C44.0625 39.7947 43.6428 39.375 43.125 39.375C42.6072 39.375 42.1875 39.7947 42.1875 40.3125C42.1875 40.8303 42.6072 41.25 43.125 41.25Z" fill="#2A3C4C"/>
<path d="M25.3125 7.5H21.5625C21.0447 7.5 20.625 7.91973 20.625 8.4375V14.0625C20.625 14.5803 21.0447 15 21.5625 15H25.3125C25.8303 15 26.25 14.5803 26.25 14.0625V8.4375C26.25 7.91973 25.8303 7.5 25.3125 7.5Z" fill="#1268FB"/>
</svg>
