<svg width="104" height="310" viewBox="0 0 104 310" fill="none" xmlns="http://www.w3.org/2000/svg">
<mask id="mask0_210_1558" style="mask-type:alpha" maskUnits="userSpaceOnUse" x="0" y="0" width="104" height="310">
<rect width="104" height="310" fill="#C4C4C4"/>
</mask>
<g mask="url(#mask0_210_1558)">
<path d="M26.6497 131.79C26.6497 131.79 87.8829 184.377 34.641 248L68.3043 214.309C76.4508 206.156 82.913 196.477 87.3219 185.825C91.7308 175.172 94 163.755 94 152.225C94 140.695 91.7308 129.278 87.3219 118.625C82.913 107.973 76.4508 98.2938 68.3043 90.141L-4.756 17C-10.2228 22.4684 -14.5595 28.9612 -17.5183 36.1075C-20.4771 43.2539 -22 50.9136 -22 58.6492C-22 66.3848 -20.4771 74.0445 -17.5183 81.1908C-14.5595 88.3372 -10.2228 94.83 -4.756 100.298L26.6497 131.79Z" fill="url(#paint0_linear_210_1558)"/>
<path d="M34.3892 247.751C87.7288 184.189 26.2471 131.676 26.2471 131.676C28.946 134.358 31.0855 137.544 32.5464 141.05C34.0074 144.556 34.7594 148.315 34.7594 152.111C34.7594 155.906 34.0074 159.665 32.5464 163.171C31.0855 166.677 28.9443 169.863 26.2453 172.544L-124.663 322.777C-130.159 328.245 -134.519 334.737 -137.494 341.883C-140.469 349.029 -142 356.688 -142 364.423C-142 372.159 -140.469 379.818 -137.494 386.964C-134.991 392.978 -131.506 398.529 -127.188 403.396L-127.216 403.451L-126.437 404.227C-125.86 404.853 -125.268 405.468 -124.663 406.07L-124.624 406.032L-91.5028 439C-120.967 409.672 -89.1816 371.459 -83.258 364.856L34.3892 247.751Z" fill="url(#paint1_linear_210_1558)"/>
<path d="M79.8685 199.716C82.756 195.27 85.2406 190.563 87.2858 185.648C91.7185 174.997 94 163.58 94 152.051C94 140.521 91.7185 129.105 87.2858 118.453C82.853 107.801 76.3559 98.1225 68.1653 89.9702L37.0718 59L37.017 59.0544L68.1269 90.0294C76.3175 98.1817 82.8146 107.86 87.2473 118.512C91.6801 129.164 93.9616 140.58 93.9616 152.11C93.9616 163.639 91.6801 175.056 87.2473 185.708C85.2113 190.6 82.7397 195.288 79.8685 199.716Z" fill="url(#paint2_linear_210_1558)"/>
</g>
<defs>
<linearGradient id="paint0_linear_210_1558" x1="-74.5674" y1="64.2326" x2="167.514" y2="248.404" gradientUnits="userSpaceOnUse">
<stop stop-color="#36D9FF"/>
<stop offset="1" stop-color="#4A00C5"/>
</linearGradient>
<linearGradient id="paint1_linear_210_1558" x1="6766.57" y1="22946.4" x2="14223.8" y2="23050.5" gradientUnits="userSpaceOnUse">
<stop stop-color="#36D9FF"/>
<stop offset="1" stop-color="#4A00C5"/>
</linearGradient>
<linearGradient id="paint2_linear_210_1558" x1="6766.57" y1="22946.4" x2="14223.8" y2="23050.5" gradientUnits="userSpaceOnUse">
<stop stop-color="#36D9FF"/>
<stop offset="1" stop-color="#4A00C5"/>
</linearGradient>
</defs>
</svg>
