<svg width="58" height="58" viewBox="0 0 58 58" fill="none" xmlns="http://www.w3.org/2000/svg">
<rect width="58" height="58" rx="29" fill="url(#paint0_radial_262_1717)"/>
<path d="M19.5278 28.642C19.5278 32.246 20.4798 34.966 23.9478 34.966C27.4158 34.966 28.3678 32.246 28.3678 28.642C28.3678 25.106 27.4158 22.386 23.9478 22.386C20.4798 22.386 19.5278 25.106 19.5278 28.642ZM26.4638 28.642C26.4638 31.073 26.2088 33.198 23.9478 33.198C21.6868 33.198 21.4318 31.073 21.4318 28.642C21.4318 26.33 21.6868 24.154 23.9478 24.154C26.2088 24.154 26.4638 26.33 26.4638 28.642ZM30.3844 25.667H32.2714C32.3904 24.8 33.0194 23.984 34.3794 23.984C35.7054 23.984 36.4024 24.698 36.4024 25.769C36.4024 27.095 35.3314 27.605 33.5804 27.622H33.1214V29.22H33.5634C35.5864 29.22 36.6404 29.781 36.6404 31.413C36.6404 32.569 35.9264 33.453 34.4814 33.453C33.0194 33.453 32.1694 32.569 32.0844 31.413H30.2144C30.3334 33.844 32.1524 35.068 34.4984 35.068C37.0824 35.068 38.4764 33.572 38.4764 31.6C38.4764 29.883 37.6434 28.812 36.3514 28.421V28.353C37.3204 28.03 38.2554 27.027 38.2554 25.548C38.2554 23.746 36.9124 22.318 34.4474 22.318C32.1864 22.318 30.5204 23.525 30.3844 25.667Z" fill="white"/>
<defs>
<radialGradient id="paint0_radial_262_1717" cx="0" cy="0" r="1" gradientUnits="userSpaceOnUse" gradientTransform="translate(43.5001 13.3243) rotate(125.727) scale(55.0325)">
<stop stop-color="#383837"/>
<stop offset="0.4375" stop-color="#262322"/>
<stop offset="1" stop-color="#1C1816"/>
</radialGradient>
</defs>
</svg>
