<svg width="261" height="75" viewBox="0 0 261 75" fill="none" xmlns="http://www.w3.org/2000/svg">
<path d="M1.45703 73.6975C3.5281 73.5305 23.4473 72.0428 26.1085 71.3897C49.4418 65.6629 71.9772 48.4323 90.7793 34.7272C92.2196 33.6773 120.474 14.6049 122.931 4.77822C124.683 -2.22853 98.979 3.09304 97.4405 3.41452C71.328 8.87085 30.9944 27.1215 30.6192 59.0115C30.3473 82.1203 74.1659 64.3415 83.3839 61.2144C107.878 52.9048 131.439 42.6207 155.293 32.6816C164.562 28.8196 173.903 25.1288 183.249 21.4573C183.695 21.2819 188.888 18.4825 186.658 21.5098C180.999 29.19 172.873 35.3997 166.15 42.1226C165.721 42.552 155.762 52.3546 157.758 52.7175C163.811 53.818 172.303 50.2937 178.109 49.1509C188.061 47.1918 198.3 45.4794 208.477 45.4794C218.308 45.4794 206.823 54.5291 211.152 54.763C227.145 55.6275 243.625 51.0391 259.196 51.0391" stroke="#4E4540" stroke-width="2" stroke-linecap="round"/>
</svg>
