<svg width="48" height="35" viewBox="0 0 48 35" fill="none" xmlns="http://www.w3.org/2000/svg">
<path d="M10.909 34.7389C7.7837 34.7389 5.24969 33.6409 3.30695 31.4447C1.44867 29.1641 0.519531 26.2078 0.519531 22.5757C0.519531 17.8455 1.91324 13.4532 4.70065 9.3988C7.48807 5.25992 10.9512 2.17687 15.0901 0.149658L15.8503 1.67006C14.0765 3.02154 12.5139 4.75311 11.1624 6.86479C9.81091 8.97647 8.83954 11.5949 8.24827 14.7202L10.909 15.3537C13.8653 16.0295 16.1459 17.2965 17.7508 19.1548C19.4402 20.9286 20.2848 23.0825 20.2848 25.6165C20.2848 28.3194 19.3557 30.5156 17.4974 32.2049C15.7236 33.8943 13.5275 34.7389 10.909 34.7389ZM37.6428 34.7389C34.5175 34.7389 31.9835 33.6409 30.0408 31.4447C28.1825 29.1641 27.2534 26.2078 27.2534 22.5757C27.2534 17.8455 28.6471 13.4532 31.4345 9.3988C34.2219 5.25992 37.6851 2.17687 41.824 0.149658L42.5842 1.67006C40.8103 3.02154 39.2477 4.75311 37.8962 6.86479C36.5448 8.97647 35.5734 11.5949 34.9821 14.7202L37.6428 15.3537C40.5992 16.0295 42.8798 17.2965 44.4847 19.1548C46.174 20.9286 47.0187 23.0825 47.0187 25.6165C47.0187 28.3194 46.0895 30.5156 44.2313 32.2049C42.4575 33.8943 40.2613 34.7389 37.6428 34.7389Z" fill="#BB5644"/>
</svg>
