<svg width="96" height="96" viewBox="0 0 96 96" fill="none" xmlns="http://www.w3.org/2000/svg">
<path d="M56 61.3332V56H64V53.3332H56V45.3332H45.3332V32H42.6664V37.3332H34.6664V32H32V64H64V61.3332H56ZM42.6668 61.3332H34.6668V56H42.6668V61.3332ZM42.6668 53.3332H34.6668V48H42.6668V53.3332ZM42.6668 45.3332H34.6668V40H42.6668V45.3332ZM53.3332 61.3332H45.3332V56H53.3332V61.3332ZM53.3332 53.3332H45.3332V48H53.3332V53.3332Z" fill="white"/>
<path d="M64 39.3328C64 36.3752 62.4492 33.8316 60 32C57.5496 33.8316 56 36.3752 56 39.3328C56 41.1668 57.242 42.696 58.9248 43.1688L58 49.3332C58 50.4376 58.8956 51.3332 60 51.3332C61.1044 51.3332 62 50.4376 62 49.3332L61.0752 43.1684C62.758 42.696 64 41.1668 64 39.3328ZM60 40.6668C59.2644 40.6668 58.6668 40.0684 58.6668 39.3328C58.6668 37.8336 59.246 36.6156 60 35.666C60.754 36.616 61.3332 37.834 61.3332 39.3328C61.3332 40.0684 60.7356 40.6668 60 40.6668Z" fill="white"/>
<path d="M47.333 32.0005H49.333V43.3337H47.333V32.0005Z" fill="white"/>
<path d="M51.333 32.0005H53.333V43.3337H51.333V32.0005Z" fill="white"/>
</svg>
