<svg width="97" height="97" viewBox="0 0 97 97" fill="none" xmlns="http://www.w3.org/2000/svg">
<path d="M61.6805 37.9495V35.9496L56.3476 35.2828C56.3476 33.8101 55.1525 32.6162 53.681 32.6162H35.0158C33.543 32.6162 32.3491 33.8101 32.3491 35.2828L32.3495 43.2823C32.3495 44.7551 33.5434 45.949 35.0162 45.949H36.3489V55.2816L32.3491 57.9486V61.9484C32.3491 63.4211 33.543 64.6146 35.0158 64.6146L49.6816 64.6162C51.1543 64.6162 52.3483 63.4219 52.3483 61.9492V57.9482L44.3488 55.2812V51.2814H48.6637L51.3299 45.9486H53.6814C55.1541 45.9486 56.348 44.7547 56.348 43.2819L61.6809 42.6152V40.6153H64.3471V37.9487H61.6805V37.9495ZM49.6812 59.8701V61.9488L35.0154 61.948V59.3745L39.0151 56.7083V45.949H41.6817V57.2031L49.6812 59.8701ZM47.015 48.6156H44.3484V45.949H48.3481L47.015 48.6156ZM53.681 43.2823H35.0162L35.0154 35.2828H43.0149V40.6157H45.6815V35.2828H48.3481V40.6157H51.0147V35.2828H53.681V43.2823ZM59.0142 40.2617L56.3476 40.5949V37.9699L59.0142 38.3031V40.2617Z" fill="#FF7A1B"/>
<path d="M39.0157 41.2825C40.1202 41.2825 41.0156 40.3871 41.0156 39.2826C41.0156 38.1781 40.1202 37.2827 39.0157 37.2827C37.9112 37.2827 37.0159 38.1781 37.0159 39.2826C37.0159 40.3871 37.9112 41.2825 39.0157 41.2825Z" fill="#FF7A1B"/>
</svg>
