<svg width="201" height="200" viewBox="0 0 201 200" fill="none" xmlns="http://www.w3.org/2000/svg">
<g clip-path="url(#clip0_234_4144)">
<path d="M196.42 109.936L183.637 102.534C183.918 101.579 184.071 100.591 184.092 99.5958C184.105 99.429 184.105 99.2615 184.092 99.0947C184.795 96.9545 185.171 94.7201 185.207 92.4673C185.336 90.8937 185.087 89.3121 184.482 87.8542C183.876 86.3964 182.932 85.1045 181.727 84.0862L181.34 83.8812L181.113 83.7218L180.885 83.6079L122.179 49.5597L105.734 40.0171L99.0244 36.1226C95.2942 34.3462 90.222 36.0087 85.3772 40.6776C81.5815 44.3373 78.8933 48.9945 77.621 54.1147C76.0289 60.5144 77.0979 65.7298 80.5097 68.1667L162.621 115.834H162.734L163.508 116.221C164.38 116.551 165.305 116.721 166.237 116.722C168.363 116.649 170.433 116.021 172.242 114.9C174.227 113.712 176.015 112.222 177.542 110.482L177.951 110.277C178.797 109.771 179.564 109.141 180.226 108.41L193.009 115.811C193.307 115.987 193.556 116.236 193.731 116.535C193.907 116.834 194.002 117.173 194.009 117.519C194.017 117.855 193.935 118.186 193.771 118.479C193.607 118.772 193.367 119.014 193.077 119.182L191.962 119.82C182.63 125.301 172.007 128.191 161.188 128.191C150.368 128.191 139.745 125.301 130.413 119.82L110.602 108.182C108.009 106.656 105.057 105.852 102.05 105.852C99.0424 105.852 96.0898 106.656 93.4973 108.182L62.3816 126.242C59.9933 123.965 57.4913 123.213 55.558 124.147L6.90547 153.003L6.70077 153.139C6.06794 153.658 5.56993 154.323 5.24913 155.076C4.92832 155.83 4.79424 156.65 4.8584 157.466C4.95992 159.683 5.59131 161.844 6.69952 163.766C7.80773 165.688 9.36044 167.316 11.2272 168.512C12.1547 169.098 13.2239 169.421 14.3205 169.446C14.8203 169.442 15.3147 169.342 15.7762 169.15L16.1174 168.945L64.7471 140.089C66.635 138.791 67.1809 135.922 66.1801 132.437C66.1221 132.236 66.0537 132.039 65.9753 131.845L96.8637 113.921C98.428 112.998 100.211 112.511 102.027 112.511C103.843 112.511 105.626 112.998 107.19 113.921L127.001 125.536C137.35 131.605 149.126 134.804 161.119 134.804C173.112 134.804 184.889 131.605 195.238 125.536L196.352 124.899C197.665 124.136 198.754 123.041 199.511 121.724C200.269 120.407 200.667 118.914 200.667 117.394C200.667 115.875 200.269 114.382 199.511 113.065C198.754 111.748 197.665 110.653 196.352 109.89L196.42 109.936Z" fill="#DEDEDE"/>
<path d="M160.755 110.323L178.52 79.9186L96.0904 32.0917C92.9287 30.5658 88.2887 31.7273 83.4439 36.4189C79.7583 39.9639 77.1484 44.4799 75.9152 49.446C74.3003 55.9596 75.5739 60.5373 78.4171 62.5642L160.733 110.391L160.755 110.323Z" fill="#EFEAE6"/>
<path d="M82.3519 44.5947C79.0615 47.7775 76.6281 51.7417 75.2781 56.1187C75.2218 57.4704 75.4778 58.8168 76.0261 60.0532C76.5745 61.2897 77.4005 62.3827 78.4397 63.2472L160.755 111.074L174.994 86.7051L94.9074 40.2447C91.7685 38.7416 87.1285 39.9031 82.3519 44.5947Z" fill="#FF7A1B"/>
<path d="M161.074 111.462L160.301 111.074L77.9624 63.2475C74.5506 60.8106 73.4132 55.5952 75.0737 49.1955C76.3459 44.0754 79.0341 39.4181 82.8299 35.7584C87.6064 31.2034 92.6786 29.4953 96.4771 31.2034L179.316 79.2354L179.498 79.9641L179.293 80.3058L161.074 111.462ZM93.2018 32.2511C89.6893 32.6687 86.4519 34.3624 84.1036 37.011C80.5304 40.4396 78.0059 44.8159 76.8251 49.6282C75.4149 55.3219 76.211 59.8768 79.0996 61.8582L160.665 109.207L177.61 80.1919L95.863 32.7749C95.0311 32.3879 94.118 32.2082 93.2018 32.2511Z" fill="#44382E"/>
<path d="M84.6263 67.142C81.2827 64.8645 80.2365 59.5352 81.8059 53.1355C83.0728 48.0198 85.7622 43.3685 89.5621 39.7212C94.3386 35.1662 99.4336 33.4354 103.209 35.1662L102.481 36.6921C99.3881 35.2118 95.021 36.6921 90.7676 40.8827C87.2072 44.3213 84.6849 48.6937 83.4891 53.4999C82.0788 59.1936 82.875 63.7713 85.6499 65.7299L84.6263 67.142Z" fill="#44382E"/>
<path d="M101.185 76.7074C97.8416 74.4299 96.7726 69.1006 98.3648 62.7009C99.6375 57.5876 102.326 52.9378 106.121 49.2866C110.898 44.7317 115.97 43.0008 119.768 44.7317L119.04 46.2348C115.97 44.7545 111.603 46.2348 107.349 50.4254C103.781 53.8579 101.257 58.2326 100.071 63.0426C98.6377 68.7363 99.4565 73.314 102.231 75.2726L101.185 76.7074Z" fill="#44382E"/>
<path d="M181.886 87.7757C181.651 92.1113 180.398 96.3302 178.228 100.09C176.058 103.849 173.033 107.043 169.399 109.412C162.576 113.397 156.935 110.163 156.935 102.192C157.171 97.8624 158.422 93.6494 160.588 89.8944C162.753 86.1394 165.772 82.9479 169.399 80.5788C176.291 76.5933 181.886 79.8045 181.886 87.7757Z" fill="#FF7A1B"/>
<path d="M163.826 111.962C162.542 111.976 161.278 111.645 160.164 111.006C158.762 110.034 157.644 108.705 156.928 107.155C156.212 105.605 155.924 103.891 156.093 102.192C156.335 97.7145 157.629 93.3575 159.87 89.4752C162.111 85.593 165.236 82.2952 168.99 79.85C170.315 78.7565 171.942 78.0951 173.654 77.9545C175.365 77.8139 177.079 78.2009 178.564 79.0636C180.05 79.9263 181.236 81.2233 181.964 82.7806C182.692 84.3378 182.927 86.0808 182.637 87.7756C182.387 92.2545 181.09 96.6121 178.85 100.497C176.61 104.382 173.489 107.685 169.74 110.14C167.958 111.246 165.921 111.873 163.826 111.962ZM174.972 79.6906C173.15 79.7714 171.38 80.3204 169.831 81.2849C166.326 83.5803 163.409 86.6683 161.315 90.2999C159.221 93.9316 158.009 98.0051 157.776 102.192C157.486 103.598 157.646 105.059 158.232 106.369C158.819 107.679 159.802 108.771 161.044 109.489C162.285 110.208 163.72 110.516 165.147 110.372C166.573 110.227 167.918 109.636 168.99 108.683C172.497 106.39 175.416 103.303 177.51 99.6705C179.605 96.0383 180.815 91.9634 181.045 87.7756C181.222 86.3652 181.023 84.9329 180.468 83.6246C179.912 82.3163 179.021 81.1789 177.883 80.3283C176.986 79.8603 175.981 79.6402 174.972 79.6906Z" fill="#44382E"/>
<path d="M171.173 105.221L179.293 91.3058L175.13 88.755C173.674 88.0718 171.559 88.5956 169.353 90.7364C167.663 92.3606 166.465 94.4286 165.896 96.7034C165.168 99.6869 165.736 101.782 167.033 102.693L171.15 105.244L171.173 105.221Z" fill="#F4E3CC"/>
<path d="M171.582 100.393L167.42 97.8425C166.875 97.582 166.264 97.4945 165.668 97.5919C165.424 98.4548 165.422 99.3686 165.663 100.232C165.903 101.096 166.377 101.877 167.033 102.489L169.489 103.992L171.582 100.393Z" fill="#EFB639"/>
<path d="M171.059 106.132L170.741 105.927L166.51 103.399C164.759 102.147 164.236 99.6416 165.009 96.567C165.616 94.097 166.928 91.8574 168.785 90.1217C171.059 87.8443 173.629 87.0699 175.608 87.9809L180.157 90.8277V91.716L171.946 105.814L171.059 106.132ZM173.834 89.2564C172.329 89.452 170.947 90.1885 169.945 91.3288C168.372 92.8397 167.259 94.7668 166.737 96.8858C166.146 99.3 166.442 101.213 167.556 101.987L170.9 104.06L178.179 91.5794L174.698 89.4385C174.421 89.3092 174.117 89.2468 173.811 89.2564H173.834Z" fill="#44382E"/>
<path d="M180.84 94.9043C180.73 96.8848 180.155 98.8116 179.164 100.529C178.172 102.246 176.79 103.705 175.131 104.789C171.969 106.61 169.422 105.13 169.422 101.486C169.527 99.5044 170.099 97.5756 171.091 95.8577C172.083 94.1397 173.468 92.6814 175.131 91.602C178.27 89.78 180.84 91.2603 180.84 94.9043Z" fill="#FF7A1B"/>
<path d="M172.583 106.406C171.916 106.415 171.257 106.25 170.673 105.927C169.963 105.439 169.395 104.77 169.027 103.99C168.659 103.21 168.505 102.346 168.58 101.486C168.679 99.3567 169.286 97.2817 170.351 95.4352C171.415 93.5887 172.906 92.0245 174.699 90.8734C175.374 90.3125 176.205 89.9721 177.079 89.8977C177.954 89.8234 178.83 90.0189 179.59 90.4577C180.35 90.8966 180.958 91.5579 181.332 92.3528C181.706 93.1477 181.828 94.0382 181.681 94.9045C181.578 97.0359 180.967 99.1115 179.898 100.958C178.83 102.804 177.335 104.368 175.54 105.518C174.649 106.069 173.63 106.375 172.583 106.406ZM177.678 91.6478C176.918 91.683 176.18 91.9187 175.54 92.331C174.01 93.3298 172.735 94.6746 171.818 96.2568C170.902 97.8391 170.369 99.6148 170.263 101.441C170.067 102.028 170.081 102.664 170.303 103.242C170.525 103.819 170.94 104.301 171.478 104.606C172.016 104.91 172.643 105.017 173.251 104.91C173.86 104.802 174.412 104.485 174.812 104.014C176.348 103.019 177.628 101.676 178.549 100.093C179.47 98.5108 180.005 96.7331 180.112 94.9045C180.179 94.3414 180.099 93.7705 179.88 93.2476C179.66 92.7247 179.309 92.2676 178.861 91.921C178.494 91.741 178.084 91.6699 177.678 91.7161V91.6478Z" fill="#44382E"/>
<path d="M51.3038 134.35L47.9375 128.543L91.1538 103.49C93.7463 101.965 96.6989 101.16 99.7061 101.16C102.713 101.16 105.666 101.965 108.258 103.49L128.07 115.128C137.402 120.61 148.025 123.499 158.844 123.499C169.663 123.499 180.287 120.61 189.619 115.128L190.733 114.491C191.024 114.323 191.263 114.08 191.427 113.787C191.592 113.495 191.674 113.163 191.666 112.828C191.663 112.483 191.572 112.145 191.401 111.845C191.229 111.546 190.984 111.296 190.688 111.12L174.766 102.01C174.002 101.567 173.444 100.839 173.214 99.9859C172.984 99.1326 173.101 98.2228 173.538 97.455C173.755 97.0741 174.045 96.7399 174.391 96.4717C174.738 96.2035 175.134 96.0066 175.557 95.8923C175.98 95.778 176.421 95.7486 176.855 95.8057C177.289 95.8628 177.708 96.0054 178.087 96.2252L193.622 105.176C194.917 105.92 196.01 106.972 196.804 108.239C197.597 109.506 198.067 110.949 198.171 112.441C198.261 114.029 197.909 115.611 197.154 117.01C196.399 118.41 195.271 119.572 193.895 120.366L192.78 121.004C182.432 127.073 170.655 130.272 158.662 130.272C146.669 130.272 134.893 127.073 124.544 121.004L104.733 109.389C103.168 108.466 101.386 107.979 99.5696 107.979C97.7537 107.979 95.9708 108.466 94.4064 109.389L51.3038 134.35Z" fill="#44382E"/>
<path d="M4.81304 149.085L13.1379 163.707L61.8813 134.737C63.337 133.758 63.9511 131.39 62.9958 128.019C62.4115 125.974 61.3335 124.105 59.8569 122.576C57.4232 120.07 55.0804 119.433 53.511 120.162L4.76758 149.063L4.81304 149.085Z" fill="#E2DBD5"/>
<path d="M62.6543 128.315C62.0775 126.279 61.0071 124.417 59.5382 122.895C57.1044 120.389 54.7616 119.729 53.1922 120.458L6.90527 147.901L12.9101 158.446L61.6763 129.499C62.0896 129.186 62.4244 128.78 62.6543 128.315Z" fill="white"/>
<path d="M13.2965 164.595L12.6141 164.458L12.4094 164.117L3.87988 149.154L4.17558 148.47L4.38028 148.334L53.1237 119.433C55.2618 118.43 57.9913 119.433 60.4933 121.983C62.063 123.618 63.2107 125.611 63.8368 127.791C64.8376 131.275 64.2917 134.145 62.4039 135.443L13.2965 164.595ZM5.94972 149.381L13.433 162.568L61.494 134.031C62.6995 133.188 62.9952 130.979 62.2219 128.246C61.6829 126.335 60.6742 124.588 59.2877 123.168C57.3316 121.141 55.2618 120.275 53.897 120.89L5.94972 149.381Z" fill="#44382E"/>
<path d="M13.3025 163.546C15.6301 162.199 15.6319 157.841 13.3065 153.812C10.9811 149.782 7.2092 147.607 4.88157 148.954C2.55394 150.3 2.55205 154.659 4.87742 158.688C7.20278 162.718 10.9748 164.893 13.3025 163.546Z" fill="white"/>
<path d="M11.841 164.868C10.7479 164.841 9.68115 164.527 8.74768 163.957C6.88182 162.754 5.3302 161.122 4.22234 159.196C3.11448 157.271 2.48245 155.108 2.37893 152.889C2.27211 152.008 2.42417 151.116 2.81644 150.321C3.2087 149.526 3.82414 148.863 4.58725 148.414C5.35036 147.964 6.22796 147.747 7.11244 147.789C7.99692 147.832 8.8498 148.132 9.56649 148.652C11.4297 149.855 12.9808 151.483 14.092 153.404C15.2033 155.324 15.8428 157.482 15.9579 159.698C16.0225 160.592 15.8453 161.487 15.445 162.288C15.0448 163.09 14.4362 163.769 13.6834 164.253C13.132 164.613 12.4976 164.824 11.841 164.868ZM9.56649 162.591C10.0067 163.026 10.5777 163.304 11.1915 163.383C11.8052 163.461 12.4278 163.335 12.9631 163.025C13.4984 162.714 13.9169 162.236 14.1539 161.663C14.3909 161.091 14.4334 160.457 14.2748 159.858C14.1672 157.935 13.6086 156.065 12.6444 154.399C11.6801 152.734 10.3373 151.319 8.72492 150.269C8.28977 149.83 7.72154 149.547 7.10897 149.465C6.4964 149.383 5.874 149.507 5.33886 149.816C4.80371 150.126 4.38593 150.604 4.15084 151.176C3.91576 151.749 3.87659 152.383 4.03937 152.98C4.14454 154.903 4.69951 156.775 5.65955 158.444C6.61959 160.114 7.95783 161.534 9.56649 162.591Z" fill="#44382E"/>
<path d="M62.8625 128.251L14.3672 156.876L15.222 158.328L63.7173 129.703L62.8625 128.251Z" fill="#44382E"/>
</g>
<defs>
<clipPath id="clip0_234_4144">
<rect width="200" height="200" fill="white" transform="translate(0.666992)"/>
</clipPath>
</defs>
</svg>
