<svg width="97" height="97" viewBox="0 0 97 97" fill="none" xmlns="http://www.w3.org/2000/svg">
<path d="M61.6813 32.6162V54.2762C61.2621 54.077 60.8181 53.9494 60.3481 53.9494H40.3481V32.6162H37.6817V53.9494H36.3481C34.1397 53.9494 32.3481 56.3378 32.3481 59.283C32.3481 62.2294 34.1397 64.6162 36.3481 64.6162H60.3481C62.5565 64.6162 64.3481 62.2294 64.3481 59.283V32.6162H61.6813ZM56.9029 61.9494H36.3481C35.8777 61.9494 35.0145 60.9366 35.0145 59.283C35.0145 57.629 35.8777 56.6162 36.3481 56.6162H56.9029C56.5589 57.4042 56.3481 58.3066 56.3481 59.283C56.3481 60.2594 56.5589 61.163 56.9029 61.9494ZM60.3481 61.9494C59.8781 61.9494 59.0149 60.9366 59.0149 59.283C59.0149 57.629 59.8781 56.6162 60.3481 56.6162C60.8181 56.6162 61.6813 57.629 61.6813 59.283C61.6813 60.9366 60.8181 61.9494 60.3481 61.9494Z" fill="#FF7A1B"/>
<path d="M45.0145 33.9498C45.0145 34.6858 44.4169 35.2826 43.6817 35.2826C42.9449 35.2826 42.3481 34.6858 42.3481 33.9498C42.3481 33.213 42.9449 32.6162 43.6817 32.6162C44.4169 32.6162 45.0145 33.213 45.0145 33.9498Z" fill="#FF7A1B"/>
<path d="M47.3481 39.2831C48.0844 39.2831 48.6813 38.6862 48.6813 37.9499C48.6813 37.2136 48.0844 36.6167 47.3481 36.6167C46.6118 36.6167 46.0149 37.2136 46.0149 37.9499C46.0149 38.6862 46.6118 39.2831 47.3481 39.2831Z" fill="#FF7A1B"/>
<path d="M54.6813 39.2831C55.4177 39.2831 56.0145 38.6862 56.0145 37.9499C56.0145 37.2136 55.4177 36.6167 54.6813 36.6167C53.945 36.6167 53.3481 37.2136 53.3481 37.9499C53.3481 38.6862 53.945 39.2831 54.6813 39.2831Z" fill="#FF7A1B"/>
<path d="M58.3481 35.2831C59.0844 35.2831 59.6813 34.6862 59.6813 33.9499C59.6813 33.2136 59.0844 32.6167 58.3481 32.6167C57.6118 32.6167 57.0149 33.2136 57.0149 33.9499C57.0149 34.6862 57.6118 35.2831 58.3481 35.2831Z" fill="#FF7A1B"/>
<path d="M51.0151 35.2831C51.7514 35.2831 52.3483 34.6862 52.3483 33.9499C52.3483 33.2136 51.7514 32.6167 51.0151 32.6167C50.2788 32.6167 49.6819 33.2136 49.6819 33.9499C49.6819 34.6862 50.2788 35.2831 51.0151 35.2831Z" fill="#FF7A1B"/>
<path d="M45.0145 41.9498C45.0145 42.6858 44.4169 43.2826 43.6817 43.2826C42.9449 43.2826 42.3481 42.6858 42.3481 41.9498C42.3481 41.213 42.9449 40.6162 43.6817 40.6162C44.4169 40.6162 45.0145 41.213 45.0145 41.9498Z" fill="#FF7A1B"/>
<path d="M47.3481 47.2831C48.0844 47.2831 48.6813 46.6862 48.6813 45.9499C48.6813 45.2136 48.0844 44.6167 47.3481 44.6167C46.6118 44.6167 46.0149 45.2136 46.0149 45.9499C46.0149 46.6862 46.6118 47.2831 47.3481 47.2831Z" fill="#FF7A1B"/>
<path d="M54.6813 47.2831C55.4177 47.2831 56.0145 46.6862 56.0145 45.9499C56.0145 45.2136 55.4177 44.6167 54.6813 44.6167C53.945 44.6167 53.3481 45.2136 53.3481 45.9499C53.3481 46.6862 53.945 47.2831 54.6813 47.2831Z" fill="#FF7A1B"/>
<path d="M58.3481 43.2831C59.0844 43.2831 59.6813 42.6862 59.6813 41.9499C59.6813 41.2136 59.0844 40.6167 58.3481 40.6167C57.6118 40.6167 57.0149 41.2136 57.0149 41.9499C57.0149 42.6862 57.6118 43.2831 58.3481 43.2831Z" fill="#FF7A1B"/>
<path d="M51.0151 43.2831C51.7514 43.2831 52.3483 42.6862 52.3483 41.9499C52.3483 41.2136 51.7514 40.6167 51.0151 40.6167C50.2788 40.6167 49.6819 41.2136 49.6819 41.9499C49.6819 42.6862 50.2788 43.2831 51.0151 43.2831Z" fill="#FF7A1B"/>
<path d="M45.0145 49.9494C45.0145 50.6866 44.4169 51.283 43.6817 51.283C42.9449 51.283 42.3481 50.6866 42.3481 49.9494C42.3481 49.2126 42.9449 48.6162 43.6817 48.6162C44.4169 48.6162 45.0145 49.2126 45.0145 49.9494Z" fill="#FF7A1B"/>
<path d="M58.3481 51.2826C59.0844 51.2826 59.6813 50.6857 59.6813 49.9494C59.6813 49.2131 59.0844 48.6162 58.3481 48.6162C57.6118 48.6162 57.0149 49.2131 57.0149 49.9494C57.0149 50.6857 57.6118 51.2826 58.3481 51.2826Z" fill="#FF7A1B"/>
<path d="M51.0151 51.2826C51.7514 51.2826 52.3483 50.6857 52.3483 49.9494C52.3483 49.2131 51.7514 48.6162 51.0151 48.6162C50.2788 48.6162 49.6819 49.2131 49.6819 49.9494C49.6819 50.6857 50.2788 51.2826 51.0151 51.2826Z" fill="#FF7A1B"/>
</svg>
