<svg width="86" height="86" viewBox="0 0 86 86" fill="none" xmlns="http://www.w3.org/2000/svg">
<path fill-rule="evenodd" clip-rule="evenodd" d="M43.7626 54.3898C47.8128 50.8759 52.6293 46.697 52.6293 41.6423C52.6293 36.0508 48.0965 31.5181 42.5051 31.5181C36.9136 31.5181 32.3809 36.0508 32.3809 41.6423C32.3809 46.7688 38.0735 51.6686 41.6038 54.7072C41.924 54.9828 42.2263 55.2431 42.5051 55.4868C42.9112 55.1285 43.3325 54.7629 43.7626 54.3898ZM42.5051 44.871C44.2906 44.871 45.738 43.4236 45.738 41.6381C45.738 39.8526 44.2906 38.4052 42.5051 38.4052C40.7196 38.4052 39.2722 39.8526 39.2722 41.6381C39.2722 43.4236 40.7196 44.871 42.5051 44.871Z" fill="#5D5650"/>
</svg>
