<svg width="201" height="200" viewBox="0 0 201 200" fill="none" xmlns="http://www.w3.org/2000/svg">
<path d="M60.4161 23.2429L46.2639 8.82418L47.5369 6.58883C47.5704 6.52948 47.5798 6.45958 47.5632 6.39351C47.5467 6.32744 47.5055 6.27019 47.4481 6.23354L38.5659 1.09668L38.2995 0.948641C36.3454 -0.0580071 33.1182 2.04411 31.475 5.62659L10.0245 52.3617C8.38558 55.7611 7.48741 59.4698 7.38946 63.2424V121.628C7.36501 121.996 7.41978 122.364 7.55002 122.709C7.68027 123.054 7.88297 123.367 8.14446 123.626C8.27527 123.73 8.41975 123.814 8.57378 123.878L18.0185 129.281C18.0639 129.308 18.1149 129.324 18.1676 129.328C18.2203 129.332 18.2731 129.324 18.3219 129.304C18.3707 129.283 18.4142 129.252 18.4489 129.212C18.4836 129.173 18.5086 129.125 18.5218 129.074C18.8475 127.757 20.0022 123.478 21.4826 117.335L59.5131 95.3663C60.5064 94.7154 61.3332 93.8406 61.9271 92.8122C62.521 91.7838 62.8655 90.6305 62.9328 89.4449V31.0889C63.1391 28.2466 62.2372 25.4349 60.4161 23.2429Z" fill="white"/>
<path d="M62.4289 27.492L48.2766 13.088L49.5498 10.8379C49.5832 10.7785 49.5926 10.7086 49.5761 10.6425C49.5596 10.5765 49.5184 10.5192 49.461 10.4826L40.5788 5.3457L40.3123 5.19766C38.3582 4.19102 35.131 6.29314 33.4878 9.87562L12.0373 56.5811C11.0655 58.671 10.3402 60.8668 9.87598 63.1243L11.8449 64.2642L39.1872 80.5482L24.576 81.0812C26.4466 83.2513 27.3925 86.0678 27.2111 88.9271V119.467L61.6296 99.5857C62.6229 98.9348 63.4497 98.06 64.0436 97.0317C64.6375 96.0033 64.9819 94.8499 65.0492 93.6643V35.3379C65.2268 32.4817 64.2872 29.6683 62.4289 27.492Z" fill="white"/>
<path d="M18.2407 130.051C18.064 130.053 17.8903 130.007 17.7373 129.918L8.23337 124.5C8.04468 124.426 7.86959 124.321 7.71524 124.189C7.35174 123.867 7.06673 123.466 6.88199 123.017C6.69725 122.568 6.61766 122.083 6.64937 121.599V63.213C6.73632 59.3438 7.64991 55.538 9.32883 52.0511L30.8829 5.34554C31.8352 3.06008 33.633 1.23047 35.9014 0.238285C36.3453 0.0669809 36.819 -0.0134303 37.2945 0.00182746C37.7701 0.0170852 38.2377 0.127697 38.6697 0.327103L39.0102 0.534359L47.7887 5.64162C48.0061 5.76581 48.1654 5.97096 48.232 6.21228C48.2986 6.4536 48.2669 6.71146 48.144 6.92953L47.1225 8.72077L60.9047 22.7546C62.9049 25.0538 63.9205 28.0475 63.7322 31.0891V89.4599C63.6699 90.7724 63.2948 92.051 62.6381 93.1892C61.9815 94.3273 61.0624 95.2921 59.9573 96.0031L22.1784 117.809L19.2177 129.282C19.1788 129.433 19.105 129.574 19.0022 129.692C18.8994 129.81 18.7704 129.903 18.6255 129.963C18.5045 130.018 18.3736 130.048 18.2407 130.051ZM37.2633 1.39297C36.9505 1.3961 36.6403 1.45112 36.3455 1.55581C34.4413 2.4261 32.9386 3.98699 32.1413 5.92288L10.6464 52.6284C9.05112 55.9348 8.17808 59.543 8.08533 63.213V121.599C8.06197 121.868 8.09608 122.139 8.1854 122.394C8.27472 122.65 8.41723 122.883 8.60347 123.079C8.68498 123.156 8.78047 123.216 8.88474 123.257L18.0186 128.482L20.9793 116.906L59.2764 94.804C60.1667 94.2107 60.9078 93.4196 61.4419 92.4926C61.9761 91.5656 62.2887 90.5277 62.3555 89.4599V31.0891C62.5303 28.4011 61.6606 25.7495 59.9277 23.6873L45.4053 8.88361L46.7377 6.55944L38.2552 1.62983L38.0331 1.49659C37.7871 1.40663 37.5244 1.37127 37.2633 1.39297Z" fill="#44382E"/>
<path d="M41.0829 11.1634L19.588 57.8689C17.9585 61.2709 17.0656 64.9786 16.9678 68.7495V127.135C16.9678 129.311 18.4481 130.2 20.3874 129.104L69.2395 100.977C70.2352 100.329 71.0639 99.4546 71.6581 98.4257C72.2523 97.3968 72.5953 96.2421 72.6591 95.0556V36.6256C72.8367 33.7694 71.8971 30.956 70.0389 28.7797L48.4996 6.89991C46.7231 4.99024 42.9186 7.21078 41.0829 11.1634Z" fill="#E2DBD5"/>
<path d="M18.862 130.273C18.4259 130.278 17.9965 130.165 17.6185 129.948C17.1628 129.642 16.7974 129.22 16.5604 128.726C16.3234 128.231 16.2236 127.682 16.2714 127.135V68.7495C16.3639 64.8794 17.2825 61.0737 18.9657 57.5876L40.4606 10.9117C41.7485 8.11378 44.0431 5.98205 46.1896 5.61196C46.6881 5.50528 47.2054 5.52526 47.6941 5.67008C48.1829 5.8149 48.6276 6.07995 48.9875 6.44097L70.4824 28.3208C72.4965 30.6033 73.5332 33.5859 73.3691 36.6256V95.0112C73.3044 96.3212 72.9282 97.5968 72.2717 98.7322C71.6152 99.8677 70.6973 100.83 69.5942 101.54L20.7421 129.667C20.1789 130.029 19.5309 130.238 18.862 130.273ZM46.8409 6.91469H46.4264C45.3595 7.27766 44.3852 7.87002 43.5719 8.65009C42.7586 9.43016 42.126 10.379 41.7189 11.4298L20.224 58.1649C18.6287 61.4714 17.7557 65.0795 17.663 68.7495V127.135C17.6197 127.429 17.6655 127.728 17.7946 127.995C17.9238 128.263 18.1301 128.485 18.387 128.633C18.6439 128.781 18.9394 128.849 19.2353 128.828C19.5312 128.806 19.8138 128.696 20.0464 128.512L68.8984 100.385C69.7892 99.7956 70.531 99.0075 71.0653 98.0827C71.5996 97.1579 71.9119 96.1217 71.9776 95.0556V36.6256C72.1617 33.9365 71.2909 31.2814 69.5498 29.2238L47.9956 7.3736C47.8479 7.218 47.6681 7.09637 47.4688 7.01713C47.2694 6.93789 47.0552 6.90294 46.8409 6.91469Z" fill="#44382E"/>
<path d="M16.9824 77.0397L72.6145 44.7529L171.503 102.369L115.9 134.67L16.9972 77.0693L16.9824 77.0397Z" fill="white"/>
<path d="M115.871 135.484L115.501 135.248L16.3164 77.5133V76.6991L16.6717 76.4919L72.6591 43.9238L73.044 44.1607L172.229 101.895V102.739L171.844 102.931L115.871 135.484ZM18.3445 77.0544L115.901 133.886L170.171 102.383L72.6147 45.5522L18.3445 77.0544Z" fill="#44382E"/>
<path d="M27.0928 77.2765L73.3246 50.4375L162.132 102.532L115.9 129.356L27.0928 77.2765Z" fill="white"/>
<path d="M115.886 130.155L25.7168 77.2618L73.3698 49.6382L163.554 102.532L115.886 130.155ZM28.4703 77.2766L115.901 128.556L160.711 102.517L73.3698 51.237L28.4703 77.2766Z" fill="#44382E"/>
<path d="M73.369 50.467V104.367L27.1816 77.2764L73.369 50.4521C73.369 50.4521 73.369 50.4522 73.369 50.467Z" fill="#E2DBD5"/>
<path d="M73.2805 105.181L72.9252 104.959L26.4121 77.6761V76.8767L26.7674 76.6547L73.3693 49.6528L74.0799 50.0525V104.826L73.2805 105.181ZM28.4698 77.2764L72.6291 103.183V51.6365L28.4698 77.2764Z" fill="#44382E"/>
<path d="M121.092 125.163C122.559 111.482 103.628 98.2337 78.8099 95.5726C53.9913 92.9115 32.6827 101.845 31.2157 115.527C29.7488 129.208 48.679 142.457 73.4975 145.118C98.3161 147.779 119.625 138.845 121.092 125.163Z" fill="#A2A2A2"/>
<path d="M111.829 118.983C113.175 106.424 95.7887 94.2609 72.9943 91.8168C50.2 89.3728 30.6298 97.5731 29.2831 110.133C27.9364 122.692 45.3232 134.855 68.1176 137.299C90.912 139.743 110.482 131.543 111.829 118.983Z" fill="white"/>
<path d="M76.0192 138.223C66.0493 138.301 56.1741 136.284 47.0337 132.302C36.2122 127.387 29.5506 120.325 28.766 112.909C28.2034 107.565 30.7497 102.635 36.1678 98.6677C49.1506 89.075 75.1754 88.3052 94.1537 96.8765C104.975 101.791 111.637 108.853 112.421 116.269C112.984 121.613 110.438 126.543 105.02 130.51C98.0767 135.618 87.3736 138.223 76.0192 138.223ZM65.0941 91.9025C53.9914 91.9025 43.54 94.4635 36.7452 99.4819C31.6971 103.212 29.3433 107.802 29.817 112.805C30.572 119.837 36.9968 126.587 47.4778 131.339C66.1452 139.822 91.6815 139.052 104.398 129.667C109.446 125.921 111.8 121.332 111.326 116.343C110.586 109.326 104.146 102.561 93.6652 97.8091C84.6547 93.88 74.9239 91.8733 65.0941 91.9173V91.9025Z" fill="#44382E"/>
<path d="M95.0869 97.5869L104.458 112.761C104.458 112.761 110.66 116.728 110.039 123.967C115.087 115.233 109.506 104.574 95.0869 97.5869Z" fill="#A3A3A3"/>
<path d="M109.253 126.247L109.445 123.923C110.038 117.098 104.175 113.249 104.116 113.205L103.938 113.042L93.6943 96.314L95.3227 97.1134C104.042 101.347 109.86 107.047 111.725 113.175C112.302 115.005 112.486 116.936 112.264 118.842C112.042 120.748 111.42 122.585 110.437 124.234L109.253 126.247ZM104.812 112.391C106.356 113.459 107.661 114.837 108.642 116.438C109.623 118.039 110.26 119.827 110.511 121.687C111.508 119.058 111.591 116.169 110.748 113.486C109.09 108.038 104.072 102.902 96.5514 98.9046L104.812 112.391Z" fill="#44382E"/>
<path d="M35.1466 123.671C33.4011 121.038 32.4702 117.948 32.4702 114.789C32.4702 111.629 33.4011 108.54 35.1466 105.907C37.0563 102.946 36.9822 100.696 35.9756 99.0229C26.8121 106.01 27.0046 115.677 35.1466 123.671Z" fill="#A3A3A3"/>
<path d="M34.7766 124.056C30.4243 119.763 28.2778 115.041 28.5738 110.377C28.8551 106.01 31.3125 101.939 35.6796 98.5345L36.1533 98.1792L36.4642 98.6825C37.7225 100.785 37.4412 103.286 35.6204 106.084C33.9241 108.627 33.0189 111.614 33.0189 114.67C33.0189 117.727 33.9241 120.714 35.6204 123.257L34.7766 124.056ZM35.8277 99.852C34.1948 100.918 32.8075 102.319 31.758 103.962C30.7085 105.606 30.0208 107.453 29.7408 109.383C29.4607 111.313 29.5946 113.28 30.1336 115.154C30.6726 117.028 31.6044 118.765 32.8669 120.251C32.0103 117.843 31.7327 115.266 32.0568 112.731C32.3808 110.195 33.2973 107.771 34.7322 105.655C36.1533 103.42 36.5234 101.466 35.8277 99.852Z" fill="#44382E"/>
<path d="M103.806 108.379C103.806 108.379 95.4563 74.8634 66.5003 73.2942C38.625 71.8138 31.5637 105.699 31.5637 105.699C29.6985 112.894 35.1758 120.77 46.8855 125.877C63.4952 133.101 86.3224 132.035 97.8989 123.493C103.82 119.111 105.626 113.634 103.806 108.379Z" fill="white"/>
<path d="M69.2545 116.255C75.176 111.888 76.982 106.41 75.176 101.14C75.176 101.14 70.8977 84.0123 57.8705 73.6646C37.1454 78.5794 31.5052 105.33 31.5052 105.33C29.8768 111.606 33.8442 118.386 42.6524 123.405C53.0001 123.42 62.8594 120.977 69.2545 116.255Z" fill="#EEEEEE"/>
<path d="M71.2232 131.162C62.8187 131.225 54.4873 129.599 46.7232 126.38C35.2208 121.362 29.2401 113.531 31.0166 105.862V105.611C31.0166 105.27 38.5072 71.2219 66.5453 72.7763C95.5605 74.3602 104.25 107.935 104.339 108.305C106.264 113.945 104.043 119.645 98.2399 123.923C91.7411 128.69 81.719 131.162 71.2232 131.162ZM32.2304 105.167L32.0528 105.818C30.2023 113.042 35.9609 120.533 47.0785 125.374C63.5105 132.524 86.1453 131.488 97.5738 123.049C103.081 118.978 105.109 113.827 103.273 108.542L103.021 107.846C101.66 103.168 92.3777 75.2781 66.3825 73.7977C41.4383 72.4506 33.3999 100.548 32.2304 105.167Z" fill="#44382E"/>
<path d="M95.6634 92.3317C87.6842 74.5674 77.2032 66.5142 66.3225 67.8317C64.8572 68.016 63.4291 68.4254 62.0887 69.0456L52.0666 74.0492L51.8594 75.5296L61.6298 74.5229L73.221 81.1402L77.8102 89.3562L85.5821 99.9112L89.7419 120.192L91.4443 129.518H91.548L101.126 122.916C101.373 122.749 101.581 122.53 101.734 122.274C101.888 122.019 101.983 121.732 102.014 121.436C102.221 118.238 102.295 107.135 95.6634 92.3317Z" fill="#F0F0F0"/>
<path d="M91.6075 130.274L91.0894 130.052L90.9265 129.726L89.2093 120.459L85.0939 100.296L77.396 89.83L72.8365 81.688L61.5265 75.1596L51.2676 76.2403L51.5784 73.7533L61.941 68.6164C63.3474 67.967 64.8452 67.5376 66.3821 67.3433C77.8401 65.9517 88.4543 74.7451 96.2558 92.1542C102.977 107.135 102.858 118.445 102.651 121.554C102.629 121.943 102.517 122.322 102.325 122.661C102.132 123 101.864 123.29 101.541 123.508L91.6075 130.274ZM61.7338 74.0197L73.5767 80.7998L78.2398 89.1343L86.0562 99.8521L90.216 120.133L91.8 128.764L100.786 122.576C100.975 122.449 101.132 122.28 101.245 122.082C101.358 121.884 101.424 121.663 101.437 121.436C101.63 118.386 101.748 107.298 95.1308 92.5391C87.5365 75.6037 77.3664 67.0176 66.3525 68.3351C64.9345 68.5163 63.5521 68.9106 62.2519 69.5046L52.5111 74.3898L52.4223 74.982L61.7338 74.0197Z" fill="#44382E"/>
<path d="M89.8013 110.451L88.1729 112.287L89.816 120.296L91.5333 129.622H91.6369L101.215 123.02C101.46 122.852 101.665 122.632 101.816 122.377C101.967 122.121 102.06 121.835 102.088 121.539C102.3 115.485 101.531 109.436 99.8085 103.627L89.8013 110.451Z" fill="white"/>
<path d="M91.6219 130.274L91.089 130.037L90.9261 129.711L89.2237 120.459L87.5361 112.183L89.505 110.067L100.016 102.694L100.208 103.405C101.955 109.27 102.735 115.38 102.517 121.495C102.489 121.883 102.374 122.259 102.182 122.597C101.99 122.935 101.726 123.226 101.407 123.449L91.6219 130.274ZM88.6612 112.509L90.2452 120.251L91.8292 128.882L100.83 122.694C101.016 122.565 101.17 122.396 101.281 122.198C101.391 122 101.454 121.78 101.466 121.554C101.685 115.806 100.991 110.06 99.4086 104.53L90.1415 110.91L88.6612 112.509Z" fill="#44382E"/>
<path d="M43.9992 81.9692C43.9992 81.9692 59.3506 65.8185 74.6872 86.7064C90.0238 107.594 88.1141 128.157 88.1141 128.157L91.3709 129.637H91.4745C91.6226 128.393 92.9549 114.448 85.3902 97.5131C77.4258 79.7487 66.9449 71.6955 56.0642 72.9982C43.5847 74.4786 36.3457 92.8351 36.3457 92.8351C38.4035 88.8897 40.9773 85.2356 43.9992 81.9692Z" fill="#A3A3A3"/>
<path d="M91.4157 130.214C91.3325 130.23 91.2472 130.23 91.164 130.214L87.5667 128.616V128.246C87.5667 128.038 89.2543 107.595 74.2434 87.1211C69.4174 80.5482 64.1178 77.0398 58.4776 76.7585C50.4392 76.27 44.4289 82.4579 44.3697 82.5171C41.3888 85.726 38.8452 89.3149 36.805 93.1905L35.8428 92.7464C36.1388 91.9914 43.3334 74.1234 55.9757 72.5987C67.4486 71.2071 78.048 80.0005 85.8495 97.4096C93.4734 114.375 92.1558 128.275 91.993 129.815V130.081L91.7118 130.259C91.6109 130.274 91.5076 130.259 91.4157 130.214ZM88.677 127.861L91.016 128.897C91.5359 118.148 89.4378 107.434 84.9021 97.6761C77.3078 80.7555 67.1377 72.1546 56.1238 73.4869C50.8981 74.1086 46.5754 77.928 43.3631 81.8954L43.6147 81.6289C43.896 81.3328 50.0395 75.0117 58.5664 75.5298C64.4878 75.9147 70.0984 79.5712 75.1168 86.4105C84.0785 98.3567 88.8453 112.928 88.677 127.861Z" fill="#44382E"/>
<path d="M98.1709 99.0536L88.3555 105.759L88.9567 106.639L98.7722 99.9337L98.1709 99.0536Z" fill="#44382E"/>
<path d="M69.5398 67.2475L58.9902 72.3633L59.4488 73.309L69.9984 68.1932L69.5398 67.2475Z" fill="#44382E"/>
<path d="M122.562 26.8998L116.3 22.207C116.256 22.1777 116.205 22.1621 116.152 22.1621C116.1 22.1621 116.048 22.1777 116.004 22.207L91.1341 36.3001L85.8048 38.5947C85.0133 38.9891 84.3546 39.6067 83.9099 40.3711C83.8883 40.4077 83.8577 40.4383 83.8211 40.4599L77.8108 43.9092C77.8108 43.9092 77.8108 43.9092 77.7368 43.9092L76.4933 45.582C76.4673 45.6069 76.4467 45.6367 76.4325 45.6698C76.4184 45.7029 76.4111 45.7385 76.4111 45.7744C76.4111 45.8104 76.4184 45.846 76.4325 45.8791C76.4467 45.9121 76.4673 45.942 76.4933 45.9669L83.0069 50.8817H83.1105C83.318 50.9759 83.5457 51.017 83.7731 51.0015C84.0004 50.986 84.2204 50.9143 84.4132 50.7929L114.021 38.0173C115.311 37.4118 116.468 36.5565 117.425 35.5007L121.866 30.7783C123.051 29.4904 123.347 27.8176 122.799 27.0774L122.562 26.8998Z" fill="#FF7A1B"/>
<path d="M122.607 30.6745C122.482 30.8445 122.349 31.0076 122.207 31.1631L117.766 35.8854C116.767 37.0027 115.547 37.9 114.183 38.5205L84.5759 51.3108C84.299 51.4537 83.9919 51.5282 83.6803 51.5282C83.3687 51.5282 83.0616 51.4537 82.7847 51.3108H82.6218L76.2119 46.4404C76.0413 46.3059 75.9292 46.1108 75.8989 45.8957C75.8686 45.6807 75.9223 45.4622 76.049 45.2857L77.2925 43.6129C77.3654 43.5273 77.4502 43.4526 77.5442 43.3909L83.4657 40.0008C83.9628 39.1637 84.6933 38.4897 85.5678 38.0616L90.8971 35.767L115.634 21.6739C115.765 21.5842 115.92 21.5361 116.078 21.5361C116.237 21.5361 116.391 21.5842 116.522 21.6739L122.888 26.3963L123.095 26.6183C123.468 27.2549 123.622 27.9962 123.534 28.7288C123.446 29.4613 123.12 30.1448 122.607 30.6745ZM83.2732 50.3634C83.4657 50.467 83.6433 50.5262 84.1614 50.3634L113.769 37.573C114.987 36.9991 116.079 36.1889 116.981 35.1897L121.422 30.4525C122.518 29.2682 122.695 27.9211 122.325 27.4918L122.207 27.3733L116.063 22.7546L91.4596 36.7737L86.0563 39.1126C85.3608 39.4605 84.7839 40.0065 84.3983 40.6818C84.3278 40.7924 84.2312 40.8839 84.117 40.9483L78.1956 44.3531L77.1445 45.8335L83.2732 50.3634Z" fill="#44382E"/>
<path d="M115.856 22.1179L103.865 28.9424L115.101 37.3064C115.919 36.7838 116.666 36.1567 117.322 35.4412L121.763 30.7188C122.962 29.4309 123.243 27.7581 122.695 27.0179L122.533 26.8254L116.211 22.1327C116.164 22.0869 116.102 22.0601 116.037 22.0574C115.971 22.0546 115.907 22.0762 115.856 22.1179Z" fill="#FF7A1B"/>
<path d="M122.502 30.6007C122.378 30.7707 122.245 30.9337 122.103 31.0892L117.662 35.8116C116.98 36.5658 116.198 37.2232 115.338 37.7656L115.012 37.9729L102.799 28.8835L115.53 21.6445C115.662 21.5585 115.816 21.5127 115.974 21.5127C116.132 21.5127 116.286 21.5585 116.418 21.6445L122.739 26.3372L122.976 26.5889C123.34 27.2192 123.491 27.9505 123.406 28.6735C123.32 29.3965 123.004 30.0725 122.502 30.6007ZM115.101 36.6406C115.763 36.1914 116.369 35.6646 116.907 35.0714L121.348 30.349C122.458 29.1647 122.621 27.8028 122.266 27.3883L122.103 27.2254L116.018 22.7844L104.901 29.1203L115.101 36.6406Z" fill="#44382E"/>
<path d="M78.1069 43.7607L77.8108 43.9236C77.8108 43.9236 77.8108 43.9236 77.722 43.9236L76.4785 45.5964C76.4296 45.6485 76.4023 45.7173 76.4023 45.7888C76.4023 45.8603 76.4296 45.9291 76.4785 45.9813L83.0069 50.8813H83.0957C83.301 50.9817 83.5286 51.0276 83.7568 51.0147C83.9849 51.0017 84.2059 50.9303 84.3985 50.8073L86.4266 49.9339L78.1069 43.7607Z" fill="#DB9C17"/>
<path d="M87.5074 50.0824L84.6207 51.3259C84.3441 51.4699 84.0369 51.5451 83.725 51.5451C83.4132 51.5451 83.106 51.4699 82.8295 51.3259H82.6666L76.2122 46.4407C76.1255 46.3776 76.0521 46.2981 75.9963 46.2066C75.9404 46.1151 75.9032 46.0135 75.8867 45.9076C75.8702 45.8017 75.8747 45.6936 75.9001 45.5895C75.9255 45.4853 75.9712 45.3872 76.0345 45.3008L77.2781 43.628C77.351 43.5424 77.4357 43.4676 77.5297 43.4059L78.1367 43.0654L87.5074 50.0824ZM83.2735 50.3784C83.466 50.4821 83.6288 50.5413 84.1618 50.3784L85.3165 49.8899L78.0627 44.4866L77.056 45.8337L83.2735 50.3784Z" fill="#44382E"/>
<path d="M108.898 20.9042L79.2911 33.6946C78.6289 34.0239 78.0542 34.5055 77.6142 35.1C77.1741 35.6944 76.8813 36.3847 76.7597 37.1142L75.9011 44.4272C75.7382 45.7744 76.6265 46.4405 77.8848 45.9076L107.418 33.1172C108.704 32.5182 109.857 31.6675 110.808 30.6154L115.249 25.8782C116.73 24.3979 116.922 22.2514 115.723 21.8517L112.037 20.6082C110.99 20.3198 109.873 20.4251 108.898 20.9042Z" fill="#F4E3CC"/>
<path d="M116.448 22.0591L116.182 21.9702C115.128 21.6827 114.005 21.7933 113.028 22.2811L83.4211 35.0715C82.7589 35.4028 82.1836 35.8848 81.7415 36.4786C81.2993 37.0725 81.0025 37.7618 80.8748 38.4911L80.1494 44.6938L107.625 32.8509C108.914 32.2579 110.068 31.4064 111.015 30.3491L115.456 25.6119C115.941 25.1743 116.291 24.6082 116.467 23.9792C116.642 23.3503 116.636 22.6844 116.448 22.0591Z" fill="#FF7A1B"/>
<path d="M115.989 25.7156C115.869 25.8836 115.735 26.042 115.59 26.1893L111.149 30.9265C110.149 32.0427 108.929 32.9399 107.566 33.5615L77.9588 46.3519C77.6396 46.5237 77.2799 46.6061 76.9178 46.5905C76.5556 46.5749 76.2043 46.4617 75.9011 46.263C75.6263 46.0288 75.4186 45.7259 75.299 45.3853C75.1794 45.0446 75.1522 44.6784 75.2201 44.3238L76.0787 37.0108C76.2126 36.1837 76.5434 35.4009 77.0433 34.7285C77.5431 34.056 78.1973 33.5136 78.9506 33.147L108.558 20.3567C109.657 19.8149 110.917 19.6989 112.096 20.031L115.782 21.2745C116.048 21.3653 116.286 21.5235 116.473 21.7337C116.66 21.9438 116.789 22.1987 116.848 22.4736C116.94 23.044 116.91 23.6272 116.763 24.1857C116.615 24.7441 116.351 25.2653 115.989 25.7156ZM77.9736 35.3824C77.5829 35.8942 77.3237 36.494 77.2186 37.1292L76.3304 44.4866C76.2862 44.6517 76.2848 44.8252 76.3263 44.991C76.3677 45.1567 76.4506 45.3092 76.5673 45.434C76.7176 45.5144 76.8854 45.5564 77.0558 45.5564C77.2262 45.5564 77.394 45.5144 77.5443 45.434L107.152 32.6585C108.381 32.077 109.479 31.2509 110.379 30.2307L114.82 25.4935C115.189 25.1514 115.476 24.7296 115.658 24.2603C115.84 23.7909 115.913 23.2862 115.871 22.7845C115.797 22.4736 115.634 22.3848 115.516 22.3552L111.859 21.1117C110.936 20.8764 109.958 20.9815 109.106 21.4077L79.4984 34.1981C78.8913 34.467 78.3654 34.8907 77.9736 35.4268V35.3824Z" fill="#44382E"/>
<path d="M101.985 40.1932C101.423 39.7899 100.774 39.5236 100.09 39.4157C99.4065 39.3077 98.7071 39.3611 98.0476 39.5715L93.0884 41.7032C92.8908 41.7732 92.7146 41.8931 92.5771 42.0513C92.4396 42.2096 92.3455 42.4008 92.3038 42.6062V42.9467L83.54 117.942C83.54 117.942 83.54 118.031 83.6289 118.031L93.9914 116.713L94.0655 116.639L102.726 42.7839L102.859 41.644C102.865 41.3443 102.787 41.0489 102.632 40.7921C102.478 40.5353 102.253 40.3276 101.985 40.1932Z" fill="#A3A3A3"/>
<path d="M100.253 43.7312L100.386 42.5913C100.386 42.1028 100.831 40.0155 100.179 39.527C99.5278 39.0384 97.559 40.2227 96.5671 40.2968L93.1178 41.7771C92.922 41.8458 92.7471 41.9635 92.6098 42.119C92.4724 42.2745 92.3772 42.4626 92.3332 42.6653V43.0058L83.5547 118.001C83.5547 118.029 83.5656 118.055 83.585 118.074C83.6045 118.094 83.6308 118.105 83.6583 118.105L91.6967 117.068L100.253 43.7312Z" fill="#E2DBD5"/>
<path d="M94.4792 117.128L93.9907 117.261L83.3913 118.608L83.1248 118.401C83.0566 118.335 83.0051 118.253 82.9742 118.163C82.9434 118.073 82.9341 117.977 82.9472 117.883L91.8294 42.5176C91.8805 42.2191 92.0103 41.9396 92.2055 41.708C92.4007 41.4764 92.6541 41.3011 92.9396 41.2001L97.8248 39.0388C98.5669 38.7982 99.355 38.7345 100.126 38.8527C100.897 38.971 101.63 39.2679 102.266 39.7197C102.602 39.9194 102.876 40.2103 103.054 40.5587C103.232 40.9071 103.308 41.2989 103.273 41.6886L103.139 42.8137L94.4792 117.128ZM84.1167 117.409L93.5022 116.21L102.251 41.585C102.251 41.4517 102.251 41.1113 101.674 40.6375C101.188 40.2884 100.628 40.056 100.037 39.9584C99.4466 39.8609 98.8415 39.9008 98.269 40.075L93.3245 42.2067C93.2135 42.2391 93.1128 42.2998 93.0323 42.3828C92.9519 42.4659 92.8944 42.5684 92.8656 42.6804V43.0209L84.1167 117.409Z" fill="#44382E"/>
<path d="M93.1771 117.779L88.1734 119.911C87.514 120.121 86.8146 120.175 86.1309 120.067C85.4472 119.959 84.7982 119.692 84.2357 119.289C83.1402 118.475 83.1402 117.439 84.2357 116.965L89.1801 114.833C89.8395 114.623 90.539 114.569 91.2227 114.677C91.9064 114.785 92.5553 115.052 93.1179 115.455C94.2577 116.269 94.2577 117.305 93.1771 117.779Z" fill="#82CEF0"/>
<path d="M94.2425 117.646C94.0205 117.927 93.7299 118.146 93.3987 118.283L88.4543 120.459C87.7122 120.699 86.9241 120.763 86.153 120.645C85.3819 120.526 84.6491 120.23 84.0132 119.778C83.6903 119.576 83.4252 119.294 83.2436 118.959C83.062 118.625 82.9701 118.249 82.9769 117.868C83.0259 117.563 83.1564 117.277 83.3544 117.04C83.5524 116.803 83.8106 116.623 84.102 116.521L89.0464 114.374C89.7892 114.132 90.5786 114.069 91.3503 114.19C92.1221 114.311 92.8544 114.613 93.4875 115.07C93.8112 115.267 94.0774 115.546 94.2593 115.879C94.4412 116.211 94.5324 116.586 94.5238 116.965C94.486 117.211 94.3895 117.445 94.2425 117.646ZM92.9694 117.276C93.1322 117.276 93.4135 117.039 93.4431 116.802C93.4727 116.565 93.2358 116.195 92.8361 115.899C92.3513 115.553 91.7938 115.323 91.2063 115.225C90.6188 115.128 90.0167 115.166 89.4461 115.337L84.5017 117.498C84.324 117.572 84.0428 117.735 84.028 117.972C84.0132 118.209 84.2204 118.579 84.6201 118.875C85.1058 119.225 85.6658 119.458 86.2565 119.555C86.8473 119.653 87.4525 119.613 88.025 119.437L92.9694 117.276Z" fill="#44382E"/>
<path d="M99.8502 39.4994L91.2471 114.774L92.3355 114.899L100.939 39.6238L99.8502 39.4994Z" fill="#44382E"/>
<path d="M140.341 54.4638L79.4835 135.588C79.365 135.719 79.2178 135.82 79.0533 135.884C78.8889 135.949 78.7119 135.974 78.5361 135.958L66.6932 134.478C66.3527 134.478 66.2195 134.211 66.3971 133.959L127.255 52.8354C127.371 52.7066 127.516 52.6072 127.678 52.5454C127.841 52.4836 128.015 52.4613 128.188 52.4801L140.104 53.9605C140.386 54.0049 140.519 54.227 140.341 54.4638Z" fill="#EEEEEE"/>
<path d="M79.3944 135.381L139.009 55.9149L129.075 54.7157C128.901 54.6957 128.724 54.7174 128.559 54.7792C128.394 54.841 128.246 54.941 128.128 55.071L68.5137 134.552L78.4469 135.751C78.6227 135.767 78.7998 135.742 78.9642 135.677C79.1286 135.613 79.2759 135.512 79.3944 135.381Z" fill="#FF7A1B"/>
<path d="M130.704 66.9585L138.846 56.1074L128.898 54.9084C128.725 54.8895 128.551 54.9119 128.388 54.9736C128.226 55.0354 128.081 55.1348 127.965 55.2636L120.223 65.6262L130.704 66.9585Z" fill="#FF7A1B"/>
<path d="M134.42 62.0288L139.009 55.9149L129.076 54.7157C128.901 54.6957 128.724 54.7174 128.559 54.7792C128.394 54.841 128.247 54.941 128.128 55.071L123.909 60.6964L134.42 62.0288Z" fill="#FF7A1B"/>
<path d="M85.7455 115.573L83.0513 115.248L70.0537 132.568L80.0018 133.767C80.1764 133.785 80.3527 133.762 80.5171 133.7C80.6814 133.639 80.8293 133.54 80.9492 133.412L93.6655 116.461L85.7455 115.573Z" fill="#EDB43F"/>
<path d="M79.2906 136.372C79.0206 136.49 78.7249 136.536 78.432 136.506L66.5151 135.025C66.3464 135.016 66.1834 134.961 66.0428 134.868C65.9023 134.774 65.7893 134.644 65.7157 134.492C65.6579 134.351 65.6398 134.196 65.6633 134.045C65.6868 133.893 65.7509 133.751 65.8489 133.634L126.707 52.5098C126.884 52.2951 127.113 52.1294 127.372 52.0283C127.631 51.9272 127.912 51.8942 128.187 51.9324L140.03 53.4128C140.198 53.4238 140.361 53.4788 140.501 53.5724C140.641 53.6659 140.755 53.7946 140.829 53.9457C140.884 54.088 140.9 54.2422 140.877 54.3928C140.854 54.5434 140.791 54.6853 140.696 54.8043L79.8384 135.928C79.6969 136.121 79.5083 136.274 79.2906 136.372ZM66.9888 134.004L78.5653 135.395C78.6421 135.403 78.7197 135.395 78.7934 135.372C78.8672 135.349 78.9355 135.312 78.9945 135.262L139.601 54.4787L128.024 52.9983C127.946 52.9908 127.868 53.0002 127.794 53.0257C127.719 53.0513 127.652 53.0924 127.595 53.1463L66.9888 134.004Z" fill="#44382E"/>
<path d="M84.3833 117.276L81.6742 116.95L68.6914 134.27L78.6246 135.47C78.7993 135.488 78.976 135.466 79.1406 135.404C79.3051 135.343 79.4529 135.243 79.5721 135.114L92.2884 118.164L84.3833 117.276Z" fill="#E2DBD5"/>
<path d="M72.7956 131.376L72.6963 132.199L81.5733 133.27L81.6726 132.447L72.7956 131.376Z" fill="#44382E"/>
<path d="M82.1657 122.132L82.0664 122.955L88.636 123.748L88.7353 122.925L82.1657 122.132Z" fill="#44382E"/>
<path d="M80.2232 124.621L80.124 125.444L86.6937 126.235L86.7929 125.412L80.2232 124.621Z" fill="#44382E"/>
<path d="M76.7565 129.355L76.6572 130.178L83.2268 130.971L83.3261 130.148L76.7565 129.355Z" fill="#44382E"/>
<path d="M78.4693 126.977L78.3701 127.8L84.9398 128.591L85.039 127.768L78.4693 126.977Z" fill="#44382E"/>
<path d="M87.5484 114.876L87.4492 115.699L94.0189 116.49L94.1181 115.667L87.5484 114.876Z" fill="#44382E"/>
<path d="M85.7028 117.419L85.6035 118.242L92.1731 119.035L92.2724 118.212L85.7028 117.419Z" fill="#44382E"/>
<path d="M83.9352 119.776L83.8359 120.599L90.4055 121.391L90.5048 120.568L83.9352 119.776Z" fill="#44382E"/>
<path d="M96.3259 103.295L96.2266 104.118L102.796 104.91L102.895 104.087L96.3259 103.295Z" fill="#44382E"/>
<path d="M94.3492 105.784L94.25 106.607L100.82 107.399L100.919 106.576L94.3492 105.784Z" fill="#44382E"/>
<path d="M90.8287 110.511L90.7295 111.334L97.2992 112.126L97.3984 111.303L90.8287 110.511Z" fill="#44382E"/>
<path d="M92.5972 108.14L92.498 108.963L99.0678 109.755L99.1669 108.932L92.5972 108.14Z" fill="#44382E"/>
<path d="M101.66 96.0373L101.561 96.8604L108.13 97.6507L108.229 96.8277L101.66 96.0373Z" fill="#44382E"/>
<path d="M99.8033 98.5642L99.7041 99.3872L106.274 100.179L106.373 99.3557L99.8033 98.5642Z" fill="#44382E"/>
<path d="M98.0935 100.953L97.9941 101.776L104.564 102.569L104.663 101.745L98.0935 100.953Z" fill="#44382E"/>
<path d="M110.407 84.5061L110.308 85.3291L116.877 86.1218L116.976 85.2988L110.407 84.5061Z" fill="#44382E"/>
<path d="M108.458 87.0158L108.358 87.8389L114.928 88.6304L115.027 87.8074L108.458 87.0158Z" fill="#44382E"/>
<path d="M104.921 91.7282L104.822 92.5513L111.392 93.3428L111.491 92.5198L104.921 91.7282Z" fill="#44382E"/>
<path d="M106.673 89.3718L106.574 90.1948L113.144 90.9864L113.243 90.1633L106.673 89.3718Z" fill="#44382E"/>
<path d="M115.812 77.2707L115.713 78.0938L122.283 78.8853L122.382 78.0622L115.812 77.2707Z" fill="#44382E"/>
<path d="M113.879 79.7937L113.78 80.6167L120.35 81.4082L120.449 80.5852L113.879 79.7937Z" fill="#44382E"/>
<path d="M112.112 82.135L112.013 82.958L118.582 83.7495L118.682 82.9265L112.112 82.135Z" fill="#44382E"/>
<path d="M124.592 65.488L124.493 66.311L131.063 67.1026L131.162 66.2795L124.592 65.488Z" fill="#44382E"/>
<path d="M122.784 68.0251L122.685 68.8481L129.254 69.6408L129.353 68.8178L122.784 68.0251Z" fill="#44382E"/>
<path d="M119.247 72.7385L119.147 73.5615L125.717 74.3542L125.816 73.5312L119.247 72.7385Z" fill="#44382E"/>
<path d="M121.014 70.3967L120.915 71.2197L127.485 72.0124L127.584 71.1894L121.014 70.3967Z" fill="#44382E"/>
<path d="M130.03 58.2526L129.931 59.0757L136.5 59.8672L136.6 59.0442L130.03 58.2526Z" fill="#44382E"/>
<path d="M128.192 60.802L128.093 61.625L134.662 62.4177L134.762 61.5946L128.192 60.802Z" fill="#44382E"/>
<path d="M126.345 63.132L126.246 63.9551L132.816 64.7466L132.915 63.9236L126.345 63.132Z" fill="#44382E"/>
<path d="M101.143 93.5656L101.044 94.3887L109.921 95.4598L110.02 94.6367L101.143 93.5656Z" fill="#44382E"/>
<path d="M86.9732 112.336L86.874 113.159L95.7512 114.229L95.8504 113.406L86.9732 112.336Z" fill="#44382E"/>
<path d="M115.408 74.5612L115.309 75.3843L124.186 76.4554L124.285 75.6323L115.408 74.5612Z" fill="#44382E"/>
<path d="M129.422 55.7463L129.323 56.5693L138.2 57.6389L138.3 56.8158L129.422 55.7463Z" fill="#44382E"/>
<path d="M151.222 99.2745L158.238 86.4989L50.1718 23.5538C49.5864 23.2725 48.9357 23.1555 48.289 23.2155C47.6423 23.2755 47.0241 23.5101 46.5005 23.8943C45.0069 24.8686 43.7626 26.1798 42.8679 27.7225C41.9732 29.2651 41.4529 30.9962 41.3488 32.7765C41.297 33.3752 41.3911 33.9776 41.6231 34.5319C41.8552 35.0863 42.2182 35.576 42.6811 35.9593L42.9921 36.1665L151.222 99.2745Z" fill="white"/>
<path d="M51.1643 26.5738C50.5789 26.2925 49.9281 26.1756 49.2815 26.2355C48.6348 26.2955 48.0165 26.5301 47.4929 26.9143C46.4479 27.5382 45.5371 28.3635 44.8135 29.3421L149.016 90.0371L146.056 95.4108L151.429 98.5492L157.084 88.1866L51.1643 26.5738Z" fill="white"/>
<path d="M151.488 100.222L150.882 99.8667L42.6669 36.8179L42.3264 36.5959C41.7681 36.146 41.3271 35.5677 41.0409 34.9103C40.7548 34.253 40.632 33.5361 40.6832 32.821C40.7764 30.9104 41.3248 29.0497 42.2827 27.394C43.2406 25.7382 44.5803 24.3354 46.1902 23.3022C46.7368 22.9313 47.3574 22.6836 48.0092 22.5762C48.661 22.4689 49.3284 22.5044 49.9651 22.6804L50.5276 23.0061L159.231 86.2473L151.488 100.222ZM48.8252 23.8795C48.1351 23.9111 47.4657 24.1257 46.8859 24.5013C45.4876 25.4136 44.3236 26.6419 43.4878 28.0872C42.6521 29.5324 42.168 31.154 42.0747 32.821C42.0265 33.3108 42.0953 33.8052 42.2754 34.2633C42.4556 34.7214 42.742 35.1302 43.111 35.456L43.4071 35.6484L150.956 98.2531L157.306 86.7062L50.424 24.4717L49.8466 24.1312C49.5358 23.9548 49.1824 23.8677 48.8252 23.8795Z" fill="#44382E"/>
<path d="M16.9826 128.675L116.611 186.749L115.871 134.7L16.9678 77.0986V128.689L16.9826 128.675Z" fill="white"/>
<path d="M116.64 187.549L116.27 187.357L16.597 129.252L16.2861 129.06V76.6845L16.9819 76.27L17.352 76.4625L116.536 134.286V134.685L117.336 187.075L116.64 187.549ZM17.6629 128.334L115.929 185.595L115.204 135.129L17.6629 78.2981V128.334Z" fill="#44382E"/>
<path d="M17.3525 77.0693L27.1081 77.2618L115.93 129.356V134.67L17.3525 77.247C17.3289 77.247 17.3064 77.2376 17.2897 77.221C17.273 77.2043 17.2637 77.1817 17.2637 77.1582C17.2637 77.1346 17.273 77.112 17.2897 77.0953C17.3064 77.0787 17.3289 77.0693 17.3525 77.0693Z" fill="white"/>
<path d="M116.582 135.884L16.4941 77.5282L16.5978 76.9064C16.6431 76.7409 16.7415 76.5947 16.8779 76.4904C17.0143 76.3862 17.1811 76.3295 17.3528 76.3291L27.286 76.5067L27.4489 76.6104L116.567 128.897L116.582 135.884ZM19.6326 77.8095L115.19 133.471V129.755L26.9011 77.9427L19.6326 77.8095Z" fill="#44382E"/>
<path d="M168.779 86.5881L154.626 72.1841L155.9 69.9488C155.934 69.8872 155.944 69.815 155.927 69.7464C155.911 69.6779 155.869 69.618 155.811 69.5787L146.929 64.4418L146.662 64.2938C144.708 63.2871 141.481 65.3893 139.838 68.9865L118.343 115.677C116.704 119.077 115.806 122.785 115.708 126.558V184.944C115.679 185.312 115.732 185.681 115.863 186.027C115.993 186.372 116.198 186.685 116.463 186.942C116.593 187.045 116.738 187.13 116.892 187.194L126.337 192.597C126.381 192.624 126.431 192.64 126.483 192.644C126.535 192.648 126.587 192.64 126.634 192.619C126.682 192.599 126.724 192.568 126.758 192.528C126.791 192.488 126.814 192.44 126.825 192.39L129.786 180.65L167.831 158.682C168.825 158.031 169.651 157.156 170.245 156.128C170.839 155.099 171.184 153.946 171.251 152.76V94.434C171.47 91.5977 170.584 88.7867 168.779 86.5881Z" fill="white"/>
<path d="M170.792 90.8513L156.639 76.4473L157.913 74.212C157.947 74.1504 157.957 74.0782 157.94 74.0096C157.924 73.9411 157.882 73.8812 157.824 73.8419L148.941 68.705L148.675 68.557C146.721 67.5503 143.494 69.6524 141.851 73.2497L120.356 119.94C119.386 122.031 118.661 124.227 118.194 126.484L120.163 127.638L147.506 143.922L132.894 144.455C134.762 146.627 135.708 149.442 135.529 152.301V182.841L169.948 162.96C170.943 162.311 171.771 161.436 172.365 160.408C172.959 159.379 173.303 158.225 173.368 157.038V98.6824C173.553 95.8372 172.63 93.0305 170.792 90.8513Z" fill="white"/>
<path d="M126.663 193.396C126.486 193.397 126.312 193.351 126.159 193.263L116.715 187.845C116.52 187.782 116.343 187.676 116.196 187.534C115.829 187.214 115.541 186.814 115.354 186.365C115.166 185.916 115.085 185.429 115.116 184.943V126.558C115.208 122.688 116.127 118.882 117.81 115.396L139.246 68.6459C140.193 66.3608 141.993 64.5344 144.264 63.5535C144.701 63.3649 145.172 63.2676 145.648 63.2676C146.124 63.2676 146.595 63.3649 147.032 63.5535L147.373 63.7607L156.151 68.868C156.37 68.995 156.53 69.2028 156.596 69.4465C156.663 69.6903 156.63 69.9504 156.507 70.1707L155.485 71.9471L169.268 85.981C171.268 88.2802 172.283 91.2738 172.095 94.3154V152.701C172.032 154.011 171.656 155.287 170.999 156.423C170.343 157.559 169.424 158.521 168.32 159.229L130.541 181.154L127.58 192.626C127.54 192.779 127.465 192.921 127.363 193.041C127.26 193.161 127.132 193.257 126.988 193.322C126.883 193.361 126.774 193.386 126.663 193.396ZM145.685 64.7378C145.372 64.7409 145.062 64.7959 144.768 64.9006C142.852 65.7923 141.349 67.3805 140.563 69.3417L119.009 116.018C117.414 119.324 116.541 122.932 116.448 126.602V184.988C116.424 185.257 116.457 185.529 116.547 185.784C116.636 186.039 116.779 186.273 116.966 186.468C117.044 186.55 117.141 186.611 117.248 186.646L126.381 191.871L129.342 180.295L167.639 158.193C168.526 157.601 169.263 156.811 169.795 155.887C170.326 154.963 170.637 153.928 170.703 152.864V94.4339C170.888 91.7447 170.017 89.0897 168.276 87.032L153.768 72.2284L155.1 69.9042L146.618 64.9894L146.381 64.8414C146.141 64.7497 145.882 64.7143 145.626 64.7378H145.685Z" fill="#44382E"/>
<path d="M149.445 74.5672L127.95 121.258C126.321 124.66 125.428 128.368 125.33 132.139V190.48C125.33 192.656 126.81 193.544 128.75 192.463L177.602 164.337C178.597 163.687 179.425 162.813 180.019 161.784C180.613 160.756 180.956 159.601 181.021 158.415V99.9703C181.199 97.1141 180.259 94.3007 178.401 92.1244L156.862 70.2446C155.026 68.3793 151.281 70.5554 149.445 74.5672Z" fill="#E2DBD5"/>
<path d="M127.225 193.619C126.789 193.623 126.36 193.51 125.982 193.293C125.526 192.988 125.161 192.565 124.924 192.071C124.687 191.576 124.587 191.027 124.635 190.48V132.095C124.727 128.224 125.646 124.419 127.329 120.933L148.868 74.2271C149.363 72.9698 150.135 71.8404 151.127 70.9228C152.119 70.0052 153.305 69.3232 154.597 68.9274C155.096 68.8207 155.613 68.8407 156.102 68.9855C156.591 69.1303 157.035 69.3954 157.395 69.7564L178.89 91.6362C180.89 93.9354 181.906 96.929 181.718 99.9706V158.356C181.654 159.666 181.278 160.943 180.622 162.078C179.965 163.214 179.047 164.176 177.943 164.885L129.091 193.012C128.532 193.372 127.889 193.581 127.225 193.619ZM155.204 70.2597H154.79C153.728 70.6103 152.756 71.1897 151.942 71.9571C151.129 72.7245 150.494 73.6611 150.082 74.7008L128.587 121.51C126.992 124.816 126.119 128.425 126.026 132.095V190.48C125.983 190.774 126.029 191.073 126.158 191.34C126.287 191.608 126.493 191.83 126.75 191.978C127.007 192.126 127.303 192.194 127.599 192.173C127.894 192.151 128.177 192.041 128.41 191.857L177.262 163.73C178.152 163.141 178.894 162.353 179.429 161.428C179.963 160.503 180.275 159.467 180.341 158.401V99.9706C180.525 97.2815 179.654 94.6264 177.913 92.5688L156.418 70.689C156.261 70.5307 156.071 70.4098 155.86 70.3355C155.65 70.2611 155.426 70.2352 155.204 70.2597Z" fill="#44382E"/>
<path d="M160.015 89.9631C159.911 91.7434 159.391 93.4745 158.496 95.0171C157.601 96.5598 156.357 97.871 154.864 98.8453C152.021 100.489 149.712 99.1562 149.712 95.8846C149.818 94.1048 150.339 92.3746 151.234 90.8323C152.129 89.29 153.372 87.9784 154.864 87.0024C157.75 85.3444 160.015 86.6767 160.015 89.9631Z" fill="#A1A1A1"/>
<path d="M157.129 88.4089C157.022 90.1887 156.501 91.9189 155.607 93.4611C154.712 95.0034 153.469 96.315 151.977 97.2911C149.12 98.9343 146.811 97.602 146.811 94.3304C146.915 92.5485 147.437 90.8161 148.335 89.2732C149.232 87.7303 150.48 86.42 151.977 85.4482C154.79 83.7902 157.129 85.1225 157.129 88.4089Z" fill="#DEDEDE"/>
<path d="M152.554 100.296C151.963 100.305 151.381 100.157 150.866 99.8666C150.233 99.4369 149.726 98.8445 149.401 98.1516C149.075 97.4587 148.942 96.6909 149.016 95.9289C149.104 94.0152 149.651 92.1506 150.609 90.4918C151.567 88.8329 152.909 87.4281 154.523 86.3953C155.121 85.896 155.857 85.5922 156.633 85.5249C157.409 85.4577 158.187 85.6303 158.862 86.0193C159.537 86.4084 160.076 86.9952 160.407 87.7005C160.737 88.4057 160.843 89.1955 160.711 89.963C160.622 91.8767 160.076 93.7412 159.118 95.4001C158.159 97.059 156.817 98.4638 155.204 99.4966C154.406 99.9911 153.492 100.267 152.554 100.296ZM157.158 86.9727C156.463 87.0058 155.79 87.2202 155.204 87.5944C153.804 88.5082 152.638 89.7389 151.802 91.1869C150.967 92.6349 150.484 94.2594 150.393 95.9289C150.26 96.4519 150.303 97.0037 150.514 97.5003C150.724 97.9969 151.092 98.411 151.559 98.6793C152.027 98.9477 152.57 99.0556 153.105 98.9867C153.64 98.9177 154.138 98.6757 154.523 98.2975C155.923 97.3837 157.088 96.153 157.924 94.705C158.76 93.257 159.243 91.6325 159.334 89.963C159.398 89.4439 159.324 88.917 159.119 88.4359C158.913 87.9549 158.584 87.5368 158.164 87.2243C157.856 87.0565 157.509 86.9698 157.158 86.9727Z" fill="#44382E"/>
</svg>
