<svg width="97" height="97" viewBox="0 0 97 97" fill="none" xmlns="http://www.w3.org/2000/svg">
<path d="M59.0149 40.6168H55.0149V37.9496C55.0149 36.4768 53.8209 35.2832 52.3481 35.2832H44.3481C42.8753 35.2832 41.6817 36.4768 41.6817 37.9496V40.6168H37.6817C34.7365 40.6168 32.3481 43.0044 32.3481 45.9496V61.9496H64.3481V45.9496C64.3481 43.0044 61.9601 40.6168 59.0149 40.6168ZM61.6813 45.9496V49.9496H57.6813V43.2832H59.0149C60.4849 43.2832 61.6813 44.4784 61.6813 45.9496ZM44.3481 37.9496H52.3481V40.6168H44.3481V37.9496ZM55.0149 43.2832V49.9496H41.6817V43.2832H55.0149ZM37.6817 43.2832H39.0145V49.9496H35.0145V45.9496C35.0145 44.48 36.2113 43.2832 37.6817 43.2832ZM35.0145 59.2832V52.6168H39.0145V55.2832H41.6817V52.6168H55.0149V55.2832H57.6813V52.6168H61.6813V59.2832H35.0145Z" fill="#FF7A1B"/>
</svg>
