<svg width="96" height="96" viewBox="0 0 96 96" fill="none" xmlns="http://www.w3.org/2000/svg">
<path d="M58.6668 40.0006H54.6668V37.3334C54.6668 35.8606 53.4728 34.667 52 34.667H44C42.5272 34.667 41.3336 35.8606 41.3336 37.3334V40.0006H37.3336C34.3884 40.0006 32 42.3882 32 45.3334V61.3334H64V45.3334C64 42.3882 61.612 40.0006 58.6668 40.0006ZM61.3332 45.3334V49.3334H57.3332V42.667H58.6668C60.1368 42.667 61.3332 43.8622 61.3332 45.3334ZM44 37.3334H52V40.0006H44V37.3334ZM54.6668 42.667V49.3334H41.3336V42.667H54.6668ZM37.3336 42.667H38.6664V49.3334H34.6664V45.3334C34.6664 43.8638 35.8632 42.667 37.3336 42.667ZM34.6664 58.667V52.0006H38.6664V54.667H41.3336V52.0006H54.6668V54.667H57.3332V52.0006H61.3332V58.667H34.6664Z" fill="white"/>
</svg>
