<svg width="1920" height="788" viewBox="0 0 1920 788" fill="none" xmlns="http://www.w3.org/2000/svg">
<mask id="mask0_234_4339" style="mask-type:alpha" maskUnits="userSpaceOnUse" x="0" y="0" width="1920" height="788">
<rect y="0.5" width="1920" height="787" fill="#C4C4C4"/>
</mask>
<g mask="url(#mask0_234_4339)">
<path d="M1670.91 648.99V433.7H1661.91V648.99C1661.91 730.99 1728.6 797.66 1810.58 797.66H2029.18V788.66H1810.57C1733.56 788.65 1670.91 726 1670.91 648.99Z" fill="#645C56"/>
<path d="M1691.94 648.99V433.7H1682.94V648.99C1682.97 682.831 1696.43 715.276 1720.36 739.207C1744.29 763.138 1776.73 776.6 1810.57 776.64H2029.18V767.64H1810.57C1779.11 767.606 1748.96 755.094 1726.72 732.849C1704.48 710.605 1691.97 680.446 1691.94 648.99Z" fill="#645C56"/>
<path d="M1712.96 648.99V433.7H1703.96V648.99C1703.99 677.257 1715.23 704.357 1735.22 724.347C1755.21 744.336 1782.3 755.583 1810.57 755.62H2029.18V746.62H1810.57C1784.69 746.591 1759.88 736.295 1741.58 717.992C1723.28 699.688 1712.98 674.872 1712.96 648.99Z" fill="#645C56"/>
<path d="M1733.98 648.99V433.7H1724.98V648.99C1725.01 671.685 1734.03 693.442 1750.08 709.489C1766.13 725.537 1787.89 734.564 1810.58 734.59H2029.18V725.59H1810.57C1790.26 725.566 1770.79 717.488 1756.44 703.128C1742.08 688.767 1734 669.298 1733.98 648.99Z" fill="#645C56"/>
<path d="M1755.01 648.99V433.7H1746.01V648.99C1746.03 666.111 1752.83 682.527 1764.94 694.634C1777.04 706.741 1793.46 713.552 1810.58 713.57H2029.18V704.57H1810.57C1795.84 704.552 1781.71 698.689 1771.3 688.269C1760.88 677.85 1755.02 663.723 1755.01 648.99Z" fill="#645C56"/>
<path d="M1776.03 648.99V433.7H1767.03V648.99C1767.06 660.528 1771.65 671.585 1779.81 679.741C1787.97 687.896 1799.03 692.484 1810.57 692.5H2029.18V683.5H1810.57C1801.42 683.492 1792.64 679.855 1786.17 673.385C1779.69 666.916 1776.05 658.143 1776.03 648.99Z" fill="#645C56"/>
<path d="M1503.67 424.69H1777.53C1854.54 424.69 1917.19 362.04 1917.21 285.03V-4.5H1926.21V285.03C1926.21 367.01 1859.53 433.7 1777.53 433.7H1503.67C1421.75 433.7 1355 367.03 1355 285.05C1355 203.07 1421.67 136.38 1503.67 136.38H1627.35C1709.33 136.38 1776.02 203.05 1776.02 285.05H1775.93C1776.02 286.34 1776.02 288.1 1776.02 290.56L1775.94 319.56H1766.94C1766.94 319.56 1767.02 296.55 1767.02 288.03V285.03C1767.02 208.02 1704.36 145.37 1627.36 145.37H1503.67C1426.66 145.37 1364.01 208.02 1364.01 285.03C1364.01 362.04 1426.67 424.69 1503.67 424.69Z" fill="#645C56"/>
<path fill-rule="evenodd" clip-rule="evenodd" d="M1777.53 403.67H1503.67C1472.2 403.67 1442.03 391.17 1419.78 368.921C1397.53 346.672 1385.03 316.495 1385.03 285.03C1385.03 253.565 1397.53 223.388 1419.78 201.139C1442.03 178.89 1472.2 166.39 1503.67 166.39H1627.36C1658.81 166.427 1688.97 178.938 1711.21 201.18C1733.45 223.421 1745.96 253.576 1746 285.03V319.57H1733.97L1734.03 301.99C1734.03 292.78 1734.03 287.82 1733.76 284.99H1734.03C1733.99 256.721 1722.73 229.623 1702.73 209.642C1682.74 189.661 1655.63 178.429 1627.36 178.41H1503.67C1475.39 178.41 1448.27 189.643 1428.28 209.638C1408.28 229.633 1397.05 256.753 1397.05 285.03C1397.05 313.307 1408.28 340.427 1428.28 360.422C1448.27 380.417 1475.39 391.65 1503.67 391.65H1777.53C1805.8 391.618 1832.9 380.375 1852.89 360.387C1872.88 340.399 1884.13 313.299 1884.16 285.03V-4.5H1875.16V285.03C1875.13 310.911 1864.83 335.724 1846.53 354.023C1828.23 372.322 1803.41 382.614 1777.53 382.64H1503.67C1477.78 382.64 1452.95 372.356 1434.65 354.051C1416.34 335.745 1406.06 310.918 1406.06 285.03C1406.06 259.142 1416.34 234.315 1434.65 216.009C1452.95 197.704 1477.78 187.42 1503.67 187.42H1627.36C1653.24 187.449 1678.05 197.742 1696.35 216.041C1714.65 234.341 1724.94 259.151 1724.97 285.03V319.57H1712.95V301.99C1712.95 292.78 1712.95 287.82 1712.68 284.99H1712.95C1712.92 262.296 1703.9 240.538 1687.85 224.491C1671.8 208.444 1650.04 199.416 1627.35 199.39H1503.67C1480.97 199.39 1459.2 208.409 1443.14 224.462C1427.09 240.515 1418.07 262.287 1418.07 284.99C1418.07 307.693 1427.09 329.465 1443.14 345.518C1459.2 361.571 1480.97 370.59 1503.67 370.59H1777.53C1800.22 370.564 1821.98 361.536 1838.03 345.489C1854.08 329.442 1863.1 307.684 1863.13 284.99V-4.5H1854.13V285.03C1854.11 305.337 1846.03 324.806 1831.67 339.165C1817.31 353.523 1797.84 361.599 1777.53 361.62H1503.67C1483.36 361.62 1463.88 353.551 1449.51 339.187C1435.15 324.824 1427.08 305.343 1427.08 285.03C1427.08 264.717 1435.15 245.236 1449.51 230.873C1463.88 216.509 1483.36 208.44 1503.67 208.44H1627.36C1647.67 208.464 1667.13 216.541 1681.49 230.899C1695.85 245.257 1703.93 264.724 1703.95 285.03V319.57H1691.93V301.7C1691.93 292.7 1691.93 287.78 1691.66 285.03H1691.93C1691.9 267.918 1685.09 251.515 1672.98 239.418C1660.88 227.322 1644.47 220.519 1627.36 220.5H1503.67C1486.54 220.5 1470.12 227.303 1458.01 239.412C1445.9 251.521 1439.1 267.945 1439.1 285.07C1439.1 302.195 1445.9 318.619 1458.01 330.728C1470.12 342.837 1486.54 349.64 1503.67 349.64H1777.53C1794.65 349.624 1811.07 342.816 1823.17 330.711C1835.28 318.605 1842.09 302.191 1842.11 285.07V-4.5H1833.11V285.03C1833.09 299.763 1827.23 313.887 1816.81 324.303C1806.39 334.72 1792.26 340.577 1777.53 340.59H1503.67C1488.93 340.59 1474.8 334.736 1464.38 324.317C1453.96 313.897 1448.11 299.765 1448.11 285.03C1448.11 270.295 1453.96 256.163 1464.38 245.743C1474.8 235.324 1488.93 229.47 1503.67 229.47H1627.36C1642.09 229.486 1656.21 235.344 1666.63 245.76C1677.05 256.176 1682.91 270.299 1682.93 285.03V319.57H1670.91V301.697C1670.91 292.699 1670.91 287.78 1670.64 285.03H1670.91C1670.89 273.487 1666.3 262.423 1658.13 254.263C1649.97 246.103 1638.9 241.513 1627.36 241.5H1503.67C1492.12 241.5 1481.04 246.088 1472.88 254.255C1464.71 262.423 1460.12 273.5 1460.12 285.05C1460.12 296.6 1464.71 307.677 1472.88 315.844C1481.04 324.012 1492.12 328.6 1503.67 328.6H1777.53C1789.08 328.587 1800.15 323.994 1808.31 315.83C1816.47 307.666 1821.07 296.596 1821.08 285.05V-4.5H1812.08V285.03C1812.07 294.188 1808.43 302.969 1801.95 309.445C1795.48 315.92 1786.7 319.562 1777.54 319.57H1755V301.99C1755 292.78 1755 287.82 1754.72 284.99H1755C1754.95 251.156 1741.48 218.723 1717.56 194.801C1693.63 170.88 1661.19 157.422 1627.36 157.38H1503.67C1469.83 157.42 1437.38 170.882 1413.45 194.812C1389.53 218.743 1376.07 251.188 1376.03 285.03C1376.03 355.41 1433.29 412.68 1503.67 412.68H1777.53C1811.37 412.64 1843.82 399.179 1867.75 375.248C1891.68 351.318 1905.14 318.873 1905.18 285.03V-4.5H1896.18V285.03C1896.14 316.486 1883.63 346.645 1861.39 368.887C1839.14 391.129 1808.99 403.638 1777.53 403.67ZM1503.67 319.57H1661.9V285.03C1661.89 275.872 1658.25 267.091 1651.77 260.615C1645.3 254.14 1636.52 250.498 1627.36 250.49H1503.67C1494.51 250.49 1485.72 254.129 1479.25 260.607C1472.77 267.084 1469.13 275.869 1469.13 285.03C1469.13 294.191 1472.77 302.976 1479.25 309.453C1485.72 315.931 1494.51 319.57 1503.67 319.57Z" fill="#645C56"/>
<path d="M339.64 375.13C351.19 375.13 362.267 370.542 370.435 362.375C378.602 354.207 383.19 343.13 383.19 331.58C383.19 320.03 378.602 308.953 370.435 300.785C362.267 292.618 351.19 288.03 339.64 288.03H-30.36C-107.36 288.03 -170.02 225.38 -170.02 148.37C-170.02 71.36 -107.34 8.71 -30.33 8.71H69.33C75.6024 8.70693 81.7998 7.34584 87.4963 4.72028C93.1927 2.09473 98.2533 -1.73305 102.33 -6.5L89.02 -6.5C83.2493 -2.45989 76.3744 -0.295095 69.33 -0.3H-30.33C-112.33 -0.3 -179 66.39 -179 148.37C-179 230.35 -112.3 297.04 -30.33 297.04H339.67C348.831 297.04 357.616 300.679 364.093 307.157C370.571 313.634 374.21 322.419 374.21 331.58C374.21 340.741 370.571 349.526 364.093 356.003C357.616 362.481 348.831 366.12 339.67 366.12H-35.83C-33.6967 369.047 -31.6734 372.047 -29.7601 375.12L339.64 375.13Z" fill="#645C56"/>
<path d="M339.641 396.15C356.766 396.15 373.19 389.347 385.299 377.238C397.408 365.129 404.211 348.705 404.211 331.58C404.211 314.455 397.408 298.031 385.299 285.922C373.19 273.813 356.766 267.01 339.641 267.01H-30.3588C-61.8241 267.01 -92.0006 254.51 -114.25 232.261C-136.499 210.012 -148.999 179.835 -148.999 148.37C-148.999 116.905 -136.499 86.7282 -114.25 64.4789C-92.0006 42.2295 -61.8241 29.73 -30.3588 29.73H69.3013C81.3854 29.7174 93.2237 26.3157 103.471 19.9113C113.719 13.5068 121.964 4.3565 127.271 -6.5L117.041 -6.5C112.131 1.78394 105.151 8.64883 96.7869 13.4209C88.4225 18.193 78.9612 20.7083 69.3313 20.72H-30.3287C-100.709 20.72 -157.969 77.99 -157.969 148.37C-157.969 218.75 -100.709 276.02 -30.3287 276.02H339.671C354.407 276.02 368.539 281.874 378.958 292.293C389.378 302.713 395.231 316.845 395.231 331.58C395.231 346.315 389.378 360.447 378.958 370.867C368.539 381.286 354.407 387.14 339.671 387.14H-23.0887C-21.6187 390.14 -20.2287 393.14 -18.9487 396.14L339.641 396.15Z" fill="#645C56"/>
<path d="M339.641 417.18C362.343 417.18 384.116 408.161 400.169 392.108C416.222 376.055 425.241 354.283 425.241 331.58C425.241 308.877 416.222 287.105 400.169 271.052C384.116 254.999 362.343 245.98 339.641 245.98H-30.3593C-56.247 245.98 -81.0745 235.696 -99.3799 217.391C-117.685 199.085 -127.969 174.258 -127.969 148.37C-127.969 122.482 -117.685 97.6547 -99.3799 79.3493C-81.0745 61.0439 -56.247 50.76 -30.3593 50.76H69.3008C87.0355 50.7431 104.329 45.2272 118.798 34.9722C133.267 24.7172 144.2 10.2278 150.091 -6.5L140.461 -6.5C134.78 7.72692 124.968 19.9264 112.29 28.5261C99.6127 37.1259 84.65 41.7317 69.3308 41.75H-30.3292C-58.6066 41.75 -85.7258 52.9831 -105.721 72.9783C-125.716 92.9734 -136.949 120.093 -136.949 148.37C-136.949 176.647 -125.716 203.767 -105.721 223.762C-85.7258 243.757 -58.6066 254.99 -30.3292 254.99H339.671C359.984 254.99 379.465 263.059 393.828 277.423C408.192 291.786 416.261 311.267 416.261 331.58C416.261 351.893 408.192 371.374 393.828 385.737C379.465 400.101 359.984 408.17 339.671 408.17H-14.5292C-13.5292 411.17 -12.7292 414.17 -11.9692 417.17L339.641 417.18Z" fill="#645C56"/>
<path d="M339.64 438.2C367.918 438.2 395.037 426.967 415.032 406.972C435.027 386.977 446.26 359.857 446.26 331.58C446.26 303.303 435.027 276.183 415.032 256.188C395.037 236.193 367.918 224.96 339.64 224.96H-30.3597C-50.6726 224.96 -70.1536 216.891 -84.517 202.527C-98.8804 188.164 -106.95 168.683 -106.95 148.37C-106.95 128.057 -98.8804 108.576 -84.517 94.2127C-70.1536 79.8493 -50.6726 71.78 -30.3597 71.78H69.3004C92.6341 71.7534 115.317 64.0859 133.881 49.9496C152.445 35.8134 165.869 15.9864 172.1 -6.5L162.73 -6.5C156.628 13.5236 144.261 31.0602 127.448 43.5297C110.635 55.9993 90.263 62.7435 69.3304 62.77H-30.3297C-53.0322 62.77 -74.8049 71.7885 -90.858 87.8417C-106.911 103.895 -115.93 125.667 -115.93 148.37C-115.93 171.073 -106.911 192.845 -90.858 208.898C-74.8049 224.951 -53.0322 233.97 -30.3297 233.97H339.67C352.489 233.97 365.182 236.495 377.024 241.4C388.867 246.305 399.627 253.495 408.691 262.559C417.755 271.623 424.945 282.384 429.85 294.226C434.756 306.069 437.28 318.762 437.28 331.58C437.28 344.398 434.756 357.091 429.85 368.934C424.945 380.776 417.755 391.537 408.691 400.601C399.627 409.665 388.867 416.855 377.024 421.76C365.182 426.665 352.489 429.19 339.67 429.19H-9.49969C-9.0097 432.19 -8.58961 435.19 -8.28961 438.19L339.64 438.2Z" fill="#645C56"/>
<path d="M339.64 182.91H-30.3602C-34.896 182.91 -39.3875 182.017 -43.5781 180.281C-47.7687 178.545 -51.5763 176.001 -54.7836 172.793C-57.991 169.586 -60.5351 165.778 -62.2709 161.588C-64.0067 157.397 -64.9001 152.906 -64.9001 148.37C-64.9001 143.834 -64.0067 139.343 -62.2709 135.152C-60.5351 130.962 -57.991 127.154 -54.7836 123.947C-51.5763 120.739 -47.7687 118.195 -43.5781 116.459C-39.3875 114.723 -34.896 113.83 -30.3602 113.83H69.2999C141.59 113.83 201.96 61.96 215.23 -6.5H206.07C192.93 56.97 136.6 104.82 69.2999 104.82H-30.3602C-41.9103 104.82 -52.9875 109.408 -61.1547 117.576C-69.3219 125.743 -73.9102 136.82 -73.9102 148.37C-73.9102 159.92 -69.3219 170.997 -61.1547 179.165C-52.9875 187.332 -41.9103 191.92 -30.3602 191.92H339.64C416.64 191.92 479.31 254.57 479.31 331.58C479.31 408.59 416.65 471.24 339.64 471.24H-7.53009V480.24H339.64C421.64 480.24 488.32 413.55 488.32 331.57C488.32 249.59 421.62 182.91 339.64 182.91Z" fill="#645C56"/>
<path d="M-7.5296 459.23H339.64C356.404 459.23 373.003 455.928 388.49 449.513C403.977 443.098 418.049 433.696 429.903 421.842C441.756 409.989 451.159 395.917 457.574 380.43C463.989 364.942 467.29 348.343 467.29 331.58C467.29 314.817 463.989 298.218 457.574 282.73C451.159 267.243 441.756 253.171 429.903 241.318C418.049 229.464 403.977 220.062 388.49 213.647C373.003 207.232 356.404 203.93 339.64 203.93H-30.3597C-45.0951 203.93 -59.227 198.076 -69.6465 187.657C-80.066 177.237 -85.9197 163.105 -85.9197 148.37C-85.9197 133.635 -80.066 119.503 -69.6465 109.083C-59.227 98.6636 -45.0951 92.81 -30.3597 92.81H69.3004C129.95 92.81 180.81 50.28 193.74 -6.5H184.49C178.122 19.2482 163.323 42.1257 142.448 58.4897C121.574 74.8537 95.8244 83.7633 69.3004 83.8H-30.3597C-47.4847 83.8 -63.9083 90.6029 -76.0175 102.712C-88.1267 114.821 -94.9297 131.245 -94.9297 148.37C-94.9297 165.495 -88.1267 181.919 -76.0175 194.028C-63.9083 206.137 -47.4847 212.94 -30.3597 212.94H339.64C371.106 212.94 401.282 225.44 423.531 247.689C445.781 269.938 458.28 300.115 458.28 331.58C458.28 363.045 445.781 393.222 423.531 415.471C401.282 437.72 371.106 450.22 339.64 450.22H-7.60968C-7.60968 451.22 -7.5296 452.22 -7.5296 453.22V459.23Z" fill="#645C56"/>
<path d="M819.865 239.385C811.698 247.553 807.11 258.63 807.11 270.18L807.12 787.189C807.12 788.676 807.89 790.054 809.14 790.86C812.099 792.769 816.12 790.704 816.12 787.183L816.12 270.15C816.12 260.989 819.759 252.204 826.237 245.726C832.714 239.249 841.499 235.61 850.66 235.61C859.821 235.61 868.606 239.249 875.083 245.726C881.561 252.204 885.2 260.989 885.2 270.15V640.15C885.2 722.12 951.89 788.82 1033.87 788.82C1115.85 788.82 1182.54 722.15 1182.54 640.15V540.49C1182.54 533.445 1184.7 526.571 1188.74 520.8V507.49C1183.97 511.567 1180.15 516.627 1177.52 522.324C1174.89 528.02 1173.53 534.217 1173.53 540.49V640.15C1173.53 717.16 1110.88 779.84 1033.87 779.84C956.86 779.84 894.21 717.18 894.21 640.18V270.18C894.21 258.63 889.622 247.553 881.454 239.385C873.287 231.218 862.21 226.63 850.66 226.63C839.11 226.63 828.033 231.218 819.865 239.385Z" fill="#645C56"/>
<path d="M805.002 224.522C792.893 236.631 786.09 253.055 786.09 270.18L786.1 775.879C786.1 777.632 787.125 779.202 788.726 779.917C791.681 781.239 795.1 779.13 795.1 775.892L795.1 270.15C795.1 255.414 800.954 241.282 811.373 230.863C821.793 220.443 835.925 214.59 850.66 214.59C865.395 214.59 879.527 220.443 889.947 230.863C900.366 241.282 906.22 255.414 906.22 270.15V640.15C906.22 710.53 963.49 767.79 1033.87 767.79C1104.25 767.79 1161.52 710.53 1161.52 640.15V540.49C1161.53 530.86 1164.05 521.398 1168.82 513.034C1173.59 504.67 1180.46 497.69 1188.74 492.78V482.55C1177.88 487.857 1168.73 496.102 1162.33 506.35C1155.92 516.597 1152.52 528.435 1152.51 540.52V640.18C1152.51 671.645 1140.01 701.821 1117.76 724.071C1095.51 746.32 1065.34 758.82 1033.87 758.82C1002.4 758.82 972.228 746.32 949.979 724.071C927.73 701.821 915.23 671.645 915.23 640.18V270.18C915.23 253.055 908.427 236.631 896.318 224.522C884.209 212.412 867.785 205.61 850.66 205.61C833.535 205.61 817.111 212.412 805.002 224.522Z" fill="#645C56"/>
<path d="M765.06 270.18C765.06 247.477 774.079 225.704 790.132 209.651C806.185 193.598 827.957 184.58 850.66 184.58C873.363 184.58 895.135 193.598 911.188 209.651C927.241 225.704 936.26 247.477 936.26 270.18V640.18C936.26 666.067 946.544 690.895 964.849 709.2C983.155 727.506 1007.98 737.79 1033.87 737.79C1059.76 737.79 1084.59 727.506 1102.89 709.2C1121.2 690.895 1131.48 666.067 1131.48 640.18V540.52C1131.5 522.785 1137.01 505.492 1147.27 491.023C1157.52 476.554 1172.01 465.62 1188.74 459.73V469.36C1174.51 475.041 1162.31 484.852 1153.71 497.53C1145.11 510.208 1140.51 525.17 1140.49 540.49V640.15C1140.49 668.427 1129.26 695.546 1109.26 715.541C1089.27 735.536 1062.15 746.77 1033.87 746.77C1005.59 746.77 978.473 735.536 958.478 715.541C938.483 695.546 927.25 668.427 927.25 640.15V270.15C927.25 249.837 919.181 230.356 904.817 215.992C890.454 201.629 870.973 193.56 850.66 193.56C830.347 193.56 810.866 201.629 796.503 215.992C782.139 230.356 774.07 249.837 774.07 270.15L774.07 768.354C774.07 771.303 771.152 773.4 768.304 772.632C766.394 772.117 765.07 770.404 765.07 768.426L765.06 270.18Z" fill="#645C56"/>
<path d="M775.268 194.788C755.273 214.783 744.04 241.902 744.04 270.18L744.05 764.161C744.05 766.402 745.74 768.272 747.963 768.565C750.63 768.916 753.05 766.876 753.05 764.186L753.05 270.15C753.05 257.331 755.575 244.638 760.48 232.796C765.385 220.953 772.575 210.193 781.639 201.129C790.703 192.065 801.464 184.875 813.306 179.97C825.149 175.064 837.842 172.54 850.66 172.54C863.478 172.54 876.171 175.064 888.014 179.97C899.856 184.875 910.617 192.065 919.681 201.129C928.745 210.193 935.935 220.953 940.84 232.796C945.745 244.638 948.27 257.331 948.27 270.15V640.15C948.27 662.852 957.289 684.625 973.342 700.678C989.395 716.731 1011.17 725.75 1033.87 725.75C1056.57 725.75 1078.35 716.731 1094.4 700.678C1110.45 684.625 1119.47 662.852 1119.47 640.15V540.49C1119.5 519.557 1126.24 499.185 1138.71 482.372C1151.18 465.559 1168.72 453.191 1188.74 447.09V437.72C1166.25 443.951 1146.43 457.374 1132.29 475.939C1118.15 494.503 1110.49 517.186 1110.46 540.52V640.18C1110.46 660.492 1102.39 679.973 1088.03 694.337C1073.66 708.7 1054.18 716.77 1033.87 716.77C1013.56 716.77 994.076 708.7 979.713 694.337C965.349 679.973 957.28 660.492 957.28 640.18V270.18C957.28 241.902 946.047 214.783 926.052 194.788C906.057 174.793 878.937 163.56 850.66 163.56C822.383 163.56 795.263 174.793 775.268 194.788Z" fill="#645C56"/>
<path d="M999.33 270.18V640.18C999.33 644.716 1000.22 649.207 1001.96 653.398C1003.7 657.589 1006.24 661.396 1009.45 664.604C1012.65 667.811 1016.46 670.355 1020.65 672.091C1024.84 673.827 1029.33 674.72 1033.87 674.72C1038.41 674.72 1042.9 673.827 1047.09 672.091C1051.28 670.355 1055.09 667.811 1058.29 664.604C1061.5 661.396 1064.04 657.589 1065.78 653.398C1067.52 649.207 1068.41 644.716 1068.41 640.18L1068.41 540.52C1068.41 468.23 1120.28 407.86 1188.74 394.59V403.75C1125.27 416.89 1077.42 473.22 1077.42 540.52V640.18C1077.42 651.73 1072.83 662.807 1064.66 670.975C1056.5 679.142 1045.42 683.73 1033.87 683.73C1022.32 683.73 1011.24 679.142 1003.08 670.975C994.908 662.807 990.32 651.73 990.32 640.18L990.32 270.18C990.32 193.18 927.67 130.51 850.66 130.51C773.65 130.51 711 193.17 711 270.18L711 762.85C711 765.335 708.985 767.35 706.5 767.35C704.015 767.35 702 765.335 702 762.85L702 270.18C702 188.18 768.69 121.5 850.67 121.5C932.65 121.5 999.33 188.2 999.33 270.18Z" fill="#645C56"/>
<path d="M727.475 767.389C725.003 767.367 723.01 765.357 723.01 762.884L723.01 270.18C723.01 253.416 726.312 236.817 732.727 221.33C739.142 205.843 748.544 191.771 760.398 179.917C772.251 168.064 786.323 158.661 801.81 152.246C817.298 145.831 833.897 142.53 850.66 142.53C867.423 142.53 884.022 145.831 899.51 152.246C914.997 158.661 929.069 168.064 940.922 179.917C952.776 191.771 962.178 205.843 968.593 221.33C975.008 236.817 978.31 253.416 978.31 270.18V640.18C978.31 654.915 984.164 669.047 994.583 679.466C1005 689.886 1019.13 695.74 1033.87 695.74C1048.61 695.74 1062.74 689.886 1073.16 679.466C1083.58 669.047 1089.43 654.915 1089.43 640.18V540.52C1089.43 479.87 1131.96 429.01 1188.74 416.08V425.33C1162.99 431.698 1140.11 446.497 1123.75 467.372C1107.39 488.246 1098.48 513.996 1098.44 540.52L1098.44 640.18C1098.44 657.305 1091.64 673.728 1079.53 685.837C1067.42 697.947 1051 704.75 1033.87 704.75C1016.74 704.75 1000.32 697.947 988.212 685.837C976.103 673.728 969.3 657.305 969.3 640.18V270.18C969.3 238.714 956.8 208.538 934.551 186.288C912.302 164.039 882.125 151.54 850.66 151.54C819.195 151.54 789.018 164.039 766.769 186.288C744.52 208.538 732.02 238.714 732.02 270.18L732.02 762.884C732.02 765.388 729.979 767.411 727.475 767.389Z" fill="#645C56"/>
</g>
</svg>
