<svg width="200" height="200" viewBox="0 0 200 200" fill="none" xmlns="http://www.w3.org/2000/svg">
<path d="M98.5539 57.2307C93.3945 54.2538 89.222 47.0242 89.222 41.0705C89.222 38.1738 90.217 36.1197 91.8298 35.1167L16.0196 82.458L13.2192 84.2233L9.76893 86.3977C4.99468 83.3165 0.766046 85.4268 0.453112 91.0998C0.116106 97.1659 4.41696 104.853 9.76893 107.95L110.285 165.402C110.556 165.557 110.863 165.639 111.176 165.639C111.488 165.639 111.795 165.557 112.066 165.402L199.198 115.436L98.5539 57.2307Z" fill="white"/>
<path d="M194.664 115.58C194.664 115.235 108.134 163.885 108.134 163.885C108.463 164.077 108.134 163.885 110.477 165.401C110.745 165.564 111.053 165.65 111.367 165.65C111.682 165.65 111.99 165.564 112.258 165.401L199.39 115.436L194.664 115.58Z" fill="#FF7A1B"/>
<path d="M111.167 166.027C110.787 166.027 110.414 165.927 110.084 165.738L9.52753 108.223C4.03112 105.013 -0.325862 97.1658 0.0191682 91.0114C0.179647 88.1388 1.31102 86.0205 3.22875 85.0576C5.14647 84.0948 7.38513 84.4077 9.7522 85.86L12.9618 83.8139L15.7541 82.0487L91.9816 34.4907L92.2785 35.2289L92.0137 35.4375C90.4089 36.4165 89.6065 38.4144 89.6065 41.0543C89.6065 46.8717 93.7068 53.9648 98.7378 56.8775L200 115.452L112.258 165.738C111.926 165.928 111.55 166.028 111.167 166.027ZM5.53162 85.3064C4.84672 85.3004 4.17017 85.4571 3.55771 85.7638C1.95292 86.5661 0.94993 88.4759 0.805499 91.0596C0.476517 96.9491 4.64898 104.5 9.92072 107.541L110.477 165.056C110.688 165.177 110.928 165.24 111.171 165.24C111.414 165.24 111.653 165.177 111.865 165.056L198.403 115.428L98.3286 57.5756C93.0729 54.5426 88.8041 47.1445 88.8041 41.0704C88.7642 39.6043 89.0809 38.1504 89.7269 36.8337L16.1874 82.7548L13.387 84.512L11.6619 85.6033C9.7201 86.8229 9.7201 86.8229 9.50346 86.6785C8.33703 85.8525 6.95915 85.3765 5.53162 85.3064Z" fill="#140F0C"/>
<path d="M106.577 61.9326L98.553 57.2947C93.3936 54.3179 89.2211 47.0883 89.2211 41.1345C89.1795 39.7475 89.4741 38.371 90.0797 37.1225L89.2773 36.6973L15.9946 82.4338L13.1942 84.199L6.95964 85.1619C3.42108 84.3034 0.660839 86.5581 0.412097 91.0996C0.0750909 97.1657 4.37592 104.853 9.72789 107.95L17.2142 112.235C17.3026 112.284 17.402 112.31 17.5031 112.31C17.6042 112.31 17.7036 112.284 17.792 112.235L106.577 61.9326Z" fill="#FF7A1B"/>
<path d="M17.5113 112.7C17.3397 112.701 17.1708 112.657 17.0218 112.572L12.6969 110.076L9.56759 108.287C4.07119 105.077 -0.285823 97.2299 0.0592072 91.0755C0.195614 88.6042 1.08626 86.6383 2.55464 85.547C3.19178 85.0899 3.92289 84.7807 4.69467 84.6418C5.46645 84.503 6.25949 84.5382 7.01598 84.7446L13.0741 83.8299L15.8022 82.1048L89.2454 36.272L90.5854 36.9781L90.4089 37.3231C89.8383 38.5104 89.563 39.8179 89.6065 41.1345C89.6065 46.9518 93.7067 54.045 98.7377 56.9577L107.38 61.9406L106.778 62.2776L17.9927 112.572C17.8468 112.657 17.6804 112.701 17.5113 112.7ZM5.52351 85.3705C4.61326 85.3531 3.72244 85.635 2.98794 86.1729C1.70411 87.1277 0.925788 88.877 0.805428 91.1157C0.476447 97.0052 4.64891 104.548 9.92065 107.597L13.0419 109.378L17.407 111.882C17.4365 111.898 17.4696 111.906 17.5033 111.906C17.5369 111.906 17.57 111.898 17.5995 111.882L105.775 61.9326L98.3526 57.6397C93.0969 54.6067 88.8281 47.2086 88.8281 41.1345C88.798 39.824 89.0469 38.522 89.5583 37.3151L89.3016 37.1787L16.2114 82.7948L13.2586 84.6082L6.96781 85.5631H6.88759C6.44242 85.4437 5.98434 85.379 5.52351 85.3705Z" fill="#140F0C"/>
<path d="M103.817 41.03C102.375 38.8841 100.49 37.0727 98.2882 35.7181C95.6483 34.2016 93.2732 34.1133 91.5802 35.1404L3.15625 85.587C4.81721 84.7846 7.0559 84.929 9.51123 86.3492C11.7574 87.7284 13.6745 89.5826 15.128 91.7815L103.817 41.03Z" fill="white"/>
<path d="M14.9838 92.247L14.7752 91.9501C13.3567 89.799 11.4831 87.9857 9.28681 86.6382C7.04011 85.3384 4.91377 85.0334 3.30095 85.884L2.92383 85.1859L91.5483 34.611C93.4339 33.5678 95.8732 33.8086 98.4569 35.301C100.736 36.6858 102.685 38.5505 104.17 40.7653L104.411 41.1184L104.042 41.335L14.9838 92.247ZM5.47544 84.6322C6.96244 84.7186 8.4046 85.1736 9.67197 85.9562C11.8691 87.2925 13.7565 89.0814 15.2085 91.2039L103.247 40.8616C101.875 38.9203 100.119 37.2816 98.0879 36.0472C95.6807 34.6511 93.434 34.4425 91.789 35.4535L91.5965 35.5738H91.5563L5.47544 84.6322Z" fill="#140F0C"/>
<path d="M197.172 113.462L108.127 163.883L108.514 164.567L197.56 114.147L197.172 113.462Z" fill="#140F0C"/>
<path d="M101.921 38.4223L12.876 88.8428L13.2634 89.527L102.309 39.1065L101.921 38.4223Z" fill="#140F0C"/>
<path d="M131.877 132.728C131.414 132.523 131.024 132.182 130.762 131.749C130.649 131.452 130.874 131.147 131.427 130.826C131.907 130.528 132.47 130.393 133.032 130.441C133.64 130.537 134.221 130.755 134.741 131.083L138.127 133.033C138.612 133.257 139.023 133.613 139.315 134.06C139.459 134.365 139.251 134.686 138.689 135.007C138.212 135.309 137.646 135.44 137.084 135.376C136.453 135.253 135.85 135.016 135.303 134.678L131.877 132.728ZM133.859 131.532C133.642 131.363 133.392 131.242 133.125 131.175C132.859 131.109 132.581 131.099 132.31 131.147L132.102 131.251C132.024 131.298 131.956 131.357 131.901 131.428C131.861 131.492 131.901 131.588 131.973 131.717C132.168 131.926 132.399 132.097 132.655 132.222L136.105 134.212C136.513 134.496 136.984 134.675 137.478 134.734C137.615 134.723 137.749 134.685 137.871 134.621L138.095 134.469C138.143 134.434 138.174 134.382 138.184 134.325C138.224 134.148 137.927 133.875 137.293 133.522L133.859 131.532Z" fill="#140F0C"/>
<path d="M135.552 130.609C135.091 130.401 134.705 130.056 134.445 129.622C134.332 129.333 134.549 129.029 135.103 128.708C135.579 128.403 136.145 128.268 136.707 128.322C137.314 128.418 137.895 128.633 138.417 128.956L141.795 130.906C142.279 131.134 142.692 131.489 142.99 131.933C143.135 132.246 142.926 132.559 142.356 132.888C141.878 133.186 141.312 133.314 140.752 133.249C140.121 133.129 139.517 132.896 138.97 132.559L135.552 130.609ZM137.534 129.414C136.844 129.012 136.33 128.884 135.993 129.029C135.92 129.055 135.85 129.09 135.785 129.133C135.706 129.174 135.638 129.231 135.584 129.301C135.536 129.366 135.584 129.462 135.648 129.59C135.845 129.797 136.075 129.968 136.33 130.096L139.781 132.094C140.189 132.381 140.664 132.561 141.161 132.615C141.296 132.608 141.428 132.57 141.546 132.503C141.628 132.463 141.703 132.412 141.771 132.35C141.794 132.335 141.814 132.315 141.829 132.292C141.844 132.268 141.854 132.242 141.859 132.214C141.899 132.03 141.602 131.765 140.976 131.412L137.534 129.414Z" fill="#140F0C"/>
<path d="M139.227 128.491C138.767 128.285 138.381 127.944 138.12 127.512C138.007 127.216 138.224 126.911 138.778 126.59C139.255 126.286 139.819 126.15 140.382 126.205C140.989 126.302 141.571 126.52 142.091 126.846L145.469 128.796C145.956 129.021 146.369 129.377 146.665 129.823C146.809 130.128 146.601 130.441 146.039 130.77C145.552 131.085 144.968 131.213 144.394 131.131C143.766 131.013 143.164 130.779 142.621 130.441L139.227 128.491ZM141.209 127.296C140.994 127.127 140.745 127.005 140.48 126.939C140.214 126.872 139.938 126.863 139.668 126.911L139.46 127.015C139.381 127.056 139.313 127.113 139.259 127.183C139.211 127.248 139.259 127.352 139.331 127.48C139.522 127.69 139.751 127.861 140.005 127.986L143.455 129.976C143.863 130.266 144.338 130.446 144.836 130.497C144.971 130.493 145.104 130.454 145.221 130.385C145.302 130.344 145.38 130.295 145.453 130.241C145.498 130.205 145.527 130.153 145.534 130.096C145.574 129.92 145.285 129.647 144.651 129.294L141.209 127.296Z" fill="#140F0C"/>
<path d="M142.019 124.808L142.605 124.471L149.682 128.555L148.88 129.029L142.918 125.595C142.922 125.662 142.913 125.729 142.891 125.792C142.869 125.856 142.835 125.914 142.789 125.964C142.678 126.098 142.542 126.21 142.388 126.293L141.811 125.964C141.992 125.833 142.123 125.643 142.18 125.426C142.203 125.318 142.2 125.205 142.172 125.098C142.144 124.991 142.092 124.892 142.019 124.808Z" fill="#140F0C"/>
<path d="M145.501 124.865C145.038 124.656 144.649 124.312 144.386 123.878C144.273 123.589 144.498 123.284 145.052 122.963C145.528 122.657 146.093 122.522 146.656 122.578C147.262 122.674 147.843 122.889 148.365 123.212L151.752 125.17C152.235 125.392 152.646 125.745 152.939 126.189C153.084 126.501 152.875 126.814 152.313 127.143C151.836 127.445 151.269 127.572 150.708 127.504C150.078 127.385 149.474 127.151 148.927 126.814L145.501 124.865ZM147.499 123.677C146.809 123.276 146.295 123.147 145.95 123.292L145.742 123.396C145.665 123.437 145.6 123.495 145.549 123.565C145.501 123.629 145.549 123.725 145.613 123.854C145.806 124.066 146.038 124.24 146.295 124.367L149.746 126.357C150.152 126.649 150.628 126.829 151.126 126.879C151.261 126.872 151.393 126.833 151.511 126.766C151.589 126.724 151.664 126.675 151.735 126.622C151.781 126.586 151.812 126.534 151.824 126.477C151.824 126.301 151.567 126.028 150.933 125.675L147.499 123.677Z" fill="#140F0C"/>
<path d="M149.995 122.931C148.896 122.289 148.326 121.831 148.302 121.551C148.294 121.453 148.308 121.354 148.342 121.262C148.471 121.034 148.667 120.852 148.904 120.74C149.706 120.299 150.717 120.451 152.025 121.206C152.622 121.526 153.114 122.011 153.445 122.602C153.566 122.843 153.686 123.083 153.798 123.324C154.06 123.897 154.449 124.402 154.938 124.8L156.486 123.91L157.112 124.263L154.761 125.627L154.368 125.394C153.697 124.935 153.16 124.307 152.811 123.573L152.571 123.131C152.41 122.834 152.322 122.666 152.306 122.618C152.194 122.424 152.043 122.255 151.864 122.12C151.635 121.918 151.385 121.741 151.118 121.591C150.878 121.449 150.625 121.328 150.364 121.23C150.203 121.162 150.032 121.122 149.858 121.109C149.755 121.107 149.653 121.132 149.562 121.182C149.498 121.207 149.446 121.255 149.417 121.318C149.337 121.502 149.642 121.783 150.324 122.177L151.247 122.714L150.444 123.18L149.995 122.931Z" fill="#140F0C"/>
<path d="M152.763 120.668C152.303 120.462 151.917 120.12 151.656 119.689C151.543 119.392 151.76 119.087 152.314 118.766C152.793 118.469 153.356 118.334 153.918 118.381C154.525 118.48 155.106 118.698 155.628 119.023L159.006 120.973C159.492 121.198 159.906 121.553 160.201 122C160.346 122.305 160.137 122.626 159.567 122.947C159.091 123.25 158.524 123.381 157.963 123.316C157.331 123.193 156.728 122.956 156.181 122.618L152.763 120.668ZM154.745 119.472C154.055 119.082 153.541 118.954 153.204 119.087L152.988 119.192C152.914 119.24 152.849 119.299 152.795 119.368C152.747 119.432 152.795 119.529 152.859 119.657C153.056 119.864 153.286 120.035 153.541 120.163L156.992 122.152C157.402 122.436 157.876 122.615 158.372 122.674C158.506 122.664 158.638 122.625 158.757 122.562C158.835 122.516 158.91 122.465 158.982 122.409C159.006 122.393 159.026 122.372 159.042 122.347C159.057 122.322 159.067 122.294 159.07 122.265C159.11 122.088 158.813 121.815 158.187 121.462L154.745 119.472Z" fill="#140F0C"/>
<path d="M160.105 118.237C160.988 118.121 161.882 118.335 162.617 118.839C163.307 119.232 163.7 119.593 163.804 119.922C163.909 120.251 163.716 120.548 163.219 120.836C162.759 121.114 162.219 121.23 161.686 121.165C161.044 121.052 160.431 120.815 159.881 120.467L159.56 120.291L160.362 119.825L160.683 120.01C161.034 120.228 161.408 120.406 161.798 120.54C162.042 120.594 162.297 120.554 162.512 120.427C162.745 120.291 162.801 120.138 162.689 119.978C162.414 119.697 162.094 119.464 161.742 119.288C161.357 119.05 160.938 118.874 160.498 118.766C160.187 118.706 159.864 118.763 159.592 118.927L159.359 119.055L158.701 118.678L158.918 118.55C159.068 118.485 159.192 118.372 159.271 118.229C159.351 118.036 159.078 117.763 158.468 117.426C158.141 117.206 157.772 117.054 157.385 116.977C157.16 116.947 156.932 116.992 156.735 117.105C156.551 117.21 156.502 117.33 156.583 117.482C156.808 117.732 157.081 117.934 157.385 118.076L157.562 118.173L156.759 118.646L156.575 118.542C155.941 118.173 155.58 117.844 155.483 117.555C155.387 117.266 155.588 116.969 156.069 116.688C156.53 116.419 157.062 116.298 157.594 116.343C158.209 116.418 158.8 116.626 159.327 116.953C160.121 117.418 160.41 117.86 160.105 118.237Z" fill="#140F0C"/>
<path d="M159.856 114.514L160.707 114.016L165.794 116.953L166.38 116.616L167.038 116.993L166.452 117.33L167.792 118.132L167.038 118.566L165.698 117.763L164.029 118.726L163.443 118.389L159.856 114.514ZM165.04 117.386L161.357 115.26L164.053 117.956L165.04 117.386Z" fill="#140F0C"/>
<path d="M111.023 113.815L92.5116 103.127L78.6543 111.151L97.1655 121.847L111.023 113.815ZM109.418 113.815L103.665 117.129L86.7344 107.348L92.4795 104.034L109.418 113.815ZM85.94 107.805L102.879 117.587L97.1334 120.9L80.1949 111.119L85.94 107.805Z" fill="#140F0C"/>
<path d="M153.975 103.617L143.295 97.4545L136.266 93.3462L129.791 97.0854L113.294 87.569L119.769 83.8298L115.404 81.3184L68.3434 102.365L68.215 102.421L64.0747 111.248L68.1669 113.655L70.895 112.05L77.9481 116.126L73.5188 118.686L89.2217 127.689L99.9016 133.859L95.4643 136.419L52.5924 111.665L52.1992 112.347L54.4058 113.623L54.6144 117.217L55.4168 117.169L55.2242 114.128L57.6314 115.524L57.8481 119.119H58.6505L58.4659 116.038L60.7287 117.346L60.9453 120.941L61.7477 120.892L61.5632 117.819L63.9703 119.223L64.187 122.818L64.9894 122.77L64.8048 119.697L67.3966 121.189L67.6132 124.784L68.4156 124.744L68.2311 121.663L70.5018 122.971L70.7104 126.565L71.5128 126.517L71.3363 123.444L73.7435 124.848L73.9602 128.443L74.7626 128.395L74.578 125.322L76.9852 126.726L77.2018 130.313L78.0042 130.272L77.8197 127.191L80.2269 128.595L80.4435 132.19L81.2459 132.142L81.0614 129.069L83.3081 130.337L83.5167 133.931L84.3191 133.883L84.1426 130.81L86.5497 132.214L86.7664 135.809L87.5688 135.761L87.3842 132.68L89.655 133.988L89.8636 137.582L90.666 137.542L90.4815 134.461L95.5045 137.358L100.728 134.341L105.847 131.388L108.6 129.783L153.975 103.617ZM136.266 94.261L141.73 97.4144L139.323 98.8186L136.074 100.696L130.609 97.5428L136.266 94.261ZM100.359 99.5086L111.272 105.807L107.26 108.11L96.3389 101.803L100.359 99.5086ZM112.058 105.35L101.145 99.0513L114.674 91.236L125.594 97.5428L112.058 105.35ZM126.381 97.0854L115.452 90.7786L116.375 90.249L127.287 96.5478L126.381 97.0854ZM65.1338 110.927L68.8328 103.023L115.372 82.209L118.188 83.8138L68.1829 112.7L65.1338 110.927ZM110.509 89.1738L112.507 88.0183L115.58 89.7916L94.7903 101.828L107.284 109.049L128.074 97.0132L128.988 97.5428L135.239 101.154L113.133 113.912L94.4373 124.704L90.0963 122.2L71.7054 111.585L110.509 89.1738ZM75.1156 118.662L78.7585 116.56L93.6509 125.153L93.5546 125.209L90.0081 127.255L75.1156 118.662ZM100.688 133.426L90.7944 127.689L118.14 111.898L136.025 101.571L142.509 97.8316L152.402 103.617L107.765 129.39L105.655 128.17L133.121 112.307L130.032 110.526L99.8133 127.929L105.013 130.938L100.688 133.426ZM105.807 130.473L101.386 127.921L130.032 111.384L131.548 112.259L104.082 128.122L106.979 129.791L106.553 130.04L105.807 130.473Z" fill="#140F0C"/>
<path d="M138.071 106.594L134.974 104.812L129.638 107.894L132.735 109.675L138.071 106.594ZM134.974 105.719L136.49 106.594L132.735 108.768L131.218 107.894L134.974 105.719Z" fill="#140F0C"/>
<path d="M68.0625 107.629L71.1517 109.418L76.4876 106.337L73.3904 104.548L68.0625 107.629ZM71.1517 108.504L69.6673 107.629L73.4225 105.463L74.939 106.337L71.1517 108.504Z" fill="#140F0C"/>
</svg>
