<svg width="185" height="98" viewBox="0 0 185 98" fill="none" xmlns="http://www.w3.org/2000/svg">
<path d="M8.47883 36.207C9.3657 36.207 10.154 36.4041 10.8438 36.7982C11.5336 37.1783 12.0686 37.7484 12.4487 38.5086C12.8428 39.2547 13.0399 40.1557 13.0399 41.2115V48.0742H10.0837V41.6127C10.0837 40.6836 9.85137 39.9727 9.38682 39.48C8.92227 38.9732 8.28878 38.7198 7.48637 38.7198C6.66988 38.7198 6.02232 38.9732 5.54369 39.48C5.07914 39.9727 4.84686 40.6836 4.84686 41.6127V48.0742H1.8906V32.4483H4.84686V37.8329C5.22695 37.3261 5.73373 36.932 6.36722 36.6504C7.0007 36.3548 7.70457 36.207 8.47883 36.207ZM21.0457 48.2643C19.9195 48.2643 18.9059 48.0179 18.005 47.5252C17.104 47.0184 16.3931 46.3075 15.8723 45.3925C15.3655 44.4774 15.1121 43.4216 15.1121 42.2251C15.1121 41.0285 15.3725 39.9727 15.8934 39.0576C16.4283 38.1426 17.1533 37.4387 18.0683 36.946C18.9834 36.4392 20.004 36.1859 21.1302 36.1859C22.2564 36.1859 23.277 36.4392 24.192 36.946C25.107 37.4387 25.825 38.1426 26.3459 39.0576C26.8808 39.9727 27.1483 41.0285 27.1483 42.2251C27.1483 43.4216 26.8738 44.4774 26.3247 45.3925C25.7898 46.3075 25.0578 47.0184 24.1287 47.5252C23.2136 48.0179 22.186 48.2643 21.0457 48.2643ZM21.0457 45.6881C21.5807 45.6881 22.0804 45.5614 22.545 45.308C23.0236 45.0405 23.4037 44.6464 23.6852 44.1255C23.9668 43.6046 24.1075 42.9712 24.1075 42.2251C24.1075 41.1129 23.8119 40.2613 23.2207 39.67C22.6435 39.0647 21.9326 38.762 21.0879 38.762C20.2433 38.762 19.5324 39.0647 18.9552 39.67C18.3921 40.2613 18.1106 41.1129 18.1106 42.2251C18.1106 43.3372 18.3851 44.1959 18.9341 44.8012C19.4972 45.3925 20.2011 45.6881 21.0457 45.6881ZM43.8447 36.207C45.2806 36.207 46.4349 36.6504 47.3077 37.5373C48.1946 38.4101 48.638 39.6348 48.638 41.2115V48.0742H45.6818V41.6127C45.6818 40.6977 45.4495 40.0008 44.9849 39.5222C44.5204 39.0295 43.8869 38.7831 43.0845 38.7831C42.2821 38.7831 41.6415 39.0295 41.1629 39.5222C40.6984 40.0008 40.4661 40.6977 40.4661 41.6127V48.0742H37.5098V41.6127C37.5098 40.6977 37.2776 40.0008 36.813 39.5222C36.3484 39.0295 35.715 38.7831 34.9126 38.7831C34.0961 38.7831 33.4485 39.0295 32.9699 39.5222C32.5053 40.0008 32.273 40.6977 32.273 41.6127V48.0742H29.3168V36.3759H32.273V37.7907C32.6531 37.298 33.1388 36.9108 33.7301 36.6293C34.3354 36.3477 34.997 36.207 35.715 36.207C36.63 36.207 37.4465 36.4041 38.1644 36.7982C38.8824 37.1783 39.4384 37.7273 39.8326 38.4453C40.2127 37.7696 40.7617 37.2276 41.4797 36.8193C42.2117 36.4111 43 36.207 43.8447 36.207ZM62.3181 41.9717C62.3181 42.394 62.29 42.7741 62.2337 43.1119H53.6816C53.752 43.9566 54.0476 44.6182 54.5685 45.0968C55.0894 45.5755 55.7299 45.8148 56.4901 45.8148C57.5881 45.8148 58.3694 45.3432 58.834 44.4H62.0225C61.6846 45.5262 61.0371 46.4553 60.0798 47.1873C59.1225 47.9053 57.9471 48.2643 56.5534 48.2643C55.4272 48.2643 54.4137 48.0179 53.5127 47.5252C52.6258 47.0184 51.929 46.3075 51.4222 45.3925C50.9295 44.4774 50.6831 43.4216 50.6831 42.2251C50.6831 41.0144 50.9295 39.9516 51.4222 39.0365C51.9149 38.1215 52.6047 37.4176 53.4916 36.9249C54.3785 36.4322 55.3991 36.1859 56.5534 36.1859C57.6655 36.1859 58.658 36.4252 59.5308 36.9038C60.4177 37.3824 61.1004 38.0652 61.5791 38.9521C62.0718 39.8249 62.3181 40.8314 62.3181 41.9717ZM59.2563 41.127C59.2422 40.3668 58.9677 39.7615 58.4328 39.311C57.8978 38.8465 57.2432 38.6142 56.469 38.6142C55.7369 38.6142 55.1175 38.8394 54.6107 39.2899C54.118 39.7263 53.8154 40.3387 53.7027 41.127H59.2563Z" fill="#FF7A1B"/>
<path d="M3.38985 56.9822C2.86898 56.9822 2.43258 56.8203 2.08065 56.4966C1.74279 56.1587 1.57386 55.7434 1.57386 55.2507C1.57386 54.758 1.74279 54.3498 2.08065 54.026C2.43258 53.6881 2.86898 53.5192 3.38985 53.5192C3.91071 53.5192 4.34007 53.6881 4.67793 54.026C5.02986 54.3498 5.20583 54.758 5.20583 55.2507C5.20583 55.7434 5.02986 56.1587 4.67793 56.4966C4.34007 56.8203 3.91071 56.9822 3.38985 56.9822ZM4.84686 58.3759V70.0742H1.8906V58.3759H4.84686ZM22.2955 58.207C23.7314 58.207 24.8858 58.6504 25.7586 59.5373C26.6454 60.4101 27.0889 61.6348 27.0889 63.2115V70.0742H24.1326V63.6127C24.1326 62.6977 23.9003 62.0008 23.4358 61.5222C22.9712 61.0295 22.3378 60.7831 21.5353 60.7831C20.7329 60.7831 20.0924 61.0295 19.6138 61.5222C19.1492 62.0008 18.9169 62.6977 18.9169 63.6127V70.0742H15.9607V63.6127C15.9607 62.6977 15.7284 62.0008 15.2639 61.5222C14.7993 61.0295 14.1658 60.7831 13.3634 60.7831C12.5469 60.7831 11.8994 61.0295 11.4207 61.5222C10.9562 62.0008 10.7239 62.6977 10.7239 63.6127V70.0742H7.76764V58.3759H10.7239V59.7907C11.104 59.298 11.5897 58.9108 12.1809 58.6293C12.7862 58.3477 13.4479 58.207 14.1658 58.207C15.0809 58.207 15.8973 58.4041 16.6153 58.7982C17.3332 59.1783 17.8893 59.7273 18.2835 60.4453C18.6636 59.7696 19.2126 59.2276 19.9305 58.8193C20.6625 58.4111 21.4509 58.207 22.2955 58.207ZM32.8504 60.0652C33.2305 59.5302 33.7514 59.0868 34.413 58.7349C35.0887 58.3689 35.856 58.1859 36.7147 58.1859C37.7142 58.1859 38.6151 58.4322 39.4175 58.9249C40.234 59.4176 40.8746 60.1215 41.3391 61.0365C41.8177 61.9375 42.0571 62.9862 42.0571 64.1828C42.0571 65.3794 41.8177 66.4422 41.3391 67.3714C40.8746 68.2864 40.234 68.9973 39.4175 69.5041C38.6151 70.0109 37.7142 70.2643 36.7147 70.2643C35.856 70.2643 35.0958 70.0883 34.4341 69.7364C33.7866 69.3844 33.2587 68.941 32.8504 68.406V75.6489H29.8942V58.3759H32.8504V60.0652ZM39.0375 64.1828C39.0375 63.479 38.8896 62.8736 38.594 62.3668C38.3125 61.846 37.9324 61.4518 37.4537 61.1843C36.9892 60.9169 36.4824 60.7831 35.9334 60.7831C35.3984 60.7831 34.8917 60.9239 34.413 61.2055C33.9485 61.4729 33.5684 61.8671 33.2728 62.388C32.9912 62.9088 32.8504 63.5212 32.8504 64.2251C32.8504 64.9289 32.9912 65.5413 33.2728 66.0622C33.5684 66.583 33.9485 66.9842 34.413 67.2658C34.8917 67.5332 35.3984 67.667 35.9334 67.667C36.4824 67.667 36.9892 67.5262 37.4537 67.2447C37.9324 66.9631 38.3125 66.5619 38.594 66.041C38.8896 65.5202 39.0375 64.9008 39.0375 64.1828ZM47.1615 60.1919C47.5416 59.5725 48.0343 59.0868 48.6397 58.7349C49.2591 58.3829 49.9629 58.207 50.7513 58.207V61.311H49.97C49.0409 61.311 48.337 61.5292 47.8584 61.9656C47.3938 62.402 47.1615 63.1622 47.1615 64.2462V70.0742H44.2053V58.3759H47.1615V60.1919ZM57.937 70.2643C56.8108 70.2643 55.7973 70.0179 54.8963 69.5252C53.9953 69.0184 53.2844 68.3075 52.7636 67.3925C52.2568 66.4774 52.0034 65.4216 52.0034 64.2251C52.0034 63.0285 52.2638 61.9727 52.7847 61.0576C53.3196 60.1426 54.0446 59.4387 54.9596 58.946C55.8747 58.4392 56.8953 58.1859 58.0215 58.1859C59.1477 58.1859 60.1683 58.4392 61.0833 58.946C61.9983 59.4387 62.7163 60.1426 63.2372 61.0576C63.7721 61.9727 64.0396 63.0285 64.0396 64.2251C64.0396 65.4216 63.7651 66.4774 63.216 67.3925C62.6811 68.3075 61.9491 69.0184 61.02 69.5252C60.1049 70.0179 59.0773 70.2643 57.937 70.2643ZM57.937 67.6881C58.472 67.6881 58.9717 67.5614 59.4363 67.308C59.9149 67.0405 60.295 66.6464 60.5765 66.1255C60.8581 65.6046 60.9989 64.9712 60.9989 64.2251C60.9989 63.1129 60.7032 62.2613 60.112 61.67C59.5348 61.0647 58.8239 60.762 57.9792 60.762C57.1346 60.762 56.4237 61.0647 55.8465 61.67C55.2834 62.2613 55.0019 63.1129 55.0019 64.2251C55.0019 65.3372 55.2764 66.1959 55.8254 66.8012C56.3885 67.3925 57.0924 67.6881 57.937 67.6881ZM71.0859 67.3502L74.0422 58.3759H77.1885L72.8597 70.0742H69.2699L64.9622 58.3759H68.1297L71.0859 67.3502ZM89.7237 63.9717C89.7237 64.394 89.6955 64.7741 89.6392 65.1119H81.0872C81.1576 65.9566 81.4532 66.6182 81.9741 67.0968C82.4949 67.5755 83.1355 67.8148 83.8956 67.8148C84.9937 67.8148 85.775 67.3432 86.2395 66.4H89.4281C89.0902 67.5262 88.4426 68.4553 87.4854 69.1873C86.5281 69.9053 85.3526 70.2643 83.959 70.2643C82.8328 70.2643 81.8192 70.0179 80.9183 69.5252C80.0314 69.0184 79.3346 68.3075 78.8278 67.3925C78.3351 66.4774 78.0887 65.4216 78.0887 64.2251C78.0887 63.0144 78.3351 61.9516 78.8278 61.0365C79.3205 60.1215 80.0103 59.4176 80.8971 58.9249C81.784 58.4322 82.8046 58.1859 83.959 58.1859C85.0711 58.1859 86.0636 58.4252 86.9364 58.9038C87.8232 59.3824 88.506 60.0652 88.9846 60.9521C89.4773 61.8249 89.7237 62.8314 89.7237 63.9717ZM86.6618 63.127C86.6478 62.3668 86.3733 61.7615 85.8383 61.311C85.3034 60.8465 84.6488 60.6142 83.8745 60.6142C83.1425 60.6142 82.5231 60.8394 82.0163 61.2899C81.5236 61.7263 81.2209 62.3387 81.1083 63.127H86.6618ZM106.409 58.207C107.845 58.207 109 58.6504 109.872 59.5373C110.759 60.4101 111.203 61.6348 111.203 63.2115V70.0742H108.246V63.6127C108.246 62.6977 108.014 62.0008 107.55 61.5222C107.085 61.0295 106.452 60.7831 105.649 60.7831C104.847 60.7831 104.206 61.0295 103.728 61.5222C103.263 62.0008 103.031 62.6977 103.031 63.6127V70.0742H100.075V63.6127C100.075 62.6977 99.8422 62.0008 99.3777 61.5222C98.9131 61.0295 98.2797 60.7831 97.4772 60.7831C96.6608 60.7831 96.0132 61.0295 95.5346 61.5222C95.07 62.0008 94.8377 62.6977 94.8377 63.6127V70.0742H91.8815V58.3759H94.8377V59.7907C95.2178 59.298 95.7035 58.9108 96.2947 58.6293C96.9001 58.3477 97.5617 58.207 98.2797 58.207C99.1947 58.207 100.011 58.4041 100.729 58.7982C101.447 59.1783 102.003 59.7273 102.397 60.4453C102.777 59.7696 103.326 59.2276 104.044 58.8193C104.776 58.4111 105.565 58.207 106.409 58.207ZM124.883 63.9717C124.883 64.394 124.855 64.7741 124.798 65.1119H116.246C116.317 65.9566 116.612 66.6182 117.133 67.0968C117.654 67.5755 118.295 67.8148 119.055 67.8148C120.153 67.8148 120.934 67.3432 121.399 66.4H124.587C124.249 67.5262 123.602 68.4553 122.644 69.1873C121.687 69.9053 120.512 70.2643 119.118 70.2643C117.992 70.2643 116.978 70.0179 116.077 69.5252C115.191 69.0184 114.494 68.3075 113.987 67.3925C113.494 66.4774 113.248 65.4216 113.248 64.2251C113.248 63.0144 113.494 61.9516 113.987 61.0365C114.48 60.1215 115.169 59.4176 116.056 58.9249C116.943 58.4322 117.964 58.1859 119.118 58.1859C120.23 58.1859 121.223 58.4252 122.095 58.9038C122.982 59.3824 123.665 60.0652 124.144 60.9521C124.636 61.8249 124.883 62.8314 124.883 63.9717ZM121.821 63.127C121.807 62.3668 121.532 61.7615 120.997 61.311C120.463 60.8465 119.808 60.6142 119.034 60.6142C118.302 60.6142 117.682 60.8394 117.175 61.2899C116.683 61.7263 116.38 62.3387 116.267 63.127H121.821ZM133.523 58.207C134.917 58.207 136.043 58.6504 136.902 59.5373C137.761 60.4101 138.19 61.6348 138.19 63.2115V70.0742H135.234V63.6127C135.234 62.6836 135.001 61.9727 134.537 61.48C134.072 60.9732 133.439 60.7198 132.636 60.7198C131.82 60.7198 131.172 60.9732 130.694 61.48C130.229 61.9727 129.997 62.6836 129.997 63.6127V70.0742H127.041V58.3759H129.997V59.8329C130.391 59.3261 130.891 58.932 131.496 58.6504C132.116 58.3548 132.791 58.207 133.523 58.207ZM144.443 60.8043V66.4634C144.443 66.8575 144.535 67.1461 144.718 67.3291C144.915 67.4981 145.238 67.5825 145.689 67.5825H147.061V70.0742H145.203C142.712 70.0742 141.466 68.8636 141.466 66.4422V60.8043H140.072V58.3759H141.466V55.483H144.443V58.3759H147.061V60.8043H144.443ZM12.7654 85.9717C12.7654 86.394 12.7372 86.7741 12.6809 87.1119H4.12891C4.1993 87.9566 4.49492 88.6182 5.01579 89.0968C5.53665 89.5755 6.17717 89.8148 6.93735 89.8148C8.03539 89.8148 8.81669 89.3432 9.28124 88.4H12.4698C12.1319 89.5262 11.4844 90.4553 10.5271 91.1873C9.56983 91.9053 8.39436 92.2643 7.0007 92.2643C5.87451 92.2643 4.86094 92.0179 3.95998 91.5252C3.07311 91.0184 2.37627 90.3075 1.86949 89.3925C1.37678 88.4774 1.13042 87.4216 1.13042 86.2251C1.13042 85.0144 1.37678 83.9516 1.86949 83.0365C2.3622 82.1215 3.05199 81.4176 3.93887 80.9249C4.82574 80.4322 5.84635 80.1859 7.0007 80.1859C8.11282 80.1859 9.10527 80.4252 9.97807 80.9038C10.8649 81.3824 11.5477 82.0652 12.0263 82.9521C12.519 83.8249 12.7654 84.8314 12.7654 85.9717ZM9.70356 85.127C9.68948 84.3668 9.41497 83.7615 8.88003 83.311C8.34509 82.8465 7.69049 82.6142 6.91624 82.6142C6.18421 82.6142 5.56481 82.8394 5.05802 83.2899C4.56531 83.7263 4.26265 84.3387 4.15003 85.127H9.70356ZM14.163 86.2039C14.163 85.0355 14.4023 84.0008 14.881 83.0999C15.3737 82.1848 16.0353 81.4739 16.8659 80.9672C17.6964 80.4604 18.6115 80.207 19.611 80.207C20.4415 80.207 21.1736 80.3689 21.807 80.6926C22.4546 81.0023 22.9755 81.4035 23.3696 81.8963V80.3759H26.347V97.6489H23.3696V90.4694C22.9755 90.9762 22.4476 91.3985 21.7859 91.7364C21.1243 92.0742 20.3782 92.2431 19.5476 92.2431C18.5622 92.2431 17.6542 91.9898 16.8236 91.483C16.0072 90.9621 15.3596 90.2442 14.881 89.3291C14.4023 88.4141 14.163 87.3724 14.163 86.2039ZM23.3696 86.2251C23.3696 85.5071 23.2218 84.8877 22.9262 84.3668C22.6306 83.846 22.2434 83.4518 21.7648 83.1843C21.3003 82.9169 20.8005 82.7831 20.2656 82.7831C19.7447 82.7831 19.245 82.9169 18.7663 83.1843C18.3018 83.4518 17.9217 83.846 17.6261 84.3668C17.3304 84.8736 17.1826 85.486 17.1826 86.2039C17.1826 86.9219 17.3304 87.5483 17.6261 88.0833C17.9217 88.6041 18.3018 88.9983 18.7663 89.2658C19.245 89.5332 19.7447 89.667 20.2656 89.667C20.8005 89.667 21.3003 89.5332 21.7648 89.2658C22.2434 88.9983 22.6306 88.6041 22.9262 88.0833C23.2218 87.5624 23.3696 86.943 23.3696 86.2251ZM40.278 80.3759V92.0742H37.3007V90.5961C36.9206 91.1029 36.4208 91.5041 35.8014 91.7997C35.1961 92.0813 34.5344 92.222 33.8165 92.222C32.9015 92.222 32.092 92.032 31.3881 91.6519C30.6843 91.2577 30.1282 90.6876 29.72 89.9415C29.3258 89.1813 29.1287 88.2804 29.1287 87.2386V80.3759H32.085V86.8163C32.085 87.7454 32.3173 88.4634 32.7818 88.9702C33.2464 89.4629 33.8798 89.7092 34.6823 89.7092C35.4987 89.7092 36.1393 89.4629 36.6038 88.9702C37.0684 88.4634 37.3007 87.7454 37.3007 86.8163V80.3759H40.278ZM44.6941 78.9822C44.1732 78.9822 43.7368 78.8203 43.3849 78.4966C43.047 78.1587 42.8781 77.7434 42.8781 77.2507C42.8781 76.758 43.047 76.3498 43.3849 76.026C43.7368 75.6881 44.1732 75.5192 44.6941 75.5192C45.215 75.5192 45.6443 75.6881 45.9822 76.026C46.3341 76.3498 46.5101 76.758 46.5101 77.2507C46.5101 77.7434 46.3341 78.1587 45.9822 78.4966C45.6443 78.8203 45.215 78.9822 44.6941 78.9822ZM46.1511 80.3759V92.0742H43.1948V80.3759H46.1511ZM52.0281 82.0652C52.4082 81.5302 52.9291 81.0868 53.5907 80.7349C54.2664 80.3689 55.0337 80.1859 55.8924 80.1859C56.8919 80.1859 57.7928 80.4322 58.5952 80.9249C59.4117 81.4176 60.0523 82.1215 60.5168 83.0365C60.9954 83.9375 61.2348 84.9862 61.2348 86.1828C61.2348 87.3794 60.9954 88.4422 60.5168 89.3714C60.0523 90.2864 59.4117 90.9973 58.5952 91.5041C57.7928 92.0109 56.8919 92.2643 55.8924 92.2643C55.0337 92.2643 54.2735 92.0883 53.6118 91.7364C52.9643 91.3844 52.4364 90.941 52.0281 90.406V97.6489H49.0719V80.3759H52.0281V82.0652ZM58.2152 86.1828C58.2152 85.479 58.0673 84.8736 57.7717 84.3668C57.4902 83.846 57.1101 83.4518 56.6315 83.1843C56.1669 82.9169 55.6601 82.7831 55.1111 82.7831C54.5761 82.7831 54.0694 82.9239 53.5907 83.2055C53.1262 83.4729 52.7461 83.8671 52.4505 84.388C52.1689 84.9088 52.0281 85.5212 52.0281 86.2251C52.0281 86.9289 52.1689 87.5413 52.4505 88.0622C52.7461 88.583 53.1262 88.9842 53.5907 89.2658C54.0694 89.5332 54.5761 89.667 55.1111 89.667C55.6601 89.667 56.1669 89.5262 56.6315 89.2447C57.1101 88.9631 57.4902 88.5619 57.7717 88.041C58.0673 87.5202 58.2152 86.9008 58.2152 86.1828ZM77.9109 80.207C79.3468 80.207 80.5011 80.6504 81.3739 81.5373C82.2608 82.4101 82.7042 83.6348 82.7042 85.2115V92.0742H79.748V85.6127C79.748 84.6977 79.5157 84.0008 79.0511 83.5222C78.5866 83.0295 77.9531 82.7831 77.1507 82.7831C76.3483 82.7831 75.7078 83.0295 75.2291 83.5222C74.7646 84.0008 74.5323 84.6977 74.5323 85.6127V92.0742H71.576V85.6127C71.576 84.6977 71.3438 84.0008 70.8792 83.5222C70.4147 83.0295 69.7812 82.7831 68.9788 82.7831C68.1623 82.7831 67.5147 83.0295 67.0361 83.5222C66.5715 84.0008 66.3392 84.6977 66.3392 85.6127V92.0742H63.383V80.3759H66.3392V81.7907C66.7193 81.298 67.205 80.9108 67.7963 80.6293C68.4016 80.3477 69.0632 80.207 69.7812 80.207C70.6962 80.207 71.5127 80.4041 72.2306 80.7982C72.9486 81.1783 73.5046 81.7273 73.8988 82.4453C74.2789 81.7696 74.8279 81.2276 75.5459 80.8193C76.2779 80.4111 77.0662 80.207 77.9109 80.207ZM96.3843 85.9717C96.3843 86.394 96.3562 86.7741 96.2999 87.1119H87.7478C87.8182 87.9566 88.1139 88.6182 88.6347 89.0968C89.1556 89.5755 89.7961 89.8148 90.5563 89.8148C91.6543 89.8148 92.4356 89.3432 92.9002 88.4H96.0887C95.7508 89.5262 95.1033 90.4553 94.146 91.1873C93.1888 91.9053 92.0133 92.2643 90.6196 92.2643C89.4934 92.2643 88.4799 92.0179 87.5789 91.5252C86.692 91.0184 85.9952 90.3075 85.4884 89.3925C84.9957 88.4774 84.7494 87.4216 84.7494 86.2251C84.7494 85.0144 84.9957 83.9516 85.4884 83.0365C85.9811 82.1215 86.6709 81.4176 87.5578 80.9249C88.4447 80.4322 89.4653 80.1859 90.6196 80.1859C91.7317 80.1859 92.7242 80.4252 93.597 80.9038C94.4839 81.3824 95.1666 82.0652 95.6453 82.9521C96.138 83.8249 96.3843 84.8314 96.3843 85.9717ZM93.3225 85.127C93.3084 84.3668 93.0339 83.7615 92.499 83.311C91.964 82.8465 91.3094 82.6142 90.5352 82.6142C89.8031 82.6142 89.1837 82.8394 88.6769 83.2899C88.1842 83.7263 87.8816 84.3387 87.769 85.127H93.3225ZM105.025 80.207C106.418 80.207 107.545 80.6504 108.403 81.5373C109.262 82.4101 109.691 83.6348 109.691 85.2115V92.0742H106.735V85.6127C106.735 84.6836 106.503 83.9727 106.038 83.48C105.574 82.9732 104.94 82.7198 104.138 82.7198C103.321 82.7198 102.674 82.9732 102.195 83.48C101.731 83.9727 101.498 84.6836 101.498 85.6127V92.0742H98.5421V80.3759H101.498V81.8329C101.893 81.3261 102.392 80.932 102.998 80.6504C103.617 80.3548 104.293 80.207 105.025 80.207ZM115.945 82.8043V88.4634C115.945 88.8575 116.036 89.1461 116.219 89.3291C116.416 89.4981 116.74 89.5825 117.19 89.5825H118.563V92.0742H116.705C114.213 92.0742 112.967 90.8636 112.967 88.4422V82.8043H111.574V80.3759H112.967V77.483H115.945V80.3759H118.563V82.8043H115.945Z" fill="white"/>
<path d="M166.12 60.7931V58.935L179.83 47.5353V43.6182" stroke="white" stroke-width="2.56305"/>
<path d="M157.703 11.2148H155.371V13.5464H157.703V11.2148Z" fill="#FF7A1B"/>
<path d="M161.142 11.2148H158.811V13.5464H161.142V11.2148Z" fill="#FF7A1B"/>
<path d="M157.703 14.5723H155.371V16.9038H157.703V14.5723Z" fill="#FF7A1B"/>
<path d="M161.142 14.5723H158.811V16.9038H161.142V14.5723Z" fill="#FF7A1B"/>
<path d="M137.382 13.3284L158.293 2.93498L179.132 13.3284V28.5403H181.671V11.7533L158.293 0.0957031L134.833 11.743V28.5403H137.382V13.3284Z" fill="white"/>
<rect x="162.133" y="63.2471" width="8.01306" height="29.6219" fill="#FF7A1B"/>
<path d="M136.029 31.3557H181.099C181.1 31.3569 181.102 31.3581 181.103 31.3593C181.263 31.4841 181.512 31.7158 181.775 32.1049C182.295 32.8727 182.927 34.3405 182.927 36.9871C182.927 39.6337 182.295 41.1015 181.775 41.8693C181.512 42.2584 181.263 42.4901 181.103 42.6149C181.102 42.6161 181.1 42.6173 181.099 42.6185H136.029C136.028 42.6173 136.026 42.6161 136.025 42.6149C135.865 42.4901 135.616 42.2584 135.353 41.8693C134.833 41.1015 134.201 39.6337 134.201 36.9871C134.201 34.3405 134.833 32.8727 135.353 32.1049C135.616 31.7158 135.865 31.4841 136.025 31.3593C136.026 31.3581 136.028 31.3569 136.029 31.3557Z" stroke="white" stroke-width="2.56305"/>
</svg>
