<svg width="1920" height="579" viewBox="0 0 1920 579" fill="none" xmlns="http://www.w3.org/2000/svg">
<mask id="mask0_234_3717" style="mask-type:alpha" maskUnits="userSpaceOnUse" x="0" y="0" width="1920" height="579">
<rect y="0.720703" width="1920" height="577.881" fill="#C4C4C4"/>
</mask>
<g mask="url(#mask0_234_3717)">
<path d="M696.575 358.156C696.575 365.932 693.486 373.39 687.988 378.888C682.49 384.386 675.032 387.475 667.256 387.475C659.48 387.475 652.023 384.386 646.525 378.888C641.026 373.39 637.937 365.932 637.937 358.156L637.937 109.064C637.937 57.2253 595.76 15.0411 543.915 15.0411C492.07 15.0411 449.893 57.2388 449.893 109.084L449.893 176.177C449.89 180.4 448.974 184.572 447.207 188.407C445.439 192.242 442.862 195.649 439.653 198.394L439.653 189.433C442.373 185.548 443.83 180.92 443.827 176.177L443.827 109.084C443.827 53.8794 488.724 8.99561 543.915 8.99561C599.106 8.99561 644.003 53.8996 644.003 109.084L644.003 358.177C644.003 364.344 646.453 370.258 650.814 374.619C655.175 378.98 661.089 381.43 667.256 381.43C673.423 381.43 679.338 378.98 683.699 374.619C688.06 370.258 690.509 364.344 690.509 358.177L690.509 105.381C692.48 106.817 694.499 108.179 696.568 109.467L696.575 358.156Z" fill="#EAE1DA"/>
<path d="M710.726 358.157C710.726 369.686 706.146 380.742 697.994 388.895C689.842 397.047 678.785 401.627 667.256 401.627C655.727 401.627 644.671 397.047 636.518 388.895C628.366 380.742 623.786 369.686 623.786 358.157L623.786 109.064C623.786 87.8807 615.371 67.5652 600.392 52.5864C585.414 37.6076 565.098 29.1927 543.915 29.1927C522.732 29.1927 502.416 37.6076 487.437 52.5864C472.459 67.5652 464.044 87.8807 464.044 109.064L464.044 176.157C464.035 184.293 461.745 192.263 457.434 199.161C453.122 206.06 446.962 211.611 439.653 215.184L439.653 208.297C445.23 204.991 449.851 200.292 453.064 194.661C456.277 189.03 457.97 182.661 457.978 176.178L457.978 109.084C457.978 61.7026 496.534 23.1538 543.915 23.1538C591.296 23.1538 629.852 61.7026 629.852 109.084L629.852 358.177C629.852 368.097 633.793 377.611 640.807 384.626C647.822 391.64 657.336 395.581 667.256 395.581C677.177 395.581 686.69 391.64 693.705 384.626C700.72 377.611 704.661 368.097 704.661 358.177L704.661 113.958C706.68 114.948 708.7 115.884 710.72 116.745L710.726 358.157Z" fill="#EAE1DA"/>
<path d="M724.884 358.157C724.884 373.441 718.813 388.099 708.005 398.906C697.198 409.713 682.54 415.785 667.256 415.785C651.972 415.785 637.315 409.713 626.507 398.906C615.7 388.099 609.628 373.441 609.628 358.157L609.628 109.064C609.628 91.6358 602.705 74.9214 590.381 62.5977C578.058 50.2741 561.343 43.3507 543.915 43.3507C526.487 43.3507 509.772 50.2741 497.449 62.5977C485.125 74.9214 478.202 91.6358 478.202 109.064L478.202 176.158C478.19 188.097 474.477 199.739 467.573 209.48C460.669 219.221 450.914 226.581 439.653 230.547L439.653 224.064C449.231 220.24 457.444 213.634 463.233 205.099C469.023 196.564 472.124 186.491 472.136 176.178L472.136 109.084C472.136 90.0473 479.698 71.79 493.159 58.3288C506.621 44.8676 524.878 37.3052 543.915 37.3052C562.952 37.3052 581.209 44.8676 594.67 58.3288C608.132 71.79 615.694 90.0473 615.694 109.084L615.694 358.177C615.694 371.852 621.127 384.967 630.796 394.637C640.466 404.307 653.581 409.739 667.256 409.739C680.931 409.739 694.046 404.307 703.716 394.637C713.386 384.967 718.818 371.852 718.818 358.177L718.819 119.721C720.838 120.394 722.858 120.933 724.878 121.445L724.884 358.157Z" fill="#EAE1DA"/>
<path d="M739.035 358.157C739.035 377.194 731.473 395.451 718.012 408.912C704.551 422.373 686.293 429.936 667.256 429.936C648.219 429.936 629.962 422.373 616.501 408.912C603.04 395.451 595.477 377.194 595.477 358.157L595.477 109.064C595.477 95.3887 590.045 82.2736 580.375 72.6038C570.705 62.9341 557.59 57.5016 543.915 57.5016C530.24 57.5016 517.125 62.9341 507.455 72.6038C497.785 82.2736 492.353 95.3887 492.353 109.064L492.353 176.157C492.335 191.866 487.173 207.137 477.656 219.635C468.139 232.133 454.791 241.17 439.653 245.365L439.653 239.057C453.133 234.949 464.939 226.623 473.334 215.304C481.729 203.984 486.269 190.27 486.287 176.178L486.287 109.084C486.287 93.8002 492.359 79.1423 503.166 68.3349C513.973 57.5276 528.631 51.4561 543.915 51.4561C559.199 51.4561 573.857 57.5276 584.664 68.3349C595.471 79.1423 601.543 93.8002 601.543 109.084L601.543 358.177C601.543 366.806 603.243 375.352 606.545 383.324C609.847 391.297 614.688 398.541 620.79 404.643C626.892 410.745 634.136 415.586 642.109 418.888C650.082 422.19 658.627 423.89 667.256 423.89C675.886 423.89 684.431 422.191 692.404 418.888C700.376 415.586 707.621 410.745 713.723 404.643C719.825 398.541 724.665 391.297 727.968 383.324C731.27 375.352 732.97 366.806 732.97 358.177L732.97 123.107C734.989 123.437 737.009 123.72 739.029 123.922L739.035 358.157Z" fill="#EAE1DA"/>
<path d="M567.168 358.156L567.168 109.064C567.168 106.01 566.567 102.986 565.398 100.165C564.229 97.3437 562.517 94.7803 560.357 92.6211C558.198 90.4618 555.635 88.749 552.814 87.5804C549.992 86.4119 546.969 85.8104 543.915 85.8104C540.861 85.8104 537.838 86.4119 535.016 87.5804C532.195 88.749 529.632 90.4618 527.473 92.6211C525.313 94.7803 523.6 97.3437 522.432 100.165C521.263 102.986 520.662 106.01 520.662 109.064L520.662 176.157C520.662 224.824 485.742 265.467 439.653 274.4L439.653 268.234C482.382 259.388 514.596 221.465 514.596 176.157L514.596 109.064C514.596 101.288 517.685 93.8303 523.183 88.3319C528.682 82.8336 536.139 79.7446 543.915 79.7446C551.691 79.7446 559.148 82.8336 564.647 88.3319C570.145 93.8303 573.234 101.288 573.234 109.064L573.234 358.156C573.234 409.995 615.411 452.185 667.256 452.185C719.101 452.185 761.279 410.001 761.279 358.156L761.279 124.433L767.338 124.433L767.338 358.156C767.338 413.361 722.44 458.251 667.25 458.251C612.059 458.251 567.168 413.347 567.168 358.156Z" fill="#EAE1DA"/>
<path d="M753.193 124.434L753.193 358.157C753.193 369.442 750.97 380.617 746.652 391.043C742.333 401.47 736.003 410.943 728.023 418.923C720.043 426.903 710.569 433.233 700.143 437.552C689.717 441.871 678.542 444.094 667.256 444.094C655.971 444.094 644.796 441.871 634.37 437.552C623.943 433.233 614.47 426.903 606.49 418.923C598.51 410.943 592.18 401.47 587.861 391.043C583.542 380.617 581.319 369.442 581.319 358.157L581.319 109.064C581.319 99.1436 577.379 89.6297 570.364 82.615C563.349 75.6003 553.835 71.6595 543.915 71.6595C533.995 71.6595 524.481 75.6003 517.466 82.615C510.451 89.6297 506.511 99.1436 506.511 109.064L506.511 176.157C506.511 216.988 477.878 251.228 439.653 259.933L439.653 253.706C456.987 249.419 472.389 239.455 483.405 225.402C494.422 211.349 500.42 194.014 500.445 176.157L500.445 109.064C500.445 97.5348 505.025 86.4781 513.177 78.3259C521.329 70.1737 532.386 65.5938 543.915 65.5938C555.444 65.5938 566.501 70.1737 574.653 78.3259C582.805 86.4781 587.385 97.5348 587.385 109.064L587.385 358.157C587.385 379.34 595.8 399.655 610.779 414.634C625.758 429.613 646.073 438.028 667.256 438.028C688.439 438.028 708.755 429.613 723.734 414.634C738.713 399.655 747.128 379.34 747.128 358.157L747.128 124.38C747.801 124.38 748.474 124.434 749.147 124.434L753.193 124.434Z" fill="#EAE1DA"/>
<path d="M402.63 371.969H-1.43995C-6.39346 371.969 -11.2985 372.943 -15.8749 374.837C-20.4514 376.731 -24.6096 379.506 -28.1123 383.005C-31.615 386.504 -34.3934 390.658 -36.289 395.23C-38.1847 399.801 -39.1604 404.701 -39.1604 409.649C-39.1604 414.598 -38.1847 419.498 -36.289 424.069C-34.3934 428.641 -31.615 432.795 -28.1123 436.294C-24.6096 439.793 -20.4514 442.568 -15.8749 444.462C-11.2985 446.356 -6.39346 447.33 -1.43995 447.33H107.397C186.343 447.33 252.272 503.917 266.764 578.602H256.76C242.411 509.361 180.894 457.16 107.397 457.16H-1.43995C-14.0537 457.16 -26.1507 452.154 -35.07 443.244C-43.9892 434.334 -49 422.25 -49 409.649C-49 397.049 -43.9892 384.965 -35.07 376.055C-26.1507 367.145 -14.0537 362.139 -1.43995 362.139H402.63C486.72 362.139 555.16 293.793 555.16 209.78C555.16 125.767 486.731 57.4204 402.63 57.4204H-11.5V47.6021H402.63C492.18 47.6021 565 120.356 565 209.791C565 299.225 492.158 371.969 402.63 371.969Z" fill="#FE811F"/>
</g>
</svg>
