<svg width="145" height="78" viewBox="0 0 145 78" fill="none" xmlns="http://www.w3.org/2000/svg">
<path d="M6.91848 28.814C7.61053 28.814 8.22569 28.9678 8.76394 29.2753C9.3022 29.5719 9.71963 30.0168 10.0162 30.61C10.3238 31.1922 10.4776 31.8952 10.4776 32.7191V38.0742H8.17076V33.0322C8.17076 32.3072 7.98951 31.7524 7.62701 31.3679C7.26451 30.9725 6.77019 30.7748 6.14405 30.7748C5.50693 30.7748 5.00162 30.9725 4.62814 31.3679C4.26564 31.7524 4.08438 32.3072 4.08438 33.0322V38.0742H1.77756V25.881H4.08438V30.0827C4.38098 29.6873 4.77643 29.3797 5.27075 29.16C5.76507 28.9293 6.31432 28.814 6.91848 28.814ZM16.7247 38.2225C15.8459 38.2225 15.055 38.0303 14.3519 37.6458C13.6489 37.2504 13.0942 36.6956 12.6877 35.9816C12.2923 35.2676 12.0946 34.4437 12.0946 33.51C12.0946 32.5763 12.2978 31.7524 12.7042 31.0384C13.1216 30.3244 13.6874 29.7751 14.4014 29.3907C15.1154 28.9952 15.9118 28.7975 16.7906 28.7975C17.6694 28.7975 18.4658 28.9952 19.1798 29.3907C19.8938 29.7751 20.454 30.3244 20.8605 31.0384C21.2779 31.7524 21.4866 32.5763 21.4866 33.51C21.4866 34.4437 21.2724 35.2676 20.844 35.9816C20.4266 36.6956 19.8554 37.2504 19.1304 37.6458C18.4163 38.0303 17.6145 38.2225 16.7247 38.2225ZM16.7247 36.2123C17.1421 36.2123 17.5321 36.1134 17.8946 35.9157C18.2681 35.707 18.5646 35.3994 18.7843 34.993C19.004 34.5865 19.1139 34.0922 19.1139 33.51C19.1139 32.6422 18.8832 31.9776 18.4218 31.5162C17.9715 31.0439 17.4167 30.8077 16.7576 30.8077C16.0985 30.8077 15.5438 31.0439 15.0934 31.5162C14.654 31.9776 14.4343 32.6422 14.4343 33.51C14.4343 34.3778 14.6485 35.0479 15.0769 35.5202C15.5163 35.9816 16.0656 36.2123 16.7247 36.2123ZM34.5152 28.814C35.6356 28.814 36.5364 29.16 37.2174 29.852C37.9095 30.5331 38.2555 31.4888 38.2555 32.7191V38.0742H35.9487V33.0322C35.9487 32.3181 35.7674 31.7744 35.4049 31.4009C35.0424 31.0164 34.5481 30.8242 33.922 30.8242C33.2958 30.8242 32.796 31.0164 32.4225 31.4009C32.06 31.7744 31.8788 32.3181 31.8788 33.0322V38.0742H29.572V33.0322C29.572 32.3181 29.3907 31.7744 29.0282 31.4009C28.6657 31.0164 28.1714 30.8242 27.5453 30.8242C26.9081 30.8242 26.4028 31.0164 26.0293 31.4009C25.6668 31.7744 25.4856 32.3181 25.4856 33.0322V38.0742H23.1788V28.9458H25.4856V30.0498C25.7822 29.6653 26.1612 29.3632 26.6225 29.1435C27.0949 28.9238 27.6112 28.814 28.1714 28.814C28.8854 28.814 29.5225 28.9678 30.0828 29.2753C30.643 29.5719 31.0769 30.0003 31.3845 30.5606C31.6811 30.0333 32.1095 29.6104 32.6697 29.2918C33.2409 28.9732 33.8561 28.814 34.5152 28.814ZM48.9304 33.3123C48.9304 33.6418 48.9084 33.9384 48.8645 34.202H42.1911C42.2461 34.8611 42.4768 35.3774 42.8832 35.7509C43.2896 36.1244 43.7894 36.3111 44.3826 36.3111C45.2395 36.3111 45.8491 35.9432 46.2116 35.2072H48.6997C48.4361 36.086 47.9307 36.811 47.1838 37.3822C46.4368 37.9424 45.5196 38.2225 44.4321 38.2225C43.5533 38.2225 42.7624 38.0303 42.0593 37.6458C41.3673 37.2504 40.8235 36.6956 40.4281 35.9816C40.0436 35.2676 39.8514 34.4437 39.8514 33.51C39.8514 32.5653 40.0436 31.7359 40.4281 31.0219C40.8125 30.3079 41.3508 29.7587 42.0429 29.3742C42.7349 28.9897 43.5313 28.7975 44.4321 28.7975C45.2999 28.7975 46.0743 28.9842 46.7554 29.3577C47.4474 29.7312 47.9802 30.264 48.3537 30.956C48.7381 31.6371 48.9304 32.4225 48.9304 33.3123ZM46.5412 32.6532C46.5302 32.06 46.316 31.5876 45.8985 31.2361C45.4811 30.8736 44.9703 30.6924 44.3662 30.6924C43.7949 30.6924 43.3116 30.8681 42.9162 31.2197C42.5317 31.5602 42.2955 32.038 42.2076 32.6532H46.5412Z" fill="#FF7A1B"/>
<path d="M2.94745 45.8583C2.54101 45.8583 2.20048 45.732 1.92586 45.4793C1.66222 45.2157 1.5304 44.8916 1.5304 44.5071C1.5304 44.1227 1.66222 43.8041 1.92586 43.5515C2.20048 43.2878 2.54101 43.156 2.94745 43.156C3.35389 43.156 3.68893 43.2878 3.95257 43.5515C4.22719 43.8041 4.3645 44.1227 4.3645 44.5071C4.3645 44.8916 4.22719 45.2157 3.95257 45.4793C3.68893 45.732 3.35389 45.8583 2.94745 45.8583ZM4.08438 46.9458V56.0742H1.77756V46.9458H4.08438ZM17.6999 46.814C18.8204 46.814 19.7211 47.16 20.4022 47.852C21.0943 48.5331 21.4403 49.4888 21.4403 50.7191V56.0742H19.1335V51.0322C19.1335 50.3181 18.9522 49.7744 18.5897 49.4009C18.2272 49.0164 17.7329 48.8242 17.1067 48.8242C16.4806 48.8242 15.9808 49.0164 15.6073 49.4009C15.2448 49.7744 15.0636 50.3181 15.0636 51.0322V56.0742H12.7567V51.0322C12.7567 50.3181 12.5755 49.7744 12.213 49.4009C11.8505 49.0164 11.3562 48.8242 10.73 48.8242C10.0929 48.8242 9.5876 49.0164 9.21411 49.4009C8.85161 49.7744 8.67036 50.3181 8.67036 51.0322V56.0742H6.36353V46.9458H8.67036V48.0498C8.96695 47.6653 9.34593 47.3632 9.80729 47.1435C10.2796 46.9238 10.7959 46.814 11.3562 46.814C12.0702 46.814 12.7073 46.9678 13.2675 47.2753C13.8278 47.5719 14.2617 48.0003 14.5692 48.5606C14.8658 48.0333 15.2942 47.6104 15.8545 47.2918C16.4257 46.9732 17.0408 46.814 17.6999 46.814ZM25.9361 48.264C26.2327 47.8465 26.6392 47.5005 27.1555 47.2259C27.6827 46.9403 28.2814 46.7975 28.9515 46.7975C29.7314 46.7975 30.4345 46.9897 31.0606 47.3742C31.6977 47.7587 32.1975 48.3079 32.56 49.0219C32.9335 49.725 33.1203 50.5433 33.1203 51.477C33.1203 52.4108 32.9335 53.2401 32.56 53.9651C32.1975 54.6791 31.6977 55.2339 31.0606 55.6293C30.4345 56.0248 29.7314 56.2225 28.9515 56.2225C28.2814 56.2225 27.6882 56.0852 27.1719 55.8106C26.6666 55.536 26.2547 55.1899 25.9361 54.7725V60.4242H23.6293V46.9458H25.9361V48.264ZM30.764 51.477C30.764 50.9278 30.6487 50.4555 30.418 50.06C30.1983 49.6536 29.9017 49.346 29.5282 49.1373C29.1657 48.9286 28.7702 48.8242 28.3418 48.8242C27.9244 48.8242 27.5289 48.934 27.1555 49.1537C26.793 49.3625 26.4964 49.67 26.2657 50.0765C26.046 50.4829 25.9361 50.9608 25.9361 51.51C25.9361 52.0592 26.046 52.5371 26.2657 52.9435C26.4964 53.35 26.793 53.663 27.1555 53.8827C27.5289 54.0914 27.9244 54.1958 28.3418 54.1958C28.7702 54.1958 29.1657 54.086 29.5282 53.8663C29.9017 53.6466 30.1983 53.3335 30.418 52.9271C30.6487 52.5206 30.764 52.0373 30.764 51.477ZM37.1034 48.3628C37.4 47.8795 37.7845 47.5005 38.2568 47.2259C38.7401 46.9513 39.2894 46.814 39.9045 46.814V49.2361H39.2949C38.5699 49.2361 38.0206 49.4064 37.6471 49.7469C37.2846 50.0875 37.1034 50.6806 37.1034 51.5265V56.0742H34.7966V46.9458H37.1034V48.3628ZM45.5117 56.2225C44.6329 56.2225 43.842 56.0303 43.139 55.6458C42.4359 55.2504 41.8812 54.6956 41.4748 53.9816C41.0793 53.2676 40.8816 52.4437 40.8816 51.51C40.8816 50.5763 41.0848 49.7524 41.4912 49.0384C41.9087 48.3244 42.4744 47.7751 43.1884 47.3907C43.9024 46.9952 44.6988 46.7975 45.5776 46.7975C46.4564 46.7975 47.2528 46.9952 47.9668 47.3907C48.6809 47.7751 49.2411 48.3244 49.6475 49.0384C50.0649 49.7524 50.2737 50.5763 50.2737 51.51C50.2737 52.4437 50.0595 53.2676 49.631 53.9816C49.2136 54.6956 48.6424 55.2504 47.9174 55.6458C47.2034 56.0303 46.4015 56.2225 45.5117 56.2225ZM45.5117 54.2123C45.9291 54.2123 46.3191 54.1134 46.6816 53.9157C47.0551 53.707 47.3517 53.3994 47.5714 52.993C47.7911 52.5865 47.9009 52.0922 47.9009 51.51C47.9009 50.6422 47.6702 49.9776 47.2089 49.5162C46.7585 49.0439 46.2038 48.8077 45.5447 48.8077C44.8856 48.8077 44.3308 49.0439 43.8805 49.5162C43.4411 49.9776 43.2214 50.6422 43.2214 51.51C43.2214 52.3778 43.4356 53.0479 43.864 53.5202C44.3034 53.9816 44.8526 54.2123 45.5117 54.2123ZM55.7721 53.9486L58.0789 46.9458H60.534L57.1562 56.0742H54.355L50.9936 46.9458H53.4652L55.7721 53.9486ZM70.3155 51.3123C70.3155 51.6418 70.2935 51.9384 70.2496 52.202H63.5763C63.6312 52.8611 63.8619 53.3774 64.2683 53.7509C64.6747 54.1244 65.1746 54.3111 65.7677 54.3111C66.6246 54.3111 67.2342 53.9432 67.5967 53.2072H70.0848C69.8212 54.086 69.3159 54.811 68.5689 55.3822C67.8219 55.9424 66.9047 56.2225 65.8172 56.2225C64.9384 56.2225 64.1475 56.0303 63.4444 55.6458C62.7524 55.2504 62.2086 54.6956 61.8132 53.9816C61.4287 53.2676 61.2365 52.4437 61.2365 51.51C61.2365 50.5653 61.4287 49.7359 61.8132 49.0219C62.1977 48.3079 62.7359 47.7587 63.428 47.3742C64.12 46.9897 64.9164 46.7975 65.8172 46.7975C66.685 46.7975 67.4594 46.9842 68.1405 47.3577C68.8325 47.7312 69.3653 48.264 69.7388 48.956C70.1232 49.6371 70.3155 50.4225 70.3155 51.3123ZM67.9263 50.6532C67.9153 50.06 67.7011 49.5876 67.2837 49.2361C66.8662 48.8736 66.3554 48.6924 65.7513 48.6924C65.1801 48.6924 64.6967 48.8681 64.3013 49.2197C63.9168 49.5602 63.6806 50.038 63.5927 50.6532H67.9263ZM83.3357 46.814C84.4561 46.814 85.3569 47.16 86.0379 47.852C86.73 48.5331 87.076 49.4888 87.076 50.7191V56.0742H84.7692V51.0322C84.7692 50.3181 84.5879 49.7744 84.2254 49.4009C83.8629 49.0164 83.3686 48.8242 82.7425 48.8242C82.1163 48.8242 81.6165 49.0164 81.243 49.4009C80.8805 49.7744 80.6993 50.3181 80.6993 51.0322V56.0742H78.3925V51.0322C78.3925 50.3181 78.2112 49.7744 77.8487 49.4009C77.4862 49.0164 76.9919 48.8242 76.3658 48.8242C75.7286 48.8242 75.2233 49.0164 74.8498 49.4009C74.4873 49.7744 74.3061 50.3181 74.3061 51.0322V56.0742H71.9993V46.9458H74.3061V48.0498C74.6027 47.6653 74.9817 47.3632 75.443 47.1435C75.9154 46.9238 76.4317 46.814 76.9919 46.814C77.7059 46.814 78.343 46.9678 78.9033 47.2753C79.4635 47.5719 79.8974 48.0003 80.205 48.5606C80.5016 48.0333 80.93 47.6104 81.4902 47.2918C82.0614 46.9732 82.6766 46.814 83.3357 46.814ZM97.7509 51.3123C97.7509 51.6418 97.7289 51.9384 97.685 52.202H91.0116C91.0666 52.8611 91.2973 53.3774 91.7037 53.7509C92.1101 54.1244 92.6099 54.3111 93.2031 54.3111C94.0599 54.3111 94.6696 53.9432 95.0321 53.2072H97.5202C97.2565 54.086 96.7512 54.811 96.0043 55.3822C95.2573 55.9424 94.3401 56.2225 93.2526 56.2225C92.3738 56.2225 91.5829 56.0303 90.8798 55.6458C90.1878 55.2504 89.644 54.6956 89.2486 53.9816C88.8641 53.2676 88.6719 52.4437 88.6719 51.51C88.6719 50.5653 88.8641 49.7359 89.2486 49.0219C89.633 48.3079 90.1713 47.7587 90.8633 47.3742C91.5554 46.9897 92.3518 46.7975 93.2526 46.7975C94.1204 46.7975 94.8948 46.9842 95.5759 47.3577C96.2679 47.7312 96.8007 48.264 97.1742 48.956C97.5586 49.6371 97.7509 50.4225 97.7509 51.3123ZM95.3617 50.6532C95.3507 50.06 95.1365 49.5876 94.719 49.2361C94.3016 48.8736 93.7908 48.6924 93.1867 48.6924C92.6154 48.6924 92.1321 48.8681 91.7366 49.2197C91.3522 49.5602 91.116 50.038 91.0281 50.6532H95.3617ZM104.493 46.814C105.581 46.814 106.459 47.16 107.13 47.852C107.8 48.5331 108.135 49.4888 108.135 50.7191V56.0742H105.828V51.0322C105.828 50.3072 105.647 49.7524 105.284 49.3679C104.922 48.9725 104.427 48.7748 103.801 48.7748C103.164 48.7748 102.659 48.9725 102.285 49.3679C101.923 49.7524 101.741 50.3072 101.741 51.0322V56.0742H99.4346V46.9458H101.741V48.0827C102.049 47.6873 102.439 47.3797 102.911 47.16C103.395 46.9293 103.922 46.814 104.493 46.814ZM113.014 48.8407V53.2566C113.014 53.5642 113.086 53.7894 113.228 53.9322C113.382 54.064 113.635 54.1299 113.986 54.1299H115.057V56.0742H113.607C111.663 56.0742 110.691 55.1295 110.691 53.2401V48.8407H109.603V46.9458H110.691V44.6884H113.014V46.9458H115.057V48.8407H113.014ZM10.2634 68.3123C10.2634 68.6418 10.2414 68.9384 10.1975 69.202H3.52416C3.57908 69.8611 3.80976 70.3774 4.2162 70.7509C4.62264 71.1244 5.12246 71.3111 5.71564 71.3111C6.57246 71.3111 7.18212 70.9432 7.54462 70.2072H10.0327C9.76906 71.086 9.26376 71.811 8.51678 72.3822C7.76981 72.9424 6.85257 73.2225 5.76507 73.2225C4.88628 73.2225 4.09537 73.0303 3.39234 72.6458C2.70029 72.2504 2.15654 71.6956 1.76108 70.9816C1.37661 70.2676 1.18438 69.4437 1.18438 68.51C1.18438 67.5653 1.37661 66.7359 1.76108 66.0219C2.14555 65.3079 2.68381 64.7587 3.37586 64.3742C4.06791 63.9897 4.86431 63.7975 5.76507 63.7975C6.63288 63.7975 7.40731 63.9842 8.08837 64.3577C8.78042 64.7312 9.31319 65.264 9.68667 65.956C10.0711 66.6371 10.2634 67.4225 10.2634 68.3123ZM7.87417 67.6532C7.86318 67.06 7.64898 66.5876 7.23155 66.2361C6.81413 65.8736 6.30333 65.6924 5.69916 65.6924C5.12795 65.6924 4.64461 65.8681 4.24916 66.2197C3.86469 66.5602 3.62851 67.038 3.54063 67.6532H7.87417ZM11.354 68.4935C11.354 67.5818 11.5407 66.7744 11.9142 66.0714C12.2987 65.3573 12.815 64.8026 13.4631 64.4071C14.1112 64.0117 14.8252 63.814 15.6051 63.814C16.2532 63.814 16.8244 63.9403 17.3188 64.1929C17.8241 64.4346 18.2305 64.7477 18.5381 65.1322V63.9458H20.8614V77.4242H18.5381V71.8219C18.2305 72.2174 17.8186 72.5469 17.3023 72.8106C16.786 73.0742 16.2038 73.206 15.5557 73.206C14.7867 73.206 14.0782 73.0083 13.4301 72.6129C12.793 72.2064 12.2877 71.6462 11.9142 70.9322C11.5407 70.2181 11.354 69.4053 11.354 68.4935ZM18.5381 68.51C18.5381 67.9498 18.4227 67.4664 18.1921 67.06C17.9614 66.6536 17.6593 66.346 17.2858 66.1373C16.9233 65.9286 16.5333 65.8242 16.1159 65.8242C15.7095 65.8242 15.3195 65.9286 14.946 66.1373C14.5835 66.346 14.2869 66.6536 14.0563 67.06C13.8256 67.4555 13.7102 67.9333 13.7102 68.4935C13.7102 69.0538 13.8256 69.5426 14.0563 69.96C14.2869 70.3664 14.5835 70.674 14.946 70.8827C15.3195 71.0914 15.7095 71.1958 16.1159 71.1958C16.5333 71.1958 16.9233 71.0914 17.2858 70.8827C17.6593 70.674 17.9614 70.3664 18.1921 69.96C18.4227 69.5536 18.5381 69.0702 18.5381 68.51ZM31.732 63.9458V73.0742H29.4087V71.9208C29.1121 72.3163 28.7222 72.6293 28.2388 72.86C27.7665 73.0797 27.2502 73.1896 26.69 73.1896C25.976 73.1896 25.3443 73.0413 24.7951 72.7447C24.2458 72.4371 23.8119 71.9922 23.4934 71.41C23.1858 70.8168 23.032 70.1138 23.032 69.3009V63.9458H25.3388V68.9714C25.3388 69.6964 25.5201 70.2566 25.8826 70.6521C26.2451 71.0365 26.7394 71.2288 27.3656 71.2288C28.0027 71.2288 28.5025 71.0365 28.865 70.6521C29.2275 70.2566 29.4087 69.6964 29.4087 68.9714V63.9458H31.732ZM35.178 62.8583C34.7715 62.8583 34.431 62.732 34.1564 62.4793C33.8928 62.2157 33.7609 61.8916 33.7609 61.5071C33.7609 61.1227 33.8928 60.8041 34.1564 60.5515C34.431 60.2878 34.7715 60.156 35.178 60.156C35.5844 60.156 35.9195 60.2878 36.1831 60.5515C36.4577 60.8041 36.595 61.1227 36.595 61.5071C36.595 61.8916 36.4577 62.2157 36.1831 62.4793C35.9195 62.732 35.5844 62.8583 35.178 62.8583ZM36.3149 63.9458V73.0742H34.0081V63.9458H36.3149ZM40.9009 65.264C41.1975 64.8465 41.6039 64.5005 42.1202 64.2259C42.6475 63.9403 43.2462 63.7975 43.9162 63.7975C44.6962 63.7975 45.3992 63.9897 46.0253 64.3742C46.6625 64.7587 47.1623 65.3079 47.5248 66.0219C47.8983 66.725 48.085 67.5433 48.085 68.477C48.085 69.4108 47.8983 70.2401 47.5248 70.9651C47.1623 71.6791 46.6625 72.2339 46.0253 72.6293C45.3992 73.0248 44.6962 73.2225 43.9162 73.2225C43.2462 73.2225 42.653 73.0852 42.1367 72.8106C41.6314 72.536 41.2195 72.1899 40.9009 71.7725V77.4242H38.5941V63.9458H40.9009V65.264ZM45.7288 68.477C45.7288 67.9278 45.6134 67.4555 45.3827 67.06C45.163 66.6536 44.8664 66.346 44.493 66.1373C44.1305 65.9286 43.735 65.8242 43.3066 65.8242C42.8892 65.8242 42.4937 65.934 42.1202 66.1537C41.7577 66.3625 41.4611 66.67 41.2304 67.0765C41.0107 67.4829 40.9009 67.9608 40.9009 68.51C40.9009 69.0592 41.0107 69.5371 41.2304 69.9435C41.4611 70.35 41.7577 70.663 42.1202 70.8827C42.4937 71.0914 42.8892 71.1958 43.3066 71.1958C43.735 71.1958 44.1305 71.086 44.493 70.8663C44.8664 70.6466 45.163 70.3335 45.3827 69.9271C45.6134 69.5206 45.7288 69.0373 45.7288 68.477ZM61.0977 63.814C62.2182 63.814 63.1189 64.16 63.8 64.852C64.492 65.5331 64.8381 66.4888 64.8381 67.7191V73.0742H62.5312V68.0322C62.5312 67.3181 62.35 66.7744 61.9875 66.4009C61.625 66.0164 61.1307 65.8242 60.5045 65.8242C59.8784 65.8242 59.3786 66.0164 59.0051 66.4009C58.6426 66.7744 58.4613 67.3181 58.4613 68.0322V73.0742H56.1545V68.0322C56.1545 67.3181 55.9733 66.7744 55.6108 66.4009C55.2483 66.0164 54.7539 65.8242 54.1278 65.8242C53.4907 65.8242 52.9854 66.0164 52.6119 66.4009C52.2494 66.7744 52.0681 67.3181 52.0681 68.0322V73.0742H49.7613V63.9458H52.0681V65.0498C52.3647 64.6653 52.7437 64.3632 53.2051 64.1435C53.6774 63.9238 54.1937 63.814 54.7539 63.814C55.468 63.814 56.1051 63.9678 56.6653 64.2753C57.2255 64.5719 57.6594 65.0003 57.967 65.5606C58.2636 65.0333 58.692 64.6104 59.2523 64.2918C59.8235 63.9732 60.4386 63.814 61.0977 63.814ZM75.5129 68.3123C75.5129 68.6418 75.491 68.9384 75.447 69.202H68.7737C68.8286 69.8611 69.0593 70.3774 69.4657 70.7509C69.8722 71.1244 70.372 71.3111 70.9652 71.3111C71.822 71.3111 72.4317 70.9432 72.7942 70.2072H75.2822C75.0186 71.086 74.5133 71.811 73.7663 72.3822C73.0194 72.9424 72.1021 73.2225 71.0146 73.2225C70.1358 73.2225 69.3449 73.0303 68.6419 72.6458C67.9498 72.2504 67.4061 71.6956 67.0106 70.9816C66.6262 70.2676 66.4339 69.4437 66.4339 68.51C66.4339 67.5653 66.6262 66.7359 67.0106 66.0219C67.3951 65.3079 67.9334 64.7587 68.6254 64.3742C69.3174 63.9897 70.1139 63.7975 71.0146 63.7975C71.8824 63.7975 72.6569 63.9842 73.3379 64.3577C74.03 64.7312 74.5627 65.264 74.9362 65.956C75.3207 66.6371 75.5129 67.4225 75.5129 68.3123ZM73.1237 67.6532C73.1127 67.06 72.8985 66.5876 72.4811 66.2361C72.0637 65.8736 71.5529 65.6924 70.9487 65.6924C70.3775 65.6924 69.8942 65.8681 69.4987 66.2197C69.1142 66.5602 68.8781 67.038 68.7902 67.6532H73.1237ZM82.2552 63.814C83.3427 63.814 84.2215 64.16 84.8916 64.852C85.5617 65.5331 85.8967 66.4888 85.8967 67.7191V73.0742H83.5899V68.0322C83.5899 67.3072 83.4086 66.7524 83.0461 66.3679C82.6836 65.9725 82.1893 65.7748 81.5632 65.7748C80.9261 65.7748 80.4208 65.9725 80.0473 66.3679C79.6848 66.7524 79.5035 67.3072 79.5035 68.0322V73.0742H77.1967V63.9458H79.5035V65.0827C79.8111 64.6873 80.2011 64.3797 80.6734 64.16C81.1567 63.9293 81.684 63.814 82.2552 63.814ZM90.7762 65.8407V70.2566C90.7762 70.5642 90.8476 70.7894 90.9904 70.9322C91.1442 71.064 91.3968 71.1299 91.7484 71.1299H92.8194V73.0742H91.3694C89.4251 73.0742 88.4529 72.1295 88.4529 70.2401V65.8407H87.3654V63.9458H88.4529V61.6884H90.7762V63.9458H92.8194V65.8407H90.7762Z" fill="#44382E"/>
<path d="M129.929 48.0446V46.5946L140.627 37.6992V34.6426" stroke="#44382E" stroke-width="2"/>
<path d="M123.36 9.35742H121.541V11.1768H123.36V9.35742Z" fill="#FF7A1B"/>
<path d="M126.045 9.35742H124.226V11.1768H126.045V9.35742Z" fill="#FF7A1B"/>
<path d="M123.36 11.9775H121.541V13.7969H123.36V11.9775Z" fill="#FF7A1B"/>
<path d="M126.045 11.9775H124.226V13.7969H126.045V11.9775Z" fill="#FF7A1B"/>
<path d="M107.504 11.0074L123.821 2.89719L140.082 11.0074V22.8775H142.063V9.77831L123.821 0.681641L105.515 9.77023V22.8775H107.504V11.0074Z" fill="#44382E"/>
<rect x="126.818" y="49.96" width="6.25266" height="23.1145" fill="#FF7A1B"/>
<path d="M106.449 25.0742H141.617C141.618 25.0751 141.619 25.0761 141.621 25.077C141.745 25.1744 141.939 25.3552 142.145 25.6588C142.55 26.258 143.044 27.4033 143.044 29.4685C143.044 31.5337 142.55 32.679 142.145 33.2781C141.939 33.5818 141.745 33.7626 141.621 33.86C141.619 33.8609 141.618 33.8618 141.617 33.8627H106.449C106.447 33.8618 106.446 33.8609 106.445 33.86C106.321 33.7626 106.126 33.5818 105.921 33.2781C105.515 32.679 105.022 31.5337 105.022 29.4685C105.022 27.4033 105.515 26.258 105.921 25.6588C106.126 25.3552 106.321 25.1744 106.445 25.077C106.446 25.0761 106.447 25.0751 106.449 25.0742Z" stroke="#44382E" stroke-width="2"/>
</svg>
