<svg width="96" height="96" viewBox="0 0 96 96" fill="none" xmlns="http://www.w3.org/2000/svg">
<path d="M61.3332 32V53.66C60.914 53.4608 60.47 53.3332 60 53.3332H40V32H37.3336V53.3332H36C33.7916 53.3332 32 55.7216 32 58.6668C32 61.6132 33.7916 64 36 64H60C62.2084 64 64 61.6132 64 58.6668V32H61.3332ZM56.5548 61.3332H36C35.5296 61.3332 34.6664 60.3204 34.6664 58.6668C34.6664 57.0128 35.5296 56 36 56H56.5548C56.2108 56.788 56 57.6904 56 58.6668C56 59.6432 56.2108 60.5468 56.5548 61.3332ZM60 61.3332C59.53 61.3332 58.6668 60.3204 58.6668 58.6668C58.6668 57.0128 59.53 56 60 56C60.47 56 61.3332 57.0128 61.3332 58.6668C61.3332 60.3204 60.47 61.3332 60 61.3332Z" fill="white"/>
<path d="M44.6664 33.3336C44.6664 34.0696 44.0688 34.6664 43.3336 34.6664C42.5968 34.6664 42 34.0696 42 33.3336C42 32.5968 42.5968 32 43.3336 32C44.0688 32 44.6664 32.5968 44.6664 33.3336Z" fill="white"/>
<path d="M47.0002 38.6669C47.7365 38.6669 48.3334 38.07 48.3334 37.3337C48.3334 36.5974 47.7365 36.0005 47.0002 36.0005C46.2639 36.0005 45.667 36.5974 45.667 37.3337C45.667 38.07 46.2639 38.6669 47.0002 38.6669Z" fill="white"/>
<path d="M54.3332 38.6669C55.0695 38.6669 55.6664 38.07 55.6664 37.3337C55.6664 36.5974 55.0695 36.0005 54.3332 36.0005C53.5969 36.0005 53 36.5974 53 37.3337C53 38.07 53.5969 38.6669 54.3332 38.6669Z" fill="white"/>
<path d="M58.0002 34.6669C58.7365 34.6669 59.3334 34.07 59.3334 33.3337C59.3334 32.5974 58.7365 32.0005 58.0002 32.0005C57.2639 32.0005 56.667 32.5974 56.667 33.3337C56.667 34.07 57.2639 34.6669 58.0002 34.6669Z" fill="white"/>
<path d="M50.6667 34.6669C51.403 34.6669 51.9999 34.07 51.9999 33.3337C51.9999 32.5974 51.403 32.0005 50.6667 32.0005C49.9304 32.0005 49.3335 32.5974 49.3335 33.3337C49.3335 34.07 49.9304 34.6669 50.6667 34.6669Z" fill="white"/>
<path d="M44.6664 41.3336C44.6664 42.0696 44.0688 42.6664 43.3336 42.6664C42.5968 42.6664 42 42.0696 42 41.3336C42 40.5968 42.5968 40 43.3336 40C44.0688 40 44.6664 40.5968 44.6664 41.3336Z" fill="white"/>
<path d="M47.0002 46.6669C47.7365 46.6669 48.3334 46.07 48.3334 45.3337C48.3334 44.5974 47.7365 44.0005 47.0002 44.0005C46.2639 44.0005 45.667 44.5974 45.667 45.3337C45.667 46.07 46.2639 46.6669 47.0002 46.6669Z" fill="white"/>
<path d="M54.3332 46.6669C55.0695 46.6669 55.6664 46.07 55.6664 45.3337C55.6664 44.5974 55.0695 44.0005 54.3332 44.0005C53.5969 44.0005 53 44.5974 53 45.3337C53 46.07 53.5969 46.6669 54.3332 46.6669Z" fill="white"/>
<path d="M58.0002 42.6669C58.7365 42.6669 59.3334 42.07 59.3334 41.3337C59.3334 40.5974 58.7365 40.0005 58.0002 40.0005C57.2639 40.0005 56.667 40.5974 56.667 41.3337C56.667 42.07 57.2639 42.6669 58.0002 42.6669Z" fill="white"/>
<path d="M50.6667 42.6669C51.403 42.6669 51.9999 42.07 51.9999 41.3337C51.9999 40.5974 51.403 40.0005 50.6667 40.0005C49.9304 40.0005 49.3335 40.5974 49.3335 41.3337C49.3335 42.07 49.9304 42.6669 50.6667 42.6669Z" fill="white"/>
<path d="M44.6664 49.3332C44.6664 50.0704 44.0688 50.6668 43.3336 50.6668C42.5968 50.6668 42 50.0704 42 49.3332C42 48.5964 42.5968 48 43.3336 48C44.0688 48 44.6664 48.5964 44.6664 49.3332Z" fill="white"/>
<path d="M58.0002 50.6664C58.7365 50.6664 59.3334 50.0695 59.3334 49.3332C59.3334 48.5969 58.7365 48 58.0002 48C57.2639 48 56.667 48.5969 56.667 49.3332C56.667 50.0695 57.2639 50.6664 58.0002 50.6664Z" fill="white"/>
<path d="M50.6667 50.6664C51.403 50.6664 51.9999 50.0695 51.9999 49.3332C51.9999 48.5969 51.403 48 50.6667 48C49.9304 48 49.3335 48.5969 49.3335 49.3332C49.3335 50.0695 49.9304 50.6664 50.6667 50.6664Z" fill="white"/>
</svg>
