<svg width="96" height="96" viewBox="0 0 96 96" fill="none" xmlns="http://www.w3.org/2000/svg">
<path d="M61.3332 37.3332H54.6668V34.6664C54.6668 33.194 53.4728 32 52 32H44C42.5272 32 41.3332 33.194 41.3332 34.6668V37.3336H34.6668C33.2 37.3332 32 38.5332 32 40V61.3332C32 62.7996 33.2 64 34.6668 64H61.3336C62.7996 64 64 62.7996 64 61.3332V40C64 38.5332 62.7996 37.3332 61.3332 37.3332ZM44 34.6668H52V37.3336H44V34.6668ZM61.3332 40V42.6668H34.6668V40H61.3332ZM58.6668 61.3332V50.6668L57.3332 48L56 50.6668V61.3332H51.3308V56.4012C52.9036 55.6496 53.9972 54.0588 53.9972 52.2004C53.9972 50.3424 52.9036 48.7512 51.3308 48V52.2004C51.3308 53.3048 50.4376 54.2004 49.3332 54.2004C48.2292 54.2004 47.3332 53.3048 47.3332 52.2004V48C45.76 48.7512 44.6664 50.3424 44.6664 52.2004C44.6664 54.0588 45.76 55.6496 47.3332 56.4012V61.3332H41.3308L41.332 56L42.6652 53.3332L41.3308 48H38.6656L37.3336 53.3332L38.6656 56V61.3332H34.6668V45.3332H61.3336V61.3332H58.6668Z" fill="#FF7A1B"/>
</svg>
