<svg width="1921" height="842" viewBox="0 0 1921 842" fill="none" xmlns="http://www.w3.org/2000/svg">
<mask id="mask0_234_3680" style="mask-type:alpha" maskUnits="userSpaceOnUse" x="0" y="0" width="1921" height="842">
<rect x="0.348145" y="0.675781" width="1920" height="841" fill="#C4C4C4"/>
</mask>
<g mask="url(#mask0_234_3680)">
<path d="M1671.26 649.166V433.876H1662.26V649.166C1662.26 731.166 1728.95 797.836 1810.93 797.836H2029.53V788.836H1810.92C1733.91 788.826 1671.26 726.176 1671.26 649.166Z" fill="#EAE1DA"/>
<path d="M1692.29 649.166V433.876H1683.29V649.166C1683.32 683.007 1696.78 715.452 1720.71 739.383C1744.63 763.314 1777.08 776.776 1810.92 776.816H2029.53V767.816H1810.92C1779.46 767.782 1749.3 755.269 1727.06 733.025C1704.82 710.781 1692.32 680.621 1692.29 649.166Z" fill="#EAE1DA"/>
<path d="M1713.31 649.166V433.876H1704.31V649.166C1704.34 677.433 1715.58 704.533 1735.57 724.523C1755.55 744.512 1782.65 755.759 1810.92 755.796H2029.53V746.796H1810.92C1785.03 746.767 1760.22 736.471 1741.92 718.167C1723.62 699.864 1713.33 675.048 1713.31 649.166Z" fill="#EAE1DA"/>
<path d="M1734.33 649.166V433.876H1725.33V649.166C1725.35 671.86 1734.38 693.618 1750.43 709.665C1766.48 725.712 1788.23 734.74 1810.93 734.766H2029.53V725.766H1810.92C1790.61 725.742 1771.14 717.664 1756.78 703.303C1742.42 688.943 1734.35 669.473 1734.33 649.166Z" fill="#EAE1DA"/>
<path d="M1755.36 649.166V433.876H1746.36V649.166C1746.37 666.287 1753.18 682.702 1765.29 694.81C1777.39 706.917 1793.81 713.727 1810.93 713.746H2029.53V704.746H1810.92C1796.18 704.727 1782.06 698.865 1771.64 688.445C1761.23 678.025 1755.37 663.899 1755.36 649.166Z" fill="#EAE1DA"/>
<path d="M1776.38 649.166V433.876H1767.38V649.166C1767.4 660.703 1772 671.761 1780.16 679.917C1788.32 688.072 1799.38 692.66 1810.92 692.676H2029.53V683.676H1810.92C1801.76 683.668 1792.99 680.031 1786.51 673.561C1780.04 667.092 1776.39 658.319 1776.38 649.166Z" fill="#EAE1DA"/>
<path d="M1504.02 424.866H1777.88C1854.89 424.866 1917.54 362.216 1917.56 285.206V-4.32422H1926.56V285.206C1926.56 367.186 1859.88 433.876 1777.88 433.876H1504.02C1422.1 433.876 1355.35 367.206 1355.35 285.226C1355.35 203.246 1422.02 136.556 1504.02 136.556H1627.7C1709.68 136.556 1776.37 203.226 1776.37 285.226H1776.28C1776.37 286.516 1776.37 288.276 1776.37 290.736L1776.29 319.736H1767.29C1767.29 319.736 1767.37 296.726 1767.37 288.206V285.206C1767.37 208.196 1704.71 145.546 1627.71 145.546H1504.02C1427.01 145.546 1364.36 208.196 1364.36 285.206C1364.36 362.216 1427.02 424.866 1504.02 424.866Z" fill="#EAE1DA"/>
<path fill-rule="evenodd" clip-rule="evenodd" d="M1777.88 403.846H1504.02C1472.55 403.846 1442.37 391.346 1420.13 369.097C1397.88 346.848 1385.38 316.671 1385.38 285.206C1385.38 253.74 1397.88 223.564 1420.13 201.315C1442.37 179.065 1472.55 166.566 1504.02 166.566H1627.71C1659.16 166.603 1689.32 179.114 1711.56 201.356C1733.8 223.597 1746.31 253.752 1746.35 285.206V319.746H1734.32L1734.38 302.166C1734.38 292.956 1734.38 287.996 1734.11 285.166H1734.38C1734.33 256.896 1723.08 229.798 1703.08 209.817C1683.08 189.836 1655.98 178.604 1627.71 178.586H1504.02C1475.74 178.586 1448.62 189.819 1428.63 209.814C1408.63 229.809 1397.4 256.928 1397.4 285.206C1397.4 313.483 1408.63 340.602 1428.63 360.598C1448.62 380.593 1475.74 391.826 1504.02 391.826H1777.88C1806.15 391.794 1833.25 380.551 1853.24 360.563C1873.23 340.575 1884.47 313.474 1884.51 285.206V-4.32422H1875.51V285.206C1875.48 311.087 1865.18 335.899 1846.88 354.198C1828.57 372.498 1803.76 382.789 1777.88 382.816H1504.02C1478.13 382.816 1453.3 372.532 1435 354.226C1416.69 335.921 1406.41 311.094 1406.41 285.206C1406.41 259.318 1416.69 234.491 1435 216.185C1453.3 197.88 1478.13 187.596 1504.02 187.596H1627.71C1653.59 187.625 1678.4 197.918 1696.7 216.217C1714.99 234.516 1725.29 259.327 1725.32 285.206V319.746H1713.3V302.166C1713.3 292.956 1713.3 287.996 1713.03 285.166H1713.3C1713.27 262.471 1704.24 240.714 1688.2 224.667C1672.15 208.619 1650.39 199.592 1627.7 199.566H1504.02C1481.31 199.566 1459.54 208.584 1443.49 224.637C1427.44 240.691 1418.42 262.463 1418.42 285.166C1418.42 307.868 1427.44 329.641 1443.49 345.694C1459.54 361.747 1481.31 370.766 1504.02 370.766H1777.88C1800.57 370.739 1822.33 361.712 1838.38 345.665C1854.42 329.617 1863.45 307.86 1863.48 285.166V-4.32422H1854.48V285.206C1854.45 305.513 1846.38 324.982 1832.01 339.34C1817.65 353.699 1798.18 361.775 1777.88 361.796H1504.02C1483.7 361.796 1464.22 353.727 1449.86 339.363C1435.5 325 1427.43 305.519 1427.43 285.206C1427.43 264.893 1435.5 245.412 1449.86 231.048C1464.22 216.685 1483.7 208.616 1504.02 208.616H1627.71C1648.01 208.64 1667.48 216.717 1681.84 231.075C1696.2 245.433 1704.27 264.9 1704.3 285.206V319.746H1692.28V301.876C1692.28 292.876 1692.28 287.956 1692.01 285.206H1692.28C1692.25 268.093 1685.43 251.691 1673.33 239.594C1661.23 227.498 1644.82 220.694 1627.71 220.676H1504.02C1486.89 220.676 1470.47 227.479 1458.36 239.588C1446.25 251.697 1439.45 268.121 1439.45 285.246C1439.45 302.371 1446.25 318.794 1458.36 330.904C1470.47 343.013 1486.89 349.816 1504.02 349.816H1777.88C1795 349.8 1811.41 342.992 1823.52 330.887C1835.63 318.781 1842.44 302.367 1842.46 285.246V-4.32422H1833.46V285.206C1833.44 299.939 1827.58 314.063 1817.16 324.479C1806.74 334.895 1792.61 340.753 1777.88 340.766H1504.02C1489.28 340.766 1475.15 334.912 1464.73 324.493C1454.31 314.073 1448.46 299.941 1448.46 285.206C1448.46 270.47 1454.31 256.338 1464.73 245.919C1475.15 235.499 1489.28 229.646 1504.02 229.646H1627.71C1642.44 229.662 1656.56 235.52 1666.98 245.936C1677.4 256.352 1683.26 270.474 1683.28 285.206V319.746H1671.26V301.873C1671.26 292.875 1671.26 287.955 1670.99 285.206H1671.26C1671.24 273.663 1666.64 262.599 1658.48 254.439C1650.32 246.279 1639.25 241.689 1627.71 241.676H1504.02C1492.47 241.676 1481.39 246.264 1473.22 254.431C1465.06 262.598 1460.47 273.676 1460.47 285.226C1460.47 296.776 1465.06 307.853 1473.22 316.02C1481.39 324.187 1492.47 328.776 1504.02 328.776H1777.88C1789.42 328.763 1800.49 324.17 1808.66 316.006C1816.82 307.841 1821.41 296.772 1821.43 285.226V-4.32422H1812.43V285.206C1812.42 294.364 1808.78 303.145 1802.3 309.62C1795.83 316.096 1787.05 319.738 1777.89 319.746H1755.35V302.166C1755.35 292.956 1755.35 287.996 1755.07 285.166H1755.35C1755.3 251.332 1741.83 218.898 1717.9 194.977C1693.98 171.055 1661.54 157.598 1627.71 157.556H1504.02C1470.17 157.595 1437.73 171.057 1413.8 194.988C1389.87 218.919 1376.41 251.364 1376.38 285.206C1376.38 355.586 1433.64 412.856 1504.02 412.856H1777.88C1811.72 412.816 1844.16 399.355 1868.09 375.424C1892.03 351.494 1905.49 319.048 1905.53 285.206V-4.32422H1896.53V285.206C1896.49 316.662 1883.98 346.82 1861.74 369.062C1839.49 391.305 1809.33 403.814 1777.88 403.846ZM1504.02 319.746H1662.25V285.206C1662.24 276.048 1658.6 267.267 1652.12 260.791C1645.65 254.315 1636.87 250.674 1627.71 250.666H1504.02C1494.86 250.666 1486.07 254.305 1479.59 260.782C1473.12 267.26 1469.48 276.045 1469.48 285.206C1469.48 294.366 1473.12 303.152 1479.59 309.629C1486.07 316.107 1494.86 319.746 1504.02 319.746Z" fill="#EAE1DA"/>
<path d="M339.988 375.306C351.538 375.306 362.615 370.717 370.783 362.55C378.95 354.383 383.538 343.306 383.538 331.756C383.538 320.206 378.95 309.128 370.783 300.961C362.615 292.794 351.538 288.206 339.988 288.206H-30.0119C-107.012 288.206 -169.672 225.556 -169.672 148.546C-169.672 71.5358 -106.992 8.88578 -29.9819 8.88578H69.6782C75.9506 8.88271 82.1479 7.52162 87.8444 4.89607C93.5409 2.27051 98.6014 -1.55727 102.678 -6.32422L89.3681 -6.32422C83.5974 -2.2841 76.7225 -0.119314 69.6782 -0.124219H-29.9819C-111.982 -0.124219 -178.652 66.5658 -178.652 148.546C-178.652 230.526 -111.952 297.216 -29.9819 297.216H340.018C349.179 297.216 357.964 300.855 364.442 307.332C370.919 313.81 374.558 322.595 374.558 331.756C374.558 340.916 370.919 349.702 364.442 356.179C357.964 362.657 349.179 366.296 340.018 366.296H-35.4819C-33.3485 369.222 -31.3253 372.222 -29.4119 375.296L339.988 375.306Z" fill="#EAE1DA"/>
<path d="M339.988 396.326C357.113 396.326 373.537 389.523 385.646 377.414C397.756 365.304 404.558 348.881 404.558 331.756C404.558 314.631 397.756 298.207 385.646 286.098C373.537 273.989 357.113 267.186 339.988 267.186H-30.0116C-61.4769 267.186 -91.6534 254.686 -113.903 232.437C-136.152 210.188 -148.652 180.011 -148.652 148.546C-148.652 117.08 -136.152 86.9039 -113.903 64.6546C-91.6534 42.4053 -61.4769 29.9058 -30.0116 29.9058H69.6484C81.7326 29.8932 93.5709 26.4915 103.818 20.087C114.066 13.6826 122.311 4.53228 127.618 -6.32422L117.388 -6.32422C112.478 1.95972 105.498 8.82461 97.134 13.5967C88.7697 18.3688 79.3083 20.8841 69.6785 20.8958H-29.9816C-100.362 20.8958 -157.622 78.1658 -157.622 148.546C-157.622 218.926 -100.362 276.196 -29.9816 276.196H340.018C354.754 276.196 368.886 282.049 379.305 292.469C389.725 302.888 395.578 317.02 395.578 331.756C395.578 346.491 389.725 360.623 379.305 371.043C368.886 381.462 354.754 387.316 340.018 387.316H-22.7416C-21.2716 390.316 -19.8816 393.316 -18.6016 396.316L339.988 396.326Z" fill="#EAE1DA"/>
<path d="M339.988 417.356C362.691 417.356 384.464 408.337 400.517 392.284C416.57 376.231 425.588 354.458 425.588 331.756C425.588 309.053 416.57 287.281 400.517 271.227C384.464 255.174 362.691 246.156 339.988 246.156H-30.0116C-55.8994 246.156 -80.7269 235.872 -99.0323 217.566C-117.338 199.261 -127.622 174.434 -127.622 148.546C-127.622 122.658 -117.338 97.8305 -99.0323 79.5251C-80.7269 61.2197 -55.8994 50.9358 -30.0116 50.9358H69.6484C87.3831 50.9189 104.676 45.403 119.145 35.148C133.615 24.893 144.548 10.4035 150.438 -6.32422L140.808 -6.32422C135.127 7.9027 125.316 20.1022 112.638 28.7019C99.9604 37.3016 84.9977 41.9075 69.6785 41.9258H-29.9816C-58.2589 41.9258 -85.3782 53.1589 -105.373 73.1541C-125.368 93.1492 -136.602 120.268 -136.602 148.546C-136.602 176.823 -125.368 203.942 -105.373 223.938C-85.3782 243.933 -58.2589 255.166 -29.9816 255.166H340.018C360.331 255.166 379.812 263.235 394.176 277.598C408.539 291.962 416.608 311.443 416.608 331.756C416.608 352.069 408.539 371.55 394.176 385.913C379.812 400.276 360.331 408.346 340.018 408.346H-14.1815C-13.1815 411.346 -12.3816 414.346 -11.6216 417.346L339.988 417.356Z" fill="#EAE1DA"/>
<path d="M339.988 438.376C368.266 438.376 395.385 427.143 415.38 407.147C435.375 387.152 446.608 360.033 446.608 331.756C446.608 303.478 435.375 276.359 415.38 256.364C395.385 236.369 368.266 225.136 339.988 225.136H-30.0115C-50.3245 225.136 -69.8054 217.066 -84.1688 202.703C-98.5322 188.34 -106.602 168.859 -106.602 148.546C-106.602 128.233 -98.5322 108.752 -84.1688 94.3885C-69.8054 80.0251 -50.3245 71.9558 -30.0115 71.9558H69.6485C92.9822 71.9292 115.665 64.2617 134.229 50.1254C152.794 35.9892 166.217 16.1622 172.448 -6.32422L163.078 -6.32422C156.977 13.6994 144.609 31.236 127.796 43.7055C110.983 56.1751 90.6112 62.9192 69.6785 62.9458H-29.9815C-52.684 62.9458 -74.4567 71.9643 -90.5098 88.0174C-106.563 104.071 -115.582 125.843 -115.582 148.546C-115.582 171.248 -106.563 193.021 -90.5098 209.074C-74.4567 225.127 -52.684 234.146 -29.9815 234.146H340.018C352.837 234.146 365.53 236.671 377.372 241.576C389.215 246.481 399.975 253.671 409.039 262.735C418.103 271.799 425.293 282.559 430.198 294.402C435.104 306.245 437.628 318.937 437.628 331.756C437.628 344.574 435.104 357.267 430.198 369.109C425.293 380.952 418.103 391.713 409.039 400.776C399.975 409.84 389.215 417.03 377.372 421.936C365.53 426.841 352.837 429.366 340.018 429.366H-9.15155C-8.66155 432.366 -8.24147 435.366 -7.94147 438.366L339.988 438.376Z" fill="#EAE1DA"/>
<path d="M339.988 183.086H-30.012C-34.5479 183.086 -39.0393 182.192 -43.2299 180.457C-47.4205 178.721 -51.2281 176.177 -54.4355 172.969C-57.6428 169.762 -60.187 165.954 -61.9228 161.764C-63.6586 157.573 -64.552 153.082 -64.552 148.546C-64.552 144.01 -63.6586 139.518 -61.9228 135.328C-60.187 131.137 -57.6428 127.33 -54.4355 124.122C-51.2281 120.915 -47.4205 118.371 -43.2299 116.635C-39.0393 114.899 -34.5479 114.006 -30.012 114.006H69.648C141.938 114.006 202.308 62.1358 215.578 -6.32422H206.418C193.278 57.1458 136.948 104.996 69.648 104.996H-30.012C-41.5622 104.996 -52.6393 109.584 -60.8065 117.751C-68.9737 125.918 -73.562 136.996 -73.562 148.546C-73.562 160.096 -68.9737 171.173 -60.8065 179.34C-52.6393 187.507 -41.5622 192.096 -30.012 192.096H339.988C416.988 192.096 479.658 254.746 479.658 331.756C479.658 408.766 416.998 471.416 339.988 471.416H-7.18195V480.416H339.988C421.988 480.416 488.668 413.726 488.668 331.746C488.668 249.766 421.968 183.086 339.988 183.086Z" fill="#EAE1DA"/>
<path d="M-7.18146 459.406H339.988C356.752 459.406 373.351 456.104 388.838 449.689C404.325 443.274 418.397 433.871 430.251 422.018C442.104 410.165 451.507 396.093 457.922 380.605C464.337 365.118 467.638 348.519 467.638 331.756C467.638 314.993 464.337 298.393 457.922 282.906C451.507 267.419 442.104 253.347 430.251 241.494C418.397 229.64 404.325 220.238 388.838 213.823C373.351 207.408 356.752 204.106 339.988 204.106H-30.0115C-44.747 204.106 -58.8788 198.252 -69.2983 187.833C-79.7179 177.413 -85.5715 163.281 -85.5715 148.546C-85.5715 133.81 -79.7179 119.678 -69.2983 109.259C-58.8788 98.8394 -44.747 92.9858 -30.0115 92.9858H69.6485C130.298 92.9858 181.158 50.4558 194.088 -6.32422H184.838C178.47 19.424 163.671 42.3015 142.796 58.6655C121.922 75.0294 96.1725 83.9391 69.6485 83.9758H-30.0115C-47.1366 83.9758 -63.5601 90.7787 -75.6694 102.888C-87.7786 114.997 -94.5815 131.421 -94.5815 148.546C-94.5815 165.671 -87.7786 182.094 -75.6694 194.204C-63.5601 206.313 -47.1366 213.116 -30.0115 213.116H339.988C371.454 213.116 401.63 225.615 423.88 247.865C446.129 270.114 458.628 300.29 458.628 331.756C458.628 363.221 446.129 393.398 423.88 415.647C401.63 437.896 371.454 450.396 339.988 450.396H-7.26154C-7.26154 451.396 -7.18146 452.396 -7.18146 453.396V459.406Z" fill="#EAE1DA"/>
<path d="M820.214 239.561C812.047 247.728 807.458 258.806 807.458 270.356L807.468 787.364C807.468 788.852 808.239 790.23 809.488 791.036C812.447 792.945 816.468 790.88 816.468 787.359L816.468 270.326C816.468 261.165 820.107 252.38 826.585 245.902C833.062 239.425 841.848 235.786 851.008 235.786C860.169 235.786 868.954 239.425 875.432 245.902C881.909 252.38 885.548 261.165 885.548 270.326V640.326C885.548 722.296 952.238 788.996 1034.22 788.996C1116.2 788.996 1182.89 722.326 1182.89 640.326V540.666C1182.88 533.621 1185.05 526.746 1189.09 520.976V507.666C1184.32 511.742 1180.49 516.803 1177.87 522.499C1175.24 528.196 1173.88 534.393 1173.88 540.666V640.326C1173.88 717.336 1111.23 780.016 1034.22 780.016C957.208 780.016 894.558 717.356 894.558 640.356V270.356C894.558 258.806 889.97 247.728 881.803 239.561C873.636 231.394 862.559 226.806 851.008 226.806C839.458 226.806 828.381 231.394 820.214 239.561Z" fill="#EAE1DA"/>
<path d="M805.351 224.697C793.241 236.807 786.438 253.23 786.438 270.355L786.448 776.055C786.448 777.808 787.474 779.377 789.074 780.093C792.03 781.415 795.448 779.306 795.448 776.068L795.448 270.325C795.448 255.59 801.302 241.458 811.722 231.039C822.141 220.619 836.273 214.765 851.008 214.765C865.744 214.765 879.876 220.619 890.295 231.039C900.715 241.458 906.568 255.59 906.568 270.325V640.325C906.568 710.705 963.838 767.965 1034.22 767.965C1104.6 767.965 1161.87 710.705 1161.87 640.325V540.665C1161.88 531.035 1164.4 521.574 1169.17 513.21C1173.94 504.845 1180.8 497.866 1189.09 492.955V482.725C1178.23 488.032 1169.08 496.278 1162.68 506.525C1156.27 516.773 1152.87 528.611 1152.86 540.695V640.355C1152.86 671.821 1140.36 701.997 1118.11 724.247C1095.86 746.496 1065.68 758.995 1034.22 758.995C1002.75 758.995 972.577 746.496 950.327 724.247C928.078 701.997 915.578 671.821 915.578 640.355V270.355C915.578 253.23 908.775 236.807 896.666 224.697C884.557 212.588 868.133 205.785 851.008 205.785C833.883 205.785 817.46 212.588 805.351 224.697Z" fill="#EAE1DA"/>
<path d="M765.408 270.355C765.408 247.653 774.427 225.88 790.48 209.827C806.533 193.774 828.306 184.755 851.008 184.755C873.711 184.755 895.484 193.774 911.537 209.827C927.59 225.88 936.608 247.653 936.608 270.355V640.355C936.608 666.243 946.892 691.071 965.198 709.376C983.503 727.682 1008.33 737.965 1034.22 737.965C1060.11 737.965 1084.93 727.682 1103.24 709.376C1121.54 691.071 1131.83 666.243 1131.83 640.355V540.695C1131.85 522.961 1137.36 505.668 1147.62 491.198C1157.87 476.729 1172.36 465.796 1189.09 459.905V469.535C1174.86 475.216 1162.66 485.028 1154.06 497.706C1145.46 510.383 1140.86 525.346 1140.84 540.665V640.325C1140.84 668.603 1129.61 695.722 1109.61 715.717C1089.61 735.712 1062.5 746.945 1034.22 746.945C1005.94 746.945 978.822 735.712 958.827 715.717C938.832 695.722 927.598 668.603 927.598 640.325V270.325C927.598 250.012 919.529 230.531 905.166 216.168C890.802 201.805 871.321 193.735 851.008 193.735C830.695 193.735 811.214 201.805 796.851 216.168C782.488 230.531 774.418 250.012 774.418 270.325L774.418 768.529C774.418 771.479 771.5 773.576 768.653 772.808C766.743 772.292 765.418 770.58 765.418 768.602L765.408 270.355Z" fill="#EAE1DA"/>
<path d="M775.617 194.964C755.622 214.959 744.388 242.078 744.388 270.355L744.398 764.337C744.398 766.578 746.089 768.448 748.311 768.741C750.979 769.092 753.398 767.052 753.398 764.362L753.398 270.325C753.398 257.507 755.923 244.814 760.828 232.972C765.734 221.129 772.924 210.369 781.988 201.305C791.052 192.241 801.812 185.051 813.655 180.145C825.497 175.24 838.19 172.715 851.008 172.715C863.827 172.715 876.52 175.24 888.362 180.145C900.205 185.051 910.965 192.241 920.029 201.305C929.093 210.369 936.283 221.129 941.188 232.972C946.094 244.814 948.618 257.507 948.618 270.325V640.325C948.618 663.028 957.637 684.801 973.69 700.854C989.743 716.907 1011.52 725.925 1034.22 725.925C1056.92 725.925 1078.69 716.907 1094.75 700.854C1110.8 684.801 1119.82 663.028 1119.82 640.325V540.665C1119.84 519.733 1126.59 499.361 1139.06 482.548C1151.53 465.735 1169.06 453.367 1189.09 447.265V437.895C1166.6 444.126 1146.78 457.55 1132.64 476.114C1118.5 494.679 1110.83 517.362 1110.81 540.695V640.355C1110.81 660.668 1102.74 680.149 1088.38 694.513C1074.01 708.876 1054.53 716.945 1034.22 716.945C1013.91 716.945 994.424 708.876 980.061 694.513C965.698 680.149 957.628 660.668 957.628 640.355V270.355C957.628 242.078 946.395 214.959 926.4 194.964C906.405 174.969 879.286 163.735 851.008 163.735C822.731 163.735 795.612 174.969 775.617 194.964Z" fill="#EAE1DA"/>
<path d="M999.678 270.356V640.356C999.678 644.892 1000.57 649.383 1002.31 653.574C1004.04 657.764 1006.59 661.572 1009.79 664.779C1013 667.987 1016.81 670.531 1021 672.267C1025.19 674.002 1029.68 674.896 1034.22 674.896C1038.75 674.896 1043.25 674.002 1047.44 672.267C1051.63 670.531 1055.43 667.987 1058.64 664.779C1061.85 661.572 1064.39 657.764 1066.13 653.574C1067.86 649.383 1068.76 644.892 1068.76 640.356L1068.76 540.696C1068.76 468.406 1120.63 408.036 1189.09 394.766V403.926C1125.62 417.066 1077.77 473.396 1077.77 540.696V640.356C1077.77 651.906 1073.18 662.983 1065.01 671.15C1056.85 679.318 1045.77 683.906 1034.22 683.906C1022.67 683.906 1011.59 679.318 1003.42 671.15C995.257 662.983 990.668 651.906 990.668 640.356L990.668 270.356C990.668 193.356 928.018 130.686 851.008 130.686C773.998 130.686 711.348 193.346 711.348 270.356L711.348 763.026C711.348 765.511 709.334 767.526 706.848 767.526C704.363 767.526 702.348 765.511 702.348 763.026L702.348 270.356C702.348 188.356 769.038 121.676 851.018 121.676C932.998 121.676 999.678 188.376 999.678 270.356Z" fill="#EAE1DA"/>
<path d="M727.823 767.565C725.351 767.543 723.358 765.533 723.358 763.06L723.358 270.355C723.358 253.592 726.66 236.993 733.075 221.506C739.49 206.018 748.893 191.947 760.746 180.093C772.6 168.24 786.672 158.837 802.159 152.422C817.646 146.007 834.245 142.705 851.008 142.705C867.772 142.705 884.371 146.007 899.858 152.422C915.345 158.837 929.417 168.24 941.271 180.093C953.124 191.947 962.527 206.018 968.942 221.506C975.357 236.993 978.658 253.592 978.658 270.355V640.355C978.658 655.091 984.512 669.223 994.932 679.642C1005.35 690.062 1019.48 695.915 1034.22 695.915C1048.95 695.915 1063.09 690.062 1073.51 679.642C1083.92 669.223 1089.78 655.091 1089.78 640.355V540.695C1089.78 480.045 1132.31 429.185 1189.09 416.255V425.505C1163.34 431.874 1140.46 446.673 1124.1 467.548C1107.73 488.422 1098.83 514.171 1098.79 540.695L1098.79 640.355C1098.79 657.48 1091.99 673.904 1079.88 686.013C1067.77 698.122 1051.34 704.925 1034.22 704.925C1017.09 704.925 1000.67 698.122 988.56 686.013C976.451 673.904 969.648 657.48 969.648 640.355V270.355C969.648 238.89 957.149 208.714 934.9 186.464C912.65 164.215 882.474 151.715 851.008 151.715C819.543 151.715 789.367 164.215 767.117 186.464C744.868 208.714 732.368 238.89 732.368 270.355L732.368 763.06C732.368 765.564 730.327 767.587 727.823 767.565Z" fill="#EAE1DA"/>
</g>
</svg>
