<svg width="96" height="96" viewBox="0 0 96 96" fill="none" xmlns="http://www.w3.org/2000/svg">
<path d="M61.3323 37.3333V35.3334L55.9995 34.6666C55.9995 33.1939 54.8043 32 53.3328 32H34.6676C33.1949 32 32.001 33.1939 32.001 34.6666L32.0014 42.6661C32.0014 44.1388 33.1953 45.3328 34.668 45.3328H36.0007V54.6654L32.001 57.3324V61.3322C32.001 62.8049 33.1949 63.9984 34.6676 63.9984L49.3335 64C50.8062 64 52.0001 62.8057 52.0001 61.333V57.332L44.0006 54.665V50.6652H48.3156L50.9818 45.3324H53.3332C54.8059 45.3324 55.9999 44.1384 55.9999 42.6657L61.3327 41.999V39.9991H63.999V37.3325H61.3323V37.3333ZM49.3331 59.2539V61.3326L34.6672 61.3318V58.7583L38.667 56.0921V45.3328H41.3336V56.5869L49.3331 59.2539ZM46.6669 47.9994H44.0002V45.3328H48L46.6669 47.9994ZM53.3328 42.6661H34.668L34.6672 34.6666H42.6667V39.9995H45.3333V34.6666H48V39.9995H50.6666V34.6666H53.3328V42.6661ZM58.6661 39.6455L55.9995 39.9787V37.3537L58.6661 37.6868V39.6455Z" fill="white"/>
<path d="M38.6674 40.6663C39.7719 40.6663 40.6672 39.7709 40.6672 38.6664C40.6672 37.5619 39.7719 36.6665 38.6674 36.6665C37.5629 36.6665 36.6675 37.5619 36.6675 38.6664C36.6675 39.7709 37.5629 40.6663 38.6674 40.6663Z" fill="white"/>
</svg>
