<svg width="96" height="96" viewBox="0 0 96 96" fill="none" xmlns="http://www.w3.org/2000/svg">
<g clip-path="url(#clip0_144_1397)">
<path d="M94.3859 44.1575C94.3859 48.9146 91.06 52.8968 86.6054 53.8995H66.8666V34.4155H86.6054C90.3268 35.2527 93.2609 38.1699 94.1252 41.8841C94.2966 42.6143 94.3859 43.3753 94.3859 44.1575Z" fill="#00A2A7"/>
<path d="M94.1252 41.884C93.2609 45.5938 90.3268 48.5125 86.6054 49.3496H66.8666V34.4155H86.6054C90.3268 35.2527 93.2609 38.1699 94.1252 41.884Z" fill="#06BCC1"/>
<path d="M50.5738 86.9649H28.4333V58.4019H50.5738" fill="#F9C2AF"/>
<path d="M50.5738 86.9651H28.4333V82.167H50.5738" fill="#F4AF9D"/>
<path d="M46.1178 60.3252V86.9649H39.2037V61.021" fill="#FFCF00"/>
<path d="M42.1752 60.3252V86.9649H35.9086V61.021" fill="#FCA601"/>
<path d="M55.528 61.9719C55.528 62.8333 55.2226 63.6236 54.715 64.2403C54.058 65.0349 53.0678 65.5418 51.9574 65.5418H46.1676C45.181 65.5418 44.2875 65.1419 43.6407 64.4966C42.9962 63.8499 42.5956 62.9563 42.5956 61.9719C42.5956 60.1365 43.9828 58.624 45.7655 58.4241C45.8973 58.4094 46.0321 58.4014 46.1676 58.4014H51.9574C52.944 58.4014 53.8361 58.802 54.4828 59.4465C55.1273 60.094 55.528 60.9876 55.528 61.9719Z" fill="#F4AF9D"/>
<path d="M55.528 61.9717C55.528 62.833 55.2226 63.6233 54.715 64.24C54.5839 64.2539 54.4499 64.262 54.3151 64.262H48.5245C47.538 64.262 46.6466 63.8621 45.9999 63.2168C45.3553 62.5701 44.9547 61.6787 44.9547 60.6921C44.9547 59.8308 45.2601 59.0405 45.7655 58.4238C45.8973 58.4099 46.0321 58.4019 46.1676 58.4019H51.9574C52.944 58.4019 53.8361 58.8018 54.4828 59.447C55.1273 60.0938 55.528 60.9873 55.528 61.9717V61.9717Z" fill="#F9C2AF"/>
<path d="M55.5287 76.2542C55.5287 77.1148 55.2233 77.9058 54.7157 78.5217C54.0587 79.3164 53.0685 79.824 51.9589 79.824H46.1683C45.1825 79.824 44.2889 79.4234 43.6415 78.7788C42.9969 78.1321 42.5963 77.2385 42.5963 76.2534C42.5963 74.418 43.9835 72.9055 45.7662 72.7056C45.8981 72.6917 46.0336 72.6836 46.1683 72.6836H51.9589C52.9455 72.6836 53.8368 73.0835 54.4835 73.7288C55.1281 74.3755 55.5287 75.2691 55.5287 76.2542V76.2542Z" fill="#F4AF9D"/>
<path d="M55.5286 76.2542C55.5286 77.1148 55.2232 77.9058 54.7156 78.5218C54.5845 78.5364 54.4512 78.5445 54.3157 78.5445H48.5259C47.5393 78.5445 46.6472 78.1438 46.0005 77.4993C45.356 76.8526 44.9553 75.9612 44.9553 74.9739C44.9553 74.1133 45.2607 73.3223 45.7661 72.7056C45.898 72.6917 46.0335 72.6836 46.1682 72.6836H51.9588C52.9453 72.6836 53.8367 73.0842 54.4834 73.7288C55.128 74.3755 55.5286 75.2691 55.5286 76.2542Z" fill="#F9C2AF"/>
<path d="M55.528 69.1135C55.528 69.9749 55.2226 70.7651 54.715 71.3818C54.058 72.1765 53.0678 72.6841 51.9574 72.6841H46.1676C45.181 72.6841 44.2875 72.2835 43.6407 71.6389C42.9962 70.9915 42.5956 70.0979 42.5956 69.1135C42.5956 67.2781 43.9828 65.7656 45.7655 65.5657C45.8973 65.5518 46.0321 65.543 46.1676 65.543H51.9574C52.944 65.543 53.8361 65.9436 54.4828 66.5881C55.1273 67.2356 55.528 68.1292 55.528 69.1135V69.1135Z" fill="#F4AF9D"/>
<path d="M55.528 69.1138C55.528 69.9751 55.2226 70.7654 54.715 71.3821C54.5839 71.396 54.4499 71.4048 54.3151 71.4048H48.5245C47.538 71.4048 46.6466 71.0042 45.9999 70.3596C45.3553 69.7122 44.9547 68.8208 44.9547 67.8342C44.9547 66.9729 45.2601 66.1826 45.7655 65.5659C45.8973 65.552 46.0321 65.5439 46.1676 65.5439H51.9574C52.944 65.5439 53.8361 65.9438 54.4828 66.5891C55.1273 67.2358 55.528 68.1294 55.528 69.1138V69.1138Z" fill="#F9C2AF"/>
<path d="M55.5294 83.3943C55.5294 84.2549 55.224 85.0459 54.7165 85.6626C54.0595 86.4566 53.0692 86.9641 51.9596 86.9641H46.1698C45.1832 86.9641 44.2897 86.5635 43.6422 85.919C42.9977 85.2722 42.597 84.3787 42.597 83.3943C42.597 81.5581 43.9843 80.0464 45.767 79.8464C45.8988 79.8318 46.0343 79.8237 46.1698 79.8237H51.9596C52.9462 79.8237 53.8376 80.2244 54.4843 80.8689C55.1288 81.5164 55.5294 82.4099 55.5294 83.3943V83.3943Z" fill="#F4AF9D"/>
<path d="M55.5293 83.3943C55.5293 84.2549 55.2239 85.0459 54.7163 85.6626C54.5852 85.6765 54.4519 85.6846 54.3164 85.6846H48.5266C47.54 85.6846 46.648 85.2839 46.0012 84.6394C45.3567 83.9927 44.9561 83.1013 44.9561 82.1147C44.9561 81.2534 45.2615 80.4631 45.7668 79.8464C45.8987 79.8325 46.0334 79.8237 46.1689 79.8237H51.9588C52.9453 79.8237 53.8374 80.2244 54.4841 80.8689C55.1287 81.5164 55.5293 82.4099 55.5293 83.3943V83.3943Z" fill="#F9C2AF"/>
<path d="M1.23926 58.4019H28.4334V86.9649H1.23926V58.4019Z" fill="#06BCC1"/>
<path d="M1.23926 79.5361H28.4334V86.9651H1.23926V79.5361Z" fill="#00A2A7"/>
<path d="M42.1465 58.4019H28.4333V76.7088C32.4719 76.7088 35.7459 73.4348 35.7459 69.3963V67.7695H42.2586C44.9026 67.7695 47.0347 65.5796 46.9395 62.915C46.8494 60.3772 44.6866 58.4019 42.1465 58.4019Z" fill="#F9C2AF"/>
<path d="M42.2593 67.7686H35.7459V69.396C35.7459 71.416 34.927 73.2434 33.6028 74.5655C32.2808 75.8897 30.4534 76.7085 28.4341 76.7085V70.6778C29.1394 70.3262 29.7803 69.8633 30.3325 69.3096C31.0789 68.5647 31.6648 67.658 32.0339 66.6472C32.3071 65.9002 32.9978 65.3875 33.794 65.3875H42.1465C44.3335 65.3875 46.24 63.9219 46.7857 61.896C46.875 62.2234 46.9278 62.5632 46.9395 62.9148C47.0347 65.5794 44.9019 67.7686 42.2593 67.7686V67.7686Z" fill="#F4AF9D"/>
<path d="M21.7969 65.9941C21.7969 67.5571 20.5298 68.8242 18.9668 68.8242C17.4038 68.8242 16.136 67.5571 16.136 65.9941C16.136 64.4312 17.4038 63.1641 18.9668 63.1641C20.5298 63.1641 21.7969 64.4312 21.7969 65.9941Z" fill="#FFCF00"/>
<path d="M81.9969 9.11426C78.1693 13.2268 73.4422 17.762 68.7334 21.3633C63.9837 25.0349 59.2508 27.7735 54.4827 29.9114C54.4827 34.0152 49.7439 40.9732 49.7439 45.0762C49.7439 50.4698 54.4827 53.0091 54.4827 58.4027C59.2508 60.5399 63.9837 63.2792 68.7327 66.9508C73.4422 70.5521 78.1685 75.0873 81.9969 79.1998C88.6466 56.3116 88.6466 32.0032 81.9969 9.11426V9.11426Z" fill="#FFCF00"/>
<path d="M85.9469 60.2549C85.1251 66.6365 83.8067 72.9705 81.9969 79.1998C78.1707 75.088 73.4422 70.5521 68.7334 66.9507C63.9844 63.2798 59.2522 60.5406 54.4841 58.4034C54.4841 53.0091 49.7446 50.4712 49.7446 45.0769C49.7446 44.9758 49.7483 44.8733 49.7542 44.7686C49.9746 47.1585 54.4841 48.3435 54.4841 50.7964C59.2522 51.7918 63.9844 53.0684 68.7334 54.7786C73.4422 56.4588 81.9764 58.5711 85.804 60.4886C85.8538 60.4109 85.9014 60.3326 85.9469 60.2549V60.2549Z" fill="#FCA601"/>
<path d="M49.8127 44.1577C49.7842 44.3672 49.7637 44.5708 49.7541 44.7686C49.7483 44.71 49.7446 44.6492 49.7446 44.5862C49.7446 44.4492 49.7688 44.3064 49.8127 44.1577Z" fill="#EAAD18"/>
<path d="M54.4821 29.9121V58.4034H31.8187C29.6368 58.4034 27.8673 56.6338 27.8673 54.4534V33.8621C27.8673 31.6802 29.6368 29.9121 31.8187 29.9121H54.4821Z" fill="#CCCCCC"/>
<path d="M54.4821 29.9121V50.6119H31.8187C29.6368 50.6119 27.8673 48.8438 27.8673 46.6619V33.8621C27.8673 31.6802 29.6368 29.9121 31.8187 29.9121H54.4821Z" fill="#E6E6E6"/>
<path d="M27.8672 35.4375V52.878H24.2974C22.0525 52.878 20.2332 51.0564 20.2332 48.8116V39.5017C20.2332 37.2583 22.0525 35.4375 24.2974 35.4375H27.8672Z" fill="#FCA601"/>
<path d="M27.8672 35.4375V47.1621H24.2974C22.0525 47.1621 20.2332 45.3428 20.2332 43.0979V39.5017C20.2332 37.2583 22.0525 35.4375 24.2974 35.4375H27.8672Z" fill="#FFCF00"/>
<path d="M18.9668 61.7373C16.6194 61.7373 14.7092 63.6467 14.7092 65.9941C14.7092 68.3416 16.6194 70.2517 18.9668 70.2517C21.3142 70.2517 23.2236 68.3416 23.2236 65.9941C23.2236 63.6467 21.3142 61.7373 18.9668 61.7373ZM18.9668 67.3975C18.1926 67.3975 17.5635 66.7676 17.5635 65.9941C17.5635 65.22 18.1926 64.5908 18.9668 64.5908C19.7402 64.5908 20.3701 65.2207 20.3701 65.9941C20.3701 66.7676 19.7402 67.3975 18.9668 67.3975Z" fill="#4A051C"/>
<path d="M93.2756 36.9809C91.8898 35.2685 90.0266 33.9919 87.9516 33.3107C87.2397 25.027 85.7133 16.7917 83.3674 8.71668C83.2238 8.22376 82.8268 7.8451 82.3273 7.72645C81.8271 7.60706 81.3027 7.76673 80.9526 8.14246C79.1464 10.0827 77.278 11.9694 75.3986 13.7506C74.8266 14.2934 74.8024 15.1964 75.3451 15.7685C75.8871 16.3405 76.7902 16.3639 77.3622 15.8219C78.6864 14.5673 80.0048 13.2614 81.3005 11.9218C83.2912 19.3251 84.5825 26.8559 85.1794 34.424C85.1794 34.4885 85.1845 34.5515 85.1933 34.6144C85.6847 40.9682 85.6847 47.3484 85.1933 53.7029C85.1845 53.7644 85.1794 53.8274 85.1794 53.8911C84.5825 61.46 83.2912 68.99 81.2997 76.3941C77.3739 72.3372 73.2812 68.634 69.6051 65.8223C65.286 62.4831 60.7977 59.7505 55.9095 57.4858V30.8293C60.7985 28.5639 65.2875 25.8305 69.5993 22.4972C70.7829 21.592 72.0119 20.5944 73.2533 19.5309C73.8517 19.0182 73.9213 18.1173 73.4086 17.5189C72.8966 16.9206 71.9958 16.851 71.3966 17.3637C70.1955 18.3927 69.0075 19.3573 67.8598 20.2348C63.5553 23.5622 59.0743 26.2619 54.1715 28.4848H31.8187C28.8531 28.4848 26.4412 30.8967 26.4412 33.8622V34.0109H24.2981C21.2696 34.0109 18.8057 36.4748 18.8057 39.5026V48.8117C18.8057 51.8403 21.2696 54.3042 24.2981 54.3042H26.4412V54.4529C26.4412 55.364 26.6697 56.2224 27.0711 56.9753H1.23926C0.451173 56.9753 -0.1875 57.614 -0.1875 58.4021C-0.1875 59.1902 0.451173 59.8296 1.23926 59.8296H9.65554V85.5376H1.23926C0.451173 85.5376 -0.1875 86.1763 -0.1875 86.9644C-0.1875 87.7525 0.451173 88.3919 1.23926 88.3919H17.7715C18.5596 88.3919 19.1983 87.7525 19.1983 86.9644C19.1983 86.1763 18.5596 85.5376 17.7715 85.5376H12.5091V59.8296H27.0059V85.5376H23.48C22.6912 85.5376 22.0525 86.1763 22.0525 86.9644C22.0525 87.7525 22.6912 88.3919 23.48 88.3919H51.9581C54.7135 88.3919 56.9554 86.1499 56.9554 83.3946C56.9554 81.9964 56.3783 80.7322 55.4496 79.824C56.3776 78.9165 56.9554 77.6516 56.9554 76.2534C56.9554 74.8552 56.3776 73.5904 55.4488 72.6829C56.3768 71.7754 56.954 70.5105 56.954 69.1138C56.954 67.7778 56.4347 66.5232 55.4928 65.5813C55.4789 65.5674 55.465 65.5549 55.451 65.541C56.3783 64.6335 56.9547 63.3686 56.9547 61.9719C56.9547 61.6863 56.9298 61.405 56.8829 61.1296C60.7457 63.0852 64.3624 65.3755 67.8664 68.0847C71.9723 71.2246 76.6195 75.5174 80.9526 80.1726C81.2258 80.4656 81.6059 80.6275 81.997 80.6267C82.1069 80.6267 82.2175 80.6143 82.3266 80.5879C82.8268 80.4693 83.2238 80.0913 83.3674 79.5984C85.7133 71.5235 87.2397 63.2888 87.9516 55.0044C90.0266 54.324 91.8891 53.0466 93.2749 51.3342C94.9111 49.312 95.8127 46.7631 95.8127 44.1572C95.8127 41.5512 94.9118 39.0024 93.2756 36.9809V36.9809ZM53.4735 60.4573C53.8778 60.8616 54.1005 61.3999 54.1005 61.9719C54.1005 63.154 53.1395 64.1157 51.9588 64.1157H48.2843C48.3531 63.7078 48.381 63.2888 48.3656 62.8647C48.326 61.7551 47.9745 60.7165 47.3966 59.8303H51.9588C52.5309 59.8303 53.0692 60.053 53.4735 60.4573ZM42.6768 79.824C41.7489 80.7322 41.171 81.9964 41.171 83.3946C41.171 84.1607 41.3453 84.888 41.6551 85.5376H37.3353V69.1973H41.1724C41.193 70.5003 41.7093 71.7219 42.6351 72.647C42.6483 72.6602 42.6615 72.6726 42.6746 72.6851C41.7481 73.5933 41.171 74.8574 41.171 76.2534C41.171 77.6516 41.7481 78.9165 42.6768 79.824ZM29.8602 59.8296L42.1656 59.8303C43.9527 59.8406 45.452 61.2424 45.5135 62.9658C45.545 63.8601 45.222 64.7061 44.6024 65.3477C43.9835 65.9893 43.1507 66.343 42.2586 66.343H35.7459C34.9578 66.343 34.3192 66.9817 34.3192 67.7698V69.3958C34.3192 72.1497 32.4185 74.4678 29.8602 75.1065V59.8296ZM44.6515 70.6277C44.2472 70.2234 44.0238 69.6858 44.0238 69.1138C44.0238 69.0545 44.0282 68.9959 44.0326 68.9365C45.0191 68.6399 45.9186 68.0942 46.6561 67.3296C46.7682 67.2139 46.8729 67.093 46.9747 66.9707H51.9588C52.5323 66.9707 53.0692 67.1926 53.4735 67.5977C53.8778 68.002 54.1005 68.541 54.1005 69.1138C54.1005 70.2944 53.1395 71.2547 51.9588 71.2547H46.169C45.5963 71.2547 45.0565 71.0313 44.6515 70.6277ZM29.2947 33.8622C29.2947 32.4706 30.4271 31.3383 31.8187 31.3383H53.0553V56.9761L31.8004 56.9753C30.4168 56.9651 29.2947 55.8379 29.2947 54.4529V33.8622ZM24.2981 51.4499C22.8436 51.4499 21.66 50.2663 21.66 48.8117V39.5026C21.66 38.048 22.8436 36.8652 24.2981 36.8652H26.4412V51.4499H24.2981ZM29.8602 78.0178C31.6378 77.7241 33.2359 76.8928 34.481 75.6961V85.5376H29.8602V78.0178ZM54.1012 83.3946C54.1012 84.576 53.1402 85.5376 51.9581 85.5376H46.1683C44.9862 85.5376 44.0252 84.576 44.0252 83.3946C44.0252 82.2124 44.9862 81.2515 46.1683 81.2515H51.9581C53.1402 81.2515 54.1012 82.2124 54.1012 83.3946ZM46.1683 78.3972C44.9862 78.3972 44.0252 77.4356 44.0252 76.2534C44.0252 75.072 44.9862 74.1104 46.1683 74.1104H51.9581C53.1402 74.1104 54.1019 75.072 54.1019 76.2534C54.1019 77.4356 53.1402 78.3972 51.9581 78.3972H46.1683ZM88.1816 51.8337C88.4921 46.7207 88.4921 41.5952 88.1816 36.4821C91.0358 37.9016 92.9584 40.8723 92.9584 44.1579C92.9584 47.4436 91.0358 50.4143 88.1816 51.8337Z" fill="#4A051C"/>
<path d="M33.4768 37.9417H44.8924C45.6805 37.9417 46.3191 37.303 46.3191 36.5149C46.3191 35.7268 45.6805 35.0874 44.8924 35.0874H33.4768C32.688 35.0874 32.0493 35.7268 32.0493 36.5149C32.0493 37.303 32.688 37.9417 33.4768 37.9417Z" fill="#4A051C"/>
<path d="M33.4768 43.2788H44.8924C45.6805 43.2788 46.3191 42.6401 46.3191 41.8521C46.3191 41.064 45.6805 40.4253 44.8924 40.4253H33.4768C32.688 40.4253 32.0493 41.064 32.0493 41.8521C32.0493 42.6401 32.688 43.2788 33.4768 43.2788Z" fill="#4A051C"/>
<path d="M33.4768 48.6157H44.8924C45.6805 48.6157 46.3191 47.9771 46.3191 47.189C46.3191 46.4009 45.6805 45.7622 44.8924 45.7622H33.4768C32.688 45.7622 32.0493 46.4009 32.0493 47.189C32.0493 47.9771 32.688 48.6157 33.4768 48.6157Z" fill="#4A051C"/>
</g>
<defs>
<clipPath id="clip0_144_1397">
<rect width="96" height="96" fill="white"/>
</clipPath>
</defs>
</svg>
