<svg width="325" height="239" viewBox="0 0 325 239" fill="none" xmlns="http://www.w3.org/2000/svg">
<g clip-path="url(#clip0_78_1927)">
<path d="M175.517 183.733L169.484 189.766H145.35L139.317 183.733L145.35 162.616L151.384 159.6H163.45L169.484 162.616L175.517 183.733Z" fill="#DBDBDB"/>
<path d="M115.184 183.733H199.65C202.982 183.733 205.684 186.435 205.684 189.767V195.8H109.15V189.767C109.15 186.435 111.852 183.733 115.184 183.733Z" fill="#E4E4E2"/>
<path d="M232.833 189.767C239.497 189.767 244.9 195.169 244.9 201.833V216.917C244.9 223.58 239.497 228.983 232.833 228.983C226.169 228.983 220.767 223.58 220.767 216.917V201.833C220.767 195.169 226.169 189.767 232.833 189.767Z" fill="#06BCC1"/>
<path d="M244.9 204.85H220.767V201.833C220.767 195.17 226.169 189.767 232.833 189.767C239.497 189.767 244.9 195.17 244.9 201.833V204.85Z" fill="#F0F0F0"/>
<path d="M235.85 189.766H229.817C229.827 181.44 236.574 174.693 244.9 174.683H247.917C252.915 174.683 256.967 170.631 256.967 165.633C256.967 160.635 252.915 156.583 247.917 156.583H226.8V150.55H247.917C256.247 150.55 263 157.303 263 165.633C263 173.963 256.247 180.716 247.917 180.716H244.9C239.902 180.716 235.85 184.769 235.85 189.766Z" fill="#C3C3C3"/>
<path d="M229.817 198.817H235.85V213.9H229.817V198.817Z" fill="#F7F7F5"/>
<path d="M97.0833 54.0166H220.767C227.43 54.0166 232.833 59.4195 232.833 66.0833V150.55C232.833 157.214 227.43 162.617 220.767 162.617H97.0833C90.4195 162.617 85.0166 157.214 85.0166 150.55V66.0833C85.0166 59.4195 90.4195 54.0166 97.0833 54.0166Z" fill="#FFCF00"/>
<path d="M169.483 123.4C167.817 123.4 166.466 122.05 166.466 120.384V108.317C166.466 106.651 167.817 105.3 169.483 105.3C171.149 105.3 172.5 106.651 172.5 108.317V120.384C172.5 122.05 171.149 123.4 169.483 123.4Z" fill="#C3C3C3"/>
<path d="M172.501 111.333H145.351V93.2334H175.517L172.501 111.333Z" fill="#06BCC1"/>
<path d="M177.819 91.2847C177.246 90.6071 176.404 90.2167 175.517 90.2167H147.215L139.015 73.7856C138.502 72.7575 137.449 72.1108 136.3 72.1167H124.233C122.568 72.1167 121.217 73.4675 121.217 75.1334C121.217 76.7993 122.568 78.1501 124.233 78.1501H134.435L142.333 93.9449V120.383C142.333 122.049 143.684 123.4 145.35 123.4C147.016 123.4 148.367 122.049 148.367 120.383V114.35H172.5C173.973 114.35 175.231 113.285 175.474 111.831L178.491 93.7313C178.638 92.8563 178.392 91.9622 177.819 91.2847ZM169.945 108.317H148.367V96.2501H171.954L169.945 108.317Z" fill="#C3C3C3"/>
<path d="M85.0166 144.517H232.833V150.55C232.833 157.214 227.43 162.617 220.767 162.617H97.0833C90.4195 162.617 85.0166 157.214 85.0166 150.55V144.517Z" fill="#E4E4E2"/>
<path d="M151.384 123.401C151.384 126.732 148.682 129.434 145.35 129.434C142.018 129.434 139.317 126.732 139.317 123.401C139.317 120.069 142.018 117.367 145.35 117.367C148.682 117.367 151.384 120.069 151.384 123.401Z" fill="#A6A6A6"/>
<path d="M175.516 123.401C175.516 126.732 172.815 129.434 169.483 129.434C166.151 129.434 163.45 126.732 163.45 123.401C163.45 120.069 166.151 117.367 169.483 117.367C172.815 117.367 175.516 120.069 175.516 123.401Z" fill="#A6A6A6"/>
<path d="M148.367 123.399C148.367 125.065 147.016 126.416 145.35 126.416C143.684 126.416 142.333 125.065 142.333 123.399C142.333 121.734 143.684 120.383 145.35 120.383C147.016 120.383 148.367 121.734 148.367 123.399Z" fill="#DBDBDB"/>
<path d="M172.5 123.399C172.5 125.065 171.149 126.416 169.483 126.416C167.817 126.416 166.466 125.065 166.466 123.399C166.466 121.734 167.817 120.383 169.483 120.383C171.149 120.383 172.5 121.734 172.5 123.399Z" fill="#DBDBDB"/>
<path d="M184.566 132.451C182.901 132.451 181.55 131.1 181.55 129.434V120.384C181.55 118.718 182.901 117.367 184.566 117.367H193.616C195.282 117.367 196.633 118.718 196.633 120.384C196.633 122.05 195.282 123.401 193.616 123.401H187.583V129.434C187.583 131.1 186.232 132.451 184.566 132.451Z" fill="#99D8AA"/>
<path d="M196.633 135.466C195.833 135.466 195.066 135.148 194.5 134.582L182.434 122.516C181.291 121.332 181.307 119.451 182.47 118.287C183.634 117.123 185.515 117.107 186.699 118.25L198.766 130.317C199.628 131.18 199.887 132.478 199.42 133.604C198.953 134.731 197.853 135.466 196.633 135.466Z" fill="#99D8AA"/>
<path d="M97.0833 165.633H141.349L137.042 180.717H115.183C110.186 180.717 106.133 184.769 106.133 189.767V195.8C106.133 197.466 107.484 198.817 109.15 198.817H205.683C207.349 198.817 208.7 197.466 208.7 195.8V189.767C208.7 184.769 204.648 180.717 199.65 180.717H177.791L173.484 165.633H220.767C226.757 165.626 232.175 162.073 234.571 156.583H247.917C252.914 156.583 256.967 160.636 256.967 165.633C256.967 170.631 252.914 174.683 247.917 174.683H244.9C237.637 174.697 231.413 179.884 230.094 187.027C222.951 188.347 217.763 194.57 217.75 201.833V216.917C217.75 225.246 224.504 232 232.833 232C241.163 232 247.917 225.246 247.917 216.917V201.833C247.9 194.841 243.081 188.775 236.273 187.182C237.405 183.358 240.913 180.73 244.9 180.717H247.917C256.246 180.717 263 173.963 263 165.633C263 157.304 256.246 150.55 247.917 150.55H235.85V66.0833C235.84 57.7566 229.093 51.0103 220.767 51H97.0833C88.7566 51.0103 82.0103 57.7566 82 66.0833V150.55C82.0103 158.877 88.7566 165.623 97.0833 165.633ZM232.833 225.967C227.836 225.967 223.783 221.914 223.783 216.917V207.867H229.817V213.9H235.85V207.867H241.883V216.917C241.883 221.914 237.831 225.967 232.833 225.967ZM241.883 201.833H235.85V198.817H229.817V201.833H223.783C223.783 196.836 227.836 192.783 232.833 192.783C237.831 192.783 241.883 196.836 241.883 201.833ZM202.667 189.767V192.783H112.167V189.767C112.167 188.101 113.517 186.75 115.183 186.75H199.65C201.316 186.75 202.667 188.101 202.667 189.767ZM171.516 180.717H143.317L147.624 165.633H167.209L171.516 180.717ZM220.767 159.6H97.0833C92.0855 159.6 88.0333 155.548 88.0333 150.55V147.533H229.817V150.55C229.817 155.548 225.764 159.6 220.767 159.6ZM97.0833 57.0333H220.767C225.764 57.0333 229.817 61.0855 229.817 66.0833V141.5H88.0333V66.0833C88.0333 61.0855 92.0855 57.0333 97.0833 57.0333Z" fill="#4A051C"/>
<path d="M124.233 78.1501H134.435L142.333 93.9449V118.205C139.968 119.57 138.816 122.354 139.523 124.992C140.229 127.629 142.619 129.464 145.35 129.464C148.081 129.464 150.472 127.629 151.177 124.992C151.884 122.354 150.732 119.57 148.367 118.205V114.35H166.467V118.205C164.101 119.57 162.949 122.354 163.656 124.992C164.362 127.629 166.753 129.464 169.483 129.464C172.214 129.464 174.605 127.629 175.311 124.992C176.018 122.354 174.866 119.57 172.5 118.205V114.35C173.973 114.35 175.231 113.285 175.474 111.831L178.491 93.7313C178.638 92.8563 178.392 91.9622 177.819 91.2847C177.246 90.6071 176.404 90.2167 175.517 90.2167H147.215L139.015 73.7856C138.502 72.7575 137.449 72.1108 136.3 72.1167H124.233C122.568 72.1167 121.217 73.4675 121.217 75.1334C121.217 76.7993 122.568 78.1501 124.233 78.1501ZM169.945 108.317H148.367V96.2501H171.954L169.945 108.317Z" fill="#4A051C"/>
<path d="M184.566 132.451C186.232 132.451 187.583 131.1 187.583 129.434V127.666L194.5 134.583C195.685 135.726 197.566 135.71 198.729 134.547C199.893 133.383 199.909 131.502 198.766 130.318L191.849 123.401H193.616C195.282 123.401 196.633 122.05 196.633 120.384C196.633 118.718 195.282 117.367 193.616 117.367H184.566C182.901 117.367 181.55 118.718 181.55 120.384V129.434C181.55 131.1 182.901 132.451 184.566 132.451Z" fill="#4A051C"/>
</g>
<g clip-path="url(#clip1_78_1927)">
<path d="M131.747 166.637C131.747 173.277 127.104 178.835 120.887 180.235H93.3345V153.039H120.887C126.081 154.207 130.177 158.279 131.383 163.463C131.622 164.483 131.747 165.545 131.747 166.637Z" fill="#00A2A7"/>
<path d="M131.383 163.463C130.177 168.642 126.081 172.716 120.887 173.884H93.3345V153.039H120.887C126.081 154.207 130.177 158.279 131.383 163.463Z" fill="#06BCC1"/>
<path d="M70.5928 226.389H39.6885V186.52H70.5928" fill="#F9C2AF"/>
<path d="M70.5928 226.388H39.6885V219.691H70.5928" fill="#F4AF9D"/>
<path d="M64.3731 189.204V226.388H54.7222V190.175" fill="#FFCF00"/>
<path d="M58.8697 189.204V226.388H50.1226V190.175" fill="#FCA601"/>
<path d="M77.508 191.502C77.508 192.704 77.0817 193.807 76.3732 194.668C75.4562 195.777 74.074 196.485 72.5241 196.485H64.4425C63.0654 196.485 61.8182 195.927 60.9154 195.026C60.0158 194.123 59.4565 192.876 59.4565 191.502C59.4565 188.94 61.3929 186.829 63.8812 186.55C64.0653 186.529 64.2534 186.518 64.4425 186.518H72.5241C73.9012 186.518 75.1464 187.077 76.0491 187.977C76.9488 188.881 77.508 190.128 77.508 191.502Z" fill="#F4AF9D"/>
<path d="M77.508 191.502C77.508 192.705 77.0817 193.808 76.3732 194.669C76.1902 194.688 76.0032 194.699 75.815 194.699H67.7324C66.3553 194.699 65.1111 194.141 64.2084 193.24C63.3087 192.338 62.7495 191.093 62.7495 189.716C62.7495 188.514 63.1758 187.411 63.8812 186.55C64.0653 186.531 64.2534 186.52 64.4425 186.52H72.5241C73.9012 186.52 75.1464 187.078 76.0492 187.978C76.9488 188.881 77.508 190.128 77.508 191.502Z" fill="#F9C2AF"/>
<path d="M77.5085 211.438C77.5085 212.639 77.0822 213.743 76.3737 214.603C75.4567 215.712 74.0745 216.421 72.5256 216.421H64.443C63.0669 216.421 61.8197 215.862 60.9159 214.962C60.0163 214.059 59.457 212.812 59.457 211.437C59.457 208.875 61.3933 206.764 63.8817 206.485C64.0657 206.465 64.2549 206.454 64.443 206.454H72.5256C73.9027 206.454 75.1469 207.012 76.0496 207.913C76.9493 208.816 77.5085 210.063 77.5085 211.438Z" fill="#F4AF9D"/>
<path d="M77.509 211.438C77.509 212.639 77.0827 213.743 76.3742 214.603C76.1912 214.624 76.0051 214.635 75.816 214.635H67.7344C66.3573 214.635 65.1121 214.076 64.2094 213.176C63.3097 212.273 62.7505 211.029 62.7505 209.651C62.7505 208.45 63.1768 207.346 63.8822 206.485C64.0662 206.465 64.2554 206.454 64.4435 206.454H72.5261C73.9032 206.454 75.1474 207.013 76.0501 207.913C76.9498 208.816 77.509 210.063 77.509 211.438Z" fill="#F9C2AF"/>
<path d="M77.508 201.471C77.508 202.673 77.0817 203.777 76.3732 204.637C75.4562 205.747 74.074 206.455 72.5241 206.455H64.4425C63.0654 206.455 61.8182 205.896 60.9154 204.996C60.0158 204.093 59.4565 202.845 59.4565 201.471C59.4565 198.909 61.3929 196.798 63.8812 196.519C64.0653 196.5 64.2534 196.487 64.4425 196.487H72.5241C73.9012 196.487 75.1464 197.047 76.0491 197.946C76.9488 198.85 77.508 200.097 77.508 201.471Z" fill="#F4AF9D"/>
<path d="M77.508 201.471C77.508 202.673 77.0817 203.777 76.3732 204.637C76.1902 204.657 76.0032 204.669 75.815 204.669H67.7324C66.3553 204.669 65.1111 204.11 64.2084 203.21C63.3087 202.306 62.7495 201.062 62.7495 199.685C62.7495 198.483 63.1758 197.38 63.8812 196.519C64.0653 196.5 64.2534 196.488 64.4425 196.488H72.5241C73.9012 196.488 75.1464 197.046 76.0492 197.947C76.9488 198.85 77.508 200.097 77.508 201.471Z" fill="#F9C2AF"/>
<path d="M77.51 221.405C77.51 222.606 77.0837 223.71 76.3752 224.571C75.4581 225.679 74.0759 226.388 72.5271 226.388H64.4455C63.0684 226.388 61.8211 225.828 60.9174 224.929C60.0177 224.026 59.4585 222.779 59.4585 221.405C59.4585 218.842 61.3948 216.732 63.8832 216.453C64.0672 216.432 64.2563 216.421 64.4455 216.421H72.5271C73.9042 216.421 75.1484 216.98 76.0511 217.88C76.9508 218.784 77.51 220.031 77.51 221.405Z" fill="#F4AF9D"/>
<path d="M77.51 221.405C77.51 222.606 77.0837 223.71 76.3752 224.571C76.1922 224.59 76.0061 224.602 75.817 224.602H67.7354C66.3583 224.602 65.1131 224.042 64.2103 223.143C63.3107 222.24 62.7515 220.996 62.7515 219.619C62.7515 218.417 63.1778 217.313 63.8832 216.453C64.0672 216.433 64.2553 216.421 64.4445 216.421H72.5261C73.9032 216.421 75.1484 216.98 76.0511 217.88C76.9508 218.784 77.51 220.031 77.51 221.405Z" fill="#F9C2AF"/>
<path d="M1.72998 186.52H39.6885V226.389H1.72998V186.52Z" fill="#06BCC1"/>
<path d="M1.72998 216.019H39.6885V226.388H1.72998V216.019Z" fill="#00A2A7"/>
<path d="M58.8298 186.52H39.6885V212.073C45.3257 212.073 49.8955 207.503 49.8955 201.866V199.595H58.9862C62.6768 199.595 65.6529 196.538 65.52 192.819C65.3942 189.277 62.3752 186.52 58.8298 186.52Z" fill="#F9C2AF"/>
<path d="M58.9872 199.594H49.8955V201.866C49.8955 204.685 48.7525 207.236 46.9041 209.081C45.0588 210.93 42.508 212.073 39.6895 212.073V203.655C40.674 203.164 41.5685 202.518 42.3394 201.745C43.3811 200.705 44.199 199.44 44.7143 198.029C45.0956 196.986 46.0597 196.27 47.1709 196.27H58.8297C61.8824 196.27 64.5436 194.225 65.3052 191.397C65.4299 191.854 65.5036 192.328 65.5199 192.819C65.6528 196.538 62.6758 199.594 58.9872 199.594Z" fill="#F4AF9D"/>
<path d="M30.4246 197.117C30.4246 199.299 28.656 201.067 26.4743 201.067C24.2926 201.067 22.5229 199.299 22.5229 197.117C22.5229 194.935 24.2926 193.167 26.4743 193.167C28.656 193.167 30.4246 194.935 30.4246 197.117Z" fill="#FFCF00"/>
<path d="M114.454 117.722C109.112 123.462 102.513 129.792 95.9408 134.819C89.3109 139.944 82.7046 143.767 76.0491 146.751C76.0491 152.479 69.4346 162.191 69.4346 167.919C69.4346 175.447 76.0491 178.992 76.0491 186.52C82.7046 189.503 89.3109 193.327 95.9398 198.452C102.513 203.479 109.111 209.809 114.454 215.549C123.736 183.601 123.736 149.671 114.454 117.722Z" fill="#FFCF00"/>
<path d="M119.968 189.106C118.821 198.014 116.981 206.855 114.454 215.55C109.114 209.811 102.513 203.479 95.9408 198.452C89.3119 193.328 82.7066 189.505 76.0511 186.522C76.0511 178.992 69.4355 175.45 69.4355 167.92C69.4355 167.779 69.4407 167.636 69.4488 167.49C69.7566 170.826 76.0511 172.48 76.0511 175.904C82.7066 177.293 89.3119 179.075 95.9408 181.462C102.513 183.807 114.426 186.756 119.768 189.432C119.838 189.324 119.904 189.214 119.968 189.106Z" fill="#FCA601"/>
<path d="M69.5306 166.637C69.4907 166.929 69.4621 167.213 69.4488 167.489C69.4407 167.408 69.4355 167.323 69.4355 167.235C69.4355 167.044 69.4693 166.844 69.5306 166.637Z" fill="#EAAD18"/>
<path d="M76.0483 146.752V186.522H44.414C41.3684 186.522 38.8984 184.052 38.8984 181.008V152.266C38.8984 149.22 41.3684 146.752 44.414 146.752H76.0483Z" fill="#CCCCCC"/>
<path d="M76.0483 146.752V175.646H44.414C41.3684 175.646 38.8984 173.178 38.8984 170.132V152.266C38.8984 149.22 41.3684 146.752 44.414 146.752H76.0483Z" fill="#E6E6E6"/>
<path d="M38.898 154.465V178.809H33.9152C30.7817 178.809 28.2422 176.266 28.2422 173.133V160.138C28.2422 157.006 30.7817 154.465 33.9152 154.465H38.898Z" fill="#FCA601"/>
<path d="M38.898 154.465V170.83H33.9152C30.7817 170.83 28.2422 168.291 28.2422 165.158V160.138C28.2422 157.006 30.7817 154.465 33.9152 154.465H38.898Z" fill="#FFCF00"/>
<path d="M26.4746 191.175C23.198 191.175 20.5317 193.841 20.5317 197.117C20.5317 200.394 23.198 203.06 26.4746 203.06C29.7512 203.06 32.4164 200.394 32.4164 197.117C32.4164 193.841 29.7512 191.175 26.4746 191.175ZM26.4746 199.076C25.394 199.076 24.5158 198.197 24.5158 197.117C24.5158 196.037 25.394 195.158 26.4746 195.158C27.5542 195.158 28.4334 196.038 28.4334 197.117C28.4334 198.197 27.5542 199.076 26.4746 199.076Z" fill="#4A051C"/>
<path d="M130.197 156.619C128.263 154.228 125.662 152.447 122.766 151.496C121.772 139.933 119.641 128.438 116.367 117.167C116.167 116.479 115.612 115.95 114.915 115.784C114.217 115.618 113.485 115.841 112.996 116.365C110.475 119.073 107.867 121.707 105.244 124.193C104.445 124.951 104.412 126.211 105.169 127.01C105.926 127.808 107.186 127.841 107.985 127.084C109.833 125.333 111.673 123.51 113.482 121.64C116.261 131.974 118.063 142.486 118.896 153.05C118.896 153.14 118.903 153.228 118.916 153.316C119.602 162.184 119.602 171.09 118.916 179.96C118.903 180.046 118.896 180.134 118.896 180.222C118.063 190.787 116.261 201.298 113.481 211.633C108.001 205.97 102.288 200.801 97.1572 196.876C91.1284 192.216 84.8635 188.401 78.0404 185.24V148.032C84.8645 144.87 91.1305 141.055 97.149 136.402C98.8011 135.138 100.517 133.746 102.249 132.261C103.085 131.546 103.182 130.288 102.466 129.453C101.752 128.618 100.494 128.521 99.6578 129.236C97.9812 130.673 96.3229 132.019 94.7209 133.244C88.7126 137.888 82.4579 141.657 75.6144 144.76H44.4136C40.2741 144.76 36.9075 148.126 36.9075 152.266V152.473H33.9162C29.6888 152.473 26.2496 155.912 26.2496 160.139V173.133C26.2496 177.36 29.6888 180.799 33.9162 180.799H36.9075V181.007C36.9075 182.278 37.2265 183.477 37.7867 184.528H1.7298C0.629763 184.528 -0.261719 185.419 -0.261719 186.519C-0.261719 187.619 0.629763 188.512 1.7298 188.512H13.4775V224.396H1.7298C0.629763 224.396 -0.261719 225.287 -0.261719 226.387C-0.261719 227.487 0.629763 228.38 1.7298 228.38H24.8061C25.9061 228.38 26.7976 227.487 26.7976 226.387C26.7976 225.287 25.9061 224.396 24.8061 224.396H17.4606V188.512H37.6958V224.396H32.7742C31.6731 224.396 30.7817 225.287 30.7817 226.387C30.7817 227.487 31.6731 228.38 32.7742 228.38H72.5249C76.3709 228.38 79.5003 225.25 79.5003 221.404C79.5003 219.453 78.6947 217.688 77.3984 216.421C78.6937 215.154 79.5003 213.388 79.5003 211.437C79.5003 209.485 78.6937 207.719 77.3973 206.453C78.6926 205.186 79.4983 203.42 79.4983 201.471C79.4983 199.606 78.7734 197.855 77.4587 196.54C77.4393 196.521 77.4198 196.503 77.4004 196.484C78.6947 195.217 79.4993 193.452 79.4993 191.502C79.4993 191.103 79.4645 190.711 79.3991 190.326C84.7909 193.056 89.8392 196.253 94.7301 200.034C100.461 204.417 106.948 210.409 112.996 216.907C113.378 217.316 113.908 217.542 114.454 217.541C114.607 217.541 114.762 217.524 114.914 217.487C115.612 217.321 116.167 216.794 116.367 216.106C119.641 204.834 121.772 193.34 122.766 181.776C125.662 180.827 128.262 179.044 130.196 176.654C132.48 173.831 133.739 170.273 133.739 166.636C133.739 162.998 132.481 159.44 130.197 156.619ZM74.6401 189.388C75.2044 189.952 75.5152 190.704 75.5152 191.502C75.5152 193.152 74.1739 194.494 72.5259 194.494H67.3968C67.4929 193.925 67.5318 193.34 67.5103 192.748C67.4551 191.199 66.9644 189.75 66.1577 188.513H72.5259C73.3243 188.513 74.0758 188.823 74.6401 189.388ZM59.5698 216.421C58.2745 217.688 57.4678 219.453 57.4678 221.404C57.4678 222.474 57.7111 223.489 58.1436 224.396H52.1138V201.587H57.4699C57.4985 203.406 58.2192 205.111 59.5115 206.403C59.5299 206.421 59.5483 206.438 59.5667 206.456C58.2734 207.723 57.4678 209.488 57.4678 211.437C57.4678 213.388 58.2734 215.154 59.5698 216.421ZM41.6798 188.512L58.8562 188.513C61.3507 188.527 63.4434 190.484 63.5293 192.889C63.5732 194.138 63.1224 195.318 62.2575 196.214C61.3936 197.11 60.2312 197.603 58.986 197.603H49.8954C48.7953 197.603 47.9038 198.495 47.9038 199.595V201.864C47.9038 205.708 45.2509 208.944 41.6798 209.836V188.512ZM62.326 203.584C61.7617 203.02 61.4498 202.269 61.4498 201.471C61.4498 201.388 61.456 201.306 61.4621 201.223C62.8392 200.809 64.0946 200.048 65.1241 198.98C65.2806 198.819 65.4268 198.65 65.5689 198.479H72.5259C73.3264 198.479 74.0758 198.789 74.6401 199.355C75.2044 199.919 75.5152 200.671 75.5152 201.471C75.5152 203.119 74.1739 204.459 72.5259 204.459H64.4443C63.6448 204.459 62.8913 204.147 62.326 203.584ZM40.8906 152.266C40.8906 150.323 42.4711 148.743 44.4136 148.743H74.0563V184.529L44.388 184.528C42.4568 184.513 40.8906 182.94 40.8906 181.007V152.266ZM33.9162 176.815C31.8858 176.815 30.2337 175.163 30.2337 173.133V160.139C30.2337 158.108 31.8858 156.457 33.9162 156.457H36.9075V176.815H33.9162ZM41.6798 213.899C44.161 213.489 46.3918 212.329 48.1298 210.659V224.396H41.6798V213.899ZM75.5162 221.404C75.5162 223.053 74.1749 224.396 72.5249 224.396H64.4433C62.7932 224.396 61.4519 223.053 61.4519 221.404C61.4519 219.754 62.7932 218.413 64.4433 218.413H72.5249C74.1749 218.413 75.5162 219.754 75.5162 221.404ZM64.4433 214.429C62.7932 214.429 61.4519 213.087 61.4519 211.437C61.4519 209.788 62.7932 208.445 64.4433 208.445H72.5249C74.1749 208.445 75.5173 209.788 75.5173 211.437C75.5173 213.087 74.1749 214.429 72.5249 214.429H64.4433ZM123.087 177.351C123.52 170.214 123.52 163.059 123.087 155.922C127.071 157.904 129.754 162.05 129.754 166.637C129.754 171.223 127.071 175.369 123.087 177.351Z" fill="#4A051C"/>
<path d="M46.7284 157.96H62.6626C63.7626 157.96 64.6541 157.069 64.6541 155.969C64.6541 154.869 63.7626 153.976 62.6626 153.976H46.7284C45.6273 153.976 44.7358 154.869 44.7358 155.969C44.7358 157.069 45.6273 157.96 46.7284 157.96Z" fill="#4A051C"/>
<path d="M46.7284 165.41H62.6626C63.7626 165.41 64.6541 164.518 64.6541 163.418C64.6541 162.318 63.7626 161.427 62.6626 161.427H46.7284C45.6273 161.427 44.7358 162.318 44.7358 163.418C44.7358 164.518 45.6273 165.41 46.7284 165.41Z" fill="#4A051C"/>
<path d="M46.7284 172.86H62.6626C63.7626 172.86 64.6541 171.969 64.6541 170.868C64.6541 169.768 63.7626 168.877 62.6626 168.877H46.7284C45.6273 168.877 44.7358 169.768 44.7358 170.868C44.7358 171.969 45.6273 172.86 46.7284 172.86Z" fill="#4A051C"/>
</g>
<path fill-rule="evenodd" clip-rule="evenodd" d="M215.189 6.7832H285.307V105.121H215.189V6.7832Z" fill="#FFCF00"/>
<path fill-rule="evenodd" clip-rule="evenodd" d="M227.28 18.874H245.709V37.3029H227.28V18.874Z" fill="#E4E4E2"/>
<path fill-rule="evenodd" clip-rule="evenodd" d="M315.672 39.1386C325.191 48.6568 325.191 64.0907 315.672 73.6089C310.916 78.3709 304.678 80.7456 298.441 80.7456C292.203 80.7456 285.965 78.3709 281.202 73.6089C271.684 64.0907 271.684 48.6568 281.202 39.1386C290.721 29.6205 306.154 29.6205 315.672 39.1386Z" fill="#06BCC1"/>
<path fill-rule="evenodd" clip-rule="evenodd" d="M227.28 39.4919H245.709C246.918 39.4919 247.898 38.5118 247.898 37.3027V18.8739C247.898 17.6656 246.918 16.6855 245.709 16.6855H227.28C226.072 16.6855 225.092 17.6656 225.092 18.8739V37.3027C225.091 38.5118 226.071 39.4919 227.28 39.4919ZM229.469 21.0631H243.52V35.1135H229.469V21.0631Z" fill="#4A051C"/>
<path fill-rule="evenodd" clip-rule="evenodd" d="M227.28 48.7062H266.792C268.001 48.7062 268.98 47.7261 268.98 46.5178C268.98 45.3087 268.001 44.3286 266.792 44.3286H227.28C226.072 44.3286 225.092 45.3087 225.092 46.5178C225.091 47.7261 226.071 48.7062 227.28 48.7062Z" fill="#4A051C"/>
<path fill-rule="evenodd" clip-rule="evenodd" d="M227.28 57.9205H264.727C265.936 57.9205 266.916 56.9413 266.916 55.7322C266.916 54.5231 265.936 53.543 264.727 53.543H227.28C226.072 53.543 225.092 54.5231 225.092 55.7322C225.091 56.9413 226.071 57.9205 227.28 57.9205Z" fill="#4A051C"/>
<path fill-rule="evenodd" clip-rule="evenodd" d="M254.106 39.4923H271.164C272.372 39.4923 273.352 38.5122 273.352 37.3031C273.352 36.0948 272.373 35.1147 271.164 35.1147H254.106C252.897 35.1147 251.917 36.0948 251.917 37.3031C251.917 38.5122 252.897 39.4923 254.106 39.4923Z" fill="#4A051C"/>
<path fill-rule="evenodd" clip-rule="evenodd" d="M254.106 21.0631H274.437C275.647 21.0631 276.627 20.083 276.627 18.8739C276.627 17.6656 275.647 16.6855 274.437 16.6855H254.106C252.897 16.6855 251.917 17.6656 251.917 18.8739C251.917 20.083 252.897 21.0631 254.106 21.0631Z" fill="#4A051C"/>
<path fill-rule="evenodd" clip-rule="evenodd" d="M254.106 30.2775H274.437C275.647 30.2775 276.627 29.2974 276.627 28.0891C276.627 26.88 275.647 25.8999 274.437 25.8999H254.106C252.897 25.8999 251.917 26.88 251.917 28.0891C251.917 29.2974 252.897 30.2775 254.106 30.2775Z" fill="#4A051C"/>
<path fill-rule="evenodd" clip-rule="evenodd" d="M274.437 90.4062H227.28C226.072 90.4062 225.092 91.3864 225.092 92.5955C225.092 93.8037 226.072 94.7838 227.28 94.7838H274.437C275.646 94.7838 276.626 93.8037 276.626 92.5955C276.626 91.3864 275.646 90.4062 274.437 90.4062Z" fill="#4A051C"/>
<path fill-rule="evenodd" clip-rule="evenodd" d="M225.091 83.3807C225.091 84.5898 226.071 85.5699 227.28 85.5699H274.437C275.646 85.5699 276.625 84.5898 276.625 83.3807C276.625 82.1725 275.646 81.1924 274.437 81.1924H227.28C226.071 81.1924 225.091 82.1725 225.091 83.3807Z" fill="#4A051C"/>
<path fill-rule="evenodd" clip-rule="evenodd" d="M227.28 76.3556H270.698C271.907 76.3556 272.887 75.3755 272.887 74.1664C272.887 72.9581 271.907 71.978 270.698 71.978H227.28C226.072 71.978 225.092 72.9581 225.092 74.1664C225.091 75.3755 226.071 76.3556 227.28 76.3556Z" fill="#4A051C"/>
<path fill-rule="evenodd" clip-rule="evenodd" d="M227.28 67.1349H266.271C267.48 67.1349 268.46 66.1548 268.46 64.9457C268.46 63.7374 267.48 62.7573 266.271 62.7573H227.28C226.072 62.7573 225.092 63.7374 225.092 64.9457C225.092 66.1548 226.071 67.1349 227.28 67.1349Z" fill="#4A051C"/>
<path fill-rule="evenodd" clip-rule="evenodd" d="M325 56.3734C325 49.2777 322.237 42.6075 317.22 37.5908C312.203 32.5732 305.533 29.8107 298.437 29.8107C294.601 29.8107 290.89 30.6199 287.496 32.1545V6.78296C287.496 5.57385 286.516 4.59375 285.307 4.59375H215.189C213.98 4.59375 213 5.57385 213 6.78296V105.12C213 106.33 213.98 107.31 215.189 107.31H285.307C286.516 107.31 287.496 106.33 287.496 105.12V80.5906C290.24 81.8322 293.193 82.5969 296.251 82.8447V105.12C296.251 106.33 297.232 107.31 298.441 107.31C299.649 107.31 300.629 106.33 300.629 105.12V82.8447C306.904 82.3372 312.729 79.6532 317.22 75.156C322.237 70.1393 325 63.4691 325 56.3734ZM298.441 78.5569C294.164 78.5569 290.073 77.3563 286.553 75.115C286.53 75.0988 286.506 75.0842 286.482 75.0689C285.149 74.2127 283.897 73.2078 282.75 72.061C280.503 69.8137 278.798 67.1725 277.682 64.2117C277.256 63.0803 275.993 62.5087 274.863 62.9351C273.731 63.3615 273.16 64.6235 273.586 65.7549C274.922 69.3027 276.964 72.4661 279.655 75.156C280.736 76.2378 281.895 77.2145 283.118 78.0809V102.932H217.378V8.97131H283.119V34.6659C281.895 35.5324 280.736 36.509 279.655 37.5908C276.964 40.2808 274.922 43.4441 273.586 46.9919C273.16 48.1233 273.731 49.3862 274.863 49.8118C275.995 50.2382 277.256 49.6665 277.682 48.5352C278.798 45.5743 280.503 42.9331 282.75 40.6866C291.401 32.0358 305.475 32.0366 314.125 40.6866C318.315 44.8762 320.622 50.4475 320.622 56.3734C320.622 62.2993 318.315 67.8706 314.124 72.0619C309.941 76.2498 304.371 78.5569 298.441 78.5569Z" fill="#4A051C"/>
<path fill-rule="evenodd" clip-rule="evenodd" d="M274.066 54.1875C272.863 54.1875 271.876 55.1676 271.876 56.3767C271.876 57.579 272.863 58.5591 274.066 58.5591C275.269 58.5591 276.254 57.579 276.254 56.3767C276.254 55.1667 275.269 54.1875 274.066 54.1875Z" fill="#4A051C"/>
<defs>
<clipPath id="clip0_78_1927">
<rect width="181" height="181" fill="white" transform="translate(82 51)"/>
</clipPath>
<clipPath id="clip1_78_1927">
<rect width="134" height="134" fill="white" transform="translate(0 105)"/>
</clipPath>
</defs>
</svg>
