<svg width="228" height="216" viewBox="0 0 228 216" fill="none" xmlns="http://www.w3.org/2000/svg">
<path opacity="0.5" d="M63.2182 215.985C46.901 215.985 34.1657 211.906 25.0121 203.747C15.8586 195.588 9.49091 183.549 5.90909 167.63C2.32727 151.711 0.536365 132.011 0.536365 108.53C0.536365 84.8505 2.32727 65.051 5.90909 49.1318C9.49091 33.2126 15.8586 21.1737 25.0121 13.0151C34.1657 4.85655 46.901 0.777255 63.2182 0.777255C79.5354 0.777255 92.1712 4.85655 101.126 13.0151C110.08 21.1737 116.348 33.2126 119.93 49.1318C123.711 65.051 125.602 84.8505 125.602 108.53C125.602 132.011 123.711 151.711 119.93 167.63C116.348 183.549 110.08 195.588 101.126 203.747C92.1712 211.906 79.5354 215.985 63.2182 215.985ZM63.2182 181.958C69.9838 181.958 75.2571 179.868 79.0379 175.689C83.0177 171.312 85.8035 163.849 87.3955 153.303C89.1864 142.558 90.0818 127.633 90.0818 108.53C90.0818 89.4273 89.1864 74.503 87.3955 63.7576C85.8035 53.0121 83.0177 45.55 79.0379 41.3712C75.2571 36.9934 69.9838 34.8045 63.2182 34.8045C56.4525 34.8045 51.0798 36.9934 47.1 41.3712C43.1202 45.55 40.2349 53.0121 38.4439 63.7576C36.852 74.503 36.0561 89.4273 36.0561 108.53C36.0561 127.633 36.852 142.558 38.4439 153.303C40.2349 163.849 43.1202 171.312 47.1 175.689C51.0798 179.868 56.4525 181.958 63.2182 181.958ZM191.553 213V49.4303L156.63 72.7121L137.825 42.2667L199.91 3.7621H227.072V213H191.553Z" fill="#FEEFE5"/>
</svg>
