<svg width="1920" height="500" viewBox="0 0 1920 500" fill="none" xmlns="http://www.w3.org/2000/svg">
<g clip-path="url(#clip0_209_1811)">
<path d="M164.927 303.796L170.808 305.167C168.677 312.922 173.503 320.757 181.567 322.632C184.338 323.269 187.229 323.148 189.937 322.28C192.644 321.413 195.067 319.831 196.951 317.702C198.405 316.052 199.465 314.094 200.052 311.975L205.943 313.342C205.12 316.321 203.632 319.074 201.591 321.394C198.948 324.381 195.548 326.6 191.75 327.817C187.952 329.034 183.896 329.204 180.01 328.309C168.711 325.671 161.941 314.678 164.927 303.796Z" fill="url(#paint0_linear_209_1811)"/>
<path d="M201.606 321.387C198.963 324.374 195.564 326.593 191.766 327.81C187.968 329.027 183.912 329.197 180.025 328.302C172.041 326.442 166.321 320.425 164.694 313.22L165.638 317.393C167.264 324.598 172.984 330.62 180.968 332.475C184.855 333.371 188.911 333.201 192.709 331.984C196.507 330.767 199.907 328.548 202.549 325.56C204.59 323.242 206.077 320.489 206.898 317.511L205.959 313.334C205.136 316.313 203.647 319.067 201.606 321.387V321.387Z" fill="#FBA500"/>
<path d="M1500.24 82.5991L1506.12 81.2284C1503.99 73.4734 1508.82 65.6382 1516.88 63.7635C1519.65 63.1258 1522.54 63.2471 1525.25 64.1146C1527.96 64.9822 1530.38 66.5638 1532.27 68.6929C1533.72 70.3431 1534.78 72.3013 1535.37 74.4203L1541.26 73.0534C1540.44 70.0744 1538.95 67.3211 1536.91 65.0006C1534.26 62.0136 1530.86 59.7947 1527.07 58.5778C1523.27 57.3608 1519.21 57.1908 1515.32 58.0856C1504.03 60.7241 1497.26 71.717 1500.24 82.5991Z" fill="url(#paint1_linear_209_1811)"/>
<path d="M1536.92 65.008C1534.28 62.021 1530.88 59.8021 1527.08 58.5851C1523.28 57.3682 1519.23 57.1982 1515.34 58.093C1507.36 59.9525 1501.64 65.9702 1500.01 73.1753L1500.95 69.0019C1502.58 61.7968 1508.3 55.7753 1516.28 53.9196C1520.17 53.0239 1524.23 53.1935 1528.02 54.4106C1531.82 55.6276 1535.22 57.8469 1537.86 60.8346C1539.91 63.1534 1541.39 65.9057 1542.21 68.8835L1541.27 73.0607C1540.45 70.0818 1538.96 67.3285 1536.92 65.008V65.008Z" fill="#FBA500"/>
<g filter="url(#filter0_f_209_1811)">
<path d="M128.25 229.965L113.241 213.083C136.492 193.985 138.657 159.625 118.062 136.489C110.973 128.559 101.876 122.689 91.7303 119.496C81.5847 116.302 70.7656 115.904 60.4127 118.343C52.41 120.249 44.9437 123.945 38.5752 129.152L23.5228 112.257C32.4688 104.931 42.9601 99.7305 54.2069 97.0463C68.7302 93.6238 83.9078 94.1819 98.1405 98.6618C112.373 103.142 125.134 111.378 135.079 122.502C163.908 154.953 160.865 203.157 128.25 229.965Z" fill="url(#paint2_linear_209_1811)"/>
<path d="M54.1436 97.0362C68.6669 93.6137 83.8445 94.1718 98.0772 98.6518C112.31 103.132 125.071 111.368 135.016 122.492C155.398 145.408 159.887 176.143 149.304 201.671L155.431 186.883C166.014 161.355 161.534 130.608 141.142 107.703C131.2 96.5766 118.439 88.3389 104.206 83.8588C89.9722 79.3787 74.7937 78.8221 60.2705 82.2477C49.029 84.9281 38.5436 90.1282 29.6064 97.455L23.4596 112.247C32.4055 104.921 42.8968 99.7205 54.1436 97.0362V97.0362Z" fill="#FBA500"/>
</g>
<g filter="url(#filter1_f_209_1811)">
<path d="M1553.25 448.965L1538.24 432.083C1561.49 412.985 1563.66 378.625 1543.06 355.489C1535.97 347.559 1526.88 341.689 1516.73 338.496C1506.58 335.302 1495.77 334.904 1485.41 337.343C1477.41 339.249 1469.94 342.945 1463.58 348.152L1448.52 331.257C1457.47 323.931 1467.96 318.731 1479.21 316.046C1493.73 312.624 1508.91 313.182 1523.14 317.662C1537.37 322.142 1550.13 330.378 1560.08 341.502C1588.91 373.953 1585.86 422.157 1553.25 448.965Z" fill="url(#paint3_linear_209_1811)"/>
<path d="M1479.14 316.036C1493.67 312.614 1508.84 313.172 1523.08 317.652C1537.31 322.132 1550.07 330.368 1560.02 341.492C1580.4 364.408 1584.89 395.143 1574.3 420.671L1580.43 405.883C1591.01 380.355 1586.53 349.608 1566.14 326.703C1556.2 315.577 1543.44 307.339 1529.21 302.859C1514.97 298.379 1499.79 297.822 1485.27 301.248C1474.03 303.928 1463.54 309.128 1454.61 316.455L1448.46 331.247C1457.41 323.921 1467.9 318.721 1479.14 316.036V316.036Z" fill="#FBA500"/>
</g>
<g filter="url(#filter2_f_209_1811)">
<path d="M1747.92 259.714L1756.1 259.446C1756.03 270.338 1765.09 278.897 1776.3 278.523C1780.14 278.386 1783.88 277.214 1787.12 275.13C1790.36 273.046 1792.98 270.127 1794.7 266.681C1796.02 264.013 1796.72 261.079 1796.74 258.101L1804.93 257.824C1804.9 262.01 1803.92 266.134 1802.06 269.885C1799.65 274.72 1795.98 278.814 1791.44 281.738C1786.89 284.662 1781.65 286.306 1776.25 286.498C1760.54 287.006 1747.83 274.998 1747.92 259.714Z" fill="url(#paint4_linear_209_1811)"/>
<path d="M1802.08 269.87C1799.67 274.705 1796 278.799 1791.45 281.723C1786.91 284.646 1781.66 286.291 1776.27 286.483C1765.17 286.849 1755.58 280.981 1750.92 272.125L1753.62 277.254C1758.27 286.11 1767.87 291.983 1778.96 291.612C1784.36 291.421 1789.61 289.778 1794.15 286.854C1798.69 283.93 1802.36 279.835 1804.77 275C1806.63 271.251 1807.61 267.128 1807.64 262.945L1804.95 257.809C1804.92 261.995 1803.93 266.119 1802.08 269.87V269.87Z" fill="#FBA500"/>
</g>
</g>
<defs>
<filter id="filter0_f_209_1811" x="-6.37796" y="50.1952" width="197.186" height="209.607" filterUnits="userSpaceOnUse" color-interpolation-filters="sRGB">
<feFlood flood-opacity="0" result="BackgroundImageFix"/>
<feBlend mode="normal" in="SourceGraphic" in2="BackgroundImageFix" result="shape"/>
<feGaussianBlur stdDeviation="14.9188" result="effect1_foregroundBlur_209_1811"/>
</filter>
<filter id="filter1_f_209_1811" x="1418.62" y="269.195" width="197.187" height="209.607" filterUnits="userSpaceOnUse" color-interpolation-filters="sRGB">
<feFlood flood-opacity="0" result="BackgroundImageFix"/>
<feBlend mode="normal" in="SourceGraphic" in2="BackgroundImageFix" result="shape"/>
<feGaussianBlur stdDeviation="14.9188" result="effect1_foregroundBlur_209_1811"/>
</filter>
<filter id="filter2_f_209_1811" x="1737.12" y="247.006" width="81.3237" height="55.4243" filterUnits="userSpaceOnUse" color-interpolation-filters="sRGB">
<feFlood flood-opacity="0" result="BackgroundImageFix"/>
<feBlend mode="normal" in="SourceGraphic" in2="BackgroundImageFix" result="shape"/>
<feGaussianBlur stdDeviation="5.40111" result="effect1_foregroundBlur_209_1811"/>
</filter>
<linearGradient id="paint0_linear_209_1811" x1="177.358" y1="327.896" x2="189.287" y2="309.2" gradientUnits="userSpaceOnUse">
<stop stop-color="#FFE67B"/>
<stop offset="1" stop-color="#FFCF00"/>
</linearGradient>
<linearGradient id="paint1_linear_209_1811" x1="1512.67" y1="58.4994" x2="1524.6" y2="77.195" gradientUnits="userSpaceOnUse">
<stop stop-color="#FACB00"/>
<stop offset="1" stop-color="#FFCF00"/>
</linearGradient>
<linearGradient id="paint2_linear_209_1811" x1="142.289" y1="129.491" x2="65.4794" y2="160.867" gradientUnits="userSpaceOnUse">
<stop stop-color="#FFE67B"/>
<stop offset="1" stop-color="#FFCF00"/>
</linearGradient>
<linearGradient id="paint3_linear_209_1811" x1="1567.29" y1="348.491" x2="1490.48" y2="379.867" gradientUnits="userSpaceOnUse">
<stop stop-color="#FFE67B"/>
<stop offset="1" stop-color="#FFCF00"/>
</linearGradient>
<linearGradient id="paint4_linear_209_1811" x1="1772.63" y1="286.886" x2="1781.69" y2="258.244" gradientUnits="userSpaceOnUse">
<stop stop-color="#FFE67B"/>
<stop offset="1" stop-color="#FFCF00"/>
</linearGradient>
<clipPath id="clip0_209_1811">
<rect width="1920" height="500" fill="white"/>
</clipPath>
</defs>
</svg>
