<svg width="23" height="25" viewBox="0 0 23 25" fill="none" xmlns="http://www.w3.org/2000/svg">
<path fill-rule="evenodd" clip-rule="evenodd" d="M6.33111 0.769531C2.99836 0.769531 0.296631 3.47126 0.296631 6.80401V18.735C0.296631 22.0678 2.99836 24.7695 6.33111 24.7695H16.607C19.9397 24.7695 22.6415 22.0678 22.6415 18.735V6.80401C22.6415 3.47126 19.9397 0.769531 16.607 0.769531H6.33111ZM8.5252 10.7124C8.5252 10.1443 8.0647 9.68382 7.49663 9.68382C6.92857 9.68382 6.46806 10.1443 6.46806 10.7124C6.46806 13.5302 8.68008 15.8789 11.4868 15.8789C14.2935 15.8789 16.5055 13.5302 16.5055 10.7124C16.5055 10.1443 16.045 9.68382 15.4769 9.68382C14.9089 9.68382 14.4484 10.1443 14.4484 10.7124C14.4484 12.4652 13.0875 13.8217 11.4868 13.8217C9.88608 13.8217 8.5252 12.4652 8.5252 10.7124Z" fill="#12263A"/>
</svg>
