<svg width="96" height="96" viewBox="0 0 96 96" fill="none" xmlns="http://www.w3.org/2000/svg">
<g clip-path="url(#clip0_144_1317)">
<path d="M49.6 70.4001L46.4 73.6001H33.6L30.4 70.4001L33.6 59.2001L36.8 57.6001H43.2L46.4 59.2001L49.6 70.4001Z" fill="#E2E2E2"/>
<path d="M17.6 70.3999H62.4C64.1672 70.3999 65.6 71.8327 65.6 73.5999V76.7999H14.4V73.5999C14.4 71.8327 15.8328 70.3999 17.6 70.3999Z" fill="#E4E4E2"/>
<path d="M80 73.6001C83.5344 73.6001 86.4 76.4657 86.4 80.0001V88.0001C86.4 91.5345 83.5344 94.4001 80 94.4001C76.4656 94.4001 73.6 91.5345 73.6 88.0001V80.0001C73.6 76.4657 76.4656 73.6001 80 73.6001Z" fill="#06BCC1"/>
<path d="M86.4 81.6001H73.6V80.0001C73.6 76.4657 76.4656 73.6001 80 73.6001C83.5344 73.6001 86.4 76.4657 86.4 80.0001V81.6001Z" fill="#F0F0F0"/>
<path d="M81.6 73.5998H78.4C78.4055 69.1834 81.9836 65.6053 86.4 65.5998H88C90.6508 65.5998 92.8 63.4506 92.8 60.7998C92.8 58.149 90.6508 55.9998 88 55.9998H76.8V52.7998H88C92.418 52.7998 96 56.3818 96 60.7998C96 65.2178 92.418 68.7998 88 68.7998H86.4C83.7493 68.7998 81.6 70.949 81.6 73.5998Z" fill="#C3C3C3"/>
<path d="M78.4 78.3999H81.6V86.3999H78.4V78.3999Z" fill="#F7F7F5"/>
<path d="M7.99998 1.6001H73.6C77.1344 1.6001 80 4.46572 80 8.0001V52.8001C80 56.3345 77.1344 59.2001 73.6 59.2001H7.99998C4.4656 59.2001 1.59998 56.3345 1.59998 52.8001V8.0001C1.59998 4.46572 4.4656 1.6001 7.99998 1.6001Z" fill="#FFCF00"/>
<path d="M46.3999 38.3998C45.5163 38.3998 44.7999 37.6834 44.7999 36.7998V30.3998C44.7999 29.5162 45.5163 28.7998 46.3999 28.7998C47.2835 28.7998 47.9999 29.5162 47.9999 30.3998V36.7998C47.9999 37.6834 47.2835 38.3998 46.3999 38.3998Z" fill="#C3C3C3"/>
<path d="M48 31.9999H33.6V22.3999H49.6L48 31.9999Z" fill="#06BCC1"/>
<path d="M50.821 21.3666C50.5171 21.0072 50.0702 20.8002 49.5999 20.8002H34.589L30.2398 12.0854C29.9679 11.5401 29.4093 11.1971 28.7999 11.2002H22.3999C21.5163 11.2002 20.7999 11.9166 20.7999 12.8002C20.7999 13.6838 21.5163 14.4002 22.3999 14.4002H27.8109L31.9999 22.7776V36.8002C31.9999 37.6838 32.7163 38.4002 33.5999 38.4002C34.4835 38.4002 35.1999 37.6838 35.1999 36.8002V33.6002H47.9999C48.7812 33.6002 49.4484 33.0354 49.5773 32.2643L51.1773 22.6643C51.2554 22.2002 51.1249 21.726 50.821 21.3666ZM46.6445 30.4002H35.1999V24.0002H47.7101L46.6445 30.4002Z" fill="#C3C3C3"/>
<path d="M1.59998 49.6001H80V52.8001C80 56.3345 77.1344 59.2001 73.6 59.2001H7.99998C4.4656 59.2001 1.59998 56.3345 1.59998 52.8001V49.6001Z" fill="#E4E4E2"/>
<path d="M36.8 38.4002C36.8 40.1674 35.3672 41.6002 33.6 41.6002C31.8328 41.6002 30.4 40.1674 30.4 38.4002C30.4 36.633 31.8328 35.2002 33.6 35.2002C35.3672 35.2002 36.8 36.633 36.8 38.4002Z" fill="#A6A6A6"/>
<path d="M49.6 38.4002C49.6 40.1674 48.1671 41.6002 46.4 41.6002C44.6328 41.6002 43.2 40.1674 43.2 38.4002C43.2 36.633 44.6328 35.2002 46.4 35.2002C48.1671 35.2002 49.6 36.633 49.6 38.4002Z" fill="#A6A6A6"/>
<path d="M35.2 38.3998C35.2 39.2834 34.4836 39.9998 33.6 39.9998C32.7164 39.9998 32 39.2834 32 38.3998C32 37.5162 32.7164 36.7998 33.6 36.7998C34.4836 36.7998 35.2 37.5162 35.2 38.3998Z" fill="#E2E2E2"/>
<path d="M47.9999 38.3998C47.9999 39.2834 47.2835 39.9998 46.3999 39.9998C45.5163 39.9998 44.7999 39.2834 44.7999 38.3998C44.7999 37.5162 45.5163 36.7998 46.3999 36.7998C47.2835 36.7998 47.9999 37.5162 47.9999 38.3998Z" fill="#E2E2E2"/>
<path d="M54.4 43.2002C53.5165 43.2002 52.8 42.4838 52.8 41.6002V36.8002C52.8 35.9166 53.5165 35.2002 54.4 35.2002H59.2C60.0836 35.2002 60.8 35.9166 60.8 36.8002C60.8 37.6838 60.0836 38.4002 59.2 38.4002H56V41.6002C56 42.4838 55.2836 43.2002 54.4 43.2002Z" fill="#99D8AA"/>
<path d="M60.7999 44.8001C60.3757 44.8001 59.9687 44.6313 59.6687 44.3313L53.2687 37.9313C52.6624 37.3032 52.671 36.3055 53.2882 35.6883C53.9054 35.0712 54.903 35.0626 55.5312 35.6688L61.9312 42.0688C62.3882 42.5266 62.5257 43.2149 62.2781 43.8126C62.0304 44.4102 61.4468 44.8001 60.7999 44.8001Z" fill="#99D8AA"/>
<path d="M8 60.8H31.4781L29.1938 68.8H17.6C14.9492 68.8 12.8 70.9492 12.8 73.6V76.8C12.8 77.6836 13.5164 78.4 14.4 78.4H65.6C66.4836 78.4 67.2 77.6836 67.2 76.8V73.6C67.2 70.9492 65.0508 68.8 62.4 68.8H50.8063L48.5219 60.8H73.6C76.7773 60.7961 79.6508 58.9117 80.9219 56H88C90.6508 56 92.8 58.1492 92.8 60.8C92.8 63.4508 90.6508 65.6 88 65.6H86.4C82.5477 65.607 79.2469 68.3586 78.5469 72.1469C74.7586 72.8469 72.007 76.1477 72 80V88C72 92.418 75.582 96 80 96C84.418 96 88 92.418 88 88V80C87.9914 76.2914 85.4352 73.0742 81.8242 72.2289C82.425 70.2008 84.2852 68.807 86.4 68.8H88C92.418 68.8 96 65.218 96 60.8C96 56.382 92.418 52.8 88 52.8H81.6V8C81.5945 3.58359 78.0164 0.00546876 73.6 0H8C3.58359 0.00546876 0.00546876 3.58359 0 8V52.8C0.00546876 57.2164 3.58359 60.7945 8 60.8ZM80 92.8C77.3492 92.8 75.2 90.6508 75.2 88V83.2H78.4V86.4H81.6V83.2H84.8V88C84.8 90.6508 82.6508 92.8 80 92.8ZM84.8 80H81.6V78.4H78.4V80H75.2C75.2 77.3492 77.3492 75.2 80 75.2C82.6508 75.2 84.8 77.3492 84.8 80ZM64 73.6V75.2H16V73.6C16 72.7164 16.7164 72 17.6 72H62.4C63.2836 72 64 72.7164 64 73.6ZM47.4781 68.8H32.5219L34.8063 60.8H45.1938L47.4781 68.8ZM73.6 57.6H8C5.34922 57.6 3.2 55.4508 3.2 52.8V51.2H78.4V52.8C78.4 55.4508 76.2508 57.6 73.6 57.6ZM8 3.2H73.6C76.2508 3.2 78.4 5.34922 78.4 8V48H3.2V8C3.2 5.34922 5.34922 3.2 8 3.2Z" fill="#4A051C"/>
<path d="M22.3999 14.4002H27.8109L31.9999 22.7776V35.6447C30.7452 36.369 30.1343 37.8455 30.5093 39.2447C30.8835 40.6432 32.1515 41.6166 33.5999 41.6166C35.0484 41.6166 36.3163 40.6432 36.6906 39.2447C37.0656 37.8455 36.4546 36.369 35.1999 35.6447V33.6002H44.7999V35.6447C43.5452 36.369 42.9343 37.8455 43.3093 39.2447C43.6835 40.6432 44.9515 41.6166 46.3999 41.6166C47.8484 41.6166 49.1163 40.6432 49.4906 39.2447C49.8656 37.8455 49.2546 36.369 47.9999 35.6447V33.6002C48.7812 33.6002 49.4484 33.0354 49.5773 32.2643L51.1773 22.6643C51.2554 22.2002 51.1249 21.726 50.821 21.3666C50.5171 21.0072 50.0702 20.8002 49.5999 20.8002H34.589L30.2398 12.0854C29.9679 11.5401 29.4093 11.1971 28.7999 11.2002H22.3999C21.5163 11.2002 20.7999 11.9166 20.7999 12.8002C20.7999 13.6838 21.5163 14.4002 22.3999 14.4002ZM46.6445 30.4002H35.1999V24.0002H47.7101L46.6445 30.4002Z" fill="#4A051C"/>
<path d="M54.4001 43.2002C55.2836 43.2002 56.0001 42.4838 56.0001 41.6002V40.6627L59.6688 44.3314C60.2969 44.9377 61.2946 44.9291 61.9118 44.3119C62.529 43.6947 62.5376 42.6971 61.9313 42.0689L58.2626 38.4002H59.2001C60.0837 38.4002 60.8001 37.6838 60.8001 36.8002C60.8001 35.9166 60.0837 35.2002 59.2001 35.2002H54.4001C53.5165 35.2002 52.8 35.9166 52.8 36.8002V41.6002C52.8 42.4838 53.5165 43.2002 54.4001 43.2002V43.2002Z" fill="#4A051C"/>
</g>
<defs>
<clipPath id="clip0_144_1317">
<rect width="96" height="96" fill="white"/>
</clipPath>
</defs>
</svg>
