<svg width="48" height="48" viewBox="0 0 48 48" fill="none" xmlns="http://www.w3.org/2000/svg">
<rect x="0.5" y="0.5" width="47" height="47" rx="15.5" stroke="#E2E2E2"/>
<path d="M30.3624 17.25H17.6376C17.0874 17.2506 16.56 17.4694 16.1709 17.8584C15.7819 18.2475 15.5631 18.7749 15.5625 19.3251V28.6749C15.5631 29.2251 15.7819 29.7526 16.1709 30.1416C16.56 30.5306 17.0874 30.7494 17.6376 30.75H30.3624C30.9126 30.7494 31.4401 30.5306 31.8291 30.1416C32.2181 29.7526 32.4369 29.2251 32.4375 28.6749V19.3251C32.4369 18.7749 32.2181 18.2475 31.8291 17.8584C31.4401 17.4694 30.9126 17.2506 30.3624 17.25ZM17.6376 18.375H30.3624C30.6143 18.3753 30.8558 18.4755 31.0339 18.6536C31.212 18.8317 31.3122 19.0732 31.3125 19.3251V19.7554L24 24.4562L16.6875 19.7554V19.3251C16.6878 19.0732 16.788 18.8317 16.9661 18.6536C17.1442 18.4755 17.3857 18.3753 17.6376 18.375ZM30.3624 29.625H17.6376C17.3857 29.6247 17.1442 29.5245 16.9661 29.3464C16.788 29.1683 16.6878 28.9268 16.6875 28.6749V21.093L23.6957 25.5981C23.7864 25.6564 23.8921 25.6875 24 25.6875C24.1079 25.6875 24.2136 25.6564 24.3043 25.5981L31.3125 21.093V28.6749C31.3122 28.9268 31.212 29.1683 31.0339 29.3464C30.8558 29.5245 30.6143 29.6247 30.3624 29.625Z" fill="#12263A"/>
</svg>
