<svg width="24" height="24" viewBox="0 0 24 24" fill="none" xmlns="http://www.w3.org/2000/svg">
<path fill-rule="evenodd" clip-rule="evenodd" d="M6.86212 0C3.52937 0 0.827637 2.70173 0.827637 6.03448V17.9655C0.827637 21.2983 3.52936 24 6.86211 24H17.138C20.4707 24 23.1725 21.2983 23.1725 17.9655V6.03448C23.1725 2.70173 20.4707 0 17.138 0H6.86212ZM9.05621 9.94286C9.05621 9.37479 8.5957 8.91429 8.02764 8.91429C7.45957 8.91429 6.99907 9.37479 6.99907 9.94286C6.99907 12.7607 9.21109 15.1094 12.0178 15.1094C14.8245 15.1094 17.0365 12.7607 17.0365 9.94286C17.0365 9.37479 16.576 8.91429 16.0079 8.91429C15.4399 8.91429 14.9794 9.37479 14.9794 9.94286C14.9794 11.6957 13.6185 13.0522 12.0178 13.0522C10.4171 13.0522 9.05621 11.6957 9.05621 9.94286Z" fill="#FFCF00"/>
</svg>
