<svg width="1920" height="651" viewBox="0 0 1920 651" fill="none" xmlns="http://www.w3.org/2000/svg">
<g clip-path="url(#clip0_230_1779)">
<path d="M236.224 520.797L242.104 522.018C239.974 528.924 244.8 535.902 252.864 537.571C255.635 538.139 258.526 538.031 261.233 537.258C263.941 536.486 266.364 535.077 268.248 533.181C269.701 531.712 270.761 529.968 271.349 528.081L277.24 529.298C276.417 531.951 274.929 534.403 272.887 536.469C270.245 539.13 266.845 541.106 263.047 542.189C259.249 543.273 255.193 543.425 251.306 542.628C240.008 540.278 233.238 530.488 236.224 520.797Z" fill="url(#paint0_linear_230_1779)"/>
<path d="M272.903 536.463C270.26 539.123 266.86 541.099 263.062 542.183C259.264 543.267 255.208 543.418 251.322 542.621C243.338 540.965 237.618 535.606 235.991 529.189L236.934 532.906C238.561 539.323 244.281 544.685 252.265 546.338C256.151 547.135 260.208 546.984 264.006 545.901C267.804 544.817 271.204 542.84 273.846 540.18C275.887 538.115 277.374 535.663 278.195 533.012L277.256 529.291C276.432 531.944 274.944 534.396 272.903 536.463V536.463Z" fill="#FBA500"/>
<path d="M1571.54 323.808L1577.42 322.587C1575.29 315.681 1580.12 308.703 1588.18 307.033C1590.95 306.465 1593.84 306.573 1596.55 307.346C1599.26 308.119 1601.68 309.527 1603.56 311.423C1605.02 312.893 1606.08 314.637 1606.66 316.524L1612.56 315.307C1611.73 312.654 1610.24 310.202 1608.2 308.135C1605.56 305.475 1602.16 303.499 1598.36 302.415C1594.56 301.331 1590.51 301.18 1586.62 301.977C1575.32 304.327 1568.55 314.116 1571.54 323.808Z" fill="url(#paint1_linear_230_1779)"/>
<path d="M1608.22 308.142C1605.58 305.481 1602.18 303.505 1598.38 302.422C1594.58 301.338 1590.52 301.186 1586.64 301.983C1578.65 303.639 1572.93 308.998 1571.31 315.415L1572.25 311.698C1573.88 305.282 1579.6 299.919 1587.58 298.267C1591.47 297.469 1595.52 297.62 1599.32 298.704C1603.12 299.788 1606.52 301.764 1609.16 304.425C1611.2 306.49 1612.69 308.941 1613.51 311.593L1612.57 315.313C1611.75 312.66 1610.26 310.208 1608.22 308.142V308.142Z" fill="#FBA500"/>
<g filter="url(#filter0_f_230_1779)">
<path d="M198.095 455.069L183.375 440.158C207.007 422.637 209.804 391.757 189.605 371.321C182.652 364.319 173.65 359.196 163.549 356.494C153.448 353.792 142.622 353.61 132.21 355.967C124.162 357.808 116.618 361.246 110.145 366.024L95.382 351.102C104.474 344.381 115.075 339.542 126.386 336.95C140.992 333.642 156.18 333.897 170.35 337.688C184.52 341.478 197.147 348.665 206.901 358.49C235.175 387.154 231.245 430.476 198.095 455.069Z" fill="url(#paint2_linear_230_1779)"/>
<path d="M125.799 337.245C140.433 333.929 155.65 334.185 169.847 337.985C184.044 341.784 196.695 348.988 206.468 358.835C226.497 379.124 230.435 406.707 219.349 429.849L225.768 416.442C236.854 393.301 232.923 365.708 212.886 345.429C203.115 335.579 190.464 328.374 176.266 324.574C162.069 320.775 146.851 320.52 132.218 323.839C120.89 326.433 110.275 331.283 101.174 338.021L94.7358 351.43C103.845 344.693 114.466 339.843 125.799 337.245V337.245Z" fill="#FBA500"/>
</g>
<g filter="url(#filter1_f_230_1779)">
<path d="M1623.09 650.103L1608.37 635.191C1632.01 617.67 1634.8 586.79 1614.61 566.355C1607.65 559.352 1598.65 554.229 1588.55 551.527C1578.45 548.825 1567.62 548.643 1557.21 551C1549.16 552.841 1541.62 556.28 1535.14 561.057L1520.38 546.135C1529.47 539.414 1540.07 534.575 1551.39 531.983C1565.99 528.675 1581.18 528.93 1595.35 532.721C1609.52 536.512 1622.15 543.698 1631.9 553.523C1660.17 582.187 1656.24 625.509 1623.09 650.103Z" fill="url(#paint3_linear_230_1779)"/>
<path d="M1550.8 532.277C1565.43 528.962 1580.65 529.217 1594.85 533.017C1609.04 536.817 1621.69 544.02 1631.47 553.868C1651.5 574.157 1655.43 601.739 1644.35 624.881L1650.77 611.475C1661.85 588.333 1657.92 560.74 1637.89 540.461C1628.12 530.611 1615.46 523.406 1601.27 519.607C1587.07 515.807 1571.85 515.553 1557.22 518.871C1545.89 521.466 1535.27 526.315 1526.17 533.053L1519.74 546.462C1528.85 539.725 1539.47 534.875 1550.8 532.277V532.277Z" fill="#FBA500"/>
</g>
<g filter="url(#filter2_f_230_1779)">
<path d="M1819.21 480.668L1827.31 480.602C1827.53 490.532 1836.74 498.533 1847.86 498.437C1851.67 498.396 1855.35 497.41 1858.51 495.58C1861.67 493.751 1864.19 491.147 1865.81 488.043C1867.05 485.64 1867.67 482.98 1867.62 480.266L1875.74 480.192C1875.82 484.008 1874.95 487.746 1873.2 491.126C1870.94 495.48 1867.4 499.133 1862.97 501.699C1858.54 504.265 1853.37 505.65 1848.02 505.706C1832.44 505.826 1819.51 494.6 1819.21 480.668Z" fill="url(#paint4_linear_230_1779)"/>
<path d="M1873.08 490.821C1870.8 495.199 1867.26 498.872 1862.81 501.452C1858.37 504.032 1853.19 505.423 1847.82 505.48C1836.78 505.572 1827.08 499.982 1822.22 491.762L1825.04 496.523C1829.9 504.743 1839.6 510.338 1850.64 510.242C1856 510.186 1861.19 508.794 1865.63 506.214C1870.08 503.634 1873.62 499.961 1875.89 495.582C1877.64 492.186 1878.51 488.429 1878.43 484.595L1875.62 479.828C1875.7 483.664 1874.83 487.423 1873.08 490.821V490.821Z" fill="#FBA500"/>
</g>
</g>
<defs>
<filter id="filter0_f_230_1779" x="64.8983" y="291.687" width="196.791" height="193.22" filterUnits="userSpaceOnUse" color-interpolation-filters="sRGB">
<feFlood flood-opacity="0" result="BackgroundImageFix"/>
<feBlend mode="normal" in="SourceGraphic" in2="BackgroundImageFix" result="shape"/>
<feGaussianBlur stdDeviation="14.9188" result="effect1_foregroundBlur_230_1779"/>
</filter>
<filter id="filter1_f_230_1779" x="1489.9" y="486.719" width="196.791" height="193.221" filterUnits="userSpaceOnUse" color-interpolation-filters="sRGB">
<feFlood flood-opacity="0" result="BackgroundImageFix"/>
<feBlend mode="normal" in="SourceGraphic" in2="BackgroundImageFix" result="shape"/>
<feGaussianBlur stdDeviation="14.9188" result="effect1_foregroundBlur_230_1779"/>
</filter>
<filter id="filter2_f_230_1779" x="1808.4" y="469.026" width="80.8373" height="52.0195" filterUnits="userSpaceOnUse" color-interpolation-filters="sRGB">
<feFlood flood-opacity="0" result="BackgroundImageFix"/>
<feBlend mode="normal" in="SourceGraphic" in2="BackgroundImageFix" result="shape"/>
<feGaussianBlur stdDeviation="5.40111" result="effect1_foregroundBlur_230_1779"/>
</filter>
<linearGradient id="paint0_linear_230_1779" x1="248.654" y1="542.259" x2="258.718" y2="524.549" gradientUnits="userSpaceOnUse">
<stop stop-color="#FFE67B"/>
<stop offset="1" stop-color="#FFCF00"/>
</linearGradient>
<linearGradient id="paint1_linear_230_1779" x1="1583.97" y1="302.345" x2="1594.03" y2="320.055" gradientUnits="userSpaceOnUse">
<stop stop-color="#FACB00"/>
<stop offset="1" stop-color="#FFCF00"/>
</linearGradient>
<linearGradient id="paint2_linear_230_1779" x1="213.993" y1="364.647" x2="138.184" y2="397.889" gradientUnits="userSpaceOnUse">
<stop stop-color="#FFE67B"/>
<stop offset="1" stop-color="#FFCF00"/>
</linearGradient>
<linearGradient id="paint3_linear_230_1779" x1="1638.99" y1="559.68" x2="1563.18" y2="592.922" gradientUnits="userSpaceOnUse">
<stop stop-color="#FFE67B"/>
<stop offset="1" stop-color="#FFCF00"/>
</linearGradient>
<linearGradient id="paint4_linear_230_1779" x1="1844.44" y1="505.981" x2="1852.49" y2="480.007" gradientUnits="userSpaceOnUse">
<stop stop-color="#FFE67B"/>
<stop offset="1" stop-color="#FFCF00"/>
</linearGradient>
<clipPath id="clip0_230_1779">
<rect width="1920" height="651" fill="white"/>
</clipPath>
</defs>
</svg>
