<svg width="483" height="453" viewBox="0 0 483 453" fill="none" xmlns="http://www.w3.org/2000/svg">
<path d="M327.776 355.92C372.975 325.741 431.085 304.273 445.02 251.77C459.519 197.14 432.345 139.898 396.773 95.9542C363.77 55.1834 314.204 34.5189 262.394 26.1624C211.843 18.0089 161.164 25.4159 116.693 50.7794C67.4961 78.8379 15.2338 115.854 6.95726 171.848C-1.1951 227.001 44.4757 271.516 77.4131 316.517C108.994 359.665 137.21 413.692 190.057 422.01C242.353 430.24 283.758 385.311 327.776 355.92Z" fill="#FFCF00"/>
<path d="M142.319 67.4155C96.7118 97.7458 38.0767 119.32 24.016 172.086C9.38559 226.989 36.8051 284.517 72.6981 328.681C105.999 369.656 156.013 390.423 208.29 398.822C259.298 407.016 310.435 399.572 355.308 374.082C404.949 345.883 457.683 308.681 466.034 252.408C474.26 196.979 428.177 152.242 394.942 107.016C363.076 63.6521 334.606 9.35406 281.281 0.995227C228.513 -7.27656 186.734 37.8778 142.319 67.4155Z" fill="#06BCC1"/>
<path d="M132.448 379.467C121.476 372.143 109.807 365.289 98.1422 358.438C96.6931 357.587 95.2441 356.736 93.7965 355.884C80.689 348.17 67.6922 340.383 55.7632 331.84C31.9052 314.753 12.376 294.683 4.82269 266.232C-10.9234 206.92 18.5788 144.694 57.3308 96.8347C93.2086 52.5246 147.116 30.0381 203.534 20.9407C258.55 12.0695 313.688 20.1302 362.065 47.7139C388.874 62.9997 416.484 80.7075 438.516 102.201C460.545 123.692 476.971 148.943 481.462 179.317C485.881 209.21 475.719 236.247 459.921 261.977C449.624 278.749 436.968 294.912 424.424 310.934C417.703 319.519 411.013 328.063 404.735 336.638C399.133 344.29 393.636 352.243 388.11 360.239C376.619 376.864 365.002 393.671 352.052 408.333C332.891 430.026 310.893 446.919 282.246 451.427C253.909 455.885 228.495 445.954 204.126 430.854C191.941 423.305 180.034 414.473 168.161 405.516C166.83 404.512 165.499 403.506 164.168 402.5C153.637 394.541 143.113 386.586 132.448 379.467Z" fill="#FFF7F2" stroke="white"/>
<g clip-path="url(#clip0_34_1633)">
<path d="M359.301 203.194C359.301 214.096 351.679 223.222 341.471 225.52H296.236V180.869H341.471C349.999 182.788 356.723 189.473 358.703 197.985C359.096 199.658 359.301 201.402 359.301 203.194Z" fill="#00A2A7"/>
<path d="M358.703 197.984C356.723 206.486 349.999 213.175 341.471 215.093H296.236V180.869H341.471C349.999 182.788 356.723 189.473 358.703 197.984Z" fill="#06BCC1"/>
<path d="M258.899 301.295H208.16V235.838H258.899" fill="#F9C2AF"/>
<path d="M258.899 301.294H208.16V290.298H258.899" fill="#F4AF9D"/>
<path d="M248.687 240.245V301.294H232.842V241.84" fill="#FFCF00"/>
<path d="M239.652 240.245V301.294H225.291V241.84" fill="#FCA601"/>
<path d="M270.252 244.018C270.252 245.992 269.552 247.803 268.389 249.217C266.883 251.038 264.614 252.199 262.069 252.199H248.801C246.54 252.199 244.493 251.283 243.01 249.804C241.533 248.322 240.615 246.274 240.615 244.018C240.615 239.812 243.794 236.346 247.88 235.888C248.182 235.854 248.491 235.836 248.801 235.836H262.069C264.33 235.836 266.375 236.754 267.857 238.231C269.334 239.715 270.252 241.763 270.252 244.018Z" fill="#F4AF9D"/>
<path d="M270.251 244.019C270.251 245.993 269.551 247.804 268.388 249.217C268.088 249.249 267.781 249.267 267.472 249.267H254.202C251.941 249.267 249.898 248.351 248.416 246.872C246.939 245.39 246.021 243.347 246.021 241.086C246.021 239.113 246.721 237.302 247.879 235.888C248.181 235.856 248.49 235.838 248.801 235.838H262.069C264.33 235.838 266.374 236.754 267.856 238.233C269.333 239.715 270.251 241.763 270.251 244.019Z" fill="#F9C2AF"/>
<path d="M270.253 276.749C270.253 278.721 269.553 280.534 268.39 281.946C266.884 283.767 264.615 284.93 262.072 284.93H248.802C246.543 284.93 244.495 284.012 243.011 282.535C241.534 281.053 240.616 279.005 240.616 276.747C240.616 272.541 243.795 269.075 247.881 268.617C248.183 268.585 248.493 268.566 248.802 268.566H262.072C264.333 268.566 266.376 269.483 267.858 270.962C269.335 272.444 270.253 274.491 270.253 276.749Z" fill="#F4AF9D"/>
<path d="M270.253 276.749C270.253 278.721 269.553 280.534 268.39 281.946C268.09 281.979 267.784 281.998 267.474 281.998H254.205C251.945 281.998 249.9 281.079 248.418 279.602C246.941 278.12 246.023 276.078 246.023 273.815C246.023 271.843 246.723 270.03 247.881 268.617C248.183 268.585 248.494 268.566 248.802 268.566H262.072C264.333 268.566 266.376 269.485 267.858 270.962C269.335 272.444 270.253 274.491 270.253 276.749Z" fill="#F9C2AF"/>
<path d="M270.252 260.386C270.252 262.36 269.552 264.171 268.389 265.584C266.883 267.405 264.614 268.568 262.069 268.568H248.801C246.54 268.568 244.493 267.65 243.01 266.173C241.533 264.689 240.615 262.642 240.615 260.386C240.615 256.179 243.794 252.713 247.88 252.255C248.182 252.223 248.491 252.203 248.801 252.203H262.069C264.33 252.203 266.375 253.121 267.857 254.598C269.334 256.082 270.252 258.13 270.252 260.386Z" fill="#F4AF9D"/>
<path d="M270.251 260.385C270.251 262.359 269.551 264.17 268.388 265.584C268.088 265.616 267.781 265.636 267.472 265.636H254.202C251.941 265.636 249.898 264.718 248.416 263.241C246.939 261.757 246.021 259.714 246.021 257.453C246.021 255.479 246.721 253.668 247.879 252.255C248.181 252.223 248.49 252.205 248.801 252.205H262.069C264.33 252.205 266.374 253.121 267.856 254.6C269.333 256.082 270.251 258.13 270.251 260.385Z" fill="#F9C2AF"/>
<path d="M270.255 293.112C270.255 295.084 269.555 296.897 268.392 298.31C266.886 300.13 264.617 301.293 262.074 301.293H248.806C246.545 301.293 244.497 300.375 243.013 298.898C241.536 297.416 240.618 295.368 240.618 293.112C240.618 288.904 243.797 285.44 247.883 284.982C248.185 284.948 248.495 284.93 248.806 284.93H262.074C264.335 284.93 266.378 285.848 267.86 287.325C269.337 288.809 270.255 290.856 270.255 293.112Z" fill="#F4AF9D"/>
<path d="M270.255 293.112C270.255 295.084 269.555 296.897 268.392 298.31C268.092 298.342 267.786 298.361 267.476 298.361H254.207C251.947 298.361 249.902 297.443 248.42 295.966C246.943 294.484 246.025 292.441 246.025 290.18C246.025 288.206 246.725 286.395 247.883 284.982C248.185 284.95 248.494 284.93 248.804 284.93H262.073C264.334 284.93 266.378 285.848 267.86 287.325C269.337 288.809 270.255 290.856 270.255 293.112Z" fill="#F9C2AF"/>
<path d="M145.84 235.838H208.16V301.295H145.84V235.838Z" fill="#06BCC1"/>
<path d="M145.84 284.27H208.16V301.294H145.84V284.27Z" fill="#00A2A7"/>
<path d="M239.586 235.838H208.16V277.791C217.415 277.791 224.918 270.288 224.918 261.033V257.306H239.843C245.902 257.306 250.788 252.287 250.57 246.181C250.364 240.365 245.407 235.838 239.586 235.838Z" fill="#F9C2AF"/>
<path d="M239.845 257.304H224.918V261.033C224.918 265.662 223.042 269.85 220.007 272.88C216.977 275.915 212.79 277.791 208.162 277.791V263.971C209.778 263.165 211.247 262.104 212.513 260.835C214.223 259.128 215.566 257.05 216.412 254.734C217.038 253.022 218.621 251.847 220.445 251.847H239.586C244.598 251.847 248.967 248.488 250.218 243.846C250.423 244.596 250.543 245.375 250.57 246.18C250.789 252.287 245.901 257.304 239.845 257.304Z" fill="#F4AF9D"/>
<path d="M192.951 253.237C192.951 256.818 190.048 259.722 186.466 259.722C182.884 259.722 179.979 256.818 179.979 253.237C179.979 249.655 182.884 246.751 186.466 246.751C190.048 246.751 192.951 249.655 192.951 253.237Z" fill="#FFCF00"/>
<path d="M330.91 122.887C322.139 132.311 311.306 142.704 300.515 150.957C289.63 159.372 278.784 165.647 267.857 170.547C267.857 179.951 256.997 195.897 256.997 205.3C256.997 217.66 267.857 223.479 267.857 235.839C278.784 240.737 289.63 247.015 300.513 255.429C311.306 263.682 322.137 274.075 330.91 283.5C346.149 231.047 346.149 175.341 330.91 122.887Z" fill="#FFCF00"/>
<path d="M339.962 240.084C338.079 254.709 335.057 269.224 330.91 283.5C322.142 274.077 311.305 263.682 300.515 255.429C289.631 247.016 278.787 240.739 267.86 235.841C267.86 223.479 256.999 217.663 256.999 205.301C256.999 205.07 257.007 204.835 257.02 204.595C257.526 210.072 267.86 212.787 267.86 218.409C278.787 220.69 289.631 223.615 300.515 227.534C311.305 231.385 330.863 236.226 339.635 240.62C339.749 240.442 339.858 240.262 339.962 240.084Z" fill="#FCA601"/>
<path d="M257.155 203.194C257.089 203.674 257.042 204.141 257.02 204.594C257.007 204.46 256.999 204.321 256.999 204.176C256.999 203.862 257.054 203.535 257.155 203.194Z" fill="#EAAD18"/>
<path d="M267.855 170.549V235.841H215.918C210.918 235.841 206.863 231.786 206.863 226.789V179.601C206.863 174.601 210.918 170.549 215.918 170.549H267.855Z" fill="#CCCCCC"/>
<path d="M267.855 170.549V217.986H215.918C210.918 217.986 206.863 213.934 206.863 208.934V179.601C206.863 174.601 210.918 170.549 215.918 170.549H267.855Z" fill="#E6E6E6"/>
<path d="M206.862 183.211V223.179H198.682C193.537 223.179 189.368 219.005 189.368 213.86V192.525C189.368 187.384 193.537 183.211 198.682 183.211H206.862Z" fill="#FCA601"/>
<path d="M206.862 183.211V210.08H198.682C193.537 210.08 189.368 205.911 189.368 200.767V192.525C189.368 187.384 193.537 183.211 198.682 183.211H206.862Z" fill="#FFCF00"/>
<path d="M186.466 243.481C181.086 243.481 176.709 247.857 176.709 253.237C176.709 258.616 181.086 262.994 186.466 262.994C191.845 262.994 196.221 258.616 196.221 253.237C196.221 247.857 191.845 243.481 186.466 243.481ZM186.466 256.453C184.692 256.453 183.25 255.009 183.25 253.237C183.25 251.463 184.692 250.021 186.466 250.021C188.238 250.021 189.682 251.464 189.682 253.237C189.682 255.009 188.238 256.453 186.466 256.453Z" fill="#4A051C"/>
<path d="M356.756 186.747C353.58 182.823 349.31 179.897 344.555 178.336C342.924 159.353 339.426 140.48 334.05 121.975C333.721 120.845 332.811 119.977 331.666 119.705C330.52 119.432 329.318 119.798 328.516 120.659C324.377 125.105 320.095 129.429 315.788 133.511C314.477 134.755 314.422 136.824 315.665 138.135C316.908 139.446 318.977 139.5 320.288 138.258C323.323 135.382 326.344 132.39 329.313 129.32C333.875 146.286 336.834 163.544 338.202 180.887C338.202 181.035 338.214 181.179 338.234 181.324C339.36 195.885 339.36 210.506 338.234 225.068C338.214 225.209 338.202 225.353 338.202 225.499C336.834 242.845 333.875 260.101 329.311 277.069C320.315 267.772 310.936 259.285 302.511 252.842C292.613 245.19 282.328 238.927 271.126 233.737V172.649C282.329 167.458 292.617 161.194 302.498 153.555C305.21 151.481 308.027 149.195 310.872 146.757C312.243 145.582 312.402 143.518 311.228 142.147C310.054 140.775 307.99 140.616 306.617 141.791C303.864 144.149 301.142 146.36 298.511 148.37C288.647 155.996 278.378 162.183 267.143 167.277H215.917C209.121 167.277 203.594 172.804 203.594 179.6V179.941H198.683C191.742 179.941 186.096 185.587 186.096 192.526V213.859C186.096 220.8 191.742 226.446 198.683 226.446H203.594V226.787C203.594 228.875 204.118 230.842 205.037 232.567H145.839C144.033 232.567 142.57 234.031 142.57 235.837C142.57 237.643 144.033 239.108 145.839 239.108H165.127V298.023H145.839C144.033 298.023 142.57 299.486 142.57 301.292C142.57 303.098 144.033 304.564 145.839 304.564H183.726C185.532 304.564 186.996 303.098 186.996 301.292C186.996 299.486 185.532 298.023 183.726 298.023H171.666V239.108H204.888V298.023H196.808C195 298.023 193.537 299.486 193.537 301.292C193.537 303.098 195 304.564 196.808 304.564H262.07C268.385 304.564 273.522 299.426 273.522 293.112C273.522 289.907 272.2 287.01 270.071 284.929C272.198 282.849 273.522 279.951 273.522 276.746C273.522 273.542 272.198 270.644 270.07 268.564C272.196 266.484 273.519 263.586 273.519 260.385C273.519 257.323 272.329 254.448 270.17 252.289C270.139 252.258 270.107 252.229 270.075 252.197C272.2 250.118 273.521 247.219 273.521 244.018C273.521 243.363 273.464 242.719 273.356 242.088C282.208 246.569 290.497 251.818 298.527 258.027C307.936 265.222 318.586 275.06 328.516 285.728C329.142 286.399 330.013 286.77 330.909 286.769C331.161 286.769 331.415 286.74 331.665 286.68C332.811 286.408 333.721 285.542 334.05 284.412C339.426 265.907 342.924 247.036 344.555 228.051C349.31 226.491 353.579 223.564 356.754 219.64C360.504 215.006 362.57 209.165 362.57 203.193C362.57 197.221 360.506 191.38 356.756 186.747ZM265.543 240.547C266.469 241.473 266.98 242.707 266.98 244.018C266.98 246.727 264.778 248.931 262.072 248.931H253.651C253.809 247.996 253.873 247.036 253.837 246.064C253.747 243.521 252.941 241.141 251.617 239.11H262.072C263.383 239.11 264.616 239.62 265.543 240.547ZM240.801 284.929C238.674 287.01 237.35 289.907 237.35 293.112C237.35 294.867 237.749 296.534 238.459 298.023H228.56V260.576H237.353C237.4 263.562 238.583 266.362 240.705 268.482C240.735 268.512 240.765 268.54 240.796 268.569C238.672 270.65 237.35 273.547 237.35 276.746C237.35 279.951 238.672 282.849 240.801 284.929ZM211.429 239.108L239.629 239.11C243.725 239.134 247.16 242.346 247.301 246.296C247.374 248.345 246.633 250.284 245.213 251.754C243.795 253.224 241.887 254.035 239.842 254.035H224.917C223.111 254.035 221.648 255.499 221.648 257.305V261.031C221.648 267.342 217.292 272.654 211.429 274.118V239.108ZM245.326 263.854C244.399 262.928 243.887 261.696 243.887 260.385C243.887 260.249 243.897 260.115 243.907 259.979C246.168 259.299 248.23 258.048 249.92 256.296C250.177 256.031 250.417 255.754 250.65 255.474H262.072C263.386 255.474 264.616 255.982 265.543 256.91C266.469 257.837 266.98 259.072 266.98 260.385C266.98 263.09 264.778 265.291 262.072 265.291H248.804C247.491 265.291 246.254 264.779 245.326 263.854ZM210.133 179.6C210.133 176.411 212.728 173.816 215.917 173.816H264.585V232.569L215.875 232.567C212.705 232.544 210.133 229.961 210.133 226.787V179.6ZM198.683 219.905C195.349 219.905 192.637 217.193 192.637 213.859V192.526C192.637 189.192 195.349 186.482 198.683 186.482H203.594V219.905H198.683ZM211.429 280.79C215.503 280.117 219.165 278.212 222.019 275.469V298.023H211.429V280.79ZM266.981 293.112C266.981 295.819 264.779 298.023 262.07 298.023H248.802C246.093 298.023 243.891 295.819 243.891 293.112C243.891 290.403 246.093 288.2 248.802 288.2H262.07C264.779 288.2 266.981 290.403 266.981 293.112ZM248.802 281.659C246.093 281.659 243.891 279.456 243.891 276.746C243.891 274.039 246.093 271.835 248.802 271.835H262.07C264.779 271.835 266.983 274.039 266.983 276.746C266.983 279.456 264.779 281.659 262.07 281.659H248.802ZM345.082 220.785C345.794 209.067 345.794 197.321 345.082 185.604C351.623 188.857 356.029 195.665 356.029 203.194C356.029 210.724 351.623 217.532 345.082 220.785Z" fill="#4A051C"/>
<path d="M219.718 188.949H245.879C247.685 188.949 249.148 187.486 249.148 185.68C249.148 183.874 247.685 182.408 245.879 182.408H219.718C217.91 182.408 216.447 183.874 216.447 185.68C216.447 187.486 217.91 188.949 219.718 188.949Z" fill="#4A051C"/>
<path d="M219.718 201.18H245.879C247.685 201.18 249.148 199.717 249.148 197.911C249.148 196.105 247.685 194.641 245.879 194.641H219.718C217.91 194.641 216.447 196.105 216.447 197.911C216.447 199.717 217.91 201.18 219.718 201.18Z" fill="#4A051C"/>
<path d="M219.718 213.412H245.879C247.685 213.412 249.148 211.948 249.148 210.142C249.148 208.336 247.685 206.873 245.879 206.873H219.718C217.91 206.873 216.447 208.336 216.447 210.142C216.447 211.948 217.91 213.412 219.718 213.412Z" fill="#4A051C"/>
</g>
<defs>
<clipPath id="clip0_34_1633">
<rect width="220" height="220" fill="white" transform="translate(143 102)"/>
</clipPath>
</defs>
</svg>
