<svg width="483" height="437" viewBox="0 0 483 437" fill="none" xmlns="http://www.w3.org/2000/svg">
<path d="M154.761 351.646C110.481 322.07 53.551 301.032 39.8992 249.579C25.6943 196.042 52.3163 139.945 87.1654 96.8794C119.498 56.9241 168.058 36.6728 218.814 28.4835C268.339 20.493 317.989 27.7519 361.556 52.6081C409.753 80.1054 460.954 116.381 469.062 171.255C477.049 225.305 432.306 268.93 400.038 313.031C369.099 355.316 341.456 408.263 289.683 416.414C238.448 424.48 197.885 380.449 154.761 351.646Z" fill="#06BCC1"/>
<path d="M345.154 78.7812C388.721 107.753 444.732 128.362 458.164 178.765C472.139 231.21 445.947 286.162 411.66 328.348C379.849 367.488 332.072 387.326 282.134 395.348C233.409 403.176 184.559 396.065 141.695 371.716C94.2751 344.78 43.9003 309.244 35.9227 255.49C28.0648 202.543 72.086 159.809 103.834 116.608C134.274 75.1863 161.471 23.3195 212.409 15.3349C262.817 7.43353 302.726 50.566 345.154 78.7812Z" fill="#FFCF00"/>
<path d="M350.552 362.851C361.524 355.527 373.193 348.674 384.858 341.822C386.307 340.971 387.756 340.12 389.203 339.268C402.311 331.554 415.308 323.767 427.237 315.224C451.095 298.138 470.624 278.067 478.177 249.616C493.923 190.304 464.421 128.079 425.669 80.219C389.791 35.9089 335.884 13.4223 279.466 4.32498C224.45 -4.5462 169.312 3.51453 120.935 31.0981C94.1264 46.384 66.5159 64.0917 44.4842 85.5855C22.4555 107.076 6.02919 132.327 1.53831 162.701C-2.88141 192.594 7.28086 219.632 23.0786 245.361C33.3765 262.133 46.0316 278.296 58.5761 294.319C65.2972 302.903 71.9866 311.447 78.2647 320.022C83.867 327.674 89.3641 335.628 94.8904 343.623C106.381 360.248 117.998 377.055 130.948 391.717C150.109 413.41 172.107 430.304 200.754 434.811C229.091 439.27 254.505 429.338 278.874 414.239C291.059 406.689 302.966 397.857 314.839 388.901C316.17 387.896 317.501 386.89 318.832 385.884C329.363 377.925 339.887 369.97 350.552 362.851Z" fill="#FFF7F2" stroke="white"/>
<g clip-path="url(#clip0_40_5053)">
<path d="M256.667 246.718L249.334 254.051H220L212.667 246.718L220 221.051L227.334 217.384H242L249.334 221.051L256.667 246.718Z" fill="#DBDBDB"/>
<path d="M183.333 246.718H286C290.05 246.718 293.333 250.001 293.333 254.051V261.384H176V254.051C176 250.001 179.284 246.718 183.333 246.718Z" fill="#E4E4E2"/>
<path d="M326.333 254.051C334.433 254.051 341 260.618 341 268.717V287.051C341 295.15 334.433 301.717 326.333 301.717C318.234 301.717 311.667 295.15 311.667 287.051V268.717C311.667 260.618 318.234 254.051 326.333 254.051Z" fill="#06BCC1"/>
<path d="M341 272.384H311.667V268.717C311.667 260.618 318.234 254.051 326.333 254.051C334.433 254.051 341 260.618 341 268.717V272.384Z" fill="#F0F0F0"/>
<path d="M330 254.051H322.667C322.679 243.93 330.879 235.73 341 235.718H344.667C350.741 235.718 355.667 230.792 355.667 224.718C355.667 218.643 350.741 213.718 344.667 213.718H319V206.384H344.667C354.791 206.384 363 214.593 363 224.718C363 234.842 354.791 243.051 344.667 243.051H341C334.925 243.051 330 247.976 330 254.051Z" fill="#C3C3C3"/>
<path d="M322.667 265.051H330V283.384H322.667V265.051Z" fill="#F7F7F5"/>
<path d="M161.333 89.0508H311.667C319.766 89.0508 326.333 95.6178 326.333 103.717V206.384C326.333 214.484 319.766 221.051 311.667 221.051H161.333C153.234 221.051 146.667 214.484 146.667 206.384V103.717C146.667 95.6178 153.234 89.0508 161.333 89.0508Z" fill="#FFCF00"/>
<path d="M249.333 173.385C247.308 173.385 245.667 171.743 245.667 169.718V155.051C245.667 153.027 247.308 151.385 249.333 151.385C251.358 151.385 253 153.027 253 155.051V169.718C253 171.743 251.358 173.385 249.333 173.385Z" fill="#C3C3C3"/>
<path d="M253 158.718H220V136.718H256.667L253 158.718Z" fill="#06BCC1"/>
<path d="M259.465 134.349C258.769 133.526 257.745 133.051 256.667 133.051H222.267L212.3 113.08C211.677 111.83 210.397 111.044 209 111.051H194.334C192.309 111.051 190.667 112.693 190.667 114.718C190.667 116.743 192.309 118.385 194.334 118.385H206.734L216.334 137.583V169.718C216.334 171.743 217.975 173.385 220 173.385C222.025 173.385 223.667 171.743 223.667 169.718V162.385H253C254.791 162.385 256.32 161.09 256.615 159.323L260.282 137.323C260.461 136.26 260.162 135.173 259.465 134.349ZM249.894 155.051H223.667V140.385H252.336L249.894 155.051Z" fill="#C3C3C3"/>
<path d="M146.667 199.051H326.333V206.384C326.333 214.484 319.766 221.051 311.667 221.051H161.333C153.234 221.051 146.667 214.484 146.667 206.384V199.051Z" fill="#E4E4E2"/>
<path d="M227.334 173.385C227.334 177.434 224.05 180.718 220 180.718C215.951 180.718 212.667 177.434 212.667 173.385C212.667 169.335 215.951 166.051 220 166.051C224.05 166.051 227.334 169.335 227.334 173.385Z" fill="#A6A6A6"/>
<path d="M256.666 173.385C256.666 177.434 253.383 180.718 249.333 180.718C245.283 180.718 242 177.434 242 173.385C242 169.335 245.283 166.051 249.333 166.051C253.383 166.051 256.666 169.335 256.666 173.385Z" fill="#A6A6A6"/>
<path d="M223.667 173.384C223.667 175.409 222.026 177.051 220.001 177.051C217.976 177.051 216.334 175.409 216.334 173.384C216.334 171.359 217.976 169.717 220.001 169.717C222.026 169.717 223.667 171.359 223.667 173.384Z" fill="#DBDBDB"/>
<path d="M253 173.384C253 175.409 251.358 177.051 249.333 177.051C247.308 177.051 245.667 175.409 245.667 173.384C245.667 171.359 247.308 169.717 249.333 169.717C251.358 169.717 253 171.359 253 173.384Z" fill="#DBDBDB"/>
<path d="M267.667 184.385C265.642 184.385 264 182.743 264 180.718V169.718C264 167.693 265.642 166.051 267.667 166.051H278.667C280.692 166.051 282.333 167.693 282.333 169.718C282.333 171.743 280.692 173.385 278.667 173.385H271.333V180.718C271.333 182.743 269.692 184.385 267.667 184.385Z" fill="#99D8AA"/>
<path d="M282.333 188.051C281.361 188.051 280.428 187.664 279.741 186.976L265.074 172.31C263.685 170.87 263.704 168.584 265.119 167.17C266.533 165.755 268.82 165.736 270.259 167.125L284.926 181.792C285.973 182.841 286.288 184.418 285.721 185.788C285.153 187.157 283.816 188.051 282.333 188.051Z" fill="#99D8AA"/>
<path d="M161.333 224.718H215.137L209.902 243.051H183.333C177.259 243.051 172.333 247.976 172.333 254.051V261.384C172.333 263.409 173.975 265.051 176 265.051H293.333C295.358 265.051 297 263.409 297 261.384V254.051C297 247.976 292.075 243.051 286 243.051H259.431L254.196 224.718H311.667C318.948 224.709 325.533 220.39 328.446 213.718H344.667C350.741 213.718 355.667 218.643 355.667 224.718C355.667 230.792 350.741 235.718 344.667 235.718H341C332.172 235.734 324.607 242.039 323.003 250.721C314.322 252.325 308.016 259.889 308 268.718V287.051C308 297.175 316.209 305.384 326.333 305.384C336.458 305.384 344.667 297.175 344.667 287.051V268.718C344.647 260.219 338.789 252.846 330.514 250.909C331.891 246.261 336.153 243.067 341 243.051H344.667C354.791 243.051 363 234.842 363 224.718C363 214.593 354.791 206.384 344.667 206.384H330V103.718C329.987 93.5967 321.788 85.3968 311.667 85.3843H161.333C151.212 85.3968 143.013 93.5967 143 103.718V206.384C143.013 216.505 151.212 224.705 161.333 224.718ZM326.333 298.051C320.259 298.051 315.333 293.126 315.333 287.051V276.051H322.667V283.384H330V276.051H337.333V287.051C337.333 293.126 332.408 298.051 326.333 298.051ZM337.333 268.718H330V265.051H322.667V268.718H315.333C315.333 262.643 320.259 257.718 326.333 257.718C332.408 257.718 337.333 262.643 337.333 268.718ZM289.667 254.051V257.718H179.667V254.051C179.667 252.026 181.308 250.384 183.333 250.384H286C288.025 250.384 289.667 252.026 289.667 254.051ZM251.804 243.051H217.529L222.764 224.718H246.569L251.804 243.051ZM311.667 217.384H161.333C155.259 217.384 150.333 212.459 150.333 206.384V202.718H322.667V206.384C322.667 212.459 317.741 217.384 311.667 217.384ZM161.333 92.7176H311.667C317.741 92.7176 322.667 97.6429 322.667 103.718V195.384H150.333V103.718C150.333 97.6429 155.259 92.7176 161.333 92.7176Z" fill="#4A051C"/>
<path d="M194.334 118.385H206.734L216.334 137.583V167.07C213.458 168.73 212.058 172.113 212.918 175.32C213.775 178.525 216.681 180.756 220 180.756C223.32 180.756 226.225 178.525 227.083 175.32C227.942 172.113 226.542 168.73 223.667 167.07V162.385H245.667V167.07C242.792 168.73 241.392 172.113 242.251 175.32C243.109 178.525 246.014 180.756 249.334 180.756C252.653 180.756 255.559 178.525 256.416 175.32C257.276 172.113 255.876 168.73 253 167.07V162.385C254.791 162.385 256.32 161.09 256.615 159.323L260.282 137.323C260.461 136.26 260.162 135.173 259.465 134.349C258.769 133.526 257.745 133.051 256.667 133.051H222.267L212.3 113.08C211.677 111.83 210.397 111.044 209 111.051H194.334C192.309 111.051 190.667 112.693 190.667 114.718C190.667 116.743 192.309 118.385 194.334 118.385ZM249.894 155.051H223.667V140.385H252.336L249.894 155.051Z" fill="#4A051C"/>
<path d="M267.667 184.385C269.692 184.385 271.333 182.743 271.333 180.718V178.569L279.741 186.977C281.18 188.366 283.467 188.347 284.881 186.932C286.295 185.518 286.315 183.232 284.926 181.792L276.518 173.385H278.667C280.692 173.385 282.333 171.743 282.333 169.718C282.333 167.693 280.692 166.051 278.667 166.051H267.667C265.642 166.051 264 167.693 264 169.718V180.718C264 182.743 265.642 184.385 267.667 184.385Z" fill="#4A051C"/>
</g>
<defs>
<clipPath id="clip0_40_5053">
<rect width="220" height="220" fill="white" transform="translate(143 85.3843)"/>
</clipPath>
</defs>
</svg>
