<svg width="1920" height="583" viewBox="0 0 1920 583" fill="none" xmlns="http://www.w3.org/2000/svg">
<g clip-path="url(#clip0_165_1642)">
<path opacity="0.5" d="M485.248 349.283C471.915 349.283 459.876 346.199 449.131 340.03C438.584 333.862 430.227 325.106 424.058 313.764C418.089 302.421 415.104 289.188 415.104 274.065C415.104 258.743 418.089 245.51 424.058 234.367C430.227 223.024 438.584 214.269 449.131 208.1C459.876 201.732 471.915 198.548 485.248 198.548C498.779 198.548 510.818 201.732 521.364 208.1C531.911 214.269 540.169 223.024 546.139 234.367C552.307 245.51 555.392 258.743 555.392 274.065C555.392 289.188 552.307 302.421 546.139 313.764C540.169 325.106 531.911 333.862 521.364 340.03C510.818 346.199 498.779 349.283 485.248 349.283ZM485.248 315.256C494.799 315.256 502.56 311.774 508.529 304.809C514.698 297.645 517.782 287.397 517.782 274.065C517.782 260.534 514.698 250.286 508.529 243.321C502.56 236.158 494.799 232.576 485.248 232.576C475.696 232.576 467.935 236.158 461.966 243.321C456.195 250.286 453.31 260.534 453.31 274.065C453.31 287.397 456.195 297.645 461.966 304.809C467.935 311.774 475.696 315.256 485.248 315.256ZM582.885 403.906V202.13H615.42L617.211 215.562C627.359 204.22 639.895 198.548 654.82 198.548C668.351 198.548 680.39 201.533 690.936 207.503C701.483 213.274 709.741 221.83 715.711 233.173C721.879 244.316 724.964 257.947 724.964 274.065C724.964 289.984 721.879 303.615 715.711 314.958C709.741 326.101 701.483 334.658 690.936 340.627C680.39 346.398 668.351 349.283 654.82 349.283C641.885 349.283 630.443 344.806 620.494 335.852V403.906H582.885ZM653.327 315.256C662.879 315.256 670.838 311.774 677.206 304.809C683.773 297.645 687.056 287.397 687.056 274.065C687.056 260.534 683.773 250.286 677.206 243.321C670.838 236.158 662.879 232.576 653.327 232.576C643.776 232.576 635.816 236.158 629.448 243.321C623.081 250.286 619.897 260.534 619.897 274.065C619.897 287.397 623.081 297.645 629.448 304.809C635.816 311.774 643.776 315.256 653.327 315.256ZM756.717 346V202.13H794.326V346H756.717ZM775.223 180.639C768.856 180.639 763.383 178.351 758.807 173.774C754.429 169.197 752.24 163.725 752.24 157.358C752.24 150.99 754.429 145.617 758.807 141.239C763.383 136.663 768.856 134.374 775.223 134.374C781.591 134.374 786.964 136.663 791.341 141.239C795.918 145.617 798.207 150.99 798.207 157.358C798.207 163.725 795.918 169.197 791.341 173.774C786.964 178.351 781.591 180.639 775.223 180.639ZM832.691 346V202.13H866.121L868.211 218.248C872.19 213.075 877.265 208.498 883.433 204.518C889.801 200.538 897.263 198.548 905.82 198.548C920.744 198.548 932.882 203.324 942.235 212.876C951.786 222.427 956.562 236.556 956.562 255.261V346H918.953V264.514C918.953 253.967 916.864 246.008 912.685 240.635C908.705 235.262 903.233 232.576 896.268 232.576C888.707 232.576 882.438 235.362 877.464 240.933C872.688 246.306 870.3 254.863 870.3 266.603V346H832.691ZM996.03 346V202.13H1033.64V346H996.03ZM1014.54 180.639C1008.17 180.639 1002.7 178.351 998.119 173.774C993.741 169.197 991.553 163.725 991.553 157.358C991.553 150.99 993.741 145.617 998.119 141.239C1002.7 136.663 1008.17 134.374 1014.54 134.374C1020.9 134.374 1026.28 136.663 1030.65 141.239C1035.23 145.617 1037.52 150.99 1037.52 157.358C1037.52 163.725 1035.23 169.197 1030.65 173.774C1026.28 178.351 1020.9 180.639 1014.54 180.639ZM1134.69 349.283C1121.35 349.283 1109.31 346.199 1098.57 340.03C1088.02 333.862 1079.66 325.106 1073.5 313.764C1067.53 302.421 1064.54 289.188 1064.54 274.065C1064.54 258.743 1067.53 245.51 1073.5 234.367C1079.66 223.024 1088.02 214.269 1098.57 208.1C1109.31 201.732 1121.35 198.548 1134.69 198.548C1148.22 198.548 1160.26 201.732 1170.8 208.1C1181.35 214.269 1189.61 223.024 1195.58 234.367C1201.74 245.51 1204.83 258.743 1204.83 274.065C1204.83 289.188 1201.74 302.421 1195.58 313.764C1189.61 325.106 1181.35 333.862 1170.8 340.03C1160.26 346.199 1148.22 349.283 1134.69 349.283ZM1134.69 315.256C1144.24 315.256 1152 311.774 1157.97 304.809C1164.14 297.645 1167.22 287.397 1167.22 274.065C1167.22 260.534 1164.14 250.286 1157.97 243.321C1152 236.158 1144.24 232.576 1134.69 232.576C1125.13 232.576 1117.37 236.158 1111.4 243.321C1105.63 250.286 1102.75 260.534 1102.75 274.065C1102.75 287.397 1105.63 297.645 1111.4 304.809C1117.37 311.774 1125.13 315.256 1134.69 315.256ZM1232.32 346V202.13H1265.75L1267.84 218.248C1271.82 213.075 1276.9 208.498 1283.06 204.518C1289.43 200.538 1296.89 198.548 1305.45 198.548C1320.38 198.548 1332.51 203.324 1341.87 212.876C1351.42 222.427 1356.19 236.556 1356.19 255.261V346H1318.58V264.514C1318.58 253.967 1316.5 246.008 1312.32 240.635C1308.34 235.262 1302.86 232.576 1295.9 232.576C1288.34 232.576 1282.07 235.362 1277.1 240.933C1272.32 246.306 1269.93 254.863 1269.93 266.603V346H1232.32ZM1443.42 348.985C1431.88 348.985 1420.73 347.094 1409.99 343.314C1399.44 339.334 1389.89 332.867 1381.33 323.912L1404.32 298.541C1415.66 310.48 1429.39 316.45 1445.51 316.45C1453.07 316.45 1458.34 315.555 1461.33 313.764C1464.31 311.774 1465.81 308.192 1465.81 303.018C1465.81 300.829 1465.01 298.939 1463.42 297.347C1462.02 295.556 1458.94 293.964 1454.16 292.571C1449.59 290.979 1442.62 289.288 1433.27 287.497C1418.74 284.711 1407.5 279.935 1399.54 273.17C1391.78 266.404 1387.9 256.256 1387.9 242.724C1387.9 233.77 1390.29 226.009 1395.06 219.442C1399.84 212.677 1406.31 207.503 1414.47 203.921C1422.82 200.14 1432.18 198.25 1442.52 198.25C1465.21 198.25 1483.52 204.618 1497.44 217.353L1476.85 244.217C1472.07 239.64 1466.7 236.357 1460.73 234.367C1454.96 232.178 1449.09 231.083 1443.12 231.083C1436.55 231.083 1432.08 232.178 1429.69 234.367C1427.3 236.357 1426.11 238.744 1426.11 241.53C1426.11 243.52 1426.7 245.311 1427.9 246.903C1429.09 248.495 1431.68 250.087 1435.66 251.679C1439.64 253.072 1445.81 254.763 1454.16 256.753C1470.68 260.534 1483.12 266.305 1491.48 274.065C1500.03 281.627 1504.31 291.775 1504.31 304.511C1504.31 319.435 1498.54 330.578 1487 337.941C1475.66 345.304 1461.13 348.985 1443.42 348.985Z" fill="#8F1956"/>
<g clip-path="url(#clip1_165_1642)">
<path d="M205.628 557L210.864 558.221C208.967 565.126 213.264 572.102 220.445 573.772C222.912 574.34 225.486 574.232 227.897 573.459C230.308 572.687 232.466 571.278 234.143 569.382C235.437 567.913 236.381 566.169 236.904 564.283L242.15 565.5C241.417 568.152 240.092 570.604 238.274 572.67C235.921 575.33 232.894 577.306 229.512 578.389C226.13 579.473 222.518 579.624 219.058 578.827C208.997 576.478 202.969 566.69 205.628 557Z" fill="url(#paint0_linear_165_1642)"/>
<path d="M238.288 572.663C235.934 575.323 232.907 577.298 229.525 578.382C226.144 579.466 222.532 579.617 219.071 578.82C211.962 577.165 206.869 571.806 205.421 565.391L206.26 569.107C207.709 575.522 212.802 580.884 219.911 582.536C223.372 583.334 226.984 583.183 230.366 582.099C233.748 581.016 236.775 579.039 239.127 576.379C240.945 574.314 242.269 571.864 243 569.212L242.164 565.493C241.43 568.145 240.105 570.597 238.288 572.663V572.663Z" fill="#6D0038"/>
<path d="M1669.99 271.254L1633.76 257.003L1620 289.073L1669.99 271.254ZM1627.08 283.171L1635.94 262.305L1659.35 271.599L1657.45 271.997L1628.41 282.682L1627.08 283.171Z" fill="url(#paint1_linear_165_1642)"/>
<path d="M1635.87 264.873L1655.53 272.718L1659.35 271.6L1635.94 262.305L1627.08 283.168L1628.41 282.682L1635.87 264.873Z" fill="#6D0038"/>
<path d="M1669.83 275.183L1669.99 271.25L1620 289.073L1620.43 293.003L1669.83 275.183Z" fill="#6D0038"/>
<path d="M1619 439.445L1636.39 446.287L1643 430.89L1619 439.445ZM1639.6 433.723L1635.35 443.741L1624.11 439.279L1625.02 439.088L1638.96 433.958L1639.6 433.723Z" fill="url(#paint2_linear_165_1642)"/>
<path d="M1635.38 442.508L1625.94 438.742L1624.11 439.279L1635.35 443.741L1639.6 433.725L1638.96 433.958L1635.38 442.508Z" fill="#6D0038"/>
<path d="M1619.07 437.558L1619 439.447L1643 430.89L1642.79 429.003L1619.07 437.558Z" fill="#6D0038"/>
<g filter="url(#filter0_f_165_1642)">
<path d="M67.2073 452.64L46.3657 436.093C69.4747 409.215 65.0192 368.901 36.4267 346.228C26.5913 338.465 14.8442 333.497 2.42263 331.849C-9.99893 330.2 -22.6351 331.932 -34.1549 336.862C-43.0554 340.697 -50.9706 346.5 -57.3051 353.835L-78.1996 337.281C-69.3036 326.965 -58.1833 318.802 -45.6759 313.406C-29.5158 306.489 -11.7891 304.059 5.63639 306.371C23.0619 308.683 39.5411 315.653 53.3378 326.546C93.3748 358.358 99.6196 414.916 67.2073 452.64Z" fill="url(#paint3_linear_165_1642)"/>
<path d="M-45.7513 313.408C-29.5912 306.491 -11.8645 304.06 5.56097 306.373C22.9865 308.685 39.4657 315.655 53.2623 326.547C81.5641 349.008 93.0059 383.766 85.9019 415.537L90.0129 397.133C97.117 365.361 85.6824 330.589 57.3734 308.143C43.5784 297.247 27.099 290.275 9.67274 287.963C-7.75351 285.65 -25.4809 288.083 -41.6402 295.003C-54.1423 300.394 -65.2559 308.555 -74.1415 318.87L-78.275 337.283C-69.379 326.967 -58.2587 318.804 -45.7513 313.408V313.408Z" fill="#6D0038"/>
</g>
<g filter="url(#filter1_f_165_1642)">
<path d="M1748.82 513.106L1756.1 512.867C1756.04 522.567 1764.11 530.188 1774.09 529.854C1777.51 529.732 1780.84 528.689 1783.73 526.833C1786.61 524.977 1788.94 522.378 1790.47 519.31C1791.65 516.934 1792.27 514.322 1792.29 511.67L1799.58 511.423C1799.55 515.15 1798.68 518.823 1797.03 522.163C1794.88 526.468 1791.61 530.114 1787.57 532.717C1783.52 535.32 1778.85 536.784 1774.04 536.955C1760.06 537.408 1748.74 526.715 1748.82 513.106Z" fill="url(#paint4_linear_165_1642)"/>
<path d="M1797.04 522.149C1794.9 526.454 1791.63 530.1 1787.58 532.703C1783.54 535.307 1778.87 536.771 1774.06 536.942C1764.18 537.267 1755.64 532.043 1751.49 524.157L1753.89 528.724C1758.04 536.61 1766.58 541.839 1776.46 541.509C1781.27 541.339 1785.94 539.875 1789.99 537.272C1794.03 534.669 1797.3 531.022 1799.44 526.717C1801.1 523.378 1801.97 519.708 1802 515.983L1799.6 511.41C1799.57 515.137 1798.7 518.809 1797.04 522.149V522.149Z" fill="#6D0038"/>
</g>
</g>
<path d="M670.288 182.115C667.935 184.33 664.908 185.976 661.526 186.878C658.144 187.781 654.532 187.907 651.072 187.243C643.962 185.864 638.869 181.401 637.421 176.058L638.261 179.153C639.709 184.496 644.802 188.962 651.911 190.338C655.372 191.002 658.984 190.877 662.366 189.974C665.748 189.071 668.775 187.426 671.128 185.21C672.945 183.49 674.269 181.449 675 179.241L674.164 176.143C673.431 178.352 672.106 180.394 670.288 182.115V182.115Z" fill="#6D0038"/>
<path d="M637.628 169.07L642.864 170.086C640.967 175.837 645.264 181.648 652.445 183.038C654.912 183.511 657.486 183.421 659.897 182.778C662.308 182.135 664.466 180.962 666.143 179.383C667.437 178.159 668.381 176.707 668.904 175.135L674.15 176.149C673.417 178.358 672.092 180.4 670.274 182.121C667.921 184.336 664.894 185.982 661.512 186.884C658.13 187.787 654.518 187.913 651.058 187.249C640.997 185.292 634.969 177.14 637.628 169.07Z" fill="url(#paint5_linear_165_1642)"/>
</g>
<defs>
<filter id="filter0_f_165_1642" x="-104.843" y="260.546" width="223.478" height="218.663" filterUnits="userSpaceOnUse" color-interpolation-filters="sRGB">
<feFlood flood-opacity="0" result="BackgroundImageFix"/>
<feBlend mode="normal" in="SourceGraphic" in2="BackgroundImageFix" result="shape"/>
<feGaussianBlur stdDeviation="13.2841" result="effect1_foregroundBlur_165_1642"/>
</filter>
<filter id="filter1_f_165_1642" x="1739.2" y="501.791" width="72.4127" height="49.3514" filterUnits="userSpaceOnUse" color-interpolation-filters="sRGB">
<feFlood flood-opacity="0" result="BackgroundImageFix"/>
<feBlend mode="normal" in="SourceGraphic" in2="BackgroundImageFix" result="shape"/>
<feGaussianBlur stdDeviation="4.80929" result="effect1_foregroundBlur_165_1642"/>
</filter>
<linearGradient id="paint0_linear_165_1642" x1="216.696" y1="578.459" x2="227.319" y2="561.812" gradientUnits="userSpaceOnUse">
<stop stop-color="#A2195F"/>
<stop offset="1" stop-color="#9B1057"/>
</linearGradient>
<linearGradient id="paint1_linear_165_1642" x1="1635.74" y1="287.821" x2="1651.39" y2="264.839" gradientUnits="userSpaceOnUse">
<stop stop-color="#A2195F"/>
<stop offset="1" stop-color="#9B1057"/>
</linearGradient>
<linearGradient id="paint2_linear_165_1642" x1="1635.44" y1="431.491" x2="1627.93" y2="442.525" gradientUnits="userSpaceOnUse">
<stop stop-color="#A2195F"/>
<stop offset="1" stop-color="#9B1057"/>
</linearGradient>
<linearGradient id="paint3_linear_165_1642" x1="63.1225" y1="333.194" x2="-19.6509" y2="385.184" gradientUnits="userSpaceOnUse">
<stop stop-color="#A2195F"/>
<stop offset="1" stop-color="#9B1057"/>
</linearGradient>
<linearGradient id="paint4_linear_165_1642" x1="1770.83" y1="537.301" x2="1778.89" y2="511.798" gradientUnits="userSpaceOnUse">
<stop stop-color="#A2195F"/>
<stop offset="1" stop-color="#9B1057"/>
</linearGradient>
<linearGradient id="paint5_linear_165_1642" x1="648.696" y1="186.942" x2="656.781" y2="171.729" gradientUnits="userSpaceOnUse">
<stop stop-color="#A2195F"/>
<stop offset="1" stop-color="#9B1057"/>
</linearGradient>
<clipPath id="clip0_165_1642">
<rect width="1920" height="583" fill="white"/>
</clipPath>
<clipPath id="clip1_165_1642">
<rect width="1906.84" height="326.041" fill="white" transform="translate(-100 257)"/>
</clipPath>
</defs>
</svg>
