<svg width="1920" height="228" viewBox="0 0 1920 228" fill="none" xmlns="http://www.w3.org/2000/svg">
<g filter="url(#filter0_f_126_1862)">
<path d="M44.6799 138.471L33.1314 125.482C51.0212 110.787 52.6873 84.3493 36.8408 66.5473C31.3859 60.4464 24.3866 55.9295 16.5802 53.4724C8.77378 51.0153 0.449197 50.709 -7.51669 52.5856C-13.6742 54.052 -19.4191 56.8955 -24.3192 60.9022L-35.901 47.9027C-29.0177 42.2661 -20.9453 38.2644 -12.2917 36.1991C-1.1169 33.5657 10.5613 33.9951 21.5124 37.4421C32.4636 40.8891 42.2822 47.2261 49.934 55.7853C72.116 80.7544 69.7746 117.845 44.6799 138.471Z" fill="url(#paint0_linear_126_1862)"/>
<path d="M-12.3402 36.1918C-1.16541 33.5584 10.5128 33.9878 21.4639 37.4348C32.4151 40.8819 42.2337 47.2188 49.8855 55.7781C65.5688 73.411 69.0222 97.0596 60.8794 116.702L65.5937 105.323C73.7364 85.6808 70.2894 62.0232 54.5998 44.3993C46.9495 35.8381 37.1309 29.4998 26.1792 26.0526C15.2276 22.6055 3.54879 22.1772 -7.62589 24.813C-16.2755 26.8754 -24.3433 30.8765 -31.2199 36.514L-35.9495 47.8954C-29.0662 42.2588 -20.9938 38.2572 -12.3402 36.1918Z" fill="#FBA500"/>
</g>
<g filter="url(#filter1_f_126_1862)">
<path d="M1950.59 162.487L1938.1 162.077C1938.2 178.725 1924.35 191.806 1907.23 191.234C1901.34 191.024 1895.63 189.233 1890.68 186.047C1885.73 182.862 1881.73 178.402 1879.11 173.135C1877.09 169.057 1876.01 164.573 1875.98 160.022L1863.46 159.599C1863.51 165.996 1865.01 172.299 1867.85 178.032C1871.54 185.421 1877.14 191.679 1884.09 196.147C1891.03 200.615 1899.05 203.128 1907.3 203.421C1931.3 204.199 1950.73 185.845 1950.59 162.487Z" fill="url(#paint1_linear_126_1862)"/>
<path d="M1867.83 178.009C1871.51 185.397 1877.12 191.655 1884.06 196.123C1891 200.592 1899.02 203.105 1907.27 203.398C1924.23 203.957 1938.89 194.989 1946.01 181.454L1941.88 189.294C1934.77 202.829 1920.11 211.804 1903.15 211.237C1894.9 210.946 1886.88 208.433 1879.94 203.965C1872.99 199.497 1867.39 193.238 1863.7 185.848C1860.87 180.118 1859.37 173.818 1859.32 167.424L1863.44 159.575C1863.49 165.973 1864.99 172.275 1867.83 178.009Z" fill="#FBA500"/>
</g>
<defs>
<filter id="filter0_f_126_1862" x="-58.9077" y="0.150854" width="151.722" height="161.278" filterUnits="userSpaceOnUse" color-interpolation-filters="sRGB">
<feFlood flood-opacity="0" result="BackgroundImageFix"/>
<feBlend mode="normal" in="SourceGraphic" in2="BackgroundImageFix" result="shape"/>
<feGaussianBlur stdDeviation="11.479" result="effect1_foregroundBlur_126_1862"/>
</filter>
<filter id="filter1_f_126_1862" x="1842.81" y="143.066" width="124.288" height="84.7058" filterUnits="userSpaceOnUse" color-interpolation-filters="sRGB">
<feFlood flood-opacity="0" result="BackgroundImageFix"/>
<feBlend mode="normal" in="SourceGraphic" in2="BackgroundImageFix" result="shape"/>
<feGaussianBlur stdDeviation="8.25458" result="effect1_foregroundBlur_126_1862"/>
</filter>
<linearGradient id="paint0_linear_126_1862" x1="55.4818" y1="61.1628" x2="-3.61818" y2="85.3052" gradientUnits="userSpaceOnUse">
<stop stop-color="#FFE67B"/>
<stop offset="1" stop-color="#FFCF00"/>
</linearGradient>
<linearGradient id="paint1_linear_126_1862" x1="1912.82" y1="204.015" x2="1898.99" y2="160.241" gradientUnits="userSpaceOnUse">
<stop stop-color="#FFE67B"/>
<stop offset="1" stop-color="#FFCF00"/>
</linearGradient>
</defs>
</svg>
