<svg width="48" height="48" viewBox="0 0 48 48" fill="none" xmlns="http://www.w3.org/2000/svg">
<rect x="0.5" y="0.5" width="47" height="47" rx="15.5" stroke="#E2E2E2"/>
<path d="M29.2253 26.1502C28.8568 25.7665 28.4123 25.5614 27.9412 25.5614C27.4739 25.5614 27.0256 25.7627 26.6419 26.1464L25.4414 27.3431C25.3427 27.2899 25.2439 27.2405 25.1489 27.1911C25.0122 27.1228 24.883 27.0582 24.7728 26.9898C23.6483 26.2756 22.6264 25.3448 21.6462 24.1405C21.1713 23.5403 20.8522 23.035 20.6205 22.5221C20.932 22.2372 21.2207 21.9409 21.5019 21.656C21.6082 21.5496 21.7146 21.4394 21.821 21.3331C22.6188 20.5353 22.6188 19.5019 21.821 18.7041L20.7838 17.667C20.6661 17.5492 20.5445 17.4277 20.4305 17.3061C20.2026 17.0706 19.9633 16.8274 19.7163 16.5995C19.3478 16.2348 18.9071 16.041 18.4436 16.041C17.9802 16.041 17.5319 16.2348 17.152 16.5995C17.1482 16.6033 17.1482 16.6033 17.1444 16.6071L15.8527 17.9101C15.3664 18.3964 15.0891 18.9891 15.0283 19.6767C14.9372 20.786 15.2639 21.8193 15.5146 22.4956C16.13 24.1557 17.0494 25.6943 18.4209 27.3431C20.0848 29.33 22.0869 30.899 24.3739 32.0045C25.2477 32.4186 26.414 32.9087 27.7171 32.9923C27.7968 32.9961 27.8804 32.9999 27.9564 32.9999C28.834 32.9999 29.571 32.6845 30.1484 32.0577C30.1522 32.0501 30.1598 32.0463 30.1636 32.0387C30.3612 31.7994 30.5891 31.5828 30.8285 31.3511C30.9918 31.1953 31.159 31.032 31.3223 30.861C31.6984 30.4697 31.896 30.0138 31.896 29.5465C31.896 29.0755 31.6946 28.6234 31.3109 28.2435L29.2253 26.1502ZM30.5853 30.1506C30.5815 30.1506 30.5815 30.1544 30.5853 30.1506C30.4372 30.3101 30.2852 30.4545 30.1218 30.6141C29.8749 30.8496 29.6242 31.0965 29.3886 31.3739C29.0049 31.7842 28.5529 31.9779 27.9602 31.9779C27.9032 31.9779 27.8424 31.9779 27.7854 31.9741C26.6571 31.9019 25.6086 31.4613 24.8222 31.0851C22.672 30.0442 20.7838 28.5664 19.2149 26.6935C17.9194 25.1321 17.0532 23.6884 16.4796 22.1384C16.1262 21.1925 15.9971 20.4555 16.0541 19.7603C16.0921 19.3158 16.263 18.9473 16.5783 18.6319L17.8738 17.3365C18.0599 17.1617 18.2575 17.0668 18.4512 17.0668C18.6906 17.0668 18.8843 17.2111 19.0059 17.3327C19.0097 17.3365 19.0135 17.3403 19.0173 17.3441C19.249 17.5606 19.4694 17.7848 19.7011 18.0241C19.8189 18.1457 19.9405 18.2672 20.062 18.3926L21.0992 19.4297C21.5019 19.8324 21.5019 20.2047 21.0992 20.6074C20.989 20.7176 20.8826 20.8278 20.7725 20.9342C20.4533 21.2609 20.1494 21.5648 19.8189 21.8611C19.8113 21.8687 19.8037 21.8725 19.7999 21.8801C19.4732 22.2068 19.534 22.5259 19.6024 22.7425C19.6062 22.7539 19.6099 22.7653 19.6137 22.7767C19.8835 23.4301 20.2634 24.0456 20.8408 24.7788L20.8446 24.7826C21.8932 26.0742 22.9987 27.081 24.2182 27.8522C24.3739 27.951 24.5335 28.0307 24.6854 28.1067C24.8222 28.1751 24.9514 28.2397 25.0615 28.3081C25.0767 28.3157 25.0919 28.3271 25.1071 28.3347C25.2363 28.3992 25.3579 28.4296 25.4832 28.4296C25.7986 28.4296 25.9961 28.2321 26.0607 28.1675L27.36 26.8682C27.4891 26.7391 27.6943 26.5833 27.9336 26.5833C28.1691 26.5833 28.3629 26.7315 28.4807 26.8606C28.4845 26.8644 28.4845 26.8644 28.4883 26.8682L30.5815 28.9615C30.9728 29.349 30.9728 29.7479 30.5853 30.1506Z" fill="#12263A"/>
<path d="M24.7268 19.2816C25.7222 19.4487 26.6263 19.9198 27.3482 20.6416C28.07 21.3634 28.5373 22.2676 28.7082 23.2629C28.75 23.5137 28.9665 23.6884 29.2135 23.6884C29.2439 23.6884 29.2705 23.6846 29.3009 23.6808C29.582 23.6352 29.7681 23.3693 29.7225 23.0882C29.5174 21.8839 28.9475 20.786 28.0776 19.916C27.2076 19.046 26.1097 18.4762 24.9054 18.271C24.6243 18.2254 24.3621 18.4116 24.3128 18.6889C24.2634 18.9662 24.4457 19.236 24.7268 19.2816Z" fill="#12263A"/>
<path d="M32.9792 22.9402C32.6411 20.9571 31.7066 19.1526 30.2705 17.7165C28.8345 16.2805 27.03 15.3459 25.0469 15.0078C24.7696 14.9584 24.5074 15.1484 24.458 15.4257C24.4124 15.7068 24.5986 15.969 24.8797 16.0184C26.6501 16.3185 28.2647 17.1581 29.5487 18.4383C30.8328 19.7224 31.6686 21.337 31.9687 23.1073C32.0105 23.3581 32.227 23.5328 32.474 23.5328C32.5044 23.5328 32.531 23.529 32.5614 23.5252C32.8387 23.4834 33.0286 23.2175 32.9792 22.9402Z" fill="#12263A"/>
</svg>
