<svg width="1920" height="265" viewBox="0 0 1920 265" fill="none" xmlns="http://www.w3.org/2000/svg">
<path fill-rule="evenodd" clip-rule="evenodd" d="M430.865 258.564L430.832 258.566C414.622 259.386 400.832 255.902 389.673 247.9L389.663 247.893L389.652 247.886C378.497 239.734 372.992 227.903 372.992 212.81C372.992 202.073 376.167 192.771 382.591 185.063L382.595 185.057C389.069 177.331 397.3 171.406 407.224 167.269C417.262 162.969 427.628 160.703 438.305 160.486C443.145 160.075 447.813 160.496 452.289 161.767C455.132 162.447 457.852 163.305 460.448 164.345V159.082C460.448 150.832 458.625 146.817 456.313 145.275L456.269 145.247L456.227 145.216C453.298 143.101 448.883 141.862 442.631 141.862C434.423 141.862 425.877 143.388 416.978 146.483L416.961 146.489L416.944 146.495C408.217 149.404 400.72 153.163 394.418 157.747L391.941 159.548L372 125.614L374.308 124.186C382.874 118.883 393.015 114.226 404.701 110.195C416.748 105.909 429.396 103.771 442.631 103.771C461.453 103.771 476.202 107.607 486.441 115.714C496.987 124.062 501.822 138.867 501.822 159.082V221.764C501.822 223.705 502.037 224.968 502.317 225.714C502.453 226.075 502.567 226.232 502.625 226.291C503.048 226.382 504.071 226.423 505.986 226.111C507.954 225.791 510.535 225.157 513.76 224.18L517.343 223.094V251.638L515.679 252.367C512.351 253.823 508.25 255.254 503.404 256.667L503.352 256.682L503.3 256.695C498.27 257.953 492.766 258.569 486.807 258.569C480.648 258.569 475.356 257.529 471.097 255.258C467.821 253.51 465.242 251.078 463.388 248.006C454.273 254.136 443.41 257.628 430.898 258.561L430.865 258.564ZM462.106 245.519C453.393 251.455 442.921 254.879 430.691 255.791C414.971 256.587 401.838 253.205 391.291 245.643C380.944 238.081 375.77 227.137 375.77 212.81C375.77 202.661 378.755 194.005 384.725 186.841C390.893 179.479 398.753 173.808 408.305 169.828C418.056 165.649 428.105 163.46 438.452 163.261C443.029 162.863 447.407 163.261 451.585 164.455C454.706 165.198 457.661 166.163 460.448 167.35C461.394 167.753 462.319 168.18 463.226 168.634V159.082C463.226 150.725 461.435 145.352 457.854 142.964C454.272 140.377 449.197 139.084 442.631 139.084C434.074 139.084 425.219 140.676 416.066 143.86C408.129 146.505 401.13 149.854 395.069 153.907C394.292 154.426 393.53 154.958 392.784 155.501L375.77 126.548C384.128 121.374 394.077 116.797 405.619 112.817C417.359 108.638 429.696 106.549 442.631 106.549C461.137 106.549 475.166 110.33 484.717 117.891C494.269 125.453 499.044 139.183 499.044 159.082V221.764C499.044 225.943 499.94 228.331 501.731 228.928C503.425 229.436 506.777 229.007 511.788 227.64C512.663 227.402 513.589 227.134 514.566 226.838V249.822C511.382 251.215 507.402 252.608 502.626 254.001C497.85 255.194 492.577 255.791 486.807 255.791C476.391 255.791 469.343 252.659 465.661 246.395C465.193 245.598 464.779 244.75 464.42 243.852C463.663 244.428 462.892 244.984 462.106 245.519ZM502.666 226.323C502.665 226.324 502.655 226.32 502.639 226.304C502.659 226.314 502.667 226.322 502.666 226.323ZM461.049 203.109L461.048 203.08C460.968 201.235 460.481 199.928 459.753 198.978C459.025 198.028 457.885 197.215 456.116 196.652L456.098 196.646L456.08 196.64C452.349 195.397 447.56 194.901 441.616 195.285L441.587 195.287L441.557 195.288C432.81 195.668 426.182 197.935 421.402 201.83L421.378 201.85L421.353 201.869C416.379 205.737 414.523 209.438 414.661 212.969C414.813 215.455 415.844 217.348 417.888 218.841C420.196 220.186 423.993 220.966 429.67 220.78C439.968 220.194 447.855 218.259 453.519 215.158C456.395 213.538 458.33 211.726 459.514 209.792C460.683 207.883 461.216 205.7 461.051 203.138L461.049 203.109ZM429.796 223.555C440.342 222.958 448.7 220.968 454.869 217.585C461.236 214.004 464.221 209.128 463.823 202.96C463.624 198.383 461.336 195.398 456.958 194.005C452.779 192.612 447.606 192.115 441.437 192.513C432.283 192.911 425.02 195.298 419.647 199.676C414.275 203.855 411.688 208.332 411.887 213.108C412.086 216.491 413.578 219.177 416.364 221.167C419.349 222.958 423.826 223.754 429.796 223.555ZM575.86 256.778H538.108V39H581.273V114.129C590.61 107.245 601.149 103.771 612.821 103.771C626.767 103.771 639.281 106.85 650.288 113.076C661.33 119.122 669.954 128.081 676.156 139.854C682.596 151.5 685.742 165.612 685.742 182.066C685.742 198.339 682.589 212.445 676.156 224.278C669.949 235.86 661.327 244.807 650.306 251.045L650.288 251.055L650.271 251.065C639.266 257.086 626.759 260.062 612.821 260.062C599.039 260.062 587.137 255.441 577.229 246.283L575.86 256.778ZM575.212 240.27C576.018 241.171 576.839 242.036 577.675 242.865C587.366 252.478 599.082 257.284 612.821 257.284C626.352 257.284 638.391 254.398 648.937 248.628C659.484 242.658 667.742 234.102 673.712 222.958C679.88 211.616 682.965 197.985 682.965 182.066C682.965 165.947 679.88 152.317 673.712 141.173C667.742 129.831 659.484 121.274 648.937 115.504C638.391 109.534 626.352 106.549 612.821 106.549C601.074 106.549 590.558 110.242 581.273 117.628C580.334 118.375 579.408 119.159 578.495 119.981V41.7778H540.886V254.001H573.421L575.212 240.27ZM633.157 210.935L633.159 210.933C639.106 204.446 642.279 194.964 642.279 182.066C642.279 168.949 639.097 159.497 633.186 153.227L633.158 153.198L633.131 153.167C627.288 146.594 620.083 143.354 611.328 143.354C602.573 143.354 595.368 146.594 589.526 153.167L589.513 153.182L589.5 153.196C583.769 159.464 580.676 168.929 580.676 182.066C580.676 194.974 583.756 204.464 589.513 210.95C595.345 217.321 602.553 220.479 611.328 220.479C620.111 220.479 627.323 217.316 633.157 210.935ZM587.45 212.81C581.082 205.646 577.898 195.398 577.898 182.066C577.898 168.534 581.082 158.286 587.45 151.322C593.817 144.158 601.777 140.576 611.328 140.576C620.88 140.576 628.839 144.158 635.207 151.322C641.774 158.286 645.057 168.534 645.057 182.066C645.057 195.398 641.774 205.646 635.207 212.81C628.839 219.774 620.88 223.257 611.328 223.257C601.777 223.257 593.817 219.774 587.45 212.81ZM735.414 250.434L735.404 250.429C724.395 243.99 715.69 234.852 709.293 223.091L709.284 223.075L709.275 223.058C703.061 211.251 700.001 197.559 700.001 182.066C700.001 166.382 703.058 152.679 709.285 141.055L709.289 141.048L709.293 141.04C715.688 129.281 724.392 120.145 735.398 113.706C746.599 107.07 759.13 103.771 772.923 103.771C786.902 103.771 799.441 107.065 810.459 113.712C821.459 120.151 830.063 129.287 836.258 141.047C842.687 152.673 845.845 166.379 845.845 182.066C845.845 197.566 842.682 211.265 836.262 223.076C830.064 234.846 821.453 243.988 810.442 250.429C799.426 256.872 786.893 260.062 772.923 260.062C759.143 260.062 746.621 256.868 735.423 250.44L735.414 250.434ZM833.814 221.764C839.983 210.422 843.067 197.189 843.067 182.066C843.067 166.743 839.983 153.511 833.814 142.367C827.844 131.025 819.586 122.269 809.04 116.101C798.493 109.733 786.454 106.549 772.923 106.549C759.591 106.549 747.552 109.733 736.806 116.101C726.26 122.269 717.902 131.025 711.734 142.367C705.764 153.511 702.779 166.743 702.779 182.066C702.779 197.189 705.764 210.422 711.734 221.764C717.902 233.107 726.26 241.862 736.806 248.031C747.552 254.2 759.591 257.284 772.923 257.284C786.454 257.284 798.493 254.2 809.04 248.031C819.586 241.862 827.844 233.107 833.814 221.764ZM794.096 211.002L794.1 210.997C799.686 204.51 802.68 195.003 802.68 182.066C802.68 168.91 799.677 159.432 794.125 153.163L794.098 153.132L794.071 153.1C788.643 146.587 781.673 143.354 772.923 143.354C764.175 143.354 757.206 146.586 751.779 153.095C746.584 159.366 743.763 168.873 743.763 182.066C743.763 195.019 746.566 204.545 751.778 211.034C757.192 217.333 764.159 220.479 772.923 220.479C781.702 220.479 788.678 217.322 794.096 211.002ZM880.226 244.91L880.216 244.9C870.182 234.652 865.394 219.71 865.394 200.572V107.353H908.559V191.617C908.559 201.652 910.595 208.803 914.242 213.492C917.898 218.193 922.564 220.479 928.466 220.479C935.281 220.479 940.678 218.098 944.896 213.352L944.9 213.347C949.222 208.507 951.657 200.659 951.657 189.229V107.353H994.821V256.778H956.172L954.563 244.366C951.243 247.737 947.311 250.832 942.79 253.659C936.096 257.973 928.092 260.062 918.915 260.062C903.339 260.062 890.366 255.05 880.237 244.921L880.226 244.91ZM941.301 251.314C946.396 248.13 950.663 244.627 954.102 240.806C954.961 239.851 955.768 238.877 956.524 237.882L958.613 254.001H992.044V110.131H954.434V189.229C954.434 200.97 951.947 209.626 946.972 215.197C942.197 220.57 936.028 223.257 928.466 223.257C921.701 223.257 916.228 220.57 912.05 215.197C907.871 209.825 905.781 201.965 905.781 191.617V110.131H868.172V200.572C868.172 219.277 872.848 233.405 882.201 242.957C891.753 252.508 903.99 257.284 918.915 257.284C927.67 257.284 935.132 255.294 941.301 251.314ZM1117.54 252.21C1113.76 253.802 1108.98 254.995 1103.21 255.791C1097.64 256.786 1091.97 257.284 1086.2 257.284C1076.65 257.284 1068.49 256.189 1061.72 254.001C1055.15 252.011 1050.08 248.13 1046.5 242.36C1043.12 236.589 1041.42 228.43 1041.42 217.884V142.367H1014.56V110.131H1041.42V60.2838H1078.73V110.131H1117.54V142.367H1078.73V208.034C1078.73 214.203 1080.23 218.381 1083.21 220.57C1086.4 222.759 1090.87 223.854 1096.64 223.854C1100.62 223.854 1104.5 223.257 1108.28 222.063C1110.8 221.182 1112.96 220.341 1114.76 219.54C1115.81 219.074 1116.73 218.621 1117.54 218.182V252.21ZM1107.41 219.427C1111.31 218.06 1114.22 216.829 1116.21 215.744L1120.32 213.503V254.054L1118.62 254.77C1114.55 256.481 1109.54 257.719 1103.64 258.536C1097.93 259.553 1092.11 260.062 1086.2 260.062C1076.46 260.062 1068 258.949 1060.89 256.651C1053.7 254.465 1048.08 250.168 1044.14 243.824L1044.12 243.795L1044.1 243.764C1040.36 237.389 1038.65 228.665 1038.65 217.884V145.145H1011.78V107.353H1038.65V57.506H1081.51V107.353H1120.32V145.145H1081.51V208.034C1081.51 213.872 1082.94 216.901 1084.82 218.307C1087.37 220.04 1091.2 221.076 1096.64 221.076C1100.33 221.076 1103.91 220.526 1107.41 219.427ZM1235.55 244.91L1235.54 244.9C1225.51 234.652 1220.72 219.71 1220.72 200.572V107.353H1263.88V191.617C1263.88 201.652 1265.92 208.803 1269.57 213.492C1273.22 218.193 1277.89 220.479 1283.79 220.479C1290.61 220.479 1296 218.098 1300.22 213.352L1300.23 213.347C1304.55 208.507 1306.98 200.659 1306.98 189.229V107.353H1350.15V256.778H1311.5L1309.89 244.366C1306.57 247.737 1302.64 250.832 1298.12 253.659C1291.42 257.973 1283.42 260.062 1274.24 260.062C1258.66 260.062 1245.69 255.05 1235.56 244.921L1235.55 244.91ZM1296.63 251.314C1301.72 248.13 1305.99 244.627 1309.43 240.806C1310.29 239.851 1311.09 238.877 1311.85 237.882L1313.94 254.001H1347.37V110.131H1309.76V189.229C1309.76 200.97 1307.27 209.626 1302.3 215.197C1297.52 220.57 1291.35 223.257 1283.79 223.257C1277.03 223.257 1271.55 220.57 1267.37 215.197C1263.2 209.825 1261.11 201.965 1261.11 191.617V110.131H1223.5V200.572C1223.5 219.277 1228.17 233.405 1237.53 242.957C1247.08 252.508 1259.32 257.284 1274.24 257.284C1283 257.284 1290.46 255.294 1296.63 251.314ZM1399.98 253.924L1399.95 253.913C1388.97 249.772 1379.08 243.057 1370.27 233.832L1368.48 231.963L1395.21 202.457L1397.27 204.628C1408.1 216.029 1421.11 221.673 1436.45 221.673C1443.91 221.673 1448.48 220.765 1450.78 219.416C1452.66 218.135 1453.97 215.66 1453.97 211.019C1453.97 209.59 1453.48 208.399 1452.39 207.312L1452.27 207.189L1452.16 207.053C1451.81 206.599 1451.08 205.978 1449.72 205.279C1448.39 204.591 1446.61 203.904 1444.33 203.238L1444.26 203.219L1444.19 203.195C1439.81 201.672 1433.01 200.01 1423.69 198.226L1424.21 195.497C1433.56 197.288 1440.53 198.98 1445.1 200.572C1449.88 201.965 1452.96 203.557 1454.36 205.347C1455.95 206.939 1456.74 208.83 1456.74 211.019C1456.74 216.192 1455.25 219.774 1452.27 221.764C1449.28 223.555 1444.01 224.451 1436.45 224.451C1421.25 224.451 1408.17 219.14 1397.21 208.519C1396.55 207.879 1395.9 207.22 1395.26 206.541L1372.27 231.913C1380.83 240.867 1390.38 247.334 1400.93 251.314C1411.67 255.095 1422.82 256.985 1434.36 256.985C1452.07 256.985 1466.59 253.304 1477.94 245.941C1489.48 238.579 1495.25 227.435 1495.25 212.511C1495.25 199.776 1490.97 189.627 1482.41 182.066C1474.06 174.305 1461.62 168.534 1445.1 164.754C1436.75 162.764 1430.58 161.072 1426.6 159.679C1422.62 158.087 1420.03 156.495 1418.84 154.904C1417.64 153.312 1417.05 151.521 1417.05 149.531C1417.05 146.745 1418.24 144.357 1420.63 142.367C1423.02 140.178 1427.49 139.084 1434.06 139.084C1440.03 139.084 1445.9 140.178 1451.67 142.367C1456.79 144.075 1461.48 146.735 1465.72 150.348C1466.42 150.945 1467.11 151.568 1467.79 152.217L1488.38 125.354C1474.45 112.618 1456.15 106.251 1433.46 106.251C1423.12 106.251 1413.76 108.141 1405.41 111.922C1397.25 115.504 1390.78 120.677 1386 127.443C1381.23 134.01 1378.84 141.77 1378.84 150.725C1378.84 164.256 1382.72 174.405 1390.48 181.17C1398.44 187.936 1409.68 192.712 1424.21 195.497L1423.69 198.226C1408.88 195.385 1397.13 190.466 1388.68 183.287L1388.67 183.275L1388.66 183.264C1380.11 175.817 1376.06 164.791 1376.06 150.725C1376.06 141.253 1378.6 132.91 1383.75 125.823C1388.83 118.626 1395.7 113.151 1404.27 109.385C1413.03 105.426 1422.78 103.473 1433.46 103.473C1456.69 103.473 1475.72 110.009 1490.26 123.303L1492.14 125.022L1468.11 156.369L1465.87 154.223C1461.37 149.916 1456.35 146.856 1450.79 145.002L1450.74 144.984L1450.69 144.964C1445.22 142.891 1439.68 141.862 1434.06 141.862C1427.58 141.862 1424.06 142.988 1422.51 144.415L1422.46 144.459L1422.41 144.501C1420.57 146.032 1419.82 147.671 1419.82 149.531C1419.82 150.92 1420.23 152.126 1421.06 153.237C1421.75 154.16 1423.67 155.512 1427.57 157.078C1431.41 158.417 1437.44 160.074 1445.74 162.049C1462.49 165.886 1475.43 171.805 1484.28 180.006C1493.49 188.157 1498.03 199.094 1498.03 212.511C1498.03 228.28 1491.86 240.354 1479.44 248.28C1467.53 256.007 1452.44 259.763 1434.36 259.763C1422.51 259.763 1411.05 257.821 1400.01 253.934L1399.98 253.924ZM796.205 212.81C790.235 219.774 782.474 223.257 772.923 223.257C763.371 223.257 755.611 219.774 749.641 212.81C743.87 205.646 740.985 195.398 740.985 182.066C740.985 168.534 743.87 158.286 749.641 151.322C755.611 144.158 763.371 140.576 772.923 140.576C782.474 140.576 790.235 144.158 796.205 151.322C802.373 158.286 805.458 168.534 805.458 182.066C805.458 195.398 802.373 205.646 796.205 212.81Z" fill="#FFF7F2"/>
</svg>
