<svg width="483" height="436" viewBox="0 0 483 436" fill="none" xmlns="http://www.w3.org/2000/svg">
<path d="M335.492 346.075C381.915 315.066 441.6 293.009 455.912 239.062C470.804 182.929 442.894 124.113 406.359 78.9604C372.462 37.0685 321.552 15.8357 268.34 7.24939C216.419 -1.12833 164.367 6.48236 118.691 32.5433C68.1619 61.3734 14.4839 99.4077 5.98319 156.941C-2.39001 213.611 44.5179 259.35 78.3475 305.589C110.784 349.923 139.764 405.437 194.042 413.982C247.756 422.439 290.282 376.274 335.492 346.075Z" fill="#FFCF00"/>
<path d="M139.035 70.7385C94.6524 100.314 37.5914 121.352 23.9082 172.805C9.67053 226.343 36.3539 282.44 71.2834 325.505C103.691 365.46 152.362 385.711 203.236 393.901C252.874 401.891 302.639 394.632 346.306 369.776C394.614 342.279 445.933 306.003 454.06 251.129C462.065 197.079 417.219 153.455 384.877 109.353C353.866 67.0687 326.16 14.1214 274.267 5.97047C222.915 -2.09555 182.258 41.9355 139.035 70.7385Z" fill="#06BCC1"/>
<path d="M132.448 362.467C121.476 355.143 109.807 348.289 98.1422 341.438C96.6931 340.587 95.2441 339.736 93.7965 338.884C80.689 331.17 67.6922 323.383 55.7632 314.84C31.9052 297.753 12.376 277.683 4.82269 249.232C-10.9234 189.92 18.5788 127.694 57.3308 79.8347C93.2086 35.5246 147.116 13.0381 203.534 3.9407C258.55 -4.93048 313.688 3.13025 362.065 30.7139C388.874 45.9997 416.484 63.7075 438.516 85.2013C460.545 106.692 476.971 131.943 481.462 162.317C485.881 192.21 475.719 219.247 459.921 244.977C449.624 261.749 436.968 277.912 424.424 293.934C417.703 302.519 411.013 311.063 404.735 319.638C399.133 327.29 393.636 335.243 388.11 343.239C376.619 359.864 365.002 376.671 352.052 391.333C332.891 413.026 310.893 429.919 282.246 434.427C253.909 438.885 228.495 428.954 204.126 413.854C191.941 406.305 180.034 397.473 168.161 388.516C166.83 387.512 165.499 386.506 164.168 385.5C153.637 377.541 143.113 369.586 132.448 362.467Z" fill="#FFF7F2" stroke="white"/>
<path d="M287.376 115.938V239.688C287.376 245.158 285.203 250.404 281.335 254.272C277.467 258.14 272.221 260.313 266.751 260.313H198.001C194.379 260.311 190.821 259.357 187.684 257.547C184.547 255.737 181.94 253.135 180.126 250V249.966C178.317 246.843 177.368 243.297 177.376 239.688V115.938C177.376 110.468 179.549 105.222 183.416 101.354C187.284 97.486 192.53 95.313 198.001 95.313H266.751C271.951 95.3157 276.959 97.2828 280.77 100.821C284.582 104.358 286.917 109.205 287.307 114.391C287.341 114.907 287.376 115.422 287.376 115.938Z" fill="#06BCC1"/>
<path d="M287.375 123.672V218.169C281.848 215.773 276.786 212.422 272.422 208.269L248.256 212.772L260.769 191.597C258.053 185.391 256.587 178.71 256.454 171.936C256.322 165.163 257.525 158.43 259.996 152.121C262.467 145.813 266.157 140.054 270.855 135.172C275.553 130.291 281.166 126.383 287.375 123.672Z" fill="#00A6AB"/>
<path d="M351.897 173C349.524 186.465 341.901 198.435 330.704 206.28C319.507 214.125 305.653 217.202 292.188 214.835C290.564 214.558 288.958 214.19 287.375 213.735C279.19 211.49 271.69 207.25 265.547 201.394L241.381 205.897L253.894 184.722C250.154 176.179 248.803 166.782 249.983 157.531C251.163 148.28 254.831 139.523 260.595 132.192C266.359 124.862 274.005 119.232 282.716 115.903C291.427 112.575 300.879 111.672 310.063 113.291C323.527 115.664 335.498 123.287 343.343 134.484C351.188 145.681 354.265 159.535 351.897 173Z" fill="#FFCF00"/>
<path d="M283.938 153.75V195C283.944 196.822 284.67 198.567 285.958 199.855C287.246 201.143 288.992 201.87 290.813 201.875H325.188C327.01 201.87 328.756 201.143 330.044 199.855C331.332 198.567 332.058 196.822 332.063 195V153.75H283.938Z" fill="#EBBF00"/>
<path d="M325.188 181.25V188.125C325.183 189.947 324.456 191.692 323.168 192.98C321.88 194.268 320.135 194.995 318.313 195H283.938C282.116 194.995 280.371 194.268 279.083 192.98C277.795 191.692 277.068 189.947 277.063 188.125V181.25H325.188Z" fill="#D1D3D4"/>
<path d="M277.063 146.875H325.188V181.25H277.063V146.875Z" fill="#06BCC1"/>
<path d="M239.25 232.812C241.072 232.818 242.817 233.544 244.105 234.832C245.393 236.12 246.12 237.866 246.125 239.688C246.112 241.507 245.383 243.248 244.096 244.534C242.81 245.82 241.069 246.549 239.25 246.563H225.5C223.678 246.557 221.933 245.831 220.645 244.543C219.357 243.255 218.63 241.509 218.625 239.688C218.638 237.868 219.367 236.127 220.654 234.841C221.94 233.555 223.681 232.826 225.5 232.812H239.25Z" fill="#E6E7E8"/>
<path d="M221.719 235.253C221.719 237.063 221.245 238.84 220.344 240.41L219.209 242.403C218.822 241.55 218.623 240.624 218.625 239.688C218.62 238.785 218.797 237.891 219.146 237.058C219.494 236.225 220.007 235.471 220.653 234.841C220.961 234.527 221.294 234.239 221.65 233.981C221.684 234.394 221.719 234.841 221.719 235.253Z" fill="#E6E7E8"/>
<path d="M221.478 154.335C223.736 156.586 225.143 159.551 225.459 162.724C225.776 165.896 224.982 169.08 223.213 171.733C221.444 174.386 218.811 176.343 215.76 177.271C212.71 178.199 209.432 178.041 206.486 176.823C203.539 175.605 201.107 173.402 199.602 170.591C198.098 167.78 197.615 164.534 198.236 161.407C198.857 158.28 200.544 155.465 203.008 153.442C205.472 151.419 208.562 150.313 211.75 150.313C215.396 150.319 218.892 151.765 221.478 154.335Z" fill="#00A6AB"/>
<path d="M214.603 147.46C216.861 149.711 218.268 152.676 218.584 155.849C218.901 159.021 218.107 162.205 216.338 164.858C214.569 167.511 211.936 169.468 208.885 170.396C205.835 171.324 202.557 171.166 199.611 169.948C196.664 168.73 194.232 166.527 192.727 163.716C191.223 160.905 190.74 157.659 191.361 154.532C191.982 151.405 193.669 148.59 196.133 146.567C198.597 144.544 201.687 143.438 204.875 143.438C208.521 143.444 212.017 144.89 214.603 147.46Z" fill="#FFD422"/>
<path d="M214.844 228.378C214.847 226.106 214.099 223.896 212.716 222.093C211.334 220.29 209.395 218.993 207.2 218.405C205.005 217.817 202.678 217.971 200.579 218.842C198.48 219.713 196.728 221.253 195.594 223.222L180.126 249.966C178.317 246.843 177.368 243.296 177.376 239.688V184.756C176.236 184.914 175.154 185.356 174.229 186.041C173.304 186.725 172.566 187.631 172.082 188.675L156.476 222.534C154.387 227.036 153.308 231.94 153.313 236.903V298.125L208.313 298.091V283.172C208.306 279.429 207.284 275.758 205.357 272.55L198.001 260.313L213.469 233.534C214.37 231.965 214.844 230.188 214.844 228.378Z" fill="#FFC477"/>
<path d="M204.875 105.625H211.75V112.5H204.875V105.625Z" fill="#4A051C"/>
<path d="M218.625 105.625H246.125V112.5H218.625V105.625Z" fill="#4A051C"/>
<path d="M283.938 239.688C283.933 244.245 282.12 248.613 278.898 251.835C275.676 255.057 271.307 256.87 266.751 256.876H203.954L215.773 236.409C215.399 237.462 215.201 238.57 215.188 239.688C215.188 242.423 216.275 245.046 218.209 246.98C220.143 248.914 222.766 250.001 225.501 250.001H239.251C241.986 250.001 244.609 248.914 246.543 246.98C248.477 245.046 249.563 242.423 249.563 239.688C249.563 236.953 248.477 234.33 246.543 232.396C244.609 230.462 241.986 229.376 239.251 229.376H225.501C223.864 229.379 222.252 229.772 220.797 230.524C219.343 231.275 218.09 232.363 217.141 233.696C218.506 230.48 218.592 226.865 217.382 223.587C216.172 220.31 213.757 217.617 210.63 216.06C207.503 214.502 203.899 214.197 200.554 215.206C197.209 216.215 194.375 218.463 192.631 221.49L180.944 241.744C180.859 241.062 180.815 240.375 180.813 239.688V115.938C180.819 111.381 182.631 107.013 185.853 103.791C189.075 100.569 193.444 98.7559 198.001 98.7505H266.751C269.766 98.7575 272.727 99.5546 275.339 101.062C277.95 102.57 280.121 104.736 281.635 107.344L287.585 103.907C285.466 100.256 282.428 97.224 278.772 95.1131C275.117 93.0022 270.972 91.8859 266.751 91.8755H198.001C191.621 91.8828 185.505 94.4203 180.994 98.9313C176.483 103.442 173.945 109.558 173.938 115.938V182.282C171.751 183.3 169.989 185.053 168.961 187.235L153.358 221.084C151.048 226.049 149.859 231.462 149.876 236.938V298.126H156.751V236.938C156.735 232.46 157.707 228.034 159.597 223.975L173.938 192.859V239.688C173.936 243.794 174.988 247.831 176.994 251.413C177.253 251.993 177.667 252.489 178.191 252.848C178.715 253.207 179.327 253.413 179.961 253.445C180.595 253.477 181.226 253.332 181.782 253.028C182.339 252.723 182.801 252.27 183.116 251.719L198.585 224.927C199.503 223.361 201.004 222.222 202.759 221.758C204.514 221.294 206.381 221.543 207.954 222.45C209.526 223.358 210.675 224.851 211.151 226.603C211.626 228.355 211.39 230.224 210.493 231.802L195.024 258.594C194.716 259.126 194.557 259.731 194.563 260.345C194.568 260.959 194.738 261.56 195.055 262.087L202.418 274.324C204.024 277.001 204.873 280.064 204.876 283.186V298.091H211.751V283.186C211.75 278.817 210.562 274.53 208.313 270.784L204.082 263.751H266.751C273.13 263.743 279.246 261.206 283.757 256.695C288.268 252.184 290.806 246.068 290.813 239.688V222.501H283.938V239.688ZM225.501 236.251H239.251C240.162 236.251 241.037 236.613 241.681 237.257C242.326 237.902 242.688 238.776 242.688 239.688C242.688 240.6 242.326 241.474 241.681 242.119C241.037 242.763 240.162 243.126 239.251 243.126H225.501C224.589 243.126 223.715 242.763 223.07 242.119C222.425 241.474 222.063 240.6 222.063 239.688C222.063 238.776 222.425 237.902 223.07 237.257C223.715 236.613 224.589 236.251 225.501 236.251Z" fill="#4A051C"/>
<path d="M346.191 132.506C338.46 121.441 326.93 113.604 313.795 110.49C300.661 107.375 286.84 109.199 274.963 115.615C263.086 122.031 253.984 132.591 249.389 145.283C244.794 157.976 245.027 171.915 250.044 184.447L238.426 204.144C238.09 204.711 237.925 205.362 237.95 206.02C237.974 206.678 238.187 207.316 238.563 207.856C238.949 208.396 239.48 208.815 240.095 209.064C240.709 209.314 241.382 209.384 242.035 209.266L264.482 205.072C272.104 211.905 281.488 216.466 291.569 218.238C294.737 218.782 297.946 219.058 301.16 219.063C311.221 219.06 321.089 216.297 329.689 211.075C338.29 205.853 345.293 198.373 349.936 189.447C354.58 180.521 356.686 170.493 356.026 160.453C355.366 150.413 351.964 140.747 346.191 132.506ZM348.529 172.416C347.017 180.991 343.207 188.995 337.504 195.576C331.802 202.156 324.421 207.067 316.148 209.783C307.875 212.5 299.02 212.921 290.527 211.001C282.034 209.082 274.22 204.894 267.919 198.885C267.275 198.286 266.427 197.954 265.547 197.956C265.341 197.951 265.134 197.962 264.929 197.991L248.188 201.119L256.851 186.475C257.12 186.004 257.278 185.477 257.314 184.935C257.35 184.393 257.262 183.85 257.057 183.347C253.223 174.671 252.062 165.049 253.722 155.71C255.938 143.137 263.057 131.96 273.513 124.637C278.691 121.011 284.531 118.44 290.702 117.071C296.873 115.703 303.254 115.563 309.479 116.66C315.704 117.757 321.652 120.069 326.983 123.465C332.315 126.86 336.925 131.273 340.551 136.45C344.177 141.628 346.748 147.469 348.117 153.64C349.486 159.811 349.626 166.191 348.529 172.416Z" fill="#4A051C"/>
<path d="M325.188 143.438H314.875V140C314.875 136.354 313.427 132.856 310.848 130.278C308.27 127.699 304.772 126.25 301.125 126.25C297.479 126.25 293.981 127.699 291.403 130.278C288.824 132.856 287.375 136.354 287.375 140V143.438H277.063C276.151 143.438 275.277 143.8 274.632 144.445C273.988 145.089 273.625 145.964 273.625 146.875V188.125C273.634 190.858 274.723 193.476 276.655 195.409C278.587 197.341 281.205 198.43 283.938 198.438H318.313C321.046 198.43 323.664 197.341 325.596 195.409C327.528 193.476 328.617 190.858 328.625 188.125V146.875C328.625 145.964 328.263 145.089 327.619 144.445C326.974 143.8 326.1 143.438 325.188 143.438ZM294.25 140C294.25 138.177 294.975 136.428 296.264 135.139C297.553 133.85 299.302 133.125 301.125 133.125C302.949 133.125 304.698 133.85 305.987 135.139C307.276 136.428 308 138.177 308 140V143.438H294.25V140ZM321.75 188.125C321.75 189.037 321.388 189.912 320.744 190.556C320.099 191.201 319.225 191.563 318.313 191.563H283.938C283.026 191.563 282.152 191.201 281.507 190.556C280.863 189.912 280.5 189.037 280.5 188.125V184.688H321.75V188.125ZM321.75 177.813H280.5V150.313H287.375V157.188H294.25V150.313H308V157.188H314.875V150.313H321.75V177.813Z" fill="#4A051C"/>
<path d="M219.633 137.57L214.339 142.864C210.776 140.506 206.463 139.555 202.239 140.195C198.014 140.836 194.178 143.023 191.474 146.332C188.771 149.641 187.392 153.837 187.607 158.104C187.821 162.372 189.613 166.408 192.634 169.429C195.656 172.451 199.692 174.243 203.959 174.457C208.227 174.671 212.422 173.293 215.731 170.589C219.04 167.886 221.227 164.05 221.868 159.825C222.509 155.6 221.558 151.288 219.199 147.725L224.493 142.431L219.633 137.57ZM215.188 157.188C215.188 159.228 214.583 161.222 213.45 162.917C212.317 164.613 210.706 165.935 208.822 166.716C206.937 167.496 204.864 167.7 202.864 167.302C200.863 166.905 199.026 165.922 197.583 164.48C196.141 163.038 195.159 161.2 194.761 159.2C194.363 157.2 194.567 155.126 195.348 153.242C196.128 151.357 197.45 149.747 199.146 148.614C200.842 147.48 202.836 146.876 204.875 146.876C206.407 146.882 207.917 147.234 209.293 147.907L199.008 158.192L203.868 163.052L214.157 152.771C214.829 154.147 215.182 155.657 215.188 157.188Z" fill="#4A051C"/>
<path d="M228.938 146.875H242.688V153.75H228.938V146.875Z" fill="#4A051C"/>
<path d="M228.938 160.625H242.688V167.5H228.938V160.625Z" fill="#4A051C"/>
</svg>
