<svg width="96" height="96" viewBox="0 0 96 96" fill="none" xmlns="http://www.w3.org/2000/svg">
<path fill-rule="evenodd" clip-rule="evenodd" d="M1.87646 5.81396H61.9775V90.1033H1.87646V5.81396Z" fill="#FFCF00"/>
<path fill-rule="evenodd" clip-rule="evenodd" d="M12.2402 16.1777H28.0364V31.9739H12.2402V16.1777Z" fill="#E4E4E2"/>
<path fill-rule="evenodd" clip-rule="evenodd" d="M88.0048 33.5471C96.1633 41.7055 96.1633 54.9345 88.0048 63.093C83.9282 67.1747 78.5815 69.2101 73.2348 69.2101C67.8881 69.2101 62.5414 67.1747 58.4589 63.093C50.3005 54.9345 50.3005 41.7055 58.4589 33.5471C66.6181 25.3886 79.8464 25.3886 88.0048 33.5471V33.5471Z" fill="#06BCC1"/>
<path fill-rule="evenodd" clip-rule="evenodd" d="M12.2402 33.8501H28.0364C29.0728 33.8501 29.9128 33.01 29.9128 31.9736V16.1775C29.9128 15.1418 29.0728 14.3018 28.0364 14.3018H12.2402C11.2046 14.3018 10.3645 15.1418 10.3645 16.1775V31.9736C10.3638 33.01 11.2039 33.8501 12.2402 33.8501ZM14.1167 18.054H26.1599V30.0972H14.1167V18.054Z" fill="#4A051C"/>
<path fill-rule="evenodd" clip-rule="evenodd" d="M12.2402 41.7483H46.1074C47.1438 41.7483 47.9832 40.9082 47.9832 39.8726C47.9832 38.8362 47.1438 37.9961 46.1074 37.9961H12.2402C11.2046 37.9961 10.3645 38.8362 10.3645 39.8726C10.3638 40.9082 11.2039 41.7483 12.2402 41.7483Z" fill="#4A051C"/>
<path fill-rule="evenodd" clip-rule="evenodd" d="M12.2402 49.6458H44.3372C45.3735 49.6458 46.2136 48.8064 46.2136 47.77C46.2136 46.7336 45.3735 45.8936 44.3372 45.8936H12.2402C11.2046 45.8936 10.3645 46.7336 10.3645 47.77C10.3638 48.8064 11.2039 49.6458 12.2402 49.6458Z" fill="#4A051C"/>
<path fill-rule="evenodd" clip-rule="evenodd" d="M35.2332 33.8503H49.8545C50.8901 33.8503 51.7302 33.0103 51.7302 31.9739C51.7302 30.9382 50.8909 30.0981 49.8545 30.0981H35.2332C34.1968 30.0981 33.3567 30.9382 33.3567 31.9739C33.3567 33.0103 34.1968 33.8503 35.2332 33.8503Z" fill="#4A051C"/>
<path fill-rule="evenodd" clip-rule="evenodd" d="M35.2332 18.054H52.6604C53.6968 18.054 54.5369 17.2139 54.5369 16.1775C54.5369 15.1418 53.6968 14.3018 52.6604 14.3018H35.2332C34.1968 14.3018 33.3567 15.1418 33.3567 16.1775C33.3567 17.2139 34.1968 18.054 35.2332 18.054V18.054Z" fill="#4A051C"/>
<path fill-rule="evenodd" clip-rule="evenodd" d="M35.2332 25.9519H52.6604C53.6968 25.9519 54.5369 25.1118 54.5369 24.0762C54.5369 23.0398 53.6968 22.1997 52.6604 22.1997H35.2332C34.1968 22.1997 33.3567 23.0398 33.3567 24.0762C33.3567 25.1118 34.1968 25.9519 35.2332 25.9519V25.9519Z" fill="#4A051C"/>
<path fill-rule="evenodd" clip-rule="evenodd" d="M52.6604 77.4912H12.2402C11.2046 77.4912 10.3645 78.3313 10.3645 79.3677C10.3645 80.4033 11.2046 81.2434 12.2402 81.2434H52.6604C53.6968 81.2434 54.5369 80.4033 54.5369 79.3677C54.5369 78.3313 53.6968 77.4912 52.6604 77.4912Z" fill="#4A051C"/>
<path fill-rule="evenodd" clip-rule="evenodd" d="M10.3638 71.469C10.3638 72.5054 11.2039 73.3455 12.2402 73.3455H52.6604C53.6968 73.3455 54.5361 72.5054 54.5361 71.469C54.5361 70.4333 53.6968 69.5933 52.6604 69.5933H12.2402C11.2039 69.5933 10.3638 70.4333 10.3638 71.469V71.469Z" fill="#4A051C"/>
<path fill-rule="evenodd" clip-rule="evenodd" d="M12.2402 65.4475H49.4553C50.4917 65.4475 51.3318 64.6074 51.3318 63.571C51.3318 62.5354 50.4917 61.6953 49.4553 61.6953H12.2402C11.2046 61.6953 10.3645 62.5354 10.3645 63.571C10.3638 64.6074 11.2039 65.4475 12.2402 65.4475V65.4475Z" fill="#4A051C"/>
<path fill-rule="evenodd" clip-rule="evenodd" d="M12.2402 57.5442H45.6606C46.697 57.5442 47.5371 56.7041 47.5371 55.6677C47.5371 54.6321 46.697 53.792 45.6606 53.792H12.2402C11.2046 53.792 10.3645 54.6321 10.3645 55.6677C10.3645 56.7041 11.2039 57.5442 12.2402 57.5442Z" fill="#4A051C"/>
<path fill-rule="evenodd" clip-rule="evenodd" d="M96 48.3201C96 42.238 93.6313 36.5208 89.3313 32.2207C85.0312 27.9199 79.314 25.552 73.2319 25.552C69.9441 25.552 66.7625 26.2456 63.854 27.561V5.81396C63.854 4.77759 63.0139 3.9375 61.9775 3.9375H1.87646C0.840088 3.9375 0 4.77759 0 5.81396V90.1033C0 91.1396 0.840088 91.9797 1.87646 91.9797H61.9775C63.0139 91.9797 63.854 91.1396 63.854 90.1033V69.0776C66.2058 70.1418 68.7371 70.7974 71.3584 71.0098V90.1033C71.3584 91.1396 72.1985 91.9797 73.2349 91.9797C74.2705 91.9797 75.1106 91.1396 75.1106 90.1033V71.0098C80.4888 70.5747 85.4824 68.2742 89.3313 64.4194C93.6321 60.1194 96 54.4021 96 48.3201ZM73.2349 67.3345C69.5691 67.3345 66.0623 66.3054 63.0454 64.3843C63.0256 64.3704 63.0051 64.3579 62.9846 64.3447C61.842 63.6108 60.769 62.7495 59.7861 61.7666C57.8599 59.8403 56.3979 57.5764 55.4421 55.0386C55.0767 54.0688 53.9941 53.5789 53.0251 53.9443C52.0554 54.3098 51.5654 55.3916 51.9309 56.3613C53.0764 59.4023 54.8262 62.1138 57.1326 64.4194C58.0598 65.3467 59.053 66.1838 60.1011 66.9265V88.2275H3.7522V7.6897H60.1018V29.7136C59.053 30.4563 58.0598 31.2935 57.1326 32.2207C54.8262 34.5264 53.0764 37.2378 51.9309 40.2788C51.5654 41.2485 52.0554 42.3311 53.0251 42.6958C53.9956 43.0613 55.0767 42.5713 55.4421 41.6016C56.3987 39.0637 57.8599 36.7998 59.7861 34.8743C67.2004 27.4592 79.2642 27.46 86.6785 34.8743C90.2703 38.4653 92.2478 43.2407 92.2478 48.3201C92.2478 53.3994 90.2703 58.1748 86.6777 61.7673C83.0925 65.3569 78.3179 67.3345 73.2349 67.3345V67.3345Z" fill="#4A051C"/>
<path fill-rule="evenodd" clip-rule="evenodd" d="M52.3418 46.4463C51.3105 46.4463 50.4653 47.2864 50.4653 48.3228C50.4653 49.3533 51.3105 50.1934 52.3418 50.1934C53.373 50.1934 54.2175 49.3533 54.2175 48.3228C54.2175 47.2856 53.373 46.4463 52.3418 46.4463Z" fill="#4A051C"/>
</svg>
