<svg width="483" height="444" viewBox="0 0 483 444" fill="none" xmlns="http://www.w3.org/2000/svg">
<path d="M141.15 355.069C94.1143 323.607 33.6429 301.228 19.1418 246.493C4.05316 189.541 32.3314 129.866 69.3486 84.0548C103.693 41.5512 155.273 20.0084 209.188 11.2968C261.793 2.79678 314.532 10.5186 360.81 36.96C412.005 66.211 466.391 104.801 475.004 163.174C483.487 220.671 435.961 267.078 401.685 313.991C368.821 358.973 339.459 415.297 284.465 423.968C230.043 432.548 186.956 385.709 141.15 355.069Z" fill="#FFCF00"/>
<path d="M355.597 66.4093C400.49 96.2869 458.206 117.539 472.047 169.517C486.448 223.601 459.458 280.271 424.127 323.775C391.348 364.138 342.117 384.596 290.658 392.869C240.449 400.941 190.113 393.608 145.943 368.498C97.0797 340.72 45.1713 304.074 36.9508 248.641C28.8536 194.039 74.2151 149.969 106.929 105.418C138.296 62.702 166.321 9.21445 218.81 0.980373C270.753 -7.16796 311.877 37.3124 355.597 66.4093Z" fill="#06BCC1"/>
<path d="M350.552 370.467C361.524 363.143 373.193 356.289 384.858 349.438C386.307 348.587 387.756 347.736 389.203 346.884C402.311 339.17 415.308 331.383 427.237 322.84C451.095 305.753 470.624 285.683 478.177 257.232C493.923 197.92 464.421 135.694 425.669 87.8347C389.791 43.5246 335.884 21.0381 279.466 11.9407C224.45 3.06952 169.312 11.1302 120.935 38.7139C94.1264 53.9997 66.5159 71.7075 44.4842 93.2013C22.4555 114.692 6.02919 139.943 1.53831 170.317C-2.88141 200.21 7.28086 227.247 23.0786 252.977C33.3765 269.749 46.0316 285.912 58.5761 301.934C65.2972 310.519 71.9866 319.063 78.2647 327.638C83.867 335.29 89.3641 343.243 94.8904 351.239C106.381 367.864 117.998 384.671 130.948 399.333C150.109 421.026 172.107 437.919 200.754 442.427C229.091 446.885 254.505 436.954 278.874 421.854C291.059 414.305 302.966 405.473 314.839 396.516C316.17 395.512 317.501 394.506 318.832 393.5C329.363 385.541 339.887 377.586 350.552 370.467Z" fill="#FFF7F2" stroke="white"/>
<path fill-rule="evenodd" clip-rule="evenodd" d="M147.3 106.324H285.032V299.487H147.3V106.324Z" fill="#FFCF00"/>
<path fill-rule="evenodd" clip-rule="evenodd" d="M171.051 130.074H207.25V166.274H171.051V130.074Z" fill="#E4E4E2"/>
<path fill-rule="evenodd" clip-rule="evenodd" d="M344.677 169.879C363.374 188.576 363.374 218.892 344.677 237.589C335.335 246.943 323.082 251.607 310.83 251.607C298.577 251.607 286.324 246.943 276.968 237.589C258.272 218.892 258.272 188.576 276.968 169.879C295.666 151.183 325.981 151.183 344.677 169.879Z" fill="#06BCC1"/>
<path fill-rule="evenodd" clip-rule="evenodd" d="M171.051 170.574H207.25C209.625 170.574 211.55 168.649 211.55 166.274V130.074C211.55 127.701 209.625 125.776 207.25 125.776H171.051C168.677 125.776 166.752 127.701 166.752 130.074V166.274C166.75 168.649 168.675 170.574 171.051 170.574ZM175.351 134.375H202.95V161.974H175.351V134.375Z" fill="#4A051C"/>
<path fill-rule="evenodd" clip-rule="evenodd" d="M171.051 188.673H248.663C251.038 188.673 252.961 186.748 252.961 184.374C252.961 181.999 251.038 180.074 248.663 180.074H171.051C168.677 180.074 166.752 181.999 166.752 184.374C166.75 186.748 168.675 188.673 171.051 188.673Z" fill="#4A051C"/>
<path fill-rule="evenodd" clip-rule="evenodd" d="M171.051 206.772H244.606C246.981 206.772 248.906 204.849 248.906 202.474C248.906 200.099 246.981 198.173 244.606 198.173H171.051C168.677 198.173 166.752 200.099 166.752 202.474C166.75 204.849 168.675 206.772 171.051 206.772Z" fill="#4A051C"/>
<path fill-rule="evenodd" clip-rule="evenodd" d="M223.743 170.574H257.25C259.624 170.574 261.549 168.649 261.549 166.274C261.549 163.901 259.625 161.976 257.25 161.976H223.743C221.368 161.976 219.443 163.901 219.443 166.274C219.443 168.649 221.368 170.574 223.743 170.574Z" fill="#4A051C"/>
<path fill-rule="evenodd" clip-rule="evenodd" d="M223.743 134.375H263.681C266.056 134.375 267.981 132.449 267.981 130.074C267.981 127.701 266.056 125.776 263.681 125.776H223.743C221.368 125.776 219.443 127.701 219.443 130.074C219.443 132.449 221.368 134.375 223.743 134.375Z" fill="#4A051C"/>
<path fill-rule="evenodd" clip-rule="evenodd" d="M223.743 152.473H263.681C266.056 152.473 267.981 150.548 267.981 148.175C267.981 145.8 266.056 143.875 263.681 143.875H223.743C221.368 143.875 219.443 145.8 219.443 148.175C219.443 150.548 221.368 152.473 223.743 152.473Z" fill="#4A051C"/>
<path fill-rule="evenodd" clip-rule="evenodd" d="M263.68 270.583H171.051C168.677 270.583 166.752 272.509 166.752 274.884C166.752 277.257 168.677 279.182 171.051 279.182H263.68C266.055 279.182 267.98 277.257 267.98 274.884C267.98 272.509 266.055 270.583 263.68 270.583Z" fill="#4A051C"/>
<path fill-rule="evenodd" clip-rule="evenodd" d="M166.75 256.783C166.75 259.158 168.675 261.083 171.05 261.083H263.68C266.055 261.083 267.978 259.158 267.978 256.783C267.978 254.41 266.055 252.484 263.68 252.484H171.05C168.675 252.484 166.75 254.41 166.75 256.783Z" fill="#4A051C"/>
<path fill-rule="evenodd" clip-rule="evenodd" d="M171.051 242.985H256.335C258.71 242.985 260.635 241.059 260.635 238.684C260.635 236.311 258.71 234.386 256.335 234.386H171.051C168.677 234.386 166.752 236.311 166.752 238.684C166.75 241.059 168.675 242.985 171.051 242.985Z" fill="#4A051C"/>
<path fill-rule="evenodd" clip-rule="evenodd" d="M171.051 224.872H247.639C250.014 224.872 251.939 222.947 251.939 220.571C251.939 218.198 250.014 216.273 247.639 216.273H171.051C168.677 216.273 166.752 218.198 166.752 220.571C166.752 222.947 168.675 224.872 171.051 224.872Z" fill="#4A051C"/>
<path fill-rule="evenodd" clip-rule="evenodd" d="M363 203.733C363 189.796 357.572 176.693 347.718 166.839C337.863 156.983 324.761 151.557 310.823 151.557C303.289 151.557 295.997 153.146 289.332 156.161V106.324C289.332 103.949 287.407 102.023 285.032 102.023H147.3C144.925 102.023 143 103.949 143 106.324V299.487C143 301.862 144.925 303.787 147.3 303.787H285.032C287.407 303.787 289.332 301.862 289.332 299.487V251.303C294.722 253.742 300.522 255.244 306.53 255.731V299.487C306.53 301.862 308.455 303.787 310.83 303.787C313.203 303.787 315.128 301.862 315.128 299.487V255.731C327.453 254.734 338.897 249.462 347.718 240.628C357.574 230.774 363 217.671 363 203.733ZM310.83 247.308C302.429 247.308 294.393 244.95 287.479 240.547C287.434 240.515 287.387 240.487 287.34 240.457C284.721 238.775 282.262 236.801 280.01 234.548C275.596 230.134 272.245 224.946 270.055 219.13C269.217 216.908 266.737 215.785 264.516 216.622C262.294 217.46 261.171 219.939 262.008 222.161C264.633 229.13 268.643 235.344 273.929 240.628C276.054 242.753 278.33 244.671 280.732 246.373V295.188H151.599V110.622H280.733V161.094C278.33 162.796 276.054 164.714 273.929 166.839C268.643 172.123 264.633 178.337 262.008 185.306C261.171 187.528 262.294 190.009 264.516 190.845C266.74 191.682 269.217 190.559 270.055 188.337C272.247 182.521 275.596 177.333 280.01 172.92C297.001 155.927 324.647 155.929 341.638 172.92C349.869 181.15 354.401 192.093 354.401 203.733C354.401 215.374 349.869 226.317 341.636 234.55C333.42 242.776 322.478 247.308 310.83 247.308Z" fill="#4A051C"/>
<path fill-rule="evenodd" clip-rule="evenodd" d="M262.95 199.44C260.587 199.44 258.65 201.365 258.65 203.74C258.65 206.102 260.587 208.027 262.95 208.027C265.313 208.027 267.249 206.102 267.249 203.74C267.249 201.363 265.313 199.44 262.95 199.44Z" fill="#4A051C"/>
</svg>
