<svg width="269" height="216" viewBox="0 0 269 216" fill="none" xmlns="http://www.w3.org/2000/svg">
<path opacity="0.5" d="M63.2182 215.985C46.901 215.985 34.1657 211.906 25.0121 203.747C15.8586 195.588 9.49091 183.549 5.90909 167.63C2.32727 151.711 0.536365 132.011 0.536365 108.53C0.536365 84.8505 2.32727 65.051 5.90909 49.1318C9.49091 33.2126 15.8586 21.1737 25.0121 13.0151C34.1657 4.85655 46.901 0.777255 63.2182 0.777255C79.5354 0.777255 92.1712 4.85655 101.126 13.0151C110.08 21.1737 116.348 33.2126 119.93 49.1318C123.711 65.051 125.602 84.8505 125.602 108.53C125.602 132.011 123.711 151.711 119.93 167.63C116.348 183.549 110.08 195.588 101.126 203.747C92.1712 211.906 79.5354 215.985 63.2182 215.985ZM63.2182 181.958C69.9838 181.958 75.2571 179.868 79.0379 175.689C83.0177 171.312 85.8035 163.849 87.3955 153.303C89.1864 142.558 90.0818 127.633 90.0818 108.53C90.0818 89.4273 89.1864 74.503 87.3955 63.7576C85.8035 53.0121 83.0177 45.55 79.0379 41.3712C75.2571 36.9934 69.9838 34.8045 63.2182 34.8045C56.4525 34.8045 51.0798 36.9934 47.1 41.3712C43.1202 45.55 40.2349 53.0121 38.4439 63.7576C36.852 74.503 36.0561 89.4273 36.0561 108.53C36.0561 127.633 36.852 142.558 38.4439 153.303C40.2349 163.849 43.1202 171.312 47.1 175.689C51.0798 179.868 56.4525 181.958 63.2182 181.958ZM202.597 215.985C188.269 215.985 175.932 212.304 165.585 204.941C155.237 197.578 147.675 186.534 142.9 171.809L175.733 161.064C176.529 163.054 177.822 165.74 179.613 169.123C181.404 172.307 184.091 175.291 187.672 178.077C191.254 180.664 195.93 181.958 201.701 181.958C210.855 181.958 218.118 179.769 223.491 175.391C229.062 171.013 231.848 163.253 231.848 152.109C231.848 142.359 229.162 134.598 223.789 128.827C218.615 122.858 210.855 119.873 200.507 119.873H184.091V87.3379H200.507C209.86 87.3379 216.526 84.6515 220.506 79.2788C224.685 73.906 226.774 67.2399 226.774 59.2803C226.774 49.9278 224.187 43.5601 219.013 40.1772C213.84 36.5954 208.069 34.8045 201.701 34.8045C196.925 34.8045 192.846 36.1975 189.463 38.9833C186.279 41.7692 183.693 44.8535 181.703 48.2363C179.912 51.6192 178.618 54.3055 177.822 56.2954L145.586 43.1621C150.76 29.8298 158.321 19.4823 168.271 12.1197C178.419 4.55806 189.861 0.777255 202.597 0.777255C214.934 0.777255 225.679 3.16513 234.833 7.94089C243.987 12.7166 251.15 19.3828 256.324 27.9394C261.498 36.4959 264.085 46.4454 264.085 57.7879C264.085 67.9364 261.398 77.0899 256.025 85.2485C250.653 93.2081 243.887 99.0783 235.728 102.859C245.479 106.64 253.439 113.107 259.607 122.261C265.776 131.414 268.86 141.861 268.86 153.602C268.86 172.904 262.891 188.126 250.951 199.27C239.211 210.413 223.093 215.985 202.597 215.985Z" fill="#FEEFE5"/>
</svg>
