<svg width="96" height="96" viewBox="0 0 96 96" fill="none" xmlns="http://www.w3.org/2000/svg">
<path d="M63.0001 13.5V67.5C63.0001 69.8869 62.0519 72.1761 60.3641 73.864C58.6763 75.5518 56.3871 76.5 54.0001 76.5H24.0001C22.4197 76.499 20.8673 76.0828 19.4984 75.2931C18.1294 74.5033 16.9921 73.3677 16.2001 72V71.985C15.4108 70.6223 14.9967 69.0748 15.0001 67.5V13.5C15.0001 11.1131 15.9484 8.82387 17.6362 7.13604C19.324 5.44821 21.6132 4.5 24.0001 4.5H54.0001C56.2694 4.50117 58.4545 5.35957 60.1179 6.90329C61.7812 8.44701 62.7999 10.5621 62.9701 12.825C62.9851 13.05 63.0001 13.275 63.0001 13.5V13.5Z" fill="#06BCC1"/>
<path d="M63.0001 16.875V58.11C60.5882 57.0644 58.3795 55.6021 56.4751 53.79L45.9301 55.755L51.3901 46.515C50.205 43.8067 49.5652 40.8913 49.5073 37.9356C49.4495 34.9799 49.9747 32.0418 51.0529 29.2891C52.1311 26.5365 53.7412 24.0233 55.7912 21.8932C57.8411 19.7631 60.2908 18.0579 63.0001 16.875V16.875Z" fill="#00A6AB"/>
<path d="M91.1551 38.4C90.1196 44.2753 86.7932 49.4989 81.9073 52.9222C77.0213 56.3454 70.9758 57.6881 65.1001 56.655C64.3917 56.534 63.6906 56.3738 63.0001 56.175C59.4286 55.1953 56.1559 53.3451 53.4751 50.79L42.9301 52.755L48.39 43.515C46.7583 39.7871 46.1685 35.6863 46.6834 31.6497C47.1984 27.613 48.7988 23.7917 51.3142 20.5928C53.8295 17.3939 57.1656 14.9374 60.967 13.4849C64.7683 12.0325 68.8925 11.6385 72.9 12.345C78.7754 13.3804 83.999 16.7068 87.4222 21.5928C90.8455 26.4788 92.1882 32.5243 91.1551 38.4V38.4Z" fill="#FFCF00"/>
<path d="M61.5001 30V48C61.5025 48.7949 61.8193 49.5566 62.3814 50.1187C62.9435 50.6808 63.7052 50.9976 64.5001 51H79.5001C80.295 50.9976 81.0567 50.6808 81.6188 50.1187C82.1809 49.5566 82.4977 48.7949 82.5001 48V30H61.5001Z" fill="#EBBF00"/>
<path d="M79.5001 42V45C79.4977 45.7949 79.1809 46.5566 78.6188 47.1187C78.0567 47.6808 77.295 47.9976 76.5001 48H61.5001C60.7052 47.9976 59.9435 47.6808 59.3814 47.1187C58.8193 46.5566 58.5025 45.7949 58.5001 45V42H79.5001Z" fill="#D1D3D4"/>
<path d="M58.5001 27H79.5001V42H58.5001V27Z" fill="#06BCC1"/>
<path d="M42 64.5C42.7949 64.5024 43.5566 64.8192 44.1187 65.3813C44.6808 65.9434 44.9976 66.7051 45 67.5C44.9941 68.2938 44.6762 69.0535 44.1148 69.6148C43.5535 70.1761 42.7938 70.4941 42 70.5H36C35.2051 70.4976 34.4434 70.1808 33.8813 69.6187C33.3192 69.0566 33.0024 68.2949 33 67.5C33.0059 66.7062 33.3238 65.9465 33.8852 65.3852C34.4465 64.8239 35.2062 64.5059 36 64.5H42Z" fill="#E6E7E8"/>
<path d="M34.35 65.5648C34.3501 66.3543 34.1432 67.1301 33.75 67.8148L33.255 68.6848C33.0861 68.3126 32.9991 67.9085 33 67.4998C32.9979 67.1059 33.0752 66.7156 33.2273 66.3522C33.3793 65.9888 33.603 65.6598 33.885 65.3848C34.0192 65.2477 34.1647 65.1222 34.32 65.0098C34.335 65.1898 34.35 65.3848 34.35 65.5648Z" fill="#E6E7E8"/>
<path d="M34.245 30.255C35.2302 31.2374 35.8441 32.5311 35.9821 33.9155C36.1202 35.2999 35.7738 36.6894 35.002 37.847C34.2303 39.0046 33.0809 39.8586 31.7499 40.2636C30.4189 40.6686 28.9886 40.5995 27.7028 40.0679C26.4171 39.5364 25.3555 38.5753 24.6991 37.3487C24.0426 36.122 23.832 34.7056 24.103 33.341C24.3739 31.9763 25.1098 30.7479 26.1852 29.8652C27.2605 28.9824 28.6088 28.4999 30 28.5C31.591 28.5028 33.1165 29.1335 34.245 30.255V30.255Z" fill="#00A6AB"/>
<path d="M31.245 27.255C32.2302 28.2374 32.8441 29.5311 32.9821 30.9155C33.1202 32.2999 32.7738 33.6894 32.002 34.847C31.2303 36.0046 30.0809 36.8586 28.7499 37.2636C27.4189 37.6686 25.9886 37.5995 24.7028 37.0679C23.4171 36.5364 22.3555 35.5753 21.6991 34.3487C21.0426 33.122 20.832 31.7056 21.103 30.341C21.3739 28.9763 22.1098 27.7479 23.1852 26.8652C24.2605 25.9824 25.6088 25.4999 27 25.5C28.591 25.5028 30.1165 26.1335 31.245 27.255V27.255Z" fill="#FFD422"/>
<path d="M31.3501 62.5648C31.3512 61.5733 31.0248 60.6091 30.4216 59.8222C29.8184 59.0352 28.9722 58.4696 28.0144 58.213C27.0567 57.9565 26.041 58.0234 25.1252 58.4035C24.2094 58.7836 23.4448 59.4555 22.9501 60.3148L16.2001 71.9848C15.4107 70.6221 14.9967 69.0746 15.0001 67.4998V43.5298C14.5027 43.5987 14.0306 43.7914 13.627 44.0902C13.2234 44.3889 12.9013 44.7842 12.6901 45.2398L5.88013 60.0148C4.96882 61.9793 4.49783 64.1192 4.50013 66.2848V92.9998L28.5001 92.9848V86.4748C28.4969 84.8416 28.0511 83.2398 27.2101 81.8398L24.0001 76.4998L30.7501 64.8148C31.1433 64.1301 31.3502 63.3543 31.3501 62.5648V62.5648Z" fill="#FFC477"/>
<path d="M27 9H30V12H27V9Z" fill="#4A051C"/>
<path d="M33 9H45V12H33V9Z" fill="#4A051C"/>
<path d="M61.5001 67.5C61.4977 69.4884 60.7068 71.3947 59.3007 72.8007C57.8947 74.2067 55.9885 74.9976 54.0001 75H26.5981L31.7551 66.069C31.592 66.5287 31.5058 67.0122 31.5001 67.5C31.5001 68.6935 31.9742 69.8381 32.8181 70.682C33.662 71.5259 34.8066 72 36.0001 72H42.0001C43.1935 72 44.3381 71.5259 45.1821 70.682C46.026 69.8381 46.5001 68.6935 46.5001 67.5C46.5001 66.3065 46.026 65.1619 45.1821 64.318C44.3381 63.4741 43.1935 63 42.0001 63H36.0001C35.2859 63.0013 34.5823 63.1731 33.9478 63.5011C33.3133 63.829 32.7662 64.3036 32.3521 64.8855C32.9478 63.4822 32.9855 61.9044 32.4575 60.4742C31.9295 59.044 30.8757 57.8692 29.511 57.1896C28.1464 56.5099 26.5738 56.3767 25.1142 56.817C23.6547 57.2573 22.4182 58.238 21.6571 59.559L16.5571 68.397C16.5201 68.0994 16.501 67.7999 16.5001 67.5V13.5C16.5025 11.5116 17.2934 9.60534 18.6994 8.19933C20.1054 6.79332 22.0117 6.00238 24.0001 6H54.0001C55.316 6.00306 56.6081 6.3509 57.7477 7.00886C58.8872 7.66682 59.8345 8.61192 60.4951 9.75L63.0916 8.25C62.1669 6.65691 60.841 5.3339 59.2458 4.41277C57.6507 3.49164 55.8421 3.00454 54.0001 3H24.0001C21.2163 3.00318 18.5474 4.11044 16.579 6.07889C14.6105 8.04733 13.5032 10.7162 13.5001 13.5V42.45C12.5455 42.8942 11.7769 43.6591 11.3281 44.6115L4.51957 59.382C3.51167 61.5486 2.9929 63.9104 3.00007 66.3V93H6.00007V66.3C5.99338 64.3461 6.41744 62.4148 7.24207 60.6435L13.5001 47.0655V67.5C13.499 69.2916 13.9582 71.0533 14.8336 72.6165C14.9465 72.8694 15.1273 73.0861 15.3558 73.2426C15.5843 73.3991 15.8517 73.4892 16.1284 73.503C16.405 73.5169 16.68 73.4538 16.923 73.3209C17.166 73.188 17.3675 72.9904 17.5051 72.75L24.2551 61.059C24.6557 60.3756 25.3104 59.8784 26.0763 59.6759C26.8422 59.4734 27.6571 59.5821 28.3432 59.9782C29.0292 60.3743 29.5308 61.0257 29.7383 61.7902C29.9459 62.5547 29.8426 63.3703 29.4511 64.059L22.7011 75.75C22.567 75.9821 22.4975 76.2458 22.4998 76.5138C22.5022 76.7819 22.5764 77.0443 22.7146 77.274L25.9276 82.614C26.6284 83.7822 26.9991 85.1187 27.0001 86.481V92.985H30.0001V86.481C29.9998 84.5744 29.4814 82.7037 28.5001 81.069L26.6536 78H54.0001C56.7839 77.9968 59.4527 76.8896 61.4212 74.9211C63.3896 72.9527 64.4969 70.2838 64.5001 67.5V60H61.5001V67.5ZM36.0001 66H42.0001C42.3979 66 42.7794 66.158 43.0607 66.4393C43.342 66.7206 43.5001 67.1022 43.5001 67.5C43.5001 67.8978 43.342 68.2794 43.0607 68.5607C42.7794 68.842 42.3979 69 42.0001 69H36.0001C35.6022 69 35.2207 68.842 34.9394 68.5607C34.6581 68.2794 34.5001 67.8978 34.5001 67.5C34.5001 67.1022 34.6581 66.7206 34.9394 66.4393C35.2207 66.158 35.6022 66 36.0001 66Z" fill="#4A051C"/>
<path d="M88.6651 20.7301C85.2916 15.9014 80.2602 12.482 74.5288 11.1228C68.7973 9.76362 62.7662 10.5597 57.5837 13.3594C52.4012 16.1591 48.4293 20.7669 46.4242 26.3055C44.4191 31.8441 44.5209 37.9267 46.7101 43.3951L41.6401 51.9901C41.4939 52.2375 41.4218 52.5217 41.4324 52.8089C41.4431 53.0961 41.536 53.3742 41.7001 53.6101C41.8685 53.8455 42.1003 54.0283 42.3685 54.1372C42.6367 54.2461 42.9303 54.2766 43.2151 54.2251L53.0101 52.3951C56.3361 55.3767 60.4308 57.3668 64.8301 58.1401C66.2125 58.3778 67.6125 58.4982 69.0151 58.5001C73.4055 58.4989 77.7115 57.2933 81.4643 55.0147C85.2172 52.7361 88.2731 49.4717 90.2994 45.5768C92.3257 41.682 93.2448 37.3059 92.9566 32.9249C92.6685 28.544 91.1841 24.326 88.6651 20.7301V20.7301ZM89.6851 38.1451C89.0254 41.887 87.3628 45.3798 84.8745 48.2513C82.3862 51.1228 79.1655 53.2654 75.5555 54.4508C71.9455 55.6362 68.0815 55.8199 64.3753 54.9824C60.6692 54.1449 57.2596 52.3176 54.5101 49.6951C54.2288 49.434 53.8589 49.2893 53.4751 49.2901C53.3849 49.2876 53.2946 49.2926 53.2051 49.3051L45.9001 50.6701L49.6801 44.2801C49.7976 44.0743 49.8668 43.8445 49.8824 43.608C49.898 43.3715 49.8596 43.1346 49.7701 42.9151C48.0971 39.1291 47.5905 34.9304 48.3151 30.8551C49.2818 25.3691 52.3883 20.4918 56.951 17.2962C59.2103 15.7139 61.7591 14.5921 64.4519 13.9948C67.1447 13.3975 69.9287 13.3364 72.6451 13.8151C75.3615 14.2938 77.957 15.3028 80.2835 16.7845C82.6099 18.2663 84.6217 20.1918 86.204 22.451C87.7863 24.7103 88.9082 27.259 89.5054 29.9518C90.1027 32.6446 90.1638 35.4287 89.6851 38.1451Z" fill="#4A051C"/>
<path d="M79.5001 25.5H75.0001V24C75.0001 22.4087 74.368 20.8826 73.2428 19.7574C72.1175 18.6321 70.5914 18 69.0001 18C67.4088 18 65.8827 18.6321 64.7575 19.7574C63.6323 20.8826 63.0001 22.4087 63.0001 24V25.5H58.5001C58.1023 25.5 57.7208 25.658 57.4395 25.9393C57.1582 26.2206 57.0001 26.6022 57.0001 27V45C57.0037 46.1924 57.4789 47.3349 58.3221 48.178C59.1652 49.0212 60.3077 49.4964 61.5001 49.5H76.5001C77.6925 49.4964 78.835 49.0212 79.6782 48.178C80.5213 47.3349 80.9966 46.1924 81.0001 45V27C81.0001 26.6022 80.8421 26.2206 80.5608 25.9393C80.2795 25.658 79.8979 25.5 79.5001 25.5ZM66.0001 24C66.0001 23.2044 66.3162 22.4413 66.8788 21.8787C67.4414 21.3161 68.2045 21 69.0001 21C69.7958 21 70.5588 21.3161 71.1214 21.8787C71.6841 22.4413 72.0001 23.2044 72.0001 24V25.5H66.0001V24ZM78.0001 45C78.0001 45.3978 77.8421 45.7794 77.5608 46.0607C77.2795 46.342 76.8979 46.5 76.5001 46.5H61.5001C61.1023 46.5 60.7208 46.342 60.4395 46.0607C60.1582 45.7794 60.0001 45.3978 60.0001 45V43.5H78.0001V45ZM78.0001 40.5H60.0001V28.5H63.0001V31.5H66.0001V28.5H72.0001V31.5H75.0001V28.5H78.0001V40.5Z" fill="#4A051C"/>
<path d="M33.4396 22.9395L31.1296 25.2495C29.5748 24.2203 27.6931 23.8053 25.8496 24.085C24.006 24.3646 22.3321 25.3189 21.1523 26.7629C19.9726 28.2068 19.3712 30.0374 19.4647 31.8997C19.5582 33.7619 20.34 35.5231 21.6585 36.8416C22.977 38.1601 24.7381 38.9419 26.6004 39.0354C28.4627 39.1289 30.2933 38.5275 31.7372 37.3477C33.1812 36.168 34.1355 34.494 34.4151 32.6505C34.6948 30.807 34.2798 28.9253 33.2506 27.3705L35.5606 25.0605L33.4396 22.9395ZM31.5001 31.4999C31.5001 32.39 31.2362 33.26 30.7417 34C30.2473 34.74 29.5445 35.3168 28.7222 35.6574C27.8999 35.998 26.9951 36.0871 26.1222 35.9135C25.2493 35.7398 24.4475 35.3113 23.8181 34.6819C23.1888 34.0526 22.7602 33.2508 22.5866 32.3779C22.413 31.5049 22.5021 30.6001 22.8427 29.7779C23.1833 28.9556 23.76 28.2528 24.5001 27.7583C25.2401 27.2639 26.1101 27 27.0001 27C27.6684 27.0025 28.3273 27.1564 28.9276 27.4499L24.4396 31.9379L26.5606 34.0589L31.0501 29.5725C31.3437 30.1727 31.4975 30.8317 31.5001 31.4999V31.4999Z" fill="#4A051C"/>
<path d="M37.5 27H43.5V30H37.5V27Z" fill="#4A051C"/>
<path d="M37.5 33H43.5V36H37.5V33Z" fill="#4A051C"/>
</svg>
