<svg width="1920" height="241" viewBox="0 0 1920 241" fill="none" xmlns="http://www.w3.org/2000/svg">
<g opacity="0.5">
<mask id="path-1-inside-1_166_1669" fill="white">
<path d="M492.085 222.611C480.543 222.611 469.4 220.72 458.655 216.939C448.108 212.96 438.557 206.492 430 197.538L452.983 172.167C464.326 184.106 478.056 190.076 494.174 190.076C501.736 190.076 507.009 189.18 509.994 187.389C512.979 185.4 514.471 181.818 514.471 176.644C514.471 174.455 513.675 172.565 512.083 170.973C510.69 169.182 507.606 167.59 502.83 166.197C498.254 164.605 491.289 162.914 481.936 161.123C467.41 158.337 456.167 153.561 448.208 146.795C440.447 140.03 436.567 129.881 436.567 116.35C436.567 107.395 438.955 99.6349 443.73 93.0682C448.506 86.3025 454.973 81.1288 463.132 77.547C471.489 73.7662 480.842 71.8758 491.189 71.8758C513.874 71.8758 532.181 78.2434 546.111 90.9788L525.515 117.842C520.739 113.266 515.367 109.982 509.397 107.992C503.626 105.804 497.756 104.709 491.786 104.709C485.22 104.709 480.742 105.804 478.355 107.992C475.967 109.982 474.773 112.37 474.773 115.156C474.773 117.146 475.37 118.937 476.564 120.529C477.758 122.121 480.344 123.713 484.324 125.305C488.304 126.697 494.473 128.389 502.83 130.379C519.346 134.16 531.783 139.93 540.141 147.691C548.697 155.253 552.976 165.401 552.976 178.136C552.976 193.061 547.205 204.204 535.664 211.567C524.321 218.929 509.795 222.611 492.085 222.611ZM641.302 222.909C620.209 222.909 603.096 216.74 589.962 204.403C576.829 191.867 570.262 172.963 570.262 147.691C570.262 131.971 573.148 118.539 578.918 107.395C584.888 96.053 593.047 87.397 603.394 81.4273C613.742 75.2586 625.681 72.1743 639.212 72.1743C652.744 72.1743 664.185 75.4576 673.538 82.0243C683.09 88.3919 690.353 97.247 695.327 108.589C700.302 119.932 702.79 132.966 702.79 147.691V155.75H607.274C608.269 169.082 611.851 178.236 618.02 183.211C624.387 187.986 632.347 190.374 641.899 190.374C650.654 190.374 657.818 188.285 663.39 184.106C668.961 179.927 673.936 173.659 678.314 165.302L705.774 184.703C698.014 198.433 688.761 208.283 678.015 214.253C667.469 220.024 655.231 222.909 641.302 222.909ZM608.767 127.095H665.777C662.196 109.982 653.142 101.426 638.615 101.426C630.656 101.426 624.189 103.416 619.214 107.395C614.239 111.375 610.757 117.942 608.767 127.095ZM732.797 219.626V75.7561H766.525L768.913 95.1576C772.495 88.1929 777.967 82.6212 785.33 78.4424C792.693 74.2636 800.453 72.1743 808.612 72.1743C811.995 72.1743 815.079 72.4727 817.865 73.0697C820.651 73.4677 823.039 73.9652 825.028 74.5621V110.977C822.044 109.982 818.86 109.286 815.477 108.888C812.094 108.291 807.915 107.992 802.941 107.992C793.787 107.992 786.026 110.977 779.659 116.947C773.49 122.718 770.406 131.274 770.406 142.617V219.626H732.797ZM888.848 219.626L834.822 75.7561H873.327L906.757 172.167L940.785 75.7561H977.2L924.965 219.626H888.848ZM1003.99 219.626V75.7561H1041.6V219.626H1003.99ZM1022.49 54.2652C1016.12 54.2652 1010.65 51.9768 1006.08 47.4C1001.7 42.8232 999.509 37.351 999.509 30.9833C999.509 24.6157 1001.7 19.2429 1006.08 14.8652C1010.65 10.2884 1016.12 8 1022.49 8C1028.86 8 1034.23 10.2884 1038.61 14.8652C1043.19 19.2429 1045.48 24.6157 1045.48 30.9833C1045.48 37.351 1043.19 42.8232 1038.61 47.4C1034.23 51.9768 1028.86 54.2652 1022.49 54.2652ZM1142.64 222.909C1129.31 222.909 1117.27 219.825 1106.53 213.656C1095.98 207.487 1087.62 198.732 1081.45 187.389C1075.48 176.047 1072.5 162.814 1072.5 147.691C1072.5 132.369 1075.48 119.136 1081.45 107.992C1087.62 96.65 1095.98 87.8945 1106.53 81.7258C1117.27 75.3581 1129.31 72.1743 1142.64 72.1743C1154.78 72.1743 1165.72 74.6616 1175.48 79.6364C1185.42 84.6111 1193.48 91.6753 1199.65 100.829L1169.8 122.917C1164.43 111.773 1155.38 106.202 1142.64 106.202C1133.09 106.202 1125.33 109.783 1119.36 116.947C1113.59 123.912 1110.7 134.16 1110.7 147.691C1110.7 161.023 1113.59 171.271 1119.36 178.435C1125.33 185.4 1133.09 188.882 1142.64 188.882C1155.18 188.882 1164.33 183.41 1170.1 172.465L1199.65 194.255C1193.48 203.408 1185.42 210.472 1175.48 215.447C1165.72 220.422 1154.78 222.909 1142.64 222.909ZM1284.62 222.909C1263.53 222.909 1246.41 216.74 1233.28 204.403C1220.15 191.867 1213.58 172.963 1213.58 147.691C1213.58 131.971 1216.46 118.539 1222.23 107.395C1228.2 96.053 1236.36 87.397 1246.71 81.4273C1257.06 75.2586 1269 72.1743 1282.53 72.1743C1296.06 72.1743 1307.5 75.4576 1316.85 82.0243C1326.41 88.3919 1333.67 97.247 1338.64 108.589C1343.62 119.932 1346.11 132.966 1346.11 147.691V155.75H1250.59C1251.59 169.082 1255.17 178.236 1261.34 183.211C1267.7 187.986 1275.66 190.374 1285.22 190.374C1293.97 190.374 1301.13 188.285 1306.71 184.106C1312.28 179.927 1317.25 173.659 1321.63 165.302L1349.09 184.703C1341.33 198.433 1332.08 208.283 1321.33 214.253C1310.79 220.024 1298.55 222.909 1284.62 222.909ZM1252.08 127.095H1309.09C1305.51 109.982 1296.46 101.426 1281.93 101.426C1273.97 101.426 1267.51 103.416 1262.53 107.395C1257.56 111.375 1254.07 117.942 1252.08 127.095ZM1428.35 222.611C1416.81 222.611 1405.66 220.72 1394.92 216.939C1384.37 212.96 1374.82 206.492 1366.26 197.538L1389.25 172.167C1400.59 184.106 1414.32 190.076 1430.44 190.076C1438 190.076 1443.27 189.18 1446.26 187.389C1449.24 185.4 1450.73 181.818 1450.73 176.644C1450.73 174.455 1449.94 172.565 1448.35 170.973C1446.95 169.182 1443.87 167.59 1439.09 166.197C1434.52 164.605 1427.55 162.914 1418.2 161.123C1403.67 158.337 1392.43 153.561 1384.47 146.795C1376.71 140.03 1372.83 129.881 1372.83 116.35C1372.83 107.395 1375.22 99.6349 1379.99 93.0682C1384.77 86.3025 1391.24 81.1288 1399.39 77.547C1407.75 73.7662 1417.1 71.8758 1427.45 71.8758C1450.14 71.8758 1468.44 78.2434 1482.37 90.9788L1461.78 117.842C1457 113.266 1451.63 109.982 1445.66 107.992C1439.89 105.804 1434.02 104.709 1428.05 104.709C1421.48 104.709 1417.01 105.804 1414.62 107.992C1412.23 109.982 1411.04 112.37 1411.04 115.156C1411.04 117.146 1411.63 118.937 1412.83 120.529C1414.02 122.121 1416.61 123.713 1420.59 125.305C1424.57 126.697 1430.74 128.389 1439.09 130.379C1455.61 134.16 1468.05 139.93 1476.4 147.691C1484.96 155.253 1489.24 165.401 1489.24 178.136C1489.24 193.061 1483.47 204.204 1471.93 211.567C1460.58 218.929 1446.06 222.611 1428.35 222.611Z"/>
</mask>
<path d="M492.085 222.611C480.543 222.611 469.4 220.72 458.655 216.939C448.108 212.96 438.557 206.492 430 197.538L452.983 172.167C464.326 184.106 478.056 190.076 494.174 190.076C501.736 190.076 507.009 189.18 509.994 187.389C512.979 185.4 514.471 181.818 514.471 176.644C514.471 174.455 513.675 172.565 512.083 170.973C510.69 169.182 507.606 167.59 502.83 166.197C498.254 164.605 491.289 162.914 481.936 161.123C467.41 158.337 456.167 153.561 448.208 146.795C440.447 140.03 436.567 129.881 436.567 116.35C436.567 107.395 438.955 99.6349 443.73 93.0682C448.506 86.3025 454.973 81.1288 463.132 77.547C471.489 73.7662 480.842 71.8758 491.189 71.8758C513.874 71.8758 532.181 78.2434 546.111 90.9788L525.515 117.842C520.739 113.266 515.367 109.982 509.397 107.992C503.626 105.804 497.756 104.709 491.786 104.709C485.22 104.709 480.742 105.804 478.355 107.992C475.967 109.982 474.773 112.37 474.773 115.156C474.773 117.146 475.37 118.937 476.564 120.529C477.758 122.121 480.344 123.713 484.324 125.305C488.304 126.697 494.473 128.389 502.83 130.379C519.346 134.16 531.783 139.93 540.141 147.691C548.697 155.253 552.976 165.401 552.976 178.136C552.976 193.061 547.205 204.204 535.664 211.567C524.321 218.929 509.795 222.611 492.085 222.611ZM641.302 222.909C620.209 222.909 603.096 216.74 589.962 204.403C576.829 191.867 570.262 172.963 570.262 147.691C570.262 131.971 573.148 118.539 578.918 107.395C584.888 96.053 593.047 87.397 603.394 81.4273C613.742 75.2586 625.681 72.1743 639.212 72.1743C652.744 72.1743 664.185 75.4576 673.538 82.0243C683.09 88.3919 690.353 97.247 695.327 108.589C700.302 119.932 702.79 132.966 702.79 147.691V155.75H607.274C608.269 169.082 611.851 178.236 618.02 183.211C624.387 187.986 632.347 190.374 641.899 190.374C650.654 190.374 657.818 188.285 663.39 184.106C668.961 179.927 673.936 173.659 678.314 165.302L705.774 184.703C698.014 198.433 688.761 208.283 678.015 214.253C667.469 220.024 655.231 222.909 641.302 222.909ZM608.767 127.095H665.777C662.196 109.982 653.142 101.426 638.615 101.426C630.656 101.426 624.189 103.416 619.214 107.395C614.239 111.375 610.757 117.942 608.767 127.095ZM732.797 219.626V75.7561H766.525L768.913 95.1576C772.495 88.1929 777.967 82.6212 785.33 78.4424C792.693 74.2636 800.453 72.1743 808.612 72.1743C811.995 72.1743 815.079 72.4727 817.865 73.0697C820.651 73.4677 823.039 73.9652 825.028 74.5621V110.977C822.044 109.982 818.86 109.286 815.477 108.888C812.094 108.291 807.915 107.992 802.941 107.992C793.787 107.992 786.026 110.977 779.659 116.947C773.49 122.718 770.406 131.274 770.406 142.617V219.626H732.797ZM888.848 219.626L834.822 75.7561H873.327L906.757 172.167L940.785 75.7561H977.2L924.965 219.626H888.848ZM1003.99 219.626V75.7561H1041.6V219.626H1003.99ZM1022.49 54.2652C1016.12 54.2652 1010.65 51.9768 1006.08 47.4C1001.7 42.8232 999.509 37.351 999.509 30.9833C999.509 24.6157 1001.7 19.2429 1006.08 14.8652C1010.65 10.2884 1016.12 8 1022.49 8C1028.86 8 1034.23 10.2884 1038.61 14.8652C1043.19 19.2429 1045.48 24.6157 1045.48 30.9833C1045.48 37.351 1043.19 42.8232 1038.61 47.4C1034.23 51.9768 1028.86 54.2652 1022.49 54.2652ZM1142.64 222.909C1129.31 222.909 1117.27 219.825 1106.53 213.656C1095.98 207.487 1087.62 198.732 1081.45 187.389C1075.48 176.047 1072.5 162.814 1072.5 147.691C1072.5 132.369 1075.48 119.136 1081.45 107.992C1087.62 96.65 1095.98 87.8945 1106.53 81.7258C1117.27 75.3581 1129.31 72.1743 1142.64 72.1743C1154.78 72.1743 1165.72 74.6616 1175.48 79.6364C1185.42 84.6111 1193.48 91.6753 1199.65 100.829L1169.8 122.917C1164.43 111.773 1155.38 106.202 1142.64 106.202C1133.09 106.202 1125.33 109.783 1119.36 116.947C1113.59 123.912 1110.7 134.16 1110.7 147.691C1110.7 161.023 1113.59 171.271 1119.36 178.435C1125.33 185.4 1133.09 188.882 1142.64 188.882C1155.18 188.882 1164.33 183.41 1170.1 172.465L1199.65 194.255C1193.48 203.408 1185.42 210.472 1175.48 215.447C1165.72 220.422 1154.78 222.909 1142.64 222.909ZM1284.62 222.909C1263.53 222.909 1246.41 216.74 1233.28 204.403C1220.15 191.867 1213.58 172.963 1213.58 147.691C1213.58 131.971 1216.46 118.539 1222.23 107.395C1228.2 96.053 1236.36 87.397 1246.71 81.4273C1257.06 75.2586 1269 72.1743 1282.53 72.1743C1296.06 72.1743 1307.5 75.4576 1316.85 82.0243C1326.41 88.3919 1333.67 97.247 1338.64 108.589C1343.62 119.932 1346.11 132.966 1346.11 147.691V155.75H1250.59C1251.59 169.082 1255.17 178.236 1261.34 183.211C1267.7 187.986 1275.66 190.374 1285.22 190.374C1293.97 190.374 1301.13 188.285 1306.71 184.106C1312.28 179.927 1317.25 173.659 1321.63 165.302L1349.09 184.703C1341.33 198.433 1332.08 208.283 1321.33 214.253C1310.79 220.024 1298.55 222.909 1284.62 222.909ZM1252.08 127.095H1309.09C1305.51 109.982 1296.46 101.426 1281.93 101.426C1273.97 101.426 1267.51 103.416 1262.53 107.395C1257.56 111.375 1254.07 117.942 1252.08 127.095ZM1428.35 222.611C1416.81 222.611 1405.66 220.72 1394.92 216.939C1384.37 212.96 1374.82 206.492 1366.26 197.538L1389.25 172.167C1400.59 184.106 1414.32 190.076 1430.44 190.076C1438 190.076 1443.27 189.18 1446.26 187.389C1449.24 185.4 1450.73 181.818 1450.73 176.644C1450.73 174.455 1449.94 172.565 1448.35 170.973C1446.95 169.182 1443.87 167.59 1439.09 166.197C1434.52 164.605 1427.55 162.914 1418.2 161.123C1403.67 158.337 1392.43 153.561 1384.47 146.795C1376.71 140.03 1372.83 129.881 1372.83 116.35C1372.83 107.395 1375.22 99.6349 1379.99 93.0682C1384.77 86.3025 1391.24 81.1288 1399.39 77.547C1407.75 73.7662 1417.1 71.8758 1427.45 71.8758C1450.14 71.8758 1468.44 78.2434 1482.37 90.9788L1461.78 117.842C1457 113.266 1451.63 109.982 1445.66 107.992C1439.89 105.804 1434.02 104.709 1428.05 104.709C1421.48 104.709 1417.01 105.804 1414.62 107.992C1412.23 109.982 1411.04 112.37 1411.04 115.156C1411.04 117.146 1411.63 118.937 1412.83 120.529C1414.02 122.121 1416.61 123.713 1420.59 125.305C1424.57 126.697 1430.74 128.389 1439.09 130.379C1455.61 134.16 1468.05 139.93 1476.4 147.691C1484.96 155.253 1489.24 165.401 1489.24 178.136C1489.24 193.061 1483.47 204.204 1471.93 211.567C1460.58 218.929 1446.06 222.611 1428.35 222.611Z" stroke="#FEEFE5" stroke-width="5.55556" mask="url(#path-1-inside-1_166_1669)"/>
</g>
</svg>
