<svg width="210" height="36" viewBox="0 0 210 36" fill="none" xmlns="http://www.w3.org/2000/svg">
<path d="M49.0194 30.2897C48.1504 30.2897 47.3201 30.1834 46.5284 29.971C45.7559 29.7393 45.0415 29.3917 44.3849 28.9283C43.9021 28.6 43.6415 28.2428 43.6028 27.8566C43.5835 27.451 43.738 27.0648 44.0663 26.6979C44.3946 26.3503 44.7325 26.1862 45.0801 26.2055C45.447 26.2248 45.8718 26.3697 46.3546 26.64C47.127 27.1807 48.0732 27.451 49.1932 27.451C49.9849 27.451 50.5546 27.3448 50.9021 27.1324C51.269 26.9007 51.4525 26.4855 51.4525 25.8869C51.4525 25.5972 51.3656 25.3655 51.1918 25.1917C51.018 24.9986 50.6897 24.8248 50.207 24.6703C49.7435 24.5159 49.058 24.3517 48.1504 24.1779C46.7987 23.9076 45.7173 23.4634 44.9063 22.8455C44.0952 22.2276 43.6897 21.2524 43.6897 19.92C43.6897 19.051 43.9215 18.3076 44.3849 17.6897C44.8484 17.0524 45.4759 16.56 46.2677 16.2124C47.0594 15.8648 47.938 15.691 48.9035 15.691C50.4097 15.691 51.6842 16.0097 52.727 16.6469C53.2484 16.9172 53.538 17.2552 53.5959 17.6607C53.6732 18.0469 53.567 18.4234 53.2773 18.7903C52.9684 19.1766 52.6304 19.3697 52.2635 19.3697C51.9159 19.3697 51.5008 19.2634 51.018 19.051C50.709 18.8772 50.3808 18.7517 50.0332 18.6745C49.7049 18.5972 49.3477 18.5586 48.9615 18.5586C48.247 18.5586 47.7352 18.6841 47.4263 18.9352C47.1366 19.1862 46.9918 19.4855 46.9918 19.8331C46.9918 20.0841 47.0594 20.2966 47.1946 20.4703C47.349 20.6441 47.6387 20.8083 48.0635 20.9628C48.4884 21.1172 49.1063 21.291 49.9173 21.4841C51.4621 21.851 52.6594 22.3821 53.509 23.0772C54.3587 23.7724 54.7835 24.7476 54.7835 26.0028C54.7835 27.4124 54.2428 28.4841 53.1615 29.2179C52.0994 29.9324 50.7187 30.2897 49.0194 30.2897ZM58.1417 30C57.041 30 56.4907 29.4303 56.4907 28.291V11.0566C56.4907 9.91724 57.041 9.34758 58.1417 9.34758C59.2231 9.34758 59.7638 9.91724 59.7638 11.0566V17.7186C60.0727 17.1779 60.5362 16.7145 61.1541 16.3283C61.7721 15.9228 62.5155 15.72 63.3845 15.72C64.8327 15.72 66.0107 16.1834 66.9183 17.1103C67.8452 18.0372 68.3086 19.3986 68.3086 21.1945V28.291C68.3086 29.4303 67.7679 30 66.6865 30C65.5859 30 65.0355 29.4303 65.0355 28.291V21.9766C65.0355 20.8759 64.8134 20.0552 64.3693 19.5145C63.9252 18.9545 63.3265 18.6745 62.5734 18.6745C61.7431 18.6745 61.0672 18.9641 60.5459 19.5434C60.0245 20.1034 59.7638 20.9434 59.7638 22.0634V28.291C59.7638 29.4303 59.2231 30 58.1417 30ZM77.0055 30.3186C75.731 30.3186 74.5821 30.0193 73.5586 29.4207C72.5545 28.8028 71.7531 27.9531 71.1545 26.8717C70.5752 25.771 70.2855 24.4869 70.2855 23.0193C70.2855 21.5517 70.5752 20.2772 71.1545 19.1959C71.7531 18.0952 72.5545 17.2455 73.5586 16.6469C74.5821 16.029 75.731 15.72 77.0055 15.72C78.3186 15.72 79.4772 16.029 80.4814 16.6469C81.5048 17.2455 82.3062 18.0952 82.8855 19.1959C83.4648 20.2772 83.7545 21.5517 83.7545 23.0193C83.7545 24.4869 83.4648 25.771 82.8855 26.8717C82.3062 27.9531 81.5048 28.8028 80.4814 29.4207C79.4772 30.0193 78.3186 30.3186 77.0055 30.3186ZM77.0055 27.3641C78.029 27.3641 78.8593 26.9876 79.4965 26.2345C80.1531 25.4814 80.4814 24.4097 80.4814 23.0193C80.4814 21.629 80.1531 20.5572 79.4965 19.8041C78.8593 19.051 78.029 18.6745 77.0055 18.6745C76.0014 18.6745 75.1807 19.051 74.5434 19.8041C73.9062 20.5572 73.5876 21.629 73.5876 23.0193C73.5876 24.4097 73.9062 25.4814 74.5434 26.2345C75.1807 26.9876 76.0014 27.3641 77.0055 27.3641ZM87.3494 35.7062C86.2487 35.7062 85.6983 35.1366 85.6983 33.9972V17.7766C85.6983 16.6372 86.1811 16.0676 87.1466 16.0676C88.0735 16.0676 88.5659 16.2703 88.6238 16.6759L88.7107 17.6028C89.6956 16.3476 90.9894 15.72 92.5921 15.72C93.8859 15.72 95.0349 16.0097 96.039 16.589C97.0625 17.1683 97.8638 18.0083 98.4432 19.109C99.0225 20.1903 99.3121 21.4938 99.3121 23.0193C99.3121 24.5448 99.0225 25.8579 98.4432 26.9586C97.8638 28.04 97.0625 28.8703 96.039 29.4497C95.0349 30.029 93.8859 30.3186 92.5921 30.3186C91.8776 30.3186 91.2114 30.1834 90.5935 29.9131C89.9756 29.6234 89.4349 29.2276 88.9714 28.7255V33.9972C88.9714 34.5379 88.8266 34.9531 88.5369 35.2428C88.2666 35.5517 87.8707 35.7062 87.3494 35.7062ZM92.4763 27.3641C93.4997 27.3641 94.3494 26.9876 95.0252 26.2345C95.7011 25.4814 96.039 24.4097 96.039 23.0193C96.039 21.629 95.7011 20.5572 95.0252 19.8041C94.3494 19.051 93.4997 18.6745 92.4763 18.6745C91.4528 18.6745 90.6032 19.051 89.9273 19.8041C89.2514 20.5572 88.9135 21.629 88.9135 23.0193C88.9135 24.4097 89.2514 25.4814 89.9273 26.2345C90.6032 26.9876 91.4528 27.3641 92.4763 27.3641Z" fill="#12263A"/>
<path d="M105.84 30.2028C104.334 30.2607 103.089 29.9324 102.104 29.2179C101.138 28.5034 100.656 27.4703 100.656 26.1186C100.656 25.1338 100.955 24.2938 101.554 23.5986C102.152 22.9034 102.925 22.3628 103.871 21.9766C104.817 21.571 105.792 21.3586 106.796 21.3393C107.298 21.3007 107.771 21.3393 108.216 21.4552C108.66 21.571 109.056 21.7352 109.403 21.9476V20.731C109.403 19.8234 109.21 19.2345 108.824 18.9641C108.438 18.6938 107.868 18.5586 107.115 18.5586C106.574 18.5586 106.005 18.6262 105.406 18.7614C104.827 18.8966 104.257 19.08 103.697 19.3117C103.195 19.5241 102.76 19.6014 102.394 19.5434C102.046 19.4855 101.756 19.2538 101.525 18.8483C101.293 18.4428 101.235 18.0566 101.351 17.6897C101.486 17.3034 101.814 17.0041 102.336 16.7917C103.031 16.4634 103.784 16.2028 104.595 16.0097C105.425 15.8166 106.265 15.72 107.115 15.72C108.911 15.72 110.263 16.0869 111.17 16.8207C112.078 17.5352 112.531 18.8386 112.531 20.731V27.1324C112.531 27.3255 112.551 27.48 112.589 27.5959C112.647 27.7117 112.696 27.7986 112.734 27.8566C112.908 28.1076 113.091 28.2524 113.285 28.291C113.497 28.3297 113.68 28.3586 113.835 28.3779C113.989 28.3779 114.067 28.4648 114.067 28.6386C114.067 28.9862 113.97 29.2855 113.777 29.5366C113.603 29.7876 113.304 29.9614 112.879 30.0579C112.435 30.1545 112 30.2028 111.576 30.2028C110.977 30.2028 110.514 30.1062 110.185 29.9131C109.876 29.7007 109.654 29.3531 109.519 28.8703C109.036 29.2759 108.476 29.5945 107.839 29.8262C107.202 30.0386 106.536 30.1641 105.84 30.2028ZM105.783 27.3641C106.864 27.3255 107.752 27.1131 108.447 26.7269C109.162 26.3407 109.5 25.7903 109.461 25.0759C109.442 24.6124 109.2 24.2938 108.737 24.12C108.293 23.9462 107.733 23.8786 107.057 23.9172C106.111 23.9366 105.329 24.1779 104.711 24.6414C104.093 25.0855 103.794 25.5876 103.813 26.1476C103.851 27.0166 104.508 27.4221 105.783 27.3641ZM120.879 30.2897C120.01 30.2897 119.179 30.1834 118.388 29.971C117.615 29.7393 116.901 29.3917 116.244 28.9283C115.762 28.6 115.501 28.2428 115.462 27.8566C115.443 27.451 115.597 27.0648 115.926 26.6979C116.254 26.3503 116.592 26.1862 116.939 26.2055C117.306 26.2248 117.731 26.3697 118.214 26.64C118.986 27.1807 119.933 27.451 121.053 27.451C121.844 27.451 122.414 27.3448 122.762 27.1324C123.128 26.9007 123.312 26.4855 123.312 25.8869C123.312 25.5972 123.225 25.3655 123.051 25.1917C122.877 24.9986 122.549 24.8248 122.066 24.6703C121.603 24.5159 120.917 24.3517 120.01 24.1779C118.658 23.9076 117.577 23.4634 116.766 22.8455C115.955 22.2276 115.549 21.2524 115.549 19.92C115.549 19.051 115.781 18.3076 116.244 17.6897C116.708 17.0524 117.335 16.56 118.127 16.2124C118.919 15.8648 119.797 15.691 120.763 15.691C122.269 15.691 123.544 16.0097 124.586 16.6469C125.108 16.9172 125.397 17.2552 125.455 17.6607C125.533 18.0469 125.426 18.4234 125.137 18.7903C124.828 19.1766 124.49 19.3697 124.123 19.3697C123.775 19.3697 123.36 19.2634 122.877 19.051C122.568 18.8772 122.24 18.7517 121.893 18.6745C121.564 18.5972 121.207 18.5586 120.821 18.5586C120.106 18.5586 119.595 18.6841 119.286 18.9352C118.996 19.1862 118.851 19.4855 118.851 19.8331C118.851 20.0841 118.919 20.2966 119.054 20.4703C119.208 20.6441 119.498 20.8083 119.923 20.9628C120.348 21.1172 120.966 21.291 121.777 21.4841C123.322 21.851 124.519 22.3821 125.368 23.0772C126.218 23.7724 126.643 24.7476 126.643 26.0028C126.643 27.4124 126.102 28.4841 125.021 29.2179C123.959 29.9324 122.578 30.2897 120.879 30.2897ZM133.361 30.2897C132.492 30.2897 131.662 30.1834 130.87 29.971C130.098 29.7393 129.383 29.3917 128.727 28.9283C128.244 28.6 127.983 28.2428 127.945 27.8566C127.925 27.451 128.08 27.0648 128.408 26.6979C128.736 26.3503 129.074 26.1862 129.422 26.2055C129.789 26.2248 130.213 26.3697 130.696 26.64C131.469 27.1807 132.415 27.451 133.535 27.451C134.327 27.451 134.896 27.3448 135.244 27.1324C135.611 26.9007 135.794 26.4855 135.794 25.8869C135.794 25.5972 135.707 25.3655 135.533 25.1917C135.36 24.9986 135.031 24.8248 134.549 24.6703C134.085 24.5159 133.4 24.3517 132.492 24.1779C131.14 23.9076 130.059 23.4634 129.248 22.8455C128.437 22.2276 128.031 21.2524 128.031 19.92C128.031 19.051 128.263 18.3076 128.727 17.6897C129.19 17.0524 129.818 16.56 130.609 16.2124C131.401 15.8648 132.28 15.691 133.245 15.691C134.751 15.691 136.026 16.0097 137.069 16.6469C137.59 16.9172 137.88 17.2552 137.938 17.6607C138.015 18.0469 137.909 18.4234 137.619 18.7903C137.31 19.1766 136.972 19.3697 136.605 19.3697C136.258 19.3697 135.842 19.2634 135.36 19.051C135.051 18.8772 134.722 18.7517 134.375 18.6745C134.047 18.5972 133.689 18.5586 133.303 18.5586C132.589 18.5586 132.077 18.6841 131.768 18.9352C131.478 19.1862 131.333 19.4855 131.333 19.8331C131.333 20.0841 131.401 20.2966 131.536 20.4703C131.691 20.6441 131.98 20.8083 132.405 20.9628C132.83 21.1172 133.448 21.291 134.259 21.4841C135.804 21.851 137.001 22.3821 137.851 23.0772C138.7 23.7724 139.125 24.7476 139.125 26.0028C139.125 27.4124 138.585 28.4841 137.503 29.2179C136.441 29.9324 135.06 30.2897 133.361 30.2897ZM142.918 30C141.837 30 141.296 29.4303 141.296 28.291V17.7766C141.296 16.6372 141.837 16.0676 142.918 16.0676C143.999 16.0676 144.54 16.6372 144.54 17.7766V28.291C144.54 29.4303 143.999 30 142.918 30ZM142.889 13.7793C142.329 13.7793 141.846 13.5766 141.441 13.171C141.035 12.7655 140.832 12.2828 140.832 11.7228C140.832 11.1628 141.035 10.68 141.441 10.2745C141.846 9.86896 142.329 9.66621 142.889 9.66621C143.449 9.66621 143.932 9.86896 144.337 10.2745C144.743 10.68 144.945 11.1628 144.945 11.7228C144.945 12.2828 144.743 12.7655 144.337 13.171C143.932 13.5766 143.449 13.7793 142.889 13.7793ZM152.612 30.2897C151.743 30.2897 150.913 30.1834 150.121 29.971C149.348 29.7393 148.634 29.3917 147.977 28.9283C147.495 28.6 147.234 28.2428 147.195 27.8566C147.176 27.451 147.33 27.0648 147.659 26.6979C147.987 26.3503 148.325 26.1862 148.673 26.2055C149.039 26.2248 149.464 26.3697 149.947 26.64C150.719 27.1807 151.666 27.451 152.786 27.451C153.577 27.451 154.147 27.3448 154.495 27.1324C154.861 26.9007 155.045 26.4855 155.045 25.8869C155.045 25.5972 154.958 25.3655 154.784 25.1917C154.61 24.9986 154.282 24.8248 153.799 24.6703C153.336 24.5159 152.65 24.3517 151.743 24.1779C150.391 23.9076 149.31 23.4634 148.499 22.8455C147.688 22.2276 147.282 21.2524 147.282 19.92C147.282 19.051 147.514 18.3076 147.977 17.6897C148.441 17.0524 149.068 16.56 149.86 16.2124C150.652 15.8648 151.53 15.691 152.496 15.691C154.002 15.691 155.277 16.0097 156.319 16.6469C156.841 16.9172 157.13 17.2552 157.188 17.6607C157.266 18.0469 157.159 18.4234 156.87 18.7903C156.561 19.1766 156.223 19.3697 155.856 19.3697C155.508 19.3697 155.093 19.2634 154.61 19.051C154.301 18.8772 153.973 18.7517 153.626 18.6745C153.297 18.5972 152.94 18.5586 152.554 18.5586C151.839 18.5586 151.328 18.6841 151.019 18.9352C150.729 19.1862 150.584 19.4855 150.584 19.8331C150.584 20.0841 150.652 20.2966 150.787 20.4703C150.941 20.6441 151.231 20.8083 151.656 20.9628C152.081 21.1172 152.699 21.291 153.51 21.4841C155.055 21.851 156.252 22.3821 157.101 23.0772C157.951 23.7724 158.376 24.7476 158.376 26.0028C158.376 27.4124 157.835 28.4841 156.754 29.2179C155.692 29.9324 154.311 30.2897 152.612 30.2897ZM165.789 30.3186C164.418 30.3186 163.366 30.0676 162.632 29.5655C161.918 29.0634 161.56 28.0593 161.56 26.5531V18.8772H160.605C159.465 18.8772 158.896 18.4041 158.896 17.4579C158.896 17.0138 159.011 16.6759 159.243 16.4441C159.494 16.1931 159.938 16.0676 160.576 16.0676H161.56V12.8814C161.56 11.7421 162.111 11.1724 163.211 11.1724C164.273 11.1724 164.805 11.7421 164.805 12.8814V16.0676H166.948C168.087 16.0676 168.657 16.531 168.657 17.4579C168.657 18.4041 168.097 18.8772 166.977 18.8772H164.805V25.7131C164.805 26.3697 164.959 26.8138 165.268 27.0455C165.596 27.2772 166.06 27.3931 166.658 27.3931C167.276 27.3931 167.759 27.4703 168.107 27.6248C168.473 27.76 168.657 28.1269 168.657 28.7255C168.657 29.2083 168.512 29.5655 168.222 29.7972C167.952 30.0097 167.595 30.1448 167.151 30.2028C166.726 30.28 166.272 30.3186 165.789 30.3186ZM174.936 30.2028C173.429 30.2607 172.184 29.9324 171.199 29.2179C170.234 28.5034 169.751 27.4703 169.751 26.1186C169.751 25.1338 170.05 24.2938 170.649 23.5986C171.247 22.9034 172.02 22.3628 172.966 21.9766C173.912 21.571 174.887 21.3586 175.892 21.3393C176.394 21.3007 176.867 21.3393 177.311 21.4552C177.755 21.571 178.151 21.7352 178.498 21.9476V20.731C178.498 19.8234 178.305 19.2345 177.919 18.9641C177.533 18.6938 176.963 18.5586 176.21 18.5586C175.669 18.5586 175.1 18.6262 174.501 18.7614C173.922 18.8966 173.352 19.08 172.792 19.3117C172.29 19.5241 171.856 19.6014 171.489 19.5434C171.141 19.4855 170.852 19.2538 170.62 18.8483C170.388 18.4428 170.33 18.0566 170.446 17.6897C170.581 17.3034 170.909 17.0041 171.431 16.7917C172.126 16.4634 172.879 16.2028 173.69 16.0097C174.52 15.8166 175.36 15.72 176.21 15.72C178.006 15.72 179.358 16.0869 180.265 16.8207C181.173 17.5352 181.627 18.8386 181.627 20.731V27.1324C181.627 27.3255 181.646 27.48 181.685 27.5959C181.743 27.7117 181.791 27.7986 181.829 27.8566C182.003 28.1076 182.187 28.2524 182.38 28.291C182.592 28.3297 182.776 28.3586 182.93 28.3779C183.085 28.3779 183.162 28.4648 183.162 28.6386C183.162 28.9862 183.065 29.2855 182.872 29.5366C182.698 29.7876 182.399 29.9614 181.974 30.0579C181.53 30.1545 181.096 30.2028 180.671 30.2028C180.072 30.2028 179.609 30.1062 179.28 29.9131C178.972 29.7007 178.749 29.3531 178.614 28.8703C178.132 29.2759 177.572 29.5945 176.934 29.8262C176.297 30.0386 175.631 30.1641 174.936 30.2028ZM174.878 27.3641C175.959 27.3255 176.847 27.1131 177.543 26.7269C178.257 26.3407 178.595 25.7903 178.556 25.0759C178.537 24.6124 178.296 24.2938 177.832 24.12C177.388 23.9462 176.828 23.8786 176.152 23.9172C175.206 23.9366 174.424 24.1779 173.806 24.6414C173.188 25.0855 172.889 25.5876 172.908 26.1476C172.947 27.0166 173.603 27.4221 174.878 27.3641ZM186.614 30C185.513 30 184.963 29.4303 184.963 28.291V17.7766C184.963 16.6372 185.455 16.0676 186.44 16.0676C187.425 16.0676 187.937 16.3186 187.975 16.8207L188.062 17.7186C188.448 17.1779 188.96 16.7145 189.597 16.3283C190.235 15.9228 190.988 15.72 191.857 15.72C193.305 15.72 194.483 16.1834 195.391 17.1103C196.317 18.0372 196.781 19.3986 196.781 21.1945V28.291C196.781 29.4303 196.24 30 195.159 30C194.058 30 193.508 29.4303 193.508 28.291V21.9766C193.508 20.8759 193.286 20.0552 192.842 19.5145C192.397 18.9545 191.799 18.6745 191.046 18.6745C190.215 18.6745 189.539 18.9641 189.018 19.5434C188.497 20.1034 188.236 20.9434 188.236 22.0634V28.291C188.236 29.4303 187.695 30 186.614 30ZM204.622 30.3186C203.251 30.3186 202.199 30.0676 201.465 29.5655C200.751 29.0634 200.393 28.0593 200.393 26.5531V18.8772H199.438C198.298 18.8772 197.729 18.4041 197.729 17.4579C197.729 17.0138 197.844 16.6759 198.076 16.4441C198.327 16.1931 198.771 16.0676 199.409 16.0676H200.393V12.8814C200.393 11.7421 200.944 11.1724 202.044 11.1724C203.107 11.1724 203.638 11.7421 203.638 12.8814V16.0676H205.781C206.92 16.0676 207.49 16.531 207.49 17.4579C207.49 18.4041 206.93 18.8772 205.81 18.8772H203.638V25.7131C203.638 26.3697 203.792 26.8138 204.101 27.0455C204.429 27.2772 204.893 27.3931 205.491 27.3931C206.109 27.3931 206.592 27.4703 206.94 27.6248C207.307 27.76 207.49 28.1269 207.49 28.7255C207.49 29.2083 207.345 29.5655 207.055 29.7972C206.785 30.0097 206.428 30.1448 205.984 30.2028C205.559 30.28 205.105 30.3186 204.622 30.3186Z" fill="#FFCF00"/>
<rect width="32.5862" height="35" rx="6.03448" fill="#FFCF00"/>
<path d="M11 12C11 12.5523 10.5523 13 10 13C9.44772 13 9 12.5523 9 12C9 11.4477 9.44772 11 10 11C10.5523 11 11 11.4477 11 12Z" fill="#12263A"/>
<path d="M23 12C23 12.5523 22.5523 13 22 13C21.4477 13 21 12.5523 21 12C21 11.4477 21.4477 11 22 11C22.5523 11 23 11.4477 23 12Z" fill="#12263A"/>
<path d="M21.8103 18.6553C21.8103 21.988 19.2051 24.6898 15.9913 24.6898C12.7776 24.6898 10.1724 21.988 10.1724 18.6553" stroke="#12263A" stroke-width="1.5" stroke-linecap="round"/>
</svg>
