<svg width="210" height="37" viewBox="0 0 210 37" fill="none" xmlns="http://www.w3.org/2000/svg">
<path d="M49.3159 30.8883C48.4469 30.8883 47.6166 30.7821 46.8249 30.5697C46.0524 30.3379 45.338 29.9904 44.6814 29.5269C44.1987 29.1986 43.938 28.8414 43.8993 28.4552C43.88 28.0497 44.0345 27.6635 44.3628 27.2966C44.6911 26.949 45.029 26.7848 45.3766 26.8041C45.7435 26.8235 46.1683 26.9683 46.6511 27.2386C47.4235 27.7793 48.3697 28.0497 49.4897 28.0497C50.2814 28.0497 50.8511 27.9435 51.1987 27.731C51.5656 27.4993 51.749 27.0841 51.749 26.4855C51.749 26.1959 51.6621 25.9641 51.4883 25.7904C51.3145 25.5973 50.9862 25.4235 50.5035 25.269C50.04 25.1145 49.3545 24.9504 48.4469 24.7766C47.0952 24.5062 46.0138 24.0621 45.2028 23.4441C44.3918 22.8262 43.9862 21.851 43.9862 20.5186C43.9862 19.6497 44.218 18.9062 44.6814 18.2883C45.1449 17.651 45.7724 17.1586 46.5642 16.811C47.3559 16.4635 48.2345 16.2897 49.2 16.2897C50.7062 16.2897 51.9807 16.6083 53.0235 17.2455C53.5449 17.5159 53.8345 17.8538 53.8924 18.2593C53.9697 18.6455 53.8635 19.0221 53.5738 19.389C53.2649 19.7752 52.9269 19.9683 52.56 19.9683C52.2124 19.9683 51.7973 19.8621 51.3145 19.6497C51.0056 19.4759 50.6773 19.3504 50.3297 19.2731C50.0014 19.1959 49.6442 19.1573 49.258 19.1573C48.5435 19.1573 48.0318 19.2828 47.7228 19.5338C47.4331 19.7848 47.2883 20.0841 47.2883 20.4317C47.2883 20.6828 47.3559 20.8952 47.4911 21.069C47.6456 21.2428 47.9352 21.4069 48.36 21.5614C48.7849 21.7159 49.4028 21.8897 50.2138 22.0828C51.7587 22.4497 52.9559 22.9807 53.8056 23.6759C54.6552 24.371 55.08 25.3462 55.08 26.6014C55.08 28.011 54.5393 29.0828 53.458 29.8166C52.3959 30.531 51.0152 30.8883 49.3159 30.8883ZM58.4382 30.5986C57.3375 30.5986 56.7872 30.029 56.7872 28.8897V11.6552C56.7872 10.5159 57.3375 9.94622 58.4382 9.94622C59.5196 9.94622 60.0603 10.5159 60.0603 11.6552V18.3173C60.3693 17.7766 60.8327 17.3131 61.4506 16.9269C62.0686 16.5214 62.812 16.3186 63.681 16.3186C65.1293 16.3186 66.3072 16.7821 67.2148 17.709C68.1417 18.6359 68.6051 19.9973 68.6051 21.7931V28.8897C68.6051 30.029 68.0644 30.5986 66.9831 30.5986C65.8824 30.5986 65.332 30.029 65.332 28.8897V22.5752C65.332 21.4745 65.1099 20.6538 64.6658 20.1131C64.2217 19.5531 63.6231 19.2731 62.8699 19.2731C62.0396 19.2731 61.3637 19.5628 60.8424 20.1421C60.321 20.7021 60.0603 21.5421 60.0603 22.6621V28.8897C60.0603 30.029 59.5196 30.5986 58.4382 30.5986ZM77.302 30.9173C76.0275 30.9173 74.8786 30.6179 73.8551 30.0193C72.851 29.4014 72.0496 28.5517 71.451 27.4704C70.8717 26.3697 70.582 25.0855 70.582 23.6179C70.582 22.1504 70.8717 20.8759 71.451 19.7945C72.0496 18.6938 72.851 17.8441 73.8551 17.2455C74.8786 16.6276 76.0275 16.3186 77.302 16.3186C78.6151 16.3186 79.7737 16.6276 80.7779 17.2455C81.8013 17.8441 82.6027 18.6938 83.182 19.7945C83.7613 20.8759 84.051 22.1504 84.051 23.6179C84.051 25.0855 83.7613 26.3697 83.182 27.4704C82.6027 28.5517 81.8013 29.4014 80.7779 30.0193C79.7737 30.6179 78.6151 30.9173 77.302 30.9173ZM77.302 27.9628C78.3255 27.9628 79.1558 27.5862 79.7931 26.8331C80.4496 26.08 80.7779 25.0083 80.7779 23.6179C80.7779 22.2276 80.4496 21.1559 79.7931 20.4028C79.1558 19.6497 78.3255 19.2731 77.302 19.2731C76.2979 19.2731 75.4772 19.6497 74.8399 20.4028C74.2027 21.1559 73.8841 22.2276 73.8841 23.6179C73.8841 25.0083 74.2027 26.08 74.8399 26.8331C75.4772 27.5862 76.2979 27.9628 77.302 27.9628ZM87.6459 36.3048C86.5452 36.3048 85.9948 35.7352 85.9948 34.5959V18.3752C85.9948 17.2359 86.4776 16.6662 87.4431 16.6662C88.37 16.6662 88.8624 16.869 88.9204 17.2745L89.0073 18.2014C89.9921 16.9462 91.2859 16.3186 92.8886 16.3186C94.1824 16.3186 95.3314 16.6083 96.3355 17.1876C97.359 17.7669 98.1604 18.6069 98.7397 19.7076C99.319 20.789 99.6086 22.0924 99.6086 23.6179C99.6086 25.1435 99.319 26.4566 98.7397 27.5573C98.1604 28.6386 97.359 29.469 96.3355 30.0483C95.3314 30.6276 94.1824 30.9173 92.8886 30.9173C92.1741 30.9173 91.5079 30.7821 90.89 30.5117C90.2721 30.2221 89.7314 29.8262 89.2679 29.3241V34.5959C89.2679 35.1366 89.1231 35.5517 88.8335 35.8414C88.5631 36.1504 88.1673 36.3048 87.6459 36.3048ZM92.7728 27.9628C93.7962 27.9628 94.6459 27.5862 95.3217 26.8331C95.9976 26.08 96.3355 25.0083 96.3355 23.6179C96.3355 22.2276 95.9976 21.1559 95.3217 20.4028C94.6459 19.6497 93.7962 19.2731 92.7728 19.2731C91.7493 19.2731 90.8997 19.6497 90.2238 20.4028C89.5479 21.1559 89.21 22.2276 89.21 23.6179C89.21 25.0083 89.5479 26.08 90.2238 26.8331C90.8997 27.5862 91.7493 27.9628 92.7728 27.9628ZM106.137 30.8014C104.631 30.8593 103.385 30.531 102.4 29.8166C101.435 29.1021 100.952 28.069 100.952 26.7173C100.952 25.7324 101.251 24.8924 101.85 24.1973C102.449 23.5021 103.221 22.9614 104.167 22.5752C105.114 22.1697 106.089 21.9573 107.093 21.9379C107.595 21.8993 108.068 21.9379 108.512 22.0538C108.956 22.1697 109.352 22.3338 109.7 22.5462V21.3297C109.7 20.4221 109.507 19.8331 109.12 19.5628C108.734 19.2924 108.165 19.1573 107.411 19.1573C106.871 19.1573 106.301 19.2248 105.702 19.36C105.123 19.4952 104.554 19.6786 103.994 19.9104C103.491 20.1228 103.057 20.2 102.69 20.1421C102.342 20.0841 102.053 19.8524 101.821 19.4469C101.589 19.0414 101.531 18.6552 101.647 18.2883C101.782 17.9021 102.111 17.6028 102.632 17.3904C103.327 17.0621 104.08 16.8014 104.891 16.6083C105.722 16.4152 106.562 16.3186 107.411 16.3186C109.207 16.3186 110.559 16.6855 111.467 17.4193C112.374 18.1338 112.828 19.4373 112.828 21.3297V27.731C112.828 27.9241 112.847 28.0786 112.886 28.1945C112.944 28.3104 112.992 28.3973 113.031 28.4552C113.205 28.7062 113.388 28.851 113.581 28.8897C113.794 28.9283 113.977 28.9573 114.131 28.9766C114.286 28.9766 114.363 29.0635 114.363 29.2373C114.363 29.5848 114.267 29.8842 114.074 30.1352C113.9 30.3862 113.6 30.56 113.176 30.6566C112.731 30.7531 112.297 30.8014 111.872 30.8014C111.274 30.8014 110.81 30.7048 110.482 30.5117C110.173 30.2993 109.951 29.9517 109.816 29.469C109.333 29.8745 108.773 30.1931 108.136 30.4248C107.498 30.6373 106.832 30.7628 106.137 30.8014ZM106.079 27.9628C107.16 27.9241 108.049 27.7117 108.744 27.3255C109.458 26.9393 109.796 26.389 109.758 25.6745C109.738 25.211 109.497 24.8924 109.034 24.7186C108.589 24.5448 108.029 24.4773 107.354 24.5159C106.407 24.5352 105.625 24.7766 105.007 25.24C104.389 25.6842 104.09 26.1862 104.109 26.7462C104.148 27.6152 104.805 28.0207 106.079 27.9628ZM121.175 30.8883C120.306 30.8883 119.476 30.7821 118.684 30.5697C117.912 30.3379 117.197 29.9904 116.541 29.5269C116.058 29.1986 115.797 28.8414 115.759 28.4552C115.739 28.0497 115.894 27.6635 116.222 27.2966C116.55 26.949 116.888 26.7848 117.236 26.8041C117.603 26.8235 118.028 26.9683 118.51 27.2386C119.283 27.7793 120.229 28.0497 121.349 28.0497C122.141 28.0497 122.71 27.9435 123.058 27.731C123.425 27.4993 123.608 27.0841 123.608 26.4855C123.608 26.1959 123.521 25.9641 123.348 25.7904C123.174 25.5973 122.846 25.4235 122.363 25.269C121.899 25.1145 121.214 24.9504 120.306 24.7766C118.955 24.5062 117.873 24.0621 117.062 23.4441C116.251 22.8262 115.846 21.851 115.846 20.5186C115.846 19.6497 116.077 18.9062 116.541 18.2883C117.004 17.651 117.632 17.1586 118.424 16.811C119.215 16.4635 120.094 16.2897 121.059 16.2897C122.566 16.2897 123.84 16.6083 124.883 17.2455C125.404 17.5159 125.694 17.8538 125.752 18.2593C125.829 18.6455 125.723 19.0221 125.433 19.389C125.124 19.7752 124.786 19.9683 124.419 19.9683C124.072 19.9683 123.657 19.8621 123.174 19.6497C122.865 19.4759 122.537 19.3504 122.189 19.2731C121.861 19.1959 121.504 19.1573 121.117 19.1573C120.403 19.1573 119.891 19.2828 119.582 19.5338C119.293 19.7848 119.148 20.0841 119.148 20.4317C119.148 20.6828 119.215 20.8952 119.35 21.069C119.505 21.2428 119.795 21.4069 120.219 21.5614C120.644 21.7159 121.262 21.8897 122.073 22.0828C123.618 22.4497 124.815 22.9807 125.665 23.6759C126.515 24.371 126.939 25.3462 126.939 26.6014C126.939 28.011 126.399 29.0828 125.317 29.8166C124.255 30.531 122.875 30.8883 121.175 30.8883ZM133.658 30.8883C132.789 30.8883 131.958 30.7821 131.167 30.5697C130.394 30.3379 129.68 29.9904 129.023 29.5269C128.54 29.1986 128.28 28.8414 128.241 28.4552C128.222 28.0497 128.376 27.6635 128.704 27.2966C129.033 26.949 129.371 26.7848 129.718 26.8041C130.085 26.8235 130.51 26.9683 130.993 27.2386C131.765 27.7793 132.711 28.0497 133.831 28.0497C134.623 28.0497 135.193 27.9435 135.54 27.731C135.907 27.4993 136.091 27.0841 136.091 26.4855C136.091 26.1959 136.004 25.9641 135.83 25.7904C135.656 25.5973 135.328 25.4235 134.845 25.269C134.382 25.1145 133.696 24.9504 132.789 24.7766C131.437 24.5062 130.356 24.0621 129.544 23.4441C128.733 22.8262 128.328 21.851 128.328 20.5186C128.328 19.6497 128.56 18.9062 129.023 18.2883C129.487 17.651 130.114 17.1586 130.906 16.811C131.698 16.4635 132.576 16.2897 133.542 16.2897C135.048 16.2897 136.322 16.6083 137.365 17.2455C137.887 17.5159 138.176 17.8538 138.234 18.2593C138.311 18.6455 138.205 19.0221 137.916 19.389C137.607 19.7752 137.269 19.9683 136.902 19.9683C136.554 19.9683 136.139 19.8621 135.656 19.6497C135.347 19.4759 135.019 19.3504 134.671 19.2731C134.343 19.1959 133.986 19.1573 133.6 19.1573C132.885 19.1573 132.373 19.2828 132.064 19.5338C131.775 19.7848 131.63 20.0841 131.63 20.4317C131.63 20.6828 131.698 20.8952 131.833 21.069C131.987 21.2428 132.277 21.4069 132.702 21.5614C133.127 21.7159 133.744 21.8897 134.556 22.0828C136.1 22.4497 137.298 22.9807 138.147 23.6759C138.997 24.371 139.422 25.3462 139.422 26.6014C139.422 28.011 138.881 29.0828 137.8 29.8166C136.738 30.531 135.357 30.8883 133.658 30.8883ZM143.214 30.5986C142.133 30.5986 141.592 30.029 141.592 28.8897V18.3752C141.592 17.2359 142.133 16.6662 143.214 16.6662C144.296 16.6662 144.836 17.2359 144.836 18.3752V28.8897C144.836 30.029 144.296 30.5986 143.214 30.5986ZM143.185 14.3779C142.625 14.3779 142.143 14.1752 141.737 13.7697C141.332 13.3641 141.129 12.8814 141.129 12.3214C141.129 11.7614 141.332 11.2786 141.737 10.8731C142.143 10.4676 142.625 10.2648 143.185 10.2648C143.745 10.2648 144.228 10.4676 144.634 10.8731C145.039 11.2786 145.242 11.7614 145.242 12.3214C145.242 12.8814 145.039 13.3641 144.634 13.7697C144.228 14.1752 143.745 14.3779 143.185 14.3779ZM152.908 30.8883C152.039 30.8883 151.209 30.7821 150.417 30.5697C149.645 30.3379 148.93 29.9904 148.274 29.5269C147.791 29.1986 147.53 28.8414 147.492 28.4552C147.472 28.0497 147.627 27.6635 147.955 27.2966C148.284 26.949 148.621 26.7848 148.969 26.8041C149.336 26.8235 149.761 26.9683 150.244 27.2386C151.016 27.7793 151.962 28.0497 153.082 28.0497C153.874 28.0497 154.444 27.9435 154.791 27.731C155.158 27.4993 155.341 27.0841 155.341 26.4855C155.341 26.1959 155.255 25.9641 155.081 25.7904C154.907 25.5973 154.579 25.4235 154.096 25.269C153.632 25.1145 152.947 24.9504 152.039 24.7766C150.688 24.5062 149.606 24.0621 148.795 23.4441C147.984 22.8262 147.579 21.851 147.579 20.5186C147.579 19.6497 147.81 18.9062 148.274 18.2883C148.737 17.651 149.365 17.1586 150.157 16.811C150.948 16.4635 151.827 16.2897 152.792 16.2897C154.299 16.2897 155.573 16.6083 156.616 17.2455C157.137 17.5159 157.427 17.8538 157.485 18.2593C157.562 18.6455 157.456 19.0221 157.166 19.389C156.857 19.7752 156.519 19.9683 156.152 19.9683C155.805 19.9683 155.39 19.8621 154.907 19.6497C154.598 19.4759 154.27 19.3504 153.922 19.2731C153.594 19.1959 153.237 19.1573 152.85 19.1573C152.136 19.1573 151.624 19.2828 151.315 19.5338C151.026 19.7848 150.881 20.0841 150.881 20.4317C150.881 20.6828 150.948 20.8952 151.084 21.069C151.238 21.2428 151.528 21.4069 151.952 21.5614C152.377 21.7159 152.995 21.8897 153.806 22.0828C155.351 22.4497 156.548 22.9807 157.398 23.6759C158.248 24.371 158.672 25.3462 158.672 26.6014C158.672 28.011 158.132 29.0828 157.05 29.8166C155.988 30.531 154.608 30.8883 152.908 30.8883ZM166.086 30.9173C164.715 30.9173 163.662 30.6662 162.929 30.1642C162.214 29.6621 161.857 28.6579 161.857 27.1517V19.4759H160.901C159.762 19.4759 159.192 19.0028 159.192 18.0566C159.192 17.6124 159.308 17.2745 159.54 17.0428C159.791 16.7917 160.235 16.6662 160.872 16.6662H161.857V13.48C161.857 12.3407 162.407 11.771 163.508 11.771C164.57 11.771 165.101 12.3407 165.101 13.48V16.6662H167.244C168.384 16.6662 168.953 17.1297 168.953 18.0566C168.953 19.0028 168.393 19.4759 167.273 19.4759H165.101V26.3117C165.101 26.9683 165.256 27.4124 165.564 27.6441C165.893 27.8759 166.356 27.9917 166.955 27.9917C167.573 27.9917 168.056 28.069 168.403 28.2235C168.77 28.3586 168.953 28.7255 168.953 29.3241C168.953 29.8069 168.809 30.1642 168.519 30.3959C168.249 30.6083 167.891 30.7435 167.447 30.8014C167.022 30.8786 166.569 30.9173 166.086 30.9173ZM175.232 30.8014C173.726 30.8593 172.48 30.531 171.496 29.8166C170.53 29.1021 170.047 28.069 170.047 26.7173C170.047 25.7324 170.347 24.8924 170.945 24.1973C171.544 23.5021 172.316 22.9614 173.263 22.5752C174.209 22.1697 175.184 21.9573 176.188 21.9379C176.69 21.8993 177.163 21.9379 177.607 22.0538C178.051 22.1697 178.447 22.3338 178.795 22.5462V21.3297C178.795 20.4221 178.602 19.8331 178.216 19.5628C177.829 19.2924 177.26 19.1573 176.507 19.1573C175.966 19.1573 175.396 19.2248 174.798 19.36C174.218 19.4952 173.649 19.6786 173.089 19.9104C172.587 20.1228 172.152 20.2 171.785 20.1421C171.438 20.0841 171.148 19.8524 170.916 19.4469C170.685 19.0414 170.627 18.6552 170.743 18.2883C170.878 17.9021 171.206 17.6028 171.727 17.3904C172.423 17.0621 173.176 16.8014 173.987 16.6083C174.817 16.4152 175.657 16.3186 176.507 16.3186C178.303 16.3186 179.654 16.6855 180.562 17.4193C181.469 18.1338 181.923 19.4373 181.923 21.3297V27.731C181.923 27.9241 181.943 28.0786 181.981 28.1945C182.039 28.3104 182.087 28.3973 182.126 28.4552C182.3 28.7062 182.483 28.851 182.676 28.8897C182.889 28.9283 183.072 28.9573 183.227 28.9766C183.381 28.9766 183.458 29.0635 183.458 29.2373C183.458 29.5848 183.362 29.8842 183.169 30.1352C182.995 30.3862 182.696 30.56 182.271 30.6566C181.827 30.7531 181.392 30.8014 180.967 30.8014C180.369 30.8014 179.905 30.7048 179.577 30.5117C179.268 30.2993 179.046 29.9517 178.911 29.469C178.428 29.8745 177.868 30.1931 177.231 30.4248C176.594 30.6373 175.927 30.7628 175.232 30.8014ZM175.174 27.9628C176.256 27.9241 177.144 27.7117 177.839 27.3255C178.554 26.9393 178.891 26.389 178.853 25.6745C178.834 25.211 178.592 24.8924 178.129 24.7186C177.685 24.5448 177.125 24.4773 176.449 24.5159C175.503 24.5352 174.72 24.7766 174.103 25.24C173.485 25.6842 173.185 26.1862 173.205 26.7462C173.243 27.6152 173.9 28.0207 175.174 27.9628ZM186.91 30.5986C185.81 30.5986 185.259 30.029 185.259 28.8897V18.3752C185.259 17.2359 185.752 16.6662 186.737 16.6662C187.722 16.6662 188.233 16.9173 188.272 17.4193L188.359 18.3173C188.745 17.7766 189.257 17.3131 189.894 16.9269C190.531 16.5214 191.284 16.3186 192.153 16.3186C193.602 16.3186 194.779 16.7821 195.687 17.709C196.614 18.6359 197.077 19.9973 197.077 21.7931V28.8897C197.077 30.029 196.537 30.5986 195.455 30.5986C194.355 30.5986 193.804 30.029 193.804 28.8897V22.5752C193.804 21.4745 193.582 20.6538 193.138 20.1131C192.694 19.5531 192.095 19.2731 191.342 19.2731C190.512 19.2731 189.836 19.5628 189.315 20.1421C188.793 20.7021 188.533 21.5421 188.533 22.6621V28.8897C188.533 30.029 187.992 30.5986 186.91 30.5986ZM204.919 30.9173C203.548 30.9173 202.495 30.6662 201.762 30.1642C201.047 29.6621 200.69 28.6579 200.69 27.1517V19.4759H199.734C198.595 19.4759 198.025 19.0028 198.025 18.0566C198.025 17.6124 198.141 17.2745 198.373 17.0428C198.624 16.7917 199.068 16.6662 199.705 16.6662H200.69V13.48C200.69 12.3407 201.24 11.771 202.341 11.771C203.403 11.771 203.934 12.3407 203.934 13.48V16.6662H206.077C207.217 16.6662 207.786 17.1297 207.786 18.0566C207.786 19.0028 207.226 19.4759 206.106 19.4759H203.934V26.3117C203.934 26.9683 204.089 27.4124 204.397 27.6441C204.726 27.8759 205.189 27.9917 205.788 27.9917C206.406 27.9917 206.889 28.069 207.236 28.2235C207.603 28.3586 207.786 28.7255 207.786 29.3241C207.786 29.8069 207.642 30.1642 207.352 30.3959C207.082 30.6083 206.724 30.7435 206.28 30.8014C205.855 30.8786 205.402 30.9173 204.919 30.9173Z" fill="#12263A"/>
<path fill-rule="evenodd" clip-rule="evenodd" d="M6.33111 0.598633C2.99836 0.598633 0.296631 3.30036 0.296631 6.63312V29.5641C0.296631 32.8969 2.99836 35.5986 6.33112 35.5986H26.8484C30.1811 35.5986 32.8828 32.8969 32.8828 29.5641V6.63312C32.8828 3.30036 30.1811 0.598633 26.8484 0.598633H6.33111ZM11.2966 12.5986C11.2966 13.1509 10.8489 13.5986 10.2966 13.5986C9.74435 13.5986 9.29663 13.1509 9.29663 12.5986C9.29663 12.0463 9.74435 11.5986 10.2966 11.5986C10.8489 11.5986 11.2966 12.0463 11.2966 12.5986ZM23.2966 12.5986C23.2966 13.1509 22.8489 13.5986 22.2966 13.5986C21.7443 13.5986 21.2966 13.1509 21.2966 12.5986C21.2966 12.0463 21.7443 11.5986 22.2966 11.5986C22.8489 11.5986 23.2966 12.0463 23.2966 12.5986Z" fill="#12263A"/>
<path fill-rule="evenodd" clip-rule="evenodd" d="M10.469 18.5039C10.8832 18.5039 11.219 18.8397 11.219 19.2539C11.219 22.1984 13.5139 24.5384 16.288 24.5384C19.062 24.5384 21.3569 22.1984 21.3569 19.2539C21.3569 18.8397 21.6927 18.5039 22.1069 18.5039C22.5211 18.5039 22.8569 18.8397 22.8569 19.2539C22.8569 22.9749 19.9414 26.0384 16.288 26.0384C12.6345 26.0384 9.71899 22.9749 9.71899 19.2539C9.71899 18.8397 10.0548 18.5039 10.469 18.5039Z" fill="#FFCF00"/>
</svg>
