<svg width="41" height="45" viewBox="0 0 41 45" fill="none" xmlns="http://www.w3.org/2000/svg">
<path d="M23.8767 31.5975C23.1608 31.1088 22.6517 29.9949 22.6517 29.9949C22.6517 29.9949 24.8692 29.3629 25.8026 27.0924C25.8729 26.922 25.9338 26.7478 25.9851 26.5708C26.1409 26.0222 26.2166 25.4541 26.2099 24.8839C26.2099 24.8839 26.8823 24.9055 26.8676 26.6514C26.8676 26.7373 26.8644 26.8269 26.8611 26.9206C26.8587 26.9772 26.8562 27.0346 26.8562 27.0924C26.853 27.593 26.921 28.1607 27.0256 28.7333C26.7059 29.3503 26.0246 30.3863 24.9938 31.0371C25.779 30.9333 26.6343 30.5936 27.3429 30.1306C27.6561 31.3144 28.0059 32.2548 28.0059 32.2548C28.0059 32.2548 27.7672 36.4006 26.374 41.3679C26.37 41.3826 26.3663 41.3989 26.361 41.4143C26.1321 42.2289 25.8723 43.0633 25.5754 43.9047C26.7122 43.6125 27.8212 43.2212 28.8896 42.7351C29.2426 41.926 29.5719 41.127 29.8776 40.338C29.9819 40.0692 30.0813 39.802 30.1823 39.5373C30.9441 37.4948 31.5935 35.4121 32.1277 33.2986L30.0707 33.6321C30.3997 33.0673 30.8233 29.4321 29.5987 28.0605C29.6585 28.1012 31.6887 29.483 31.4553 32.2984L33.4888 31.9583C33.5454 32.4022 32.7679 35.1956 31.3918 38.7004C31.2199 39.1364 31.039 39.5829 30.8489 40.0399C30.5488 40.7607 30.2267 41.5011 29.8825 42.2488C36.3888 38.8515 40.8417 32.0377 40.8417 24.2042C40.8417 15.8901 35.8268 8.72366 28.6628 5.57274C28.6062 6.32575 28.561 7.15207 28.5247 7.93726C34.5114 10.9041 38.6393 17.0813 38.6393 24.2042C38.6415 26.1754 38.3205 28.1337 37.6892 30.0011C36.4804 28.649 33.6301 27.6712 30.0479 27.0688L30.5211 24.328L25.2785 22.734C26.2323 21.4247 26.864 19.2532 26.9597 17.5619C27.9872 16.8614 27.9582 15.4666 27.9582 15.4666C33.044 13.9369 34.6136 11.2743 26.3207 12.8569C24.4909 13.2059 22.1524 13.3627 19.8641 13.3264C19.6751 13.3244 19.4861 13.3199 19.2972 13.3142C18.9771 13.3053 18.6595 13.2917 18.3446 13.2735C17.8714 13.2478 17.4055 13.2136 16.9538 13.1709C16.1426 13.0939 15.3733 12.9884 14.6785 12.8561C6.38437 11.2735 7.95392 13.9361 13.0397 15.4658C13.0397 15.4658 13.0104 16.8606 14.0391 17.5611C14.134 19.2516 14.7665 21.4231 15.7194 22.7332L10.4773 24.3272L10.9513 27.0672C7.36748 27.6687 4.5167 28.6453 3.31 29.9994C2.67853 28.1325 2.35743 26.1746 2.35947 24.2038C2.35947 17.0809 6.48496 10.9037 12.4728 7.93685C12.437 7.15166 12.3914 6.32534 12.3352 5.57233C5.17156 8.72325 0.158264 15.8897 0.158264 24.2038C0.158264 32.0373 4.60996 38.8511 11.1158 42.2484C10.7729 41.5007 10.4508 40.7603 10.1498 40.0395C9.95978 39.5833 9.7791 39.1368 9.60778 38.7C8.23208 35.1952 7.45544 32.4018 7.51205 31.9579L9.54547 32.298C9.3113 29.4826 11.3423 28.0996 11.4021 28.0601C10.1779 29.4317 10.6003 33.0669 10.9305 33.6317L8.87228 33.2982C9.40617 35.4119 10.0559 37.4946 10.8185 39.5369C10.9171 39.8019 11.0182 40.0685 11.122 40.3368C11.4268 41.1241 11.7565 41.9234 12.1108 42.7347C13.1789 43.2202 14.2874 43.6113 15.4238 43.9035C15.1273 43.0605 14.8671 42.2256 14.6386 41.4119C14.6353 41.396 14.6304 41.3814 14.6264 41.3667C13.2332 36.3982 12.9974 32.2536 12.9974 32.2536C12.9974 32.2536 13.346 31.3132 13.6596 30.1293C14.3686 30.5924 15.2242 30.932 16.0082 31.0359C14.9786 30.3843 14.2977 29.349 13.9772 28.7321C14.0811 28.1595 14.1491 27.5917 14.1458 27.0912C14.1458 27.0334 14.1434 26.976 14.1413 26.9194C14.1378 26.8257 14.1355 26.736 14.1344 26.6502C14.121 24.9043 14.7933 24.8827 14.7933 24.8827C14.7864 25.4529 14.8621 26.0211 15.0182 26.5695C15.0695 26.7465 15.1303 26.9207 15.2002 27.0912C16.1336 29.3617 18.3515 29.9937 18.3515 29.9937C18.3515 29.9937 17.8425 31.1059 17.1261 31.5963C16.5877 31.9628 19.2939 33.9722 19.2939 33.9722C19.3587 36.8059 19.5814 39.6591 19.8677 42.3319C19.8924 42.5673 19.9181 42.8016 19.9447 43.0348C20.0025 43.5447 20.0617 44.047 20.1223 44.5417C20.2488 44.5436 20.3756 44.5446 20.5026 44.5449C20.6305 44.5449 20.7572 44.5449 20.8842 44.5417C20.9448 44.047 21.0038 43.5447 21.0614 43.0348C21.0885 42.8016 21.1143 42.5673 21.1388 42.3319C21.4239 39.6591 21.6466 36.8059 21.711 33.9722C21.711 33.9722 24.4176 31.9648 23.88 31.5963L23.8767 31.5975ZM19.5126 23.8686C17.8864 23.5693 15.9051 21.4284 15.3879 18.1899C15.1676 16.8052 15.0304 15.4686 16.411 15.5537C17.2743 15.605 18.5429 16.5657 19.3912 15.5537C20.2396 14.5417 21.0309 15.1799 21.0309 15.1799L21.0085 18.2343C20.8455 18.3837 20.3454 18.5104 19.8905 18.2049C19.4356 17.8995 19.2723 18.1369 19.2723 18.1369V18.6586C19.6743 18.6619 20.1496 18.8871 20.2343 19.2166C20.1257 19.1724 20.0098 19.1493 19.8926 19.1486C19.0125 19.1486 18.6887 20.1793 18.1471 20.1712C17.9435 20.1679 17.7032 20.0844 17.5969 19.7879C17.2686 20.1207 17.4291 20.8232 18.3935 20.8232C18.9139 20.8232 19.7187 20.6603 20.5026 20.2123C20.7629 20.3605 21.2687 20.5927 21.2687 20.611C20.8895 21.5729 19.2231 21.0907 19.2231 21.0907C19.2231 21.2989 19.3497 21.7741 20.119 21.935C22.0111 22.3337 21.4169 24.2213 19.5094 23.8698L19.5126 23.8686ZM13.4347 5.1272C13.4946 5.84886 13.5435 6.65278 13.5818 7.43471C13.6803 9.41152 13.7178 11.249 13.7178 11.249H16.8826L16.7062 6.46422L16.6248 4.23247L16.5555 2.37376C16.4867 1.61912 16.6235 0.129384 15.1709 0.363555C14.9819 0.400615 14.8113 0.439708 14.6618 0.48247C12.4284 1.12023 12.9762 1.66351 13.2702 3.61385C13.3321 4.03006 13.3875 4.55135 13.4347 5.1272ZM19.2992 0.0133124C18.9771 0.0210502 18.6578 0.0320481 18.3466 0.0458947V11.249H19.2992V0.0133124ZM27.4178 7.43471C27.4585 6.65278 27.505 5.84886 27.5652 5.1272C27.6137 4.55135 27.6679 4.03006 27.7314 3.61385C28.0254 1.66269 28.5732 1.12023 26.3386 0.48247C25.1062 0.132231 22.4212 -0.0278194 19.8661 0.00394636V11.249H27.2814C27.2814 11.249 27.318 9.41152 27.4162 7.43471H27.4178ZM25.2614 15.6686C25.2614 15.6686 25.6483 17.1591 24.5654 18.5193C23.7102 19.592 22.5491 16.7213 22.3601 15.9064C23.5599 16.0265 24.5039 15.3599 25.2598 15.6686H25.2614Z" fill="#CA8F65"/>
</svg>
