<svg width="152" height="74" viewBox="0 0 152 74" fill="none" xmlns="http://www.w3.org/2000/svg">
<path d="M1.09985 66.6208C25.2271 67.9876 50.3063 62.6155 73.3962 56.2504C86.5781 52.6166 100.351 48.4519 112.033 41.1097C117.653 37.5779 123.805 32.3792 123.885 25.0208C124.093 5.98492 94.4612 0.742162 80.6554 1.08007C64.7369 1.46968 49.2321 8.4116 41.0702 22.5912C35.3356 32.5538 33.5186 45.5897 34.7591 56.9319C35.2151 61.1009 36.4524 66.2483 39.885 69.0504C48.1716 75.815 64.6281 72.0298 73.5147 69.2282C85.0262 65.5991 94.0174 58.2472 104.211 52.2208C107.554 50.2446 108.914 50.0407 110.611 53.5838C112.847 58.2514 115.861 62.7603 120.626 65.1986C128.055 69.0005 138.329 66.0595 145.692 63.6875" stroke="#8E8E8E" stroke-linecap="round"/>
<circle cx="151.1" cy="61.5983" r="0.8" fill="#8E8E8E"/>
</svg>
