<svg width="1920" height="177" viewBox="0 0 1920 177" fill="none" xmlns="http://www.w3.org/2000/svg">
<path d="M927.618 156.782C927.312 156.782 927.147 156.645 927.121 156.373L922.038 131.241L922 131.093C922 130.869 922.14 130.758 922.42 130.758H926.089C926.395 130.758 926.561 130.894 926.586 131.167L929.261 146.669C929.287 146.744 929.325 146.781 929.376 146.781C929.427 146.781 929.465 146.744 929.491 146.669L931.898 131.167C931.924 130.894 932.089 130.758 932.395 130.758H935.453C935.758 130.758 935.924 130.894 935.949 131.167L938.548 146.669C938.574 146.744 938.612 146.781 938.663 146.781C938.714 146.781 938.752 146.744 938.777 146.669L941.185 131.167C941.211 130.894 941.376 130.758 941.682 130.758H945.236C945.567 130.758 945.708 130.919 945.657 131.241L940.803 156.373C940.778 156.645 940.612 156.782 940.306 156.782H937.058C936.752 156.782 936.586 156.645 936.561 156.373L934 140.573C933.975 140.473 933.937 140.424 933.886 140.424C933.835 140.424 933.796 140.473 933.771 140.573L931.401 156.373C931.376 156.645 931.21 156.782 930.905 156.782H927.618Z" fill="#CA8F65"/>
<path d="M958.27 131.204C958.27 131.08 958.308 130.981 958.385 130.907C958.486 130.807 958.601 130.758 958.728 130.758H962.244C962.372 130.758 962.474 130.807 962.55 130.907C962.652 130.981 962.703 131.08 962.703 131.204V156.335C962.703 156.459 962.652 156.571 962.55 156.67C962.474 156.744 962.372 156.782 962.244 156.782H958.728C958.601 156.782 958.486 156.744 958.385 156.67C958.308 156.571 958.27 156.459 958.27 156.335V145.814C958.27 145.691 958.206 145.629 958.079 145.629H953.225C953.098 145.629 953.034 145.691 953.034 145.814V156.335C953.034 156.459 952.983 156.571 952.881 156.67C952.805 156.744 952.703 156.782 952.575 156.782H949.059C948.932 156.782 948.817 156.744 948.715 156.67C948.639 156.571 948.601 156.459 948.601 156.335V131.204C948.601 131.08 948.639 130.981 948.715 130.907C948.817 130.807 948.932 130.758 949.059 130.758H952.575C952.703 130.758 952.805 130.807 952.881 130.907C952.983 130.981 953.034 131.08 953.034 131.204V141.688C953.034 141.812 953.098 141.874 953.225 141.874H958.079C958.206 141.874 958.27 141.812 958.27 141.688V131.204Z" fill="#CA8F65"/>
<path d="M967.272 156.782C967.145 156.782 967.03 156.744 966.928 156.67C966.852 156.571 966.814 156.459 966.814 156.335V131.204C966.814 131.08 966.852 130.981 966.928 130.907C967.03 130.807 967.145 130.758 967.272 130.758H970.788C970.916 130.758 971.018 130.807 971.094 130.907C971.196 130.981 971.247 131.08 971.247 131.204V156.335C971.247 156.459 971.196 156.571 971.094 156.67C971.018 156.744 970.916 156.782 970.788 156.782H967.272Z" fill="#CA8F65"/>
<path d="M981.666 157.079C979.552 157.079 977.845 156.459 976.545 155.22C975.246 153.981 974.596 152.358 974.596 150.35V149.383C974.596 149.259 974.634 149.16 974.711 149.086C974.813 148.987 974.927 148.937 975.055 148.937H978.533C978.66 148.937 978.762 148.987 978.838 149.086C978.94 149.16 978.991 149.259 978.991 149.383V150.127C978.991 151.094 979.233 151.874 979.717 152.469C980.227 153.064 980.877 153.361 981.666 153.361C982.456 153.361 983.106 153.089 983.615 152.543C984.125 151.973 984.38 151.23 984.38 150.313C984.38 149.668 984.24 149.111 983.959 148.64C983.679 148.169 983.284 147.723 982.775 147.301C982.265 146.88 981.45 146.273 980.329 145.48C979.055 144.588 978.023 143.795 977.233 143.101C976.469 142.407 975.819 141.576 975.284 140.61C974.775 139.618 974.52 138.478 974.52 137.189C974.52 135.132 975.157 133.497 976.431 132.282C977.705 131.068 979.386 130.461 981.475 130.461C983.59 130.461 985.297 131.105 986.596 132.394C987.896 133.658 988.546 135.343 988.546 137.45V138.342C988.546 138.466 988.495 138.577 988.393 138.677C988.316 138.751 988.214 138.788 988.087 138.788H984.647C984.52 138.788 984.405 138.751 984.303 138.677C984.227 138.577 984.189 138.466 984.189 138.342V137.375C984.189 136.409 983.934 135.64 983.424 135.07C982.94 134.476 982.291 134.178 981.475 134.178C980.711 134.178 980.087 134.451 979.603 134.996C979.119 135.517 978.877 136.248 978.877 137.189C978.877 138.082 979.131 138.838 979.641 139.457C980.176 140.077 981.208 140.932 982.736 142.022C984.291 143.138 985.463 144.055 986.252 144.773C987.042 145.467 987.654 146.236 988.087 147.078C988.52 147.921 988.737 148.925 988.737 150.09C988.737 152.196 988.087 153.894 986.788 155.183C985.488 156.447 983.781 157.079 981.666 157.079Z" fill="#CA8F65"/>
<path d="M992.39 156.782C992.263 156.782 992.148 156.744 992.046 156.67C991.97 156.571 991.931 156.459 991.931 156.335V131.204C991.931 131.08 991.97 130.981 992.046 130.907C992.148 130.807 992.263 130.758 992.39 130.758H995.906C996.033 130.758 996.135 130.807 996.212 130.907C996.314 130.981 996.365 131.08 996.365 131.204V141.465C996.365 141.564 996.39 141.626 996.441 141.651C996.492 141.651 996.543 141.613 996.594 141.539L1002.33 131.093C1002.45 130.869 1002.64 130.758 1002.9 130.758H1006.68C1006.86 130.758 1006.98 130.807 1007.03 130.907C1007.08 131.006 1007.07 131.13 1006.99 131.278L1001.26 141.725C1001.23 141.824 1001.22 141.899 1001.22 141.948L1007.41 156.261C1007.43 156.311 1007.45 156.385 1007.45 156.484C1007.45 156.682 1007.32 156.782 1007.07 156.782H1003.28C1003 156.782 1002.82 156.67 1002.75 156.447L998.237 145.703C998.212 145.629 998.174 145.604 998.123 145.629C998.072 145.629 998.021 145.653 997.97 145.703L996.441 148.194C996.39 148.293 996.365 148.367 996.365 148.417V156.335C996.365 156.459 996.314 156.571 996.212 156.67C996.135 156.744 996.033 156.782 995.906 156.782H992.39Z" fill="#CA8F65"/>
<path d="M1023.48 134.029C1023.48 134.153 1023.43 134.265 1023.33 134.364C1023.25 134.438 1023.15 134.476 1023.02 134.476H1014.77C1014.64 134.476 1014.58 134.538 1014.58 134.661V141.688C1014.58 141.812 1014.64 141.874 1014.77 141.874H1019.66C1019.79 141.874 1019.89 141.923 1019.97 142.022C1020.07 142.097 1020.12 142.196 1020.12 142.32V145.182C1020.12 145.306 1020.07 145.418 1019.97 145.517C1019.89 145.591 1019.79 145.629 1019.66 145.629H1014.77C1014.64 145.629 1014.58 145.691 1014.58 145.814V152.878C1014.58 153.002 1014.64 153.064 1014.77 153.064H1023.02C1023.15 153.064 1023.25 153.113 1023.33 153.213C1023.43 153.287 1023.48 153.386 1023.48 153.51V156.335C1023.48 156.459 1023.43 156.571 1023.33 156.67C1023.25 156.744 1023.15 156.782 1023.02 156.782H1010.6C1010.48 156.782 1010.36 156.744 1010.26 156.67C1010.18 156.571 1010.14 156.459 1010.14 156.335V131.204C1010.14 131.08 1010.18 130.981 1010.26 130.907C1010.36 130.807 1010.48 130.758 1010.6 130.758H1023.02C1023.15 130.758 1023.25 130.807 1023.33 130.907C1023.43 130.981 1023.48 131.08 1023.48 131.204V134.029Z" fill="#CA8F65"/>
<path d="M1031.64 156.744C1031.52 156.744 1031.4 156.707 1031.3 156.633C1031.22 156.534 1031.19 156.422 1031.19 156.298V146.149L1031.15 145.926L1025.84 131.278C1025.81 131.229 1025.8 131.167 1025.8 131.093C1025.8 130.869 1025.94 130.758 1026.22 130.758H1029.89C1030.17 130.758 1030.34 130.882 1030.42 131.13L1033.29 140.684C1033.31 140.758 1033.35 140.796 1033.4 140.796C1033.45 140.796 1033.49 140.758 1033.52 140.684L1036.38 131.13C1036.46 130.882 1036.64 130.758 1036.92 130.758H1040.59C1040.74 130.758 1040.85 130.807 1040.93 130.907C1041.01 130.981 1041.02 131.105 1040.97 131.278L1035.66 145.926L1035.62 146.149V156.298C1035.62 156.422 1035.57 156.534 1035.47 156.633C1035.39 156.707 1035.29 156.744 1035.16 156.744H1031.64Z" fill="#CA8F65"/>
<path d="M985.526 105.538C984.506 104.833 983.781 103.228 983.781 103.228C983.781 103.228 986.939 102.317 988.268 99.0452C988.368 98.7995 988.455 98.5485 988.528 98.2933C988.75 97.5028 988.858 96.684 988.848 95.8623C988.848 95.8623 989.806 95.8934 989.785 98.4095C989.785 98.5334 989.78 98.6625 989.775 98.7975C989.772 98.8791 989.769 98.9618 989.769 99.0452C989.764 99.7665 989.861 100.585 990.01 101.41C989.555 102.299 988.584 103.792 987.116 104.73C988.235 104.58 989.452 104.091 990.462 103.424C990.908 105.13 991.406 106.485 991.406 106.485C991.406 106.485 991.066 112.46 989.082 119.619C989.076 119.64 989.071 119.663 989.063 119.686C988.737 120.86 988.367 122.062 987.945 123.275C989.563 122.854 991.143 122.29 992.664 121.589V121.589C993.167 120.423 993.636 119.271 994.071 118.134C994.22 117.747 994.361 117.362 994.505 116.981C995.59 114.037 996.515 111.035 997.275 107.989L994.346 108.47C994.815 107.656 995.418 102.417 993.674 100.44C993.759 100.499 996.65 102.49 996.318 106.548L999.213 106.058C999.294 106.698 998.187 110.723 996.227 115.774C995.983 116.403 995.725 117.046 995.454 117.705C995.027 118.744 994.568 119.811 994.078 120.888C1003.34 115.992 1009.68 106.172 1009.68 94.8827C1009.68 82.9006 1002.54 72.5724 992.341 68.0313C992.261 69.1166 992.196 70.3074 992.145 71.439C1000.67 75.7148 1006.55 84.6173 1006.55 94.8827C1006.55 97.7236 1006.09 100.546 1005.19 103.237C1003.47 101.288 999.415 99.8792 994.313 99.0111L994.987 95.0611L987.522 92.7639C988.88 90.8769 989.78 87.7474 989.916 85.3099C991.379 84.3004 991.338 82.2902 991.338 82.2902C998.58 80.0857 1000.82 76.2483 989.006 78.5291C986.4 79.0321 983.07 79.2581 979.812 79.2058C979.542 79.2029 979.273 79.1965 979.004 79.1882C978.548 79.1753 978.096 79.1558 977.648 79.1296C976.974 79.0926 976.31 79.0433 975.667 78.9816C974.512 78.8707 973.417 78.7187 972.427 78.528C960.616 76.2472 962.851 80.0845 970.093 82.289C970.093 82.289 970.052 84.2992 971.517 85.3087C971.652 87.7451 972.552 90.8746 973.909 92.7627L966.445 95.0599L967.12 99.0088C962.016 99.8757 957.957 101.283 956.238 103.235C955.339 100.544 954.882 97.7225 954.885 94.8821C954.885 84.6167 960.759 75.7142 969.286 71.4385C969.235 70.3069 969.17 69.116 969.09 68.0307C958.889 72.5718 951.75 82.9 951.75 94.8821C951.75 106.172 958.089 115.992 967.354 120.888C966.866 119.81 966.407 118.743 965.978 117.704C965.708 117.047 965.45 116.403 965.206 115.774C963.247 110.723 962.141 106.697 962.222 106.057L965.118 106.547C964.784 102.49 967.676 100.497 967.762 100.44C966.018 102.416 966.62 107.655 967.09 108.469L964.159 107.989C964.919 111.035 965.844 114.037 966.93 116.98C967.071 117.362 967.215 117.746 967.363 118.133C967.797 119.267 968.266 120.419 968.771 121.588C970.292 122.288 971.87 122.852 973.488 123.273C973.066 122.058 972.696 120.855 972.37 119.682C972.366 119.659 972.359 119.638 972.353 119.617C970.369 112.456 970.033 106.483 970.033 106.483C970.033 106.483 970.53 105.128 970.976 103.422C971.986 104.089 973.204 104.579 974.321 104.728C972.855 103.789 971.885 102.297 971.429 101.408C971.576 100.583 971.673 99.7647 971.669 99.0434C971.669 98.9601 971.665 98.8773 971.662 98.7957C971.657 98.6607 971.654 98.5314 971.652 98.4078C971.633 95.8916 972.591 95.8605 972.591 95.8605C972.581 96.6823 972.689 97.5011 972.911 98.2916C972.984 98.5467 973.071 98.7976 973.17 99.0434C974.499 102.316 977.658 103.226 977.658 103.226C977.658 103.226 976.933 104.829 975.913 105.536C975.146 106.064 979 108.96 979 108.96C979.092 113.044 979.409 117.156 979.817 121.008C979.852 121.347 979.888 121.685 979.926 122.021C980.009 122.756 980.093 123.48 980.179 124.193C980.359 124.195 980.54 124.197 980.721 124.197C980.903 124.197 981.083 124.197 981.264 124.193C981.351 123.48 981.435 122.756 981.517 122.021C981.555 121.685 981.592 121.347 981.627 121.008C982.033 117.156 982.35 113.044 982.442 108.96C982.442 108.96 986.296 106.067 985.53 105.536L985.526 105.538ZM979.311 94.3991C976.995 93.9677 974.174 90.8822 973.437 86.2149C973.124 84.2194 972.928 82.2931 974.894 82.4158C976.124 82.4897 977.93 83.8743 979.138 82.4158C980.346 80.9572 981.473 81.877 981.473 81.877L981.441 86.2789C981.209 86.4943 980.497 86.6769 979.849 86.2367C979.201 85.7965 978.969 86.1386 978.969 86.1386V86.8905C979.541 86.8952 980.218 87.2198 980.339 87.6946C980.184 87.631 980.019 87.5977 979.852 87.5966C978.599 87.5966 978.138 89.0821 977.367 89.0703C977.077 89.0656 976.734 88.9453 976.583 88.518C976.116 88.9976 976.344 90.01 977.717 90.01C978.459 90.01 979.604 89.7752 980.721 89.1296C981.091 89.3433 981.812 89.6778 981.812 89.7042C981.272 91.0905 978.899 90.3956 978.899 90.3956C978.899 90.6955 979.079 91.3805 980.175 91.6123C982.869 92.1869 982.023 94.9073 979.306 94.4008L979.311 94.3991ZM970.656 67.3892C970.741 68.4293 970.811 69.5879 970.865 70.7148C971.006 73.5637 971.059 76.2119 971.059 76.2119H975.566L975.315 69.3161L975.199 66.0998L975.1 63.421C975.002 62.3334 975.197 60.1865 973.128 60.5239C972.859 60.5774 972.616 60.6337 972.403 60.6953C969.223 61.6145 970.003 62.3974 970.422 65.2082C970.51 65.8081 970.589 66.5593 970.656 67.3892ZM979.007 60.0192C978.548 60.0303 978.094 60.0462 977.651 60.0661V76.2119H979.007V60.0192ZM990.568 70.7148C990.626 69.5879 990.692 68.4293 990.778 67.3892C990.847 66.5593 990.924 65.8081 991.015 65.2082C991.434 62.3962 992.214 61.6145 989.031 60.6953C987.277 60.1906 983.453 59.9599 979.814 60.0057V76.2119H990.374C990.374 76.2119 990.426 73.5637 990.566 70.7148H990.568ZM987.497 82.5813C987.497 82.5813 988.048 84.7294 986.506 86.6898C985.288 88.2357 983.635 84.0985 983.366 82.924C985.074 83.0972 986.419 82.1364 987.495 82.5813H987.497Z" fill="#CA8F65"/>
<path fill-rule="evenodd" clip-rule="evenodd" d="M937.69 109.731C937.806 109.779 937.917 109.838 938.023 109.905C938.125 109.969 938.222 110.043 938.312 110.124C938.394 110.197 938.468 110.279 938.534 110.369L938.569 110.416H938.787L939.224 109H934.963L934.526 110.416H934.809L934.843 110.381C934.938 110.282 935.041 110.191 935.151 110.11C935.264 110.025 935.383 109.951 935.508 109.886C935.633 109.821 935.762 109.767 935.896 109.723C935.984 109.694 936.075 109.67 936.166 109.652V114.588L935.715 114.973L935.673 115.009V115.263H937.977V115.009L937.484 114.588V109.662C937.554 109.681 937.623 109.704 937.69 109.731V109.731Z" fill="#CA8F65"/>
<path d="M947.053 117.934H922V119.5H947.053V117.934Z" fill="#CA8F65"/>
<path fill-rule="evenodd" clip-rule="evenodd" d="M922.045 114.974L922 115.01V115.263H926.513L926.697 113.82H926.475L926.405 113.841L925.213 114.632H923.968V112.553H925.673L926.033 111.626L923.968 111.905V109.631H925.2L925.852 110.433H926.076L926.629 109H922V109.253L922.536 109.686V114.577L922.045 114.974Z" fill="#CA8F65"/>
<path fill-rule="evenodd" clip-rule="evenodd" d="M931.18 114.476C931.046 114.541 930.9 114.587 930.749 114.612C930.569 114.643 930.386 114.659 930.203 114.659L928.962 113.747L928.874 113.719H928.686L928.263 114.872L928.368 114.915C928.928 115.147 929.621 115.263 930.441 115.263C930.677 115.264 930.912 115.247 931.144 115.212C931.354 115.181 931.56 115.13 931.757 115.059C931.938 114.996 932.109 114.913 932.265 114.813C932.41 114.718 932.539 114.605 932.645 114.478C932.749 114.354 932.828 114.217 932.881 114.072C932.997 113.749 932.986 113.403 932.848 113.087C932.768 112.901 932.658 112.726 932.521 112.566C932.361 112.379 932.174 112.21 931.965 112.063C931.721 111.891 931.46 111.736 931.184 111.603C930.974 111.498 930.788 111.402 930.629 111.315C930.47 111.227 930.329 111.147 930.22 111.072C930.12 111.009 930.025 110.94 929.938 110.864C929.869 110.805 929.809 110.739 929.757 110.668C929.714 110.607 929.681 110.541 929.659 110.472C929.637 110.401 929.626 110.328 929.627 110.254C929.622 110.16 929.647 110.066 929.701 109.984C929.754 109.901 929.833 109.833 929.929 109.786C930.048 109.725 930.178 109.68 930.314 109.653C930.459 109.625 930.606 109.61 930.755 109.608L931.95 110.776H932.202L932.678 109.468L932.589 109.421C932.455 109.352 932.315 109.291 932.17 109.241C932.016 109.187 931.859 109.143 931.698 109.108C931.528 109.072 931.357 109.045 931.183 109.027C931.003 109.009 930.822 109 930.641 109C930.428 108.999 930.216 109.018 930.008 109.056C929.814 109.091 929.626 109.147 929.448 109.223C929.281 109.294 929.126 109.384 928.986 109.49C928.851 109.593 928.734 109.712 928.64 109.845C928.545 109.975 928.473 110.116 928.425 110.264C928.377 110.415 928.353 110.571 928.353 110.727C928.351 111.078 928.473 111.422 928.702 111.713C928.828 111.871 928.979 112.013 929.15 112.137C929.345 112.279 929.557 112.403 929.781 112.509C929.999 112.615 930.195 112.717 930.369 112.814C930.543 112.91 930.696 113.004 930.827 113.094C930.942 113.171 931.051 113.255 931.153 113.345C931.232 113.414 931.302 113.49 931.362 113.572C931.457 113.7 931.509 113.848 931.511 114C931.514 114.095 931.487 114.189 931.432 114.272C931.37 114.358 931.283 114.428 931.18 114.476V114.476Z" fill="#CA8F65"/>
<path fill-rule="evenodd" clip-rule="evenodd" d="M940.838 114.972L940.789 115.009V115.263H942.876C943.28 115.265 943.684 115.236 944.082 115.177C944.434 115.124 944.778 115.036 945.109 114.915C945.407 114.806 945.687 114.657 945.939 114.475C946.179 114.299 946.387 114.089 946.553 113.853C946.724 113.609 946.851 113.343 946.929 113.063C947.014 112.754 947.055 112.438 947.053 112.12C947.054 111.804 947.012 111.49 946.925 111.184C946.844 110.905 946.715 110.641 946.542 110.399C946.374 110.166 946.165 109.958 945.925 109.784C945.672 109.603 945.393 109.455 945.095 109.346C944.766 109.226 944.423 109.138 944.073 109.086C943.677 109.027 943.276 108.998 942.874 109H940.791V109.253L941.358 109.686V114.587L940.838 114.972ZM942.881 109.631C943.105 109.633 943.329 109.658 943.547 109.707C943.767 109.756 943.979 109.833 944.177 109.934C944.371 110.033 944.548 110.157 944.704 110.302C944.862 110.45 944.997 110.618 945.104 110.799C945.219 110.991 945.305 111.197 945.36 111.41C945.418 111.643 945.446 111.881 945.444 112.12C945.446 112.359 945.418 112.598 945.36 112.832C945.305 113.046 945.219 113.253 945.105 113.447C944.998 113.631 944.864 113.8 944.706 113.951C944.551 114.097 944.374 114.223 944.179 114.323C943.981 114.426 943.768 114.504 943.546 114.555C943.328 114.604 943.105 114.63 942.881 114.632V109.631Z" fill="#CA8F65"/>
<path d="M947.053 105.408H922V106.974H947.053V105.408Z" fill="#CA8F65"/>
<path fill-rule="evenodd" clip-rule="evenodd" d="M1024.78 114.465C1024.97 114.64 1025.2 114.79 1025.44 114.91C1025.67 115.023 1025.91 115.112 1026.16 115.174C1026.41 115.233 1026.65 115.263 1026.9 115.263C1027.15 115.263 1027.4 115.232 1027.64 115.173C1027.9 115.109 1028.14 115.019 1028.37 114.904C1028.61 114.782 1028.84 114.63 1029.03 114.451C1029.24 114.261 1029.42 114.049 1029.57 113.821C1029.73 113.57 1029.85 113.3 1029.92 113.019C1030 112.707 1030.04 112.387 1030.04 112.068C1030.04 111.761 1030 111.454 1029.92 111.156C1029.85 110.884 1029.73 110.624 1029.57 110.384C1029.42 110.163 1029.24 109.959 1029.04 109.778C1028.84 109.606 1028.62 109.461 1028.37 109.344C1028.14 109.233 1027.9 109.147 1027.65 109.086C1027.4 109.029 1027.15 109 1026.9 109C1026.65 109 1026.4 109.03 1026.16 109.088C1025.91 109.149 1025.67 109.236 1025.44 109.348C1025.19 109.466 1024.97 109.615 1024.78 109.789C1024.57 109.974 1024.39 110.182 1024.24 110.408C1024.08 110.655 1023.96 110.922 1023.89 111.2C1023.81 111.511 1023.77 111.828 1023.78 112.146C1023.77 112.456 1023.81 112.765 1023.89 113.067C1023.97 113.341 1024.09 113.605 1024.25 113.85C1024.39 114.073 1024.57 114.28 1024.78 114.465V114.465ZM1025.19 110.986C1025.23 110.825 1025.28 110.669 1025.36 110.518C1025.43 110.371 1025.52 110.232 1025.63 110.105C1025.73 109.99 1025.84 109.886 1025.97 109.793C1026.15 109.82 1026.32 109.862 1026.49 109.918C1026.67 109.98 1026.85 110.059 1027.02 110.154C1027.19 110.248 1027.35 110.355 1027.5 110.474C1027.65 110.594 1027.79 110.725 1027.91 110.866C1028.03 111.005 1028.14 111.153 1028.24 111.307C1028.33 111.46 1028.41 111.619 1028.48 111.782C1028.54 111.946 1028.59 112.115 1028.62 112.286C1028.66 112.452 1028.67 112.62 1028.67 112.789C1028.67 112.956 1028.66 113.122 1028.62 113.286C1028.58 113.446 1028.53 113.602 1028.46 113.752C1028.33 114.031 1028.12 114.28 1027.86 114.479C1027.48 114.425 1027.11 114.304 1026.78 114.124C1026.61 114.03 1026.45 113.923 1026.3 113.804C1026.15 113.686 1026.01 113.556 1025.89 113.416C1025.77 113.277 1025.67 113.129 1025.57 112.974C1025.48 112.821 1025.4 112.661 1025.34 112.496C1025.27 112.332 1025.22 112.164 1025.19 111.993C1025.16 111.826 1025.14 111.658 1025.14 111.489C1025.14 111.32 1025.16 111.152 1025.19 110.986V110.986Z" fill="#CA8F65"/>
<path fill-rule="evenodd" clip-rule="evenodd" d="M1020.9 113.169C1021.04 113.007 1021.17 112.835 1021.29 112.653C1021.4 112.48 1021.5 112.298 1021.58 112.109C1021.66 111.929 1021.73 111.741 1021.77 111.55C1021.81 111.366 1021.83 111.178 1021.83 110.99C1021.83 110.801 1021.81 110.613 1021.77 110.429C1021.73 110.257 1021.66 110.092 1021.57 109.938C1021.49 109.791 1021.38 109.656 1021.26 109.54C1021.13 109.421 1020.99 109.321 1020.83 109.243C1020.67 109.16 1020.49 109.099 1020.31 109.061C1019.71 108.935 1019.09 109.005 1018.53 109.262C1018.34 109.344 1018.17 109.444 1018 109.56C1017.85 109.671 1017.7 109.798 1017.57 109.938L1017.51 110.003L1018.23 111.216H1018.44L1019.64 109.632C1019.69 109.643 1019.74 109.66 1019.79 109.682C1019.86 109.715 1019.92 109.759 1019.98 109.811C1020.04 109.867 1020.1 109.93 1020.15 110C1020.2 110.075 1020.24 110.157 1020.28 110.242C1020.35 110.428 1020.39 110.627 1020.39 110.828C1020.39 111.116 1020.35 111.402 1020.28 111.682C1020.21 111.964 1020.1 112.236 1019.96 112.493C1019.82 112.748 1019.67 112.995 1019.5 113.232C1019.35 113.447 1019.18 113.65 1019 113.84C1018.82 114.024 1018.64 114.211 1018.43 114.402C1018.23 114.593 1018.02 114.786 1017.79 114.98L1017.75 115.016V115.263H1022.03L1022.21 113.676L1020.76 113.943H1020.04C1020.17 113.848 1020.3 113.748 1020.42 113.644C1020.59 113.497 1020.75 113.338 1020.9 113.169Z" fill="#CA8F65"/>
<path fill-rule="evenodd" clip-rule="evenodd" d="M1034.99 113.166C1035.13 113.004 1035.27 112.832 1035.38 112.65C1035.5 112.477 1035.6 112.295 1035.68 112.106C1035.76 111.926 1035.82 111.739 1035.86 111.547C1035.9 111.363 1035.92 111.176 1035.92 110.988C1035.93 110.799 1035.9 110.611 1035.86 110.428C1035.82 110.256 1035.75 110.091 1035.67 109.937C1035.58 109.789 1035.48 109.655 1035.35 109.539C1035.23 109.42 1035.08 109.32 1034.93 109.242C1034.76 109.159 1034.59 109.098 1034.41 109.06C1034.21 109.019 1034.01 108.999 1033.81 109C1033.4 109 1032.99 109.089 1032.62 109.261C1032.44 109.343 1032.26 109.443 1032.1 109.559C1031.94 109.67 1031.79 109.796 1031.66 109.937L1031.61 110.001L1032.32 111.214H1032.53L1033.73 109.631C1033.78 109.642 1033.83 109.659 1033.88 109.681C1033.95 109.714 1034.02 109.758 1034.07 109.81C1034.14 109.866 1034.19 109.929 1034.24 109.998C1034.29 110.074 1034.34 110.155 1034.37 110.24C1034.44 110.427 1034.48 110.625 1034.48 110.826C1034.48 111.114 1034.44 111.4 1034.37 111.679C1034.3 111.961 1034.19 112.233 1034.05 112.49C1033.91 112.745 1033.76 112.992 1033.59 113.229C1033.44 113.443 1033.27 113.646 1033.09 113.837C1032.92 114.02 1032.73 114.207 1032.52 114.398C1032.32 114.589 1032.11 114.783 1031.88 114.98L1031.84 115.016V115.263H1036.12L1036.3 113.677L1034.86 113.944H1034.13C1034.26 113.849 1034.39 113.749 1034.51 113.645C1034.68 113.496 1034.84 113.336 1034.99 113.166V113.166Z" fill="#CA8F65"/>
<path fill-rule="evenodd" clip-rule="evenodd" d="M1040.21 109L1040.13 109.02L1037.87 110.334V110.576L1038.87 110.734V114.589L1038.36 114.974L1038.31 115.01V115.263H1041V115.01L1040.43 114.589V109H1040.21Z" fill="#CA8F65"/>
<path d="M1041 105.408H1015.95V106.974H1041V105.408Z" fill="#CA8F65"/>
<path d="M1041 117.934H1015.95V119.5H1041V117.934Z" fill="#CA8F65"/>
</svg>
