<svg width="200" height="200" viewBox="0 0 200 200" fill="none" xmlns="http://www.w3.org/2000/svg">
<rect width="200" height="200" rx="100" fill="#2A2A2A"/>
<path d="M93.6973 93.2752C93.6574 92.9432 93.4972 92.6372 93.247 92.4153C92.9968 92.1933 92.674 92.0706 92.3395 92.0706H70.4591C70.1247 92.0707 69.8019 92.1933 69.5519 92.4153C69.3018 92.6373 69.1418 92.9432 69.102 93.2752L67.6341 105.511C67.2366 108.783 68.0219 112.09 69.8482 114.834C71.6745 117.578 74.4215 119.579 77.5934 120.475L77.1622 139.639L73.0552 143.985C72.8717 144.179 72.7491 144.422 72.7025 144.685C72.656 144.948 72.6875 145.219 72.7932 145.465C72.8989 145.71 73.0742 145.919 73.2973 146.066C73.5205 146.213 73.7818 146.291 74.0489 146.291H88.7505C89.0175 146.291 89.2787 146.212 89.5017 146.065C89.7248 145.919 89.8999 145.71 90.0055 145.464C90.1111 145.219 90.1426 144.948 90.096 144.685C90.0494 144.422 89.9269 144.179 89.7434 143.985L85.6434 139.648L85.2044 120.477C88.3767 119.581 91.1242 117.58 92.9508 114.836C94.7774 112.092 95.5629 108.785 95.1653 105.513L93.6973 93.2752ZM91.127 94.8049L91.888 101.149H70.9114L71.6723 94.8049H91.127ZM77.2208 143.555L79.0669 141.602H83.727L85.5739 143.555H77.2208ZM82.8887 138.867H79.9145L80.3177 120.969C80.677 120.997 81.0364 121.027 81.3997 121.027C81.763 121.027 82.1216 120.997 82.4809 120.969L82.8887 138.867ZM89.7231 114.549C88.149 116.322 86.0499 117.547 83.7315 118.043C81.4132 118.54 78.9968 118.283 76.8344 117.311C74.6721 116.339 72.8767 114.701 71.71 112.637C70.5433 110.573 70.0662 108.19 70.3481 105.836L70.5825 103.883H92.2153L92.4497 105.836C92.6367 107.399 92.4905 108.983 92.021 110.485C91.5514 111.986 90.7691 113.372 89.7255 114.549H89.7231Z" fill="#F4DECE"/>
<path d="M126.392 79.2484C126.364 79.2164 126.333 79.1859 126.301 79.157C124.643 77.6563 123.317 75.825 122.41 73.781C121.502 71.7369 121.033 69.5255 121.032 67.2891V61.1125C121.357 61.0665 121.654 60.905 121.869 60.6576C122.085 60.4102 122.203 60.0935 122.204 59.7656V55.0781C122.204 54.7155 122.06 54.3678 121.804 54.1114C121.547 53.855 121.2 53.7109 120.837 53.7109H109.118C108.939 53.7108 108.761 53.7461 108.595 53.8148C108.429 53.8835 108.278 53.9842 108.151 54.1111C108.024 54.2381 107.924 54.3889 107.855 54.5548C107.786 54.7207 107.751 54.8986 107.751 55.0781V59.7656C107.751 60.0937 107.87 60.4107 108.085 60.6582C108.301 60.9058 108.598 61.0674 108.923 61.1133V67.832C108.928 69.9279 108.519 72.0041 107.721 73.9417C106.922 75.8793 105.748 77.6402 104.267 79.1234L104.086 79.3063C102.353 81.0425 100.979 83.1037 100.043 85.3717C99.1077 87.6397 98.6287 90.07 98.6338 92.5234V140.234C98.6357 141.84 99.2742 143.379 100.409 144.514C101.544 145.649 103.083 146.287 104.689 146.289H126.415C128.02 146.287 129.559 145.649 130.694 144.514C131.829 143.379 132.468 141.84 132.47 140.234V93.0625C132.469 90.4646 131.928 87.8953 130.882 85.5174C129.835 83.1394 128.307 81.0047 126.392 79.2484V79.2484ZM101.368 101.367H107.652C107.881 101.367 108.107 101.309 108.309 101.199C108.51 101.089 108.68 100.929 108.804 100.736C109.526 99.5998 110.522 98.6643 111.702 98.0161C112.881 97.3679 114.205 97.028 115.551 97.028C116.897 97.028 118.221 97.3679 119.4 98.0161C120.58 98.6643 121.576 99.5998 122.298 100.736C122.421 100.929 122.592 101.089 122.793 101.199C122.994 101.309 123.22 101.367 123.449 101.367H129.735V129.734H123.449C123.22 129.734 122.994 129.792 122.793 129.902C122.592 130.012 122.421 130.171 122.298 130.365C121.577 131.501 120.58 132.437 119.401 133.085C118.221 133.733 116.897 134.073 115.551 134.073C114.206 134.073 112.882 133.733 111.702 133.085C110.523 132.437 109.526 131.501 108.805 130.365C108.681 130.172 108.511 130.012 108.309 129.902C108.108 129.792 107.882 129.734 107.653 129.734H101.368V101.367ZM110.483 56.4453H119.467V58.3984H110.483V56.4453ZM106.024 81.232L106.206 81.0492C107.939 79.3125 109.313 77.2507 110.249 74.9819C111.184 72.7132 111.663 70.2822 111.657 67.8281V61.1328H118.298V67.2891C118.299 69.8871 118.84 72.4566 119.886 74.8347C120.933 77.2128 122.462 79.3476 124.376 81.1039C124.405 81.1352 124.435 81.1656 124.467 81.1945C126.125 82.6953 127.451 84.5267 128.358 86.5707C129.265 88.6147 129.735 90.8261 129.735 93.0625V98.6328H124.167C123.169 97.2869 121.87 96.1934 120.374 95.4399C118.878 94.6864 117.226 94.294 115.551 94.294C113.875 94.294 112.223 94.6864 110.727 95.4399C109.231 96.1934 107.932 97.2869 106.935 98.6328H101.368V92.5234C101.363 90.4276 101.772 88.3514 102.571 86.4137C103.369 84.4761 104.543 82.7152 106.024 81.232V81.232ZM126.414 143.555H104.689C103.808 143.554 102.964 143.204 102.342 142.581C101.719 141.959 101.369 141.115 101.368 140.234V132.469H106.935C107.933 133.815 109.232 134.908 110.728 135.661C112.224 136.415 113.876 136.807 115.551 136.807C117.226 136.807 118.878 136.415 120.374 135.661C121.87 134.908 123.169 133.815 124.167 132.469H129.735V140.234C129.734 141.115 129.384 141.959 128.762 142.581C128.139 143.204 127.295 143.554 126.415 143.555H126.414Z" fill="#F4DECE"/>
<path d="M121.058 84.4249C121.325 84.6646 121.674 84.7901 122.032 84.7745C122.39 84.759 122.728 84.6035 122.972 84.3416C123.217 84.0797 123.349 83.7323 123.34 83.3742C123.331 83.016 123.181 82.6757 122.924 82.4265C121.791 81.3693 120.781 80.1885 119.911 78.9062C119.811 78.7574 119.682 78.6299 119.532 78.531C119.382 78.432 119.214 78.3636 119.038 78.3295C118.862 78.2954 118.68 78.2965 118.504 78.3325C118.329 78.3685 118.161 78.4388 118.013 78.5394C117.864 78.64 117.736 78.7689 117.637 78.9187C117.538 79.0686 117.47 79.2365 117.436 79.4128C117.402 79.5891 117.403 79.7704 117.439 79.9464C117.475 80.1223 117.545 80.2894 117.646 80.4382C118.63 81.8908 119.775 83.2281 121.058 84.4249V84.4249Z" fill="#F4DECE"/>
<path d="M115.547 123.168C117.053 123.168 118.526 122.721 119.779 121.884C121.031 121.047 122.008 119.857 122.584 118.466C123.161 117.074 123.312 115.542 123.018 114.065C122.724 112.587 121.998 111.23 120.933 110.164C119.868 109.099 118.51 108.374 117.033 108.08C115.555 107.786 114.024 107.937 112.632 108.513C111.24 109.09 110.05 110.066 109.213 111.319C108.376 112.571 107.93 114.044 107.93 115.551C107.932 117.57 108.735 119.506 110.163 120.934C111.591 122.362 113.527 123.165 115.547 123.168V123.168ZM115.547 110.668C116.513 110.668 117.457 110.954 118.26 111.491C119.063 112.027 119.688 112.79 120.058 113.682C120.428 114.574 120.524 115.556 120.336 116.503C120.147 117.45 119.682 118.32 119 119.003C118.317 119.686 117.447 120.151 116.499 120.34C115.552 120.528 114.571 120.431 113.678 120.062C112.786 119.692 112.023 119.066 111.487 118.263C110.95 117.46 110.664 116.516 110.664 115.551C110.666 114.256 111.18 113.015 112.096 112.099C113.011 111.184 114.252 110.669 115.547 110.668V110.668Z" fill="#F4DECE"/>
</svg>
