<svg width="1920" height="36" viewBox="0 0 1920 36" fill="none" xmlns="http://www.w3.org/2000/svg">
<g clip-path="url(#clip0_280_2367)">
<path fill-rule="evenodd" clip-rule="evenodd" d="M1918.28 -1445.39H1920V14.3853H1918.28C1918.15 17.8738 1917.48 19.0305 1916.87 16.4087C1916.4 14.7603 1914.66 14.0413 1914.66 15.5317C1914.66 16.0051 1914.07 16.356 1912.92 16.3206C1911.77 16.2859 1911.33 16.6541 1911.59 17.4429C1912.18 19.0913 1905.42 19.8982 1903.24 18.46C1902.04 17.6536 1900.73 17.6184 1897.24 18.3025C1894.06 18.8333 1890.83 19.0391 1887.6 18.916C1875.1 18.2498 1856.49 17.8464 1833.39 17.7236C1819.76 17.6536 1808.58 17.3027 1808.58 16.9343C1808.62 16.1106 1798.49 16.356 1793.87 17.2849C1792.37 17.8174 1790.73 17.8174 1789.23 17.2849C1788.64 16.8293 1786.65 16.8115 1783.84 17.2849C1775.35 18.7231 1772.13 18.7405 1739.95 17.583C1736.34 17.4604 1729.84 17.5308 1725.55 17.741L1714.86 18.2498C1713.39 18.303 1711.93 18.5566 1710.52 19.0034C1710.08 19.1968 1709.6 19.261 1709.13 19.1899C1708.66 19.1184 1708.22 18.9141 1707.85 18.6006C1706.88 17.7764 1706.08 17.8289 1703.58 18.9512C1701.67 19.7927 1700.43 20.0557 1700.24 19.4421C1700.04 18.8286 1699.22 18.7581 1696.99 19.3193C1694.76 19.8804 1693.79 19.6523 1693.42 19.0212C1693.05 18.3899 1691.57 18.1619 1690.07 18.3899C1688.57 18.6179 1683.1 18.9512 1677.87 19.1086C1674.43 19.0596 1671 19.3884 1667.64 20.0908C1667.29 20.2725 1666.9 20.3557 1666.51 20.3311C1666.12 20.3064 1665.74 20.175 1665.42 19.9504C1665.01 19.6504 1664.49 19.5232 1663.99 19.5947C1663.48 19.6667 1663.02 19.9324 1662.7 20.3364C1661.27 21.7041 1659.49 21.7214 1660.12 20.687C1660.75 19.6523 1657.73 19.6523 1656.64 20.687C1656.04 21.2659 1655.15 21.2305 1653.6 20.5645C1652.33 20.0464 1650.98 19.7214 1649.61 19.6001C1648.13 19.5647 1648.02 19.7048 1649 20.4065C1649.65 20.8625 1649.82 21.248 1649.35 21.248C1648.67 21.1055 1648.06 20.7417 1647.61 20.2136C1646.87 19.5122 1646.61 19.7227 1646.61 20.2136C1646.61 20.7046 1645.43 21.7566 1644.01 22.4583C1641.68 23.6858 1641.31 23.6858 1640.14 22.4583C1639.34 21.6167 1639.27 21.1079 1639.85 21.1252C1640.42 21.1431 1640.86 20.8625 1640.86 20.5291C1640.86 20.1963 1638.07 19.9683 1634.71 20.0383C1631.34 20.1084 1628.53 20.4763 1628.52 20.915C1628.5 21.3533 1628.81 21.6692 1629.49 21.6868C1630.17 21.7041 1630.19 21.9321 1629.49 22.5984C1628.06 23.9485 1625.83 22.8616 1626.53 21.1079C1627 19.9504 1626.77 19.8103 1625.12 20.2136C1620.9 21.2832 1613.04 21.4585 1612.5 20.5117C1611.76 19.1267 1610.25 19.2842 1610.75 20.7046C1611.08 21.6692 1610.23 21.8267 1606.53 21.6687C1603.57 21.5461 1601.76 21.8267 1601.53 22.4583C1601.06 23.6152 1598.04 23.6858 1598.04 22.4583C1598.06 22.0195 1598.64 21.6514 1599.3 21.6687C1599.96 21.6868 1600.54 21.4585 1600.55 20.7925C1600.57 20.1257 1598.45 19.9683 1594.16 20.1257C1586.5 20.4417 1585.11 20.5991 1582.86 21.7742C1580.61 22.949 1574.35 23.563 1573.83 22.6685C1573.59 22.2302 1574.02 21.564 1574.86 21.1252C1576.04 20.4763 1575.75 20.2136 1573.27 20.2136C1571.16 20.1257 1569.98 20.5469 1569.42 21.4761C1568.72 22.6685 1568.22 22.5635 1567.21 21.634C1566.19 20.7046 1565.74 20.6345 1565.46 21.3706C1564.97 22.5457 1561.98 22.6335 1560.23 21.5112C1559.41 20.9851 1558.51 21.1606 1557.5 22.0374C1556.15 23.2124 1555.89 23.0718 1555.28 22.1423C1554.67 21.2131 1551.45 20.8972 1537.24 20.3889C1527.39 20.0383 1519.49 19.4067 1518.95 18.9333C1517.87 18.0044 1513.72 18.46 1512.97 19.6001C1511.7 20.1909 1510.28 20.4097 1508.89 20.231C1507.52 20.061 1506.12 20.2668 1504.85 20.8271C1504.6 21.2131 1503.38 21.3533 1501.92 21.0906C1500.46 20.8271 1499.41 21.0205 1499.41 21.564C1499.4 21.7983 1499.3 22.0205 1499.14 22.1868C1498.97 22.3523 1498.75 22.4495 1498.52 22.4583C1498.01 22.4409 1497.89 22.0547 1498.17 21.6167C1498.45 21.178 1497.86 20.7571 1496.88 20.7571C1495.71 20.6553 1494.6 20.1826 1493.71 19.4067C1492.16 17.9517 1489.58 18.5652 1489.58 20.3188C1489.54 21.248 1488.84 21.4585 1487.28 21.248C1486.17 21.0688 1485.04 21.1711 1483.98 21.5461C1483.41 21.8794 1482.97 21.7566 1482.97 21.2659C1482.97 21.1548 1482.99 21.0442 1483.03 20.9407C1483.07 20.8379 1483.13 20.7437 1483.21 20.6653C1483.29 20.5867 1483.38 20.5247 1483.48 20.4832C1483.59 20.4417 1483.7 20.4219 1483.81 20.4238C1483.89 20.4314 1483.97 20.4258 1484.05 20.4075C1484.08 20.4011 1484.11 20.3933 1484.13 20.3843C1484.24 20.3479 1484.33 20.2896 1484.41 20.2131C1484.44 20.1902 1484.46 20.1658 1484.48 20.1399C1484.53 20.0801 1484.57 20.0134 1484.6 19.9421C1484.63 19.8623 1484.65 19.7778 1484.66 19.6919C1484.66 19.6672 1484.66 19.6426 1484.66 19.6174C1484.68 18.46 1473.68 18.2498 1469.7 19.3367C1467.54 19.9329 1466.67 20.7744 1466.86 21.3533C1467.05 21.9321 1466.9 22.4583 1466.55 22.4583C1466.52 22.4526 1466.48 22.4458 1466.45 22.4375C1466.37 22.4172 1466.3 22.3892 1466.22 22.3538C1466.12 22.3027 1466.02 22.2358 1465.93 22.1553C1465.76 21.9968 1465.63 21.7915 1465.57 21.564C1465.4 20.9678 1464.77 20.8799 1463.11 21.4585C1461.46 22.0374 1460.69 21.9321 1459.99 21.0378C1458.6 19.2842 1455.83 19.4421 1455.29 21.3359C1455.15 21.7871 1454.88 22.1843 1454.51 22.4707C1454.13 22.7573 1453.68 22.9187 1453.21 22.9316C1452.18 22.9143 1451.84 22.5457 1452.18 22.0022C1453.25 20.3364 1451.1 19.9329 1443.05 20.3364C1436.37 20.687 1434.94 21.0024 1433.88 22.4409C1432.38 24.4746 1431.26 24.2114 1431.44 22.5457C1431.61 20.8799 1427.43 20.1785 1420.6 20.8799C1417.37 21.2131 1416.32 21.6167 1416.64 22.4055C1417.16 23.8086 1415.24 24.4221 1411.13 24.1592C1408.31 23.9661 1405.74 22.5283 1408.31 22.5283C1409.09 22.5283 1409.05 22.3354 1408.15 21.8093C1406.23 21.2949 1404.23 21.1523 1402.26 21.3887C1397.24 21.7214 1397.24 21.792 1397.24 26.0352C1397.24 27.3508 1397.13 27.2275 1396.87 26.2285C1396.61 25.2288 1395.6 24.7375 1393.85 24.7375C1391.82 24.6694 1389.8 24.4819 1387.79 24.1768C1386.5 23.824 1385.14 23.8728 1383.88 24.3167C1383.62 24.7554 1381.86 24.7375 1379.91 24.3167C1374.81 23.7202 1369.68 23.4568 1364.55 23.5278C1363.25 23.5259 1362.09 23.5254 1361.05 23.5249H1360.92C1356.56 23.522 1354.31 23.5205 1352.06 23.4612C1349.67 23.3979 1347.28 23.2683 1342.35 23.0027L1342.33 23.0012C1341.09 22.9346 1339.7 22.8586 1338.1 22.7737C1325.46 22.0195 1325.08 22.1248 1325.08 23.7732C1325.06 24.6848 1324.66 25.439 1324.23 25.439C1324 25.4211 1323.79 25.3135 1323.64 25.1394C1323.59 25.0876 1323.55 25.0312 1323.52 24.9714C1323.45 24.8306 1323.41 24.6711 1323.42 24.51C1323.46 23.405 1320.23 20.3716 1318.93 20.3716C1317.26 19.5864 1315.71 18.5647 1314.32 17.3376C1313.06 16.2283 1311.69 15.24 1310.24 14.3853H1310.06C1309.85 14.6038 1309.65 15.5723 1309.65 16.7942C1309.6 18.6179 1309.25 19.2842 1308.19 19.2493C1307.13 19.2141 1307.02 19.4421 1307.75 20.2136C1309.06 21.5986 1308.92 22.5283 1307.46 22.5283C1306.83 22.5107 1306.08 21.6687 1305.82 20.6345C1305.56 19.6001 1304.65 17.1274 1303.81 15.1108C1303.72 14.8699 1303.62 14.6279 1303.53 14.3853H1288.04C1287.91 17.8738 1287.23 19.0305 1286.63 16.4087C1286.16 14.7603 1284.42 14.0413 1284.42 15.5317C1284.42 16.0051 1283.83 16.356 1282.68 16.3206C1281.53 16.2859 1281.09 16.6541 1281.35 17.4429C1281.95 19.0913 1275.19 19.8982 1273.02 18.46C1271.82 17.6536 1270.51 17.6184 1267.03 18.3025C1263.85 18.8333 1260.62 19.0391 1257.4 18.916C1244.92 18.2498 1226.33 17.8464 1203.26 17.7236C1189.65 17.6536 1178.49 17.3027 1178.49 16.9343C1178.52 16.1106 1168.41 16.356 1163.8 17.2849C1162.3 17.8174 1160.66 17.8174 1159.17 17.2849C1158.57 16.8293 1156.59 16.8115 1153.79 17.2849C1145.31 18.7231 1142.09 18.7405 1109.95 17.583C1106.35 17.4604 1099.85 17.5308 1095.57 17.741L1084.9 18.2498C1083.43 18.303 1081.97 18.5566 1080.57 19.0034C1080.13 19.1968 1079.65 19.261 1079.18 19.1899C1078.71 19.1184 1078.26 18.9141 1077.9 18.6006C1076.93 17.7764 1076.13 17.8289 1073.64 18.9512C1071.72 19.7927 1070.49 20.0557 1070.3 19.4421C1070.1 18.8286 1069.29 18.7581 1067.06 19.3193C1064.83 19.8804 1063.85 19.6523 1063.49 19.0212C1063.12 18.3899 1061.64 18.1619 1060.15 18.3899C1058.65 18.6179 1053.18 18.9512 1047.96 19.1086C1044.53 19.0596 1041.1 19.3884 1037.74 20.0908C1037.4 20.2725 1037.01 20.3557 1036.62 20.3311C1036.23 20.3064 1035.85 20.175 1035.53 19.9504C1035.12 19.6504 1034.6 19.5232 1034.1 19.5947C1033.59 19.6667 1033.13 19.9324 1032.82 20.3364C1031.39 21.7041 1029.61 21.7214 1030.24 20.687C1030.87 19.6523 1027.85 19.6523 1026.76 20.687C1026.17 21.2659 1025.28 21.2305 1023.73 20.5645C1022.45 20.0464 1021.11 19.7214 1019.74 19.6001C1018.26 19.5647 1018.16 19.7048 1019.13 20.4065C1019.78 20.8625 1019.95 21.248 1019.48 21.248C1018.8 21.1055 1018.19 20.7417 1017.74 20.2136C1017.01 19.5122 1016.75 19.7227 1016.75 20.2136C1016.75 20.7046 1015.56 21.7566 1014.15 22.4583C1011.82 23.6858 1011.45 23.6858 1010.29 22.4583C1009.49 21.6167 1009.42 21.1079 1009.99 21.1252C1010.57 21.1431 1011 20.8625 1011 20.5291C1011 20.1963 1008.22 19.9683 1004.86 20.0383C1001.5 20.1084 998.695 20.4763 998.677 20.915C998.66 21.3533 998.973 21.6692 999.652 21.6868C1000.33 21.7041 1000.35 21.9321 999.652 22.5984C998.225 23.9485 995.996 22.8616 996.693 21.1079C997.163 19.9504 996.936 19.8103 995.283 20.2136C991.07 21.2832 983.219 21.4585 982.679 20.5117C981.948 19.1267 980.433 19.2842 980.938 20.7046C981.269 21.6692 980.416 21.8267 976.725 21.6687C973.766 21.5461 971.955 21.8267 971.729 22.4583C971.259 23.6152 968.247 23.6858 968.247 22.4583C968.265 22.0195 968.839 21.6514 969.501 21.6687C970.162 21.6868 970.737 21.4585 970.754 20.7925C970.771 20.1257 968.648 19.9683 964.365 20.1257C956.723 20.4417 955.33 20.5991 953.084 21.7742C950.839 22.949 944.589 23.563 944.067 22.6685C943.823 22.2302 944.258 21.564 945.094 21.1252C946.278 20.4763 945.982 20.2136 943.51 20.2136C941.404 20.1257 940.22 20.5469 939.663 21.4761C938.966 22.6685 938.462 22.5635 937.452 21.634C936.442 20.7046 935.99 20.6345 935.711 21.3706C935.224 22.5457 932.229 22.6335 930.488 21.5112C929.67 20.9851 928.765 21.1606 927.755 22.0374C926.415 23.2124 926.154 23.0718 925.544 22.1423C924.935 21.2131 921.715 20.8972 907.527 20.3889C897.691 20.0383 889.805 19.4067 889.265 18.9333C888.186 18.0044 884.043 18.46 883.294 19.6001C882.022 20.1909 880.61 20.4097 879.221 20.231C877.846 20.061 876.451 20.2668 875.182 20.8271C874.938 21.2131 873.72 21.3533 872.257 21.0906C870.795 20.8271 869.75 21.0205 869.75 21.564C869.742 21.7983 869.646 22.0205 869.481 22.1868C869.316 22.3523 869.095 22.4495 868.863 22.4583C868.358 22.4409 868.236 22.0547 868.514 21.6167C868.793 21.178 868.201 20.7571 867.226 20.7571C866.055 20.6553 864.946 20.1826 864.058 19.4067C862.509 17.9517 859.932 18.5652 859.932 20.3188C859.897 21.248 859.201 21.4585 857.634 21.248C856.53 21.0688 855.399 21.1711 854.344 21.5461C853.77 21.8794 853.334 21.7566 853.334 21.2659C853.333 21.2188 853.336 21.1716 853.343 21.125C853.353 21.062 853.37 21.0002 853.393 20.9407C853.434 20.8379 853.496 20.7437 853.574 20.6653C853.652 20.5867 853.745 20.5247 853.847 20.4832C853.905 20.4597 853.965 20.4431 854.026 20.4336C854.074 20.4263 854.122 20.4231 854.17 20.4238C854.28 20.4338 854.391 20.4204 854.495 20.3843C854.6 20.3479 854.695 20.2896 854.776 20.2131C854.857 20.1372 854.92 20.0444 854.963 19.9421C855.005 19.8391 855.026 19.7285 855.023 19.6174C855.04 18.46 844.056 18.2498 840.087 19.3367C837.928 19.9329 837.057 20.7744 837.249 21.3533C837.44 21.9321 837.284 22.4583 836.936 22.4583C836.705 22.4189 836.491 22.3137 836.318 22.1553C836.145 21.9968 836.021 21.7915 835.961 21.564C835.787 20.9678 835.16 20.8799 833.506 21.4585C831.852 22.0374 831.086 21.9321 830.39 21.0378C828.997 19.2842 826.23 19.4421 825.69 21.3359C825.555 21.7871 825.282 22.1843 824.91 22.4707C824.538 22.7573 824.086 22.9187 823.618 22.9316C822.591 22.9143 822.243 22.5457 822.591 22.0022C823.653 20.3364 821.512 19.9329 813.469 20.3364C806.802 20.687 805.374 21.0024 804.312 22.4409C802.815 24.4746 801.701 24.2114 801.875 22.5457C802.049 20.8799 797.871 20.1785 791.047 20.8799C787.826 21.2131 786.782 21.6167 787.095 22.4055C787.618 23.8086 785.703 24.4221 781.594 24.1592C778.774 23.9661 776.215 22.5283 778.774 22.5283C779.557 22.5283 779.523 22.3354 778.617 21.8093C776.7 21.2949 774.703 21.1523 772.733 21.3887C767.72 21.7214 767.72 21.792 767.72 26.0352C767.72 27.3508 767.615 27.2275 767.354 26.2285C767.093 25.2288 766.083 24.7375 764.343 24.7375C762.314 24.6694 760.291 24.4819 758.284 24.1768C757.001 23.824 755.641 23.8728 754.385 24.3167C754.124 24.7554 752.365 24.7375 750.416 24.3167C745.326 23.7202 740.203 23.4568 735.079 23.5278C733.725 23.5259 732.529 23.5254 731.461 23.5249H731.44C727.095 23.522 724.851 23.5205 722.609 23.4612C720.22 23.3979 717.833 23.2683 712.913 23.0027L712.889 23.0012L708.67 22.7737C696.049 22.0195 695.666 22.1248 695.666 23.7732C695.649 24.6848 695.248 25.439 694.813 25.439C694.585 25.4211 694.374 25.3135 694.224 25.1394C694.074 24.9661 693.998 24.7395 694.013 24.51C694.047 23.405 690.827 20.3716 689.521 20.3716C687.853 19.5864 686.306 18.5647 684.925 17.3376C684.05 16.5713 683.127 15.8625 682.163 15.2163C681.339 17.2124 680.459 19.6179 680.202 20.6345C679.94 21.6687 679.191 22.5107 678.563 22.5283C678.476 22.5283 678.393 22.5249 678.315 22.5186C678.237 22.5249 678.154 22.5283 678.066 22.5283C677.44 22.5107 676.691 21.6687 676.43 20.6345C676.173 19.6169 675.293 17.2083 674.469 15.2104C673.5 15.8589 672.574 16.5691 671.695 17.3376C670.312 18.5647 668.762 19.5864 667.092 20.3716C665.785 20.3716 662.56 23.405 662.595 24.51C662.609 24.7395 662.533 24.9661 662.383 25.1394C662.233 25.3135 662.021 25.4211 661.793 25.439C661.357 25.439 660.956 24.6848 660.938 23.7732C660.938 22.1248 660.555 22.0195 647.916 22.7737L643.701 23.0007L643.692 23.0012L643.668 23.0027C638.741 23.2683 636.35 23.3979 633.959 23.4612C631.713 23.5205 629.466 23.522 625.115 23.5249H624.846C623.84 23.5254 622.723 23.5259 621.471 23.5278C616.34 23.4568 611.209 23.7202 606.112 24.3167C604.16 24.7375 602.399 24.7554 602.138 24.3167C600.88 23.8728 599.518 23.824 598.233 24.1768C596.223 24.4819 594.197 24.6694 592.166 24.7375C590.423 24.7375 589.412 25.2288 589.15 26.2285C588.889 27.2275 588.784 27.3508 588.784 26.0352C588.784 21.792 588.784 21.7214 583.763 21.3887C581.791 21.1523 579.791 21.2949 577.871 21.8093C576.965 22.3354 576.93 22.5283 577.714 22.5283C580.277 22.5283 577.714 23.9661 574.89 24.1592C570.776 24.4221 568.858 23.8086 569.381 22.4055C569.695 21.6167 568.649 21.2131 565.424 20.8799C558.59 20.1785 554.406 20.8799 554.581 22.5457C554.755 24.2114 553.639 24.4746 552.14 22.4409C551.077 21.0024 549.647 20.687 542.971 20.3364C534.917 19.9329 532.772 20.3364 533.836 22.0022C534.184 22.5457 533.836 22.9143 532.807 22.9316C532.339 22.9187 531.886 22.7573 531.514 22.4707C531.141 22.1843 530.868 21.7871 530.733 21.3359C530.192 19.4421 527.42 19.2842 526.026 21.0378C525.329 21.9321 524.561 22.0374 522.905 21.4585C521.249 20.8799 520.622 20.9678 520.447 21.564C520.387 21.7915 520.263 21.9968 520.09 22.1553C519.917 22.3137 519.702 22.4189 519.471 22.4583C519.122 22.4583 518.966 21.9321 519.157 21.3533C519.349 20.7744 518.477 19.9329 516.316 19.3367C512.341 18.2498 501.341 18.46 501.358 19.6174C501.355 19.7285 501.376 19.8391 501.419 19.9421C501.433 19.9766 501.45 20.01 501.469 20.042C501.506 20.105 501.552 20.1628 501.606 20.2131C501.686 20.2896 501.782 20.3479 501.887 20.3843C501.991 20.4204 502.102 20.4338 502.213 20.4238C502.256 20.4231 502.3 20.4258 502.343 20.4319C502.409 20.4409 502.474 20.458 502.536 20.4832C502.588 20.5044 502.638 20.5308 502.685 20.562C502.729 20.592 502.771 20.6267 502.81 20.6653C502.888 20.7437 502.949 20.8379 502.991 20.9407C503.032 21.0442 503.052 21.1548 503.049 21.2659C503.049 21.7566 502.614 21.8794 502.038 21.5461C500.982 21.1711 499.849 21.0688 498.744 21.248C497.175 21.4585 496.477 21.248 496.442 20.3188C496.442 18.5652 493.862 17.9517 492.311 19.4067C491.421 20.1826 490.311 20.6553 489.138 20.7571C488.162 20.7571 487.569 21.178 487.848 21.6167C488.127 22.0547 488.005 22.4409 487.499 22.4583C487.266 22.4495 487.045 22.3523 486.88 22.1868C486.715 22.0205 486.619 21.7983 486.61 21.564C486.61 21.0205 485.564 20.8271 484.1 21.0906C482.636 21.3533 481.415 21.2131 481.171 20.8271C479.901 20.2668 478.504 20.061 477.127 20.231C475.735 20.4097 474.322 20.1909 473.048 19.6001C472.298 18.46 468.149 18.0044 467.068 18.9333C466.528 19.4067 458.631 20.0383 448.781 20.3889C434.573 20.8972 431.348 21.2131 430.738 22.1423C430.128 23.0718 429.866 23.2124 428.524 22.0374C427.513 21.1606 426.606 20.9851 425.787 21.5112C424.044 22.6335 421.045 22.5457 420.557 21.3706C420.278 20.6345 419.825 20.7046 418.814 21.634C417.803 22.5635 417.297 22.6685 416.6 21.4761C416.042 20.5469 414.857 20.1257 412.747 20.2136C410.272 20.2136 409.976 20.4763 411.161 21.1252C411.998 21.564 412.434 22.2302 412.19 22.6685C411.667 23.563 405.408 22.949 403.159 21.7742C400.91 20.5991 399.516 20.4417 391.863 20.1257C387.574 19.9683 385.448 20.1257 385.465 20.7925C385.482 21.4585 386.058 21.6868 386.72 21.6687C387.383 21.6514 387.958 22.0195 387.975 22.4583C387.975 23.6858 384.959 23.6152 384.489 22.4583C384.262 21.8267 382.449 21.5461 379.486 21.6687C375.79 21.8267 374.936 21.6692 375.267 20.7046C375.772 19.2842 374.256 19.1267 373.523 20.5117C372.983 21.4585 365.121 21.2832 360.902 20.2136C359.246 19.8103 359.019 19.9504 359.49 21.1079C360.187 22.8616 357.956 23.9485 356.526 22.5984C355.829 21.9321 355.847 21.7041 356.526 21.6868C357.206 21.6692 357.52 21.3533 357.503 20.915C357.485 20.4763 354.679 20.1084 351.314 20.0383C347.95 19.9683 345.16 20.1963 345.16 20.5291C345.16 20.8625 345.596 21.1431 346.171 21.1252C346.747 21.1079 346.677 21.6167 345.875 22.4583C344.707 23.6858 344.341 23.6858 342.005 22.4583C340.593 21.7566 339.407 20.7046 339.407 20.2136C339.407 19.7227 339.146 19.5122 338.414 20.2136C337.961 20.7417 337.349 21.1055 336.671 21.248C336.2 21.248 336.374 20.8625 337.019 20.4065C337.995 19.7048 337.891 19.5647 336.409 19.6001C335.038 19.7214 333.693 20.0464 332.417 20.5645C330.865 21.2305 329.976 21.2659 329.384 20.687C328.285 19.6523 325.269 19.6523 325.897 20.687C326.525 21.7214 324.746 21.7041 323.317 20.3364C323 19.9324 322.541 19.6667 322.034 19.5947C321.528 19.5232 321.013 19.6504 320.597 19.9504C320.276 20.175 319.9 20.3064 319.51 20.3311C319.12 20.3557 318.73 20.2725 318.383 20.0908C315.018 19.3884 311.587 19.0596 308.15 19.1086C302.921 18.9512 297.447 18.6179 295.947 18.3899C294.448 18.1619 292.966 18.3899 292.6 19.0212C292.234 19.6523 291.258 19.8804 289.027 19.3193C286.795 18.7581 285.976 18.8286 285.784 19.4421C285.592 20.0557 284.355 19.7927 282.437 18.9512C279.944 17.8289 279.142 17.7764 278.166 18.6006C277.805 18.9141 277.362 19.1184 276.89 19.1899C276.418 19.261 275.936 19.1968 275.499 19.0034C274.092 18.5566 272.632 18.303 271.158 18.2498L260.472 17.741C256.183 17.5308 249.681 17.4604 246.072 17.583C213.891 18.7405 210.666 18.7231 202.176 17.2849C199.37 16.8115 197.382 16.8293 196.789 17.2849C195.289 17.8174 193.653 17.8174 192.152 17.2849C187.533 16.356 177.404 16.1106 177.439 16.9343C177.439 17.3027 166.265 17.6536 152.632 17.7236C129.534 17.8464 110.915 18.2498 98.416 18.916C95.1902 19.0391 91.9603 18.8333 88.7757 18.3025C85.2891 17.6184 83.9817 17.6536 82.7788 18.46C80.5997 19.8982 73.8358 19.0913 74.4285 17.4429C74.69 16.6541 74.2542 16.2859 73.1036 16.3206C71.953 16.356 71.3603 16.0051 71.3603 15.5317C71.3603 14.0413 69.617 14.7603 69.1464 16.4087C68.5412 19.0305 67.867 17.8738 67.7384 14.3853H0V-1445.39H67.7384C67.867 -1448.87 68.5412 -1450.03 69.1464 -1447.41C69.617 -1445.76 71.3603 -1445.04 71.3603 -1446.53C71.3603 -1447.01 71.953 -1447.36 73.1036 -1447.32C74.2542 -1447.29 74.69 -1447.65 74.4285 -1448.44C73.8358 -1450.09 80.5997 -1450.9 82.7788 -1449.46C83.9817 -1448.65 85.2891 -1448.62 88.7757 -1449.3C91.9603 -1449.83 95.1902 -1450.04 98.416 -1449.92C110.915 -1449.25 129.534 -1448.85 152.632 -1448.72C166.265 -1448.65 177.439 -1448.3 177.439 -1447.93C177.404 -1447.11 187.533 -1447.36 192.152 -1448.28C193.653 -1448.82 195.289 -1448.82 196.789 -1448.28C197.382 -1447.83 199.37 -1447.81 202.176 -1448.28C210.666 -1449.72 213.891 -1449.74 246.072 -1448.58C249.681 -1448.46 256.183 -1448.53 260.472 -1448.74L271.158 -1449.25C272.632 -1449.3 274.092 -1449.56 275.499 -1450C275.936 -1450.2 276.418 -1450.26 276.89 -1450.19C277.362 -1450.12 277.805 -1449.91 278.166 -1449.6C279.142 -1448.78 279.944 -1448.83 282.437 -1449.95C284.355 -1450.79 285.592 -1451.06 285.784 -1450.44C285.976 -1449.83 286.795 -1449.76 289.027 -1450.32C291.258 -1450.88 292.234 -1450.65 292.6 -1450.02C292.966 -1449.39 294.448 -1449.16 295.947 -1449.39C297.447 -1449.62 302.921 -1449.95 308.15 -1450.11C311.587 -1450.06 315.018 -1450.39 318.383 -1451.09C318.73 -1451.27 319.12 -1451.36 319.51 -1451.33C319.9 -1451.31 320.276 -1451.18 320.597 -1450.95C321.013 -1450.65 321.528 -1450.52 322.034 -1450.59C322.541 -1450.67 323 -1450.93 323.317 -1451.34C324.746 -1452.7 326.525 -1452.72 325.897 -1451.69C325.269 -1450.65 328.285 -1450.65 329.384 -1451.69C329.976 -1452.27 330.865 -1452.23 332.417 -1451.56C333.693 -1451.05 335.038 -1450.72 336.409 -1450.6C337.891 -1450.56 337.995 -1450.7 337.019 -1451.41C336.374 -1451.86 336.2 -1452.25 336.671 -1452.25C337.349 -1452.11 337.961 -1451.74 338.414 -1451.21C339.146 -1450.51 339.407 -1450.72 339.407 -1451.21C339.407 -1451.7 340.593 -1452.76 342.005 -1453.46C344.341 -1454.69 344.707 -1454.69 345.875 -1453.46C346.677 -1452.62 346.747 -1452.11 346.171 -1452.13C345.596 -1452.14 345.16 -1451.86 345.16 -1451.53C345.16 -1451.2 347.95 -1450.97 351.314 -1451.04C354.679 -1451.11 357.485 -1451.48 357.503 -1451.91C357.52 -1452.35 357.206 -1452.67 356.526 -1452.69C355.847 -1452.7 355.829 -1452.93 356.526 -1453.6C357.956 -1454.95 360.187 -1453.86 359.49 -1452.11C359.019 -1450.95 359.246 -1450.81 360.902 -1451.21C365.121 -1452.28 372.983 -1452.46 373.523 -1451.51C374.256 -1450.13 375.772 -1450.28 375.267 -1451.7C374.936 -1452.67 375.79 -1452.83 379.486 -1452.67C382.449 -1452.55 384.262 -1452.83 384.489 -1453.46C384.959 -1454.62 387.975 -1454.69 387.975 -1453.46C387.958 -1453.02 387.383 -1452.65 386.72 -1452.67C386.058 -1452.69 385.482 -1452.46 385.465 -1451.79C385.448 -1451.13 387.574 -1450.97 391.863 -1451.13C399.516 -1451.44 400.91 -1451.6 403.159 -1452.77C405.408 -1453.95 411.667 -1454.56 412.19 -1453.67C412.434 -1453.23 411.998 -1452.56 411.161 -1452.13C409.976 -1451.48 410.272 -1451.21 412.747 -1451.21C414.857 -1451.13 416.042 -1451.55 416.6 -1452.48C417.297 -1453.67 417.803 -1453.56 418.814 -1452.63C419.825 -1451.7 420.278 -1451.63 420.557 -1452.37C421.045 -1453.55 424.044 -1453.63 425.787 -1452.51C426.606 -1451.99 427.513 -1452.16 428.524 -1453.04C429.866 -1454.21 430.128 -1454.07 430.738 -1453.14C431.348 -1452.21 434.573 -1451.9 448.781 -1451.39C458.631 -1451.04 466.528 -1450.41 467.068 -1449.93C468.149 -1449 472.298 -1449.46 473.048 -1450.6C474.322 -1451.19 475.735 -1451.41 477.127 -1451.23C478.504 -1451.06 479.901 -1451.27 481.171 -1451.83C481.415 -1452.21 482.636 -1452.35 484.1 -1452.09C485.564 -1451.83 486.61 -1452.02 486.61 -1452.56C486.619 -1452.8 486.715 -1453.02 486.88 -1453.19C487.045 -1453.35 487.266 -1453.45 487.499 -1453.46C488.005 -1453.44 488.127 -1453.05 487.848 -1452.62C487.569 -1452.18 488.162 -1451.76 489.138 -1451.76C490.311 -1451.66 491.421 -1451.18 492.311 -1450.41C493.862 -1448.95 496.442 -1449.57 496.442 -1451.32C496.477 -1452.25 497.175 -1452.46 498.744 -1452.25C499.849 -1452.07 500.982 -1452.17 502.038 -1452.55C502.614 -1452.88 503.049 -1452.76 503.049 -1452.27C503.052 -1452.15 503.032 -1452.04 502.991 -1451.94C502.949 -1451.84 502.888 -1451.74 502.81 -1451.67C502.764 -1451.62 502.713 -1451.58 502.657 -1451.54C502.619 -1451.52 502.578 -1451.5 502.536 -1451.48C502.433 -1451.44 502.323 -1451.42 502.213 -1451.42C502.102 -1451.43 501.991 -1451.42 501.887 -1451.38C501.782 -1451.35 501.686 -1451.29 501.606 -1451.21C501.525 -1451.14 501.461 -1451.04 501.419 -1450.94C501.376 -1450.84 501.355 -1450.73 501.358 -1450.62C501.341 -1449.46 512.341 -1449.25 516.316 -1450.34C518.477 -1450.93 519.349 -1451.77 519.157 -1452.35C518.966 -1452.93 519.122 -1453.46 519.471 -1453.46C519.702 -1453.42 519.917 -1453.31 520.09 -1453.16C520.263 -1453 520.387 -1452.79 520.447 -1452.56C520.622 -1451.97 521.249 -1451.88 522.905 -1452.46C524.561 -1453.04 525.329 -1452.93 526.026 -1452.04C527.42 -1450.28 530.192 -1450.44 530.733 -1452.34C530.868 -1452.79 531.141 -1453.18 531.514 -1453.47C531.886 -1453.76 532.339 -1453.92 532.807 -1453.93C533.836 -1453.91 534.184 -1453.55 533.836 -1453C532.772 -1451.34 534.917 -1450.93 542.971 -1451.34C549.647 -1451.69 551.077 -1452 552.14 -1453.44C553.639 -1455.47 554.755 -1455.21 554.581 -1453.55C554.406 -1451.88 558.59 -1451.18 565.424 -1451.88C568.649 -1452.21 569.695 -1452.62 569.381 -1453.41C568.858 -1454.81 570.776 -1455.42 574.89 -1455.16C577.714 -1454.97 580.277 -1453.53 577.714 -1453.53C576.93 -1453.53 576.965 -1453.34 577.871 -1452.81C579.791 -1452.29 581.791 -1452.15 583.763 -1452.39C588.784 -1452.72 588.784 -1452.79 588.784 -1457.04C588.784 -1458.35 588.889 -1458.23 589.15 -1457.23C589.412 -1456.23 590.423 -1455.74 592.166 -1455.74C594.197 -1455.67 596.223 -1455.48 598.233 -1455.18C599.518 -1454.82 600.88 -1454.87 602.138 -1455.32C602.399 -1455.76 604.16 -1455.74 606.112 -1455.32C611.209 -1454.72 616.34 -1454.46 621.471 -1454.53C622.772 -1454.53 623.928 -1454.53 624.966 -1454.52H625.115C629.466 -1454.52 631.713 -1454.52 633.959 -1454.46C636.322 -1454.4 638.684 -1454.27 643.493 -1454.01L643.668 -1454L643.692 -1454L643.701 -1454L647.916 -1453.77C660.555 -1453.02 660.938 -1453.12 660.938 -1454.77C660.956 -1455.68 661.357 -1456.44 661.793 -1456.44C662.021 -1456.42 662.233 -1456.31 662.383 -1456.14C662.533 -1455.97 662.609 -1455.74 662.595 -1455.51C662.56 -1454.4 665.785 -1451.37 667.092 -1451.37C668.762 -1450.59 670.312 -1449.56 671.695 -1448.34C672.574 -1447.57 673.5 -1446.86 674.469 -1446.21C675.293 -1448.21 676.173 -1450.62 676.43 -1451.63C676.691 -1452.67 677.44 -1453.51 678.066 -1453.53C678.154 -1453.53 678.237 -1453.52 678.315 -1453.52C678.359 -1453.52 678.404 -1453.52 678.451 -1453.53C678.487 -1453.53 678.525 -1453.53 678.563 -1453.53C679.191 -1453.51 679.94 -1452.67 680.202 -1451.63C680.459 -1450.62 681.339 -1448.21 682.163 -1446.22C683.127 -1446.86 684.05 -1447.57 684.925 -1448.34C686.306 -1449.56 687.853 -1450.59 689.521 -1451.37C690.827 -1451.37 694.047 -1454.4 694.013 -1455.51C693.998 -1455.74 694.074 -1455.97 694.224 -1456.14C694.374 -1456.31 694.585 -1456.42 694.813 -1456.44C695.248 -1456.44 695.649 -1455.68 695.666 -1454.77C695.666 -1453.12 696.049 -1453.02 708.67 -1453.77L712.889 -1454L712.913 -1454L713.089 -1454.01C717.891 -1454.27 720.249 -1454.4 722.609 -1454.46C724.851 -1454.52 727.095 -1454.52 731.44 -1454.52H731.461C732.529 -1454.53 733.725 -1454.53 735.079 -1454.53C740.203 -1454.46 745.326 -1454.72 750.416 -1455.32C752.365 -1455.74 754.124 -1455.76 754.385 -1455.32C755.641 -1454.87 757.001 -1454.82 758.284 -1455.18C760.291 -1455.48 762.314 -1455.67 764.343 -1455.74C766.083 -1455.74 767.093 -1456.23 767.354 -1457.23C767.615 -1458.23 767.72 -1458.35 767.72 -1457.04C767.72 -1452.79 767.72 -1452.72 772.733 -1452.39C774.703 -1452.15 776.7 -1452.29 778.617 -1452.81C779.523 -1453.34 779.557 -1453.53 778.774 -1453.53C776.215 -1453.53 778.774 -1454.97 781.594 -1455.16C785.703 -1455.42 787.618 -1454.81 787.095 -1453.41C786.782 -1452.62 787.826 -1452.21 791.047 -1451.88C797.871 -1451.18 802.049 -1451.88 801.875 -1453.55C801.701 -1455.21 802.815 -1455.47 804.312 -1453.44C805.374 -1452 806.802 -1451.69 813.469 -1451.34C821.512 -1450.93 823.653 -1451.34 822.591 -1453C822.243 -1453.55 822.591 -1453.91 823.618 -1453.93C824.086 -1453.92 824.538 -1453.76 824.91 -1453.47C825.282 -1453.18 825.555 -1452.79 825.69 -1452.34C826.23 -1450.44 828.997 -1450.28 830.39 -1452.04C831.086 -1452.93 831.852 -1453.04 833.506 -1452.46C835.16 -1451.88 835.787 -1451.97 835.961 -1452.56C835.994 -1452.69 836.046 -1452.81 836.115 -1452.91C836.171 -1453 836.24 -1453.08 836.318 -1453.16C836.491 -1453.31 836.705 -1453.42 836.936 -1453.46C837.284 -1453.46 837.44 -1452.93 837.249 -1452.35C837.057 -1451.77 837.928 -1450.93 840.087 -1450.34C844.056 -1449.25 855.04 -1449.46 855.023 -1450.62C855.026 -1450.73 855.005 -1450.84 854.963 -1450.94C854.92 -1451.04 854.857 -1451.14 854.776 -1451.21C854.695 -1451.29 854.6 -1451.35 854.495 -1451.38C854.391 -1451.42 854.28 -1451.43 854.17 -1451.42C854.06 -1451.42 853.95 -1451.44 853.847 -1451.48C853.745 -1451.52 853.652 -1451.59 853.574 -1451.67C853.496 -1451.74 853.434 -1451.84 853.393 -1451.94C853.38 -1451.97 853.369 -1452.01 853.36 -1452.04C853.341 -1452.12 853.333 -1452.19 853.334 -1452.27C853.334 -1452.76 853.77 -1452.88 854.344 -1452.55C855.399 -1452.17 856.53 -1452.07 857.634 -1452.25C859.201 -1452.46 859.897 -1452.25 859.932 -1451.32C859.932 -1449.57 862.509 -1448.95 864.058 -1450.41C864.946 -1451.18 866.055 -1451.66 867.226 -1451.76C868.201 -1451.76 868.793 -1452.18 868.514 -1452.62C868.236 -1453.05 868.358 -1453.44 868.863 -1453.46C869.095 -1453.45 869.316 -1453.35 869.481 -1453.19C869.646 -1453.02 869.742 -1452.8 869.75 -1452.56C869.75 -1452.02 870.795 -1451.83 872.257 -1452.09C873.72 -1452.35 874.938 -1452.21 875.182 -1451.83C876.451 -1451.27 877.846 -1451.06 879.221 -1451.23C880.61 -1451.41 882.022 -1451.19 883.294 -1450.6C884.043 -1449.46 888.186 -1449 889.265 -1449.93C889.805 -1450.41 897.691 -1451.04 907.527 -1451.39C921.715 -1451.9 924.935 -1452.21 925.544 -1453.14C926.154 -1454.07 926.415 -1454.21 927.755 -1453.04C928.765 -1452.16 929.67 -1451.99 930.488 -1452.51C932.229 -1453.63 935.224 -1453.55 935.711 -1452.37C935.99 -1451.63 936.442 -1451.7 937.452 -1452.63C938.462 -1453.56 938.966 -1453.67 939.663 -1452.48C940.22 -1451.55 941.404 -1451.13 943.51 -1451.21C945.982 -1451.21 946.278 -1451.48 945.094 -1452.13C944.258 -1452.56 943.823 -1453.23 944.067 -1453.67C944.589 -1454.56 950.839 -1453.95 953.084 -1452.77C955.33 -1451.6 956.723 -1451.44 964.365 -1451.13C968.648 -1450.97 970.771 -1451.13 970.754 -1451.79C970.737 -1452.46 970.162 -1452.69 969.501 -1452.67C968.839 -1452.65 968.265 -1453.02 968.247 -1453.46C968.247 -1454.69 971.259 -1454.62 971.729 -1453.46C971.955 -1452.83 973.766 -1452.55 976.725 -1452.67C980.416 -1452.83 981.269 -1452.67 980.938 -1451.7C980.433 -1450.28 981.948 -1450.13 982.679 -1451.51C983.219 -1452.46 991.07 -1452.28 995.283 -1451.21C996.936 -1450.81 997.163 -1450.95 996.693 -1452.11C995.996 -1453.86 998.225 -1454.95 999.652 -1453.6C1000.35 -1452.93 1000.33 -1452.7 999.652 -1452.69C998.973 -1452.67 998.66 -1452.35 998.677 -1451.91C998.695 -1451.48 1001.5 -1451.11 1004.86 -1451.04C1008.22 -1450.97 1011 -1451.2 1011 -1451.53C1011 -1451.86 1010.57 -1452.14 1009.99 -1452.13C1009.42 -1452.11 1009.49 -1452.62 1010.29 -1453.46C1011.45 -1454.69 1011.82 -1454.69 1014.15 -1453.46C1015.56 -1452.76 1016.75 -1451.7 1016.75 -1451.21C1016.75 -1450.72 1017.01 -1450.51 1017.74 -1451.21C1018.19 -1451.74 1018.8 -1452.11 1019.48 -1452.25C1019.95 -1452.25 1019.78 -1451.86 1019.13 -1451.41C1018.16 -1450.7 1018.26 -1450.56 1019.74 -1450.6C1021.11 -1450.72 1022.45 -1451.05 1023.73 -1451.56C1025.28 -1452.23 1026.17 -1452.27 1026.76 -1451.69C1027.85 -1450.65 1030.87 -1450.65 1030.24 -1451.69C1029.61 -1452.72 1031.39 -1452.7 1032.82 -1451.34C1033.13 -1450.93 1033.59 -1450.67 1034.1 -1450.59C1034.6 -1450.52 1035.12 -1450.65 1035.53 -1450.95C1035.85 -1451.18 1036.23 -1451.31 1036.62 -1451.33C1037.01 -1451.36 1037.4 -1451.27 1037.74 -1451.09C1041.1 -1450.39 1044.53 -1450.06 1047.96 -1450.11C1053.18 -1449.95 1058.65 -1449.62 1060.15 -1449.39C1061.64 -1449.16 1063.12 -1449.39 1063.49 -1450.02C1063.85 -1450.65 1064.83 -1450.88 1067.06 -1450.32C1069.29 -1449.76 1070.1 -1449.83 1070.3 -1450.44C1070.49 -1451.06 1071.72 -1450.79 1073.64 -1449.95C1076.13 -1448.83 1076.93 -1448.78 1077.9 -1449.6C1078.26 -1449.91 1078.71 -1450.12 1079.18 -1450.19C1079.65 -1450.26 1080.13 -1450.2 1080.57 -1450C1081.97 -1449.56 1083.43 -1449.3 1084.9 -1449.25L1095.57 -1448.74C1099.85 -1448.53 1106.35 -1448.46 1109.95 -1448.58C1142.09 -1449.74 1145.31 -1449.72 1153.79 -1448.28C1156.59 -1447.81 1158.57 -1447.83 1159.17 -1448.28C1160.66 -1448.82 1162.3 -1448.82 1163.8 -1448.28C1168.41 -1447.36 1178.52 -1447.11 1178.49 -1447.93C1178.49 -1448.3 1189.65 -1448.65 1203.26 -1448.72C1226.33 -1448.85 1244.92 -1449.25 1257.4 -1449.92C1260.62 -1450.04 1263.85 -1449.83 1267.03 -1449.3C1270.51 -1448.62 1271.82 -1448.65 1273.02 -1449.46C1275.19 -1450.9 1281.95 -1450.09 1281.35 -1448.44C1281.09 -1447.65 1281.53 -1447.29 1282.68 -1447.32C1283.83 -1447.36 1284.42 -1447.01 1284.42 -1446.53C1284.42 -1445.04 1286.16 -1445.76 1286.63 -1447.41C1287.23 -1450.03 1287.91 -1448.87 1288.04 -1445.39H1303.53C1303.62 -1445.63 1303.72 -1445.87 1303.81 -1446.11C1304.65 -1448.13 1305.56 -1450.6 1305.82 -1451.63C1306.08 -1452.67 1306.83 -1453.51 1307.46 -1453.53C1308.92 -1453.53 1309.06 -1452.6 1307.75 -1451.21C1307.02 -1450.44 1307.13 -1450.21 1308.19 -1450.25C1309.25 -1450.28 1309.6 -1449.62 1309.65 -1447.79C1309.65 -1446.57 1309.85 -1445.6 1310.06 -1445.39H1310.24C1311.69 -1446.24 1313.06 -1447.23 1314.32 -1448.34C1315.71 -1449.56 1317.26 -1450.59 1318.93 -1451.37C1320.23 -1451.37 1323.46 -1454.4 1323.42 -1455.51C1323.42 -1455.59 1323.43 -1455.66 1323.44 -1455.73C1323.47 -1455.88 1323.54 -1456.02 1323.64 -1456.14C1323.79 -1456.31 1324 -1456.42 1324.23 -1456.44C1324.66 -1456.44 1325.06 -1455.68 1325.08 -1454.77C1325.08 -1453.12 1325.46 -1453.02 1338.1 -1453.77C1339.25 -1453.83 1340.3 -1453.89 1341.26 -1453.94L1342.33 -1454L1342.35 -1454C1347.28 -1454.27 1349.67 -1454.4 1352.06 -1454.46C1354.31 -1454.52 1356.56 -1454.52 1360.92 -1454.52H1360.93C1362 -1454.53 1363.19 -1454.53 1364.55 -1454.53C1369.68 -1454.46 1374.81 -1454.72 1379.91 -1455.32C1381.86 -1455.74 1383.62 -1455.76 1383.88 -1455.32C1385.14 -1454.87 1386.5 -1454.82 1387.79 -1455.18C1389.8 -1455.48 1391.82 -1455.67 1393.85 -1455.74C1395.6 -1455.74 1396.61 -1456.23 1396.87 -1457.23C1397.13 -1458.23 1397.24 -1458.35 1397.24 -1457.04C1397.24 -1452.79 1397.24 -1452.72 1402.26 -1452.39C1404.23 -1452.15 1406.23 -1452.29 1408.15 -1452.81C1409.05 -1453.34 1409.09 -1453.53 1408.31 -1453.53C1405.74 -1453.53 1408.31 -1454.97 1411.13 -1455.16C1415.24 -1455.42 1417.16 -1454.81 1416.64 -1453.41C1416.32 -1452.62 1417.37 -1452.21 1420.6 -1451.88C1427.43 -1451.18 1431.61 -1451.88 1431.44 -1453.55C1431.26 -1455.21 1432.38 -1455.47 1433.88 -1453.44C1434.94 -1452 1436.37 -1451.69 1443.05 -1451.34C1451.1 -1450.93 1453.25 -1451.34 1452.18 -1453C1451.84 -1453.55 1452.18 -1453.91 1453.21 -1453.93C1453.68 -1453.92 1454.13 -1453.76 1454.51 -1453.47C1454.88 -1453.18 1455.15 -1452.79 1455.29 -1452.34C1455.83 -1450.44 1458.6 -1450.28 1459.99 -1452.04C1460.69 -1452.93 1461.46 -1453.04 1463.11 -1452.46C1464.77 -1451.88 1465.4 -1451.97 1465.57 -1452.56C1465.63 -1452.79 1465.76 -1453 1465.93 -1453.16C1466.02 -1453.24 1466.12 -1453.3 1466.22 -1453.35C1466.33 -1453.4 1466.44 -1453.44 1466.55 -1453.46C1466.9 -1453.46 1467.05 -1452.93 1466.86 -1452.35C1466.67 -1451.77 1467.54 -1450.93 1469.7 -1450.34C1473.68 -1449.25 1484.68 -1449.46 1484.66 -1450.62C1484.66 -1450.64 1484.66 -1450.67 1484.66 -1450.69C1484.65 -1450.78 1484.63 -1450.86 1484.6 -1450.94C1484.56 -1451.04 1484.49 -1451.14 1484.41 -1451.21C1484.37 -1451.25 1484.32 -1451.29 1484.27 -1451.32C1484.23 -1451.35 1484.18 -1451.37 1484.13 -1451.38C1484.11 -1451.39 1484.08 -1451.4 1484.05 -1451.41C1484.01 -1451.42 1483.96 -1451.42 1483.92 -1451.43C1483.88 -1451.43 1483.84 -1451.43 1483.81 -1451.42C1483.7 -1451.42 1483.59 -1451.44 1483.48 -1451.48C1483.38 -1451.52 1483.29 -1451.59 1483.21 -1451.67C1483.13 -1451.74 1483.07 -1451.84 1483.03 -1451.94C1482.99 -1452.04 1482.97 -1452.15 1482.97 -1452.27C1482.97 -1452.76 1483.41 -1452.88 1483.98 -1452.55C1485.04 -1452.17 1486.17 -1452.07 1487.28 -1452.25C1488.84 -1452.46 1489.54 -1452.25 1489.58 -1451.32C1489.58 -1449.57 1492.16 -1448.95 1493.71 -1450.41C1494.6 -1451.18 1495.71 -1451.66 1496.88 -1451.76C1497.86 -1451.76 1498.45 -1452.18 1498.17 -1452.62C1497.89 -1453.05 1498.01 -1453.44 1498.52 -1453.46C1498.75 -1453.45 1498.97 -1453.35 1499.14 -1453.19C1499.3 -1453.02 1499.4 -1452.8 1499.41 -1452.56C1499.41 -1452.02 1500.46 -1451.83 1501.92 -1452.09C1503.38 -1452.35 1504.6 -1452.21 1504.85 -1451.83C1506.12 -1451.27 1507.52 -1451.06 1508.89 -1451.23C1510.28 -1451.41 1511.7 -1451.19 1512.97 -1450.6C1513.72 -1449.46 1517.87 -1449 1518.95 -1449.93C1519.49 -1450.41 1527.39 -1451.04 1537.24 -1451.39C1551.45 -1451.9 1554.67 -1452.21 1555.28 -1453.14C1555.89 -1454.07 1556.15 -1454.21 1557.5 -1453.04C1558.51 -1452.16 1559.41 -1451.99 1560.23 -1452.51C1561.98 -1453.63 1564.97 -1453.55 1565.46 -1452.37C1565.74 -1451.63 1566.19 -1451.7 1567.21 -1452.63C1568.22 -1453.56 1568.72 -1453.67 1569.42 -1452.48C1569.98 -1451.55 1571.16 -1451.13 1573.27 -1451.21C1575.75 -1451.21 1576.04 -1451.48 1574.86 -1452.13C1574.02 -1452.56 1573.59 -1453.23 1573.83 -1453.67C1574.35 -1454.56 1580.61 -1453.95 1582.86 -1452.77C1585.11 -1451.6 1586.5 -1451.44 1594.16 -1451.13C1598.45 -1450.97 1600.57 -1451.13 1600.55 -1451.79C1600.54 -1452.46 1599.96 -1452.69 1599.3 -1452.67C1598.64 -1452.65 1598.06 -1453.02 1598.04 -1453.46C1598.04 -1454.69 1601.06 -1454.62 1601.53 -1453.46C1601.76 -1452.83 1603.57 -1452.55 1606.53 -1452.67C1610.23 -1452.83 1611.08 -1452.67 1610.75 -1451.7C1610.25 -1450.28 1611.76 -1450.13 1612.5 -1451.51C1613.04 -1452.46 1620.9 -1452.28 1625.12 -1451.21C1626.77 -1450.81 1627 -1450.95 1626.53 -1452.11C1625.83 -1453.86 1628.06 -1454.95 1629.49 -1453.6C1630.19 -1452.93 1630.17 -1452.7 1629.49 -1452.69C1628.81 -1452.67 1628.5 -1452.35 1628.52 -1451.91C1628.53 -1451.48 1631.34 -1451.11 1634.71 -1451.04C1638.07 -1450.97 1640.86 -1451.2 1640.86 -1451.53C1640.86 -1451.86 1640.42 -1452.14 1639.85 -1452.13C1639.27 -1452.11 1639.34 -1452.62 1640.14 -1453.46C1641.31 -1454.69 1641.68 -1454.69 1644.01 -1453.46C1645.43 -1452.76 1646.61 -1451.7 1646.61 -1451.21C1646.61 -1450.72 1646.87 -1450.51 1647.61 -1451.21C1648.06 -1451.74 1648.67 -1452.11 1649.35 -1452.25C1649.82 -1452.25 1649.65 -1451.86 1649 -1451.41C1648.02 -1450.7 1648.13 -1450.56 1649.61 -1450.6C1650.98 -1450.72 1652.33 -1451.05 1653.6 -1451.56C1655.15 -1452.23 1656.04 -1452.27 1656.64 -1451.69C1657.73 -1450.65 1660.75 -1450.65 1660.12 -1451.69C1659.49 -1452.72 1661.27 -1452.7 1662.7 -1451.34C1663.02 -1450.93 1663.48 -1450.67 1663.99 -1450.59C1664.49 -1450.52 1665.01 -1450.65 1665.42 -1450.95C1665.74 -1451.18 1666.12 -1451.31 1666.51 -1451.33C1666.9 -1451.36 1667.29 -1451.27 1667.64 -1451.09C1671 -1450.39 1674.43 -1450.06 1677.87 -1450.11C1683.1 -1449.95 1688.57 -1449.62 1690.07 -1449.39C1691.57 -1449.16 1693.05 -1449.39 1693.42 -1450.02C1693.79 -1450.65 1694.76 -1450.88 1696.99 -1450.32C1699.22 -1449.76 1700.04 -1449.83 1700.24 -1450.44C1700.43 -1451.06 1701.67 -1450.79 1703.58 -1449.95C1706.08 -1448.83 1706.88 -1448.78 1707.85 -1449.6C1708.22 -1449.91 1708.66 -1450.12 1709.13 -1450.19C1709.6 -1450.26 1710.08 -1450.2 1710.52 -1450C1711.93 -1449.56 1713.39 -1449.3 1714.86 -1449.25L1725.55 -1448.74C1729.84 -1448.53 1736.34 -1448.46 1739.95 -1448.58C1772.13 -1449.74 1775.35 -1449.72 1783.84 -1448.28C1786.65 -1447.81 1788.64 -1447.83 1789.23 -1448.28C1790.73 -1448.82 1792.37 -1448.82 1793.87 -1448.28C1798.49 -1447.36 1808.62 -1447.11 1808.58 -1447.93C1808.58 -1448.3 1819.76 -1448.65 1833.39 -1448.72C1856.49 -1448.85 1875.1 -1449.25 1887.6 -1449.92C1890.83 -1450.04 1894.06 -1449.83 1897.24 -1449.3C1900.73 -1448.62 1902.04 -1448.65 1903.24 -1449.46C1905.42 -1450.9 1912.18 -1450.09 1911.59 -1448.44C1911.33 -1447.65 1911.77 -1447.29 1912.92 -1447.32C1914.07 -1447.36 1914.66 -1447.01 1914.66 -1446.53C1914.66 -1445.04 1916.4 -1445.76 1916.87 -1447.41C1917.48 -1450.03 1918.15 -1448.87 1918.28 -1445.39ZM678.315 -1451.16C678.868 -1450.57 678.889 -1450.31 678.315 -1450.26C677.741 -1450.31 677.762 -1450.57 678.315 -1451.16ZM452.85 -1447.84C453.347 -1447.67 453.871 -1447.6 454.394 -1447.64C457.916 -1447.55 458.108 -1448.99 454.673 -1449.51C451.239 -1450.04 450.786 -1449.92 451.501 -1448.62C451.895 -1448.27 452.353 -1448.01 452.85 -1447.84ZM343.194 -1450.85C343.315 -1450.86 343.433 -1450.89 343.539 -1450.95C344.742 -1451.65 344.55 -1452.18 343.086 -1452.18C342.423 -1452.2 342.057 -1451.81 342.319 -1451.37C342.33 -1451.35 342.343 -1451.32 342.356 -1451.29C342.366 -1451.28 342.376 -1451.26 342.387 -1451.24C342.426 -1451.18 342.473 -1451.13 342.527 -1451.08C342.616 -1450.99 342.721 -1450.93 342.836 -1450.89C342.951 -1450.85 343.073 -1450.83 343.194 -1450.85ZM903.464 -1447.84C902.968 -1447.67 902.443 -1447.6 901.921 -1447.64C898.405 -1447.55 898.213 -1448.99 901.643 -1449.51C905.072 -1450.04 905.525 -1449.92 904.811 -1448.62C904.417 -1448.27 903.96 -1448.01 903.464 -1447.84ZM1012.97 -1450.85C1012.84 -1450.86 1012.73 -1450.89 1012.62 -1450.95C1011.42 -1451.65 1011.61 -1452.18 1013.07 -1452.18C1013.74 -1452.2 1014.1 -1451.81 1013.84 -1451.37C1013.79 -1451.26 1013.72 -1451.16 1013.63 -1451.08C1013.54 -1450.99 1013.44 -1450.93 1013.32 -1450.89C1013.21 -1450.85 1013.09 -1450.83 1012.97 -1450.85ZM1531.63 -1447.64C1532.15 -1447.6 1532.67 -1447.67 1533.17 -1447.84C1533.67 -1448.01 1534.12 -1448.27 1534.52 -1448.62C1535.23 -1449.92 1534.78 -1450.04 1531.35 -1449.51C1527.91 -1448.99 1528.1 -1447.55 1531.63 -1447.64ZM1642.48 -1450.95C1642.5 -1450.94 1642.53 -1450.93 1642.55 -1450.92C1642.6 -1450.89 1642.66 -1450.87 1642.71 -1450.86C1642.75 -1450.85 1642.79 -1450.85 1642.83 -1450.85C1642.95 -1450.83 1643.07 -1450.85 1643.18 -1450.89C1643.3 -1450.93 1643.4 -1450.99 1643.49 -1451.08C1643.55 -1451.13 1643.6 -1451.19 1643.64 -1451.26C1643.66 -1451.3 1643.68 -1451.33 1643.7 -1451.37C1643.96 -1451.81 1643.6 -1452.2 1642.93 -1452.18C1641.47 -1452.18 1641.28 -1451.65 1642.48 -1450.95ZM678.315 20.1624C678.868 19.5671 678.889 19.3125 678.315 19.2576C677.741 19.3125 677.762 19.5671 678.315 20.1624ZM452.85 16.8367C453.347 16.668 453.871 16.5999 454.394 16.6362C457.916 16.5486 458.108 17.9863 454.673 18.5125C451.239 19.0386 450.786 18.916 451.501 17.6184C451.895 17.271 452.353 17.0051 452.85 16.8367ZM343.194 19.8455C343.315 19.8557 343.433 19.8918 343.539 19.9504C344.742 20.6519 344.55 21.178 343.086 21.178C342.423 21.1953 342.057 20.8098 342.319 20.3716C342.338 20.3271 342.361 20.2842 342.387 20.2437C342.426 20.1816 342.473 20.1257 342.527 20.0754C342.616 19.9924 342.721 19.929 342.836 19.8894C342.951 19.8499 343.073 19.835 343.194 19.8455ZM903.464 16.8367C902.968 16.668 902.443 16.5999 901.921 16.6362C898.405 16.5486 898.213 17.9863 901.643 18.5125C905.072 19.0386 905.525 18.916 904.811 17.6184C904.417 17.271 903.96 17.0051 903.464 16.8367ZM1012.97 19.8455C1012.84 19.8557 1012.73 19.8918 1012.62 19.9504C1011.42 20.6519 1011.61 21.178 1013.07 21.178C1013.74 21.1953 1014.1 20.8098 1013.84 20.3716C1013.81 20.3037 1013.77 20.24 1013.73 20.1821C1013.7 20.144 1013.67 20.1084 1013.63 20.0754C1013.54 19.9924 1013.44 19.929 1013.32 19.8894C1013.21 19.8499 1013.09 19.835 1012.97 19.8455ZM1531.63 16.6362C1532.15 16.5999 1532.67 16.668 1533.17 16.8367C1533.67 17.0051 1534.12 17.271 1534.52 17.6184C1535.23 18.916 1534.78 19.0386 1531.35 18.5125C1527.91 17.9863 1528.1 16.5486 1531.63 16.6362ZM1642.48 19.9504C1642.5 19.9377 1642.53 19.9263 1642.55 19.9155C1642.64 19.8774 1642.73 19.8533 1642.83 19.8455C1642.95 19.835 1643.07 19.8499 1643.18 19.8894C1643.3 19.929 1643.4 19.9924 1643.49 20.0754C1643.54 20.1184 1643.58 20.166 1643.62 20.2178C1643.65 20.2659 1643.68 20.3174 1643.7 20.3716C1643.96 20.8098 1643.6 21.1953 1642.93 21.178C1641.47 21.178 1641.28 20.6519 1642.48 19.9504Z" fill="#2A2A2A"/>
</g>
<defs>
<clipPath id="clip0_280_2367">
<rect width="1920" height="36" fill="white"/>
</clipPath>
</defs>
</svg>
