<svg width="64" height="64" viewBox="0 0 64 64" fill="none" xmlns="http://www.w3.org/2000/svg">
<g clip-path="url(#clip0_105_4225)">
<path d="M62.0704 37.4561C62.0478 37.4168 62.0365 37.372 62.0376 37.3267C62.0387 37.2813 62.0523 37.2372 62.0768 37.199L63.6555 34.5654C63.8742 34.2017 63.9924 33.7863 63.9981 33.3619C64.0037 32.9375 63.8965 32.5191 63.6874 32.1497C63.4783 31.7803 63.1749 31.473 62.8081 31.2593C62.4414 31.0456 62.0245 30.9332 61.6 30.9334H57.6V27.7334C57.5973 27.0739 57.3908 26.4314 57.009 25.8937C56.6271 25.3561 56.0884 24.9495 55.4667 24.7297V8.09395C55.4816 7.33601 55.2238 6.59791 54.7403 6.01409C54.2567 5.43026 53.5795 5.03957 52.832 4.91315C49.6181 4.49395 38.7051 2.91955 33.1989 0.268885C32.8219 0.0921884 32.4105 0.00103803 31.9941 0.00196005C31.5777 0.00288208 31.1667 0.0958536 30.7904 0.274218C25.2949 2.91955 14.3819 4.49395 11.1573 4.91529C10.4119 5.04331 9.73712 5.43451 9.25561 6.0178C8.77411 6.60109 8.51783 7.33776 8.53334 8.09395V24.734C7.91225 24.9535 7.37407 25.3594 6.99226 25.8963C6.61045 26.4331 6.40362 27.0747 6.40001 27.7334V30.9334H2.40001C1.97624 30.9335 1.56009 31.046 1.19395 31.2594C0.827813 31.4727 0.524788 31.7793 0.315757 32.1479C0.106727 32.5166 -0.000834989 32.934 0.00403399 33.3578C0.00890296 33.7815 0.126029 34.1964 0.343474 34.5601L1.92961 37.2076C1.9522 37.2469 1.96355 37.2916 1.96242 37.337C1.96129 37.3823 1.94773 37.4265 1.92321 37.4646L0.344541 40.1068C0.127142 40.4704 0.0100186 40.8852 0.00510342 41.3088C0.000188276 41.7325 0.107657 42.1498 0.316561 42.5184C0.525464 42.887 0.828338 43.1936 1.19432 43.4071C1.56031 43.6205 1.97633 43.7331 2.40001 43.7334H9.19787C12.5195 56.8652 27.4891 62.67 30.7883 63.7985C31.5735 64.0687 32.4265 64.0687 33.2117 63.7985C36.5109 62.67 51.4805 56.8652 54.8021 43.7334H61.6C62.0238 43.7333 62.4399 43.6208 62.8061 43.4075C63.1722 43.1941 63.4752 42.8875 63.6842 42.5189C63.8933 42.1503 64.0008 41.7328 63.996 41.3091C63.9911 40.8853 63.874 40.4705 63.6565 40.1068L62.0704 37.4561ZM10.6667 8.09395C10.6494 7.85296 10.7181 7.61365 10.8604 7.41841C11.0027 7.22317 11.2096 7.08462 11.4443 7.02729C15.6661 6.47582 26.0917 4.90142 31.7109 2.19849C31.8015 2.15559 31.9004 2.13334 32.0005 2.13334C32.1007 2.13334 32.1996 2.15559 32.2901 2.19849C37.9083 4.90675 48.3339 6.47795 52.5451 7.02729C52.7815 7.08285 52.9906 7.22059 53.135 7.41595C53.2793 7.61131 53.3496 7.85159 53.3333 8.09395V24.5334H51.2V10.847C51.2024 10.336 51.0203 9.8412 50.6872 9.45361C50.354 9.06602 49.8923 8.81162 49.3867 8.73715C44.4725 7.99049 37.6053 6.69235 32.7936 4.75102C32.2876 4.54459 31.7209 4.54459 31.2149 4.75102C26.4352 6.68702 19.5499 7.98729 14.6133 8.73715C14.1078 8.81184 13.6462 9.06629 13.3131 9.45383C12.98 9.84137 12.7979 10.336 12.8 10.847V24.5334H10.6667V8.09395ZM49.0667 10.847V24.5334H14.9333V10.846C19.9808 10.079 27.0421 8.74249 31.9893 6.72862C36.9973 8.74675 44.0373 10.0833 49.0667 10.847ZM2.40001 41.6001C2.3531 41.6002 2.307 41.5878 2.26645 41.5643C2.22589 41.5407 2.19234 41.5068 2.16921 41.4659C2.14609 41.4251 2.13424 41.3789 2.13487 41.332C2.1355 41.2851 2.1486 41.2392 2.17281 41.199L3.74614 38.575C3.97319 38.2031 4.09384 37.776 4.09497 37.3402C4.0961 36.9044 3.97766 36.4767 3.75254 36.1036L2.17174 33.4657C2.14802 33.4255 2.13537 33.3797 2.13506 33.333C2.13475 33.2864 2.1468 33.2404 2.16998 33.1999C2.19317 33.1594 2.22666 33.1257 2.26706 33.1023C2.30746 33.079 2.35333 33.0667 2.40001 33.0668H6.40001V36.2668C6.4022 36.9315 6.6118 37.5791 6.99958 38.119C7.38735 38.659 7.93397 39.0645 8.56321 39.279C8.58995 40.0558 8.65795 40.8306 8.76694 41.6001H2.40001ZM32.5216 61.7793C32.1836 61.8958 31.8164 61.8958 31.4784 61.7793C28.0843 60.6188 11.4795 54.1868 10.704 39.4668H12.8373C13.5787 51.8177 27.0475 57.8486 31.2587 59.4326C31.4975 59.522 31.7504 59.5679 32.0053 59.5681C32.2582 59.568 32.509 59.5221 32.7456 59.4326C36.9536 57.8497 50.4224 51.822 51.1637 39.4668H53.2971C52.5205 54.1868 35.9157 60.6188 32.5216 61.7793ZM14.9707 39.4668H49.0293C48.2688 50.462 35.8752 55.9756 32.0085 57.4358C28.1259 55.9745 15.7323 50.4534 14.9707 39.4668ZM54.4 37.3334H9.60001C9.31711 37.3334 9.0458 37.221 8.84576 37.021C8.64572 36.821 8.53334 36.5497 8.53334 36.2668V27.7334C8.53334 27.4505 8.64572 27.1792 8.84576 26.9792C9.0458 26.7791 9.31711 26.6668 9.60001 26.6668H54.4C54.6829 26.6668 54.9542 26.7791 55.1542 26.9792C55.3543 27.1792 55.4667 27.4505 55.4667 27.7334V36.2668C55.4667 36.5497 55.3543 36.821 55.1542 37.021C54.9542 37.221 54.6829 37.3334 54.4 37.3334ZM61.8315 41.4646C61.8094 41.5066 61.776 41.5415 61.7351 41.5654C61.6942 41.5894 61.6474 41.6014 61.6 41.6001H55.2331C55.342 40.8306 55.4101 40.0558 55.4368 39.279C56.066 39.0645 56.6127 38.659 57.0004 38.119C57.3882 37.5791 57.5978 36.9315 57.6 36.2668V33.0668H61.6C61.6469 33.0666 61.693 33.079 61.7336 33.1026C61.7741 33.1262 61.8077 33.1601 61.8308 33.2009C61.8539 33.2417 61.8658 33.2879 61.8651 33.3348C61.8645 33.3818 61.8514 33.4276 61.8272 33.4678L60.2539 36.0918C60.0268 36.4638 59.9062 36.8909 59.905 37.3267C59.9039 37.7624 60.0223 38.1902 60.2475 38.5633L61.8283 41.2012C61.8531 41.2405 61.8665 41.2859 61.8671 41.3324C61.8676 41.3789 61.8553 41.4247 61.8315 41.4646Z" fill="#CA8F65"/>
<path d="M27.4208 18.446C27.2196 18.2517 26.9502 18.1442 26.6705 18.1466C26.3908 18.1491 26.1233 18.2612 25.9255 18.459C25.7277 18.6568 25.6156 18.9243 25.6131 19.204C25.6107 19.4837 25.7182 19.7531 25.9125 19.9543L28.0459 22.0876C28.2459 22.2876 28.5171 22.3999 28.8 22.3999C29.0828 22.3999 29.3541 22.2876 29.5541 22.0876L38.0875 13.5543C38.2818 13.3531 38.3893 13.0837 38.3868 12.804C38.3844 12.5243 38.2722 12.2568 38.0745 12.059C37.8767 11.8612 37.6092 11.7491 37.3295 11.7466C37.0498 11.7442 36.7804 11.8517 36.5792 12.046L28.8 19.8252L27.4208 18.446Z" fill="#CA8F65"/>
<path d="M40.5333 28.8H23.4667C23.1838 28.8 22.9125 28.9124 22.7124 29.1125C22.5124 29.3125 22.4 29.5838 22.4 29.8667C22.4 30.1496 22.5124 30.4209 22.7124 30.621C22.9125 30.821 23.1838 30.9334 23.4667 30.9334H40.5333C40.8162 30.9334 41.0875 30.821 41.2876 30.621C41.4876 30.4209 41.6 30.1496 41.6 29.8667C41.6 29.5838 41.4876 29.3125 41.2876 29.1125C41.0875 28.9124 40.8162 28.8 40.5333 28.8Z" fill="#CA8F65"/>
<path d="M37.3333 33.0669H26.6667C26.3838 33.0669 26.1125 33.1793 25.9124 33.3793C25.7124 33.5793 25.6 33.8507 25.6 34.1336C25.6 34.4165 25.7124 34.6878 25.9124 34.8878C26.1125 35.0878 26.3838 35.2002 26.6667 35.2002H37.3333C37.6162 35.2002 37.8875 35.0878 38.0876 34.8878C38.2876 34.6878 38.4 34.4165 38.4 34.1336C38.4 33.8507 38.2876 33.5793 38.0876 33.3793C37.8875 33.1793 37.6162 33.0669 37.3333 33.0669Z" fill="#CA8F65"/>
</g>
<defs>
<clipPath id="clip0_105_4225">
<rect width="64" height="64" fill="white"/>
</clipPath>
</defs>
</svg>
