<svg width="30" height="23" viewBox="0 0 30 23" fill="none" xmlns="http://www.w3.org/2000/svg">
<path d="M6.52955 22.6214C4.56538 22.6214 2.97283 21.9313 1.75186 20.551C0.583974 19.1177 0 17.2597 0 14.977C0 12.0042 0.875916 9.2438 2.62774 6.69568C4.37957 4.09449 6.55609 2.15687 9.15729 0.882812L9.63508 1.83835C8.52029 2.68772 7.53815 3.77598 6.68878 5.10312C5.83941 6.43026 5.22899 8.07591 4.85739 10.0401L6.52955 10.4382C8.38754 10.8629 9.8209 11.6592 10.8295 12.8271C11.8912 13.9419 12.4221 15.2956 12.4221 16.8881C12.4221 18.5869 11.8381 19.9671 10.6702 21.0288C9.5554 22.0905 8.1752 22.6214 6.52955 22.6214ZM23.3311 22.6214C21.367 22.6214 19.7744 21.9313 18.5534 20.551C17.3855 19.1177 16.8017 17.2597 16.8017 14.977C16.8017 12.0042 17.6776 9.2438 19.4294 6.69568C21.1812 4.09449 23.3577 2.15687 25.9589 0.882812L26.4367 1.83835C25.3219 2.68772 24.3398 3.77598 23.4904 5.10312C22.6411 6.43026 22.0306 8.07591 21.659 10.0401L23.3311 10.4382C25.1891 10.8629 26.6225 11.6592 27.6311 12.8271C28.6928 13.9419 29.2236 15.2956 29.2236 16.8881C29.2236 18.5869 28.6397 19.9671 27.4719 21.0288C26.3571 22.0905 24.9768 22.6214 23.3311 22.6214Z" fill="#CA8F65"/>
</svg>
