<svg width="89" height="25" viewBox="0 0 89 25" fill="none" xmlns="http://www.w3.org/2000/svg">
<g clip-path="url(#clip0_145_5714)">
<path d="M87.68 11.4649C87.1665 10.129 86.3168 8.94839 85.2131 8.03736C84.1093 7.12633 82.789 6.51579 81.38 6.2649C79.9834 5.99935 78.5396 6.14969 77.2277 6.69721C75.9158 7.24473 74.7935 8.16537 74 9.34492C73.2473 10.5566 73.0026 12.0161 73.319 13.407C73.6353 14.7979 74.4873 16.008 75.69 16.7749C78.22 18.2049 81.77 16.3449 81.85 13.5349H81.65C81.5469 14.1375 81.3008 14.7066 80.9321 15.1943C80.5635 15.682 80.0832 16.0741 79.5315 16.3377C78.9799 16.6013 78.3731 16.7286 77.762 16.709C77.151 16.6893 76.5536 16.5233 76.02 16.2249C75.0468 15.5263 74.3816 14.4783 74.1635 13.3003C73.9454 12.1223 74.1914 10.9056 74.85 9.90491C75.554 8.94443 76.5239 8.21105 77.6399 7.79523C78.7558 7.37942 79.9691 7.29935 81.13 7.56492C82.2812 7.81612 83.3502 8.35382 84.2383 9.12821C85.1263 9.90261 85.8045 10.8886 86.21 11.9949C86.573 13.0974 86.6524 14.2735 86.4409 15.4148C86.2294 16.5561 85.7339 17.6257 85 18.5249C83.3148 20.2454 81.0844 21.327 78.69 21.5849C73.644 22.2545 68.5256 22.1533 63.51 21.2849C58.43 20.5449 53.42 19.2849 48.35 18.1349C43.28 16.9849 38.14 15.9249 32.97 15.2149L32.03 15.0949C35.03 13.5849 38.1 12.0049 41.11 10.4449L43.89 8.99491C46.39 9.15491 48.89 9.2149 51.39 9.2049C52.7 9.1549 54.01 9.14491 55.32 9.05491C56.6604 9.02635 57.9971 8.90271 59.32 8.68491C60.0464 8.53848 60.7473 8.28577 61.4 7.93491C62.1026 7.55186 62.6975 6.99821 63.13 6.32493C63.5898 5.62172 63.8235 4.79474 63.8 3.9549C63.7733 3.51292 63.6598 3.08055 63.4659 2.68247C63.272 2.28439 63.0015 1.92843 62.67 1.63492C62.0544 1.13599 61.3277 0.792783 60.5513 0.634375C59.7749 0.475967 58.9718 0.507024 58.21 0.724921C56.909 1.09793 55.6439 1.58653 54.43 2.18491C50.89 3.76491 47.5 5.57492 44.15 7.44492H43.63C33.2859 6.9833 23.0554 5.09202 13.23 1.82493L13.16 2.0149C22.2827 5.71181 31.9112 8.01103 41.72 8.83491C38.07 10.9049 34.44 13.0049 30.72 14.9349C26.29 14.3749 21.83 14.0049 17.37 13.8549C14.7633 13.7616 12.1533 13.7449 9.53997 13.8049C8.20266 13.7913 6.86605 13.8715 5.53997 14.0449C4.10774 14.2298 2.78499 14.9089 1.79998 15.9649C1.28049 16.521 0.933168 17.2157 0.799976 17.9649C0.694986 18.7145 0.820531 19.4784 1.15996 20.1549C1.487 20.7901 1.94194 21.3507 2.49608 21.8016C3.05022 22.2525 3.69161 22.5838 4.37999 22.7749C5.68582 23.1101 7.04436 23.1882 8.37999 23.0049C9.68999 22.8649 10.97 22.6049 12.26 22.4149C17.3662 21.3004 22.3332 19.6235 27.07 17.4149L28.9 16.5549C30.14 16.7149 31.37 16.8849 32.6 17.0749C37.71 17.8449 42.74 18.9249 47.78 20.1649C52.82 21.4049 57.89 22.6349 63.1 23.3949C68.346 24.255 73.6946 24.2854 78.95 23.4849C80.3083 23.2341 81.629 22.8106 82.88 22.2249C84.1827 21.6242 85.3343 20.7392 86.25 19.6349C87.1637 18.5073 87.7746 17.1651 88.0248 15.7354C88.2751 14.3058 88.1564 12.8359 87.68 11.4649ZM55.09 3.7049C56.2148 3.17712 57.3823 2.7456 58.58 2.41492C59.1044 2.29151 59.6478 2.27113 60.18 2.35493C60.6594 2.43429 61.1085 2.64156 61.48 2.9549C61.6363 3.09014 61.7637 3.25547 61.8548 3.44102C61.9458 3.62656 61.9986 3.82855 62.01 4.03492C62.0115 4.50041 61.8758 4.95602 61.62 5.34492C61.3415 5.7603 60.9678 6.10314 60.53 6.34492C60.0398 6.61609 59.51 6.80845 58.96 6.91492C57.7236 7.12772 56.474 7.2547 55.22 7.29493C53.93 7.39493 52.65 7.41492 51.36 7.47492C49.85 7.47492 48.36 7.47492 46.83 7.47492C49.55 6.15492 52.29 4.8549 55.09 3.7049ZM26.88 16.8149C22.2166 19.0505 17.2917 20.6933 12.22 21.7049C10.95 21.8749 9.67001 22.1249 8.40001 22.2349C7.15895 22.3792 5.90161 22.2772 4.7 21.9349C4.13786 21.7623 3.61705 21.4763 3.16985 21.0944C2.72265 20.7126 2.35851 20.2431 2.09996 19.7149C1.87453 19.2192 1.8055 18.6666 1.90197 18.1307C1.99843 17.5947 2.25586 17.1009 2.64 16.7149C3.47614 15.8872 4.57736 15.3808 5.74999 15.2849C7.00988 15.1705 8.27579 15.1371 9.53997 15.1849C12.1333 15.2382 14.7166 15.3316 17.29 15.4649C20.79 15.6649 24.29 15.9949 27.75 16.4649L26.88 16.8149Z" fill="#CA8F65"/>
</g>
<defs>
<clipPath id="clip0_145_5714">
<rect width="87.36" height="23.52" fill="white" transform="translate(0.820007 0.544922)"/>
</clipPath>
</defs>
</svg>
