<svg width="128" height="128" viewBox="0 0 128 128" fill="none" xmlns="http://www.w3.org/2000/svg">
<path d="M123.443 114.047L120.596 2.43625C120.561 1.08075 119.453 0 118.097 0H39.9031C38.5224 0 37.4031 1.1195 37.4031 2.5C37.4031 3.8805 38.5224 5 39.9031 5H115.66L116.795 49.4865H101.852L87.5099 41.206C85.7796 40.207 83.7596 39.9428 81.8204 40.4625C79.8816 40.982 78.2636 42.2208 77.2649 43.951L74.0689 49.4865H55.4454L53.4856 42.1725C52.9686 40.2428 51.7264 38.6275 49.9881 37.624C48.2499 36.6205 46.2296 36.3525 44.3001 36.8695L24.9816 42.046C23.0519 42.5628 21.4364 43.805 20.4326 45.5433C19.7291 46.762 19.3886 48.119 19.4251 49.4863H11.2049L12.3396 5H19.9029C21.2836 5 22.4029 3.8805 22.4029 2.5C22.4029 1.1195 21.2836 0 19.9029 0H9.90264C8.54689 0 7.43814 1.08075 7.40339 2.43625L4.55614 114.047C4.46389 117.664 5.83214 121.112 8.40864 123.756C11.0381 126.453 14.6956 128 18.4441 128H109.555C113.303 128 116.961 126.453 119.59 123.756C122.167 121.112 123.536 117.664 123.443 114.047ZM102.33 55.5363C103.524 56.2255 103.935 57.7575 103.246 58.9512L93.2456 76.272C92.5564 77.4653 91.0246 77.8753 89.8306 77.1868L72.5099 67.1868C71.3161 66.4975 70.9056 64.9655 71.5949 63.7718L76.9556 54.4865H100.512L102.33 55.5363ZM81.5949 46.4512C81.9261 45.8777 82.4656 45.4663 83.1144 45.2923C83.3331 45.2338 83.5546 45.2045 83.7741 45.2045C84.2056 45.2045 84.6296 45.3165 85.0096 45.536L91.8521 49.4865H79.8424L81.5949 46.4512ZM24.7629 48.0435C25.0986 47.462 25.6359 47.0473 26.2756 46.8758L45.5944 41.6992C45.8059 41.6425 46.0209 41.6145 46.2351 41.6145C46.6689 41.6145 47.0989 41.7292 47.4881 41.954C48.0699 42.29 48.4846 42.827 48.6559 43.4668L50.2689 49.4865H24.4319C24.3934 48.9892 24.5051 48.4897 24.7629 48.0435ZM53.8324 62.7855C54.1891 64.117 53.3961 65.4905 52.0646 65.8475L32.7459 71.0238C32.1061 71.1953 31.4336 71.1045 30.8521 70.7688C30.2704 70.4328 29.8556 69.8957 29.6844 69.256L25.7269 54.4865H51.6089L53.8324 62.7855ZM116.01 120.266C114.316 122.003 111.963 123 109.555 123H18.4441C16.0359 123 13.6831 122.004 11.9891 120.266C10.3616 118.596 9.49689 116.433 9.55439 114.175L9.68664 108.987H90.7491C92.1299 108.987 93.2491 107.867 93.2491 106.487C93.2491 105.106 92.1299 103.987 90.7491 103.987H9.81439L11.0771 54.4868H20.5504L24.8546 70.55C25.3716 72.48 26.6139 74.0952 28.3521 75.0987C29.5119 75.7685 30.7969 76.1105 32.0969 76.1105C32.7454 76.1105 33.3979 76.0252 34.0401 75.8532L53.3589 70.677C57.3534 69.6065 59.7324 65.4858 58.6619 61.4915L56.7849 54.4865H71.1819L67.2644 61.2718C65.1969 64.8533 66.4284 69.4492 70.0096 71.5167L87.3304 81.5167C88.5086 82.197 89.7961 82.5202 91.0679 82.5202C93.6616 82.5202 96.1879 81.175 97.5754 78.772L107.575 61.4512C108.574 59.721 108.838 57.7005 108.319 55.7615C108.2 55.3183 108.042 54.8927 107.851 54.4865H116.922L118.185 103.986H110.749C109.368 103.986 108.249 105.106 108.249 106.486C108.249 107.867 109.368 108.986 110.749 108.986H118.312L118.445 114.175C118.502 116.433 117.638 118.596 116.01 120.266Z" fill="#CA8F65"/>
<path d="M22.6572 82.2347C21.2765 82.2347 20.1572 83.3542 20.1572 84.7347V84.7367C20.1572 86.1172 21.2765 87.2357 22.6572 87.2357C24.038 87.2357 25.1572 86.1154 25.1572 84.7347C25.1572 83.3539 24.038 82.2347 22.6572 82.2347Z" fill="#CA8F65"/>
<path d="M53.9072 80.7347C52.5265 80.7347 51.4072 81.8542 51.4072 83.2347V83.2367C51.4072 84.6172 52.5265 85.7357 53.9072 85.7357C55.288 85.7357 56.4072 84.6154 56.4072 83.2347C56.4072 81.8539 55.288 80.7347 53.9072 80.7347Z" fill="#CA8F65"/>
<path d="M70.9062 90.9242C69.5255 90.9242 68.4062 92.0437 68.4062 93.4242V93.4259C68.4062 94.8064 69.5255 95.9252 70.9062 95.9252C72.287 95.9252 73.4062 94.8049 73.4062 93.4242C73.4062 92.0434 72.287 90.9242 70.9062 90.9242Z" fill="#CA8F65"/>
<path d="M112.157 79.9866C112.157 78.6061 111.038 77.4866 109.657 77.4866C108.276 77.4866 107.157 78.6061 107.157 79.9866V79.9884C107.157 81.3689 108.276 82.4876 109.657 82.4876C111.038 82.4876 112.157 81.3674 112.157 79.9866Z" fill="#CA8F65"/>
<path d="M29.9041 5C31.2848 5 32.4041 3.8805 32.4041 2.5C32.4041 1.1195 31.2848 0 29.9041 0H29.9023C28.5216 0 27.4033 1.1195 27.4033 2.5C27.4033 3.8805 28.5233 5 29.9041 5Z" fill="#CA8F65"/>
<path d="M100.751 103.986H100.749C99.3683 103.986 98.25 105.106 98.25 106.486C98.25 107.867 99.37 108.986 100.751 108.986C102.132 108.986 103.251 107.867 103.251 106.486C103.251 105.106 102.132 103.986 100.751 103.986Z" fill="#CA8F65"/>
</svg>
