<svg width="200" height="200" viewBox="0 0 200 200" fill="none" xmlns="http://www.w3.org/2000/svg">
<rect width="200" height="200" rx="100" fill="#2A2A2A"/>
<path d="M143 95.1882L140.41 84.8298C141.118 84.6794 141.649 84.0513 141.649 83.2987V81.6286C141.649 78.0024 138.699 75.0524 135.073 75.0524H123.278V71.6075C123.278 69.8231 121.826 68.3716 120.042 68.3716H59.9164C58.132 68.3716 56.6805 69.8231 56.6805 71.6075V100C56.6805 100.865 57.3814 101.566 58.2463 101.566C59.1109 101.566 59.8121 100.865 59.8121 100V71.6075C59.8121 71.5499 59.8588 71.5032 59.9164 71.5032H120.042C120.099 71.5032 120.146 71.5499 120.146 71.6075V100C120.146 100.865 120.847 101.566 121.712 101.566C122.576 101.566 123.278 100.865 123.278 100V98.2255H141.748C141.75 98.2255 141.751 98.2259 141.752 98.2259C141.754 98.2259 141.755 98.2257 141.756 98.2257C144.029 98.2272 145.959 99.719 146.622 101.775H141.753C140.889 101.775 140.188 102.476 140.188 103.341V106.681C140.188 109.386 142.388 111.587 145.094 111.587H146.868V118.476H142.774C141.429 114.593 137.737 111.795 133.403 111.795C129.068 111.795 125.376 114.593 124.031 118.476H123.277V106.681C123.277 105.816 122.576 105.115 121.711 105.115C120.847 105.115 120.146 105.816 120.146 106.681V118.476H87.6596C86.3146 114.592 82.623 111.795 78.2881 111.795C73.9531 111.795 70.2613 114.592 68.9166 118.476H59.9164C59.8588 118.476 59.8121 118.429 59.8121 118.371V114.927H66.5971C67.4617 114.927 68.1629 114.226 68.1629 113.361C68.1629 112.496 67.4619 111.795 66.5971 111.795H51.5658C50.7012 111.795 50 112.496 50 113.361C50 114.226 50.701 114.927 51.5658 114.927H56.6807V118.371C56.6807 120.156 58.1322 121.607 59.9166 121.607H68.3744C68.374 121.642 68.3717 121.677 68.3717 121.712C68.3717 127.18 72.8203 131.628 78.2881 131.628C83.7559 131.628 88.2045 127.18 88.2045 121.712C88.2045 121.676 88.2021 121.642 88.2018 121.607H123.489C123.488 121.642 123.486 121.677 123.486 121.712C123.486 127.18 127.935 131.628 133.403 131.628C138.87 131.628 143.319 127.18 143.319 121.712C143.319 121.676 143.317 121.642 143.316 121.607H148.434C149.299 121.607 150 120.906 150 120.042V103.34C150 99.2167 146.958 95.7907 143 95.1882ZM123.278 78.1839H135.073C136.972 78.1839 138.518 79.7292 138.518 81.6286V81.7329H123.278V78.1839ZM123.278 95.094V84.8644H137.191L139.748 95.094H123.278ZM78.2881 128.497C74.5469 128.497 71.5031 125.453 71.5031 121.712C71.5031 117.971 74.5469 114.927 78.2881 114.927C82.0293 114.927 85.073 117.971 85.073 121.712C85.073 125.453 82.0293 128.497 78.2881 128.497ZM133.403 128.497C129.662 128.497 126.618 125.453 126.618 121.712C126.618 117.971 129.662 114.927 133.403 114.927C137.144 114.927 140.188 117.971 140.188 121.712C140.188 125.453 137.144 128.497 133.403 128.497ZM146.869 108.455H145.094C144.115 108.455 143.319 107.659 143.319 106.681V104.906H146.868V108.455H146.869Z" fill="#F4DECE"/>
<path d="M78.2887 118.476C76.5043 118.476 75.0527 119.927 75.0527 121.712C75.0527 123.496 76.5043 124.948 78.2887 124.948C80.073 124.948 81.5246 123.496 81.5246 121.712C81.5246 119.927 80.073 118.476 78.2887 118.476Z" fill="#F4DECE"/>
<path d="M133.403 118.476C131.619 118.476 130.167 119.927 130.167 121.712C130.167 123.496 131.619 124.948 133.403 124.948C135.187 124.948 136.639 123.496 136.639 121.712C136.639 119.927 135.187 118.476 133.403 118.476Z" fill="#F4DECE"/>
<path d="M115.032 111.795H91.6498C90.7852 111.795 90.084 112.496 90.084 113.361C90.084 114.226 90.785 114.927 91.6498 114.927H115.032C115.896 114.927 116.598 114.226 116.598 113.361C116.598 112.496 115.897 111.795 115.032 111.795Z" fill="#F4DECE"/>
<path d="M74.9484 105.115H54.9066C54.042 105.115 53.3408 105.816 53.3408 106.681C53.3408 107.545 54.0418 108.246 54.9066 108.246H74.9484C75.8131 108.246 76.5142 107.545 76.5142 106.681C76.5142 105.816 75.8131 105.115 74.9484 105.115Z" fill="#F4DECE"/>
<path d="M104.447 83.8613C103.836 83.25 102.844 83.25 102.233 83.8615L88.3086 97.7855L81.065 90.542C80.4535 89.9304 79.4621 89.9304 78.8507 90.542C78.2392 91.1535 78.2392 92.1447 78.8507 92.7562L87.2015 101.107C87.5072 101.413 87.908 101.566 88.3086 101.566C88.7091 101.566 89.1101 101.413 89.4156 101.107L104.447 86.0758C105.058 85.464 105.058 84.4728 104.447 83.8613Z" fill="#F4DECE"/>
</svg>
