<svg width="66" height="88" viewBox="0 0 66 88" fill="none" xmlns="http://www.w3.org/2000/svg">
<path fill-rule="evenodd" clip-rule="evenodd" d="M65.4292 0H63.4292V22.4988C60.9165 20.833 57.4805 20 53.1211 20C50.7886 20 48.6699 20.238 46.7661 20.7141C44.9097 21.1423 43.2197 21.6899 41.6963 22.3562L40.9824 32.8525L41.6963 32.9241L44.9097 26.926C45.6709 25.498 46.647 24.2605 47.8369 23.2131C49.0747 22.166 50.5981 21.6423 52.4067 21.6423C54.2158 21.6423 55.6675 22.4277 56.7622 23.9985C57.8574 25.522 58.4048 28.1162 58.4048 31.7815C58.4048 35.5422 57.8335 38.1841 56.6909 39.7073C55.5962 41.2307 53.7871 41.9922 51.2642 41.9922H47.48V43.4204H51.7642C54.5249 43.4204 56.4771 44.2534 57.6191 45.9194C58.7617 47.5378 59.333 50.2275 59.333 53.988C59.333 58.3198 58.6426 61.4141 57.2622 63.2705C55.9292 65.0793 54.168 65.9839 51.9785 65.9839C48.2656 65.9839 45.3618 64.1035 43.2671 60.343L40.1255 54.5593H39.4116L38.626 63.8418C40.5776 64.7937 42.5532 65.627 44.5522 66.3408C46.5991 67.0549 49.2173 67.4119 52.4067 67.4119C56.0244 67.4119 59.1187 66.8408 61.6895 65.6982C62.3032 65.4304 62.8833 65.1387 63.4292 64.8237V88H65.4292V63.4397V45.3923V38.0361V24.1482V0ZM63.4292 39.6897C61.5322 40.9302 59.0483 41.8406 55.9771 42.4207C58.9663 42.6846 61.4502 43.282 63.4292 44.2134V39.6897ZM16.3516 67.4119C13.4951 67.4119 10.8057 66.6028 8.28271 64.9841C5.80762 63.3657 3.80811 60.8191 2.28516 57.344C0.761719 53.8691 0 49.3469 0 43.7773C0 38.1604 0.761719 33.6143 2.28516 30.1394C3.80811 26.6167 5.80762 24.0461 8.28271 22.4277C10.8057 20.8093 13.4951 20 16.3516 20C19.2075 20 21.873 20.8093 24.3486 22.4277C26.8716 24.0461 28.8945 26.6167 30.418 30.1394C31.9888 33.6143 32.7744 38.1604 32.7744 43.7773C32.7744 49.3469 31.9888 53.8691 30.418 57.344C28.8945 60.8191 26.8716 63.3657 24.3486 64.9841C21.873 66.6028 19.2075 67.4119 16.3516 67.4119ZM16.3516 65.9839C17.5415 65.9839 18.541 65.6746 19.3506 65.0557C20.207 64.4368 20.8975 63.3181 21.4209 61.6997C21.9448 60.0811 22.3257 57.8438 22.5635 54.9878C22.8018 52.084 22.9204 48.3472 22.9204 43.7773C22.9204 39.2075 22.8018 35.4707 22.5635 32.5671C22.3257 29.6157 21.9448 27.3308 21.4209 25.7124C20.8975 24.0938 20.207 22.9751 19.3506 22.3562C18.541 21.7375 17.5415 21.428 16.3516 21.428C15.1611 21.428 14.1377 21.7375 13.2812 22.3562C12.4717 22.9751 11.8052 24.0938 11.2817 25.7124C10.7583 27.2832 10.3774 29.5442 10.1392 32.4956C9.90137 35.3994 9.78223 39.1599 9.78223 43.7773C9.78223 48.3472 9.90137 52.084 10.1392 54.9878C10.3774 57.8914 10.7583 60.1526 11.2817 61.771C11.8052 63.342 12.4717 64.4368 13.2812 65.0557C14.1377 65.6746 15.1611 65.9839 16.3516 65.9839Z" fill="#595959"/>
</svg>
