<svg width="53" height="88" viewBox="0 0 53 88" fill="none" xmlns="http://www.w3.org/2000/svg">
<path fill-rule="evenodd" clip-rule="evenodd" d="M52.4468 0H50.4468V21.9219C48.439 23.071 46.3076 24.0967 44.0527 24.9985C41.4819 26.0459 38.7925 26.855 35.9839 27.4263V28.3545L41.7676 27.5691V62.1284C41.7676 63.9373 40.8633 65.1511 39.0542 65.77L36.2695 66.627V67.3408H50.4468V88H52.4468V67.3408V63.9663V0ZM16.3516 68.4119C13.4951 68.4119 10.8057 67.6028 8.28271 65.9841C5.80762 64.3657 3.80811 61.8191 2.28516 58.344C0.761719 54.8691 0 50.3469 0 44.7773C0 39.1604 0.761719 34.6143 2.28516 31.1394C3.80811 27.6167 5.80762 25.0461 8.28271 23.4277C10.8057 21.8093 13.4951 21 16.3516 21C19.2075 21 21.873 21.8093 24.3486 23.4277C26.8716 25.0461 28.8945 27.6167 30.418 31.1394C31.9888 34.6143 32.7744 39.1604 32.7744 44.7773C32.7744 50.3469 31.9888 54.8691 30.418 58.344C28.8945 61.8191 26.8716 64.3657 24.3486 65.9841C21.873 67.6028 19.2075 68.4119 16.3516 68.4119ZM16.3516 66.9839C17.5415 66.9839 18.541 66.6746 19.3506 66.0557C20.207 65.4368 20.8975 64.3181 21.4209 62.6997C21.9448 61.0811 22.3257 58.8438 22.5635 55.9878C22.8018 53.084 22.9204 49.3472 22.9204 44.7773C22.9204 40.2075 22.8018 36.4707 22.5635 33.5671C22.3257 30.6157 21.9448 28.3308 21.4209 26.7124C20.8975 25.0938 20.207 23.9751 19.3506 23.3562C18.541 22.7375 17.5415 22.428 16.3516 22.428C15.1611 22.428 14.1377 22.7375 13.2812 23.3562C12.4717 23.9751 11.8052 25.0938 11.2817 26.7124C10.7583 28.2832 10.3774 30.5442 10.1392 33.4956C9.90137 36.3994 9.78223 40.1599 9.78223 44.7773C9.78223 49.3472 9.90137 53.084 10.1392 55.9878C10.3774 58.8914 10.7583 61.1526 11.2817 62.771C11.8052 64.342 12.4717 65.4368 13.2812 66.0557C14.1377 66.6746 15.1611 66.9839 16.3516 66.9839Z" fill="#595959"/>
</svg>
