<svg width="72" height="72" viewBox="0 0 72 72" fill="none" xmlns="http://www.w3.org/2000/svg">
<circle opacity="0.3" cx="36" cy="36" r="35" stroke="#8E8E8E" stroke-linecap="round"/>
<path d="M36 50.2933C35.8686 50.2939 35.7384 50.2683 35.617 50.2179C35.4957 50.1676 35.3856 50.0935 35.2933 50L27.6133 42.32C25.9525 40.6609 24.8211 38.5465 24.3622 36.2442C23.9033 33.942 24.1376 31.5554 25.0354 29.3863C25.9332 27.2172 27.4542 25.3632 29.4059 24.0587C31.3577 22.7543 33.6524 22.058 36 22.058C38.3475 22.058 40.6423 22.7543 42.594 24.0587C44.5457 25.3632 46.0667 27.2172 46.9645 29.3863C47.8623 31.5554 48.0966 33.942 47.6377 36.2442C47.1789 38.5465 46.0474 40.6609 44.3866 42.32L36.7066 50C36.6143 50.0935 36.5042 50.1676 36.3829 50.2179C36.2615 50.2683 36.1314 50.2939 36 50.2933ZM36 24.0666C34.0495 24.068 32.1433 24.6474 30.522 25.7317C28.9007 26.8159 27.6371 28.3564 26.8909 30.1584C26.1447 31.9605 25.9493 33.9433 26.3294 35.8563C26.7096 37.7693 27.6482 39.5268 29.0266 40.9066L36 47.88L42.9733 40.9066C44.3518 39.5268 45.2904 37.7693 45.6705 35.8563C46.0507 33.9433 45.8553 31.9605 45.1091 30.1584C44.3629 28.3564 43.0993 26.8159 41.478 25.7317C39.8567 24.6474 37.9504 24.068 36 24.0666Z" fill="#CA8F65"/>
<path d="M36 38.3333C35.0111 38.3333 34.0444 38.0401 33.2222 37.4907C32.3999 36.9413 31.759 36.1604 31.3806 35.2467C31.0022 34.3331 30.9031 33.3278 31.0961 32.3579C31.289 31.388 31.7652 30.497 32.4645 29.7978C33.1637 29.0985 34.0546 28.6223 35.0245 28.4294C35.9945 28.2365 36.9998 28.3355 37.9134 28.7139C38.827 29.0924 39.6079 29.7332 40.1573 30.5555C40.7068 31.3777 41 32.3444 41 33.3333C41 34.6594 40.4732 35.9312 39.5355 36.8688C38.5978 37.8065 37.3261 38.3333 36 38.3333ZM36 30.3333C35.4067 30.3333 34.8266 30.5093 34.3333 30.8389C33.8399 31.1686 33.4554 31.6371 33.2284 32.1853C33.0013 32.7334 32.9419 33.3366 33.0576 33.9186C33.1734 34.5005 33.4591 35.0351 33.8787 35.4546C34.2982 35.8742 34.8328 36.1599 35.4147 36.2757C35.9967 36.3914 36.5999 36.332 37.148 36.105C37.6962 35.8779 38.1648 35.4934 38.4944 35C38.8241 34.5067 39 33.9267 39 33.3333C39 32.5377 38.6839 31.7746 38.1213 31.212C37.5587 30.6494 36.7956 30.3333 36 30.3333Z" fill="#CA8F65"/>
</svg>
