<svg width="400" height="34" viewBox="0 0 400 34" fill="none" xmlns="http://www.w3.org/2000/svg">
<g clip-path="url(#clip0_159_1908)">
<path d="M398.29 6.70895C397.385 5.1441 396.137 3.80584 394.638 2.79568C393.139 1.78553 391.43 1.13 389.64 0.878935C388.135 0.598021 386.585 0.673294 385.114 1.09872C383.643 1.52415 382.293 2.28794 381.17 3.32895C379.699 4.79341 378.769 6.71336 378.531 8.77499C378.293 10.8366 378.762 12.918 379.86 14.679C380.499 15.5628 381.314 16.3049 382.254 16.859C383.193 17.4131 384.237 17.7671 385.32 17.899C386.313 18.0527 387.326 17.9988 388.297 17.7406C389.268 17.4824 390.175 17.0256 390.96 16.399C391.782 15.6737 392.418 14.7625 392.816 13.7415C393.215 12.7204 393.363 11.6191 393.25 10.529C393.203 9.5112 392.912 8.51975 392.4 7.63882C391.888 6.7579 391.171 6.01352 390.31 5.46896C390.139 5.36685 389.934 5.33689 389.741 5.38565C389.548 5.43441 389.382 5.55791 389.28 5.72897C389.178 5.90004 389.148 6.10466 389.197 6.29782C389.245 6.49098 389.369 6.65683 389.54 6.75894C390.195 7.18115 390.739 7.75518 391.126 8.43234C391.512 9.1095 391.73 9.86986 391.76 10.649C391.847 11.5 391.734 12.3596 391.428 13.1587C391.122 13.9577 390.633 14.6737 390 15.2489C389.373 15.7399 388.652 16.0964 387.881 16.296C387.11 16.4956 386.306 16.5341 385.52 16.409C384.645 16.3017 383.801 16.0177 383.04 15.5741C382.278 15.1306 381.615 14.5368 381.09 13.8289C380.181 12.3619 379.798 10.6295 380.003 8.91605C380.209 7.20257 380.99 5.60976 382.22 4.39895C383.181 3.5301 384.331 2.89699 385.579 2.54983C386.827 2.20268 388.138 2.15103 389.41 2.39895C390.971 2.61302 392.464 3.17995 393.774 4.05667C395.084 4.93339 396.177 6.09689 396.97 7.45895C399.63 12.379 398.14 19.349 393.51 23.679C389.51 27.429 383.51 29.399 376.61 29.219C367.43 28.979 358.54 25.219 349.95 21.609C339.84 17.339 329.38 12.929 318.39 14.239C311.23 15.089 304.63 18.3189 298.26 21.4489L294.52 23.2589C287.35 26.6589 278.9 29.899 270.52 28.159C266.07 27.229 261.98 24.8989 258.02 22.6389C256.07 21.5389 254.02 20.389 252.02 19.409C243.952 15.5361 234.949 14.0362 226.061 15.0844C217.173 16.1325 208.766 19.6854 201.82 25.3289C200.952 24.505 200.204 23.5623 199.6 22.529C199.074 23.4271 198.442 24.2595 197.72 25.0089C192.435 20.8207 186.32 17.8041 179.78 16.159C169.13 13.5826 157.92 14.7148 148 19.3689C145.95 20.3689 143.94 21.499 142 22.599C138 24.859 133.95 27.1889 129.5 28.1189C121.15 29.8589 112.7 26.619 105.5 23.219L101.76 21.409C95.3899 18.279 88.7599 15.0489 81.6299 14.1989C70.6299 12.8889 60.1799 17.2989 50.0699 21.5689C41.4799 25.1889 32.5899 28.939 23.4099 29.179C16.5199 29.359 10.5199 27.3889 6.50993 23.6389C1.87993 19.3089 0.389908 12.339 3.04991 7.41897C3.8443 6.05788 4.93765 4.8951 6.24733 4.01852C7.557 3.14194 9.04875 2.57447 10.6099 2.35898C11.8814 2.11106 13.1931 2.1627 14.4411 2.50986C15.6891 2.85701 16.8391 3.49012 17.7999 4.35898C19.0296 5.56978 19.8112 7.16259 20.0166 8.87607C20.2219 10.5895 19.8387 12.3219 18.9299 13.789C18.405 14.4969 17.7416 15.0906 16.98 15.5341C16.2185 15.9777 15.3747 16.2617 14.4999 16.3689C13.7135 16.494 12.9098 16.4556 12.139 16.256C11.3682 16.0564 10.6468 15.7 10.0199 15.209C9.38858 14.6322 8.9007 13.916 8.59513 13.1174C8.28957 12.3188 8.17479 11.4598 8.25993 10.609C8.29004 9.82988 8.50754 9.06953 8.89399 8.39236C9.28045 7.7152 9.82447 7.14117 10.4799 6.71896C10.651 6.61685 10.7745 6.45094 10.8233 6.25778C10.872 6.06462 10.842 5.86 10.7399 5.68893C10.6894 5.60423 10.6226 5.53031 10.5435 5.4714C10.4644 5.4125 10.3744 5.36975 10.2788 5.34561C10.0856 5.29685 9.88098 5.32688 9.70991 5.42898C8.84766 5.97229 8.12984 6.71631 7.61784 7.5975C7.10584 8.4787 6.81491 9.47084 6.76991 10.489C6.64257 11.5806 6.7786 12.6868 7.16658 13.715C7.55456 14.7432 8.18321 15.6636 8.99992 16.399C9.78539 17.025 10.6921 17.4815 11.6628 17.7397C12.6335 17.9979 13.6472 18.0521 14.6399 17.899C15.7227 17.7671 16.7666 17.4131 17.7061 16.859C18.6456 16.3049 19.4606 15.5628 20.0999 14.679C21.2017 12.9192 21.6722 10.837 21.4341 8.77438C21.1961 6.71181 20.2636 4.79151 18.7899 3.32895C17.6672 2.28794 16.3165 1.52415 14.8457 1.09872C13.3749 0.673294 11.825 0.598021 10.3199 0.878935C8.53004 1.13 6.82087 1.78553 5.32209 2.79568C3.82332 3.80584 2.57434 5.1441 1.66993 6.70895C-1.33007 12.209 0.319933 19.959 5.41993 24.709C9.53993 28.559 15.5699 30.659 22.4799 30.659H23.3899C32.8599 30.409 41.8699 26.659 50.5899 22.929C60.9799 18.549 70.7899 14.409 81.3899 15.669C88.2999 16.489 94.7799 19.669 101.04 22.729C102.29 23.349 103.54 23.959 104.79 24.549C111.79 27.849 120.89 31.409 129.71 29.549C134.39 28.549 138.59 26.1789 142.71 23.8689C144.63 22.7689 146.62 21.639 148.62 20.679C158.234 16.1474 169.109 15.0394 179.44 17.539C185.693 19.1075 191.546 21.9728 196.62 25.9489C195.636 26.7656 194.525 27.4143 193.33 27.8689C195.984 28.9084 198.206 30.8198 199.63 33.289C201.054 30.8198 203.276 28.9084 205.93 27.8689C204.884 27.4666 203.901 26.9178 203.01 26.239C209.733 20.849 217.843 17.4675 226.403 16.4839C234.964 15.5002 243.629 16.9544 251.4 20.679C253.4 21.679 255.4 22.7689 257.31 23.8689C261.38 26.1789 265.58 28.569 270.31 29.549C279.13 31.389 288.31 27.829 295.23 24.549C296.48 23.959 297.73 23.349 298.98 22.729C305.24 19.669 311.72 16.489 318.63 15.669C329.23 14.409 339.04 18.549 349.43 22.929C358.15 26.609 367.16 30.409 376.63 30.659H377.54C384.45 30.659 390.48 28.559 394.54 24.709C399.65 19.959 401.26 12.209 398.29 6.70895Z" fill="#CA8F65"/>
<path d="M207.91 16.8388C208.952 16.6487 209.962 16.312 210.91 15.8388C211.387 15.5933 211.766 15.1941 211.988 14.7059C212.209 14.2177 212.259 13.669 212.13 13.1487C211.952 12.7694 211.669 12.449 211.315 12.2257C210.96 12.0024 210.549 11.8854 210.13 11.8887C209.277 11.9255 208.447 12.1803 207.72 12.6287C205.885 13.679 204.286 15.0954 203.021 16.7899C201.757 18.4844 200.855 20.4208 200.37 22.4788C202.097 19.7286 204.784 17.7184 207.91 16.8388Z" fill="#CA8F65"/>
<path d="M188.3 15.8986C189.248 16.3719 190.258 16.7085 191.3 16.8986C194.431 17.7785 197.123 19.7927 198.85 22.5486C198.366 20.4906 197.463 18.5542 196.199 16.8597C194.934 15.1652 193.335 13.7488 191.5 12.6986C190.773 12.2501 189.943 11.9953 189.09 11.9586C188.671 11.9553 188.26 12.0722 187.905 12.2955C187.551 12.5189 187.268 12.8392 187.09 13.2186C186.964 13.7362 187.015 14.2811 187.234 14.7667C187.453 15.2522 187.829 15.6506 188.3 15.8986Z" fill="#CA8F65"/>
</g>
<defs>
<clipPath id="clip0_159_1908">
<rect width="399.54" height="32.59" fill="white" transform="translate(0.22998 0.73877)"/>
</clipPath>
</defs>
</svg>
