<svg width="1920" height="273" viewBox="0 0 1920 273" fill="none" xmlns="http://www.w3.org/2000/svg">
<g clip-path="url(#clip0_296_5707)">
<path opacity="0.3" d="M1 273.117C143.62 223.849 290.279 196.459 439.08 172.25C638.53 139.8 839.655 116.22 1041.89 112.577C1245.76 108.905 1449.24 127.629 1651.21 153.868C1710.03 161.51 1756.97 167.919 1814.44 178.277C1848.91 184.489 1887.18 190.664 1920 204.339" stroke="#7A7464" stroke-linecap="round"/>
<path opacity="0.3" d="M1920 273.117C1769 221.095 1613.72 192.174 1456.18 166.611C1245.01 132.347 1032.06 107.449 817.944 103.603C602.093 99.7259 386.657 119.496 172.819 147.202C110.544 155.271 60.8427 162.038 0 172.975" stroke="#7A7464" stroke-linecap="round"/>
</g>
<defs>
<clipPath id="clip0_296_5707">
<rect width="1920" height="273" fill="white"/>
</clipPath>
</defs>
</svg>
