<svg width="1920" height="36" viewBox="0 0 1920 36" fill="none" xmlns="http://www.w3.org/2000/svg">
<g clip-path="url(#clip0_280_2362)">
<path fill-rule="evenodd" clip-rule="evenodd" d="M1918.28 19.6148H1920V1479.39H1918.28C1918.15 1482.87 1917.48 1484.03 1916.87 1481.41C1916.4 1479.76 1914.66 1479.04 1914.66 1480.53C1914.66 1481.01 1914.07 1481.36 1912.92 1481.32C1911.77 1481.29 1911.33 1481.65 1911.59 1482.44C1912.18 1484.09 1905.42 1484.9 1903.24 1483.46C1902.04 1482.65 1900.73 1482.62 1897.24 1483.3C1894.06 1483.83 1890.83 1484.04 1887.6 1483.92C1875.1 1483.25 1856.49 1482.85 1833.39 1482.72C1819.76 1482.65 1808.58 1482.3 1808.58 1481.93C1808.62 1481.11 1798.49 1481.36 1793.87 1482.28C1792.37 1482.82 1790.73 1482.82 1789.23 1482.28C1788.64 1481.83 1786.65 1481.81 1783.84 1482.28C1775.35 1483.72 1772.13 1483.74 1739.95 1482.58C1736.34 1482.46 1729.84 1482.53 1725.55 1482.74L1714.86 1483.25C1713.39 1483.3 1711.93 1483.56 1710.52 1484C1710.08 1484.2 1709.6 1484.26 1709.13 1484.19C1708.66 1484.12 1708.22 1483.91 1707.85 1483.6C1706.88 1482.78 1706.08 1482.83 1703.58 1483.95C1701.67 1484.79 1700.43 1485.06 1700.24 1484.44C1700.04 1483.83 1699.22 1483.76 1696.99 1484.32C1694.76 1484.88 1693.79 1484.65 1693.42 1484.02C1693.05 1483.39 1691.57 1483.16 1690.07 1483.39C1688.57 1483.62 1683.1 1483.95 1677.87 1484.11C1674.43 1484.06 1671 1484.39 1667.64 1485.09C1667.29 1485.27 1666.9 1485.36 1666.51 1485.33C1666.12 1485.31 1665.74 1485.18 1665.42 1484.95C1665.01 1484.65 1664.49 1484.52 1663.99 1484.59C1663.48 1484.67 1663.02 1484.93 1662.7 1485.34C1661.27 1486.7 1659.49 1486.72 1660.12 1485.69C1660.75 1484.65 1657.73 1484.65 1656.64 1485.69C1656.04 1486.27 1655.15 1486.23 1653.6 1485.56C1652.33 1485.05 1650.98 1484.72 1649.61 1484.6C1648.13 1484.56 1648.02 1484.7 1649 1485.41C1649.65 1485.86 1649.82 1486.25 1649.35 1486.25C1648.67 1486.11 1648.06 1485.74 1647.61 1485.21C1646.87 1484.51 1646.61 1484.72 1646.61 1485.21C1646.61 1485.7 1645.43 1486.76 1644.01 1487.46C1641.68 1488.69 1641.31 1488.69 1640.14 1487.46C1639.34 1486.62 1639.27 1486.11 1639.85 1486.13C1640.42 1486.14 1640.86 1485.86 1640.86 1485.53C1640.86 1485.2 1638.07 1484.97 1634.71 1485.04C1631.34 1485.11 1628.53 1485.48 1628.52 1485.92C1628.5 1486.35 1628.81 1486.67 1629.49 1486.69C1630.17 1486.7 1630.19 1486.93 1629.49 1487.6C1628.06 1488.95 1625.83 1487.86 1626.53 1486.11C1627 1484.95 1626.77 1484.81 1625.12 1485.21C1620.9 1486.28 1613.04 1486.46 1612.5 1485.51C1611.76 1484.13 1610.25 1484.28 1610.75 1485.7C1611.08 1486.67 1610.23 1486.83 1606.53 1486.67C1603.57 1486.55 1601.76 1486.83 1601.53 1487.46C1601.06 1488.62 1598.04 1488.69 1598.04 1487.46C1598.06 1487.02 1598.64 1486.65 1599.3 1486.67C1599.96 1486.69 1600.54 1486.46 1600.55 1485.79C1600.57 1485.13 1598.45 1484.97 1594.16 1485.13C1586.5 1485.44 1585.11 1485.6 1582.86 1486.77C1580.61 1487.95 1574.35 1488.56 1573.83 1487.67C1573.59 1487.23 1574.02 1486.56 1574.86 1486.13C1576.04 1485.48 1575.75 1485.21 1573.27 1485.21C1571.16 1485.13 1569.98 1485.55 1569.42 1486.48C1568.72 1487.67 1568.22 1487.56 1567.21 1486.63C1566.19 1485.7 1565.74 1485.63 1565.46 1486.37C1564.97 1487.55 1561.98 1487.63 1560.23 1486.51C1559.41 1485.99 1558.51 1486.16 1557.5 1487.04C1556.15 1488.21 1555.89 1488.07 1555.28 1487.14C1554.67 1486.21 1551.45 1485.9 1537.24 1485.39C1527.39 1485.04 1519.49 1484.41 1518.95 1483.93C1517.87 1483 1513.72 1483.46 1512.97 1484.6C1511.7 1485.19 1510.28 1485.41 1508.89 1485.23C1507.52 1485.06 1506.12 1485.27 1504.85 1485.83C1504.6 1486.21 1503.38 1486.35 1501.92 1486.09C1500.46 1485.83 1499.41 1486.02 1499.41 1486.56C1499.4 1486.8 1499.3 1487.02 1499.14 1487.19C1498.97 1487.35 1498.75 1487.45 1498.52 1487.46C1498.01 1487.44 1497.89 1487.05 1498.17 1486.62C1498.45 1486.18 1497.86 1485.76 1496.88 1485.76C1495.71 1485.66 1494.6 1485.18 1493.71 1484.41C1492.16 1482.95 1489.58 1483.57 1489.58 1485.32C1489.54 1486.25 1488.84 1486.46 1487.28 1486.25C1486.17 1486.07 1485.04 1486.17 1483.98 1486.55C1483.41 1486.88 1482.97 1486.76 1482.97 1486.27C1482.97 1486.15 1482.99 1486.04 1483.03 1485.94C1483.07 1485.84 1483.13 1485.74 1483.21 1485.67C1483.29 1485.59 1483.38 1485.52 1483.48 1485.48C1483.59 1485.44 1483.7 1485.42 1483.81 1485.42C1483.89 1485.43 1483.97 1485.43 1484.05 1485.41C1484.08 1485.4 1484.11 1485.39 1484.13 1485.38C1484.24 1485.35 1484.33 1485.29 1484.41 1485.21C1484.44 1485.19 1484.46 1485.17 1484.48 1485.14C1484.53 1485.08 1484.57 1485.01 1484.6 1484.94C1484.63 1484.86 1484.65 1484.78 1484.66 1484.69C1484.66 1484.67 1484.66 1484.64 1484.66 1484.62C1484.68 1483.46 1473.68 1483.25 1469.7 1484.34C1467.54 1484.93 1466.67 1485.77 1466.86 1486.35C1467.05 1486.93 1466.9 1487.46 1466.55 1487.46C1466.52 1487.45 1466.48 1487.45 1466.45 1487.44C1466.37 1487.42 1466.3 1487.39 1466.22 1487.35C1466.12 1487.3 1466.02 1487.24 1465.93 1487.16C1465.76 1487 1465.63 1486.79 1465.57 1486.56C1465.4 1485.97 1464.77 1485.88 1463.11 1486.46C1461.46 1487.04 1460.69 1486.93 1459.99 1486.04C1458.6 1484.28 1455.83 1484.44 1455.29 1486.34C1455.15 1486.79 1454.88 1487.18 1454.51 1487.47C1454.13 1487.76 1453.68 1487.92 1453.21 1487.93C1452.18 1487.91 1451.84 1487.55 1452.18 1487C1453.25 1485.34 1451.1 1484.93 1443.05 1485.34C1436.37 1485.69 1434.94 1486 1433.88 1487.44C1432.38 1489.47 1431.26 1489.21 1431.44 1487.55C1431.61 1485.88 1427.43 1485.18 1420.6 1485.88C1417.37 1486.21 1416.32 1486.62 1416.64 1487.41C1417.16 1488.81 1415.24 1489.42 1411.13 1489.16C1408.31 1488.97 1405.74 1487.53 1408.31 1487.53C1409.09 1487.53 1409.05 1487.34 1408.15 1486.81C1406.23 1486.29 1404.23 1486.15 1402.26 1486.39C1397.24 1486.72 1397.24 1486.79 1397.24 1491.04C1397.24 1492.35 1397.13 1492.23 1396.87 1491.23C1396.61 1490.23 1395.6 1489.74 1393.85 1489.74C1391.82 1489.67 1389.8 1489.48 1387.79 1489.18C1386.5 1488.82 1385.14 1488.87 1383.88 1489.32C1383.62 1489.76 1381.86 1489.74 1379.91 1489.32C1374.81 1488.72 1369.68 1488.46 1364.55 1488.53C1363.25 1488.53 1362.09 1488.53 1361.05 1488.52H1360.92C1356.56 1488.52 1354.31 1488.52 1352.06 1488.46C1349.67 1488.4 1347.28 1488.27 1342.35 1488L1342.33 1488C1341.09 1487.93 1339.7 1487.86 1338.1 1487.77C1325.46 1487.02 1325.08 1487.12 1325.08 1488.77C1325.06 1489.68 1324.66 1490.44 1324.23 1490.44C1324 1490.42 1323.79 1490.31 1323.64 1490.14C1323.59 1490.09 1323.55 1490.03 1323.52 1489.97C1323.45 1489.83 1323.41 1489.67 1323.42 1489.51C1323.46 1488.41 1320.23 1485.37 1318.93 1485.37C1317.26 1484.59 1315.71 1483.56 1314.32 1482.34C1313.06 1481.23 1311.69 1480.24 1310.24 1479.39H1310.06C1309.85 1479.6 1309.65 1480.57 1309.65 1481.79C1309.6 1483.62 1309.25 1484.28 1308.19 1484.25C1307.13 1484.21 1307.02 1484.44 1307.75 1485.21C1309.06 1486.6 1308.92 1487.53 1307.46 1487.53C1306.83 1487.51 1306.08 1486.67 1305.82 1485.63C1305.56 1484.6 1304.65 1482.13 1303.81 1480.11C1303.72 1479.87 1303.62 1479.63 1303.53 1479.39H1288.04C1287.91 1482.87 1287.23 1484.03 1286.63 1481.41C1286.16 1479.76 1284.42 1479.04 1284.42 1480.53C1284.42 1481.01 1283.83 1481.36 1282.68 1481.32C1281.53 1481.29 1281.09 1481.65 1281.35 1482.44C1281.95 1484.09 1275.19 1484.9 1273.02 1483.46C1271.82 1482.65 1270.51 1482.62 1267.03 1483.3C1263.85 1483.83 1260.62 1484.04 1257.4 1483.92C1244.92 1483.25 1226.33 1482.85 1203.26 1482.72C1189.65 1482.65 1178.49 1482.3 1178.49 1481.93C1178.52 1481.11 1168.41 1481.36 1163.8 1482.28C1162.3 1482.82 1160.66 1482.82 1159.17 1482.28C1158.57 1481.83 1156.59 1481.81 1153.79 1482.28C1145.31 1483.72 1142.09 1483.74 1109.95 1482.58C1106.35 1482.46 1099.85 1482.53 1095.57 1482.74L1084.9 1483.25C1083.43 1483.3 1081.97 1483.56 1080.57 1484C1080.13 1484.2 1079.65 1484.26 1079.18 1484.19C1078.71 1484.12 1078.26 1483.91 1077.9 1483.6C1076.93 1482.78 1076.13 1482.83 1073.64 1483.95C1071.72 1484.79 1070.49 1485.06 1070.3 1484.44C1070.1 1483.83 1069.29 1483.76 1067.06 1484.32C1064.83 1484.88 1063.85 1484.65 1063.49 1484.02C1063.12 1483.39 1061.64 1483.16 1060.15 1483.39C1058.65 1483.62 1053.18 1483.95 1047.96 1484.11C1044.53 1484.06 1041.1 1484.39 1037.74 1485.09C1037.4 1485.27 1037.01 1485.36 1036.62 1485.33C1036.23 1485.31 1035.85 1485.18 1035.53 1484.95C1035.12 1484.65 1034.6 1484.52 1034.1 1484.59C1033.59 1484.67 1033.13 1484.93 1032.82 1485.34C1031.39 1486.7 1029.61 1486.72 1030.24 1485.69C1030.87 1484.65 1027.85 1484.65 1026.76 1485.69C1026.17 1486.27 1025.28 1486.23 1023.73 1485.56C1022.45 1485.05 1021.11 1484.72 1019.74 1484.6C1018.26 1484.56 1018.16 1484.7 1019.13 1485.41C1019.78 1485.86 1019.95 1486.25 1019.48 1486.25C1018.8 1486.11 1018.19 1485.74 1017.74 1485.21C1017.01 1484.51 1016.75 1484.72 1016.75 1485.21C1016.75 1485.7 1015.56 1486.76 1014.15 1487.46C1011.82 1488.69 1011.45 1488.69 1010.29 1487.46C1009.49 1486.62 1009.42 1486.11 1009.99 1486.13C1010.57 1486.14 1011 1485.86 1011 1485.53C1011 1485.2 1008.22 1484.97 1004.86 1485.04C1001.5 1485.11 998.695 1485.48 998.677 1485.92C998.66 1486.35 998.973 1486.67 999.652 1486.69C1000.33 1486.7 1000.35 1486.93 999.652 1487.6C998.225 1488.95 995.996 1487.86 996.693 1486.11C997.163 1484.95 996.936 1484.81 995.283 1485.21C991.07 1486.28 983.219 1486.46 982.679 1485.51C981.948 1484.13 980.433 1484.28 980.938 1485.7C981.269 1486.67 980.416 1486.83 976.725 1486.67C973.766 1486.55 971.955 1486.83 971.729 1487.46C971.259 1488.62 968.247 1488.69 968.247 1487.46C968.265 1487.02 968.839 1486.65 969.501 1486.67C970.162 1486.69 970.737 1486.46 970.754 1485.79C970.771 1485.13 968.648 1484.97 964.365 1485.13C956.723 1485.44 955.33 1485.6 953.084 1486.77C950.839 1487.95 944.589 1488.56 944.067 1487.67C943.823 1487.23 944.258 1486.56 945.094 1486.13C946.278 1485.48 945.982 1485.21 943.51 1485.21C941.404 1485.13 940.22 1485.55 939.663 1486.48C938.966 1487.67 938.462 1487.56 937.452 1486.63C936.442 1485.7 935.99 1485.63 935.711 1486.37C935.224 1487.55 932.229 1487.63 930.488 1486.51C929.67 1485.99 928.765 1486.16 927.755 1487.04C926.415 1488.21 926.154 1488.07 925.544 1487.14C924.935 1486.21 921.715 1485.9 907.527 1485.39C897.691 1485.04 889.805 1484.41 889.265 1483.93C888.186 1483 884.043 1483.46 883.294 1484.6C882.022 1485.19 880.61 1485.41 879.221 1485.23C877.846 1485.06 876.451 1485.27 875.182 1485.83C874.938 1486.21 873.72 1486.35 872.257 1486.09C870.795 1485.83 869.75 1486.02 869.75 1486.56C869.742 1486.8 869.646 1487.02 869.481 1487.19C869.316 1487.35 869.095 1487.45 868.863 1487.46C868.358 1487.44 868.236 1487.05 868.514 1486.62C868.793 1486.18 868.201 1485.76 867.226 1485.76C866.055 1485.66 864.946 1485.18 864.058 1484.41C862.509 1482.95 859.932 1483.57 859.932 1485.32C859.897 1486.25 859.201 1486.46 857.634 1486.25C856.53 1486.07 855.399 1486.17 854.344 1486.55C853.77 1486.88 853.334 1486.76 853.334 1486.27C853.333 1486.22 853.336 1486.17 853.343 1486.12C853.353 1486.06 853.37 1486 853.393 1485.94C853.434 1485.84 853.496 1485.74 853.574 1485.67C853.652 1485.59 853.745 1485.52 853.847 1485.48C853.905 1485.46 853.965 1485.44 854.026 1485.43C854.074 1485.43 854.122 1485.42 854.17 1485.42C854.28 1485.43 854.391 1485.42 854.495 1485.38C854.6 1485.35 854.695 1485.29 854.776 1485.21C854.857 1485.14 854.92 1485.04 854.963 1484.94C855.005 1484.84 855.026 1484.73 855.023 1484.62C855.04 1483.46 844.056 1483.25 840.087 1484.34C837.928 1484.93 837.057 1485.77 837.249 1486.35C837.44 1486.93 837.284 1487.46 836.936 1487.46C836.705 1487.42 836.491 1487.31 836.318 1487.16C836.145 1487 836.021 1486.79 835.961 1486.56C835.787 1485.97 835.16 1485.88 833.506 1486.46C831.852 1487.04 831.086 1486.93 830.39 1486.04C828.997 1484.28 826.23 1484.44 825.69 1486.34C825.555 1486.79 825.282 1487.18 824.91 1487.47C824.538 1487.76 824.086 1487.92 823.618 1487.93C822.591 1487.91 822.243 1487.55 822.591 1487C823.653 1485.34 821.512 1484.93 813.469 1485.34C806.802 1485.69 805.374 1486 804.312 1487.44C802.815 1489.47 801.701 1489.21 801.875 1487.55C802.049 1485.88 797.871 1485.18 791.047 1485.88C787.826 1486.21 786.782 1486.62 787.095 1487.41C787.618 1488.81 785.703 1489.42 781.594 1489.16C778.774 1488.97 776.215 1487.53 778.774 1487.53C779.557 1487.53 779.523 1487.34 778.617 1486.81C776.7 1486.29 774.703 1486.15 772.733 1486.39C767.72 1486.72 767.72 1486.79 767.72 1491.04C767.72 1492.35 767.615 1492.23 767.354 1491.23C767.093 1490.23 766.083 1489.74 764.343 1489.74C762.314 1489.67 760.291 1489.48 758.284 1489.18C757.001 1488.82 755.641 1488.87 754.385 1489.32C754.124 1489.76 752.365 1489.74 750.416 1489.32C745.326 1488.72 740.203 1488.46 735.079 1488.53C733.725 1488.53 732.529 1488.53 731.461 1488.52H731.44C727.095 1488.52 724.851 1488.52 722.609 1488.46C720.22 1488.4 717.833 1488.27 712.913 1488L712.889 1488L708.67 1487.77C696.049 1487.02 695.666 1487.12 695.666 1488.77C695.649 1489.68 695.248 1490.44 694.813 1490.44C694.585 1490.42 694.374 1490.31 694.224 1490.14C694.074 1489.97 693.998 1489.74 694.013 1489.51C694.047 1488.41 690.827 1485.37 689.521 1485.37C687.853 1484.59 686.306 1483.56 684.925 1482.34C684.05 1481.57 683.127 1480.86 682.163 1480.22C681.339 1482.21 680.459 1484.62 680.202 1485.63C679.94 1486.67 679.191 1487.51 678.563 1487.53C678.476 1487.53 678.393 1487.52 678.315 1487.52C678.237 1487.52 678.154 1487.53 678.066 1487.53C677.44 1487.51 676.691 1486.67 676.43 1485.63C676.173 1484.62 675.293 1482.21 674.469 1480.21C673.5 1480.86 672.574 1481.57 671.695 1482.34C670.312 1483.56 668.762 1484.59 667.092 1485.37C665.785 1485.37 662.56 1488.41 662.595 1489.51C662.609 1489.74 662.533 1489.97 662.383 1490.14C662.233 1490.31 662.021 1490.42 661.793 1490.44C661.357 1490.44 660.956 1489.68 660.938 1488.77C660.938 1487.12 660.555 1487.02 647.916 1487.77L643.701 1488L643.692 1488L643.668 1488C638.741 1488.27 636.35 1488.4 633.959 1488.46C631.713 1488.52 629.466 1488.52 625.115 1488.52H624.846C623.84 1488.53 622.723 1488.53 621.471 1488.53C616.34 1488.46 611.209 1488.72 606.112 1489.32C604.16 1489.74 602.399 1489.76 602.138 1489.32C600.88 1488.87 599.518 1488.82 598.233 1489.18C596.223 1489.48 594.197 1489.67 592.166 1489.74C590.423 1489.74 589.412 1490.23 589.15 1491.23C588.889 1492.23 588.784 1492.35 588.784 1491.04C588.784 1486.79 588.784 1486.72 583.763 1486.39C581.791 1486.15 579.791 1486.29 577.871 1486.81C576.965 1487.34 576.93 1487.53 577.714 1487.53C580.277 1487.53 577.714 1488.97 574.89 1489.16C570.776 1489.42 568.858 1488.81 569.381 1487.41C569.695 1486.62 568.649 1486.21 565.424 1485.88C558.59 1485.18 554.406 1485.88 554.581 1487.55C554.755 1489.21 553.639 1489.47 552.14 1487.44C551.077 1486 549.647 1485.69 542.971 1485.34C534.917 1484.93 532.772 1485.34 533.836 1487C534.184 1487.55 533.836 1487.91 532.807 1487.93C532.339 1487.92 531.886 1487.76 531.514 1487.47C531.141 1487.18 530.868 1486.79 530.733 1486.34C530.192 1484.44 527.42 1484.28 526.026 1486.04C525.329 1486.93 524.561 1487.04 522.905 1486.46C521.249 1485.88 520.622 1485.97 520.447 1486.56C520.387 1486.79 520.263 1487 520.09 1487.16C519.917 1487.31 519.702 1487.42 519.471 1487.46C519.122 1487.46 518.966 1486.93 519.157 1486.35C519.349 1485.77 518.477 1484.93 516.316 1484.34C512.341 1483.25 501.341 1483.46 501.358 1484.62C501.355 1484.73 501.376 1484.84 501.419 1484.94C501.433 1484.98 501.45 1485.01 501.469 1485.04C501.506 1485.1 501.552 1485.16 501.606 1485.21C501.686 1485.29 501.782 1485.35 501.887 1485.38C501.991 1485.42 502.102 1485.43 502.213 1485.42C502.256 1485.42 502.3 1485.43 502.343 1485.43C502.409 1485.44 502.474 1485.46 502.536 1485.48C502.588 1485.5 502.638 1485.53 502.685 1485.56C502.729 1485.59 502.771 1485.63 502.81 1485.67C502.888 1485.74 502.949 1485.84 502.991 1485.94C503.032 1486.04 503.052 1486.15 503.049 1486.27C503.049 1486.76 502.614 1486.88 502.038 1486.55C500.982 1486.17 499.849 1486.07 498.744 1486.25C497.175 1486.46 496.477 1486.25 496.442 1485.32C496.442 1483.57 493.862 1482.95 492.311 1484.41C491.421 1485.18 490.311 1485.66 489.138 1485.76C488.162 1485.76 487.569 1486.18 487.848 1486.62C488.127 1487.05 488.005 1487.44 487.499 1487.46C487.266 1487.45 487.045 1487.35 486.88 1487.19C486.715 1487.02 486.619 1486.8 486.61 1486.56C486.61 1486.02 485.564 1485.83 484.1 1486.09C482.636 1486.35 481.415 1486.21 481.171 1485.83C479.901 1485.27 478.504 1485.06 477.127 1485.23C475.735 1485.41 474.322 1485.19 473.048 1484.6C472.298 1483.46 468.149 1483 467.068 1483.93C466.528 1484.41 458.631 1485.04 448.781 1485.39C434.573 1485.9 431.348 1486.21 430.738 1487.14C430.128 1488.07 429.866 1488.21 428.524 1487.04C427.513 1486.16 426.606 1485.99 425.787 1486.51C424.044 1487.63 421.045 1487.55 420.557 1486.37C420.278 1485.63 419.825 1485.7 418.814 1486.63C417.803 1487.56 417.297 1487.67 416.6 1486.48C416.042 1485.55 414.857 1485.13 412.747 1485.21C410.272 1485.21 409.976 1485.48 411.161 1486.13C411.998 1486.56 412.434 1487.23 412.19 1487.67C411.667 1488.56 405.408 1487.95 403.159 1486.77C400.91 1485.6 399.516 1485.44 391.863 1485.13C387.574 1484.97 385.448 1485.13 385.465 1485.79C385.482 1486.46 386.058 1486.69 386.72 1486.67C387.383 1486.65 387.958 1487.02 387.975 1487.46C387.975 1488.69 384.959 1488.62 384.489 1487.46C384.262 1486.83 382.449 1486.55 379.486 1486.67C375.79 1486.83 374.936 1486.67 375.267 1485.7C375.772 1484.28 374.256 1484.13 373.523 1485.51C372.983 1486.46 365.121 1486.28 360.902 1485.21C359.246 1484.81 359.019 1484.95 359.49 1486.11C360.187 1487.86 357.956 1488.95 356.526 1487.6C355.829 1486.93 355.847 1486.7 356.526 1486.69C357.206 1486.67 357.52 1486.35 357.503 1485.92C357.485 1485.48 354.679 1485.11 351.314 1485.04C347.95 1484.97 345.16 1485.2 345.16 1485.53C345.16 1485.86 345.596 1486.14 346.171 1486.13C346.747 1486.11 346.677 1486.62 345.875 1487.46C344.707 1488.69 344.341 1488.69 342.005 1487.46C340.593 1486.76 339.407 1485.7 339.407 1485.21C339.407 1484.72 339.146 1484.51 338.414 1485.21C337.961 1485.74 337.349 1486.11 336.671 1486.25C336.2 1486.25 336.374 1485.86 337.019 1485.41C337.995 1484.7 337.891 1484.56 336.409 1484.6C335.038 1484.72 333.693 1485.05 332.417 1485.56C330.865 1486.23 329.976 1486.27 329.384 1485.69C328.285 1484.65 325.269 1484.65 325.897 1485.69C326.525 1486.72 324.746 1486.7 323.317 1485.34C323 1484.93 322.541 1484.67 322.034 1484.59C321.528 1484.52 321.013 1484.65 320.597 1484.95C320.276 1485.18 319.9 1485.31 319.51 1485.33C319.12 1485.36 318.73 1485.27 318.383 1485.09C315.018 1484.39 311.587 1484.06 308.15 1484.11C302.921 1483.95 297.447 1483.62 295.947 1483.39C294.448 1483.16 292.966 1483.39 292.6 1484.02C292.234 1484.65 291.258 1484.88 289.027 1484.32C286.795 1483.76 285.976 1483.83 285.784 1484.44C285.592 1485.06 284.355 1484.79 282.437 1483.95C279.944 1482.83 279.142 1482.78 278.166 1483.6C277.805 1483.91 277.362 1484.12 276.89 1484.19C276.418 1484.26 275.936 1484.2 275.499 1484C274.092 1483.56 272.632 1483.3 271.158 1483.25L260.472 1482.74C256.183 1482.53 249.681 1482.46 246.072 1482.58C213.891 1483.74 210.666 1483.72 202.176 1482.28C199.37 1481.81 197.382 1481.83 196.789 1482.28C195.289 1482.82 193.653 1482.82 192.152 1482.28C187.533 1481.36 177.404 1481.11 177.439 1481.93C177.439 1482.3 166.265 1482.65 152.632 1482.72C129.534 1482.85 110.915 1483.25 98.416 1483.92C95.1902 1484.04 91.9603 1483.83 88.7757 1483.3C85.2891 1482.62 83.9817 1482.65 82.7788 1483.46C80.5997 1484.9 73.8358 1484.09 74.4285 1482.44C74.69 1481.65 74.2542 1481.29 73.1036 1481.32C71.953 1481.36 71.3603 1481.01 71.3603 1480.53C71.3603 1479.04 69.617 1479.76 69.1464 1481.41C68.5412 1484.03 67.867 1482.87 67.7384 1479.39H0V19.6148H67.7384C67.867 16.1263 68.5412 14.9695 69.1464 17.5914C69.617 19.2398 71.3603 19.9588 71.3603 18.4683C71.3603 17.9949 71.953 17.6441 73.1036 17.6795C74.2542 17.7142 74.69 17.346 74.4285 16.5572C73.8358 14.9087 80.5997 14.1019 82.7788 15.5401C83.9817 16.3465 85.2891 16.3816 88.7757 15.6976C91.9603 15.1668 95.1902 14.961 98.416 15.084C110.915 15.7503 129.534 16.1536 152.632 16.2764C166.265 16.3465 177.439 16.6973 177.439 17.0657C177.404 17.8895 187.533 17.6441 192.152 16.7151C193.653 16.1827 195.289 16.1827 196.789 16.7151C197.382 17.1707 199.37 17.1885 202.176 16.7151C210.666 15.2769 213.891 15.2596 246.072 16.417C249.681 16.5396 256.183 16.4693 260.472 16.2591L271.158 15.7503C272.632 15.6971 274.092 15.4434 275.499 14.9966C275.936 14.8033 276.418 14.7391 276.89 14.8101C277.362 14.8816 277.805 15.086 278.166 15.3995C279.142 16.2237 279.944 16.1712 282.437 15.0489C284.355 14.2073 285.592 13.9444 285.784 14.5579C285.976 15.1714 286.795 15.242 289.027 14.6807C291.258 14.1197 292.234 14.3477 292.6 14.9788C292.966 15.6102 294.448 15.8382 295.947 15.6102C297.447 15.3821 302.921 15.0489 308.15 14.8914C311.587 14.9405 315.018 14.6116 318.383 13.9092C318.73 13.7276 319.12 13.6443 319.51 13.669C319.9 13.6937 320.276 13.825 320.597 14.0496C321.013 14.3497 321.528 14.4769 322.034 14.4053C322.541 14.3333 323 14.0677 323.317 13.6636C324.746 12.2959 326.525 12.2786 325.897 13.313C325.269 14.3477 328.285 14.3477 329.384 13.313C329.976 12.7342 330.865 12.7696 332.417 13.4356C333.693 13.9537 335.038 14.2786 336.409 14.3999C337.891 14.4353 337.995 14.2952 337.019 13.5936C336.374 13.1375 336.2 12.752 336.671 12.752C337.349 12.8946 337.961 13.2583 338.414 13.7864C339.146 14.4878 339.407 14.2774 339.407 13.7864C339.407 13.2955 340.593 12.2435 342.005 11.5418C344.341 10.3143 344.707 10.3143 345.875 11.5418C346.677 12.3833 346.747 12.8921 346.171 12.8748C345.596 12.857 345.16 13.1375 345.16 13.471C345.16 13.8038 347.95 14.0318 351.314 13.9617C354.679 13.8916 357.485 13.5237 357.503 13.085C357.52 12.6468 357.206 12.3309 356.526 12.3133C355.847 12.2959 355.829 12.0679 356.526 11.4017C357.956 10.0516 360.187 11.1385 359.49 12.8921C359.019 14.0496 359.246 14.1897 360.902 13.7864C365.121 12.7168 372.983 12.5416 373.523 13.4883C374.256 14.8733 375.772 14.7159 375.267 13.2955C374.936 12.3309 375.79 12.1734 379.486 12.3313C382.449 12.4539 384.262 12.1734 384.489 11.5418C384.959 10.3848 387.975 10.3143 387.975 11.5418C387.958 11.9805 387.383 12.3487 386.72 12.3313C386.058 12.3133 385.482 12.5416 385.465 13.2076C385.448 13.8743 387.574 14.0318 391.863 13.8743C399.516 13.5584 400.91 13.4009 403.159 12.2259C405.408 11.0511 411.667 10.4371 412.19 11.3316C412.434 11.7698 411.998 12.4361 411.161 12.8748C409.976 13.5237 410.272 13.7864 412.747 13.7864C414.857 13.8743 416.042 13.4532 416.6 12.524C417.297 11.3316 417.803 11.4366 418.814 12.366C419.825 13.2955 420.278 13.3655 420.557 12.6294C421.045 11.4544 424.044 11.3665 425.787 12.4888C426.606 13.0149 427.513 12.8394 428.524 11.9627C429.866 10.7876 430.128 10.9283 430.738 11.8577C431.348 12.7869 434.573 13.1028 448.781 13.6111C458.631 13.9617 466.528 14.5933 467.068 15.0667C468.149 15.9957 472.298 15.5401 473.048 14.3999C474.322 13.8091 475.735 13.5904 477.127 13.7691C478.504 13.939 479.901 13.7332 481.171 13.1729C481.415 12.7869 482.636 12.6468 484.1 12.9095C485.564 13.1729 486.61 12.9795 486.61 12.4361C486.619 12.2017 486.715 11.9795 486.88 11.8133C487.045 11.6478 487.266 11.5506 487.499 11.5418C488.005 11.5591 488.127 11.9454 487.848 12.3833C487.569 12.8221 488.162 13.243 489.138 13.243C490.311 13.3448 491.421 13.8174 492.311 14.5933C493.862 16.0484 496.442 15.4349 496.442 13.6812C496.477 12.752 497.175 12.5416 498.744 12.752C499.849 12.9312 500.982 12.8289 502.038 12.4539C502.614 12.1207 503.049 12.2435 503.049 12.7342C503.052 12.8453 503.032 12.9559 502.991 13.0594C502.949 13.1622 502.888 13.2564 502.81 13.3348C502.764 13.3809 502.713 13.4214 502.657 13.4554C502.619 13.4791 502.578 13.4998 502.536 13.5169C502.433 13.5584 502.323 13.5782 502.213 13.5762C502.102 13.5662 501.991 13.5796 501.887 13.6158C501.782 13.6521 501.686 13.7105 501.606 13.7869C501.525 13.8628 501.461 13.9556 501.419 14.0579C501.376 14.1609 501.355 14.2715 501.358 14.3826C501.341 15.5401 512.341 15.7503 516.316 14.6634C518.477 14.0672 519.349 13.2256 519.157 12.6468C518.966 12.0679 519.122 11.5418 519.471 11.5418C519.702 11.5811 519.917 11.6863 520.09 11.8448C520.263 12.0032 520.387 12.2085 520.447 12.4361C520.622 13.0323 521.249 13.1202 522.905 12.5416C524.561 11.9627 525.329 12.0679 526.026 12.9622C527.42 14.7159 530.192 14.5579 530.733 12.6641C530.868 12.2129 531.141 11.8157 531.514 11.5293C531.886 11.2427 532.339 11.0813 532.807 11.0684C533.836 11.0857 534.184 11.4544 533.836 11.9978C532.772 13.6636 534.917 14.0672 542.971 13.6636C549.647 13.313 551.077 12.9976 552.14 11.5591C553.639 9.52544 554.755 9.78862 554.581 11.4544C554.406 13.1202 558.59 13.8216 565.424 13.1202C568.649 12.7869 569.695 12.3833 569.381 11.5945C568.858 10.1915 570.776 9.57793 574.89 9.84087C577.714 10.034 580.277 11.4717 577.714 11.4717C576.93 11.4717 576.965 11.6646 577.871 12.1907C579.791 12.7051 581.791 12.8477 583.763 12.6114C588.784 12.2786 588.784 12.2081 588.784 7.96489C588.784 6.64922 588.889 6.77251 589.15 7.77153C589.412 8.77129 590.423 9.2625 592.166 9.2625C594.197 9.33061 596.223 9.51811 598.233 9.82329C599.518 10.1761 600.88 10.1272 602.138 9.6834C602.399 9.24468 604.16 9.2625 606.112 9.6834C611.209 10.2798 616.34 10.5433 621.471 10.4722C622.772 10.4742 623.928 10.4747 624.966 10.4751H625.115C629.466 10.4781 631.713 10.4795 633.959 10.5389C636.322 10.6014 638.684 10.7288 643.493 10.9878L643.668 10.9974L643.692 10.9988L643.701 10.9993L647.916 11.2264C660.555 11.9805 660.938 11.8753 660.938 10.2269C660.956 9.31523 661.357 8.56108 661.793 8.56108C662.021 8.5789 662.233 8.68657 662.383 8.86064C662.533 9.03398 662.609 9.26054 662.595 9.49004C662.56 10.595 665.785 13.6285 667.092 13.6285C668.762 14.4136 670.312 15.4353 671.695 16.6624C672.574 17.431 673.5 18.1412 674.469 18.7896C675.293 16.7918 676.173 14.3831 676.43 13.3655C676.691 12.3313 677.44 11.4893 678.066 11.4717C678.154 11.4717 678.237 11.4751 678.315 11.4815C678.359 11.4778 678.404 11.4751 678.451 11.4737C678.487 11.4725 678.525 11.4717 678.563 11.4717C679.191 11.4893 679.94 12.3313 680.202 13.3655C680.459 14.3821 681.339 16.7876 682.163 18.7837C683.127 18.1375 684.05 17.4288 684.925 16.6624C686.306 15.4353 687.853 14.4136 689.521 13.6285C690.827 13.6285 694.047 10.595 694.013 9.49004C693.998 9.26054 694.074 9.03398 694.224 8.86064C694.374 8.68657 694.585 8.5789 694.813 8.56108C695.248 8.56108 695.649 9.31523 695.666 10.2269C695.666 11.8753 696.049 11.9805 708.67 11.2264L712.889 10.9988L712.913 10.9974L713.089 10.9878C717.891 10.7288 720.249 10.6014 722.609 10.5389C724.851 10.4795 727.095 10.4781 731.44 10.4751H731.461C732.529 10.4747 733.725 10.4742 735.079 10.4722C740.203 10.5433 745.326 10.2798 750.416 9.6834C752.365 9.2625 754.124 9.24468 754.385 9.6834C755.641 10.1272 757.001 10.1761 758.284 9.82329C760.291 9.51811 762.314 9.33061 764.343 9.2625C766.083 9.2625 767.093 8.77129 767.354 7.77153C767.615 6.77251 767.72 6.64922 767.72 7.96489C767.72 12.2081 767.72 12.2786 772.733 12.6114C774.703 12.8477 776.7 12.7051 778.617 12.1907C779.523 11.6646 779.557 11.4717 778.774 11.4717C776.215 11.4717 778.774 10.034 781.594 9.84087C785.703 9.57793 787.618 10.1915 787.095 11.5945C786.782 12.3833 787.826 12.7869 791.047 13.1202C797.871 13.8216 802.049 13.1202 801.875 11.4544C801.701 9.78862 802.815 9.52544 804.312 11.5591C805.374 12.9976 806.802 13.313 813.469 13.6636C821.512 14.0672 823.653 13.6636 822.591 11.9978C822.243 11.4544 822.591 11.0857 823.618 11.0684C824.086 11.0813 824.538 11.2427 824.91 11.5293C825.282 11.8157 825.555 12.2129 825.69 12.6641C826.23 14.5579 828.997 14.7159 830.39 12.9622C831.086 12.0679 831.852 11.9627 833.506 12.5416C835.16 13.1202 835.787 13.0323 835.961 12.4361C835.994 12.3116 836.046 12.1934 836.115 12.0862C836.171 11.9976 836.24 11.9166 836.318 11.8448C836.491 11.6863 836.705 11.5811 836.936 11.5418C837.284 11.5418 837.44 12.0679 837.249 12.6468C837.057 13.2256 837.928 14.0672 840.087 14.6634C844.056 15.7503 855.04 15.5401 855.023 14.3826C855.026 14.2715 855.005 14.1609 854.963 14.0579C854.92 13.9556 854.857 13.8628 854.776 13.7869C854.695 13.7105 854.6 13.6521 854.495 13.6158C854.391 13.5796 854.28 13.5662 854.17 13.5762C854.06 13.5782 853.95 13.5584 853.847 13.5169C853.745 13.4754 853.652 13.4134 853.574 13.3348C853.496 13.2564 853.434 13.1622 853.393 13.0594C853.38 13.0259 853.369 12.9915 853.36 12.9566C853.341 12.8841 853.333 12.8091 853.334 12.7342C853.334 12.2435 853.77 12.1207 854.344 12.4539C855.399 12.8289 856.53 12.9312 857.634 12.752C859.201 12.5416 859.897 12.752 859.932 13.6812C859.932 15.4349 862.509 16.0484 864.058 14.5933C864.946 13.8174 866.055 13.3448 867.226 13.243C868.201 13.243 868.793 12.8221 868.514 12.3833C868.236 11.9454 868.358 11.5591 868.863 11.5418C869.095 11.5506 869.316 11.6478 869.481 11.8133C869.646 11.9795 869.742 12.2017 869.75 12.4361C869.75 12.9795 870.795 13.1729 872.257 12.9095C873.72 12.6468 874.938 12.7869 875.182 13.1729C876.451 13.7332 877.846 13.939 879.221 13.7691C880.61 13.5904 882.022 13.8091 883.294 14.3999C884.043 15.5401 888.186 15.9957 889.265 15.0667C889.805 14.5933 897.691 13.9617 907.527 13.6111C921.715 13.1028 924.935 12.7869 925.544 11.8577C926.154 10.9283 926.415 10.7876 927.755 11.9627C928.765 12.8394 929.67 13.0149 930.488 12.4888C932.229 11.3665 935.224 11.4544 935.711 12.6294C935.99 13.3655 936.442 13.2955 937.452 12.366C938.462 11.4366 938.966 11.3316 939.663 12.524C940.22 13.4532 941.404 13.8743 943.51 13.7864C945.982 13.7864 946.278 13.5237 945.094 12.8748C944.258 12.4361 943.823 11.7698 944.067 11.3316C944.589 10.4371 950.839 11.0511 953.084 12.2259C955.33 13.4009 956.723 13.5584 964.365 13.8743C968.648 14.0318 970.771 13.8743 970.754 13.2076C970.737 12.5416 970.162 12.3133 969.501 12.3313C968.839 12.3487 968.265 11.9805 968.247 11.5418C968.247 10.3143 971.259 10.3848 971.729 11.5418C971.955 12.1734 973.766 12.4539 976.725 12.3313C980.416 12.1734 981.269 12.3309 980.938 13.2955C980.433 14.7159 981.948 14.8733 982.679 13.4883C983.219 12.5416 991.07 12.7168 995.283 13.7864C996.936 14.1897 997.163 14.0496 996.693 12.8921C995.996 11.1385 998.225 10.0516 999.652 11.4017C1000.35 12.0679 1000.33 12.2959 999.652 12.3133C998.973 12.3309 998.66 12.6468 998.677 13.085C998.695 13.5237 1001.5 13.8916 1004.86 13.9617C1008.22 14.0318 1011 13.8038 1011 13.471C1011 13.1375 1010.57 12.857 1009.99 12.8748C1009.42 12.8921 1009.49 12.3833 1010.29 11.5418C1011.45 10.3143 1011.82 10.3143 1014.15 11.5418C1015.56 12.2435 1016.75 13.2955 1016.75 13.7864C1016.75 14.2774 1017.01 14.4878 1017.74 13.7864C1018.19 13.2583 1018.8 12.8946 1019.48 12.752C1019.95 12.752 1019.78 13.1375 1019.13 13.5936C1018.16 14.2952 1018.26 14.4353 1019.74 14.3999C1021.11 14.2786 1022.45 13.9537 1023.73 13.4356C1025.28 12.7696 1026.17 12.7342 1026.76 13.313C1027.85 14.3477 1030.87 14.3477 1030.24 13.313C1029.61 12.2786 1031.39 12.2959 1032.82 13.6636C1033.13 14.0677 1033.59 14.3333 1034.1 14.4053C1034.6 14.4769 1035.12 14.3497 1035.53 14.0496C1035.85 13.825 1036.23 13.6937 1036.62 13.669C1037.01 13.6443 1037.4 13.7276 1037.74 13.9092C1041.1 14.6116 1044.53 14.9405 1047.96 14.8914C1053.18 15.0489 1058.65 15.3821 1060.15 15.6102C1061.64 15.8382 1063.12 15.6102 1063.49 14.9788C1063.85 14.3477 1064.83 14.1197 1067.06 14.6807C1069.29 15.242 1070.1 15.1714 1070.3 14.5579C1070.49 13.9444 1071.72 14.2073 1073.64 15.0489C1076.13 16.1712 1076.93 16.2237 1077.9 15.3995C1078.26 15.086 1078.71 14.8816 1079.18 14.8101C1079.65 14.7391 1080.13 14.8033 1080.57 14.9966C1081.97 15.4434 1083.43 15.6971 1084.9 15.7503L1095.57 16.2591C1099.85 16.4693 1106.35 16.5396 1109.95 16.417C1142.09 15.2596 1145.31 15.2769 1153.79 16.7151C1156.59 17.1885 1158.57 17.1707 1159.17 16.7151C1160.66 16.1827 1162.3 16.1827 1163.8 16.7151C1168.41 17.6441 1178.52 17.8895 1178.49 17.0657C1178.49 16.6973 1189.65 16.3465 1203.26 16.2764C1226.33 16.1536 1244.92 15.7503 1257.4 15.084C1260.62 14.961 1263.85 15.1668 1267.03 15.6976C1270.51 16.3816 1271.82 16.3465 1273.02 15.5401C1275.19 14.1019 1281.95 14.9087 1281.35 16.5572C1281.09 17.346 1281.53 17.7142 1282.68 17.6795C1283.83 17.6441 1284.42 17.9949 1284.42 18.4683C1284.42 19.9588 1286.16 19.2398 1286.63 17.5914C1287.23 14.9695 1287.91 16.1263 1288.04 19.6148H1303.53C1303.62 19.3721 1303.72 19.1302 1303.81 18.8892C1304.65 16.8726 1305.56 14.3999 1305.82 13.3655C1306.08 12.3313 1306.83 11.4893 1307.46 11.4717C1308.92 11.4717 1309.06 12.4014 1307.75 13.7864C1307.02 14.5579 1307.13 14.7859 1308.19 14.7508C1309.25 14.7159 1309.6 15.3821 1309.65 17.2059C1309.65 18.4278 1309.85 19.3963 1310.06 19.6148H1310.24C1311.69 18.7601 1313.06 17.7718 1314.32 16.6624C1315.71 15.4353 1317.26 14.4136 1318.93 13.6285C1320.23 13.6285 1323.46 10.595 1323.42 9.49004C1323.42 9.41411 1323.43 9.33867 1323.44 9.26518C1323.47 9.1165 1323.54 8.97661 1323.64 8.86064C1323.79 8.68657 1324 8.5789 1324.23 8.56108C1324.66 8.56108 1325.06 9.31523 1325.08 10.2269C1325.08 11.8753 1325.46 11.9805 1338.1 11.2264C1339.25 11.1651 1340.3 11.1082 1341.26 11.0564L1342.33 10.9988L1342.35 10.9974C1347.28 10.7317 1349.67 10.6021 1352.06 10.5389C1354.31 10.4795 1356.56 10.4781 1360.92 10.4751H1360.93C1362 10.4747 1363.19 10.4742 1364.55 10.4722C1369.68 10.5433 1374.81 10.2798 1379.91 9.6834C1381.86 9.2625 1383.62 9.24468 1383.88 9.6834C1385.14 10.1272 1386.5 10.1761 1387.79 9.82329C1389.8 9.51811 1391.82 9.33061 1393.85 9.2625C1395.6 9.2625 1396.61 8.77129 1396.87 7.77153C1397.13 6.77251 1397.24 6.64922 1397.24 7.96489C1397.24 12.2081 1397.24 12.2786 1402.26 12.6114C1404.23 12.8477 1406.23 12.7051 1408.15 12.1907C1409.05 11.6646 1409.09 11.4717 1408.31 11.4717C1405.74 11.4717 1408.31 10.034 1411.13 9.84087C1415.24 9.57793 1417.16 10.1915 1416.64 11.5945C1416.32 12.3833 1417.37 12.7869 1420.6 13.1202C1427.43 13.8216 1431.61 13.1202 1431.44 11.4544C1431.26 9.78862 1432.38 9.52544 1433.88 11.5591C1434.94 12.9976 1436.37 13.313 1443.05 13.6636C1451.1 14.0672 1453.25 13.6636 1452.18 11.9978C1451.84 11.4544 1452.18 11.0857 1453.21 11.0684C1453.68 11.0813 1454.13 11.2427 1454.51 11.5293C1454.88 11.8157 1455.15 12.2129 1455.29 12.6641C1455.83 14.5579 1458.6 14.7159 1459.99 12.9622C1460.69 12.0679 1461.46 11.9627 1463.11 12.5416C1464.77 13.1202 1465.4 13.0323 1465.57 12.4361C1465.63 12.2085 1465.76 12.0032 1465.93 11.8448C1466.02 11.7642 1466.12 11.6973 1466.22 11.6463C1466.33 11.5965 1466.44 11.5611 1466.55 11.5418C1466.9 11.5418 1467.05 12.0679 1466.86 12.6468C1466.67 13.2256 1467.54 14.0672 1469.7 14.6634C1473.68 15.7503 1484.68 15.5401 1484.66 14.3826C1484.66 14.3575 1484.66 14.3328 1484.66 14.3082C1484.65 14.2222 1484.63 14.1377 1484.6 14.0579C1484.56 13.9556 1484.49 13.8628 1484.41 13.7869C1484.37 13.7454 1484.32 13.7093 1484.27 13.679C1484.23 13.6536 1484.18 13.6324 1484.13 13.6158C1484.11 13.6067 1484.08 13.5989 1484.05 13.5926C1484.01 13.5826 1483.96 13.5762 1483.92 13.574C1483.88 13.5721 1483.84 13.5728 1483.81 13.5762C1483.7 13.5782 1483.59 13.5584 1483.48 13.5169C1483.38 13.4754 1483.29 13.4134 1483.21 13.3348C1483.13 13.2564 1483.07 13.1622 1483.03 13.0594C1482.99 12.9559 1482.97 12.8453 1482.97 12.7342C1482.97 12.2435 1483.41 12.1207 1483.98 12.4539C1485.04 12.8289 1486.17 12.9312 1487.28 12.752C1488.84 12.5416 1489.54 12.752 1489.58 13.6812C1489.58 15.4349 1492.16 16.0484 1493.71 14.5933C1494.6 13.8174 1495.71 13.3448 1496.88 13.243C1497.86 13.243 1498.45 12.8221 1498.17 12.3833C1497.89 11.9454 1498.01 11.5591 1498.52 11.5418C1498.75 11.5506 1498.97 11.6478 1499.14 11.8133C1499.3 11.9795 1499.4 12.2017 1499.41 12.4361C1499.41 12.9795 1500.46 13.1729 1501.92 12.9095C1503.38 12.6468 1504.6 12.7869 1504.85 13.1729C1506.12 13.7332 1507.52 13.939 1508.89 13.7691C1510.28 13.5904 1511.7 13.8091 1512.97 14.3999C1513.72 15.5401 1517.87 15.9957 1518.95 15.0667C1519.49 14.5933 1527.39 13.9617 1537.24 13.6111C1551.45 13.1028 1554.67 12.7869 1555.28 11.8577C1555.89 10.9283 1556.15 10.7876 1557.5 11.9627C1558.51 12.8394 1559.41 13.0149 1560.23 12.4888C1561.98 11.3665 1564.97 11.4544 1565.46 12.6294C1565.74 13.3655 1566.19 13.2955 1567.21 12.366C1568.22 11.4366 1568.72 11.3316 1569.42 12.524C1569.98 13.4532 1571.16 13.8743 1573.27 13.7864C1575.75 13.7864 1576.04 13.5237 1574.86 12.8748C1574.02 12.4361 1573.59 11.7698 1573.83 11.3316C1574.35 10.4371 1580.61 11.0511 1582.86 12.2259C1585.11 13.4009 1586.5 13.5584 1594.16 13.8743C1598.45 14.0318 1600.57 13.8743 1600.55 13.2076C1600.54 12.5416 1599.96 12.3133 1599.3 12.3313C1598.64 12.3487 1598.06 11.9805 1598.04 11.5418C1598.04 10.3143 1601.06 10.3848 1601.53 11.5418C1601.76 12.1734 1603.57 12.4539 1606.53 12.3313C1610.23 12.1734 1611.08 12.3309 1610.75 13.2955C1610.25 14.7159 1611.76 14.8733 1612.5 13.4883C1613.04 12.5416 1620.9 12.7168 1625.12 13.7864C1626.77 14.1897 1627 14.0496 1626.53 12.8921C1625.83 11.1385 1628.06 10.0516 1629.49 11.4017C1630.19 12.0679 1630.17 12.2959 1629.49 12.3133C1628.81 12.3309 1628.5 12.6468 1628.52 13.085C1628.53 13.5237 1631.34 13.8916 1634.71 13.9617C1638.07 14.0318 1640.86 13.8038 1640.86 13.471C1640.86 13.1375 1640.42 12.857 1639.85 12.8748C1639.27 12.8921 1639.34 12.3833 1640.14 11.5418C1641.31 10.3143 1641.68 10.3143 1644.01 11.5418C1645.43 12.2435 1646.61 13.2955 1646.61 13.7864C1646.61 14.2774 1646.87 14.4878 1647.61 13.7864C1648.06 13.2583 1648.67 12.8946 1649.35 12.752C1649.82 12.752 1649.65 13.1375 1649 13.5936C1648.02 14.2952 1648.13 14.4353 1649.61 14.3999C1650.98 14.2786 1652.33 13.9537 1653.6 13.4356C1655.15 12.7696 1656.04 12.7342 1656.64 13.313C1657.73 14.3477 1660.75 14.3477 1660.12 13.313C1659.49 12.2786 1661.27 12.2959 1662.7 13.6636C1663.02 14.0677 1663.48 14.3333 1663.99 14.4053C1664.49 14.4769 1665.01 14.3497 1665.42 14.0496C1665.74 13.825 1666.12 13.6937 1666.51 13.669C1666.9 13.6443 1667.29 13.7276 1667.64 13.9092C1671 14.6116 1674.43 14.9405 1677.87 14.8914C1683.1 15.0489 1688.57 15.3821 1690.07 15.6102C1691.57 15.8382 1693.05 15.6102 1693.42 14.9788C1693.79 14.3477 1694.76 14.1197 1696.99 14.6807C1699.22 15.242 1700.04 15.1714 1700.24 14.5579C1700.43 13.9444 1701.67 14.2073 1703.58 15.0489C1706.08 16.1712 1706.88 16.2237 1707.85 15.3995C1708.22 15.086 1708.66 14.8816 1709.13 14.8101C1709.6 14.7391 1710.08 14.8033 1710.52 14.9966C1711.93 15.4434 1713.39 15.6971 1714.86 15.7503L1725.55 16.2591C1729.84 16.4693 1736.34 16.5396 1739.95 16.417C1772.13 15.2596 1775.35 15.2769 1783.84 16.7151C1786.65 17.1885 1788.64 17.1707 1789.23 16.7151C1790.73 16.1827 1792.37 16.1827 1793.87 16.7151C1798.49 17.6441 1808.62 17.8895 1808.58 17.0657C1808.58 16.6973 1819.76 16.3465 1833.39 16.2764C1856.49 16.1536 1875.1 15.7503 1887.6 15.084C1890.83 14.961 1894.06 15.1668 1897.24 15.6976C1900.73 16.3816 1902.04 16.3465 1903.24 15.5401C1905.42 14.1019 1912.18 14.9087 1911.59 16.5572C1911.33 17.346 1911.77 17.7142 1912.92 17.6795C1914.07 17.6441 1914.66 17.9949 1914.66 18.4683C1914.66 19.9588 1916.4 19.2398 1916.87 17.5914C1917.48 14.9695 1918.15 16.1263 1918.28 19.6148ZM678.315 13.8377C678.868 14.4329 678.889 14.6875 678.315 14.7425C677.741 14.6875 677.762 14.4329 678.315 13.8377ZM452.85 17.1634C453.347 17.3321 453.871 17.4002 454.394 17.3638C457.916 17.4515 458.108 16.0137 454.673 15.4876C451.239 14.9615 450.786 15.084 451.501 16.3816C451.895 16.7291 452.353 16.9949 452.85 17.1634ZM343.194 14.1546C343.315 14.1443 343.433 14.1082 343.539 14.0496C344.742 13.3482 344.55 12.8221 343.086 12.8221C342.423 12.8047 342.057 13.1902 342.319 13.6285C342.33 13.6548 342.343 13.6807 342.356 13.7059C342.366 13.7229 342.376 13.7398 342.387 13.7564C342.426 13.8184 342.473 13.8743 342.527 13.9246C342.616 14.0076 342.721 14.0711 342.836 14.1106C342.951 14.1502 343.073 14.1651 343.194 14.1546ZM903.464 17.1634C902.968 17.3321 902.443 17.4002 901.921 17.3638C898.405 17.4515 898.213 16.0137 901.643 15.4876C905.072 14.9615 905.525 15.084 904.811 16.3816C904.417 16.7291 903.96 16.9949 903.464 17.1634ZM1012.97 14.1546C1012.84 14.1443 1012.73 14.1082 1012.62 14.0496C1011.42 13.3482 1011.61 12.8221 1013.07 12.8221C1013.74 12.8047 1014.1 13.1902 1013.84 13.6285C1013.79 13.741 1013.72 13.8416 1013.63 13.9246C1013.54 14.0076 1013.44 14.0711 1013.32 14.1106C1013.21 14.1502 1013.09 14.1651 1012.97 14.1546ZM1531.63 17.3638C1532.15 17.4002 1532.67 17.3321 1533.17 17.1634C1533.67 16.9949 1534.12 16.7291 1534.52 16.3816C1535.23 15.084 1534.78 14.9615 1531.35 15.4876C1527.91 16.0137 1528.1 17.4515 1531.63 17.3638ZM1642.48 14.0496C1642.5 14.0623 1642.53 14.0738 1642.55 14.0845C1642.6 14.1075 1642.66 14.1253 1642.71 14.1377C1642.75 14.1458 1642.79 14.1514 1642.83 14.1546C1642.95 14.1651 1643.07 14.1502 1643.18 14.1106C1643.3 14.0711 1643.4 14.0076 1643.49 13.9246C1643.55 13.8704 1643.6 13.8086 1643.64 13.7408C1643.66 13.7049 1643.68 13.6673 1643.7 13.6285C1643.96 13.1902 1643.6 12.8047 1642.93 12.8221C1641.47 12.8221 1641.28 13.3482 1642.48 14.0496ZM678.315 1485.16C678.868 1484.57 678.889 1484.31 678.315 1484.26C677.741 1484.31 677.762 1484.57 678.315 1485.16ZM452.85 1481.84C453.347 1481.67 453.871 1481.6 454.394 1481.64C457.916 1481.55 458.108 1482.99 454.673 1483.51C451.239 1484.04 450.786 1483.92 451.501 1482.62C451.895 1482.27 452.353 1482.01 452.85 1481.84ZM343.194 1484.85C343.315 1484.86 343.433 1484.89 343.539 1484.95C344.742 1485.65 344.55 1486.18 343.086 1486.18C342.423 1486.2 342.057 1485.81 342.319 1485.37C342.338 1485.33 342.361 1485.28 342.387 1485.24C342.426 1485.18 342.473 1485.13 342.527 1485.08C342.616 1484.99 342.721 1484.93 342.836 1484.89C342.951 1484.85 343.073 1484.83 343.194 1484.85ZM903.464 1481.84C902.968 1481.67 902.443 1481.6 901.921 1481.64C898.405 1481.55 898.213 1482.99 901.643 1483.51C905.072 1484.04 905.525 1483.92 904.811 1482.62C904.417 1482.27 903.96 1482.01 903.464 1481.84ZM1012.97 1484.85C1012.84 1484.86 1012.73 1484.89 1012.62 1484.95C1011.42 1485.65 1011.61 1486.18 1013.07 1486.18C1013.74 1486.2 1014.1 1485.81 1013.84 1485.37C1013.81 1485.3 1013.77 1485.24 1013.73 1485.18C1013.7 1485.14 1013.67 1485.11 1013.63 1485.08C1013.54 1484.99 1013.44 1484.93 1013.32 1484.89C1013.21 1484.85 1013.09 1484.83 1012.97 1484.85ZM1531.63 1481.64C1532.15 1481.6 1532.67 1481.67 1533.17 1481.84C1533.67 1482.01 1534.12 1482.27 1534.52 1482.62C1535.23 1483.92 1534.78 1484.04 1531.35 1483.51C1527.91 1482.99 1528.1 1481.55 1531.63 1481.64ZM1642.48 1484.95C1642.5 1484.94 1642.53 1484.93 1642.55 1484.92C1642.64 1484.88 1642.73 1484.85 1642.83 1484.85C1642.95 1484.83 1643.07 1484.85 1643.18 1484.89C1643.3 1484.93 1643.4 1484.99 1643.49 1485.08C1643.54 1485.12 1643.58 1485.17 1643.62 1485.22C1643.65 1485.27 1643.68 1485.32 1643.7 1485.37C1643.96 1485.81 1643.6 1486.2 1642.93 1486.18C1641.47 1486.18 1641.28 1485.65 1642.48 1484.95Z" fill="#2A2A2A"/>
</g>
<defs>
<clipPath id="clip0_280_2362">
<rect width="1920" height="36" fill="white"/>
</clipPath>
</defs>
</svg>
