<svg width="76" height="63" viewBox="0 0 76 63" fill="none" xmlns="http://www.w3.org/2000/svg">
<path d="M3.58794 61.9887C3.39268 61.9887 3.28691 61.8992 3.27064 61.7202L0.0244077 45.2206L0 45.1229C0 44.9765 0.0894952 44.9033 0.268486 44.9033H2.61163C2.8069 44.9033 2.91266 44.9928 2.92893 45.1718L4.63748 55.3498C4.65375 55.3986 4.67816 55.423 4.7107 55.423C4.74325 55.423 4.76765 55.3986 4.78393 55.3498L6.32162 45.1718C6.33789 44.9928 6.44365 44.9033 6.63892 44.9033H8.59154C8.7868 44.9033 8.89257 44.9928 8.90884 45.1718L10.5686 55.3498C10.5848 55.3986 10.6092 55.423 10.6418 55.423C10.6743 55.423 10.6987 55.3986 10.715 55.3498L12.2527 45.1718C12.269 44.9928 12.3747 44.9033 12.57 44.9033H14.8399C15.0515 44.9033 15.141 45.009 15.1084 45.2206L12.0086 61.7202C11.9924 61.8992 11.8866 61.9887 11.6913 61.9887H9.61667C9.4214 61.9887 9.31564 61.8992 9.29937 61.7202L7.66404 51.3469C7.64777 51.2818 7.62336 51.2493 7.59082 51.2493C7.55828 51.2493 7.53387 51.2818 7.5176 51.3469L6.00431 61.7202C5.98804 61.8992 5.88228 61.9887 5.68701 61.9887H3.58794Z" fill="#CA8F65"/>
<path d="M23.1639 45.1962C23.1639 45.1148 23.1883 45.0497 23.2372 45.0009C23.3022 44.9358 23.3755 44.9033 23.4568 44.9033H25.7023C25.7837 44.9033 25.8488 44.9358 25.8976 45.0009C25.9627 45.0497 25.9952 45.1148 25.9952 45.1962V61.6958C25.9952 61.7772 25.9627 61.8504 25.8976 61.9155C25.8488 61.9643 25.7837 61.9887 25.7023 61.9887H23.4568C23.3755 61.9887 23.3022 61.9643 23.2372 61.9155C23.1883 61.8504 23.1639 61.7772 23.1639 61.6958V54.7884C23.1639 54.7071 23.1233 54.6664 23.0419 54.6664H19.9421C19.8608 54.6664 19.8201 54.7071 19.8201 54.7884V61.6958C19.8201 61.7772 19.7875 61.8504 19.7224 61.9155C19.6736 61.9643 19.6085 61.9887 19.5272 61.9887H17.2817C17.2003 61.9887 17.1271 61.9643 17.062 61.9155C17.0132 61.8504 16.9888 61.7772 16.9888 61.6958V45.1962C16.9888 45.1148 17.0132 45.0497 17.062 45.0009C17.1271 44.9358 17.2003 44.9033 17.2817 44.9033H19.5272C19.6085 44.9033 19.6736 44.9358 19.7224 45.0009C19.7875 45.0497 19.8201 45.1148 19.8201 45.1962V52.0792C19.8201 52.1605 19.8608 52.2012 19.9421 52.2012H23.0419C23.1233 52.2012 23.1639 52.1605 23.1639 52.0792V45.1962Z" fill="#CA8F65"/>
<path d="M28.9135 61.9887C28.8321 61.9887 28.7589 61.9643 28.6938 61.9155C28.645 61.8504 28.6206 61.7772 28.6206 61.6958V45.1962C28.6206 45.1148 28.645 45.0497 28.6938 45.0009C28.7589 44.9358 28.8321 44.9033 28.9135 44.9033H31.159C31.2404 44.9033 31.3055 44.9358 31.3543 45.0009C31.4194 45.0497 31.4519 45.1148 31.4519 45.1962V61.6958C31.4519 61.7772 31.4194 61.8504 31.3543 61.9155C31.3055 61.9643 31.2404 61.9887 31.159 61.9887H28.9135Z" fill="#CA8F65"/>
<path d="M38.1063 62.184C36.7557 62.184 35.6655 61.7772 34.8356 60.9636C34.0058 60.15 33.5908 59.0842 33.5908 57.7662V57.1316C33.5908 57.0502 33.6152 56.9851 33.6641 56.9363C33.7291 56.8712 33.8024 56.8387 33.8837 56.8387H36.1048C36.1862 56.8387 36.2513 56.8712 36.3001 56.9363C36.3652 56.9851 36.3977 57.0502 36.3977 57.1316V57.6197C36.3977 58.2543 36.5523 58.7669 36.8615 59.1574C37.1869 59.5479 37.6018 59.7432 38.1063 59.7432C38.6107 59.7432 39.0256 59.5642 39.3511 59.2062C39.6765 58.832 39.8392 58.3438 39.8392 57.7418C39.8392 57.3187 39.7497 56.9526 39.5707 56.6434C39.3917 56.3342 39.1395 56.0414 38.8141 55.7647C38.4887 55.4881 37.968 55.0894 37.252 54.5688C36.4384 53.983 35.7794 53.4623 35.275 53.0067C34.7868 52.551 34.3719 52.0059 34.0302 51.3713C33.7047 50.7205 33.542 49.972 33.542 49.1258C33.542 47.7753 33.9488 46.7013 34.7624 45.904C35.576 45.1067 36.6499 44.708 37.9842 44.708C39.3348 44.708 40.425 45.1311 41.2549 45.9772C42.0847 46.8071 42.4997 47.9136 42.4997 49.2967V49.8825C42.4997 49.9638 42.4671 50.037 42.402 50.1021C42.3532 50.1509 42.2881 50.1754 42.2068 50.1754H40.0101C39.9287 50.1754 39.8555 50.1509 39.7904 50.1021C39.7416 50.037 39.7172 49.9638 39.7172 49.8825V49.2479C39.7172 48.6133 39.5545 48.1088 39.229 47.7346C38.9199 47.344 38.5049 47.1488 37.9842 47.1488C37.4961 47.1488 37.0974 47.3278 36.7882 47.6858C36.4791 48.0275 36.3245 48.5075 36.3245 49.1258C36.3245 49.7116 36.4872 50.2079 36.8127 50.6147C37.1544 51.0215 37.8134 51.5829 38.7897 52.2988C39.7823 53.0311 40.5308 53.6331 41.0352 54.105C41.5396 54.5606 41.9302 55.065 42.2068 55.6183C42.4834 56.1715 42.6217 56.8305 42.6217 57.5953C42.6217 58.9784 42.2068 60.093 41.3769 60.9392C40.547 61.769 39.4568 62.184 38.1063 62.184Z" fill="#CA8F65"/>
<path d="M44.9549 61.9887C44.8736 61.9887 44.8004 61.9643 44.7353 61.9155C44.6865 61.8504 44.662 61.7772 44.662 61.6958V45.1962C44.662 45.1148 44.6865 45.0497 44.7353 45.0009C44.8004 44.9358 44.8736 44.9033 44.9549 44.9033H47.2005C47.2818 44.9033 47.3469 44.9358 47.3957 45.0009C47.4608 45.0497 47.4933 45.1148 47.4933 45.1962V51.9327C47.4933 51.9978 47.5096 52.0385 47.5422 52.0548C47.5747 52.0548 47.6072 52.0303 47.6398 51.9815L51.301 45.1229C51.3823 44.9765 51.5044 44.9033 51.6671 44.9033H54.0835C54.1974 44.9033 54.2706 44.9358 54.3031 45.0009C54.3357 45.066 54.3275 45.1473 54.2787 45.245L50.6175 52.1036C50.6013 52.1687 50.5931 52.2175 50.5931 52.25L54.5472 61.647C54.5635 61.6796 54.5716 61.7284 54.5716 61.7935C54.5716 61.9236 54.4902 61.9887 54.3275 61.9887H51.9112C51.7322 61.9887 51.6183 61.9155 51.5695 61.769L48.6893 54.7152C48.6731 54.6664 48.6487 54.6501 48.6161 54.6664C48.5836 54.6664 48.551 54.6827 48.5185 54.7152L47.5422 56.3505C47.5096 56.4156 47.4933 56.4644 47.4933 56.497V61.6958C47.4933 61.7772 47.4608 61.8504 47.3957 61.9155C47.3469 61.9643 47.2818 61.9887 47.2005 61.9887H44.9549Z" fill="#CA8F65"/>
<path d="M64.8122 47.0512C64.8122 47.1325 64.7797 47.2057 64.7146 47.2708C64.6658 47.3196 64.6007 47.344 64.5193 47.344H59.2472C59.1659 47.344 59.1252 47.3847 59.1252 47.4661V52.0792C59.1252 52.1605 59.1659 52.2012 59.2472 52.2012H62.3714C62.4528 52.2012 62.5179 52.2337 62.5667 52.2988C62.6318 52.3476 62.6643 52.4127 62.6643 52.4941V54.3735C62.6643 54.4548 62.6318 54.5281 62.5667 54.5932C62.5179 54.642 62.4528 54.6664 62.3714 54.6664H59.2472C59.1659 54.6664 59.1252 54.7071 59.1252 54.7884V59.4259C59.1252 59.5073 59.1659 59.5479 59.2472 59.5479H64.5193C64.6007 59.5479 64.6658 59.5805 64.7146 59.6456C64.7797 59.6944 64.8122 59.7595 64.8122 59.8408V61.6958C64.8122 61.7772 64.7797 61.8504 64.7146 61.9155C64.6658 61.9643 64.6007 61.9887 64.5193 61.9887H56.5868C56.5054 61.9887 56.4322 61.9643 56.3671 61.9155C56.3183 61.8504 56.2939 61.7772 56.2939 61.6958V45.1962C56.2939 45.1148 56.3183 45.0497 56.3671 45.0009C56.4322 44.9358 56.5054 44.9033 56.5868 44.9033H64.5193C64.6007 44.9033 64.6658 44.9358 64.7146 45.0009C64.7797 45.0497 64.8122 45.1148 64.8122 45.1962V47.0512Z" fill="#CA8F65"/>
<path d="M70.025 61.9643C69.9436 61.9643 69.8704 61.9399 69.8053 61.8911C69.7565 61.826 69.7321 61.7528 69.7321 61.6714V55.0081L69.7077 54.8616L66.315 45.245C66.2987 45.2124 66.2906 45.1718 66.2906 45.1229C66.2906 44.9765 66.3801 44.9033 66.5591 44.9033H68.9022C69.0812 44.9033 69.1951 44.9846 69.2439 45.1473L71.0745 51.4201C71.0908 51.469 71.1152 51.4934 71.1477 51.4934C71.1803 51.4934 71.2047 51.469 71.2209 51.4201L73.0515 45.1473C73.1004 44.9846 73.2143 44.9033 73.3932 44.9033H75.7364C75.834 44.9033 75.9072 44.9358 75.9561 45.0009C76.0049 45.0497 76.013 45.1311 75.9805 45.245L72.5878 54.8616L72.5634 55.0081V61.6714C72.5634 61.7528 72.5308 61.826 72.4657 61.8911C72.4169 61.9399 72.3519 61.9643 72.2705 61.9643H70.025Z" fill="#CA8F65"/>
<path d="M41.1037 28.8715C40.4495 28.425 39.9843 27.4073 39.9843 27.4073C39.9843 27.4073 42.0105 26.8297 42.8634 24.7552C42.9276 24.5994 42.9832 24.4403 43.0301 24.2785C43.1725 23.7773 43.2417 23.2582 43.2355 22.7372C43.2355 22.7372 43.8499 22.7569 43.8365 24.3522C43.8365 24.4307 43.8335 24.5125 43.8305 24.5981C43.8283 24.6499 43.8261 24.7023 43.8261 24.7552C43.8231 25.2125 43.8853 25.7312 43.9809 26.2544C43.6888 26.8182 43.0662 27.7649 42.1244 28.3595C42.8418 28.2646 43.6233 27.9543 44.2708 27.5312C44.5569 28.6129 44.8766 29.4721 44.8766 29.4721C44.8766 29.4721 44.6585 33.2603 43.3855 37.799C43.3818 37.8124 43.3784 37.8273 43.3736 37.8414C43.1645 38.5857 42.9271 39.3481 42.6558 40.1169C43.6945 39.85 44.7079 39.4924 45.6841 39.0482C46.0066 38.3089 46.3075 37.5789 46.5868 36.8579C46.6821 36.6123 46.7729 36.3682 46.8652 36.1264C47.5613 34.26 48.1547 32.357 48.6428 30.4259L46.7632 30.7306C47.0639 30.2145 47.4509 26.893 46.3319 25.6397C46.3866 25.6769 48.2416 26.9395 48.0284 29.512L49.8864 29.2012C49.9381 29.6068 49.2277 32.1592 47.9704 35.3617C47.8133 35.7601 47.648 36.168 47.4743 36.5855C47.2001 37.2442 46.9057 37.9207 46.5913 38.6039C52.5363 35.4997 56.605 29.2738 56.605 22.1161C56.605 14.5193 52.0227 7.97115 45.4768 5.09207C45.4251 5.78012 45.3838 6.53515 45.3507 7.25259C50.8208 9.96347 54.5926 15.6078 54.5926 22.1161C54.5946 23.9173 54.3013 25.7066 53.7244 27.4128C52.62 26.1774 50.0155 25.2839 46.7424 24.7336L47.1748 22.2292L42.3845 20.7728C43.256 19.5764 43.8332 17.5923 43.9206 16.0469C44.8595 15.4068 44.833 14.1323 44.833 14.1323C49.4801 12.7346 50.9142 10.3017 43.3367 11.7478C41.6648 12.0667 39.5281 12.2099 37.4372 12.1768C37.2645 12.175 37.0919 12.1709 36.9192 12.1657C36.6267 12.1575 36.3366 12.1451 36.0488 12.1285C35.6164 12.105 35.1907 12.0738 34.778 12.0347C34.0368 11.9644 33.3338 11.868 32.699 11.747C25.1204 10.301 26.5546 12.7339 31.2016 14.1316C31.2016 14.1316 31.1748 15.4061 32.1148 16.0461C32.2015 17.5908 32.7794 19.5749 33.6501 20.772L28.8602 22.2285L29.2934 24.7321C26.0187 25.2817 23.4139 26.1741 22.3113 27.4113C21.7343 25.7055 21.4409 23.9165 21.4428 22.1157C21.4428 15.6074 25.2124 9.9631 30.6836 7.25222C30.6509 6.53477 30.6092 5.77975 30.5578 5.0917C24.0123 7.97078 19.4315 14.5189 19.4315 22.1157C19.4315 29.2734 23.4991 35.4993 29.4437 38.6035C29.1304 37.9203 28.836 37.2438 28.5611 36.5852C28.3874 36.1684 28.2223 35.7604 28.0658 35.3613C26.8087 32.1588 26.0991 29.6065 26.1508 29.2009L28.0088 29.5116C27.7949 26.9391 29.6506 25.6754 29.7053 25.6393C28.5867 26.8926 28.9726 30.2141 29.2744 30.7303L27.3937 30.4255C27.8815 32.3568 28.4752 34.2599 29.1721 36.126C29.2621 36.3681 29.3545 36.6117 29.4493 36.8568C29.7279 37.5763 30.0291 38.3066 30.3528 39.0479C31.3288 39.4915 32.3417 39.8489 33.38 40.1158C33.1091 39.3455 32.8713 38.5827 32.6625 37.8392C32.6596 37.8247 32.6551 37.8113 32.6514 37.7979C31.3784 33.2581 31.1629 29.471 31.1629 29.471C31.1629 29.471 31.4814 28.6118 31.768 27.5301C32.4158 27.9532 33.1976 28.2635 33.914 28.3584C32.9733 27.763 32.3511 26.8171 32.0582 26.2533C32.1531 25.7301 32.2153 25.2114 32.2123 24.754C32.2123 24.7012 32.21 24.6487 32.2082 24.597C32.205 24.5114 32.2029 24.4294 32.2019 24.351C32.1896 22.7558 32.8039 22.7361 32.8039 22.7361C32.7976 23.257 32.8668 23.7762 33.0094 24.2774C33.0563 24.4391 33.1118 24.5982 33.1757 24.754C34.0286 26.8286 36.0551 27.4061 36.0551 27.4061C36.0551 27.4061 35.59 28.4224 34.9354 28.8704C34.4435 29.2053 36.9162 31.0414 36.9162 31.0414C36.9754 33.6306 37.1789 36.2376 37.4405 38.6798C37.4631 38.8949 37.4866 39.109 37.5109 39.3221C37.5637 39.788 37.6178 40.2469 37.6731 40.6989C37.7887 40.7007 37.9046 40.7017 38.0207 40.7019C38.1375 40.7019 38.2532 40.7019 38.3693 40.6989C38.4247 40.2469 38.4786 39.788 38.5312 39.3221C38.556 39.109 38.5796 38.8949 38.6019 38.6798C38.8624 36.2376 39.0659 33.6306 39.1247 31.0414C39.1247 31.0414 41.5978 29.2072 41.1066 28.8704L41.1037 28.8715ZM37.116 21.8095C35.6302 21.536 33.8198 19.5797 33.3472 16.6207C33.1459 15.3555 33.0205 14.1342 34.282 14.2119C35.0709 14.2588 36.23 15.1367 37.0052 14.2119C37.7803 13.2872 38.5033 13.8703 38.5033 13.8703L38.4828 16.6612C38.334 16.7978 37.877 16.9135 37.4614 16.6344C37.0457 16.3553 36.8965 16.5723 36.8965 16.5723V17.049C37.2638 17.052 37.698 17.2577 37.7754 17.5588C37.6763 17.5184 37.5703 17.4973 37.4632 17.4966C36.6591 17.4966 36.3633 18.4385 35.8683 18.431C35.6823 18.428 35.4627 18.3518 35.3656 18.0809C35.0657 18.3849 35.2123 19.0268 36.0935 19.0268C36.569 19.0268 37.3043 18.8779 38.0207 18.4686C38.2585 18.6041 38.7206 18.8162 38.7206 18.8329C38.3742 19.7118 36.8515 19.2713 36.8515 19.2713C36.8515 19.4614 36.9672 19.8957 37.6701 20.0427C39.399 20.407 38.8561 22.1317 37.1131 21.8106L37.116 21.8095ZM31.5626 4.68498C31.6173 5.34437 31.6619 6.07893 31.6969 6.7934C31.7869 8.59966 31.8212 10.2787 31.8212 10.2787H34.7129L34.5518 5.90664L34.4774 3.86743L34.4141 2.16909C34.3512 1.47955 34.4762 0.118343 33.1489 0.332311C32.9762 0.366174 32.8203 0.401894 32.6837 0.440967C30.6431 1.0237 31.1435 1.52011 31.4122 3.30218C31.4688 3.68249 31.5194 4.1588 31.5626 4.68498ZM36.9211 0.0122859C36.6267 0.0193562 36.335 0.0294052 36.0507 0.0420572V10.2787H36.9211V0.0122859ZM44.3392 6.7934C44.3765 6.07893 44.4189 5.34437 44.4739 4.68498C44.5182 4.1588 44.5677 3.68249 44.6258 3.30218C44.8944 1.51937 45.3949 1.0237 43.3531 0.440967C42.2271 0.120945 39.7737 -0.0252973 37.439 0.00372796V10.2787H44.2146C44.2146 10.2787 44.2481 8.59966 44.3377 6.7934H44.3392ZM42.3689 14.3169C42.3689 14.3169 42.7224 15.6788 41.7329 16.9217C40.9515 17.9019 39.8906 15.2788 39.7179 14.5342C40.8142 14.644 41.6767 14.0348 42.3674 14.3169H42.3689Z" fill="#CA8F65"/>
<path fill-rule="evenodd" clip-rule="evenodd" d="M9.96182 32.1027C10.0392 32.1337 10.1139 32.171 10.1851 32.2143C10.2537 32.2557 10.3186 32.3027 10.3793 32.355C10.4343 32.4022 10.4841 32.4549 10.5282 32.5124L10.5516 32.5429H10.6982L10.9915 31.6327H8.13026L7.83703 32.5429H8.02718L8.04988 32.5206C8.11359 32.4566 8.18269 32.3982 8.2564 32.346C8.33225 32.2917 8.4124 32.2437 8.49605 32.2024C8.57998 32.1606 8.66708 32.1255 8.75653 32.0975C8.81617 32.0789 8.87679 32.0636 8.93813 32.0517V35.224L8.63522 35.4715L8.60694 35.4949V35.6583H10.1546V35.4949L9.8234 35.224V32.058C9.87028 32.0705 9.91648 32.0854 9.96182 32.1027Z" fill="#CA8F65"/>
<path fill-rule="evenodd" clip-rule="evenodd" d="M0.395402 35.4711L0.367493 35.4942V35.6568H3.15689L3.27113 34.7291H3.13382L3.09028 34.7429L2.35386 35.2512H1.58395V33.9145H2.63779L2.86032 33.3188L1.58395 33.4981V32.0365H2.3453L2.74868 32.5518H2.88674L3.22908 31.6309H0.367493V31.7935L0.698678 32.0718V35.2158L0.395402 35.4711Z" fill="#CA8F65"/>
<path fill-rule="evenodd" clip-rule="evenodd" d="M5.96752 35.2061C5.89117 35.2496 5.8082 35.2803 5.72192 35.2969C5.61954 35.3178 5.51532 35.3284 5.41083 35.3285L4.70381 34.7205L4.65394 34.7019H4.54677L4.30602 35.4703L4.36593 35.4993C4.68483 35.6538 5.07928 35.7312 5.54666 35.7312C5.68073 35.7317 5.8146 35.7204 5.94668 35.6973C6.06658 35.6764 6.18377 35.6422 6.2961 35.5954C6.39911 35.5531 6.49629 35.4978 6.58524 35.4309C6.66824 35.3678 6.74125 35.2925 6.80181 35.2076C6.86088 35.1252 6.90635 35.0339 6.93652 34.9371C7.0025 34.722 6.99583 34.4912 6.91754 34.2803C6.87181 34.1564 6.8092 34.0395 6.73148 33.9327C6.64022 33.8083 6.53371 33.6958 6.41443 33.5978C6.27545 33.4827 6.12665 33.38 5.96975 33.2908C5.84993 33.2212 5.74388 33.1572 5.65345 33.0988C5.56303 33.0404 5.48265 32.9872 5.42051 32.9373C5.36342 32.8953 5.30979 32.8487 5.26013 32.7981C5.22088 32.7588 5.18629 32.7151 5.15705 32.6679C5.13249 32.6272 5.11371 32.5832 5.10123 32.5373C5.08866 32.4898 5.0824 32.4409 5.08263 32.3918C5.07975 32.329 5.09432 32.2666 5.12473 32.2115C5.15514 32.1565 5.2002 32.1109 5.25492 32.0799C5.32273 32.0387 5.39674 32.0087 5.47409 31.991C5.55652 31.9721 5.64072 31.9622 5.72527 31.9612L6.40587 32.7393H6.54951L6.82042 31.8678L6.76981 31.8366C6.6937 31.79 6.61393 31.7497 6.53128 31.716C6.44378 31.6804 6.35388 31.6509 6.26224 31.6278C6.16589 31.6035 6.06806 31.5855 5.96938 31.5739C5.86677 31.5615 5.7635 31.5554 5.66015 31.5556C5.53909 31.5549 5.4183 31.5674 5.29994 31.5928C5.18932 31.6163 5.08215 31.6538 4.98104 31.7045C4.88581 31.7516 4.79733 31.8113 4.71795 31.882C4.64091 31.9507 4.57445 32.0305 4.52073 32.1187C4.46668 32.2055 4.42533 32.2996 4.39793 32.3981C4.37072 32.4988 4.35708 32.6027 4.35737 32.707C4.35619 32.9411 4.42528 33.1701 4.5557 33.3645C4.62793 33.4695 4.71377 33.5645 4.81098 33.6469C4.92241 33.7414 5.04295 33.8245 5.17082 33.8951C5.29486 33.9656 5.40649 34.0334 5.50572 34.0987C5.60433 34.1627 5.69178 34.2252 5.76621 34.2847C5.83199 34.3362 5.89415 34.3922 5.95227 34.4522C5.99693 34.4985 6.0367 34.5492 6.07097 34.6037C6.12523 34.6891 6.15473 34.7879 6.15619 34.8891C6.15763 34.9525 6.14209 35.0152 6.11116 35.0707C6.0758 35.1275 6.02631 35.1741 5.96752 35.2061Z" fill="#CA8F65"/>
<path fill-rule="evenodd" clip-rule="evenodd" d="M12.0263 35.4699L11.9981 35.4934V35.6567H13.2145C13.45 35.658 13.6851 35.6395 13.9174 35.6013C14.1225 35.5674 14.3232 35.511 14.5158 35.4331C14.69 35.3627 14.853 35.2673 14.9996 35.1499C15.1397 35.037 15.2607 34.9021 15.3579 34.7506C15.4574 34.5939 15.5313 34.4223 15.5767 34.2423C15.6263 34.0442 15.6506 33.8407 15.6489 33.6365C15.65 33.4336 15.625 33.2313 15.5745 33.0348C15.5276 32.8558 15.4522 32.6856 15.3512 32.5306C15.2532 32.3803 15.1317 32.2467 14.9914 32.135C14.8445 32.0185 14.6815 31.9238 14.5076 31.8537C14.316 31.7761 14.1163 31.7201 13.9122 31.6866C13.6811 31.6485 13.4472 31.6299 13.213 31.6312H11.9992V31.7938L12.3296 32.0721V35.2225L12.0263 35.4699ZM13.2171 32.0368C13.3479 32.038 13.4782 32.0543 13.6052 32.0855C13.7338 32.1173 13.8575 32.1664 13.9729 32.2314C14.0858 32.2953 14.1892 32.3749 14.2799 32.4677C14.372 32.5631 14.4505 32.6708 14.5132 32.7877C14.5804 32.9111 14.6304 33.043 14.6621 33.1799C14.696 33.3297 14.7126 33.4829 14.7115 33.6365C14.7125 33.7903 14.696 33.9437 14.6624 34.0938C14.6304 34.2317 14.5804 34.3647 14.5136 34.4894C14.4513 34.6075 14.373 34.7164 14.281 34.8131C14.1906 34.9073 14.0873 34.988 13.974 35.0528C13.8583 35.1189 13.7341 35.169 13.6049 35.2016C13.478 35.2331 13.3478 35.2497 13.2171 35.2511V32.0368Z" fill="#CA8F65"/>
<path d="M15.8067 29.5298H0.210464V30.1978H15.8067V29.5298Z" fill="#CA8F65"/>
<path d="M15.8067 37.0894H0.210464V37.7577H15.8067V37.0894Z" fill="#CA8F65"/>
<path fill-rule="evenodd" clip-rule="evenodd" d="M65.4123 35.1912C65.5259 35.3076 65.6556 35.407 65.7974 35.4866C65.9297 35.562 66.0707 35.6211 66.2172 35.6627C66.3568 35.7017 66.5012 35.7216 66.6462 35.7218C66.7912 35.7216 66.9355 35.7013 67.0749 35.6615C67.2219 35.6194 67.3633 35.5594 67.4958 35.4829C67.638 35.4018 67.7678 35.3004 67.8809 35.1819C68.001 35.0554 68.105 34.9145 68.1905 34.7625C68.2845 34.5956 68.3537 34.4158 68.3959 34.2289C68.4429 34.0213 68.4657 33.8091 68.464 33.5963C68.4655 33.3921 68.4426 33.1885 68.3959 32.9897C68.3533 32.8093 68.284 32.6363 68.1905 32.4762C68.1052 32.3294 68.0015 32.1939 67.882 32.0732C67.768 31.9594 67.6385 31.8623 67.4972 31.7848C67.3641 31.7112 67.2227 31.6536 67.076 31.6133C66.9359 31.5755 66.7914 31.5562 66.6462 31.556C66.5007 31.5559 66.3559 31.5756 66.2157 31.6144C66.0691 31.655 65.9279 31.7131 65.7952 31.7874C65.6537 31.8659 65.5244 31.9647 65.4115 32.0807C65.2918 32.2041 65.1884 32.3424 65.1038 32.4922C65.0101 32.657 64.9413 32.8346 64.8995 33.0195C64.8533 33.226 64.8308 33.4371 64.8325 33.6488C64.8311 33.8547 64.8538 34.0602 64.9002 34.2609C64.9427 34.4436 65.0118 34.6192 65.1053 34.7819C65.1904 34.9304 65.2935 35.0679 65.4123 35.1912ZM65.6534 32.8766C65.6744 32.77 65.7061 32.6658 65.7479 32.5655C65.7893 32.4678 65.8427 32.3755 65.9068 32.2909C65.9648 32.2147 66.0309 32.1451 66.104 32.0833C66.2067 32.1015 66.3074 32.1294 66.4047 32.1666C66.513 32.208 66.6168 32.2605 66.7143 32.3233C66.8135 32.3859 66.9069 32.4572 66.9934 32.5365C67.0799 32.616 67.159 32.7032 67.2297 32.797C67.3007 32.8897 67.3644 32.9879 67.4202 33.0906C67.4742 33.1921 67.52 33.2977 67.5572 33.4065C67.5951 33.5156 67.624 33.6276 67.6435 33.7414C67.6622 33.8521 67.6716 33.9641 67.6718 34.0763C67.6719 34.1872 67.6614 34.2979 67.6405 34.4068C67.6202 34.513 67.5892 34.6168 67.5479 34.7167C67.4706 34.9023 67.352 35.0677 67.201 35.2005C66.9781 35.164 66.7646 35.0837 66.5729 34.9642C66.4735 34.9017 66.38 34.8303 66.2934 34.751C66.2077 34.6726 66.1294 34.5864 66.0598 34.4935C65.9899 34.4006 65.9277 34.3023 65.8737 34.1995C65.8198 34.0972 65.7742 33.9908 65.7371 33.8813C65.6994 33.7723 65.6707 33.6602 65.6515 33.5464C65.6326 33.4358 65.623 33.3238 65.6229 33.2115C65.6223 33.0992 65.6325 32.987 65.6534 32.8766Z" fill="#CA8F65"/>
<path fill-rule="evenodd" clip-rule="evenodd" d="M62.8313 34.2877C62.9249 34.1817 63.0105 34.0689 63.0873 33.9502C63.1606 33.837 63.2244 33.7181 63.2782 33.5944C63.3297 33.4767 63.3696 33.3541 63.3973 33.2286C63.4238 33.1085 63.4372 32.9859 63.4375 32.8628C63.4382 32.7395 63.4243 32.6164 63.3961 32.4963C63.3698 32.3839 63.3276 32.2757 63.2707 32.1752C63.216 32.0787 63.1471 31.9909 63.0665 31.9147C62.984 31.8369 62.8908 31.7715 62.7896 31.7204C62.6825 31.6665 62.569 31.6266 62.4517 31.6017C62.0609 31.5191 61.654 31.5651 61.2914 31.7327C61.1722 31.7869 61.0583 31.8522 60.9513 31.9277C60.8494 32.0006 60.755 32.0835 60.6696 32.1752L60.6324 32.2172L61.0991 33.0106H61.2334L62.0148 31.975C62.0479 31.9824 62.0801 31.9934 62.1108 32.0077C62.1566 32.0293 62.1987 32.0578 62.2359 32.0922C62.2772 32.1285 62.3137 32.1699 62.3445 32.2154C62.3782 32.2649 62.4064 32.3179 62.4286 32.3735C62.4767 32.4955 62.5008 32.6257 62.4993 32.7568C62.4996 32.945 62.4763 33.1325 62.4301 33.315C62.3824 33.4996 62.3122 33.6777 62.221 33.8452C62.1315 34.0123 62.0321 34.1738 61.9233 34.329C61.8248 34.4692 61.7162 34.602 61.5984 34.7264C61.4846 34.8462 61.3618 34.9687 61.23 35.0937C61.0983 35.2187 60.9586 35.3448 60.811 35.4718L60.7846 35.4948V35.6567H63.5647L63.6849 34.6192L62.7449 34.7934H62.272C62.3583 34.7316 62.4413 34.6661 62.5202 34.598C62.6307 34.5016 62.7346 34.398 62.8313 34.2877Z" fill="#CA8F65"/>
<path fill-rule="evenodd" clip-rule="evenodd" d="M71.7297 34.2877C71.8233 34.1818 71.9089 34.0689 71.9857 33.9502C72.0589 33.8371 72.1227 33.7181 72.1763 33.5945C72.2279 33.4767 72.2679 33.3542 72.2957 33.2287C72.322 33.1085 72.3355 32.9859 72.3359 32.8629C72.3367 32.7395 72.3227 32.6164 72.2942 32.4964C72.268 32.3839 72.2259 32.2758 72.1692 32.1752C72.1143 32.0787 72.0453 31.9909 71.9645 31.9147C71.8822 31.8369 71.7889 31.7715 71.6877 31.7205C71.5806 31.6665 71.4671 31.6266 71.3498 31.6018C71.2227 31.5749 71.0931 31.5617 70.9632 31.5623C70.696 31.5623 70.432 31.6204 70.1895 31.7328C70.0704 31.7869 69.9566 31.8522 69.8498 31.9278C69.7477 32.0004 69.6533 32.0833 69.5681 32.1752L69.5309 32.2173L69.9971 33.0106H70.1319L70.9133 31.975C70.9462 31.9825 70.9783 31.9935 71.0089 32.0078C71.0547 32.0294 71.0968 32.0579 71.134 32.0922C71.1753 32.1286 71.2119 32.17 71.243 32.2154C71.2764 32.2651 71.3045 32.3181 71.3271 32.3736C71.375 32.4956 71.399 32.6257 71.3978 32.7568C71.398 32.9451 71.3748 33.1326 71.3286 33.315C71.2806 33.4996 71.2103 33.6776 71.1195 33.8453C71.03 34.0123 70.9305 34.1739 70.8218 34.329C70.7233 34.4692 70.6147 34.6021 70.4969 34.7265C70.3825 34.8463 70.2596 34.9687 70.1281 35.0937C69.9966 35.2188 69.8567 35.3458 69.7084 35.4748L69.682 35.4979V35.6597H72.4617L72.5819 34.6223L71.6419 34.7964H71.1689C71.2553 34.7346 71.3383 34.6692 71.4168 34.6011C71.5281 34.5039 71.6327 34.3992 71.7297 34.2877Z" fill="#CA8F65"/>
<path fill-rule="evenodd" clip-rule="evenodd" d="M74.956 31.6309L74.9139 31.6439L73.6298 32.4882V32.6438L74.1995 32.7453V35.2237L73.9085 35.4711L73.8813 35.4942V35.6568H75.4059V35.4942L75.0847 35.2233V31.6309H74.956Z" fill="#CA8F65"/>
<path d="M75.8252 29.5298H60.229V30.1978H75.8252V29.5298Z" fill="#CA8F65"/>
<path d="M75.8252 37.0894H60.229V37.7577H75.8252V37.0894Z" fill="#CA8F65"/>
</svg>
