<svg width="64" height="64" viewBox="0 0 64 64" fill="none" xmlns="http://www.w3.org/2000/svg">
<path d="M27.966 27.696C27.9404 27.4835 27.8379 27.2877 27.6778 27.1457C27.5177 27.0036 27.3111 26.9251 27.097 26.925H13.0935C12.8795 26.9251 12.6729 27.0036 12.5129 27.1457C12.3529 27.2878 12.2504 27.4836 12.225 27.696L11.2855 35.527C11.0311 37.6212 11.5337 39.7374 12.7025 41.4936C13.8714 43.2497 15.6294 44.5303 17.6595 45.104L17.3835 57.369L14.755 60.15C14.6376 60.2743 14.5591 60.4302 14.5293 60.5986C14.4995 60.7669 14.5197 60.9403 14.5874 61.0973C14.655 61.2543 14.7672 61.3881 14.91 61.482C15.0528 61.576 15.22 61.6261 15.391 61.626H24.8C24.9709 61.626 25.1381 61.5758 25.2808 61.4818C25.4235 61.3878 25.5356 61.2541 25.6032 61.0971C25.6708 60.9401 25.691 60.7667 25.6611 60.5984C25.6313 60.4301 25.5529 60.2743 25.4355 60.15L22.8115 57.3745L22.5305 45.105C24.5608 44.5316 26.3192 43.2511 27.4882 41.4949C28.6572 39.7387 29.1599 37.6224 28.9055 35.528L27.966 27.696ZM26.321 28.675L26.808 32.735H13.383L13.87 28.675H26.321ZM17.421 59.875L18.6025 58.625H21.585L22.767 59.875H17.421ZM21.0485 56.875H19.145L19.403 45.42C19.633 45.438 19.863 45.457 20.0955 45.457C20.328 45.457 20.5575 45.438 20.7875 45.42L21.0485 56.875ZM25.4225 41.3115C24.4151 42.4463 23.0716 43.2297 21.5879 43.5476C20.1041 43.8655 18.5576 43.7013 17.1737 43.079C15.7898 42.4566 14.6408 41.4086 13.8941 40.0876C13.1474 38.7666 12.842 37.2417 13.0225 35.735L13.1725 34.485H27.0175L27.1675 35.735C27.2872 36.735 27.1936 37.7489 26.8931 38.7101C26.5926 39.6712 26.0919 40.5579 25.424 41.3115H25.4225Z" fill="#CA8F65"/>
<path d="M48.8905 18.719C48.872 18.6985 48.8525 18.679 48.832 18.6605C47.7708 17.7001 46.9225 16.528 46.3417 15.2198C45.7609 13.9116 45.4606 12.4963 45.46 11.065V7.112C45.6678 7.08254 45.858 6.97917 45.9957 6.82085C46.1335 6.66253 46.2095 6.45986 46.21 6.25V3.25C46.21 3.01794 46.1178 2.79538 45.9537 2.63128C45.7896 2.46719 45.5671 2.375 45.335 2.375H37.835C37.7201 2.37493 37.6063 2.39752 37.5001 2.44147C37.3939 2.48542 37.2974 2.54987 37.2161 2.63114C37.1349 2.7124 37.0704 2.80888 37.0265 2.91507C36.9825 3.02126 36.9599 3.13507 36.96 3.25V6.25C36.9602 6.45997 37.0362 6.66282 37.174 6.82126C37.3118 6.97971 37.5021 7.08312 37.71 7.1125V11.4125C37.7133 12.7538 37.4518 14.0826 36.9405 15.3227C36.4292 16.5628 35.6782 17.6897 34.7305 18.639L34.6145 18.756C33.5051 19.8672 32.6258 21.1863 32.0271 22.6379C31.4283 24.0894 31.1217 25.6448 31.125 27.215V57.75C31.1262 58.7773 31.5348 59.7623 32.2613 60.4887C32.9877 61.2152 33.9726 61.6238 35 61.625H48.905C49.9323 61.6238 50.9173 61.2152 51.6437 60.4887C52.3702 59.7623 52.7788 58.7773 52.78 57.75V27.56C52.7792 25.8974 52.4331 24.253 51.7635 22.7311C51.094 21.2092 50.1156 19.843 48.8905 18.719ZM32.875 32.875H36.8965C37.0435 32.875 37.188 32.8379 37.3169 32.7673C37.4458 32.6967 37.5549 32.5948 37.634 32.471C38.0957 31.7439 38.7336 31.1451 39.4884 30.7303C40.2433 30.3154 41.0907 30.0979 41.952 30.0979C42.8133 30.0979 43.6607 30.3154 44.4156 30.7303C45.1704 31.1451 45.8083 31.7439 46.27 32.471C46.349 32.5948 46.458 32.6967 46.5868 32.7673C46.7156 32.8379 46.8601 32.875 47.007 32.875H51.03V51.03H47.007C46.8601 51.0299 46.7156 51.0669 46.5868 51.1374C46.458 51.2079 46.3491 51.3097 46.27 51.4335C45.8083 52.1606 45.1705 52.7594 44.4157 53.1742C43.6609 53.5891 42.8135 53.8066 41.9522 53.8066C41.0909 53.8066 40.2436 53.5891 39.4888 53.1742C38.734 52.7594 38.0962 52.1606 37.6345 51.4335C37.5553 51.3098 37.4462 51.208 37.3173 51.1374C37.1885 51.0669 37.0439 51.03 36.897 51.03H32.875V32.875ZM38.7085 4.125H44.4585V5.375H38.7085V4.125ZM35.8545 19.9885L35.971 19.8715C37.0806 18.76 37.96 17.4404 38.5587 15.9884C39.1574 14.5364 39.4637 12.9806 39.46 11.41V7.125H43.71V11.065C43.7108 12.7278 44.057 14.3722 44.7266 15.8942C45.3963 17.4162 46.3747 18.7825 47.6 19.9065C47.6185 19.9265 47.638 19.946 47.6585 19.9645C48.7196 20.925 49.5678 22.0971 50.1485 23.4052C50.7292 24.7134 51.0295 26.1287 51.03 27.56V31.125H47.466C46.8276 30.2636 45.9963 29.5638 45.0387 29.0815C44.0811 28.5993 43.0239 28.3481 41.9517 28.3481C40.8796 28.3481 39.8223 28.5993 38.8648 29.0815C37.9072 29.5638 37.0759 30.2636 36.4375 31.125H32.875V27.215C32.8717 25.8737 33.1332 24.5449 33.6445 23.3048C34.1558 22.0647 34.9068 20.9378 35.8545 19.9885ZM48.9045 59.875H35C34.4366 59.8743 33.8965 59.6502 33.4981 59.2519C33.0998 58.8535 32.8757 58.3134 32.875 57.75V52.78H36.438C37.0764 53.6413 37.9077 54.3411 38.8652 54.8232C39.8227 55.3054 40.8799 55.5565 41.952 55.5565C43.0241 55.5565 44.0813 55.3054 45.0388 54.8232C45.9963 54.3411 46.8276 53.6413 47.466 52.78H51.03V57.75C51.0293 58.3134 50.8052 58.8535 50.4069 59.2519C50.0085 59.6502 49.4684 59.8743 48.905 59.875H48.9045Z" fill="#CA8F65"/>
<path d="M45.4765 22.0319C45.647 22.1853 45.8708 22.2657 46.0999 22.2557C46.3289 22.2457 46.545 22.1462 46.7014 21.9786C46.8579 21.811 46.9423 21.5887 46.9365 21.3595C46.9308 21.1302 46.8352 20.9124 46.6705 20.7529C45.9457 20.0763 45.299 19.3206 44.7425 18.4999C44.6781 18.4047 44.5956 18.3231 44.4997 18.2598C44.4038 18.1965 44.2963 18.1527 44.1835 18.1309C44.0707 18.1091 43.9546 18.1097 43.842 18.1328C43.7294 18.1558 43.6225 18.2008 43.5273 18.2652C43.432 18.3296 43.3504 18.4121 43.2871 18.508C43.2238 18.6039 43.18 18.7113 43.1582 18.8242C43.1364 18.937 43.137 19.0531 43.1601 19.1657C43.1831 19.2783 43.2281 19.3852 43.2925 19.4804C43.9226 20.4101 44.6552 21.266 45.4765 22.0319Z" fill="#CA8F65"/>
<path d="M41.95 46.8274C42.9142 46.8274 43.8567 46.5415 44.6584 46.0058C45.4601 45.4701 46.0849 44.7088 46.4539 43.818C46.8229 42.9272 46.9194 41.947 46.7313 41.0013C46.5432 40.0557 46.0789 39.187 45.3971 38.5053C44.7154 37.8235 43.8467 37.3592 42.9011 37.1711C41.9554 36.983 40.9752 37.0795 40.0844 37.4485C39.1936 37.8175 38.4323 38.4423 37.8966 39.244C37.3609 40.0457 37.075 40.9882 37.075 41.9524C37.0765 43.2449 37.5905 44.484 38.5045 45.3979C39.4184 46.3119 40.6575 46.8259 41.95 46.8274ZM41.95 38.8274C42.5681 38.8274 43.1722 39.0107 43.6862 39.3541C44.2001 39.6974 44.6006 40.1855 44.8371 40.7565C45.0736 41.3275 45.1355 41.9559 45.0149 42.5621C44.8944 43.1682 44.5967 43.7251 44.1597 44.1621C43.7227 44.5991 43.1658 44.8968 42.5597 45.0174C41.9535 45.1379 41.3251 45.076 40.7541 44.8395C40.1831 44.603 39.695 44.2025 39.3517 43.6886C39.0083 43.1747 38.825 42.5705 38.825 41.9524C38.8259 41.1239 39.1555 40.3296 39.7413 39.7437C40.3272 39.1579 41.1215 38.8283 41.95 38.8274Z" fill="#CA8F65"/>
</svg>
