<svg width="66" height="88" viewBox="0 0 66 88" fill="none" xmlns="http://www.w3.org/2000/svg">
<path fill-rule="evenodd" clip-rule="evenodd" d="M65.4292 0H63.4292V20.7561C62.8159 20.3445 62.1406 19.9731 61.4038 19.6423C59.0713 18.5474 56.001 18 52.1924 18C49.5269 18 47.123 18.2856 44.981 18.8569C42.8862 19.428 41.125 20.1184 39.6968 20.9275L39.1973 31.0669H39.9111L43.3384 24.4263C44.2905 22.6174 45.3853 21.356 46.623 20.6418C47.9082 19.8804 49.2891 19.4995 50.7646 19.4995C53.1445 19.4995 54.9297 20.5229 56.1196 22.5698C57.3101 24.5691 57.9048 27.2109 57.9048 30.4956C57.9048 33.6375 57.0479 36.5886 55.3345 39.3496C53.6685 42.063 51.1216 45.1809 47.6943 48.7036L42.9814 53.4163C41.3633 55.0347 39.6968 56.677 37.9834 58.343V64.3408H63.4292V88H65.4292V64.3408V56.2009V37.6394V22.4771V0ZM63.4292 39.8948C63.4204 39.9036 63.4116 39.9124 63.4028 39.9209C60.2134 43.0151 55.8579 46.4424 50.3359 50.2029C49.2891 50.9646 48.0513 51.8928 46.623 52.9878C45.1953 54.0825 43.8623 55.1536 42.6245 56.2009H63.4292V39.8948ZM16.3516 65.4119C13.4951 65.4119 10.8057 64.6028 8.28271 62.9841C5.80762 61.3657 3.80811 58.8191 2.28516 55.344C0.761719 51.8691 0 47.3469 0 41.7773C0 36.1604 0.761719 31.6143 2.28516 28.1394C3.80811 24.6167 5.80762 22.0461 8.28271 20.4277C10.8057 18.8093 13.4951 18 16.3516 18C19.2075 18 21.873 18.8093 24.3486 20.4277C26.8716 22.0461 28.8945 24.6167 30.418 28.1394C31.9888 31.6143 32.7744 36.1604 32.7744 41.7773C32.7744 47.3469 31.9888 51.8691 30.418 55.344C28.8945 58.8191 26.8716 61.3657 24.3486 62.9841C21.873 64.6028 19.2075 65.4119 16.3516 65.4119ZM16.3516 63.9839C17.5415 63.9839 18.541 63.6746 19.3506 63.0557C20.207 62.4368 20.8975 61.3181 21.4209 59.6997C21.9448 58.0811 22.3257 55.8438 22.5635 52.9878C22.8018 50.084 22.9204 46.3472 22.9204 41.7773C22.9204 37.2075 22.8018 33.4707 22.5635 30.5671C22.3257 27.6157 21.9448 25.3308 21.4209 23.7124C20.8975 22.0938 20.207 20.9751 19.3506 20.3562C18.541 19.7375 17.5415 19.428 16.3516 19.428C15.8999 19.428 15.4722 19.4724 15.0688 19.5615C14.4087 19.7073 13.813 19.9722 13.2812 20.3562C12.4717 20.9751 11.8052 22.0938 11.2817 23.7124C10.7583 25.2832 10.3774 27.5442 10.1392 30.4956C9.90137 33.3994 9.78223 37.1599 9.78223 41.7773C9.78223 46.3472 9.90137 50.084 10.1392 52.9878C10.3774 55.8914 10.7583 58.1526 11.2817 59.771C11.8052 61.342 12.4717 62.4368 13.2812 63.0557C13.812 63.4392 14.4067 63.7039 15.0654 63.8496C15.4702 63.9392 15.8989 63.9839 16.3516 63.9839Z" fill="#595959"/>
</svg>
