<svg width="161" height="14" viewBox="0 0 161 14" fill="none" xmlns="http://www.w3.org/2000/svg">
<path fill-rule="evenodd" clip-rule="evenodd" d="M7.51636 12.9049L1.903 7.29978H8.4502L14.7665 13.6069L15.4695 12.9049L9.85613 7.29978H16.4033L22.7197 13.6069L23.4226 12.9049L17.8093 7.29978H24.3565L30.6728 13.6069L31.3757 12.9049L25.7624 7.29978H76.2577C76.2577 9.49276 78.038 11.2705 80.2342 11.2705C82.4304 11.2705 84.2108 9.49276 84.2108 7.29978H135.238L129.624 12.9049L130.327 13.6069L136.644 7.29978H143.191L137.577 12.9049L138.28 13.6069L144.597 7.29978H151.144L145.531 12.9049L146.233 13.6069L152.55 7.29978H159.097L153.484 12.9049L154.187 13.6069L161 6.80344L154.187 0L153.484 0.701936L159.097 6.30709H152.55L146.233 0L145.531 0.701936L151.144 6.30709H144.597L138.28 0L137.577 0.701936L143.191 6.30709H136.644L130.327 0L129.624 0.701936L135.238 6.30709H84.0855C83.6441 4.59448 82.0872 3.32903 80.2342 3.32903C78.3813 3.32903 76.8244 4.59448 76.383 6.30709H25.7624L31.3757 0.701936L30.6728 0L24.3565 6.30709H17.8093L23.4226 0.701936L22.7197 0L16.4033 6.30709H9.85613L15.4695 0.701936L14.7665 0L8.4502 6.30709H1.903L7.51636 0.701936L6.8134 0L0 6.80344L6.8134 13.6069L7.51636 12.9049ZM80.2366 10.3588C81.9335 10.3588 83.3092 8.98317 83.3092 7.28626C83.3092 5.58935 81.9335 4.21374 80.2366 4.21374C78.5397 4.21374 77.1641 5.58935 77.1641 7.28626C77.1641 8.98317 78.5397 10.3588 80.2366 10.3588Z" fill="#CA8F65"/>
</svg>
