<svg width="1906" height="253" viewBox="0 0 1906 253" fill="none" xmlns="http://www.w3.org/2000/svg">
<path opacity="0.3" d="M-6.55701 229.53C-23.5761 241.211 -23.7825 248.504 -3.16485 250.485C28.2222 253.499 60.5216 251.517 91.815 248.873C182.334 241.222 272.623 226.918 362.114 211.62C535.055 182.057 707.156 134.538 882.718 123.324C909.323 121.625 947.79 116.842 974.484 125.653C992.928 131.74 981.44 161.044 980.197 173.651C979.001 185.786 975.535 203.091 990.373 208.575C1004.4 213.76 1028.21 211.281 1040.72 210.187C1079.98 206.755 1108.39 201.654 1148.02 192.994C1237.9 173.35 1326 146.127 1414.75 122.071C1577.32 78.0038 1741.22 40.1522 1905 1" stroke="#7A7464" stroke-linecap="round"/>
</svg>
