<svg width="200" height="200" viewBox="0 0 200 200" fill="none" xmlns="http://www.w3.org/2000/svg">
<rect width="200" height="200" rx="100" fill="#2A2A2A"/>
<g clip-path="url(#clip0_296_5759)">
<path d="M136.389 54.5082C135.64 54.1924 134.777 54.5433 134.461 55.2902C134.143 56.0394 134.494 56.9023 135.242 57.2182C142.047 60.0907 147.091 66.893 147.091 75.1061C147.091 92.9024 124.931 101.383 113.132 87.9753C106.461 80.4573 106.537 68.7805 113.941 61.3762C118.317 56.9985 124.233 55.143 129.974 55.8235C130.78 55.9158 131.512 55.3436 131.608 54.5357C131.704 53.7293 131.127 52.9976 130.321 52.9015C111.048 50.6111 98.3055 72.3221 109.383 87.9753C108.203 87.9753 79.8447 87.9753 78.5561 87.9753C77.1812 87.9753 76.0658 89.093 76.0658 90.4656V109.496L73.3025 114.927C72.7791 115.957 71.9063 116.725 70.871 117.118C70.871 114.848 69.091 113.274 67.1013 113.274H61.4273C59.4704 113.274 57.6561 114.792 57.6561 117.194H54.0085C51.7982 117.194 50 118.993 50 121.204V122.986C50 123.798 50.6569 124.456 51.4709 124.456C52.2827 124.456 52.9419 123.798 52.9419 122.986V121.204C52.9419 120.615 53.4203 120.136 54.0085 120.136H57.6561V140.498H54.0085C53.4203 140.498 52.9419 140.02 52.9419 139.432V128.869C52.9419 128.055 52.2827 127.398 51.4709 127.398C50.6569 127.398 50 128.055 50 128.869V139.432C50 141.642 51.7982 143.44 54.0085 143.44H57.6561C57.6561 145.844 59.4734 147.363 61.4273 147.363H67.1013C68.8293 147.363 70.2881 146.194 70.7314 144.605C72.5403 145.089 67.5575 144.898 133.396 144.898C134.912 144.898 136.146 143.664 136.146 142.148V95.81C154.439 88.3232 154.714 62.2688 136.389 54.5082V54.5082ZM67.9291 130.232C67.9291 131.797 67.9291 132.307 67.9291 132.295V143.591C67.9291 144.041 67.5507 144.421 67.1013 144.421H61.4273C60.9787 144.421 60.598 144.041 60.598 143.591C60.598 142.338 60.598 118.282 60.598 117.046C60.598 116.594 60.9787 116.216 61.4273 116.216H67.1013C67.5507 116.216 67.9291 116.594 67.9291 117.046V130.232ZM94.8074 90.9165H106.024V102.458L101.664 99.0471C100.929 98.4726 99.8962 98.4757 99.1669 99.0471L94.8074 102.458V90.9165ZM94.4695 141.948C71.1159 141.956 72.2527 142.103 70.871 141.56V120.183C73.0431 119.704 74.8428 118.378 76.0658 115.982C76.3908 115.344 78.8147 110.58 79.4037 109.424C79.8912 108.45 82.6454 110.912 81.3469 113.462L79.9271 116.253C78.9703 118.134 80.3345 120.36 82.4455 120.36L100.872 120.354C101.784 120.354 102.563 121.101 102.553 121.972C102.543 122.836 101.83 123.541 100.964 123.546H89.4653C88.6528 123.546 87.9944 124.204 87.9944 125.017C87.9944 125.829 88.6528 126.488 89.4653 126.488C89.473 126.488 106.631 126.486 106.635 126.486C107.375 126.486 108.148 127.167 108.268 127.827C108.482 128.894 107.856 129.675 106.754 129.675C106.75 129.675 104.473 129.677 89.3417 129.677C88.5292 129.677 87.8708 130.335 87.8708 131.148C87.8708 131.96 88.5292 132.618 89.3417 132.618C89.3501 132.618 104.082 132.618 104.091 132.619C105.503 132.671 106.127 134.377 105.156 135.342C104.855 135.645 104.456 135.809 104.03 135.809C92.7544 135.816 95.8824 135.815 87.9288 135.815C87.1162 135.815 86.4578 136.474 86.4578 137.286C86.4578 138.099 87.1162 138.757 87.9288 138.757C94.9333 138.757 94.9722 138.601 95.5986 139.224C96.595 140.223 95.887 141.948 94.4695 141.948V141.948ZM133.204 141.956H124.767V113.676C124.767 112.864 124.108 112.205 123.296 112.205C122.482 112.205 121.825 112.864 121.825 113.676V141.956H98.7076C99.115 140.887 99.1089 139.763 98.7267 138.755L104.03 138.751C107.296 138.751 109.489 135.4 108.189 132.405C111.459 131.393 112.254 127.316 109.892 124.944C108.303 123.356 106.718 123.544 105.202 123.544C106.339 120.55 104.045 117.412 100.872 117.412L82.6355 117.418L83.9691 114.798C86.2061 110.399 82.341 105.548 79.0077 106.341V90.9165H91.8655V104.337C91.8655 105.454 92.7757 106.364 93.8942 106.364C94.8006 106.364 94.6167 106.342 100.416 101.806C106.136 106.281 106.01 106.364 106.937 106.364C108.056 106.364 108.966 105.454 108.966 104.337V90.9165H111.864C114.671 93.7233 118.093 95.6925 121.825 96.6942V107.793C121.825 108.604 122.482 109.264 123.296 109.264C124.108 109.264 124.767 108.604 124.767 107.793V97.2786C127.567 97.641 130.452 97.4762 133.204 96.7789V141.956Z" fill="#F4DECE"/>
<path d="M117.963 74.8388C117.425 74.23 116.495 74.1743 115.888 74.7129C115.279 75.2516 115.223 76.1808 115.762 76.7889L121.686 83.4776C122.827 84.7654 124.836 84.7631 125.976 83.4837L139.581 68.215C140.122 67.6092 140.067 66.6792 139.461 66.139C138.854 65.5989 137.925 65.6515 137.384 66.258L123.834 81.465L117.963 74.8388Z" fill="#F4DECE"/>
</g>
<defs>
<clipPath id="clip0_296_5759">
<rect width="100" height="100" fill="white" transform="translate(50 50)"/>
</clipPath>
</defs>
</svg>
