<svg width="1920" height="46" viewBox="0 0 1920 46" fill="none" xmlns="http://www.w3.org/2000/svg">
<g clip-path="url(#clip0_322_950)">
<path fill-rule="evenodd" clip-rule="evenodd" d="M2043 -79H-122V126H0V35H8.23386C8.65843 33.9664 8.86591 32.5004 8.85918 30.6192C8.84093 25.8804 9.62955 23.9776 10.3279 27.0514C10.812 28.7713 12.6044 29.5214 12.6044 27.9662C12.6044 27.4722 13.2134 27.1063 14.3958 27.1429C15.5792 27.1794 16.0268 26.7952 15.7579 25.9719C15.1489 24.252 22.1014 23.4103 24.3414 24.9107C25.5776 25.7523 26.9224 25.7889 30.5062 25.0753C33.7798 24.5209 37.0994 24.3063 40.4153 24.435C53.2646 25.1302 72.4027 25.5511 96.1466 25.6791C110.159 25.7523 121.646 26.1183 121.646 26.5025C121.61 27.3624 132.021 27.1063 136.77 26.1366C138.313 25.5813 139.995 25.5813 141.538 26.1366C142.147 26.6123 144.19 26.6306 147.074 26.1366C155.802 24.6362 159.117 24.6179 192.196 25.8255C195.906 25.9536 202.59 25.8804 206.998 25.6608L217.983 25.1302C219.498 25.0747 220.999 24.81 222.445 24.3435C222.894 24.1422 223.39 24.0749 223.875 24.1493C224.361 24.2238 224.816 24.437 225.187 24.7643C226.19 25.6243 227.014 25.5693 229.577 24.3984C231.548 23.5201 232.821 23.2457 233.018 23.886C233.215 24.5264 234.057 24.5996 236.351 24.0141C238.645 23.4286 239.648 23.6665 240.024 24.3252C240.401 24.9839 241.924 25.2217 243.465 24.9839C245.006 24.746 250.633 24.3984 256.009 24.2337C259.542 24.2853 263.069 23.9417 266.528 23.2091C266.884 23.0193 267.285 22.9326 267.686 22.9584C268.087 22.9842 268.474 23.1215 268.804 23.3555C269.231 23.6686 269.76 23.8015 270.28 23.7266C270.801 23.6516 271.274 23.3745 271.599 22.9529C273.069 21.5258 274.897 21.5075 274.251 22.587C273.606 23.6665 276.707 23.6665 277.835 22.587C278.444 21.9832 279.359 22.0198 280.953 22.7151C282.265 23.2554 283.648 23.5945 285.057 23.7214C286.58 23.758 286.688 23.6116 285.684 22.8798C285.021 22.404 284.842 22.0015 285.326 22.0015C286.023 22.1507 286.653 22.53 287.118 23.081C287.87 23.8129 288.139 23.5933 288.139 23.081C288.139 22.5687 289.358 21.4709 290.809 20.739C293.211 19.4583 293.586 19.4583 294.787 20.739C295.612 21.6173 295.683 22.1479 295.093 22.1296C294.501 22.1113 294.052 22.404 294.052 22.7517C294.052 23.0993 296.92 23.3372 300.378 23.264C303.837 23.1908 306.722 22.8066 306.74 22.3491C306.758 21.8917 306.436 21.5624 305.736 21.5441C305.037 21.5258 305.02 21.2879 305.736 20.5927C307.206 19.1838 309.5 20.3182 308.782 22.1479C308.299 23.3555 308.532 23.5018 310.235 23.081C314.571 21.9649 322.653 21.7819 323.208 22.77C323.961 24.2154 325.52 24.0507 325 22.5687C324.659 21.5624 325.538 21.3977 329.337 21.5624C332.383 21.6905 334.247 21.3977 334.48 20.739C334.963 19.5314 338.064 19.4583 338.064 20.739C338.046 21.1964 337.455 21.5807 336.774 21.5624C336.093 21.5441 335.501 21.782 335.484 22.4772C335.466 23.1725 337.652 23.3372 342.06 23.1725C349.927 22.8431 351.361 22.6785 353.672 21.4526C355.984 20.2267 362.417 19.5863 362.955 20.5195C363.205 20.9769 362.758 21.6722 361.897 22.1296C360.678 22.8066 360.984 23.081 363.528 23.081C365.696 23.1725 366.915 22.7334 367.488 21.7637C368.205 20.5195 368.725 20.6292 369.764 21.599C370.803 22.5687 371.269 22.6419 371.555 21.8734C372.058 20.6476 375.14 20.5561 376.932 21.7271C377.774 22.276 378.706 22.093 379.745 21.1782C381.125 19.9523 381.393 20.0987 382.021 21.0684C382.648 22.0381 385.964 22.3674 400.568 22.898C410.693 23.264 418.811 23.9227 419.366 24.4167C420.477 25.3864 424.742 24.9107 425.513 23.7214C426.822 23.1046 428.275 22.8763 429.705 23.0627C431.121 23.2404 432.557 23.0255 433.863 22.4406C434.114 22.0381 435.369 21.8917 436.874 22.1662C438.379 22.4406 439.454 22.2394 439.454 21.6722C439.463 21.4276 439.562 21.1955 439.732 21.0224C439.901 20.8493 440.128 20.7481 440.368 20.739C440.887 20.7573 441.013 21.1599 440.727 21.6173C440.44 22.0747 441.049 22.5138 442.052 22.5138C443.258 22.6203 444.4 23.1135 445.313 23.9227C446.909 25.4413 449.561 24.8009 449.561 22.9712C449.597 22.0015 450.313 21.7819 451.926 22.0015C453.063 22.1888 454.227 22.0818 455.313 21.6905C455.905 21.3428 456.352 21.4709 456.352 21.9832C456.353 22.0307 456.35 22.0781 456.344 22.1249C456.335 22.1924 456.318 22.2586 456.292 22.3222C456.249 22.4299 456.186 22.5277 456.106 22.6098C456.072 22.6448 456.034 22.6767 455.995 22.7051C455.971 22.7223 455.946 22.7383 455.92 22.7529C455.889 22.7705 455.857 22.7861 455.825 22.7997C455.758 22.8272 455.687 22.8457 455.616 22.8549L455.553 22.8606L455.492 22.8614C455.379 22.8511 455.265 22.8653 455.157 22.9032C455.108 22.9204 455.061 22.9424 455.017 22.9687C454.993 22.9825 454.97 22.9975 454.948 23.0137C454.92 23.0344 454.893 23.0569 454.868 23.0812C454.785 23.1607 454.72 23.2572 454.676 23.3644C454.633 23.4716 454.612 23.587 454.615 23.7031C454.596 24.9107 465.904 25.1302 469.989 23.9958C472.212 23.3737 473.108 22.4955 472.91 21.8917C472.713 21.2879 472.875 20.739 473.233 20.739C473.47 20.7799 473.691 20.8896 473.869 21.0551C474.047 21.2205 474.174 21.4347 474.237 21.6722C474.415 22.2943 475.061 22.3857 476.763 21.7819C478.466 21.1782 479.254 21.2879 479.971 22.2211C481.404 24.0507 484.253 23.886 484.81 21.91C484.948 21.4389 485.229 21.0246 485.612 20.7257C485.995 20.4269 486.46 20.2587 486.942 20.245C487.999 20.2633 488.358 20.6476 487.999 21.2148C486.905 22.9529 489.11 23.3738 497.389 22.9529C504.252 22.587 505.722 22.2577 506.815 20.7573C508.356 18.6349 509.502 18.9094 509.324 20.6476C509.144 22.3857 513.445 23.1176 520.47 22.3857C523.785 22.0381 524.86 21.6173 524.537 20.7939C524 19.3302 525.971 18.6898 530.2 18.9642C533.103 19.1655 535.737 20.6659 533.103 20.6659C532.296 20.6659 532.333 20.8671 533.265 21.416C535.238 21.9526 537.293 22.1016 539.321 21.8551C544.482 21.5075 544.482 21.4343 544.482 17.0065C544.482 15.6343 544.59 15.7624 544.858 16.8053C545.127 17.8482 546.167 18.3605 547.958 18.3605C550.046 18.4318 552.129 18.6272 554.195 18.946C555.517 19.3138 556.916 19.2628 558.209 18.7996C558.477 18.3422 560.288 18.3605 562.294 18.7996C567.534 19.4222 572.808 19.6972 578.082 19.6229L581.806 19.6261C586.293 19.6288 588.606 19.6302 590.918 19.6923C593.379 19.7584 595.836 19.8933 600.906 20.1715L605.266 20.4097C618.258 21.1965 618.652 21.0867 618.652 19.3668C618.67 18.4154 619.082 17.6286 619.53 17.6286C619.765 17.6473 619.983 17.7596 620.137 17.941C620.292 18.1225 620.37 18.3586 620.355 18.5983C620.319 19.751 623.634 22.9163 624.978 22.9163C626.695 23.7355 628.288 24.8015 629.709 26.0817C630.612 26.8836 631.565 27.6249 632.561 28.3012C633.408 26.2168 634.313 23.7037 634.576 22.6419C634.844 21.5624 635.614 20.6842 636.258 20.6659C636.348 20.6659 636.433 20.6693 636.514 20.6762L636.651 20.668L636.769 20.6659C637.415 20.6842 638.185 21.5624 638.454 22.6419C638.718 23.7027 639.622 26.2121 640.469 28.2953C641.46 27.6206 642.409 26.8813 643.308 26.0817C644.727 24.8015 646.319 23.7355 648.032 22.9163C649.375 22.9163 652.685 19.751 652.65 18.5983C652.635 18.3586 652.713 18.1225 652.867 17.941C653.021 17.7596 653.239 17.6473 653.473 17.6286C653.921 17.6286 654.332 18.4154 654.35 19.3668C654.35 21.0867 654.744 21.1965 667.717 20.4097L672.054 20.1724L672.055 20.1724C677.129 19.8935 679.586 19.7585 682.045 19.6923C684.354 19.6302 686.664 19.6288 691.144 19.6261L694.863 19.6229C700.13 19.6972 705.397 19.4222 710.629 18.7996C712.633 18.3605 714.44 18.3422 714.708 18.7996C715.999 19.2628 717.397 19.3138 718.717 18.946C720.78 18.6272 722.86 18.4318 724.944 18.3605C726.734 18.3605 727.772 17.8482 728.04 16.8053C728.309 15.7624 728.416 15.6343 728.416 17.0065C728.416 21.4343 728.416 21.5075 733.57 21.8551C735.595 22.1016 737.647 21.9526 739.618 21.416C740.548 20.8671 740.585 20.6659 739.779 20.6659C737.149 20.6659 739.779 19.1655 742.678 18.9642C746.901 18.6898 748.869 19.3302 748.333 20.7939C748.011 21.6173 749.085 22.0381 752.395 22.3857C759.41 23.1176 763.704 22.3857 763.526 20.6476C763.347 18.9094 764.492 18.6349 766.031 20.7573C767.122 22.2577 768.59 22.587 775.443 22.9529C783.711 23.3738 785.912 22.9529 784.82 21.2148C784.463 20.6476 784.82 20.2633 785.876 20.245C786.357 20.2587 786.822 20.4269 787.204 20.7257C787.586 21.0246 787.867 21.4389 788.005 21.91C788.56 23.886 791.406 24.0507 792.837 22.2211C793.552 21.2879 794.34 21.1782 796.04 21.7819C797.74 22.3857 798.384 22.2943 798.564 21.6722C798.625 21.4347 798.753 21.2205 798.931 21.0551C799.108 20.8896 799.328 20.7799 799.566 20.739C799.923 20.739 800.084 21.2879 799.887 21.8917C799.69 22.4955 800.586 23.3737 802.805 23.9958C806.884 25.1302 818.176 24.9107 818.158 23.7031C818.159 23.6472 818.155 23.5915 818.146 23.5368C818.135 23.4778 818.119 23.42 818.096 23.3644C818.052 23.2572 817.987 23.1607 817.904 23.0812C817.822 23.0017 817.723 22.9411 817.615 22.9032L817.545 22.882C817.51 22.8731 817.474 22.8667 817.439 22.8628C817.387 22.8571 817.334 22.8566 817.281 22.8614C817.224 22.8627 817.169 22.8581 817.113 22.8479C817.082 22.8422 817.051 22.8346 817.021 22.8253L816.95 22.7997C816.844 22.7564 816.749 22.6918 816.668 22.6098C816.636 22.5767 816.607 22.541 816.58 22.5031C816.54 22.4472 816.508 22.3865 816.483 22.3222C816.441 22.2145 816.419 22.0992 816.422 21.9832C816.422 21.4709 816.87 21.3428 817.46 21.6905C818.544 22.0818 819.707 22.1888 820.843 22.0015C822.453 21.7819 823.168 22.0015 823.205 22.9712C823.205 24.8009 825.853 25.4413 827.446 23.9227C828.358 23.1135 829.498 22.6203 830.702 22.5138C831.705 22.5138 832.313 22.0747 832.026 21.6173C831.74 21.1599 831.865 20.7573 832.385 20.739C832.624 20.7481 832.851 20.8493 833.02 21.0224C833.189 21.1955 833.288 21.4276 833.297 21.6722C833.297 22.2394 834.37 22.4406 835.873 22.1662C837.377 21.8917 838.629 22.0381 838.88 22.4406C840.184 23.0255 841.619 23.2404 843.031 23.0627C844.46 22.8763 845.911 23.1046 847.22 23.7214C847.989 24.9107 852.247 25.3864 853.357 24.4167C853.912 23.9227 862.018 23.264 872.129 22.898C886.713 22.3674 890.024 22.0381 890.65 21.0684C891.276 20.0987 891.544 19.9523 892.923 21.1782C893.96 22.093 894.891 22.276 895.731 21.7271C897.521 20.5561 900.599 20.6476 901.1 21.8734C901.386 22.6419 901.852 22.5687 902.889 21.599C903.928 20.6292 904.446 20.5195 905.162 21.7637C905.734 22.7334 906.952 23.1725 909.117 23.081C911.658 23.081 911.962 22.8066 910.746 22.1296C909.886 21.6722 909.439 20.9769 909.689 20.5195C910.226 19.5863 916.65 20.2267 918.959 21.4526C921.268 22.6785 922.699 22.8431 930.555 23.1725C934.956 23.3372 937.14 23.1725 937.122 22.4772C937.104 21.782 936.514 21.5441 935.833 21.5624C935.153 21.5807 934.564 21.1964 934.545 20.739C934.545 19.4583 937.641 19.5314 938.124 20.739C938.357 21.3977 940.218 21.6905 943.26 21.5624C947.054 21.3977 947.931 21.5624 947.591 22.5687C947.072 24.0507 948.628 24.2154 949.38 22.77C949.934 21.7819 958.005 21.9649 962.336 23.081C964.036 23.5018 964.269 23.3555 963.786 22.1479C963.07 20.3182 965.36 19.1838 966.828 20.5927C967.543 21.2879 967.525 21.5258 966.828 21.5441C966.129 21.5624 965.807 21.8917 965.825 22.3491C965.843 22.8066 968.725 23.1908 972.178 23.264C975.632 23.3372 978.495 23.0993 978.495 22.7517C978.495 22.404 978.047 22.1113 977.457 22.1296C976.866 22.1479 976.937 21.6173 977.761 20.739C978.96 19.4583 979.336 19.4583 981.734 20.739C983.183 21.4709 984.4 22.5687 984.4 23.081C984.4 23.5933 984.668 23.8129 985.42 23.081C985.884 22.53 986.513 22.1507 987.21 22.0015C987.693 22.0015 987.514 22.404 986.851 22.8798C985.849 23.6116 985.957 23.758 987.478 23.7214C988.885 23.5945 990.266 23.2554 991.575 22.7151C993.169 22.0198 994.081 21.9832 994.689 22.587C995.817 23.6665 998.913 23.6665 998.268 22.587C997.624 21.5075 999.45 21.5258 1000.92 22.9529C1001.24 23.3745 1001.71 23.6516 1002.23 23.7266C1002.75 23.8015 1003.28 23.6686 1003.71 23.3555C1004.04 23.1215 1004.42 22.9842 1004.83 22.9584C1005.23 22.9326 1005.63 23.0193 1005.98 23.2091C1009.43 23.9417 1012.96 24.2853 1016.49 24.2337C1021.85 24.3984 1027.47 24.746 1029.01 24.9839C1030.55 25.2217 1032.07 24.9839 1032.45 24.3252C1032.82 23.6665 1033.83 23.4286 1036.12 24.0141C1038.41 24.5996 1039.25 24.5264 1039.44 23.886C1039.64 23.2457 1040.91 23.5201 1042.88 24.3984C1045.44 25.5693 1046.26 25.6243 1047.26 24.7643C1047.64 24.437 1048.09 24.2238 1048.57 24.1493C1049.06 24.0749 1049.55 24.1422 1050 24.3435C1051.45 24.81 1052.95 25.0747 1054.46 25.1302L1065.43 25.6608C1069.83 25.8804 1076.5 25.9536 1080.21 25.8255C1113.24 24.6179 1116.55 24.6362 1125.27 26.1366C1128.15 26.6306 1130.19 26.6123 1130.8 26.1366C1132.34 25.5813 1134.02 25.5813 1135.56 26.1366C1140.3 27.1063 1150.7 27.3624 1150.66 26.5025C1150.66 26.1183 1162.13 25.7523 1176.12 25.6791C1199.83 25.5511 1218.95 25.1302 1231.78 24.435C1235.09 24.3063 1238.4 24.5209 1241.67 25.0753C1245.25 25.7889 1246.59 25.7523 1247.83 24.9107C1250.07 23.4103 1257.01 24.252 1256.4 25.9719C1256.13 26.7952 1256.58 27.1794 1257.76 27.1429C1258.94 27.1063 1259.55 27.4722 1259.55 27.9662C1259.55 29.5214 1261.34 28.7713 1261.82 27.0514C1262.52 23.9776 1263.31 25.8804 1263.29 30.6192C1263.28 32.5004 1263.49 33.9664 1263.91 35H1277.53C1278 32.7499 1278.65 30.5437 1279.49 28.4053C1280.35 26.3012 1281.28 23.7214 1281.55 22.6419C1281.82 21.5624 1282.59 20.6842 1283.23 20.6659C1284.74 20.6659 1284.88 21.6356 1283.54 23.081C1282.78 23.886 1282.89 24.1239 1283.98 24.0873C1285.08 24.0507 1285.43 24.746 1285.49 26.6489C1285.49 28.1126 1285.76 29.2287 1286.01 29.2104C1287.53 28.3078 1288.96 27.2602 1290.29 26.0817C1291.71 24.8015 1293.31 23.7355 1295.02 22.9163C1296.37 22.9163 1299.68 19.751 1299.64 18.5983C1299.63 18.3586 1299.71 18.1225 1299.86 17.941C1300.02 17.7596 1300.23 17.6473 1300.47 17.6286C1300.92 17.6286 1301.33 18.4154 1301.35 19.3668C1301.35 21.0867 1301.74 21.1965 1314.73 20.4097L1319.09 20.1715C1324.16 19.8933 1326.62 19.7584 1329.08 19.6923C1331.39 19.6302 1333.71 19.6288 1338.19 19.6261L1341.92 19.6229C1347.19 19.6972 1352.47 19.4222 1357.71 18.7996C1359.71 18.3605 1361.52 18.3422 1361.79 18.7996C1363.08 19.2628 1364.48 19.3138 1365.8 18.946C1367.87 18.6272 1369.95 18.4318 1372.04 18.3605C1373.83 18.3605 1374.87 17.8482 1375.14 16.8053C1375.41 15.7624 1375.52 15.6343 1375.52 17.0065C1375.52 21.4343 1375.52 21.5075 1380.68 21.8551C1382.71 22.1016 1384.76 21.9526 1386.74 21.416C1387.67 20.8671 1387.7 20.6659 1386.9 20.6659C1384.26 20.6659 1386.9 19.1655 1389.8 18.9642C1394.03 18.6898 1396 19.3302 1395.46 20.7939C1395.14 21.6173 1396.22 22.0381 1399.53 22.3857C1406.55 23.1176 1410.86 22.3857 1410.68 20.6476C1410.5 18.9094 1411.64 18.6349 1413.19 20.7573C1414.28 22.2577 1415.75 22.587 1422.61 22.9529C1430.89 23.3738 1433.09 22.9529 1432 21.2148C1431.64 20.6476 1432 20.2633 1433.06 20.245C1433.54 20.2587 1434.01 20.4269 1434.39 20.7257C1434.77 21.0246 1435.05 21.4389 1435.19 21.91C1435.75 23.886 1438.6 24.0507 1440.03 22.2211C1440.75 21.2879 1441.53 21.1782 1443.24 21.7819C1444.94 22.3857 1445.58 22.2943 1445.76 21.6722C1445.83 21.4347 1445.95 21.2205 1446.13 21.0551C1446.31 20.8896 1446.53 20.7799 1446.77 20.739C1447.13 20.739 1447.29 21.2879 1447.09 21.8917C1446.89 22.4955 1447.79 23.3737 1450.01 23.9958C1454.1 25.1302 1465.4 24.9107 1465.39 23.7031L1465.38 23.6388L1465.38 23.5903L1465.38 23.5563C1465.37 23.5162 1465.36 23.4767 1465.35 23.4379L1465.32 23.3644C1465.28 23.2572 1465.21 23.1607 1465.13 23.0812C1465.05 23.0017 1464.95 22.9411 1464.84 22.9032L1464.78 22.8849L1464.71 22.8685C1464.66 22.8615 1464.62 22.858 1464.58 22.8582L1464.51 22.8614C1464.39 22.8639 1464.28 22.8429 1464.18 22.7997C1464.07 22.7564 1463.97 22.6918 1463.89 22.6098C1463.81 22.5277 1463.75 22.4299 1463.71 22.3222C1463.67 22.2145 1463.65 22.0992 1463.65 21.9832C1463.65 21.4709 1464.1 21.3428 1464.69 21.6905C1465.77 22.0818 1466.94 22.1888 1468.07 22.0015C1469.69 21.7819 1470.4 22.0015 1470.44 22.9712C1470.44 24.8009 1473.09 25.4413 1474.69 23.9227C1475.6 23.1135 1476.74 22.6203 1477.95 22.5138C1478.95 22.5138 1479.56 22.0747 1479.27 21.6173C1478.99 21.1599 1479.11 20.7573 1479.63 20.739C1479.87 20.7481 1480.1 20.8493 1480.27 21.0224C1480.44 21.1955 1480.54 21.4276 1480.55 21.6722C1480.55 22.2394 1481.62 22.4406 1483.13 22.1662C1484.63 21.8917 1485.89 22.0381 1486.14 22.4406C1487.44 23.0255 1488.88 23.2404 1490.29 23.0627C1491.72 22.8763 1493.18 23.1046 1494.49 23.7214C1495.26 24.9107 1499.52 25.3864 1500.63 24.4167C1501.19 23.9227 1509.31 23.264 1519.43 22.898C1534.04 22.3674 1537.35 22.0381 1537.98 21.0684C1538.61 20.0987 1538.87 19.9523 1540.25 21.1782C1541.29 22.093 1542.23 22.276 1543.07 21.7271C1544.86 20.5561 1547.94 20.6476 1548.44 21.8734C1548.73 22.6419 1549.2 22.5687 1550.24 21.599C1551.28 20.6292 1551.8 20.5195 1552.51 21.7637C1553.08 22.7334 1554.3 23.1725 1556.47 23.081C1559.02 23.081 1559.32 22.8066 1558.1 22.1296C1557.24 21.6722 1556.79 20.9769 1557.05 20.5195C1557.58 19.5863 1564.02 20.2267 1566.33 21.4526C1568.64 22.6785 1570.07 22.8431 1577.94 23.1725C1582.35 23.3372 1584.53 23.1725 1584.52 22.4772C1584.5 21.782 1583.91 21.5441 1583.23 21.5624C1582.55 21.5807 1581.95 21.1964 1581.94 20.739C1581.94 19.4583 1585.04 19.5314 1585.52 20.739C1585.75 21.3977 1587.62 21.6905 1590.66 21.5624C1594.46 21.3977 1595.34 21.5624 1595 22.5687C1594.48 24.0507 1596.04 24.2154 1596.79 22.77C1597.35 21.7819 1605.43 21.9649 1609.77 23.081C1611.47 23.5018 1611.7 23.3555 1611.22 22.1479C1610.5 20.3182 1612.79 19.1838 1614.26 20.5927C1614.98 21.2879 1614.96 21.5258 1614.26 21.5441C1613.56 21.5624 1613.24 21.8917 1613.26 22.3491C1613.28 22.8066 1616.16 23.1908 1619.62 23.264C1623.08 23.3372 1625.95 23.0993 1625.95 22.7517C1625.95 22.404 1625.5 22.1113 1624.91 22.1296C1624.32 22.1479 1624.39 21.6173 1625.21 20.739C1626.41 19.4583 1626.79 19.4583 1629.19 20.739C1630.64 21.4709 1631.86 22.5687 1631.86 23.081C1631.86 23.5933 1632.13 23.8129 1632.88 23.081C1633.35 22.53 1633.98 22.1507 1634.67 22.0015C1635.16 22.0015 1634.98 22.404 1634.32 22.8798C1633.31 23.6116 1633.42 23.758 1634.94 23.7214C1636.35 23.5945 1637.73 23.2554 1639.05 22.7151C1640.64 22.0198 1641.56 21.9832 1642.16 22.587C1643.29 23.6665 1646.39 23.6665 1645.75 22.587C1645.1 21.5075 1646.93 21.5258 1648.4 22.9529C1648.73 23.3745 1649.2 23.6516 1649.72 23.7266C1650.24 23.8015 1650.77 23.6686 1651.2 23.3555C1651.53 23.1215 1651.91 22.9842 1652.31 22.9584C1652.72 22.9326 1653.12 23.0193 1653.47 23.2091C1656.93 23.9417 1660.46 24.2853 1663.99 24.2337C1669.37 24.3984 1674.99 24.746 1676.54 24.9839C1678.08 25.2217 1679.6 24.9839 1679.98 24.3252C1680.35 23.6665 1681.36 23.4286 1683.65 24.0141C1685.94 24.5996 1686.79 24.5264 1686.98 23.886C1687.18 23.2457 1688.45 23.5201 1690.42 24.3984C1692.99 25.5693 1693.81 25.6243 1694.81 24.7643C1695.18 24.437 1695.64 24.2238 1696.12 24.1493C1696.61 24.0749 1697.11 24.1422 1697.56 24.3435C1699 24.81 1700.5 25.0747 1702.02 25.1302L1713 25.6608C1717.41 25.8804 1724.09 25.9536 1727.8 25.8255C1760.88 24.6179 1764.2 24.6362 1772.93 26.1366C1775.81 26.6306 1777.85 26.6123 1778.46 26.1366C1780.01 25.5813 1781.69 25.5813 1783.23 26.1366C1787.98 27.1063 1798.39 27.3624 1798.35 26.5025C1798.35 26.1183 1809.84 25.7523 1823.85 25.6791C1847.6 25.5511 1866.74 25.1302 1879.58 24.435C1882.9 24.3063 1886.22 24.5209 1889.49 25.0753C1893.08 25.7889 1894.42 25.7523 1895.66 24.9107C1897.9 23.4103 1904.85 24.252 1904.24 25.9719C1903.97 26.7952 1904.42 27.1794 1905.6 27.1429C1906.79 27.1063 1907.4 27.4722 1907.4 27.9662C1907.4 29.5214 1909.19 28.7713 1909.67 27.0514C1910.37 23.9776 1911.16 25.8804 1911.14 30.6192C1911.13 32.5004 1911.34 33.9664 1911.77 35H1920V126H2043V-79ZM636.514 23.134C637.083 23.7555 637.104 24.021 636.514 24.0785C635.924 24.021 635.946 23.7555 636.514 23.134ZM404.75 26.6046C405.261 26.7804 405.801 26.8514 406.338 26.8135C409.958 26.905 410.155 25.4047 406.625 24.8558C403.095 24.3069 402.629 24.435 403.363 25.7889C403.769 26.1515 404.24 26.4287 404.75 26.6046ZM292.031 23.4653C292.156 23.4543 292.277 23.4169 292.387 23.3555C293.623 22.6236 293.426 22.0747 291.92 22.0747C291.24 22.0564 290.863 22.4589 291.132 22.9163C291.145 22.9464 291.159 22.9758 291.174 23.0042C291.193 23.0371 291.213 23.0688 291.235 23.0991L291.284 23.1606L291.319 23.1989L291.345 23.2252C291.366 23.2442 291.387 23.2622 291.409 23.2792C291.439 23.3023 291.469 23.3235 291.501 23.3427C291.553 23.3736 291.607 23.3993 291.663 23.4192C291.782 23.4606 291.907 23.4762 292.031 23.4653ZM867.952 26.6046C867.442 26.7804 866.903 26.8514 866.366 26.8135C862.752 26.905 862.555 25.4047 866.08 24.8558C869.605 24.3069 870.071 24.435 869.337 25.7889C868.933 26.1515 868.461 26.4287 867.952 26.6046ZM980.513 23.4653C980.389 23.4543 980.269 23.4169 980.159 23.3555C978.924 22.6236 979.121 22.0747 980.624 22.0747C981.304 22.0564 981.68 22.4589 981.412 22.9163C981.362 23.0334 981.29 23.1386 981.198 23.2252C981.106 23.3118 980.999 23.3779 980.881 23.4192C980.827 23.438 980.772 23.4515 980.716 23.4596C980.649 23.4693 980.581 23.4712 980.513 23.4653ZM1513.66 26.8135C1514.2 26.8514 1514.74 26.7804 1515.25 26.6046C1515.76 26.4287 1516.23 26.1515 1516.64 25.7889C1517.37 24.435 1516.9 24.3069 1513.37 24.8558C1509.84 25.4047 1510.04 26.905 1513.66 26.8135ZM1627.61 23.3555C1627.72 23.4169 1627.84 23.4543 1627.97 23.4653C1628.09 23.4762 1628.22 23.4606 1628.34 23.4192C1628.45 23.3779 1628.56 23.3118 1628.65 23.2252C1628.75 23.1386 1628.82 23.0334 1628.87 22.9163C1629.14 22.4589 1628.76 22.0564 1628.08 22.0747C1626.57 22.0747 1626.38 22.6236 1627.61 23.3555Z" fill="#2A2A2A"/>
</g>
<defs>
<clipPath id="clip0_322_950">
<rect width="1920" height="46" fill="white"/>
</clipPath>
</defs>
</svg>
