<svg width="64" height="64" viewBox="0 0 64 64" fill="none" xmlns="http://www.w3.org/2000/svg">
<g clip-path="url(#clip0_105_4216)">
<path d="M55.2891 2.88542C54.8096 2.68327 54.2573 2.90788 54.0552 3.38591C53.8516 3.8654 54.0762 4.41764 54.5547 4.61979C58.9102 6.45817 62.1382 10.8117 62.1382 16.068C62.1382 27.4577 47.9561 32.8854 40.4043 24.3044C36.1348 19.4928 36.1836 12.0197 40.9224 7.28093C43.7227 4.47917 47.5093 3.29167 51.1831 3.72721C51.6992 3.7863 52.1675 3.42009 52.229 2.903C52.2905 2.38688 51.9214 1.91862 51.4053 1.8571C39.0708 0.391276 30.9155 14.2863 38.0054 24.3044C37.25 24.3044 19.1006 24.3044 18.2759 24.3044C17.396 24.3044 16.6821 25.0197 16.6821 25.8981V38.0778L14.9136 41.5534C14.5786 42.2126 14.02 42.7043 13.3574 42.9557C13.3574 41.5031 12.2183 40.4953 10.9448 40.4953H7.31348C6.06104 40.4953 4.8999 41.467 4.8999 43.0046H2.56543C1.15088 43.0046 0 44.1554 0 45.571V46.7111C0 47.2306 0.42041 47.652 0.941406 47.652C1.46094 47.652 1.88281 47.2306 1.88281 46.7111V45.571C1.88281 45.1935 2.18897 44.8874 2.56543 44.8874H4.8999V57.9191H2.56543C2.18897 57.9191 1.88281 57.613 1.88281 57.2365V50.4762C1.88281 49.9553 1.46094 49.5348 0.941406 49.5348C0.42041 49.5348 0 49.9553 0 50.4762V57.2365C0 58.6511 1.15088 59.8019 2.56543 59.8019H4.8999C4.8999 61.3405 6.06299 62.3122 7.31348 62.3122H10.9448C12.0508 62.3122 12.9844 61.5641 13.2681 60.5475C14.4258 60.8571 11.2368 60.7346 53.3735 60.7346C54.3438 60.7346 55.1333 59.945 55.1333 58.9748V29.3185C66.8408 24.527 67.0171 7.85222 55.2891 2.88542ZM11.4746 51.3488C11.4746 52.3503 11.4746 52.6769 11.4746 52.6686V59.8986C11.4746 60.1862 11.2324 60.4299 10.9448 60.4299H7.31348C7.02637 60.4299 6.78272 60.1862 6.78272 59.8986C6.78272 59.0964 6.78272 43.7004 6.78272 42.9094C6.78272 42.6203 7.02637 42.3781 7.31348 42.3781H10.9448C11.2324 42.3781 11.4746 42.6203 11.4746 42.9094V51.3488ZM28.6768 26.1867H35.8555V33.5734L33.0649 31.3903C32.5947 31.0226 31.9336 31.0246 31.4668 31.3903L28.6768 33.5734V26.1867ZM28.4605 58.8469C13.5142 58.8522 14.2417 58.946 13.3574 58.5983V44.9172C14.7476 44.6105 15.8994 43.7624 16.6821 42.2287C16.8901 41.82 18.4414 38.7717 18.8184 38.0314C19.1304 37.4079 20.8931 38.9841 20.062 40.6159L19.1533 42.402C18.541 43.6061 19.4141 45.0304 20.7651 45.0304L32.5581 45.0265C33.1416 45.0265 33.6401 45.5051 33.6338 46.0622C33.6274 46.6149 33.1714 47.0666 32.6167 47.0695H25.2578C24.7378 47.0695 24.3164 47.4909 24.3164 48.0109C24.3164 48.5309 24.7378 48.9523 25.2578 48.9523C25.2627 48.9523 36.2437 48.9513 36.2461 48.9513C36.7202 48.9513 37.2149 49.3869 37.2915 49.8097C37.4282 50.4924 37.0278 50.9924 36.3228 50.9924C36.3198 50.9924 34.8628 50.9933 25.1787 50.9933C24.6587 50.9933 24.2373 51.4147 24.2373 51.9347C24.2373 52.4543 24.6587 52.8757 25.1787 52.8757C25.1841 52.8757 34.6128 52.8757 34.6182 52.8762C35.522 52.9094 35.9214 54.0016 35.2998 54.6193C35.1074 54.8127 34.8516 54.9181 34.5791 54.9181C27.3628 54.9225 29.3648 54.9221 24.2744 54.9221C23.7544 54.9221 23.333 55.3434 23.333 55.8635C23.333 56.3835 23.7544 56.8049 24.2744 56.8049C28.7573 56.8049 28.7822 56.7048 29.1831 57.1032C29.8208 57.7429 29.3677 58.8469 28.4605 58.8469ZM53.2505 58.8517H47.8511V40.7526C47.8511 40.2331 47.4292 39.8112 46.9097 39.8112C46.3887 39.8112 45.9683 40.2331 45.9683 40.7526V58.8517H31.1729C31.4336 58.1677 31.4297 57.4484 31.1851 56.8034L34.5791 56.801C36.6694 56.801 38.0728 54.6559 37.2412 52.7394C39.3335 52.092 39.8423 49.4821 38.3306 47.9645C37.314 46.9479 36.2998 47.0685 35.3296 47.0685C36.0571 45.152 34.5889 43.1437 32.5581 43.1437L20.8867 43.1476L21.7402 41.4709C23.1719 38.6554 20.6982 35.551 18.5649 36.0583V26.1867H26.794V34.7756C26.794 35.4909 27.3765 36.0729 28.0923 36.0729C28.6724 36.0729 28.5547 36.0588 32.2661 33.1559C35.9268 36.0197 35.8467 36.0729 36.4395 36.0729C37.1558 36.0729 37.7383 35.4909 37.7383 34.7756V26.1867H39.5933C41.3897 27.9831 43.5796 29.2433 45.9683 29.8844V36.9875C45.9683 37.507 46.3887 37.9289 46.9097 37.9289C47.4292 37.9289 47.8511 37.507 47.8511 36.9875V30.2585C49.6426 30.4904 51.4893 30.3849 53.2505 29.9386V58.8517Z" fill="#CA8F65"/>
<path d="M43.4966 15.8969C43.1519 15.5072 42.5567 15.4716 42.168 15.8163C41.7783 16.161 41.7427 16.7558 42.0874 17.1449L45.8789 21.4257C46.6094 22.2499 47.895 22.2484 48.6245 21.4296L57.3316 11.6576C57.6778 11.2699 57.6431 10.6747 57.2549 10.329C56.8667 9.98329 56.272 10.017 55.9258 10.4052L47.2534 20.1376L43.4966 15.8969Z" fill="#CA8F65"/>
</g>
<defs>
<clipPath id="clip0_105_4216">
<rect width="64" height="64" fill="white"/>
</clipPath>
</defs>
</svg>
