<svg width="182" height="118" viewBox="0 0 182 118" fill="none" xmlns="http://www.w3.org/2000/svg" style="">
<path d="M130.851 43.7059C107.383 45.444 55.0858 51.4104 33.6481 61.3716L35.1038 63.638C61.2868 53.1297 109.845 45.9715 130.851 43.7059Z" fill="#FF3465"/>
<path d="M44.9679 50.0499C44.0158 50.1724 43.3326 50.0452 42.9185 49.6683C42.5043 49.2913 42.2551 48.7749 42.1707 48.119C42.0918 47.5054 42.1248 46.7591 42.2699 45.88C42.4149 45.001 42.5746 44.1524 42.749 43.3341C42.9753 42.2511 43.2526 40.9786 43.5808 39.5168C43.909 38.055 44.2607 36.5256 44.636 34.9287C45.0325 33.329 45.4317 31.7505 45.8337 30.1932C46.2568 28.6331 46.6764 27.2133 47.0925 25.9338C45.6353 26.1427 44.4122 26.3323 43.4231 26.5026C42.4553 26.6701 41.5853 26.8465 40.8133 27.0319C40.0386 27.196 39.1966 27.4226 38.2874 27.7117C38.2584 26.9841 38.5565 26.3757 39.1819 25.8866C39.8073 25.3975 40.6804 24.9948 41.8012 24.6786C42.922 24.3623 44.2124 24.1103 45.6723 23.9225C47.1323 23.7347 48.4418 23.6308 49.6007 23.6108C50.778 23.5669 51.8813 23.5325 52.9106 23.5077C53.9398 23.4828 54.9636 23.4157 55.982 23.3062C55.3469 24.0547 54.5748 24.5734 53.6656 24.8624C52.7564 25.1515 51.7833 25.3627 50.7466 25.496C50.5138 25.526 50.2705 25.5573 50.0166 25.5899C49.7599 25.6014 49.5047 25.6235 49.2508 25.6562C48.9969 25.6888 48.7429 25.7215 48.489 25.7541C48.0297 27.534 47.5217 29.7717 46.9651 32.4674C46.4296 35.1604 45.9257 38.1827 45.4535 41.5344C45.3015 42.6939 45.1557 43.7343 45.0161 44.6557C44.8977 45.5743 44.812 46.4134 44.7592 47.173C44.7275 47.9299 44.7565 48.6575 44.8464 49.3557C44.86 49.4615 44.8749 49.5779 44.8913 49.7049C44.9076 49.8318 44.9332 49.9468 44.9679 50.0499ZM54.0867 46.9089C53.2615 47.015 52.6139 46.8295 52.1438 46.3522C51.6765 45.8961 51.3952 45.2978 51.2999 44.5572C51.2373 44.0705 51.243 43.446 51.317 42.6837C51.4122 41.9186 51.5562 41.115 51.749 40.2729C51.9391 39.4096 52.1783 38.5937 52.4666 37.8253C52.7761 37.0542 53.1244 36.4179 53.5116 35.9164C53.896 35.3938 54.2999 35.1052 54.723 35.0508C54.9135 35.0263 55.0803 35.0693 55.2236 35.18C55.3853 35.2667 55.4812 35.4265 55.5111 35.6592C55.5438 35.9131 55.4276 36.3475 55.1625 36.9623C54.9186 37.5745 54.6221 38.2794 54.273 39.0771C53.924 39.8748 53.6332 40.708 53.4008 41.5768C53.1869 42.4217 53.1275 43.2144 53.2228 43.9549C53.3208 44.7167 53.513 45.2082 53.7996 45.4294C54.0862 45.6507 54.4939 45.7273 55.0229 45.6592C55.7423 45.5667 56.4578 45.109 57.1693 44.2862C57.9019 43.4606 58.6075 42.0901 59.286 40.1745L59.6125 40.4551C59.2329 42.3538 58.5239 43.8646 57.4854 44.9876C56.468 46.1079 55.3351 46.7483 54.0867 46.9089ZM56.0255 31.8827C55.687 31.9263 55.3693 31.8811 55.0724 31.7472C54.7967 31.6106 54.6358 31.3624 54.5895 31.0027C54.5323 30.5584 54.7373 30.1449 55.2043 29.7622C55.6897 29.3556 56.1863 29.1196 56.6941 29.0543C57.0115 29.0135 57.2749 29.0549 57.4844 29.1785C57.6939 29.3021 57.8218 29.5438 57.8681 29.9035C57.9198 30.3055 57.7479 30.7255 57.3526 31.1635C56.9757 31.5777 56.5333 31.8174 56.0255 31.8827ZM75.4738 44.3191C74.7333 44.4144 74.1638 44.251 73.7653 43.8291C73.3696 43.4283 73.131 42.9105 73.0493 42.2758C72.9813 41.7468 72.9873 41.2083 73.0674 40.6603C73.1686 40.1095 73.2606 39.5707 73.3434 39.0438C73.4473 38.5142 73.4735 38.0484 73.4217 37.6464C73.3673 37.2232 73.234 36.9393 73.0218 36.7945C72.8096 36.6497 72.5871 36.5923 72.3544 36.6222C71.8254 36.6903 71.2966 37.1777 70.768 38.0846C70.2605 38.9887 69.6061 40.2559 68.8049 41.8861C68.5317 42.4374 68.3127 42.9926 68.148 43.5515C67.9806 44.0892 67.8183 44.5833 67.6611 45.0337C67.4919 45.0555 67.2776 45.0615 67.0182 45.0519C66.7589 45.0422 66.5166 44.9981 66.2914 44.9195C66.0901 44.8594 65.9799 44.7553 65.9608 44.6072C65.9418 44.459 65.9921 44.0977 66.1118 43.523C66.2499 42.9245 66.3982 42.2387 66.5569 41.4654C66.734 40.6683 66.8687 39.8767 66.9612 39.0904C67.0721 38.2803 67.0921 37.6002 67.0214 37.0501C66.9751 36.6904 66.8749 36.4129 66.7207 36.2177C66.585 35.9985 66.369 35.908 66.0728 35.9461C65.6073 36.006 65.0833 36.3637 64.5009 37.0194C63.9157 37.6539 63.3325 38.471 62.7513 39.4707C62.1701 40.4703 61.6328 41.5611 61.1396 42.743C60.6648 43.9011 60.3064 45.0441 60.0643 46.1722C59.8739 46.1967 59.6371 46.1949 59.3538 46.1668C59.0706 46.1387 58.827 46.084 58.6229 46.0027C58.3977 45.9242 58.2783 45.832 58.2647 45.7262C58.2484 45.5992 58.3171 45.214 58.4709 44.5704C58.6009 43.9084 58.7582 43.1246 58.9428 42.219C59.1036 41.2949 59.2312 40.3644 59.3258 39.4273C59.4415 38.4876 59.4544 37.6685 59.3646 36.9703C59.4725 36.8059 59.6545 36.6319 59.9105 36.4484C60.1665 36.2649 60.4426 36.1541 60.7389 36.116C61.0351 36.0779 61.2562 36.1247 61.4022 36.2565C61.5694 36.3856 61.6693 36.5771 61.7019 36.831C61.7373 37.106 61.7139 37.593 61.6317 38.2919C61.568 38.9668 61.4715 39.7213 61.3422 40.5553C61.6782 39.8238 62.0659 39.0749 62.505 38.3086C62.9626 37.5184 63.4495 36.789 63.9658 36.1203C64.482 35.4517 65.0132 34.8994 65.5594 34.4635C66.124 34.0037 66.692 33.737 67.2633 33.6636C67.9192 33.5792 68.3949 33.7654 68.6902 34.2221C69.004 34.6549 69.2031 35.1993 69.2874 35.8552C69.3555 36.3842 69.3641 36.9531 69.3134 37.5619C69.2811 38.1468 69.2235 38.7027 69.1407 39.2295C69.0552 39.7352 68.968 40.1444 68.8792 40.4569C69.2201 39.5957 69.6074 38.7608 70.0411 37.9522C70.4933 37.1197 71.0068 36.4299 71.5817 35.8828C72.1539 35.3144 72.7997 34.984 73.5191 34.8915C74.1962 34.8044 74.6875 34.9455 74.9931 35.3149C75.3199 35.6815 75.5187 36.1399 75.5894 36.69C75.6602 37.2402 75.6426 37.8555 75.5365 38.5359C75.4304 39.2163 75.3111 39.8769 75.1784 40.5178C75.0669 41.1559 75.0398 41.6971 75.0969 42.1414C75.1323 42.4165 75.2284 42.6622 75.3853 42.8787C75.5607 43.0712 75.8282 43.1443 76.1879 43.0981C76.7803 43.0219 77.2964 42.6866 77.7362 42.0923C78.1944 41.4741 78.5967 40.7556 78.9431 39.9367C79.2867 39.0967 79.5709 38.2965 79.7958 37.5363L80.2338 37.9317C80.0096 38.8639 79.6901 39.8084 79.2755 40.7651C78.8581 41.7006 78.3264 42.5003 77.6805 43.1642C77.0557 43.8253 76.3202 44.2103 75.4738 44.3191ZM83.4769 43.7091C82.1862 43.8751 81.1666 43.6406 80.4181 43.0056C79.6936 42.389 79.2646 41.5623 79.1312 40.5255C79.0087 39.5734 79.1122 38.5384 79.4416 37.4205C79.7922 36.3 80.299 35.2239 80.9622 34.1922C81.6465 33.1578 82.4279 32.2937 83.3066 31.5999C84.1826 30.885 85.086 30.4676 86.017 30.3479C86.5037 30.2853 86.9643 30.3551 87.399 30.5573C87.8549 30.7567 88.1331 31.2479 88.2338 32.0308C88.3373 32.8348 88.1919 33.6279 87.7978 34.4099C87.4221 35.168 86.8782 35.8725 86.1661 36.5233C85.4751 37.1714 84.6873 37.7352 83.8026 38.2147C82.9363 38.6702 82.0537 38.9989 81.1547 39.2005C81.1396 39.4176 81.1337 39.6227 81.1371 39.8158C81.1404 40.009 81.153 40.1902 81.1747 40.3595C81.2156 40.6768 81.2881 40.9901 81.3924 41.2994C81.5179 41.6059 81.6935 41.8844 81.9193 42.135C82.1424 42.3644 82.4222 42.5327 82.7586 42.64C83.1162 42.7446 83.5384 42.7656 84.025 42.703C84.9348 42.5859 85.8014 42.2164 86.6248 41.5942C87.4454 40.9509 88.1822 40.1571 88.835 39.2128C89.4879 38.2684 90.0135 37.2544 90.4118 36.1708L90.8294 36.4074C90.4214 37.7504 89.833 38.9446 89.0641 39.9899C88.3163 41.0325 87.4567 41.8744 86.4852 42.5156C85.5376 43.1752 84.5348 43.573 83.4769 43.7091ZM81.2358 38.5771C81.7826 38.3132 82.3926 37.9551 83.0657 37.5029C83.7362 37.0295 84.3667 36.4967 84.9573 35.9045C85.569 35.3096 86.0471 34.6781 86.3913 34.01C86.7567 33.3393 86.8959 32.6653 86.8088 31.9883C86.7788 31.7555 86.7134 31.5811 86.6124 31.465C86.5115 31.349 86.3234 31.3086 86.0484 31.344C85.5406 31.4093 85.0269 31.6797 84.5073 32.1552C83.985 32.6096 83.5002 33.1882 83.0528 33.891C82.6055 34.5938 82.2192 35.3533 81.894 36.1694C81.5688 36.9856 81.3494 37.7882 81.2358 38.5771Z" fill="white"/>
<path d="M15.0509 97.4234C13.5778 97.6129 12.3922 97.33 11.4941 96.575C10.5961 95.8199 10.0391 94.603 9.82313 92.9244C9.62924 91.4171 9.66535 89.5319 9.93145 87.269C10.2274 84.9673 10.6538 82.5967 11.2106 80.157C10.8592 80.1325 10.5271 80.123 10.2144 80.1284C9.89726 80.0996 9.59505 80.0514 9.30777 79.9838L9.18879 79.0589C9.46726 79.0579 9.79711 79.0503 10.1784 79.0361C10.5596 79.0219 10.9922 79.001 11.4762 78.9736C11.9577 77.0312 12.4993 75.1506 13.1012 73.332C13.6986 71.4791 14.3054 69.834 14.9214 68.3966C15.5674 66.9205 16.1993 65.7423 16.8174 64.8618C17.4653 63.9427 18.0462 63.4501 18.56 63.384C18.8341 63.3487 19.0871 63.4207 19.3191 63.5998C19.5809 63.7402 19.7361 63.9988 19.7846 64.3757C19.8595 64.958 19.6232 65.9635 19.0756 67.3921C18.5237 68.7864 17.8335 70.4597 17.005 72.412C16.1766 74.3642 15.4023 76.4662 14.682 78.718C14.9903 78.6783 15.2986 78.6386 15.6069 78.599C15.9495 78.5549 16.275 78.513 16.5833 78.4734C17.7138 78.328 18.8935 78.1588 20.1223 77.9659C21.3854 77.7686 22.6419 77.5199 23.8918 77.2199L24.0108 78.1448C22.1531 78.5927 20.4772 78.965 18.9831 79.2617C17.5232 79.5539 16.2109 79.775 15.0462 79.9248C14.9091 79.9424 14.7721 79.96 14.6351 79.9777C14.5323 79.9909 14.4124 80.0063 14.2754 80.0239C13.721 81.9409 13.2932 83.8939 12.9918 85.8828C12.6904 87.8717 12.6565 89.774 12.8901 91.5897C13.0796 93.0627 13.4389 94.0961 13.9679 94.6897C14.4926 95.249 15.2688 95.4626 16.2965 95.3304C18.0779 95.1013 19.7237 94.0886 21.2338 92.2924C22.744 90.4963 23.9759 88.1613 24.9296 85.2875L25.6637 85.7154C25.0883 87.7396 24.266 89.604 23.1968 91.3086C22.1618 93.0088 20.9479 94.4012 19.5552 95.4858C18.1624 96.5704 16.661 97.2163 15.0509 97.4234ZM28.7892 94.9249C27.3162 95.1144 26.2118 94.7863 25.4762 93.9407C24.745 93.1293 24.2957 92.0727 24.1282 90.7709C23.9916 89.7089 24.0219 88.5907 24.2191 87.4161C24.4162 86.2415 24.725 85.1223 25.1453 84.0583C25.5999 82.9899 26.1301 82.1034 26.7359 81.3986C27.376 80.6894 28.0558 80.2886 28.7752 80.196C28.9464 80.174 29.1221 80.1862 29.3022 80.2327C29.5122 80.2405 29.7072 80.2677 29.8873 80.3142C29.6143 80.6279 29.3035 81.1902 28.9551 82.0012C28.6366 82.7734 28.3506 83.6634 28.0971 84.6711C27.8393 85.6445 27.6328 86.6113 27.4777 87.5715C27.3569 88.5273 27.3383 89.3307 27.4221 89.9816C27.5543 91.0093 27.8225 91.7409 28.2268 92.1765C28.6266 92.5777 29.1006 92.7431 29.6487 92.6726C30.3681 92.5801 31.1761 92.0931 32.0726 91.2116C32.9647 90.2959 33.8133 89.1769 34.6183 87.8545C33.5577 87.1899 32.6718 86.2592 31.9607 85.0621C31.2794 83.8265 30.8528 82.5406 30.6809 81.2046C30.5355 80.0741 30.5873 78.9878 30.8364 77.9459C31.1197 76.8996 31.6007 76.0367 32.2794 75.3574C32.9538 74.6438 33.8219 74.2187 34.8839 74.0821C36.2885 73.9015 37.279 74.1571 37.8556 74.8491C38.4321 75.5411 38.7931 76.4523 38.9385 77.5828C39.1104 78.9188 38.9766 80.4509 38.5373 82.179C38.0935 83.8728 37.4718 85.5373 36.6722 87.1724C37.3329 87.4356 38.0058 87.5232 38.691 87.4351C39.2391 87.3646 39.8425 87.1825 40.5012 86.8888C41.1555 86.5609 41.7729 86.081 42.3533 85.4491C42.9679 84.8129 43.4213 84.0058 43.7134 83.028L44.3961 83.4626C43.9181 85.1608 43.0894 86.434 41.91 87.2822C40.7604 88.0917 39.6204 88.5692 38.4899 88.7146C38.0446 88.7719 37.6119 88.7927 37.192 88.7771C36.7677 88.7272 36.3562 88.6408 35.9573 88.518C34.9908 90.2094 33.8714 91.6593 32.5991 92.8677C31.361 94.0717 30.091 94.7574 28.7892 94.9249ZM35.3714 86.3995C36.0647 85.0218 36.5974 83.6125 36.9692 82.1717C37.3709 80.6923 37.4925 79.3359 37.3338 78.1026C37.206 77.1092 36.9593 76.4096 36.5937 76.0039C36.258 75.5595 35.8674 75.366 35.4221 75.4233C34.7369 75.5114 34.0986 76.0985 33.507 77.1845C32.9153 78.2705 32.7165 79.5672 32.9104 81.0745C33.0382 82.068 33.3052 83.0609 33.7114 84.0534C34.1475 85.0072 34.7008 85.7892 35.3714 86.3995ZM55.7619 104.41C55.4878 104.445 55.211 104.324 54.9316 104.047C54.6223 103.808 54.3771 103.526 54.196 103.201C54.0193 102.91 53.9265 102.731 53.9177 102.662C54.1814 100.922 54.4671 99.3529 54.7749 97.9552C55.0528 96.5961 55.3412 95.1834 55.6401 93.7172C55.9092 92.2896 56.1474 90.6222 56.3548 88.715C56.5578 86.7736 56.7206 84.3846 56.8433 81.548C56.966 78.7115 57.0027 75.2069 56.9535 71.0344C56.9481 70.7216 56.988 70.4901 57.0732 70.3399C57.1583 70.1896 57.4064 70.0881 57.8175 70.0352C58.7082 69.9206 59.375 70.096 59.8179 70.5614C60.2565 70.9926 60.5132 71.4993 60.5881 72.0817C60.6498 72.5613 60.6572 73.431 60.6103 74.6907C60.5634 75.9504 60.4595 77.4438 60.2985 79.1709C60.7355 77.9654 61.3073 76.7253 62.0139 75.4504C62.7548 74.171 63.6398 73.0647 64.6689 72.1314C65.6981 71.198 66.8807 70.6454 68.2167 70.4736C69.724 70.2797 71.0278 70.6692 72.128 71.642C73.2581 72.5762 73.9355 73.9169 74.1602 75.664C74.3321 77 74.2066 78.4614 73.7839 80.048C73.391 81.596 72.7324 83.1085 71.808 84.5856C70.9134 86.024 69.7825 87.249 68.4152 88.2607C67.0479 89.2723 65.4736 89.8927 63.6922 90.1219C62.8015 90.2364 62.0688 90.2262 61.4943 90.0912C60.9197 89.9561 60.6192 89.7858 60.5928 89.5803C60.5752 89.4432 60.684 89.3422 60.9194 89.2771C61.1935 89.2418 61.5018 89.2022 61.8444 89.1581C63.2147 88.9818 64.4746 88.4889 65.6242 87.6794C66.8035 86.8312 67.8195 85.7951 68.6719 84.5711C69.5244 83.3471 70.1387 82.0318 70.515 80.6252C70.9255 79.2143 71.0471 77.8579 70.8796 76.5561C70.7386 75.4599 70.3798 74.5658 69.8033 73.8738C69.2566 73.1432 68.4694 72.844 67.4416 72.9762C66.5509 73.0907 65.6977 73.4965 64.8819 74.1934C64.096 74.8517 63.3664 75.6769 62.693 76.6689C62.0495 77.6223 61.4811 78.6183 60.9879 79.6568C60.5245 80.6566 60.1871 81.5532 59.9757 82.3466C59.6896 84.9952 59.3902 87.541 59.0776 89.9841C58.7695 92.4615 58.4476 94.6968 58.112 96.6901C57.815 98.7133 57.5232 100.37 57.2365 101.661C56.9155 102.956 56.6185 103.76 56.3454 104.074C56.1962 104.267 56.0017 104.379 55.7619 104.41ZM79.9983 89.1213C78.9364 89.2579 77.9994 89.0128 77.1875 88.3859C76.3457 87.7977 75.8322 86.7842 75.6471 85.3454C75.4885 84.1122 75.5929 82.758 75.9604 81.2829C76.3234 79.7736 76.8964 78.2721 77.6793 76.7784C78.4579 75.2505 79.374 73.8442 80.4275 72.5594C81.511 71.236 82.6767 70.1458 83.9246 69.2888C85.2067 68.4274 86.5158 67.9108 87.8519 67.7389C89.1879 67.5671 90.3476 67.7836 91.3308 68.3884C92.3096 68.959 92.8739 69.8266 93.0238 70.9914C93.1339 71.8478 92.969 72.4611 92.5291 72.8311C92.1234 73.1967 91.5437 73.4279 90.7901 73.5249C90.8233 73.242 90.8373 72.9442 90.8319 72.6315C90.8563 72.2801 90.8509 71.9674 90.8157 71.6933C90.7143 70.9054 90.44 70.2616 89.9926 69.762C89.5409 69.2281 88.8525 69.0206 87.9276 69.1396C86.9684 69.263 86.0361 69.7311 85.1308 70.5441C84.221 71.3228 83.3764 72.3368 82.5969 73.5863C81.8129 74.8015 81.145 76.1063 80.593 77.5006C80.0411 78.8949 79.6411 80.2523 79.393 81.5727C79.145 82.8931 79.0848 84.05 79.2126 85.0435C79.3845 86.3795 79.9329 86.9881 80.8578 86.8691C81.6458 86.7677 82.4559 86.2979 83.2883 85.4595C84.1163 84.5868 84.9372 83.5236 85.751 82.2697C86.5947 80.9772 87.3825 79.657 88.1146 78.3091C88.8466 76.9613 89.4891 75.7294 90.0421 74.6136C90.1527 74.3904 90.2251 74.2766 90.2594 74.2722C90.4693 74.28 90.7351 74.3155 91.0566 74.3786C91.4124 74.4373 91.7212 74.5369 91.983 74.6773C92.2449 74.8178 92.3934 75.025 92.4287 75.2991C92.4683 75.6074 92.3693 76.0555 92.1314 76.6432C91.8892 77.1968 91.6238 77.8403 91.3351 78.574C91.0464 79.3076 90.7941 80.0539 90.5783 80.813C90.3582 81.5378 90.2877 82.2085 90.367 82.8251C90.4331 83.339 90.6363 83.8352 90.9764 84.3139C91.3122 84.7582 91.7884 84.9407 92.405 84.8614C93.33 84.7424 94.4602 83.918 95.7956 82.388C97.1267 80.8239 98.389 78.5894 99.5824 75.6848L100.162 76.1326C99.6809 78.075 98.9653 79.8212 98.0155 81.3712C97.0656 82.9212 95.9905 84.1738 94.7901 85.1292C93.6239 86.0802 92.4242 86.635 91.1909 86.7936C89.9234 86.9566 88.9329 86.701 88.2193 86.0267C87.54 85.3479 87.143 84.5632 87.0284 83.6725C87.002 83.4669 86.9905 83.2421 86.9939 82.9979C86.9929 82.7194 86.9919 82.4409 86.9909 82.1625C85.7734 84.3389 84.6119 86.0031 83.5065 87.1552C82.4352 88.3029 81.2659 88.9583 79.9983 89.1213ZM108.664 84.3371C107.499 84.4869 106.535 84.2976 105.77 83.7691C105.04 83.2362 104.611 82.473 104.483 81.4795C104.351 80.4518 104.452 79.3418 104.786 78.1496C105.12 76.9575 105.439 75.7846 105.744 74.6311C106.078 73.4389 106.188 72.3975 106.073 71.5068C105.932 70.4105 105.503 69.6473 104.786 69.2172C104.099 68.7484 103.401 68.3332 102.693 67.9716C102.165 70.0941 101.59 72.1183 100.967 74.0441C100.344 75.9699 99.8181 77.4305 99.389 78.426L98.8142 77.6119C99.1792 76.6595 99.6284 75.2784 100.162 73.4686C100.729 71.6544 101.249 69.6026 101.721 67.3131C101.334 67.0146 101.11 66.6256 101.048 66.146C100.916 65.1182 101.099 64.2415 101.598 63.5157C102.096 62.7899 102.483 62.4094 102.757 62.3741C103.134 62.3256 103.361 62.4705 103.44 62.8086C103.548 63.1081 103.613 63.3435 103.635 63.5148C103.657 63.6861 103.598 64.0419 103.459 64.5822C103.349 65.0838 103.301 65.3861 103.314 65.4888C103.376 65.9684 103.69 66.3807 104.257 66.7257C104.853 67.032 105.527 67.3981 106.279 67.8238C107.025 68.2153 107.702 68.7377 108.308 69.391C108.945 70.0056 109.333 70.8611 109.474 71.9573C109.607 72.985 109.518 74.0585 109.21 75.1778C108.935 76.2926 108.637 77.3583 108.315 78.3748C108.027 79.3869 107.93 80.2526 108.022 80.972C108.101 81.5887 108.308 81.9799 108.643 82.1458C108.978 82.3117 109.351 82.3682 109.762 82.3153C110.584 82.2096 111.39 81.8447 112.181 81.2207C113.005 80.5922 113.778 79.8312 114.499 78.9375C115.22 78.0438 115.85 77.1269 116.391 76.1867C116.928 75.2123 117.301 74.3284 117.513 73.5351L118.247 73.9631C117.781 75.4856 117.073 77.0218 116.123 78.5718C115.169 80.0875 114.047 81.3811 112.757 82.4524C111.501 83.5194 110.137 84.1476 108.664 84.3371ZM122.139 83.6485C120.666 83.838 119.48 83.5552 118.582 82.8001C117.684 82.045 117.127 80.8282 116.911 79.1496C116.717 77.6422 116.753 75.7571 117.019 73.4941C117.315 71.1925 117.742 68.8218 118.298 66.3821C117.947 66.3577 117.615 66.3482 117.302 66.3536C116.985 66.3247 116.683 66.2765 116.396 66.209L116.277 65.2841C116.555 65.2831 116.885 65.2755 117.266 65.2612C117.648 65.247 118.08 65.2262 118.564 65.1988C119.046 63.2563 119.587 61.3758 120.189 59.5572C120.787 57.7043 121.393 56.0591 122.009 54.6217C122.655 53.1457 123.287 51.9674 123.905 51.087C124.553 50.1679 125.134 49.6752 125.648 49.6091C125.922 49.5739 126.175 49.6458 126.407 49.8249C126.669 49.9654 126.824 50.224 126.873 50.6008C126.947 51.1832 126.711 52.1887 126.164 53.6173C125.612 55.0116 124.921 56.6849 124.093 58.6371C123.265 60.5894 122.49 62.6914 121.77 64.9431C122.078 64.9035 122.387 64.8638 122.695 64.8241C123.037 64.7801 123.363 64.7382 123.671 64.6985C124.802 64.5531 125.981 64.384 127.21 64.1911C128.473 63.9938 129.73 63.7451 130.98 63.445L131.099 64.37C129.241 64.8179 127.565 65.1902 126.071 65.4868C124.611 65.7791 123.299 66.0001 122.134 66.1499C121.997 66.1676 121.86 66.1852 121.723 66.2028C121.62 66.216 121.5 66.2315 121.363 66.2491C120.809 68.1661 120.381 70.119 120.08 72.108C119.778 74.0969 119.744 75.9992 119.978 77.8148C120.168 79.2879 120.527 80.3212 121.056 80.9148C121.581 81.4742 122.357 81.6878 123.384 81.5556C125.166 81.3264 126.812 80.3138 128.322 78.5176C129.832 76.7214 131.064 74.3864 132.018 71.5126L132.752 71.9406C132.176 73.9648 131.354 75.8292 130.285 77.5338C129.25 79.234 128.036 80.6264 126.643 81.711C125.25 82.7956 123.749 83.4414 122.139 83.6485ZM136.18 94.0657C135.324 94.1758 134.539 94.033 133.827 93.6371C133.119 93.2755 132.707 92.6493 132.593 91.7586C132.452 90.6624 132.6 89.6508 133.038 88.7238C133.476 87.7969 134.111 86.9142 134.944 86.0759C135.776 85.2375 136.75 84.4157 137.865 83.6106C138.981 82.8055 140.147 81.9937 141.365 81.1754C141.682 79.8462 141.981 78.3799 142.262 76.7767C142.573 75.1347 142.83 73.343 143.033 71.4016C142.166 73.324 141.183 75.0176 140.083 76.4824C139.012 77.9086 137.775 78.712 136.37 78.8927C135.719 78.9764 135.051 78.9231 134.365 78.7328C133.709 78.5038 133.135 78.1074 132.645 77.5436C132.154 76.9799 131.847 76.2184 131.724 75.2592C131.601 74.3 131.612 73.1668 131.757 71.8596C131.936 70.548 132.189 69.2619 132.514 68.0012C132.84 66.7405 133.209 65.6831 133.621 64.8291C134.034 63.9751 134.428 63.5238 134.805 63.4753C134.942 63.4577 135.189 63.4782 135.544 63.537C135.934 63.5913 136.297 63.7013 136.632 63.8672C136.996 63.9945 137.192 64.1608 137.218 64.3664C136.967 64.8514 136.706 65.5292 136.435 66.3999C136.164 67.2705 135.906 68.2439 135.661 69.3201C135.447 70.3577 135.281 71.3715 135.165 72.3615C135.048 73.3516 135.034 74.1892 135.122 74.8743C135.201 75.491 135.402 75.9701 135.725 76.3116C136.047 76.6532 136.551 76.7799 137.236 76.6918C137.887 76.6081 138.567 76.2072 139.276 75.4892C140.014 74.7326 140.713 73.8069 141.374 72.712C142.068 71.6128 142.685 70.4539 143.225 69.2353C143.279 68.8452 143.316 68.4574 143.336 68.0717C143.386 67.6474 143.419 67.2253 143.435 66.8054C143.476 66.3126 143.645 65.7336 143.942 65.0685C144.27 64.3647 144.862 63.9578 145.718 63.8476C145.889 63.8256 146.063 63.8207 146.239 63.8329C146.41 63.8109 146.603 63.8209 146.817 63.863C146.888 64.4111 146.849 65.4608 146.7 67.0122C146.581 68.525 146.341 70.3144 145.98 72.3807C145.653 74.4425 145.213 76.5712 144.66 78.7667C146.191 77.9429 147.636 76.7296 148.997 75.1268C150.354 73.4897 151.36 71.4275 152.015 68.9404L152.749 69.3683C152.447 71.0788 151.844 72.6189 150.94 73.9888C150.067 75.32 149.037 76.5147 147.849 77.5728C146.658 78.5967 145.466 79.4814 144.273 80.2268C143.664 82.5338 142.952 84.7149 142.137 86.7699C141.356 88.8205 140.458 90.5031 139.443 91.8177C138.467 93.1621 137.379 93.9114 136.18 94.0657ZM135.712 92.4544C136.226 92.3883 136.994 91.5929 138.017 90.0684C139.078 88.5737 140.076 86.0425 141.01 82.4748C139.702 83.4091 138.495 84.3131 137.389 85.1867C136.287 86.0946 135.431 87.0231 134.822 87.972C134.213 88.921 133.981 89.9607 134.126 91.0912C134.161 91.3653 134.306 91.6775 134.56 92.0279C134.814 92.3783 135.198 92.5204 135.712 92.4544ZM154.948 61.8246C155.345 60.3109 155.782 58.5657 156.259 56.589C156.732 54.578 157.252 52.5262 157.818 50.4335C158.385 48.3408 158.971 46.4023 159.577 44.6179C160.214 42.7949 160.859 41.3188 161.515 40.1898C162.167 39.0264 162.818 38.4029 163.469 38.3192C163.743 38.2839 163.998 38.373 164.234 38.5863C164.466 38.7654 164.604 39.0263 164.648 39.3689C164.71 39.8485 164.568 40.7722 164.221 42.1401C163.905 43.4693 163.437 45.1139 162.819 47.074C162.23 48.9954 161.539 51.0693 160.746 53.2956C159.987 55.5175 159.181 57.7802 158.328 60.0839C157.471 62.3533 156.618 64.5177 155.768 66.5771C154.948 68.5978 154.184 70.3678 153.474 71.8869C153.435 71.8571 153.398 71.8443 153.364 71.8487C153.36 71.8145 153.338 71.7824 153.3 71.7526C153.444 70.1669 153.606 68.7183 153.785 67.4067C153.999 66.0907 154.22 64.9653 154.448 64.0306C154.672 63.0616 154.838 62.3262 154.948 61.8246ZM152.724 77.8338C152.278 77.8911 151.886 77.8197 151.547 77.6196C151.178 77.4581 150.963 77.1375 150.901 76.6579C150.826 76.0756 151.105 75.5348 151.737 75.0355C152.335 74.5407 152.959 74.2515 153.61 74.1677C154.021 74.1149 154.358 74.1586 154.62 74.2991C154.882 74.4395 155.043 74.7495 155.105 75.2291C155.171 75.743 154.963 76.2921 154.481 76.8765C153.995 77.4266 153.409 77.7457 152.724 77.8338Z" fill="white"/>
<circle cx="16.5738" cy="40.813" r="2" transform="rotate(-7.32977 16.5738 40.813)" fill="#FF3465"/>
<circle cx="98.4185" cy="104.895" r="2" transform="rotate(-7.32977 98.4185 104.895)" fill="#FF3465"/>
<circle cx="170.463" cy="30.0918" r="2" transform="rotate(-7.32977 170.463 30.0918)" fill="#FF3465"/>
<circle cx="43.1194" cy="99.1194" r="1" transform="rotate(-7.32977 43.1194 99.1194)" fill="#FF3465"/>
<circle cx="115.501" cy="26.0713" r="1" transform="rotate(-7.32977 115.501 26.0713)" fill="#FF3465"/>
<circle cx="176.119" cy="65.1194" r="1" transform="rotate(-7.32977 176.119 65.1194)" fill="#FF3465"/>
</svg>