<svg width="182" height="43" viewBox="0 0 182 43" fill="none" xmlns="http://www.w3.org/2000/svg">
<path d="M2.2636 30V3.95583H7.681V13.7478H7.84632C8.0837 13.2222 8.42705 12.6881 8.87638 12.1455C9.33419 11.5944 9.92764 11.1366 10.6567 10.7721C11.3943 10.399 12.3099 10.2125 13.4036 10.2125C14.8279 10.2125 16.142 10.5856 17.3458 11.3316C18.5497 12.0692 19.5119 13.184 20.2326 14.6762C20.9532 16.1598 21.3135 18.0207 21.3135 20.2589C21.3135 22.4377 20.9617 24.2774 20.258 25.778C19.5628 27.2701 18.6133 28.4019 17.4094 29.1734C16.214 29.9364 14.8745 30.3179 13.3909 30.3179C12.3396 30.3179 11.4452 30.1441 10.7076 29.7965C9.97851 29.4489 9.38082 29.0123 8.91453 28.4867C8.44825 27.9526 8.09217 27.4142 7.84632 26.8716H7.60469V30H2.2636ZM7.56654 20.2334C7.56654 21.3949 7.72762 22.408 8.04979 23.2728C8.37195 24.1375 8.83823 24.8115 9.44864 25.2948C10.0591 25.7695 10.8009 26.0069 11.6741 26.0069C12.5558 26.0069 13.3019 25.7653 13.9123 25.282C14.5227 24.7903 14.9847 24.1121 15.2984 23.2473C15.6206 22.3741 15.7816 21.3695 15.7816 20.2334C15.7816 19.1059 15.6248 18.114 15.3111 17.2577C14.9974 16.4014 14.5354 15.7317 13.925 15.2484C13.3146 14.7652 12.5643 14.5236 11.6741 14.5236C10.7924 14.5236 10.0463 14.7567 9.43592 15.223C8.83399 15.6893 8.37195 16.3505 8.04979 17.2068C7.72762 18.0631 7.56654 19.072 7.56654 20.2334ZM33.8301 30.3815C31.8208 30.3815 30.0913 29.9746 28.6416 29.1607C27.2003 28.3383 26.0897 27.1769 25.3098 25.6763C24.5298 24.1672 24.1398 22.3826 24.1398 20.3225C24.1398 18.3132 24.5298 16.5498 25.3098 15.0322C26.0897 13.5147 27.1876 12.332 28.6034 11.4842C30.0277 10.6364 31.6979 10.2125 33.6139 10.2125C34.9025 10.2125 36.1022 10.4202 37.2128 10.8357C38.3319 11.2426 39.3068 11.8573 40.1377 12.6796C40.977 13.502 41.6298 14.5363 42.0961 15.7825C42.5623 17.0203 42.7955 18.47 42.7955 20.1317V21.6196H26.3017V18.2623H37.696C37.696 17.4824 37.5265 16.7914 37.1873 16.1895C36.8482 15.5875 36.3777 15.117 35.7758 14.7779C35.1823 14.4303 34.4914 14.2565 33.7029 14.2565C32.8806 14.2565 32.1515 14.4473 31.5156 14.8288C30.8882 15.2018 30.3965 15.7062 30.0404 16.3421C29.6844 16.9694 29.5021 17.6689 29.4936 18.4404V21.6323C29.4936 22.5988 29.6717 23.4339 30.0277 24.1375C30.3923 24.8412 30.9052 25.3838 31.5665 25.7653C32.2278 26.1468 33.012 26.3375 33.9191 26.3375C34.521 26.3375 35.0721 26.2528 35.5723 26.0832C36.0725 25.9136 36.5006 25.6593 36.8567 25.3202C37.2128 24.9811 37.4841 24.5657 37.6706 24.0739L42.681 24.4046C42.4267 25.6084 41.9053 26.6597 41.1169 27.5584C40.3369 28.4485 39.328 29.1437 38.0902 29.6439C36.8609 30.1356 35.4409 30.3815 33.8301 30.3815ZM88.3855 30.3815C86.3762 30.3815 84.6467 29.9746 83.197 29.1607C81.7558 28.3383 80.6452 27.1769 79.8652 25.6763C79.0852 24.1672 78.6952 22.3826 78.6952 20.3225C78.6952 18.3132 79.0852 16.5498 79.8652 15.0322C80.6452 13.5147 81.743 12.332 83.1589 11.4842C84.5831 10.6364 86.2533 10.2125 88.1693 10.2125C89.458 10.2125 90.6576 10.4202 91.7682 10.8357C92.8873 11.2426 93.8622 11.8573 94.6931 12.6796C95.5324 13.502 96.1852 14.5363 96.6515 15.7825C97.1178 17.0203 97.3509 18.47 97.3509 20.1317V21.6196H80.8571V18.2623H92.2514C92.2514 17.4824 92.0819 16.7914 91.7428 16.1895C91.4036 15.5875 90.9331 15.117 90.3312 14.7779C89.7377 14.4303 89.0468 14.2565 88.2583 14.2565C87.436 14.2565 86.7069 14.4473 86.071 14.8288C85.4437 15.2018 84.9519 15.7062 84.5959 16.3421C84.2398 16.9694 84.0575 17.6689 84.049 18.4404V21.6323C84.049 22.5988 84.2271 23.4339 84.5831 24.1375C84.9477 24.8412 85.4606 25.3838 86.1219 25.7653C86.7832 26.1468 87.5674 26.3375 88.4745 26.3375C89.0764 26.3375 89.6275 26.2528 90.1277 26.0832C90.6279 25.9136 91.056 25.6593 91.4121 25.3202C91.7682 24.9811 92.0395 24.5657 92.226 24.0739L97.2364 24.4046C96.9821 25.6084 96.4607 26.6597 95.6723 27.5584C94.8923 28.4485 93.8834 29.1437 92.6456 29.6439C91.4164 30.1356 89.9963 30.3815 88.3855 30.3815ZM134.653 30.3815C132.643 30.3815 130.914 29.9746 129.464 29.1607C128.023 28.3383 126.912 27.1769 126.132 25.6763C125.352 24.1672 124.962 22.3826 124.962 20.3225C124.962 18.3132 125.352 16.5498 126.132 15.0322C126.912 13.5147 128.01 12.332 129.426 11.4842C130.85 10.6364 132.52 10.2125 134.436 10.2125C135.725 10.2125 136.925 10.4202 138.035 10.8357C139.154 11.2426 140.129 11.8573 140.96 12.6796C141.8 13.502 142.452 14.5363 142.919 15.7825C143.385 17.0203 143.618 18.47 143.618 20.1317V21.6196H127.124V18.2623H138.519C138.519 17.4824 138.349 16.7914 138.01 16.1895C137.671 15.5875 137.2 15.117 136.598 14.7779C136.005 14.4303 135.314 14.2565 134.526 14.2565C133.703 14.2565 132.974 14.4473 132.338 14.8288C131.711 15.2018 131.219 15.7062 130.863 16.3421C130.507 16.9694 130.325 17.6689 130.316 18.4404V21.6323C130.316 22.5988 130.494 23.4339 130.85 24.1375C131.215 24.8412 131.728 25.3838 132.389 25.7653C133.05 26.1468 133.835 26.3375 134.742 26.3375C135.344 26.3375 135.895 26.2528 136.395 26.0832C136.895 25.9136 137.323 25.6593 137.679 25.3202C138.035 24.9811 138.307 24.5657 138.493 24.0739L143.504 24.4046C143.249 25.6084 142.728 26.6597 141.939 27.5584C141.159 28.4485 140.151 29.1437 138.913 29.6439C137.684 30.1356 136.263 30.3815 134.653 30.3815ZM152.571 18.7074V30H147.153V10.4669H152.316V13.9131H152.545C152.978 12.7771 153.703 11.8784 154.72 11.2172C155.737 10.5474 156.971 10.2125 158.421 10.2125C159.777 10.2125 160.96 10.5093 161.969 11.1027C162.977 11.6962 163.762 12.544 164.321 13.6461C164.881 14.7397 165.16 16.0453 165.16 17.5629V30H159.743V18.5294C159.752 17.334 159.446 16.4014 158.827 15.7317C158.209 15.0534 157.357 14.7143 156.271 14.7143C155.542 14.7143 154.898 14.8712 154.338 15.1848C153.787 15.4985 153.355 15.9563 153.041 16.5583C152.736 17.1517 152.579 17.8681 152.571 18.7074ZM179.82 10.4669V14.5363H168.057V10.4669H179.82ZM170.727 5.78706H176.145V23.9976C176.145 24.4978 176.221 24.8878 176.374 25.1676C176.526 25.4389 176.738 25.6296 177.009 25.7398C177.289 25.8501 177.611 25.9052 177.976 25.9052C178.23 25.9052 178.485 25.884 178.739 25.8416C178.993 25.7907 179.188 25.7526 179.324 25.7271L180.176 29.7584C179.905 29.8432 179.523 29.9407 179.031 30.0509C178.54 30.1696 177.942 30.2416 177.238 30.2671C175.933 30.3179 174.788 30.1441 173.805 29.7457C172.83 29.3472 172.071 28.7283 171.528 27.889C170.986 27.0497 170.719 25.9899 170.727 24.7098V5.78706Z" fill="#300843"/>
<path d="M116.196 11H122L116.44 27.0884L114.06 18.468L116.196 11Z" fill="#300843"/>
<path d="M108.322 13.1293L107.711 11H102L108.911 31H113.517L108.322 13.1293Z" fill="#300843"/>
<path d="M68.7678 29.2678C66.5425 29.2678 64.7322 27.4573 64.7322 25.2322C64.7322 24.5517 64.1805 24 63.5 24C62.8195 24 62.2678 24.5517 62.2678 25.2322C62.2678 27.4575 60.4573 29.2678 58.2322 29.2678C57.5517 29.2678 57 29.8195 57 30.5C57 31.1805 57.5517 31.7322 58.2322 31.7322C60.4575 31.7322 62.2678 33.5427 62.2678 35.7678C62.2678 36.4483 62.8195 37 63.5 37C64.1805 37 64.7322 36.4483 64.7322 35.7678C64.7322 33.5425 66.5427 31.7322 68.7678 31.7322C69.4483 31.7322 70 31.1805 70 30.5C70 29.8195 69.4483 29.2678 68.7678 29.2678ZM63.4998 31.9638C63.0927 31.4018 62.598 30.9069 62.0358 30.5C62.598 30.0929 63.0927 29.5982 63.4998 29.0362C63.9069 29.5982 64.4016 30.0931 64.9638 30.5C64.4016 30.9071 63.9069 31.4018 63.4998 31.9638Z" fill="#FF3465"/>
<path d="M60.7678 13.2678C58.5425 13.2678 56.7322 11.4573 56.7322 9.23218C56.7322 8.55169 56.1805 8 55.5 8C54.8195 8 54.2678 8.55169 54.2678 9.23218C54.2678 11.4575 52.4573 13.2678 50.2322 13.2678C49.5517 13.2678 49 13.8195 49 14.5C49 15.1805 49.5517 15.7322 50.2322 15.7322C52.4575 15.7322 54.2678 17.5427 54.2678 19.7678C54.2678 20.4483 54.8195 21 55.5 21C56.1805 21 56.7322 20.4483 56.7322 19.7678C56.7322 17.5425 58.5427 15.7322 60.7678 15.7322C61.4483 15.7322 62 15.1805 62 14.5C62 13.8195 61.4483 13.2678 60.7678 13.2678ZM55.4998 15.9638C55.0927 15.4018 54.598 14.9069 54.0358 14.5C54.598 14.0929 55.0927 13.5982 55.4998 13.0362C55.9069 13.5982 56.4016 14.0931 56.9638 14.5C56.4016 14.9071 55.9069 15.4018 55.4998 15.9638Z" fill="#FF3465"/>
<path d="M73.0439 4.04386H71.9561V2.95614C71.9561 2.4281 71.528 2 71 2C70.472 2 70.0439 2.4281 70.0439 2.95614V4.04386H68.9561C68.4281 4.04386 68 4.47195 68 5C68 5.52805 68.4281 5.95614 68.9561 5.95614H70.0439V7.04386C70.0439 7.5719 70.472 8 71 8C71.528 8 71.9561 7.5719 71.9561 7.04386V5.95614H73.0439C73.5719 5.95614 74 5.52805 74 5C74 4.47195 73.5719 4.04386 73.0439 4.04386Z" fill="#FF3465"/>
<path d="M51.0439 39.0439H49.9561V37.9561C49.9561 37.4281 49.528 37 49 37C48.472 37 48.0439 37.4281 48.0439 37.9561V39.0439H46.9561C46.4281 39.0439 46 39.472 46 40C46 40.528 46.4281 40.9561 46.9561 40.9561H48.0439V42.0439C48.0439 42.5719 48.472 43 49 43C49.528 43 49.9561 42.5719 49.9561 42.0439V40.9561H51.0439C51.5719 40.9561 52 40.528 52 40C52 39.472 51.5719 39.0439 51.0439 39.0439Z" fill="#FF3465"/>
</svg>
