<svg width="150" height="149" viewBox="0 0 150 149" fill="none" xmlns="http://www.w3.org/2000/svg">
<path d="M69.5136 149C65.7837 148.725 62.0795 148.173 58.432 147.349L60.3603 138.905C63.5844 139.635 66.859 140.123 70.1563 140.366L69.5136 149ZM91.7944 147.304L89.8389 138.86C93.0389 138.123 96.1799 137.152 99.2364 135.955L102.541 143.966L102.405 144.02C98.9613 145.365 95.4242 146.46 91.8215 147.295L91.7944 147.304ZM37.6266 139.248C34.3847 137.389 31.2859 135.294 28.3557 132.978L33.7879 126.193C36.3778 128.239 39.1166 130.091 41.9814 131.733L37.6266 139.248ZM121.825 132.851L116.393 126.085C118.972 124.028 121.393 121.781 123.636 119.364L129.973 125.246C127.452 127.978 124.728 130.517 121.825 132.842V132.851ZM13.1277 116.685C11.0159 113.611 9.14219 110.381 7.52337 107.023L15.3458 103.261C16.7844 106.227 18.4428 109.083 20.3072 111.804L13.1277 116.685ZM142.594 106.824L134.763 103.08C136.192 100.108 137.403 97.0352 138.384 93.8873L146.686 96.4404C145.574 99.9946 144.2 103.462 142.576 106.815L142.594 106.824ZM0.90536 85.7769C0.323556 82.0909 0.0209152 78.3666 0 74.6353H8.69132C8.69896 77.9278 8.9563 81.2149 9.46097 84.4688L0.90536 85.7769ZM141.308 74.4278C141.308 71.1358 141.057 67.8485 140.557 64.5943L149.149 63.2862C149.717 66.97 150.002 70.6917 150 74.4188L141.308 74.4278ZM11.6337 55.1758L3.3226 52.6408C4.42112 49.078 5.78289 45.6012 7.39672 42.2389L15.228 45.9828C13.8005 48.9531 12.5991 52.0261 11.6337 55.1758ZM134.69 45.8024C133.26 42.8351 131.607 39.9792 129.747 37.259L136.927 32.3783C139.03 35.4589 140.901 38.6916 142.522 42.0495L134.69 45.8024ZM26.3096 29.6899L19.9721 23.8169C22.4926 21.0787 25.2164 18.5334 28.1203 16.2027L33.5525 22.9598C30.9722 25.0091 28.551 27.2498 26.3096 29.6628V29.6899ZM116.303 22.8516C113.72 20.7919 110.984 18.9311 108.118 17.2853L112.455 9.77934C115.698 11.6479 118.794 13.759 121.717 16.0944L116.303 22.8516ZM50.6549 13.0902L47.4317 5.05205L47.5677 4.98889C51.0575 3.62448 54.6432 2.51787 58.296 1.678L60.2427 10.1222C57.0174 10.8604 53.8518 11.8375 50.7724 13.0451L50.6549 13.0902ZM89.721 10.1131C86.4965 9.38157 83.2225 8.88705 79.9252 8.63358L80.577 0C84.3074 0.280685 88.0116 0.838544 91.6586 1.66897L89.721 10.1131Z" fill="#EEEEEE"/>
<path d="M60.9258 95.8789C57.5664 95.8659 54.6758 95.0391 52.2539 93.3984C49.8451 91.7578 47.9896 89.3815 46.6875 86.2695C45.3984 83.1576 44.7604 79.4141 44.7734 75.0391C44.7734 70.6771 45.418 66.9596 46.707 63.8867C48.0091 60.8138 49.8646 58.4766 52.2734 56.875C54.6953 55.2604 57.5794 54.4531 60.9258 54.4531C64.2721 54.4531 67.1497 55.2604 69.5586 56.875C71.9805 58.4896 73.8424 60.8333 75.1445 63.9062C76.4466 66.9661 77.0911 70.6771 77.0781 75.0391C77.0781 79.4271 76.4271 83.1771 75.125 86.2891C73.8359 89.401 71.987 91.7773 69.5781 93.418C67.1693 95.0586 64.2852 95.8789 60.9258 95.8789ZM60.9258 88.8672C63.2174 88.8672 65.0469 87.7148 66.4141 85.4102C67.7813 83.1055 68.4583 79.6484 68.4453 75.0391C68.4453 72.0052 68.1328 69.4792 67.5078 67.4609C66.8958 65.4427 66.0234 63.9258 64.8906 62.9102C63.7708 61.8945 62.4492 61.3867 60.9258 61.3867C58.6471 61.3867 56.8242 62.526 55.457 64.8047C54.0898 67.0833 53.3997 70.4948 53.3867 75.0391C53.3867 78.112 53.6927 80.6771 54.3047 82.7344C54.9297 84.7786 55.8086 86.3151 56.9414 87.3437C58.0742 88.3594 59.4023 88.8672 60.9258 88.8672ZM100.511 55V95H92.0537V63.0273H91.8193L82.6592 68.7695V61.2695L92.5615 55H100.511Z" fill="#FF3465"/>
</svg>
