<svg width="100" height="100" viewBox="0 0 100 100" fill="none" xmlns="http://www.w3.org/2000/svg">
<path d="M81.0318 36.2695C81.0318 43.4922 78.5669 50.1406 74.4263 55.4102C73.7388 56.2852 73.0044 57.125 72.2271 57.9219C71.438 58.0156 70.6763 58.3633 70.0747 58.9688L66.4653 62.5781C64.2427 63.9727 61.8286 65.0898 59.2778 65.8906C56.3482 66.8086 53.231 67.3008 50.0005 67.3008C46.77 67.3008 43.6528 66.8086 40.7232 65.8906C38.1731 65.0824 35.7728 63.9844 33.5435 62.582L33.5356 62.5781L29.9263 58.9688C29.3247 58.3633 28.563 58.0156 27.7739 57.9219C27.77 57.918 27.77 57.918 27.77 57.918C26.9501 57.0645 26.3399 56.3836 25.5747 55.4102C21.4341 50.1406 18.9692 43.4922 18.9692 36.2695C18.9692 19.1328 32.8638 5.23828 50.0005 5.23828C67.1372 5.23828 81.0318 19.1328 81.0318 36.2695Z" fill="#FC5D3D"/>
<path d="M74.4258 55.4101C73.7383 56.2851 73.0039 57.125 72.2266 57.9219C71.4375 58.0156 70.6758 58.3633 70.0742 58.9687L66.4648 62.5781C64.2422 63.9726 61.8281 65.0898 59.2773 65.8906L68.1406 57.0351C69.8359 55.3398 72.2578 54.7851 74.4258 55.4101Z" fill="#B34F33"/>
<path d="M40.7227 65.8906C38.1727 65.0824 35.7723 63.9844 33.543 62.582L33.5352 62.5781L29.9258 58.9687C29.3242 58.3633 28.5625 58.0156 27.7734 57.9219C27.7695 57.918 27.7695 57.918 27.7695 57.918C26.9496 57.0644 26.3395 56.3836 25.5742 55.4101C27.7383 54.7851 30.1602 55.3359 31.8594 57.0351L40.7227 65.8906Z" fill="#B34F33"/>
<path d="M50 59.9688C63.0887 59.9688 73.6992 49.3583 73.6992 36.2695C73.6992 23.1808 63.0887 12.5703 50 12.5703C36.9113 12.5703 26.3008 23.1808 26.3008 36.2695C26.3008 49.3583 36.9113 59.9688 50 59.9688Z" fill="#F2E1D7"/>
<path d="M50.0004 39.3656C51.7103 39.3656 53.0965 37.9795 53.0965 36.2696C53.0965 34.5596 51.7103 33.1735 50.0004 33.1735C48.2905 33.1735 46.9043 34.5596 46.9043 36.2696C46.9043 37.9795 48.2905 39.3656 50.0004 39.3656Z" fill="#72C2E9"/>
<path d="M97.6054 46.8594L97.4647 64.8516C97.4647 66.0235 96.9999 67.1407 96.1718 67.9688L74.6093 89.5352V94.7618H54.9295V80.836H54.9374C54.7967 76.6954 56.3749 72.6602 59.3241 69.711L66.4647 62.5782L70.0741 58.9688C70.6757 58.3633 71.4374 58.0157 72.2264 57.9219C73.3241 57.793 74.4725 58.1602 75.3046 59.0274C76.6874 60.4727 76.6054 62.7774 75.1913 64.1915L70.1053 69.2735C68.5233 70.8633 68.535 73.4454 70.1561 75.0118C71.7186 76.5274 74.3514 76.4102 75.8905 74.8712L88.4218 62.336C89.0702 61.6876 89.4335 60.8165 89.4335 59.9024L89.5741 46.8594C89.5741 44.6407 91.3749 42.8399 93.5936 42.8399C95.8085 42.8438 97.6054 44.6407 97.6054 46.8594Z" fill="#FFB69F"/>
<path d="M45.0703 80.8359V94.7617H25.3906V89.5352L3.82812 67.9688C3 67.1406 2.53516 66.0234 2.53516 64.8516L2.39453 46.8594C2.39453 44.6406 4.19141 42.8438 6.40625 42.8398C8.625 42.8398 10.4258 44.6406 10.4258 46.8594L10.5664 59.9024C10.5664 60.8164 10.9297 61.6875 11.5781 62.3359L24.1094 74.8711C25.6484 76.4102 28.2812 76.5274 29.8437 75.0117C31.4648 73.4453 31.4765 70.8633 29.8945 69.2734L24.8086 64.1914C23.3945 62.7773 23.3125 60.4727 24.6953 59.0273C25.5273 58.1602 26.6758 57.793 27.7734 57.9219C28.5625 58.0156 29.3242 58.3633 29.9258 58.9688L33.5351 62.5781L33.543 62.582L40.6758 69.7109C43.625 72.6602 45.2031 76.6953 45.0625 80.8359H45.0703Z" fill="#FFB69F"/>
<path d="M84.6036 9.66365C83.236 9.21169 81.8235 8.81677 81.0306 5.40076C80.3001 8.54724 79.1302 9.11091 77.4575 9.66365C80.1857 10.5652 80.597 12.0578 81.0306 13.9265C81.7778 10.7051 83.0146 10.1886 84.6036 9.66365Z" fill="#F0C020"/>
<path d="M12.9859 31.0402C11.6184 30.5882 10.2059 30.1933 9.41289 26.7773C8.68242 29.9238 7.5125 30.4874 5.83984 31.0402C8.56797 31.9417 8.97929 33.4343 9.41289 35.3031C10.1605 32.0816 11.3969 31.5656 12.9859 31.0402Z" fill="#F0C020"/>
<path d="M93.6734 31.0402C92.3059 30.5882 90.8934 30.1933 90.1004 26.7773C89.3699 29.9238 88.2 30.4874 86.5273 31.0402C89.2555 31.9417 89.6668 33.4343 90.1004 35.3031C90.8481 32.0816 92.0844 31.5656 93.6734 31.0402Z" fill="#F0C020"/>
<path d="M49.9998 56.8203C46.2928 56.8203 42.66 55.8265 39.4951 53.9461C39.0314 53.6703 38.8787 53.0715 39.1541 52.6078C39.4291 52.1441 40.0283 51.991 40.4924 52.2668C43.3557 53.9679 46.6432 54.8672 49.9994 54.8672C60.2947 54.8672 68.5975 46.5668 68.5975 36.2691C68.5975 31.2933 66.665 26.6207 63.1568 23.1121C62.7752 22.7308 62.7752 22.1125 63.1568 21.7312C63.5381 21.3496 64.1568 21.3496 64.5377 21.7312C68.415 25.6086 70.5506 30.7719 70.5506 36.2691C70.551 47.6433 61.3768 56.8203 49.9998 56.8203ZM36.2018 51.5125C35.9506 51.2847 35.7037 51.05 35.4615 50.8074C35.0799 50.4262 35.0799 49.8078 35.4615 49.4265C35.8428 49.0449 36.4615 49.0449 36.8424 49.4265C37.0623 49.6461 37.2861 49.859 37.5135 50.0656C37.9131 50.4281 37.9432 51.0457 37.5811 51.4449C37.2186 51.8449 36.6006 51.8742 36.2018 51.5125Z" fill="white"/>
<path d="M71.1494 93.4875C70.61 93.4875 70.1729 93.0504 70.1729 92.5109V88.1027C70.1729 87.8437 70.2756 87.5953 70.4588 87.4121L75.074 82.7968C75.4553 82.4152 76.074 82.4152 76.4549 82.7968C76.8365 83.1781 76.8365 83.7965 76.4549 84.1777L72.1256 88.507V92.5105C72.126 93.05 71.6889 93.4875 71.1494 93.4875ZM77.8365 81.4156C77.4549 81.0343 77.4549 80.416 77.8365 80.0347L93.0326 64.8383L93.1709 46.8535C93.1752 46.3141 93.6119 45.898 94.1553 45.8848C94.6947 45.8891 95.1283 46.3297 95.124 46.8691L94.9826 64.8344C94.9826 65.3566 94.7807 65.8508 94.4143 66.2183L79.217 81.4156C78.8361 81.7968 78.2174 81.7968 77.8365 81.4156Z" fill="#FBE0E2"/>
<path d="M41.6127 93.4875C41.0756 93.4875 40.6388 93.0535 40.6361 92.5156C40.6361 92.5156 40.6283 90.9105 40.6213 88.8781C40.6193 88.339 41.0552 87.9004 41.5947 87.8984H41.5978C42.1357 87.8984 42.5724 88.3336 42.5744 88.8718C42.5814 90.9019 42.5892 92.5058 42.5892 92.5062C42.592 93.0457 42.1568 93.4847 41.6174 93.4875C41.6162 93.4875 41.6146 93.4875 41.6127 93.4875ZM41.5885 85.9406C41.0498 85.9406 40.6127 85.5043 40.6119 84.9652C40.6088 80.9015 40.6349 80.309 40.6349 80.3308C40.6349 77.5418 39.5068 74.8144 37.54 72.848L26.7892 62.1035C26.4076 61.7223 26.4076 61.1039 26.7888 60.7226C27.1701 60.341 27.7888 60.3406 28.1697 60.7223L38.9205 71.4668C41.251 73.7972 42.5877 77.0281 42.5877 80.3308C42.5877 80.3308 42.5611 80.848 42.5646 84.9625C42.5654 85.5019 42.1287 85.9394 41.5892 85.9402C41.5896 85.9406 41.5888 85.9406 41.5885 85.9406Z" fill="#FBE0E2"/>
<path d="M71.3151 53.6098C70.8851 53.284 70.8007 52.6715 71.1265 52.2418C71.3663 51.9254 71.6022 51.5993 71.8276 51.2723C72.1335 50.8282 72.7417 50.716 73.1858 51.0227C73.63 51.3289 73.7417 51.9371 73.4354 52.3809C73.1936 52.7317 72.9401 53.0817 72.6831 53.4215C72.3577 53.8512 71.7448 53.9352 71.3151 53.6098ZM74.1772 49.3387C73.694 49.0989 73.4968 48.5129 73.7362 48.0297C75.5323 44.4086 76.4815 40.3516 76.4815 36.2965C76.4815 21.507 64.5171 9.7879 49.9999 9.7879C42.9265 9.7879 36.2765 12.5426 31.2745 17.5442C30.8933 17.9258 30.2745 17.9258 29.8937 17.5442C29.512 17.1629 29.512 16.5445 29.8937 16.1633C35.264 10.7926 42.4046 7.83478 49.9999 7.83478C65.569 7.83478 78.4347 20.4043 78.4347 36.2965C78.4347 40.6512 77.4151 45.0086 75.4858 48.8977C75.2468 49.3801 74.6612 49.5785 74.1772 49.3387Z" fill="#FFCBC3"/>
<path d="M50 19.2148C50.5391 19.2148 50.9766 18.7773 50.9766 18.2383V16.8789C50.9766 16.3398 50.5391 15.9023 50 15.9023C49.4609 15.9023 49.0234 16.3398 49.0234 16.8789V18.2383C49.0234 18.7773 49.4609 19.2148 50 19.2148Z" fill="black"/>
<path d="M50.9766 55.6602V54.3008C50.9766 53.7617 50.5391 53.3242 50 53.3242C49.4609 53.3242 49.0234 53.7617 49.0234 54.3008V55.6602C49.0234 56.1992 49.4609 56.6367 50 56.6367C50.5391 56.6367 50.9766 56.1992 50.9766 55.6602Z" fill="black"/>
<path d="M68.0313 37.2461H69.3945C69.9297 37.2461 70.3672 36.8086 70.3672 36.2695C70.3672 35.7305 69.9297 35.293 69.3945 35.293H68.0313C67.4922 35.293 67.0547 35.7305 67.0547 36.2695C67.0547 36.8086 67.4922 37.2461 68.0313 37.2461Z" fill="black"/>
<path d="M31.9687 35.293H30.6094C30.0703 35.293 29.6328 35.7305 29.6328 36.2695C29.6328 36.8086 30.0703 37.2461 30.6094 37.2461H31.9687C32.5078 37.2461 32.9453 36.8086 32.9453 36.2695C32.9453 35.7305 32.5078 35.293 31.9687 35.293Z" fill="black"/>
<path d="M74.6758 36.2695C74.6758 22.668 63.6641 11.5938 50 11.5938C36.3723 11.5938 25.3242 22.632 25.3242 36.2695C25.3242 49.9301 36.3965 60.9453 50 60.9453C63.5808 60.9453 74.6758 49.9496 74.6758 36.2695ZM27.2773 36.2695C27.2773 23.7168 37.4387 13.5469 50 13.5469C62.559 13.5469 72.7226 23.716 72.7226 36.2695C72.7226 48.8227 62.5609 58.9922 50 58.9922C37.4469 58.9922 27.2773 48.8309 27.2773 36.2695Z" fill="black"/>
<path d="M54.0722 36.2696C54.0722 35.4957 53.8515 34.7742 53.475 34.1574L62.5816 25.0508C62.9644 24.6719 62.9644 24.0508 62.5816 23.668C62.2144 23.3008 61.5699 23.3008 61.2027 23.668L52.0898 32.7809C50.7871 31.9973 49.1855 32.0024 47.8875 32.7942L42.7457 27.6524C42.3746 27.2813 41.734 27.2813 41.3668 27.6524C40.9742 28.0363 40.9871 28.6594 41.3668 29.0313L46.5109 34.1789C46.1426 34.791 45.9269 35.5043 45.9269 36.2692C45.9269 38.5149 47.7539 40.3418 49.9996 40.3418C52.2453 40.3418 54.0722 38.5153 54.0722 36.2696ZM47.8801 36.2696C47.8801 35.1008 48.8308 34.1504 49.9996 34.1504C51.1707 34.1504 52.1191 35.1078 52.1191 36.2696C52.1191 37.4383 51.1683 38.3891 49.9996 38.3891C48.8308 38.3891 47.8801 37.4379 47.8801 36.2696Z" fill="black"/>
<path d="M56.9923 72.6679C57.4322 72.9683 58.0505 72.8558 58.3478 72.4101C58.6525 71.9648 58.5353 71.3593 58.0939 71.0547C57.6603 70.7578 57.0275 70.8789 56.7345 71.3086C56.4368 71.7589 56.538 72.3543 56.9923 72.6679Z" fill="black"/>
<path d="M93.5939 41.8633C90.8478 41.8633 88.6056 44.1016 88.5978 46.8477L88.4572 59.8906V59.9023C88.4572 60.5586 88.1994 61.1797 87.7306 61.6445L75.1994 74.1797C74.0396 75.3476 72.0072 75.4539 70.8361 74.3086C69.5962 73.109 69.6076 71.1586 70.797 69.9609L75.883 64.8828C77.683 63.0754 77.7505 60.1652 76.0119 58.3516C75.5072 57.8266 74.8865 57.4367 74.2115 57.1965C79.3255 51.2848 82.008 43.9102 82.008 36.2695C82.008 18.5922 67.6716 4.26172 50.0001 4.26172C33.6583 4.26172 19.9251 16.5957 18.1798 32.8008C18.1142 33.3496 18.5201 33.8234 19.0431 33.8789C19.5783 33.9375 20.0626 33.543 20.1212 33.0117C21.7658 17.7344 34.6095 6.21484 50.0001 6.21484C66.6017 6.21484 80.0548 19.6582 80.0548 36.2695C80.0548 44.1613 77.0732 51.4281 71.7349 57.0141C70.8459 57.1949 70.0201 57.6375 69.383 58.2812L65.8552 61.8047C60.288 65.2738 53.9076 66.6914 47.8947 66.25C47.3595 66.2187 46.8908 66.625 46.8517 67.1601C46.8173 67.7254 47.2501 68.1684 47.758 68.1992C52.3712 68.5129 57.029 67.8754 61.5103 66.1445L59.4181 68.2344C59.0392 68.6172 59.0392 69.2344 59.4181 69.6172C59.7853 69.9883 60.4298 69.9883 60.8009 69.6172C60.8009 69.6172 60.8009 69.6172 60.8009 69.6133C61.8837 68.5316 69.5333 60.8914 70.7658 59.6601C71.8236 58.5926 73.5548 58.6168 74.6017 59.7031C75.6373 60.791 75.5111 62.4969 74.5001 63.5L69.4142 68.582C67.408 70.6055 67.5064 73.8078 69.4767 75.7148C71.4357 77.6144 74.6658 77.4633 76.5822 75.5625L89.1134 63.0273C89.9455 62.1953 90.4064 61.0898 90.4103 59.9141L90.5509 46.8711V46.8594C90.5548 45.1836 91.9181 43.8203 93.5939 43.8164C95.2697 43.8203 96.6291 45.1836 96.6291 46.8594L96.4884 64.8437C96.4884 65.7656 96.1291 66.6289 95.4806 67.2773L73.9181 88.8437C73.7384 89.0273 73.633 89.2773 73.633 89.5351V94.7617C73.633 95.3008 74.0705 95.7383 74.6095 95.7383C75.1486 95.7383 75.5861 95.3008 75.5861 94.7617V89.9414L96.8634 68.6601C97.883 67.6406 98.4416 66.2891 98.4416 64.8516L98.5822 46.8672C98.5822 44.1133 96.3439 41.8711 93.5939 41.8633Z" fill="black"/>
<path d="M53.9531 94.7618C53.9531 95.3008 54.3906 95.7383 54.9297 95.7383C55.4687 95.7383 55.9062 95.3008 55.9062 94.7618C55.9062 91.6329 55.9062 83.4125 55.9062 80.3243C55.9062 78.7344 56.1719 77.1641 56.7031 75.6602C56.8891 75.1281 56.5965 74.5856 56.1055 74.4141C55.6094 74.2383 55.0352 74.5156 54.8633 75.0117C54.2578 76.7227 53.9531 78.5117 53.9531 80.3243V94.7618Z" fill="black"/>
<path d="M1.41797 46.8594L1.55859 64.8594C1.55859 66.2695 2.13281 67.6563 3.13672 68.6602L24.4141 89.9375V94.7617C24.4141 95.3008 24.8516 95.7383 25.3906 95.7383C25.9297 95.7383 26.3672 95.3008 26.3672 94.7617V89.5352C26.3672 89.2734 26.2656 89.0273 26.082 88.8438L4.51953 67.2773C3.87109 66.6289 3.51172 65.7656 3.51172 64.8516L3.37109 46.8516C3.37109 45.1797 4.73437 43.8203 6.40625 43.8164C8.08203 43.8203 9.44531 45.1836 9.44922 46.8594L9.58984 59.9141C9.59375 61.0898 10.0547 62.1914 10.8867 63.0273L13.3672 65.5078C13.7383 65.8789 14.3789 65.8789 14.75 65.5078C15.1289 65.1289 15.1289 64.5078 14.75 64.1289L12.2695 61.6445C11.8008 61.1758 11.543 60.5586 11.543 59.9023L11.4023 46.8477C11.3945 44.1016 9.15625 41.8633 6.40625 41.8633C3.65625 41.8672 1.41797 44.1094 1.41797 46.8594Z" fill="black"/>
<path d="M16.1328 66.8906C15.75 67.2695 15.75 67.8906 16.1289 68.2695C16.5309 68.6715 17.15 68.6391 17.5117 68.2695C17.8906 67.8906 17.8906 67.2695 17.5117 66.8906C17.1445 66.5195 16.5 66.5234 16.1328 66.8906Z" fill="black"/>
<path d="M18.9728 35.8281H18.9571C18.413 35.8363 17.9884 36.2836 17.9962 36.8203C18.0036 37.3305 18.4146 37.7812 18.9884 37.7812C19.5274 37.7734 19.9571 37.3281 19.9493 36.7891C19.9415 36.2578 19.504 35.8281 18.9728 35.8281Z" fill="black"/>
<path d="M19.1446 39.7305C18.6114 39.8031 18.2364 40.3004 18.3164 40.832C19.1914 46.9664 21.8391 52.6547 25.7832 57.1985C25.111 57.4391 24.493 57.8281 23.9922 58.3516C22.2332 60.1778 22.3321 63.0973 24.1172 64.8828L29.2032 69.9649C30.3852 71.1469 30.411 73.1024 29.1641 74.3086C27.9977 75.4496 25.9661 75.3524 24.8008 74.1797L20.2735 69.6524C19.9024 69.2852 19.2618 69.2852 18.8946 69.6524C18.5246 70.0145 18.4946 70.6305 18.8907 71.0352L23.418 75.5625C25.3184 77.4551 28.5579 77.6207 30.5235 75.7149C32.5032 73.7989 32.5844 70.5922 30.586 68.586L25.5 63.5C24.495 62.5024 24.3551 60.7938 25.4024 59.7031C26.4543 58.6031 28.1809 58.6024 29.2344 59.6563C29.2344 59.6563 39.2012 69.6192 39.9844 70.4024C42.5977 73.0117 44.0938 76.6289 44.0938 80.3243V94.7618C44.0938 95.3008 44.5313 95.7383 45.0704 95.7383C45.6094 95.7383 46.0469 95.3008 46.0469 94.7618C46.0469 93.2985 46.0469 82.4485 46.0469 80.3243C46.0469 76.0617 44.3454 71.9977 41.3672 69.0196L38.4821 66.136C38.9403 66.3129 39.4024 66.4832 39.8711 66.6406C40.3665 66.8121 40.9297 66.5469 41.1094 66.0235C41.2793 65.5133 41.0051 64.9571 40.4922 64.7891C38.2297 64.0285 36.0903 63.0227 34.1325 61.7965L30.6172 58.2774C29.9735 57.6301 29.1442 57.1899 28.2532 57.0113C23.7028 52.2067 21.0883 46.4524 20.25 40.5586C20.1758 40.0352 19.6719 39.6523 19.1446 39.7305Z" fill="black"/>
<path d="M44.1444 65.7539C43.621 65.6523 43.1014 66.0039 42.996 66.5234C42.896 67.073 43.2495 67.5703 43.7655 67.6719C44.328 67.7785 44.8147 67.4062 44.9139 66.9023C45.0202 66.3699 44.669 65.857 44.1444 65.7539Z" fill="black"/>
<path d="M80.0799 5.17968C79.4288 7.98397 78.5229 8.28319 77.1518 8.73593C76.2616 9.03007 76.2596 10.2957 77.1518 10.5906C79.4295 11.3433 79.6881 12.4586 80.0799 14.1469C80.3139 15.1539 81.7487 15.1539 81.9827 14.1469C82.6331 11.343 83.5393 11.0437 84.9108 10.5906C85.801 10.2965 85.803 9.03046 84.9108 8.73593C83.6284 8.31561 82.6456 8.03475 81.9823 5.17968C81.7491 4.17499 80.3124 4.17772 80.0799 5.17968ZM81.0346 8.20311C81.4221 8.87538 81.8569 9.33671 82.3065 9.67147C81.8397 10.0121 81.4178 10.4598 81.0483 11.0883C80.7362 10.5848 80.3131 10.1078 79.7151 9.68475C80.2065 9.33436 80.6495 8.86913 81.0346 8.20311Z" fill="black"/>
<path d="M5.53267 31.9676C7.8104 32.7203 8.06899 33.8356 8.46079 35.5239C8.69477 36.5309 10.1295 36.5309 10.3635 35.5239C11.0139 32.72 11.9202 32.4207 13.2916 31.9676C14.1819 31.6735 14.1838 30.4075 13.2916 30.1129C12.0092 29.6926 11.0264 29.4118 10.3631 26.5567C10.1299 25.5516 8.69321 25.5543 8.46079 26.5567C7.80962 29.361 6.90376 29.6602 5.53267 30.1129C4.64243 30.4071 4.64048 31.6727 5.53267 31.9676ZM9.41547 29.5797C9.80297 30.252 10.2377 30.7133 10.6873 31.0481C10.2206 31.3887 9.79868 31.8364 9.42915 32.4649C9.11704 31.9614 8.69399 31.4844 8.09594 31.0614C8.58774 30.711 9.03032 30.2457 9.41547 29.5797Z" fill="black"/>
<path d="M93.9801 30.1128C92.6977 29.6925 91.7149 29.4116 91.0516 26.5566C90.8184 25.5515 89.3817 25.5542 89.1493 26.5566C88.4981 29.3609 87.5922 29.6601 86.2211 30.1128C85.3309 30.4069 85.329 31.6726 86.2211 31.9675C88.4989 32.7202 88.7575 33.8355 89.1493 35.5237C89.3832 36.5308 90.818 36.5308 91.052 35.5237C91.7024 32.7198 92.6086 32.4206 93.9801 31.9675C94.87 31.6734 94.8719 30.4073 93.9801 30.1128ZM90.1176 32.4651C89.8055 31.9616 89.3825 31.4847 88.7844 31.0616C89.2758 30.7112 89.7188 30.246 90.1036 29.58C90.4911 30.2523 90.9258 30.7136 91.3754 31.0484C90.909 31.3886 90.4871 31.8366 90.1176 32.4651Z" fill="black"/>
</svg>
