<svg width="1920" height="340" viewBox="0 0 1920 340" fill="none" xmlns="http://www.w3.org/2000/svg">
<path d="M1861.76 178H1858.31V181.881H1861.76V178Z" fill="#2D5F6F"/>
<path d="M1861.76 186.193H1858.31V190.075H1861.76V186.193Z" fill="#2D5F6F"/>
<path d="M1866.07 182.312H1862.19V185.762H1866.07V182.312Z" fill="#2D5F6F"/>
<path d="M1857.88 182.312H1854V185.762H1857.88V182.312Z" fill="#2D5F6F"/>
<path d="M1804 219H1800V223H1804V219Z" fill="#F1E9DA"/>
<path d="M1724.5 153C1723.81 153 1723.13 152.795 1722.56 152.41C1721.98 152.026 1721.53 151.479 1721.27 150.839C1721 150.2 1720.93 149.496 1721.07 148.817C1721.2 148.138 1721.54 147.515 1722.03 147.025C1722.51 146.536 1723.14 146.202 1723.82 146.067C1724.5 145.932 1725.2 146.002 1725.84 146.266C1726.48 146.531 1727.03 146.98 1727.41 147.556C1727.79 148.131 1728 148.808 1728 149.5C1728 150.428 1727.63 151.317 1726.97 151.973C1726.32 152.629 1725.43 152.998 1724.5 153V153ZM1724.5 147.75C1724.15 147.75 1723.82 147.853 1723.53 148.045C1723.24 148.237 1723.02 148.511 1722.88 148.83C1722.75 149.15 1722.72 149.502 1722.78 149.841C1722.85 150.181 1723.02 150.493 1723.26 150.737C1723.51 150.982 1723.82 151.149 1724.16 151.216C1724.5 151.284 1724.85 151.249 1725.17 151.117C1725.49 150.984 1725.76 150.76 1725.96 150.472C1726.15 150.184 1726.25 149.846 1726.25 149.5C1726.25 149.036 1726.07 148.591 1725.74 148.263C1725.41 147.934 1724.96 147.75 1724.5 147.75V147.75Z" fill="#FFF05F"/>
<path d="M1771.5 328C1770.81 328 1770.13 327.795 1769.56 327.41C1768.98 327.026 1768.53 326.479 1768.27 325.839C1768 325.2 1767.93 324.496 1768.07 323.817C1768.2 323.138 1768.54 322.515 1769.03 322.025C1769.51 321.536 1770.14 321.202 1770.82 321.067C1771.5 320.932 1772.2 321.002 1772.84 321.266C1773.48 321.531 1774.03 321.98 1774.41 322.556C1774.79 323.131 1775 323.808 1775 324.5C1775 325.428 1774.63 326.317 1773.97 326.973C1773.32 327.629 1772.43 327.998 1771.5 328V328ZM1771.5 322.75C1771.15 322.75 1770.82 322.853 1770.53 323.045C1770.24 323.237 1770.02 323.511 1769.88 323.83C1769.75 324.15 1769.72 324.502 1769.78 324.841C1769.85 325.181 1770.02 325.493 1770.26 325.737C1770.51 325.982 1770.82 326.149 1771.16 326.216C1771.5 326.284 1771.85 326.249 1772.17 326.117C1772.49 325.984 1772.76 325.76 1772.96 325.472C1773.15 325.184 1773.25 324.846 1773.25 324.5C1773.25 324.036 1773.07 323.591 1772.74 323.263C1772.41 322.934 1771.96 322.75 1771.5 322.75V322.75Z" fill="#7BFFD8"/>
<path d="M1844.5 120C1843.81 120 1843.13 119.795 1842.56 119.41C1841.98 119.026 1841.53 118.479 1841.27 117.839C1841 117.2 1840.93 116.496 1841.07 115.817C1841.2 115.138 1841.54 114.515 1842.03 114.025C1842.51 113.536 1843.14 113.202 1843.82 113.067C1844.5 112.932 1845.2 113.002 1845.84 113.266C1846.48 113.531 1847.03 113.98 1847.41 114.556C1847.79 115.131 1848 115.808 1848 116.5C1848 117.428 1847.63 118.317 1846.97 118.973C1846.32 119.629 1845.43 119.998 1844.5 120V120ZM1844.5 114.75C1844.15 114.75 1843.82 114.853 1843.53 115.045C1843.24 115.237 1843.02 115.511 1842.88 115.83C1842.75 116.15 1842.72 116.502 1842.78 116.841C1842.85 117.181 1843.02 117.493 1843.26 117.737C1843.51 117.982 1843.82 118.149 1844.16 118.216C1844.5 118.284 1844.85 118.249 1845.17 118.117C1845.49 117.984 1845.76 117.76 1845.96 117.472C1846.15 117.184 1846.25 116.846 1846.25 116.5C1846.25 116.036 1846.07 115.591 1845.74 115.263C1845.41 114.934 1844.96 114.75 1844.5 114.75V114.75Z" fill="#F1E9DA"/>
<path d="M1670.56 292C1669.13 291.674 1667.77 291.058 1666.58 290.189L1669.54 286.011C1670.18 286.475 1670.9 286.807 1671.66 286.986L1670.56 292ZM1675.98 291.857L1674.61 286.907C1675.36 286.695 1676.07 286.331 1676.69 285.836L1679.87 289.854C1678.72 290.78 1677.4 291.462 1675.98 291.857V291.857ZM1663.08 285.986C1662.44 284.645 1662.07 283.188 1662 281.7L1667.07 281.439C1667.11 282.237 1667.31 283.018 1667.66 283.736L1663.08 285.986ZM1683.14 285.461L1678.46 283.461C1678.76 282.724 1678.92 281.932 1678.92 281.132L1684 281.097V281.132C1684 282.619 1683.71 284.091 1683.14 285.461V285.461ZM1667.64 278.543L1663.06 276.318C1663.69 274.978 1664.58 273.781 1665.68 272.797L1669.05 276.643C1668.46 277.174 1667.98 277.821 1667.64 278.543V278.543ZM1678.19 278.247C1677.81 277.542 1677.29 276.923 1676.67 276.429L1679.84 272.397C1681 273.317 1681.96 274.462 1682.67 275.764L1678.19 278.247ZM1671.66 275.286L1670.51 270.286C1671.32 270.096 1672.15 270 1672.98 270C1673.61 269.997 1674.24 270.051 1674.86 270.161L1674 275.229C1673.67 275.171 1673.33 275.143 1672.99 275.143V275.143C1672.54 275.138 1672.09 275.186 1671.66 275.286Z" fill="#2D5F6F"/>
<path d="M270 333H266V337H270V333Z" fill="#F1E9DA"/>
<path d="M116.5 153C115.808 153 115.131 152.795 114.556 152.41C113.98 152.026 113.531 151.479 113.266 150.839C113.002 150.2 112.932 149.496 113.067 148.817C113.202 148.138 113.536 147.515 114.025 147.025C114.515 146.536 115.138 146.202 115.817 146.067C116.496 145.932 117.2 146.002 117.839 146.266C118.479 146.531 119.026 146.98 119.41 147.556C119.795 148.131 120 148.808 120 149.5C119.998 150.428 119.629 151.317 118.973 151.973C118.317 152.629 117.428 152.998 116.5 153V153ZM116.5 147.75C116.154 147.75 115.816 147.853 115.528 148.045C115.24 148.237 115.016 148.511 114.883 148.83C114.751 149.15 114.716 149.502 114.784 149.841C114.851 150.181 115.018 150.493 115.263 150.737C115.507 150.982 115.819 151.149 116.159 151.216C116.498 151.284 116.85 151.249 117.17 151.117C117.489 150.984 117.763 150.76 117.955 150.472C118.147 150.184 118.25 149.846 118.25 149.5C118.25 149.036 118.066 148.591 117.737 148.263C117.409 147.934 116.964 147.75 116.5 147.75V147.75Z" fill="#FFF05F"/>
<path d="M133.5 240C132.808 240 132.131 239.795 131.556 239.41C130.98 239.026 130.531 238.479 130.266 237.839C130.002 237.2 129.932 236.496 130.067 235.817C130.202 235.138 130.536 234.515 131.025 234.025C131.515 233.536 132.138 233.202 132.817 233.067C133.496 232.932 134.2 233.002 134.839 233.266C135.479 233.531 136.026 233.98 136.41 234.556C136.795 235.131 137 235.808 137 236.5C136.998 237.428 136.629 238.317 135.973 238.973C135.317 239.629 134.428 239.998 133.5 240V240ZM133.5 234.75C133.154 234.75 132.816 234.853 132.528 235.045C132.24 235.237 132.016 235.511 131.883 235.83C131.751 236.15 131.716 236.502 131.784 236.841C131.851 237.181 132.018 237.493 132.263 237.737C132.507 237.982 132.819 238.149 133.159 238.216C133.498 238.284 133.85 238.249 134.17 238.117C134.489 237.984 134.763 237.76 134.955 237.472C135.147 237.184 135.25 236.846 135.25 236.5C135.25 236.036 135.066 235.591 134.737 235.263C134.409 234.934 133.964 234.75 133.5 234.75V234.75Z" fill="#2D5F6F"/>
<path d="M236.5 120C235.808 120 235.131 119.795 234.556 119.41C233.98 119.026 233.531 118.479 233.266 117.839C233.002 117.2 232.932 116.496 233.067 115.817C233.202 115.138 233.536 114.515 234.025 114.025C234.515 113.536 235.138 113.202 235.817 113.067C236.496 112.932 237.2 113.002 237.839 113.266C238.479 113.531 239.026 113.98 239.41 114.556C239.795 115.131 240 115.808 240 116.5C239.998 117.428 239.629 118.317 238.973 118.973C238.317 119.629 237.428 119.998 236.5 120V120ZM236.5 114.75C236.154 114.75 235.816 114.853 235.528 115.045C235.24 115.237 235.016 115.511 234.883 115.83C234.751 116.15 234.716 116.502 234.784 116.841C234.851 117.181 235.018 117.493 235.263 117.737C235.507 117.982 235.819 118.149 236.159 118.216C236.498 118.284 236.85 118.249 237.17 118.117C237.489 117.984 237.763 117.76 237.955 117.472C238.147 117.184 238.25 116.846 238.25 116.5C238.25 116.036 238.066 115.591 237.737 115.263C237.409 114.934 236.964 114.75 236.5 114.75V114.75Z" fill="#F1E9DA"/>
<path d="M62.5587 292C61.1253 291.674 59.7718 291.058 58.5792 290.189L61.5427 286.011C62.1769 286.475 62.8966 286.807 63.6594 286.986L62.5587 292ZM67.9811 291.857L66.6052 286.907C67.3642 286.695 68.0732 286.331 68.6902 285.836L71.8653 289.854C70.7176 290.78 69.3962 291.462 67.9811 291.857V291.857ZM55.0831 285.986C54.4417 284.645 54.0733 283.188 54 281.7L59.0731 281.439C59.1126 282.237 59.3106 283.018 59.6552 283.736L55.0831 285.986ZM75.1392 285.461L70.4577 283.461C70.7648 282.724 70.922 281.932 70.9198 281.132L76 281.097V281.132C76.0026 282.619 75.7098 284.091 75.1392 285.461V285.461ZM59.6446 278.543L55.0584 276.318C55.6906 274.978 56.582 273.781 57.6796 272.797L61.0523 276.643C60.4621 277.174 59.9835 277.821 59.6446 278.543V278.543ZM70.1895 278.247C69.8104 277.542 69.293 276.923 68.669 276.429L71.8441 272.397C72.9974 273.317 73.9571 274.462 74.6664 275.764L70.1895 278.247ZM63.6559 275.286L62.5128 270.286C63.3227 270.096 64.1512 270 64.9824 270C65.6126 269.997 66.2419 270.051 66.8627 270.161L66.0019 275.229C65.6674 275.171 65.3287 275.143 64.9894 275.143V275.143C64.5409 275.138 64.0934 275.186 63.6559 275.286Z" fill="#2D5F6F"/>
</svg>
