<svg width="1920" height="922" viewBox="0 0 1920 922" fill="none" xmlns="http://www.w3.org/2000/svg">
<g clip-path="url(#clip0_139_1579)">
<path d="M151.5 474C148.468 474 146 471.757 146 469C146 466.243 148.468 464 151.5 464C154.532 464 157 466.243 157 469C157 471.757 154.532 474 151.5 474ZM151.5 465.914C149.484 465.914 147.849 467.297 147.849 469C147.849 470.703 149.488 472.086 151.5 472.086C153.512 472.086 155.151 470.703 155.151 469C155.151 467.297 153.516 465.916 151.5 465.916V465.914Z" fill="#4E1768"/>
<path d="M155.952 470C155.699 470 155.457 469.9 155.279 469.722C155.1 469.544 155 469.303 155 469.051V449.48C155 449.275 155.067 449.076 155.19 448.912C155.314 448.748 155.487 448.629 155.684 448.571L167.78 445.038C167.922 444.997 168.072 444.989 168.218 445.015C168.363 445.041 168.501 445.101 168.619 445.19C168.737 445.278 168.834 445.393 168.9 445.525C168.966 445.657 169 445.802 169 445.95V451.511C169 451.716 168.933 451.915 168.81 452.08C168.687 452.244 168.513 452.364 168.316 452.422L156.896 455.751V469.043C156.897 469.168 156.873 469.291 156.826 469.407C156.779 469.522 156.71 469.628 156.623 469.716C156.535 469.805 156.431 469.876 156.315 469.925C156.2 469.973 156.077 469.999 155.952 470ZM156.904 450.192V453.774L167.096 450.809V447.215L156.904 450.192Z" fill="#4E1768"/>
<path d="M139 344H135V348H139V344Z" fill="#4E1768"/>
<path d="M648 804H644V808H648V804Z" fill="#4E1768"/>
<path d="M136.5 243C135.808 243 135.131 242.795 134.556 242.41C133.98 242.026 133.531 241.479 133.266 240.839C133.002 240.2 132.932 239.496 133.067 238.817C133.202 238.138 133.536 237.515 134.025 237.025C134.515 236.536 135.138 236.202 135.817 236.067C136.496 235.932 137.2 236.002 137.839 236.266C138.479 236.531 139.026 236.98 139.41 237.556C139.795 238.131 140 238.808 140 239.5C139.998 240.428 139.629 241.317 138.973 241.973C138.317 242.629 137.428 242.998 136.5 243V243ZM136.5 237.75C136.154 237.75 135.816 237.853 135.528 238.045C135.24 238.237 135.016 238.511 134.883 238.83C134.751 239.15 134.716 239.502 134.784 239.841C134.851 240.181 135.018 240.493 135.263 240.737C135.507 240.982 135.819 241.149 136.159 241.216C136.498 241.284 136.85 241.249 137.17 241.117C137.489 240.984 137.763 240.76 137.955 240.472C138.147 240.184 138.25 239.846 138.25 239.5C138.25 239.036 138.066 238.591 137.737 238.263C137.409 237.934 136.964 237.75 136.5 237.75V237.75Z" fill="#4E1768"/>
<path d="M759.5 187C758.808 187 758.131 186.795 757.556 186.41C756.98 186.026 756.531 185.479 756.266 184.839C756.002 184.2 755.932 183.496 756.067 182.817C756.202 182.138 756.536 181.515 757.025 181.025C757.515 180.536 758.138 180.202 758.817 180.067C759.496 179.932 760.2 180.002 760.839 180.266C761.479 180.531 762.026 180.98 762.41 181.556C762.795 182.131 763 182.808 763 183.5C762.998 184.428 762.629 185.317 761.973 185.973C761.317 186.629 760.428 186.998 759.5 187V187ZM759.5 181.75C759.154 181.75 758.816 181.853 758.528 182.045C758.24 182.237 758.016 182.511 757.883 182.83C757.751 183.15 757.716 183.502 757.784 183.841C757.851 184.181 758.018 184.493 758.263 184.737C758.507 184.982 758.819 185.149 759.159 185.216C759.498 185.284 759.85 185.249 760.17 185.117C760.489 184.984 760.763 184.76 760.955 184.472C761.147 184.184 761.25 183.846 761.25 183.5C761.25 183.036 761.066 182.591 760.737 182.263C760.409 181.934 759.964 181.75 759.5 181.75V181.75Z" fill="#7BFFD8"/>
<path d="M821.5 94C820.808 94 820.131 93.7947 819.555 93.4101C818.98 93.0255 818.531 92.4789 818.266 91.8394C818.002 91.1998 817.932 90.4961 818.067 89.8172C818.202 89.1382 818.536 88.5146 819.025 88.0251C819.515 87.5356 820.138 87.2023 820.817 87.0673C821.496 86.9322 822.2 87.0015 822.839 87.2664C823.479 87.5313 824.026 87.9799 824.41 88.5555C824.795 89.1311 825 89.8078 825 90.5C824.998 91.4277 824.629 92.3168 823.973 92.9727C823.317 93.6287 822.428 93.9981 821.5 94V94ZM821.5 88.75C821.154 88.75 820.816 88.8526 820.528 89.0449C820.24 89.2372 820.016 89.5105 819.883 89.8303C819.751 90.1501 819.716 90.5019 819.784 90.8414C819.851 91.1809 820.018 91.4927 820.263 91.7374C820.507 91.9822 820.819 92.1488 821.159 92.2164C821.498 92.2839 821.85 92.2492 822.17 92.1168C822.489 91.9843 822.763 91.76 822.955 91.4722C823.147 91.1845 823.25 90.8461 823.25 90.5C823.25 90.0359 823.066 89.5907 822.737 89.2626C822.409 88.9344 821.964 88.75 821.5 88.75V88.75Z" fill="#4E1768"/>
<path d="M10.3358 454L9.88727 447.971C11.1289 447.877 12.3618 447.691 13.5757 447.413L14.9176 453.306C13.4096 453.651 11.8781 453.883 10.3358 454V454ZM1.12906 453.32C-0.379576 452.976 -1.8607 452.52 -3.30209 451.957L-1.10266 446.326C0.0560933 446.776 1.24711 447.137 2.46018 447.406L1.12906 453.32ZM23.5179 449.917L20.4969 444.686C21.5733 444.06 22.6022 443.355 23.5754 442.578L27.3391 447.298C26.1326 448.265 24.8553 449.141 23.5179 449.917V449.917ZM-11.3032 447.323C-12.5107 446.358 -13.6452 445.305 -14.6974 444.171L-10.2843 440.052C-9.43516 440.967 -8.52016 441.819 -7.54664 442.599L-11.3032 447.323ZM33.6216 440.509L28.6451 437.102C29.3462 436.071 29.9698 434.989 30.5109 433.865L35.9431 436.487C35.2693 437.884 34.4922 439.229 33.6181 440.509H33.6216ZM-19.9143 436.53C-20.5874 435.136 -21.1558 433.693 -21.615 432.213L-15.8564 430.415C-15.4884 431.607 -15.0315 432.77 -14.4894 433.893L-19.9143 436.53ZM38.6627 427.63L32.6959 426.745C32.8798 425.509 32.9722 424.261 32.9722 423.011V422.928H39V423.011C38.9996 424.557 38.8857 426.101 38.6591 427.63H38.6627ZM-23 423.047V423.004C-23.0005 421.471 -22.8889 419.94 -22.6663 418.424L-16.7031 419.305C-16.8827 420.53 -16.9726 421.766 -16.9722 423.004L-23 423.047ZM31.8492 415.553C31.4779 414.362 31.0185 413.2 30.475 412.078L35.8964 409.437C36.5731 410.831 37.144 412.274 37.6043 413.754L31.8492 415.553ZM-14.5324 412.179L-19.9646 409.563C-19.2971 408.165 -18.5247 406.819 -17.6539 405.538L-12.6703 408.937C-13.3701 409.97 -13.9926 411.053 -14.5324 412.179V412.179ZM26.2627 405.926C25.4119 405.012 24.4945 404.163 23.5179 403.386L27.2674 398.652C28.4772 399.617 29.6141 400.67 30.6687 401.803L26.2627 405.926ZM-7.60405 403.455L-11.375 398.738C-10.1684 397.77 -8.89241 396.892 -7.5574 396.112L-4.52916 401.339C-5.60454 401.968 -6.63228 402.675 -7.60405 403.455V403.455ZM17.0704 399.666C15.9032 399.217 14.7038 398.856 13.4824 398.587L14.8064 392.691C16.3168 393.031 17.7994 393.485 19.2411 394.051L17.0704 399.666ZM2.38842 398.587L1.03577 392.698C2.54372 392.352 4.07519 392.119 5.61759 392L6.07326 398.026C4.83269 398.126 3.60109 398.317 2.38842 398.598V398.587Z" fill="#4E1768"/>
<path d="M1.3792 737.801L1.10503 734.125C1.86407 734.068 2.61779 733.955 3.35986 733.785L4.18019 737.378C3.2583 737.588 2.32206 737.73 1.3792 737.801V737.801ZM-4.24908 737.387C-5.17134 737.177 -6.07679 736.899 -6.95794 736.555L-5.61338 733.123C-4.90501 733.397 -4.17691 733.617 -3.43533 733.781L-4.24908 737.387ZM9.43778 735.312L7.59094 732.122C8.24897 731.741 8.87799 731.311 9.47289 730.837L11.7738 733.715C11.0362 734.305 10.2553 734.839 9.43778 735.312V735.312ZM-11.8492 733.73C-12.5874 733.142 -13.281 732.5 -13.9242 731.809L-11.2263 729.297C-10.7072 729.855 -10.1479 730.374 -9.55274 730.85L-11.8492 733.73ZM15.6144 729.576L12.5722 727.499C13.0007 726.87 13.3819 726.21 13.7127 725.525L17.0336 727.124C16.6217 727.975 16.1466 728.795 15.6122 729.576H15.6144ZM-17.1134 727.15C-17.5249 726.3 -17.8724 725.42 -18.1531 724.518L-14.6327 723.421C-14.4078 724.148 -14.1284 724.857 -13.797 725.542L-17.1134 727.15ZM18.6962 721.724L15.0485 721.184C15.1609 720.43 15.2174 719.669 15.2174 718.907V718.857H18.9023V718.907C18.9021 719.85 18.8325 720.791 18.694 721.724H18.6962ZM-18.9998 718.929V718.903C-19 717.968 -18.9319 717.035 -18.7958 716.111L-15.1503 716.648C-15.2601 717.395 -15.3151 718.148 -15.3148 718.903L-18.9998 718.929ZM14.5309 714.36C14.3039 713.634 14.0231 712.926 13.6908 712.241L17.005 710.631C17.4187 711.481 17.7677 712.361 18.0491 713.264L14.5309 714.36ZM-13.8233 712.303L-17.1441 710.708C-16.7361 709.856 -16.2639 709.035 -15.7316 708.254L-12.6849 710.327C-13.1128 710.956 -13.4933 711.617 -13.8233 712.303V712.303ZM11.1157 708.491C10.5956 707.934 10.0348 707.416 9.43778 706.942L11.7299 704.056C12.4695 704.644 13.1645 705.286 13.8092 705.977L11.1157 708.491ZM-9.58784 706.984L-11.8931 704.108C-11.1555 703.518 -10.3754 702.983 -9.55932 702.507L-7.70809 705.694C-8.36549 706.077 -8.99377 706.508 -9.58784 706.984V706.984ZM5.49624 704.674C4.78271 704.4 4.04949 704.18 3.30283 704.016L4.1122 700.421C5.03559 700.628 5.94188 700.906 6.82325 701.25L5.49624 704.674ZM-3.4792 704.016L-4.30611 700.426C-3.38426 700.215 -2.44804 700.072 -1.50513 700L-1.22657 703.674C-1.98496 703.735 -2.73786 703.852 -3.4792 704.023V704.016Z" fill="#4E1768"/>
<path d="M77.5587 647C76.1253 646.674 74.7718 646.058 73.5792 645.189L76.5427 641.011C77.1769 641.475 77.8966 641.807 78.6594 641.986L77.5587 647ZM82.9811 646.857L81.6052 641.907C82.3642 641.695 83.0732 641.331 83.6902 640.836L86.8653 644.854C85.7176 645.78 84.3963 646.462 82.9811 646.857V646.857ZM70.0831 640.986C69.4417 639.645 69.0733 638.188 69 636.7L74.0731 636.439C74.1126 637.237 74.3106 638.018 74.6552 638.736L70.0831 640.986ZM90.1392 640.461L85.4577 638.461C85.7648 637.724 85.922 636.932 85.9198 636.132L91 636.097V636.132C91.0026 637.619 90.7098 639.091 90.1392 640.461V640.461ZM74.6446 633.543L70.0584 631.318C70.6906 629.978 71.582 628.781 72.6796 627.797L76.0523 631.643C75.4621 632.174 74.9835 632.821 74.6446 633.543V633.543ZM85.1895 633.247C84.8104 632.542 84.293 631.923 83.669 631.429L86.8441 627.397C87.9974 628.317 88.9571 629.462 89.6665 630.764L85.1895 633.247ZM78.6559 630.286L77.5128 625.286C78.3227 625.096 79.1512 625 79.9824 625C80.6126 624.997 81.2419 625.051 81.8627 625.161L81.0019 630.229C80.6674 630.172 80.3287 630.143 79.9894 630.143V630.143C79.541 630.138 79.0934 630.186 78.6559 630.286Z" fill="#4E1768"/>
<path d="M233.559 897C232.125 896.674 230.772 896.058 229.579 895.189L232.543 891.011C233.177 891.475 233.897 891.807 234.659 891.986L233.559 897ZM238.981 896.857L237.605 891.907C238.364 891.695 239.073 891.331 239.69 890.836L242.865 894.854C241.718 895.78 240.396 896.462 238.981 896.857V896.857ZM226.083 890.986C225.442 889.645 225.073 888.188 225 886.7L230.073 886.439C230.113 887.237 230.311 888.018 230.655 888.736L226.083 890.986ZM246.139 890.461L241.458 888.461C241.765 887.724 241.922 886.932 241.92 886.132L247 886.097V886.132C247.003 887.619 246.71 889.091 246.139 890.461V890.461ZM230.645 883.543L226.058 881.318C226.691 879.978 227.582 878.781 228.68 877.797L232.052 881.643C231.462 882.174 230.983 882.821 230.645 883.543V883.543ZM241.19 883.247C240.81 882.542 240.293 881.923 239.669 881.429L242.844 877.397C243.997 878.317 244.957 879.462 245.666 880.764L241.19 883.247ZM234.656 880.286L233.513 875.286C234.323 875.096 235.151 875 235.982 875C236.613 874.997 237.242 875.051 237.863 875.161L237.002 880.229C236.667 880.171 236.329 880.143 235.989 880.143V880.143C235.541 880.138 235.093 880.186 234.656 880.286Z" fill="#7BFFD8"/>
<path d="M622.559 148C621.125 147.674 619.772 147.058 618.579 146.189L621.543 142.011C622.177 142.475 622.897 142.807 623.659 142.986L622.559 148ZM627.981 147.857L626.605 142.907C627.364 142.695 628.073 142.331 628.69 141.836L631.865 145.854C630.718 146.78 629.396 147.462 627.981 147.857V147.857ZM615.083 141.986C614.442 140.645 614.073 139.188 614 137.7L619.073 137.439C619.113 138.237 619.311 139.018 619.655 139.736L615.083 141.986ZM635.139 141.461L630.458 139.461C630.765 138.724 630.922 137.932 630.92 137.132L636 137.096V137.132C636.003 138.619 635.71 140.091 635.139 141.461V141.461ZM619.645 134.543L615.058 132.318C615.691 130.978 616.582 129.781 617.68 128.797L621.052 132.643C620.462 133.174 619.983 133.821 619.645 134.543V134.543ZM630.19 134.246C629.81 133.542 629.293 132.923 628.669 132.429L631.844 128.397C632.997 129.317 633.957 130.462 634.666 131.764L630.19 134.246ZM623.656 131.286L622.513 126.286C623.323 126.096 624.151 126 624.982 126C625.613 125.997 626.242 126.051 626.863 126.161L626.002 131.229C625.667 131.171 625.329 131.143 624.989 131.143V131.143C624.541 131.138 624.093 131.186 623.656 131.286Z" fill="#4E1768"/>
<path d="M79.5 329C77.4233 329 75.3932 328.355 73.6665 327.146C71.9398 325.937 70.594 324.22 69.7993 322.21C69.0046 320.2 68.7966 317.988 69.2018 315.854C69.6069 313.72 70.6069 311.76 72.0754 310.222C73.5438 308.683 75.4148 307.636 77.4516 307.211C79.4884 306.787 81.5995 307.005 83.5182 307.837C85.4368 308.67 87.0767 310.08 88.2304 311.889C89.3842 313.698 90 315.824 90 318C89.9972 320.916 88.89 323.713 86.9215 325.775C84.953 327.837 82.2839 328.997 79.5 329V329ZM79.5 311.041C78.1862 311.041 76.9018 311.449 75.8094 312.214C74.717 312.978 73.8656 314.065 73.3628 315.337C72.86 316.608 72.7285 318.008 72.9848 319.358C73.2411 320.708 73.8738 321.948 74.8028 322.921C75.7318 323.894 76.9155 324.557 78.2041 324.825C79.4926 325.094 80.8283 324.956 82.0421 324.429C83.2559 323.903 84.2934 323.011 85.0233 321.866C85.7533 320.722 86.1429 319.376 86.1429 318C86.141 316.155 85.4405 314.386 84.1951 313.081C82.9497 311.777 81.2612 311.043 79.5 311.041V311.041Z" fill="#4E1768"/>
<path d="M255.5 137C254.214 137 252.958 136.589 251.889 135.82C250.82 135.051 249.987 133.958 249.495 132.679C249.003 131.4 248.874 129.992 249.125 128.634C249.376 127.277 249.995 126.029 250.904 125.05C251.813 124.071 252.971 123.405 254.232 123.135C255.493 122.864 256.8 123.003 257.987 123.533C259.175 124.063 260.19 124.96 260.905 126.111C261.619 127.262 262 128.616 262 130C261.998 131.856 261.313 133.635 260.094 134.948C258.876 136.26 257.223 136.998 255.5 137V137ZM255.5 125.571C254.687 125.571 253.892 125.831 253.215 126.318C252.539 126.804 252.012 127.496 251.701 128.305C251.39 129.114 251.308 130.005 251.467 130.864C251.625 131.723 252.017 132.512 252.592 133.131C253.167 133.751 253.9 134.173 254.698 134.343C255.495 134.514 256.322 134.427 257.074 134.091C257.825 133.756 258.467 133.189 258.919 132.46C259.371 131.732 259.612 130.876 259.612 130C259.611 128.826 259.177 127.7 258.407 126.87C257.636 126.04 256.59 125.573 255.5 125.571V125.571Z" fill="#4E1768"/>
<path d="M105.706 82H99.2104V90.0088H105.706V82Z" fill="#4E1768"/>
<path d="M105.706 98.9081H99.2104V106.917H105.706V98.9081Z" fill="#4E1768"/>
<path d="M114.917 91.2105H106.908V97.7063H114.917V91.2105Z" fill="#4E1768"/>
<path d="M98.0088 91.2105H90V97.7063H98.0088V91.2105Z" fill="#4E1768"/>
<path d="M1863.73 283H1860.28V286.881H1863.73V283Z" fill="#77458F"/>
<path d="M1863.73 291.193H1860.28V295.075H1863.73V291.193Z" fill="#77458F"/>
<path d="M1868.05 287.313H1864.16V290.762H1868.05V287.313Z" fill="#77458F"/>
<path d="M1859.85 287.313H1855.97V290.762H1859.85V287.313Z" fill="#77458F"/>
<path d="M1805.94 324H1801.94V328H1805.94V324Z" fill="#F1E9DA"/>
<path d="M1726.4 258C1725.71 258 1725.03 257.795 1724.45 257.41C1723.88 257.026 1723.43 256.479 1723.16 255.839C1722.9 255.2 1722.83 254.496 1722.96 253.817C1723.1 253.138 1723.43 252.515 1723.92 252.025C1724.41 251.536 1725.04 251.202 1725.72 251.067C1726.4 250.932 1727.1 251.002 1727.74 251.266C1728.38 251.531 1728.93 251.98 1729.31 252.556C1729.7 253.131 1729.9 253.808 1729.9 254.5C1729.9 255.428 1729.53 256.317 1728.87 256.973C1728.22 257.629 1727.33 257.998 1726.4 258V258ZM1726.4 252.75C1726.05 252.75 1725.71 252.853 1725.43 253.045C1725.14 253.237 1724.91 253.511 1724.78 253.83C1724.65 254.15 1724.61 254.502 1724.68 254.841C1724.75 255.181 1724.92 255.493 1725.16 255.737C1725.41 255.982 1725.72 256.149 1726.06 256.216C1726.4 256.284 1726.75 256.249 1727.07 256.117C1727.39 255.984 1727.66 255.76 1727.86 255.472C1728.05 255.184 1728.15 254.846 1728.15 254.5C1728.15 254.036 1727.97 253.591 1727.64 253.263C1727.31 252.934 1726.86 252.75 1726.4 252.75V252.75Z" fill="#FFF05F"/>
<path d="M1773.42 433C1772.73 433 1772.05 432.795 1771.48 432.41C1770.9 432.026 1770.45 431.479 1770.19 430.839C1769.92 430.2 1769.85 429.496 1769.99 428.817C1770.12 428.138 1770.46 427.515 1770.95 427.025C1771.44 426.536 1772.06 426.202 1772.74 426.067C1773.42 425.932 1774.12 426.002 1774.76 426.266C1775.4 426.531 1775.95 426.98 1776.34 427.556C1776.72 428.131 1776.93 428.808 1776.93 429.5C1776.92 430.428 1776.55 431.317 1775.9 431.973C1775.24 432.629 1774.35 432.998 1773.42 433V433ZM1773.42 427.75C1773.08 427.75 1772.74 427.853 1772.45 428.045C1772.16 428.237 1771.94 428.511 1771.81 428.83C1771.67 429.15 1771.64 429.502 1771.71 429.841C1771.77 430.181 1771.94 430.493 1772.19 430.737C1772.43 430.982 1772.74 431.149 1773.08 431.216C1773.42 431.284 1773.77 431.249 1774.09 431.117C1774.41 430.984 1774.69 430.76 1774.88 430.472C1775.07 430.184 1775.17 429.846 1775.17 429.5C1775.17 429.036 1774.99 428.591 1774.66 428.263C1774.33 427.934 1773.89 427.75 1773.42 427.75V427.75Z" fill="#7BFFD8"/>
<path d="M1846.46 225C1845.77 225 1845.09 224.795 1844.52 224.41C1843.94 224.026 1843.49 223.479 1843.23 222.839C1842.96 222.2 1842.89 221.496 1843.03 220.817C1843.16 220.138 1843.5 219.515 1843.99 219.025C1844.48 218.536 1845.1 218.202 1845.78 218.067C1846.46 217.932 1847.16 218.002 1847.8 218.266C1848.44 218.531 1848.99 218.98 1849.37 219.556C1849.76 220.131 1849.96 220.808 1849.96 221.5C1849.96 222.428 1849.59 223.317 1848.94 223.973C1848.28 224.629 1847.39 224.998 1846.46 225V225ZM1846.46 219.75C1846.12 219.75 1845.78 219.853 1845.49 220.045C1845.2 220.237 1844.98 220.511 1844.84 220.83C1844.71 221.15 1844.68 221.502 1844.74 221.841C1844.81 222.181 1844.98 222.493 1845.22 222.737C1845.47 222.982 1845.78 223.149 1846.12 223.216C1846.46 223.284 1846.81 223.249 1847.13 223.117C1847.45 222.984 1847.73 222.76 1847.92 222.472C1848.11 222.184 1848.21 221.846 1848.21 221.5C1848.21 221.036 1848.03 220.591 1847.7 220.263C1847.37 219.934 1846.93 219.75 1846.46 219.75V219.75Z" fill="#F1E9DA"/>
<path d="M1672.43 397C1671 396.674 1669.64 396.058 1668.45 395.189L1671.41 391.011C1672.05 391.475 1672.77 391.807 1673.53 391.986L1672.43 397ZM1677.86 396.857L1676.48 391.907C1677.24 391.695 1677.95 391.331 1678.56 390.836L1681.74 394.854C1680.59 395.78 1679.27 396.462 1677.86 396.857V396.857ZM1664.95 390.986C1664.31 389.645 1663.94 388.188 1663.87 386.7L1668.94 386.439C1668.98 387.237 1669.18 388.018 1669.52 388.736L1664.95 390.986ZM1685.02 390.461L1680.33 388.461C1680.64 387.724 1680.8 386.932 1680.8 386.132L1685.88 386.097V386.132C1685.88 387.619 1685.59 389.091 1685.02 390.461V390.461ZM1669.51 383.543L1664.93 381.318C1665.56 379.978 1666.45 378.781 1667.55 377.797L1670.92 381.643C1670.33 382.174 1669.85 382.821 1669.51 383.543V383.543ZM1680.06 383.247C1679.69 382.542 1679.17 381.923 1678.54 381.429L1681.72 377.397C1682.87 378.317 1683.83 379.462 1684.54 380.764L1680.06 383.247ZM1673.53 380.286L1672.38 375.286C1673.19 375.096 1674.02 375 1674.85 375C1675.49 374.997 1676.12 375.051 1676.74 375.161L1675.87 380.229C1675.54 380.171 1675.2 380.143 1674.86 380.143V380.143C1674.41 380.138 1673.97 380.186 1673.53 380.286Z" fill="#78458F"/>
<path d="M1071.67 221.834L1075.12 219.802L1073.08 216.356L1069.64 218.388L1071.67 221.834Z" fill="#F1E9DA"/>
<path d="M1295.44 298.906C1296.04 298.554 1296.73 298.387 1297.42 298.426C1298.11 298.465 1298.77 298.708 1299.33 299.124C1299.88 299.541 1300.3 300.112 1300.53 300.765C1300.75 301.418 1300.78 302.125 1300.61 302.795C1300.44 303.465 1300.07 304.069 1299.55 304.531C1299.04 304.992 1298.39 305.29 1297.71 305.386C1297.02 305.483 1296.32 305.374 1295.7 305.074C1295.08 304.773 1294.56 304.295 1294.2 303.698C1293.73 302.898 1293.6 301.945 1293.83 301.047C1294.06 300.148 1294.64 299.379 1295.44 298.906V298.906ZM1298.11 303.428C1298.41 303.252 1298.65 302.992 1298.8 302.68C1298.95 302.368 1299 302.019 1298.95 301.676C1298.91 301.333 1298.76 301.013 1298.53 300.755C1298.29 300.496 1297.99 300.313 1297.66 300.226C1297.32 300.14 1296.97 300.154 1296.64 300.269C1296.32 300.383 1296.03 300.592 1295.82 300.868C1295.61 301.145 1295.49 301.477 1295.47 301.822C1295.45 302.168 1295.54 302.511 1295.71 302.809C1295.95 303.209 1296.33 303.499 1296.78 303.615C1297.23 303.731 1297.71 303.664 1298.11 303.428V303.428Z" fill="#FFF05F"/>
<path d="M1236.57 232.602C1237.17 232.25 1237.86 232.084 1238.55 232.122C1239.24 232.161 1239.9 232.404 1240.46 232.821C1241.01 233.237 1241.43 233.808 1241.66 234.461C1241.89 235.115 1241.92 235.821 1241.74 236.492C1241.57 237.162 1241.2 237.766 1240.69 238.227C1240.17 238.688 1239.53 238.986 1238.84 239.083C1238.16 239.179 1237.46 239.071 1236.83 238.77C1236.21 238.47 1235.69 237.991 1235.34 237.395C1234.87 236.595 1234.73 235.641 1234.96 234.743C1235.2 233.845 1235.77 233.075 1236.57 232.602V232.602ZM1239.24 237.124C1239.54 236.948 1239.78 236.688 1239.93 236.376C1240.08 236.065 1240.13 235.715 1240.09 235.372C1240.04 235.03 1239.89 234.709 1239.66 234.451C1239.43 234.193 1239.13 234.009 1238.79 233.922C1238.45 233.836 1238.1 233.851 1237.77 233.965C1237.45 234.079 1237.16 234.288 1236.95 234.564C1236.75 234.841 1236.62 235.173 1236.6 235.519C1236.58 235.864 1236.67 236.208 1236.84 236.506C1237.08 236.906 1237.47 237.195 1237.91 237.311C1238.36 237.427 1238.84 237.36 1239.24 237.124V237.124Z" fill="#5A2274"/>
<path d="M1208.8 388.288C1209.39 387.937 1210.08 387.77 1210.77 387.809C1211.46 387.847 1212.13 388.09 1212.68 388.507C1213.23 388.923 1213.65 389.494 1213.88 390.147C1214.11 390.801 1214.14 391.507 1213.96 392.178C1213.79 392.848 1213.42 393.452 1212.91 393.913C1212.39 394.374 1211.75 394.672 1211.06 394.769C1210.38 394.865 1209.68 394.757 1209.05 394.456C1208.43 394.156 1207.91 393.677 1207.56 393.081C1207.09 392.281 1206.95 391.327 1207.19 390.429C1207.42 389.531 1208 388.761 1208.8 388.288V388.288ZM1211.46 392.81C1211.76 392.635 1212 392.374 1212.15 392.062C1212.3 391.751 1212.36 391.401 1212.31 391.059C1212.26 390.716 1212.11 390.395 1211.88 390.137C1211.65 389.879 1211.35 389.695 1211.01 389.609C1210.68 389.522 1210.32 389.537 1210 389.651C1209.67 389.765 1209.38 389.974 1209.18 390.251C1208.97 390.527 1208.85 390.859 1208.83 391.205C1208.81 391.55 1208.89 391.894 1209.07 392.192C1209.3 392.592 1209.69 392.882 1210.14 392.998C1210.59 393.113 1211.06 393.046 1211.46 392.81V392.81Z" fill="#F1E9DA"/>
<path d="M1271.28 151.774C1272.68 151.327 1274.16 151.17 1275.63 151.312L1275.2 156.417C1274.42 156.339 1273.63 156.419 1272.88 156.653L1271.28 151.774ZM1266.68 154.652L1270.38 158.217C1269.84 158.785 1269.41 159.459 1269.13 160.199L1264.35 158.351C1264.87 156.969 1265.66 155.711 1266.68 154.652V154.652ZM1280.78 153.157C1282.02 153.986 1283.08 155.055 1283.89 156.299L1279.65 159.1C1279.22 158.434 1278.65 157.861 1277.99 157.418L1280.78 153.157ZM1263.76 163.798L1268.82 163.142C1268.93 163.933 1269.19 164.695 1269.6 165.383L1265.24 167.994L1265.22 167.963C1264.47 166.684 1263.97 165.267 1263.76 163.798V163.798ZM1280.63 161.886L1285.72 161.472C1285.85 162.947 1285.69 164.432 1285.25 165.837L1280.39 164.237C1280.63 163.48 1280.71 162.68 1280.63 161.886V161.886ZM1271.7 167.497C1272.38 167.912 1273.14 168.182 1273.93 168.291L1273.24 173.377C1271.78 173.17 1270.37 172.671 1269.1 171.91L1271.7 167.497ZM1278.83 166.729L1282.36 170.455C1281.76 171.03 1281.09 171.533 1280.38 171.955C1279.83 172.278 1279.26 172.552 1278.67 172.772L1276.84 167.97C1277.16 167.849 1277.46 167.702 1277.76 167.529V167.529C1278.14 167.305 1278.51 167.037 1278.83 166.729Z" fill="#5A2274"/>
</g>
<defs>
<clipPath id="clip0_139_1579">
<rect width="1920" height="922" fill="white"/>
</clipPath>
</defs>
</svg>
