<svg width="48" height="48" viewBox="0 0 48 48" fill="none" xmlns="http://www.w3.org/2000/svg">
<rect width="48" height="48" rx="24" fill="#FFEDF1"/>
<g clip-path="url(#clip0_80_1681)">
<path d="M31.1131 24.6766H29.5664C29.7241 25.1082 29.8102 25.574 29.8102 26.0595V31.9053C29.8102 32.1077 29.775 32.302 29.7109 32.4827H32.2679C33.2231 32.4827 34.0002 31.7056 34.0002 30.7504V27.5637C34.0002 25.9717 32.7051 24.6766 31.1131 24.6766Z" fill="#FF3465"/>
<path d="M18.19 26.0596C18.19 25.5741 18.2762 25.1083 18.4338 24.6766H16.8871C15.2952 24.6766 14 25.9718 14 27.5637V30.7505C14 31.7057 14.7771 32.4828 15.7323 32.4828H18.2894C18.2253 32.302 18.19 32.1077 18.19 31.9053V26.0596Z" fill="#FF3465"/>
<path d="M25.7679 23.1725H22.2318C20.6399 23.1725 19.3447 24.4676 19.3447 26.0596V31.9053C19.3447 32.2242 19.6032 32.4827 19.9221 32.4827H28.0776C28.3965 32.4827 28.655 32.2242 28.655 31.9053V26.0596C28.655 24.4676 27.3598 23.1725 25.7679 23.1725Z" fill="#FF3465"/>
<path d="M24.0004 15.5172C22.0859 15.5172 20.5283 17.0748 20.5283 18.9893C20.5283 20.288 21.2451 21.4222 22.3036 22.0176C22.8057 22.3001 23.3845 22.4615 24.0004 22.4615C24.6164 22.4615 25.1952 22.3001 25.6973 22.0176C26.7558 21.4222 27.4726 20.2879 27.4726 18.9893C27.4726 17.0748 25.915 15.5172 24.0004 15.5172Z" fill="#FF3465"/>
<path d="M17.9033 18.7535C16.4715 18.7535 15.3066 19.9183 15.3066 21.3502C15.3066 22.782 16.4715 23.9469 17.9033 23.9469C18.2665 23.9469 18.6124 23.8716 18.9266 23.7364C19.4698 23.5025 19.9177 23.0885 20.1948 22.57C20.3893 22.206 20.5 21.7908 20.5 21.3502C20.5 19.9184 19.3352 18.7535 17.9033 18.7535Z" fill="#FF3465"/>
<path d="M30.0967 18.7535C28.6648 18.7535 27.5 19.9183 27.5 21.3502C27.5 21.7909 27.6107 22.2061 27.8052 22.57C28.0823 23.0886 28.5302 23.5026 29.0734 23.7364C29.3876 23.8716 29.7335 23.9469 30.0967 23.9469C31.5285 23.9469 32.6934 22.782 32.6934 21.3502C32.6934 19.9183 31.5285 18.7535 30.0967 18.7535Z" fill="#FF3465"/>
</g>
<defs>
<clipPath id="clip0_80_1681">
<rect width="20" height="20" fill="white" transform="translate(14 14)"/>
</clipPath>
</defs>
</svg>
