<svg width="38" height="38" viewBox="0 0 38 38" fill="none" xmlns="http://www.w3.org/2000/svg">
<path d="M20.4766 37.8669L20.2024 34.1908C20.9615 34.1339 21.7152 34.0202 22.4573 33.8508L23.2776 37.4436C22.3557 37.6538 21.4195 37.7953 20.4766 37.8669ZM14.8483 37.4524C13.9261 37.2426 13.0206 36.9647 12.1395 36.621L13.484 33.1884C14.1924 33.4624 14.9205 33.6823 15.6621 33.8464L14.8483 37.4524ZM28.5352 35.3774L26.6883 32.1882C27.3464 31.8065 27.9754 31.3769 28.5703 30.9028L30.8712 33.7806C30.1336 34.3706 29.3527 34.9044 28.5352 35.3774ZM7.24817 33.7959C6.51 33.2076 5.81644 32.5654 5.17321 31.8745L7.8711 29.3631C8.39017 29.921 8.94953 30.44 9.54467 30.916L7.24817 33.7959ZM34.7118 29.6416L31.6696 27.5645C32.0981 26.9356 32.4794 26.2758 32.8101 25.5904L36.131 27.1894C35.7191 28.0411 35.244 28.8609 34.7096 29.6416H34.7118ZM1.98399 27.2157C1.57256 26.3654 1.22504 25.4856 0.944316 24.5836L4.46473 23.4869C4.68965 24.2139 4.96901 24.9229 5.30042 25.6079L1.98399 27.2157ZM37.7936 21.7892L34.1459 21.2496C34.2584 20.4959 34.3148 19.7349 34.3148 18.9729V18.9224H37.9998V18.9729C37.9995 19.9155 37.9299 20.8568 37.7914 21.7892H37.7936ZM0.0976572 18.9948V18.9685C0.0973674 18.034 0.165544 17.1008 0.301643 16.1763L3.94709 16.7137C3.83731 17.4603 3.78232 18.2139 3.78259 18.9685L0.0976572 18.9948ZM33.6283 14.426C33.4013 13.6998 33.1205 12.9915 32.7882 12.3071L36.1025 10.6972C36.5161 11.547 36.8652 12.4269 37.1465 13.3293L33.6283 14.426ZM5.2741 12.3685L1.95328 10.7739C2.36132 9.92121 2.83353 9.10071 3.36583 8.3195L6.41248 10.3923C5.98463 11.0219 5.60412 11.6825 5.2741 12.3685ZM30.2132 8.55639C29.693 7.99928 29.1322 7.48167 28.5352 7.00785L30.8273 4.12131C31.5669 4.7096 32.2619 5.35183 32.9067 6.04274L30.2132 8.55639ZM9.50957 7.04952L7.2043 4.17397C7.94194 3.58376 8.72197 3.04858 9.53809 2.57277L11.3893 5.7598C10.7319 6.14296 10.1036 6.57404 9.50957 7.04952ZM24.5936 4.73986C23.8801 4.46561 23.1469 4.24565 22.4002 4.08183L23.2096 0.486848C24.133 0.694117 25.0393 0.971278 25.9207 1.31595L24.5936 4.73986ZM15.6182 4.08183L14.7913 0.491226C15.7131 0.280257 16.6494 0.138025 17.5923 0.0657043L17.8708 3.73966C17.1124 3.80067 16.3595 3.91724 15.6182 4.08842V4.08183Z" fill="#FF3465"/>
</svg>
