<svg width="116" height="116" viewBox="0 0 116 116" fill="none" xmlns="http://www.w3.org/2000/svg">
<path d="M98 58C98 80.0914 80.0914 98 58 98C35.9086 98 18 80.0914 18 58C18 35.9086 35.9086 18 58 18C80.0914 18 98 35.9086 98 58Z" fill="#FF3465"/>
<path fill-rule="evenodd" clip-rule="evenodd" d="M116 58C116 90.0325 90.0325 116 58 116C25.9675 116 0 90.0325 0 58C0 25.9675 25.9675 0 58 0C90.0325 0 116 25.9675 116 58ZM58 98C80.0914 98 98 80.0914 98 58C98 35.9086 80.0914 18 58 18C35.9086 18 18 35.9086 18 58C18 80.0914 35.9086 98 58 98Z" fill="#FF3465" fill-opacity="0.2"/>
<path d="M70 56.7679C71.3333 57.5377 71.3333 59.4622 70 60.232L54.25 69.3253C52.9167 70.0951 51.25 69.1329 51.25 67.5933L51.25 49.4067C51.25 47.8671 52.9167 46.9049 54.25 47.6747L70 56.7679Z" fill="white"/>
</svg>
