<svg width="175" height="43" viewBox="0 0 175 43" fill="none" xmlns="http://www.w3.org/2000/svg">
<path d="M2.17945 29.7993V4.72335H7.39545V14.1513H7.55463C7.78318 13.6452 8.11377 13.131 8.5464 12.6086C8.98719 12.078 9.55858 11.6372 10.2606 11.2862C10.9707 10.927 11.8523 10.7475 12.9053 10.7475C14.2767 10.7475 15.5419 11.1066 16.701 11.8249C17.8601 12.5351 18.7866 13.6085 19.4804 15.0451C20.1742 16.4736 20.5212 18.2653 20.5212 20.4203C20.5212 22.5181 20.1824 24.2895 19.5049 25.7343C18.8355 27.1709 17.9213 28.2606 16.7622 29.0034C15.6113 29.7381 14.3215 30.1054 12.8931 30.1054C11.8809 30.1054 11.0197 29.9381 10.3096 29.6034C9.60756 29.2687 9.03208 28.8484 8.58313 28.3423C8.13418 27.828 7.79135 27.3097 7.55463 26.7873H7.32199V29.7993H2.17945ZM7.28526 20.3958C7.28526 21.5141 7.44035 22.4896 7.75053 23.3222C8.06072 24.1548 8.50967 24.8037 9.09739 25.269C9.6851 25.7261 10.3993 25.9547 11.2401 25.9547C12.089 25.9547 12.8074 25.722 13.3951 25.2567C13.9828 24.7833 14.4277 24.1303 14.7297 23.2977C15.0399 22.4569 15.195 21.4896 15.195 20.3958C15.195 19.3102 15.0439 18.3551 14.7419 17.5307C14.4399 16.7063 13.995 16.0614 13.4073 15.5961C12.8196 15.1309 12.0972 14.8982 11.2401 14.8982C10.3912 14.8982 9.67286 15.1227 9.08514 15.5716C8.50559 16.0206 8.06072 16.6573 7.75053 17.4817C7.44035 18.3062 7.28526 19.2775 7.28526 20.3958ZM32.5724 30.1666C30.6379 30.1666 28.9727 29.7748 27.5768 28.9912C26.1892 28.1994 25.1198 27.0811 24.3689 25.6363C23.6179 24.1833 23.2424 22.4651 23.2424 20.4815C23.2424 18.547 23.6179 16.8491 24.3689 15.388C25.1198 13.9268 26.1769 12.7881 27.5401 11.9719C28.9114 11.1556 30.5195 10.7475 32.3643 10.7475C33.605 10.7475 34.7601 10.9474 35.8294 11.3474C36.9069 11.7392 37.8456 12.331 38.6455 13.1228C39.4536 13.9146 40.0822 14.9105 40.5311 16.1104C40.9801 17.3021 41.2045 18.698 41.2045 20.2979V21.7304H25.3239V18.498H36.2947C36.2947 17.747 36.1314 17.0818 35.8049 16.5022C35.4784 15.9226 35.0253 15.4696 34.4458 15.1431C33.8744 14.8084 33.2091 14.6411 32.45 14.6411C31.6582 14.6411 30.9562 14.8248 30.344 15.1921C29.74 15.5512 29.2665 16.0369 28.9237 16.6491C28.5809 17.2532 28.4054 17.9266 28.3972 18.6694V21.7427C28.3972 22.6732 28.5686 23.4773 28.9114 24.1548C29.2624 24.8323 29.7563 25.3547 30.393 25.722C31.0297 26.0893 31.7847 26.273 32.6581 26.273C33.2377 26.273 33.7683 26.1914 34.2499 26.0281C34.7315 25.8649 35.1437 25.62 35.4865 25.2935C35.8294 24.967 36.0906 24.567 36.2702 24.0936L41.0943 24.4119C40.8495 25.571 40.3475 26.5832 39.5883 27.4484C38.8373 28.3055 37.866 28.9749 36.6742 29.4565C35.4906 29.9299 34.1234 30.1666 32.5724 30.1666ZM85.0997 30.1666C83.1652 30.1666 81.5 29.7748 80.1041 28.9912C78.7165 28.1994 77.6471 27.0811 76.8962 25.6363C76.1452 24.1833 75.7697 22.4651 75.7697 20.4815C75.7697 18.547 76.1452 16.8491 76.8962 15.388C77.6471 13.9268 78.7042 12.7881 80.0674 11.9719C81.4387 11.1556 83.0468 10.7475 84.8916 10.7475C86.1323 10.7475 87.2873 10.9474 88.3567 11.3474C89.4342 11.7392 90.3729 12.331 91.1728 13.1228C91.9809 13.9146 92.6095 14.9105 93.0584 16.1104C93.5074 17.3021 93.7318 18.698 93.7318 20.2979V21.7304H77.8512V18.498H88.8219C88.8219 17.747 88.6587 17.0818 88.3322 16.5022C88.0057 15.9226 87.5526 15.4696 86.9731 15.1431C86.4017 14.8084 85.7364 14.6411 84.9773 14.6411C84.1855 14.6411 83.4835 14.8248 82.8713 15.1921C82.2673 15.5512 81.7938 16.0369 81.451 16.6491C81.1081 17.2532 80.9326 17.9266 80.9245 18.6694V21.7427C80.9245 22.6732 81.0959 23.4773 81.4387 24.1548C81.7897 24.8323 82.2836 25.3547 82.9203 25.722C83.557 26.0893 84.312 26.273 85.1854 26.273C85.765 26.273 86.2956 26.1914 86.7772 26.0281C87.2588 25.8649 87.671 25.62 88.0138 25.2935C88.3567 24.967 88.6179 24.567 88.7975 24.0936L93.6216 24.4119C93.3768 25.571 92.8748 26.5832 92.1156 27.4484C91.3646 28.3055 90.3933 28.9749 89.2015 29.4565C88.0179 29.9299 86.6507 30.1666 85.0997 30.1666ZM129.647 30.1666C127.712 30.1666 126.047 29.7748 124.651 28.9912C123.264 28.1994 122.194 27.0811 121.443 25.6363C120.692 24.1833 120.317 22.4651 120.317 20.4815C120.317 18.547 120.692 16.8491 121.443 15.388C122.194 13.9268 123.251 12.7881 124.615 11.9719C125.986 11.1556 127.594 10.7475 129.439 10.7475C130.68 10.7475 131.835 10.9474 132.904 11.3474C133.981 11.7392 134.92 12.331 135.72 13.1228C136.528 13.9146 137.157 14.9105 137.606 16.1104C138.055 17.3021 138.279 18.698 138.279 20.2979V21.7304H122.398V18.498H133.369C133.369 17.747 133.206 17.0818 132.879 16.5022C132.553 15.9226 132.1 15.4696 131.52 15.1431C130.949 14.8084 130.284 14.6411 129.524 14.6411C128.733 14.6411 128.031 14.8248 127.418 15.1921C126.814 15.5512 126.341 16.0369 125.998 16.6491C125.655 17.2532 125.48 17.9266 125.472 18.6694V21.7427C125.472 22.6732 125.643 23.4773 125.986 24.1548C126.337 24.8323 126.831 25.3547 127.467 25.722C128.104 26.0893 128.859 26.273 129.733 26.273C130.312 26.273 130.843 26.1914 131.324 26.0281C131.806 25.8649 132.218 25.62 132.561 25.2935C132.904 24.967 133.165 24.567 133.345 24.0936L138.169 24.4119C137.924 25.571 137.422 26.5832 136.663 27.4484C135.912 28.3055 134.94 28.9749 133.749 29.4565C132.565 29.9299 131.198 30.1666 129.647 30.1666ZM146.899 18.9265V29.7993H141.683V10.9923H146.654V14.3105H146.874C147.291 13.2167 147.989 12.3514 148.968 11.7147C149.948 11.0699 151.135 10.7475 152.531 10.7475C153.837 10.7475 154.976 11.0332 155.947 11.6045C156.919 12.1759 157.674 12.9922 158.212 14.0534C158.751 15.1064 159.021 16.3634 159.021 17.8246V29.7993H153.805V18.7551C153.813 17.6042 153.519 16.7063 152.923 16.0614C152.327 15.4084 151.507 15.0819 150.462 15.0819C149.76 15.0819 149.14 15.2329 148.601 15.5349C148.07 15.8369 147.654 16.2777 147.352 16.8573C147.058 17.4287 146.907 18.1184 146.899 18.9265ZM173.135 10.9923V14.9105H161.809V10.9923H173.135ZM164.38 6.4865H169.596V24.0201C169.596 24.5017 169.67 24.8772 169.817 25.1465C169.964 25.4078 170.168 25.5914 170.429 25.6975C170.698 25.8036 171.009 25.8567 171.36 25.8567C171.604 25.8567 171.849 25.8363 172.094 25.7955C172.339 25.7465 172.527 25.7098 172.657 25.6853L173.478 29.5667C173.217 29.6483 172.849 29.7422 172.376 29.8483C171.902 29.9626 171.327 30.032 170.649 30.0564C169.392 30.1054 168.29 29.9381 167.344 29.5544C166.405 29.1708 165.674 28.5749 165.152 27.7668C164.629 26.9587 164.372 25.9383 164.38 24.7058V6.4865Z" fill="white"/>
<path d="M111.436 11.2298H116.958L111.669 26.3585L109.404 18.2523L111.436 11.2298Z" fill="white"/>
<path d="M103.945 13.2321L103.364 11.2298H97.9307L104.506 30.0367H108.887L103.945 13.2321Z" fill="white"/>
<path d="M66.8838 29.2902C64.7429 29.2902 63.0013 27.5484 63.0013 25.4077C63.0013 24.753 62.4705 24.2222 61.8159 24.2222C61.1612 24.2222 60.6304 24.753 60.6304 25.4077C60.6304 27.5485 58.8886 29.2902 56.7479 29.2902C56.0933 29.2902 55.5625 29.8209 55.5625 30.4756C55.5625 31.1303 56.0933 31.661 56.7479 31.661C58.8888 31.661 60.6304 33.4028 60.6304 35.5435C60.6304 36.1982 61.1612 36.7289 61.8159 36.7289C62.4705 36.7289 63.0013 36.1982 63.0013 35.5435C63.0013 33.4026 64.7431 31.661 66.8838 31.661C67.5385 31.661 68.0692 31.1303 68.0692 30.4756C68.0692 29.8209 67.5385 29.2902 66.8838 29.2902ZM61.8157 31.8839C61.424 31.3432 60.9481 30.8671 60.4073 30.4756C60.9481 30.0839 61.424 29.608 61.8157 29.0673C62.2074 29.608 62.6833 30.0841 63.2241 30.4756C62.6833 30.8673 62.2074 31.3432 61.8157 31.8839Z" fill="#FF3465"/>
<path d="M59.0674 13.6568C56.9265 13.6568 55.1849 11.915 55.1849 9.77426C55.1849 9.11959 54.6541 8.58884 53.9995 8.58884C53.3448 8.58884 52.814 9.11959 52.814 9.77426C52.814 11.9151 51.0722 13.6568 48.9315 13.6568C48.2768 13.6568 47.7461 14.1875 47.7461 14.8422C47.7461 15.4969 48.2768 16.0276 48.9315 16.0276C51.0724 16.0276 52.814 17.7694 52.814 19.9101C52.814 20.5648 53.3448 21.0956 53.9995 21.0956C54.6541 21.0956 55.1849 20.5648 55.1849 19.9101C55.1849 17.7693 56.9267 16.0276 59.0674 16.0276C59.7221 16.0276 60.2528 15.4969 60.2528 14.8422C60.2528 14.1875 59.7221 13.6568 59.0674 13.6568ZM53.9993 16.2505C53.6076 15.7098 53.1317 15.2337 52.5909 14.8422C53.1317 14.4505 53.6076 13.9746 53.9993 13.4339C54.391 13.9746 54.8669 14.4507 55.4077 14.8422C54.8669 15.2339 54.391 15.7098 53.9993 16.2505Z" fill="#FF3465"/>
<path d="M71.1056 4.98108H70.1137V3.98914C70.1137 3.50759 69.7233 3.11719 69.2417 3.11719C68.7602 3.11719 68.3698 3.50759 68.3698 3.98914V4.98108H67.3778C66.8963 4.98108 66.5059 5.37148 66.5059 5.85303C66.5059 6.33458 66.8963 6.72499 67.3778 6.72499H68.3698V7.71692C68.3698 8.19847 68.7602 8.58888 69.2417 8.58888C69.7233 8.58888 70.1137 8.19847 70.1137 7.71692V6.72499H71.1056C71.5871 6.72499 71.9775 6.33458 71.9775 5.85303C71.9775 5.37148 71.5871 4.98108 71.1056 4.98108Z" fill="#FF3465"/>
<path d="M49.2189 38.5929H48.2269V37.6009C48.2269 37.1194 47.8365 36.729 47.355 36.729C46.8734 36.729 46.483 37.1194 46.483 37.6009V38.5929H45.4911C45.0095 38.5929 44.6191 38.9833 44.6191 39.4648C44.6191 39.9464 45.0095 40.3368 45.4911 40.3368H46.483V41.3287C46.483 41.8103 46.8734 42.2007 47.355 42.2007C47.8365 42.2007 48.2269 41.8103 48.2269 41.3287V40.3368H49.2189C49.7004 40.3368 50.0908 39.9464 50.0908 39.4648C50.0908 38.9833 49.7004 38.5929 49.2189 38.5929Z" fill="#FF3465"/>
</svg>
