<svg width="1920" height="526" viewBox="0 0 1920 526" fill="none" xmlns="http://www.w3.org/2000/svg">
<g clip-path="url(#clip0_123_1522)">
<path d="M131.841 297H127.841V301H131.841V297Z" fill="#FF3465"/>
<path d="M228.5 106C227.808 106 227.131 105.795 226.556 105.41C225.98 105.026 225.531 104.479 225.266 103.839C225.002 103.2 224.932 102.496 225.067 101.817C225.202 101.138 225.536 100.515 226.025 100.025C226.515 99.5356 227.138 99.2023 227.817 99.0673C228.496 98.9322 229.2 99.0015 229.839 99.2664C230.479 99.5313 231.026 99.9799 231.41 100.556C231.795 101.131 232 101.808 232 102.5C231.998 103.428 231.629 104.317 230.973 104.973C230.317 105.629 229.428 105.998 228.5 106V106ZM228.5 100.75C228.154 100.75 227.816 100.853 227.528 101.045C227.24 101.237 227.016 101.511 226.883 101.83C226.751 102.15 226.716 102.502 226.784 102.841C226.851 103.181 227.018 103.493 227.263 103.737C227.507 103.982 227.819 104.149 228.159 104.216C228.498 104.284 228.85 104.249 229.17 104.117C229.489 103.984 229.763 103.76 229.955 103.472C230.147 103.184 230.25 102.846 230.25 102.5C230.25 102.036 230.066 101.591 229.737 101.263C229.409 100.934 228.964 100.75 228.5 100.75V100.75Z" fill="#FF3465"/>
<path d="M228.5 264C227.808 264 227.131 263.795 226.556 263.41C225.98 263.026 225.531 262.479 225.266 261.839C225.002 261.2 224.932 260.496 225.067 259.817C225.202 259.138 225.536 258.515 226.025 258.025C226.515 257.536 227.138 257.202 227.817 257.067C228.496 256.932 229.2 257.002 229.839 257.266C230.479 257.531 231.026 257.98 231.41 258.556C231.795 259.131 232 259.808 232 260.5C231.998 261.428 231.629 262.317 230.973 262.973C230.317 263.629 229.428 263.998 228.5 264V264ZM228.5 258.75C228.154 258.75 227.816 258.853 227.528 259.045C227.24 259.237 227.016 259.511 226.883 259.83C226.751 260.15 226.716 260.502 226.784 260.841C226.851 261.181 227.018 261.493 227.263 261.737C227.507 261.982 227.819 262.149 228.159 262.216C228.498 262.284 228.85 262.249 229.17 262.117C229.489 261.984 229.763 261.76 229.955 261.472C230.147 261.184 230.25 260.846 230.25 260.5C230.25 260.036 230.066 259.591 229.737 259.263C229.409 258.934 228.964 258.75 228.5 258.75V258.75Z" fill="#FF3465"/>
<path d="M1647.5 356C1646.81 356 1646.13 355.795 1645.56 355.41C1644.98 355.026 1644.53 354.479 1644.27 353.839C1644 353.2 1643.93 352.496 1644.07 351.817C1644.2 351.138 1644.54 350.515 1645.03 350.025C1645.51 349.536 1646.14 349.202 1646.82 349.067C1647.5 348.932 1648.2 349.002 1648.84 349.266C1649.48 349.531 1650.03 349.98 1650.41 350.556C1650.79 351.131 1651 351.808 1651 352.5C1651 353.428 1650.63 354.317 1649.97 354.973C1649.32 355.629 1648.43 355.998 1647.5 356V356ZM1647.5 350.75C1647.15 350.75 1646.82 350.853 1646.53 351.045C1646.24 351.237 1646.02 351.511 1645.88 351.83C1645.75 352.15 1645.72 352.502 1645.78 352.841C1645.85 353.181 1646.02 353.493 1646.26 353.737C1646.51 353.982 1646.82 354.149 1647.16 354.216C1647.5 354.284 1647.85 354.249 1648.17 354.117C1648.49 353.984 1648.76 353.76 1648.96 353.472C1649.15 353.184 1649.25 352.846 1649.25 352.5C1649.25 352.036 1649.07 351.591 1648.74 351.263C1648.41 350.934 1647.96 350.75 1647.5 350.75V350.75Z" fill="#FF3465"/>
<path d="M1842.5 472C1841.81 472 1841.13 471.795 1840.56 471.41C1839.98 471.026 1839.53 470.479 1839.27 469.839C1839 469.2 1838.93 468.496 1839.07 467.817C1839.2 467.138 1839.54 466.515 1840.03 466.025C1840.51 465.536 1841.14 465.202 1841.82 465.067C1842.5 464.932 1843.2 465.002 1843.84 465.266C1844.48 465.531 1845.03 465.98 1845.41 466.556C1845.79 467.131 1846 467.808 1846 468.5C1846 469.428 1845.63 470.317 1844.97 470.973C1844.32 471.629 1843.43 471.998 1842.5 472V472ZM1842.5 466.75C1842.15 466.75 1841.82 466.853 1841.53 467.045C1841.24 467.237 1841.02 467.511 1840.88 467.83C1840.75 468.15 1840.72 468.502 1840.78 468.841C1840.85 469.181 1841.02 469.493 1841.26 469.737C1841.51 469.982 1841.82 470.149 1842.16 470.216C1842.5 470.284 1842.85 470.249 1843.17 470.117C1843.49 469.984 1843.76 469.76 1843.96 469.472C1844.15 469.184 1844.25 468.846 1844.25 468.5C1844.25 468.036 1844.07 467.591 1843.74 467.263C1843.41 466.934 1842.96 466.75 1842.5 466.75V466.75Z" fill="#FF3465"/>
<path d="M1849.5 128C1848.81 128 1848.13 127.795 1847.56 127.41C1846.98 127.026 1846.53 126.479 1846.27 125.839C1846 125.2 1845.93 124.496 1846.07 123.817C1846.2 123.138 1846.54 122.515 1847.03 122.025C1847.51 121.536 1848.14 121.202 1848.82 121.067C1849.5 120.932 1850.2 121.002 1850.84 121.266C1851.48 121.531 1852.03 121.98 1852.41 122.556C1852.79 123.131 1853 123.808 1853 124.5C1853 125.428 1852.63 126.317 1851.97 126.973C1851.32 127.629 1850.43 127.998 1849.5 128V128ZM1849.5 122.75C1849.15 122.75 1848.82 122.853 1848.53 123.045C1848.24 123.237 1848.02 123.511 1847.88 123.83C1847.75 124.15 1847.72 124.502 1847.78 124.841C1847.85 125.181 1848.02 125.493 1848.26 125.737C1848.51 125.982 1848.82 126.149 1849.16 126.216C1849.5 126.284 1849.85 126.249 1850.17 126.117C1850.49 125.984 1850.76 125.76 1850.96 125.472C1851.15 125.184 1851.25 124.846 1851.25 124.5C1851.25 124.036 1851.07 123.591 1850.74 123.263C1850.41 122.934 1849.96 122.75 1849.5 122.75V122.75Z" fill="#FF3465"/>
<path d="M3.3884 525.933L2.9392 519.91C4.1828 519.817 5.41768 519.63 6.63346 519.353L7.97747 525.239C6.46707 525.583 4.93315 525.815 3.3884 525.933V525.933ZM-5.83284 525.253C-7.34386 524.91 -8.82732 524.455 -10.271 523.891L-8.06809 518.267C-6.9075 518.716 -5.7146 519.077 -4.49962 519.345L-5.83284 525.253ZM16.5914 521.854L13.5656 516.629C14.6437 516.003 15.6742 515.3 16.6489 514.523L20.4186 519.238C19.2102 520.204 17.9308 521.079 16.5914 521.854V521.854ZM-18.2848 519.263C-19.4942 518.299 -20.6305 517.247 -21.6843 516.115L-17.2642 512C-16.4137 512.914 -15.4973 513.765 -14.5222 514.544L-18.2848 519.263ZM26.7111 512.456L21.7267 509.053C22.4288 508.023 23.0534 506.942 23.5954 505.819L29.0361 508.439C28.3613 509.834 27.5829 511.177 26.7075 512.456H26.7111ZM-26.9095 508.482C-27.5836 507.089 -28.1529 505.647 -28.6129 504.17L-22.8451 502.373C-22.4766 503.564 -22.0189 504.725 -21.4759 505.848L-26.9095 508.482ZM31.7601 499.591L25.7839 498.707C25.9681 497.472 26.0606 496.226 26.0606 494.977V494.894H32.0979V494.977C32.0975 496.521 31.9834 498.064 31.7565 499.591H31.7601ZM-30 495.013V494.97C-30.0005 493.439 -29.8888 491.91 -29.6658 490.395L-23.6932 491.276C-23.873 492.499 -23.9631 493.734 -23.9627 494.97L-30 495.013ZM24.9358 487.527C24.5639 486.338 24.1038 485.177 23.5594 484.056L28.9894 481.418C29.6672 482.811 30.239 484.252 30.7 485.731L24.9358 487.527ZM-21.519 484.157L-26.9598 481.544C-26.2913 480.147 -25.5176 478.803 -24.6455 477.523L-19.6539 480.919C-20.3549 481.95 -20.9783 483.033 -21.519 484.157V484.157ZM19.3405 477.911C18.4884 476.998 17.5695 476.15 16.5914 475.374L20.3467 470.645C21.5584 471.608 22.6971 472.661 23.7535 473.793L19.3405 477.911ZM-14.5797 475.442L-18.3566 470.731C-17.1481 469.764 -15.8701 468.887 -14.533 468.108L-11.5 473.329C-12.5771 473.957 -13.6064 474.663 -14.5797 475.442V475.442ZM10.1336 471.658C8.96462 471.209 7.76333 470.848 6.54002 470.58L7.86607 464.69C9.37893 465.03 10.8638 465.484 12.3078 466.048L10.1336 471.658ZM-4.57149 470.58L-5.92628 464.697C-4.41595 464.352 -2.88206 464.118 -1.33723 464L-0.880829 470.019C-2.12337 470.119 -3.3569 470.31 -4.57149 470.591V470.58Z" fill="#FF3465"/>
<path d="M1921.39 412.933L1920.94 406.91C1922.18 406.817 1923.42 406.63 1924.63 406.353L1925.98 412.239C1924.47 412.583 1922.93 412.815 1921.39 412.933V412.933ZM1912.17 412.253C1910.66 411.91 1909.17 411.455 1907.73 410.891L1909.93 405.267C1911.09 405.716 1912.29 406.077 1913.5 406.345L1912.17 412.253ZM1934.59 408.854L1931.57 403.629C1932.64 403.003 1933.67 402.3 1934.65 401.523L1938.42 406.238C1937.21 407.204 1935.93 408.079 1934.59 408.854V408.854ZM1899.72 406.263C1898.51 405.299 1897.37 404.247 1896.32 403.115L1900.74 399C1901.59 399.914 1902.5 400.765 1903.48 401.544L1899.72 406.263ZM1944.71 399.456L1939.73 396.053C1940.43 395.023 1941.05 393.942 1941.6 392.819L1947.04 395.439C1946.36 396.834 1945.58 398.177 1944.71 399.456H1944.71ZM1891.09 395.482C1890.42 394.089 1889.85 392.647 1889.39 391.17L1895.15 389.373C1895.52 390.564 1895.98 391.725 1896.52 392.848L1891.09 395.482ZM1949.76 386.591L1943.78 385.707C1943.97 384.472 1944.06 383.226 1944.06 381.977V381.894H1950.1V381.977C1950.1 383.521 1949.98 385.064 1949.76 386.591H1949.76ZM1888 382.013V381.97C1888 380.439 1888.11 378.91 1888.33 377.395L1894.31 378.276C1894.13 379.499 1894.04 380.734 1894.04 381.97L1888 382.013ZM1942.94 374.527C1942.56 373.338 1942.1 372.177 1941.56 371.056L1946.99 368.418C1947.67 369.811 1948.24 371.252 1948.7 372.731L1942.94 374.527ZM1896.48 371.157L1891.04 368.544C1891.71 367.147 1892.48 365.803 1893.35 364.523L1898.35 367.919C1897.65 368.95 1897.02 370.033 1896.48 371.157V371.157ZM1937.34 364.911C1936.49 363.998 1935.57 363.15 1934.59 362.374L1938.35 357.645C1939.56 358.608 1940.7 359.661 1941.75 360.793L1937.34 364.911ZM1903.42 362.442L1899.64 357.731C1900.85 356.764 1902.13 355.887 1903.47 355.108L1906.5 360.329C1905.42 360.957 1904.39 361.663 1903.42 362.442V362.442ZM1928.13 358.658C1926.96 358.209 1925.76 357.848 1924.54 357.58L1925.87 351.69C1927.38 352.03 1928.86 352.484 1930.31 353.048L1928.13 358.658ZM1913.43 357.58L1912.07 351.697C1913.58 351.352 1915.12 351.118 1916.66 351L1917.12 357.019C1915.88 357.119 1914.64 357.31 1913.43 357.591V357.58Z" fill="#FF3465"/>
<path d="M1745.56 455C1744.13 454.674 1742.77 454.058 1741.58 453.189L1744.54 449.011C1745.18 449.475 1745.9 449.807 1746.66 449.986L1745.56 455ZM1750.98 454.857L1749.61 449.907C1750.36 449.695 1751.07 449.331 1751.69 448.836L1754.87 452.854C1753.72 453.78 1752.4 454.462 1750.98 454.857V454.857ZM1738.08 448.986C1737.44 447.645 1737.07 446.188 1737 444.7L1742.07 444.439C1742.11 445.237 1742.31 446.018 1742.66 446.736L1738.08 448.986ZM1758.14 448.461L1753.46 446.461C1753.76 445.724 1753.92 444.932 1753.92 444.132L1759 444.097V444.132C1759 445.619 1758.71 447.091 1758.14 448.461V448.461ZM1742.64 441.543L1738.06 439.318C1738.69 437.978 1739.58 436.781 1740.68 435.797L1744.05 439.643C1743.46 440.174 1742.98 440.821 1742.64 441.543V441.543ZM1753.19 441.247C1752.81 440.542 1752.29 439.923 1751.67 439.429L1754.84 435.397C1756 436.317 1756.96 437.462 1757.67 438.764L1753.19 441.247ZM1746.66 438.286L1745.51 433.286C1746.32 433.096 1747.15 433 1747.98 433C1748.61 432.997 1749.24 433.051 1749.86 433.161L1749 438.229C1748.67 438.171 1748.33 438.143 1747.99 438.143V438.143C1747.54 438.138 1747.09 438.186 1746.66 438.286Z" fill="#FF3465"/>
<path d="M59.5587 147C58.1253 146.674 56.7718 146.058 55.5792 145.189L58.5427 141.011C59.1769 141.475 59.8966 141.807 60.6594 141.986L59.5587 147ZM64.9811 146.857L63.6052 141.907C64.3642 141.695 65.0732 141.331 65.6902 140.836L68.8653 144.854C67.7176 145.78 66.3962 146.462 64.9811 146.857V146.857ZM52.0831 140.986C51.4417 139.645 51.0733 138.188 51 136.7L56.0731 136.439C56.1126 137.237 56.3106 138.018 56.6552 138.736L52.0831 140.986ZM72.1392 140.461L67.4577 138.461C67.7648 137.724 67.922 136.932 67.9198 136.132L73 136.097V136.132C73.0026 137.619 72.7098 139.091 72.1392 140.461V140.461ZM56.6446 133.543L52.0584 131.318C52.6906 129.978 53.582 128.781 54.6796 127.797L58.0523 131.643C57.4621 132.174 56.9835 132.821 56.6446 133.543V133.543ZM67.1895 133.247C66.8104 132.542 66.293 131.923 65.669 131.429L68.8441 127.397C69.9974 128.317 70.9571 129.462 71.6664 130.764L67.1895 133.247ZM60.6559 130.286L59.5128 125.286C60.3227 125.096 61.1512 125 61.9824 125C62.6126 124.997 63.2419 125.051 63.8627 125.161L63.0019 130.229C62.6674 130.171 62.3287 130.143 61.9894 130.143V130.143C61.5409 130.138 61.0934 130.186 60.6559 130.286Z" fill="#FF3465"/>
<path d="M1808.56 306C1807.13 305.674 1805.77 305.058 1804.58 304.189L1807.54 300.011C1808.18 300.475 1808.9 300.807 1809.66 300.986L1808.56 306ZM1813.98 305.857L1812.61 300.907C1813.36 300.695 1814.07 300.331 1814.69 299.836L1817.87 303.854C1816.72 304.78 1815.4 305.462 1813.98 305.857V305.857ZM1801.08 299.986C1800.44 298.645 1800.07 297.188 1800 295.7L1805.07 295.439C1805.11 296.237 1805.31 297.018 1805.66 297.736L1801.08 299.986ZM1821.14 299.461L1816.46 297.461C1816.76 296.724 1816.92 295.932 1816.92 295.132L1822 295.097V295.132C1822 296.619 1821.71 298.091 1821.14 299.461V299.461ZM1805.64 292.543L1801.06 290.318C1801.69 288.978 1802.58 287.781 1803.68 286.797L1807.05 290.643C1806.46 291.174 1805.98 291.821 1805.64 292.543V292.543ZM1816.19 292.247C1815.81 291.542 1815.29 290.923 1814.67 290.429L1817.84 286.397C1819 287.317 1819.96 288.462 1820.67 289.764L1816.19 292.247ZM1809.66 289.286L1808.51 284.286C1809.32 284.096 1810.15 284 1810.98 284C1811.61 283.997 1812.24 284.051 1812.86 284.161L1812 289.229C1811.67 289.171 1811.33 289.143 1810.99 289.143V289.143C1810.54 289.138 1810.09 289.186 1809.66 289.286Z" fill="#FF3465"/>
<path d="M50.5 353C48.4233 353 46.3932 352.355 44.6665 351.146C42.9398 349.937 41.594 348.22 40.7993 346.21C40.0046 344.2 39.7966 341.988 40.2018 339.854C40.6069 337.72 41.6069 335.76 43.0754 334.222C44.5438 332.683 46.4148 331.636 48.4516 331.211C50.4884 330.787 52.5995 331.005 54.5182 331.837C56.4368 332.67 58.0767 334.08 59.2304 335.889C60.3842 337.698 61 339.824 61 342C60.9972 344.916 59.89 347.713 57.9215 349.775C55.953 351.837 53.2839 352.997 50.5 353V353ZM50.5 335.041C49.1862 335.041 47.9018 335.449 46.8094 336.214C45.717 336.978 44.8656 338.065 44.3628 339.337C43.86 340.608 43.7285 342.008 43.9848 343.358C44.2411 344.708 44.8738 345.948 45.8028 346.921C46.7318 347.894 47.9155 348.557 49.2041 348.825C50.4926 349.094 51.8283 348.956 53.0421 348.429C54.2559 347.903 55.2934 347.011 56.0233 345.866C56.7533 344.722 57.1429 343.376 57.1429 342C57.141 340.155 56.4405 338.386 55.1951 337.081C53.9497 335.777 52.2612 335.043 50.5 335.041V335.041Z" fill="#FFD9E2"/>
<path d="M1799.5 27C1797.42 27 1795.39 26.3549 1793.67 25.1462C1791.94 23.9375 1790.59 22.2195 1789.8 20.2095C1789 18.1995 1788.8 15.9878 1789.2 13.854C1789.61 11.7202 1790.61 9.76021 1792.08 8.22183C1793.54 6.68346 1795.41 5.63581 1797.45 5.21137C1799.49 4.78693 1801.6 5.00475 1803.52 5.83731C1805.44 6.66988 1807.08 8.07978 1808.23 9.88872C1809.38 11.6977 1810 13.8244 1810 16C1810 18.9165 1808.89 21.7126 1806.92 23.7749C1804.95 25.8372 1802.28 26.997 1799.5 27V27ZM1799.5 9.04081C1798.19 9.04081 1796.9 9.44898 1795.81 10.2137C1794.72 10.9783 1793.87 12.0652 1793.36 13.3368C1792.86 14.6085 1792.73 16.0077 1792.98 17.3577C1793.24 18.7076 1793.87 19.9476 1794.8 20.9209C1795.73 21.8941 1796.92 22.5569 1798.2 22.8255C1799.49 23.094 1800.83 22.9562 1802.04 22.4295C1803.26 21.9027 1804.29 21.0107 1805.02 19.8663C1805.75 18.7219 1806.14 17.3764 1806.14 16C1806.14 14.1549 1805.44 12.386 1804.2 11.0813C1802.95 9.77663 1801.26 9.04279 1799.5 9.04081V9.04081Z" fill="#FFD9E2"/>
<path d="M123.5 427C122.214 427 120.958 426.589 119.889 425.82C118.82 425.051 117.987 423.958 117.495 422.679C117.003 421.4 116.874 419.992 117.125 418.634C117.376 417.277 117.995 416.029 118.904 415.05C119.813 414.071 120.971 413.405 122.232 413.135C123.493 412.864 124.8 413.003 125.987 413.533C127.175 414.063 128.19 414.96 128.905 416.111C129.619 417.262 130 418.616 130 420C129.998 421.856 129.313 423.635 128.094 424.948C126.876 426.26 125.223 426.998 123.5 427V427ZM123.5 415.571C122.687 415.571 121.892 415.831 121.215 416.318C120.539 416.804 120.012 417.496 119.701 418.305C119.39 419.114 119.308 420.005 119.467 420.864C119.625 421.723 120.017 422.512 120.592 423.131C121.167 423.751 121.9 424.173 122.698 424.343C123.495 424.514 124.322 424.427 125.074 424.091C125.825 423.756 126.467 423.189 126.919 422.46C127.371 421.732 127.612 420.876 127.612 420C127.611 418.826 127.177 417.7 126.407 416.87C125.636 416.04 124.59 415.573 123.5 415.571V415.571Z" fill="#FF3465"/>
<path d="M100.854 0H92.229V10.6336H100.854V0Z" fill="#FFD9E2"/>
<path d="M100.854 22.4495H92.229V33.083H100.854V22.4495Z" fill="#FFD9E2"/>
<path d="M113.083 12.2292H102.45V20.854H113.083V12.2292Z" fill="#FFD9E2"/>
<path d="M90.6335 12.2292H80V20.854H90.6335V12.2292Z" fill="#FFD9E2"/>
<path d="M1879.55 181H1873.53V188.419H1879.55V181Z" fill="#FF3465"/>
<path d="M1879.55 196.664H1873.53V204.083H1879.55V196.664Z" fill="#FF3465"/>
<path d="M1888.08 189.533H1880.66V195.55H1888.08V189.533Z" fill="#FF3465"/>
<path d="M1872.42 189.533H1865V195.55H1872.42V189.533Z" fill="#FF3465"/>
<path d="M1626.77 137.158H1625.4V138.695H1626.77V137.158Z" fill="#FFD9E2"/>
<path d="M1626.77 140.403H1625.4V141.94H1626.77V140.403Z" fill="#FFD9E2"/>
<path d="M1625.23 138.866H1623.69V140.232H1625.23V138.866Z" fill="#FFD9E2"/>
<path d="M1628.48 138.866H1626.94V140.232H1628.48V138.866Z" fill="#FFD9E2"/>
<path d="M1598.07 163.973H1596.71V165.51H1598.07V163.973Z" fill="#FFD9E2"/>
<path d="M1598.07 167.218H1596.71V168.755H1598.07V167.218Z" fill="#FFD9E2"/>
<path d="M1596.54 165.681H1595V167.047H1596.54V165.681Z" fill="#FFD9E2"/>
<path d="M1599.78 165.681H1598.25V167.047H1599.78V165.681Z" fill="#FFD9E2"/>
<path d="M1607.13 132H1606.1V133.23H1607.13V132Z" fill="#FFD9E2"/>
<path d="M1607.13 134.596H1606.1V135.826H1607.13V134.596Z" fill="#FFD9E2"/>
<path d="M1605.93 133.401H1604.7V134.425H1605.93V133.401Z" fill="#FFD9E2"/>
<path d="M1608.53 133.401H1607.3V134.425H1608.53V133.401Z" fill="#FFD9E2"/>
<path d="M1606.61 156.116H1608.83V153.896H1606.61V156.116Z" fill="#FFD9E2"/>
<path d="M1637.02 152.7H1639.24V150.48H1637.02V152.7Z" fill="#FFD9E2"/>
<path d="M1642.97 180.796C1642.88 180.796 1642.8 180.78 1642.72 180.748L1617.35 170.682C1617.25 170.64 1617.15 170.573 1617.08 170.486C1617.01 170.399 1616.96 170.296 1616.94 170.185C1616.91 170.074 1616.92 169.959 1616.95 169.851C1616.98 169.742 1617.04 169.644 1617.12 169.563L1632.42 154.266C1632.5 154.186 1632.6 154.127 1632.71 154.095C1632.81 154.063 1632.93 154.058 1633.04 154.081C1633.15 154.104 1633.25 154.154 1633.34 154.227C1633.43 154.3 1633.49 154.393 1633.54 154.498L1643.61 179.864C1643.65 179.967 1643.66 180.079 1643.65 180.189C1643.63 180.299 1643.6 180.405 1643.53 180.497C1643.47 180.588 1643.39 180.664 1643.29 180.716C1643.19 180.768 1643.08 180.795 1642.97 180.796V180.796ZM1618.82 169.795L1641.75 178.897L1632.64 155.967L1618.82 169.795Z" fill="#FFD9E2"/>
<path d="M1635.14 161.069H1627.28C1627.1 161.069 1626.93 160.997 1626.8 160.869C1626.67 160.741 1626.6 160.567 1626.6 160.386C1626.6 160.205 1626.67 160.031 1626.8 159.903C1626.93 159.775 1627.1 159.703 1627.28 159.703H1635.14C1635.32 159.703 1635.49 159.775 1635.62 159.903C1635.75 160.031 1635.82 160.205 1635.82 160.386C1635.82 160.567 1635.75 160.741 1635.62 160.869C1635.49 160.997 1635.32 161.069 1635.14 161.069V161.069Z" fill="#FFD9E2"/>
<path d="M1636.51 165.168H1623.36C1623.18 165.168 1623 165.096 1622.87 164.968C1622.75 164.84 1622.67 164.666 1622.67 164.485C1622.67 164.304 1622.75 164.13 1622.87 164.002C1623 163.874 1623.18 163.802 1623.36 163.802H1636.51C1636.69 163.802 1636.86 163.874 1636.99 164.002C1637.12 164.13 1637.19 164.304 1637.19 164.485C1637.19 164.666 1637.12 164.84 1636.99 164.968C1636.86 165.096 1636.69 165.168 1636.51 165.168V165.168Z" fill="#FFD9E2"/>
<path d="M1638.04 168.926H1619.43C1619.25 168.926 1619.07 168.854 1618.95 168.726C1618.82 168.598 1618.75 168.424 1618.75 168.243C1618.75 168.062 1618.82 167.888 1618.95 167.76C1619.07 167.632 1619.25 167.56 1619.43 167.56H1638.05C1638.23 167.56 1638.4 167.632 1638.53 167.76C1638.66 167.888 1638.73 168.062 1638.73 168.243C1638.73 168.424 1638.66 168.598 1638.53 168.726C1638.4 168.854 1638.23 168.926 1638.05 168.926H1638.04Z" fill="#FFD9E2"/>
<path d="M1639.58 172.854H1623.01C1622.83 172.854 1622.66 172.782 1622.53 172.654C1622.4 172.526 1622.33 172.352 1622.33 172.171C1622.33 171.99 1622.4 171.816 1622.53 171.688C1622.66 171.56 1622.83 171.488 1623.01 171.488H1639.58C1639.76 171.488 1639.93 171.56 1640.06 171.688C1640.19 171.816 1640.26 171.99 1640.26 172.171C1640.26 172.352 1640.19 172.526 1640.06 172.654C1639.93 172.782 1639.76 172.854 1639.58 172.854V172.854Z" fill="#FFD9E2"/>
<path d="M1641.21 176.611H1632.24C1632.06 176.611 1631.88 176.539 1631.76 176.411C1631.63 176.283 1631.56 176.109 1631.56 175.928C1631.56 175.747 1631.63 175.573 1631.76 175.445C1631.88 175.317 1632.06 175.245 1632.24 175.245H1641.21C1641.39 175.245 1641.56 175.317 1641.69 175.445C1641.82 175.573 1641.89 175.747 1641.89 175.928C1641.89 176.109 1641.82 176.283 1641.69 176.411C1641.56 176.539 1641.39 176.611 1641.21 176.611Z" fill="#FFD9E2"/>
<path d="M1623.01 154.579C1622.87 154.579 1622.74 154.537 1622.62 154.458C1622.51 154.38 1622.42 154.269 1622.37 154.139L1622.34 154.06C1622.31 153.976 1622.29 153.886 1622.3 153.796C1622.3 153.706 1622.32 153.618 1622.36 153.535C1622.39 153.453 1622.45 153.379 1622.51 153.318C1622.58 153.256 1622.65 153.208 1622.74 153.176C1622.82 153.144 1622.91 153.129 1623 153.131C1623.09 153.134 1623.18 153.154 1623.26 153.191C1623.34 153.228 1623.42 153.281 1623.48 153.346C1623.54 153.412 1623.59 153.489 1623.62 153.573L1623.65 153.653C1623.72 153.822 1623.71 154.01 1623.64 154.175C1623.56 154.341 1623.43 154.47 1623.26 154.535C1623.18 154.565 1623.1 154.58 1623.01 154.579V154.579Z" fill="#FFD9E2"/>
<path d="M1621.96 151.822C1621.82 151.822 1621.69 151.78 1621.57 151.701C1621.46 151.623 1621.37 151.512 1621.32 151.382L1620.56 149.374C1620.55 149.352 1620.54 149.33 1620.54 149.307C1620.53 149.286 1620.52 149.263 1620.51 149.24L1619.49 146.563C1619.42 146.393 1619.43 146.205 1619.51 146.039C1619.58 145.873 1619.72 145.744 1619.89 145.68C1620.06 145.616 1620.25 145.621 1620.41 145.696C1620.58 145.771 1620.71 145.908 1620.77 146.078L1621.79 148.755C1621.8 148.777 1621.8 148.799 1621.81 148.822C1621.82 148.843 1621.83 148.866 1621.84 148.889L1622.6 150.896C1622.64 150.979 1622.65 151.069 1622.65 151.158C1622.65 151.248 1622.63 151.337 1622.59 151.418C1622.55 151.5 1622.5 151.574 1622.43 151.636C1622.37 151.698 1622.29 151.746 1622.21 151.778C1622.13 151.808 1622.05 151.823 1621.96 151.822Z" fill="#FFD9E2"/>
<path d="M1619.36 144.996C1619.23 144.996 1619.09 144.954 1618.98 144.875C1618.86 144.797 1618.77 144.685 1618.72 144.556L1618.67 144.421C1618.61 144.251 1618.61 144.063 1618.69 143.897C1618.76 143.731 1618.9 143.602 1619.07 143.538C1619.24 143.473 1619.43 143.479 1619.6 143.554C1619.76 143.628 1619.89 143.766 1619.95 143.936L1620 144.069C1620.04 144.153 1620.05 144.243 1620.05 144.332C1620.05 144.422 1620.03 144.511 1619.99 144.593C1619.95 144.675 1619.9 144.749 1619.83 144.81C1619.77 144.872 1619.69 144.92 1619.61 144.952C1619.53 144.981 1619.45 144.996 1619.36 144.996V144.996ZM1618.29 142.185C1618.15 142.185 1618.02 142.143 1617.9 142.064C1617.79 141.986 1617.7 141.874 1617.65 141.745L1616.89 139.737C1616.88 139.715 1616.87 139.693 1616.87 139.67C1616.86 139.648 1616.85 139.626 1616.84 139.603L1615.82 136.926C1615.75 136.756 1615.76 136.568 1615.83 136.402C1615.91 136.236 1616.05 136.107 1616.22 136.043C1616.39 135.978 1616.57 135.984 1616.74 136.059C1616.91 136.133 1617.03 136.271 1617.1 136.441L1618.12 139.118C1618.13 139.141 1618.13 139.162 1618.14 139.185C1618.15 139.207 1618.16 139.229 1618.17 139.252L1618.93 141.258C1619 141.428 1618.99 141.616 1618.92 141.781C1618.84 141.947 1618.71 142.076 1618.54 142.141C1618.46 142.17 1618.37 142.185 1618.29 142.185V142.185Z" fill="#FFD9E2"/>
<path d="M1615.7 135.359C1615.56 135.359 1615.42 135.317 1615.31 135.238C1615.2 135.16 1615.11 135.048 1615.06 134.919L1615.03 134.839C1615 134.755 1614.98 134.666 1614.98 134.576C1614.99 134.486 1615.01 134.397 1615.04 134.315C1615.08 134.233 1615.13 134.159 1615.2 134.097C1615.26 134.036 1615.34 133.988 1615.42 133.956C1615.51 133.924 1615.6 133.909 1615.69 133.911C1615.78 133.914 1615.87 133.934 1615.95 133.971C1616.03 134.008 1616.1 134.061 1616.17 134.126C1616.23 134.192 1616.28 134.269 1616.31 134.353L1616.34 134.432C1616.4 134.602 1616.4 134.79 1616.32 134.955C1616.25 135.121 1616.11 135.25 1615.94 135.315C1615.86 135.344 1615.78 135.359 1615.7 135.359Z" fill="#FFD9E2"/>
<path d="M1619.43 158.507C1619.25 158.508 1619.08 158.438 1618.95 158.314L1618.83 158.194C1618.76 158.132 1618.71 158.058 1618.67 157.974C1618.63 157.891 1618.61 157.801 1618.61 157.71C1618.61 157.619 1618.62 157.528 1618.66 157.443C1618.69 157.358 1618.74 157.28 1618.8 157.215C1618.87 157.15 1618.94 157.098 1619.03 157.062C1619.11 157.027 1619.2 157.009 1619.29 157.009C1619.39 157.009 1619.48 157.027 1619.56 157.063C1619.64 157.099 1619.72 157.151 1619.78 157.216L1619.91 157.335C1620 157.429 1620.07 157.551 1620.1 157.684C1620.13 157.817 1620.11 157.956 1620.06 158.081C1620.01 158.207 1619.92 158.315 1619.81 158.391C1619.7 158.467 1619.57 158.507 1619.43 158.507V158.507ZM1616.87 156.002C1616.69 156.003 1616.52 155.933 1616.39 155.809L1614.56 154.018C1614.54 153.998 1614.52 153.978 1614.5 153.956C1614.48 153.938 1614.46 153.92 1614.43 153.9L1611.99 151.515C1611.87 151.386 1611.8 151.216 1611.8 151.04C1611.81 150.864 1611.88 150.695 1612 150.569C1612.12 150.442 1612.29 150.369 1612.47 150.362C1612.64 150.356 1612.81 150.418 1612.94 150.536L1615.39 152.922C1615.41 152.942 1615.43 152.963 1615.45 152.985C1615.47 153.002 1615.49 153.02 1615.51 153.04L1617.35 154.83C1617.44 154.924 1617.51 155.046 1617.54 155.18C1617.57 155.313 1617.55 155.451 1617.5 155.577C1617.45 155.703 1617.36 155.811 1617.25 155.887C1617.14 155.962 1617 156.003 1616.87 156.002V156.002ZM1610.63 149.919C1610.45 149.919 1610.28 149.849 1610.16 149.724L1610.03 149.606C1609.9 149.48 1609.83 149.307 1609.83 149.126C1609.83 148.944 1609.89 148.77 1610.02 148.64C1610.15 148.51 1610.32 148.436 1610.5 148.433C1610.68 148.431 1610.86 148.5 1610.99 148.627L1611.11 148.746C1611.21 148.841 1611.27 148.963 1611.3 149.096C1611.33 149.229 1611.32 149.367 1611.27 149.493C1611.22 149.619 1611.13 149.727 1611.01 149.803C1610.9 149.879 1610.77 149.919 1610.63 149.919V149.919ZM1608.07 147.414C1607.89 147.415 1607.72 147.345 1607.59 147.219L1605.76 145.43C1605.74 145.41 1605.72 145.389 1605.7 145.368C1605.68 145.35 1605.66 145.332 1605.64 145.312L1603.19 142.925C1603.06 142.799 1602.99 142.626 1602.99 142.444C1602.98 142.263 1603.05 142.088 1603.18 141.959C1603.31 141.829 1603.48 141.755 1603.66 141.753C1603.84 141.751 1604.02 141.821 1604.15 141.947L1606.59 144.333C1606.63 144.378 1606.67 144.418 1606.72 144.452L1608.55 146.241C1608.65 146.336 1608.71 146.458 1608.74 146.591C1608.77 146.724 1608.76 146.862 1608.7 146.988C1608.65 147.114 1608.57 147.222 1608.45 147.298C1608.34 147.374 1608.21 147.414 1608.07 147.414V147.414ZM1601.84 141.331C1601.66 141.331 1601.49 141.261 1601.36 141.136L1601.24 141.017C1601.11 140.89 1601.03 140.717 1601.03 140.536C1601.03 140.354 1601.1 140.18 1601.23 140.05C1601.35 139.92 1601.53 139.846 1601.71 139.844C1601.89 139.842 1602.06 139.912 1602.19 140.039L1602.31 140.158C1602.41 140.253 1602.48 140.375 1602.51 140.508C1602.53 140.641 1602.52 140.78 1602.47 140.906C1602.42 141.032 1602.33 141.14 1602.22 141.215C1602.11 141.291 1601.97 141.331 1601.84 141.331V141.331ZM1599.27 138.826C1599.1 138.826 1598.92 138.756 1598.8 138.631L1597.79 137.648C1597.66 137.521 1597.58 137.348 1597.58 137.167C1597.58 136.986 1597.65 136.811 1597.78 136.681C1597.9 136.551 1598.07 136.477 1598.26 136.475C1598.44 136.472 1598.61 136.542 1598.74 136.668L1599.75 137.653C1599.85 137.748 1599.92 137.87 1599.94 138.003C1599.97 138.136 1599.96 138.274 1599.91 138.4C1599.86 138.526 1599.77 138.634 1599.66 138.71C1599.54 138.786 1599.41 138.826 1599.27 138.826V138.826Z" fill="#FFD9E2"/>
<path d="M1616.52 162.777C1616.5 162.779 1616.47 162.779 1616.45 162.777L1616.28 162.76C1616.19 162.751 1616.1 162.724 1616.02 162.681C1615.94 162.638 1615.87 162.58 1615.82 162.511C1615.76 162.441 1615.72 162.361 1615.69 162.275C1615.67 162.189 1615.66 162.099 1615.67 162.009C1615.68 161.92 1615.71 161.834 1615.75 161.755C1615.79 161.676 1615.85 161.606 1615.92 161.55C1615.99 161.493 1616.07 161.451 1616.15 161.425C1616.24 161.4 1616.33 161.392 1616.42 161.401L1616.59 161.419C1616.76 161.439 1616.92 161.524 1617.03 161.656C1617.15 161.789 1617.2 161.96 1617.2 162.134C1617.19 162.308 1617.11 162.472 1616.99 162.592C1616.86 162.713 1616.69 162.78 1616.52 162.782L1616.52 162.777ZM1612.95 162.397C1612.93 162.399 1612.91 162.399 1612.88 162.397L1610.33 162.125C1610.3 162.123 1610.28 162.118 1610.25 162.111C1610.22 162.113 1610.19 162.113 1610.16 162.111L1606.76 161.744C1606.58 161.725 1606.42 161.635 1606.3 161.495C1606.19 161.354 1606.13 161.173 1606.15 160.993C1606.17 160.813 1606.26 160.648 1606.4 160.533C1606.54 160.419 1606.72 160.366 1606.9 160.385L1610.3 160.746C1610.33 160.749 1610.36 160.754 1610.39 160.76H1610.47L1613.02 161.031C1613.19 161.05 1613.35 161.135 1613.46 161.268C1613.58 161.401 1613.63 161.572 1613.62 161.745C1613.62 161.919 1613.54 162.083 1613.41 162.204C1613.29 162.324 1613.12 162.392 1612.95 162.393L1612.95 162.397ZM1604.29 161.476H1604.22L1604.05 161.459C1603.87 161.44 1603.7 161.351 1603.59 161.21C1603.48 161.069 1603.42 160.889 1603.44 160.708C1603.46 160.528 1603.55 160.363 1603.69 160.249C1603.83 160.135 1604.01 160.081 1604.19 160.1L1604.36 160.119C1604.53 160.138 1604.69 160.223 1604.81 160.356C1604.92 160.488 1604.98 160.659 1604.97 160.833C1604.96 161.007 1604.88 161.171 1604.76 161.291C1604.63 161.412 1604.46 161.479 1604.29 161.481L1604.29 161.476ZM1600.73 161.098H1600.65L1600.39 161.069C1600.3 161.063 1600.21 161.039 1600.13 160.998C1600.05 160.956 1599.97 160.898 1599.91 160.828C1599.86 160.758 1599.81 160.676 1599.78 160.588C1599.76 160.5 1599.75 160.408 1599.76 160.316C1599.77 160.225 1599.79 160.136 1599.84 160.056C1599.88 159.975 1599.94 159.905 1600.02 159.848C1600.09 159.792 1600.17 159.75 1600.26 159.727C1600.35 159.703 1600.44 159.698 1600.54 159.711L1600.79 159.739C1600.97 159.754 1601.13 159.838 1601.25 159.971C1601.36 160.105 1601.42 160.278 1601.41 160.455C1601.41 160.631 1601.33 160.797 1601.2 160.918C1601.07 161.038 1600.9 161.105 1600.72 161.102L1600.73 161.098Z" fill="#FFD9E2"/>
<path d="M1603.46 171.799C1603.36 171.799 1603.26 171.776 1603.17 171.731C1603.08 171.692 1603.01 171.637 1602.95 171.57C1602.89 171.503 1602.85 171.425 1602.82 171.34C1602.79 171.255 1602.78 171.165 1602.78 171.075C1602.79 170.986 1602.81 170.898 1602.85 170.817L1602.93 170.651C1603.02 170.497 1603.16 170.384 1603.33 170.333C1603.5 170.283 1603.68 170.3 1603.84 170.38C1604 170.461 1604.12 170.599 1604.17 170.766C1604.23 170.933 1604.22 171.115 1604.15 171.276C1604.12 171.321 1604.1 171.368 1604.08 171.418C1604.02 171.533 1603.93 171.629 1603.83 171.697C1603.72 171.764 1603.59 171.8 1603.46 171.799V171.799ZM1605.04 169.583C1604.9 169.583 1604.77 169.543 1604.66 169.468C1604.55 169.393 1604.46 169.285 1604.41 169.16C1604.36 169.035 1604.34 168.897 1604.37 168.765C1604.4 168.632 1604.46 168.51 1604.56 168.415C1605.44 167.548 1606.5 166.876 1607.66 166.444C1607.69 166.433 1607.71 166.424 1607.74 166.416C1607.77 166.403 1607.8 166.391 1607.83 166.381C1608.68 166.076 1609.57 165.873 1610.48 165.775C1610.66 165.754 1610.84 165.806 1610.98 165.919C1611.12 166.032 1611.21 166.197 1611.23 166.377C1611.25 166.557 1611.2 166.737 1611.09 166.879C1610.97 167.021 1610.81 167.112 1610.63 167.132C1609.83 167.218 1609.05 167.397 1608.29 167.665C1608.27 167.674 1608.24 167.682 1608.22 167.688C1608.19 167.701 1608.17 167.712 1608.14 167.72C1607.16 168.086 1606.27 168.653 1605.52 169.385C1605.39 169.512 1605.22 169.584 1605.04 169.583V169.583ZM1614.13 167.218C1614.09 167.218 1614.04 167.213 1614 167.205L1613.86 167.181C1613.76 167.17 1613.68 167.141 1613.6 167.096C1613.52 167.05 1613.45 166.989 1613.39 166.916C1613.34 166.843 1613.3 166.759 1613.27 166.67C1613.25 166.581 1613.25 166.488 1613.26 166.398C1613.27 166.307 1613.31 166.22 1613.36 166.142C1613.4 166.064 1613.47 165.996 1613.54 165.943C1613.62 165.891 1613.7 165.853 1613.79 165.834C1613.88 165.815 1613.98 165.814 1614.07 165.832C1614.19 165.85 1614.26 165.864 1614.26 165.864C1614.43 165.897 1614.58 165.99 1614.68 166.127C1614.78 166.263 1614.82 166.432 1614.81 166.6C1614.79 166.769 1614.71 166.926 1614.59 167.04C1614.46 167.154 1614.3 167.218 1614.13 167.218V167.218Z" fill="#FFD9E2"/>
<path d="M1628.82 152.357C1628.66 152.357 1628.51 152.301 1628.38 152.198C1628.26 152.095 1628.18 151.953 1628.15 151.795C1628.15 151.795 1628.14 151.724 1628.12 151.594C1628.11 151.505 1628.11 151.414 1628.14 151.326C1628.16 151.238 1628.2 151.156 1628.26 151.084C1628.31 151.012 1628.38 150.952 1628.46 150.906C1628.54 150.861 1628.62 150.832 1628.71 150.82C1628.8 150.809 1628.89 150.815 1628.98 150.839C1629.07 150.863 1629.15 150.904 1629.22 150.96C1629.29 151.015 1629.35 151.085 1629.39 151.164C1629.44 151.243 1629.47 151.329 1629.48 151.419C1629.49 151.502 1629.5 151.55 1629.5 151.562C1629.51 151.66 1629.51 151.76 1629.48 151.856C1629.46 151.952 1629.41 152.041 1629.34 152.117C1629.28 152.193 1629.2 152.254 1629.11 152.296C1629.02 152.339 1628.92 152.361 1628.82 152.362V152.357ZM1628.97 148.792C1628.92 148.791 1628.87 148.786 1628.82 148.775C1628.65 148.736 1628.49 148.628 1628.39 148.475C1628.3 148.323 1628.26 148.138 1628.3 147.961C1628.5 147.056 1628.83 146.187 1629.29 145.382C1629.3 145.355 1629.32 145.329 1629.34 145.305C1629.35 145.276 1629.37 145.248 1629.38 145.222C1630.03 144.157 1630.91 143.254 1631.95 142.581C1632.11 142.482 1632.29 142.448 1632.47 142.486C1632.65 142.524 1632.8 142.631 1632.9 142.783C1633 142.935 1633.03 143.12 1632.99 143.297C1632.96 143.474 1632.85 143.629 1632.7 143.728C1631.82 144.286 1631.08 145.038 1630.54 145.925C1630.53 145.948 1630.51 145.97 1630.5 145.991C1630.49 146.015 1630.47 146.037 1630.46 146.059C1630.07 146.743 1629.79 147.482 1629.63 148.251C1629.59 148.403 1629.51 148.539 1629.39 148.638C1629.27 148.736 1629.12 148.79 1628.97 148.792V148.792ZM1634.64 142.769C1634.48 142.769 1634.32 142.711 1634.2 142.605C1634.07 142.499 1633.99 142.351 1633.96 142.19C1633.94 142.028 1633.97 141.863 1634.06 141.724C1634.15 141.586 1634.28 141.482 1634.43 141.434L1634.61 141.381C1634.7 141.353 1634.79 141.342 1634.88 141.35C1634.97 141.357 1635.06 141.383 1635.14 141.425C1635.22 141.468 1635.29 141.526 1635.35 141.597C1635.41 141.667 1635.45 141.749 1635.48 141.836C1635.5 141.923 1635.51 142.015 1635.5 142.106C1635.49 142.197 1635.46 142.284 1635.42 142.364C1635.37 142.444 1635.31 142.514 1635.24 142.57C1635.17 142.626 1635.09 142.667 1635 142.69C1634.95 142.706 1634.9 142.72 1634.85 142.737C1634.78 142.758 1634.71 142.769 1634.64 142.769H1634.64Z" fill="#FFD9E2"/>
<path d="M1752.8 110L1740 122.797L1742.66 125.458L1755.46 112.661L1752.8 110Z" fill="#FF3465"/>
<path d="M1742.66 110L1740 112.661L1752.8 125.458L1755.46 122.797L1742.66 110Z" fill="#FF3465"/>
<path d="M1704.8 244L1692 256.797L1694.66 259.458L1707.46 246.661L1704.8 244Z" fill="#FF3465"/>
<path d="M1694.66 244L1692 246.661L1704.8 259.458L1707.46 256.797L1694.66 244Z" fill="#FF3465"/>
</g>
<defs>
<clipPath id="clip0_123_1522">
<rect width="1920" height="526" fill="white"/>
</clipPath>
</defs>
</svg>
