<svg width="48" height="48" viewBox="0 0 48 48" fill="none" xmlns="http://www.w3.org/2000/svg">
<rect width="48" height="48" rx="24" fill="#FFEDF1"/>
<g clip-path="url(#clip0_80_1740)">
<path d="M32.3333 14.0001H25.4061C24.9478 14.0001 24.3073 14.2656 23.9836 14.5891L14.4864 24.0863C13.8379 24.734 13.8379 25.796 14.4864 26.443L21.5578 33.5142C22.2048 34.1619 23.2658 34.1619 23.9138 33.5134L33.411 24.0178C33.7345 23.6943 34 23.0528 34 22.5955V15.6668C34 14.7503 33.2497 14.0001 32.3333 14.0001ZM28.9997 20.6668C28.0792 20.6668 27.333 19.9198 27.333 19.0001C27.333 18.0788 28.0792 17.3333 28.9997 17.3333C29.9202 17.3333 30.6667 18.0788 30.6667 19.0001C30.6668 19.9198 29.9202 20.6668 28.9997 20.6668Z" fill="#FF3465"/>
</g>
<defs>
<clipPath id="clip0_80_1740">
<rect width="20" height="20" fill="white" transform="translate(14 14)"/>
</clipPath>
</defs>
</svg>
