<svg width="100" height="100" viewBox="0 0 100 100" fill="none" xmlns="http://www.w3.org/2000/svg">
<path d="M50.0628 1.2958C33.1775 1.27369 19.4187 15.0139 19.4189 31.8991C19.4191 43.124 25.4635 52.9358 34.4742 58.2612C36.0743 59.207 37.0427 60.9399 37.0427 62.7985V70.2526C37.339 70.1287 37.6638 70.06 38.0049 70.06H62.0393C62.3804 70.06 62.7052 70.1289 63.0015 70.2526V62.7982C63.0015 60.9176 64.0061 59.1897 65.6233 58.2295C74.6046 52.8969 80.6252 43.1017 80.6252 31.8986C80.6252 15.0108 66.9457 1.31792 50.0628 1.2958Z" fill="#FFE07D"/>
<path d="M45.1309 62.7987C45.1309 60.9401 44.1625 59.2069 42.5626 58.2614C33.5519 52.936 27.5074 43.1242 27.5074 31.8993C27.5072 16.396 39.1062 3.54598 54.0739 1.56291C52.7613 1.38934 51.4226 1.29756 50.0628 1.2958C33.1775 1.27369 19.4187 15.0139 19.4189 31.8991C19.4191 43.124 25.4634 52.9358 34.4741 58.2612C36.0742 59.207 37.0427 60.9399 37.0427 62.7985V70.2526C37.3388 70.1287 37.6638 70.06 38.0049 70.06H45.1309V62.7987Z" fill="#FFC250"/>
<path d="M71.3709 25.9069C69.7827 19.9884 65.7025 15.0399 60.1763 12.3303C59.4486 11.9733 59.1478 11.0941 59.5047 10.3664C59.8615 9.63862 60.7411 9.33805 61.4686 9.69478C67.7556 12.7774 72.3982 18.4094 74.206 25.146C74.4161 25.9288 73.9518 26.7338 73.1688 26.944C72.3865 27.154 71.5811 26.6902 71.3709 25.9069Z" fill="#FFEAC8"/>
<path d="M44.0957 91.5497V92.625C44.0957 95.8848 46.7627 98.5518 50.0222 98.5518C53.2817 98.5518 55.9487 95.8848 55.9487 92.625V91.5497H44.0957Z" fill="#8479C2"/>
<path d="M49.4011 92.6248V91.5496H44.0957V92.6248C44.0957 95.8845 46.7627 98.5515 50.0222 98.5515C50.9744 98.5515 51.8754 98.3226 52.6749 97.9191C50.7382 96.9412 49.4011 94.9322 49.4011 92.6248Z" fill="#6E60B8"/>
<path d="M12.3005 32.583H7.25181C6.44129 32.583 5.78418 31.9259 5.78418 31.1154C5.78418 30.3049 6.44129 29.6478 7.25181 29.6478H12.3005C13.111 29.6478 13.7681 30.3049 13.7681 31.1154C13.7681 31.9259 13.111 32.583 12.3005 32.583Z" fill="#FFC250"/>
<path d="M13.7414 23.2696L9.02107 21.4781C8.26319 21.1905 7.88199 20.343 8.16965 19.5853C8.4573 18.8276 9.30462 18.4466 10.0625 18.7339L14.7828 20.5254C15.5407 20.813 15.9219 21.6605 15.6342 22.4182C15.3468 23.1755 14.4999 23.5571 13.7414 23.2696Z" fill="#FFC250"/>
<path d="M8.16962 42.6455C7.88197 41.8877 8.26336 41.0401 9.02105 40.7527L13.7414 38.9612C14.4989 38.6737 15.3466 39.0547 15.6342 39.8126C15.9219 40.5705 15.5405 41.418 14.7828 41.7055L10.0625 43.497C9.3044 43.7844 8.45728 43.4032 8.16962 42.6455Z" fill="#FFC250"/>
<path d="M92.7934 32.583H87.7445C86.934 32.583 86.2769 31.9259 86.2769 31.1154C86.2769 30.3049 86.934 29.6478 87.7445 29.6478H92.7934C93.6039 29.6478 94.261 30.3049 94.261 31.1154C94.261 31.9259 93.6039 32.583 92.7934 32.583Z" fill="#FFC250"/>
<path d="M84.4108 22.4183C84.1232 21.6604 84.5046 20.8129 85.2623 20.5254L89.9826 18.7339C90.7401 18.4467 91.5878 18.8275 91.8754 19.5854C92.1631 20.3433 91.7817 21.1908 91.024 21.4782L86.3037 23.2697C85.5458 23.5572 84.6985 23.176 84.4108 22.4183Z" fill="#FFC250"/>
<path d="M89.9816 43.4969L85.2613 41.7054C84.5034 41.4178 84.1222 40.5703 84.4099 39.8126C84.6975 39.0549 85.5449 38.6737 86.3027 38.9612L91.023 40.7527C91.7809 41.0403 92.1621 41.8878 91.8745 42.6455C91.5868 43.4028 90.7401 43.7844 89.9816 43.4969Z" fill="#FFC250"/>
<path d="M60.0838 84.3376H39.9607C38.5565 84.3376 37.4141 85.48 37.4141 86.8842V89.052C37.4141 90.4563 38.5565 91.5987 39.9607 91.5987H60.0836C61.4878 91.5987 62.6302 90.4563 62.6302 89.052V86.8842C62.6304 85.48 61.488 84.3376 60.0838 84.3376Z" fill="#EFECEF"/>
<path d="M60.0838 87.9681H39.9607C38.8107 87.9681 37.8373 87.2016 37.5223 86.153C37.4526 86.3848 37.4141 86.63 37.4141 86.8842V89.052C37.4141 90.4563 38.5565 91.5987 39.9607 91.5987H60.0836C61.4878 91.5987 62.6302 90.4563 62.6302 89.052V86.8842C62.6302 86.63 62.5917 86.3848 62.522 86.153C62.2069 87.2014 61.2336 87.9681 60.0838 87.9681Z" fill="#E2DFE2"/>
<path d="M62.04 77.1743H38.0056C36.6014 77.1743 35.459 78.3167 35.459 79.7209V81.8887C35.459 83.293 36.6014 84.4354 38.0056 84.4354H62.04C63.4443 84.4354 64.5867 83.293 64.5867 81.8887V79.7209C64.5867 78.3167 63.4443 77.1743 62.04 77.1743Z" fill="#EFECEF"/>
<path d="M62.04 80.8048H38.0056C36.8558 80.8048 35.8824 80.0383 35.5672 78.9894C35.4975 79.2213 35.459 79.4665 35.459 79.7207V81.8885C35.459 83.2928 36.6014 84.4352 38.0056 84.4352H62.04C63.4443 84.4352 64.5867 83.2928 64.5867 81.8885V79.7207C64.5867 79.4665 64.5481 79.2213 64.4785 78.9894C64.1634 80.0383 63.1901 80.8048 62.04 80.8048Z" fill="#E2DFE2"/>
<path d="M62.04 70.0111H38.0056C36.6014 70.0111 35.459 71.1535 35.459 72.5577V74.7255C35.459 76.1298 36.6014 77.2722 38.0056 77.2722H62.04C63.4443 77.2722 64.5867 76.1298 64.5867 74.7255V72.5577C64.5867 71.1535 63.4443 70.0111 62.04 70.0111Z" fill="#EFECEF"/>
<path d="M62.04 73.6417H38.0056C36.8558 73.6417 35.8824 72.8752 35.5672 71.8265C35.4975 72.0584 35.459 72.3036 35.459 72.5578V74.7256C35.459 76.1298 36.6014 77.2722 38.0056 77.2722H62.04C63.4443 77.2722 64.5867 76.1298 64.5867 74.7256V72.5578C64.5867 72.3036 64.5481 72.0584 64.4785 71.8265C64.1634 72.8752 63.1901 73.6417 62.04 73.6417Z" fill="#E2DFE2"/>
<path d="M61.4236 9.67564C60.6957 9.31871 59.8165 9.61948 59.4597 10.3472C59.103 11.075 59.4036 11.9542 60.1315 12.3111C65.6576 15.021 69.7381 19.9694 71.326 25.8877C71.5364 26.6713 72.342 27.135 73.124 26.9249C73.9069 26.7149 74.3713 25.9098 74.1613 25.1269C72.3534 18.3901 67.7106 12.7583 61.4236 9.67564Z" fill="black"/>
<path d="M13.7232 31.0962C13.7232 30.2857 13.0663 29.6286 12.2556 29.6286H7.20689C6.39617 29.6286 5.73926 30.2857 5.73926 31.0962C5.73926 31.9068 6.39617 32.5639 7.20689 32.5639H12.2556C13.0663 32.5639 13.7232 31.9068 13.7232 31.0962Z" fill="black"/>
<path d="M14.7379 20.506L10.0176 18.7145C9.26028 18.4272 8.41238 18.808 8.12473 19.5659C7.83707 20.3238 8.21826 21.1713 8.97615 21.4588L13.6965 23.2502C14.4553 23.5379 15.302 23.1559 15.5893 22.3988C15.8768 21.6411 15.4958 20.7936 14.7379 20.506Z" fill="black"/>
<path d="M13.6964 38.9418L8.97607 40.7333C8.21818 41.021 7.83719 41.8685 8.12465 42.6262C8.41191 43.3837 9.25884 43.7653 10.0175 43.4776L14.7378 41.6861C15.4957 41.3984 15.8767 40.5509 15.5892 39.7933C15.3018 39.0354 14.4541 38.6546 13.6964 38.9418Z" fill="black"/>
<path d="M92.7484 29.6286H87.6996C86.8888 29.6286 86.2319 30.2857 86.2319 31.0962C86.2319 31.9068 86.8888 32.5639 87.6996 32.5639H92.7484C93.5591 32.5639 94.216 31.9068 94.216 31.0962C94.216 30.2857 93.5591 29.6286 92.7484 29.6286Z" fill="black"/>
<path d="M86.2587 23.2505L90.979 21.459C91.7369 21.1713 92.1179 20.3238 91.8304 19.5661C91.543 18.808 90.6951 18.4274 89.9376 18.7147L85.2173 20.5062C84.4594 20.7938 84.0784 21.6413 84.3659 22.399C84.6531 23.1563 85.5 23.5379 86.2587 23.2505Z" fill="black"/>
<path d="M90.9781 40.7334L86.2578 38.9419C85.5003 38.6546 84.6524 39.0354 84.365 39.7933C84.0773 40.5512 84.4585 41.3987 85.2164 41.6862L89.9367 43.4777C90.6956 43.7653 91.5423 43.3833 91.8296 42.6262C92.1172 41.8685 91.736 41.021 90.9781 40.7334Z" fill="black"/>
<path d="M53.2394 2.92645C66.4937 4.4025 77.0198 14.6605 78.8373 27.8718C78.9473 28.6719 79.6844 29.2361 80.4912 29.1257C81.2943 29.0153 81.8556 28.2747 81.745 27.4718C80.7822 20.4714 77.4538 13.8854 72.3733 8.92713C67.2841 3.96026 60.6042 0.793293 53.5643 0.00918391C52.7584 -0.0800484 52.0328 0.499766 51.9432 1.3054C51.8536 2.11103 52.4338 2.83663 53.2394 2.92645Z" fill="black"/>
<path d="M80.5887 33.0584C79.7848 32.9905 79.0706 33.5879 79.0015 34.3955C78.2039 43.722 72.9059 52.1531 64.8292 56.9484C62.769 58.1716 61.4891 60.4057 61.4891 62.779V68.573H55.278V56.9061C55.278 56.2322 55.505 55.5672 55.9171 55.0338L58.0174 52.3146C58.8242 51.27 59.2686 49.9677 59.2686 48.6478V38.036C60.079 38.0356 60.7355 37.3787 60.7355 36.5684C60.7355 35.7581 60.079 35.1011 59.2686 35.1008V34.9407C59.2686 34.1302 58.6117 33.473 57.801 33.473C56.9903 33.473 56.3334 34.1302 56.3334 34.9407V35.1006H43.6217V34.9407C43.6217 34.1302 42.9648 33.473 42.154 33.473C41.3433 33.473 40.6864 34.1302 40.6864 34.9407V35.1006C39.8761 35.1009 39.2194 35.7579 39.2194 36.5682C39.2194 37.3785 39.8761 38.0354 40.6864 38.0358V48.6476C40.6864 49.9675 41.1308 51.2698 41.9376 52.3144L44.0379 55.0334C44.4498 55.567 44.677 56.232 44.677 56.9059V68.5728H38.466V62.779C38.466 60.4 37.2056 58.1773 35.1765 56.9781C26.3347 51.7527 20.8422 42.1354 20.842 31.8794C20.8418 17.0259 31.9655 4.57941 46.7166 2.92764C47.5221 2.83743 48.1019 2.11124 48.0117 1.3058C47.9215 0.500363 47.1978 -0.0798425 46.3898 0.0105638C38.6122 0.881557 31.4241 4.58548 26.1498 10.4402C20.8342 16.3408 17.9065 23.9547 17.9067 31.8794C17.9071 43.5759 24.1906 53.8949 33.6828 59.505C34.8225 60.1785 35.5305 61.4331 35.5305 62.7788V69.4111C34.5981 70.1373 33.9948 71.2674 33.9948 72.538V74.7058C33.9948 75.6519 34.329 76.521 34.8842 77.2035C34.329 77.8859 33.9948 78.7549 33.9948 79.7012V81.869C33.9948 83.4323 34.9063 84.7832 36.2238 85.4285C36.0499 85.8745 35.9506 86.3576 35.9506 86.8645V89.0322C35.9506 91.2186 37.7294 92.9976 39.916 92.9976H42.5938C42.7984 96.8931 46.0319 99.9994 49.9775 99.9994C53.9229 99.9994 57.1564 96.8929 57.3611 92.9976H60.0389C62.2254 92.9976 64.0042 91.2188 64.0042 89.0322V86.8645C64.0042 86.3576 63.905 85.8745 63.731 85.4285C65.0484 84.7832 65.9601 83.4323 65.9601 81.869V79.7012C65.9601 78.7551 65.6259 77.886 65.0707 77.2035C65.6259 76.5211 65.9601 75.6521 65.9601 74.7058V72.538C65.9601 71.2672 65.3568 70.1371 64.4243 69.4111V62.7786C64.4243 61.4362 65.1539 60.1691 66.328 59.4719C75.2169 54.1941 81.0482 44.9132 81.9262 34.6452C81.9949 33.838 81.3961 33.1275 80.5887 33.0584ZM44.2602 50.5207C43.8483 49.9873 43.6213 49.3223 43.6213 48.6482V38.0364H56.333V48.6482C56.333 49.3223 56.1062 49.9873 55.6941 50.5205L53.5938 53.2397C52.7868 54.2845 52.3424 55.5868 52.3424 56.9065V68.5734H47.6117V56.9065C47.6117 55.5868 47.1673 54.2845 46.3603 53.2397L44.2602 50.5207ZM49.9771 97.0647C47.6506 97.0647 45.7347 95.2738 45.5355 92.9982H54.419C54.2198 95.2736 52.3038 97.0647 49.9771 97.0647ZM61.0687 89.0328C61.0687 89.6007 60.6067 90.0629 60.0387 90.0629C57.5906 90.0629 41.7228 90.0629 39.9158 90.0629C39.3479 90.0629 38.8857 89.6009 38.8857 89.0328V86.865C38.8857 86.2972 39.3477 85.835 39.9158 85.835H60.0387C60.6065 85.835 61.0687 86.297 61.0687 86.865V89.0328ZM63.0246 81.8696C63.0246 82.4377 62.5626 82.8997 61.9943 82.8997C60.8717 82.8997 38.6683 82.8997 37.9601 82.8997C37.3921 82.8997 36.9298 82.4377 36.9298 81.8696V79.7018C36.9298 79.1339 37.3919 78.6717 37.9601 78.6717H61.9943C62.5624 78.6717 63.0246 79.1337 63.0246 79.7018V81.8696ZM63.0246 74.7064C63.0246 75.2742 62.5626 75.7365 61.9943 75.7365H37.9601C37.3921 75.7365 36.9298 75.2744 36.9298 74.7064V72.5386C36.9298 71.9541 37.4202 71.5085 37.9601 71.5085H61.9943C62.5579 71.5085 63.0246 71.9746 63.0246 72.5386V74.7064Z" fill="black"/>
</svg>
