<svg width="100" height="100" viewBox="0 0 100 100" fill="none" xmlns="http://www.w3.org/2000/svg">
<g clip-path="url(#clip0_42_883)">
<path d="M16.8906 51.9395H83.0507V98.5352H16.8906V51.9395Z" fill="#FFC54B"/>
<path d="M83.0507 51.9395V98.5352H16.8906V93.793H75.541C77.0605 93.793 78.291 92.5606 78.291 91.043V59.4316C78.291 57.9141 77.0605 56.6836 75.541 56.6836H16.8906V51.9395H83.0507Z" fill="#FEAC38"/>
<path d="M67.0713 39.3555H55.8018V31.7754C60.667 24.0566 65.3623 20.4199 69.3408 19.3613C82.167 15.9492 87.5381 39.3555 67.0713 39.3555Z" fill="#F55C80"/>
<path d="M67.0718 39.3555H62.189C79.8003 39.3555 78.2807 22.0254 69.3413 19.3613C82.1675 15.9492 87.5385 39.3555 67.0718 39.3555Z" fill="#CC5466"/>
<path d="M32.8696 39.3555H44.1391V31.7754C39.2739 24.0566 34.5786 20.4199 30.6001 19.3613C17.7739 15.9492 12.4028 39.3555 32.8696 39.3555Z" fill="#F55C80"/>
<path d="M32.8696 39.3555H37.7524C20.1411 39.3555 21.6606 22.0254 30.6001 19.3613C17.7739 15.9492 12.4028 39.3555 32.8696 39.3555Z" fill="#CC5466"/>
<path d="M56.3344 39.3563H43.6055V34.3198C43.6055 30.8118 46.4492 27.968 49.9572 27.968H49.9828C53.4908 27.968 56.3346 30.8118 56.3346 34.3198V39.3563H56.3344Z" fill="#CC5466"/>
<path d="M49.9702 19.9961C55.0902 19.9961 59.2407 15.8477 59.2407 10.7305C59.2407 5.61321 55.0902 1.46484 49.9702 1.46484C44.8503 1.46484 40.6997 5.61321 40.6997 10.7305C40.6997 15.8477 44.8503 19.9961 49.9702 19.9961Z" fill="#FFE26F"/>
<path d="M10.7353 19.9961C15.8553 19.9961 20.0058 15.8477 20.0058 10.7305C20.0058 5.61321 15.8553 1.46484 10.7353 1.46484C5.61539 1.46484 1.46484 5.61321 1.46484 10.7305C1.46484 15.8477 5.61539 19.9961 10.7353 19.9961Z" fill="#FFE26F"/>
<path d="M89.2647 19.9961C94.3846 19.9961 98.5352 15.8477 98.5352 10.7305C98.5352 5.61321 94.3846 1.46484 89.2647 1.46484C84.1447 1.46484 79.9941 5.61321 79.9941 10.7305C79.9941 15.8477 84.1447 19.9961 89.2647 19.9961Z" fill="#FFE26F"/>
<path d="M11.8647 39.3563H88.0761V51.94H11.8647V39.3563Z" fill="#FFE8A7"/>
<path d="M11.8647 45.6479H88.0761V51.9401H11.8647V45.6479Z" fill="#FFE26F"/>
<path d="M16.8906 70.1602H83.0507V79.9258H16.8906V70.1602Z" fill="#CC5466"/>
<path d="M78.291 70.1602H83.0507V79.9258H78.291V70.1602Z" fill="#AA3163"/>
<path d="M45.084 39.3555H54.8555V98.5352H45.084V39.3555Z" fill="#F55C80"/>
<path d="M45.084 51.9395H54.8555V56.6836H45.084V51.9395Z" fill="#CC5466"/>
<path d="M45.084 93.793H54.8555V98.5352H45.084V93.793Z" fill="#CC5466"/>
<path d="M88.076 37.8915H77.6047C79.9381 36.179 81.4512 33.7975 81.9817 31.0012C82.4627 28.4653 82.0831 25.7731 80.9124 23.4206C79.7024 20.9891 77.7493 19.1434 75.4126 18.2241C72.4626 17.0631 64.828 15.9288 55.8028 29.1073C54.3706 27.51 52.2923 26.5034 49.9831 26.5034H49.9575C47.6493 26.5034 45.5716 27.5092 44.1395 29.1053C35.1149 15.9286 27.4808 17.0627 24.5311 18.2239C22.1946 19.1432 20.2413 20.9889 19.0313 23.4204C17.8608 25.7731 17.481 28.4651 17.962 31.001C18.4925 33.7973 20.0056 36.1788 22.3392 37.8913H11.8647C11.0558 37.8913 10.3999 38.5469 10.3999 39.3561V51.9401C10.3999 52.7493 11.0558 53.4049 11.8647 53.4049H15.4253V86.0542C15.4253 86.8633 16.0811 87.519 16.8901 87.519C17.6991 87.519 18.355 86.8633 18.355 86.0542V81.3899H43.6202V97.0704H18.355V92.7954C18.355 91.9862 17.6991 91.3305 16.8901 91.3305C16.0811 91.3305 15.4253 91.9862 15.4253 92.7954V98.5352C15.4253 99.3444 16.0811 100 16.8901 100H83.0506C83.8598 100 84.5155 99.3444 84.5155 98.5352V53.4051H88.0758C88.885 53.4051 89.5407 52.7495 89.5407 51.9403V39.3563C89.5409 38.5471 88.8852 37.8915 88.076 37.8915ZM67.0635 21.8743C69.6725 20.4231 72.1885 20.1032 74.3397 20.95C77.7663 22.2983 79.8587 26.4735 79.1034 30.4551C78.7112 32.5225 77.5825 34.2854 75.8389 35.5534C73.7055 37.1049 70.7561 37.8917 67.0723 37.8917H57.7999V34.32C57.7999 33.493 57.6708 32.6959 57.4317 31.9473C60.5973 27.0569 63.8356 23.6698 67.0635 21.8743ZM53.3909 50.4754H46.5499V40.8211H53.3909V50.4754ZM49.9575 29.4329H49.9831C52.6776 29.4329 54.87 31.6252 54.87 34.3198V37.8915H45.0708V34.3198C45.0708 31.6252 47.263 29.4329 49.9575 29.4329ZM24.1048 35.5532C22.3612 34.2854 21.2325 32.5223 20.8403 30.4549C20.0851 26.4733 22.1774 22.2981 25.604 20.9499C27.7552 20.1034 30.2712 20.4231 32.8802 21.8741C36.1073 23.6692 39.345 27.0553 42.5102 31.9438C42.2706 32.6932 42.1411 33.4915 42.1411 34.3196V37.8913H32.8716C29.1878 37.8915 26.2382 37.1049 24.1048 35.5532ZM21.6712 53.4051C22.4802 53.4051 23.136 52.7495 23.136 51.9403C23.136 51.1311 22.4802 50.4754 21.6712 50.4754H13.3296V40.8211H43.6202V50.4754H28.5557C27.7468 50.4754 27.0909 51.1311 27.0909 51.9403C27.0909 52.7495 27.7468 53.4051 28.5557 53.4051H43.6202V68.6948H18.355V53.4051H21.6712ZM18.355 78.4604V71.6245H43.6202V78.4604H18.355ZM46.5499 97.0704V53.4051H53.3909V97.0704H46.5499ZM56.3206 97.0704V81.3901H62.1024C62.9114 81.3901 63.5673 80.7344 63.5673 79.9253C63.5673 79.1161 62.9114 78.4604 62.1024 78.4604H56.3206V71.6245H81.5858V78.4604H68.9823C68.1733 78.4604 67.5174 79.1161 67.5174 79.9253C67.5174 80.7344 68.1733 81.3901 68.9823 81.3901H81.5858V97.0704H56.3206ZM81.586 68.6948H56.3206V53.4051H81.5858V68.6948H81.586ZM86.6112 50.4754H56.3206V40.8211H86.6112V50.4754Z" fill="black"/>
<path d="M40.6997 12.1953C45.0038 12.1953 48.5054 15.6947 48.5054 19.9959C48.5054 20.8051 49.1612 21.4607 49.9702 21.4607C50.7792 21.4607 51.4351 20.8051 51.4351 19.9959C51.4351 15.6947 54.9366 12.1953 59.2405 12.1953C60.0495 12.1953 60.7054 11.5397 60.7054 10.7305C60.7054 9.92129 60.0495 9.26563 59.2405 9.26563C54.9364 9.26563 51.4351 5.76621 51.4351 1.46484C51.4351 0.655664 50.7792 0 49.9702 0C49.1612 0 48.5054 0.655664 48.5054 1.46484C48.5054 5.76621 45.0038 9.26563 40.6997 9.26563C39.8907 9.26563 39.2349 9.92129 39.2349 10.7305C39.2349 11.5397 39.8905 12.1953 40.6997 12.1953ZM49.97 6.87168C50.9036 8.46465 52.2366 9.79727 53.8302 10.7307C52.2366 11.6639 50.9036 12.9967 49.97 14.5897C49.0364 12.9967 47.7034 11.6641 46.1097 10.7307C47.7034 9.79727 49.0366 8.46465 49.97 6.87168Z" fill="black"/>
<path d="M12.2 19.996C12.2 15.6949 15.7016 12.1954 20.0055 12.1954C20.8145 12.1954 21.4703 11.5398 21.4703 10.7306C21.4703 9.92142 20.8145 9.26575 20.0055 9.26575C15.7014 9.26575 12.2 5.76634 12.2 1.46497C12.2 0.655787 11.5441 0.00012207 10.7352 0.00012207C9.92617 0.00012207 9.27032 0.655787 9.27032 1.46497C9.27032 5.76634 5.76875 9.26575 1.46484 9.26575C0.655859 9.26575 0 9.92142 0 10.7306C0 11.5398 0.655859 12.1954 1.46484 12.1954C5.76895 12.1954 9.27032 15.6949 9.27032 19.996C9.27032 20.8052 9.92617 21.4609 10.7352 21.4609C11.5441 21.4609 12.2 20.805 12.2 19.996ZM6.87481 10.7304C8.46836 9.7972 9.80137 8.46439 10.735 6.87142C11.6686 8.46439 13.0016 9.797 14.5951 10.7304C13.0016 11.6636 11.6686 12.9964 10.735 14.5894C9.80157 12.9964 8.46856 11.6638 6.87481 10.7304Z" fill="black"/>
<path d="M98.5349 9.26563C94.231 9.26563 90.7295 5.76621 90.7295 1.46484C90.7295 0.655664 90.0738 0 89.2646 0C88.4554 0 87.7998 0.655664 87.7998 1.46484C87.7998 5.76621 84.2982 9.26563 79.9941 9.26563C79.185 9.26563 78.5293 9.92129 78.5293 10.7305C78.5293 11.5397 79.185 12.1953 79.9941 12.1953C84.2982 12.1953 87.7998 15.6947 87.7998 19.9959C87.7998 20.8051 88.4554 21.4607 89.2646 21.4607C90.0738 21.4607 90.7295 20.8051 90.7295 19.9959C90.7295 15.6947 94.231 12.1953 98.5349 12.1953C99.3441 12.1953 99.9998 11.5397 99.9998 10.7305C99.9998 9.92129 99.3439 9.26563 98.5349 9.26563ZM89.2646 14.5895C88.331 12.9965 86.998 11.6639 85.4043 10.7305C86.9978 9.79727 88.3308 8.46445 89.2646 6.87149C90.198 8.46445 91.531 9.79707 93.1248 10.7305C91.531 11.6639 90.198 12.9965 89.2646 14.5895Z" fill="black"/>
</g>
<defs>
<clipPath id="clip0_42_883">
<rect width="100" height="100" fill="white"/>
</clipPath>
</defs>
</svg>
