<svg width="150" height="149" viewBox="0 0 150 149" fill="none" xmlns="http://www.w3.org/2000/svg">
<path d="M69.5136 149C65.7837 148.725 62.0795 148.173 58.432 147.349L60.3603 138.905C63.5844 139.635 66.859 140.123 70.1563 140.366L69.5136 149ZM91.7944 147.304L89.8389 138.86C93.0389 138.123 96.1799 137.152 99.2364 135.955L102.541 143.966L102.405 144.02C98.9613 145.365 95.4242 146.46 91.8215 147.295L91.7944 147.304ZM37.6266 139.248C34.3848 137.389 31.2859 135.294 28.3557 132.978L33.7879 126.193C36.3778 128.239 39.1166 130.091 41.9814 131.733L37.6266 139.248ZM121.825 132.851L116.393 126.085C118.972 124.028 121.393 121.781 123.636 119.364L129.973 125.246C127.452 127.978 124.728 130.517 121.825 132.842V132.851ZM13.1277 116.685C11.0159 113.611 9.14219 110.381 7.52337 107.023L15.3458 103.261C16.7844 106.227 18.4428 109.083 20.3072 111.804L13.1277 116.685ZM142.594 106.824L134.763 103.08C136.192 100.108 137.403 97.0352 138.384 93.8873L146.686 96.4404C145.574 99.9946 144.2 103.462 142.576 106.815L142.594 106.824ZM0.90536 85.7769C0.323556 82.0909 0.0209152 78.3666 0 74.6353H8.69132C8.69896 77.9278 8.9563 81.2149 9.46097 84.4688L0.90536 85.7769ZM141.308 74.4278C141.308 71.1358 141.057 67.8485 140.557 64.5943L149.149 63.2862C149.717 66.97 150.002 70.6917 150 74.4188L141.308 74.4278ZM11.6337 55.1758L3.3226 52.6408C4.42112 49.078 5.78289 45.6012 7.39672 42.2389L15.228 45.9828C13.8005 48.9531 12.5991 52.0261 11.6337 55.1758ZM134.69 45.8024C133.26 42.8351 131.607 39.9792 129.747 37.259L136.927 32.3783C139.03 35.4589 140.901 38.6916 142.522 42.0495L134.69 45.8024ZM26.3096 29.6899L19.9721 23.8169C22.4926 21.0787 25.2163 18.5334 28.1203 16.2027L33.5525 22.9598C30.9722 25.0091 28.551 27.2498 26.3096 29.6628V29.6899ZM116.303 22.8516C113.72 20.7919 110.984 18.9311 108.118 17.2853L112.455 9.77934C115.698 11.6479 118.794 13.759 121.717 16.0944L116.303 22.8516ZM50.6549 13.0902L47.4317 5.05205L47.5677 4.98889C51.0575 3.62448 54.6432 2.51787 58.296 1.678L60.2427 10.1222C57.0174 10.8604 53.8518 11.8375 50.7724 13.0451L50.6549 13.0902ZM89.721 10.1131C86.4965 9.38157 83.2225 8.88705 79.9252 8.63358L80.577 0C84.3075 0.280685 88.0116 0.838544 91.6586 1.66897L89.721 10.1131Z" fill="#EEEEEE"/>
<path d="M56.9258 95.8789C53.5664 95.8659 50.6758 95.0391 48.2539 93.3984C45.8451 91.7578 43.9896 89.3815 42.6875 86.2695C41.3984 83.1576 40.7604 79.4141 40.7734 75.0391C40.7734 70.6771 41.418 66.9596 42.707 63.8867C44.0091 60.8138 45.8646 58.4766 48.2734 56.875C50.6953 55.2604 53.5794 54.4531 56.9258 54.4531C60.2721 54.4531 63.1497 55.2604 65.5586 56.875C67.9805 58.4896 69.8424 60.8333 71.1445 63.9062C72.4466 66.9661 73.0911 70.6771 73.0781 75.0391C73.0781 79.4271 72.4271 83.1771 71.125 86.2891C69.8359 89.401 67.987 91.7773 65.5781 93.418C63.1693 95.0586 60.2852 95.8789 56.9258 95.8789ZM56.9258 88.8672C59.2174 88.8672 61.0469 87.7148 62.4141 85.4102C63.7813 83.1055 64.4583 79.6484 64.4453 75.0391C64.4453 72.0052 64.1328 69.4792 63.5078 67.4609C62.8958 65.4427 62.0234 63.9258 60.8906 62.9102C59.7708 61.8945 58.4492 61.3867 56.9258 61.3867C54.6471 61.3867 52.8242 62.526 51.457 64.8047C50.0898 67.0833 49.3997 70.4948 49.3867 75.0391C49.3867 78.112 49.6927 80.6771 50.3047 82.7344C50.9297 84.7786 51.8086 86.3151 52.9414 87.3437C54.0742 88.3594 55.4023 88.8672 56.9258 88.8672ZM79.1084 95V88.9062L93.3467 75.7227C94.5576 74.5508 95.5732 73.4961 96.3936 72.5586C97.2269 71.6211 97.8584 70.7031 98.2881 69.8047C98.7178 68.8932 98.9326 67.9102 98.9326 66.8555C98.9326 65.6836 98.6657 64.6745 98.1318 63.8281C97.598 62.9687 96.8688 62.3112 95.9443 61.8555C95.0199 61.3867 93.9717 61.1523 92.7998 61.1523C91.5758 61.1523 90.5081 61.3997 89.5967 61.8945C88.6852 62.3893 87.9821 63.099 87.4873 64.0234C86.9925 64.9479 86.7451 66.0482 86.7451 67.3242H78.7178C78.7178 64.707 79.3102 62.4349 80.4951 60.5078C81.68 58.5807 83.3402 57.0898 85.4756 56.0352C87.611 54.9805 90.0719 54.4531 92.8584 54.4531C95.723 54.4531 98.2165 54.9609 100.339 55.9766C102.474 56.9792 104.134 58.3724 105.319 60.1562C106.504 61.9401 107.097 63.9844 107.097 66.2891C107.097 67.7995 106.797 69.2904 106.198 70.7617C105.612 72.2331 104.564 73.8672 103.054 75.6641C101.543 77.4479 99.4144 79.5898 96.667 82.0898L90.8271 87.8125V88.0859H107.624V95H79.1084Z" fill="#FF3465"/>
</svg>
