<svg width="150" height="149" viewBox="0 0 150 149" fill="none" xmlns="http://www.w3.org/2000/svg">
<path d="M69.5136 149C65.7837 148.725 62.0795 148.173 58.432 147.349L60.3603 138.905C63.5844 139.635 66.859 140.123 70.1563 140.366L69.5136 149ZM91.7944 147.304L89.8389 138.86C93.0389 138.123 96.1799 137.152 99.2364 135.955L102.541 143.966L102.405 144.02C98.9613 145.365 95.4242 146.46 91.8215 147.295L91.7944 147.304ZM37.6266 139.248C34.3848 137.389 31.2859 135.294 28.3557 132.978L33.7879 126.193C36.3778 128.239 39.1166 130.091 41.9814 131.733L37.6266 139.248ZM121.825 132.851L116.393 126.085C118.972 124.028 121.393 121.781 123.636 119.364L129.973 125.246C127.452 127.978 124.728 130.517 121.825 132.842V132.851ZM13.1277 116.685C11.0159 113.611 9.14219 110.381 7.52337 107.023L15.3458 103.261C16.7844 106.227 18.4428 109.083 20.3072 111.804L13.1277 116.685ZM142.594 106.824L134.763 103.08C136.192 100.108 137.403 97.0352 138.384 93.8873L146.686 96.4404C145.574 99.9946 144.2 103.462 142.576 106.815L142.594 106.824ZM0.90536 85.7769C0.323556 82.0909 0.0209152 78.3666 0 74.6353H8.69132C8.69896 77.9278 8.9563 81.2149 9.46097 84.4688L0.90536 85.7769ZM141.308 74.4278C141.308 71.1358 141.057 67.8485 140.557 64.5943L149.149 63.2862C149.717 66.97 150.002 70.6917 150 74.4188L141.308 74.4278ZM11.6337 55.1758L3.3226 52.6408C4.42112 49.078 5.78289 45.6012 7.39672 42.2389L15.228 45.9828C13.8005 48.9531 12.5991 52.0261 11.6337 55.1758ZM134.69 45.8024C133.26 42.8351 131.607 39.9792 129.747 37.259L136.927 32.3783C139.03 35.4589 140.901 38.6916 142.522 42.0495L134.69 45.8024ZM26.3096 29.6899L19.9721 23.8169C22.4926 21.0787 25.2163 18.5334 28.1203 16.2027L33.5525 22.9598C30.9722 25.0091 28.551 27.2498 26.3096 29.6628V29.6899ZM116.303 22.8516C113.72 20.7919 110.984 18.9311 108.118 17.2853L112.455 9.77934C115.698 11.6479 118.794 13.759 121.717 16.0944L116.303 22.8516ZM50.6549 13.0902L47.4317 5.05205L47.5677 4.98889C51.0575 3.62448 54.6432 2.51787 58.296 1.678L60.2427 10.1222C57.0174 10.8604 53.8518 11.8375 50.7724 13.0451L50.6549 13.0902ZM89.721 10.1131C86.4965 9.38157 83.2225 8.88705 79.9252 8.63358L80.577 0C84.3075 0.280685 88.0116 0.838544 91.6586 1.66897L89.721 10.1131Z" fill="#EEEEEE"/>
<path d="M55.9258 95.8789C65.9844 95.8789 72.0586 88.2227 72.0781 75.0391C72.0977 61.9531 65.9453 54.4531 55.9258 54.4531C45.8867 54.4531 39.793 61.9336 39.7734 75.0391C39.7344 88.1836 45.8477 95.8594 55.9258 95.8789ZM55.9258 88.8672C51.3359 88.8672 48.3672 84.2578 48.3867 75.0391C48.4063 65.957 51.3555 61.3867 55.9258 61.3867C60.4766 61.3867 63.4453 65.957 63.4453 75.0391C63.4648 84.2578 60.4961 88.8672 55.9258 88.8672ZM92.8936 95.5469C101.878 95.5469 108.304 90.6055 108.284 83.7695C108.304 78.7891 105.14 75.2344 99.2607 74.4922V74.1797C103.733 73.3789 106.819 70.2148 106.8 65.7227C106.819 59.4141 101.292 54.4531 93.0107 54.4531C84.8076 54.4531 78.6357 59.2578 78.5186 66.1719H86.624C86.7217 63.125 89.5146 61.1523 92.9717 61.1523C96.3896 61.1523 98.6748 63.2227 98.6553 66.2305C98.6748 69.375 95.999 71.5039 92.1514 71.5039H88.4209V77.7148H92.1514C96.6826 77.7148 99.5146 79.9805 99.4951 83.2031C99.5146 86.3867 96.7803 88.5742 92.9131 88.5742C89.1826 88.5742 86.3896 86.6211 86.2334 83.6914H77.7178C77.8545 90.6836 84.1045 95.5469 92.8936 95.5469Z" fill="#FF3465"/>
</svg>
