<svg width="48" height="48" viewBox="0 0 48 48" fill="none" xmlns="http://www.w3.org/2000/svg">
<rect width="48" height="48" rx="24" fill="#FFEDF1"/>
<g clip-path="url(#clip0_80_1676)">
<path d="M24.4892 14.6939C20.0969 14.6939 16.5361 18.2547 16.5361 22.647C16.5361 26.6316 21.4913 31.874 23.5795 33.9065C24.091 34.4032 24.8996 34.4136 25.421 33.9268C27.5217 31.9686 32.4424 26.924 32.4424 22.6466C32.4419 18.2547 28.8816 14.6939 24.4892 14.6939ZM24.4892 25.2311C22.6732 25.2311 21.2019 23.7598 21.2019 21.9442C21.2019 20.1286 22.6732 18.6569 24.4892 18.6569C26.3048 18.6569 27.7757 20.1282 27.7757 21.9442C27.7757 23.7602 26.3048 25.2311 24.4892 25.2311Z" fill="#FF3465"/>
</g>
<defs>
<clipPath id="clip0_80_1676">
<rect width="19.5918" height="19.5918" fill="white" transform="translate(14.6934 14.6939)"/>
</clipPath>
</defs>
</svg>
