<svg width="1920" height="460" viewBox="0 0 1920 460" fill="none" xmlns="http://www.w3.org/2000/svg">
<path d="M1861.76 301H1858.31V304.881H1861.76V301Z" fill="#77458F"/>
<path d="M1861.76 309.194H1858.31V313.075H1861.76V309.194Z" fill="#77458F"/>
<path d="M1866.07 305.313H1862.19V308.762H1866.07V305.313Z" fill="#77458F"/>
<path d="M1857.88 305.313H1854V308.762H1857.88V305.313Z" fill="#77458F"/>
<path d="M1804 342H1800V346H1804V342Z" fill="#F1E9DA"/>
<path d="M1724.5 276C1723.81 276 1723.13 275.795 1722.56 275.41C1721.98 275.026 1721.53 274.479 1721.27 273.839C1721 273.2 1720.93 272.496 1721.07 271.817C1721.2 271.138 1721.54 270.515 1722.03 270.025C1722.51 269.536 1723.14 269.202 1723.82 269.067C1724.5 268.932 1725.2 269.002 1725.84 269.266C1726.48 269.531 1727.03 269.98 1727.41 270.556C1727.79 271.131 1728 271.808 1728 272.5C1728 273.428 1727.63 274.317 1726.97 274.973C1726.32 275.629 1725.43 275.998 1724.5 276V276ZM1724.5 270.75C1724.15 270.75 1723.82 270.853 1723.53 271.045C1723.24 271.237 1723.02 271.511 1722.88 271.83C1722.75 272.15 1722.72 272.502 1722.78 272.841C1722.85 273.181 1723.02 273.493 1723.26 273.737C1723.51 273.982 1723.82 274.149 1724.16 274.216C1724.5 274.284 1724.85 274.249 1725.17 274.117C1725.49 273.984 1725.76 273.76 1725.96 273.472C1726.15 273.184 1726.25 272.846 1726.25 272.5C1726.25 272.036 1726.07 271.591 1725.74 271.263C1725.41 270.934 1724.96 270.75 1724.5 270.75V270.75Z" fill="#FFF05F"/>
<path d="M1771.5 451C1770.81 451 1770.13 450.795 1769.56 450.41C1768.98 450.026 1768.53 449.479 1768.27 448.839C1768 448.2 1767.93 447.496 1768.07 446.817C1768.2 446.138 1768.54 445.515 1769.03 445.025C1769.51 444.536 1770.14 444.202 1770.82 444.067C1771.5 443.932 1772.2 444.002 1772.84 444.266C1773.48 444.531 1774.03 444.98 1774.41 445.556C1774.79 446.131 1775 446.808 1775 447.5C1775 448.428 1774.63 449.317 1773.97 449.973C1773.32 450.629 1772.43 450.998 1771.5 451V451ZM1771.5 445.75C1771.15 445.75 1770.82 445.853 1770.53 446.045C1770.24 446.237 1770.02 446.511 1769.88 446.83C1769.75 447.15 1769.72 447.502 1769.78 447.841C1769.85 448.181 1770.02 448.493 1770.26 448.737C1770.51 448.982 1770.82 449.149 1771.16 449.216C1771.5 449.284 1771.85 449.249 1772.17 449.117C1772.49 448.984 1772.76 448.76 1772.96 448.472C1773.15 448.184 1773.25 447.846 1773.25 447.5C1773.25 447.036 1773.07 446.591 1772.74 446.263C1772.41 445.934 1771.96 445.75 1771.5 445.75V445.75Z" fill="#7BFFD8"/>
<path d="M1844.5 243C1843.81 243 1843.13 242.795 1842.56 242.41C1841.98 242.026 1841.53 241.479 1841.27 240.839C1841 240.2 1840.93 239.496 1841.07 238.817C1841.2 238.138 1841.54 237.515 1842.03 237.025C1842.51 236.536 1843.14 236.202 1843.82 236.067C1844.5 235.932 1845.2 236.002 1845.84 236.266C1846.48 236.531 1847.03 236.98 1847.41 237.556C1847.79 238.131 1848 238.808 1848 239.5C1848 240.428 1847.63 241.317 1846.97 241.973C1846.32 242.629 1845.43 242.998 1844.5 243V243ZM1844.5 237.75C1844.15 237.75 1843.82 237.853 1843.53 238.045C1843.24 238.237 1843.02 238.511 1842.88 238.83C1842.75 239.15 1842.72 239.502 1842.78 239.841C1842.85 240.181 1843.02 240.493 1843.26 240.737C1843.51 240.982 1843.82 241.149 1844.16 241.216C1844.5 241.284 1844.85 241.249 1845.17 241.117C1845.49 240.984 1845.76 240.76 1845.96 240.472C1846.15 240.184 1846.25 239.846 1846.25 239.5C1846.25 239.036 1846.07 238.591 1845.74 238.263C1845.41 237.934 1844.96 237.75 1844.5 237.75V237.75Z" fill="#F1E9DA"/>
<path d="M1670.56 415C1669.13 414.674 1667.77 414.058 1666.58 413.189L1669.54 409.011C1670.18 409.475 1670.9 409.807 1671.66 409.986L1670.56 415ZM1675.98 414.857L1674.61 409.907C1675.36 409.695 1676.07 409.331 1676.69 408.836L1679.87 412.854C1678.72 413.78 1677.4 414.462 1675.98 414.857V414.857ZM1663.08 408.986C1662.44 407.645 1662.07 406.188 1662 404.7L1667.07 404.439C1667.11 405.237 1667.31 406.018 1667.66 406.736L1663.08 408.986ZM1683.14 408.461L1678.46 406.461C1678.76 405.724 1678.92 404.932 1678.92 404.132L1684 404.097V404.132C1684 405.619 1683.71 407.091 1683.14 408.461V408.461ZM1667.64 401.543L1663.06 399.318C1663.69 397.978 1664.58 396.781 1665.68 395.797L1669.05 399.643C1668.46 400.174 1667.98 400.821 1667.64 401.543V401.543ZM1678.19 401.247C1677.81 400.542 1677.29 399.923 1676.67 399.429L1679.84 395.397C1681 396.317 1681.96 397.462 1682.67 398.764L1678.19 401.247ZM1671.66 398.286L1670.51 393.286C1671.32 393.096 1672.15 393 1672.98 393C1673.61 392.997 1674.24 393.051 1674.86 393.161L1674 398.229C1673.67 398.171 1673.33 398.143 1672.99 398.143V398.143C1672.54 398.138 1672.09 398.186 1671.66 398.286Z" fill="#78458F"/>
<path d="M270 456H266V460H270V456Z" fill="#F1E9DA"/>
<path d="M116.5 276C115.808 276 115.131 275.795 114.556 275.41C113.98 275.026 113.531 274.479 113.266 273.839C113.002 273.2 112.932 272.496 113.067 271.817C113.202 271.138 113.536 270.515 114.025 270.025C114.515 269.536 115.138 269.202 115.817 269.067C116.496 268.932 117.2 269.002 117.839 269.266C118.479 269.531 119.026 269.98 119.41 270.556C119.795 271.131 120 271.808 120 272.5C119.998 273.428 119.629 274.317 118.973 274.973C118.317 275.629 117.428 275.998 116.5 276V276ZM116.5 270.75C116.154 270.75 115.816 270.853 115.528 271.045C115.24 271.237 115.016 271.511 114.883 271.83C114.751 272.15 114.716 272.502 114.784 272.841C114.851 273.181 115.018 273.493 115.263 273.737C115.507 273.982 115.819 274.149 116.159 274.216C116.498 274.284 116.85 274.249 117.17 274.117C117.489 273.984 117.763 273.76 117.955 273.472C118.147 273.184 118.25 272.846 118.25 272.5C118.25 272.036 118.066 271.591 117.737 271.263C117.409 270.934 116.964 270.75 116.5 270.75V270.75Z" fill="#FFF05F"/>
<path d="M133.5 363C132.808 363 132.131 362.795 131.556 362.41C130.98 362.026 130.531 361.479 130.266 360.839C130.002 360.2 129.932 359.496 130.067 358.817C130.202 358.138 130.536 357.515 131.025 357.025C131.515 356.536 132.138 356.202 132.817 356.067C133.496 355.932 134.2 356.002 134.839 356.266C135.479 356.531 136.026 356.98 136.41 357.556C136.795 358.131 137 358.808 137 359.5C136.998 360.428 136.629 361.317 135.973 361.973C135.317 362.629 134.428 362.998 133.5 363V363ZM133.5 357.75C133.154 357.75 132.816 357.853 132.528 358.045C132.24 358.237 132.016 358.511 131.883 358.83C131.751 359.15 131.716 359.502 131.784 359.841C131.851 360.181 132.018 360.493 132.263 360.737C132.507 360.982 132.819 361.149 133.159 361.216C133.498 361.284 133.85 361.249 134.17 361.117C134.489 360.984 134.763 360.76 134.955 360.472C135.147 360.184 135.25 359.846 135.25 359.5C135.25 359.036 135.066 358.591 134.737 358.263C134.409 357.934 133.964 357.75 133.5 357.75V357.75Z" fill="#5A2274"/>
<path d="M236.5 243C235.808 243 235.131 242.795 234.556 242.41C233.98 242.026 233.531 241.479 233.266 240.839C233.002 240.2 232.932 239.496 233.067 238.817C233.202 238.138 233.536 237.515 234.025 237.025C234.515 236.536 235.138 236.202 235.817 236.067C236.496 235.932 237.2 236.002 237.839 236.266C238.479 236.531 239.026 236.98 239.41 237.556C239.795 238.131 240 238.808 240 239.5C239.998 240.428 239.629 241.317 238.973 241.973C238.317 242.629 237.428 242.998 236.5 243V243ZM236.5 237.75C236.154 237.75 235.816 237.853 235.528 238.045C235.24 238.237 235.016 238.511 234.883 238.83C234.751 239.15 234.716 239.502 234.784 239.841C234.851 240.181 235.018 240.493 235.263 240.737C235.507 240.982 235.819 241.149 236.159 241.216C236.498 241.284 236.85 241.249 237.17 241.117C237.489 240.984 237.763 240.76 237.955 240.472C238.147 240.184 238.25 239.846 238.25 239.5C238.25 239.036 238.066 238.591 237.737 238.263C237.409 237.934 236.964 237.75 236.5 237.75V237.75Z" fill="#F1E9DA"/>
<path d="M62.5587 415C61.1253 414.674 59.7718 414.058 58.5792 413.189L61.5427 409.011C62.1769 409.475 62.8966 409.807 63.6594 409.986L62.5587 415ZM67.9811 414.857L66.6052 409.907C67.3642 409.695 68.0732 409.331 68.6902 408.836L71.8653 412.854C70.7176 413.78 69.3962 414.462 67.9811 414.857V414.857ZM55.0831 408.986C54.4417 407.645 54.0733 406.188 54 404.7L59.0731 404.439C59.1126 405.237 59.3106 406.018 59.6552 406.736L55.0831 408.986ZM75.1392 408.461L70.4577 406.461C70.7648 405.724 70.922 404.932 70.9198 404.132L76 404.097V404.132C76.0026 405.619 75.7098 407.091 75.1392 408.461V408.461ZM59.6446 401.543L55.0584 399.318C55.6906 397.978 56.582 396.781 57.6796 395.797L61.0523 399.643C60.4621 400.174 59.9835 400.821 59.6446 401.543V401.543ZM70.1895 401.247C69.8104 400.542 69.293 399.923 68.669 399.429L71.8441 395.397C72.9974 396.317 73.9571 397.462 74.6664 398.764L70.1895 401.247ZM63.6559 398.286L62.5128 393.286C63.3227 393.096 64.1512 393 64.9824 393C65.6126 392.997 66.2419 393.051 66.8627 393.161L66.0019 398.229C65.6674 398.171 65.3287 398.143 64.9894 398.143V398.143C64.5409 398.138 64.0934 398.186 63.6559 398.286Z" fill="#5A2274"/>
</svg>
