<svg width="100" height="100" viewBox="0 0 100 100" fill="none" xmlns="http://www.w3.org/2000/svg">
<g clip-path="url(#clip0_42_991)">
<path d="M41.8402 21.8023H38.7568L38.5674 22.0052V23.8213C38.5674 25.4439 37.6103 26.3677 36.1678 27.1115C34.1879 28.1324 33.593 33.9248 37.3154 35.8142L38.3732 35.974L45.7775 33.1078V28.9097L41.8402 21.8023Z" fill="#365E7D"/>
<path d="M41.2922 27.1117C42.3932 26.5442 43.2096 25.8705 43.5354 24.8625L41.8402 21.8026H38.7568L38.5674 22.0055V23.8215C38.5674 25.4442 37.6103 26.368 36.1678 27.1117C34.1879 28.1326 33.593 33.925 37.3154 35.8145L38.3732 35.9742L41.1897 34.884C38.8998 32.4815 39.5728 27.9983 41.2922 27.1117Z" fill="#2B4D66"/>
<path d="M63.8738 27.1116C62.4275 26.3659 61.4747 25.4417 61.4747 23.822V21.9767L61.1724 21.6907H57.9382L54.2241 29.1993V32.9991L61.8673 35.9739L62.5782 35.7585C66.2236 33.8185 65.8345 28.1226 63.8738 27.1116Z" fill="#365E7D"/>
<path d="M67.0362 37.4852C66.6389 37.3315 61.3061 35.2661 57.9387 33.962L57.127 34.3217H43.0853L42.0821 33.9667C38.7286 35.2669 33.0993 37.4493 33.0063 37.4852C31.0529 38.289 28.4375 40.8183 28.4375 44.5716V57.3422H71.6048C71.6048 53.2447 71.6048 45.2152 71.6048 44.5716C71.6048 41.3392 69.5353 38.5138 67.0362 37.4852Z" fill="#FF7F87"/>
<path d="M61.4601 16.683L61.205 16.4263H58.1597V21.7625L58.3278 22.1097H60.6265C62.1603 22.1097 63.4038 20.8664 63.4038 19.3324C63.4036 18.0892 62.5864 17.0371 61.4601 16.683Z" fill="#FFCEBE"/>
<path d="M38.5668 16.657L38.5672 16.6595C37.3963 16.9859 36.5361 18.0576 36.5361 19.3324C36.5361 20.8662 37.7795 22.1097 39.3135 22.1097H41.7133L41.977 21.8023V16.4101H38.7633L38.5668 16.657Z" fill="#FFCEBE"/>
<path d="M60.8802 16.4263H58.1597V21.7625L58.3278 22.1097H60.6265C60.7122 22.1097 60.7966 22.1045 60.8802 22.0968V16.4263Z" fill="#FFB1A0"/>
<path d="M39.2566 19.3325C39.2566 18.0575 40.1168 16.9861 41.2877 16.6597L41.2873 16.6572L41.484 16.4103H38.7635L38.5668 16.6572L38.5672 16.6597C37.3963 16.9861 36.5361 18.0577 36.5361 19.3325C36.5361 20.8663 37.7795 22.1099 39.3135 22.1099H41.7133L41.7283 22.0923C40.3385 21.94 39.2566 20.763 39.2566 19.3325Z" fill="#FFB1A0"/>
<path d="M55.2316 32.9137C54.9079 32.7885 54.6927 32.477 54.6917 32.1282L54.6894 29.2981L54.3181 28.91H45.7773L45.3444 29.3147V32.1229C45.3444 32.7694 44.7679 32.9251 44.522 33.0204C44.4673 33.0417 43.4689 33.4286 42.0815 33.9665C43.0774 37.1837 46.0333 39.7196 50.1058 39.7333C53.7599 39.7456 56.8761 37.2905 57.938 33.9618C56.4861 33.3997 55.399 32.9786 55.2316 32.9137Z" fill="#FFCEBE"/>
<path d="M50.0208 28.91H45.7773L45.3444 29.3147V32.1229C45.3444 32.7694 44.7679 32.9251 44.522 33.0204C44.4673 33.0417 43.4689 33.4286 42.0815 33.9665C43.0704 37.161 45.9925 39.6827 50.0208 39.7313V28.91Z" fill="#FFB1A0"/>
<path d="M57.4738 15.8528H53.826L50.9598 12.2917H49.2516L46.5947 15.17V22.513C46.5947 25.9813 48.727 29.2138 52.1762 30.4478C55.7045 29.5188 58.3278 26.2505 58.3278 22.4429V16.5552L57.4738 15.8528Z" fill="#FFDECF"/>
<path d="M46.7903 22.5236V14.9589L45.778 16.0556H42.0823L41.7144 16.5554V22.5236C41.7144 26.7925 45.0515 30.6951 50.1066 30.712C50.9677 30.715 51.7986 30.58 52.5802 30.3298C49.0142 29.2472 46.7903 26.0079 46.7903 22.5236Z" fill="#FFCEBE"/>
<path d="M49.8701 1.58556C43.5754 1.66662 38.5674 6.9135 38.5674 13.2088V16.6596C38.8053 16.5932 39.0551 16.5551 39.3141 16.5551H41.7139H43.8857C44.1689 16.5551 45.7623 16.4254 45.6453 16.4344C47.6615 16.2799 49.4049 14.7571 49.8854 12.7778C49.9008 12.7145 49.9561 12.6696 50.0211 12.6696C50.0861 12.6696 50.1416 12.7147 50.1568 12.7778C50.6369 14.7522 52.3645 16.2576 54.3508 16.4262C55.7936 16.5485 55.8131 16.5553 56.0734 16.5553H58.3277H60.6264C60.9225 16.5553 61.2072 16.6026 61.4748 16.6885V13.0385C61.475 6.66252 56.2654 1.50334 49.8701 1.58556Z" fill="#365E7D"/>
<path d="M43.6918 13.2088C43.6918 7.73985 47.4723 3.06426 52.5916 1.87735C51.718 1.67695 50.8074 1.57344 49.8701 1.58555C43.5754 1.6666 38.5674 6.91348 38.5674 13.2088V16.6596C38.8053 16.5932 39.0551 16.5551 39.3141 16.5551H41.7139H43.6916V13.2088H43.6918Z" fill="#2B4D66"/>
<path d="M63.4398 43.9998H60.3564L60.167 44.2027V46.0187C60.167 47.6414 59.21 48.5652 57.7674 49.3089C55.7875 50.3298 55.1926 56.1222 58.915 58.0116L59.9728 58.1714L67.3771 55.3052V51.1072L63.4398 43.9998Z" fill="#365E7D"/>
<path d="M62.8923 49.3091C63.9933 48.7415 64.8097 48.0679 65.1354 47.0599L63.4403 43.9999H60.3569L60.1675 44.2029V46.0189C60.1675 47.6415 59.2104 48.5654 57.7679 49.3091C55.788 50.33 55.1931 56.1224 58.9155 58.0118L59.9733 58.1716L62.7897 57.0814C60.4999 54.6788 61.1729 50.1954 62.8923 49.3091Z" fill="#2B4D66"/>
<path d="M85.4743 49.3091C84.028 48.5634 83.0753 47.6392 83.0753 46.0195V44.1742L82.773 43.8882H79.5388L75.8247 51.3968V55.1966L83.4679 58.1714L84.1788 57.956C87.8239 56.016 87.4351 50.3201 85.4743 49.3091Z" fill="#365E7D"/>
<path d="M88.6358 59.6827C88.2388 59.5288 82.9057 57.4635 79.5383 56.1594L78.7266 56.5192H64.6849L63.6817 56.1641C60.3282 57.4643 54.6989 59.6468 54.6059 59.6827C52.6526 60.4864 50.0371 63.0157 50.0371 66.7691V76.6422H85.384V71.2062H93.2044C93.2044 67.1087 93.2044 67.4126 93.2044 66.7691C93.2044 63.5366 91.1351 60.7112 88.6358 59.6827Z" fill="#FFD064"/>
<path d="M83.0606 38.8804L82.8056 38.6238H79.7603V43.9599L79.9284 44.3072H82.2271C83.7608 44.3072 85.0044 43.0638 85.0044 41.5298C85.0042 40.2867 84.187 39.2345 83.0606 38.8804Z" fill="#FFCEBE"/>
<path d="M60.1664 38.8545L60.1668 38.857C58.9959 39.1834 58.1357 40.2551 58.1357 41.5299C58.1357 43.0637 59.3791 44.3072 60.9131 44.3072H63.3129L63.5766 43.9998V38.6076H60.3629L60.1664 38.8545Z" fill="#FFCEBE"/>
<path d="M82.4808 38.6238H79.7603V43.9599L79.9284 44.3072H82.227C82.3128 44.3072 82.3972 44.3019 82.4808 44.2943V38.6238Z" fill="#FFB1A0"/>
<path d="M60.8572 41.53C60.8572 40.255 61.7174 39.1835 62.8883 38.8571L62.8879 38.8546L63.0846 38.6077H60.3641L60.1674 38.8546L60.1678 38.8571C58.9969 39.1835 58.1367 40.2552 58.1367 41.53C58.1367 43.0638 59.3801 44.3073 60.9141 44.3073H63.3139L63.3289 44.2898C61.9391 44.1374 60.8572 42.9605 60.8572 41.53Z" fill="#FFB1A0"/>
<path d="M85.3843 71.0323V76.6421H91.6821C92.5229 76.6421 93.2045 75.9605 93.2045 75.1197C93.2045 74.4007 93.2045 76.4068 93.2045 71.0323H85.3843Z" fill="#FFCEBE"/>
<path d="M76.8312 55.1111C76.5075 54.9859 76.2923 54.6744 76.2913 54.3256L76.289 51.4955L75.9177 51.1074H67.3769L66.944 51.5121V54.3203C66.944 54.9668 66.3675 55.1225 66.1216 55.2178C66.0669 55.2391 65.0685 55.626 63.6812 56.1639C64.6771 59.381 67.6329 61.917 71.7054 61.9307C75.3595 61.943 78.4757 59.4879 79.5376 56.1592C78.0857 55.5969 76.9987 55.176 76.8312 55.1111Z" fill="#FFCEBE"/>
<path d="M71.6204 51.1074H67.3769L66.944 51.5121V54.3203C66.944 54.9668 66.3675 55.1225 66.1216 55.2178C66.0669 55.2391 65.0685 55.626 63.6812 56.1639C64.67 59.3584 67.5921 61.8801 71.6204 61.9287V51.1074Z" fill="#FFB1A0"/>
<path d="M79.0738 38.0503H75.4258L72.5596 34.4891H70.8514L68.1943 37.3675V44.7104C68.1943 48.1788 70.3266 51.4112 73.7758 52.6452C77.3041 51.7163 79.9273 48.4479 79.9273 44.6403V38.7526L79.0738 38.0503Z" fill="#FFDECF"/>
<path d="M68.39 44.7209V37.1562L67.3776 38.2529H63.6819L63.314 38.7527V44.7209C63.314 48.9898 66.6511 52.8924 71.7062 52.9094C72.5673 52.9123 73.3982 52.7773 74.1798 52.5272C70.6138 51.4447 68.39 48.2055 68.39 44.7209Z" fill="#FFCEBE"/>
<path d="M71.4697 23.783C65.175 23.8641 60.167 29.1109 60.167 35.4063V38.857C60.4049 38.7906 60.6547 38.7526 60.9137 38.7526H63.3135H65.4853C65.7686 38.7526 67.3619 38.6229 67.2449 38.6319C69.2611 38.4774 71.0045 36.9545 71.485 34.9752C71.5004 34.9119 71.5557 34.867 71.6207 34.867C71.6857 34.867 71.7412 34.9121 71.7564 34.9752C72.2365 36.9496 73.9641 38.4551 75.9504 38.6236C77.3932 38.7459 77.4127 38.7527 77.673 38.7527H79.9273H82.226C82.5221 38.7527 82.8068 38.8 83.0744 38.886V35.2361C83.0746 28.8598 77.8652 23.7008 71.4697 23.783Z" fill="#365E7D"/>
<path d="M65.2914 35.4063C65.2914 29.9373 69.0719 25.2617 74.1912 24.0748C73.3176 23.8744 72.407 23.7709 71.4697 23.783C65.175 23.8641 60.167 29.1109 60.167 35.4063V38.857C60.4049 38.7906 60.6547 38.7525 60.9137 38.7525H63.3135H65.2912V35.4063H65.2914Z" fill="#2B4D66"/>
<path d="M39.0881 38.307H38.427L38.1289 38.0214H36.3701V43.8857L36.8834 44.155H39.0883C40.6221 44.155 41.8656 42.8459 41.8656 41.231C41.8654 39.616 40.6219 38.307 39.0881 38.307Z" fill="#FFCEBE"/>
<path d="M17.7712 38.3072C16.2396 38.3099 14.9985 39.6177 14.9985 41.2308C14.9985 42.8456 16.2419 44.1548 17.7759 44.1548H19.9808L20.3394 43.4931V38.0212H18.2829L17.7712 38.3072Z" fill="#FFCEBE"/>
<path d="M39.2692 38.3165C39.209 38.3124 39.1492 38.307 39.0881 38.307H38.427L38.1289 38.0214H36.3701V43.8857L36.8834 44.155H39.0883C39.1494 44.155 39.2092 44.1496 39.2693 44.1455V38.3165H39.2692Z" fill="#FFB1A0"/>
<path d="M17.8976 41.2308C17.8976 39.7357 18.964 38.505 20.3392 38.3304V38.0212H18.2829L17.7712 38.3072C16.2396 38.3099 14.9985 39.6177 14.9985 41.2308C14.9985 42.8456 16.2419 44.1548 17.7759 44.1548H19.9808L20.0261 44.0712C18.8058 43.7632 17.8976 42.6101 17.8976 41.2308Z" fill="#FFB1A0"/>
<path d="M45.4469 59.6827C45.0541 59.5305 39.8355 57.5094 36.463 56.2034L35.7693 56.536H21.0184L20.3928 56.1772L11.4169 59.6829C9.4636 60.4868 6.84814 63.0159 6.84814 66.7693V70.7424H14.6685V76.6424H50.0155C50.0155 72.5449 50.0155 67.4128 50.0155 66.7693C50.0155 63.5366 47.9459 60.7112 45.4469 59.6827Z" fill="#B3E59F"/>
<path d="M13.5394 63.7014C13.5394 61.0551 14.1677 59.2247 15.6446 58.0313L11.4169 59.6825C9.46357 60.4864 6.84814 63.0155 6.84814 66.7688V70.7419H13.5394C13.5394 65.9702 13.5394 65.8741 13.5394 63.7014Z" fill="#95D6A4"/>
<path d="M14.6685 70.5685H6.84814V75.1197C6.84814 75.9605 7.52979 76.6422 8.3706 76.6422H14.6685V70.5685Z" fill="#FFB1A0"/>
<path d="M33.6426 55.1111C33.3188 54.9859 33.1037 54.6744 33.1027 54.3256L33.1004 51.549L32.5266 50.9627H24.2754L23.7557 51.5365V54.3205C23.7557 54.6684 23.5883 54.8734 23.3957 55.0041L20.3926 56.177C21.4439 59.4035 24.4424 61.9266 28.5522 61.9266C32.2352 61.9266 35.3656 59.5233 36.4629 56.2033C34.9539 55.619 33.8143 55.1775 33.6426 55.1111Z" fill="#FFCEBE"/>
<path d="M28.4277 50.9627H24.2754L23.7557 51.5365V54.3205C23.7557 54.6684 23.5883 54.8734 23.3957 55.0041L20.3926 56.177C21.4332 59.3707 24.3822 61.8736 28.4277 61.9242V50.9627Z" fill="#FFB1A0"/>
<path d="M36.4632 37.587L35.7694 37.1237L35.2483 34.8655H34.2351L30.0081 37.9345H26.2642L25.9487 38.4435V44.5552C25.9487 47.9546 27.9829 51.1274 31.2925 52.4401C34.5436 51.3042 36.8833 48.2083 36.8833 44.5745V38.5339L36.4632 37.587Z" fill="#FFDECF"/>
<path d="M26.0729 44.5747V38.6001L26.4853 37.9345H20.3923L19.98 38.6001V44.5747C19.98 48.9286 23.3915 52.9054 28.5518 52.9054C29.5911 52.9054 30.5858 52.7124 31.504 52.3632C28.146 51.1325 26.0729 47.9685 26.0729 44.5747Z" fill="#FFCEBE"/>
<path d="M36.342 27.6338C35.5461 27.6949 34.8156 27.1945 34.6625 26.4109C34.4045 25.0914 33.7512 23.782 31.1992 23.782H22.3455C19.0961 23.782 16.4619 26.4162 16.4619 29.6656V36.1227C16.4619 37.4908 17.5711 38.6 18.9393 38.6H28.9879C31.2355 38.6 33.1875 37.3391 34.1779 35.4865C34.2547 35.343 34.4726 35.399 34.4726 35.5619C34.4726 37.2328 35.8398 38.6 37.5107 38.6C38.3867 38.6 39.1033 37.8834 39.1033 37.0074V30.2692C39.1035 28.6818 37.7185 27.5279 36.342 27.6338Z" fill="#365E7D"/>
<path d="M21.4561 36.1227V29.6656C21.4561 26.4162 24.0902 23.782 27.3396 23.782H22.3455C19.0961 23.782 16.4619 26.4162 16.4619 29.6656V36.1227C16.4619 37.4908 17.5711 38.6 18.9393 38.6H23.9334C22.5652 38.6 21.4561 37.4908 21.4561 36.1227Z" fill="#2B4D66"/>
<path d="M60.6774 60.7835H60.0163L59.7183 60.4979H57.9595V66.3622L58.4728 66.6315H60.6776C62.2114 66.6315 63.455 65.3223 63.455 63.7075C63.4548 62.0926 62.2112 60.7835 60.6774 60.7835Z" fill="#FFCEBE"/>
<path d="M39.3601 60.7839C37.8284 60.7866 36.5874 62.0944 36.5874 63.7075C36.5874 65.3223 37.8308 66.6315 39.3647 66.6315H41.5696L41.9282 65.9698V60.4979H39.8718L39.3601 60.7839Z" fill="#FFCEBE"/>
<path d="M60.8585 60.7932C60.7983 60.7891 60.7386 60.7837 60.6774 60.7837H60.0163L59.7183 60.4981H57.9595V66.3624L58.4728 66.6317H60.6776C60.7388 66.6317 60.7985 66.6262 60.8587 66.6221V60.7932H60.8585Z" fill="#FFB1A0"/>
<path d="M39.4866 63.7075C39.4866 62.2124 40.553 60.9817 41.9282 60.8071V60.4981H39.8718L39.3601 60.784C37.8284 60.7868 36.5874 62.0946 36.5874 63.7077C36.5874 65.3225 37.8308 66.6317 39.3647 66.6317H41.5696L41.6149 66.5481C40.3948 66.2397 39.4866 65.0866 39.4866 63.7075Z" fill="#FFB1A0"/>
<path d="M67.0362 82.1594C66.6434 82.0073 61.4248 79.9862 58.0524 78.6801L57.3586 79.0127H42.6077L41.9821 78.6539L33.0063 82.1596C31.0529 82.9635 28.4375 85.4927 28.4375 89.246V93.2191H36.2579V98.6551H63.7844V93.2191H71.6048C71.6048 89.1216 71.6048 89.8894 71.6048 89.246C71.6048 86.0134 69.5353 83.188 67.0362 82.1594Z" fill="#80B4FB"/>
<path d="M35.1287 86.1782C35.1287 83.5319 35.757 81.7014 37.234 80.5081L33.0062 82.1592C31.0529 82.9631 28.4375 85.4923 28.4375 89.2456V93.2187H35.1287C35.1287 88.447 35.1287 88.3507 35.1287 86.1782Z" fill="#61A2F9"/>
<path d="M36.2578 93.045H28.4375V97.1324C28.4375 97.9732 29.1191 98.6548 29.96 98.6548H36.2578V93.045Z" fill="#FFB1A0"/>
<path d="M63.7847 93.045V98.6548H70.0825C70.9233 98.6548 71.605 97.9732 71.605 97.1324C71.605 96.4134 71.605 98.4195 71.605 93.045H63.7847Z" fill="#FFCEBE"/>
<path d="M55.2319 77.5879C54.9081 77.4627 54.6931 77.1512 54.6921 76.8023L54.6898 74.0258L54.1159 73.4395H45.8647L45.345 74.0133V76.7973C45.345 77.1451 45.1776 77.3502 44.9851 77.4809L41.9819 78.6537C43.0333 81.8803 46.0317 84.4033 50.1415 84.4033C53.8245 84.4033 56.955 82 58.0523 78.6801C56.5435 78.0957 55.4038 77.6543 55.2319 77.5879Z" fill="#FFCEBE"/>
<path d="M50.0171 73.4395H45.8648L45.345 74.0133V76.7973C45.345 77.1451 45.1776 77.3502 44.9851 77.4809L41.9819 78.6537C43.0226 81.8475 45.9716 84.3504 50.0171 84.401V73.4395Z" fill="#FFB1A0"/>
<path d="M58.0521 60.0637L57.3583 59.6004L56.8372 57.3422H55.8239L51.597 60.4112H47.853L47.5376 60.9202V67.0319C47.5376 70.4313 49.5718 73.6042 52.8814 74.9169C56.1325 73.7809 58.4722 70.685 58.4722 67.0512V61.0106L58.0521 60.0637Z" fill="#FFDECF"/>
<path d="M47.6618 67.0513V61.0766L48.0741 60.411H41.9812L41.5688 61.0766V67.0513C41.5688 71.4052 44.9804 75.3819 50.1407 75.3819C51.18 75.3819 52.1747 75.189 53.0929 74.8398C49.7349 73.6091 47.6618 70.445 47.6618 67.0513Z" fill="#FFCEBE"/>
<path d="M57.9309 50.1105C57.135 50.1717 56.4045 49.6713 56.2514 48.8877C55.9934 47.5682 55.3401 46.2588 52.7881 46.2588H43.9344C40.685 46.2588 38.0508 48.893 38.0508 52.1424V58.5994C38.0508 59.9675 39.16 61.0767 40.5281 61.0767H50.5768C52.8244 61.0767 54.7764 59.8158 55.7668 57.9632C55.8436 57.8197 56.0615 57.8758 56.0615 58.0386C56.0615 59.7097 57.4287 61.0767 59.0996 61.0767C59.9756 61.0767 60.6922 60.3601 60.6922 59.4841V52.7459C60.6924 51.1584 59.3074 50.0047 57.9309 50.1105Z" fill="#365E7D"/>
<path d="M43.0454 58.5994V52.1424C43.0454 48.893 45.6796 46.2588 48.929 46.2588H43.9349C40.6854 46.2588 38.0513 48.893 38.0513 52.1424V58.5994C38.0513 59.9675 39.1604 61.0767 40.5286 61.0767H45.5228C44.1544 61.0767 43.0454 59.9675 43.0454 58.5994Z" fill="#2B4D66"/>
<path d="M89.1658 58.2172C89.1562 58.2133 89.1468 58.2094 89.1373 58.2059L86.9136 57.3448C89.2339 54.2244 88.6738 49.2123 86.1169 47.8939C84.7736 47.2013 84.5107 46.6404 84.5107 45.9052V44.9687C85.671 44.2107 86.44 42.9013 86.44 41.4148C86.44 39.9282 85.671 38.6189 84.5107 37.8608V35.119C84.5107 24.2478 71.8967 18.3013 63.5503 25.0658C63.0439 24.6291 62.9216 24.2113 62.9216 23.7078V22.7713C64.082 22.0133 64.8509 20.7039 64.8509 19.2173C64.8509 17.7308 64.082 16.4214 62.9216 15.6634V12.9216C62.9218 5.76782 57.1323 0 50.0014 0C49.9446 0 49.8872 0.000390628 49.8301 0.00097657C42.799 0.0916023 37.0787 5.96411 37.0787 13.0919V15.598C35.8615 16.3447 35.0476 17.6874 35.0476 19.2171C35.0476 20.7468 35.8615 22.0898 37.0787 22.8363V23.707C37.0787 24.3475 36.8785 24.8561 35.9384 25.4344C35.3144 23.2873 33.7179 22.197 31.1792 22.197H22.3231C18.2703 22.197 14.973 25.4941 14.973 29.5469V36.0057C14.973 36.5522 15.0851 37.0729 15.2869 37.5466C14.2119 38.344 13.5089 39.6464 13.5089 41.1152C13.5089 43.5357 15.4123 45.5048 17.7518 45.5048H18.5471C18.8305 48.2287 20.2139 50.5869 22.2686 52.1678V53.7508L10.8587 58.2069C10.8505 58.2102 10.8423 58.2135 10.8341 58.2169C8.19621 59.3024 5.35693 62.4075 5.35693 66.6595V74.9992C5.35693 76.6467 6.69718 77.9869 8.34465 77.9869H38.165L32.448 80.22C32.4398 80.2231 32.4316 80.2264 32.4233 80.2297C29.7852 81.3153 26.946 84.4204 26.946 88.6724V97.0119C26.946 98.6592 28.286 99.9996 29.9337 99.9996H46.5819C47.391 99.9996 48.0467 99.3437 48.0467 98.5347C48.0467 97.7258 47.391 97.0699 46.5819 97.0699H37.8933C37.8933 94.308 37.8933 92.424 37.8933 89.4806C37.8933 88.6716 37.2376 88.0157 36.4285 88.0157C35.6193 88.0157 34.9636 88.6716 34.9636 89.4806V91.4601H29.8757V88.6726C29.8757 85.5796 32.055 83.5551 33.5271 82.9438L41.1588 79.9631C42.8277 83.2456 46.1979 85.294 50.1206 85.294C53.8354 85.294 57.1683 83.2122 58.8286 79.9832L66.4748 82.9446C68.2904 83.6987 70.124 85.9048 70.124 88.6726V91.4603H65.0363V89.4808C65.0363 88.6718 64.3806 88.0159 63.5714 88.0159C62.7623 88.0159 62.1066 88.6718 62.1066 89.4808V97.0701H53.4178C52.6087 97.0701 51.953 97.7259 51.953 98.5349C51.953 99.3439 52.6087 99.9998 53.4178 99.9998H70.0662C71.7135 99.9998 73.0539 98.6595 73.0539 97.0121C73.0539 90.8415 73.0537 95.5392 73.0537 88.6726C73.0537 85.0288 70.8016 81.5571 67.5767 80.2299C67.5672 80.226 67.5578 80.2221 67.5482 80.2186L61.7865 77.9871H91.6551C93.3025 77.9871 94.6428 76.6469 94.6428 74.9996C94.6428 74.1672 94.6428 67.5554 94.6428 66.6601C94.643 63.0163 92.3908 59.5444 89.1658 58.2172ZM29.8759 96.8324V94.3902H34.9636V97.0703H29.9337C29.9018 97.0703 29.8759 97.0443 29.8759 97.0123V96.8324ZM65.0363 97.0703V94.3902H70.124V97.0123C70.124 97.0443 70.0981 97.0703 70.0662 97.0703H65.0363ZM91.7133 66.6599V69.4476H86.6253V67.4681C86.6253 66.6591 85.9697 66.0032 85.1605 66.0032C84.3513 66.0032 83.6956 66.6591 83.6956 67.4681V75.0572H56.1362C56.1358 74.6098 56.136 74.8043 56.1354 74.2006C58.2181 72.5879 59.5839 70.1503 59.8628 67.5175H60.6589C62.9986 67.5175 64.9019 65.5484 64.9019 63.1278C64.9019 63.1231 64.9013 63.1185 64.9013 63.1138C64.8961 61.3143 63.8148 59.6655 62.1374 59.0131C62.1413 58.8919 62.1394 58.687 62.1394 58.2081L62.8335 57.9389C63.8054 59.8833 65.416 61.4579 67.4135 62.3727C68.1494 62.7095 69.0184 62.3862 69.3553 61.6509C69.6922 60.9153 69.3688 60.046 68.6334 59.7093C67.3314 59.113 66.2656 58.1126 65.5814 56.8739L66.2623 56.6098C66.8842 56.3698 68.3766 55.9071 68.3766 54.2082V53.7283C70.6313 54.484 73.0932 54.3828 74.7959 53.7444L74.7963 54.218C74.7995 55.1758 75.3784 56.0198 76.2721 56.3651L77.5661 56.8663C76.8335 58.1807 75.6852 59.2268 74.2834 59.8262C73.5395 60.1442 73.1944 61.0052 73.5123 61.7489C73.8309 62.4936 74.6924 62.8378 75.4352 62.52C77.5659 61.6091 79.285 59.977 80.3159 57.9311C81.3104 58.3163 87.1206 60.5665 88.064 60.9317C89.8798 61.686 91.7133 63.8921 91.7133 66.6599ZM43.0113 66.0528V61.9616H50.5563C52.3553 61.9616 54.0946 61.3009 55.4399 60.1051C55.8456 60.6616 56.3759 61.1214 56.9888 61.4444V66.0527C56.9888 70.6271 53.6698 73.3406 50.1208 73.3406C46.2004 73.3408 43.0113 70.5562 43.0113 66.0528ZM39.341 64.588C38.617 64.588 38.0279 63.9331 38.0279 63.128C38.0279 62.4282 38.4836 61.8268 39.0869 61.6975C39.4002 61.8181 39.7691 61.9048 40.0816 61.9386V64.5878H39.341V64.588ZM36.7941 49.7244C36.6382 50.3295 36.5621 50.9926 36.5621 51.56V54.5664C36.5621 54.5664 35.1482 54.0188 34.5478 53.7864L34.5464 52.1879C35.3962 51.5275 36.1781 50.6887 36.7941 49.7244ZM38.8455 26.8199C39.7834 25.7816 40.0084 24.7144 40.0084 23.4601H40.2826C40.5824 26.1592 41.925 28.4158 43.8578 29.9469V31.5864C43.4738 31.7352 42.1586 32.2452 40.5502 32.8686V30.151C40.5502 28.7754 39.8857 27.576 38.8455 26.8199ZM37.9771 19.2173C37.9771 18.4781 38.5841 17.904 39.2904 17.904H40.2259V20.5304H39.2904C38.5867 20.5304 37.9771 19.9591 37.9771 19.2173ZM50.0018 15.5462C51.0401 16.7855 52.5464 17.629 54.2073 17.7699C56.0558 17.9275 55.6032 17.9042 56.8442 17.9042V21.9955C56.8442 26.5217 53.4305 29.1535 50.0903 29.135C46.2266 29.1223 43.1557 26.4256 43.1557 21.9955V17.904C45.9949 17.904 48.1715 17.7357 50.0018 15.5462ZM60.6083 17.904C61.3206 17.904 61.9216 18.4833 61.9216 19.2173C61.9216 19.9453 61.3273 20.5304 60.6083 20.5304H59.7741V17.904H60.6083ZM71.5908 37.7435C72.1076 38.3605 72.7383 38.8761 73.4426 39.2571C74.6834 39.9284 75.652 39.9548 76.4463 40.0226C77.5456 40.1167 77.2862 40.1015 78.4333 40.1015V44.1927C78.4333 50.3893 72.1364 53.1051 67.7238 50.1801C67.7238 50.1801 64.7447 48.4109 64.7447 44.6064C64.7447 42.7744 64.7447 41.8831 64.7447 40.1015C67.6039 40.1015 69.7785 39.9116 71.5908 37.7435ZM82.1974 40.1015C82.9083 40.1015 83.5107 40.6794 83.5107 41.4148C83.5107 42.1476 82.9112 42.7281 82.1974 42.7281H81.3632V40.1017H82.1974V40.1015ZM54.4559 56.6916C53.6843 58.1352 52.1897 59.0319 50.5563 59.0319C45.9076 59.0319 43.4687 59.0319 40.5051 59.0319C39.9535 59.0319 39.4961 58.579 39.4924 58.0247C39.4924 58.0227 39.492 58.0208 39.492 58.0188C39.492 54.8776 39.492 54.4211 39.492 51.56C39.492 49.123 41.4744 47.1398 43.9121 47.1398H52.768C54.3905 47.1398 54.6237 47.7123 54.7946 48.5859C55.0931 50.1137 56.5071 51.1049 58.023 50.9883H58.0245C58.563 50.9479 59.2095 51.441 59.2095 52.1639V57.2053V58.904V58.9044C59.2091 58.971 59.1423 59.0321 59.0814 59.0321C58.2062 59.0321 57.5073 58.3096 57.5073 57.4579C57.5073 56.7124 57.0021 56.0651 56.2784 55.884C55.5589 55.7034 54.8038 56.0397 54.4559 56.6916ZM62.1392 55.0662V52.1639C62.1392 50.8277 61.5126 49.6621 60.532 48.906C61.3843 47.9033 61.5972 46.9142 61.5972 45.6578H61.8714C62.0744 47.484 62.741 49.0851 63.7629 50.4238C64.2453 51.0602 64.809 51.6395 65.4467 52.1445V53.784C65.0629 53.9326 63.7476 54.4426 62.1392 55.0662ZM56.6366 41.4148C56.6366 42.882 57.4009 44.257 58.6677 45.0339V45.9047C58.6677 46.7207 58.2663 47.167 57.5737 47.6025C56.9454 45.2117 55.1782 44.2103 52.7682 44.2103H43.9121C43.9096 44.2103 43.9072 44.2105 43.9047 44.2105C43.2139 44.2113 42.4365 44.316 41.7146 44.5457C44.3293 42.3824 43.5963 38.1825 40.5482 37.0007C40.5511 36.9184 40.5502 36.0936 40.5502 36.011L41.2394 35.7438C44.6213 42.5925 54.8587 43.108 58.6675 35.8403V37.7956C57.422 38.5595 56.6366 39.9218 56.6366 41.4148ZM37.898 47.3392C38.0839 46.734 38.213 46.074 38.2738 45.5048H39.0699C39.3177 45.5048 39.606 45.4785 39.8642 45.4275C39.0832 45.9449 38.389 46.6398 37.898 47.3392ZM53.2069 31.5471L53.2073 32.0208C53.2106 32.9799 53.7901 33.8229 54.6827 34.1676C55.172 34.3571 55.5071 34.487 55.9743 34.6678C53.2497 39.5157 46.4268 39.1202 43.9895 34.6778C45.1647 34.2221 46.7875 33.8239 46.7875 32.011V31.5311C48.777 32.1979 51.1628 32.2711 53.2069 31.5471ZM38.7959 39.6556H39.0699C39.7939 39.6556 40.3832 40.3105 40.3832 41.1154C40.3832 41.9202 39.7939 42.5751 39.0699 42.5751H38.3293V39.8319C38.4326 39.8023 38.6574 39.7212 38.7959 39.6556ZM59.9183 61.8448C60.0607 61.8036 60.2763 61.7202 60.3849 61.6684H60.6589C61.3829 61.6684 61.972 62.3233 61.972 63.1282C61.972 63.9333 61.3829 64.5882 60.6589 64.5882H59.9183V61.8448ZM61.815 42.7279H60.8794C60.1697 42.7279 59.5661 42.1458 59.5661 41.4148C59.5661 40.6888 60.165 40.1015 60.8794 40.1015H61.815V42.7279ZM58.9288 32.6702L56.1372 31.5891L56.1368 29.9178C58.1409 28.2899 59.4089 25.9969 59.7077 23.4601H59.9921C59.9921 24.8687 60.3138 26.0512 61.4826 27.1485C60.1716 28.8133 59.3103 30.7788 58.9288 32.6702ZM84.7743 50.4977C85.555 50.9004 86.0454 54.5664 83.9835 56.2098C80.4483 54.8407 81.563 55.2723 77.726 53.7864L77.7258 52.115C79.7032 50.509 80.9966 48.2226 81.2966 45.6574H81.5811C81.5811 48.0109 82.6026 49.3779 84.7743 50.4977ZM78.6089 28.008C80.5257 29.9002 81.5813 32.4256 81.5813 35.119V37.1718H79.8983H77.6432C77.4479 37.1718 77.4128 37.1647 76.044 37.0479C74.7135 36.9352 73.4809 35.8792 73.1492 34.5147C72.7569 32.8891 70.4258 32.8731 70.0299 34.5132C69.7057 35.8546 68.4875 36.9491 67.1006 37.0554C65.0455 37.2104 66.3412 37.1718 61.5974 37.1718V35.2895C61.5974 26.3252 72.2817 21.7617 78.6089 28.008ZM40.0084 13.0921C40.0084 7.55904 44.4314 3.00061 49.8678 2.93069C55.4317 2.85373 59.9921 7.33775 59.9921 12.9218V14.9745C55.1433 14.9745 56.2837 15.0066 54.4548 14.8507C53.1065 14.7364 51.8887 13.67 51.56 12.3175C51.3852 11.5934 50.7438 11.088 50.0002 11.088C49.2756 11.088 48.619 11.5782 48.4409 12.3161C48.1389 13.5655 47.0311 14.7146 45.4815 14.8609C43.6795 15.0126 44.3762 14.9747 40.0086 14.9747V13.0921H40.0084ZM17.9027 29.5473C17.9027 27.11 19.8856 25.1271 22.3231 25.1271H31.1792C32.8015 25.1271 33.0347 25.6996 33.2056 26.5733C33.4978 28.067 34.8931 29.0936 36.4355 28.9756C36.9746 28.9334 37.6205 29.4299 37.6205 30.1512V35.0079V36.8913C37.6205 36.9571 37.5537 37.0194 37.4923 37.0194C36.6242 37.0194 35.9183 36.3032 35.9183 35.4454C35.9183 34.7928 35.5316 34.2159 34.9499 33.9606C34.1683 33.6173 33.2628 33.9397 32.8677 34.6778C32.8675 34.6784 32.8671 34.6788 32.8667 34.6794C32.095 36.1229 30.6005 37.0194 28.9671 37.0194C24.3184 37.0194 21.8795 37.0194 18.9158 37.0194C18.3689 37.0194 17.9025 36.5722 17.9025 36.0063V29.5473H17.9027ZM16.4389 41.1154C16.4389 40.4087 16.8937 39.8171 17.4951 39.6837C17.8033 39.8025 18.1744 39.8913 18.4924 39.9257V42.5751H17.7518C17.0279 42.5753 16.4389 41.9204 16.4389 41.1154ZM21.4223 44.0402V39.9489H28.9673C30.7569 39.9489 32.4956 39.2987 33.8509 38.0925C34.2566 38.6489 34.7866 39.1087 35.3997 39.4318V44.04C35.3997 48.526 32.328 51.3279 28.5317 51.3279C24.6915 51.3281 21.4223 48.6096 21.4223 44.0402ZM31.6181 53.7584L31.6185 54.2174C31.6212 55.1768 32.2007 56.02 33.0937 56.3649C33.6644 56.586 33.4013 56.484 34.4861 56.9041C33.2784 59.0102 31.0278 60.3516 28.5317 60.3516C25.851 60.3516 23.5389 59.0241 22.3198 56.8764L23.9067 56.2567C24.5758 55.9952 25.1985 55.2088 25.1985 54.2082V53.7319C27.1657 54.3803 29.5087 54.4651 31.6181 53.7584ZM11.9382 60.9309L19.5697 57.9504C21.2387 61.2327 24.6088 63.2813 28.5315 63.2813C31.863 63.2813 34.8868 61.6065 36.6732 58.9321C36.7197 59.1274 36.7581 59.2839 36.8748 59.5589C35.7548 60.3938 35.0982 61.7175 35.0982 63.1278C35.0982 65.5484 37.0015 67.5175 39.341 67.5175H40.1363C40.4222 70.2664 41.842 72.6359 43.8578 74.1928V75.0574H16.3043C16.3043 72.2957 16.3043 70.4117 16.3043 67.4683C16.3043 66.6593 15.6486 66.0034 14.8394 66.0034C14.0302 66.0034 13.3746 66.6593 13.3746 67.4683V69.4478H8.28684V66.6599C8.28684 63.5669 10.4662 61.5425 11.9382 60.9309ZM8.28684 74.9996V74.8199V72.3775H13.3746V75.0576H8.34485C8.31282 75.0576 8.28684 75.0314 8.28684 74.9996ZM50.1206 82.3645C47.4399 82.3645 45.1277 81.037 43.9086 78.8893L45.4955 78.2695C46.168 78.0074 46.7873 77.1965 46.7873 76.2213V75.7449C48.8106 76.4119 51.1233 76.4623 53.2067 75.7715C53.2071 76.1791 53.0823 77.4787 54.347 78.216C54.5597 78.3401 54.5431 78.3242 56.0749 78.9172C54.8675 81.0227 52.6167 82.3645 50.1206 82.3645ZM91.7133 74.9996C91.7133 75.0316 91.6873 75.0576 91.6553 75.0576H86.6253V72.3775H91.7133V74.9996Z" fill="black"/>
</g>
<defs>
<clipPath id="clip0_42_991">
<rect width="100" height="100" fill="white"/>
</clipPath>
</defs>
</svg>
