<svg width="36" height="36" viewBox="0 0 36 36" fill="none" xmlns="http://www.w3.org/2000/svg">
<path d="M34.9891 18.2741L32.2485 18.2893L32.4197 18.1117C35.7995 14.6583 35.7985 9.04192 32.4166 5.58988C29.0337 2.13674 23.5293 2.13667 20.1463 5.58988L17.9973 7.78358L15.8483 5.58994C12.4654 2.13681 6.96096 2.13681 3.57802 5.58994C0.194957 9.04301 0.195023 14.6616 3.57577 18.1125L4.2049 18.7587H1V20.7919H6.1842L18.0695 33L30.2781 20.3335L35 20.3073L34.9891 18.2741ZM18.0625 30.1083L8.99239 20.7919H13.3196L15.191 16.199L18.0386 25.3653L22.1702 18.8921L23.2628 20.3725L27.4688 20.3491L18.0625 30.1083ZM29.4391 18.305L24.2519 18.3339L22.0518 15.3529L18.6657 20.6581L15.4434 10.2852L11.9907 18.7587H7.01289L4.98637 16.6771C3.72385 15.3883 3.02858 13.6748 3.02858 11.8523C3.02858 10.0297 3.72385 8.31623 4.98643 7.02751C6.24902 5.7388 7.92763 5.0291 9.7131 5.0291C11.4986 5.0291 13.1772 5.7388 14.4398 7.02751L17.9973 10.6588L21.5547 7.02751C22.8173 5.73873 24.4959 5.0291 26.2814 5.0291C28.067 5.0291 29.7456 5.7388 31.0081 7.02751C32.2706 8.31623 32.9659 10.0297 32.9659 11.8523C32.9659 13.6749 32.2706 15.3884 31.0081 16.6771L29.4391 18.305Z" fill="#2B4570"/>
</svg>
