<svg width="284" height="66" viewBox="0 0 284 66" fill="none" xmlns="http://www.w3.org/2000/svg">
<path d="M33.0051 0C41.655 0.154753 49.8984 3.69956 55.9608 9.87142C62.0232 16.0433 65.42 24.3487 65.42 33C65.42 41.6513 62.0232 49.9567 55.9608 56.1286C49.8984 62.3004 41.655 65.8452 33.0051 66C31.1721 65.9996 29.3422 65.8477 27.5342 65.5458V65.5458C24.394 64.9092 21.5698 63.208 19.539 60.7297C19.8875 60.8987 18.7785 58.2372 19.0003 58.554C22.6336 63.5286 28.5798 63.8349 32.984 63.8349C39.0718 63.8369 45.0236 62.0341 50.087 58.6543C55.1504 55.2745 59.0982 50.4694 61.4312 44.8464C63.7643 39.2234 64.378 33.0349 63.1946 27.0632C62.0113 21.0915 59.0841 15.6047 54.7831 11.2963C50.4821 6.98785 45.0003 4.05127 39.0306 2.85771C33.061 1.66415 26.8714 2.2672 21.2445 4.59063C15.6175 6.91406 10.8056 10.8536 7.41711 15.9112C4.02861 20.9688 2.21559 26.9175 2.20724 33.0053C2.20724 43.2079 7.58315 51.4143 13.2548 59.4095C11.9871 58.4633 10.7904 57.4254 9.67436 56.3044C5.07235 51.6869 1.94082 45.81 0.674782 39.415C-0.591261 33.02 0.0648804 26.3932 2.56045 20.3706C5.05602 14.348 9.27924 9.19939 14.6974 5.57408C20.1156 1.94877 26.486 0.0091958 33.0051 0" fill="white"/>
<path d="M27.5556 65.5352C24.4161 65.1811 21.4901 63.7704 19.258 61.5344C17.0258 59.2984 15.62 56.3701 15.2712 53.2299C14.9224 50.0898 15.6514 46.9244 17.3386 44.2531C19.0257 41.5818 21.5708 39.5634 24.5561 38.529C23.1725 35.3605 23.3943 32.4138 26.51 30.6922C29.0132 29.3086 30.7347 27.5237 30.9671 24.6826L32.3401 24.8199C32.0021 28.1363 30.0799 30.2803 27.1543 31.8963C24.4716 33.396 24.7779 35.9625 26.0981 38.6346L26.4678 39.3739L25.6651 39.6063C22.8658 40.3932 20.4275 42.1295 18.7683 44.5175C13.3502 54.794 20.6377 62.7681 27.4711 65.5352" fill="white"/>
<path d="M28.675 23.3202L28.0201 22.1267C27.9145 21.8944 27.83 21.6726 27.7561 21.4719C27.5405 21.3644 27.3485 21.2151 27.1911 21.0327C27.0338 20.8504 26.9143 20.6385 26.8396 20.4095C26.7649 20.1805 26.7365 19.9389 26.756 19.6988C26.7756 19.4587 26.8427 19.2249 26.9534 19.011V19.011C27.1858 18.2295 28.0096 15.9693 27.3231 15.494C27.0732 15.2092 26.8878 14.8738 26.7795 14.5108C26.6713 14.1477 26.6428 13.7655 26.6959 13.3904C26.7491 13.0153 26.8827 12.6561 27.0875 12.3374C27.2924 12.0187 27.5637 11.748 27.8828 11.5439L28.6222 10.9419C29.1336 12.6943 30.0405 14.3059 31.2731 15.6524C32.2624 16.6661 33.4736 17.4363 34.8113 17.902H34.8641C36.5881 18.5961 38.0612 19.7966 39.0888 21.3452C39.4923 22.0621 39.7387 22.8566 39.8116 23.6761C39.8844 24.4955 39.782 25.3211 39.5113 26.0979C38.7825 21.7676 37.5679 20.6798 34.3043 19.1589C32.786 18.6253 31.4122 17.7468 30.2909 16.5924C29.4173 15.6596 28.7036 14.5891 28.1785 13.4239C28.1082 13.79 28.184 14.1692 28.3898 14.4801C28.5481 14.5694 28.685 14.6922 28.7908 14.84C28.8966 14.9878 28.9688 15.1569 29.0024 15.3356C29.0954 15.7956 29.0954 16.2696 29.0024 16.7297C28.8471 17.6249 28.6138 18.5049 28.3053 19.3596C28.1258 19.8665 28.1152 20.0883 28.5482 20.2467L28.9284 20.384C29.1008 21.1338 29.4009 21.8484 29.8156 22.4964C30.8718 23.8905 32.2237 24.6087 33.7762 23.8483C32.5511 25.7705 29.7311 25.2213 28.7066 23.3096" fill="white"/>
<path d="M37.7055 21.3874C36.7127 23.7532 36.674 25.7564 37.5893 27.397C38.198 27.8167 38.8494 28.1707 39.5327 28.4532C40.2524 28.7612 41.0031 28.9913 41.7718 29.1397C43.2167 29.1191 44.6148 29.6519 45.6796 30.6289C46.152 31.1454 46.5145 31.7525 46.7451 32.4133C46.9757 33.0742 47.0695 33.7751 47.0209 34.4733C47.0129 35.8153 46.8928 37.1542 46.6618 38.4762V38.4762C46.1654 41.2223 45.8275 48.5943 42.1097 46.8622C37.8217 44.7499 33.4175 44.2851 28.7598 44.2535C33.2379 41.8348 40.5677 44.5914 42.7012 45.6265C44.3488 46.3764 45.067 39.5852 45.2994 38.2333C45.5253 36.989 45.6419 35.7274 45.6479 34.4628C45.6479 31.7695 44.3171 30.7028 41.6873 30.5338C40.7723 30.3741 39.8791 30.1082 39.0257 29.7417C38.1134 29.3648 37.2654 28.8482 36.5121 28.2103C35.2869 26.0979 35.5721 23.3836 36.7655 20.5319L37.5788 20.3418L37.7055 21.3874Z" fill="white"/>
<path d="M40.2607 41.4548C40.1417 40.8214 40.2644 40.1663 40.6046 39.6189C40.9448 39.0715 41.4778 38.6714 42.0984 38.4976C40.8416 41.138 42.2146 41.2647 41.1373 42.4899C40.06 43.715 31.072 35.9416 22.4854 45.2993C25.0096 40.293 32.7619 37.1562 40.2607 41.4548Z" fill="white"/>
<path d="M37.9801 41.2116C38.3349 39.2912 38.9794 37.4358 39.8917 35.709C39.4522 37.6694 39.2046 39.6679 39.1524 41.6763L37.9801 41.2116ZM44.0319 59.1665C42.0285 57.3452 40.4293 55.1239 39.3377 52.6461C38.2462 50.1683 37.6865 47.4891 37.6949 44.7815L39.3109 45.2145C39.7425 50.1634 41.362 54.935 44.0319 59.1243V59.1665Z" fill="white"/>
<path fill-rule="evenodd" clip-rule="evenodd" d="M27.3866 47.9287C26.9163 47.9284 26.4555 48.0611 26.0575 48.3115C25.6594 48.5619 25.3403 48.9199 25.137 49.344C24.8187 48.9388 24.3817 48.6432 23.8871 48.4987C23.3925 48.3541 22.8651 48.3677 22.3787 48.5376C21.8922 48.7075 21.471 49.0252 21.174 49.4463C20.877 49.8674 20.719 50.3707 20.7222 50.886C20.7214 51.1586 20.7642 51.4296 20.849 51.6887C21.546 54.6988 25.0736 56.9695 28.2421 56.7794C27.6929 53.706 30.2172 53.6743 29.8158 50.4424C29.8158 50.1178 29.7519 49.7965 29.6277 49.4966C29.5035 49.1968 29.3215 48.9243 29.092 48.6948C28.8625 48.4653 28.59 48.2833 28.2902 48.1591C27.9903 48.0349 27.669 47.971 27.3444 47.971" fill="#FFDFDB"/>
<path d="M24.1337 15.3776C24.3661 20.8063 27.4395 25.7809 22.5283 31.2201C23.9119 27.2172 23.3521 29.1078 23.8168 25.4957C24.5139 20.2148 20.511 14.8178 24.5984 8.10059C24.0301 10.4785 23.873 12.9361 24.1337 15.367" fill="white"/>
<path d="M43.0389 30.1114C42.4195 27.8374 42.1279 25.4866 42.1728 23.1302C42.2376 20.5428 42.5919 17.9709 43.229 15.4624C43.3672 14.7542 43.3589 14.0252 43.2045 13.3204C43.0501 12.6156 42.7529 11.9499 42.3312 11.3644C38.1066 5.02742 31.7062 5.87235 27.4287 6.70672C29.0899 5.72579 30.9727 5.18219 32.9011 5.12678C34.8294 5.07136 36.7404 5.50594 38.4551 6.38987C41.856 8.14311 45.4998 11.5123 44.5703 15.7581C43.4297 20.6059 43.0917 25.0841 44.3697 29.7312L43.0389 30.1114Z" fill="white"/>
<path d="M85.646 44.5V20.961H90.5423V29.8111H90.6917C90.9062 29.3361 91.2166 28.8533 91.6227 28.3629C92.0364 27.8649 92.5728 27.4511 93.2318 27.1216C93.8984 26.7845 94.7259 26.6159 95.7144 26.6159C97.0017 26.6159 98.1894 26.953 99.2774 27.6273C100.365 28.294 101.235 29.3016 101.886 30.6502C102.538 31.9911 102.863 33.673 102.863 35.6959C102.863 37.6651 102.545 39.3279 101.909 40.6841C101.281 42.0327 100.423 43.0556 99.3349 43.7529C98.2545 44.4425 97.0438 44.7873 95.7029 44.7873C94.7528 44.7873 93.9444 44.6303 93.2777 44.3161C92.6188 44.0019 92.0786 43.6073 91.6571 43.1323C91.2357 42.6495 90.9139 42.163 90.6917 41.6726H90.4733V44.5H85.646ZM90.4388 35.6729C90.4388 36.7226 90.5844 37.6383 90.8756 38.4199C91.1667 39.2014 91.5882 39.8106 92.1399 40.2474C92.6916 40.6764 93.362 40.891 94.1513 40.891C94.9482 40.891 95.6224 40.6726 96.1741 40.2359C96.7258 39.7914 97.1434 39.1784 97.427 38.3969C97.7181 37.6076 97.8637 36.6996 97.8637 35.6729C97.8637 34.6538 97.722 33.7573 97.4384 32.9834C97.1549 32.2095 96.7373 31.6041 96.1856 31.1674C95.6339 30.7306 94.9558 30.5122 94.1513 30.5122C93.3544 30.5122 92.6801 30.723 92.1284 31.1444C91.5843 31.5658 91.1667 32.1635 90.8756 32.9374C90.5844 33.7113 90.4388 34.6231 90.4388 35.6729ZM114.176 44.8448C112.36 44.8448 110.797 44.477 109.487 43.7414C108.184 42.9982 107.18 41.9484 106.475 40.5922C105.77 39.2282 105.418 37.6153 105.418 35.7533C105.418 33.9373 105.77 32.3436 106.475 30.972C107.18 29.6004 108.173 28.5315 109.452 27.7653C110.739 26.999 112.249 26.6159 113.981 26.6159C115.145 26.6159 116.23 26.8036 117.233 27.1791C118.245 27.5469 119.126 28.1024 119.877 28.8457C120.635 29.5889 121.225 30.5237 121.647 31.6501C122.068 32.7688 122.279 34.0791 122.279 35.5809V36.9257H107.372V33.8914H117.67C117.67 33.1864 117.517 32.5619 117.21 32.0179C116.904 31.4739 116.479 31.0486 115.935 30.7421C115.398 30.4279 114.774 30.2709 114.061 30.2709C113.318 30.2709 112.659 30.4433 112.084 30.7881C111.517 31.1252 111.073 31.5811 110.751 32.1558C110.429 32.7228 110.264 33.355 110.257 34.0523V36.9372C110.257 37.8107 110.418 38.5654 110.739 39.2014C111.069 39.8374 111.533 40.3278 112.13 40.6726C112.728 41.0174 113.437 41.1898 114.257 41.1898C114.801 41.1898 115.299 41.1132 115.751 40.96C116.203 40.8067 116.59 40.5768 116.912 40.2703C117.233 39.9638 117.479 39.5884 117.647 39.144L122.176 39.4428C121.946 40.5309 121.475 41.481 120.762 42.2932C120.057 43.0978 119.145 43.7261 118.026 44.1782C116.915 44.6226 115.632 44.8448 114.176 44.8448ZM126.221 51.1203V26.8458H128.21V30.2134H128.451C128.696 29.6847 129.034 29.1445 129.463 28.5928C129.892 28.0334 130.459 27.5622 131.164 27.1791C131.876 26.796 132.773 26.6044 133.853 26.6044C135.309 26.6044 136.581 26.9875 137.669 27.7538C138.765 28.5123 139.615 29.5774 140.221 30.949C140.834 32.3129 141.14 33.9029 141.14 35.7189C141.14 37.5425 140.834 39.1401 140.221 40.5117C139.615 41.8833 138.765 42.9522 137.669 43.7184C136.581 44.4847 135.317 44.8678 133.876 44.8678C132.811 44.8678 131.918 44.6762 131.198 44.2931C130.486 43.91 129.907 43.4388 129.463 42.8794C129.026 42.3124 128.689 41.7607 128.451 41.2243H128.267V51.1203H126.221ZM128.244 35.6844C128.244 37.1096 128.455 38.3739 128.876 39.4773C129.306 40.573 129.919 41.435 130.715 42.0633C131.52 42.684 132.493 42.9943 133.635 42.9943C134.807 42.9943 135.796 42.6725 136.6 42.0289C137.412 41.3776 138.029 40.5002 138.451 39.3968C138.88 38.2934 139.094 37.056 139.094 35.6844C139.094 34.3281 138.884 33.106 138.462 32.0179C138.048 30.9298 137.435 30.0678 136.623 29.4318C135.811 28.7882 134.815 28.4664 133.635 28.4664C132.485 28.4664 131.508 28.7767 130.704 29.3974C129.899 30.0103 129.286 30.8609 128.865 31.9489C128.451 33.0293 128.244 34.2745 128.244 35.6844ZM145.628 44.5V26.8458H147.617V29.5583H147.766C148.119 28.6694 148.732 27.953 149.605 27.409C150.486 26.8573 151.483 26.5814 152.594 26.5814C152.762 26.5814 152.95 26.5852 153.157 26.5929C153.364 26.6006 153.536 26.6082 153.674 26.6159V28.6962C153.582 28.6809 153.421 28.6579 153.191 28.6273C152.961 28.5966 152.712 28.5813 152.444 28.5813C151.525 28.5813 150.705 28.7767 149.985 29.1675C149.272 29.5506 148.709 30.0831 148.295 30.7651C147.881 31.4471 147.674 32.2248 147.674 33.0983V44.5H145.628ZM163.765 44.8678C162.118 44.8678 160.693 44.4847 159.49 43.7184C158.287 42.9445 157.356 41.8756 156.697 40.5117C156.045 39.1401 155.72 37.5617 155.72 35.7763C155.72 33.9986 156.045 32.4202 156.697 31.0409C157.356 29.654 158.264 28.5698 159.421 27.7882C160.585 26.999 161.93 26.6044 163.455 26.6044C164.413 26.6044 165.336 26.7806 166.225 27.1331C167.114 27.4779 167.911 28.0105 168.616 28.7307C169.328 29.4433 169.891 30.3437 170.305 31.4317C170.719 32.5121 170.926 33.7918 170.926 35.2706V36.282H157.134V34.4775H168.834C168.834 33.3435 168.604 32.3244 168.144 31.4202C167.692 30.5084 167.06 29.7881 166.248 29.2594C165.443 28.7307 164.512 28.4664 163.455 28.4664C162.336 28.4664 161.352 28.7652 160.501 29.3629C159.651 29.9605 158.984 30.7498 158.501 31.7306C158.026 32.7114 157.785 33.7841 157.777 34.9488V36.0292C157.777 37.4314 158.019 38.6574 158.501 39.7072C158.992 40.7492 159.685 41.5576 160.582 42.1323C161.478 42.707 162.539 42.9943 163.765 42.9943C164.601 42.9943 165.332 42.8641 165.961 42.6035C166.597 42.343 167.129 41.9944 167.558 41.5576C167.995 41.1132 168.325 40.6266 168.547 40.0979L170.489 40.7301C170.221 41.4733 169.78 42.1591 169.167 42.7874C168.562 43.4158 167.803 43.9215 166.892 44.3046C165.987 44.6801 164.945 44.8678 163.765 44.8678ZM182.17 51.4881C180.967 51.4881 179.913 51.3311 179.009 51.0169C178.105 50.7104 177.342 50.289 176.722 49.7526C176.101 49.2162 175.618 48.6147 175.273 47.9481L176.951 46.8447C177.204 47.2891 177.541 47.7259 177.963 48.155C178.392 48.5841 178.948 48.9404 179.629 49.2239C180.319 49.5074 181.166 49.6492 182.17 49.6492C183.733 49.6492 184.993 49.2584 185.951 48.4768C186.916 47.6952 187.399 46.4807 187.399 44.8333V40.8565H187.215C186.978 41.3929 186.637 41.9293 186.192 42.4656C185.748 42.9943 185.166 43.4349 184.445 43.7874C183.733 44.1399 182.848 44.3161 181.79 44.3161C180.38 44.3161 179.128 43.9675 178.032 43.2702C176.944 42.5729 176.086 41.5768 175.457 40.2818C174.837 38.9792 174.526 37.4276 174.526 35.6269C174.526 33.8416 174.829 32.2708 175.434 30.9145C176.047 29.5583 176.902 28.5008 177.997 27.7423C179.093 26.9837 180.369 26.6044 181.825 26.6044C182.905 26.6044 183.802 26.796 184.514 27.1791C185.227 27.5545 185.798 28.0219 186.227 28.5813C186.664 29.1407 187.005 29.6847 187.25 30.2134H187.457V26.8458H189.457V44.9597C189.457 46.4539 189.139 47.6837 188.503 48.6492C187.867 49.6147 187.001 50.3273 185.905 50.787C184.809 51.2544 183.564 51.4881 182.17 51.4881ZM182.032 42.4426C183.166 42.4426 184.135 42.1706 184.94 41.6266C185.744 41.0749 186.361 40.2857 186.79 39.2589C187.219 38.2321 187.434 37.01 187.434 35.5924C187.434 34.2132 187.223 32.991 186.802 31.926C186.38 30.8532 185.767 30.0103 184.963 29.3974C184.166 28.7767 183.189 28.4664 182.032 28.4664C180.852 28.4664 179.856 28.7844 179.043 29.4203C178.231 30.0563 177.618 30.9145 177.204 31.9949C176.791 33.0677 176.584 34.2668 176.584 35.5924C176.584 36.941 176.794 38.1325 177.216 39.1669C177.637 40.1937 178.254 40.9983 179.066 41.5806C179.879 42.1553 180.867 42.4426 182.032 42.4426ZM196.919 33.4661V44.5H194.873V26.8458H196.861V29.6157H197.045C197.459 28.7116 198.103 27.9875 198.976 27.4434C199.857 26.8917 200.945 26.6159 202.24 26.6159C203.428 26.6159 204.47 26.8649 205.367 27.363C206.271 27.8534 206.972 28.5775 207.47 29.5353C207.976 30.4931 208.229 31.6693 208.229 33.0638V44.5H206.183V33.1903C206.183 31.7421 205.777 30.5965 204.964 29.7537C204.16 28.9108 203.079 28.4894 201.723 28.4894C200.796 28.4894 199.972 28.6886 199.252 29.087C198.532 29.4855 197.961 30.0602 197.539 30.8111C197.126 31.5543 196.919 32.4393 196.919 33.4661ZM218.547 44.9023C217.482 44.9023 216.509 44.6954 215.628 44.2816C214.746 43.8602 214.045 43.2549 213.524 42.4656C213.003 41.6687 212.743 40.7033 212.743 39.5692C212.743 38.6957 212.907 37.9601 213.237 37.3624C213.566 36.7648 214.034 36.2744 214.639 35.8913C215.244 35.5081 215.961 35.2055 216.788 34.9833C217.616 34.7611 218.528 34.5886 219.524 34.466C220.512 34.3434 221.348 34.2362 222.03 34.1442C222.719 34.0523 223.244 33.9067 223.604 33.7075C223.964 33.5082 224.144 33.1864 224.144 32.742V32.3282C224.144 31.1252 223.784 30.1789 223.064 29.4893C222.351 28.792 221.325 28.4434 219.984 28.4434C218.712 28.4434 217.673 28.7231 216.869 29.2824C216.072 29.8418 215.513 30.5007 215.191 31.2593L213.248 30.5582C213.647 29.5927 214.199 28.8227 214.903 28.248C215.608 27.6656 216.398 27.248 217.271 26.9952C218.145 26.7347 219.03 26.6044 219.926 26.6044C220.601 26.6044 221.302 26.6925 222.03 26.8688C222.765 27.045 223.447 27.3515 224.075 27.7882C224.704 28.2173 225.213 28.8188 225.604 29.5927C225.995 30.359 226.19 31.3321 226.19 32.5121V44.5H224.144V41.707H224.018C223.773 42.2281 223.409 42.7338 222.926 43.2242C222.443 43.7146 221.838 44.1169 221.11 44.431C220.382 44.7452 219.528 44.9023 218.547 44.9023ZM218.823 43.0288C219.911 43.0288 220.853 42.7874 221.65 42.3047C222.447 41.822 223.06 41.1822 223.489 40.3853C223.926 39.5807 224.144 38.6957 224.144 37.7302V35.1787C223.991 35.3242 223.734 35.4545 223.374 35.5694C223.022 35.6844 222.612 35.7878 222.144 35.8798C221.685 35.9641 221.225 36.0368 220.765 36.0981C220.305 36.1594 219.892 36.2131 219.524 36.2591C218.528 36.3817 217.677 36.5732 216.972 36.8337C216.267 37.0943 215.727 37.4544 215.352 37.9141C214.976 38.3662 214.789 38.9486 214.789 39.6612C214.789 40.7339 215.172 41.5653 215.938 42.1553C216.704 42.7376 217.666 43.0288 218.823 43.0288ZM233.678 33.4661V44.5H231.632V26.8458H233.621V29.6157H233.805C234.219 28.7116 234.862 27.9875 235.736 27.4434C236.617 26.8917 237.705 26.6159 239 26.6159C240.188 26.6159 241.23 26.8649 242.126 27.363C243.03 27.8534 243.731 28.5775 244.23 29.5353C244.735 30.4931 244.988 31.6693 244.988 33.0638V44.5H242.942V33.1903C242.942 31.7421 242.536 30.5965 241.724 29.7537C240.919 28.9108 239.839 28.4894 238.483 28.4894C237.556 28.4894 236.732 28.6886 236.012 29.087C235.291 29.4855 234.72 30.0602 234.299 30.8111C233.885 31.5543 233.678 32.4393 233.678 33.4661ZM257.272 44.8678C255.693 44.8678 254.318 44.4732 253.146 43.684C251.981 42.8947 251.077 41.8143 250.433 40.4427C249.79 39.0712 249.468 37.508 249.468 35.7533C249.468 33.9833 249.793 32.4087 250.445 31.0294C251.104 29.6502 252.015 28.5698 253.18 27.7882C254.345 26.999 255.697 26.6044 257.237 26.6044C258.417 26.6044 259.486 26.8343 260.444 27.294C261.402 27.7461 262.191 28.3859 262.812 29.2135C263.44 30.0333 263.835 30.9911 263.996 32.0869H261.927C261.712 31.0907 261.195 30.2402 260.375 29.5353C259.563 28.8227 258.529 28.4664 257.272 28.4664C256.146 28.4664 255.149 28.7729 254.284 29.3859C253.418 29.9912 252.74 30.8379 252.249 31.926C251.766 33.0064 251.525 34.2592 251.525 35.6844C251.525 37.1172 251.763 38.3854 252.238 39.4888C252.713 40.5845 253.379 41.4427 254.238 42.0633C255.103 42.684 256.115 42.9943 257.272 42.9943C258.053 42.9943 258.766 42.8487 259.41 42.5576C260.061 42.2587 260.605 41.8373 261.042 41.2933C261.486 40.7492 261.785 40.1018 261.938 39.3508H264.007C263.854 40.4159 263.475 41.3661 262.869 42.2013C262.272 43.0288 261.494 43.6801 260.536 44.1552C259.586 44.6303 258.498 44.8678 257.272 44.8678ZM269.817 51.1203C269.411 51.1203 269.032 51.082 268.679 51.0054C268.327 50.9288 268.047 50.8445 267.84 50.7525L268.392 48.948C269.089 49.1626 269.71 49.2392 270.254 49.1779C270.798 49.1243 271.281 48.8791 271.702 48.4423C272.124 48.0132 272.499 47.3543 272.829 46.4654L273.472 44.6724L266.978 26.8458H269.197L274.438 41.799H274.599L279.84 26.8458H282.058L274.587 47.293C274.273 48.1435 273.886 48.8523 273.426 49.4193C272.967 49.994 272.434 50.4192 271.829 50.6951C271.231 50.9786 270.56 51.1203 269.817 51.1203Z" fill="white"/>
</svg>
