<svg width="36" height="36" viewBox="0 0 36 36" fill="none" xmlns="http://www.w3.org/2000/svg">
<path d="M33.1386 27.6148C33.6397 26.6133 33.9098 25.5003 33.9197 24.3428C33.9366 22.3556 33.1854 20.4856 31.8044 19.0771L31.3416 18.605C29.9607 17.1965 28.1088 16.4115 26.1271 16.3945C25.9322 16.3931 25.7385 16.3994 25.5461 16.4126C26.1767 15.2227 26.5346 13.8663 26.5346 12.4274C26.5346 9.66459 25.2162 7.20511 23.1776 5.64715C22.9091 3.04091 20.7039 1 18.0365 1C15.369 1 13.1639 3.04091 12.8954 5.64715C10.8567 7.20517 9.53825 9.66465 9.53825 12.4274C9.53825 15.8542 11.5662 18.8145 14.4816 20.1665L14.1921 21.0916L14.1899 21.0987C13.9976 21.7295 13.4293 22.1532 12.7754 22.1532C6.28242 22.1533 1 27.4692 1 34.0033V35H35V34.0033C35 31.8975 34.311 29.5533 33.1386 27.6148ZM24.0431 9.91083C21.8079 9.66139 19.9308 8.13294 19.2256 6.00912C21.4049 6.41418 23.2066 7.91107 24.0431 9.91083ZM18.0364 2.99344C19.0891 2.99344 20.0244 3.51042 20.6038 4.30408C19.7934 4.04599 18.9309 3.90629 18.0364 3.90629C17.1419 3.90629 16.2794 4.04605 15.469 4.30408C16.0484 3.51042 16.9836 2.99344 18.0364 2.99344ZM16.848 6.00899C16.1469 8.12228 14.2761 9.66106 12.0296 9.91103C12.8661 7.91087 14.6682 6.41378 16.848 6.00899ZM11.5262 12.4276C11.5262 12.2634 11.5324 12.1008 11.5443 11.9396C14.2906 11.8841 16.7044 10.4018 18.0371 8.16723C19.3749 10.4106 21.7953 11.8841 24.5285 11.9397C24.5404 12.1008 24.5466 12.2636 24.5466 12.4276C24.5466 14.5449 23.536 16.4296 21.9734 17.623C21.8485 17.706 21.726 17.7931 21.6059 17.8841C20.5802 18.561 19.3535 18.9556 18.0364 18.9556C14.4466 18.9556 11.5262 16.0272 11.5262 12.4276ZM18.4163 20.94L15.9179 23.403C15.767 23.2102 15.6366 23.0018 15.5305 22.7818C15.7741 22.4601 15.9655 22.0915 16.0897 21.6859L16.3719 20.7843C16.9103 20.8921 17.4668 20.949 18.0365 20.949C18.1638 20.949 18.2903 20.9457 18.4163 20.94ZM3.03748 33.0066C3.53526 28.0379 7.71261 24.1467 12.7754 24.1467C13.1687 24.1467 13.5487 24.0811 13.904 23.9593C14.0737 24.2591 14.2719 24.5426 14.4953 24.8053L11.5046 27.7535C10.0978 29.1402 9.31307 31.0436 9.30078 33.0067H3.03748V33.0066ZM11.2885 33.0066C11.3001 31.5734 11.873 30.1856 12.8982 29.1749L14.536 27.5604C15.5558 27.1181 16.7227 26.9049 17.8356 26.8186L18.106 28.5257L20.0694 28.2131L19.8428 26.7822C20.5153 26.8063 21.0986 26.8608 21.5241 26.9112C21.6126 27.2413 21.7666 27.5536 21.9821 27.8317C22.4074 28.3805 23.0204 28.7303 23.7083 28.8167C23.8179 28.8306 24.364 28.8212 24.5238 28.7904C24.9972 28.9409 25.4829 29.0158 25.9647 29.0158C27.1946 29.0158 28.398 28.5368 29.2968 27.6355C31.1336 25.7937 31.1336 22.7967 29.2968 20.9549C28.4069 20.0627 27.2239 19.5713 25.9656 19.5713C24.7072 19.5713 23.5241 20.0627 22.6344 20.9549C21.5887 22.0035 21.1115 23.4545 21.2892 24.8785C20.2836 24.7803 18.8185 24.7077 17.2666 24.8689L22.2694 19.9372C22.4311 19.7778 23.004 19.3392 23.1133 19.2574C23.995 18.6824 25.0292 18.3778 26.1102 18.388C27.5608 18.4003 28.9153 18.9737 29.924 20.0025L30.3868 20.4746C31.3955 21.5033 31.9442 22.8711 31.9318 24.3259C31.9193 25.7806 31.3476 27.1388 30.3215 28.1503L25.3952 33.0066H11.2885V33.0066ZM26.0798 24.6382C25.6545 24.0894 25.0415 23.7396 24.3537 23.6531C23.9882 23.6072 23.6308 23.6407 23.2982 23.7396C23.404 23.2296 23.6554 22.7499 24.0398 22.3643C24.5542 21.8486 25.238 21.5645 25.9654 21.5645C26.6928 21.5645 27.3766 21.8486 27.8911 22.3643C28.9528 23.429 28.9528 25.1613 27.8911 26.226C27.5093 26.6088 27.0316 26.8593 26.5218 26.9649C26.5599 26.8331 26.5885 26.6974 26.6058 26.5586C26.692 25.869 26.5052 25.1869 26.0798 24.6382ZM24.6333 26.3106C24.6131 26.472 24.5315 26.6157 24.4034 26.7156C24.2754 26.8153 24.1165 26.859 23.9554 26.8389C23.7945 26.8187 23.6511 26.7369 23.5516 26.6085C23.4522 26.4801 23.4085 26.3205 23.4287 26.1592C23.4672 25.8518 23.7292 25.6262 24.0306 25.6262C24.0557 25.6262 24.081 25.6278 24.1066 25.631C24.2675 25.6512 24.4109 25.7331 24.5103 25.8614C24.6098 25.9898 24.6534 26.1493 24.6333 26.3106ZM28.2309 33.0067V33.0066L31.7153 29.5718C31.7658 29.522 31.8154 29.4714 31.8642 29.4204C32.4338 30.5593 32.814 31.8066 32.953 33.0067H28.2309Z" fill="white"/>
</svg>
