<svg width="66" height="66" viewBox="0 0 66 66" fill="none" xmlns="http://www.w3.org/2000/svg">
<rect width="66" height="66" rx="33" fill="white"/>
<path d="M27.0437 41.288C26.1637 41.288 25.3637 41.152 24.6437 40.88C23.9397 40.608 23.3397 40.152 22.8437 39.512C22.3637 38.872 21.9877 38.008 21.7157 36.92C21.4597 35.816 21.3317 34.432 21.3317 32.768C21.3317 31.104 21.4597 29.728 21.7157 28.64C21.9877 27.536 22.3637 26.664 22.8437 26.024C23.3397 25.384 23.9397 24.928 24.6437 24.656C25.3637 24.384 26.1637 24.248 27.0437 24.248C27.9397 24.248 28.7397 24.384 29.4437 24.656C30.1477 24.928 30.7397 25.384 31.2197 26.024C31.7157 26.664 32.0917 27.536 32.3477 28.64C32.6197 29.728 32.7557 31.104 32.7557 32.768C32.7557 34.432 32.6197 35.816 32.3477 36.92C32.0917 38.008 31.7157 38.872 31.2197 39.512C30.7397 40.152 30.1477 40.608 29.4437 40.88C28.7397 41.152 27.9397 41.288 27.0437 41.288ZM27.0437 39.824C28.0517 39.824 28.8277 39.576 29.3717 39.08C29.9317 38.584 30.3317 37.856 30.5717 36.896C30.8117 35.92 30.9317 34.72 30.9317 33.296V32.264C30.9317 30.824 30.8117 29.624 30.5717 28.664C30.3317 27.688 29.9317 26.952 29.3717 26.456C28.8277 25.96 28.0517 25.712 27.0437 25.712C26.0517 25.712 25.2677 25.96 24.6917 26.456C24.1317 26.952 23.7317 27.68 23.4917 28.64C23.2677 29.6 23.1557 30.8 23.1557 32.24V33.272C23.1557 34.696 23.2677 35.896 23.4917 36.872C23.7317 37.848 24.1317 38.584 24.6917 39.08C25.2677 39.576 26.0517 39.824 27.0437 39.824ZM35.1621 41V39.488H39.4341V27.584H35.1621V26.456C35.8021 26.424 36.4341 26.352 37.0581 26.24C37.6821 26.128 38.2821 25.936 38.8581 25.664C39.4341 25.392 39.9621 24.992 40.4421 24.464H41.1621V39.488H45.1941V41H35.1621Z" fill="#00E0D8"/>
</svg>
