<svg width="36" height="36" viewBox="0 0 36 36" fill="none" xmlns="http://www.w3.org/2000/svg">
<path d="M19 27.9925L17 28.001L17.0083 30.001L19.0083 29.9924L19 27.9925Z" fill="#2B4570"/>
<path d="M30 9.33418H29.9999C29.9999 6.23846 27.4729 3.71987 24.3666 3.71987H22.3645C21.7994 3.71987 21.3398 3.26206 21.3398 2.6994V1H14.6839V2.69934C14.6839 3.26206 14.2241 3.7198 13.6592 3.7198H11.6333C8.52708 3.7198 6.00007 6.23839 6.00007 9.33412V23.0193H6.0002C6.0002 23.024 6 23.0287 6 23.0334C6 29.6319 11.3832 35 17.9999 35C24.6167 35 30 29.6319 30 23.0334C30 23.0287 29.9999 23.024 29.9999 23.0193H30V9.33418ZM24.6919 11.1478C24.8917 11.5518 24.9953 11.9962 24.9953 12.4601C24.9953 14.1018 23.656 15.4374 22.0097 15.4374C20.5958 15.4374 19.4084 14.4524 19.1013 13.1343L24.6919 11.1478ZM11.9509 5.7096H13.659C15.2261 5.7096 16.5181 4.51389 16.6652 2.98973H19.3583C19.5053 4.51382 20.7974 5.7096 22.3644 5.7096H24.0979V9.24646L18.0243 11.4047L11.9509 9.24653V5.7096V5.7096ZM11.3569 11.1478L16.9474 13.1343C16.6403 14.4524 15.4529 15.4374 14.039 15.4374C12.3928 15.4374 11.0534 14.1018 11.0534 12.4601C11.0534 11.9961 11.1571 11.5517 11.3569 11.1478ZM9.95567 6.11959V9.61687C9.37506 10.4467 9.05808 11.4425 9.05808 12.4601C9.05808 13.1588 9.20419 13.8239 9.46656 14.4277C8.92344 14.9565 8.42959 15.5726 7.99542 16.2512V9.33418H7.99535C7.99535 7.93826 8.79199 6.72495 9.95567 6.11959ZM17.9999 33.0102C13.4387 33.0102 9.58083 29.9505 8.38131 25.7812C11.4979 24.8128 14.729 24.3209 18 24.3209C21.271 24.3209 24.502 24.8128 27.6186 25.7812C26.4191 29.9505 22.5612 33.0102 17.9999 33.0102ZM27.9746 23.8085C24.7393 22.8287 21.3898 22.331 18 22.331C14.6101 22.331 11.2607 22.8286 8.02532 23.8085C8.00547 23.5527 7.99535 23.2942 7.99535 23.0333C7.99535 20.4843 9.05003 17.7688 10.6344 16.0807C11.5258 16.9147 12.7232 17.4271 14.039 17.4271C15.667 17.4271 17.1149 16.6441 18.0244 15.4361C18.9339 16.6441 20.3817 17.4271 22.0097 17.4271C23.28 17.4271 24.44 16.9499 25.3208 16.1666C27.1468 18.2173 28.0046 20.4225 28.0046 23.0333C28.0046 23.2942 27.9944 23.5527 27.9746 23.8085ZM28.0046 16.3846C27.582 15.751 27.0915 15.1362 26.532 14.5385C26.8256 13.9057 26.9907 13.2019 26.9907 12.4601C26.9907 11.4427 26.6738 10.447 26.0933 9.61721V6.14476C27.2305 6.75829 28.0046 7.95785 28.0046 9.33425V16.3846V16.3846Z" fill="#2B4570"/>
</svg>
