<svg width="36" height="36" viewBox="0 0 36 36" fill="none" xmlns="http://www.w3.org/2000/svg">
<path d="M30.9594 7.47602L26.9329 16.2622H19.1319V1H16.3933C12.2816 1 8.41604 2.59063 5.50858 5.47884C2.60821 8.36009 1.00809 12.1887 1.00033 16.2622H1V16.2919V20.6066C1 22.8363 2.826 24.6503 5.07053 24.6503H17.2629V27.9965L13.6025 29.86C13.0302 28.5702 11.7317 27.6673 10.2241 27.6673C8.18902 27.6673 6.53342 29.312 6.53342 31.3336C6.53342 33.3553 8.18909 35 10.2241 35C12.0397 35 13.5522 33.6905 13.8576 31.9726L18.2675 29.7275L22.7102 31.9895C22.8391 32.6994 23.1784 33.3786 23.7295 33.9262C24.4491 34.641 25.3941 34.9983 26.3393 34.9983C27.2844 34.9983 28.2296 34.641 28.949 33.9262C30.3879 32.4967 30.3879 30.1707 28.949 28.7411C27.51 27.3116 25.1686 27.3116 23.7295 28.7411C23.3921 29.0764 23.1349 29.4612 22.9557 29.8719L19.2718 27.9964V24.6502H28.5396C30.7841 24.6502 32.6101 22.8363 32.6101 20.6066V16.2622H29.1401L32.252 9.47153H35V7.47602H30.9594V7.47602ZM10.2241 33.0044C9.29668 33.0044 8.54225 32.255 8.54225 31.3337C8.54225 30.4125 9.29668 29.663 10.2241 29.663C11.1514 29.663 11.9059 30.4125 11.9059 31.3337C11.9059 32.255 11.1514 33.0044 10.2241 33.0044ZM25.15 30.1523C25.8058 29.5009 26.8727 29.5009 27.5285 30.1523C28.1842 30.8037 28.1842 31.8636 27.5285 32.5151C26.8727 33.1665 25.8058 33.1665 25.15 32.5151C24.4943 31.8636 24.4943 30.8037 25.15 30.1523ZM16.3934 2.99564H17.1231V13.6382L11.3292 3.98497C12.8923 3.34786 14.602 2.99564 16.3934 2.99564ZM9.52864 4.88179L15.3817 14.6337L5.15108 9.08391C6.2665 7.37309 7.76662 5.93194 9.52864 4.88179ZM4.18855 10.8356L14.1922 16.2622H3.00896C3.01317 14.3297 3.43491 12.4928 4.18855 10.8356ZM24.0034 22.6547H5.07053C3.93373 22.6547 3.00889 21.7359 3.00889 20.6067V18.2579H26.0183L24.0034 22.6547ZM30.6012 18.258V20.6067C30.6012 21.736 29.6763 22.6547 28.5396 22.6547H26.2107L28.2256 18.258H30.6012V18.258Z" fill="white"/>
</svg>
