<svg width="36" height="36" viewBox="0 0 36 36" fill="none" xmlns="http://www.w3.org/2000/svg">
<path d="M31.7592 27.6194L26.0905 24.9128V22.8737L28.9441 23.7482L28.9776 23.7579C30.1814 24.0829 31.4418 23.8443 32.4353 23.1032C33.4289 22.3621 33.9987 21.2355 33.9987 20.0124C33.9987 18.2702 32.801 16.73 31.0861 16.2669L23.3106 14.1675C24.4126 12.9448 25.0825 11.34 25.0825 9.58464C25.0825 9.13919 25.0388 8.70357 24.9564 8.28122C26.4657 7.82309 27.585 6.46521 27.6343 4.83407C27.6644 3.83997 27.2974 2.89381 26.6009 2.16992C25.9044 1.44609 24.9618 1.03125 23.9468 1.00176C22.4256 0.95601 21.0717 1.80455 20.4286 3.07065C19.6718 2.79952 18.855 2.65143 18.0034 2.65143C17.152 2.65143 16.3351 2.79952 15.5783 3.07065C14.9508 1.83662 13.647 1.00017 12.1736 1.00017C12.136 1.00017 12.0981 1.00077 12.0603 1.00183C9.96485 1.06272 8.31075 2.78185 8.37286 4.8342C8.42228 6.46534 9.54122 7.82302 11.0506 8.28122C10.9682 8.70357 10.9245 9.13919 10.9245 9.58471C10.9245 11.3393 11.5937 12.9433 12.6948 14.166L4.91351 16.2668C3.19852 16.7299 2.00093 18.2701 2.00093 20.0124C2.00093 21.2354 2.57074 22.3621 3.56432 23.1032C4.55782 23.8442 5.8182 24.0829 7.0221 23.7579L10.1732 22.8498V24.9871L4.26655 27.6074L4.2441 27.6177C3.11933 28.1495 2.3312 29.1418 2.08168 30.3404C1.8321 31.5388 2.16061 32.7542 2.98284 33.6748C3.75281 34.5369 4.85358 34.9995 5.97394 34.9995C6.55772 34.9994 7.14679 34.8738 7.69714 34.6137L13.8325 31.6796C15.0732 32.4628 16.5494 32.9177 18.132 32.9177C19.6559 32.9177 21.0809 32.4958 22.2922 31.7653L28.3071 34.6157C28.8554 34.8748 29.4426 35 30.0252 35C31.1449 34.9999 32.2468 34.5373 33.0172 33.6748C33.8394 32.7543 34.1679 31.5388 33.9183 30.3404C33.6686 29.1418 32.8804 28.1495 31.7592 27.6194ZM23.8339 2.99395C23.8514 2.99395 23.8691 2.99422 23.8866 2.99475C24.3581 3.00843 24.7959 3.20114 25.1194 3.53736C25.443 3.87357 25.6134 4.31305 25.5994 4.7749C25.5758 5.5569 25.0227 6.20337 24.2876 6.39508C23.7899 5.45816 23.0803 4.64588 22.2211 4.01966C22.4989 3.41165 23.1241 2.99395 23.8339 2.99395ZM18.0037 4.64521C20.7845 4.64521 23.0466 6.86106 23.0466 9.58445C23.0466 10.6861 22.6762 11.7044 22.0514 12.5269C22.0371 10.3524 20.2271 8.58749 18.0036 8.58749C15.7801 8.58749 13.9701 10.3524 13.9559 12.5269C13.331 11.7045 12.9606 10.6861 12.9606 9.58445C12.9606 6.86099 15.223 4.64521 18.0037 4.64521ZM19.0215 12.4477V10.8532C19.6161 11.1962 20.0161 11.8293 20.0161 12.5526C20.0161 13.6055 19.1689 14.4683 18.107 14.5212C18.0725 14.5218 18.0383 14.5237 18.0036 14.5237C17.969 14.5237 17.9347 14.5218 17.9002 14.5212C16.8384 14.4682 15.9911 13.6055 15.9911 12.5526C15.9911 11.8293 16.3912 11.1962 16.9857 10.8532V12.4477H19.0215ZM11.7192 6.39562C10.9856 6.20423 10.4317 5.55631 10.4079 4.77484C10.3791 3.82157 11.1475 3.02304 12.1208 2.99475C12.8542 2.97317 13.5022 3.39644 13.7863 4.01947C12.9268 4.64588 12.217 5.45836 11.7192 6.39562ZM6.80791 32.8199C6.02805 33.1886 5.08512 33.0002 4.51511 32.3619C4.11487 31.9138 3.95493 31.3221 4.07636 30.7388C4.19712 30.1588 4.57688 29.6782 5.11902 29.4182L10.4233 27.065C10.7393 28.2671 11.3417 29.3577 12.1544 30.263L6.80791 32.8199ZM18.1319 30.9236C14.8661 30.9236 12.209 28.3214 12.209 25.1229V21.5724C12.3602 20.4162 12.8583 19.3437 13.6532 18.4674L12.1313 17.1429C11.1972 18.1725 10.5681 19.4047 10.2885 20.7379L6.47351 21.8376C5.8896 21.9929 5.27931 21.8762 4.79784 21.517C4.31421 21.1562 4.03683 20.6078 4.03683 20.0124C4.03683 19.1644 4.61986 18.4146 5.45464 18.1892L14.672 15.7003C15.6656 16.2216 16.7999 16.5177 18.0037 16.5177C19.2064 16.5177 20.3398 16.2221 21.3327 15.7017L30.5452 18.1891C31.3799 18.4145 31.963 19.1642 31.963 20.0124C31.963 20.6078 31.6856 21.1561 31.202 21.5169C30.7226 21.8745 30.1152 21.9917 29.5337 21.8395L25.976 20.7491C25.6976 19.4115 25.0675 18.1752 24.1306 17.1425L22.6087 18.4671C23.4065 19.3463 23.9053 20.4231 24.0548 21.5839V25.1229C24.0547 28.3214 21.3977 30.9236 18.1319 30.9236ZM31.4846 32.3619C30.9147 33.0003 29.9717 33.1886 29.1928 32.8203L24.0153 30.3667C24.8866 29.4297 25.5281 28.2845 25.8524 27.0174L30.8707 29.4134C31.4182 29.6723 31.8019 30.1553 31.9234 30.7388C32.0447 31.3222 31.8849 31.9138 31.4846 32.3619Z" fill="#2B4570"/>
</svg>
