<svg width="34" height="28" viewBox="0 0 34 28" fill="none" xmlns="http://www.w3.org/2000/svg">
<path d="M33.5 0V5.12418C32.0085 5.30719 30.7345 5.88671 29.678 6.86275C28.6836 7.83878 27.9068 9.08932 27.3475 10.6144C26.8503 12.0784 26.6017 13.6645 26.6017 15.3726H32.9407V28H19.8898V16.5621C19.8898 12.902 20.5113 9.91286 21.7542 7.59477C23.0593 5.27669 24.7373 3.50763 26.7881 2.28758C28.839 1.06754 31.0763 0.305011 33.5 0ZM14.0169 0V5.12418C12.5876 5.30719 11.3446 5.88671 10.2881 6.86275C9.29379 7.83878 8.51695 9.08932 7.95763 10.6144C7.46045 12.0784 7.21186 13.6645 7.21186 15.3726H13.5508V28H0.5V16.5621C0.5 12.902 1.12147 9.91286 2.36441 7.59477C3.66949 5.27669 5.34746 3.50763 7.3983 2.28758C9.44915 1.06754 11.6554 0.305011 14.0169 0Z" fill="#2B4570"/>
</svg>
