<svg width="66" height="66" viewBox="0 0 66 66" fill="none" xmlns="http://www.w3.org/2000/svg">
<rect width="66" height="66" rx="33" fill="white"/>
<path d="M26.2351 41.288C25.3551 41.288 24.5551 41.152 23.8351 40.88C23.1311 40.608 22.5311 40.152 22.0351 39.512C21.5551 38.872 21.1791 38.008 20.9071 36.92C20.6511 35.816 20.5231 34.432 20.5231 32.768C20.5231 31.104 20.6511 29.728 20.9071 28.64C21.1791 27.536 21.5551 26.664 22.0351 26.024C22.5311 25.384 23.1311 24.928 23.8351 24.656C24.5551 24.384 25.3551 24.248 26.2351 24.248C27.1311 24.248 27.9311 24.384 28.6351 24.656C29.3391 24.928 29.9311 25.384 30.4111 26.024C30.9071 26.664 31.2831 27.536 31.5391 28.64C31.8111 29.728 31.9471 31.104 31.9471 32.768C31.9471 34.432 31.8111 35.816 31.5391 36.92C31.2831 38.008 30.9071 38.872 30.4111 39.512C29.9311 40.152 29.3391 40.608 28.6351 40.88C27.9311 41.152 27.1311 41.288 26.2351 41.288ZM26.2351 39.824C27.2431 39.824 28.0191 39.576 28.5631 39.08C29.1231 38.584 29.5231 37.856 29.7631 36.896C30.0031 35.92 30.1231 34.72 30.1231 33.296V32.264C30.1231 30.824 30.0031 29.624 29.7631 28.664C29.5231 27.688 29.1231 26.952 28.5631 26.456C28.0191 25.96 27.2431 25.712 26.2351 25.712C25.2431 25.712 24.4591 25.96 23.8831 26.456C23.3231 26.952 22.9231 27.68 22.6831 28.64C22.4591 29.6 22.3471 30.8 22.3471 32.24V33.272C22.3471 34.696 22.4591 35.896 22.6831 36.872C22.9231 37.848 23.3231 38.584 23.8831 39.08C24.4591 39.576 25.2431 39.824 26.2351 39.824ZM34.2815 41V40.352C34.2815 39.696 34.4095 39.096 34.6655 38.552C34.9375 37.992 35.2975 37.48 35.7455 37.016C36.2095 36.552 36.7215 36.104 37.2815 35.672C37.8415 35.24 38.4175 34.816 39.0095 34.4C39.8575 33.824 40.6255 33.256 41.3135 32.696C42.0175 32.12 42.5775 31.512 42.9935 30.872C43.4255 30.216 43.6415 29.488 43.6415 28.688C43.6415 28.096 43.5055 27.584 43.2335 27.152C42.9615 26.704 42.5615 26.36 42.0335 26.12C41.5215 25.864 40.8815 25.736 40.1135 25.736C39.1535 25.736 38.3935 25.904 37.8335 26.24C37.2735 26.576 36.8655 27.008 36.6095 27.536C36.3695 28.064 36.2495 28.624 36.2495 29.216V30.2H34.5455C34.5295 30.12 34.5135 30 34.4975 29.84C34.4815 29.664 34.4735 29.464 34.4735 29.24C34.4735 28.056 34.7375 27.104 35.2655 26.384C35.7935 25.648 36.4975 25.112 37.3775 24.776C38.2575 24.424 39.2095 24.248 40.2335 24.248C41.0495 24.248 41.7775 24.352 42.4175 24.56C43.0575 24.768 43.6015 25.072 44.0495 25.472C44.4975 25.872 44.8415 26.352 45.0815 26.912C45.3215 27.472 45.4415 28.08 45.4415 28.736C45.4415 29.504 45.3055 30.2 45.0335 30.824C44.7775 31.432 44.4095 32 43.9295 32.528C43.4495 33.056 42.8895 33.568 42.2495 34.064C41.6095 34.56 40.9215 35.056 40.1855 35.552C39.6095 35.936 39.0415 36.344 38.4815 36.776C37.9215 37.208 37.4415 37.648 37.0415 38.096C36.6415 38.528 36.4015 38.952 36.3215 39.368H45.5375V41H34.2815Z" fill="#00E0D8"/>
</svg>
