<svg width="36" height="36" viewBox="0 0 36 36" fill="none" xmlns="http://www.w3.org/2000/svg">
<path d="M33.3001 11.6159V1.01441H31.3109V11.2833L18.862 15.6596H17.1378L4.67578 11.2786V1H2.68658V11.6331C1.59646 13.0723 1 14.8367 1 16.6408C1 18.5248 1.66227 20.3766 2.86488 21.8552C3.8026 23.0081 5.03829 23.8998 6.41808 24.4367C5.79187 26.0168 5.23259 27.649 5.23259 28.4383C5.23259 30.4022 6.85217 32 8.84283 32C10.8335 32 12.453 30.4023 12.453 28.4383C12.453 27.7092 11.9758 26.261 11.4096 24.799C13.0392 24.4326 14.5238 23.5945 15.6827 22.3683C16.925 21.0539 17.695 19.3962 17.9032 17.622H18.098C18.592 21.7745 22.1801 25.007 26.5197 25.007C31.1957 25.007 35 21.2539 35 16.6408C34.9999 14.8294 34.3985 13.0583 33.3001 11.6159ZM8.84283 30.0376C7.949 30.0376 7.22179 29.3201 7.22179 28.4383C7.22179 27.8762 7.96056 25.8612 8.8429 23.7687C9.72523 25.861 10.4638 27.8758 10.4638 28.4383C10.4638 29.3201 9.73672 30.0376 8.84283 30.0376ZM14.2279 21.03C13.2698 22.0438 12.02 22.709 10.6543 22.9469C10.2839 22.0764 8.84283 18.918 8.84283 18.918C8.84283 18.918 7.48522 21.8915 7.17092 22.621C6.10165 22.2102 5.14314 21.5207 4.41633 20.6271C3.48259 19.4792 2.98913 18.1007 2.98913 16.6409C2.98913 15.3956 3.36021 14.1754 4.04459 13.1402L15.9356 17.3204C15.7893 18.7083 15.1958 20.0059 14.2279 21.03ZM26.5196 23.0446C23.1728 23.0446 20.4096 20.5332 20.0647 17.3201L31.9552 13.1402C32.6396 14.1754 33.0107 15.3956 33.0107 16.6409C33.0107 20.1719 30.0988 23.0446 26.5196 23.0446Z" fill="white"/>
<path d="M15.5 26C15.5 26 13 31.3714 13 32.3862C13 33.8275 14.1215 35 15.5 35C16.8786 35 18 33.8274 18 32.3862C18.0001 31.3714 15.5 26 15.5 26ZM15.5 32.9893C15.1836 32.9893 14.9259 32.7216 14.9231 32.3914C14.9391 32.1382 15.1764 31.4591 15.5001 30.6622C15.8237 31.459 16.0609 32.1378 16.0769 32.3914C16.0742 32.7217 15.8164 32.9893 15.5 32.9893Z" fill="white"/>
</svg>
