<svg width="1920" height="384" viewBox="0 0 1920 384" fill="none" xmlns="http://www.w3.org/2000/svg">
<path d="M604.999 383.5C604.999 219.748 737.747 87 901.5 87V383.5H604.999Z" fill="url(#paint0_linear_323_2537)"/>
<path d="M1198.84 383.5C1198.84 219.748 1066.09 87 902.335 87V383.5H1198.84Z" fill="url(#paint1_linear_323_2537)"/>
<circle cx="813" cy="92" r="31" fill="url(#paint2_linear_323_2537)"/>
<circle cx="1250" cy="202" r="13" fill="url(#paint3_linear_323_2537)"/>
<circle cx="337" cy="210" r="13" fill="url(#paint4_linear_323_2537)"/>
<path d="M1597 86C1597 133.496 1558.5 172 1511 172C1463.5 172 1425 133.496 1425 86L1597 86Z" fill="url(#paint5_linear_323_2537)"/>
<path d="M1597 86C1597 38.5035 1558.5 7.15256e-07 1511 7.15256e-07C1463.5 7.15256e-07 1425 38.5035 1425 86L1597 86Z" fill="url(#paint6_linear_323_2537)"/>
<defs>
<linearGradient id="paint0_linear_323_2537" x1="753.249" y1="87" x2="753.249" y2="383.5" gradientUnits="userSpaceOnUse">
<stop stop-color="#94FEFA" stop-opacity="0"/>
<stop offset="1" stop-color="#94FEFA" stop-opacity="0.38"/>
</linearGradient>
<linearGradient id="paint1_linear_323_2537" x1="1050.59" y1="87" x2="1050.59" y2="383.5" gradientUnits="userSpaceOnUse">
<stop stop-color="#94FEFA" stop-opacity="0.39"/>
<stop offset="1" stop-color="#94FEFA" stop-opacity="0"/>
</linearGradient>
<linearGradient id="paint2_linear_323_2537" x1="813" y1="61" x2="813" y2="123" gradientUnits="userSpaceOnUse">
<stop stop-color="#94FEFA" stop-opacity="0"/>
<stop offset="1" stop-color="#94FEFA" stop-opacity="0.56"/>
</linearGradient>
<linearGradient id="paint3_linear_323_2537" x1="1250" y1="189" x2="1250" y2="215" gradientUnits="userSpaceOnUse">
<stop stop-color="#94FEFA" stop-opacity="0"/>
<stop offset="1" stop-color="#94FEFA" stop-opacity="0.56"/>
</linearGradient>
<linearGradient id="paint4_linear_323_2537" x1="324" y1="223" x2="350" y2="223" gradientUnits="userSpaceOnUse">
<stop stop-color="#94FEFA" stop-opacity="0"/>
<stop offset="1" stop-color="#FFDFDB" stop-opacity="0.69"/>
</linearGradient>
<linearGradient id="paint5_linear_323_2537" x1="1425" y1="172" x2="1597" y2="172" gradientUnits="userSpaceOnUse">
<stop stop-color="#94FEFA" stop-opacity="0.39"/>
<stop offset="1" stop-color="#94FEFA" stop-opacity="0"/>
</linearGradient>
<linearGradient id="paint6_linear_323_2537" x1="1425" y1="0" x2="1597" y2="0" gradientUnits="userSpaceOnUse">
<stop stop-color="#94FEFA" stop-opacity="0"/>
<stop offset="1" stop-color="#FFDFDB" stop-opacity="0.69"/>
</linearGradient>
</defs>
</svg>
