<svg width="66" height="66" viewBox="0 0 66 66" fill="none" xmlns="http://www.w3.org/2000/svg">
<rect width="66" height="66" rx="33" fill="white"/>
<path d="M26.1296 41.288C25.2496 41.288 24.4496 41.152 23.7296 40.88C23.0256 40.608 22.4256 40.152 21.9296 39.512C21.4496 38.872 21.0736 38.008 20.8016 36.92C20.5456 35.816 20.4176 34.432 20.4176 32.768C20.4176 31.104 20.5456 29.728 20.8016 28.64C21.0736 27.536 21.4496 26.664 21.9296 26.024C22.4256 25.384 23.0256 24.928 23.7296 24.656C24.4496 24.384 25.2496 24.248 26.1296 24.248C27.0256 24.248 27.8256 24.384 28.5296 24.656C29.2336 24.928 29.8256 25.384 30.3056 26.024C30.8016 26.664 31.1776 27.536 31.4336 28.64C31.7056 29.728 31.8416 31.104 31.8416 32.768C31.8416 34.432 31.7056 35.816 31.4336 36.92C31.1776 38.008 30.8016 38.872 30.3056 39.512C29.8256 40.152 29.2336 40.608 28.5296 40.88C27.8256 41.152 27.0256 41.288 26.1296 41.288ZM26.1296 39.824C27.1376 39.824 27.9136 39.576 28.4576 39.08C29.0176 38.584 29.4176 37.856 29.6576 36.896C29.8976 35.92 30.0176 34.72 30.0176 33.296V32.264C30.0176 30.824 29.8976 29.624 29.6576 28.664C29.4176 27.688 29.0176 26.952 28.4576 26.456C27.9136 25.96 27.1376 25.712 26.1296 25.712C25.1376 25.712 24.3536 25.96 23.7776 26.456C23.2176 26.952 22.8176 27.68 22.5776 28.64C22.3536 29.6 22.2416 30.8 22.2416 32.24V33.272C22.2416 34.696 22.3536 35.896 22.5776 36.872C22.8176 37.848 23.2176 38.584 23.7776 39.08C24.3536 39.576 25.1376 39.824 26.1296 39.824ZM39.888 41.288C38.592 41.288 37.504 41.096 36.624 40.712C35.76 40.328 35.104 39.784 34.656 39.08C34.208 38.36 33.984 37.504 33.984 36.512V36.224H35.712V36.488C35.712 37.56 36.056 38.384 36.744 38.96C37.448 39.536 38.416 39.824 39.648 39.824C40.912 39.824 41.92 39.56 42.672 39.032C43.44 38.488 43.824 37.632 43.824 36.464C43.824 35.648 43.616 35.016 43.2 34.568C42.8 34.12 42.28 33.808 41.64 33.632C41 33.456 40.32 33.368 39.6 33.368H37.728V31.904H39.672C40.344 31.904 40.96 31.8 41.52 31.592C42.096 31.384 42.56 31.048 42.912 30.584C43.264 30.104 43.44 29.472 43.44 28.688C43.44 28.016 43.28 27.464 42.96 27.032C42.64 26.6 42.216 26.272 41.688 26.048C41.16 25.824 40.576 25.712 39.936 25.712C39.248 25.712 38.608 25.84 38.016 26.096C37.44 26.336 36.984 26.696 36.648 27.176C36.312 27.64 36.144 28.224 36.144 28.928V29.24H34.368V28.88C34.368 27.968 34.6 27.168 35.064 26.48C35.544 25.776 36.2 25.232 37.032 24.848C37.88 24.448 38.832 24.248 39.888 24.248C40.928 24.248 41.848 24.416 42.648 24.752C43.464 25.088 44.096 25.584 44.544 26.24C45.008 26.88 45.24 27.68 45.24 28.64C45.24 29.344 45.104 29.952 44.832 30.464C44.576 30.96 44.232 31.368 43.8 31.688C43.384 32.008 42.936 32.264 42.456 32.456V32.552C43.368 32.808 44.12 33.272 44.712 33.944C45.32 34.616 45.624 35.496 45.624 36.584C45.624 37.56 45.376 38.4 44.88 39.104C44.4 39.808 43.72 40.352 42.84 40.736C41.976 41.104 40.992 41.288 39.888 41.288Z" fill="#00E0D8"/>
</svg>
