<svg width="36" height="36" viewBox="0 0 36 36" fill="none" xmlns="http://www.w3.org/2000/svg">
<path d="M13.0139 20L13 22L14.9999 22.0154L15.0138 20.0154L13.0139 20Z" fill="#2B4570"/>
<path d="M21.0139 20L21 22L22.9999 22.0154L23.0138 20.0154L21.0139 20Z" fill="#2B4570"/>
<path d="M30.9892 18.0567C29.4735 12.3236 24.281 8.07799 18.1103 8.02787V8.02647C17.0337 8.02647 16.1578 7.14727 16.1578 6.06671V4.70136C16.1578 3.76017 16.9208 2.99435 17.8586 2.99435H18.7239C19.3081 2.99435 19.7833 3.47137 19.7833 4.05757C19.7833 4.6439 19.308 5.12086 18.7239 5.12086H17.7878V7.11508H18.7239C20.4036 7.11508 21.7702 5.74345 21.7702 4.0575C21.7702 2.37162 20.4036 1 18.7239 1H17.8586C15.8252 1 14.1709 2.66042 14.1709 4.70122V6.06658C14.1709 6.93172 14.45 7.73234 14.9214 8.38405C10.1024 9.52213 6.27618 13.2714 5.01114 18.0565C2.78752 18.1274 1 19.9637 1 22.2124C1 24.5057 2.85884 26.3714 5.14375 26.3714C5.24987 26.3714 5.35559 26.3672 5.46077 26.3593C7.40448 31.4087 12.292 35 18.0001 35C23.7083 35 28.5958 31.4087 30.5395 26.3593C30.6446 26.3673 30.7503 26.3715 30.8563 26.3715C33.1411 26.3715 35 24.5059 35 22.2125C35 19.9638 33.2127 18.1276 30.9892 18.0567ZM2.98688 22.2124C2.98688 21.1944 3.69085 20.3387 4.63568 20.1088C4.58786 20.5705 4.56303 21.039 4.56303 21.5132C4.56303 22.4891 4.66782 23.4408 4.86491 24.3585C3.80693 24.2207 2.98688 23.3112 2.98688 22.2124ZM8.05042 26.7999C7.97432 26.7999 7.89948 26.7926 7.82563 26.7809C7.45236 26.0575 7.15387 25.2895 6.93951 24.4871C7.20613 24.153 7.61512 23.9486 8.05042 23.9486C8.83368 23.9486 9.47085 24.5882 9.47085 25.3743C9.47085 26.1603 8.83368 26.7999 8.05042 26.7999ZM28.1744 26.7814C28.1017 26.7927 28.0281 26.7999 27.9533 26.7999C27.17 26.7999 26.5329 26.1604 26.5329 25.3743C26.5329 24.5882 27.17 23.9486 27.9533 23.9486C28.3873 23.9486 28.7949 24.1518 29.0616 24.4841C28.8472 25.2877 28.5482 26.057 28.1744 26.7814ZM29.4234 22.2928C28.9712 22.0747 28.4699 21.9545 27.9533 21.9545C26.0745 21.9545 24.546 23.4887 24.546 25.3743C24.546 26.9168 25.5691 28.2236 26.9697 28.6484C24.8704 31.3012 21.63 33.0057 18.0002 33.0057C14.3707 33.0057 11.1307 31.3016 9.0313 28.6491C10.4334 28.2253 11.4578 26.9178 11.4578 25.3743C11.4578 23.4886 9.92925 21.9544 8.05048 21.9544C7.53258 21.9544 7.03009 22.0752 6.577 22.2944C6.55966 22.0361 6.54997 21.7758 6.54997 21.5132C6.54997 15.1762 11.6866 10.0207 18.0001 10.0207C24.3137 10.0207 29.4503 15.1763 29.4503 21.5132C29.4503 21.7753 29.4407 22.0351 29.4234 22.2928ZM31.1354 24.3584C31.3324 23.4408 31.4372 22.4891 31.4372 21.5132C31.4372 21.039 31.4124 20.5706 31.3646 20.1089C32.3093 20.3389 33.0131 21.1945 33.0131 22.2124C33.0131 23.3111 32.1932 24.2205 31.1354 24.3584Z" fill="#2B4570"/>
<path d="M21.4469 26C20.5941 27.1335 19.3378 27.7835 18 27.7835C16.6622 27.7835 15.4059 27.1334 14.5531 26L13 27.4129C14.237 29.057 16.0594 30 18.0001 30C19.9406 30 21.763 29.057 23 27.4129L21.4469 26Z" fill="#2B4570"/>
</svg>
