<svg width="1920" height="500" viewBox="0 0 1920 500" fill="none" xmlns="http://www.w3.org/2000/svg">
<g clip-path="url(#clip0_344_6581)">
<path d="M1799.67 240.667C1799.67 174.209 1745.79 120.333 1679.33 120.333V240.667H1799.67Z" fill="#FFF0EE"/>
<path d="M1559 240.667C1559 307.125 1612.87 361 1679.33 361V240.667H1559Z" fill="#FFF0EE"/>
<path d="M1559 240.667C1559 174.209 1612.87 120.333 1679.33 120.333V240.667H1559Z" fill="#FFDFDB"/>
<path d="M1559 0.000152588C1559 66.4584 1612.87 120.333 1679.33 120.333V0.000152588H1559Z" fill="#94FEFA"/>
<path d="M1799.67 0.000152588C1799.67 66.4584 1853.54 120.333 1920 120.333V0.000152588H1799.67Z" fill="#00E0D8"/>
<path d="M1799.67 0.000152588C1799.67 66.4584 1745.79 120.333 1679.33 120.333V0.000152588H1799.67Z" fill="#FFF0EE"/>
<path d="M1799.67 240.667C1799.67 307.125 1745.79 361 1679.33 361V240.667H1799.67Z" fill="#94FEFA"/>
<path d="M1799.67 240.667C1799.67 174.209 1853.54 120.333 1920 120.333V240.667H1799.67Z" fill="#FFF0EE"/>
<path d="M1799.67 240.667C1799.67 307.125 1853.54 361 1920 361V240.667H1799.67Z" fill="white"/>
</g>
<defs>
<clipPath id="clip0_344_6581">
<rect width="1920" height="500" fill="white"/>
</clipPath>
</defs>
</svg>
