<svg width="33" height="28" viewBox="0 0 33 28" fill="none" xmlns="http://www.w3.org/2000/svg">
<path d="M33 0V5.12418C31.5085 5.30719 30.2345 5.88671 29.178 6.86275C28.1836 7.83878 27.4068 9.08932 26.8475 10.6144C26.3503 12.0784 26.1017 13.6645 26.1017 15.3726H32.4407V28H19.3898V16.5621C19.3898 12.902 20.0113 9.91286 21.2542 7.59477C22.5593 5.27669 24.2373 3.50763 26.2881 2.28758C28.339 1.06754 30.5763 0.305011 33 0ZM13.5169 0V5.12418C12.0876 5.30719 10.8446 5.88671 9.78814 6.86275C8.79379 7.83878 8.01695 9.08932 7.45763 10.6144C6.96045 12.0784 6.71186 13.6645 6.71186 15.3726H13.0508V28H0V16.5621C0 12.902 0.621469 9.91286 1.86441 7.59477C3.16949 5.27669 4.84746 3.50763 6.8983 2.28758C8.94915 1.06754 11.1554 0.305011 13.5169 0Z" fill="#FFDFDB"/>
</svg>
