<svg width="1080" height="1108" viewBox="0 0 1080 1108" fill="none" xmlns="http://www.w3.org/2000/svg">
<g clip-path="url(#clip0_347_6920)">
<path d="M960 910.857C960 844.583 1013.73 790.857 1080 790.857V910.857H960Z" fill="#FFF0EE"/>
<path d="M960 910.857C960 977.131 1013.73 1030.86 1080 1030.86V910.857H960Z" fill="#FFDFDB"/>
<path d="M960 670.857C960 604.583 1013.73 550.857 1080 550.857V670.857H960Z" fill="#FFDFDB"/>
<path d="M960 670.857C960 737.131 1013.73 790.857 1080 790.857V670.857H960Z" fill="#00E0D8"/>
<path d="M5.24537e-06 120C66.2742 120 120 66.2742 120 0L0 5.24537e-06L5.24537e-06 120Z" fill="#FFDFDB"/>
<path d="M5.24537e-06 120C66.2742 120 120 173.726 120 240L0 240L5.24537e-06 120Z" fill="#FFF0EE"/>
<path d="M240 120C173.726 120 120 66.2742 120 0L240 -5.24537e-06L240 120Z" fill="#FFF0EE"/>
<path d="M240 120C306.274 120 360 66.2742 360 0L240 5.24537e-06L240 120Z" fill="#94FEFA"/>
</g>
<defs>
<clipPath id="clip0_347_6920">
<rect width="1080" height="1108" fill="white"/>
</clipPath>
</defs>
</svg>
