<svg width="1920" height="1200" viewBox="0 0 1920 1200" fill="none" xmlns="http://www.w3.org/2000/svg">
<g clip-path="url(#clip0_334_2633)">
<path d="M1834 1200C1834 1152.5 1872.5 1114 1920 1114V1200H1834Z" fill="#FFDFDB"/>
<path d="M83.6667 1032.67C83.6667 986.459 46.2078 949 0 949V1032.67H83.6667Z" fill="#FFF0EE"/>
<path d="M83.6667 1032.67C83.6667 1078.87 46.2078 1116.33 0 1116.33V1032.67H83.6667Z" fill="#FFDFDB"/>
<path d="M83.6667 1200C83.6667 1153.79 46.2078 1116.33 0 1116.33V1200H83.6667Z" fill="#94FEFA"/>
<path d="M251 1200C251 1153.79 213.541 1116.33 167.333 1116.33V1200H251Z" fill="#94FEFA"/>
<path d="M83.6668 1200C83.6668 1153.79 121.126 1116.33 167.333 1116.33V1200H83.6668Z" fill="#FFF0EE"/>
</g>
<defs>
<clipPath id="clip0_334_2633">
<rect width="1920" height="1200" fill="white"/>
</clipPath>
</defs>
</svg>
