<svg width="200" height="201" viewBox="0 0 200 201" fill="none" xmlns="http://www.w3.org/2000/svg">
<path style="mix-blend-mode:multiply" d="M200 100C200 155.309 155.151 200 100 200C44.8494 200 0 155.309 0 100C0 44.691 44.691 0 100 0C155.309 0 200 44.8494 200 100V100Z" fill="url(#paint0_radial_196_3147)"/>
<path style="mix-blend-mode:multiply" d="M200 100C200 155.309 155.151 200 100 200C44.8494 200 0 155.309 0 100C0 44.691 44.691 0 100 0C155.309 0 200 44.8494 200 100V100Z" fill="url(#paint1_radial_196_3147)"/>
<path style="mix-blend-mode:multiply" d="M200 100C200 117.908 195.246 134.865 187.005 149.445C169.731 179.715 137.242 200.158 100 200.158C44.691 200.158 0 155.309 0 100.158C0 93.9778 0.475434 88.1141 1.58478 82.2504C6.02218 57.3692 19.6513 35.8162 38.8273 20.9192C55.7845 7.76545 77.0206 0 100 0C140.412 0 175.277 23.9303 190.967 58.4786C196.83 71.1569 200 85.2615 200 100.158V100Z" fill="url(#paint2_radial_196_3147)"/>
<path style="mix-blend-mode:multiply" opacity="0.5" d="M200 100C200 117.908 195.246 134.865 187.005 149.445C169.731 179.715 137.242 200.158 100 200.158C44.691 200.158 0 155.309 0 100.158C0 93.9778 0.475434 88.1141 1.58478 82.2504C6.02218 57.3692 19.6513 35.8162 38.8273 20.9192C55.7845 7.76545 77.0206 0 100 0C140.412 0 175.277 23.9303 190.967 58.4786C196.83 71.1569 200 85.2615 200 100.158V100Z" fill="url(#paint3_radial_196_3147)"/>
<path style="mix-blend-mode:color-burn" d="M200 100C200 117.908 195.246 134.865 187.005 149.445C169.731 179.715 137.242 200.158 100 200.158C44.691 200.158 0 155.309 0 100.158C0 93.9778 0.475434 88.1141 1.58478 82.2504C6.02218 57.3692 19.6513 35.8162 38.8273 20.9192C55.7845 7.76545 77.0206 0 100 0C140.412 0 175.277 23.9303 190.967 58.4786C196.83 71.1569 200 85.2615 200 100.158V100Z" fill="url(#paint4_radial_196_3147)"/>
<path style="mix-blend-mode:screen" opacity="0.9" d="M199.996 100C199.996 117.908 195.242 134.865 187.001 149.445C170.044 162.599 148.807 170.364 125.828 170.364C70.5191 170.364 25.8281 125.515 25.8281 70.3645C25.8281 52.4564 30.5825 35.4992 38.8234 20.9192C55.7806 7.76545 77.0167 0 99.9961 0C140.408 0 175.273 23.9303 190.963 58.4786C196.826 71.1569 199.996 85.2615 199.996 100.158V100Z" fill="url(#paint5_radial_196_3147)"/>
<path style="mix-blend-mode:screen" opacity="0.9" d="M190.969 58.4786C182.569 105.23 141.682 140.57 92.5536 140.57C52.1416 140.57 17.2763 116.64 1.58691 82.0919C9.98628 35.4992 50.8737 0 100.002 0C140.414 0 175.279 23.9303 190.969 58.4786Z" fill="url(#paint6_radial_196_3147)"/>
<path style="mix-blend-mode:multiply" opacity="0.5" d="M105.386 196.356C50.3941 196.356 5.86165 151.824 5.86165 96.8315C5.86165 71.9503 15.0534 49.2879 30.1089 31.6968C12.5178 49.2879 1.74121 73.5351 1.74121 100.476C1.74121 154.201 45.3228 197.782 99.0471 197.782C107.129 197.782 114.895 196.831 122.343 194.93C116.797 195.881 111.25 196.356 105.545 196.356H105.386Z" fill="url(#paint7_linear_196_3147)"/>
<path style="mix-blend-mode:color-dodge" d="M99.999 5.2232C153.248 5.2232 196.671 47.8539 197.622 100.944C197.622 100.31 197.622 99.6764 197.622 99.0425C197.78 45.0013 154.04 1.26123 99.999 1.26123C45.9579 1.26123 2.21777 45.0013 2.21777 98.884C2.21777 99.5179 2.21777 100.152 2.21777 100.786C3.32712 47.6954 46.5918 5.06472 99.8406 5.06472L99.999 5.2232Z" fill="url(#paint8_linear_196_3147)"/>
<path style="mix-blend-mode:screen" d="M184.785 145.001C184.785 156.729 175.276 166.237 163.549 166.237C151.821 166.237 142.312 156.729 142.312 145.001C142.312 133.274 151.821 123.765 163.549 123.765C175.276 123.765 184.785 133.274 184.785 145.001Z" fill="url(#paint9_radial_196_3147)"/>
<path style="mix-blend-mode:color-dodge" d="M189.382 73.052C189.382 84.7795 179.874 94.2882 168.146 94.2882C156.419 94.2882 146.91 84.7795 146.91 73.052C146.91 61.3246 156.419 51.8159 168.146 51.8159C179.874 51.8159 189.382 61.3246 189.382 73.052Z" fill="url(#paint10_radial_196_3147)"/>
<path style="mix-blend-mode:color-burn" opacity="0.5" d="M200 100C200 117.908 195.246 134.865 187.005 149.445C169.731 179.715 137.242 200.158 100 200.158C44.691 200.158 0 155.309 0 100.158C0 93.9778 0.475434 88.1141 1.58478 82.2504C6.02218 57.3692 19.6513 35.8162 38.8273 20.9192C55.7845 7.76545 77.0206 0 100 0C140.412 0 175.277 23.9303 190.967 58.4786C196.83 71.1569 200 85.2615 200 100.158V100Z" fill="url(#paint11_radial_196_3147)"/>
<path d="M78.2689 125.252C75.2966 125.252 72.7236 124.72 70.5499 123.655C68.3761 122.546 66.5794 120.971 65.1598 118.93C63.7402 116.89 62.6755 114.383 61.9657 111.411C61.3003 108.439 60.9676 105.045 60.9676 101.23C60.9676 97.459 61.3003 94.0875 61.9657 91.1152C62.6755 88.0986 63.7402 85.5699 65.1598 83.5292C66.5794 81.4886 68.3761 79.9359 70.5499 78.8712C72.7236 77.7621 75.2966 77.2076 78.2689 77.2076C84.1691 77.2076 88.5167 79.3148 91.3115 83.5292C94.1507 87.7437 95.5703 93.6439 95.5703 101.23C95.5703 108.816 94.1507 114.716 91.3115 118.93C88.5167 123.145 84.1691 125.252 78.2689 125.252ZM78.2689 117.866C81.2412 117.866 83.3041 116.757 84.4575 114.539C85.6553 112.276 86.2542 109.237 86.2542 105.422V97.0376C86.2542 93.2224 85.6553 90.2058 84.4575 87.9877C83.3041 85.7252 81.2412 84.5939 78.2689 84.5939C75.2966 84.5939 73.2116 85.7252 72.0138 87.9877C70.8604 90.2058 70.2837 93.2224 70.2837 97.0376V105.422C70.2837 109.237 70.8604 112.276 72.0138 114.539C73.2116 116.757 75.2966 117.866 78.2689 117.866ZM115.641 96.7714C118.302 96.7714 120.254 96.2391 121.496 95.1744C122.783 94.0653 123.426 92.6679 123.426 90.9821V90.5163C123.426 88.6087 122.805 87.1226 121.563 86.0579C120.365 84.9488 118.702 84.3943 116.572 84.3943C114.531 84.3943 112.713 84.8823 111.116 85.8583C109.563 86.8342 108.21 88.2095 107.056 89.984L101.467 84.9266C102.265 83.8619 103.13 82.8638 104.062 81.9322C105.038 80.9562 106.147 80.1355 107.389 79.4701C108.631 78.7603 110.029 78.2057 111.581 77.8065C113.134 77.4072 114.886 77.2076 116.838 77.2076C119.19 77.2076 121.319 77.4959 123.226 78.0726C125.178 78.605 126.842 79.4035 128.217 80.4682C129.637 81.5329 130.724 82.8194 131.478 84.3277C132.232 85.7917 132.609 87.4553 132.609 89.3185C132.609 90.8269 132.365 92.1799 131.877 93.3777C131.434 94.5755 130.79 95.618 129.947 96.5053C129.149 97.3925 128.195 98.1245 127.086 98.7012C126.021 99.2335 124.89 99.6328 123.692 99.899V100.298C125.023 100.564 126.288 100.986 127.485 101.563C128.683 102.139 129.703 102.916 130.546 103.892C131.434 104.823 132.121 105.932 132.609 107.219C133.142 108.505 133.408 109.969 133.408 111.611C133.408 113.651 132.986 115.515 132.143 117.2C131.345 118.886 130.191 120.328 128.683 121.526C127.175 122.723 125.378 123.655 123.293 124.321C121.208 124.942 118.879 125.252 116.306 125.252C114.043 125.252 112.047 125.008 110.317 124.52C108.587 124.077 107.056 123.455 105.725 122.657C104.439 121.858 103.308 120.949 102.332 119.929C101.356 118.864 100.513 117.755 99.8031 116.601L106.258 111.677C106.79 112.609 107.367 113.474 107.988 114.272C108.609 115.027 109.319 115.692 110.117 116.269C110.916 116.845 111.825 117.289 112.846 117.6C113.866 117.91 115.019 118.065 116.306 118.065C118.879 118.065 120.853 117.444 122.228 116.202C123.604 114.96 124.291 113.252 124.291 111.078V110.613C124.291 108.483 123.537 106.864 122.029 105.755C120.565 104.646 118.435 104.091 115.641 104.091H111.049V96.7714H115.641Z" fill="#1C3AA4"/>
<defs>
<radialGradient id="paint0_radial_196_3147" cx="0" cy="0" r="1" gradientUnits="userSpaceOnUse" gradientTransform="translate(83.9937 126.941) scale(138.51)">
<stop offset="0.53" stop-color="white"/>
<stop offset="0.65" stop-color="#FFFAFE"/>
<stop offset="0.79" stop-color="#FFEBFB"/>
<stop offset="0.93" stop-color="#FFD4F6"/>
<stop offset="1" stop-color="#FFC7F4"/>
</radialGradient>
<radialGradient id="paint1_radial_196_3147" cx="0" cy="0" r="1" gradientUnits="userSpaceOnUse" gradientTransform="translate(104.279 78.2884) scale(135.975)">
<stop offset="0.53" stop-color="white"/>
<stop offset="0.62" stop-color="#FAFDFF"/>
<stop offset="0.72" stop-color="#EBF8FF"/>
<stop offset="0.83" stop-color="#D4EFFF"/>
<stop offset="0.94" stop-color="#B3E3FF"/>
<stop offset="1" stop-color="#A1DDFF"/>
</radialGradient>
<radialGradient id="paint2_radial_196_3147" cx="0" cy="0" r="1" gradientUnits="userSpaceOnUse" gradientTransform="translate(131.22 87.4802) scale(135.975)">
<stop offset="0.53" stop-color="white"/>
<stop offset="0.64" stop-color="#FAFFFC"/>
<stop offset="0.77" stop-color="#EBFFF3"/>
<stop offset="0.91" stop-color="#D4FFE6"/>
<stop offset="1" stop-color="#C0FFDA"/>
</radialGradient>
<radialGradient id="paint3_radial_196_3147" cx="0" cy="0" r="1" gradientUnits="userSpaceOnUse" gradientTransform="translate(110.301 72.5832) scale(120.444)">
<stop offset="0.41" stop-color="white"/>
<stop offset="0.46" stop-color="#FAFCFF"/>
<stop offset="0.52" stop-color="#EBF6FF"/>
<stop offset="0.58" stop-color="#D4EBFF"/>
<stop offset="0.65" stop-color="#B3DBFF"/>
<stop offset="0.72" stop-color="#89C8FF"/>
<stop offset="0.78" stop-color="#56B0FF"/>
<stop offset="0.81" stop-color="#44A8FF"/>
<stop offset="0.83" stop-color="#4CACFF"/>
<stop offset="0.86" stop-color="#64B7FF"/>
<stop offset="0.9" stop-color="#8BC9FF"/>
<stop offset="0.95" stop-color="#C1E2FF"/>
<stop offset="1" stop-color="white"/>
</radialGradient>
<radialGradient id="paint4_radial_196_3147" cx="0" cy="0" r="1" gradientUnits="userSpaceOnUse" gradientTransform="translate(113.471 87.4802) scale(117.591)">
<stop offset="0.78" stop-color="white"/>
<stop offset="0.79" stop-color="#FAFAFA"/>
<stop offset="0.8" stop-color="#EBEBEB"/>
<stop offset="0.81" stop-color="#D4D4D4"/>
<stop offset="0.82" stop-color="#C4C4C4"/>
</radialGradient>
<radialGradient id="paint5_radial_196_3147" cx="0" cy="0" r="1" gradientUnits="userSpaceOnUse" gradientTransform="translate(137.872 186.371) scale(143.423)">
<stop stop-color="white"/>
<stop offset="0.01" stop-color="#F4F4F4"/>
<stop offset="0.09" stop-color="#C1C1C1"/>
<stop offset="0.17" stop-color="#939393"/>
<stop offset="0.26" stop-color="#6B6B6B"/>
<stop offset="0.34" stop-color="#4A4A4A"/>
<stop offset="0.44" stop-color="#2F2F2F"/>
<stop offset="0.54" stop-color="#1A1A1A"/>
<stop offset="0.66" stop-color="#0B0B0B"/>
<stop offset="0.79" stop-color="#020202"/>
<stop offset="1"/>
</radialGradient>
<radialGradient id="paint6_radial_196_3147" cx="0" cy="0" r="1" gradientUnits="userSpaceOnUse" gradientTransform="translate(49.4474 159.271) scale(190.967)">
<stop stop-color="white"/>
<stop offset="0.01" stop-color="#F4F4F4"/>
<stop offset="0.09" stop-color="#C1C1C1"/>
<stop offset="0.17" stop-color="#939393"/>
<stop offset="0.26" stop-color="#6B6B6B"/>
<stop offset="0.34" stop-color="#4A4A4A"/>
<stop offset="0.44" stop-color="#2F2F2F"/>
<stop offset="0.54" stop-color="#1A1A1A"/>
<stop offset="0.66" stop-color="#0B0B0B"/>
<stop offset="0.79" stop-color="#020202"/>
<stop offset="1"/>
</radialGradient>
<linearGradient id="paint7_linear_196_3147" x1="78.9203" y1="112.362" x2="-116.325" y2="184.787" gradientUnits="userSpaceOnUse">
<stop stop-color="white"/>
<stop offset="0.08" stop-color="#E4E4E4"/>
<stop offset="0.34" stop-color="#949494"/>
<stop offset="0.57" stop-color="#545454"/>
<stop offset="0.77" stop-color="#262626"/>
<stop offset="0.91" stop-color="#0A0A0A"/>
<stop offset="1"/>
</linearGradient>
<linearGradient id="paint8_linear_196_3147" x1="99.999" y1="-22.669" x2="99.999" y2="101.895" gradientUnits="userSpaceOnUse">
<stop stop-color="#303030"/>
<stop offset="0.16" stop-color="#262626"/>
<stop offset="0.69" stop-color="#0A0A0A"/>
<stop offset="1"/>
</linearGradient>
<radialGradient id="paint9_radial_196_3147" cx="0" cy="0" r="1" gradientUnits="userSpaceOnUse" gradientTransform="translate(163.707 145.001) scale(21.2361)">
<stop stop-color="white"/>
<stop offset="0.12" stop-color="#CFCFCF"/>
<stop offset="0.3" stop-color="#919191"/>
<stop offset="0.48" stop-color="#5D5D5D"/>
<stop offset="0.64" stop-color="#343434"/>
<stop offset="0.78" stop-color="#171717"/>
<stop offset="0.91" stop-color="#060606"/>
<stop offset="1"/>
</radialGradient>
<radialGradient id="paint10_radial_196_3147" cx="0" cy="0" r="1" gradientUnits="userSpaceOnUse" gradientTransform="translate(168.305 73.052) scale(21.2361)">
<stop stop-color="#212121"/>
<stop offset="0.19" stop-color="#171717"/>
<stop offset="0.66" stop-color="#060606"/>
<stop offset="1"/>
</radialGradient>
<radialGradient id="paint11_radial_196_3147" cx="0" cy="0" r="1" gradientUnits="userSpaceOnUse" gradientTransform="translate(99.0491 100) scale(100.475)">
<stop offset="0.68" stop-color="white"/>
<stop offset="0.72" stop-color="#FAFAFA"/>
<stop offset="0.77" stop-color="#EBEBEB"/>
<stop offset="0.82" stop-color="#D4D4D4"/>
<stop offset="0.88" stop-color="#B3B3B3"/>
<stop offset="0.93" stop-color="#898989"/>
<stop offset="0.99" stop-color="#565656"/>
<stop offset="1" stop-color="#4D4D4D"/>
</radialGradient>
</defs>
</svg>
