<?xml version="1.0" standalone="no"?>
<svg id="5000" width="1092" height="350" viewBox="0 0 1092 350" fill="none" xmlns="http://www.w3.org/2000/svg" style="max-width: 100%; max-height: 100%;">
<path d="M231.045 71.5094H232.045V70.5094V7.74905V6.74905H231.045H26.4752H25.5389L25.4774 7.68337L13.0212 196.923L12.96 197.851L13.8821 197.979L72.8097 206.123L73.344 206.197L73.6992 205.791C78.0828 200.781 84.3816 195.732 92.6342 190.654L92.6429 190.648C101.067 185.344 111.728 182.658 124.688 182.658C140.14 182.658 152.158 187.066 160.871 195.779C169.587 204.496 173.992 216.357 173.992 231.483V235.315C173.992 251.414 169.578 264.251 160.836 273.93L160.83 273.937L160.824 273.944C152.445 283.563 139.826 288.452 122.772 288.452C105.703 288.452 92.2283 284.031 82.2358 275.291C72.1046 266.109 63.389 255.019 56.0926 242.012L55.5199 240.991L54.601 241.716L2.38059 282.918L1.69359 283.46L2.13971 284.213C7.28646 292.898 13.3966 301.098 20.4681 308.812C27.5595 316.548 35.9332 323.471 45.5827 329.582L45.5929 329.588L45.6033 329.595C55.2719 335.396 66.3749 340.059 78.9033 343.593C91.4672 347.137 105.934 348.901 122.293 348.901C142.826 348.901 161.149 346.013 177.247 340.218L177.255 340.215L177.264 340.212C193.341 334.102 206.875 325.731 217.843 315.088C229.128 304.446 237.515 291.865 242.997 277.355C248.794 262.54 251.688 246.608 251.688 229.566C251.688 212.85 248.956 197.867 243.469 184.632C237.995 171.109 230.577 159.811 221.206 150.762C211.844 141.402 200.868 134.301 188.286 129.462C175.707 124.624 162.17 122.209 147.684 122.209C137.068 122.209 127.853 123.495 120.06 126.093C112.288 128.684 105.624 132.416 100.085 137.299C94.5666 141.847 89.7102 147.519 85.5107 154.302L85.5036 154.314C81.7408 160.586 78.2888 167.611 75.1455 175.388H73.0587L80.1092 71.5094H231.045ZM305.166 302.958C326.469 333.621 359.227 348.901 403.242 348.901C447.257 348.901 480.015 333.621 501.318 302.958C522.558 272.386 533.116 229.678 533.116 174.95C533.116 120.223 522.558 77.5149 501.318 46.9427C480.015 16.2793 447.257 1 403.242 1C359.227 1 326.469 16.2793 305.166 46.9427C283.927 77.5149 273.368 120.223 273.368 174.95C273.368 229.678 283.927 272.386 305.166 302.958ZM442.12 265.513C434.986 279.162 422.127 286.057 403.242 286.057C384.358 286.057 371.498 279.162 364.364 265.513C357.125 251.665 353.459 232.048 353.459 206.57V143.331C353.459 117.853 357.125 98.2356 364.364 84.3871C371.498 70.7389 384.358 63.844 403.242 63.844C422.127 63.844 434.986 70.7389 442.12 84.3871C449.359 98.2356 453.025 117.853 453.025 143.331V206.57C453.025 232.048 449.359 251.665 442.12 265.513ZM583.721 302.958C605.023 333.621 637.781 348.901 681.796 348.901C725.811 348.901 758.569 333.621 779.872 302.958C801.112 272.386 811.671 229.678 811.671 174.95C811.671 120.223 801.112 77.5149 779.872 46.9427C758.569 16.2793 725.811 1 681.796 1C637.781 1 605.023 16.2793 583.721 46.9427C562.481 77.5149 551.922 120.223 551.922 174.95C551.922 229.678 562.481 272.386 583.721 302.958ZM720.674 265.513C713.54 279.162 700.681 286.057 681.796 286.057C662.912 286.057 650.053 279.162 642.918 265.513C635.679 251.665 632.013 232.048 632.013 206.57V143.331C632.013 117.853 635.679 98.2356 642.918 84.3871C650.053 70.7389 662.912 63.844 681.796 63.844C700.681 63.844 713.54 70.7389 720.674 84.3871C727.913 98.2356 731.58 117.853 731.58 143.331V206.57C731.58 232.048 727.913 251.665 720.674 265.513ZM862.275 302.958C883.578 333.621 916.335 348.901 960.35 348.901C1004.37 348.901 1037.12 333.621 1058.43 302.958C1079.67 272.386 1090.22 229.678 1090.22 174.95C1090.22 120.223 1079.67 77.5149 1058.43 46.9427C1037.12 16.2793 1004.37 1 960.35 1C916.335 1 883.578 16.2793 862.275 46.9427C841.035 77.5149 830.476 120.223 830.476 174.95C830.476 229.678 841.035 272.386 862.275 302.958ZM999.228 265.513C992.094 279.162 979.235 286.057 960.35 286.057C941.466 286.057 928.607 279.162 921.473 265.513C914.234 251.665 910.567 232.048 910.567 206.57V143.331C910.567 117.853 914.234 98.2356 921.473 84.3871C928.607 70.7389 941.466 63.844 960.35 63.844C979.235 63.844 992.094 70.7389 999.228 84.3871C1006.47 98.2356 1010.13 117.853 1010.13 143.331V206.57C1010.13 232.048 1006.47 251.665 999.228 265.513Z" stroke="white" stroke-width="2" stroke-dasharray="0,0,5117.05859375,1279.2646484374998"><animate attributeType="XML" attributeName="stroke-dasharray" repeatCount="indefinite" dur="6.25s" values="0,0,5117.05859375,1279.2646484374998; 
          0,1279.2646484374998,5117.05859375,0; 
          5117.05859375,1279.2646484374998,0,0" keyTimes="0; 0.19999999999999996; 1"></animate></path>
<setting>{"type":"loader","speed":8,"random":1,"shift":1,"size":1,"rupture":50}</setting></svg>