<svg width="65" height="60" viewBox="0 0 65 60" fill="none" xmlns="http://www.w3.org/2000/svg">
<path d="M65 23.6351C65 17.771 60.195 13 54.288 13C51.9804 13 49.8464 13.7353 48.0961 14.9723C48.0882 14.972 48.082 14.968 48.0739 14.968H13.5198C10.145 14.968 7.39975 17.6935 7.39975 21.0441V31.0509H6.03713C3.81081 31.0509 2 32.8487 2 35.0584V55.9924C2 58.2022 3.81081 60 6.03713 60H12.0022C14.2286 60 16.0394 58.2022 16.0394 55.9924V35.0584C16.0394 32.8487 14.2286 31.0509 12.0022 31.0509H9.55966V21.0441C9.55966 18.8761 11.3356 17.1124 13.5198 17.1124H21.5709C22.0782 19.5854 24.2467 21.4011 26.8389 21.4011H36.5584C39.1522 21.4011 41.3199 19.5851 41.8262 17.1124H45.8455C44.4288 18.9158 43.5759 21.1763 43.5759 23.6351C43.5759 27.2014 45.3592 30.3558 48.081 32.286C47.6347 32.8468 47.3579 33.5338 47.3579 34.2674C47.3579 35.0941 47.6825 35.8414 48.2006 36.4118C47.6825 36.9822 47.3579 37.7295 47.3579 38.5562C47.3579 39.3829 47.6825 40.1302 48.2006 40.7006C47.6825 41.271 47.3579 42.0183 47.3579 42.845C47.3579 43.6716 47.6825 44.4189 48.2006 44.9893C47.6825 45.5597 47.3579 46.3071 47.3579 47.1337C47.3579 47.9604 47.6825 48.7077 48.2006 49.2781C47.6825 49.8485 47.3579 50.5958 47.3579 51.4225C47.3579 52.2491 47.6825 52.9965 48.2006 53.5669C47.6825 54.1373 47.3579 54.8846 47.3579 55.7112C47.3579 57.4849 48.8113 58.9278 50.5978 58.9278H58.1574C59.9439 58.9278 61.3973 57.4849 61.3973 55.7112C61.3973 54.8846 61.0728 54.1373 60.5547 53.5669C61.0728 52.9965 61.3973 52.2491 61.3973 51.4225C61.3973 50.5958 61.0728 49.8485 60.5547 49.2781C61.0728 48.7077 61.3973 47.9604 61.3973 47.1337C61.3973 46.3071 61.0728 45.5597 60.5547 44.9893C61.0728 44.4189 61.3973 43.6716 61.3973 42.845C61.3973 42.0183 61.0728 41.271 60.5547 40.7006C61.0728 40.1302 61.3973 39.3829 61.3973 38.5562C61.3973 37.7295 61.0728 36.9822 60.5547 36.4118C61.0728 35.8414 61.3973 35.0941 61.3973 34.2674C61.3973 33.4877 61.1119 32.7586 60.6254 32.1893C63.2726 30.2513 65 27.1435 65 23.6351V23.6351ZM13.8795 35.0584V36.4118H11.7196C11.1226 36.4118 10.6396 36.8919 10.6396 37.484C10.6396 38.0761 11.1226 38.5562 11.7196 38.5562H13.8795V42.845H11.7196C11.1226 42.845 10.6396 43.325 10.6396 43.9171C10.6396 44.5093 11.1226 44.9893 11.7196 44.9893H13.8795V49.2781H11.7196C11.1226 49.2781 10.6396 49.7582 10.6396 50.3503C10.6396 50.9424 11.1226 51.4225 11.7196 51.4225H13.8795V55.9924C13.8795 57.0196 13.0368 57.8556 12.0022 57.8556H6.03713C5.00253 57.8556 4.1599 57.0196 4.1599 55.9924V54.639H6.3198C6.91675 54.639 7.39975 54.159 7.39975 53.5669C7.39975 52.9747 6.91675 52.4947 6.3198 52.4947H4.1599V48.2059H6.3198C6.91675 48.2059 7.39975 47.7258 7.39975 47.1337C7.39975 46.5416 6.91675 46.0615 6.3198 46.0615H4.1599V41.7728H6.3198C6.91675 41.7728 7.39975 41.2927 7.39975 40.7006C7.39975 40.1085 6.91675 39.6284 6.3198 39.6284H4.1599V35.0584C4.1599 34.0313 5.00253 33.1952 6.03713 33.1952H12.0022C13.0368 33.1952 13.8795 34.0313 13.8795 35.0584ZM36.5584 19.2568H26.8389C25.4365 19.2568 24.2394 18.3717 23.7921 17.1124H39.605C39.1581 18.3719 37.9613 19.2568 36.5584 19.2568ZM45.7358 23.6351C45.7358 18.9531 49.5726 15.1444 54.288 15.1444C59.0033 15.1444 62.8401 18.9531 62.8401 23.6351C62.8401 28.3165 59.0033 32.1252 54.288 32.1252C49.5726 32.1252 45.7358 28.3165 45.7358 23.6351V23.6351ZM58.1574 37.484C58.7533 37.484 59.2374 37.9651 59.2374 38.5562C59.2374 39.1472 58.7533 39.6284 58.1574 39.6284H50.5978C50.0019 39.6284 49.5178 39.1472 49.5178 38.5562C49.5178 37.9651 50.0019 37.484 50.5978 37.484H58.1574ZM59.2374 42.845C59.2374 43.436 58.7533 43.9171 58.1574 43.9171H50.5978C50.0019 43.9171 49.5178 43.436 49.5178 42.845C49.5178 42.2539 50.0019 41.7728 50.5978 41.7728H58.1574C58.7533 41.7728 59.2374 42.2539 59.2374 42.845ZM59.2374 47.1337C59.2374 47.7248 58.7533 48.2059 58.1574 48.2059H50.5978C50.0019 48.2059 49.5178 47.7248 49.5178 47.1337C49.5178 46.5427 50.0019 46.0615 50.5978 46.0615H58.1574C58.7533 46.0615 59.2374 46.5427 59.2374 47.1337ZM59.2374 51.4225C59.2374 52.0135 58.7533 52.4947 58.1574 52.4947H50.5978C50.0019 52.4947 49.5178 52.0135 49.5178 51.4225C49.5178 50.8314 50.0019 50.3503 50.5978 50.3503H58.1574C58.7533 50.3503 59.2374 50.8314 59.2374 51.4225ZM58.1574 56.7834H50.5978C50.0019 56.7834 49.5178 56.3023 49.5178 55.7112C49.5178 55.1202 50.0019 54.639 50.5978 54.639H58.1574C58.7533 54.639 59.2374 55.1202 59.2374 55.7112C59.2374 56.3023 58.7533 56.7834 58.1574 56.7834ZM59.2374 34.2674C59.2374 34.8585 58.7533 35.3396 58.1574 35.3396H50.5978C50.0019 35.3396 49.5178 34.8585 49.5178 34.2674C49.5178 33.9077 49.7068 33.5751 50.0073 33.3775C51.3197 33.9479 52.7658 34.2696 54.2877 34.2696C55.8474 34.2696 57.3261 33.9292 58.6639 33.3317C59.0114 33.5182 59.2374 33.8702 59.2374 34.2674V34.2674Z" fill="white"/>
<path d="M54.5006 31C58.6359 31 62 27.6358 62 23.5003C62 19.3648 58.6359 16 54.5006 16C50.3652 16 47 19.3648 47 23.5003C47 27.6358 50.3655 31 54.5006 31V31ZM54.5006 18.2214C57.4113 18.2214 59.7789 20.5895 59.7789 23.5006C59.7789 26.4108 57.4115 28.7791 54.5006 28.7791C51.5896 28.7791 49.2211 26.4111 49.2211 23.5006C49.2213 20.5895 51.5898 18.2214 54.5006 18.2214V18.2214Z" fill="white"/>
<path d="M36 32.1657C36 30.5274 33.7243 25.9329 33.0269 24.564C32.6429 23.812 31.3571 23.812 30.9731 24.564C30.2757 25.9329 28 30.5271 28 32.1657C28 34.2798 29.7946 36 32 36C34.2054 36 36 34.2798 36 32.1657ZM30.2857 32.1657C30.2857 31.5911 31.0626 29.6538 32 27.6367C32.9374 29.6532 33.7143 31.5909 33.7143 32.1657C33.7143 33.072 32.9454 33.809 32 33.809C31.0546 33.809 30.2857 33.072 30.2857 32.1657Z" fill="white"/>
<path d="M4.49942 8C6.42934 8 8 6.42992 8 4.5C8 2.57008 6.42934 1 4.49942 1C2.56951 1 1 2.57008 1 4.5C1 6.42992 2.56951 8 4.49942 8V8ZM4.49942 3.31434C5.15372 3.31434 5.68595 3.84657 5.68595 4.50029C5.68595 5.15401 5.15372 5.68624 4.49942 5.68624C3.84628 5.68624 3.31405 5.15401 3.31405 4.50029C3.31405 3.84657 3.84628 3.31434 4.49942 3.31434V3.31434Z" fill="white"/>
<path d="M49 4C49.5527 4 50 3.47555 50 2.8287V1.1713C50 0.524451 49.5527 0 49 0C48.4473 0 48 0.524451 48 1.1713V2.8287C48 3.47555 48.4473 4 49 4Z" fill="white"/>
<path d="M49 10C49.5527 10 50 9.47555 50 8.8287V7.1713C50 6.52445 49.5527 6 49 6C48.4473 6 48 6.52445 48 7.1713V8.8287C48 9.47555 48.4473 10 49 10Z" fill="white"/>
<path d="M46.1713 6H47.8287C48.4761 6 49 5.55225 49 5C49 4.44775 48.4761 4 47.8287 4H46.1713C45.5239 4 45 4.44775 45 5C45 5.55225 45.5239 6 46.1713 6Z" fill="#1ACBAA"/>
<path d="M52.1713 6H53.8287C54.4761 6 55 5.55225 55 5C55 4.44775 54.4761 4 53.8287 4H52.1713C51.5239 4 51 4.44775 51 5C51 5.55225 51.5239 6 52.1713 6Z" fill="#1ACBAA"/>
<path d="M37 5C37.5524 5 38 4.5522 38 4.00012C38 3.44803 37.5522 3 37 3C36.4478 3 36 3.4478 36 4.00012C36 4.55244 36.4476 5 37 5Z" fill="#1ACBAA"/>
<path d="M2 17.0001C2 16.4478 1.55215 16 1 16C0.447848 16 0 16.4478 0 17.0001C0 17.5524 0.447848 18 1 18C1.55215 18 2 17.5524 2 17.0001V17.0001Z" fill="#1ACBAA"/>
<path d="M41.5317 45.7131L40.0676 41.5813C39.5208 40.0373 38.0697 39 36.4553 39H26.1885C24.574 39 23.1229 40.0373 22.5773 41.5802L21.0669 45.8402C19.8639 46.2931 19 47.4613 19 48.8402V53.4759C19 54.8948 19.9161 56.0874 21.174 56.5096V57.6223C21.174 58.9331 22.2226 60 23.5123 60H25.3572C26.6469 60 27.6956 58.9331 27.6956 57.6223V56.6842H35.3044V57.6223C35.3044 58.9331 36.3531 60 37.6428 60H39.4877C40.7774 60 41.826 58.9331 41.826 57.6223V56.5096C43.0839 56.0874 44 54.8948 44 53.4759V48.8402C44.0003 47.3113 42.9418 46.0333 41.5317 45.7131V45.7131ZM24.6227 42.3293C24.8594 41.6601 25.489 41.2105 26.1885 41.2105H36.4553C37.1547 41.2105 37.7844 41.6601 38.0222 42.3304L39.1926 45.6316H23.4515L24.6227 42.3293ZM25.5216 57.6223C25.5216 57.7146 25.4474 57.7895 25.3572 57.7895H23.5123C23.4221 57.7895 23.3479 57.7146 23.3479 57.6223V56.6842H25.5219V57.6223H25.5216ZM39.4879 57.7895H37.6431C37.5529 57.7895 37.4787 57.7146 37.4787 57.6223V56.6842H39.6526V57.6223C39.6524 57.7146 39.5782 57.7895 39.4879 57.7895V57.7895ZM41.8263 53.4759C41.8263 54.0263 41.3858 54.4737 40.8456 54.4737H26.6086H22.2607C22.2419 54.4737 22.2262 54.4836 22.2077 54.4845C22.1892 54.4836 22.1734 54.4737 22.1547 54.4737C21.6145 54.4737 21.174 54.0263 21.174 53.4759V48.8402C21.174 48.2897 21.6145 47.8424 22.1547 47.8424H40.8456C41.3858 47.8424 41.8263 48.2897 41.8263 48.8402V53.4759Z" fill="white"/>
<path d="M38.5 53C39.3284 53 40 52.3284 40 51.5C40 50.6716 39.3284 50 38.5 50C37.6716 50 37 50.6716 37 51.5C37 52.3284 37.6716 53 38.5 53Z" fill="white"/>
<path d="M24.5 53C25.3284 53 26 52.3284 26 51.5C26 50.6716 25.3284 50 24.5 50C23.6716 50 23 50.6716 23 51.5C23 52.3284 23.6716 53 24.5 53Z" fill="white"/>
</svg>
