<svg width="65" height="63" viewBox="0 0 65 63" fill="none" xmlns="http://www.w3.org/2000/svg">
<path d="M13.6975 15.6818C11.6589 15.6818 10 17.3234 10 19.3409C10 21.3584 11.6589 23 13.6975 23H25.3183C27.3569 23 29.0158 21.3584 29.0158 19.3409C29.0158 17.3234 27.3569 15.6818 25.3183 15.6818H22.6772V12.448H24.7901C25.374 12.448 25.8465 11.9799 25.8465 11.4025V9.40909H43.8307C45.5783 9.40909 47 8.00217 47 6.27273C47 4.54328 45.5783 3.13636 43.8307 3.13636H25.8465V1.04545C25.8465 0.468102 25.374 0 24.7901 0H22.8103C17.4941 0 13.1693 4.27983 13.1693 9.54082V11.4025C13.1693 11.9799 13.6418 12.448 14.2257 12.448H16.3386V15.6818H13.6975ZM26.9029 19.3409C26.9029 20.2058 26.1922 20.9091 25.3183 20.9091H13.6975C12.8236 20.9091 12.1129 20.2058 12.1129 19.3409C12.1129 18.4761 12.8236 17.7727 13.6975 17.7727H25.3183C26.1922 17.7727 26.9029 18.4761 26.9029 19.3409ZM43.8307 5.22727C44.4136 5.22727 44.8871 5.69642 44.8871 6.27273C44.8871 6.84903 44.4136 7.31818 43.8307 7.31818H25.8465V5.22727H43.8307ZM15.2822 9.54082C15.2822 5.43297 18.6591 2.09091 22.8103 2.09091H23.7336V10.3571H15.2822V9.54082ZM18.4515 12.448H20.5643V15.6818H18.4515V12.448Z" fill="white"/>
<path d="M9.44801 29.9136C9.7887 29.727 10 29.3687 10 28.9792C10 28.5902 9.7887 28.2313 9.44801 28.0447L7.17482 26.7958L5.93006 24.5116C5.55942 23.8295 4.44085 23.8295 4.06994 24.5116L2.82518 26.7958L0.551991 28.0447C0.211305 28.2313 0 28.5902 0 28.9792C0 29.3687 0.211305 29.727 0.551991 29.9136L2.82624 31.162L4.06994 33.4462C4.25526 33.7873 4.61265 34 5 34C5.38735 34 5.74474 33.7873 5.93006 33.4462L7.17376 31.162L9.44801 29.9136ZM5.88419 29.4432C5.70603 29.5409 5.55995 29.6881 5.46264 29.8665L4.99973 30.7161L4.53683 29.8665C4.43953 29.6881 4.29344 29.5409 4.11528 29.4432L3.27006 28.9794L4.11528 28.5151C4.29344 28.4174 4.43953 28.2702 4.53683 28.0918L4.99973 27.2423L5.46264 28.0918C5.55995 28.2702 5.70603 28.4174 5.88419 28.5151L6.72941 28.9794L5.88419 29.4432Z" fill="white"/>
<path d="M64.4413 27.0343L60.24 24.73L57.9414 20.517C57.5662 19.8277 56.4341 19.8277 56.0586 20.517L53.76 24.73L49.5587 27.0343C49.2139 27.2229 49 27.585 49 27.9787C49 28.3723 49.2139 28.7345 49.5587 28.9231L53.76 31.2268L56.0586 35.4403C56.2462 35.785 56.6079 36 57 36C57.3921 36 57.7538 35.785 57.9414 35.4403L60.24 31.2268L64.4413 28.9231C64.7861 28.7345 65 28.3723 65 27.9787C65 27.585 64.7861 27.2229 64.4413 27.0343ZM58.9337 29.4895C58.7534 29.5882 58.6055 29.737 58.507 29.9173L56.9997 32.6806L55.4924 29.9173C55.3939 29.737 55.2461 29.5882 55.0657 29.4895L52.3098 27.9787L55.0657 26.4673C55.2461 26.3686 55.3939 26.2198 55.4924 26.0395L56.9997 23.2763L58.507 26.0395C58.6055 26.2198 58.7534 26.3686 58.9337 26.4673L61.6897 27.9787L58.9337 29.4895Z" fill="#1ACBAA"/>
<path d="M6 6C6.55275 6 7 5.47555 7 4.8287V3.1713C7 2.52445 6.55275 2 6 2C5.44725 2 5 2.52445 5 3.1713V4.8287C5 5.47555 5.4475 6 6 6Z" fill="#1ACBAA"/>
<path d="M6 12C6.55275 12 7 11.4755 7 10.8287V9.1713C7 8.52445 6.55275 8 6 8C5.44725 8 5 8.52445 5 9.1713V10.8287C5 11.4755 5.4475 12 6 12Z" fill="#1ACBAA"/>
<path d="M2.1713 7H3.8287C4.47613 7 5 6.55225 5 6C5 5.44775 4.47613 5 3.8287 5H2.1713C1.52387 5 1 5.44775 1 6C1 6.55225 1.52387 7 2.1713 7Z" fill="#1ACBAA"/>
<path d="M8.1713 7H9.8287C10.4761 7 11 6.55225 11 6C11 5.44775 10.4761 5 9.8287 5H8.1713C7.52387 5 7 5.44775 7 6C7 6.55225 7.52387 7 8.1713 7Z" fill="#1ACBAA"/>
<path d="M43 16.5C43 18.4297 44.5703 20 46.5 20C48.4297 20 50 18.4297 50 16.5C50 14.5703 48.4297 13 46.5 13C44.5703 13 43 14.5703 43 16.5ZM48 16.5C48 17.3273 47.3273 18 46.5 18C45.6727 18 45 17.3273 45 16.5C45 15.6727 45.6727 15 46.5 15C47.3273 15 48 15.6727 48 16.5Z" fill="#1ACBAA"/>
<path d="M61 13C61.5524 13 62 12.5522 62 12.0001C62 11.448 61.5522 11 61 11C60.4478 11 60 11.4478 60 12.0001C60 12.5524 60.4478 13 61 13V13Z" fill="white"/>
<path d="M52.199 41.8495L48.0284 30.7932C47.1712 28.5242 44.9588 27 42.5213 27H20.0343C17.7073 27 15.5944 28.4554 14.7769 30.6212L10.5315 41.8765C8.54403 42.1367 7 43.8125 7 45.8576V53.6718C7 55.8964 8.82046 57.7059 11.059 57.7059H11.2609V59.9223C11.2609 61.619 12.6496 63 14.3567 63H17.752C19.459 63 20.8478 61.619 20.8478 59.9223V57.7059H42.1522V59.9223C42.1522 61.619 43.541 63 45.248 63H48.6433C50.3504 63 51.7391 61.619 51.7391 59.9223V57.7059H51.941C54.1795 57.7059 56 55.8964 56 53.6718V45.8576C55.9997 43.7209 54.3154 41.9847 52.199 41.8495V41.8495ZM16.772 31.3645C17.2785 30.0208 18.5904 29.1176 20.0343 29.1176H42.5213C44.0754 29.1176 45.4871 30.0902 46.0333 31.5368L49.9133 41.8235H33.5465L41.5967 37.4591C42.1136 37.1787 42.304 36.5358 42.0222 36.0222C41.7405 35.5087 41.0912 35.3202 40.5772 35.5998L29.0982 41.8235H12.8273L16.772 31.3645ZM18.7171 59.9223C18.7171 60.4517 18.2844 60.8824 17.7518 60.8824H14.3564C13.8238 60.8824 13.391 60.4517 13.391 59.9223V57.7059H18.7171V59.9223ZM49.6084 59.9223C49.6084 60.4517 49.1757 60.8824 48.6431 60.8824H45.2477C44.7151 60.8824 44.2823 60.4517 44.2823 59.9223V57.7059H49.6084V59.9223ZM53.8693 53.6718C53.8693 54.7285 53.0038 55.5882 51.9407 55.5882H11.059C9.99592 55.5882 9.13043 54.7285 9.13043 53.6718V45.8576C9.13043 44.8009 9.99592 43.9412 11.059 43.9412H11.2899H51.451H51.941C53.0041 43.9412 53.8696 44.8009 53.8696 45.8576V53.6718H53.8693Z" fill="white"/>
<path d="M47.5 45C45.0191 45 43 47.0187 43 49.5003C43 51.9816 45.0194 54 47.5 54C49.9806 54 52 51.9813 52 49.5003C52 47.0184 49.9809 45 47.5 45ZM47.5 51.8273C46.217 51.8273 45.1731 50.7832 45.1731 49.5005C45.1731 48.2171 46.2173 47.1733 47.5 47.1733C48.7827 47.1733 49.8269 48.2174 49.8269 49.5005C49.8269 50.7832 48.783 51.8273 47.5 51.8273Z" fill="white"/>
<path d="M14.5 45C12.0191 45 10 47.0187 10 49.5003C10 51.9816 12.0194 54 14.5 54C16.9806 54 19 51.9813 19 49.5003C19.0003 47.0184 16.9809 45 14.5 45ZM14.5 51.8273C13.217 51.8273 12.1731 50.7832 12.1731 49.5005C12.1731 48.2171 13.2173 47.1733 14.5 47.1733C15.7827 47.1733 16.8269 48.2174 16.8269 49.5005C16.8271 50.7832 15.783 51.8273 14.5 51.8273Z" fill="white"/>
</svg>
