<?xml version="1.0" standalone="no"?>
<svg id="carwash" width="1976" height="280" viewBox="0 0 1976 280" fill="none" xmlns="http://www.w3.org/2000/svg" style="max-width: 100%; max-height: 100%;">
<mask id="path-1-inside-1_207_1857" fill="white">
<path d="M120.236 279.414C101.918 279.414 85.4058 276.576 70.6998 270.9C55.9938 264.966 43.4808 256.323 33.1608 244.971C22.8408 233.361 14.8428 219.042 9.16683 202.014C3.49083 184.728 0.652832 164.604 0.652832 141.642C0.652832 118.938 3.49083 98.814 9.16683 81.27C14.8428 63.468 22.8408 48.633 33.1608 36.765C43.4808 24.639 55.9938 15.48 70.6998 9.288C85.4058 3.096 101.918 0 120.236 0C145.262 0 165.902 5.16 182.156 15.48C198.41 25.542 211.439 41.538 221.243 63.468L170.546 89.784C166.934 78.432 161.258 69.402 153.518 62.694C146.036 55.728 134.942 52.245 120.236 52.245C102.95 52.245 89.0178 57.921 78.4398 69.273C68.1198 80.367 62.9598 96.621 62.9598 118.035V161.379C62.9598 182.793 68.1198 199.176 78.4398 210.528C89.0178 221.622 102.95 227.169 120.236 227.169C134.684 227.169 146.165 223.299 154.679 215.559C163.451 207.561 169.901 198.015 174.029 186.921L222.017 214.785C211.955 235.425 198.668 251.421 182.156 262.773C165.902 273.867 145.262 279.414 120.236 279.414ZM443.568 274.77L424.217 210.528H334.046L314.697 274.77H255.098L344.108 4.64401H416.865L504.713 274.77H443.568ZM379.712 58.05H377.777L347.978 160.605H409.898L379.712 58.05ZM617.91 274.77H559.086V4.64401H687.183C699.567 4.64401 710.79 6.708 720.852 10.836C730.914 14.964 739.428 20.898 746.394 28.638C753.618 36.12 759.165 45.15 763.035 55.728C766.905 66.306 768.84 78.045 768.84 90.945C768.84 109.263 764.712 125.259 756.456 138.933C748.458 152.607 736.203 162.54 719.691 168.732L772.71 274.77H707.307L660.093 175.698H617.91V274.77ZM679.83 126.162C688.602 126.162 695.439 123.969 700.341 119.583C705.501 114.939 708.081 108.231 708.081 99.459V82.431C708.081 73.659 705.501 67.08 700.341 62.694C695.439 58.05 688.602 55.728 679.83 55.728H617.91V126.162H679.83ZM874.137 274.77L812.991 4.64401H871.041L896.583 134.289L910.902 209.367H912.063L929.091 134.289L958.89 4.64401H1023.13L1053.32 134.289L1069.96 209.367H1071.12L1085.44 134.289L1111.37 4.64401H1167.1L1104.4 274.77H1037.45L1003.39 128.484L990.237 69.273H989.076L975.531 128.484L941.475 274.77H874.137ZM1380.43 274.77L1361.08 210.528H1270.91L1251.56 274.77H1191.97L1280.98 4.64401H1353.73L1441.58 274.77H1380.43ZM1316.58 58.05H1314.64L1284.85 160.605H1346.77L1316.58 58.05ZM1583.42 279.414C1559.68 279.414 1539.56 275.415 1523.04 267.417C1506.53 259.161 1492.47 248.583 1480.86 235.683L1519.56 196.596C1537.88 217.236 1560.45 227.556 1587.29 227.556C1601.73 227.556 1612.44 224.589 1619.41 218.655C1626.37 212.721 1629.86 204.852 1629.86 195.048C1629.86 187.566 1627.79 181.374 1623.66 176.472C1619.54 171.312 1611.15 167.829 1598.51 166.023L1571.81 162.54C1543.17 158.928 1522.14 150.285 1508.72 136.611C1495.57 122.937 1488.99 104.748 1488.99 82.044C1488.99 69.918 1491.31 58.824 1495.95 48.762C1500.6 38.7 1507.18 30.057 1515.69 22.833C1524.46 15.609 1535.04 10.062 1547.42 6.19201C1560.07 2.064 1574.39 0 1590.38 0C1610.76 0 1628.69 3.225 1644.17 9.67499C1659.65 16.125 1672.94 25.542 1684.04 37.926L1644.95 77.4C1638.5 69.918 1630.63 63.855 1621.34 59.211C1612.31 54.309 1600.83 51.858 1586.9 51.858C1573.74 51.858 1563.94 54.18 1557.49 58.824C1551.04 63.468 1547.81 69.918 1547.81 78.174C1547.81 87.462 1550.26 94.17 1555.16 98.298C1560.32 102.426 1568.58 105.393 1579.93 107.199L1606.64 111.456C1634.5 115.842 1655.14 124.485 1668.56 137.385C1681.97 150.027 1688.68 168.087 1688.68 191.565C1688.68 204.465 1686.36 216.333 1681.71 227.169C1677.07 238.005 1670.23 247.293 1661.2 255.033C1652.43 262.773 1641.47 268.836 1628.31 273.222C1615.15 277.35 1600.19 279.414 1583.42 279.414ZM1916.22 164.088H1813.27V274.77H1754.45V4.64401H1813.27V112.23H1916.22V4.64401H1975.04V274.77H1916.22V164.088Z" stroke-dasharray="0,0,0,0,0,9960.9970703125"><animate attributeType="XML" attributeName="stroke-dasharray" repeatCount="indefinite" dur="9.375s" values="0,0,0,0,0,9960.9970703125; 
          0,0,0,1660.1661783854165,4980.49853515625,3320.332356770833; 
          0,0,3320.3323567708335,0,6640.664713541667,9960.9970703125; 
          0,0,6640.664713541667,0,3320.3323567708335,9960.9970703125; 
          0,0,8300.830891927084,1660.1661783854167,0,0; 
          0,9960.9970703125,0,3320.3323567708335,0,9960.9970703125" keyTimes="0; 0.16666666666666666; 0.3333; 0.6666; 0.8333; 1"></animate></path>
</mask>
<path d="M120.236 279.414C101.918 279.414 85.4058 276.576 70.6998 270.9C55.9938 264.966 43.4808 256.323 33.1608 244.971C22.8408 233.361 14.8428 219.042 9.16683 202.014C3.49083 184.728 0.652832 164.604 0.652832 141.642C0.652832 118.938 3.49083 98.814 9.16683 81.27C14.8428 63.468 22.8408 48.633 33.1608 36.765C43.4808 24.639 55.9938 15.48 70.6998 9.288C85.4058 3.096 101.918 0 120.236 0C145.262 0 165.902 5.16 182.156 15.48C198.41 25.542 211.439 41.538 221.243 63.468L170.546 89.784C166.934 78.432 161.258 69.402 153.518 62.694C146.036 55.728 134.942 52.245 120.236 52.245C102.95 52.245 89.0178 57.921 78.4398 69.273C68.1198 80.367 62.9598 96.621 62.9598 118.035V161.379C62.9598 182.793 68.1198 199.176 78.4398 210.528C89.0178 221.622 102.95 227.169 120.236 227.169C134.684 227.169 146.165 223.299 154.679 215.559C163.451 207.561 169.901 198.015 174.029 186.921L222.017 214.785C211.955 235.425 198.668 251.421 182.156 262.773C165.902 273.867 145.262 279.414 120.236 279.414ZM443.568 274.77L424.217 210.528H334.046L314.697 274.77H255.098L344.108 4.64401H416.865L504.713 274.77H443.568ZM379.712 58.05H377.777L347.978 160.605H409.898L379.712 58.05ZM617.91 274.77H559.086V4.64401H687.183C699.567 4.64401 710.79 6.708 720.852 10.836C730.914 14.964 739.428 20.898 746.394 28.638C753.618 36.12 759.165 45.15 763.035 55.728C766.905 66.306 768.84 78.045 768.84 90.945C768.84 109.263 764.712 125.259 756.456 138.933C748.458 152.607 736.203 162.54 719.691 168.732L772.71 274.77H707.307L660.093 175.698H617.91V274.77ZM679.83 126.162C688.602 126.162 695.439 123.969 700.341 119.583C705.501 114.939 708.081 108.231 708.081 99.459V82.431C708.081 73.659 705.501 67.08 700.341 62.694C695.439 58.05 688.602 55.728 679.83 55.728H617.91V126.162H679.83ZM874.137 274.77L812.991 4.64401H871.041L896.583 134.289L910.902 209.367H912.063L929.091 134.289L958.89 4.64401H1023.13L1053.32 134.289L1069.96 209.367H1071.12L1085.44 134.289L1111.37 4.64401H1167.1L1104.4 274.77H1037.45L1003.39 128.484L990.237 69.273H989.076L975.531 128.484L941.475 274.77H874.137ZM1380.43 274.77L1361.08 210.528H1270.91L1251.56 274.77H1191.97L1280.98 4.64401H1353.73L1441.58 274.77H1380.43ZM1316.58 58.05H1314.64L1284.85 160.605H1346.77L1316.58 58.05ZM1583.42 279.414C1559.68 279.414 1539.56 275.415 1523.04 267.417C1506.53 259.161 1492.47 248.583 1480.86 235.683L1519.56 196.596C1537.88 217.236 1560.45 227.556 1587.29 227.556C1601.73 227.556 1612.44 224.589 1619.41 218.655C1626.37 212.721 1629.86 204.852 1629.86 195.048C1629.86 187.566 1627.79 181.374 1623.66 176.472C1619.54 171.312 1611.15 167.829 1598.51 166.023L1571.81 162.54C1543.17 158.928 1522.14 150.285 1508.72 136.611C1495.57 122.937 1488.99 104.748 1488.99 82.044C1488.99 69.918 1491.31 58.824 1495.95 48.762C1500.6 38.7 1507.18 30.057 1515.69 22.833C1524.46 15.609 1535.04 10.062 1547.42 6.19201C1560.07 2.064 1574.39 0 1590.38 0C1610.76 0 1628.69 3.225 1644.17 9.67499C1659.65 16.125 1672.94 25.542 1684.04 37.926L1644.95 77.4C1638.5 69.918 1630.63 63.855 1621.34 59.211C1612.31 54.309 1600.83 51.858 1586.9 51.858C1573.74 51.858 1563.94 54.18 1557.49 58.824C1551.04 63.468 1547.81 69.918 1547.81 78.174C1547.81 87.462 1550.26 94.17 1555.16 98.298C1560.32 102.426 1568.58 105.393 1579.93 107.199L1606.64 111.456C1634.5 115.842 1655.14 124.485 1668.56 137.385C1681.97 150.027 1688.68 168.087 1688.68 191.565C1688.68 204.465 1686.36 216.333 1681.71 227.169C1677.07 238.005 1670.23 247.293 1661.2 255.033C1652.43 262.773 1641.47 268.836 1628.31 273.222C1615.15 277.35 1600.19 279.414 1583.42 279.414ZM1916.22 164.088H1813.27V274.77H1754.45V4.64401H1813.27V112.23H1916.22V4.64401H1975.04V274.77H1916.22V164.088Z" stroke="url(#paint0_linear_207_1857)" stroke-width="4" mask="url(#path-1-inside-1_207_1857)" stroke-dasharray="0,0,0,0,0,9960.9970703125"><animate attributeType="XML" attributeName="stroke-dasharray" repeatCount="indefinite" dur="9.375s" values="0,0,0,0,0,9960.9970703125; 
          0,0,0,1660.1661783854165,4980.49853515625,3320.332356770833; 
          0,0,3320.3323567708335,0,6640.664713541667,9960.9970703125; 
          0,0,6640.664713541667,0,3320.3323567708335,9960.9970703125; 
          0,0,8300.830891927084,1660.1661783854167,0,0; 
          0,9960.9970703125,0,3320.3323567708335,0,9960.9970703125" keyTimes="0; 0.16666666666666666; 0.3333; 0.6666; 0.8333; 1"></animate></path>
<defs>
<linearGradient id="paint0_linear_207_1857" x1="993" y1="-85.23" x2="993" y2="344.77" gradientUnits="userSpaceOnUse">
<stop offset="0.116762" stop-color="#3957C1"></stop>
<stop offset="1" stop-color="#2D4CB8" stop-opacity="0"></stop>
</linearGradient>
</defs>
<setting>{"type":"delay","speed":8,"random":1,"shift":1,"size":1,"rupture":50}</setting></svg>