<svg width="200" height="201" viewBox="0 0 200 201" fill="none" xmlns="http://www.w3.org/2000/svg">
<path style="mix-blend-mode:multiply" d="M200 100C200 155.309 155.15 200 99.9999 200C44.8494 200 0 155.309 0 100C0 44.6914 44.6909 0.000488281 99.9999 0.000488281C155.309 0.000488281 200 44.8499 200 100V100Z" fill="url(#paint0_radial_196_3146)"/>
<path style="mix-blend-mode:multiply" d="M200 100C200 155.309 155.15 200 99.9999 200C44.8494 200 0 155.309 0 100C0 44.6914 44.6909 0.000488281 99.9999 0.000488281C155.309 0.000488281 200 44.8499 200 100V100Z" fill="url(#paint1_radial_196_3146)"/>
<path style="mix-blend-mode:multiply" d="M200 100C200 117.908 195.245 134.866 187.005 149.446C169.73 179.715 137.242 200.159 99.9999 200.159C44.6909 200.159 0 155.309 0 100.159C0 93.9782 0.475434 88.1145 1.58478 82.2508C6.02218 57.3697 19.6513 35.8166 38.8272 20.9196C55.7844 7.76593 77.0205 0.000488281 99.9999 0.000488281C140.412 0.000488281 175.277 23.9307 190.966 58.479C196.83 71.1573 200 85.2619 200 100.159V100Z" fill="url(#paint2_radial_196_3146)"/>
<path style="mix-blend-mode:multiply" opacity="0.5" d="M200 100C200 117.908 195.245 134.866 187.005 149.446C169.73 179.715 137.242 200.159 99.9999 200.159C44.6909 200.159 0 155.309 0 100.159C0 93.9782 0.475434 88.1145 1.58478 82.2508C6.02218 57.3697 19.6513 35.8166 38.8272 20.9196C55.7844 7.76593 77.0205 0.000488281 99.9999 0.000488281C140.412 0.000488281 175.277 23.9307 190.966 58.479C196.83 71.1573 200 85.2619 200 100.159V100Z" fill="url(#paint3_radial_196_3146)"/>
<path style="mix-blend-mode:color-burn" d="M200 100C200 117.908 195.245 134.866 187.005 149.446C169.73 179.715 137.242 200.159 99.9999 200.159C44.6909 200.159 0 155.309 0 100.159C0 93.9782 0.475434 88.1145 1.58478 82.2508C6.02218 57.3697 19.6513 35.8166 38.8272 20.9196C55.7844 7.76593 77.0205 0.000488281 99.9999 0.000488281C140.412 0.000488281 175.277 23.9307 190.966 58.479C196.83 71.1573 200 85.2619 200 100.159V100Z" fill="url(#paint4_radial_196_3146)"/>
<path style="mix-blend-mode:screen" opacity="0.9" d="M199.996 100C199.996 117.908 195.242 134.866 187.001 149.446C170.043 162.599 148.807 170.365 125.828 170.365C70.519 170.365 25.8281 125.515 25.8281 70.3649C25.8281 52.4568 30.5825 35.4996 38.8234 20.9196C55.7805 7.76593 77.0166 0.000488281 99.996 0.000488281C140.408 0.000488281 175.273 23.9307 190.963 58.479C196.826 71.1573 199.996 85.2619 199.996 100.159V100Z" fill="url(#paint5_radial_196_3146)"/>
<path style="mix-blend-mode:screen" opacity="0.9" d="M190.969 58.479C182.569 105.23 141.682 140.571 92.5535 140.571C52.1415 140.571 17.2763 116.641 1.58691 82.0923C9.98627 35.4997 50.8737 0.000488281 100.002 0.000488281C140.414 0.000488281 175.279 23.9307 190.969 58.479Z" fill="url(#paint6_radial_196_3146)"/>
<path style="mix-blend-mode:multiply" opacity="0.5" d="M105.386 196.357C50.3941 196.357 5.86165 151.824 5.86165 96.8324C5.86165 71.9513 15.0534 49.2889 30.1088 31.6978C12.5177 49.2889 1.74121 73.536 1.74121 100.477C1.74121 154.202 45.3228 197.783 99.0469 197.783C107.129 197.783 114.895 196.832 122.343 194.93C116.797 195.881 111.25 196.357 105.545 196.357H105.386Z" fill="url(#paint7_linear_196_3146)"/>
<path style="mix-blend-mode:color-dodge" d="M99.9989 5.22417C153.248 5.22417 196.671 47.8549 197.622 100.945C197.622 100.311 197.622 99.6773 197.622 99.0434C197.78 45.0022 154.04 1.26221 99.9989 1.26221C45.9578 1.26221 2.21777 45.0022 2.21777 98.8849C2.21777 99.5188 2.21777 100.153 2.21777 100.787C3.32712 47.6964 46.5917 5.06569 99.8404 5.06569L99.9989 5.22417Z" fill="url(#paint8_linear_196_3146)"/>
<path style="mix-blend-mode:screen" d="M184.785 145.001C184.785 156.729 175.276 166.237 163.549 166.237C151.821 166.237 142.312 156.729 142.312 145.001C142.312 133.274 151.821 123.765 163.549 123.765C175.276 123.765 184.785 133.274 184.785 145.001Z" fill="url(#paint9_radial_196_3146)"/>
<path style="mix-blend-mode:color-dodge" d="M189.382 73.053C189.382 84.7804 179.874 94.2891 168.146 94.2891C156.419 94.2891 146.91 84.7804 146.91 73.053C146.91 61.3256 156.419 51.8169 168.146 51.8169C179.874 51.8169 189.382 61.3256 189.382 73.053Z" fill="url(#paint10_radial_196_3146)"/>
<path style="mix-blend-mode:color-burn" opacity="0.5" d="M200 100C200 117.908 195.245 134.866 187.005 149.446C169.73 179.715 137.242 200.159 99.9999 200.159C44.6909 200.159 0 155.309 0 100.159C0 93.9782 0.475434 88.1145 1.58478 82.2508C6.02218 57.3697 19.6513 35.8166 38.8272 20.9196C55.7844 7.76593 77.0205 0.000488281 99.9999 0.000488281C140.412 0.000488281 175.277 23.9307 190.966 58.479C196.83 71.1573 200 85.2619 200 100.159V100Z" fill="url(#paint11_radial_196_3146)"/>
<path d="M78.2699 125.252C75.2976 125.252 72.7246 124.719 70.5509 123.655C68.3771 122.546 66.5804 120.971 65.1608 118.93C63.7412 116.889 62.6765 114.383 61.9667 111.411C61.3013 108.438 60.9686 105.045 60.9686 101.229C60.9686 97.4586 61.3013 94.087 61.9667 91.1148C62.6765 88.0981 63.7412 85.5695 65.1608 83.5288C66.5804 81.4881 68.3771 79.9354 70.5509 78.8707C72.7246 77.7617 75.2976 77.2071 78.2699 77.2071C84.1701 77.2071 88.5177 79.3143 91.3125 83.5288C94.1517 87.7432 95.5713 93.6434 95.5713 101.229C95.5713 108.815 94.1517 114.716 91.3125 118.93C88.5177 123.144 84.1701 125.252 78.2699 125.252ZM78.2699 117.865C81.2422 117.865 83.3051 116.756 84.4585 114.538C85.6563 112.276 86.2552 109.237 86.2552 105.422V97.0371C86.2552 93.222 85.6563 90.2053 84.4585 87.9872C83.3051 85.7247 81.2422 84.5935 78.2699 84.5935C75.2976 84.5935 73.2126 85.7247 72.0148 87.9872C70.8614 90.2053 70.2847 93.222 70.2847 97.0371V105.422C70.2847 109.237 70.8614 112.276 72.0148 114.538C73.2126 116.756 75.2976 117.865 78.2699 117.865ZM134.54 124.453H102.333V116.335L116.906 103.558C119.39 101.385 121.209 99.4327 122.362 97.7026C123.516 95.9281 124.093 94.0205 124.093 91.9798V91.1148C124.093 89.0741 123.427 87.5214 122.096 86.4567C120.765 85.3476 119.146 84.7931 117.239 84.7931C114.843 84.7931 113.024 85.4807 111.782 86.856C110.54 88.1868 109.653 89.8061 109.12 91.7136L101.534 88.7857C102.022 87.233 102.71 85.7691 103.597 84.3938C104.484 82.9742 105.593 81.7321 106.924 80.6674C108.299 79.6027 109.897 78.7598 111.715 78.1387C113.534 77.5177 115.619 77.2071 117.97 77.2071C120.41 77.2071 122.584 77.562 124.492 78.2718C126.399 78.9373 127.996 79.8911 129.283 81.1332C130.614 82.3754 131.612 83.8393 132.277 85.5251C132.987 87.2109 133.342 89.0519 133.342 91.0482C133.342 93.0002 133.032 94.7747 132.41 96.3717C131.789 97.9688 130.947 99.4993 129.882 100.963C128.817 102.383 127.575 103.758 126.155 105.089C124.736 106.375 123.227 107.684 121.63 109.015L111.848 117.067H134.54V124.453Z" fill="#1C3AA4"/>
<defs>
<radialGradient id="paint0_radial_196_3146" cx="0" cy="0" r="1" gradientUnits="userSpaceOnUse" gradientTransform="translate(83.9936 126.942) scale(138.51)">
<stop offset="0.53" stop-color="white"/>
<stop offset="0.65" stop-color="#FFFAFE"/>
<stop offset="0.79" stop-color="#FFEBFB"/>
<stop offset="0.93" stop-color="#FFD4F6"/>
<stop offset="1" stop-color="#FFC7F4"/>
</radialGradient>
<radialGradient id="paint1_radial_196_3146" cx="0" cy="0" r="1" gradientUnits="userSpaceOnUse" gradientTransform="translate(104.279 78.2888) scale(135.974)">
<stop offset="0.53" stop-color="white"/>
<stop offset="0.62" stop-color="#FAFDFF"/>
<stop offset="0.72" stop-color="#EBF8FF"/>
<stop offset="0.83" stop-color="#D4EFFF"/>
<stop offset="0.94" stop-color="#B3E3FF"/>
<stop offset="1" stop-color="#A1DDFF"/>
</radialGradient>
<radialGradient id="paint2_radial_196_3146" cx="0" cy="0" r="1" gradientUnits="userSpaceOnUse" gradientTransform="translate(131.22 87.4806) scale(135.974)">
<stop offset="0.53" stop-color="white"/>
<stop offset="0.64" stop-color="#FAFFFC"/>
<stop offset="0.77" stop-color="#EBFFF3"/>
<stop offset="0.91" stop-color="#D4FFE6"/>
<stop offset="1" stop-color="#C0FFDA"/>
</radialGradient>
<radialGradient id="paint3_radial_196_3146" cx="0" cy="0" r="1" gradientUnits="userSpaceOnUse" gradientTransform="translate(110.301 72.5836) scale(120.444)">
<stop offset="0.41" stop-color="white"/>
<stop offset="0.46" stop-color="#FAFCFF"/>
<stop offset="0.52" stop-color="#EBF6FF"/>
<stop offset="0.58" stop-color="#D4EBFF"/>
<stop offset="0.65" stop-color="#B3DBFF"/>
<stop offset="0.72" stop-color="#89C8FF"/>
<stop offset="0.78" stop-color="#56B0FF"/>
<stop offset="0.81" stop-color="#44A8FF"/>
<stop offset="0.83" stop-color="#4CACFF"/>
<stop offset="0.86" stop-color="#64B7FF"/>
<stop offset="0.9" stop-color="#8BC9FF"/>
<stop offset="0.95" stop-color="#C1E2FF"/>
<stop offset="1" stop-color="white"/>
</radialGradient>
<radialGradient id="paint4_radial_196_3146" cx="0" cy="0" r="1" gradientUnits="userSpaceOnUse" gradientTransform="translate(113.471 87.4806) scale(117.591)">
<stop offset="0.78" stop-color="white"/>
<stop offset="0.79" stop-color="#FAFAFA"/>
<stop offset="0.8" stop-color="#EBEBEB"/>
<stop offset="0.81" stop-color="#D4D4D4"/>
<stop offset="0.82" stop-color="#C4C4C4"/>
</radialGradient>
<radialGradient id="paint5_radial_196_3146" cx="0" cy="0" r="1" gradientUnits="userSpaceOnUse" gradientTransform="translate(137.872 186.371) scale(143.423)">
<stop stop-color="white"/>
<stop offset="0.01" stop-color="#F4F4F4"/>
<stop offset="0.09" stop-color="#C1C1C1"/>
<stop offset="0.17" stop-color="#939393"/>
<stop offset="0.26" stop-color="#6B6B6B"/>
<stop offset="0.34" stop-color="#4A4A4A"/>
<stop offset="0.44" stop-color="#2F2F2F"/>
<stop offset="0.54" stop-color="#1A1A1A"/>
<stop offset="0.66" stop-color="#0B0B0B"/>
<stop offset="0.79" stop-color="#020202"/>
<stop offset="1"/>
</radialGradient>
<radialGradient id="paint6_radial_196_3146" cx="0" cy="0" r="1" gradientUnits="userSpaceOnUse" gradientTransform="translate(49.4474 159.271) scale(190.966)">
<stop stop-color="white"/>
<stop offset="0.01" stop-color="#F4F4F4"/>
<stop offset="0.09" stop-color="#C1C1C1"/>
<stop offset="0.17" stop-color="#939393"/>
<stop offset="0.26" stop-color="#6B6B6B"/>
<stop offset="0.34" stop-color="#4A4A4A"/>
<stop offset="0.44" stop-color="#2F2F2F"/>
<stop offset="0.54" stop-color="#1A1A1A"/>
<stop offset="0.66" stop-color="#0B0B0B"/>
<stop offset="0.79" stop-color="#020202"/>
<stop offset="1"/>
</radialGradient>
<linearGradient id="paint7_linear_196_3146" x1="78.9202" y1="112.363" x2="-116.325" y2="184.788" gradientUnits="userSpaceOnUse">
<stop stop-color="white"/>
<stop offset="0.08" stop-color="#E4E4E4"/>
<stop offset="0.34" stop-color="#949494"/>
<stop offset="0.57" stop-color="#545454"/>
<stop offset="0.77" stop-color="#262626"/>
<stop offset="0.91" stop-color="#0A0A0A"/>
<stop offset="1"/>
</linearGradient>
<linearGradient id="paint8_linear_196_3146" x1="99.9989" y1="-22.668" x2="99.9989" y2="101.896" gradientUnits="userSpaceOnUse">
<stop stop-color="#303030"/>
<stop offset="0.16" stop-color="#262626"/>
<stop offset="0.69" stop-color="#0A0A0A"/>
<stop offset="1"/>
</linearGradient>
<radialGradient id="paint9_radial_196_3146" cx="0" cy="0" r="1" gradientUnits="userSpaceOnUse" gradientTransform="translate(163.707 145.001) scale(21.2361)">
<stop stop-color="white"/>
<stop offset="0.12" stop-color="#CFCFCF"/>
<stop offset="0.3" stop-color="#919191"/>
<stop offset="0.48" stop-color="#5D5D5D"/>
<stop offset="0.64" stop-color="#343434"/>
<stop offset="0.78" stop-color="#171717"/>
<stop offset="0.91" stop-color="#060606"/>
<stop offset="1"/>
</radialGradient>
<radialGradient id="paint10_radial_196_3146" cx="0" cy="0" r="1" gradientUnits="userSpaceOnUse" gradientTransform="translate(168.305 73.053) scale(21.2361)">
<stop stop-color="#212121"/>
<stop offset="0.19" stop-color="#171717"/>
<stop offset="0.66" stop-color="#060606"/>
<stop offset="1"/>
</radialGradient>
<radialGradient id="paint11_radial_196_3146" cx="0" cy="0" r="1" gradientUnits="userSpaceOnUse" gradientTransform="translate(99.049 100) scale(100.475)">
<stop offset="0.68" stop-color="white"/>
<stop offset="0.72" stop-color="#FAFAFA"/>
<stop offset="0.77" stop-color="#EBEBEB"/>
<stop offset="0.82" stop-color="#D4D4D4"/>
<stop offset="0.88" stop-color="#B3B3B3"/>
<stop offset="0.93" stop-color="#898989"/>
<stop offset="0.99" stop-color="#565656"/>
<stop offset="1" stop-color="#4D4D4D"/>
</radialGradient>
</defs>
</svg>
