<svg width="260" height="330" viewBox="0 0 260 330" fill="none" xmlns="http://www.w3.org/2000/svg">
<path d="M130 116.887C102.432 116.887 80.0007 138.739 80.0007 165.594C80.0007 192.449 102.432 214.301 130 214.301C157.568 214.301 179.999 192.45 179.999 165.594C179.999 138.738 157.568 116.887 130 116.887ZM157.07 162.74L127.07 191.964C125.117 193.867 122.559 194.819 120 194.819C117.441 194.819 114.883 193.868 112.93 191.964L102.93 182.223C99.0238 178.418 99.0238 172.253 102.93 168.448C106.835 164.643 113.164 164.643 117.07 168.448L120 171.302L142.929 148.966C146.835 145.161 153.163 145.161 157.069 148.966C160.975 152.771 160.976 158.935 157.07 162.74ZM250 52.9969C194.649 52.9969 137.286 3.01481 136.709 2.51107C132.901 -0.837023 127.099 -0.837023 123.291 2.51107C122.714 3.01481 65.3522 52.9969 10.0001 52.9969C4.47339 52.9969 0 57.3535 0 62.7384V178.751C0 270.563 67.5676 307.464 126.435 329.363C127.578 329.791 128.789 330 130 330C131.211 330 132.422 329.791 133.565 329.363C192.431 307.464 260 270.563 260 178.751V62.7384C259.999 57.3535 255.527 52.9969 250 52.9969ZM130 233.784C91.4063 233.784 60.0005 203.19 60.0005 165.594C60.0005 127.998 91.4063 97.4039 130 97.4039C168.594 97.4039 199.999 127.998 199.999 165.594C199.999 203.19 168.594 233.784 130 233.784Z" fill="white"/>
</svg>
