<svg width="143" height="73" viewBox="0 0 143 73" fill="none" xmlns="http://www.w3.org/2000/svg">
<path d="M46.066 23.0362C46.078 23.0362 46.0896 23.041 46.0981 23.0495C51.3598 28.3025 54 35.1968 54 42.0725C54 48.954 51.3553 55.8541 46.0848 61.1087C40.8142 66.3634 33.893 69 26.9906 69C20.0882 69 13.1671 66.3634 7.89649 61.1087C2.64467 55.8541 0 48.954 0 42.0725C0 35.191 2.64467 28.2909 7.91525 23.0362L25.037 5.94962C26.1168 4.87208 27.8649 4.87164 28.9452 5.94866V5.94866C30.0298 7.02994 30.0298 8.78651 28.9452 9.86778C23.2386 15.5571 17.5201 21.2583 11.8166 26.9445C7.6339 31.1145 5.53317 36.5935 5.53317 42.0538C5.53317 47.5141 7.6339 52.9931 11.8166 57.1631C15.9993 61.3331 21.495 63.4275 26.9719 63.4275C32.4488 63.4275 37.9444 61.3331 42.1271 57.1631C46.3098 52.9931 48.4106 47.5141 48.4106 42.0538C48.4106 36.5935 46.3098 31.1145 42.1271 26.9445L40.4919 25.3142C39.4071 24.2327 39.4071 22.4756 40.4919 21.3941V21.3941C41.5721 20.3172 43.3199 20.3172 44.4001 21.3941L46.034 23.023C46.0425 23.0315 46.054 23.0362 46.066 23.0362V23.0362Z" fill="#77FFC3"/>
<path d="M41.1193 28.1164C41.1246 28.1112 41.133 28.1113 41.1383 28.1165C45.0335 31.9856 47 37.0729 47 42.1414C47 47.2329 45.0492 52.3056 41.1477 56.1758C37.2462 60.0461 32.1136 62 27 62C21.8864 62 16.7538 60.0649 12.8523 56.1758C8.95076 52.3056 7 47.2329 7 42.1414C7 37.05 8.95076 31.9773 12.8712 28.0883L30.1319 10.949C31.2183 9.87021 32.9715 9.86978 34.0584 10.948V10.948C35.1574 12.0382 35.1575 13.815 34.0585 14.9051C28.9494 19.9733 20.8977 27.9606 16.7727 32.0525C13.9508 34.8518 12.5492 38.4966 12.5492 42.1602C12.5492 45.805 13.9508 49.4686 16.7727 52.268C19.5947 55.0674 23.2689 56.4576 26.9621 56.4576C30.6553 56.4576 34.3295 55.0674 37.1515 52.268C39.9735 49.4686 41.375 45.8238 41.375 42.1602C41.375 38.4966 39.9545 34.8518 37.1515 32.0525L35.5102 30.4243C34.411 29.3339 34.411 27.5566 35.5102 26.4661L35.6553 26.3222C36.6618 25.3238 38.2852 25.3238 39.2917 26.3222L41.1004 28.1164C41.1056 28.1216 41.1141 28.1216 41.1193 28.1164V28.1164Z" fill="#77FFC3"/>
<path d="M36.4859 32.9385C38.9387 35.3408 40.1556 38.4879 40.1746 41.6536C40.1746 44.8194 38.9387 47.9851 36.4859 50.3873C34.0331 52.7896 30.8197 53.9814 27.5873 54C24.3739 54 21.1415 52.7896 18.6887 50.3873C16.2359 47.9851 15 44.838 15 41.6723C15 38.5065 16.2359 35.3408 18.6887 32.9385L36.0805 15.9055C37.1615 14.8467 38.8906 14.8467 39.9716 15.9055V15.9055C41.085 16.9958 41.085 18.7882 39.9716 19.8785L27.5683 32.0261L25.1155 34.4283L22.6627 36.8305C21.2937 38.1713 20.6092 39.9032 20.6092 41.6536C20.6092 43.4041 21.2937 45.1359 22.6627 46.4767C24.0317 47.8175 25.8 48.4879 27.5873 48.4879C29.3746 48.4879 31.143 47.8175 32.512 46.4767C33.881 45.1359 34.5655 43.4041 34.5655 41.6536C34.5655 39.9032 33.881 38.1713 32.512 36.8305L30.8896 35.2417C29.7763 34.1513 29.7763 32.359 30.8896 31.2686V31.2686C31.9706 30.2099 33.6998 30.2099 34.7808 31.2686L36.4859 32.9385Z" fill="#77FFC3"/>
<path d="M69.7694 23V6.24755H78.0738C79.2226 6.24755 80.2277 6.44699 81.0893 6.84586C81.9668 7.24472 82.6528 7.80314 83.1474 8.5211C83.642 9.22311 83.8893 10.0368 83.8893 10.9622C83.8893 11.6482 83.7138 12.2944 83.3628 12.9007C83.0278 13.491 82.5651 13.9936 81.9748 14.4084C82.7246 14.8073 83.315 15.3258 83.7457 15.964C84.1925 16.6022 84.4158 17.3042 84.4158 18.07C84.4158 19.0432 84.1685 19.9048 83.6739 20.6547C83.1793 21.3886 82.4853 21.9629 81.5918 22.3778C80.6984 22.7926 79.6613 23 78.4807 23H69.7694ZM73.8857 12.9246H77.8106C78.4169 12.9246 78.8955 12.773 79.2465 12.4699C79.5975 12.1668 79.773 11.7679 79.773 11.2733C79.773 10.7627 79.5975 10.3639 79.2465 10.0767C78.8955 9.77355 78.4169 9.62198 77.8106 9.62198H73.8857V12.9246ZM73.8857 19.6256H78.1696C78.8078 19.6256 79.3103 19.466 79.6773 19.1469C80.0602 18.8278 80.2517 18.3971 80.2517 17.8546C80.2517 17.3121 80.0602 16.8814 79.6773 16.5623C79.3103 16.2432 78.8078 16.0836 78.1696 16.0836H73.8857V19.6256ZM86.6434 23V6.24755H99.8539V9.81343H90.7597V12.8289H96.7666V16.2751H90.7597V19.4341H99.9496V23H86.6434Z" fill="#1C3AA4"/>
<path d="M77.9789 44.2393C76.7025 44.2393 75.5139 44.0239 74.413 43.5932C73.3281 43.1464 72.3788 42.5322 71.5651 41.7504C70.7514 40.9686 70.1132 40.0592 69.6505 39.0221C69.2038 37.9691 68.9804 36.8363 68.9804 35.6238C68.9804 34.3953 69.2038 33.2625 69.6505 32.2254C70.1132 31.1724 70.7514 30.255 71.5651 29.4732C72.3947 28.6915 73.352 28.0852 74.4369 27.6544C75.5378 27.2077 76.7185 26.9843 77.9789 26.9843C78.9043 26.9843 79.8137 27.1199 80.7071 27.3911C81.6006 27.6624 82.4223 28.0453 83.1721 28.5399C83.938 29.0185 84.5762 29.5929 85.0867 30.263L82.3106 32.9913C81.7203 32.2414 81.0581 31.683 80.3242 31.316C79.6063 30.949 78.8245 30.7656 77.9789 30.7656C77.3088 30.7656 76.6786 30.8932 76.0883 31.1485C75.5139 31.3878 75.0113 31.7229 74.5805 32.1536C74.1498 32.5844 73.8147 33.095 73.5754 33.6853C73.3361 34.2756 73.2164 34.9218 73.2164 35.6238C73.2164 36.3098 73.3361 36.948 73.5754 37.5383C73.8307 38.1127 74.1737 38.6233 74.6045 39.07C75.0512 39.5008 75.5697 39.8358 76.1601 40.0751C76.7663 40.3145 77.4205 40.4341 78.1225 40.4341C78.9362 40.4341 79.686 40.2586 80.3721 39.9076C81.0741 39.5566 81.7043 39.0381 82.2627 38.352L84.9671 41.0085C84.4565 41.6626 83.8263 42.237 83.0764 42.7316C82.3265 43.2102 81.5129 43.5852 80.6353 43.8564C79.7578 44.1117 78.8724 44.2393 77.9789 44.2393ZM85.1542 44L92.0227 27.2476H96.7373L103.51 44H99.0587L97.5271 39.9555H90.9936L89.438 44H85.1542ZM92.2381 36.6768H96.3065L94.2963 31.316L92.2381 36.6768ZM104.729 44V27.2476H113.297C114.445 27.2476 115.466 27.4789 116.36 27.9416C117.253 28.3883 117.947 29.0185 118.442 29.8322C118.953 30.63 119.208 31.5473 119.208 32.5844C119.208 33.6374 118.921 34.5787 118.346 35.4084C117.772 36.238 117.014 36.8682 116.073 37.299L119.734 44H115.139L111.98 37.8973H108.845V44H104.729ZM108.845 34.5468H112.914C113.552 34.5468 114.062 34.3713 114.445 34.0203C114.844 33.6693 115.044 33.2146 115.044 32.6562C115.044 32.0978 114.844 31.6431 114.445 31.2921C114.062 30.9411 113.552 30.7656 112.914 30.7656H108.845V34.5468Z" fill="#1C3AA4"/>
<path d="M73.2838 66L69.5504 49.2476H73.7864L75.8206 59.5862L78.7404 49.2476H82.5934L85.5131 59.5862L87.5474 49.2476H91.6397L87.9063 66H83.5507L80.6071 55.3263L77.6395 66H73.2838ZM90.4742 66L97.3427 49.2476H102.057L108.83 66H104.379L102.847 61.9555H96.3136L94.758 66H90.4742ZM97.5581 58.6768H101.627L99.6162 53.316L97.5581 58.6768ZM116.574 66.2393C115.218 66.2393 113.878 65.992 112.553 65.4974C111.229 65.0028 110.048 64.3168 109.011 63.4393L111.309 60.4478C112.33 61.2774 113.271 61.8757 114.133 62.2427C114.994 62.5937 115.912 62.7692 116.885 62.7692C117.523 62.7692 118.066 62.7054 118.512 62.5777C118.959 62.4501 119.302 62.2666 119.542 62.0273C119.781 61.772 119.901 61.4768 119.901 61.1418C119.901 60.6791 119.725 60.3201 119.374 60.0648C119.023 59.8096 118.425 59.6101 117.579 59.4665L113.894 58.8204C112.537 58.5811 111.492 58.0625 110.758 57.2648C110.025 56.4671 109.658 55.4539 109.658 54.2254C109.658 53.1405 109.929 52.2072 110.471 51.4254C111.03 50.6436 111.819 50.0453 112.841 49.6305C113.878 49.2156 115.106 49.0082 116.526 49.0082C117.771 49.0082 119.023 49.2236 120.283 49.6544C121.544 50.0692 122.637 50.6516 123.562 51.4014L121.384 54.4408C119.661 53.1166 117.946 52.4545 116.239 52.4545C115.68 52.4545 115.194 52.5183 114.779 52.6459C114.38 52.7576 114.069 52.9251 113.846 53.1485C113.638 53.3559 113.535 53.6112 113.535 53.9143C113.535 54.3291 113.686 54.6482 113.989 54.8716C114.308 55.095 114.819 55.2705 115.521 55.3981L118.991 55.9725C120.603 56.2277 121.823 56.7622 122.653 57.5759C123.498 58.3896 123.921 59.4426 123.921 60.7349C123.921 61.8677 123.626 62.8489 123.036 63.6786C122.445 64.4923 121.6 65.1225 120.499 65.5692C119.398 66.016 118.09 66.2393 116.574 66.2393ZM125.801 66V49.2476H129.917V55.6853H136.81V49.2476H140.926V66H136.81V59.4426H129.917V66H125.801Z" fill="#1C3AA4"/>
</svg>
