<svg width="224" height="100" viewBox="0 0 224 100" fill="none" xmlns="http://www.w3.org/2000/svg">
<path fill-rule="evenodd" clip-rule="evenodd" d="M222.671 69.7416L193.793 98.6687C192.021 100.444 189.148 100.444 187.376 98.6687L158.498 69.7416C156.726 67.9665 156.726 65.0885 158.498 63.3133C160.27 61.5382 163.143 61.5382 164.915 63.3133L186.047 84.4809L186.047 22.7273C186.047 15.1962 179.952 9.09096 172.433 9.09096L-4.19198e-06 9.09092L-4.58935e-06 9.79135e-06L172.433 5.37308e-05C184.964 5.69761e-05 195.122 10.1754 195.122 22.7273L195.122 84.4809L216.254 63.3133C218.026 61.5382 220.899 61.5382 222.671 63.3133C224.443 65.0885 224.443 67.9665 222.671 69.7416Z" fill="#7DFEC5"/>
</svg>
