<svg width="240" height="290" viewBox="0 0 240 290" fill="none" xmlns="http://www.w3.org/2000/svg">
<path d="M204.821 84.931C228.246 108.375 240 139.16 240 169.862C240 200.564 228.246 231.349 204.821 254.793C181.396 278.236 150.636 290 119.958 290C89.281 290 58.5203 278.236 35.0955 254.793C11.7541 231.349 0 200.564 0 169.862C0 139.16 11.7541 108.375 35.1789 84.931L119.958 0L137.381 17.4367C109.121 45.7192 80.778 74.0852 52.5182 102.368C33.9284 120.972 24.5919 145.417 24.5919 169.778C24.5919 194.14 33.9284 218.585 52.5182 237.189C71.108 255.794 95.5332 265.138 119.875 265.138C144.217 265.138 168.642 255.794 187.232 237.189C205.821 218.585 215.158 194.14 215.158 169.778C215.158 145.417 205.821 120.972 187.232 102.368L171.226 86.3493L188.649 68.9125L204.654 84.931H204.821Z" fill="#77FFC3"/>
<path d="M182.167 107.72C199.333 124.881 208 147.456 208 169.948C208 192.523 199.417 215.015 182.25 232.176C165.083 249.336 142.5 258 120 258C97.5 258 74.9167 249.42 57.75 232.176C40.5833 215.015 32 192.523 32 169.948C32 147.373 40.5833 124.881 57.8333 107.637L142.417 23L159.833 40.4105C139.083 61.1531 95.75 104.471 75 125.214C62.5833 137.626 56.4167 153.787 56.4167 170.031C56.4167 186.192 62.5833 202.436 75 214.849C87.4167 227.261 103.583 233.425 119.833 233.425C136.083 233.425 152.25 227.261 164.667 214.849C177.083 202.436 183.25 186.275 183.25 170.031C183.25 153.787 177 137.626 164.667 125.214L148.667 109.219L166.083 91.8089L182.083 107.803L182.167 107.72Z" fill="#77FFC3"/>
<path d="M158.901 130.75C169.621 141.5 174.939 155.583 175.023 169.75C175.023 183.917 169.621 198.083 158.901 208.833C148.182 219.583 134.138 224.917 120.011 225C105.968 225 91.8408 219.583 81.1211 208.833C70.4014 198.083 65 184 65 169.833C65 155.667 70.4014 141.5 81.1211 130.75L165.632 46L183 63.4167L119.928 126.667L109.208 137.417L98.4887 148.167C92.5056 154.167 89.5141 161.917 89.5141 169.75C89.5141 177.583 92.5056 185.333 98.4887 191.333C104.472 197.333 112.2 200.333 120.011 200.333C127.823 200.333 135.551 197.333 141.534 191.333C147.517 185.333 150.508 177.583 150.508 169.75C150.508 161.917 147.517 154.167 141.534 148.167L125.579 132.167L142.946 114.75L158.901 130.75V130.75Z" fill="#77FFC3"/>
</svg>
