<svg width="61" height="65" viewBox="0 0 61 65" fill="none" xmlns="http://www.w3.org/2000/svg">
<path d="M6 4C6.55275 4 7 3.47613 7 2.8287V1.1713C7 0.523865 6.55275 0 6 0C5.44725 0 5 0.523865 5 1.1713V2.8287C5 3.47613 5.44725 4 6 4Z" fill="white"/>
<path d="M6 10C6.55275 10 7 9.47613 7 8.8287V7.1713C7 6.52387 6.55275 6 6 6C5.44725 6 5 6.52387 5 7.1713V8.8287C5 9.47613 5.44725 10 6 10Z" fill="white"/>
<path d="M2.1713 6H3.8287C4.47613 6 5 5.55275 5 5C5 4.44725 4.47613 4 3.8287 4H2.1713C1.52387 4 1 4.44725 1 5C1 5.55275 1.52387 6 2.1713 6V6Z" fill="white"/>
<path d="M8.1713 6H9.8287C10.4761 6 11 5.55275 11 5C11 4.44725 10.4761 4 9.8287 4H8.1713C7.52387 4 7 4.44725 7 5C7 5.55275 7.52416 6 8.1713 6Z" fill="white"/>
<path d="M61 7C61 4.79457 59.2054 3 57 3C54.7946 3 53 4.79457 53 7C53 9.20543 54.7946 11 57 11C59.2054 11 61 9.20543 61 7ZM57 8.71429C56.0546 8.71429 55.2857 7.94543 55.2857 7C55.2857 6.05457 56.0546 5.28571 57 5.28571C57.9454 5.28571 58.7143 6.05457 58.7143 7C58.7143 7.94543 57.9454 8.71429 57 8.71429Z" fill="#1ACBAA"/>
<path d="M6 54C3.79457 54 2 55.7946 2 58C2 60.2054 3.79457 62 6 62C8.20543 62 10 60.2054 10 58C10 55.7946 8.20543 54 6 54V54ZM6 59.7143C5.05457 59.7143 4.28571 58.9454 4.28571 58C4.28571 57.0546 5.05457 56.2857 6 56.2857C6.94543 56.2857 7.71429 57.0546 7.71429 58C7.71429 58.9454 6.94543 59.7143 6 59.7143Z" fill="#1ACBAA"/>
<path d="M59 15C58.4476 15 58 15.4478 58 16.0001C58 16.5524 58.4478 17 59 17C59.5522 17 60 16.5522 60 16.0001C60 15.448 59.5524 15 59 15Z" fill="white"/>
<path d="M14 50C13.4476 50 13 50.4478 13 51.0001C13 51.5524 13.4478 52 14 52C14.5522 52 15 51.5522 15 51.0001C15 50.448 14.5524 50 14 50Z" fill="white"/>
<path d="M2 15.0001C2 14.4478 1.55215 14 1 14C0.447849 14 0 14.4478 0 15.0001C0 15.5524 0.447849 16 1 16C1.55215 16 2 15.5524 2 15.0001V15.0001Z" fill="#1ACBAA"/>
<path d="M51.1215 23.0069L47.2587 12.7954L50.6921 10.9333C51.0413 10.745 51.2579 10.3819 51.2579 9.98841C51.2579 9.59489 51.0413 9.2318 50.6921 9.04352L46.4378 6.73621L44.1101 2.51918C43.7302 1.82694 42.5838 1.82694 42.2036 2.51918L39.8759 6.73621L37.7088 7.91141C37.683 7.90953 37.6612 7.8966 37.6351 7.8966H18.3005C15.926 7.8966 13.7701 9.37806 12.9358 11.5814L8.60378 23.0344C6.57554 23.2989 5 25.0045 5 27.086V35.0363C5 37.3005 6.8576 39.1419 9.14182 39.1419H9.3478V41.3977C9.3478 43.1243 10.7649 44.529 12.5068 44.529H15.9714C17.7132 44.529 19.1304 43.1243 19.1304 41.3977V39.1419H21.3043V53.0937C21.3043 55.5577 23.3263 57.5623 25.8124 57.5623H28.0357C28.4167 58.6316 29.1893 59.4814 29.9298 59.9876C29.9319 59.9897 30.1738 60.195 30.5009 61.145C31.2917 63.4512 33.3776 65 35.6917 65H40.137C41.7707 65 43.3183 64.2434 44.2789 62.9744C45.4808 61.3831 46.1783 59.4787 46.2829 57.562H50.4919C52.9777 57.562 55 55.5577 55 53.0934V37.1457C55 36.7788 54.9424 36.4273 54.8579 36.086C54.9492 35.7461 55 35.3946 55 35.0361V27.0858C54.9997 24.9113 53.281 23.1448 51.1215 23.0069V23.0069ZM41.1984 8.47544C41.381 8.37659 41.5308 8.22818 41.6305 8.04717L43.1569 5.28089L44.6832 8.04717C44.7829 8.22818 44.9327 8.37659 45.1153 8.47544L47.906 9.98841L45.1153 11.5025C44.9327 11.6013 44.7829 11.7497 44.6832 11.9307L43.1569 14.6959L41.6305 11.9307C41.5308 11.7497 41.381 11.6013 41.1984 11.5025L38.4077 9.98841L41.1984 8.47544ZM14.9714 12.3377C15.4883 10.9699 16.8268 10.0514 18.3002 10.0514H35.0642C35.0865 10.4197 35.2914 10.7553 35.6213 10.933L39.8756 13.2403L42.2033 17.4574C42.3933 17.8035 42.7596 18.0182 43.1566 18.0182C43.5536 18.0182 43.9199 17.8035 44.1098 17.4574L45.6468 14.6733L48.7889 22.9802H10.9459L14.9714 12.3377ZM7.1739 35.0363V27.086C7.1739 26.0108 8.05705 25.1354 9.14182 25.1354H50.8579C51.9427 25.1354 52.8258 26.0108 52.8258 27.086V33.3418C52.3174 33.0342 51.7457 32.829 51.1318 32.7414C51.3326 32.2294 51.4449 31.6834 51.4449 31.1264C51.4449 28.6663 49.4248 26.6642 46.9432 26.6642C44.4617 26.6642 42.4416 28.6666 42.4416 31.1264C42.4416 31.66 42.5392 32.1847 42.7234 32.6773H25.8127C23.3814 32.6773 21.4072 34.5978 21.3208 36.987H9.14182C8.05705 36.987 7.1739 36.1116 7.1739 35.0363V35.0363ZM45.1992 32.6773C45.1848 32.6582 45.181 32.6348 45.1653 32.6162C44.8107 32.2027 44.6155 31.6734 44.6155 31.1264C44.6155 29.8542 45.6601 28.8191 46.9432 28.8191C48.2264 28.8191 49.271 29.8545 49.271 31.1264C49.271 31.6705 49.0767 32.1984 48.7242 32.6121C48.7074 32.6318 48.7033 32.6568 48.6881 32.6773H45.1992ZM16.9565 41.3977C16.9565 41.9364 16.5149 42.3741 15.9714 42.3741H12.5068C11.9633 42.3741 11.5217 41.9364 11.5217 41.3977V39.1419H16.9565V41.3977ZM44.1302 57.0656C44.1302 58.685 43.5645 60.3243 42.5392 61.6815C41.9797 62.4212 41.1041 62.8452 40.137 62.8452H35.6917C34.3085 62.8452 33.0507 61.8836 32.5594 60.4503C32.1645 59.3034 31.7219 58.5931 31.1678 58.2165C30.6126 57.8378 29.9651 57.0834 29.9651 56.208V49.1649C29.9651 48.8123 30.2102 48.5262 30.5118 48.5262C30.8238 48.5262 31.0871 48.8166 31.0871 49.1605V53.2704C31.0871 53.8659 31.5732 54.3478 32.174 54.3478C32.7748 54.3478 33.261 53.8659 33.261 53.2704V41.8354C33.261 41.5386 33.505 41.2967 33.8045 41.2967C34.1039 41.2967 34.3479 41.5386 34.3479 41.8354V52.7255C34.3479 53.321 34.8341 53.8029 35.4349 53.8029C36.0357 53.8029 36.5218 53.321 36.5218 52.7255V38.6379C36.5218 38.3411 36.7659 38.0992 37.0653 38.0992C37.3648 38.0992 37.6088 38.3411 37.6088 38.6379V51.7932C37.6088 52.3888 38.0949 52.8706 38.6957 52.8706C39.2966 52.8706 39.7827 52.3888 39.7827 51.7932V40.7327C39.7827 40.4358 40.0267 40.194 40.3262 40.194C40.6256 40.194 40.8696 40.4358 40.8696 40.7327V51.0975C40.8696 51.693 41.3558 52.1749 41.9566 52.1749C42.5574 52.1749 43.0435 51.693 43.0435 51.0975V44.0431C43.0435 43.7169 43.2876 43.4518 43.587 43.4518C43.8865 43.4518 44.1305 43.7169 44.1305 44.0431V48.8209V51.5322V57.0656H44.1302ZM52.8258 53.0937C52.8258 54.3699 51.7791 55.4074 50.4916 55.4074H46.3041V51.5322V48.8209V44.0431C46.3041 42.529 45.0856 41.297 43.5867 41.297C43.4006 41.297 43.2188 41.3164 43.0433 41.3525V40.7329C43.0433 39.2472 41.8248 38.0394 40.3259 38.0394C40.1202 38.0394 39.9213 38.0666 39.7286 38.1097C39.4802 36.8766 38.3813 35.9446 37.065 35.9446C35.5661 35.9446 34.3477 37.1524 34.3477 38.6382V39.1965C34.1721 39.161 33.9903 39.1421 33.8042 39.1421C32.3053 39.1421 31.0868 40.3499 31.0868 41.8357V46.4352C30.9009 46.3948 30.7091 46.3716 30.5115 46.3716C29.0116 46.3716 27.7909 47.6247 27.7909 49.1651V55.4077H25.8124C24.5249 55.4077 23.4782 54.3701 23.4782 53.0939V37.1462C23.4782 35.87 24.5249 34.8324 25.8124 34.8324H50.4916C51.7791 34.8324 52.8258 35.87 52.8258 37.1462V53.0937Z" fill="white"/>
<path d="M12.5 27C10.0191 27 8 29.0191 8 31.4995C8 33.9811 10.0194 36 12.5 36C14.9806 36 17 33.9809 17 31.4995C17 29.0191 14.9809 27 12.5 27ZM12.5 33.8274C11.217 33.8274 10.1731 32.7833 10.1731 31.4997C10.1731 30.2169 11.2173 29.1731 12.5 29.1731C13.7827 29.1731 14.8269 30.2172 14.8269 31.4997C14.8269 32.7833 13.783 33.8274 12.5 33.8274Z" fill="white"/>
</svg>
