<svg width="73" height="73" viewBox="0 0 73 73" fill="none" xmlns="http://www.w3.org/2000/svg">
<rect width="73" height="73" rx="36.5" fill="url(#paint0_linear_187_1986)"/>
<path d="M28.375 46.2027C26.5353 46.2027 25.1862 45.792 24.3277 44.9706C23.5101 44.1082 23.1013 43.0404 23.1013 41.7672V40.4736C23.1013 39.2826 23.2648 38.0916 23.5919 36.9006C23.9598 35.6685 24.4299 34.498 25.0023 33.3892C25.6155 32.2803 26.3309 31.2536 27.1485 30.309C27.9662 29.3234 28.8451 28.4609 29.7854 27.7217H35.4882C34.1392 28.9537 32.9741 30.2063 31.9929 31.4795C31.0527 32.7526 30.3372 34.1695 29.8467 35.7301C31.1549 35.9765 32.1156 36.531 32.7288 37.3934C33.342 38.2148 33.6486 39.1594 33.6486 40.2272V41.7672C33.6486 43.0404 33.2194 44.1082 32.3609 44.9706C31.5432 45.792 30.2146 46.2027 28.375 46.2027ZM42.7855 46.2027C40.9459 46.2027 39.5968 45.792 38.7383 44.9706C37.9207 44.1082 37.5119 43.0404 37.5119 41.7672V40.4736C37.5119 39.2826 37.6754 38.0916 38.0024 36.9006C38.3704 35.6685 38.8405 34.498 39.4128 33.3892C40.026 32.2803 40.7415 31.2536 41.5591 30.309C42.3767 29.3234 43.2556 28.4609 44.1959 27.7217H49.8988C48.5497 28.9537 47.3846 30.2063 46.4035 31.4795C45.4632 32.7526 44.7478 34.1695 44.2572 35.7301C45.5654 35.9765 46.5261 36.531 47.1393 37.3934C47.7525 38.2148 48.0591 39.1594 48.0591 40.2272V41.7672C48.0591 43.0404 47.6299 44.1082 46.7714 44.9706C45.9538 45.792 44.6251 46.2027 42.7855 46.2027Z" fill="url(#paint1_linear_187_1986)"/>
<defs>
<linearGradient id="paint0_linear_187_1986" x1="36.5" y1="0" x2="36.5" y2="73" gradientUnits="userSpaceOnUse">
<stop stop-color="#5575E7"/>
<stop offset="0.776042" stop-color="#2D4CB8"/>
</linearGradient>
<linearGradient id="paint1_linear_187_1986" x1="23.1013" y1="36.9622" x2="49.8988" y2="36.9622" gradientUnits="userSpaceOnUse">
<stop stop-color="#70D1CD"/>
<stop offset="1" stop-color="#DEA6FF"/>
</linearGradient>
</defs>
</svg>
