<svg width="350" height="458" viewBox="0 0 350 458" fill="none" xmlns="http://www.w3.org/2000/svg">
<path d="M175 162.225C137.889 162.225 107.693 192.553 107.693 229.824C107.693 267.095 137.889 297.423 175 297.423C212.111 297.423 242.307 267.097 242.307 229.824C242.307 192.552 212.111 162.225 175 162.225ZM211.441 225.863L171.056 266.423C168.427 269.064 164.983 270.385 161.538 270.385C158.094 270.385 154.65 269.065 152.021 266.423L138.559 252.903C133.301 247.623 133.301 239.066 138.559 233.786C143.817 228.505 152.336 228.505 157.594 233.786L161.538 237.747L192.404 206.747C197.662 201.466 206.181 201.466 211.439 206.747C216.697 212.027 216.699 220.582 211.441 225.863ZM336.538 73.5532C262.027 73.5532 184.807 4.18419 184.031 3.48506C178.905 -1.16169 171.095 -1.16169 165.969 3.48506C165.193 4.18419 87.9741 73.5532 13.4616 73.5532C6.02187 73.5532 0 79.5997 0 87.0734V248.085C0 375.508 90.9564 426.722 170.201 457.116C171.74 457.71 173.369 458 175 458C176.631 458 178.26 457.71 179.799 457.116C259.042 426.722 350 375.508 350 248.085V87.0734C349.998 79.5997 343.978 73.5532 336.538 73.5532ZM175 324.464C123.047 324.464 80.7699 282.003 80.7699 229.824C80.7699 177.645 123.047 135.185 175 135.185C226.953 135.185 269.23 177.645 269.23 229.824C269.23 282.003 226.953 324.464 175 324.464Z" fill="#77FFC3"/>
</svg>
