<svg width="500" height="500" viewBox="0 0 500 500" fill="none" xmlns="http://www.w3.org/2000/svg">
<path style="mix-blend-mode:multiply" d="M500 250C500 388.273 387.876 500 250 500C112.124 500 0 388.273 0 250C0 111.727 111.727 0 250 0C388.273 0 500 112.124 500 250V250Z" fill="url(#paint0_radial_196_3030)"/>
<path style="mix-blend-mode:multiply" d="M500 250C500 388.273 387.876 500 250 500C112.124 500 0 388.273 0 250C0 111.727 111.727 0 250 0C388.273 0 500 112.124 500 250V250Z" fill="url(#paint1_radial_196_3030)"/>
<path style="mix-blend-mode:multiply" d="M500 249.802C500 294.537 488.114 336.896 467.512 373.317C424.326 448.931 343.106 500 250 500C111.727 500 0 387.965 0 250.198C0 234.758 1.18859 220.111 3.96196 205.463C15.0555 143.31 49.1284 89.4695 97.0681 52.2565C139.461 19.3983 192.551 0 250 0C351.03 0 438.193 59.7783 477.417 146.081C492.076 177.751 500 212.985 500 250.198V249.802Z" fill="url(#paint2_radial_196_3030)"/>
<path style="mix-blend-mode:multiply" opacity="0.5" d="M500 249.802C500 294.537 488.114 336.896 467.512 373.317C424.326 448.931 343.106 500 250 500C111.727 500 0 387.965 0 250.198C0 234.758 1.18859 220.111 3.96196 205.463C15.0555 143.31 49.1284 89.4695 97.0681 52.2565C139.461 19.3983 192.551 0 250 0C351.03 0 438.193 59.7783 477.417 146.081C492.076 177.751 500 212.985 500 250.198V249.802Z" fill="url(#paint3_radial_196_3030)"/>
<path style="mix-blend-mode:color-burn" d="M500 249.802C500 294.537 488.114 336.896 467.512 373.317C424.326 448.931 343.106 500 250 500C111.727 500 0 387.965 0 250.198C0 234.758 1.18859 220.111 3.96196 205.463C15.0555 143.31 49.1284 89.4695 97.0681 52.2565C139.461 19.3983 192.551 0 250 0C351.03 0 438.193 59.7783 477.417 146.081C492.076 177.751 500 212.985 500 250.198V249.802Z" fill="url(#paint4_radial_196_3030)"/>
<path style="mix-blend-mode:screen" opacity="0.9" d="M500 252.4C500 297.6 487.989 340.4 467.17 377.2C424.331 410.4 370.682 430 312.63 430C172.903 430 60 316.8 60 177.6C60 132.4 72.0109 89.6 92.8298 52.8C135.669 19.6 189.318 0 247.37 0C349.463 0 437.543 60.4 477.179 147.6C491.993 179.6 500 215.2 500 252.8V252.4Z" fill="url(#paint5_radial_196_3030)"/>
<path style="mix-blend-mode:screen" opacity="0.9" d="M474 150.603C453.155 267.007 351.682 355 229.757 355C129.464 355 42.9372 295.417 4 209.397C24.8452 93.3878 126.318 5 248.243 5C348.536 5 435.063 64.5829 474 150.603Z" fill="url(#paint6_radial_196_3030)"/>
<path style="mix-blend-mode:multiply" opacity="0.5" d="M257.819 486.479C121.025 486.479 10.2497 376.546 10.2497 240.792C10.2497 179.37 33.1143 123.426 70.565 80C26.8068 123.426 0 183.282 0 249.79C0 382.414 108.41 490 242.05 490C262.155 490 281.472 487.653 300 482.958C286.202 485.305 272.405 486.479 258.213 486.479H257.819Z" fill="url(#paint7_linear_196_3030)"/>
<path style="mix-blend-mode:color-dodge" d="M255.198 9.93641C388.726 9.93641 497.614 116.852 499.999 250C499.999 248.41 499.999 246.82 499.999 245.231C500.396 109.698 390.713 0 255.198 0C119.683 0 10 109.698 10 244.833C10 246.423 10 248.013 10 249.603C12.7818 116.455 121.273 9.53895 254.801 9.53895L255.198 9.93641Z" fill="url(#paint8_linear_196_3030)"/>
<path style="mix-blend-mode:color-dodge" d="M480 185C480 215.373 455.373 240 425 240C394.627 240 370 215.373 370 185C370 154.627 394.627 130 425 130C455.373 130 480 154.627 480 185Z" fill="url(#paint9_radial_196_3030)"/>
<path style="mix-blend-mode:color-burn" opacity="0.5" d="M500 249.802C500 294.537 488.114 336.896 467.512 373.318C424.326 448.931 343.106 500 250 500C111.727 500 0 387.965 0 250.198C0 234.758 1.18859 220.111 3.96196 205.463C15.0555 143.31 49.1284 89.4695 97.0681 52.2565C139.461 19.3983 192.551 0 250 0C351.03 0 438.193 59.7783 477.417 146.081C492.076 177.751 500 212.985 500 250.198V249.802Z" fill="url(#paint10_radial_196_3030)"/>
<path d="M236.266 310V268.354H200V241.646H236.266V200H263.734V241.646H300V268.354H263.734V310H236.266Z" fill="#1C3AA4"/>
<defs>
<radialGradient id="paint0_radial_196_3030" cx="0" cy="0" r="1" gradientUnits="userSpaceOnUse" gradientTransform="translate(209.984 317.353) scale(346.276)">
<stop offset="0.53" stop-color="white"/>
<stop offset="0.65" stop-color="#FFFAFE"/>
<stop offset="0.79" stop-color="#FFEBFB"/>
<stop offset="0.93" stop-color="#FFD4F6"/>
<stop offset="1" stop-color="#FFC7F4"/>
</radialGradient>
<radialGradient id="paint1_radial_196_3030" cx="0" cy="0" r="1" gradientUnits="userSpaceOnUse" gradientTransform="translate(260.697 195.721) scale(339.937)">
<stop offset="0.53" stop-color="white"/>
<stop offset="0.62" stop-color="#FAFDFF"/>
<stop offset="0.72" stop-color="#EBF8FF"/>
<stop offset="0.83" stop-color="#D4EFFF"/>
<stop offset="0.94" stop-color="#B3E3FF"/>
<stop offset="1" stop-color="#A1DDFF"/>
</radialGradient>
<radialGradient id="paint2_radial_196_3030" cx="0" cy="0" r="1" gradientUnits="userSpaceOnUse" gradientTransform="translate(328.051 218.527) scale(339.937 339.667)">
<stop offset="0.53" stop-color="white"/>
<stop offset="0.64" stop-color="#FAFFFC"/>
<stop offset="0.77" stop-color="#EBFFF3"/>
<stop offset="0.91" stop-color="#D4FFE6"/>
<stop offset="1" stop-color="#C0FFDA"/>
</radialGradient>
<radialGradient id="paint3_radial_196_3030" cx="0" cy="0" r="1" gradientUnits="userSpaceOnUse" gradientTransform="translate(275.753 181.314) scale(301.109 300.871)">
<stop offset="0.41" stop-color="white"/>
<stop offset="0.46" stop-color="#FAFCFF"/>
<stop offset="0.52" stop-color="#EBF6FF"/>
<stop offset="0.58" stop-color="#D4EBFF"/>
<stop offset="0.65" stop-color="#B3DBFF"/>
<stop offset="0.72" stop-color="#89C8FF"/>
<stop offset="0.78" stop-color="#56B0FF"/>
<stop offset="0.81" stop-color="#44A8FF"/>
<stop offset="0.83" stop-color="#4CACFF"/>
<stop offset="0.86" stop-color="#64B7FF"/>
<stop offset="0.9" stop-color="#8BC9FF"/>
<stop offset="0.95" stop-color="#C1E2FF"/>
<stop offset="1" stop-color="white"/>
</radialGradient>
<radialGradient id="paint4_radial_196_3030" cx="0" cy="0" r="1" gradientUnits="userSpaceOnUse" gradientTransform="translate(283.677 218.527) scale(293.978 293.745)">
<stop offset="0.78" stop-color="white"/>
<stop offset="0.79" stop-color="#FAFAFA"/>
<stop offset="0.8" stop-color="#EBEBEB"/>
<stop offset="0.81" stop-color="#D4D4D4"/>
<stop offset="0.82" stop-color="#C4C4C4"/>
</radialGradient>
<radialGradient id="paint5_radial_196_3030" cx="0" cy="0" r="1" gradientUnits="userSpaceOnUse" gradientTransform="translate(343.057 470.4) scale(362.329 362)">
<stop stop-color="white"/>
<stop offset="0.01" stop-color="#F4F4F4"/>
<stop offset="0.09" stop-color="#C1C1C1"/>
<stop offset="0.17" stop-color="#939393"/>
<stop offset="0.26" stop-color="#6B6B6B"/>
<stop offset="0.34" stop-color="#4A4A4A"/>
<stop offset="0.44" stop-color="#2F2F2F"/>
<stop offset="0.54" stop-color="#1A1A1A"/>
<stop offset="0.66" stop-color="#0B0B0B"/>
<stop offset="0.79" stop-color="#020202"/>
<stop offset="1"/>
</radialGradient>
<radialGradient id="paint6_radial_196_3030" cx="0" cy="0" r="1" gradientUnits="userSpaceOnUse" gradientTransform="translate(118.778 396.561) scale(473.933 475.479)">
<stop stop-color="white"/>
<stop offset="0.01" stop-color="#F4F4F4"/>
<stop offset="0.09" stop-color="#C1C1C1"/>
<stop offset="0.17" stop-color="#939393"/>
<stop offset="0.26" stop-color="#6B6B6B"/>
<stop offset="0.34" stop-color="#4A4A4A"/>
<stop offset="0.44" stop-color="#2F2F2F"/>
<stop offset="0.54" stop-color="#1A1A1A"/>
<stop offset="0.66" stop-color="#0B0B0B"/>
<stop offset="0.79" stop-color="#020202"/>
<stop offset="1"/>
</radialGradient>
<linearGradient id="paint7_linear_196_3030" x1="191.984" y1="279.132" x2="-292.791" y2="460.332" gradientUnits="userSpaceOnUse">
<stop stop-color="white"/>
<stop offset="0.08" stop-color="#E4E4E4"/>
<stop offset="0.34" stop-color="#949494"/>
<stop offset="0.57" stop-color="#545454"/>
<stop offset="0.77" stop-color="#262626"/>
<stop offset="0.91" stop-color="#0A0A0A"/>
<stop offset="1"/>
</linearGradient>
<linearGradient id="paint8_linear_196_3030" x1="255.198" y1="-60.0159" x2="255.198" y2="252.385" gradientUnits="userSpaceOnUse">
<stop stop-color="#303030"/>
<stop offset="0.16" stop-color="#262626"/>
<stop offset="0.69" stop-color="#0A0A0A"/>
<stop offset="1"/>
</linearGradient>
<radialGradient id="paint9_radial_196_3030" cx="0" cy="0" r="1" gradientUnits="userSpaceOnUse" gradientTransform="translate(425.41 185) scale(55)">
<stop stop-color="#212121"/>
<stop offset="0.19" stop-color="#171717"/>
<stop offset="0.66" stop-color="#060606"/>
<stop offset="1"/>
</radialGradient>
<radialGradient id="paint10_radial_196_3030" cx="0" cy="0" r="1" gradientUnits="userSpaceOnUse" gradientTransform="translate(247.623 249.802) scale(251.189 250.99)">
<stop offset="0.68" stop-color="white"/>
<stop offset="0.72" stop-color="#FAFAFA"/>
<stop offset="0.77" stop-color="#EBEBEB"/>
<stop offset="0.82" stop-color="#D4D4D4"/>
<stop offset="0.88" stop-color="#B3B3B3"/>
<stop offset="0.93" stop-color="#898989"/>
<stop offset="0.99" stop-color="#565656"/>
<stop offset="1" stop-color="#4D4D4D"/>
</radialGradient>
</defs>
</svg>
