<svg width="200" height="201" viewBox="0 0 200 201" fill="none" xmlns="http://www.w3.org/2000/svg">
<path style="mix-blend-mode:multiply" d="M200 100C200 155.309 155.151 200 100 200C44.8494 200 0 155.309 0 100C0 44.691 44.691 0 100 0C155.309 0 200 44.8494 200 100V100Z" fill="url(#paint0_radial_196_3145)"/>
<path style="mix-blend-mode:multiply" d="M200 100C200 155.309 155.151 200 100 200C44.8494 200 0 155.309 0 100C0 44.691 44.691 0 100 0C155.309 0 200 44.8494 200 100V100Z" fill="url(#paint1_radial_196_3145)"/>
<path style="mix-blend-mode:multiply" d="M200 100C200 117.908 195.246 134.865 187.005 149.445C169.731 179.715 137.242 200.158 100 200.158C44.691 200.158 0 155.309 0 100.158C0 93.9778 0.475434 88.1141 1.58478 82.2504C6.02218 57.3692 19.6513 35.8162 38.8273 20.9192C55.7845 7.76545 77.0206 0 100 0C140.412 0 175.277 23.9303 190.967 58.4786C196.83 71.1569 200 85.2615 200 100.158V100Z" fill="url(#paint2_radial_196_3145)"/>
<path style="mix-blend-mode:multiply" opacity="0.5" d="M200 100C200 117.908 195.246 134.865 187.005 149.445C169.731 179.715 137.242 200.158 100 200.158C44.691 200.158 0 155.309 0 100.158C0 93.9778 0.475434 88.1141 1.58478 82.2504C6.02218 57.3692 19.6513 35.8162 38.8273 20.9192C55.7845 7.76545 77.0206 0 100 0C140.412 0 175.277 23.9303 190.967 58.4786C196.83 71.1569 200 85.2615 200 100.158V100Z" fill="url(#paint3_radial_196_3145)"/>
<path style="mix-blend-mode:color-burn" d="M200 100C200 117.908 195.246 134.865 187.005 149.445C169.731 179.715 137.242 200.158 100 200.158C44.691 200.158 0 155.309 0 100.158C0 93.9778 0.475434 88.1141 1.58478 82.2504C6.02218 57.3692 19.6513 35.8162 38.8273 20.9192C55.7845 7.76545 77.0206 0 100 0C140.412 0 175.277 23.9303 190.967 58.4786C196.83 71.1569 200 85.2615 200 100.158V100Z" fill="url(#paint4_radial_196_3145)"/>
<path style="mix-blend-mode:screen" opacity="0.9" d="M199.997 100C199.997 117.908 195.242 134.865 187.001 149.445C170.044 162.599 148.808 170.364 125.829 170.364C70.5196 170.364 25.8286 125.515 25.8286 70.3645C25.8286 52.4564 30.583 35.4992 38.8239 20.9192C55.7811 7.76545 77.0172 0 99.9966 0C140.409 0 175.274 23.9303 190.963 58.4786C196.827 71.1569 199.997 85.2615 199.997 100.158V100Z" fill="url(#paint5_radial_196_3145)"/>
<path style="mix-blend-mode:screen" opacity="0.9" d="M190.969 58.4786C182.569 105.23 141.682 140.57 92.5536 140.57C52.1416 140.57 17.2763 116.64 1.58691 82.0919C9.98628 35.4992 50.8738 0 100.002 0C140.414 0 175.279 23.9303 190.969 58.4786Z" fill="url(#paint6_radial_196_3145)"/>
<path style="mix-blend-mode:multiply" opacity="0.5" d="M105.386 196.357C50.3941 196.357 5.86165 151.824 5.86165 96.832C5.86165 71.9508 15.0534 49.2884 30.1089 31.6973C12.5178 49.2884 1.74121 73.5356 1.74121 100.477C1.74121 154.201 45.3228 197.783 99.0471 197.783C107.129 197.783 114.895 196.832 122.343 194.93C116.797 195.881 111.25 196.357 105.545 196.357H105.386Z" fill="url(#paint7_linear_196_3145)"/>
<path style="mix-blend-mode:color-dodge" d="M99.999 5.22368C153.248 5.22368 196.671 47.8544 197.622 100.945C197.622 100.311 197.622 99.6769 197.622 99.043C197.78 45.0018 154.04 1.26172 99.999 1.26172C45.9579 1.26172 2.21777 45.0018 2.21777 98.8845C2.21777 99.5184 2.21777 100.152 2.21777 100.786C3.32712 47.6959 46.5918 5.0652 99.8406 5.0652L99.999 5.22368Z" fill="url(#paint8_linear_196_3145)"/>
<path style="mix-blend-mode:screen" d="M184.785 145.001C184.785 156.729 175.276 166.237 163.549 166.237C151.821 166.237 142.312 156.729 142.312 145.001C142.312 133.274 151.821 123.765 163.549 123.765C175.276 123.765 184.785 133.274 184.785 145.001Z" fill="url(#paint9_radial_196_3145)"/>
<path style="mix-blend-mode:color-dodge" d="M189.382 73.053C189.382 84.7804 179.874 94.2891 168.146 94.2891C156.419 94.2891 146.91 84.7804 146.91 73.053C146.91 61.3256 156.419 51.8169 168.146 51.8169C179.874 51.8169 189.382 61.3256 189.382 73.053Z" fill="url(#paint10_radial_196_3145)"/>
<path style="mix-blend-mode:color-burn" opacity="0.5" d="M200 100C200 117.908 195.246 134.865 187.005 149.445C169.731 179.715 137.243 200.158 100 200.158C44.6914 200.158 0.000488281 155.309 0.000488281 100.158C0.000488281 93.9778 0.475923 88.1141 1.58527 82.2504C6.02267 57.3692 19.6518 35.8162 38.8277 20.9192C55.785 7.76545 77.0211 0 100 0C140.413 0 175.278 23.9303 190.967 58.4786C196.831 71.1569 200 85.2615 200 100.158V100Z" fill="url(#paint11_radial_196_3145)"/>
<path d="M78.2694 125.252C75.2971 125.252 72.7241 124.719 70.5503 123.655C68.3766 122.546 66.5799 120.971 65.1603 118.93C63.7407 116.889 62.676 114.383 61.9662 111.411C61.3008 108.438 60.9681 105.045 60.9681 101.229C60.9681 97.4586 61.3008 94.087 61.9662 91.1147C62.676 88.0981 63.7407 85.5694 65.1603 83.5287C66.5799 81.4881 68.3766 79.9354 70.5503 78.8707C72.7241 77.7616 75.2971 77.2071 78.2694 77.2071C84.1696 77.2071 88.5172 79.3143 91.312 83.5287C94.1512 87.7432 95.5708 93.6434 95.5708 101.229C95.5708 108.815 94.1512 114.716 91.312 118.93C88.5172 123.144 84.1696 125.252 78.2694 125.252ZM78.2694 117.865C81.2417 117.865 83.3046 116.756 84.458 114.538C85.6558 112.276 86.2547 109.237 86.2547 105.422V97.0371C86.2547 93.2219 85.6558 90.2053 84.458 87.9872C83.3046 85.7247 81.2417 84.5934 78.2694 84.5934C75.2971 84.5934 73.2121 85.7247 72.0143 87.9872C70.8609 90.2053 70.2842 93.2219 70.2842 97.0371V105.422C70.2842 109.237 70.8609 112.276 72.0143 114.538C73.2121 116.756 75.2971 117.865 78.2694 117.865ZM104.262 124.453V117.333H117.038V84.3273H116.44L106.325 96.3051L100.868 91.7136L112.38 78.0056H125.623V117.333H136.27V124.453H104.262Z" fill="#1C3AA4"/>
<defs>
<radialGradient id="paint0_radial_196_3145" cx="0" cy="0" r="1" gradientUnits="userSpaceOnUse" gradientTransform="translate(83.9937 126.941) scale(138.51)">
<stop offset="0.53" stop-color="white"/>
<stop offset="0.65" stop-color="#FFFAFE"/>
<stop offset="0.79" stop-color="#FFEBFB"/>
<stop offset="0.93" stop-color="#FFD4F6"/>
<stop offset="1" stop-color="#FFC7F4"/>
</radialGradient>
<radialGradient id="paint1_radial_196_3145" cx="0" cy="0" r="1" gradientUnits="userSpaceOnUse" gradientTransform="translate(104.279 78.2884) scale(135.975)">
<stop offset="0.53" stop-color="white"/>
<stop offset="0.62" stop-color="#FAFDFF"/>
<stop offset="0.72" stop-color="#EBF8FF"/>
<stop offset="0.83" stop-color="#D4EFFF"/>
<stop offset="0.94" stop-color="#B3E3FF"/>
<stop offset="1" stop-color="#A1DDFF"/>
</radialGradient>
<radialGradient id="paint2_radial_196_3145" cx="0" cy="0" r="1" gradientUnits="userSpaceOnUse" gradientTransform="translate(131.22 87.4802) scale(135.975)">
<stop offset="0.53" stop-color="white"/>
<stop offset="0.64" stop-color="#FAFFFC"/>
<stop offset="0.77" stop-color="#EBFFF3"/>
<stop offset="0.91" stop-color="#D4FFE6"/>
<stop offset="1" stop-color="#C0FFDA"/>
</radialGradient>
<radialGradient id="paint3_radial_196_3145" cx="0" cy="0" r="1" gradientUnits="userSpaceOnUse" gradientTransform="translate(110.301 72.5832) scale(120.444)">
<stop offset="0.41" stop-color="white"/>
<stop offset="0.46" stop-color="#FAFCFF"/>
<stop offset="0.52" stop-color="#EBF6FF"/>
<stop offset="0.58" stop-color="#D4EBFF"/>
<stop offset="0.65" stop-color="#B3DBFF"/>
<stop offset="0.72" stop-color="#89C8FF"/>
<stop offset="0.78" stop-color="#56B0FF"/>
<stop offset="0.81" stop-color="#44A8FF"/>
<stop offset="0.83" stop-color="#4CACFF"/>
<stop offset="0.86" stop-color="#64B7FF"/>
<stop offset="0.9" stop-color="#8BC9FF"/>
<stop offset="0.95" stop-color="#C1E2FF"/>
<stop offset="1" stop-color="white"/>
</radialGradient>
<radialGradient id="paint4_radial_196_3145" cx="0" cy="0" r="1" gradientUnits="userSpaceOnUse" gradientTransform="translate(113.471 87.4802) scale(117.591)">
<stop offset="0.78" stop-color="white"/>
<stop offset="0.79" stop-color="#FAFAFA"/>
<stop offset="0.8" stop-color="#EBEBEB"/>
<stop offset="0.81" stop-color="#D4D4D4"/>
<stop offset="0.82" stop-color="#C4C4C4"/>
</radialGradient>
<radialGradient id="paint5_radial_196_3145" cx="0" cy="0" r="1" gradientUnits="userSpaceOnUse" gradientTransform="translate(137.873 186.371) scale(143.423)">
<stop stop-color="white"/>
<stop offset="0.01" stop-color="#F4F4F4"/>
<stop offset="0.09" stop-color="#C1C1C1"/>
<stop offset="0.17" stop-color="#939393"/>
<stop offset="0.26" stop-color="#6B6B6B"/>
<stop offset="0.34" stop-color="#4A4A4A"/>
<stop offset="0.44" stop-color="#2F2F2F"/>
<stop offset="0.54" stop-color="#1A1A1A"/>
<stop offset="0.66" stop-color="#0B0B0B"/>
<stop offset="0.79" stop-color="#020202"/>
<stop offset="1"/>
</radialGradient>
<radialGradient id="paint6_radial_196_3145" cx="0" cy="0" r="1" gradientUnits="userSpaceOnUse" gradientTransform="translate(49.4474 159.271) scale(190.967)">
<stop stop-color="white"/>
<stop offset="0.01" stop-color="#F4F4F4"/>
<stop offset="0.09" stop-color="#C1C1C1"/>
<stop offset="0.17" stop-color="#939393"/>
<stop offset="0.26" stop-color="#6B6B6B"/>
<stop offset="0.34" stop-color="#4A4A4A"/>
<stop offset="0.44" stop-color="#2F2F2F"/>
<stop offset="0.54" stop-color="#1A1A1A"/>
<stop offset="0.66" stop-color="#0B0B0B"/>
<stop offset="0.79" stop-color="#020202"/>
<stop offset="1"/>
</radialGradient>
<linearGradient id="paint7_linear_196_3145" x1="78.9203" y1="112.363" x2="-116.325" y2="184.788" gradientUnits="userSpaceOnUse">
<stop stop-color="white"/>
<stop offset="0.08" stop-color="#E4E4E4"/>
<stop offset="0.34" stop-color="#949494"/>
<stop offset="0.57" stop-color="#545454"/>
<stop offset="0.77" stop-color="#262626"/>
<stop offset="0.91" stop-color="#0A0A0A"/>
<stop offset="1"/>
</linearGradient>
<linearGradient id="paint8_linear_196_3145" x1="99.999" y1="-22.6685" x2="99.999" y2="101.896" gradientUnits="userSpaceOnUse">
<stop stop-color="#303030"/>
<stop offset="0.16" stop-color="#262626"/>
<stop offset="0.69" stop-color="#0A0A0A"/>
<stop offset="1"/>
</linearGradient>
<radialGradient id="paint9_radial_196_3145" cx="0" cy="0" r="1" gradientUnits="userSpaceOnUse" gradientTransform="translate(163.707 145.001) scale(21.2361)">
<stop stop-color="white"/>
<stop offset="0.12" stop-color="#CFCFCF"/>
<stop offset="0.3" stop-color="#919191"/>
<stop offset="0.48" stop-color="#5D5D5D"/>
<stop offset="0.64" stop-color="#343434"/>
<stop offset="0.78" stop-color="#171717"/>
<stop offset="0.91" stop-color="#060606"/>
<stop offset="1"/>
</radialGradient>
<radialGradient id="paint10_radial_196_3145" cx="0" cy="0" r="1" gradientUnits="userSpaceOnUse" gradientTransform="translate(168.305 73.053) scale(21.2361)">
<stop stop-color="#212121"/>
<stop offset="0.19" stop-color="#171717"/>
<stop offset="0.66" stop-color="#060606"/>
<stop offset="1"/>
</radialGradient>
<radialGradient id="paint11_radial_196_3145" cx="0" cy="0" r="1" gradientUnits="userSpaceOnUse" gradientTransform="translate(99.0496 100) scale(100.475)">
<stop offset="0.68" stop-color="white"/>
<stop offset="0.72" stop-color="#FAFAFA"/>
<stop offset="0.77" stop-color="#EBEBEB"/>
<stop offset="0.82" stop-color="#D4D4D4"/>
<stop offset="0.88" stop-color="#B3B3B3"/>
<stop offset="0.93" stop-color="#898989"/>
<stop offset="0.99" stop-color="#565656"/>
<stop offset="1" stop-color="#4D4D4D"/>
</radialGradient>
</defs>
</svg>
