<svg width="319" height="162" viewBox="0 0 319 162" fill="none" xmlns="http://www.w3.org/2000/svg">
<g clip-path="url(#clip0_205_3317)">
<path d="M104.278 50.4635C116.204 62.3895 122.189 78.0504 122.189 93.6688C122.189 109.287 116.204 124.948 104.278 136.874C92.3524 148.8 76.6915 154.784 61.0731 154.784C45.4547 154.784 29.7938 148.8 17.8678 136.874C5.98423 124.948 0 109.287 0 93.6688C0 78.0504 5.98423 62.3895 17.9103 50.4635L61.0731 7.25818L69.9434 16.1284C55.5557 30.516 41.1257 44.9461 26.7381 59.3337C17.2736 68.7981 12.5202 81.2335 12.5202 93.6263C12.5202 106.019 17.2736 118.455 26.7381 127.919C36.2025 137.383 48.6378 142.137 61.0307 142.137C73.4236 142.137 85.8589 137.383 95.3233 127.919C104.788 118.455 109.541 106.019 109.541 93.6263C109.541 81.2335 104.788 68.7981 95.3233 59.3337L87.1746 51.185L96.0448 42.3147L104.194 50.4635H104.278Z" fill="#77FFC3"/>
<path d="M92.8198 61.9224C101.563 70.6653 105.977 82.1669 105.977 93.6261C105.977 105.128 101.605 116.587 92.8623 125.33C84.1194 134.073 72.6177 138.487 61.1586 138.487C49.6994 138.487 38.1978 134.115 29.4549 125.33C20.712 116.587 16.3405 105.128 16.3405 93.6261C16.3405 82.1245 20.712 70.6653 29.4973 61.8799L72.5753 18.7595L81.4456 27.6298C70.8777 38.1977 48.8082 60.2672 38.2403 70.8351C31.9165 77.1588 28.7758 85.3925 28.7758 93.6685C28.7758 101.902 31.9165 110.178 38.2403 116.502C44.564 122.826 52.7976 125.966 61.0737 125.966C69.3498 125.966 77.5834 122.826 83.9072 116.502C90.2309 110.178 93.3716 101.945 93.3716 93.6685C93.3716 85.3925 90.1885 77.1588 83.9072 70.8351L75.7584 62.6863L84.6287 53.8161L92.7774 61.9648L92.8198 61.9224Z" fill="#77FFC3"/>
<path d="M80.9786 73.7636C86.4536 79.2386 89.1698 86.4112 89.2122 93.6262C89.2122 100.841 86.4536 108.056 80.9786 113.531C75.5037 119.006 68.3311 121.722 61.1161 121.765C53.9435 121.765 46.7285 119.006 41.2535 113.531C35.7786 108.056 33.0199 100.884 33.0199 93.6686C33.0199 86.4536 35.7786 79.2386 41.2535 73.7636L84.4164 30.6008L93.2866 39.471L61.0736 71.684L55.5987 77.1589L50.1238 82.6339C47.068 85.6897 45.5401 89.6367 45.5401 93.6262C45.5401 97.6157 47.068 101.563 50.1238 104.619C53.1795 107.674 57.1266 109.202 61.1161 109.202C65.1056 109.202 69.0526 107.674 72.1084 104.619C75.1642 101.563 76.692 97.6157 76.692 93.6262C76.692 89.6367 75.1642 85.6897 72.1084 82.6339L63.9596 74.4851L72.8299 65.6149L80.9786 73.7636V73.7636Z" fill="#77FFC3"/>
</g>
<path d="M157.471 51.4927V13.736H176.188C178.777 13.736 181.042 14.1855 182.984 15.0844C184.962 15.9834 186.508 17.242 187.623 18.8601C188.738 20.4423 189.295 22.2762 189.295 24.3618C189.295 25.908 188.899 27.3644 188.108 28.7308C187.353 30.0613 186.31 31.194 184.98 32.1289C186.67 33.0279 188 34.1965 188.971 35.6349C189.978 37.0732 190.482 38.6554 190.482 40.3814C190.482 42.5749 189.924 44.5167 188.809 46.2067C187.695 47.8608 186.131 49.1554 184.117 50.0903C182.103 51.0252 179.766 51.4927 177.105 51.4927H157.471ZM166.749 28.7847H175.595C176.961 28.7847 178.04 28.4431 178.831 27.7599C179.622 27.0767 180.018 26.1777 180.018 25.063C180.018 23.9123 179.622 23.0133 178.831 22.3661C178.04 21.6829 176.961 21.3413 175.595 21.3413H166.749V28.7847ZM166.749 43.8874H176.404C177.842 43.8874 178.975 43.5278 179.802 42.8086C180.665 42.0895 181.096 41.1186 181.096 39.896C181.096 38.6734 180.665 37.7025 179.802 36.9833C178.975 36.2641 177.842 35.9046 176.404 35.9046H166.749V43.8874ZM195.502 51.4927V13.736H225.276V21.7728H204.779V28.569H218.318V36.3361H204.779V43.4559H225.492V51.4927H195.502Z" fill="white"/>
<path d="M176.232 100.047C173.356 100.047 170.677 99.5613 168.195 98.5904C165.75 97.5836 163.611 96.1992 161.777 94.4372C159.943 92.6752 158.505 90.6256 157.462 88.2883C156.455 85.915 155.951 83.3619 155.951 80.629C155.951 77.8602 156.455 75.3071 157.462 72.9698C158.505 70.5966 159.943 68.5289 161.777 66.7669C163.647 65.005 165.804 63.6385 168.249 62.6676C170.731 61.6608 173.391 61.1574 176.232 61.1574C178.318 61.1574 180.367 61.463 182.381 62.0743C184.395 62.6856 186.247 63.5486 187.937 64.6634C189.663 65.7421 191.101 67.0366 192.252 68.5469L185.995 74.6958C184.665 73.0058 183.172 71.7472 181.518 70.9202C179.9 70.0931 178.138 69.6796 176.232 69.6796C174.722 69.6796 173.302 69.9673 171.971 70.5426C170.677 71.082 169.544 71.8371 168.573 72.808C167.602 73.7789 166.847 74.9296 166.308 76.2601C165.768 77.5905 165.499 79.0469 165.499 80.629C165.499 82.1753 165.768 83.6136 166.308 84.9441C166.883 86.2386 167.656 87.3893 168.627 88.3961C169.634 89.367 170.802 90.1222 172.133 90.6615C173.499 91.2009 174.974 91.4706 176.556 91.4706C178.39 91.4706 180.08 91.0751 181.626 90.284C183.208 89.4929 184.629 88.3242 185.887 86.778L191.982 92.7651C190.831 94.2394 189.411 95.5339 187.721 96.6487C186.031 97.7274 184.197 98.5725 182.219 99.1838C180.242 99.7591 178.246 100.047 176.232 100.047ZM192.404 99.5074L207.884 61.7507H218.51L233.774 99.5074H223.742L220.29 90.3918H205.565L202.059 99.5074H192.404ZM208.37 83.0023H217.539L213.008 70.9202L208.37 83.0023ZM236.522 99.5074V61.7507H255.831C258.42 61.7507 260.722 62.2721 262.735 63.3149C264.749 64.3218 266.313 65.7421 267.428 67.576C268.579 69.374 269.154 71.4416 269.154 73.7789C269.154 76.1522 268.507 78.2737 267.212 80.1436C265.918 82.0135 264.21 83.4338 262.088 84.4047L270.341 99.5074H259.985L252.865 85.7532H245.799V99.5074H236.522ZM245.799 78.2018H254.968C256.407 78.2018 257.557 77.8063 258.42 77.0152C259.319 76.2241 259.769 75.1993 259.769 73.9407C259.769 72.6822 259.319 71.6573 258.42 70.8662C257.557 70.0751 256.407 69.6796 254.968 69.6796H245.799V78.2018Z" fill="white"/>
<path d="M164.655 147.507L156.241 109.751H165.788L170.372 133.052L176.953 109.751H185.637L192.217 133.052L196.802 109.751H206.025L197.611 147.507H187.794L181.16 123.451L174.472 147.507H164.655ZM203.399 147.507L218.879 109.751H229.505L244.769 147.507H234.737L231.285 138.392H216.559L213.053 147.507H203.399ZM219.364 131.002H228.534L224.003 118.92L219.364 131.002ZM262.222 148.047C259.166 148.047 256.145 147.489 253.161 146.375C250.176 145.26 247.515 143.714 245.178 141.736L250.356 134.994C252.657 136.864 254.779 138.212 256.721 139.039C258.662 139.83 260.73 140.226 262.923 140.226C264.362 140.226 265.584 140.082 266.591 139.794C267.598 139.507 268.371 139.093 268.911 138.554C269.45 137.978 269.72 137.313 269.72 136.558C269.72 135.515 269.324 134.706 268.533 134.131C267.742 133.555 266.393 133.106 264.488 132.782L256.181 131.326C253.125 130.787 250.769 129.618 249.115 127.82C247.461 126.022 246.634 123.739 246.634 120.97C246.634 118.525 247.245 116.421 248.468 114.659C249.727 112.897 251.507 111.549 253.808 110.614C256.145 109.679 258.914 109.211 262.114 109.211C264.919 109.211 267.742 109.697 270.583 110.668C273.423 111.603 275.887 112.915 277.972 114.605L273.064 121.455C269.18 118.471 265.315 116.978 261.467 116.978C260.209 116.978 259.112 117.122 258.177 117.41C257.278 117.662 256.577 118.039 256.073 118.543C255.606 119.01 255.372 119.585 255.372 120.269C255.372 121.204 255.714 121.923 256.397 122.426C257.116 122.93 258.267 123.325 259.849 123.613L267.67 124.907C271.302 125.483 274.053 126.687 275.923 128.521C277.828 130.355 278.781 132.728 278.781 135.641C278.781 138.194 278.116 140.406 276.786 142.275C275.455 144.109 273.549 145.53 271.068 146.536C268.587 147.543 265.638 148.047 262.222 148.047ZM283.018 147.507V109.751H292.296V124.26H307.83V109.751H317.107V147.507H307.83V132.728H292.296V147.507H283.018Z" fill="white"/>
<defs>
<clipPath id="clip0_205_3317">
<rect width="122.189" height="147.484" fill="white" transform="translate(0 7.25818)"/>
</clipPath>
</defs>
</svg>
