<svg width="65" height="64" viewBox="0 0 65 64" fill="none" xmlns="http://www.w3.org/2000/svg">
<path d="M37.5515 5.91332L39.8257 7.16214L41.0694 9.44574C41.2553 9.78783 41.6121 10 42 10C42.3879 10 42.7447 9.78783 42.9306 9.44574L44.1743 7.16214L46.4485 5.91332C46.7887 5.72723 47 5.36838 47 4.97943C47 4.59049 46.7887 4.23163 46.4485 4.04555L44.1743 2.79673L42.9306 0.513131C42.5589 -0.171044 41.4414 -0.171044 41.0694 0.513131L39.8257 2.79673L37.5515 4.04555C37.2113 4.23163 37 4.59049 37 4.97943C37 5.36838 37.2113 5.72723 37.5515 5.91332V5.91332ZM41.1161 4.51462C41.2937 4.41692 41.4403 4.27023 41.5376 4.09134L42 3.24264L42.4624 4.09134C42.5597 4.27023 42.7063 4.41692 42.8839 4.51462L43.7294 4.97943L42.8839 5.44425C42.7063 5.54195 42.5597 5.68863 42.4624 5.86753L42 6.71623L41.5376 5.86753C41.4403 5.68863 41.2937 5.54195 41.1161 5.44425L40.2706 4.97943L41.1161 4.51462Z" fill="white"/>
<path d="M60.4334 12.2131L56.168 9.85025L53.8351 5.53168C53.4531 4.82277 52.3049 4.82277 51.9227 5.53168L49.5903 9.85025L45.3244 12.2131C44.9754 12.4059 44.7578 12.7777 44.7578 13.1807C44.7578 13.2028 44.7651 13.2235 44.7665 13.2453H13.8863C10.0891 13.2453 7 16.3733 7 20.2177V44.8903C7 48.735 10.0891 51.8627 13.8863 51.8627H16.9928C17.4611 53.7371 18.8047 55.2283 20.0923 56.0748C20.2231 56.1601 20.6957 56.5716 21.2926 58.2493C22.5168 61.6887 25.7176 64 29.2568 64H36.6677C39.1535 64 41.5115 62.8859 42.9751 61.0195C45.0719 58.3464 46.2272 55.0986 46.2272 51.8749V51.863H52.4166C56.2137 51.863 59.3029 48.735 59.3029 44.8906V20.218C59.3029 18.5348 58.7044 16.9454 57.6445 15.6934L60.4334 14.1484C60.7829 13.9556 61 13.5838 61 13.1807C61 12.7777 60.7826 12.4059 60.4334 12.2131V12.2131ZM50.9162 11.6311C51.0987 11.5298 51.2493 11.3779 51.3493 11.1925L52.8789 8.3596L54.409 11.1925C54.509 11.3779 54.6596 11.5298 54.8422 11.6311L57.6398 13.1805L54.8422 14.731C54.6596 14.8322 54.509 14.9842 54.409 15.1696L52.8789 18.0013L51.3493 15.1696C51.2493 14.9842 51.0987 14.8322 50.9162 14.731L48.1182 13.1805L50.9162 11.6311ZM44.0479 51.8749C44.0479 54.6021 43.0609 57.3627 41.2685 59.647C40.2145 60.9906 38.4948 61.7933 36.6677 61.7933H29.2568C26.6332 61.7933 24.2567 60.0682 23.343 57.5015C22.7424 55.8142 22.0676 54.742 21.2792 54.2237C20.1705 53.4952 18.9861 52.1333 18.9861 50.4965V39.1741C18.9861 38.2613 19.7191 37.519 20.6205 37.519C21.522 37.519 22.255 38.2613 22.255 39.1741V45.6563C22.255 46.2662 22.7429 46.7597 23.3447 46.7597C23.9464 46.7597 24.4343 46.2662 24.4343 45.6563V27.0801C24.4343 26.1436 25.1867 25.382 26.1118 25.382C27.0369 25.382 27.7893 26.1439 27.7893 27.0801V44.7921C27.7893 45.402 28.2772 45.8955 28.8789 45.8955C29.4807 45.8955 29.9686 45.402 29.9686 44.7921V22.5654C29.9686 21.6852 30.6763 20.9686 31.5456 20.9686C32.4148 20.9686 33.1226 21.6852 33.1226 22.5654V43.3117C33.1226 43.9215 33.6105 44.415 34.2122 44.415C34.814 44.415 35.3019 43.9215 35.3019 43.3117V25.9627C35.3019 25.0414 36.0414 24.2924 36.9508 24.2924C37.8601 24.2924 38.5997 25.0414 38.5997 25.9627V42.2083C38.5997 42.8182 39.0875 43.3117 39.6893 43.3117C40.2911 43.3117 40.7789 42.8182 40.7789 42.2083V30.3471C40.7789 29.4344 41.512 28.6921 42.4134 28.6921C43.3148 28.6921 44.0479 29.4344 44.0479 30.3471V51.8749ZM57.1236 44.8903C57.1236 47.5182 55.0119 49.656 52.4166 49.656H46.2272V30.3471C46.2272 28.2179 44.5162 26.4854 42.4134 26.4854C41.8264 26.4854 41.2764 26.6316 40.7789 26.8727V25.9627C40.7789 23.8249 39.0614 22.0857 36.9508 22.0857C36.3547 22.0857 35.7971 22.2363 35.2937 22.4835C35.2496 20.4252 33.5892 18.7616 31.5456 18.7616C29.4742 18.7616 27.7893 20.4685 27.7893 22.5651V23.5802C27.2799 23.3287 26.7155 23.175 26.1118 23.175C23.9851 23.175 22.255 24.9272 22.255 27.0798V35.6993C21.7576 35.4582 21.2076 35.312 20.6205 35.312C18.5178 35.312 16.8068 37.0446 16.8068 39.1738V49.6557H13.8863C11.291 49.6557 9.17929 47.518 9.17929 44.89V20.2174C9.17929 17.5895 11.291 15.4517 13.8863 15.4517H47.678L49.5903 16.511L51.9227 20.8295C52.1137 21.184 52.4804 21.4038 52.8789 21.4038C53.2774 21.4038 53.6435 21.184 53.8351 20.8295L55.8858 17.0337C56.6668 17.9045 57.1236 19.0203 57.1236 20.2174V44.8903Z" fill="white"/>
<path d="M5 2C4.44775 2 4 2.52387 4 3.1713V4.8287C4 5.47613 4.44775 6 5 6C5.55225 6 6 5.47613 6 4.8287V3.1713C6 2.52387 5.55225 2 5 2Z" fill="#1ACBAA"/>
<path d="M5 8C4.44775 8 4 8.52387 4 9.1713V10.8287C4 11.4761 4.44775 12 5 12C5.55225 12 6 11.4761 6 10.8287V9.1713C6 8.52387 5.55225 8 5 8Z" fill="#1ACBAA"/>
<path d="M2.8287 6H1.1713C0.52445 6 0 6.44725 0 7C0 7.55275 0.52445 8 1.1713 8H2.8287C3.47555 8 4 7.55275 4 7C4 6.44725 3.47555 6 2.8287 6V6Z" fill="#1ACBAA"/>
<path d="M8.8287 8C9.47555 8 10 7.55275 10 7C10 6.44725 9.47555 6 8.8287 6H7.1713C6.52445 6 6 6.44725 6 7C6 7.55275 6.52445 8 7.1713 8H8.8287Z" fill="#1ACBAA"/>
<path d="M57 56C54.7946 56 53 57.7946 53 60C53 62.2054 54.7946 64 57 64C59.2054 64 61 62.2054 61 60C61 57.7946 59.2054 56 57 56V56ZM57 61.7143C56.0546 61.7143 55.2857 60.9454 55.2857 60C55.2857 59.0546 56.0546 58.2857 57 58.2857C57.9454 58.2857 58.7143 59.0546 58.7143 60C58.7143 60.9454 57.9454 61.7143 57 61.7143Z" fill="#1ACBAA"/>
<path d="M16 9C16.5524 9 17 8.5522 17 8.00012C17 7.44803 16.5522 7 16 7C15.4478 7 15 7.4478 15 8.00012C15 8.55244 15.4476 9 16 9Z" fill="#1ACBAA"/>
<path d="M64 48C63.4476 48 63 48.4478 63 49.0001C63 49.5524 63.4478 50 64 50C64.5522 50 65 49.5522 65 49.0001C65 48.448 64.5524 48 64 48Z" fill="white"/>
<path d="M17.5 19C15.57 19 14 20.57 14 22.5C14 24.43 15.57 26 17.5 26C19.43 26 21 24.43 21 22.5C21 20.57 19.43 19 17.5 19ZM17.5 23.6667C16.8569 23.6667 16.3333 23.1437 16.3333 22.5C16.3333 21.8563 16.8569 21.3333 17.5 21.3333C18.1431 21.3333 18.6667 21.8563 18.6667 22.5C18.6667 23.1437 18.1431 23.6667 17.5 23.6667Z" fill="white"/>
<path d="M52.5 35C50.57 35 49 36.57 49 38.5C49 40.43 50.57 42 52.5 42C54.43 42 56 40.43 56 38.5C56 36.57 54.43 35 52.5 35ZM52.5 39.6667C51.8569 39.6667 51.3333 39.1437 51.3333 38.5C51.3333 37.8563 51.8569 37.3333 52.5 37.3333C53.1431 37.3333 53.6667 37.8563 53.6667 38.5C53.6667 39.1437 53.1431 39.6667 52.5 39.6667Z" fill="white"/>
<path d="M15.5 29C14.6714 29 14 29.4477 14 30C14 30.5523 14.6717 31 15.5 31C16.3283 31 17 30.5523 17 30C17 29.4477 16.3286 29 15.5 29Z" fill="white"/>
</svg>
