<?xml version="1.0" standalone="no"?>
<svg id="Group1000001969" width="268" height="91" viewBox="0 0 268 91" fill="none" xmlns="http://www.w3.org/2000/svg" style="max-width: 100%; max-height: 100%;">
<path d="M249.296 80.3819C255.97 78.4729 260.631 72.286 260.631 65.3367V41.5944C260.631 35.7205 256.241 30.7413 250.419 30.0132L235.732 28.1751C229.433 27.3865 223.361 25.5459 217.683 22.7034L198.838 13.2692C190.645 9.16795 181.473 7 172.314 7H136.935C126.393 7 116.12 9.99525 107.225 15.6624V15.6624C87.5481 28.1999 64.5597 33.9658 41.6633 38.4537C33.5548 40.0431 25.2782 42.3296 18.2041 45.6189C11.3982 48.7832 7.00028 55.7504 6.99979 63.3677V76.5668C6.99979 80.4067 8.11982 83.7249 10.238 86.1636" stroke="url(#paint0_linear_267_1956)" stroke-width="13.349" stroke-dasharray="0,0,280.0072265625,70.00180664062499"><animate attributeType="XML" attributeName="stroke-dasharray" repeatCount="indefinite" dur="2.5s" values="0,0,280.0072265625,70.00180664062499; 
          0,70.00180664062499,280.0072265625,0; 
          280.0072265625,70.00180664062499,0,0" keyTimes="0; 0.19999999999999996; 1"></animate></path>
<defs>
<linearGradient id="paint0_linear_267_1956" x1="133.815" y1="7" x2="133.815" y2="86.1636" gradientUnits="userSpaceOnUse">
<stop stop-color="#5575E7"></stop>
<stop offset="0.776042" stop-color="#2D4CB8"></stop>
</linearGradient>
</defs>
<setting>{"type":"loader","speed":20,"random":1,"shift":1,"size":1,"rupture":50}</setting></svg>