<svg width="68" height="91" viewBox="0 0 68 91" fill="none" xmlns="http://www.w3.org/2000/svg">
<path d="M3.135 73.1497V69.1447H1.035V80.2447H3.135V79.0597C3.645 79.7797 4.575 80.3797 5.88 80.3797C8.01 80.3797 9.675 78.6547 9.675 76.0597C9.675 73.4647 8.01 71.7997 5.88 71.7997C4.62 71.7997 3.645 72.3847 3.135 73.1497ZM7.53 76.0597C7.53 77.6347 6.465 78.5347 5.325 78.5347C4.2 78.5347 3.135 77.6647 3.135 76.0897C3.135 74.5147 4.2 73.6447 5.325 73.6447C6.465 73.6447 7.53 74.4847 7.53 76.0597ZM14.771 73.5247C15.851 73.5247 16.721 74.2147 16.751 75.3097H12.806C12.971 74.1697 13.766 73.5247 14.771 73.5247ZM18.716 77.6347H16.451C16.181 78.1897 15.686 78.6397 14.786 78.6397C13.736 78.6397 12.896 77.9497 12.791 76.7197H18.866C18.911 76.4497 18.926 76.1797 18.926 75.9097C18.926 73.4347 17.231 71.7997 14.831 71.7997C12.371 71.7997 10.661 73.4647 10.661 76.0897C10.661 78.6997 12.416 80.3797 14.831 80.3797C16.886 80.3797 18.266 79.1647 18.716 77.6347ZM19.9188 76.0897C19.9188 78.6997 21.6288 80.3797 24.0288 80.3797C26.0988 80.3797 27.4938 79.2097 27.9438 77.4397H25.6788C25.4238 78.1897 24.8838 78.5797 24.0138 78.5797C22.8438 78.5797 22.0638 77.7097 22.0638 76.0897C22.0638 74.4697 22.8438 73.5847 24.0138 73.5847C24.8838 73.5847 25.4388 74.0347 25.6788 74.7397H27.9438C27.4938 72.8797 26.0988 71.7997 24.0288 71.7997C21.6288 71.7997 19.9188 73.4797 19.9188 76.0897ZM37.5073 76.0897C37.5073 73.4647 35.6323 71.7997 33.2323 71.7997C30.8323 71.7997 28.9573 73.4647 28.9573 76.0897C28.9573 78.6997 30.7723 80.3797 33.1723 80.3797C35.5873 80.3797 37.5073 78.6997 37.5073 76.0897ZM31.0873 76.0897C31.0873 74.4247 32.0923 73.6297 33.2023 73.6297C34.3123 73.6297 35.3473 74.4247 35.3473 76.0897C35.3473 77.7397 34.2823 78.5497 33.1723 78.5497C32.0473 78.5497 31.0873 77.7397 31.0873 76.0897ZM38.5077 76.0597C38.5077 78.6547 40.1877 80.3797 42.2877 80.3797C43.6077 80.3797 44.5527 79.7497 45.0477 79.0297V80.2447H47.1627V71.9347H45.0477V73.1197C44.5527 72.4297 43.6377 71.7997 42.3027 71.7997C40.1877 71.7997 38.5077 73.4647 38.5077 76.0597ZM45.0477 76.0897C45.0477 77.6647 43.9977 78.5347 42.8427 78.5347C41.7177 78.5347 40.6527 77.6347 40.6527 76.0597C40.6527 74.4847 41.7177 73.6447 42.8427 73.6447C43.9977 73.6447 45.0477 74.5147 45.0477 76.0897ZM48.6737 76.0897C48.6737 78.6997 50.3837 80.3797 52.7837 80.3797C54.8537 80.3797 56.2487 79.2097 56.6987 77.4397H54.4337C54.1787 78.1897 53.6387 78.5797 52.7687 78.5797C51.5987 78.5797 50.8187 77.7097 50.8187 76.0897C50.8187 74.4697 51.5987 73.5847 52.7687 73.5847C53.6387 73.5847 54.1937 74.0347 54.4337 74.7397H56.6987C56.2487 72.8797 54.8537 71.7997 52.7837 71.7997C50.3837 71.7997 48.6737 73.4797 48.6737 76.0897ZM58.2371 80.2447H60.3371V75.6547C60.3371 74.3197 61.0721 73.5997 62.2121 73.5997C63.3221 73.5997 64.0571 74.3197 64.0571 75.6547V80.2447H66.1571V75.3697C66.1571 73.0747 64.7921 71.8147 62.9171 71.8147C61.8071 71.8147 60.8771 72.2647 60.3371 72.9697V69.1447H58.2371V80.2447Z" fill="#7AE7C7"/>
<path fill-rule="evenodd" clip-rule="evenodd" d="M6.02832 30.0849L6.03116 29.7899L6.03702 29.4947L6.04591 29.1995L6.05782 28.9043L6.07278 28.6092L6.09076 28.314L6.11178 28.019L6.13582 27.7239L6.16291 27.429L6.19303 27.1342L6.22618 26.8397L6.26236 26.5453L6.30158 26.2511L6.34383 25.9573L6.3891 25.6637L6.4374 25.3706L6.48874 25.0776L6.54308 24.7853L6.60045 24.4932L6.66084 24.2015L6.72425 23.9103L6.79064 23.6197L6.86007 23.3297L6.93247 23.0401L7.00789 22.7513L7.08629 22.4629L7.16769 22.1752L7.25206 21.8883L7.3394 21.6021L7.42971 21.3166L7.52299 21.0319L7.61923 20.7479L7.71841 20.4648L7.82052 20.1826L7.92558 19.9012L8.03355 19.6208L8.14445 19.3414L8.25825 19.0628L8.37495 18.7855L8.49454 18.509L8.61701 18.2335L8.74236 17.9593L8.87055 17.6862L9.00161 17.4141L9.13551 17.1432L9.27223 16.8737L9.41177 16.6053L9.55411 16.3381L9.69924 16.0723L9.84715 15.8078L9.99785 15.5445L10.1513 15.2828L10.3075 15.0224L10.4664 14.7634L10.628 14.5059L10.7923 14.2499L10.9594 13.9955L11.1291 13.7424L11.3014 13.4911L11.4764 13.2413L11.654 12.9931L11.8343 12.7466L12.0171 12.5017L12.2025 12.2586L12.3905 12.0171L12.581 11.7774L12.7741 11.5395L12.9696 11.3034L13.1677 11.0691L13.3682 10.8366L13.5712 10.6061L13.7767 10.3774L13.9845 10.1507L14.1948 9.92591L14.4074 9.70311L14.6225 9.48231L14.8398 9.26353L15.0595 9.04679L15.2815 8.83213L15.5058 8.61955L15.7323 8.40912L15.9611 8.2008L16.1921 7.99466L16.4253 7.79071L16.6607 7.58894L16.8982 7.38943L17.1379 7.19217L17.3797 6.99717L17.6236 6.80448L17.8695 6.61409L18.1175 6.42606L18.3676 6.24037L18.6196 6.05708L18.8736 5.87619L19.1295 5.69772L19.3874 5.52169L19.6471 5.3481L19.9087 5.17702L20.1722 5.00842L20.4377 4.84235L20.7047 4.67882L20.9737 4.51784L21.2443 4.35944L21.5166 4.20364L21.7908 4.05044L22.0665 3.89988L22.3439 3.75195L22.6228 3.60671L22.9034 3.46412L23.1857 3.32425L23.4694 3.18708L23.7547 3.05264L24.0413 2.92095L24.3296 2.79203L24.6191 2.66588L24.9102 2.54252L25.2026 2.42198L25.4963 2.30425L25.7913 2.18934L26.0877 2.07731L26.3852 1.96811L26.6841 1.86182L26.9841 1.7584L27.2853 1.65788L27.5875 1.56028L27.891 1.46561L28.1956 1.37387L28.5012 1.2851L28.8077 1.19929L29.1154 1.11643L29.424 1.03656L29.7334 0.9597L30.0438 0.885854L30.3551 0.814997L30.6672 0.747187L30.9801 0.682395L31.2938 0.620651L31.6083 0.561969L31.9235 0.506335L32.2394 0.453777L32.5559 0.404296L32.8731 0.357892L33.1908 0.314595L33.509 0.274389L33.8279 0.23729L34.1472 0.203282L34.467 0.172424L34.7872 0.144673L35.1079 0.120044L35.4288 0.0985641L37.1548 0L37.2533 8.31599L37.3097 8.31534L37.548 8.315L37.7864 8.317L38.0247 8.32135L38.2634 8.32804L38.5019 8.33708L38.7405 8.34845L38.9792 8.36218L39.2178 8.37828L39.4563 8.39669L39.6949 8.41748L39.9333 8.44062L40.1716 8.46612L40.4097 8.49396L40.6478 8.52416L40.8855 8.55671L41.1231 8.5916L41.3604 8.62886L41.5976 8.66846L41.8344 8.71041L42.0709 8.7547L42.3071 8.80134L42.5428 8.85034L42.7783 8.90166L43.0133 8.95532L43.2478 9.01131L43.482 9.06964L43.7157 9.13031L43.9487 9.19329L44.1813 9.25859L44.4135 9.32621L44.6449 9.39614L44.8758 9.46838L45.106 9.54294L45.3357 9.61978L45.5646 9.69892L45.7928 9.78034L46.0204 9.86404L46.2471 9.95003L46.4731 10.0383L46.6984 10.1288L46.9227 10.2216L47.1462 10.3166L47.3689 10.4139L47.5908 10.5134L47.8116 10.6151L48.0316 10.719L48.2507 10.8252L48.4687 10.9336L48.6857 11.0441L48.9017 11.1569L49.1166 11.2718L49.3305 11.3889L49.5432 11.5081L49.7549 11.6295L49.9655 11.7531L50.1748 11.8788L50.383 12.0065L50.59 12.1364L50.7957 12.2685L51.0001 12.4024L51.2033 12.5386L51.4053 12.6768L51.6058 12.817L51.8051 12.9594L52.003 13.1036L52.1994 13.25L52.3946 13.3984L52.5882 13.5487L52.7805 13.7011L52.9711 13.8552L53.1604 14.0114L53.3482 14.1697L53.5344 14.3297L53.7191 14.4916L53.9023 14.6555L54.0837 14.8213L54.2636 14.9889L54.4419 15.1584L54.6185 15.3296L54.7934 15.5027L54.9667 15.6776L55.1382 15.8544L55.3081 16.0329L55.4761 16.2131L55.6424 16.395L55.8069 16.5788L55.9696 16.7641L56.1305 16.9512L56.2895 17.14L56.4467 17.3303L56.602 17.5224L56.7554 17.716L56.9069 17.9113L57.0565 18.1081L57.2041 18.3065L57.3497 18.5065L57.4934 18.708L57.6351 18.911L57.7748 19.1154L57.9124 19.3213L58.048 19.5288L58.1815 19.7377L58.3129 19.9479L58.4423 20.1595L58.5695 20.3725L58.6946 20.5868L58.8175 20.8025L58.9384 21.0195L59.0571 21.2378L59.1735 21.4574L59.2878 21.6782L59.3998 21.9002L59.5096 22.1234L59.6172 22.3479L59.7226 22.5734L59.8257 22.8001L59.9265 23.028L60.025 23.257L60.1212 23.4871L60.2151 23.7181L60.3067 23.9502L60.3959 24.1833L60.4827 24.4175L60.5672 24.6525L60.6494 24.8886L60.7292 25.1255L60.8066 25.3634L60.8816 25.602L60.9541 25.8416L61.0242 26.082L61.0919 26.3231L61.1572 26.5652L61.22 26.8079L61.2802 27.0513L61.3382 27.2955L61.3936 27.5403L61.4464 27.7859L61.4969 28.0319L61.5448 28.2788L61.5901 28.5261L61.6331 28.7741L61.6735 29.0224L61.7113 29.2714L61.7466 29.5209L61.7793 29.7707L61.8095 30.0212L61.8372 30.2719L61.8622 30.523L61.8847 30.7745L61.9047 31.0264L61.9221 31.2786L61.9368 31.531L61.9491 31.7837L61.9588 32.0368L61.9657 32.2898L61.9703 32.5432L61.972 32.7967L61.9713 33.0504L61.9679 33.3042L61.9619 33.5581L61.9533 33.8119L61.9421 34.0659L61.9284 34.3198L61.912 34.5738L61.893 34.8278L61.8713 35.0816L61.847 35.3354L61.8202 35.589L61.7906 35.8424L61.7586 36.0958L61.724 36.3488L61.6866 36.6018L61.6467 36.8544L61.6041 37.1067L61.5589 37.3588L61.5112 37.6105L61.4609 37.862L61.4079 38.113L61.3522 38.3635L61.2941 38.6138L61.2334 38.8635L61.17 39.1127L61.104 39.3614L61.0356 39.6096L60.9644 39.8572L60.8908 40.1043L60.8146 40.3509L60.7357 40.5966L60.6544 40.8418L60.5705 41.0862L60.4839 41.33L60.395 41.5731L60.3034 41.8153L60.2094 42.0567L60.1128 42.2974L60.0137 42.5372L59.9121 42.7762L59.808 43.0144L59.7014 43.2514L59.5924 43.4877L59.4808 43.7229L59.3668 43.9572L59.2502 44.1905L59.1314 44.4227L59.0099 44.654L58.8863 44.8839L58.76 45.113L58.6314 45.3408L58.5004 45.5675L58.367 45.793L58.2313 46.0172L58.0932 46.2404L57.9526 46.4621L57.8098 46.6827L57.6648 46.9019L57.5173 47.1198L57.3676 47.3363L57.2155 47.5516L57.0612 47.7653L56.9046 47.9778L56.7457 48.1887L56.5846 48.3982L56.4214 48.6061L56.2559 48.8126L56.0882 49.0176L55.9183 49.2209L55.7462 49.4227L55.5721 49.6229L55.3957 49.8215L55.2173 50.0185L55.0368 50.2139L54.8542 50.4075L54.6695 50.5995L54.4828 50.7895L54.2939 50.978L54.1031 51.1646L53.9104 51.3495L53.7156 51.5327L53.5189 51.7139L53.3202 51.8934L53.1195 52.0708L52.9171 52.2464L52.7126 52.4203L52.5063 52.5921L52.2982 52.7618L52.0882 52.9298L51.8764 53.0957L51.6628 53.2596L51.4474 53.4214L51.2302 53.5813L51.0115 53.7391L50.7908 53.8947L50.5685 54.0484L50.3446 54.1999L50.119 54.3492L49.8917 54.4964L49.6629 54.6415L49.4325 54.7843L49.2005 54.9251L48.9669 55.0635L48.7318 55.1998L48.4953 55.3338L48.2571 55.4654L48.0177 55.5949L47.7767 55.722L47.5344 55.8468L47.2906 55.9695L47.0455 56.0896L46.7991 56.2074L46.5513 56.3229L46.3022 56.436L46.0519 56.5467L45.8003 56.6549L45.5475 56.7608L45.2936 56.8643L45.0385 56.9653L44.7821 57.0638L44.5247 57.1599L44.2661 57.2534L44.0064 57.3445L43.7459 57.433L43.4842 57.5191L43.2215 57.6026L42.9578 57.6836L42.6932 57.762L42.4278 57.8378L42.1613 57.9112L41.8941 57.982L41.6259 58.05L41.3571 58.1155L41.0874 58.1785L40.8168 58.2387L40.5456 58.2964L40.2737 58.3515L40.001 58.4039L39.7278 58.4537L39.4539 58.5006L39.1794 58.5451L38.9044 58.5869L38.6286 58.6259L38.3526 58.6623L38.076 58.696L37.7987 58.7269L37.5212 58.7552L37.2433 58.7808L36.965 58.8036L36.6864 58.8238L36.4074 58.8411L36.1279 58.8559L35.8484 58.8678L35.5687 58.8769L35.2885 58.8834L35.0083 58.8871L34.7279 58.8881L34.4474 58.8863L34.1668 58.8818L33.8861 58.8746L33.6053 58.8644L33.3246 58.8516L33.0438 58.8361L32.7632 58.8177L32.4825 58.7967L32.202 58.7728L31.9216 58.7462L31.6413 58.7169L31.3612 58.6848L31.0814 58.6499L30.8017 58.6122L30.5224 58.5717L30.2433 58.5286L29.9646 58.4827L29.6862 58.4341L29.4081 58.3826L29.1306 58.3284L28.8533 58.2715L28.5767 58.2118L28.3004 58.1494L28.0248 58.0843L27.7496 58.0164L27.4751 57.9458L27.2011 57.8724L26.9279 57.7965L26.6552 57.7177L26.3831 57.6363L26.112 57.5521L25.8415 57.4652L25.5718 57.3757L25.3028 57.2834L25.0348 57.1884L24.7675 57.091L24.5012 56.9907L24.2358 56.8878L23.9714 56.7823L23.7079 56.6741L23.4454 56.5632L23.1839 56.4498L22.9235 56.3338L22.6641 56.2152L22.4058 56.0939L22.1488 55.9701L21.8929 55.8436L21.6381 55.7146L21.3846 55.5832L21.1324 55.449L20.8812 55.3126L20.6315 55.1734L20.3832 55.0318L20.1361 54.8877L19.8904 54.7411L19.6462 54.5921L19.4033 54.4404L19.1618 54.2866L18.922 54.1301L18.6835 53.9714L18.4466 53.81L18.2114 53.6465L17.9776 53.4806L17.7454 53.3121L17.5149 53.1415L17.2861 52.9684L17.0589 52.793L16.8334 52.6155L16.6096 52.4354L16.3877 52.2533L16.1674 52.0689L15.949 51.8822L15.7324 51.6933L15.5176 51.5021L15.3048 51.3088L15.0938 51.1134L14.8847 50.9157L14.6776 50.7161L14.4724 50.5141L14.2692 50.3102L14.068 50.1042L13.8689 49.896L13.6718 49.686L13.4768 49.4738L13.2839 49.2596L13.093 49.0435L12.9044 48.8255L12.7178 48.6054L12.5335 48.3835L12.3514 48.1596L12.1715 47.9339L11.9938 47.7063L11.8184 47.4769L11.6453 47.2456L11.4744 47.0126L11.3059 46.7778L11.1397 46.5412L10.9759 46.303L10.8145 46.063L10.6554 45.8213L10.4988 45.5781L10.3446 45.3331L10.1928 45.0865L10.0436 44.8384L9.89675 44.5886L9.75246 44.3374L9.61068 44.0847L9.47142 43.8304L9.33473 43.5745L9.20058 43.3174L9.06904 43.0588L8.94007 42.7988L8.81374 42.5375L8.69003 42.2747L8.56896 42.0108L8.45055 41.7453L8.33481 41.4789L8.22176 41.2109L8.11141 40.942L8.00377 40.6717L7.89886 40.4002L7.7967 40.1277L7.69728 39.854L7.60063 39.5793L7.50675 39.3035L7.41567 39.0266L7.32739 38.7488L7.24192 38.47L7.15928 38.1903L7.07947 37.9095L7.00251 37.6279L6.9284 37.3455L6.85716 37.0623L6.78879 36.7781L6.72332 36.4933L6.66073 36.2075L6.60105 35.9212L6.54428 35.6341L6.49043 35.3464L6.43951 35.058L6.39153 34.769L6.34648 34.4794L6.30439 34.1893L6.26526 33.8985L6.2291 33.6073L6.1959 33.3157L6.16568 33.0236L6.13844 32.7312L6.11419 32.4382L6.09294 32.145L6.07468 31.8514L6.05943 31.5575L6.04718 31.2634L6.03793 30.9691L6.03171 30.6745L6.02851 30.3798L6.02832 30.0849ZM34.5568 8.49018L34.4897 2.8219L34.4259 2.82806L34.1333 2.85921L33.8413 2.89319L33.5495 2.93005L33.2589 2.96965L32.9686 3.01214L32.6786 3.05747L32.3894 3.10558L32.1006 3.15656L31.8132 3.2102L31.5254 3.26683L31.2396 3.32602L30.9534 3.38819L30.6687 3.45299L30.3843 3.52068L30.1012 3.59097L29.8188 3.66408L29.5372 3.73991L29.2564 3.81848L28.977 3.89969L28.698 3.98369L28.4205 4.0703L28.1437 4.15966L27.8684 4.2515L27.5936 4.34624L27.3202 4.44351L27.0481 4.54335L26.7768 4.64592L26.507 4.75099L26.2386 4.85859L25.9709 4.96896L25.7046 5.08184L25.4396 5.19729L25.1761 5.31517L24.9139 5.43561L24.6532 5.55848L24.3933 5.68406L24.1354 5.81193L23.8788 5.9423L23.6236 6.07512L23.37 6.2104L23.1181 6.34799L22.8672 6.48813L22.618 6.6307L22.3709 6.7753L22.1246 6.92272L21.8807 7.07211L21.6384 7.22382L21.3972 7.37802L21.158 7.53447L20.9205 7.6932L20.6853 7.8538L20.4509 8.01725L20.2189 8.18244L19.9886 8.34992L19.76 8.5197L19.5334 8.69149L19.3089 8.86534L19.0857 9.04164L18.865 9.21961L18.646 9.39993L18.429 9.5822L18.2139 9.76659L18.001 9.95275L17.7897 10.1413L17.5808 10.3315L17.3737 10.5238L17.1691 10.7179L16.9662 10.914L16.7657 11.1118L16.5671 11.3117L16.3705 11.5136L16.1765 11.7169L15.9847 11.9219L15.7945 12.1293L15.607 12.3381L15.4218 12.5483L15.2385 12.7608L15.0579 12.9745L14.8792 13.1902L14.703 13.4074L14.5291 13.6263L14.3574 13.8467L14.1883 14.0685L14.0214 14.292L13.8568 14.5172L13.6948 14.7435L13.535 14.9717L13.3777 15.2011L13.2229 15.4319L13.0704 15.6642L12.9205 15.8979L12.773 16.1327L12.628 16.369L12.4856 16.6064L12.3455 16.8454L12.208 17.0856L12.0731 17.3268L11.9407 17.5693L11.8108 17.8131L11.6836 18.0579L11.5588 18.3039L11.4367 18.5508L11.3172 18.7989L11.2003 19.0479L11.086 19.2982L10.9743 19.5492L10.8652 19.8014L10.7588 20.0545L10.6551 20.3083L10.5539 20.5631L10.4555 20.8189L10.3597 21.0753L10.2666 21.3327L10.1762 21.5906L10.0884 21.8495L10.0034 22.1091L9.9211 22.3694L9.84152 22.6301L9.76458 22.8919L9.69042 23.1539L9.61898 23.4167L9.55024 23.6799L9.48424 23.9439L9.421 24.2082L9.36049 24.473L9.30272 24.7383L9.2477 25.004L9.19544 25.2701L9.14592 25.5365L9.09916 25.8033L9.05515 26.0705L9.01392 26.3379L8.97543 26.6055L8.93972 26.8734L8.90676 27.1415L8.87656 27.4098L8.84913 27.6783L8.82448 27.9468L8.80257 28.2154L8.78343 28.4842L8.76706 28.753L8.75344 29.0217L8.74259 29.2905L8.73449 29.5592L8.72916 29.8279L8.72657 30.0964L8.72675 30.3649L8.72966 30.6332L8.73533 30.9014L8.74374 31.1693L8.75488 31.437L8.76878 31.7045L8.78539 31.9715L8.80473 32.2384L8.8268 32.5049L8.85159 32.7711L8.87908 33.037L8.90929 33.3023L8.94219 33.5672L8.97779 33.8317L9.01608 34.0956L9.05707 34.3591L9.1007 34.6219L9.14703 34.8843L9.19601 35.146L9.24764 35.4071L9.30192 35.6676L9.35884 35.9273L9.41839 36.1864L9.48056 36.4448L9.54534 36.7025L9.61274 36.9594L9.6827 37.2152L9.75527 37.4705L9.83042 37.7249L9.90812 37.9784L9.98838 38.231L10.0712 38.4826L10.1565 38.7334L10.2444 38.983L10.3347 39.2318L10.4276 39.4795L10.5229 39.7262L10.6207 39.9718L10.721 40.2163L10.8238 40.4597L10.9289 40.7018L11.0365 40.943L11.1465 41.183L11.2589 41.4216L11.3737 41.6591L11.4909 41.8952L11.6104 42.1302L11.7322 42.3638L11.8564 42.5961L11.9829 42.8271L12.1116 43.0566L12.2427 43.2848L12.376 43.5117L12.5116 43.7369L12.6494 43.9609L12.7894 44.1833L12.9316 44.4041L13.076 44.6236L13.2226 44.8415L13.3713 45.0578L13.5222 45.2726L13.6752 45.4858L13.8302 45.6973L13.9874 45.9073L14.1466 46.1154L14.3079 46.322L14.4712 46.5268L14.6365 46.7299L14.8038 46.9315L14.973 47.1311L15.1442 47.329L15.3173 47.5251L15.4924 47.7194L15.6693 47.9118L15.8481 48.1025L16.0288 48.2912L16.2113 48.4782L16.3956 48.6632L16.5817 48.8462L16.7696 49.0274L16.9592 49.2066L17.1505 49.384L17.3436 49.5593L17.5384 49.7326L17.7347 49.9038L17.9328 50.0731L18.1326 50.2404L18.3337 50.4056L18.5367 50.5688L18.7411 50.7297L18.947 50.8887L19.1545 51.0457L19.3635 51.2004L19.5739 51.3529L19.7858 51.5034L19.9989 51.6516L20.2137 51.7978L20.4297 51.9417L20.6473 52.0834L20.8659 52.223L21.086 52.3602L21.3074 52.4954L21.5299 52.6282L21.7538 52.7587L21.9788 52.887L22.205 53.013L22.4323 53.1367L22.661 53.2581L22.8905 53.3772L23.1212 53.4941L23.3531 53.6085L23.586 53.7207L23.8197 53.8305L24.0546 53.938L24.2903 54.0429L24.5271 54.1457L24.7647 54.246L25.0034 54.344L25.2428 54.4395L25.483 54.5326L25.7242 54.6234L25.9659 54.7118L26.2085 54.7976L26.452 54.8811L26.6961 54.9622L26.941 55.0408L27.1862 55.1169L27.4325 55.1907L27.6791 55.2619L27.9265 55.3307L28.1744 55.3971L28.4227 55.461L28.6717 55.5224L28.9209 55.5812L29.1709 55.6378L29.4212 55.6917L29.6717 55.7432L29.9229 55.7922L30.1744 55.8387L30.4261 55.8828L30.6781 55.9243L30.9305 55.9633L31.1831 55.9998L31.436 56.0338L31.689 56.0654L31.9422 56.0945L32.1955 56.121L32.4491 56.1451L32.7027 56.1666L32.9564 56.1857L33.21 56.2022L33.4638 56.2164L33.7175 56.2278L33.9712 56.237L34.2248 56.2436L34.4785 56.2476L34.7319 56.2492L34.9852 56.2483L35.2384 56.2449L35.4914 56.2392L35.7441 56.2308L35.9968 56.22L36.2491 56.2068L36.501 56.191L36.7527 56.1729L37.0042 56.1523L37.2552 56.1292L37.5058 56.1036L37.7561 56.0756L38.0057 56.0453L38.2551 56.0125L38.5039 55.9771L38.7523 55.9394L39.0001 55.8994L39.2474 55.8568L39.4941 55.8119L39.7401 55.7647L39.9856 55.7151L40.2304 55.663L40.4745 55.6086L40.7178 55.5518L40.9606 55.4926L41.2025 55.4312L41.4436 55.3673L41.6839 55.3012L41.9236 55.2328L42.1622 55.162L42.4001 55.0889L42.637 55.0137L42.8731 54.936L43.1082 54.8562L43.3422 54.774L43.5755 54.6895L43.8077 54.603L44.0388 54.514L44.2689 54.4231L44.4979 54.3299L44.7258 54.2343L44.9526 54.1367L45.1783 54.0369L45.4027 53.935L45.6262 53.8309L45.8483 53.7246L46.0691 53.6164L46.2889 53.5059L46.5073 53.3934L46.7244 53.2789L46.9404 53.1621L47.1547 53.0435L47.3679 52.9227L47.5796 52.8001L47.7903 52.6753L47.9991 52.5487L48.2069 52.4198L48.4129 52.2893L48.6175 52.1566L48.8208 52.022L49.0227 51.8854L49.2226 51.7473L49.4212 51.607L49.6183 51.465L49.8138 51.3211L50.0079 51.1752L50.2 51.0279L50.3909 50.8783L50.5798 50.7272L50.7671 50.5744L50.953 50.4197L51.1371 50.2632L51.3192 50.1052L51.4998 49.9454L51.6785 49.784L51.8556 49.6209L52.031 49.4561L52.2043 49.2899L52.3761 49.1218L52.546 48.9522L52.7139 48.7811L52.8801 48.6085L53.0443 48.4344L53.2065 48.259L53.3673 48.0814L53.5257 47.903L53.6825 47.7228L53.8371 47.5414L53.9899 47.3584L54.1406 47.1742L54.2893 46.9886L54.4363 46.8015L54.581 46.6133L54.7239 46.4236L54.8645 46.2328L55.0033 46.0405L55.1403 45.8469L55.2745 45.6526L55.4072 45.4566L55.5375 45.2598L55.6658 45.0615L55.7923 44.862L55.9163 44.6618L56.0382 44.4604L56.1581 44.2574L56.2756 44.054L56.3912 43.8493L56.5047 43.6434L56.6157 43.437L56.7248 43.2292L56.8317 43.0204L56.9361 42.8115L57.0385 42.6008L57.1388 42.3894L57.2367 42.1774L57.3324 41.9646L57.4259 41.7508L57.517 41.5364L57.6061 41.3209L57.6928 41.1048L57.7771 40.8885L57.8593 40.6706L57.9391 40.4527L58.0168 40.2338L58.0922 40.0145L58.1652 39.7944L58.2357 39.5743L58.3043 39.3526L58.3703 39.1311L58.434 38.909L58.4956 38.6865L58.5547 38.4632L58.6114 38.2399L58.666 38.0158L58.7182 37.7913L58.7681 37.5666L58.8156 37.3414L58.8607 37.1163L58.9035 36.8902L58.944 36.6646L58.9821 36.4382L59.0179 36.2116L59.0513 35.9851L59.0825 35.758L59.1112 35.5313L59.1377 35.3036L59.1617 35.0767L59.1835 34.8491L59.2028 34.6219L59.2199 34.394L59.2346 34.167L59.247 33.9393L59.257 33.7114L59.2646 33.4841L59.2701 33.2572L59.273 33.0295L59.2738 32.8021L59.2721 32.5751L59.2682 32.3483L59.2618 32.1214L59.2532 31.8954L59.2423 31.6686L59.229 31.4427L59.2134 31.2169L59.1956 30.9918L59.1754 30.7662L59.153 30.5417L59.1283 30.3171L59.1012 30.0931L59.0719 29.8694L59.0404 29.6463L59.0064 29.4231L58.9703 29.201L58.9321 28.9796L58.8914 28.758L58.8484 28.5372L58.8034 28.3172L58.756 28.0971L58.7067 27.8787L58.6547 27.6599L58.601 27.4426L58.5446 27.225L58.4863 27.009L58.4258 26.7934L58.3631 26.5781L58.2983 26.3642L58.2313 26.151L58.162 25.938L58.0909 25.7266L58.0172 25.5153L57.9419 25.3054L57.8641 25.0959L57.7845 24.8879L57.7025 24.6802L57.6186 24.4736L57.5327 24.2684L57.4449 24.064L57.3545 23.86L57.2627 23.6579L57.1684 23.4559L57.0724 23.2558L56.9743 23.0565L56.8741 22.8579L56.7722 22.6609L56.6681 22.4648L56.562 22.2696L56.4545 22.0763L56.3445 21.8834L56.2329 21.6922L56.1191 21.5018L56.004 21.3134L55.8864 21.1254L55.7674 20.9391L55.6463 20.7538L55.5235 20.5701L55.3991 20.3879L55.2725 20.2066L55.1442 20.0268L55.0144 19.8484L54.8826 19.6716L54.7492 19.4958L54.6141 19.3218L54.4773 19.1489L54.3388 18.9777L54.1986 18.808L54.0567 18.6396L53.9132 18.4728L53.7682 18.3074L53.6217 18.1437L53.4734 17.9815L53.3233 17.8206L53.1724 17.6619L53.019 17.504L52.8648 17.3484L52.7089 17.194L52.5517 17.0415L52.3924 16.8901L52.2325 16.7412L52.0706 16.5933L51.9073 16.4473L51.7432 16.3032L51.5774 16.1607L51.4097 16.0195L51.2411 15.8804L51.0714 15.743L50.9002 15.6074L50.7276 15.4734L50.5542 15.3417L50.3789 15.2109L50.2029 15.0827L50.0255 14.9561L49.8468 14.8311L49.6674 14.7082L49.486 14.5867L49.3046 14.4678L49.1212 14.3501L48.9371 14.2346L48.7516 14.1208L48.5654 14.0089L48.3781 13.8991L48.1901 13.7913L48.0004 13.6849L47.8106 13.5809L47.6192 13.4786L47.4271 13.3783L47.2342 13.2802L47.0402 13.1837L46.8454 13.0892L46.6499 12.9969L46.4534 12.9064L46.2564 12.818L46.0584 12.7315L45.8533 12.6443L45.6605 12.5647L45.4598 12.484L45.2594 12.4058L45.0574 12.3291L44.8555 12.2549L44.6526 12.1825L44.4493 12.1123L44.2451 12.0438L44.0407 11.9777L43.8355 11.9135L43.6298 11.8514L43.424 11.7915L43.2173 11.7334L43.0099 11.6773L42.8028 11.6236L42.5952 11.5718L42.3863 11.522L42.1781 11.4745L41.9689 11.4288L41.7597 11.3854L41.5498 11.3439L41.3401 11.3046L41.1299 11.2674L40.9198 11.2323L40.7087 11.1992L40.4982 11.1683L40.2872 11.1394L40.076 11.1126L39.8647 11.0879L39.6534 11.0653L39.442 11.0448L39.2305 11.0263L39.0188 11.01L38.8069 10.9957L38.5956 10.9835L38.3842 10.9734L38.1721 10.9654L37.9611 10.9595L37.7497 10.9556L37.5385 10.9539L37.3269 10.9542L37.2845 10.9547L37.3512 16.5817L37.4712 16.5811L37.6256 16.582L37.7801 16.5844L37.9346 16.5883L38.0894 16.5938L38.2441 16.6009L38.3988 16.6094L38.5537 16.6194L38.7086 16.631L38.8634 16.6441L39.0183 16.6589L39.173 16.6751L39.3279 16.6929L39.4827 16.7122L39.6372 16.7329L39.7918 16.7554L39.9463 16.7793L40.1005 16.8048L40.2548 16.8318L40.4088 16.8604L40.5627 16.8906L40.7164 16.9222L40.8699 16.9554L41.0232 16.9901L41.1761 17.0265L41.3289 17.0643L41.4813 17.1036L41.6335 17.1445L41.7855 17.1869L41.9371 17.231L42.0885 17.2764L42.2394 17.3234L42.3898 17.372L42.54 17.422L42.6898 17.4737L42.8391 17.5269L42.9881 17.5815L43.1365 17.6376L43.2846 17.6953L43.4321 17.7545L43.5792 17.8151L43.7257 17.8774L43.8717 17.941L44.0172 18.0062L44.162 18.0728L44.3063 18.1409L44.4502 18.2106L44.5933 18.2817L44.7358 18.3542L44.8777 18.4283L45.0189 18.5037L45.1595 18.5807L45.2993 18.659L45.4384 18.7388L45.577 18.82L45.7148 18.9028L45.8517 18.9869L45.9879 19.0724L46.1233 19.1594L46.258 19.2477L46.3918 19.3374L46.5249 19.4285L46.6571 19.5211L46.7885 19.6149L46.9189 19.7101L47.0485 19.8069L47.1773 19.9048L47.3049 20.0041L47.4318 20.1048L47.5577 20.2067L47.6827 20.3101L47.8066 20.4147L47.9297 20.5206L48.0518 20.6278L48.1728 20.7363L48.2928 20.8461L48.4116 20.9571L48.5295 21.0694L48.6462 21.1829L48.7619 21.2978L48.8766 21.4138L48.9901 21.5311L49.1026 21.6495L49.2138 21.7692L49.3239 21.89L49.4328 22.0121L49.5406 22.1352L49.6472 22.2596L49.7526 22.385L49.8568 22.5116L49.9597 22.6394L50.0615 22.7682L50.1619 22.8982L50.2611 23.0292L50.359 23.1614L50.4556 23.2945L50.551 23.4288L50.6449 23.5641L50.7376 23.7004L50.8289 23.8378L50.9189 23.976L51.0075 24.1154L51.0948 24.2557L51.1808 24.3969L51.2653 24.5391L51.3483 24.6824L51.43 24.8263L51.5103 24.9714L51.589 25.1173L51.6665 25.264L51.7424 25.4117L51.8168 25.5602L51.8898 25.7097L51.9613 25.8598L52.0313 26.0107L52.0997 26.1627L52.1667 26.3152L52.2322 26.4686L52.2961 26.6227L52.3585 26.7776L52.4193 26.9332L52.4785 27.0894L52.5362 27.2465L52.5923 27.4042L52.6469 27.5626L52.6999 27.7216L52.7512 27.8813L52.8009 28.0415L52.8491 28.2024L52.8956 28.3639L52.9405 28.526L52.9836 28.6887L53.0253 28.8518L53.0652 29.0155L53.1035 29.1796L53.1401 29.3444L53.175 29.5096L53.2083 29.6752L53.2398 29.8413L53.2697 30.0079L53.298 30.1749L53.3244 30.3421L53.3492 30.5099L53.3723 30.6779L53.3936 30.8463L53.4134 31.0152L53.4312 31.1843L53.4474 31.3536L53.462 31.5234L53.4746 31.6933L53.4857 31.8635L53.4948 32.0338L53.5023 32.2044L53.508 32.3754L53.512 32.5463L53.5142 32.7175L53.5147 32.8889L53.5133 33.0602L53.5102 33.2317L53.5054 33.4034L53.4988 33.5752L53.4904 33.7469L53.4802 33.9187L53.4683 34.0906L53.4546 34.2624L53.439 34.4342L53.4218 34.606L53.4026 34.7777L53.3819 34.9495L53.3592 35.121L53.3348 35.2925L53.3085 35.4639L53.2806 35.6351L53.2508 35.8062L53.2192 35.9771L53.1859 36.1479L53.1507 36.3184L53.1138 36.4887L53.0752 36.6587L53.0347 36.8285L52.9925 36.9979L52.9485 37.1672L52.9027 37.3361L52.8551 37.5047L52.8058 37.6728L52.7547 37.8406L52.7019 38.0081L52.6471 38.1752L52.5907 38.3418L52.5326 38.508L52.4728 38.6737L52.4111 38.8389L52.3476 39.0037L52.2826 39.1679L52.2157 39.3317L52.1471 39.4949L52.0768 39.6575L52.0048 39.8195L51.931 39.9811L51.8555 40.1418L51.7783 40.302L51.6994 40.4616L51.6188 40.6204L51.5365 40.7787L51.4525 40.9361L51.3669 41.0929L51.2796 41.2489L51.1906 41.4042L51.1 41.5587L51.0076 41.7125L50.9137 41.8653L50.8182 42.0175L50.7209 42.1687L50.6221 42.3192L50.5215 42.4686L50.4195 42.6173L50.3159 42.7651L50.2106 42.9119L50.1037 43.0578L49.9954 43.2028L49.8854 43.3468L49.7738 43.4897L49.6607 43.6317L49.546 43.7727L49.4299 43.9126L49.3123 44.0515L49.193 44.1893L49.0723 44.3261L48.9501 44.4617L48.8264 44.5963L48.7013 44.7296L48.5748 44.862L48.4468 44.993L48.3173 45.123L48.1863 45.2517L48.0541 45.3793L47.9203 45.5056L47.7853 45.6306L47.6488 45.7546L47.5109 45.8771L47.3717 45.9984L47.2312 46.1185L47.0894 46.2372L46.9461 46.3547L46.8017 46.4707L46.6558 46.5854L46.5087 46.6987L46.3605 46.8107L46.2109 46.9213L46.06 47.0305L45.9081 47.1385L45.7548 47.2448L45.6004 47.3497L45.4446 47.4532L45.2878 47.5552L45.1299 47.6558L44.9709 47.7549L44.8106 47.8523L44.6493 47.9485L44.4868 48.043L44.3234 48.1359L44.1588 48.2273L43.9932 48.3172L43.8265 48.4056L43.6589 48.4923L43.4901 48.5774L43.3205 48.6609L43.1499 48.7429L42.9783 48.8231L42.8057 48.9017L42.6323 48.9787L42.458 49.0541L42.2826 49.1277L42.1066 49.1997L41.9296 49.2701L41.7518 49.3387L41.5732 49.4056L41.3937 49.4709L41.2135 49.5343L41.0324 49.596L40.8508 49.6561L40.6682 49.7142L40.4851 49.7708L40.3012 49.8255L40.1166 49.8784L39.9314 49.9296L39.7454 49.9789L39.5589 50.0265L39.3718 50.0723L39.1841 50.1163L38.9956 50.1584L38.8069 50.1987L38.6174 50.2371L38.4275 50.2738L38.2372 50.3087L38.0462 50.3417L37.8548 50.3727L37.6632 50.4019L37.4709 50.4293L37.2782 50.4547L37.0852 50.4784L36.8919 50.5001L36.6981 50.52L36.5041 50.5379L36.3098 50.554L36.1151 50.5681L35.9202 50.5803L35.725 50.5906L35.5296 50.599L35.334 50.6055L35.1382 50.6101L34.9422 50.6127L34.746 50.6134L34.5497 50.6123L34.3535 50.609L34.157 50.604L33.9604 50.597L33.7639 50.588L33.5672 50.5771L33.3707 50.5643L33.174 50.5495L32.9774 50.5328L32.7809 50.5141L32.5844 50.4935L32.388 50.4709L32.1917 50.4465L31.9955 50.42L31.7995 50.3916L31.6037 50.3613L31.4081 50.329L31.2126 50.2947L31.0173 50.2586L30.8224 50.2205L30.6278 50.1803L30.4333 50.1384L30.2393 50.0945L30.0455 50.0486L29.8521 50.0007L29.6591 49.951L29.4664 49.8993L29.2741 49.8457L29.0824 49.7902L28.891 49.7328L28.7001 49.6734L28.5097 49.6121L28.32 49.5489L28.1305 49.4838L27.9418 49.4168L27.7536 49.3479L27.5659 49.2771L27.3789 49.2044L27.1926 49.1299L27.0068 49.0533L26.8217 48.975L26.6374 48.8949L26.4538 48.8128L26.2708 48.7289L26.0887 48.6432L25.9073 48.5556L25.7267 48.4661L25.5468 48.3748L25.3679 48.2818L25.1898 48.1868L25.0125 48.0901L24.8362 47.9916L24.6607 47.8912L24.4861 47.7892L24.3125 47.6852L24.1398 47.5795L23.9681 47.4722L23.7975 47.363L23.6279 47.2521L23.4593 47.1393L23.2918 47.0249L23.1253 46.9089L22.96 46.7912L22.7957 46.6716L22.6326 46.5505L22.4705 46.4275L22.3097 46.303L22.1501 46.1768L21.9917 46.0489L21.8345 45.9195L21.6784 45.7883L21.5237 45.6557L21.3703 45.5212L21.2181 45.3854L21.0672 45.2479L20.9177 45.1089L20.7695 44.9683L20.6226 44.8261L20.4771 44.6824L20.3331 44.5372L20.1905 44.3904L20.0491 44.2423L19.9093 44.0926L19.771 43.9416L19.6341 43.7889L19.4987 43.6349L19.3649 43.4794L19.2324 43.3227L19.1016 43.1644L18.9722 43.0047L18.8446 42.8438L18.7184 42.6814L18.5939 42.5177L18.4709 42.3526L18.3495 42.1864L18.2298 42.0187L18.1119 41.8499L17.9954 41.6797L17.8807 41.5083L17.7678 41.3358L17.6565 41.1619L17.5469 40.9869L17.4391 40.8106L17.333 40.6332L17.2287 40.4548L17.1261 40.275L17.0253 40.0944L16.9264 39.9124L16.8292 39.7296L16.7339 39.5456L16.6404 39.3605L16.5487 39.1744L16.4589 38.9873L16.371 38.7993L16.285 38.6101L16.2008 38.4202L16.1186 38.2293L16.0383 38.0373L15.9599 37.8446L15.8834 37.651L15.8089 37.4564L15.7363 37.261L15.6657 37.0649L15.5971 36.8678L15.5305 36.6701L15.4658 36.4715L15.4032 36.2721L15.3426 36.0722L15.284 35.8714L15.2274 35.67L15.1728 35.4679L15.1203 35.265L15.0699 35.0617L15.0215 34.8576L14.9752 34.653L14.931 34.4478L14.8888 34.2421L14.8488 34.0359L14.8108 33.829L14.7749 33.6217L14.7412 33.414L14.7096 33.2058L14.68 32.9972L14.6527 32.7882L14.6274 32.5787L14.6043 32.3689L14.5833 32.1588L14.5645 31.9483L14.5478 31.7375L14.5333 31.5265L14.5209 31.3151L14.5108 31.1035L14.5027 30.8918L14.4969 30.6798L14.4932 30.4677L14.4917 30.2552L14.4924 30.0428L14.4953 29.8302L14.5003 29.6176L14.5075 29.4049L14.517 29.192L14.5286 28.9793L14.5424 28.7664L14.5584 28.5537L14.5766 28.3408L14.597 28.1282L14.6197 27.9155L14.6444 27.703L14.6714 27.4906L14.7006 27.2783L14.732 27.0662L14.7656 26.8543L14.8014 26.6426L14.8394 26.4312L14.8796 26.2199L14.9219 26.009L14.9665 25.7984L15.0132 25.5881L15.0622 25.3781L15.1133 25.1685L15.1666 24.9593L15.2221 24.7505L15.2797 24.5421L15.3395 24.3342L15.4016 24.1268L15.4657 23.9198L15.5321 23.7132L15.6005 23.5074L15.6712 23.302L15.744 23.0972L15.8189 22.893L15.896 22.6894L15.9752 22.4866L16.0565 22.2843L16.14 22.0827L16.2256 21.8819L16.3132 21.6817L16.4031 21.4824L16.4949 21.2838L16.5889 21.0859L16.685 20.8889L16.7831 20.6928L16.8833 20.4975L16.9856 20.3031L17.0899 20.1096L17.1963 19.917L17.3047 19.7253L17.4152 19.5345L17.5276 19.3449L17.6421 19.1562L17.7586 18.9684L17.877 18.7818L17.9975 18.5961L18.12 18.4117L18.2442 18.2282L18.3707 18.046L18.4989 17.8647L18.6291 17.6847L18.7613 17.506L18.8952 17.3283L19.0313 17.1519L19.1691 16.9767L19.3088 16.8028L19.4502 16.6303L19.5936 16.4589L19.7389 16.2889L19.886 16.1202L20.0349 15.9529L20.1856 15.787L20.338 15.6224L20.4923 15.4593L20.6483 15.2975L20.806 15.1373L20.9654 14.9785L21.1266 14.8211L21.2896 14.6653L21.4542 14.5109L21.6204 14.3582L21.7884 14.2069L21.958 14.0573L22.1291 13.9092L22.3019 13.7627L22.4764 13.6179L22.6523 13.4746L22.8298 13.333L23.009 13.1931L23.1896 13.0549L23.3717 12.9184L23.5555 12.7836L23.7405 12.6505L23.9271 12.5192L24.1152 12.3896L24.3047 12.2618L24.4955 12.136L24.6879 12.0117L24.8815 11.8894L25.0766 11.7688L25.273 11.6502L25.4707 11.5334L25.6696 11.4184L25.8699 11.3054L26.0715 11.1943L26.2742 11.0851L26.4782 10.9778L26.6835 10.8725L26.8899 10.7691L27.0975 10.6677L27.3062 10.5683L27.5161 10.4709L27.7271 10.3755L27.9393 10.2822L28.1524 10.1908L28.3666 10.1015L28.5819 10.0143L28.798 9.92912L29.0153 9.84603L29.2335 9.76503L29.4527 9.68614L29.6728 9.60935L29.8938 9.53468L30.1156 9.46214L30.3382 9.39175L30.5618 9.3235L30.7862 9.25742L31.0115 9.19351L31.2373 9.13176L31.464 9.07221L31.6915 9.01486L31.9197 8.95971L32.1484 8.90678L32.378 8.85605L32.6081 8.80756L32.8387 8.7613L33.0702 8.71729L33.3021 8.67553L33.5345 8.63601L33.7676 8.59877L34.0011 8.56379L34.235 8.53109L34.4694 8.50066L34.5568 8.49018ZM34.6557 16.8363L34.5883 11.1474L34.3962 11.1742L34.1896 11.2052L33.9829 11.2382L33.7776 11.2731L33.5719 11.3101L33.3673 11.3491L33.1631 11.39L32.9596 11.4329L32.7566 11.4778L32.554 11.5246L32.352 11.5734L32.1509 11.6242L31.95 11.6769L31.757 11.7296L31.5513 11.7881L31.3527 11.8465L31.155 11.9069L30.9583 11.969L30.7621 12.0332L30.5666 12.0993L30.3719 12.1672L30.1783 12.2368L29.9855 12.3085L29.7935 12.3818L29.6023 12.4572L29.4125 12.5342L29.2227 12.6132L29.0344 12.6939L28.847 12.7764L28.6609 12.8606L28.4753 12.9467L28.2907 13.0346L28.1077 13.124L27.925 13.2154L27.7442 13.3083L27.5637 13.4032L27.385 13.4994L27.2065 13.5979L27.0299 13.6974L26.8544 13.7988L26.6798 13.902L26.5065 14.0067L26.3341 14.1133L26.1635 14.221L25.9936 14.3307L25.8253 14.4419L25.6582 14.5545L25.4923 14.6689L25.3274 14.7849L25.1645 14.9019L25.0024 15.021L24.8416 15.1415L24.6823 15.2634L24.5245 15.3866L24.3677 15.5116L24.2127 15.6377L24.059 15.7654L23.9065 15.8948L23.7558 16.0251L23.6063 16.1571L23.4582 16.2905L23.3117 16.4251L23.1668 16.561L23.023 16.6985L22.8812 16.8368L22.7408 16.9767L22.6016 17.118L22.4643 17.2604L22.3284 17.4042L22.1941 17.5491L22.0615 17.6951L21.9303 17.8425L21.8006 17.9912L21.6731 18.1406L21.5468 18.2915L21.4221 18.4436L21.2992 18.5966L21.178 18.7506L21.0582 18.906L20.9403 19.0622L20.824 19.2196L20.7094 19.378L20.5965 19.5375L20.4855 19.6976L20.3761 19.859L20.2683 20.0214L20.1623 20.1846L20.0583 20.3486L19.9559 20.5137L19.8552 20.6799L19.7563 20.8465L19.6593 21.0142L19.5639 21.1828L19.4706 21.3518L19.3788 21.522L19.2887 21.6931L19.2009 21.8644L19.1146 22.037L19.0302 22.2101L18.9476 22.3837L18.867 22.5583L18.788 22.7333L18.7111 22.9091L18.6358 23.0855L18.5627 23.2624L18.4913 23.44L18.4216 23.6183L18.3539 23.797L18.2882 23.9761L18.2242 24.156L18.1624 24.3361L18.1021 24.5169L18.044 24.6981L17.9876 24.8798L17.9333 25.0617L17.8807 25.2442L17.8302 25.4269L17.7815 25.6101L17.7348 25.7936L17.6899 25.9775L17.647 26.1616L17.606 26.3459L17.5669 26.5307L17.5298 26.7156L17.4946 26.9007L17.4613 27.0862L17.43 27.2717L17.4005 27.4575L17.373 27.6431L17.3474 27.8292L17.3238 28.0153L17.302 28.2015L17.2822 28.3877L17.2644 28.5741L17.2484 28.7605L17.2344 28.9467L17.2223 29.1333L17.2121 29.3197L17.2039 29.5059L17.1975 29.6921L17.1931 29.8782L17.1906 30.0643L17.19 30.2504L17.1913 30.4362L17.1945 30.6218L17.1996 30.8073L17.2067 30.9925L17.2156 31.1777L17.2264 31.3626L17.2391 31.5471L17.2537 31.7316L17.2701 31.9156L17.2885 32.0993L17.3087 32.2828L17.3307 32.4659L17.3547 32.6487L17.3805 32.831L17.4082 33.0131L17.4376 33.1945L17.469 33.3757L17.5022 33.5565L17.5372 33.7366L17.574 33.9165L17.6126 34.0956L17.6531 34.2745L17.6953 34.4525L17.7394 34.6302L17.7852 34.8073L17.8329 34.9838L17.8822 35.1596L17.9334 35.3349L17.9863 35.5095L18.0411 35.6835L18.0974 35.857L18.1556 36.0295L18.2155 36.2013L18.277 36.3725L18.3404 36.543L18.4054 36.7128L18.4721 36.8816L18.5404 37.0497L18.6105 37.2171L18.6822 37.3836L18.7557 37.5493L18.8306 37.7142L18.9073 37.878L18.9856 38.0411L19.0654 38.2034L19.147 38.3646L19.23 38.525L19.3147 38.6845L19.4009 38.8429L19.4887 39.0004L19.578 39.1569L19.6689 39.3124L19.7613 39.4668L19.8552 39.6204L19.9506 39.7727L20.0475 39.9241L20.146 40.0745L20.2457 40.2235L20.3471 40.3718L20.4497 40.5187L20.554 40.6646L20.6595 40.8093L20.7665 40.9529L20.8749 41.0952L20.9847 41.2365L21.0957 41.3765L21.2082 41.5154L21.322 41.653L21.4371 41.7895L21.5536 41.9245L21.6714 42.0586L21.7903 42.1911L21.9106 42.3226L22.032 42.4526L22.1548 42.5814L22.2788 42.7089L22.4041 42.8351L22.5304 42.9599L22.658 43.0834L22.7868 43.2056L22.9165 43.3263L23.0477 43.4459L23.1798 43.5638L23.313 43.6804L23.4474 43.7957L23.5829 43.9095L23.7193 44.0219L23.8568 44.1328L23.9954 44.2423L24.1349 44.3504L24.2755 44.4571L24.4172 44.5622L24.5595 44.6659L24.7029 44.7681L24.8473 44.8688L24.9926 44.968L25.139 45.0657L25.2861 45.1619L25.434 45.2565L25.5829 45.3497L25.7324 45.4413L25.8829 45.5314L26.0342 45.6199L26.1862 45.7067L26.3391 45.7921L26.4925 45.8759L26.647 45.9582L26.802 46.0389L26.9576 46.1178L27.1141 46.1954L27.2713 46.2712L27.429 46.3455L27.5873 46.4181L27.7464 46.4892L27.9058 46.5586L28.066 46.6263L28.2268 46.6925L28.3881 46.757L28.5498 46.8199L28.7122 46.8811L28.875 46.9407L29.0383 46.9987L29.202 47.055L29.3663 47.1097L29.5309 47.1626L29.6959 47.214L29.8614 47.2636L30.0271 47.3116L30.1932 47.358L30.3597 47.4026L30.5265 47.4457L30.6936 47.4869L30.861 47.5265L31.0287 47.5645L31.1967 47.6009L31.3648 47.6355L31.5331 47.6683L31.7018 47.6995L31.8703 47.7291L32.0393 47.7571L32.2084 47.7831L32.3775 47.8077L32.5468 47.8305L32.7161 47.8517L32.8856 47.8712L33.055 47.889L33.2246 47.905L33.3942 47.9195L33.5638 47.9321L33.7334 47.9433L33.9029 47.9526L34.0723 47.9604L34.2419 47.9664L34.4112 47.9708L34.5804 47.9735L34.7495 47.9745L34.9185 47.9739L35.0874 47.9716L35.2561 47.9677L35.4245 47.9622L35.5929 47.9549L35.7609 47.946L35.9288 47.9355L36.0963 47.9233L36.2637 47.9095L36.4306 47.894L36.5974 47.8769L36.7639 47.8582L36.93 47.8379L37.0958 47.816L37.2611 47.7926L37.4261 47.7674L37.5907 47.7406L37.7547 47.7123L37.9186 47.6823L38.0819 47.6508L38.2447 47.6178L38.4072 47.5831L38.5689 47.5468L38.7302 47.5092L38.891 47.4697L39.0513 47.4289L39.211 47.3865L39.3702 47.3425L39.5287 47.297L39.6867 47.25L39.8439 47.2016L40.0006 47.1516L40.1568 47.1L40.3121 47.047L40.4668 46.9926L40.6208 46.9366L40.7741 46.8792L40.9266 46.8203L41.0784 46.76L41.2296 46.6981L41.3799 46.635L41.5293 46.5703L41.6782 46.5044L41.826 46.437L41.9732 46.3681L42.1195 46.2978L42.2647 46.2264L42.4095 46.1533L42.5531 46.0791L42.696 46.0032L42.8377 45.9264L42.9787 45.8481L43.1188 45.7684L43.2578 45.6875L43.3961 45.6052L43.5333 45.5217L43.6693 45.4369L43.8047 45.3508L43.9387 45.2636L44.0719 45.175L44.2043 45.085L44.3353 44.994L44.4652 44.902L44.5944 44.8084L44.7222 44.714L44.8491 44.6182L44.975 44.5212L45.0993 44.4233L45.2231 44.3239L45.3456 44.2235L45.4664 44.1222L45.5868 44.0193L45.7057 43.9158L45.8233 43.8113L45.9402 43.7051L46.0553 43.5985L46.1695 43.4906L46.2826 43.3817L46.3942 43.2719L46.5048 43.1609L46.6142 43.049L46.7222 42.9361L46.8288 42.8223L46.9344 42.7074L47.0387 42.5917L47.1415 42.4753L47.2434 42.3575L47.3436 42.2391L47.4426 42.1199L47.5405 41.9994L47.6367 41.8787L47.7318 41.7567L47.8256 41.634L47.9181 41.5104L48.0091 41.3861L48.0986 41.2613L48.187 41.1351L48.2739 41.0086L48.3594 40.8813L48.4438 40.7531L48.5262 40.6245L48.6078 40.495L48.6877 40.3647L48.7664 40.234L48.8434 40.1025L48.9193 39.9702L48.9934 39.8378L49.0664 39.7041L49.1378 39.5703L49.2076 39.4359L49.2763 39.3004L49.3432 39.1653L49.409 39.0287L49.4729 38.8925L49.5359 38.7549L49.5968 38.6175L49.6567 38.479L49.715 38.3406L49.7717 38.2016L49.8271 38.062L49.881 37.922L49.9331 37.782L49.9842 37.6411L50.0333 37.5001L50.0812 37.3588L50.1276 37.217L50.1725 37.0748L50.2159 36.9324L50.2577 36.7899L50.298 36.6468L50.3368 36.5037L50.3742 36.3602L50.4099 36.2165L50.4442 36.0728L50.4771 35.9284L50.5083 35.7841L50.5382 35.6397L50.5663 35.4952L50.5931 35.3505L50.6182 35.2052L50.642 35.0605L50.6642 34.9153L50.6848 34.77L50.7039 34.625L50.7216 34.4797L50.7378 34.334L50.7524 34.1893L50.7656 34.0434L50.7772 33.8981L50.7873 33.753L50.7959 33.6076L50.803 33.4624L50.8086 33.3174L50.8127 33.172L50.8152 33.0274L50.8164 32.8822L50.816 32.7375L50.8142 32.5928L50.8108 32.4487L50.806 32.3042L50.7996 32.1601L50.7918 32.0166L50.7825 31.8726L50.7718 31.7291L50.7597 31.5863L50.746 31.443L50.7309 31.3006L50.7142 31.158L50.6963 31.0161L50.6768 30.8743L50.6559 30.7327L50.6336 30.5916L50.6099 30.451L50.5847 30.3107L50.558 30.1709L50.5299 30.0309L50.5005 29.8919L50.4697 29.7534L50.4375 29.615L50.4037 29.4769L50.3689 29.34L50.3323 29.2026L50.2947 29.0664L50.2555 28.9304L50.215 28.7953L50.1732 28.6603L50.1299 28.5258L50.0855 28.3923L50.0397 28.2592L49.9923 28.1263L49.944 27.9945L49.8941 27.8631L49.843 27.7325L49.7906 27.6022L49.7368 27.4725L49.6819 27.344L49.6255 27.2156L49.5681 27.0882L49.5094 26.9616L49.4493 26.8353L49.3879 26.7097L49.3257 26.5853L49.2618 26.4612L49.197 26.3383L49.1309 26.2161L49.0635 26.0941L48.9951 25.9735L48.9254 25.8534L48.8545 25.7343L48.7824 25.6156L48.7095 25.4983L48.635 25.3812L48.5598 25.2655L48.4833 25.1505L48.4057 25.0364L48.3268 24.9229L48.247 24.8106L48.1663 24.6993L48.0841 24.5884L48.0013 24.4789L47.917 24.3701L47.8323 24.2625L47.746 24.1555L47.6588 24.0496L47.5706 23.9446L47.4816 23.8406L47.3916 23.7378L47.3003 23.6356L47.2085 23.5348L47.1154 23.4347L47.0218 23.336L46.9267 23.2378L46.8312 23.1411L46.7343 23.045L46.6368 22.9503L46.5386 22.8567L46.4394 22.7639L46.3391 22.6722L46.2382 22.5818L46.1364 22.4925L46.0335 22.4038L45.9306 22.317L45.8262 22.2306L45.7213 22.1456L45.6156 22.0618L45.509 21.9788L45.4018 21.8972L45.2942 21.817L45.1852 21.7375L45.0756 21.659L44.9659 21.5823L44.8547 21.5062L44.7437 21.4319L44.6317 21.3583L44.5189 21.2858L44.4054 21.2146L44.2918 21.1448L44.1769 21.0759L44.0619 21.0085L43.9459 20.9419L43.8301 20.877L43.7132 20.8131L43.5957 20.7503L43.4778 20.6887L43.3596 20.6287L43.2406 20.5695L43.1211 20.5116L43.0014 20.4551L42.8814 20.3999L42.7601 20.3455L42.6394 20.2928L42.5177 20.2413L42.3956 20.1908L42.2732 20.1418L42.1507 20.0941L42.0276 20.0476L41.9038 20.0021L41.7803 19.9582L41.6561 19.9154L41.5315 19.8739L41.4071 19.8337L41.2821 19.7948L41.1571 19.7571L41.0311 19.7206L40.9055 19.6856L40.7797 19.6517L40.6535 19.6192L40.5272 19.5878L40.4003 19.5578L40.2737 19.5291L40.1471 19.5017L40.0199 19.4755L39.8924 19.4504L39.7656 19.427L39.638 19.4047L39.5106 19.3836L39.3827 19.3637L39.2555 19.3453L39.1273 19.328L38.9999 19.3122L38.8721 19.2975L38.7443 19.2841L38.6167 19.272L38.4888 19.2611L38.3614 19.2516L38.2333 19.2433L38.1059 19.2362L37.9787 19.2305L37.8506 19.2259L37.7235 19.2227L37.5963 19.2208L37.4693 19.22L37.3824 19.2203L37.4482 24.7785L37.4875 24.7786L37.5605 24.7797L37.6337 24.7814L37.707 24.7838L37.7803 24.7872L37.8538 24.7912L37.9273 24.7959L38.0009 24.8015L38.0745 24.8078L38.1483 24.8149L38.222 24.8227L38.2958 24.8312L38.3697 24.8406L38.4434 24.8508L38.5173 24.8617L38.5912 24.8735L38.6651 24.886L38.7389 24.8992L38.8128 24.9134L38.8866 24.9281L38.9603 24.9438L39.0341 24.9602L39.1078 24.9774L39.1813 24.9954L39.2549 25.014L39.3284 25.0336L39.4017 25.0539L39.475 25.075L39.5482 25.0969L39.6212 25.1196L39.6941 25.1432L39.7669 25.1675L39.8395 25.1925L39.9121 25.2182L39.9844 25.2449L40.0565 25.2723L40.1285 25.3004L40.2004 25.3294L40.2719 25.3591L40.3433 25.3896L40.4146 25.421L40.4855 25.4531L40.5563 25.4859L40.6269 25.5196L40.6971 25.5539L40.7672 25.5891L40.8368 25.6252L40.9063 25.6618L40.9755 25.6994L41.0444 25.7376L41.113 25.7766L41.1813 25.8164L41.2491 25.8569L41.3169 25.8983L41.3842 25.9404L41.4511 25.9832L41.5177 26.0266L41.5839 26.0709L41.6499 26.1161L41.7154 26.1619L41.7805 26.2084L41.8452 26.2557L41.9096 26.3037L41.9735 26.3524L42.0369 26.4019L42.1001 26.4521L42.1627 26.503L42.2248 26.5546L42.2866 26.607L42.3479 26.66L42.4087 26.7137L42.469 26.7682L42.5288 26.8234L42.5881 26.8792L42.6469 26.9357L42.7053 26.993L42.763 27.0508L42.8203 27.1094L42.8771 27.1686L42.9332 27.2285L42.9889 27.2892L43.0439 27.3504L43.0985 27.4123L43.1524 27.4748L43.2057 27.538L43.2586 27.6017L43.3107 27.6662L43.3622 27.7313L43.4131 27.797L43.4635 27.8633L43.5132 27.9302L43.5623 27.9978L43.6106 28.0658L43.6584 28.1345L43.7055 28.2039L43.7519 28.2738L43.7977 28.3442L43.8429 28.4153L43.8872 28.4868L43.9309 28.559L43.9739 28.6317L44.0162 28.7049L44.0578 28.7786L44.0986 28.853L44.1388 28.9278L44.1782 29.0031L44.2168 29.0789L44.2548 29.1552L44.2919 29.2321L44.3283 29.3095L44.3639 29.3872L44.3988 29.4655L44.4329 29.5443L44.4662 29.6235L44.4987 29.7032L44.5304 29.7832L44.5613 29.8638L44.5915 29.9447L44.6208 30.0262L44.6492 30.108L44.6769 30.1902L44.7037 30.2728L44.7296 30.3558L44.7548 30.4391L44.779 30.5229L44.8025 30.6071L44.8251 30.6915L44.8469 30.7762L44.8677 30.8615L44.8877 30.947L44.9068 31.0327L44.9251 31.119L44.9425 31.2054L44.9588 31.292L44.9744 31.3791L44.9891 31.4664L45.003 31.5539L45.0158 31.6418L45.0277 31.7298L45.0387 31.8181L45.0489 31.9068L45.0582 31.9955L45.0664 32.0844L45.0738 32.1737L45.0803 32.2632L45.0857 32.3527L45.0903 32.4425L45.0938 32.5324L45.0966 32.6225L45.0982 32.7128L45.0991 32.8032L45.0988 32.8936L45.0978 32.9843L45.0957 33.0751L45.0926 33.1659L45.0887 33.2569L45.0836 33.3479L45.0778 33.439L45.0708 33.5302L45.0629 33.6214L45.0541 33.7127L45.0443 33.804L45.0334 33.8953L45.0217 33.9867L45.009 34.0781L44.9953 34.1694L44.9806 34.2607L44.9648 34.3519L44.9482 34.4432L44.9305 34.5345L44.912 34.6256L44.8923 34.7167L44.8717 34.8077L44.8502 34.8987L44.8275 34.9895L44.8039 35.0804L44.7795 35.1709L44.7539 35.2615L44.7274 35.3517L44.6998 35.442L44.6714 35.5321L44.642 35.6219L44.6115 35.7117L44.5802 35.8012L44.5476 35.8904L44.5142 35.9796L44.4799 36.0684L44.4446 36.1572L44.4082 36.2455L44.371 36.3337L44.3327 36.4216L44.2934 36.5093L44.2532 36.5966L44.212 36.6836L44.1697 36.7705L44.1267 36.8569L44.0826 36.943L44.0375 37.0288L43.9914 37.1142L43.9445 37.1993L43.8966 37.2841L43.8477 37.3685L43.7978 37.4525L43.7472 37.536L43.6954 37.6193L43.6428 37.7021L43.5892 37.7844L43.5346 37.8664L43.4792 37.9478L43.4229 38.0289L43.3656 38.1094L43.3073 38.1895L43.2483 38.2692L43.1882 38.3482L43.1272 38.4268L43.0654 38.505L43.0027 38.5826L42.9391 38.6596L42.8746 38.7362L42.8092 38.8121L42.7428 38.8875L42.6757 38.9623L42.6077 39.0366L42.5388 39.1102L42.4692 39.1833L42.3985 39.2558L42.3271 39.3277L42.2548 39.3988L42.1818 39.4695L42.1077 39.5394L42.033 39.6086L41.9574 39.6772L41.881 39.7452L41.8039 39.8125L41.7258 39.879L41.6471 39.9448L41.5674 40.0101L41.4871 40.0745L41.4059 40.1381L41.3241 40.2011L41.2415 40.2634L41.158 40.325L41.074 40.3856L40.989 40.4455L40.9035 40.5049L40.8171 40.5632L40.7301 40.6209L40.6423 40.6775L40.5538 40.7336L40.4646 40.7888L40.3748 40.8432L40.2843 40.8966L40.1931 40.9493L40.1013 41.0011L40.0087 41.0521L39.9156 41.1023L39.8218 41.1514L39.7275 41.1999L39.6324 41.2473L39.5368 41.294L39.4405 41.3396L39.3437 41.3844L39.2464 41.4282L39.1483 41.4711L39.0498 41.5132L38.9507 41.5542L38.8511 41.5943L38.7508 41.6334L38.6501 41.6717L38.5488 41.709L38.4471 41.7453L38.3449 41.7807L38.2422 41.815L38.139 41.8484L38.0353 41.8806L37.9312 41.912L37.8266 41.9425L37.7216 41.9718L37.6162 42.0002L37.5103 42.0274L37.404 42.0538L37.2973 42.0789L37.1903 42.1032L37.0828 42.1263L36.9751 42.1486L36.8668 42.1696L36.7583 42.1896L36.6495 42.2086L36.5403 42.2266L36.4309 42.2434L36.3211 42.2591L36.2111 42.2739L36.1007 42.2876L35.9901 42.3001L35.8793 42.3114L35.7681 42.3218L35.6568 42.331L35.5452 42.3392L35.4334 42.3461L35.3215 42.3522L35.2093 42.357L35.097 42.3607L34.9843 42.3632L34.8717 42.3647L34.7589 42.3651L34.646 42.3644L34.533 42.3625L34.4197 42.3594L34.3065 42.3553L34.1932 42.35L34.0797 42.3435L33.9662 42.336L33.8527 42.3273L33.7391 42.3174L33.6255 42.3064L33.512 42.2943L33.3983 42.2809L33.2848 42.2665L33.1712 42.2509L33.0577 42.2343L32.9442 42.2163L32.8308 42.1973L32.7174 42.1771L32.6042 42.1558L32.491 42.1334L32.378 42.1097L32.265 42.085L32.1523 42.0589L32.0396 42.0318L31.927 42.0037L31.8147 41.9743L31.7027 41.9436L31.5906 41.912L31.479 41.8792L31.3674 41.8452L31.2561 41.81L31.1451 41.7738L31.0343 41.7364L30.9239 41.6978L30.8136 41.658L30.7036 41.6171L30.5941 41.5752L30.4847 41.532L30.3758 41.4877L30.2671 41.4424L30.1589 41.3958L30.051 41.3481L29.9434 41.2994L29.8363 41.2495L29.7295 41.1984L29.6232 41.1463L29.5173 41.093L29.4119 41.0387L29.3069 40.9832L29.2024 40.9266L29.0983 40.8689L28.9948 40.8102L28.8916 40.7503L28.7892 40.6893L28.6871 40.6273L28.5857 40.5642L28.4847 40.5L28.3843 40.4348L28.2845 40.3684L28.1853 40.301L28.0868 40.2325L27.9887 40.163L27.8913 40.0925L27.7945 40.0208L27.6984 39.9482L27.603 39.8746L27.5082 39.7998L27.4141 39.7241L27.3206 39.6474L27.2279 39.5697L27.1359 39.491L27.0446 39.4112L26.9541 39.3305L26.8643 39.2488L26.7752 39.166L26.6869 39.0824L26.5994 38.9978L26.5125 38.9122L26.4267 38.8257L26.3416 38.7382L26.2573 38.6497L26.1738 38.5605L26.0912 38.4701L26.0095 38.379L25.9285 38.287L25.8486 38.1939L25.7694 38.1002L25.6911 38.0054L25.6138 37.9097L25.5374 37.8132L25.4618 37.7159L25.3872 37.6177L25.3136 37.5186L25.241 37.4188L25.1693 37.3181L25.0985 37.2165L25.0287 37.1142L24.96 37.0112L24.8922 36.9072L24.8256 36.8026L24.7597 36.6972L24.6951 36.591L24.6314 36.484L24.5688 36.3764L24.5073 36.2679L24.4468 36.1588L24.3873 36.0489L24.329 35.9384L24.2717 35.8271L24.2155 35.7152L24.1604 35.6027L24.1065 35.4894L24.0537 35.3756L24.002 35.261L23.9515 35.1459L23.902 35.03L23.8538 34.9137L23.8066 34.7967L23.7607 34.6792L23.716 34.561L23.6725 34.4423L23.6301 34.3231L23.5889 34.2034L23.5489 34.0831L23.5101 33.9622L23.4726 33.8409L23.4362 33.7192L23.401 33.5968L23.3672 33.4741L23.3347 33.3508L23.3031 33.2272L23.2731 33.1031L23.2443 32.9787L23.2166 32.8537L23.1902 32.7284L23.1652 32.6027L23.1414 32.4766L23.1188 32.3502L23.0976 32.2234L23.0778 32.0964L23.0591 31.9689L23.0417 31.8412L23.0258 31.7132L23.0111 31.5849L22.9977 31.4563L22.9856 31.3274L22.9748 31.1983L22.9654 31.0691L22.9573 30.9395L22.9506 30.8098L22.9451 30.68L22.941 30.5498L22.9383 30.4195L22.937 30.2892L22.9369 30.1587L22.9382 30.0279L22.941 29.8972L22.945 29.7663L22.9504 29.6353L22.9572 29.5043L22.9653 29.3732L22.9747 29.2421L22.9856 29.1109L22.9978 28.9797L23.0114 28.8485L23.0264 28.7174L23.0427 28.5862L23.0604 28.4552L23.0795 28.3241L23.1 28.1931L23.1219 28.0622L23.145 27.9314L23.1696 27.8006L23.1957 27.67L23.2231 27.5396L23.2518 27.4093L23.2818 27.2792L23.3133 27.1493L23.3461 27.0195L23.3804 26.8899L23.4161 26.7607L23.453 26.6316L23.4913 26.5026L23.531 26.3741L23.5721 26.2457L23.6145 26.1176L23.6584 25.99L23.7036 25.8625L23.7501 25.7354L23.798 25.6087L23.8473 25.4824L23.8979 25.3563L23.9499 25.2306L24.0032 25.1055L24.0578 24.9806L24.1139 24.8562L24.1712 24.7323L24.2299 24.6087L24.2898 24.4858L24.3512 24.3632L24.4138 24.2411L24.4778 24.1197L24.543 23.9987L24.6097 23.8782L24.6776 23.7583L24.7468 23.6389L24.8173 23.5202L24.8892 23.402L24.9622 23.2844L25.0367 23.1675L25.1123 23.051L25.1892 22.9353L25.2674 22.8203L25.3469 22.7059L25.4275 22.5923L25.5095 22.4794L25.5927 22.367L25.6771 22.2554L25.7628 22.1447L25.8496 22.0346L25.9378 21.9254L26.0272 21.8167L26.1176 21.7091L26.2093 21.6021L26.3022 21.4959L26.3962 21.3907L26.4915 21.2861L26.5879 21.1826L26.6855 21.0799L26.7843 20.978L26.8841 20.877L26.9851 20.7769L27.0873 20.6777L27.1905 20.5795L27.2949 20.4822L27.4003 20.3857L27.5067 20.2903L27.6143 20.1958L27.7231 20.1025L27.8328 20.0099L27.9437 19.9185L28.0554 19.8281L28.1683 19.7386L28.2821 19.6502L28.3971 19.5629L28.513 19.4767L28.6299 19.3914L28.7478 19.3074L28.8666 19.2243L28.9864 19.1423L29.1073 19.0615L29.2289 18.9818L29.3515 18.9034L29.4752 18.8259L29.5996 18.7497L29.725 18.6746L29.8512 18.6007L29.9784 18.528L30.1063 18.4564L30.2352 18.386L30.3649 18.317L30.4953 18.2491L30.6266 18.1824L30.7587 18.1171L30.8916 18.0529L31.0253 17.99L31.1597 17.9283L31.2948 17.868L31.4307 17.8089L31.5675 17.7511L31.7049 17.6946L31.8428 17.6395L31.9816 17.5856L32.1211 17.5331L32.2611 17.4818L32.4018 17.4321L32.5433 17.3835L32.6852 17.3364L32.8279 17.2906L32.971 17.2461L33.1148 17.2031L33.2591 17.1615L33.4039 17.1213L33.5494 17.0824L33.6953 17.0449L33.8418 17.0088L33.9887 16.9742L34.1362 16.9411L34.284 16.9093L34.4324 16.879L34.5811 16.8501L34.6557 16.8363ZM36.4841 27.5249L34.7872 27.9303L34.6875 19.5248L34.6076 19.5428L34.4872 19.5712L34.3669 19.6008L34.2475 19.6314L34.1283 19.6632L34.0097 19.6962L33.8912 19.7305L33.7739 19.7655L33.6563 19.802L33.5401 19.8393L33.4237 19.878L33.3079 19.9177L33.1928 19.9585L33.0781 20.0003L32.9645 20.0432L32.851 20.0873L32.7381 20.1324L32.6259 20.1785L32.5138 20.2259L32.4033 20.2738L32.2927 20.3233L32.1832 20.3735L32.0738 20.425L31.9654 20.4773L31.8574 20.5307L31.7505 20.5851L31.6441 20.6404L31.5384 20.6968L31.4334 20.7541L31.329 20.8124L31.2254 20.8717L31.1229 20.9318L31.0203 20.9932L30.919 21.0551L30.8186 21.1182L30.7188 21.1821L30.6196 21.247L30.5214 21.3128L30.4239 21.3795L30.3272 21.4469L30.2315 21.5152L30.1362 21.5846L30.042 21.6548L29.9487 21.7257L29.8561 21.7976L29.7645 21.87L29.6738 21.9435L29.5837 22.0178L29.4945 22.0931L29.4065 22.1687L29.3192 22.2454L29.2327 22.3227L29.1472 22.4009L29.0625 22.4799L28.9789 22.5596L28.8962 22.6398L28.8142 22.7211L28.7334 22.8028L28.6534 22.8854L28.5745 22.9684L28.4962 23.0526L28.4192 23.137L28.3431 23.2222L28.2679 23.3082L28.1938 23.3945L28.1205 23.4818L28.0485 23.5692L27.9771 23.6579L27.907 23.7466L27.8377 23.8363L27.7695 23.9265L27.7024 24.0171L27.6361 24.1082L27.5711 24.1999L27.5069 24.2924L27.4437 24.3851L27.3817 24.4786L27.3208 24.5722L27.2609 24.6665L27.2018 24.7614L27.1441 24.8565L27.0871 24.9525L27.0315 25.0484L26.9767 25.1451L26.923 25.2421L26.8706 25.3394L26.8191 25.4372L26.7687 25.5354L26.7192 25.6341L26.6711 25.7328L26.6238 25.8323L26.5778 25.9318L26.5329 26.0318L26.4888 26.132L26.446 26.2327L26.4043 26.3334L26.3637 26.4347L26.3243 26.5362L26.2857 26.6379L26.2484 26.7396L26.2122 26.8419L26.177 26.9444L26.143 27.047L26.11 27.1498L26.0782 27.253L26.0475 27.3562L26.018 27.4594L25.9895 27.563L25.9619 27.6668L25.9357 27.7706L25.9106 27.8745L25.8864 27.9786L25.8635 28.0829L25.8417 28.1872L25.8209 28.2915L25.8012 28.3958L25.7826 28.5005L25.7653 28.6049L25.7489 28.7094L25.7336 28.8142L25.7195 28.9186L25.7065 29.0234L25.6946 29.1278L25.6837 29.2325L25.674 29.3373L25.6653 29.4417L25.6578 29.5462L25.6513 29.6508L25.6459 29.755L25.6416 29.8592L25.6384 29.9633L25.6363 30.0675L25.6351 30.1715L25.6353 30.2753L25.6363 30.3789L25.6385 30.4825L25.6417 30.5859L25.646 30.6891L25.6513 30.7922L25.6578 30.8949L25.6653 30.9975L25.6738 31.1L25.6834 31.2022L25.694 31.3043L25.7056 31.4058L25.7183 31.5075L25.732 31.6085L25.7469 31.7096L25.7626 31.8102L25.7794 31.9106L25.7972 32.0108L25.816 32.1105L25.8359 32.21L25.8567 32.309L25.8786 32.4079L25.9014 32.5062L25.9253 32.6044L25.95 32.7019L25.9759 32.7995L26.0026 32.8962L26.0303 32.9929L26.059 33.0889L26.0886 33.1848L26.1192 33.28L26.1507 33.3747L26.1832 33.4693L26.2166 33.5633L26.2509 33.6566L26.2861 33.7498L26.3223 33.8424L26.3594 33.9344L26.3974 34.026L26.4361 34.117L26.476 34.2077L26.5167 34.2978L26.5582 34.3873L26.6006 34.4762L26.6437 34.5645L26.688 34.6527L26.7328 34.7399L26.7786 34.8266L26.8252 34.9128L26.8728 34.9984L26.9211 35.0835L26.9701 35.168L27.02 35.2516L27.0708 35.3349L27.1222 35.4175L27.1744 35.4994L27.2276 35.5808L27.2813 35.6615L27.336 35.7417L27.3912 35.8208L27.4473 35.8997L27.5041 35.9777L27.5615 36.055L27.6199 36.1318L27.6788 36.2078L27.7385 36.283L27.7988 36.3577L27.8599 36.4317L27.9214 36.5047L27.984 36.5773L28.047 36.6492L28.1106 36.7201L28.1753 36.7905L28.24 36.8598L28.3057 36.9289L28.3719 36.9969L28.4386 37.0642L28.5062 37.1307L28.5742 37.1965L28.6428 37.2616L28.712 37.3258L28.7818 37.3892L28.8522 37.452L28.923 37.5138L28.9944 37.5749L29.0662 37.6352L29.1387 37.6947L29.2117 37.7535L29.2853 37.8113L29.3591 37.8683L29.4335 37.9245L29.5085 37.98L29.5839 38.0346L29.6597 38.0884L29.7359 38.1414L29.8126 38.1935L29.8898 38.2447L29.9672 38.2951L30.0451 38.3447L30.1237 38.3936L30.2023 38.4413L30.2814 38.4884L30.361 38.5346L30.4407 38.5798L30.5208 38.6243L30.6016 38.668L30.6824 38.7107L30.7635 38.7525L30.8449 38.7934L30.9269 38.8336L31.0088 38.8728L31.0914 38.9112L31.174 38.9487L31.2567 38.9853L31.34 39.021L31.4235 39.0559L31.507 39.0899L31.5909 39.123L31.675 39.1551L31.7595 39.1865L31.8437 39.217L31.9286 39.2466L32.0133 39.2751L32.0982 39.303L32.1835 39.3299L32.2689 39.356L32.3542 39.381L32.4398 39.4053L32.5256 39.4285L32.6114 39.4511L32.6973 39.4725L32.7832 39.4933L32.8692 39.513L32.9553 39.5319L33.0416 39.55L33.1279 39.5671L33.2142 39.5834L33.3004 39.5987L33.3869 39.6133L33.4733 39.6268L33.5597 39.6396L33.6458 39.6514L33.7322 39.6623L33.8185 39.6725L33.9049 39.6818L33.9912 39.69L34.0775 39.6975L34.1636 39.7041L34.2496 39.7099L34.3357 39.7147L34.4215 39.7187L34.5072 39.7219L34.5932 39.7241L34.6786 39.7256L34.764 39.7262L34.8493 39.7259L34.9344 39.7249L35.0197 39.7228L35.1046 39.72L35.1891 39.7165L35.2736 39.7119L35.3583 39.7066L35.4422 39.7004L35.5263 39.6935L35.6099 39.6857L35.6935 39.6772L35.7768 39.6676L35.8597 39.6575L35.9427 39.6464L36.0252 39.6345L36.1073 39.6218L36.1896 39.6084L36.2713 39.5942L36.3528 39.5791L36.434 39.5632L36.515 39.5466L36.5954 39.5292L36.6755 39.5111L36.7555 39.4921L36.8352 39.4724L36.9144 39.4521L36.9933 39.4309L37.0718 39.409L37.1502 39.3861L37.228 39.3627L37.3051 39.3386L37.3826 39.3136L37.4591 39.2879L37.5354 39.2617L37.6112 39.2346L37.6866 39.2068L37.7618 39.1783L37.8364 39.1491L37.9105 39.1192L37.9842 39.0887L38.0576 39.0574L38.1306 39.0254L38.2027 38.9929L38.2749 38.9596L38.3463 38.9258L38.4171 38.8912L38.4877 38.856L38.5575 38.8202L38.6272 38.7837L38.6962 38.7465L38.7647 38.7088L38.8325 38.6705L38.9001 38.6315L38.9671 38.5919L39.0333 38.5517L39.0991 38.5109L39.1645 38.4695L39.2293 38.4277L39.2936 38.3852L39.3572 38.3422L39.4204 38.2985L39.4829 38.2543L39.5448 38.2097L39.6062 38.1644L39.667 38.1186L39.7272 38.0722L39.7868 38.0254L39.846 37.978L39.9043 37.9303L39.9622 37.882L40.0193 37.8331L40.0758 37.7838L40.1319 37.734L40.1873 37.6837L40.242 37.633L40.2959 37.5819L40.3495 37.5303L40.4023 37.4782L40.4546 37.4257L40.5061 37.3729L40.5569 37.3195L40.6071 37.2659L40.6569 37.2115L40.7056 37.1572L40.754 37.1022L40.8016 37.0468L40.8484 36.9913L40.8949 36.9351L40.9403 36.8788L40.9853 36.822L41.0296 36.765L41.0731 36.7076L41.1161 36.6497L41.1582 36.5919L41.1997 36.5333L41.2406 36.4746L41.2807 36.4158L41.3201 36.3563L41.359 36.2969L41.3968 36.2371L41.4342 36.177L41.4709 36.1167L41.5068 36.056L41.5421 35.9952L41.5766 35.9341L41.6104 35.8729L41.6436 35.8112L41.6759 35.7496L41.7076 35.6877L41.7387 35.6255L41.769 35.5633L41.7986 35.5005L41.8274 35.438L41.8555 35.3751L41.8829 35.3123L41.9097 35.249L41.9356 35.1858L41.9611 35.122L41.9855 35.0589L42.0095 34.9947L42.0325 34.9315L42.055 34.8674L42.0768 34.8032L42.0977 34.7393L42.118 34.6751L42.1376 34.611L42.1566 34.5463L42.1746 34.4824L42.1922 34.4174L42.2089 34.3536L42.2249 34.2888L42.2402 34.224L42.2548 34.1597L42.2687 34.0955L42.2819 34.0304L42.2944 33.9661L42.3062 33.9011L42.3172 33.837L42.3277 33.7725L42.3374 33.7078L42.3464 33.6432L42.3546 33.5787L42.3623 33.5145L42.3692 33.4505L42.3754 33.3859L42.381 33.3218L42.3858 33.2576L42.39 33.1936L42.3935 33.1297L42.3963 33.066L42.3983 33.0025L42.3998 32.9386L42.4007 32.8749L42.4009 32.8117L42.4003 32.7486L42.3991 32.6855L42.3972 32.6227L42.3947 32.5595L42.3914 32.4976L42.3876 32.4342L42.3832 32.3726L42.378 32.3106L42.3723 32.2482L42.3658 32.1865L42.3589 32.1254L42.3511 32.0634L42.3428 32.0027L42.3339 31.9416L42.3244 31.8814L42.3141 31.8206L42.3034 31.7603L42.2921 31.7005L42.2801 31.6409L42.2675 31.5811L42.2542 31.5221L42.2405 31.463L42.2261 31.4044L42.2112 31.3463L42.1955 31.2877L42.1796 31.2303L42.1628 31.1723L42.1456 31.1153L42.1278 31.0583L42.1094 31.0018L42.0904 30.9454L42.0708 30.8892L42.0509 30.8338L42.0303 30.7786L42.0091 30.7233L41.9875 30.6688L41.9652 30.614L41.9427 30.5606L41.9193 30.5065L41.8957 30.4534L41.8714 30.4007L41.8467 30.348L41.8215 30.2959L41.7958 30.244L41.7696 30.1925L41.7429 30.1416L41.7157 30.0909L41.6882 30.0407L41.66 29.9908L41.6313 29.9414L41.6025 29.8923L41.573 29.8438L41.543 29.7953L41.5127 29.7478L41.4819 29.7004L41.4507 29.6534L41.419 29.6067L41.3871 29.5608L41.3546 29.515L41.3217 29.4698L41.2885 29.4251L41.2547 29.3807L41.2209 29.3369L41.1863 29.2933L41.1515 29.2505L41.1164 29.2079L41.0809 29.1658L41.045 29.1241L41.0089 29.0831L40.9722 29.0424L40.9353 29.0022L40.898 28.9623L40.8605 28.9232L40.8225 28.8845L40.7842 28.846L40.7458 28.8084L40.7069 28.7711L40.6679 28.7343L40.6282 28.6978L40.5887 28.662L40.5487 28.6265L40.5085 28.5918L40.4678 28.5573L40.4271 28.5236L40.386 28.4902L40.3448 28.4574L40.3033 28.425L40.2614 28.393L40.2195 28.3618L40.1772 28.3309L40.1347 28.3006L40.0921 28.2709L40.0493 28.2414L40.0063 28.2127L39.963 28.1844L39.9195 28.1566L39.876 28.1294L39.832 28.1026L39.7881 28.0764L39.7441 28.0508L39.6998 28.0256L39.6552 28.0009L39.6107 27.9767L39.5661 27.953L39.5212 27.9299L39.4765 27.9074L39.4311 27.8851L39.3861 27.8636L39.3407 27.8427L39.2954 27.8221L39.2499 27.8021L39.2041 27.7825L39.1588 27.7637L39.1128 27.7453L39.0669 27.7273L39.0211 27.7099L38.9752 27.693L38.9293 27.6767L38.8832 27.6608L38.8371 27.6453L38.7912 27.6306L38.7449 27.6162L38.6987 27.6023L38.6528 27.5891L38.6063 27.5763L38.5603 27.5641L38.5141 27.5523L38.4679 27.5409L38.4216 27.5302L38.3756 27.5199L38.3293 27.5102L38.2832 27.5009L38.2373 27.4921L38.1914 27.4838L38.1452 27.476L38.0995 27.4688L38.0533 27.462L38.0078 27.4557L37.9619 27.4498L37.9162 27.4445L37.8709 27.4396L37.8252 27.4354L37.7799 27.4314L37.7346 27.428L37.6894 27.4251L37.6442 27.4226L37.5991 27.4207L37.5545 27.4192L37.5096 27.418L37.465 27.4174L37.4204 27.4173L37.3761 27.4177L37.3318 27.4184L37.2877 27.4196L37.2437 27.4214L37.2001 27.4235L37.1563 27.4261L37.113 27.429L37.0697 27.4324L37.0266 27.4364L36.9837 27.4407L36.9407 27.4454L36.8983 27.4505L36.8559 27.4561L36.8138 27.4622L36.7717 27.4687L36.7301 27.4754L36.6884 27.4826L36.6473 27.4903L36.606 27.4984L36.5652 27.5068L36.5244 27.5156L36.4841 27.5249Z" fill="#7AE7C7"/>
</svg>
