<svg width="1920" height="377" viewBox="0 0 1920 377" fill="none" xmlns="http://www.w3.org/2000/svg">
<g clip-path="url(#clip0_196_1147)">
<path fill-rule="evenodd" clip-rule="evenodd" d="M1951.47 24.8237C1951.88 24.8208 1952.29 24.8193 1952.69 24.8193C1953.1 24.8193 1953.5 24.8208 1953.91 24.8237L1953.47 86.8221C1953.21 86.8203 1952.95 86.8193 1952.69 86.8193C1952.43 86.8193 1952.17 86.8203 1951.92 86.8221L1951.47 24.8237ZM1959.97 24.9748C1960.78 25.0094 1961.59 25.0497 1962.4 25.0958L1958.86 86.995C1958.35 86.9657 1957.84 86.9401 1957.32 86.9182L1959.97 24.9748ZM1942.99 25.0958C1943.79 25.0497 1944.6 25.0094 1945.41 24.9748L1948.06 86.9182C1947.54 86.9401 1947.03 86.9657 1946.52 86.995L1942.99 25.0958ZM1968.46 25.551C1969.26 25.6263 1970.07 25.7074 1970.87 25.7941L1964.23 87.4369C1963.72 87.3821 1963.21 87.3309 1962.7 87.2833L1968.46 25.551ZM1934.51 25.7941C1935.31 25.7074 1936.12 25.6264 1936.93 25.5511L1942.68 87.2833C1942.17 87.3309 1941.66 87.3821 1941.15 87.4369L1934.51 25.7941ZM1976.91 26.5554C1977.71 26.6715 1978.52 26.7934 1979.32 26.9209L1969.56 88.1481C1969.05 88.0677 1968.55 87.9908 1968.04 87.9175L1976.91 26.5554ZM1926.07 26.921C1926.87 26.7934 1927.67 26.6716 1928.47 26.5554L1937.34 87.9176C1936.84 87.9908 1936.33 88.0677 1935.83 88.1481L1926.07 26.921ZM1985.31 27.9883C1986.11 28.1453 1986.9 28.3079 1987.7 28.4761L1974.83 89.1275C1974.34 89.0216 1973.83 88.9193 1973.33 88.8204L1985.31 27.9883ZM1917.69 28.4762C1918.48 28.3079 1919.28 28.1453 1920.07 27.9883L1932.05 88.8204C1931.55 88.9193 1931.05 89.0217 1930.55 89.1275L1917.69 28.4762ZM1993.63 29.8479C1994.42 30.0454 1995.21 30.2485 1995.99 30.4572L1980.05 90.3737C1979.56 90.2425 1979.06 90.1147 1978.57 89.9905L1993.63 29.8479ZM1909.39 30.4572C1910.18 30.2485 1910.96 30.0454 1911.75 29.8479L1926.82 89.9905C1926.32 90.1147 1925.82 90.2425 1925.33 90.3737L1909.39 30.4572ZM2001.85 32.13C2002.62 32.3677 2003.4 32.6108 2004.17 32.8593L1985.2 91.884C1984.71 91.7277 1984.22 91.5749 1983.73 91.4255L2001.85 32.13ZM1901.21 32.8594C1901.98 32.6108 1902.76 32.3677 1903.54 32.1301L1921.65 91.4255C1921.16 91.5749 1920.67 91.7277 1920.19 91.884L1901.21 32.8594ZM2009.94 34.8288C2010.7 35.1059 2011.46 35.3883 2012.22 35.6761L1990.26 93.6551C1989.78 93.4741 1989.3 93.2965 1988.82 93.1223L2009.94 34.8288ZM1893.16 35.6761C1893.92 35.3883 1894.68 35.1059 1895.45 34.8288L1916.56 93.1223C1916.08 93.2965 1915.6 93.4742 1915.12 93.6552L1893.16 35.6761ZM2017.88 37.9364C2018.63 38.252 2019.37 38.573 2020.12 38.8992L1995.23 95.6829C1994.76 95.4776 1994.29 95.2756 1993.82 95.077L2017.88 37.9364ZM1885.27 38.8992C1886.01 38.573 1886.76 38.2521 1887.51 37.9364L1911.57 95.077C1911.1 95.2757 1910.63 95.4776 1910.16 95.6829L1885.27 38.8992ZM2025.65 41.4437C2026.38 41.797 2027.11 42.1554 2027.83 42.519L2000.08 97.9622C1999.63 97.7332 1999.17 97.5074 1998.71 97.2849L2025.65 41.4437ZM1877.55 42.519C1878.28 42.1555 1879.01 41.797 1879.74 41.4437L1906.68 97.2849C1906.22 97.5074 1905.76 97.7332 1905.3 97.9622L1877.55 42.519ZM2033.22 45.3406C2033.94 45.7304 2034.65 46.1251 2035.35 46.5248L2004.82 100.487C2004.38 100.235 2003.93 99.9862 2003.48 99.7404L2033.22 45.3406ZM1870.03 46.5249C1870.74 46.1252 1871.45 45.7304 1872.16 45.3407L1901.9 99.7405C1901.45 99.9862 1901 100.235 1900.56 100.487L1870.03 46.5249ZM2040.59 49.6154C2041.28 50.0405 2041.97 50.4704 2042.66 50.9051L2009.43 103.251C2009 102.977 2008.57 102.705 2008.13 102.437L2040.59 49.6154ZM1862.73 50.9051C1863.41 50.4704 1864.1 50.0405 1864.79 49.6154L1897.25 102.437C1896.82 102.705 1896.38 102.977 1895.95 103.251L1862.73 50.9051ZM2047.73 54.2559C2048.4 54.7151 2049.07 55.179 2049.73 55.6475L2013.9 106.247C2013.48 105.951 2013.06 105.658 2012.64 105.367L2047.73 54.2559ZM1855.66 55.6476C1856.32 55.179 1856.98 54.7151 1857.65 54.2559L1892.75 105.367C1892.32 105.658 1891.9 105.951 1891.48 106.247L1855.66 55.6476ZM2054.62 59.2493C2055.27 59.7414 2055.91 60.2381 2056.55 60.7393L2018.21 109.466C2017.81 109.149 2017.4 108.835 2016.99 108.524L2054.62 59.2493ZM1848.84 60.7393C1849.47 60.2381 1850.11 59.7415 1850.76 59.2494L1888.39 108.524C1887.98 108.835 1887.58 109.149 1887.17 109.466L1848.84 60.7393ZM2061.25 64.5825C2061.87 65.1063 2062.49 65.6344 2063.1 66.1669L2022.35 112.9C2021.97 112.563 2021.58 112.229 2021.19 111.897L2061.25 64.5825ZM1842.29 66.167C1842.9 65.6345 1843.51 65.1063 1844.13 64.5826L1884.2 111.897C1883.8 112.229 1883.42 112.563 1883.03 112.9L1842.29 66.167ZM2067.61 70.2419C2068.2 70.796 2068.78 71.3543 2069.37 71.9169L2026.32 116.539C2025.95 116.183 2025.58 115.829 2025.21 115.479L2067.61 70.2419ZM1836.02 71.9169C1836.6 71.3544 1837.19 70.796 1837.78 70.2419L1880.18 115.479C1879.8 115.829 1879.43 116.183 1879.06 116.539L1836.02 71.9169ZM2073.66 76.2133C2074.23 76.7965 2074.78 77.3837 2075.34 77.9749L2030.1 120.373C2029.75 119.999 2029.4 119.628 2029.04 119.258L2073.66 76.2133ZM1830.04 77.9749C1830.6 77.3837 1831.16 76.7965 1831.72 76.2134L1876.34 119.258C1875.99 119.628 1875.63 119.999 1875.28 120.373L1830.04 77.9749ZM2079.41 82.4824C2079.95 83.0932 2080.47 83.7079 2081 84.3264L2033.68 124.393C2033.35 124.002 2033.02 123.613 2032.68 123.226L2079.41 82.4824ZM1824.39 84.3264C1824.91 83.7079 1825.44 83.0933 1825.97 82.4825L1872.7 123.226C1872.37 123.613 1872.03 124.002 1871.7 124.393L1824.39 84.3264ZM2084.84 89.0342C2085.34 89.6712 2085.84 90.3119 2086.33 90.9563L2037.06 128.587C2036.75 128.179 2036.43 127.774 2036.11 127.371L2084.84 89.0342ZM1819.05 90.9564C1819.54 90.312 1820.04 89.6712 1820.54 89.0343L1869.27 127.371C1868.95 127.774 1868.64 128.179 1868.33 128.587L1819.05 90.9564ZM2089.93 95.8532C2090.4 96.5149 2090.87 97.1801 2091.32 97.8489L2040.21 132.943C2039.92 132.521 2039.63 132.1 2039.33 131.682L2089.93 95.8532ZM1814.06 97.849C1814.52 97.1802 1814.98 96.5149 1815.45 95.8532L1866.05 131.682C1865.75 132.1 1865.46 132.521 1865.17 132.943L1814.06 97.849ZM2094.68 102.923C2095.11 103.608 2095.54 104.296 2095.97 104.988L2043.14 137.451C2042.88 137.015 2042.6 136.58 2042.33 136.148L2094.68 102.923ZM1809.42 104.988C1809.84 104.296 1810.27 103.608 1810.71 102.923L1863.05 136.148C1862.78 136.58 1862.51 137.015 1862.24 137.451L1809.42 104.988ZM2099.06 110.227C2099.46 110.933 2099.85 111.643 2100.24 112.356L2045.84 142.099C2045.59 141.65 2045.35 141.202 2045.09 140.757L2099.06 110.227ZM1805.14 112.356C1805.53 111.643 1805.93 110.933 1806.33 110.227L1860.29 140.757C1860.04 141.202 1859.79 141.65 1859.54 142.099L1805.14 112.356ZM2103.06 117.747C2103.43 118.473 2103.78 119.202 2104.14 119.935L2048.3 146.875C2048.07 146.414 2047.85 145.954 2047.62 145.497L2103.06 117.747ZM1801.25 119.935C1801.6 119.202 1801.96 118.473 1802.32 117.747L1857.76 145.497C1857.54 145.954 1857.31 146.414 1857.09 146.875L1801.25 119.935ZM2106.68 125.464C2107.01 126.208 2107.33 126.955 2107.64 127.704L2050.5 151.766C2050.31 151.294 2050.1 150.824 2049.9 150.356L2106.68 125.464ZM1797.74 127.704C1798.05 126.955 1798.38 126.208 1798.7 125.464L1855.49 150.356C1855.28 150.824 1855.08 151.294 1854.88 151.766L1797.74 127.704ZM2109.9 133.358C2110.19 134.117 2110.47 134.88 2110.75 135.644L2052.46 156.76C2052.28 156.279 2052.11 155.8 2051.93 155.322L2109.9 133.358ZM1794.63 135.645C1794.91 134.88 1795.19 134.117 1795.48 133.358L1853.46 155.322C1853.28 155.8 1853.1 156.279 1852.93 156.76L1794.63 135.645ZM2112.72 141.408C2112.97 142.181 2113.21 142.956 2113.45 143.734L2054.16 161.846C2054.01 161.357 2053.85 160.87 2053.7 160.384L2112.72 141.408ZM1791.93 143.734C1792.17 142.956 1792.41 142.181 1792.66 141.408L1851.69 160.384C1851.53 160.87 1851.38 161.357 1851.23 161.846L1791.93 143.734ZM2115.12 149.591C2115.33 150.375 2115.54 151.162 2115.73 151.951L2055.59 167.013C2055.47 166.517 2055.34 166.022 2055.21 165.529L2115.12 149.591ZM1789.65 151.951C1789.85 151.162 1790.05 150.376 1790.26 149.591L1850.18 165.529C1850.05 166.022 1849.92 166.517 1849.79 167.013L1789.65 151.951ZM2117.1 157.885C2117.27 158.678 2117.44 159.474 2117.59 160.271L2056.76 172.248C2056.66 171.746 2056.56 171.245 2056.45 170.746L2117.1 157.885ZM1787.79 160.271C1787.95 159.474 1788.11 158.678 1788.28 157.885L1848.93 170.746C1848.82 171.246 1848.72 171.746 1848.62 172.248L1787.79 160.271ZM2118.66 166.265C2118.79 167.065 2118.91 167.867 2119.03 168.67L2057.66 177.541C2057.59 177.034 2057.51 176.528 2057.43 176.024L2118.66 166.265ZM1786.36 168.671C1786.47 167.867 1786.6 167.065 1786.72 166.265L1847.95 176.024C1847.87 176.529 1847.79 177.034 1847.72 177.541L1786.36 168.671ZM2119.79 174.706C2119.87 175.511 2119.95 176.317 2120.03 177.124L2058.3 182.88C2058.25 182.37 2058.2 181.86 2058.14 181.352L2119.79 174.706ZM1785.35 177.124C1785.43 176.317 1785.51 175.511 1785.6 174.706L1847.24 181.352C1847.18 181.86 1847.13 182.37 1847.09 182.88L1785.35 177.124ZM2120.48 183.183C2120.53 183.99 2120.57 184.798 2120.61 185.607L2058.66 188.256C2058.64 187.742 2058.62 187.229 2058.59 186.718L2120.48 183.183ZM1784.78 185.607C1784.81 184.798 1784.85 183.99 1784.9 183.183L1846.8 186.718C1846.77 187.23 1846.74 187.742 1846.72 188.256L1784.78 185.607ZM2120.76 191.671C2120.76 192.077 2120.76 192.483 2120.76 192.889C2120.76 193.295 2120.76 193.701 2120.76 194.107L2058.76 193.665C2058.76 193.407 2058.76 193.148 2058.76 192.889C2058.76 192.735 2058.76 192.581 2058.76 192.427C2058.76 192.322 2058.76 192.217 2058.76 192.113L2120.76 191.671ZM1784.62 192.889C1784.62 192.483 1784.62 192.077 1784.63 191.671L1846.62 192.113C1846.62 192.371 1846.62 192.63 1846.62 192.889C1846.62 193.148 1846.62 193.407 1846.62 193.665L1784.63 194.107C1784.62 193.701 1784.62 193.295 1784.62 192.889ZM2120.61 200.171C2120.57 200.98 2120.53 201.788 2120.48 202.595L2058.59 199.06C2058.62 198.548 2058.64 198.036 2058.66 197.522L2120.61 200.171ZM1784.9 202.595C1784.85 201.788 1784.81 200.98 1784.78 200.171L1846.72 197.522C1846.74 198.036 1846.77 198.549 1846.8 199.06L1784.9 202.595ZM2120.03 208.654C2119.95 209.461 2119.87 210.267 2119.79 211.072L2058.14 204.426C2058.2 203.918 2058.25 203.408 2058.3 202.898L2120.03 208.654ZM1785.6 211.072C1785.51 210.267 1785.43 209.461 1785.35 208.654L1847.09 202.898C1847.13 203.408 1847.18 203.918 1847.24 204.426L1785.6 211.072ZM2119.03 217.107C2118.91 217.911 2118.79 218.713 2118.66 219.513L2057.43 209.754C2057.51 209.25 2057.59 208.744 2057.66 208.237L2119.03 217.107ZM1786.72 219.513C1786.6 218.713 1786.47 217.911 1786.36 217.108L1847.72 208.237C1847.79 208.744 1847.87 209.25 1847.95 209.754L1786.72 219.513ZM2117.59 225.507C2117.44 226.304 2117.27 227.1 2117.1 227.893L2056.45 215.032C2056.56 214.532 2056.66 214.032 2056.76 213.53L2117.59 225.507ZM1788.28 227.893C1788.11 227.1 1787.95 226.304 1787.79 225.507L1848.62 213.53C1848.72 214.032 1848.82 214.533 1848.93 215.032L1788.28 227.893ZM2115.73 233.827C2115.54 234.616 2115.33 235.402 2115.12 236.187L2055.21 220.249C2055.34 219.756 2055.47 219.261 2055.59 218.765L2115.73 233.827ZM1790.26 236.187C1790.05 235.403 1789.85 234.616 1789.65 233.827L1849.79 218.765C1849.92 219.261 1850.05 219.756 1850.18 220.249L1790.26 236.187ZM2113.45 242.044C2113.21 242.822 2112.97 243.597 2112.72 244.37L2053.7 225.394C2053.85 224.908 2054.01 224.421 2054.16 223.932L2113.45 242.044ZM1792.66 244.37C1792.41 243.597 1792.17 242.822 1791.93 242.044L1851.23 223.932C1851.38 224.421 1851.53 224.908 1851.69 225.394L1792.66 244.37ZM2110.75 250.133C2110.47 250.898 2110.19 251.661 2109.9 252.42L2051.93 230.456C2052.11 229.978 2052.28 229.499 2052.46 229.018L2110.75 250.133ZM1795.48 252.42C1795.19 251.661 1794.91 250.898 1794.63 250.134L1852.93 229.018C1853.1 229.499 1853.28 229.978 1853.46 230.456L1795.48 252.42ZM2107.64 258.074C2107.33 258.823 2107.01 259.57 2106.68 260.314L2049.9 235.422C2050.1 234.954 2050.31 234.484 2050.5 234.012L2107.64 258.074ZM1798.7 260.314C1798.38 259.57 1798.05 258.823 1797.74 258.074L1854.88 234.012C1855.08 234.484 1855.28 234.954 1855.49 235.422L1798.7 260.314ZM2104.14 265.843C2103.78 266.576 2103.43 267.305 2103.06 268.031L2047.62 240.281C2047.85 239.824 2048.07 239.364 2048.3 238.903L2104.14 265.843ZM1802.32 268.031C1801.96 267.305 1801.6 266.576 1801.25 265.843L1857.09 238.903C1857.31 239.365 1857.54 239.824 1857.76 240.282L1802.32 268.031ZM2100.24 273.422C2099.85 274.135 2099.46 274.845 2099.06 275.551L2045.09 245.021C2045.35 244.576 2045.59 244.128 2045.84 243.679L2100.24 273.422ZM1806.33 275.551C1805.93 274.845 1805.53 274.135 1805.14 273.422L1859.54 243.679C1859.79 244.128 1860.04 244.576 1860.29 245.021L1806.33 275.551ZM2095.97 280.79C2095.54 281.482 2095.11 282.17 2094.68 282.855L2042.33 249.63C2042.6 249.198 2042.88 248.763 2043.14 248.327L2095.97 280.79ZM1810.71 282.855C1810.27 282.17 1809.84 281.482 1809.42 280.79L1862.24 248.327C1862.51 248.763 1862.78 249.198 1863.05 249.63L1810.71 282.855ZM2091.32 287.929C2090.87 288.598 2090.4 289.263 2089.93 289.925L2039.33 254.096C2039.63 253.678 2039.92 253.257 2040.21 252.835L2091.32 287.929ZM1815.45 289.925C1814.98 289.263 1814.52 288.598 1814.06 287.929L1865.17 252.835C1865.46 253.257 1865.75 253.678 1866.05 254.096L1815.45 289.925ZM2086.33 294.822C2085.84 295.466 2085.34 296.107 2084.84 296.744L2036.11 258.407C2036.43 258.004 2036.75 257.599 2037.06 257.191L2086.33 294.822ZM1820.54 296.744C1820.04 296.107 1819.54 295.466 1819.05 294.822L1868.33 257.191C1868.64 257.599 1868.95 258.004 1869.27 258.407L1820.54 296.744ZM2081 301.452C2080.47 302.07 2079.95 302.685 2079.41 303.296L2032.68 262.552C2033.02 262.165 2033.35 261.776 2033.68 261.385L2081 301.452ZM1825.97 303.296C1825.44 302.685 1824.91 302.07 1824.39 301.452L1871.7 261.385C1872.03 261.776 1872.37 262.165 1872.7 262.552L1825.97 303.296ZM2075.34 307.803C2074.78 308.394 2074.23 308.982 2073.66 309.565L2029.04 266.52C2029.4 266.15 2029.75 265.779 2030.1 265.405L2075.34 307.803ZM1831.72 309.565C1831.16 308.982 1830.6 308.394 1830.04 307.803L1875.28 265.405C1875.63 265.779 1875.99 266.15 1876.34 266.52L1831.72 309.565ZM2069.37 313.861C2068.78 314.424 2068.2 314.982 2067.61 315.536L2025.21 270.299C2025.58 269.949 2025.95 269.595 2026.32 269.239L2069.37 313.861ZM1837.78 315.536C1837.19 314.982 1836.6 314.424 1836.02 313.861L1879.06 269.239C1879.43 269.595 1879.8 269.949 1880.18 270.299L1837.78 315.536ZM2063.1 319.611C2062.49 320.144 2061.87 320.672 2061.25 321.195L2021.19 273.881C2021.58 273.549 2021.97 273.215 2022.35 272.878L2063.1 319.611ZM1844.13 321.196C1843.51 320.672 1842.9 320.144 1842.29 319.611L1883.03 272.878C1883.42 273.215 1883.8 273.55 1884.2 273.881L1844.13 321.196ZM2056.55 325.039C2055.91 325.54 2055.27 326.037 2054.62 326.529L2016.99 277.254C2017.4 276.943 2017.81 276.629 2018.21 276.312L2056.55 325.039ZM1850.76 326.529C1850.11 326.037 1849.47 325.54 1848.84 325.039L1887.17 276.312C1887.58 276.629 1887.98 276.943 1888.39 277.254L1850.76 326.529ZM2049.73 330.13C2049.07 330.599 2048.4 331.063 2047.73 331.522L2012.64 280.411C2013.06 280.12 2013.48 279.827 2013.9 279.531L2049.73 330.13ZM1857.65 331.522C1856.98 331.063 1856.32 330.599 1855.66 330.131L1891.48 279.531C1891.9 279.827 1892.32 280.121 1892.75 280.411L1857.65 331.522ZM2042.66 334.873C2041.97 335.308 2041.28 335.738 2040.59 336.163L2008.13 283.341C2008.57 283.073 2009 282.801 2009.43 282.527L2042.66 334.873ZM1864.79 336.163C1864.1 335.738 1863.41 335.308 1862.73 334.873L1895.95 282.527C1896.38 282.801 1896.82 283.073 1897.25 283.341L1864.79 336.163ZM2035.35 339.253C2034.65 339.653 2033.94 340.048 2033.22 340.437L2003.48 286.038C2003.93 285.792 2004.38 285.543 2004.82 285.291L2035.35 339.253ZM1872.16 340.437C1871.45 340.048 1870.74 339.653 1870.03 339.253L1900.56 285.291C1901 285.543 1901.45 285.792 1901.9 286.038L1872.16 340.437ZM2027.83 343.259C2027.11 343.623 2026.38 343.981 2025.65 344.334L1998.71 288.493C1999.17 288.271 1999.63 288.045 2000.08 287.816L2027.83 343.259ZM1879.74 344.334C1879.01 343.981 1878.28 343.623 1877.55 343.259L1905.3 287.816C1905.76 288.045 1906.22 288.271 1906.68 288.493L1879.74 344.334ZM2020.12 346.879C2019.37 347.205 2018.63 347.526 2017.88 347.842L1993.82 290.701C1994.29 290.502 1994.76 290.3 1995.23 290.095L2020.12 346.879ZM1887.51 347.842C1886.76 347.526 1886.01 347.205 1885.27 346.879L1910.16 290.095C1910.63 290.3 1911.1 290.502 1911.57 290.701L1887.51 347.842ZM2012.22 350.102C2011.46 350.39 2010.7 350.672 2009.94 350.949L1988.82 292.656C1989.3 292.482 1989.78 292.304 1990.26 292.123L2012.22 350.102ZM1895.45 350.949C1894.68 350.672 1893.92 350.39 1893.16 350.102L1915.12 292.123C1915.6 292.304 1916.08 292.482 1916.56 292.656L1895.45 350.949ZM2004.17 352.919C2003.4 353.167 2002.62 353.41 2001.85 353.648L1983.73 294.353C1984.22 294.203 1984.71 294.05 1985.2 293.894L2004.17 352.919ZM1903.54 353.648C1902.76 353.41 1901.98 353.167 1901.21 352.919L1920.19 293.894C1920.67 294.05 1921.16 294.203 1921.65 294.353L1903.54 353.648ZM1995.99 355.321C1995.21 355.53 1994.42 355.733 1993.63 355.93L1978.57 295.788C1979.06 295.663 1979.56 295.536 1980.05 295.404L1995.99 355.321ZM1911.75 355.93C1910.96 355.733 1910.18 355.53 1909.39 355.321L1925.33 295.404C1925.82 295.536 1926.32 295.663 1926.82 295.788L1911.75 355.93ZM1987.7 357.302C1986.9 357.47 1986.11 357.633 1985.31 357.79L1973.33 296.958C1973.83 296.859 1974.34 296.756 1974.83 296.651L1987.7 357.302ZM1920.07 357.79C1919.28 357.633 1918.48 357.47 1917.69 357.302L1930.55 296.651C1931.05 296.756 1931.55 296.859 1932.05 296.958L1920.07 357.79ZM1979.32 358.857C1978.52 358.985 1977.71 359.106 1976.91 359.223L1968.04 297.86C1968.55 297.787 1969.05 297.71 1969.56 297.63L1979.32 358.857ZM1928.47 359.223C1927.67 359.107 1926.87 358.985 1926.07 358.857L1935.83 297.63C1936.33 297.71 1936.84 297.787 1937.34 297.861L1928.47 359.223ZM1936.93 360.227C1936.12 360.152 1935.31 360.071 1934.51 359.984L1941.15 298.341C1941.66 298.396 1942.17 298.447 1942.68 298.495L1936.93 360.227ZM1970.87 359.984C1970.07 360.071 1969.26 360.152 1968.46 360.227L1962.7 298.495C1963.21 298.447 1963.72 298.396 1964.23 298.341L1970.87 359.984ZM1962.4 360.682C1961.59 360.728 1960.78 360.769 1959.97 360.803L1957.32 298.86C1957.84 298.838 1958.35 298.812 1958.86 298.783L1962.4 360.682ZM1945.41 360.803C1944.6 360.769 1943.79 360.728 1942.99 360.682L1946.52 298.783C1947.03 298.812 1947.55 298.838 1948.06 298.86L1945.41 360.803ZM1952.69 360.959C1952.29 360.959 1951.88 360.957 1951.47 360.954L1951.92 298.956C1952.17 298.958 1952.43 298.959 1952.69 298.959C1952.83 298.959 1952.96 298.958 1953.09 298.958C1953.22 298.958 1953.34 298.957 1953.47 298.956L1953.91 360.954C1953.5 360.957 1953.1 360.959 1952.69 360.959Z" fill="#182F35"/>
<g clip-path="url(#clip1_196_1147)">
<path d="M582.283 1.63957C582.283 2.54507 583.019 3.27913 583.927 3.27913C584.835 3.27913 585.571 2.54507 585.571 1.63957C585.571 0.734059 584.835 -3.21766e-08 583.927 -7.18685e-08C583.019 -1.1156e-07 582.283 0.734059 582.283 1.63957Z" fill="#7AE7C7"/>
<path d="M583.927 20.7044C583.017 20.7044 582.283 19.9727 582.283 19.0649C582.283 18.157 583.017 17.4253 583.927 17.4253C584.838 17.4253 585.571 18.157 585.571 19.0649C585.571 19.9727 584.838 20.7044 583.927 20.7044V20.7044Z" fill="#7AE7C7"/>
<path d="M583.927 38.1165C583.017 38.1165 582.283 37.3848 582.283 36.477C582.283 35.5691 583.017 34.8374 583.927 34.8374C584.838 34.8374 585.571 35.5691 585.571 36.477C585.571 37.3848 584.838 38.1165 583.927 38.1165Z" fill="#7AE7C7"/>
<path d="M582.283 53.8891C582.283 54.7946 583.019 55.5286 583.927 55.5286C584.835 55.5286 585.571 54.7946 585.571 53.8891C585.571 52.9836 584.835 52.2495 583.927 52.2495C583.019 52.2495 582.283 52.9836 582.283 53.8891Z" fill="#7AE7C7"/>
<path d="M582.283 71.3007C582.283 72.2062 583.019 72.9403 583.927 72.9403C584.835 72.9403 585.571 72.2062 585.571 71.3007C585.571 70.3952 584.835 69.6611 583.927 69.6611C583.019 69.6611 582.283 70.3952 582.283 71.3007Z" fill="white"/>
<path d="M583.927 90.3661C583.017 90.3661 582.283 89.6343 582.283 88.7265C582.283 87.8186 583.017 87.0869 583.927 87.0869C584.838 87.0869 585.571 87.8186 585.571 88.7265C585.571 89.6343 584.838 90.3661 583.927 90.3661Z" fill="#7AE7C7"/>
<path d="M582.283 106.138C582.283 107.044 583.019 107.778 583.927 107.778C584.835 107.778 585.571 107.044 585.571 106.138C585.571 105.233 584.835 104.499 583.927 104.499C583.019 104.499 582.283 105.233 582.283 106.138Z" fill="#7AE7C7"/>
<path d="M564.605 3.2928C563.694 3.2928 562.961 2.5611 562.961 1.65324C562.961 0.745379 563.694 0.0136718 564.605 0.0136718C565.515 0.0136718 566.249 0.745379 566.249 1.65324C566.249 2.5611 565.515 3.2928 564.605 3.2928Z" fill="white"/>
<path d="M564.605 20.7044C563.694 20.7044 562.961 19.9727 562.961 19.0649C562.961 18.157 563.694 17.4253 564.605 17.4253C565.515 17.4253 566.249 18.157 566.249 19.0649C566.249 19.9727 565.515 20.7044 564.605 20.7044V20.7044Z" fill="#7AE7C7"/>
<path d="M564.605 38.1165C563.694 38.1165 562.961 37.3848 562.961 36.477C562.961 35.5691 563.694 34.8374 564.605 34.8374C565.515 34.8374 566.249 35.5691 566.249 36.477C566.249 37.3848 565.515 38.1165 564.605 38.1165Z" fill="#7AE7C7"/>
<path d="M564.605 55.5286C563.694 55.5286 562.961 54.7969 562.961 53.8891C562.961 52.9812 563.694 52.2495 564.605 52.2495C565.515 52.2495 566.249 52.9812 566.249 53.8891C566.249 54.7969 565.515 55.5286 564.605 55.5286Z" fill="#7AE7C7"/>
<path d="M564.605 72.9403C563.694 72.9403 562.961 72.2086 562.961 71.3007C562.961 70.3928 563.694 69.6611 564.605 69.6611C565.515 69.6611 566.249 70.3928 566.249 71.3007C566.249 72.2086 565.515 72.9403 564.605 72.9403Z" fill="#7AE7C7"/>
<path d="M564.605 90.3661C563.694 90.3661 562.961 89.6343 562.961 88.7265C562.961 87.8186 563.694 87.0869 564.605 87.0869C565.515 87.0869 566.249 87.8186 566.249 88.7265C566.249 89.6343 565.515 90.3661 564.605 90.3661Z" fill="#7AE7C7"/>
<path d="M564.605 107.778C563.694 107.778 562.961 107.046 562.961 106.138C562.961 105.23 563.694 104.499 564.605 104.499C565.515 104.499 566.249 105.23 566.249 106.138C566.249 107.046 565.515 107.778 564.605 107.778Z" fill="#7AE7C7"/>
<path d="M543.625 1.63957C543.625 2.54507 544.361 3.27913 545.269 3.27913C546.177 3.27913 546.913 2.54507 546.913 1.63957C546.913 0.734059 546.177 -3.21766e-08 545.269 -7.18684e-08C544.361 -1.1156e-07 543.625 0.734059 543.625 1.63957Z" fill="#7AE7C7"/>
<path d="M545.269 20.7044C544.359 20.7044 543.625 19.9727 543.625 19.0649C543.625 18.157 544.359 17.4253 545.269 17.4253C546.179 17.4253 546.913 18.157 546.913 19.0649C546.913 19.9727 546.179 20.7044 545.269 20.7044V20.7044Z" fill="#7AE7C7"/>
<path d="M545.269 38.1165C544.359 38.1165 543.625 37.3848 543.625 36.477C543.625 35.5691 544.359 34.8374 545.269 34.8374C546.179 34.8374 546.913 35.5691 546.913 36.477C546.913 37.3848 546.179 38.1165 545.269 38.1165Z" fill="white"/>
<path d="M543.625 53.8891C543.625 54.7946 544.361 55.5286 545.269 55.5286C546.177 55.5286 546.913 54.7946 546.913 53.8891C546.913 52.9836 546.177 52.2495 545.269 52.2495C544.361 52.2495 543.625 52.9836 543.625 53.8891Z" fill="#7AE7C7"/>
<path d="M543.625 71.3007C543.625 72.2062 544.361 72.9403 545.269 72.9403C546.177 72.9403 546.913 72.2062 546.913 71.3007C546.913 70.3952 546.177 69.6611 545.269 69.6611C544.361 69.6611 543.625 70.3952 543.625 71.3007Z" fill="#7AE7C7"/>
<path d="M545.269 90.3661C544.359 90.3661 543.625 89.6343 543.625 88.7265C543.625 87.8186 544.359 87.0869 545.269 87.0869C546.179 87.0869 546.913 87.8186 546.913 88.7265C546.913 89.6343 546.179 90.3661 545.269 90.3661Z" fill="#7AE7C7"/>
<path d="M543.625 106.138C543.625 107.044 544.361 107.778 545.269 107.778C546.177 107.778 546.913 107.044 546.913 106.138C546.913 105.233 546.177 104.499 545.269 104.499C544.361 104.499 543.625 105.233 543.625 106.138Z" fill="#7AE7C7"/>
<path d="M525.947 3.2928C525.036 3.2928 524.302 2.5611 524.302 1.65324C524.302 0.745379 525.036 0.0136718 525.947 0.0136718C526.857 0.0136718 527.591 0.745379 527.591 1.65324C527.591 2.5611 526.857 3.2928 525.947 3.2928Z" fill="#7AE7C7"/>
<path d="M525.947 20.7044C525.036 20.7044 524.302 19.9727 524.302 19.0649C524.302 18.157 525.036 17.4253 525.947 17.4253C526.857 17.4253 527.591 18.157 527.591 19.0649C527.591 19.9727 526.857 20.7044 525.947 20.7044V20.7044Z" fill="#7AE7C7"/>
<path d="M525.947 38.1165C525.036 38.1165 524.302 37.3848 524.302 36.477C524.302 35.5691 525.036 34.8374 525.947 34.8374C526.857 34.8374 527.591 35.5691 527.591 36.477C527.591 37.3848 526.857 38.1165 525.947 38.1165Z" fill="#7AE7C7"/>
<path d="M525.947 55.5286C525.036 55.5286 524.302 54.7969 524.302 53.8891C524.302 52.9812 525.036 52.2495 525.947 52.2495C526.857 52.2495 527.591 52.9812 527.591 53.8891C527.591 54.7969 526.857 55.5286 525.947 55.5286Z" fill="#7AE7C7"/>
<path d="M525.947 72.9403C525.036 72.9403 524.302 72.2086 524.302 71.3007C524.302 70.3928 525.036 69.6611 525.947 69.6611C526.857 69.6611 527.591 70.3928 527.591 71.3007C527.591 72.2086 526.857 72.9403 525.947 72.9403Z" fill="white"/>
<path d="M525.947 90.3661C525.036 90.3661 524.302 89.6343 524.302 88.7265C524.302 87.8186 525.036 87.0869 525.947 87.0869C526.857 87.0869 527.591 87.8186 527.591 88.7265C527.591 89.6343 526.857 90.3661 525.947 90.3661Z" fill="#7AE7C7"/>
<path d="M525.947 107.778C525.036 107.778 524.302 107.046 524.302 106.138C524.302 105.23 525.036 104.499 525.947 104.499C526.857 104.499 527.591 105.23 527.591 106.138C527.591 107.046 526.857 107.778 525.947 107.778Z" fill="#7AE7C7"/>
<path d="M504.98 1.63957C504.98 2.54507 505.716 3.27913 506.624 3.27913C507.532 3.27913 508.269 2.54507 508.269 1.63957C508.269 0.734059 507.532 -3.21766e-08 506.624 -7.18685e-08C505.716 -1.1156e-07 504.98 0.734059 504.98 1.63957Z" fill="#7AE7C7"/>
<path d="M506.624 20.7044C505.714 20.7044 504.98 19.9727 504.98 19.0649C504.98 18.157 505.714 17.4253 506.624 17.4253C507.535 17.4253 508.269 18.157 508.269 19.0649C508.269 19.9727 507.535 20.7044 506.624 20.7044V20.7044Z" fill="#7AE7C7"/>
<path d="M506.624 38.1165C505.714 38.1165 504.98 37.3848 504.98 36.477C504.98 35.5691 505.714 34.8374 506.624 34.8374C507.535 34.8374 508.269 35.5691 508.269 36.477C508.269 37.3848 507.535 38.1165 506.624 38.1165Z" fill="#7AE7C7"/>
<path d="M504.98 53.8891C504.98 54.7946 505.716 55.5286 506.624 55.5286C507.532 55.5286 508.269 54.7946 508.269 53.8891C508.269 52.9836 507.532 52.2495 506.624 52.2495C505.716 52.2495 504.98 52.9836 504.98 53.8891Z" fill="#7AE7C7"/>
<path d="M504.98 71.3007C504.98 72.2062 505.716 72.9403 506.624 72.9403C507.532 72.9403 508.269 72.2062 508.269 71.3007C508.269 70.3952 507.532 69.6611 506.624 69.6611C505.716 69.6611 504.98 70.3952 504.98 71.3007Z" fill="#7AE7C7"/>
<path d="M506.624 90.3661C505.714 90.3661 504.98 89.6343 504.98 88.7265C504.98 87.8186 505.714 87.0869 506.624 87.0869C507.535 87.0869 508.269 87.8186 508.269 88.7265C508.269 89.6343 507.535 90.3661 506.624 90.3661Z" fill="#7AE7C7"/>
<path d="M504.98 106.138C504.98 107.044 505.716 107.778 506.624 107.778C507.532 107.778 508.269 107.044 508.269 106.138C508.269 105.233 507.532 104.499 506.624 104.499C505.716 104.499 504.98 105.233 504.98 106.138Z" fill="#7AE7C7"/>
<path d="M485.658 1.63957C485.658 2.54507 486.394 3.27913 487.302 3.27913C488.21 3.27913 488.946 2.54507 488.946 1.63957C488.946 0.734059 488.21 -3.21765e-08 487.302 -7.18682e-08C486.394 -1.1156e-07 485.658 0.734059 485.658 1.63957Z" fill="#7AE7C7"/>
<path d="M487.302 20.7044C486.392 20.7044 485.658 19.9727 485.658 19.0649C485.658 18.157 486.392 17.4253 487.302 17.4253C488.213 17.4253 488.946 18.157 488.946 19.0649C488.946 19.9727 488.213 20.7044 487.302 20.7044V20.7044Z" fill="#7AE7C7"/>
<path d="M487.302 38.1165C486.392 38.1165 485.658 37.3848 485.658 36.477C485.658 35.5691 486.392 34.8374 487.302 34.8374C488.213 34.8374 488.946 35.5691 488.946 36.477C488.946 37.3848 488.213 38.1165 487.302 38.1165Z" fill="#7AE7C7"/>
<path d="M485.658 53.8891C485.658 54.7946 486.394 55.5286 487.302 55.5286C488.21 55.5286 488.946 54.7946 488.946 53.8891C488.946 52.9836 488.21 52.2495 487.302 52.2495C486.394 52.2495 485.658 52.9836 485.658 53.8891Z" fill="white"/>
<path d="M485.658 71.3007C485.658 72.2062 486.394 72.9403 487.302 72.9403C488.21 72.9403 488.946 72.2062 488.946 71.3007C488.946 70.3952 488.21 69.6611 487.302 69.6611C486.394 69.6611 485.658 70.3952 485.658 71.3007Z" fill="#7AE7C7"/>
<path d="M487.302 90.3661C486.392 90.3661 485.658 89.6343 485.658 88.7265C485.658 87.8186 486.392 87.0869 487.302 87.0869C488.213 87.0869 488.946 87.8186 488.946 88.7265C488.946 89.6343 488.213 90.3661 487.302 90.3661Z" fill="#7AE7C7"/>
<path d="M485.658 106.138C485.658 107.044 486.394 107.778 487.302 107.778C488.21 107.778 488.946 107.044 488.946 106.138C488.946 105.233 488.21 104.499 487.302 104.499C486.394 104.499 485.658 105.233 485.658 106.138Z" fill="#7AE7C7"/>
<path d="M467.98 3.2928C467.069 3.2928 466.336 2.5611 466.336 1.65324C466.336 0.745379 467.069 0.0136718 467.98 0.0136718C468.89 0.0136718 469.624 0.745379 469.624 1.65324C469.624 2.5611 468.89 3.2928 467.98 3.2928Z" fill="#7AE7C7"/>
<path d="M467.98 20.7044C467.069 20.7044 466.336 19.9727 466.336 19.0649C466.336 18.157 467.069 17.4253 467.98 17.4253C468.89 17.4253 469.624 18.157 469.624 19.0649C469.624 19.9727 468.89 20.7044 467.98 20.7044V20.7044Z" fill="#7AE7C7"/>
<path d="M467.98 38.1165C467.069 38.1165 466.336 37.3848 466.336 36.477C466.336 35.5691 467.069 34.8374 467.98 34.8374C468.89 34.8374 469.624 35.5691 469.624 36.477C469.624 37.3848 468.89 38.1165 467.98 38.1165Z" fill="#7AE7C7"/>
<path d="M467.98 55.5286C467.069 55.5286 466.336 54.7969 466.336 53.8891C466.336 52.9812 467.069 52.2495 467.98 52.2495C468.89 52.2495 469.624 52.9812 469.624 53.8891C469.624 54.7969 468.89 55.5286 467.98 55.5286Z" fill="#7AE7C7"/>
<path d="M467.98 72.9403C467.069 72.9403 466.336 72.2086 466.336 71.3007C466.336 70.3928 467.069 69.6611 467.98 69.6611C468.89 69.6611 469.624 70.3928 469.624 71.3007C469.624 72.2086 468.89 72.9403 467.98 72.9403Z" fill="#7AE7C7"/>
<path d="M467.98 90.3661C467.069 90.3661 466.336 89.6343 466.336 88.7265C466.336 87.8186 467.069 87.0869 467.98 87.0869C468.89 87.0869 469.624 87.8186 469.624 88.7265C469.624 89.6343 468.89 90.3661 467.98 90.3661Z" fill="white"/>
<path d="M467.98 107.778C467.069 107.778 466.336 107.046 466.336 106.138C466.336 105.23 467.069 104.499 467.98 104.499C468.89 104.499 469.624 105.23 469.624 106.138C469.624 107.046 468.89 107.778 467.98 107.778Z" fill="#7AE7C7"/>
<path d="M447.013 1.63957C447.013 2.54507 447.75 3.27913 448.658 3.27913C449.566 3.27913 450.302 2.54507 450.302 1.63957C450.302 0.734059 449.566 -3.21764e-08 448.658 -7.18681e-08C447.75 -1.1156e-07 447.013 0.734059 447.013 1.63957Z" fill="#7AE7C7"/>
<path d="M448.658 20.7044C447.747 20.7044 447.013 19.9727 447.013 19.0649C447.013 18.157 447.747 17.4253 448.658 17.4253C449.568 17.4253 450.302 18.157 450.302 19.0649C450.302 19.9727 449.568 20.7044 448.658 20.7044V20.7044Z" fill="white"/>
<path d="M448.658 38.1165C447.747 38.1165 447.013 37.3848 447.013 36.477C447.013 35.5691 447.747 34.8374 448.658 34.8374C449.568 34.8374 450.302 35.5691 450.302 36.477C450.302 37.3848 449.568 38.1165 448.658 38.1165Z" fill="#7AE7C7"/>
<path d="M447.013 53.8891C447.013 54.7946 447.75 55.5286 448.658 55.5286C449.566 55.5286 450.302 54.7946 450.302 53.8891C450.302 52.9836 449.566 52.2495 448.658 52.2495C447.75 52.2495 447.013 52.9836 447.013 53.8891Z" fill="#7AE7C7"/>
<path d="M447.013 71.3007C447.013 72.2062 447.75 72.9403 448.658 72.9403C449.566 72.9403 450.302 72.2062 450.302 71.3007C450.302 70.3952 449.566 69.6611 448.658 69.6611C447.75 69.6611 447.013 70.3952 447.013 71.3007Z" fill="#7AE7C7"/>
<path d="M448.658 90.3661C447.747 90.3661 447.013 89.6343 447.013 88.7265C447.013 87.8186 447.747 87.0869 448.658 87.0869C449.568 87.0869 450.302 87.8186 450.302 88.7265C450.302 89.6343 449.568 90.3661 448.658 90.3661Z" fill="#7AE7C7"/>
<path d="M447.013 106.138C447.013 107.044 447.75 107.778 448.658 107.778C449.566 107.778 450.302 107.044 450.302 106.138C450.302 105.233 449.566 104.499 448.658 104.499C447.75 104.499 447.013 105.233 447.013 106.138Z" fill="#7AE7C7"/>
</g>
</g>
<defs>
<clipPath id="clip0_196_1147">
<rect width="1920" height="377" fill="white"/>
</clipPath>
<clipPath id="clip1_196_1147">
<rect width="107.778" height="138.571" fill="white" transform="translate(585.571) rotate(90)"/>
</clipPath>
</defs>
</svg>
