<svg width="98" height="126" viewBox="0 0 98 126" fill="none" xmlns="http://www.w3.org/2000/svg">
<path d="M1.5 3C2.32843 3 3 2.32843 3 1.5C3 0.671573 2.32843 0 1.5 0C0.671573 0 0 0.671573 0 1.5C0 2.32843 0.671573 3 1.5 3Z" fill="#7AE7C7"/>
<path d="M19 1.5C19 2.33058 18.3306 3 17.5 3C16.6694 3 16 2.33058 16 1.5C16 0.669421 16.6694 0 17.5 0C18.3306 0 19 0.669421 19 1.5Z" fill="#7AE7C7"/>
<path d="M35 1.5C35 2.33058 34.3306 3 33.5 3C32.6694 3 32 2.33058 32 1.5C32 0.669421 32.6694 0 33.5 0C34.3306 0 35 0.669421 35 1.5Z" fill="#7AE7C7"/>
<path d="M49.5 3C50.3284 3 51 2.32843 51 1.5C51 0.671573 50.3284 0 49.5 0C48.6716 0 48 0.671573 48 1.5C48 2.32843 48.6716 3 49.5 3Z" fill="#7AE7C7"/>
<path d="M64.5 3C65.3284 3 66 2.32843 66 1.5C66 0.671573 65.3284 0 64.5 0C63.6716 0 63 0.671573 63 1.5C63 2.32843 63.6716 3 64.5 3Z" fill="white"/>
<path d="M82 1.5C82 2.33058 81.3306 3 80.5 3C79.6694 3 79 2.33058 79 1.5C79 0.669421 79.6694 0 80.5 0C81.3306 0 82 0.669421 82 1.5Z" fill="#7AE7C7"/>
<path d="M96.5 3C97.3284 3 98 2.32843 98 1.5C98 0.671573 97.3284 0 96.5 0C95.6716 0 95 0.671573 95 1.5C95 2.32843 95.6716 3 96.5 3Z" fill="#7AE7C7"/>
<path d="M3 19.5C3 20.3306 2.33058 21 1.5 21C0.669421 21 0 20.3306 0 19.5C0 18.6694 0.669421 18 1.5 18C2.33058 18 3 18.6694 3 19.5Z" fill="white"/>
<path d="M19 19.5C19 20.3306 18.3306 21 17.5 21C16.6694 21 16 20.3306 16 19.5C16 18.6694 16.6694 18 17.5 18C18.3306 18 19 18.6694 19 19.5Z" fill="#7AE7C7"/>
<path d="M35 19.5C35 20.3306 34.3306 21 33.5 21C32.6694 21 32 20.3306 32 19.5C32 18.6694 32.6694 18 33.5 18C34.3306 18 35 18.6694 35 19.5Z" fill="#7AE7C7"/>
<path d="M51 19.5C51 20.3306 50.3306 21 49.5 21C48.6694 21 48 20.3306 48 19.5C48 18.6694 48.6694 18 49.5 18C50.3306 18 51 18.6694 51 19.5Z" fill="#7AE7C7"/>
<path d="M66 19.5C66 20.3306 65.3306 21 64.5 21C63.6694 21 63 20.3306 63 19.5C63 18.6694 63.6694 18 64.5 18C65.3306 18 66 18.6694 66 19.5Z" fill="#7AE7C7"/>
<path d="M82 19.5C82 20.3306 81.3306 21 80.5 21C79.6694 21 79 20.3306 79 19.5C79 18.6694 79.6694 18 80.5 18C81.3306 18 82 18.6694 82 19.5Z" fill="#7AE7C7"/>
<path d="M98 19.5C98 20.3306 97.3306 21 96.5 21C95.6694 21 95 20.3306 95 19.5C95 18.6694 95.6694 18 96.5 18C97.3306 18 98 18.6694 98 19.5Z" fill="#7AE7C7"/>
<path d="M1.5 38C2.32843 38 3 37.3284 3 36.5C3 35.6716 2.32843 35 1.5 35C0.671573 35 0 35.6716 0 36.5C0 37.3284 0.671573 38 1.5 38Z" fill="#7AE7C7"/>
<path d="M19 36.5C19 37.3306 18.3306 38 17.5 38C16.6694 38 16 37.3306 16 36.5C16 35.6694 16.6694 35 17.5 35C18.3306 35 19 35.6694 19 36.5Z" fill="#7AE7C7"/>
<path d="M35 36.5C35 37.3306 34.3306 38 33.5 38C32.6694 38 32 37.3306 32 36.5C32 35.6694 32.6694 35 33.5 35C34.3306 35 35 35.6694 35 36.5Z" fill="white"/>
<path d="M49.5 38C50.3284 38 51 37.3284 51 36.5C51 35.6716 50.3284 35 49.5 35C48.6716 35 48 35.6716 48 36.5C48 37.3284 48.6716 38 49.5 38Z" fill="#7AE7C7"/>
<path d="M64.5 38C65.3284 38 66 37.3284 66 36.5C66 35.6716 65.3284 35 64.5 35C63.6716 35 63 35.6716 63 36.5C63 37.3284 63.6716 38 64.5 38Z" fill="#7AE7C7"/>
<path d="M82 36.5C82 37.3306 81.3306 38 80.5 38C79.6694 38 79 37.3306 79 36.5C79 35.6694 79.6694 35 80.5 35C81.3306 35 82 35.6694 82 36.5Z" fill="#7AE7C7"/>
<path d="M96.5 38C97.3284 38 98 37.3284 98 36.5C98 35.6716 97.3284 35 96.5 35C95.6716 35 95 35.6716 95 36.5C95 37.3284 95.6716 38 96.5 38Z" fill="#7AE7C7"/>
<path d="M3 54.5C3 55.3306 2.33058 56 1.5 56C0.669421 56 0 55.3306 0 54.5C0 53.6694 0.669421 53 1.5 53C2.33058 53 3 53.6694 3 54.5Z" fill="#7AE7C7"/>
<path d="M19 54.5C19 55.3306 18.3306 56 17.5 56C16.6694 56 16 55.3306 16 54.5C16 53.6694 16.6694 53 17.5 53C18.3306 53 19 53.6694 19 54.5Z" fill="#7AE7C7"/>
<path d="M35 54.5C35 55.3306 34.3306 56 33.5 56C32.6694 56 32 55.3306 32 54.5C32 53.6694 32.6694 53 33.5 53C34.3306 53 35 53.6694 35 54.5Z" fill="#7AE7C7"/>
<path d="M51 54.5C51 55.3306 50.3306 56 49.5 56C48.6694 56 48 55.3306 48 54.5C48 53.6694 48.6694 53 49.5 53C50.3306 53 51 53.6694 51 54.5Z" fill="#7AE7C7"/>
<path d="M66 54.5C66 55.3306 65.3306 56 64.5 56C63.6694 56 63 55.3306 63 54.5C63 53.6694 63.6694 53 64.5 53C65.3306 53 66 53.6694 66 54.5Z" fill="white"/>
<path d="M82 54.5C82 55.3306 81.3306 56 80.5 56C79.6694 56 79 55.3306 79 54.5C79 53.6694 79.6694 53 80.5 53C81.3306 53 82 53.6694 82 54.5Z" fill="#7AE7C7"/>
<path d="M98 54.5C98 55.3306 97.3306 56 96.5 56C95.6694 56 95 55.3306 95 54.5C95 53.6694 95.6694 53 96.5 53C97.3306 53 98 53.6694 98 54.5Z" fill="#7AE7C7"/>
<path d="M1.5 73C2.32843 73 3 72.3284 3 71.5C3 70.6716 2.32843 70 1.5 70C0.671573 70 0 70.6716 0 71.5C0 72.3284 0.671573 73 1.5 73Z" fill="#7AE7C7"/>
<path d="M19 71.5C19 72.3306 18.3306 73 17.5 73C16.6694 73 16 72.3306 16 71.5C16 70.6694 16.6694 70 17.5 70C18.3306 70 19 70.6694 19 71.5Z" fill="#7AE7C7"/>
<path d="M35 71.5C35 72.3306 34.3306 73 33.5 73C32.6694 73 32 72.3306 32 71.5C32 70.6694 32.6694 70 33.5 70C34.3306 70 35 70.6694 35 71.5Z" fill="#7AE7C7"/>
<path d="M49.5 73C50.3284 73 51 72.3284 51 71.5C51 70.6716 50.3284 70 49.5 70C48.6716 70 48 70.6716 48 71.5C48 72.3284 48.6716 73 49.5 73Z" fill="#7AE7C7"/>
<path d="M64.5 73C65.3284 73 66 72.3284 66 71.5C66 70.6716 65.3284 70 64.5 70C63.6716 70 63 70.6716 63 71.5C63 72.3284 63.6716 73 64.5 73Z" fill="#7AE7C7"/>
<path d="M82 71.5C82 72.3306 81.3306 73 80.5 73C79.6694 73 79 72.3306 79 71.5C79 70.6694 79.6694 70 80.5 70C81.3306 70 82 70.6694 82 71.5Z" fill="#7AE7C7"/>
<path d="M96.5 73C97.3284 73 98 72.3284 98 71.5C98 70.6716 97.3284 70 96.5 70C95.6716 70 95 70.6716 95 71.5C95 72.3284 95.6716 73 96.5 73Z" fill="#7AE7C7"/>
<path d="M1.5 91C2.32843 91 3 90.3284 3 89.5C3 88.6716 2.32843 88 1.5 88C0.671573 88 0 88.6716 0 89.5C0 90.3284 0.671573 91 1.5 91Z" fill="#7AE7C7"/>
<path d="M19 89.5C19 90.3306 18.3306 91 17.5 91C16.6694 91 16 90.3306 16 89.5C16 88.6694 16.6694 88 17.5 88C18.3306 88 19 88.6694 19 89.5Z" fill="#7AE7C7"/>
<path d="M35 89.5C35 90.3306 34.3306 91 33.5 91C32.6694 91 32 90.3306 32 89.5C32 88.6694 32.6694 88 33.5 88C34.3306 88 35 88.6694 35 89.5Z" fill="#7AE7C7"/>
<path d="M49.5 91C50.3284 91 51 90.3284 51 89.5C51 88.6716 50.3284 88 49.5 88C48.6716 88 48 88.6716 48 89.5C48 90.3284 48.6716 91 49.5 91Z" fill="white"/>
<path d="M64.5 91C65.3284 91 66 90.3284 66 89.5C66 88.6716 65.3284 88 64.5 88C63.6716 88 63 88.6716 63 89.5C63 90.3284 63.6716 91 64.5 91Z" fill="#7AE7C7"/>
<path d="M82 89.5C82 90.3306 81.3306 91 80.5 91C79.6694 91 79 90.3306 79 89.5C79 88.6694 79.6694 88 80.5 88C81.3306 88 82 88.6694 82 89.5Z" fill="#7AE7C7"/>
<path d="M96.5 91C97.3284 91 98 90.3284 98 89.5C98 88.6716 97.3284 88 96.5 88C95.6716 88 95 88.6716 95 89.5C95 90.3284 95.6716 91 96.5 91Z" fill="#7AE7C7"/>
<path d="M3 106.5C3 107.331 2.33058 108 1.5 108C0.669421 108 0 107.331 0 106.5C0 105.669 0.669421 105 1.5 105C2.33058 105 3 105.669 3 106.5Z" fill="#7AE7C7"/>
<path d="M19 106.5C19 107.331 18.3306 108 17.5 108C16.6694 108 16 107.331 16 106.5C16 105.669 16.6694 105 17.5 105C18.3306 105 19 105.669 19 106.5Z" fill="#7AE7C7"/>
<path d="M35 106.5C35 107.331 34.3306 108 33.5 108C32.6694 108 32 107.331 32 106.5C32 105.669 32.6694 105 33.5 105C34.3306 105 35 105.669 35 106.5Z" fill="#7AE7C7"/>
<path d="M51 106.5C51 107.331 50.3306 108 49.5 108C48.6694 108 48 107.331 48 106.5C48 105.669 48.6694 105 49.5 105C50.3306 105 51 105.669 51 106.5Z" fill="#7AE7C7"/>
<path d="M66 106.5C66 107.331 65.3306 108 64.5 108C63.6694 108 63 107.331 63 106.5C63 105.669 63.6694 105 64.5 105C65.3306 105 66 105.669 66 106.5Z" fill="#7AE7C7"/>
<path d="M82 106.5C82 107.331 81.3306 108 80.5 108C79.6694 108 79 107.331 79 106.5C79 105.669 79.6694 105 80.5 105C81.3306 105 82 105.669 82 106.5Z" fill="white"/>
<path d="M98 106.5C98 107.331 97.3306 108 96.5 108C95.6694 108 95 107.331 95 106.5C95 105.669 95.6694 105 96.5 105C97.3306 105 98 105.669 98 106.5Z" fill="#7AE7C7"/>
<path d="M1.5 126C2.32843 126 3 125.328 3 124.5C3 123.672 2.32843 123 1.5 123C0.671573 123 0 123.672 0 124.5C0 125.328 0.671573 126 1.5 126Z" fill="#7AE7C7"/>
<path d="M19 124.5C19 125.331 18.3306 126 17.5 126C16.6694 126 16 125.331 16 124.5C16 123.669 16.6694 123 17.5 123C18.3306 123 19 123.669 19 124.5Z" fill="white"/>
<path d="M35 124.5C35 125.331 34.3306 126 33.5 126C32.6694 126 32 125.331 32 124.5C32 123.669 32.6694 123 33.5 123C34.3306 123 35 123.669 35 124.5Z" fill="#7AE7C7"/>
<path d="M49.5 126C50.3284 126 51 125.328 51 124.5C51 123.672 50.3284 123 49.5 123C48.6716 123 48 123.672 48 124.5C48 125.328 48.6716 126 49.5 126Z" fill="#7AE7C7"/>
<path d="M64.5 126C65.3284 126 66 125.328 66 124.5C66 123.672 65.3284 123 64.5 123C63.6716 123 63 123.672 63 124.5C63 125.328 63.6716 126 64.5 126Z" fill="#7AE7C7"/>
<path d="M82 124.5C82 125.331 81.3306 126 80.5 126C79.6694 126 79 125.331 79 124.5C79 123.669 79.6694 123 80.5 123C81.3306 123 82 123.669 82 124.5Z" fill="#7AE7C7"/>
<path d="M96.5 126C97.3284 126 98 125.328 98 124.5C98 123.672 97.3284 123 96.5 123C95.6716 123 95 123.672 95 124.5C95 125.328 95.6716 126 96.5 126Z" fill="#7AE7C7"/>
</svg>
