<svg width="155" height="62" viewBox="0 0 155 62" fill="none" xmlns="http://www.w3.org/2000/svg">
<path d="M7.31114 62C6.5302 62 5.95124 61.973 5.57424 61.919C1.85808 61.2166 0 59.5551 0 56.9346C0 54.8004 1.38683 52.4231 4.16048 49.8026C9.95015 44.1564 19.7656 39.1046 33.607 34.6471C34.6303 34.3229 35.1419 34.1338 35.1419 34.0797C35.1419 34.0527 35.0881 33.9987 34.9804 33.9177C34.8726 33.8366 34.6841 33.7015 34.4148 33.5124C33.5801 32.9181 32.3279 32.2562 30.6583 31.5268C28.9887 30.7704 26.242 29.6492 22.4181 28.1634C16.2245 25.8671 13.1277 23.2601 13.1277 20.3425C13.1277 15.3176 18.123 10.1307 28.1135 4.7817C33.5801 2.05316 37.5924 0.58083 40.1507 0.364708C42.7089 0.121571 44.3111 0 44.9574 0C48.1889 0 50.4509 0.850982 51.7435 2.55294C52.2012 3.33638 52.4301 4.14684 52.4301 4.98432C52.4301 5.60567 52.2955 6.24052 52.0262 6.88889C51.8916 7.15904 51.7435 7.29412 51.5819 7.29412C51.5011 7.29412 51.4607 7.21307 51.4607 7.05098V6.92942C51.5415 6.2 51.5819 5.61917 51.5819 5.18693C51.5819 4.61961 51.4742 4.11983 51.2587 3.68759C50.774 2.74205 49.8854 2.05316 48.5928 1.62092C48.1619 1.43181 47.5695 1.32375 46.8155 1.29673H45.0382C40.4603 1.29673 35.0477 2.89063 28.8002 6.07843C21.718 9.75251 17.1401 13.6562 15.0666 17.7895C14.7973 18.2488 14.6627 18.9782 14.6627 19.9778C14.6627 20.7612 14.7165 21.261 14.8242 21.4771C15.7129 23.2331 18.298 24.9351 22.5797 26.583C26.3766 28.0959 29.1234 29.2035 30.8199 29.9059C31.8162 30.3111 32.9338 30.8784 34.1725 31.6078C35.7074 32.5264 36.5961 33.1342 36.8384 33.4314C36.8654 33.4854 36.9461 33.5124 37.0808 33.5124C37.377 33.5124 38.0637 33.3638 39.1408 33.0667C43.9072 31.7969 49.8854 30.7163 57.0753 29.8248C57.5062 29.7708 57.8024 29.7438 57.964 29.7438C58.1794 29.7708 58.2871 29.8654 58.2871 30.0275C58.2871 30.2706 56.9407 30.5678 54.2478 30.919C47.5156 31.8915 41.9953 32.9856 37.6867 34.2013C38.4945 35.1739 39.0735 35.9573 39.4236 36.5516C39.8814 37.4431 40.1372 38.2941 40.1911 39.1046C40.218 39.4828 40.2314 39.8745 40.2314 40.2797C40.2314 43.3055 38.5888 46.4797 35.3035 49.8026C33.5531 51.6126 31.4931 53.3011 29.1234 54.868C23.4145 58.6771 17.571 61.0004 11.5928 61.8379C10.6234 61.946 9.19614 62 7.31114 62ZM7.35153 60.5412C14.1106 60.5412 20.8697 58.38 27.6288 54.0575C32.1798 51.1129 35.4112 48.0601 37.3231 44.8993C38.2926 43.2244 38.7773 41.6575 38.7773 40.1987C38.7773 38.1996 37.8483 36.3625 35.9902 34.6876C27.7769 37.281 20.8563 40.0906 15.2282 43.1163C12.6161 44.5752 10.0579 46.2906 7.55349 48.2627C5.15684 50.2619 3.4738 51.9909 2.50437 53.4497C1.66958 54.6924 1.25218 55.8 1.25218 56.7725C1.27911 57.6641 1.64265 58.434 2.34279 59.0824C2.7198 59.4336 3.16412 59.7037 3.67576 59.8928C4.80677 60.3251 6.03202 60.5412 7.35153 60.5412Z" fill="white"/>
<path d="M60.5087 40.2392L59.4989 40.1582C58.2333 40.0501 57.3581 39.4152 56.8734 38.2536C56.4156 37.3081 56.1867 36.241 56.1867 35.0523C56.1867 33.6745 56.4425 32.0266 56.9542 30.1085C58.1929 25.4889 60.1183 21.0449 62.7304 16.7765L63.5786 15.3987C61.2358 15.5608 58.4622 15.7094 55.2576 15.8444C52.6725 15.9795 50.6663 16.0471 49.2391 16.0471C48.1081 16.0471 47.5426 15.912 47.5426 15.6418C47.5426 15.3987 48.3504 15.2636 49.9662 15.2366C50.6124 15.1826 51.6088 15.1285 52.9552 15.0745C54.3017 14.9935 55.675 14.9124 57.0753 14.8314C60.4145 14.6423 62.7707 14.5477 64.1441 14.5477C65.0597 13.332 65.8541 12.3325 66.5273 11.549C69.0317 8.63137 70.8224 7.17255 71.8996 7.17255C72.1689 7.17255 72.3843 7.28061 72.5459 7.49673C72.7344 7.65883 72.8286 7.88845 72.8286 8.18562C72.8286 8.75294 72.5863 9.57691 72.1015 10.6575C71.6976 11.576 71.2264 12.481 70.6878 13.3726L70.2031 14.2641H74.4039C81.3515 14.2641 86.7642 14.4532 90.6419 14.8314C91.4498 14.9124 92.1365 14.9935 92.702 15.0745C93.2944 15.1285 93.6176 15.1826 93.6714 15.2366C93.7253 15.2636 93.7657 15.3176 93.7926 15.3987C93.7926 15.6688 93.7118 15.858 93.5502 15.966C92.8232 15.966 91.9345 15.9255 90.8843 15.8444C87.5451 15.4662 82.6576 15.2771 76.2216 15.2771H69.5164C66.2849 19.9778 63.04 23.5303 59.7817 25.9346L59.2162 27.7176C58.1121 31.0135 57.56 33.6205 57.56 35.5386C57.56 37.5377 58.0986 38.6858 59.1758 38.983C59.7951 39.1451 60.2798 39.2261 60.6299 39.2261C62.4072 39.2261 64.6961 38.078 67.4967 35.7817C69.3817 34.2688 71.0917 32.5804 72.6266 30.7163C73.246 29.9599 73.6634 29.5817 73.8788 29.5817C74.0135 29.5817 74.0943 29.6898 74.1212 29.9059C74.1212 30.041 73.9462 30.3516 73.5961 30.8379C73.246 31.2972 72.8017 31.851 72.2631 32.4994C71.7245 33.1207 71.159 33.715 70.5666 34.2824C66.5542 38.2536 63.2016 40.2392 60.5087 40.2392ZM60.7107 24.3542C60.9261 24.2192 61.5993 23.5573 62.7304 22.3686C64.4807 20.5316 66.3927 18.1543 68.4662 15.2366L66.0022 15.4392C65.5444 15.4932 65.2751 15.5878 65.1943 15.7229C64.7635 16.2632 64.0903 17.3438 63.1747 18.9647C62.286 20.5586 61.532 22.0309 60.9127 23.3817C60.6703 23.841 60.5491 24.1381 60.5491 24.2732C60.5491 24.3272 60.5761 24.3542 60.6299 24.3542H60.7107ZM68.9913 14.3856L69.5164 13.5346C69.9472 12.8322 70.4993 11.7381 71.1725 10.2523C71.4956 9.54989 71.6572 9.09064 71.6572 8.87451C71.6572 8.73944 71.6168 8.6719 71.536 8.6719C71.4552 8.6719 71.1994 8.861 70.7686 9.23922C70.3646 9.61743 69.8934 10.0902 69.3548 10.6575C68.8162 11.1978 68.3046 11.7246 67.8199 12.2379C67.3352 12.7512 66.9851 13.1564 66.7697 13.4536C66.5542 13.7508 66.3253 14.0614 66.083 14.3856H68.9913Z" fill="white"/>
<path d="M75.4945 37.5647C75.0098 37.5647 74.5924 37.5107 74.2424 37.4026C72.7074 36.8353 71.94 35.7007 71.94 33.9987C71.94 32.9991 72.2092 31.797 72.7478 30.3922C73.448 28.7983 74.4443 27.3124 75.7369 25.9346C77.218 24.3407 78.4836 23.5438 79.5339 23.5438C79.9378 23.5438 80.234 23.6654 80.4225 23.9085C80.6379 24.1516 80.7456 24.4353 80.7456 24.7595C80.7456 25.2728 80.3956 26.0427 79.6954 27.0693C78.726 28.5551 77.6488 29.6898 76.464 30.4732C75.7908 30.9325 75.1849 31.2296 74.6463 31.3647C74.1346 31.4728 73.825 31.7024 73.7173 32.0536C73.5018 32.729 73.3941 33.3503 73.3941 33.9177C73.3941 35.4305 74.2154 36.1869 75.8581 36.1869C78.901 36.1869 82.0651 34.5795 85.3504 31.3647C86.4814 30.203 87.1412 29.6222 87.3297 29.6222C87.5182 29.6222 87.6124 29.7033 87.6124 29.8654C87.6124 30.1355 87.1816 30.7434 86.3199 31.6889C84.6772 33.4449 82.5903 34.9847 80.059 36.3085C78.3624 37.146 76.841 37.5647 75.4945 37.5647ZM74.4847 30.5543C74.6732 30.5543 75.1041 30.3246 75.7773 29.8654C77.2314 28.8118 78.349 27.5556 79.1299 26.0967C79.4531 25.5024 79.6146 25.1107 79.6146 24.9216C79.6146 24.8946 79.6012 24.881 79.5742 24.881C79.3588 24.881 78.9683 25.0837 78.4028 25.4889C77.6219 26.0562 76.8814 26.7721 76.1812 27.6366C74.9694 29.1765 74.3635 30.122 74.3635 30.4732C74.3635 30.5272 74.4039 30.5543 74.4847 30.5543Z" fill="white"/>
<path d="M86.845 36.1059C85.7409 36.1059 85.1889 35.4035 85.1889 33.9987C85.1889 32.6209 85.8486 30.5678 87.1681 27.8392C88.4338 25.4078 89.3359 24.1922 89.8745 24.1922C90.1437 24.1922 90.2784 24.3137 90.2784 24.5569C90.2784 24.9081 90.0226 25.4889 89.5109 26.2993C88.3261 28.5146 87.4778 30.5002 86.9662 32.2562C86.7777 32.9046 86.6834 33.5259 86.6834 34.1203C86.6834 34.3904 86.6969 34.539 86.7238 34.566C86.7777 34.593 86.8181 34.6065 86.845 34.6065C87.0066 34.6065 87.2355 34.512 87.5317 34.3229C88.8512 33.5665 90.413 31.5808 92.2173 28.366C92.6212 27.5826 93.1463 26.6505 93.7926 25.5699C94.0888 25.0296 94.3446 24.7595 94.5601 24.7595L94.762 24.719C95.1121 24.719 95.2871 25.2187 95.2871 26.2183C95.2871 28.0553 96.1219 29.136 97.7915 29.4601C98.357 29.5682 99.6226 29.6222 101.588 29.6222C102.235 29.6222 102.558 29.7168 102.558 29.9059C102.558 30.068 102.437 30.149 102.194 30.149C101.71 30.2031 100.996 30.2301 100.053 30.2301C98.3839 30.2301 97.2933 30.1355 96.7817 29.9464C96.297 29.7573 95.8392 29.4736 95.4083 29.0954C95.0044 28.6902 94.7216 28.2715 94.5601 27.8392C94.5062 27.5421 94.4254 27.2854 94.3177 27.0693C94.1831 27.0693 93.8061 27.6906 93.1867 28.9333C90.7093 33.715 88.5954 36.1059 86.845 36.1059Z" fill="white"/>
<path d="M103.689 37.5647C103.204 37.5647 102.787 37.5107 102.437 37.4026C100.902 36.8353 100.134 35.7007 100.134 33.9987C100.134 32.9991 100.404 31.797 100.942 30.3922C101.642 28.7983 102.639 27.3124 103.931 25.9346C105.412 24.3407 106.678 23.5438 107.728 23.5438C108.132 23.5438 108.428 23.6654 108.617 23.9085C108.832 24.1516 108.94 24.4353 108.94 24.7595C108.94 25.2728 108.59 26.0427 107.89 27.0693C106.92 28.5551 105.843 29.6898 104.658 30.4732C103.985 30.9325 103.379 31.2296 102.841 31.3647C102.329 31.4728 102.019 31.7024 101.912 32.0536C101.696 32.729 101.588 33.3503 101.588 33.9177C101.588 35.4305 102.41 36.1869 104.052 36.1869C107.095 36.1869 110.259 34.5795 113.545 31.3647C114.676 30.203 115.336 29.6222 115.524 29.6222C115.713 29.6222 115.807 29.7033 115.807 29.8654C115.807 30.1355 115.376 30.7434 114.514 31.6889C112.872 33.4449 110.785 34.9847 108.253 36.3085C106.557 37.146 105.035 37.5647 103.689 37.5647ZM102.679 30.5543C102.868 30.5543 103.298 30.3246 103.972 29.8654C105.426 28.8118 106.543 27.5556 107.324 26.0967C107.647 25.5024 107.809 25.1107 107.809 24.9216C107.809 24.8946 107.795 24.881 107.769 24.881C107.553 24.881 107.163 25.0837 106.597 25.4889C105.816 26.0562 105.076 26.7721 104.376 27.6366C103.164 29.1765 102.558 30.122 102.558 30.4732C102.558 30.5272 102.598 30.5543 102.679 30.5543Z" fill="white"/>
<path d="M112.373 39.1856C111.754 39.1856 111.444 38.7534 111.444 37.8889C111.444 36.6732 112.495 33.9447 114.595 29.7033C117.046 24.8405 118.661 22.4092 119.442 22.4092C119.846 22.4092 120.048 22.5848 120.048 22.936C120.048 23.1251 119.913 23.3952 119.644 23.7464C118.217 25.7455 116.372 29.2305 114.11 34.2013C113.302 36.0654 112.898 37.173 112.898 37.5242C112.898 37.5782 112.898 37.6322 112.898 37.6863C112.898 37.7133 112.925 37.7268 112.979 37.7268C113.249 37.7268 115.012 36.1599 118.271 33.0261C121.637 29.7303 124.141 27.407 125.784 26.0562C127.453 24.7054 128.611 24.0301 129.258 24.0301C129.85 24.0301 130.16 24.1787 130.187 24.4758C130.241 24.773 130.267 24.9621 130.267 25.0431C130.267 25.6375 130.079 26.637 129.702 28.0418C129.136 30.2571 128.854 31.9455 128.854 33.1072C128.854 34.4309 129.258 35.0928 130.066 35.0928C130.604 35.0928 131.318 34.8497 132.206 34.3634C133.418 33.7691 134.832 32.81 136.448 31.4863C137.902 30.2436 138.79 29.6222 139.114 29.6222C139.194 29.6222 139.235 29.6763 139.235 29.7843C139.235 29.9464 138.319 30.7974 136.488 32.3373C135.734 32.9856 134.832 33.688 133.782 34.4445C132.085 35.5251 130.86 36.0654 130.106 36.0654C129.406 36.0654 128.854 35.9168 128.45 35.6196C128.046 35.3224 127.777 34.9983 127.642 34.6471C127.507 34.2688 127.44 33.7285 127.44 33.0261C127.44 31.4863 127.79 29.5952 128.49 27.3529L129.056 25.0837H128.975C128.032 25.0837 124.586 28.0283 118.634 33.9177C115.861 36.6462 114.164 38.2401 113.545 38.6993C113.06 39.0235 112.67 39.1856 112.373 39.1856Z" fill="white"/>
<path d="M133.66 45.2641C133.095 45.2641 132.651 45.0209 132.328 44.5346C132.166 44.1834 132.085 43.8187 132.085 43.4405C132.085 41.3063 134.428 38.4427 139.114 34.8497C139.868 34.2824 140.245 33.9717 140.245 33.9177C140.245 33.7826 139.827 33.0667 138.992 31.7699C138.535 31.0675 138.225 30.4867 138.063 30.0275C138.009 29.7573 137.983 29.5007 137.983 29.2575C137.983 27.3665 139.356 25.678 142.103 24.1922C142.695 23.895 143.234 23.7464 143.718 23.7464C144.122 23.7464 144.324 23.895 144.324 24.1922C144.324 24.3542 144.082 24.5704 143.597 24.8405C142.332 25.5159 141.322 26.2588 140.568 27.0693C139.814 27.8797 139.437 28.5821 139.437 29.1765C139.437 29.5277 139.787 30.2301 140.487 31.2837C141.106 32.2022 141.416 32.7155 141.416 32.8235C141.416 32.9046 141.456 32.9451 141.537 32.9451C141.645 32.9451 142.049 32.7425 142.749 32.3373L144.243 31.4863C146.344 30.2436 147.502 29.6222 147.717 29.6222C147.825 29.6222 147.892 29.6763 147.919 29.7843C147.973 29.8654 148 29.9329 148 29.9869C147.946 30.0139 147.704 30.1625 147.273 30.4327C146.842 30.7028 146.25 31.054 145.496 31.4863C144.822 31.8915 143.611 32.6614 141.86 33.7961C141.968 34.6065 142.022 35.2009 142.022 35.5791C142.022 37.5782 141.133 39.6179 139.356 41.698C138.198 43.0218 136.959 44.0078 135.64 44.6562C134.859 45.0614 134.199 45.2641 133.66 45.2641ZM133.62 43.8863C134.563 43.8863 135.842 43.0488 137.457 41.3739C139.504 39.4017 140.527 37.5647 140.527 35.8628V34.7281C135.842 38.4562 133.418 41.1577 133.257 42.8327L133.216 43.3595C133.216 43.7107 133.351 43.8863 133.62 43.8863Z" fill="white"/>
<circle cx="152.5" cy="14.5" r="2.5" fill="#7AE7C7"/>
</svg>
