<svg width="720" height="720" viewBox="0 0 720 720" fill="none" xmlns="http://www.w3.org/2000/svg">
<path fill-rule="evenodd" clip-rule="evenodd" d="M358.81 0.501724C359.185 0.500576 359.56 0.5 359.934 0.5C360.151 0.5 360.368 0.500191 360.585 0.500576C360.743 0.500858 360.9 0.50124 361.058 0.501724L360.828 75.5014C360.53 75.5005 360.232 75.5 359.934 75.5C359.636 75.5 359.338 75.5005 359.04 75.5014L358.81 0.501724ZM374.486 0.789768C375.229 0.819401 375.972 0.851295 376.713 0.885445L373.265 75.8061C372.676 75.779 372.087 75.7537 371.497 75.7302L374.486 0.789768ZM343.155 0.88546C343.897 0.851311 344.639 0.819416 345.382 0.78978L348.371 75.7302C347.782 75.7537 347.193 75.779 346.604 75.8061L343.155 0.88546ZM390.129 1.75241C390.872 1.81428 391.614 1.87841 392.356 1.9448L385.668 76.646C385.081 76.5934 384.493 76.5426 383.904 76.4936L390.129 1.75241ZM327.513 1.94482C328.254 1.87844 328.996 1.8143 329.739 1.75244L335.965 76.4936C335.376 76.5427 334.788 76.5935 334.2 76.6461L327.513 1.94482ZM405.721 3.39293C406.462 3.48722 407.202 3.58377 407.942 3.68258L398.009 78.022C397.424 77.9438 396.838 77.8674 396.252 77.7928L405.721 3.39293ZM311.926 3.68261C312.666 3.58381 313.406 3.48726 314.147 3.39297L323.616 77.7928C323.03 77.8674 322.444 77.9438 321.859 78.022L311.926 3.68261ZM421.232 5.71222C421.969 5.83897 422.706 5.96796 423.441 6.0992L410.269 79.9334C409.687 79.8296 409.105 79.7276 408.522 79.6274L421.232 5.71222ZM296.427 6.09925C297.163 5.96801 297.899 5.83901 298.636 5.71226L311.346 79.6274C310.763 79.7277 310.181 79.8297 309.6 79.9334L296.427 6.09925ZM436.63 8.70873C437.362 8.86783 438.093 9.02916 438.823 9.19271L422.426 82.3784C421.849 82.2491 421.272 82.1216 420.693 81.9959L436.63 8.70873ZM281.046 9.19275C281.776 9.02921 282.506 8.86788 283.238 8.70878L299.175 81.996C298.597 82.1217 298.019 82.2492 297.443 82.3784L281.046 9.19275ZM451.885 12.3785C452.61 12.5697 453.333 12.7632 454.056 12.9588L434.46 85.3536C433.889 85.1991 433.318 85.0463 432.745 84.8952L451.885 12.3785ZM265.813 12.9588C266.535 12.7632 267.259 12.5698 267.983 12.3786L287.123 84.8953C286.551 85.0463 285.979 85.1991 285.408 85.3536L265.813 12.9588ZM466.965 16.7155C467.681 16.9384 468.396 17.1636 469.109 17.3908L446.35 88.8543C445.787 88.6748 445.222 88.497 444.657 88.3209L466.965 16.7155ZM250.759 17.3909C251.473 17.1636 252.187 16.9385 252.903 16.7156L275.212 88.3209C274.646 88.497 274.082 88.6748 273.518 88.8543L250.759 17.3909ZM481.849 21.7142C482.552 21.9675 483.253 22.2229 483.954 22.4804L458.075 92.8744C457.522 92.671 456.968 92.4693 456.413 92.2692L481.849 21.7142ZM235.915 22.4804C236.615 22.2229 237.317 21.9676 238.019 21.7143L263.455 92.2693C262.9 92.4693 262.346 92.6711 261.793 92.8745L235.915 22.4804ZM496.496 27.3615C497.187 27.6453 497.876 27.9312 498.564 28.2191L469.619 97.4082C469.075 97.1807 468.53 96.9549 467.985 96.7307L496.496 27.3615ZM221.304 28.2192C221.992 27.9312 222.682 27.6454 223.372 27.3616L251.884 96.7307C251.338 96.9549 250.794 97.1808 250.25 97.4083L221.304 28.2192ZM510.878 33.6451C511.556 33.959 512.232 34.275 512.907 34.593L480.954 102.446C480.42 102.194 479.885 101.944 479.35 101.696L510.878 33.6451ZM206.961 34.593C207.636 34.275 208.313 33.9591 208.99 33.6451L240.519 101.696C239.983 101.944 239.449 102.194 238.915 102.446L206.961 34.593ZM524.967 40.5514C525.63 40.8948 526.292 41.2402 526.953 41.5875L492.059 107.976C491.536 107.701 491.013 107.428 490.488 107.156L524.967 40.5514ZM192.915 41.5876C193.576 41.2402 194.238 40.8948 194.902 40.5514L229.381 107.156C228.856 107.428 228.332 107.701 227.81 107.976L192.915 41.5876ZM538.737 48.0658C539.384 48.4379 540.031 48.812 540.676 49.1879L502.913 113.987C502.403 113.69 501.891 113.394 501.379 113.1L538.737 48.0658ZM179.192 49.188C179.838 48.812 180.484 48.438 181.132 48.0659L218.49 113.1C217.977 113.394 217.466 113.69 216.955 113.987L179.192 49.188ZM552.162 56.1726C552.793 56.5726 553.422 56.9745 554.051 57.3783L513.497 120.469C513 120.149 512.502 119.831 512.002 119.515L552.162 56.1726ZM165.818 57.3784C166.446 56.9746 167.076 56.5727 167.706 56.1727L207.866 119.515C207.367 119.831 206.868 120.149 206.371 120.469L165.818 57.3784ZM565.219 64.8552C565.832 65.2822 566.443 65.7111 567.053 66.1419L523.791 127.407C523.308 127.066 522.824 126.726 522.339 126.388L565.219 64.8552ZM152.816 66.1419C153.426 65.7112 154.037 65.2823 154.65 64.8552L197.53 126.388C197.044 126.726 196.56 127.066 196.077 127.407L152.816 66.1419ZM577.883 74.0961C578.477 74.5494 579.069 75.0044 579.66 75.4612L533.776 134.788C533.308 134.426 532.839 134.066 532.369 133.707L577.883 74.0961ZM140.209 75.4612C140.8 75.0044 141.392 74.5494 141.985 74.0961L187.5 133.707C187.03 134.066 186.561 134.426 186.093 134.788L140.209 75.4612ZM128.021 85.3181C128.591 84.8361 129.163 84.3558 129.736 83.8773L177.796 141.456C177.342 141.835 176.889 142.215 176.437 142.597L128.021 85.3181ZM590.133 83.8774C590.706 84.3558 591.278 84.8361 591.848 85.3181L543.432 142.597C542.98 142.215 542.527 141.835 542.073 141.456L590.133 83.8774ZM116.272 95.6937C116.821 95.1875 117.371 94.683 117.923 94.1802L168.436 149.619C167.998 150.018 167.562 150.418 167.127 150.819L116.272 95.6937ZM601.945 94.1802C602.497 94.683 603.047 95.1875 603.596 95.6937L552.741 150.819C552.306 150.418 551.87 150.018 551.433 149.619L601.945 94.1802ZM104.985 106.569C105.512 106.039 106.039 105.512 106.569 104.985L159.437 158.182C159.018 158.599 158.599 159.018 158.182 159.437L104.985 106.569ZM613.3 104.985C613.829 105.512 614.357 106.039 614.883 106.569L561.686 159.437C561.269 159.018 560.851 158.599 560.431 158.182L613.3 104.985ZM624.175 116.272C624.681 116.821 625.186 117.371 625.688 117.923L570.249 168.436C570.043 168.21 569.837 167.984 569.631 167.759C569.438 167.548 569.244 167.338 569.05 167.127L624.175 116.272ZM94.1802 117.923C94.683 117.371 95.1875 116.821 95.6937 116.272L150.819 167.127C150.418 167.562 150.018 167.998 149.619 168.436L94.1802 117.923ZM634.551 128.021C635.033 128.591 635.513 129.163 635.991 129.736L578.413 177.796C578.034 177.342 577.653 176.889 577.272 176.437L634.551 128.021ZM83.8774 129.736C84.3558 129.163 84.8361 128.591 85.3181 128.021L142.597 176.437C142.215 176.889 141.835 177.342 141.456 177.796L83.8774 129.736ZM644.407 140.209C644.864 140.8 645.319 141.392 645.772 141.985L586.162 187.5C585.803 187.03 585.442 186.561 585.081 186.093L644.407 140.209ZM74.0961 141.985C74.5494 141.392 75.0044 140.8 75.4612 140.209L134.788 186.093C134.426 186.561 134.066 187.03 133.707 187.5L74.0961 141.985ZM653.727 152.816C654.157 153.426 654.586 154.037 655.013 154.65L593.48 197.53C593.142 197.044 592.803 196.56 592.461 196.077L653.727 152.816ZM64.8552 154.65C65.2822 154.037 65.7111 153.426 66.1419 152.816L127.407 196.077C127.066 196.56 126.726 197.045 126.388 197.53L64.8552 154.65ZM662.49 165.818C662.894 166.446 663.296 167.076 663.696 167.706L600.354 207.866C600.037 207.367 599.719 206.868 599.4 206.371L662.49 165.818ZM56.1726 167.707C56.5726 167.076 56.9745 166.446 57.3783 165.818L120.469 206.371C120.149 206.868 119.831 207.367 119.515 207.866L56.1726 167.707ZM670.681 179.192C671.057 179.838 671.431 180.484 671.803 181.132L606.769 218.49C606.474 217.977 606.179 217.466 605.881 216.955L670.681 179.192ZM48.0658 181.132C48.4379 180.484 48.812 179.838 49.1879 179.193L113.987 216.955C113.69 217.466 113.394 217.977 113.1 218.49L48.0658 181.132ZM678.281 192.915C678.628 193.576 678.974 194.238 679.317 194.902L612.712 229.381C612.441 228.856 612.168 228.332 611.893 227.81L678.281 192.915ZM40.5514 194.902C40.8948 194.238 41.2402 193.576 41.5875 192.915L107.976 227.81C107.701 228.332 107.428 228.856 107.156 229.381L40.5514 194.902ZM685.276 206.961C685.594 207.636 685.91 208.313 686.223 208.99L618.172 240.519C617.924 239.983 617.674 239.449 617.423 238.915L685.276 206.961ZM33.6451 208.991C33.959 208.313 34.275 207.637 34.593 206.961L102.446 238.915C102.194 239.449 101.944 239.983 101.696 240.519L33.6451 208.991ZM691.649 221.304C691.937 221.992 692.223 222.682 692.507 223.372L623.138 251.884C622.914 251.338 622.688 250.794 622.46 250.25L691.649 221.304ZM27.3615 223.372C27.6453 222.682 27.9312 221.992 28.2191 221.304L97.4082 250.25C97.1807 250.794 96.9549 251.339 96.7307 251.884L27.3615 223.372ZM697.753 236.912C697.887 237.281 698.021 237.65 698.154 238.019L627.599 263.455C627.399 262.9 627.198 262.346 626.994 261.793L697.388 235.915C697.51 236.247 697.632 236.579 697.753 236.912ZM21.7142 238.019C21.9675 237.317 22.2229 236.615 22.4804 235.915L92.8744 261.793C92.671 262.346 92.4693 262.901 92.2692 263.455L21.7142 238.019ZM702.478 250.759C702.705 251.473 702.93 252.187 703.153 252.903L631.548 275.212C631.372 274.646 631.194 274.082 631.014 273.518L702.478 250.759ZM16.7155 252.903C16.9384 252.188 17.1636 251.473 17.3908 250.759L88.8543 273.518C88.6748 274.082 88.497 274.646 88.3209 275.212L16.7155 252.903ZM706.91 265.813C707.105 266.535 707.299 267.259 707.49 267.983L634.973 287.123C634.879 286.764 634.783 286.405 634.687 286.046C634.63 285.834 634.573 285.621 634.515 285.408L706.91 265.813ZM12.3785 267.984C12.5697 267.259 12.7632 266.536 12.9588 265.813L85.3536 285.409C85.1991 285.979 85.0463 286.551 84.8952 287.123L12.3785 267.984ZM710.676 281.046C710.839 281.776 711.001 282.506 711.16 283.238L637.873 299.175C637.747 298.597 637.619 298.019 637.49 297.443L710.676 281.046ZM8.70873 283.238C8.86783 282.507 9.02916 281.776 9.19271 281.046L82.3784 297.443C82.2491 298.02 82.1216 298.597 81.9959 299.175L8.70873 283.238ZM713.769 296.427C713.901 297.163 714.03 297.899 714.156 298.636L640.241 311.346C640.141 310.763 640.039 310.181 639.935 309.6L713.769 296.427ZM5.71222 298.637C5.83897 297.899 5.96796 297.163 6.0992 296.427L79.9334 309.6C79.8296 310.181 79.7276 310.764 79.6274 311.346L5.71222 298.637ZM716.316 312.907C716.37 313.32 716.423 313.733 716.476 314.147L642.076 323.616C642.001 323.03 641.925 322.444 641.847 321.859L716.186 311.926C716.23 312.253 716.273 312.58 716.316 312.907ZM3.39293 314.147C3.48722 313.406 3.58377 312.666 3.68258 311.927L78.022 321.859C77.9438 322.444 77.8674 323.03 77.7928 323.616L3.39293 314.147ZM717.924 327.513C717.99 328.254 718.054 328.996 718.116 329.739L643.375 335.965C643.326 335.376 643.275 334.788 643.223 334.2L717.924 327.513ZM1.75241 329.739C1.81428 328.997 1.87841 328.254 1.9448 327.513L76.646 334.2C76.5934 334.788 76.5426 335.376 76.4936 335.965L1.75241 329.739ZM718.983 343.155C719.017 343.897 719.049 344.639 719.079 345.382L644.138 348.371C644.115 347.782 644.09 347.193 644.062 346.604L718.983 343.155ZM0.789768 345.382C0.819401 344.639 0.851295 343.897 0.885445 343.155L75.8061 346.604C75.779 347.193 75.7537 347.782 75.7302 348.372L0.789768 345.382ZM719.367 358.81C719.368 359.185 719.369 359.56 719.369 359.934C719.369 360.309 719.368 360.683 719.367 361.058L644.367 360.828C644.368 360.648 644.368 360.469 644.368 360.29L644.369 359.934C644.369 359.636 644.368 359.338 644.367 359.04L719.367 358.81ZM0.5 359.934C0.5 359.56 0.500576 359.185 0.501724 358.811L75.5014 359.041C75.5005 359.338 75.5 359.636 75.5 359.934C75.5 360.232 75.5005 360.53 75.5014 360.828L0.501724 361.058C0.500576 360.684 0.5 360.309 0.5 359.934ZM719.079 374.486C719.049 375.229 719.017 375.972 718.983 376.713L644.062 373.265C644.09 372.676 644.115 372.087 644.138 371.497L719.079 374.486ZM0.88546 376.714C0.851311 375.972 0.819416 375.229 0.78978 374.487L75.7302 371.497C75.7537 372.087 75.779 372.676 75.8061 373.265L0.88546 376.714ZM718.116 390.129C718.054 390.872 717.99 391.614 717.924 392.356L643.223 385.668C643.248 385.38 643.274 385.092 643.299 384.803C643.325 384.504 643.35 384.204 643.375 383.904L718.116 390.129ZM1.94482 392.356C1.87844 391.614 1.8143 390.872 1.75244 390.129L76.4936 383.904C76.5427 384.493 76.5935 385.081 76.6461 385.668L1.94482 392.356ZM716.318 406.945C716.274 407.277 716.23 407.61 716.186 407.942L641.847 398.009C641.898 397.624 641.949 397.238 641.999 396.852C642.025 396.652 642.05 396.452 642.076 396.252L716.476 405.721C716.424 406.129 716.371 406.537 716.318 406.945ZM3.68261 407.942C3.58381 407.203 3.48726 406.462 3.39297 405.722L77.7928 396.252C77.8674 396.839 77.9438 397.424 78.022 398.01L3.68261 407.942ZM714.156 421.232C714.03 421.969 713.901 422.706 713.769 423.441L639.935 410.269C640.039 409.687 640.141 409.105 640.241 408.522L714.156 421.232ZM6.09925 423.441C5.96801 422.706 5.83901 421.969 5.71226 421.232L79.6274 408.522C79.7277 409.105 79.8297 409.687 79.9334 410.269L6.09925 423.441ZM711.16 436.63C711.001 437.362 710.839 438.093 710.676 438.823L637.49 422.426C637.537 422.218 637.583 422.01 637.629 421.802C637.711 421.432 637.792 421.063 637.873 420.693L711.16 436.63ZM9.19275 438.823C9.02921 438.093 8.86788 437.362 8.70878 436.631L81.996 420.694C82.1217 421.272 82.2492 421.849 82.3784 422.426L9.19275 438.823ZM707.49 451.885C707.299 452.61 707.105 453.333 706.91 454.056L634.515 434.46C634.67 433.889 634.822 433.318 634.973 432.745L707.49 451.885ZM12.9588 454.056C12.7632 453.333 12.5698 452.61 12.3786 451.885L84.8953 432.746C85.0463 433.318 85.1991 433.889 85.3536 434.46L12.9588 454.056ZM703.153 466.965C702.93 467.681 702.705 468.396 702.478 469.109L631.014 446.35C631.194 445.787 631.372 445.222 631.548 444.657L703.153 466.965ZM17.3909 469.11C17.1636 468.396 16.9385 467.681 16.7156 466.966L88.3209 444.657C88.497 445.222 88.6748 445.787 88.8543 446.35L17.3909 469.11ZM698.154 481.849C697.901 482.552 697.646 483.253 697.388 483.954L626.994 458.075C627.198 457.522 627.399 456.968 627.599 456.413L698.154 481.849ZM22.4804 483.954C22.2229 483.253 21.9676 482.552 21.7143 481.849L92.2693 456.413C92.4693 456.968 92.6711 457.522 92.8745 458.076L22.4804 483.954ZM692.507 496.496C692.223 497.187 691.937 497.876 691.649 498.564L622.46 469.619C622.688 469.075 622.914 468.53 623.138 467.985L692.507 496.496ZM28.2192 498.565C27.9312 497.876 27.6454 497.187 27.3616 496.497L96.7307 467.985C96.9549 468.53 97.1808 469.075 97.4083 469.619L28.2192 498.565ZM686.224 510.878C685.91 511.556 685.594 512.232 685.276 512.907L617.423 480.954C617.674 480.42 617.924 479.885 618.172 479.35L686.224 510.878ZM34.593 512.907C34.275 512.232 33.9591 511.556 33.6451 510.878L101.696 479.35C101.944 479.885 102.194 480.42 102.446 480.954L34.593 512.907ZM679.317 524.967C678.974 525.63 678.628 526.292 678.281 526.953L611.893 492.059C612.168 491.536 612.441 491.013 612.712 490.488L679.317 524.967ZM41.5876 526.953C41.2402 526.292 40.8948 525.63 40.5514 524.967L107.156 490.488C107.428 491.013 107.701 491.536 107.976 492.059L41.5876 526.953ZM671.803 538.737C671.431 539.384 671.057 540.031 670.681 540.676L605.881 502.913C606.179 502.403 606.475 501.891 606.769 501.379L671.803 538.737ZM49.188 540.676C48.812 540.031 48.438 539.384 48.0659 538.737L113.1 501.379C113.394 501.891 113.69 502.403 113.987 502.913L49.188 540.676ZM663.696 552.162C663.296 552.793 662.894 553.422 662.49 554.051L599.4 513.497C599.719 513 600.037 512.502 600.354 512.002L663.696 552.162ZM57.3784 554.051C56.9746 553.423 56.5727 552.793 56.1727 552.162L119.515 512.003C119.831 512.502 120.149 513 120.469 513.497L57.3784 554.051ZM655.013 565.219C654.586 565.832 654.157 566.443 653.727 567.053L592.461 523.791C592.803 523.308 593.142 522.824 593.48 522.339L655.013 565.219ZM66.1419 567.053C65.7112 566.443 65.2823 565.832 64.8552 565.219L126.388 522.339C126.726 522.824 127.066 523.308 127.407 523.791L66.1419 567.053ZM645.772 577.883C645.319 578.477 644.864 579.069 644.407 579.66L585.081 533.776C585.442 533.308 585.803 532.839 586.162 532.369L645.772 577.883ZM75.4612 579.66C75.0044 579.069 74.5494 578.477 74.0961 577.883L133.707 532.369C134.066 532.839 134.426 533.308 134.788 533.776L75.4612 579.66ZM85.3181 591.848C84.8361 591.278 84.3558 590.706 83.8773 590.133L141.456 542.073C141.835 542.527 142.215 542.98 142.597 543.432L85.3181 591.848ZM635.991 590.133C635.513 590.706 635.033 591.278 634.551 591.848L577.272 543.432C577.653 542.98 578.034 542.527 578.413 542.073L635.991 590.133ZM95.6937 603.596C95.1875 603.047 94.683 602.497 94.1802 601.945L149.619 551.433C150.018 551.87 150.418 552.306 150.819 552.741L95.6937 603.596ZM625.688 601.945C625.186 602.497 624.681 603.047 624.175 603.596L569.05 552.741C569.451 552.306 569.851 551.87 570.249 551.433L625.688 601.945ZM106.569 614.883C106.039 614.357 105.512 613.829 104.985 613.3L158.182 560.431C158.599 560.851 159.018 561.269 159.437 561.686L106.569 614.883ZM614.883 613.3C614.357 613.829 613.829 614.357 613.3 614.883L560.431 561.686C560.851 561.269 561.269 560.851 561.686 560.431L614.883 613.3ZM117.923 625.688C117.371 625.186 116.821 624.681 116.272 624.175L167.127 569.05C167.562 569.451 167.998 569.851 168.436 570.249L117.923 625.688ZM603.596 624.175C603.047 624.681 602.497 625.186 601.945 625.688L551.433 570.249C551.87 569.851 552.306 569.451 552.741 569.05L603.596 624.175ZM129.736 635.991C129.163 635.513 128.591 635.033 128.021 634.551L176.437 577.272C176.889 577.653 177.342 578.034 177.796 578.413L129.736 635.991ZM591.848 634.551C591.278 635.033 590.706 635.513 590.133 635.991L542.073 578.413C542.527 578.034 542.98 577.653 543.432 577.272L591.848 634.551ZM141.985 645.772C141.392 645.319 140.8 644.864 140.209 644.407L186.093 585.081C186.561 585.442 187.03 585.803 187.5 586.162L141.985 645.772ZM578.755 645.105C578.464 645.328 578.174 645.55 577.883 645.772L532.369 586.162C532.839 585.803 533.308 585.442 533.776 585.081L579.66 644.407C579.358 644.64 579.057 644.873 578.755 645.105ZM154.65 655.013C154.037 654.586 153.426 654.157 152.816 653.727L196.077 592.461C196.56 592.803 197.045 593.142 197.53 593.48L154.65 655.013ZM567.053 653.727C566.443 654.157 565.832 654.586 565.219 655.013L522.339 593.48C522.824 593.142 523.308 592.803 523.791 592.461L567.053 653.727ZM554.051 662.49C553.423 662.894 552.793 663.296 552.162 663.696L512.003 600.354C512.502 600.037 513 599.719 513.497 599.4L554.051 662.49ZM167.707 663.696C167.076 663.296 166.446 662.894 165.818 662.49L206.371 599.4C206.868 599.719 207.367 600.037 207.866 600.354L167.707 663.696ZM540.676 670.681C540.031 671.057 539.384 671.431 538.737 671.803L501.379 606.769C501.891 606.474 502.403 606.179 502.913 605.881L540.676 670.681ZM181.132 671.803C180.484 671.431 179.838 671.057 179.193 670.681L216.955 605.881C217.466 606.179 217.977 606.475 218.49 606.769L181.132 671.803ZM194.902 679.317C194.238 678.974 193.576 678.628 192.915 678.281L227.81 611.893C228.332 612.168 228.856 612.441 229.381 612.712L194.902 679.317ZM526.953 678.281C526.292 678.628 525.63 678.974 524.967 679.317L490.488 612.712C491.013 612.441 491.536 612.168 492.059 611.893L526.953 678.281ZM512.907 685.276C512.232 685.594 511.556 685.91 510.878 686.223L479.35 618.172C479.885 617.924 480.42 617.674 480.954 617.423L512.907 685.276ZM208.991 686.224C208.313 685.91 207.637 685.594 206.961 685.276L238.915 617.423C239.449 617.674 239.983 617.924 240.519 618.172L208.991 686.224ZM498.565 691.649C497.876 691.937 497.187 692.223 496.497 692.507L467.985 623.138C468.249 623.029 468.513 622.92 468.776 622.811C469.057 622.695 469.338 622.578 469.619 622.46L498.565 691.649ZM223.372 692.507C222.682 692.223 221.992 691.937 221.304 691.649L250.25 622.46C250.794 622.688 251.339 622.914 251.884 623.138L223.372 692.507ZM483.954 697.388C483.253 697.646 482.552 697.901 481.849 698.154L456.413 627.599C456.649 627.514 456.885 627.429 457.12 627.343C457.439 627.228 457.757 627.111 458.076 626.994L483.954 697.388ZM238.019 698.154C237.317 697.901 236.615 697.646 235.915 697.388L261.793 626.994C262.346 627.198 262.901 627.399 263.455 627.599L238.019 698.154ZM251.566 702.734C251.297 702.649 251.028 702.563 250.759 702.478L273.518 631.014C274.082 631.194 274.646 631.372 275.212 631.548L252.903 703.153C252.457 703.014 252.012 702.874 251.566 702.734ZM469.11 702.478C468.396 702.705 467.681 702.93 466.966 703.153L444.657 631.548C445.222 631.372 445.787 631.194 446.35 631.014L469.11 702.478ZM454.056 706.91C453.333 707.105 452.61 707.299 451.885 707.49L432.746 634.973C433.318 634.822 433.889 634.669 434.46 634.515L454.056 706.91ZM267.984 707.49C267.259 707.299 266.536 707.105 265.813 706.91L285.409 634.515C285.728 634.601 286.047 634.687 286.366 634.772C286.618 634.84 286.871 634.907 287.123 634.973L267.984 707.49ZM438.823 710.676C438.093 710.839 437.362 711.001 436.631 711.16L420.694 637.873C421.272 637.747 421.849 637.619 422.426 637.49L438.823 710.676ZM283.238 711.16C282.507 711.001 281.776 710.839 281.046 710.676L297.443 637.49C298.02 637.619 298.597 637.747 299.175 637.873L283.238 711.16ZM298.637 714.156C297.899 714.03 297.163 713.901 296.427 713.769L309.6 639.935C310.181 640.039 310.764 640.141 311.346 640.241L298.637 714.156ZM423.441 713.769C422.706 713.901 421.969 714.03 421.232 714.156L408.522 640.241C409.105 640.141 409.687 640.039 410.269 639.935L423.441 713.769ZM407.942 716.186C407.203 716.285 406.462 716.381 405.722 716.476L396.252 642.076C396.839 642.001 397.424 641.925 398.01 641.847L407.942 716.186ZM314.147 716.476C313.406 716.381 312.666 716.285 311.927 716.186L321.859 641.847C322.444 641.925 323.03 642.001 323.616 642.076L314.147 716.476ZM329.739 718.116C328.997 718.054 328.254 717.99 327.513 717.924L334.2 643.223C334.788 643.275 335.376 643.326 335.965 643.375L329.739 718.116ZM392.356 717.924C391.614 717.99 390.872 718.054 390.129 718.116L383.904 643.375C384.493 643.326 385.081 643.275 385.668 643.223L392.356 717.924ZM345.382 719.079C344.639 719.049 343.897 719.017 343.155 718.983L346.604 644.062C346.925 644.077 347.247 644.092 347.569 644.105C347.836 644.117 348.104 644.128 348.372 644.138L345.382 719.079ZM376.714 718.983C375.972 719.017 375.229 719.049 374.487 719.079L371.497 644.138C372.087 644.115 372.676 644.09 373.265 644.062L376.714 718.983ZM359.934 719.369C359.56 719.369 359.185 719.368 358.811 719.367L359.041 644.367C359.338 644.368 359.636 644.369 359.934 644.369C360.232 644.369 360.53 644.368 360.828 644.367L361.058 719.367C360.684 719.368 360.309 719.369 359.934 719.369Z" fill="url(#paint0_linear_171_1109)"/>
<defs>
<linearGradient id="paint0_linear_171_1109" x1="359.934" y1="38" x2="78.2309" y2="559.431" gradientUnits="userSpaceOnUse">
<stop stop-color="#265E6D"/>
<stop offset="1" stop-color="#7AE7C7"/>
</linearGradient>
</defs>
</svg>
