<svg width="706" height="706" viewBox="0 0 706 706" fill="none" xmlns="http://www.w3.org/2000/svg">
<path fill-rule="evenodd" clip-rule="evenodd" d="M351.896 0.00169373C352.264 0.000564575 352.632 0 353 0C353.368 0 353.736 0.000564575 354.104 0.00169373L353.914 62.0014C353.609 62.0005 353.305 62 353 62C352.695 62 352.391 62.0005 352.086 62.0014L351.896 0.00169373ZM359.614 0.0608273C360.347 0.0743275 361.08 0.0900669 361.813 0.108042L360.291 62.0894C359.686 62.0745 359.08 62.0615 358.473 62.0503L359.614 0.0608273ZM344.187 0.108046C344.92 0.0900707 345.652 0.0743294 346.386 0.0608311L347.527 62.0503C346.92 62.0615 346.314 62.0745 345.708 62.0894L344.187 0.108046ZM367.296 0.284662C368.025 0.313772 368.755 0.345102 369.483 0.378647L366.632 62.3131C366.03 62.2853 365.428 62.2594 364.824 62.2354L367.296 0.284662ZM336.516 0.378653C337.245 0.34511 337.974 0.313778 338.704 0.284668L341.175 62.2354C340.572 62.2595 339.97 62.2853 339.368 62.3131L336.516 0.378653ZM374.979 0.67412C375.713 0.719252 376.446 0.766628 377.178 0.816242L372.988 62.6745C372.384 62.6335 371.778 62.5944 371.172 62.5572L374.979 0.67412ZM328.822 0.816252C329.554 0.766638 330.287 0.719261 331.021 0.674129L334.828 62.5572C334.222 62.5944 333.616 62.6336 333.011 62.6745L328.822 0.816252ZM382.661 1.23022C383.391 1.29099 384.12 1.35398 384.848 1.41919L379.32 63.1722C378.719 63.1184 378.117 63.0664 377.515 63.0163L382.661 1.23022ZM321.152 1.4192C321.88 1.35399 322.609 1.291 323.339 1.23024L328.485 63.0163C327.883 63.0664 327.281 63.1184 326.68 63.1722L321.152 1.4192ZM390.311 1.95091C391.043 2.02791 391.775 2.10715 392.506 2.18862L385.637 63.807C385.034 63.7398 384.431 63.6744 383.827 63.6109L390.311 1.95091ZM313.494 2.18864C314.225 2.10716 314.957 2.02793 315.689 1.95093L322.173 63.6109C321.569 63.6744 320.966 63.7398 320.363 63.807L313.494 2.18864ZM397.975 2.84147C398.703 2.93407 399.429 3.02889 400.156 3.12593L391.945 64.5798C391.346 64.4998 390.747 64.4217 390.147 64.3453L397.975 2.84147ZM305.844 3.12594C306.57 3.02891 307.297 2.93409 308.025 2.84148L315.853 64.3453C315.253 64.4217 314.654 64.4999 314.055 64.5798L305.844 3.12594ZM405.59 3.89503C406.315 4.00351 407.04 4.11421 407.765 4.22711L398.216 65.4874C397.619 65.3944 397.022 65.3031 396.424 65.2137L405.59 3.89503ZM298.235 4.22712C298.959 4.11422 299.684 4.00352 300.41 3.89504L309.576 65.2138C308.978 65.3032 308.381 65.3944 307.784 65.4874L298.235 4.22712ZM413.208 5.11919C413.932 5.24366 414.655 5.37034 415.377 5.49922L404.488 66.5355C403.893 66.4293 403.297 66.325 402.701 66.2224L413.208 5.11919ZM290.623 5.49924C291.345 5.37035 292.068 5.24367 292.792 5.1192L303.299 66.2224C302.703 66.325 302.107 66.4293 301.512 66.5355L290.623 5.49924ZM420.781 6.50694C421.499 6.64677 422.217 6.78878 422.934 6.93297L410.712 67.7163C410.122 67.5976 409.531 67.4807 408.939 67.3655L420.781 6.50694ZM283.065 6.93299C283.783 6.7888 284.5 6.64679 285.219 6.50696L297.061 67.3655C296.469 67.4807 295.878 67.5976 295.288 67.7164L283.065 6.93299ZM428.329 8.06182C429.047 8.21805 429.765 8.37648 430.482 8.53708L416.927 69.0372C416.337 68.905 415.746 68.7745 415.154 68.6459L428.329 8.06182ZM275.518 8.5371C276.235 8.3765 276.952 8.21807 277.671 8.06184L290.845 68.6459C290.254 68.7746 289.663 68.905 289.073 69.0372L275.518 8.5371ZM435.843 9.7824C436.556 9.95386 437.267 10.1275 437.978 10.3033L423.099 70.4913C422.513 70.3466 421.927 70.2036 421.341 70.0625L435.843 9.7824ZM268.021 10.3033C268.733 10.1275 269.444 9.95388 270.157 9.78242L284.659 70.0625C284.073 70.2036 283.486 70.3466 282.901 70.4913L268.021 10.3033ZM443.309 11.6655C444.02 11.8533 444.731 12.0432 445.44 12.2353L429.241 72.0817C428.657 71.9236 428.072 71.7672 427.487 71.6127L443.309 11.6655ZM260.559 12.2353C261.269 12.0432 261.98 11.8533 262.691 11.6656L278.513 71.6127C277.928 71.7672 277.343 71.9236 276.759 72.0817L260.559 12.2353ZM450.746 13.7162C451.451 13.919 452.155 14.124 452.859 14.3311L435.347 73.8067C434.768 73.6363 434.189 73.4676 433.608 73.3006L450.746 13.7162ZM253.141 14.3311C253.845 14.124 254.549 13.919 255.254 13.7162L272.392 73.3006C271.811 73.4676 271.232 73.6363 270.653 73.8067L253.141 14.3311ZM458.117 15.9243C458.82 16.1432 459.522 16.3643 460.223 16.5875L441.408 75.6639C440.832 75.4802 440.254 75.2983 439.676 75.1181L458.117 15.9243ZM245.777 16.5875C246.478 16.3643 247.18 16.1432 247.883 15.9243L266.324 75.1181C265.746 75.2983 265.168 75.4802 264.591 75.6639L245.777 16.5875ZM465.461 18.3012C466.157 18.5349 466.852 18.7708 467.546 19.0088L447.436 77.6569C446.865 77.461 446.293 77.2668 445.72 77.0744L465.461 18.3012ZM238.454 19.0088C239.148 18.7708 239.843 18.5349 240.539 18.3012L260.28 77.0744C259.707 77.2669 259.135 77.461 258.564 77.6569L238.454 19.0088ZM472.733 20.8329C473.423 21.0816 474.112 21.3324 474.799 21.5852L453.407 79.7776C452.841 79.5695 452.274 79.3631 451.706 79.1584L472.733 20.8329ZM231.201 21.5853C231.888 21.3324 232.577 21.0816 233.267 20.833L254.294 79.1584C253.726 79.3631 253.159 79.5695 252.593 79.7777L231.201 21.5853ZM479.959 23.5281C480.644 23.7923 481.328 24.0586 482.011 24.327L459.344 82.0347C458.781 81.8137 458.218 81.5945 457.654 81.377L479.959 23.5281ZM223.988 24.327C224.672 24.0586 225.356 23.7923 226.041 23.5281L248.346 81.377C247.782 81.5945 247.219 81.8138 246.656 82.0347L223.988 24.327ZM487.116 26.3785C487.794 26.6572 488.471 26.9379 489.147 27.2206L465.218 84.417C464.662 84.1842 464.105 83.9531 463.546 83.7236L487.116 26.3785ZM216.853 27.2206C217.529 26.9379 218.206 26.6572 218.884 26.3785L242.454 83.7236C241.895 83.9531 241.338 84.1842 240.782 84.417L216.853 27.2206ZM494.211 29.3861C494.884 29.6803 495.556 29.9764 496.227 30.2746L471.048 86.9317C470.496 86.6861 469.943 86.4422 469.388 86.2L494.211 29.3861ZM209.773 30.2746C210.444 29.9764 211.116 29.6803 211.789 29.3861L236.612 86.2C236.057 86.4422 235.504 86.6861 234.951 86.9317L209.773 30.2746ZM202.768 33.4798C203.431 33.1675 204.096 32.8572 204.761 32.549L230.824 88.8046C230.276 89.0585 229.729 89.314 229.183 89.5712L202.768 33.4798ZM501.239 32.549C501.904 32.8572 502.569 33.1675 503.232 33.4798L476.817 89.5712C476.271 89.314 475.724 89.0585 475.176 88.8046L501.239 32.549ZM195.833 36.839C196.491 36.5117 197.149 36.1863 197.809 35.8629L225.098 91.5341C224.555 91.8005 224.013 92.0685 223.471 92.3381L195.833 36.839ZM508.191 35.8629C508.851 36.1863 509.509 36.5117 510.167 36.839L482.529 92.3381C481.987 92.0685 481.445 91.8005 480.902 91.5341L508.191 35.8629ZM188.975 40.3487C189.624 40.0076 190.274 39.6684 190.925 39.3312L219.428 94.3912C218.891 94.669 218.356 94.9485 217.821 95.2295L188.975 40.3487ZM515.075 39.3312C515.726 39.6684 516.376 40.0076 517.025 40.3487L488.179 95.2295C487.645 94.9485 487.109 94.669 486.572 94.3912L515.075 39.3312ZM182.197 44.0063C182.839 43.6505 183.483 43.2966 184.128 42.9448L213.827 97.3686C213.296 97.6585 212.766 97.9501 212.236 98.2433L182.197 44.0063ZM521.872 42.9448C522.517 43.2967 523.161 43.6505 523.803 44.0063L493.764 98.2433C493.235 97.9501 492.704 97.6585 492.173 97.3686L521.872 42.9448ZM175.498 47.8128C176.132 47.4436 176.766 47.0762 177.403 46.7108L208.285 100.472C207.761 100.773 207.237 101.076 206.715 101.38L175.498 47.8128ZM528.597 46.7108C529.234 47.0763 529.868 47.4436 530.502 47.8129L499.285 101.38C498.763 101.076 498.239 100.773 497.715 100.472L528.597 46.7108ZM168.889 51.7614C169.515 51.3783 170.141 50.9972 170.77 50.618L202.818 103.693C202.3 104.005 201.783 104.319 201.268 104.635L168.889 51.7614ZM535.231 50.618C535.859 50.9973 536.485 51.3784 537.111 51.7614L504.732 104.635C504.217 104.319 503.7 104.005 503.182 103.693L535.231 50.618ZM162.363 55.8566C162.98 55.46 163.598 55.0653 164.218 54.6724L197.416 107.035C196.905 107.359 196.396 107.684 195.887 108.011L162.363 55.8566ZM541.782 54.6725C542.402 55.0653 543.02 55.4601 543.637 55.8566L510.113 108.012C509.605 107.685 509.095 107.359 508.584 107.035L541.782 54.6725ZM155.933 60.0888C156.541 59.6793 157.15 59.2716 157.76 58.8657L192.092 110.493C191.589 110.827 191.086 111.164 190.585 111.501L155.933 60.0888ZM548.24 58.8658C548.85 59.2716 549.459 59.6793 550.067 60.0889L515.415 111.501C514.914 111.164 514.412 110.827 513.908 110.493L548.24 58.8658ZM149.593 64.4635C150.192 64.0405 150.792 63.6192 151.394 63.1998L186.842 114.067C186.345 114.413 185.85 114.76 185.356 115.109L149.593 64.4635ZM554.606 63.1999C555.208 63.6193 555.808 64.0405 556.407 64.4636L520.644 115.109C520.15 114.761 519.655 114.413 519.158 114.067L554.606 63.1999ZM143.353 68.9721C143.942 68.5364 144.533 68.1025 145.125 67.6704L181.671 117.755C181.182 118.111 180.695 118.469 180.209 118.828L143.353 68.9721ZM560.875 67.6705C561.467 68.1026 562.058 68.5365 562.647 68.9722L525.791 118.828C525.305 118.469 524.818 118.111 524.329 117.755L560.875 67.6705ZM137.211 73.6165C137.791 73.1679 138.373 72.7209 138.956 72.2758L176.581 121.554C176.1 121.921 175.62 122.29 175.142 122.66L137.211 73.6165ZM567.044 72.2759C567.627 72.721 568.209 73.1679 568.789 73.6166L530.858 122.66C530.38 122.29 529.9 121.921 529.419 121.554L567.044 72.2759ZM131.173 78.3922C131.743 77.9312 132.314 77.4721 132.887 77.0146L171.574 125.464C171.102 125.841 170.63 126.22 170.16 126.6L131.173 78.3922ZM573.113 77.0147C573.686 77.4721 574.257 77.9313 574.827 78.3923L535.84 126.6C535.37 126.22 534.898 125.841 534.426 125.464L573.113 77.0147ZM125.24 83.2977C125.8 82.8243 126.362 82.3526 126.925 81.8827L166.654 129.481C166.19 129.868 165.726 130.258 165.264 130.648L125.24 83.2977ZM579.075 81.8828C579.638 82.3527 580.2 82.8244 580.76 83.2978L540.736 130.648C540.274 130.258 539.81 129.869 539.346 129.481L579.075 81.8828ZM119.415 88.3309C119.964 87.8456 120.515 87.362 121.068 86.8801L161.821 133.605C161.365 134.002 160.91 134.401 160.457 134.802L119.415 88.3309ZM584.932 86.8802C585.485 87.3621 586.036 87.8457 586.585 88.331L545.543 134.802C545.09 134.402 544.635 134.003 544.179 133.605L584.932 86.8802ZM113.701 93.4885C114.24 92.9914 114.781 92.4958 115.323 92.002L157.079 137.832C156.632 138.239 156.186 138.648 155.741 139.059L113.701 93.4885ZM590.678 92.0021C591.22 92.496 591.76 92.9915 592.299 93.4887L550.259 139.059C549.814 138.648 549.368 138.239 548.921 137.832L590.678 92.0021ZM108.1 98.7694C108.628 98.2607 109.157 97.7537 109.688 97.2483L152.429 142.162C151.991 142.579 151.554 142.997 151.118 143.417L108.1 98.7694ZM596.312 97.2484C596.843 97.7538 597.372 98.2609 597.9 98.7695L554.882 143.417C554.446 142.997 554.009 142.579 553.571 142.162L596.312 97.2484ZM102.615 104.17C103.132 103.65 103.65 103.132 104.17 102.615L147.875 146.591C147.446 147.018 147.018 147.445 146.591 147.875L102.615 104.17ZM601.83 102.615C602.35 103.132 602.868 103.65 603.385 104.17L559.409 147.875C558.982 147.446 558.555 147.018 558.125 146.591L601.83 102.615ZM97.2484 109.688C97.7538 109.157 98.2609 108.628 98.7695 108.1L143.417 151.118C142.997 151.554 142.579 151.991 142.162 152.429L97.2484 109.688ZM607.231 108.1C607.739 108.628 608.246 109.157 608.752 109.688L563.838 152.429C563.421 151.991 563.003 151.554 562.583 151.118L607.231 108.1ZM92.0021 115.322C92.496 114.78 92.9915 114.24 93.4887 113.701L139.059 155.741C138.648 156.186 138.239 156.632 137.832 157.079L92.0021 115.322ZM612.511 113.701C613.009 114.24 613.504 114.781 613.998 115.323L568.168 157.079C567.761 156.632 567.352 156.186 566.941 155.741L612.511 113.701ZM86.8802 121.068C87.3621 120.515 87.8457 119.964 88.331 119.415L134.802 160.457C134.402 160.91 134.003 161.365 133.605 161.821L86.8802 121.068ZM617.669 119.415C618.154 119.964 618.638 120.515 619.12 121.068L572.395 161.821C571.998 161.365 571.599 160.91 571.198 160.457L617.669 119.415ZM81.8828 126.925C82.3527 126.362 82.8244 125.8 83.2978 125.24L130.648 165.264C130.258 165.726 129.869 166.19 129.481 166.654L81.8828 126.925ZM622.702 125.24C623.176 125.8 623.647 126.362 624.117 126.925L576.519 166.654C576.132 166.19 575.742 165.726 575.352 165.264L622.702 125.24ZM77.0147 132.887C77.4721 132.314 77.9313 131.743 78.3923 131.173L126.6 170.16C126.22 170.63 125.841 171.102 125.464 171.574L77.0147 132.887ZM627.608 131.173C628.069 131.743 628.528 132.314 628.985 132.887L580.536 171.574C580.159 171.102 579.78 170.63 579.4 170.16L627.608 131.173ZM72.2759 138.956C72.721 138.373 73.1679 137.791 73.6166 137.211L122.66 175.142C122.29 175.62 121.921 176.1 121.554 176.581L72.2759 138.956ZM632.383 137.211C632.832 137.791 633.279 138.373 633.724 138.956L584.446 176.581C584.231 176.3 584.016 176.019 583.8 175.738C583.647 175.539 583.494 175.34 583.34 175.142L632.383 137.211ZM67.6705 145.125C68.1026 144.533 68.5365 143.942 68.9722 143.353L118.828 180.209C118.469 180.695 118.111 181.182 117.755 181.671L67.6705 145.125ZM637.028 143.353C637.464 143.942 637.897 144.533 638.33 145.125L588.245 181.671C587.889 181.182 587.531 180.695 587.172 180.209L637.028 143.353ZM63.1999 151.394C63.6193 150.792 64.0405 150.192 64.4636 149.593L115.109 185.356C114.761 185.85 114.413 186.345 114.067 186.842L63.1999 151.394ZM641.536 149.593C641.96 150.192 642.381 150.792 642.8 151.394L591.933 186.842C591.587 186.345 591.24 185.85 590.891 185.356L641.536 149.593ZM58.8658 157.76C59.2716 157.15 59.6793 156.541 60.0889 155.933L111.501 190.585C111.164 191.086 110.827 191.588 110.493 192.092L58.8658 157.76ZM645.911 155.933C646.321 156.541 646.728 157.15 647.134 157.76L595.507 192.092C595.173 191.589 594.836 191.086 594.499 190.585L645.911 155.933ZM54.6725 164.217C55.0653 163.598 55.4601 162.98 55.8566 162.363L108.012 195.887C107.685 196.395 107.359 196.905 107.035 197.416L54.6725 164.217ZM650.143 162.363C650.54 162.98 650.935 163.598 651.328 164.218L598.965 197.416C598.749 197.075 598.532 196.735 598.315 196.396C598.206 196.226 598.097 196.056 597.989 195.887L650.143 162.363ZM50.618 170.769C50.9973 170.141 51.3784 169.515 51.7614 168.889L104.635 201.268C104.319 201.783 104.005 202.3 103.693 202.818L50.618 170.769ZM654.239 168.889C654.622 169.515 655.003 170.141 655.382 170.77L602.307 202.818C601.995 202.3 601.681 201.783 601.365 201.268L654.239 168.889ZM46.7108 177.403C47.0763 176.766 47.4436 176.132 47.8129 175.498L101.38 206.715C101.076 207.237 100.773 207.761 100.472 208.285L46.7108 177.403ZM658.187 175.498C658.556 176.132 658.924 176.766 659.289 177.403L605.528 208.285C605.227 207.761 604.924 207.237 604.62 206.715L658.187 175.498ZM42.9448 184.128C43.2967 183.483 43.6505 182.839 44.0063 182.197L98.2433 212.236C97.9501 212.765 97.6585 213.296 97.3686 213.827L42.9448 184.128ZM662.644 183.376C662.781 183.627 662.918 183.877 663.055 184.128L608.631 213.827C608.341 213.296 608.05 212.766 607.757 212.236L661.994 182.197C662.211 182.59 662.428 182.983 662.644 183.376ZM39.3312 190.925C39.6684 190.274 40.0076 189.624 40.3487 188.975L95.2295 217.821C94.9485 218.356 94.669 218.891 94.3912 219.428L39.3312 190.925ZM665.651 188.975C665.992 189.624 666.332 190.274 666.669 190.925L611.609 219.428C611.456 219.133 611.303 218.838 611.149 218.543C611.023 218.302 610.897 218.061 610.77 217.821L665.651 188.975ZM35.8629 197.809C36.1863 197.149 36.5117 196.491 36.839 195.833L92.3381 223.471C92.0685 224.013 91.8005 224.555 91.5341 225.098L35.8629 197.809ZM669.161 195.833C669.488 196.491 669.814 197.149 670.137 197.809L614.466 225.098C614.2 224.555 613.932 224.013 613.662 223.471L669.161 195.833ZM32.549 204.761C32.8572 204.096 33.1675 203.431 33.4798 202.768L89.5712 229.183C89.314 229.729 89.0585 230.276 88.8046 230.824L32.549 204.761ZM672.52 202.768C672.832 203.431 673.143 204.096 673.451 204.761L617.195 230.824C616.942 230.276 616.686 229.729 616.429 229.183L672.52 202.768ZM675.725 209.773C676.024 210.444 676.32 211.116 676.614 211.789L619.8 236.612C619.655 236.28 619.509 235.948 619.363 235.616C619.265 235.394 619.167 235.173 619.068 234.951L675.725 209.773ZM29.3861 211.789C29.6803 211.116 29.9764 210.444 30.2746 209.773L86.9317 234.951C86.6861 235.504 86.4422 236.057 86.2 236.612L29.3861 211.789ZM26.3785 218.884C26.6572 218.206 26.9379 217.529 27.2206 216.853L84.417 240.782C84.1842 241.338 83.9531 241.895 83.7236 242.454L26.3785 218.884ZM678.779 216.853C679.062 217.529 679.343 218.206 679.622 218.884L622.276 242.454C622.144 242.131 622.011 241.809 621.877 241.487C621.779 241.252 621.681 241.017 621.583 240.782L678.779 216.853ZM681.673 223.988C681.941 224.672 682.208 225.356 682.472 226.041L624.623 248.346C624.406 247.782 624.186 247.219 623.965 246.656L681.673 223.988ZM23.5281 226.041C23.7923 225.356 24.0586 224.672 24.327 223.989L82.0347 246.656C81.8137 247.219 81.5945 247.782 81.377 248.346L23.5281 226.041ZM684.415 231.201C684.668 231.888 684.918 232.577 685.167 233.267L626.842 254.294C626.73 253.986 626.618 253.677 626.506 253.369C626.412 253.11 626.317 252.852 626.222 252.593L684.415 231.201ZM20.8329 233.267C21.0816 232.577 21.3324 231.888 21.5852 231.201L79.7776 252.593C79.5695 253.159 79.3631 253.726 79.1584 254.294L20.8329 233.267ZM686.991 238.454C687.229 239.148 687.465 239.843 687.699 240.539L628.926 260.28C628.733 259.707 628.539 259.135 628.343 258.564L686.991 238.454ZM18.3012 240.539C18.5349 239.843 18.7708 239.148 19.0088 238.454L77.6569 258.564C77.461 259.135 77.2668 259.707 77.0744 260.28L18.3012 240.539ZM689.865 247.209C689.936 247.434 690.006 247.658 690.076 247.883L630.882 266.324C630.702 265.746 630.52 265.168 630.336 264.591L689.413 245.777C689.564 246.254 689.715 246.731 689.865 247.209ZM15.9243 247.883C16.1432 247.18 16.3643 246.478 16.5875 245.777L75.6639 264.591C75.4802 265.168 75.2983 265.746 75.1181 266.324L15.9243 247.883ZM691.669 253.141C691.876 253.845 692.081 254.549 692.284 255.254L632.699 272.392C632.602 272.052 632.503 271.712 632.404 271.372C632.334 271.132 632.264 270.892 632.193 270.653L691.669 253.141ZM13.7162 255.254C13.919 254.549 14.124 253.845 14.3311 253.141L73.8067 270.653C73.6363 271.232 73.4676 271.811 73.3006 272.392L13.7162 255.254ZM693.765 260.559C693.957 261.269 694.147 261.98 694.334 262.691L634.387 278.513C634.233 277.928 634.076 277.343 633.918 276.759L693.765 260.559ZM11.6655 262.691C11.8533 261.98 12.0432 261.269 12.2353 260.56L72.0817 276.759C71.9236 277.343 71.7672 277.928 71.6127 278.513L11.6655 262.691ZM695.864 268.7C695.983 269.186 696.101 269.671 696.218 270.157L635.938 284.659C635.796 284.073 635.653 283.486 635.509 282.901L695.697 268.021C695.753 268.248 695.808 268.474 695.864 268.7ZM9.7824 270.157C9.95386 269.444 10.1275 268.733 10.3033 268.022L70.4913 282.901C70.3466 283.487 70.2036 284.073 70.0625 284.659L9.7824 270.157ZM697.463 275.518C697.623 276.235 697.782 276.952 697.938 277.671L637.354 290.845C637.225 290.254 637.095 289.663 636.963 289.073L697.463 275.518ZM8.06182 277.671C8.21805 276.953 8.37648 276.235 8.53708 275.518L69.0372 289.073C68.905 289.663 68.7745 290.254 68.6459 290.846L8.06182 277.671ZM699.067 283.065C699.211 283.783 699.353 284.5 699.493 285.219L638.635 297.061C638.519 296.469 638.402 295.878 638.284 295.288L699.067 283.065ZM6.50694 285.219C6.64677 284.5 6.78878 283.783 6.93297 283.066L67.7163 295.288C67.5976 295.878 67.4807 296.469 67.3655 297.061L6.50694 285.219ZM700.689 291.687C700.753 292.055 700.817 292.424 700.881 292.792L639.778 303.299C639.675 302.703 639.571 302.107 639.465 301.512L700.501 290.623C700.564 290.977 700.627 291.332 700.689 291.687ZM5.11919 292.792C5.24366 292.068 5.37034 291.345 5.49922 290.623L66.5355 301.512C66.4293 302.107 66.325 302.703 66.2224 303.299L5.11919 292.792ZM701.773 298.235C701.886 298.959 701.996 299.684 702.105 300.41L640.786 309.576C640.697 308.978 640.606 308.381 640.513 307.784L701.773 298.235ZM3.89503 300.41C4.00351 299.685 4.11421 298.96 4.22711 298.235L65.4874 307.784C65.3944 308.381 65.3031 308.978 65.2137 309.576L3.89503 300.41ZM702.874 305.844C702.971 306.57 703.066 307.297 703.159 308.025L641.655 315.853C641.578 315.253 641.5 314.654 641.42 314.055L702.874 305.844ZM2.84147 308.025C2.93407 307.297 3.02889 306.571 3.12593 305.844L64.5798 314.055C64.4998 314.654 64.4217 315.253 64.3453 315.853L2.84147 308.025ZM703.941 314.676C703.978 315.014 704.014 315.351 704.049 315.689L642.389 322.173C642.326 321.569 642.26 320.966 642.193 320.363L703.811 313.494C703.855 313.888 703.898 314.282 703.941 314.676ZM1.95091 315.689C2.02791 314.957 2.10715 314.225 2.18862 313.494L63.807 320.363C63.7398 320.966 63.6744 321.569 63.6109 322.173L1.95091 315.689ZM704.581 321.152C704.646 321.88 704.709 322.609 704.77 323.339L642.984 328.485C642.934 327.883 642.882 327.281 642.828 326.68L704.581 321.152ZM1.23022 323.339C1.29099 322.609 1.35398 321.88 1.41919 321.152L63.1722 326.68C63.1184 327.281 63.0664 327.883 63.0163 328.485L1.23022 323.339ZM705.184 328.822C705.233 329.554 705.281 330.287 705.326 331.021L643.443 334.828C643.406 334.222 643.366 333.616 643.326 333.011L705.184 328.822ZM0.67412 331.021C0.719252 330.287 0.766628 329.554 0.816242 328.822L62.6745 333.012C62.6335 333.616 62.5944 334.222 62.5572 334.828L0.67412 331.021ZM705.621 336.516C705.655 337.245 705.686 337.974 705.715 338.704L643.765 341.175C643.741 340.572 643.715 339.97 643.687 339.368L705.621 336.516ZM0.284662 338.704C0.313772 337.975 0.345102 337.245 0.378647 336.517L62.3131 339.368C62.2853 339.97 62.2594 340.572 62.2354 341.176L0.284662 338.704ZM705.892 344.187C705.91 344.92 705.926 345.652 705.939 346.386L643.95 347.527C643.938 346.92 643.925 346.314 643.911 345.708L705.892 344.187ZM0.0608273 346.386C0.0743275 345.653 0.0900669 344.92 0.108042 344.187L62.0894 345.709C62.0745 346.314 62.0615 346.92 62.0503 347.527L0.0608273 346.386ZM705.998 351.896C705.999 352.264 706 352.632 706 353C706 353.368 705.999 353.736 705.998 354.104L643.999 353.914C644 353.609 644 353.305 644 353C644 352.695 644 352.391 643.999 352.086L705.998 351.896ZM0 353C0 352.632 0.000564575 352.264 0.00169373 351.896L62.0014 352.086C62.0005 352.391 62 352.695 62 353C62 353.305 62.0005 353.609 62.0014 353.914L0.00169373 354.104C0.000564575 353.736 0 353.368 0 353ZM705.939 359.614C705.926 360.347 705.91 361.08 705.892 361.813L643.911 360.291C643.919 359.955 643.927 359.619 643.934 359.283C643.939 359.013 643.945 358.743 643.95 358.473L705.939 359.614ZM0.108046 361.813C0.0900707 361.08 0.0743294 360.348 0.0608311 359.614L62.0503 358.473C62.0615 359.08 62.0745 359.686 62.0894 360.292L0.108046 361.813ZM705.715 367.296C705.686 368.025 705.655 368.755 705.621 369.483L643.687 366.632C643.715 366.03 643.741 365.428 643.765 364.824L705.715 367.296ZM0.378653 369.484C0.34511 368.755 0.313778 368.026 0.284668 367.296L62.2354 364.825C62.2595 365.428 62.2853 366.03 62.3131 366.632L0.378653 369.484ZM705.326 374.979C705.281 375.713 705.233 376.446 705.184 377.178L643.326 372.988C643.366 372.384 643.406 371.778 643.443 371.172L705.326 374.979ZM0.816252 377.178C0.766638 376.446 0.719261 375.713 0.674129 374.979L62.5572 371.172C62.5944 371.778 62.6336 372.384 62.6745 372.989L0.816252 377.178ZM704.77 382.661C704.709 383.391 704.646 384.12 704.581 384.848L642.828 379.32C642.882 378.719 642.934 378.117 642.984 377.515L704.77 382.661ZM1.4192 384.848C1.35399 384.12 1.291 383.391 1.23024 382.661L63.0163 377.515C63.0664 378.117 63.1184 378.719 63.1722 379.32L1.4192 384.848ZM704.049 390.311C703.972 391.043 703.893 391.775 703.811 392.506L642.193 385.637C642.26 385.034 642.326 384.431 642.389 383.827L704.049 390.311ZM2.18864 392.506C2.10716 391.775 2.02793 391.043 1.95093 390.311L63.6109 383.827C63.6744 384.431 63.7398 385.034 63.807 385.637L2.18864 392.506ZM703.159 397.975C703.066 398.703 702.971 399.429 702.874 400.156L641.42 391.945C641.5 391.346 641.578 390.747 641.655 390.147L703.159 397.975ZM3.12594 400.156C3.02891 399.43 2.93409 398.703 2.84148 397.975L64.3453 390.147C64.4217 390.747 64.4999 391.346 64.5798 391.945L3.12594 400.156ZM702.105 405.59C701.996 406.315 701.886 407.04 701.773 407.765L640.513 398.216C640.606 397.619 640.697 397.022 640.786 396.424L702.105 405.59ZM4.22712 407.765C4.11422 407.041 4.00352 406.316 3.89504 405.59L65.2138 396.424C65.3032 397.022 65.3944 397.619 65.4874 398.216L4.22712 407.765ZM700.881 413.208C700.756 413.932 700.63 414.655 700.501 415.377L639.465 404.488C639.571 403.893 639.675 403.297 639.778 402.701L700.881 413.208ZM5.49924 415.377C5.37035 414.655 5.24367 413.932 5.1192 413.208L66.2224 402.701C66.325 403.297 66.4293 403.893 66.5355 404.488L5.49924 415.377ZM699.493 420.781C699.353 421.499 699.211 422.217 699.067 422.934L638.284 410.712C638.402 410.122 638.519 409.531 638.635 408.939L699.493 420.781ZM6.93299 422.934C6.7888 422.217 6.64679 421.5 6.50696 420.781L67.3655 408.939C67.4807 409.531 67.5976 410.122 67.7164 410.712L6.93299 422.934ZM697.938 428.329C697.782 429.047 697.624 429.765 697.463 430.482L636.963 416.927C637.095 416.337 637.225 415.746 637.354 415.154L697.938 428.329ZM8.5371 430.482C8.3765 429.765 8.21807 429.048 8.06184 428.329L68.6459 415.155C68.7746 415.746 68.905 416.337 69.0372 416.927L8.5371 430.482ZM695.72 437.885L695.697 437.978L635.509 423.099C635.653 422.513 635.796 421.927 635.938 421.341L696.218 435.843C696.054 436.524 695.888 437.205 695.72 437.885ZM10.3033 437.979C10.1275 437.268 9.95388 436.556 9.78242 435.843L70.0625 421.341C70.2036 421.927 70.3466 422.514 70.4913 423.099L10.3033 437.979ZM694.029 444.46C693.941 444.787 693.853 445.114 693.765 445.44L633.918 429.241C634.076 428.657 634.233 428.072 634.387 427.487L694.334 443.309C694.233 443.693 694.131 444.076 694.029 444.46ZM12.2353 445.441C12.0432 444.731 11.8533 444.02 11.6656 443.309L71.6127 427.487C71.7672 428.072 71.9236 428.657 72.0817 429.241L12.2353 445.441ZM692.284 450.746C692.081 451.451 691.876 452.155 691.669 452.859L632.193 435.347C632.294 435.004 632.395 434.661 632.494 434.318C632.563 434.081 632.631 433.845 632.699 433.608L692.284 450.746ZM14.3311 452.859C14.124 452.155 13.919 451.451 13.7162 450.746L73.3006 433.608C73.4676 434.189 73.6363 434.768 73.8067 435.347L14.3311 452.859ZM690.076 458.117C689.857 458.82 689.636 459.522 689.413 460.223L630.336 441.408C630.52 440.832 630.702 440.254 630.882 439.676L690.076 458.117ZM16.5875 460.223C16.3643 459.522 16.1432 458.82 15.9243 458.117L75.1181 439.676C75.2983 440.254 75.4802 440.832 75.6639 441.409L16.5875 460.223ZM687.699 465.461C687.465 466.157 687.229 466.852 686.991 467.546L628.343 447.436C628.539 446.865 628.733 446.293 628.926 445.72L687.699 465.461ZM19.0088 467.546C18.7708 466.852 18.5349 466.157 18.3012 465.461L77.0744 445.72C77.2669 446.293 77.461 446.865 77.6569 447.436L19.0088 467.546ZM685.167 472.733C684.918 473.423 684.668 474.112 684.415 474.799L626.222 453.407C626.43 452.841 626.637 452.274 626.842 451.706L685.167 472.733ZM21.5853 474.799C21.3324 474.112 21.0816 473.423 20.833 472.733L79.1584 451.706C79.3631 452.274 79.5695 452.841 79.7777 453.407L21.5853 474.799ZM24.327 482.012C24.0586 481.328 23.7923 480.644 23.5281 479.959L81.377 457.654C81.5945 458.218 81.8138 458.781 82.0347 459.344L24.327 482.012ZM682.472 479.959C682.208 480.644 681.941 481.328 681.673 482.011L623.965 459.344C624.186 458.781 624.406 458.218 624.623 457.654L682.472 479.959ZM27.2206 489.147C26.9379 488.471 26.6572 487.794 26.3785 487.116L83.7236 463.546C83.9531 464.105 84.1842 464.662 84.417 465.218L27.2206 489.147ZM679.622 487.116C679.343 487.794 679.062 488.471 678.779 489.147L621.583 465.218C621.816 464.662 622.047 464.105 622.276 463.546L679.622 487.116ZM676.614 494.211C676.32 494.884 676.024 495.556 675.725 496.227L619.068 471.048C619.314 470.496 619.558 469.943 619.8 469.388L676.614 494.211ZM30.2746 496.227C29.9764 495.556 29.6803 494.884 29.3861 494.211L86.2 469.388C86.4422 469.943 86.6861 470.496 86.9317 471.049L30.2746 496.227ZM33.4798 503.232C33.1675 502.569 32.8572 501.904 32.549 501.239L88.8046 475.176C89.0585 475.724 89.314 476.271 89.5712 476.817L33.4798 503.232ZM673.451 501.239C673.143 501.904 672.832 502.569 672.52 503.232L616.429 476.817C616.686 476.271 616.942 475.724 617.195 475.176L673.451 501.239ZM36.839 510.167C36.5117 509.509 36.1863 508.851 35.8629 508.191L91.5341 480.902C91.8005 481.445 92.0685 481.987 92.3381 482.529L36.839 510.167ZM670.137 508.191C669.814 508.851 669.488 509.509 669.161 510.167L613.662 482.529C613.811 482.229 613.96 481.929 614.108 481.629C614.228 481.387 614.347 481.144 614.466 480.902L670.137 508.191ZM40.3487 517.025C40.0076 516.376 39.6684 515.726 39.3312 515.075L94.3912 486.572C94.669 487.109 94.9485 487.644 95.2295 488.179L40.3487 517.025ZM666.669 515.075C666.332 515.726 665.992 516.376 665.651 517.025L610.77 488.179C611.052 487.645 611.331 487.109 611.609 486.572L666.669 515.075ZM44.0063 523.803C43.6505 523.161 43.2966 522.517 42.9448 521.872L97.3686 492.173C97.6585 492.704 97.9501 493.234 98.2433 493.764L44.0063 523.803ZM663.055 521.872C662.703 522.517 662.349 523.161 661.994 523.803L607.757 493.764C608.05 493.235 608.341 492.704 608.631 492.173L663.055 521.872ZM47.8128 530.502C47.4436 529.868 47.0762 529.234 46.7108 528.597L100.472 497.715C100.773 498.239 101.076 498.763 101.38 499.285L47.8128 530.502ZM659.289 528.597C658.924 529.234 658.556 529.868 658.187 530.502L604.62 499.285C604.924 498.763 605.227 498.239 605.528 497.715L659.289 528.597ZM51.7614 537.111C51.3783 536.485 50.9972 535.859 50.618 535.23L103.693 503.182C104.005 503.7 104.319 504.217 104.635 504.732L51.7614 537.111ZM655.382 535.231C655.003 535.859 654.622 536.485 654.239 537.111L601.365 504.732C601.525 504.471 601.684 504.21 601.843 503.948C601.998 503.693 602.153 503.438 602.307 503.182L655.382 535.231ZM55.8566 543.637C55.46 543.02 55.0653 542.402 54.6724 541.782L107.035 508.584C107.359 509.095 107.684 509.604 108.011 510.113L55.8566 543.637ZM651.328 541.782C650.935 542.402 650.54 543.02 650.143 543.637L597.988 510.113C598.315 509.605 598.641 509.095 598.965 508.584L651.328 541.782ZM60.0888 550.067C59.6793 549.459 59.2716 548.85 58.8657 548.24L110.493 513.908C110.827 514.411 111.164 514.914 111.501 515.415L60.0888 550.067ZM647.134 548.24C646.728 548.85 646.321 549.459 645.911 550.067L594.499 515.415C594.836 514.914 595.172 514.412 595.507 513.908L647.134 548.24ZM64.4635 556.407C64.0405 555.808 63.6192 555.208 63.1998 554.606L114.067 519.158C114.413 519.655 114.76 520.15 115.109 520.644L64.4635 556.407ZM642.8 554.606C642.381 555.208 641.959 555.808 641.536 556.407L590.891 520.644C591.24 520.15 591.587 519.655 591.933 519.158L642.8 554.606ZM68.9721 562.647C68.5364 562.057 68.1025 561.467 67.6704 560.875L117.755 524.329C118.111 524.818 118.469 525.305 118.828 525.791L68.9721 562.647ZM638.329 560.875C637.897 561.467 637.464 562.058 637.028 562.647L587.172 525.791C587.531 525.305 587.889 524.818 588.245 524.329L638.329 560.875ZM73.6165 568.789C73.1679 568.209 72.7209 567.627 72.2758 567.044L121.554 529.419C121.921 529.9 122.29 530.38 122.66 530.858L73.6165 568.789ZM633.724 567.044C633.279 567.627 632.832 568.209 632.383 568.789L583.34 530.858C583.71 530.38 584.079 529.9 584.446 529.419L633.724 567.044ZM78.3922 574.827C77.9312 574.257 77.4721 573.686 77.0146 573.113L125.464 534.426C125.841 534.898 126.22 535.37 126.6 535.84L78.3922 574.827ZM628.985 573.113C628.528 573.686 628.069 574.257 627.608 574.827L579.4 535.84C579.78 535.37 580.159 534.898 580.536 534.426L628.985 573.113ZM83.2977 580.76C82.8243 580.2 82.3526 579.638 81.8827 579.075L129.481 539.346C129.868 539.81 130.258 540.274 130.648 540.736L83.2977 580.76ZM623.286 580.068C623.092 580.299 622.897 580.529 622.702 580.76L575.352 540.736C575.742 540.274 576.131 539.81 576.519 539.346L624.117 579.075C623.841 579.407 623.564 579.737 623.286 580.068ZM88.3309 586.585C87.8456 586.036 87.362 585.485 86.8801 584.932L133.605 544.179C134.002 544.635 134.401 545.09 134.802 545.543L88.3309 586.585ZM619.12 584.932C618.638 585.485 618.154 586.036 617.669 586.585L571.198 545.543C571.598 545.09 571.997 544.635 572.395 544.179L619.12 584.932ZM93.4885 592.299C92.9914 591.76 92.4958 591.219 92.002 590.677L137.832 548.921C138.239 549.368 138.648 549.814 139.059 550.259L93.4885 592.299ZM613.998 590.678C613.504 591.22 613.008 591.76 612.511 592.299L566.941 550.259C567.352 549.814 567.761 549.368 568.168 548.921L613.998 590.678ZM98.7694 597.9C98.2607 597.372 97.7537 596.843 97.2483 596.312L142.162 553.571C142.579 554.009 142.997 554.446 143.417 554.882L98.7694 597.9ZM608.752 596.312C608.246 596.843 607.739 597.372 607.23 597.9L562.583 554.882C563.003 554.446 563.421 554.009 563.838 553.571L608.752 596.312ZM104.17 603.385C103.65 602.868 103.132 602.35 102.615 601.83L146.591 558.125C147.018 558.554 147.445 558.982 147.875 559.409L104.17 603.385ZM603.385 601.83C602.868 602.35 602.35 602.868 601.83 603.385L558.125 559.409C558.554 558.982 558.982 558.555 559.409 558.125L603.385 601.83ZM109.688 608.752C109.157 608.246 108.628 607.739 108.1 607.23L151.118 562.583C151.554 563.003 151.991 563.421 152.429 563.838L109.688 608.752ZM597.9 607.231C597.372 607.739 596.843 608.246 596.312 608.752L553.571 563.838C554.009 563.421 554.446 563.003 554.882 562.583L597.9 607.231ZM115.322 613.998C114.78 613.504 114.24 613.008 113.701 612.511L155.741 566.941C156.186 567.352 156.632 567.761 157.079 568.168L115.322 613.998ZM591.349 613.384C591.126 613.589 590.902 613.794 590.677 613.998L548.921 568.168C549.368 567.761 549.814 567.352 550.259 566.941L592.299 612.511C591.983 612.803 591.666 613.094 591.349 613.384ZM121.068 619.12C120.515 618.638 119.964 618.154 119.415 617.669L160.457 571.198C160.91 571.598 161.365 571.997 161.821 572.395L121.068 619.12ZM586.585 617.669C586.036 618.154 585.485 618.638 584.932 619.12L544.179 572.395C544.425 572.181 544.67 571.966 544.916 571.751C545.125 571.567 545.334 571.383 545.543 571.198L586.585 617.669ZM126.925 624.117C126.362 623.647 125.8 623.176 125.24 622.702L165.264 575.352C165.726 575.742 166.19 576.131 166.654 576.519L126.925 624.117ZM580.76 622.702C580.2 623.176 579.638 623.647 579.075 624.117L539.346 576.519C539.81 576.132 540.274 575.742 540.736 575.352L580.76 622.702ZM132.887 628.985C132.314 628.528 131.743 628.069 131.173 627.608L170.16 579.4C170.63 579.78 171.102 580.159 171.574 580.536L132.887 628.985ZM574.827 627.608C574.257 628.069 573.686 628.528 573.113 628.985L534.426 580.536C534.898 580.159 535.37 579.78 535.84 579.4L574.827 627.608ZM138.956 633.724C138.373 633.279 137.791 632.832 137.211 632.383L175.142 583.34C175.62 583.71 176.1 584.079 176.581 584.446L138.956 633.724ZM568.789 632.383C568.209 632.832 567.627 633.279 567.044 633.724L529.419 584.446C529.9 584.079 530.38 583.71 530.858 583.34L568.789 632.383ZM145.125 638.329C144.533 637.897 143.942 637.464 143.353 637.028L180.209 587.172C180.695 587.531 181.182 587.889 181.671 588.245L145.125 638.329ZM561.745 637.692C561.455 637.905 561.165 638.118 560.875 638.33L524.329 588.245C524.574 588.067 524.819 587.888 525.063 587.708C525.306 587.53 525.549 587.351 525.791 587.172L562.647 637.028C562.347 637.25 562.046 637.471 561.745 637.692ZM151.394 642.8C150.792 642.381 150.192 641.959 149.593 641.536L185.356 590.891C185.85 591.24 186.345 591.587 186.842 591.933L151.394 642.8ZM556.407 641.536C555.808 641.96 555.208 642.381 554.606 642.8L519.158 591.933C519.655 591.587 520.15 591.24 520.644 590.891L556.407 641.536ZM157.76 647.134C157.15 646.728 156.541 646.321 155.933 645.911L190.585 594.499C191.086 594.836 191.588 595.172 192.092 595.507L157.76 647.134ZM550.067 645.911C549.459 646.321 548.85 646.728 548.24 647.134L513.908 595.507C514.411 595.173 514.914 594.836 515.415 594.499L550.067 645.911ZM164.217 651.328C163.598 650.935 162.98 650.54 162.363 650.143L195.887 597.988C196.395 598.315 196.905 598.641 197.416 598.965L164.217 651.328ZM543.637 650.143C543.02 650.54 542.402 650.935 541.782 651.328L508.584 598.965C509.095 598.641 509.604 598.315 510.113 597.989L543.637 650.143ZM170.769 655.382C170.141 655.003 169.515 654.622 168.889 654.239L201.268 601.365C201.783 601.681 202.3 601.995 202.818 602.307L170.769 655.382ZM537.111 654.239C536.485 654.622 535.859 655.003 535.23 655.382L503.182 602.307C503.7 601.995 504.217 601.681 504.732 601.365L537.111 654.239ZM177.403 659.289C176.766 658.924 176.132 658.556 175.498 658.187L206.715 604.62C207.237 604.924 207.761 605.227 208.285 605.528L177.403 659.289ZM530.502 658.187C529.868 658.556 529.234 658.924 528.597 659.289L497.715 605.528C498.239 605.227 498.763 604.924 499.285 604.62L530.502 658.187ZM184.128 663.055C183.483 662.703 182.839 662.349 182.197 661.994L212.236 607.757C212.765 608.05 213.296 608.341 213.827 608.631L184.128 663.055ZM522.869 662.509C522.537 662.692 522.205 662.874 521.872 663.055L492.173 608.631C492.704 608.341 493.234 608.05 493.764 607.757L523.803 661.994C523.492 662.166 523.18 662.338 522.869 662.509ZM190.925 666.669C190.274 666.332 189.624 665.992 188.975 665.651L217.821 610.77C218.356 611.052 218.891 611.331 219.428 611.609L190.925 666.669ZM515.838 666.273C515.583 666.405 515.329 666.537 515.075 666.669L486.572 611.609C487.109 611.331 487.644 611.052 488.179 610.77L517.025 665.651C516.63 665.859 516.234 666.066 515.838 666.273ZM197.809 670.137C197.149 669.814 196.491 669.488 195.833 669.161L223.471 613.662C224.013 613.932 224.555 614.2 225.098 614.466L197.809 670.137ZM510.167 669.161C509.509 669.488 508.851 669.814 508.191 670.137L480.902 614.466C481.445 614.2 481.987 613.932 482.529 613.662L510.167 669.161ZM204.761 673.451C204.096 673.143 203.431 672.832 202.768 672.52L229.183 616.429C229.729 616.686 230.276 616.942 230.824 617.195L204.761 673.451ZM503.232 672.52C502.569 672.832 501.904 673.143 501.239 673.451L475.176 617.195C475.724 616.942 476.271 616.686 476.817 616.429L503.232 672.52ZM211.789 676.614C211.116 676.32 210.444 676.024 209.773 675.725L234.951 619.068C235.504 619.314 236.057 619.558 236.612 619.8L211.789 676.614ZM494.962 676.285C494.712 676.395 494.462 676.504 494.211 676.614L469.388 619.8C469.943 619.558 470.496 619.314 471.049 619.068L496.227 675.725C495.806 675.913 495.384 676.099 494.962 676.285ZM218.884 679.622C218.206 679.343 217.529 679.062 216.853 678.779L240.782 621.583C241.081 621.708 241.38 621.833 241.679 621.957C241.937 622.064 242.195 622.17 242.454 622.276L218.884 679.622ZM489.147 678.779C488.471 679.062 487.794 679.343 487.116 679.622L463.546 622.276C464.105 622.047 464.662 621.816 465.218 621.583L489.147 678.779ZM226.041 682.472C225.356 682.208 224.672 681.941 223.989 681.673L246.656 623.965C247.219 624.186 247.782 624.406 248.346 624.623L226.041 682.472ZM482.012 681.673C481.328 681.941 480.644 682.208 479.959 682.472L457.654 624.623C458.218 624.406 458.781 624.186 459.344 623.965L482.012 681.673ZM231.621 684.569C231.481 684.518 231.341 684.466 231.201 684.415L252.593 626.222C253.159 626.43 253.726 626.637 254.294 626.842L233.267 685.167C232.718 684.969 232.169 684.77 231.621 684.569ZM474.799 684.415C474.112 684.668 473.423 684.918 472.733 685.167L451.706 626.842C452.185 626.669 452.664 626.495 453.143 626.319L453.407 626.222L474.799 684.415ZM467.546 686.991C466.852 687.229 466.157 687.465 465.461 687.699L445.72 628.926C446.293 628.733 446.865 628.539 447.436 628.343L467.546 686.991ZM240.539 687.699C239.843 687.465 239.148 687.229 238.454 686.991L258.564 628.343C258.9 628.458 259.236 628.573 259.572 628.687C259.808 628.767 260.044 628.846 260.28 628.926L240.539 687.699ZM247.883 690.076C247.18 689.857 246.478 689.636 245.777 689.413L264.591 630.336C265.168 630.52 265.746 630.702 266.324 630.882L247.883 690.076ZM460.223 689.413C459.522 689.636 458.82 689.857 458.117 690.076L439.676 630.882C440.254 630.702 440.832 630.52 441.409 630.336L460.223 689.413ZM255.254 692.284C254.549 692.081 253.845 691.876 253.141 691.669L270.653 632.193C271.232 632.364 271.811 632.532 272.392 632.699L255.254 692.284ZM451.791 691.981C451.443 692.083 451.095 692.183 450.746 692.284L433.608 632.699C434.189 632.532 434.768 632.364 435.347 632.193L452.859 691.669C452.503 691.774 452.147 691.878 451.791 691.981ZM262.691 694.334C261.98 694.147 261.269 693.957 260.56 693.765L276.759 633.918C277.068 634.002 277.378 634.085 277.688 634.168C277.963 634.242 278.238 634.315 278.513 634.387L262.691 694.334ZM445.441 693.765C444.731 693.957 444.02 694.147 443.309 694.334L427.487 634.387C428.072 634.233 428.657 634.076 429.241 633.918L445.441 693.765ZM270.157 696.218C269.444 696.046 268.733 695.872 268.022 695.697L282.901 635.509C283.487 635.653 284.073 635.796 284.659 635.938L270.157 696.218ZM437.979 695.697C437.268 695.872 436.556 696.046 435.843 696.218L421.341 635.938C421.927 635.796 422.514 635.653 423.099 635.509L437.979 695.697ZM277.671 697.938C276.953 697.782 276.235 697.624 275.518 697.463L289.073 636.963C289.663 637.095 290.254 637.225 290.846 637.354L277.671 697.938ZM430.482 697.463C429.765 697.623 429.048 697.782 428.329 697.938L415.155 637.354C415.746 637.225 416.337 637.095 416.927 636.963L430.482 697.463ZM285.219 699.493C284.5 699.353 283.783 699.211 283.066 699.067L295.288 638.284C295.878 638.402 296.469 638.519 297.061 638.635L285.219 699.493ZM422.934 699.067C422.217 699.211 421.5 699.353 420.781 699.493L408.939 638.635C409.277 638.569 409.616 638.502 409.954 638.435C410.207 638.385 410.46 638.334 410.712 638.284L422.934 699.067ZM292.792 700.881C292.068 700.756 291.345 700.63 290.623 700.501L301.512 639.465C302.107 639.571 302.703 639.675 303.299 639.778L292.792 700.881ZM415.377 700.501C414.655 700.63 413.932 700.756 413.208 700.881L402.701 639.778C402.99 639.728 403.279 639.678 403.567 639.627C403.874 639.573 404.181 639.519 404.488 639.465L415.377 700.501ZM300.41 702.105C299.685 701.996 298.96 701.886 298.235 701.773L307.784 640.513C308.381 640.606 308.978 640.697 309.576 640.786L300.41 702.105ZM407.765 701.773C407.041 701.886 406.316 701.996 405.59 702.105L396.424 640.786C397.022 640.697 397.619 640.606 398.216 640.513L407.765 701.773ZM308.025 703.159C307.297 703.066 306.571 702.971 305.844 702.874L314.055 641.42C314.387 641.465 314.719 641.508 315.051 641.552C315.318 641.586 315.586 641.621 315.853 641.655L308.025 703.159ZM400.156 702.874C399.43 702.971 398.703 703.066 397.975 703.159L390.147 641.655C390.747 641.578 391.346 641.5 391.945 641.42L400.156 702.874ZM315.689 704.049C314.957 703.972 314.225 703.893 313.494 703.811L320.363 642.193C320.966 642.26 321.569 642.326 322.173 642.389L315.689 704.049ZM392.506 703.811C391.775 703.893 391.043 703.972 390.311 704.049L383.827 642.389C384.431 642.326 385.034 642.26 385.637 642.193L392.506 703.811ZM323.339 704.77C322.609 704.709 321.88 704.646 321.152 704.581L326.68 642.828C327.281 642.882 327.883 642.934 328.485 642.984L323.339 704.77ZM384.848 704.581C384.12 704.646 383.391 704.709 382.661 704.77L377.515 642.984C378.117 642.934 378.719 642.882 379.32 642.828L384.848 704.581ZM329.943 705.258C329.569 705.234 329.196 705.209 328.822 705.184L333.012 643.326C333.616 643.366 334.222 643.406 334.828 643.443L331.021 705.326C330.662 705.304 330.303 705.281 329.943 705.258ZM377.178 705.184C376.446 705.233 375.713 705.281 374.979 705.326L371.172 643.443C371.778 643.406 372.384 643.366 372.989 643.326L377.178 705.184ZM338.704 705.715C337.975 705.686 337.245 705.655 336.517 705.621L339.368 643.687C339.97 643.715 340.572 643.741 341.176 643.765L338.704 705.715ZM369.484 705.621C368.755 705.655 368.026 705.686 367.296 705.715L364.825 643.765C365.428 643.741 366.03 643.715 366.632 643.687L369.484 705.621ZM346.386 705.939C345.653 705.926 344.92 705.91 344.187 705.892L345.709 643.911C346.314 643.925 346.92 643.938 347.527 643.95L346.386 705.939ZM361.813 705.892C361.08 705.91 360.348 705.926 359.614 705.939L358.473 643.95C359.08 643.938 359.686 643.925 360.292 643.911L361.813 705.892ZM353 706C352.632 706 352.264 705.999 351.896 705.998L352.086 643.999C352.391 644 352.695 644 353 644C353.305 644 353.609 644 353.914 643.999L354.104 705.998C353.736 705.999 353.368 706 353 706Z" fill="#182F35"/>
</svg>
