<svg width="1920" height="639" viewBox="0 0 1920 639" fill="none" xmlns="http://www.w3.org/2000/svg">
<g clip-path="url(#clip0_149_2311)">
<path fill-rule="evenodd" clip-rule="evenodd" d="M1506.83 -0.991434C1507.25 -0.997139 1507.68 -1 1508.1 -1C1508.52 -1 1508.94 -0.997139 1509.36 -0.991434L1508.82 39.0049C1508.58 39.0016 1508.34 39 1508.1 39C1507.86 39 1507.62 39.0016 1507.38 39.0049L1506.83 -0.991434ZM1499.28 -0.580624C1500.12 -0.660435 1500.96 -0.729008 1501.8 -0.786211L1504.51 39.1215C1504.04 39.1539 1503.56 39.1927 1503.09 39.2378L1499.28 -0.580624ZM1514.4 -0.786211C1515.24 -0.729008 1516.08 -0.660433 1516.91 -0.580624L1513.1 39.2378C1512.63 39.1927 1512.16 39.1539 1511.68 39.1215L1514.4 -0.786211ZM1521.93 0.0382652C1522.76 0.165024 1523.59 0.303112 1524.42 0.452383L1517.34 39.8202C1516.87 39.7362 1516.41 39.6584 1515.93 39.587L1521.93 0.0382652ZM1491.77 0.452383C1492.6 0.303114 1493.43 0.165024 1494.27 0.0382671L1500.26 39.587C1499.79 39.6584 1499.32 39.7362 1498.85 39.8202L1491.77 0.452383ZM1484.36 2.10571C1485.18 1.88825 1485.99 1.6817 1486.82 1.48622L1496.07 40.4012C1495.61 40.5109 1495.15 40.6269 1494.69 40.749L1484.36 2.10571ZM1529.38 1.48622C1530.2 1.6817 1531.02 1.88825 1531.83 2.10571L1521.5 40.749C1521.05 40.6269 1520.59 40.5109 1520.13 40.4012L1529.38 1.48622ZM1477.11 4.37072C1477.91 4.08617 1478.7 3.8122 1479.51 3.54899L1491.97 41.5589C1491.52 41.7067 1491.07 41.8604 1490.62 42.0201L1477.11 4.37072ZM1536.69 3.54899C1537.49 3.8122 1538.29 4.08617 1539.08 4.37072L1525.57 42.0201C1525.13 41.8604 1524.68 41.7067 1524.23 41.5589L1536.69 3.54899ZM1470.08 7.23072C1470.85 6.88085 1471.62 6.54119 1472.4 6.21193L1487.98 43.054C1487.54 43.239 1487.1 43.4299 1486.67 43.6266L1470.08 7.23072ZM1543.8 6.21193C1544.57 6.54119 1545.35 6.88085 1546.12 7.23073L1529.52 43.6266C1529.09 43.4299 1528.66 43.239 1528.22 43.054L1543.8 6.21193ZM1550.66 9.45614C1551.41 9.84813 1552.15 10.2501 1552.88 10.6617L1533.33 45.5573C1532.92 45.3254 1532.5 45.0991 1532.08 44.8784L1550.66 9.45614ZM1463.31 10.6617C1464.05 10.2501 1464.79 9.84813 1465.54 9.45615L1484.12 44.8784C1483.7 45.0991 1483.28 45.3254 1482.86 45.5573L1463.31 10.6617ZM1557.22 13.2538C1557.93 13.7056 1558.64 14.1669 1559.34 14.6375L1536.97 47.7995C1536.58 47.5339 1536.18 47.2735 1535.78 47.0186L1557.22 13.2538ZM1456.86 14.6375C1457.56 14.1669 1458.26 13.7056 1458.97 13.2538L1480.42 47.0187C1480.02 47.2735 1479.62 47.5339 1479.22 47.7995L1456.86 14.6375ZM1563.45 17.5767C1564.12 18.0853 1564.78 18.6029 1565.44 19.1294L1540.42 50.3379C1540.05 50.0402 1539.67 49.7475 1539.29 49.46L1563.45 17.5767ZM1450.76 19.1294C1451.41 18.6029 1452.08 18.0853 1452.75 17.5767L1476.9 49.46C1476.52 49.7475 1476.15 50.0402 1475.78 50.3379L1450.76 19.1294ZM1445.05 24.1049C1445.66 23.5264 1446.28 22.9562 1446.9 22.3946L1473.6 52.1852C1473.24 52.503 1472.89 52.8257 1472.55 53.1532L1445.05 24.1049ZM1569.29 22.3946C1569.92 22.9562 1570.54 23.5264 1571.15 24.1049L1543.65 53.1531C1543.3 52.8257 1542.95 52.503 1542.6 52.1852L1569.29 22.3946ZM1574.72 27.6747C1575.29 28.2857 1575.86 28.9048 1576.43 29.5316L1546.64 56.2247C1546.32 55.87 1546 55.5196 1545.67 55.1737L1574.72 27.6747ZM1439.77 29.5316C1440.33 28.9048 1440.9 28.2857 1441.48 27.6747L1470.53 55.1737C1470.2 55.5196 1469.88 55.87 1469.56 56.2247L1439.77 29.5316ZM1434.95 35.3752C1435.46 34.7038 1435.98 34.0397 1436.5 33.3831L1467.71 58.4036C1467.41 58.775 1467.12 59.1505 1466.83 59.53L1434.95 35.3752ZM1579.69 33.3831C1580.22 34.0397 1580.74 34.7038 1581.24 35.3752L1549.36 59.53C1549.07 59.1505 1548.78 58.775 1548.48 58.4036L1579.69 33.3831ZM1430.63 41.5983C1431.08 40.8869 1431.54 40.1823 1432.01 39.4847L1465.17 61.8515C1464.91 62.2454 1464.65 62.6431 1464.39 63.0444L1430.63 41.5983ZM1584.18 39.4847C1584.65 40.1823 1585.12 40.8869 1585.57 41.5982L1551.8 63.0444C1551.55 62.6431 1551.29 62.2454 1551.02 61.8515L1584.18 39.4847ZM1426.83 48.1622C1427.22 47.415 1427.62 46.6739 1428.03 45.9391L1462.93 65.4916C1462.7 65.9055 1462.47 66.3228 1462.25 66.7435L1426.83 48.1622ZM1588.16 45.9391C1588.57 46.6739 1588.97 47.415 1589.36 48.1622L1553.94 66.7435C1553.72 66.3228 1553.5 65.9055 1553.26 65.4916L1588.16 45.9391ZM1423.58 55.0252C1423.91 54.2464 1424.25 53.4733 1424.6 52.7059L1461 69.2993C1460.8 69.7307 1460.61 70.1652 1460.43 70.6027L1423.58 55.0252ZM1591.59 52.7059C1591.94 53.4733 1592.28 54.2464 1592.61 55.0252L1555.77 70.6027C1555.58 70.1652 1555.39 69.7307 1555.19 69.2993L1591.59 52.7059ZM1420.92 62.1343C1421.19 61.3314 1421.46 60.5333 1421.74 59.7403L1459.39 73.2504C1459.23 73.6955 1459.08 74.1434 1458.93 74.594L1420.92 62.1343ZM1594.45 59.7403C1594.73 60.5333 1595.01 61.3314 1595.27 62.1343L1557.26 74.594C1557.11 74.1434 1556.96 73.6955 1556.8 73.2504L1594.45 59.7403ZM1596.72 66.9889C1596.93 67.8024 1597.14 68.6203 1597.33 69.4424L1558.42 78.6959C1558.31 78.2343 1558.19 77.7751 1558.07 77.3185L1596.72 66.9889ZM1418.86 69.4424C1419.05 68.6203 1419.26 67.8024 1419.48 66.9889L1458.12 77.3185C1458 77.7751 1457.88 78.2343 1457.77 78.6959L1418.86 69.4424ZM1598.37 74.3965C1598.52 75.226 1598.66 76.0593 1598.78 76.896L1559.23 82.8872C1559.16 82.4159 1559.08 81.9468 1559 81.4802L1598.37 74.3965ZM1417.41 76.896C1417.54 76.0593 1417.68 75.2261 1417.83 74.3965L1457.19 81.4802C1457.11 81.9468 1457.03 82.4159 1456.96 82.8872L1417.41 76.896ZM1416.59 84.4235C1416.64 83.583 1416.71 82.7452 1416.79 81.9103L1456.61 85.7169C1456.57 86.1889 1456.53 86.6631 1456.49 87.1395L1416.59 84.4235ZM1599.4 81.9103C1599.48 82.7452 1599.55 83.583 1599.61 84.4235L1559.7 87.1395C1559.67 86.6632 1559.63 86.1889 1559.58 85.7169L1599.4 81.9103ZM1416.37 90.724C1416.37 90.3022 1416.38 89.881 1416.38 89.4603L1456.38 90.0027C1456.37 90.2426 1456.37 90.4831 1456.37 90.724C1456.37 90.9649 1456.37 91.2054 1456.38 91.4453L1416.38 91.9877C1416.38 91.567 1416.37 91.1458 1416.37 90.724ZM1599.81 89.4603C1599.82 89.881 1599.82 90.3022 1599.82 90.724C1599.82 91.1458 1599.82 91.567 1599.81 91.9877L1559.82 91.4453C1559.82 91.2054 1559.82 90.9649 1559.82 90.724C1559.82 90.4831 1559.82 90.2426 1559.82 90.0027L1599.81 89.4603ZM1416.79 99.5377C1416.71 98.7028 1416.64 97.865 1416.59 97.0245L1456.49 94.3084C1456.53 94.7848 1456.57 95.2591 1456.61 95.7311L1416.79 99.5377ZM1599.61 97.0245C1599.55 97.865 1599.48 98.7028 1599.4 99.5377L1559.58 95.7311C1559.63 95.2591 1559.67 94.7849 1559.7 94.3085L1599.61 97.0245ZM1417.83 107.052C1417.68 106.222 1417.54 105.389 1417.41 104.552L1456.96 98.5608C1457.03 99.0321 1457.11 99.5012 1457.19 99.9678L1417.83 107.052ZM1598.78 104.552C1598.66 105.389 1598.52 106.222 1598.37 107.052L1559 99.9678C1559.08 99.5012 1559.16 99.0321 1559.23 98.5608L1598.78 104.552ZM1419.48 114.459C1419.26 113.646 1419.05 112.828 1418.86 112.006L1457.77 102.752C1457.88 103.214 1458 103.673 1458.12 104.13L1419.48 114.459ZM1597.33 112.006C1597.14 112.828 1596.93 113.646 1596.72 114.459L1558.07 104.13C1558.19 103.673 1558.31 103.214 1558.42 102.752L1597.33 112.006ZM1421.74 121.708C1421.46 120.915 1421.19 120.117 1420.92 119.314L1458.93 106.854C1459.08 107.305 1459.23 107.753 1459.39 108.198L1421.74 121.708ZM1595.27 119.314C1595.01 120.117 1594.73 120.915 1594.45 121.708L1556.8 108.198C1556.96 107.753 1557.11 107.305 1557.26 106.854L1595.27 119.314ZM1424.6 128.742C1424.25 127.975 1423.91 127.202 1423.58 126.423L1460.43 110.845C1460.61 111.283 1460.8 111.717 1461 112.149L1424.6 128.742ZM1592.61 126.423C1592.28 127.202 1591.94 127.975 1591.59 128.742L1555.19 112.149C1555.39 111.717 1555.58 111.283 1555.77 110.845L1592.61 126.423ZM1589.36 133.286C1588.97 134.033 1588.57 134.774 1588.16 135.509L1553.26 115.956C1553.5 115.542 1553.72 115.125 1553.94 114.705L1589.36 133.286ZM1428.03 135.509C1427.62 134.774 1427.22 134.033 1426.83 133.286L1462.25 114.705C1462.47 115.125 1462.7 115.542 1462.93 115.956L1428.03 135.509ZM1432.01 141.963C1431.54 141.266 1431.08 140.561 1430.63 139.85L1464.39 118.404C1464.65 118.805 1464.91 119.203 1465.17 119.596L1432.01 141.963ZM1585.57 139.85C1585.12 140.561 1584.65 141.266 1584.18 141.963L1551.02 119.596C1551.29 119.203 1551.55 118.805 1551.8 118.404L1585.57 139.85ZM1436.5 148.065C1435.98 147.408 1435.46 146.744 1434.95 146.073L1466.83 121.918C1467.12 122.298 1467.41 122.673 1467.71 123.044L1436.5 148.065ZM1581.24 146.073C1580.74 146.744 1580.22 147.408 1579.69 148.065L1548.48 123.044C1548.78 122.673 1549.07 122.298 1549.36 121.918L1581.24 146.073ZM1441.48 153.773C1440.9 153.162 1440.33 152.543 1439.77 151.916L1469.56 125.223C1469.88 125.578 1470.2 125.928 1470.53 126.274L1441.48 153.773ZM1576.43 151.916C1575.86 152.543 1575.29 153.162 1574.72 153.773L1545.67 126.274C1546 125.928 1546.32 125.578 1546.64 125.223L1576.43 151.916ZM1446.9 159.053C1446.28 158.492 1445.66 157.922 1445.05 157.343L1472.55 128.295C1472.89 128.622 1473.24 128.945 1473.6 129.263L1446.9 159.053ZM1571.15 157.343C1570.54 157.922 1569.92 158.492 1569.29 159.053L1542.6 129.263C1542.95 128.945 1543.3 128.622 1543.65 128.295L1571.15 157.343ZM1452.75 163.871C1452.08 163.363 1451.41 162.845 1450.76 162.319L1475.78 131.11C1476.15 131.408 1476.52 131.7 1476.9 131.988L1452.75 163.871ZM1565.44 162.319C1564.78 162.845 1564.12 163.363 1563.45 163.871L1539.29 131.988C1539.67 131.7 1540.05 131.408 1540.42 131.11L1565.44 162.319ZM1458.97 168.194C1458.26 167.742 1457.56 167.281 1456.86 166.811L1479.22 133.648C1479.62 133.914 1480.02 134.174 1480.42 134.429L1458.97 168.194ZM1559.34 166.811C1558.64 167.281 1557.93 167.742 1557.22 168.194L1535.78 134.429C1536.18 134.174 1536.58 133.914 1536.97 133.648L1559.34 166.811ZM1465.54 171.992C1464.79 171.6 1464.05 171.198 1463.31 170.786L1482.86 135.891C1483.28 136.123 1483.7 136.349 1484.12 136.57L1465.54 171.992ZM1552.88 170.786C1552.15 171.198 1551.41 171.6 1550.66 171.992L1532.08 136.57C1532.5 136.349 1532.92 136.123 1533.33 135.891L1552.88 170.786ZM1472.4 175.236C1471.62 174.907 1470.85 174.567 1470.08 174.217L1486.67 137.821C1487.1 138.018 1487.54 138.209 1487.98 138.394L1472.4 175.236ZM1546.12 174.217C1545.35 174.567 1544.57 174.907 1543.8 175.236L1528.22 138.394C1528.66 138.209 1529.09 138.018 1529.52 137.821L1546.12 174.217ZM1479.51 177.899C1478.7 177.636 1477.91 177.362 1477.11 177.077L1490.62 139.428C1491.07 139.588 1491.52 139.741 1491.97 139.889L1479.51 177.899ZM1539.08 177.077C1538.29 177.362 1537.49 177.636 1536.69 177.899L1524.23 139.889C1524.68 139.741 1525.13 139.588 1525.57 139.428L1539.08 177.077ZM1486.82 179.962C1485.99 179.766 1485.18 179.56 1484.36 179.342L1494.69 140.699C1495.15 140.821 1495.61 140.937 1496.07 141.047L1486.82 179.962ZM1531.83 179.342C1531.02 179.56 1530.2 179.766 1529.38 179.962L1520.13 141.047C1520.59 140.937 1521.05 140.821 1521.5 140.699L1531.83 179.342ZM1494.27 181.41C1493.43 181.283 1492.6 181.145 1491.77 180.996L1498.85 141.628C1499.32 141.712 1499.79 141.79 1500.26 141.861L1494.27 181.41ZM1524.42 180.996C1523.6 181.145 1522.76 181.283 1521.93 181.41L1515.93 141.861C1516.41 141.79 1516.87 141.712 1517.34 141.628L1524.42 180.996ZM1501.8 182.234C1500.96 182.177 1500.12 182.108 1499.28 182.029L1503.09 142.21C1503.56 142.255 1504.04 142.294 1504.51 142.327L1501.8 182.234ZM1516.91 182.029C1516.08 182.108 1515.24 182.177 1514.4 182.234L1511.68 142.327C1512.16 142.294 1512.63 142.255 1513.1 142.21L1516.91 182.029ZM1508.1 182.448C1507.68 182.448 1507.25 182.445 1506.83 182.439L1507.38 142.443C1507.62 142.446 1507.86 142.448 1508.1 142.448C1508.34 142.448 1508.58 142.446 1508.82 142.443L1509.36 182.439C1508.94 182.445 1508.52 182.448 1508.1 182.448Z" fill="url(#paint0_linear_149_2311)"/>
<path fill-rule="evenodd" clip-rule="evenodd" d="M467.119 270.877C467.558 270.873 467.997 270.871 468.437 270.871C468.876 270.871 469.316 270.873 469.755 270.877L469.163 345.874C468.921 345.872 468.679 345.871 468.437 345.871C468.194 345.871 467.952 345.872 467.71 345.874L467.119 270.877ZM476.315 271.058C477.193 271.099 478.07 271.148 478.946 271.203L474.208 346.053C473.729 346.023 473.249 345.997 472.768 345.974L476.315 271.058ZM457.928 271.203C458.803 271.148 459.68 271.099 460.558 271.058L464.106 345.974C463.624 345.997 463.144 346.023 462.665 346.053L457.928 271.203ZM485.497 271.749C486.374 271.839 487.249 271.937 488.122 272.041L479.216 346.511C478.741 346.454 478.264 346.401 477.786 346.351L485.497 271.749ZM448.751 272.041C449.624 271.937 450.5 271.839 451.377 271.749L459.088 346.351C458.609 346.401 458.133 346.454 457.657 346.511L448.751 272.041ZM494.645 272.954C495.515 273.094 496.384 273.24 497.25 273.394L484.177 347.246C483.707 347.162 483.235 347.083 482.763 347.007L494.645 272.954ZM439.623 273.394C440.49 273.24 441.358 273.094 442.229 272.954L454.111 347.007C453.638 347.083 453.167 347.162 452.697 347.246L439.623 273.394ZM503.719 274.674C504.58 274.862 505.439 275.057 506.295 275.259L489.079 348.257C488.615 348.147 488.15 348.042 487.684 347.939L503.719 274.674ZM430.579 275.259C431.435 275.057 432.293 274.862 433.154 274.674L449.19 347.939C448.723 348.042 448.258 348.147 447.795 348.257L430.579 275.259ZM512.687 276.904C513.535 277.14 514.381 277.383 515.223 277.633L493.911 349.541C493.455 349.406 492.998 349.275 492.539 349.147L512.687 276.904ZM421.65 277.633C422.493 277.383 423.339 277.14 424.187 276.904L444.335 349.147C443.876 349.275 443.418 349.406 442.962 349.541L421.65 277.633ZM521.514 279.637C522.347 279.921 523.177 280.211 524.004 280.508L498.663 351.097C498.215 350.936 497.766 350.779 497.315 350.626L521.514 279.637ZM412.87 280.508C413.696 280.211 414.526 279.921 415.359 279.637L439.558 350.626C439.108 350.779 438.658 350.936 438.211 351.097L412.87 280.508ZM530.171 282.864C530.986 283.194 531.798 283.531 532.607 283.874L503.32 352.919C502.883 352.734 502.443 352.551 502.001 352.372L530.171 282.864ZM404.267 283.874C405.075 283.531 405.887 283.194 406.702 282.864L434.872 352.372C434.431 352.551 433.991 352.734 433.553 352.919L404.267 283.874ZM538.629 286.572C539.425 286.948 540.217 287.331 541.005 287.719L507.873 355.004C507.446 354.793 507.016 354.586 506.584 354.382L538.629 286.572ZM395.868 287.719C396.657 287.331 397.449 286.949 398.245 286.572L430.289 354.382C429.858 354.586 429.428 354.793 429 355.004L395.868 287.719ZM546.86 290.75C547.634 291.17 548.403 291.596 549.169 292.028L512.306 357.344C511.889 357.109 511.471 356.877 511.051 356.649L546.86 290.75ZM387.704 292.028C388.47 291.596 389.24 291.17 390.013 290.75L425.822 356.649C425.402 356.877 424.984 357.109 424.568 357.344L387.704 292.028ZM554.842 295.382C555.589 295.844 556.333 296.312 557.073 296.786L516.603 359.931C516.201 359.673 515.796 359.418 515.39 359.167L554.842 295.382ZM379.801 296.786C380.541 296.312 381.284 295.844 382.032 295.382L421.484 359.167C421.077 359.418 420.673 359.673 420.27 359.931L379.801 296.786ZM562.546 300.451C563.266 300.954 563.981 301.462 564.693 301.977L520.754 362.758C520.366 362.478 519.976 362.2 519.584 361.926L562.546 300.451ZM372.181 301.977C372.892 301.462 373.608 300.954 374.328 300.451L417.29 361.926C416.898 362.2 416.508 362.478 416.12 362.758L372.181 301.977ZM569.95 305.939C570.64 306.482 571.326 307.029 572.007 307.582L524.743 365.815C524.371 365.513 523.997 365.214 523.62 364.919L569.95 305.939ZM364.866 307.582C365.547 307.029 366.233 306.482 366.923 305.939L413.253 364.919C412.877 365.214 412.503 365.513 412.131 365.815L364.866 307.582ZM577.034 311.831C577.693 312.411 578.347 312.995 578.996 313.585L528.557 369.092C528.203 368.77 527.846 368.45 527.486 368.134L577.034 311.831ZM357.878 313.585C358.527 312.995 359.181 312.411 359.84 311.831L409.387 368.134C409.028 368.45 408.671 368.77 408.316 369.092L357.878 313.585ZM583.777 318.107C584.402 318.722 585.023 319.343 585.638 319.968L532.184 372.577C531.848 372.236 531.509 371.897 531.168 371.561L583.777 318.107ZM351.236 319.968C351.851 319.343 352.471 318.722 353.097 318.107L405.706 371.561C405.364 371.897 405.025 372.236 404.689 372.577L351.236 319.968ZM590.16 324.749C590.75 325.398 591.334 326.052 591.914 326.711L535.611 376.259C535.295 375.899 534.975 375.542 534.653 375.188L590.16 324.749ZM344.959 326.711C345.539 326.052 346.124 325.398 346.714 324.749L402.22 375.188C401.898 375.542 401.579 375.899 401.262 376.259L344.959 326.711ZM596.163 331.738C596.716 332.419 597.263 333.105 597.806 333.795L538.826 380.125C538.531 379.748 538.232 379.374 537.93 379.002L596.163 331.738ZM339.068 333.795C339.61 333.105 340.158 332.419 340.711 331.738L398.943 379.002C398.642 379.374 398.343 379.748 398.047 380.125L339.068 333.795ZM601.768 339.052C602.283 339.764 602.791 340.479 603.294 341.199L541.819 384.161C541.545 383.769 541.267 383.379 540.987 382.991L601.768 339.052ZM333.579 341.199C334.082 340.479 334.591 339.764 335.105 339.052L395.887 382.991C395.606 383.379 395.329 383.769 395.055 384.161L333.579 341.199ZM606.959 346.672C607.433 347.412 607.901 348.156 608.363 348.903L544.578 388.355C544.327 387.949 544.072 387.544 543.814 387.141L606.959 346.672ZM328.51 348.903C328.973 348.156 329.441 347.412 329.915 346.672L393.06 387.142C392.802 387.544 392.547 387.949 392.295 388.355L328.51 348.903ZM611.717 354.576C612.149 355.342 612.575 356.111 612.995 356.885L547.096 392.694C546.868 392.274 546.636 391.856 546.401 391.439L611.717 354.576ZM323.878 356.885C324.298 356.111 324.725 355.342 325.157 354.576L390.472 391.439C390.237 391.856 390.006 392.274 389.777 392.694L323.878 356.885ZM616.026 362.74C616.414 363.528 616.797 364.32 617.173 365.116L549.363 397.16C549.159 396.729 548.952 396.299 548.741 395.872L616.026 362.74ZM319.701 365.116C320.077 364.32 320.459 363.528 320.847 362.74L388.132 395.872C387.922 396.299 387.715 396.729 387.511 397.161L319.701 365.116ZM619.871 371.138C620.214 371.947 620.551 372.759 620.881 373.574L551.373 401.744C551.194 401.302 551.011 400.862 550.826 400.424L619.871 371.138ZM315.992 373.574C316.323 372.759 316.659 371.947 317.002 371.138L386.048 400.425C385.862 400.862 385.68 401.302 385.501 401.744L315.992 373.574ZM623.237 379.741C623.534 380.568 623.824 381.398 624.108 382.231L553.119 406.43C552.966 405.979 552.809 405.53 552.648 405.082L623.237 379.741ZM312.765 382.231C313.049 381.398 313.34 380.568 313.636 379.741L384.226 405.082C384.065 405.53 383.908 405.979 383.754 406.43L312.765 382.231ZM626.112 388.522C626.362 389.364 626.605 390.21 626.841 391.058L554.598 411.206C554.47 410.747 554.339 410.29 554.204 409.834L626.112 388.522ZM310.032 391.058C310.269 390.21 310.512 389.364 310.762 388.522L382.67 409.834C382.535 410.29 382.403 410.747 382.275 411.206L310.032 391.058ZM628.486 397.45C628.688 398.306 628.883 399.165 629.071 400.025L555.805 416.061C555.703 415.595 555.598 415.13 555.488 414.666L628.486 397.45ZM307.802 400.026C307.991 399.165 308.186 398.306 308.388 397.45L381.385 414.666C381.276 415.13 381.17 415.595 381.068 416.061L307.802 400.026ZM630.351 406.495C630.505 407.361 630.651 408.229 630.791 409.1L556.738 420.982C556.662 420.51 556.583 420.038 556.499 419.568L630.351 406.495ZM306.083 409.1C306.222 408.23 306.369 407.361 306.522 406.495L380.374 419.568C380.291 420.038 380.211 420.51 380.136 420.982L306.083 409.1ZM631.704 415.623C631.808 416.496 631.906 417.371 631.996 418.248L557.394 425.959C557.344 425.481 557.291 425.004 557.234 424.529L631.704 415.623ZM304.877 418.248C304.968 417.371 305.065 416.496 305.17 415.623L379.639 424.529C379.582 425.004 379.529 425.481 379.48 425.959L304.877 418.248ZM632.542 424.799C632.597 425.675 632.646 426.551 632.687 427.43L557.771 430.977C557.748 430.496 557.722 430.015 557.692 429.536L632.542 424.799ZM304.186 427.43C304.228 426.552 304.276 425.675 304.332 424.799L379.182 429.537C379.152 430.016 379.125 430.496 379.102 430.977L304.186 427.43ZM632.868 433.99C632.872 434.429 632.874 434.869 632.874 435.308C632.874 435.748 632.872 436.187 632.868 436.626L557.871 436.035C557.873 435.793 557.874 435.551 557.874 435.308C557.874 435.066 557.873 434.824 557.871 434.582L632.868 433.99ZM304 435.308C304 434.869 304.002 434.429 304.005 433.99L379.003 434.582C379.001 434.824 379 435.066 379 435.308C379 435.551 379.001 435.793 379.003 436.035L304.005 436.626C304.002 436.187 304 435.748 304 435.308ZM632.687 443.186C632.646 444.065 632.597 444.942 632.542 445.817L557.692 441.08C557.722 440.601 557.748 440.121 557.771 439.639L632.687 443.186ZM304.332 445.817C304.276 444.942 304.228 444.065 304.186 443.187L379.102 439.639C379.125 440.121 379.152 440.601 379.182 441.08L304.332 445.817ZM631.996 452.368C631.906 453.245 631.808 454.12 631.704 454.994L557.234 446.088C557.291 445.612 557.344 445.135 557.394 444.657L631.996 452.368ZM305.17 454.994C305.065 454.121 304.968 453.245 304.877 452.368L379.48 444.657C379.529 445.136 379.582 445.612 379.639 446.088L305.17 454.994ZM630.791 461.516C630.651 462.387 630.505 463.255 630.351 464.121L556.499 451.048C556.583 450.578 556.662 450.107 556.738 449.634L630.791 461.516ZM306.522 464.122C306.369 463.255 306.222 462.387 306.083 461.516L380.136 449.634C380.211 450.107 380.291 450.578 380.374 451.048L306.522 464.122ZM629.071 470.591C628.883 471.452 628.688 472.31 628.486 473.166L555.488 455.95C555.598 455.487 555.703 455.022 555.806 454.555L629.071 470.591ZM308.388 473.166C308.186 472.31 307.991 471.452 307.802 470.591L381.068 454.555C381.17 455.022 381.276 455.487 381.385 455.95L308.388 473.166ZM626.841 479.558C626.605 480.406 626.362 481.252 626.112 482.095L554.204 460.783C554.339 460.327 554.47 459.869 554.598 459.41L626.841 479.558ZM310.762 482.095C310.512 481.252 310.269 480.406 310.032 479.558L382.275 459.41C382.403 459.869 382.535 460.327 382.67 460.783L310.762 482.095ZM624.108 488.386C623.824 489.218 623.534 490.048 623.237 490.875L552.648 465.534C552.809 465.087 552.966 464.637 553.119 464.187L624.108 488.386ZM313.637 490.875C313.34 490.049 313.049 489.219 312.765 488.386L383.754 464.187C383.908 464.637 384.065 465.087 384.226 465.534L313.637 490.875ZM620.881 497.043C620.551 497.858 620.214 498.67 619.871 499.478L550.826 470.192C551.011 469.754 551.194 469.314 551.373 468.873L620.881 497.043ZM317.002 499.478C316.659 498.67 316.323 497.858 315.992 497.043L385.501 468.873C385.68 469.314 385.862 469.754 386.048 470.192L317.002 499.478ZM617.173 505.5C616.797 506.296 616.414 507.088 616.026 507.877L548.741 474.745C548.952 474.317 549.159 473.887 549.363 473.456L617.173 505.5ZM320.848 507.877C320.459 507.088 320.077 506.296 319.701 505.5L387.511 473.456C387.715 473.887 387.922 474.317 388.132 474.745L320.848 507.877ZM612.995 513.732C612.575 514.505 612.149 515.275 611.717 516.041L546.401 479.177C546.636 478.761 546.868 478.343 547.096 477.923L612.995 513.732ZM325.157 516.041C324.725 515.275 324.298 514.505 323.878 513.732L389.777 477.923C390.006 478.343 390.237 478.761 390.472 479.177L325.157 516.041ZM608.363 521.713C607.901 522.461 607.433 523.204 606.959 523.944L543.814 483.475C544.072 483.072 544.327 482.668 544.578 482.261L608.363 521.713ZM329.915 523.944C329.441 523.204 328.973 522.461 328.51 521.713L392.295 482.261C392.547 482.668 392.802 483.072 393.06 483.475L329.915 523.944ZM335.105 531.564C334.591 530.853 334.082 530.137 333.579 529.417L395.055 486.455C395.329 486.847 395.606 487.237 395.887 487.625L335.105 531.564ZM603.294 529.417C602.791 530.137 602.283 530.853 601.768 531.564L540.987 487.625C541.267 487.237 541.545 486.847 541.819 486.455L603.294 529.417ZM597.806 536.822C597.263 537.512 596.716 538.198 596.163 538.879L537.93 491.614C538.232 491.242 538.531 490.868 538.826 490.492L597.806 536.822ZM340.711 538.879C340.158 538.198 339.61 537.512 339.068 536.822L398.047 490.492C398.343 490.868 398.642 491.242 398.943 491.614L340.711 538.879ZM591.914 543.905C591.334 544.564 590.75 545.218 590.16 545.867L534.653 495.429C534.975 495.074 535.295 494.717 535.611 494.358L591.914 543.905ZM346.714 545.867C346.124 545.218 345.539 544.564 344.959 543.905L401.262 494.358C401.579 494.717 401.898 495.074 402.22 495.429L346.714 545.867ZM585.638 550.648C585.023 551.274 584.402 551.894 583.777 552.509L531.168 499.056C531.509 498.72 531.848 498.381 532.184 498.039L585.638 550.648ZM353.097 552.509C352.471 551.894 351.851 551.274 351.236 550.648L404.689 498.039C405.025 498.381 405.364 498.72 405.706 499.056L353.097 552.509ZM578.996 557.031C578.347 557.621 577.693 558.206 577.034 558.786L527.486 502.483C527.846 502.166 528.203 501.847 528.557 501.525L578.996 557.031ZM359.84 558.786C359.181 558.206 358.527 557.621 357.878 557.031L408.316 501.525C408.671 501.847 409.028 502.166 409.387 502.483L359.84 558.786ZM572.007 563.034C571.326 563.587 570.64 564.135 569.95 564.677L523.62 505.698C523.997 505.402 524.371 505.103 524.743 504.802L572.007 563.034ZM366.923 564.677C366.233 564.135 365.547 563.587 364.866 563.034L412.131 504.802C412.503 505.103 412.877 505.402 413.253 505.698L366.923 564.677ZM374.328 570.166C373.608 569.663 372.892 569.154 372.181 568.64L416.12 507.858C416.508 508.139 416.898 508.416 417.29 508.69L374.328 570.166ZM564.693 568.64C563.981 569.154 563.266 569.663 562.546 570.166L519.584 508.69C519.976 508.416 520.366 508.139 520.754 507.858L564.693 568.64ZM557.073 573.83C556.333 574.304 555.589 574.772 554.842 575.235L515.39 511.45C515.796 511.198 516.201 510.943 516.604 510.685L557.073 573.83ZM382.032 575.235C381.284 574.772 380.541 574.304 379.801 573.83L420.27 510.685C420.673 510.943 421.077 511.198 421.484 511.45L382.032 575.235ZM549.169 578.588C548.403 579.02 547.634 579.447 546.86 579.867L511.051 513.967C511.471 513.739 511.889 513.508 512.306 513.273L549.169 578.588ZM390.013 579.867C389.24 579.447 388.47 579.02 387.704 578.588L424.568 513.273C424.984 513.508 425.402 513.739 425.822 513.968L390.013 579.867ZM541.005 582.897C540.217 583.286 539.425 583.668 538.629 584.044L506.585 516.234C507.016 516.03 507.446 515.823 507.873 515.613L541.005 582.897ZM398.245 584.044C397.449 583.668 396.657 583.286 395.868 582.897L429 515.613C429.428 515.823 429.858 516.03 430.289 516.234L398.245 584.044ZM532.607 586.743C531.798 587.086 530.986 587.422 530.171 587.753L502.001 518.244C502.443 518.065 502.883 517.883 503.32 517.697L532.607 586.743ZM406.702 587.753C405.887 587.422 405.075 587.086 404.267 586.743L433.553 517.697C433.991 517.883 434.431 518.065 434.872 518.244L406.702 587.753ZM524.004 590.108C523.177 590.405 522.347 590.696 521.514 590.98L497.315 519.991C497.766 519.837 498.215 519.68 498.663 519.519L524.004 590.108ZM415.359 590.98C414.527 590.696 413.697 590.405 412.87 590.109L438.211 519.519C438.658 519.68 439.108 519.837 439.558 519.991L415.359 590.98ZM515.223 592.983C514.381 593.233 513.535 593.476 512.687 593.713L492.539 521.47C492.998 521.342 493.455 521.21 493.911 521.075L515.223 592.983ZM424.187 593.713C423.339 593.476 422.493 593.233 421.65 592.983L442.962 521.075C443.418 521.21 443.876 521.342 444.335 521.47L424.187 593.713ZM506.295 595.357C505.439 595.559 504.58 595.754 503.72 595.943L487.684 522.677C488.15 522.575 488.615 522.469 489.079 522.36L506.295 595.357ZM433.154 595.943C432.293 595.754 431.435 595.559 430.579 595.357L447.795 522.36C448.258 522.469 448.723 522.575 449.19 522.677L433.154 595.943ZM442.229 597.662C441.358 597.523 440.49 597.376 439.624 597.223L452.697 523.371C453.167 523.454 453.638 523.534 454.111 523.609L442.229 597.662ZM497.25 597.223C496.384 597.376 495.516 597.523 494.645 597.662L482.763 523.609C483.235 523.534 483.707 523.454 484.177 523.371L497.25 597.223ZM451.377 598.868C450.5 598.777 449.625 598.68 448.751 598.575L457.657 524.106C458.133 524.163 458.61 524.216 459.088 524.265L451.377 598.868ZM488.122 598.575C487.249 598.68 486.374 598.777 485.497 598.868L477.786 524.265C478.264 524.216 478.741 524.163 479.216 524.106L488.122 598.575ZM460.559 599.559C459.68 599.517 458.803 599.469 457.928 599.413L462.665 524.563C463.144 524.593 463.624 524.62 464.106 524.643L460.559 599.559ZM478.946 599.413C478.07 599.469 477.194 599.517 476.315 599.559L472.768 524.643C473.249 524.62 473.73 524.593 474.208 524.563L478.946 599.413ZM468.437 599.745C467.997 599.745 467.558 599.743 467.119 599.74L467.71 524.742C467.952 524.744 468.194 524.745 468.437 524.745C468.679 524.745 468.921 524.744 469.163 524.742L469.755 599.74C469.506 599.742 469.258 599.743 469.009 599.744C468.819 599.745 468.628 599.745 468.437 599.745Z" fill="url(#paint1_linear_149_2311)"/>
</g>
<defs>
<linearGradient id="paint0_linear_149_2311" x1="1508.1" y1="19" x2="1445.34" y2="135.17" gradientUnits="userSpaceOnUse">
<stop stop-color="#265E6D"/>
<stop offset="1" stop-color="#7AE7C7"/>
</linearGradient>
<linearGradient id="paint1_linear_149_2311" x1="468.437" y1="308.371" x2="357.363" y2="513.969" gradientUnits="userSpaceOnUse">
<stop stop-color="#265E6D"/>
<stop offset="1" stop-color="#7AE7C7"/>
</linearGradient>
<clipPath id="clip0_149_2311">
<rect width="1920" height="639" fill="white"/>
</clipPath>
</defs>
</svg>
