<svg width="1920" height="253" viewBox="0 0 1920 253" fill="none" xmlns="http://www.w3.org/2000/svg">
<path fill-rule="evenodd" clip-rule="evenodd" d="M1667 1.18538C1667 0.790439 1667 0.395311 1667 0H1742.15C1742.15 0.280043 1742.15 0.559905 1742.15 0.839585L1667 1.18538ZM1667.17 9.45112C1667.14 8.66666 1667.12 7.8814 1667.1 7.09534L1742.22 5.02109C1742.23 5.57679 1742.25 6.13175 1742.27 6.68595L1667.17 9.45112ZM1667.61 17.707C1667.56 16.9202 1667.51 16.1325 1667.46 15.3439L1742.47 10.846C1742.51 11.4023 1742.54 11.9579 1742.58 12.5126L1667.61 17.707ZM1668.32 25.9352C1668.24 25.1547 1668.16 24.3732 1668.09 23.5907L1742.92 16.6584C1742.97 17.2095 1743.02 17.7597 1743.08 18.3091L1668.32 25.9352ZM1669.29 34.1681C1669.19 33.3877 1669.08 32.6062 1668.99 31.8237L1743.55 22.4518C1743.62 23.002 1743.69 23.5515 1743.76 24.1L1669.29 34.1681ZM1670.54 42.3545C1670.4 41.5754 1670.28 40.795 1670.15 40.0136L1744.37 28.2073C1744.45 28.7562 1744.54 29.3042 1744.64 29.8513L1670.54 42.3545ZM1672.05 50.4919C1671.89 49.7212 1671.74 48.9492 1671.59 48.176L1745.38 33.9377C1745.48 34.4803 1745.59 35.022 1745.7 35.5628L1672.05 50.4919ZM1673.83 58.5946C1673.65 57.8272 1673.47 57.0584 1673.29 56.2883L1746.57 39.6287C1746.69 40.1688 1746.82 40.7079 1746.95 41.2461L1673.83 58.5946ZM1675.87 66.6249C1675.67 65.8621 1675.46 65.098 1675.26 64.3323L1747.95 45.2691C1748.09 45.8058 1748.24 46.3416 1748.38 46.8763L1675.87 66.6249ZM1678.18 74.5808C1677.95 73.8283 1677.72 73.0742 1677.5 72.3187L1749.52 50.8675C1749.68 51.3971 1749.84 51.9257 1750 52.4532L1678.18 74.5808ZM1680.76 82.4674C1680.5 81.7214 1680.24 80.9738 1679.99 80.2247L1751.27 56.4093C1751.45 56.9344 1751.62 57.4584 1751.8 57.9814L1680.76 82.4674ZM1683.58 90.257C1683.3 89.5188 1683.02 88.7789 1682.75 88.0374L1753.2 61.8862C1753.39 62.406 1753.59 62.9248 1753.79 63.4424L1683.58 90.257ZM1686.67 97.946C1686.36 97.2197 1686.06 96.4917 1685.76 95.762L1755.31 67.3026C1755.52 67.8144 1755.73 68.325 1755.95 68.8344L1686.67 97.946ZM1690.01 105.536C1689.68 104.819 1689.35 104.101 1689.03 103.38L1757.6 72.6464C1757.83 73.1518 1758.06 73.656 1758.29 74.159L1690.01 105.536ZM1693.59 113.006C1693.23 112.3 1692.88 111.592 1692.54 110.882L1760.07 77.9104C1760.31 78.4088 1760.56 78.9058 1760.8 79.4016L1693.59 113.006ZM1697.41 120.35C1697.04 119.658 1696.66 118.963 1696.3 118.267L1762.71 83.0954C1762.96 83.5845 1763.23 84.0724 1763.49 84.5589L1697.41 120.35ZM1701.48 127.57C1701.08 126.889 1700.68 126.207 1700.29 125.522L1765.51 88.1921C1765.79 88.6731 1766.07 89.1528 1766.35 89.6311L1701.48 127.57ZM1705.77 134.647C1705.35 133.98 1704.94 133.31 1704.52 132.639L1768.49 93.1938C1768.78 93.6661 1769.07 94.1369 1769.37 94.6062L1705.77 134.647ZM1710.3 141.578C1709.85 140.925 1709.42 140.27 1708.98 139.614L1771.62 98.0988C1771.93 98.5608 1772.24 99.0213 1772.55 99.4803L1710.3 141.578ZM1715.05 148.359C1714.58 147.721 1714.12 147.081 1713.67 146.438L1774.92 102.9C1775.24 103.352 1775.56 103.803 1775.89 104.252L1715.05 148.359ZM1720.01 154.979C1719.53 154.356 1719.05 153.731 1718.57 153.103L1778.37 107.591C1778.71 108.033 1779.04 108.473 1779.38 108.912L1720.01 154.979ZM1725.19 161.431C1724.68 160.825 1724.18 160.216 1723.69 159.605L1781.97 112.169C1782.32 112.6 1782.67 113.029 1783.03 113.456L1725.19 161.431ZM1730.57 167.713C1730.05 167.123 1729.53 166.531 1729.01 165.937L1785.72 116.629C1786.09 117.047 1786.45 117.465 1786.82 117.88L1730.57 167.713ZM1736.16 173.815C1735.62 173.242 1735.08 172.667 1734.54 172.09L1789.62 120.963C1790 121.37 1790.38 121.775 1790.76 122.179L1736.16 173.815ZM1741.94 179.732C1741.38 179.177 1740.82 178.62 1740.27 178.06L1793.65 125.17C1794.04 125.564 1794.44 125.957 1794.83 126.347L1741.94 179.732ZM1747.91 185.458C1747.33 184.922 1746.76 184.383 1746.19 183.841L1797.82 129.243C1798.22 129.624 1798.63 130.004 1799.04 130.381L1747.91 185.458ZM1754.06 190.986C1753.47 190.469 1752.88 189.949 1752.29 189.427L1802.12 133.178C1802.54 133.546 1802.95 133.912 1803.37 134.276L1754.06 190.986ZM1760.39 196.313C1759.78 195.815 1759.17 195.315 1758.57 194.812L1806.54 136.971C1806.97 137.325 1807.4 137.677 1807.83 138.028L1760.39 196.313ZM1766.9 201.43C1766.27 200.953 1765.64 200.473 1765.02 199.989L1811.09 140.617C1811.53 140.957 1811.97 141.295 1812.41 141.631L1766.9 201.43ZM1773.56 206.334C1772.92 205.877 1772.28 205.417 1771.64 204.955L1815.75 144.112C1816.2 144.437 1816.65 144.761 1817.1 145.082L1773.56 206.334ZM1780.39 211.019C1779.73 210.583 1779.07 210.145 1778.42 209.704L1820.52 147.454C1820.98 147.764 1821.44 148.072 1821.9 148.378L1780.39 211.019ZM1787.36 215.479C1786.69 215.065 1786.02 214.648 1785.35 214.227L1825.39 150.635C1825.86 150.93 1826.33 151.224 1826.81 151.515L1787.36 215.479ZM1794.48 219.709C1793.79 219.317 1793.11 218.922 1792.43 218.524L1830.37 153.655C1830.85 153.935 1831.33 154.212 1831.81 154.488L1794.48 219.709ZM1801.73 223.705C1801.04 223.336 1800.34 222.964 1799.65 222.589L1835.44 156.511C1835.93 156.774 1836.42 157.036 1836.9 157.295L1801.73 223.705ZM1809.12 227.462C1808.41 227.115 1807.7 226.766 1806.99 226.412L1840.6 159.196C1841.09 159.444 1841.59 159.689 1842.09 159.933L1809.12 227.462ZM1816.62 230.973C1815.9 230.65 1815.18 230.324 1814.46 229.995L1845.84 161.71C1846.34 161.941 1846.85 162.17 1847.35 162.397L1816.62 230.973ZM1824.24 234.238C1823.51 233.939 1822.78 233.637 1822.05 233.332L1851.17 164.051C1851.68 164.266 1852.19 164.477 1852.7 164.687L1824.24 234.238ZM1831.96 237.251C1831.22 236.976 1830.48 236.697 1829.74 236.415L1856.56 166.213C1857.08 166.411 1857.59 166.607 1858.11 166.799L1831.96 237.251ZM1839.78 240.005C1839.03 239.755 1838.28 239.501 1837.53 239.244L1862.02 168.197C1862.54 168.377 1863.07 168.555 1863.59 168.73L1839.78 240.005ZM1847.68 242.503C1846.93 242.278 1846.17 242.049 1845.42 241.818L1867.55 170.001C1868.07 170.163 1868.6 170.323 1869.13 170.481L1847.68 242.503ZM1855.67 244.739C1854.9 244.538 1854.14 244.334 1853.38 244.126L1873.12 171.619C1873.66 171.764 1874.19 171.908 1874.73 172.048L1855.67 244.739ZM1863.71 246.707C1862.94 246.532 1862.17 246.354 1861.41 246.172L1878.75 173.053C1879.29 173.181 1879.83 173.306 1880.37 173.429L1863.71 246.707ZM1871.82 248.412C1871.05 248.262 1870.28 248.11 1869.51 247.954L1884.44 174.303C1884.98 174.412 1885.52 174.52 1886.06 174.624L1871.82 248.412ZM1879.99 249.848C1879.21 249.724 1878.42 249.596 1877.65 249.464L1890.15 175.363C1890.7 175.456 1891.24 175.545 1891.79 175.633L1879.99 249.848ZM1888.18 251.014C1887.39 250.915 1886.61 250.813 1885.83 250.708L1895.9 176.237C1896.45 176.311 1897 176.383 1897.55 176.452L1888.18 251.014ZM1896.41 251.912C1895.63 251.84 1894.85 251.764 1894.06 251.684L1901.69 176.923C1902.24 176.98 1902.79 177.033 1903.34 177.084L1896.41 251.912ZM1904.66 252.541C1903.87 252.494 1903.08 252.443 1902.29 252.388L1907.49 177.42C1908.04 177.458 1908.6 177.494 1909.15 177.527L1904.66 252.541ZM1912.9 252.902C1912.12 252.88 1911.33 252.855 1910.55 252.826L1913.31 177.729C1913.87 177.749 1914.42 177.767 1914.98 177.782L1912.9 252.902ZM1920 253C1919.6 253 1919.21 252.999 1918.81 252.997L1919.16 177.85C1919.44 177.851 1919.72 177.851 1920 177.851V253Z" fill="url(#paint0_linear_149_2325)"/>
<defs>
<linearGradient id="paint0_linear_149_2325" x1="1920" y1="-215.426" x2="1731.5" y2="133.496" gradientUnits="userSpaceOnUse">
<stop stop-color="#265E6D"/>
<stop offset="1" stop-color="#7AE7C7"/>
</linearGradient>
</defs>
</svg>
