<svg viewBox="0 0 124 35" fill="none" xmlns="http://www.w3.org/2000/svg">
<path d="M0 33.4328V0.216431H7.58685V13.3712C8.46525 12.4503 9.48533 11.7348 10.6471 11.2248C11.823 10.7006 13.0769 10.4385 14.4086 10.4385C16.2221 10.4385 17.9364 10.8848 19.5515 11.7773C21.1667 12.6699 22.4701 13.9804 23.4618 15.7089C24.4678 17.4232 24.9707 19.5271 24.9707 22.0206C24.9707 24.6417 24.4819 26.8377 23.5044 28.6087C22.5268 30.3655 21.2375 31.6972 19.6365 32.604C18.0356 33.4966 16.2929 33.9428 14.4086 33.9428C13.0769 33.9428 11.823 33.6666 10.6471 33.114C9.48533 32.5615 8.46525 31.8035 7.58685 30.8401V33.4328H0ZM12.326 16.644C11.5609 16.644 10.81 16.8282 10.0733 17.1965C9.35074 17.5507 8.75569 18.0749 8.28815 18.7691C7.82062 19.4492 7.58685 20.2922 7.58685 21.2981V22.7432C7.58685 23.7491 7.81353 24.6063 8.2669 25.3147C8.73444 26.023 9.32948 26.5685 10.052 26.951C10.7888 27.3194 11.5467 27.5036 12.326 27.5036C13.5869 27.5036 14.7062 27.0644 15.6837 26.186C16.6613 25.3076 17.1501 23.9191 17.1501 22.0206C17.1501 20.1222 16.6613 18.755 15.6837 17.9191C14.7203 17.069 13.6011 16.644 12.326 16.644Z" fill="white"/>
<path d="M64.7869 34.0994C63.866 34.0994 62.9026 34.0215 61.8967 33.8657C60.9049 33.724 59.9769 33.4265 59.1127 32.9731C58.2485 32.5055 57.5401 31.8255 56.9875 30.9329C56.4492 30.0262 56.18 28.8219 56.18 27.3201V16.8927H47.6465V11.0201H51.8446C52.8364 11.0201 53.6156 10.9776 54.1823 10.8926C54.7632 10.8076 55.1953 10.5951 55.4787 10.255C55.7762 9.91502 55.9675 9.39081 56.0525 8.68242C56.1375 7.95986 56.18 6.96104 56.18 5.68593V3.60327H63.7881V11.0201H68.5186V16.7581H63.7881V25.28C63.7881 26.1867 63.8943 26.9376 64.1068 27.5327C64.3194 28.1135 64.8719 28.404 65.7645 28.404C66.2603 28.404 66.7279 28.3544 67.1671 28.2552C67.6063 28.156 67.9322 28.0639 68.1447 27.9789V33.5469C67.833 33.6744 67.3867 33.7948 66.8058 33.9082C66.2391 34.0357 65.5661 34.0994 64.7869 34.0994Z" fill="white"/>
<path d="M72.5473 33.5894V11.0201H80.0492V33.5894H72.5473Z" fill="white"/>
<path d="M84.3038 33.5894V11.0201H91.8907V14.1228C92.5707 13.0178 93.4562 12.1535 94.5471 11.5301C95.6522 10.8926 96.9557 11.0276 98.4574 11.0276H111.605V16.9207H97.8837C96.3819 16.9207 95.1918 17.2324 94.3134 17.8558C93.4491 18.4792 92.8257 19.5633 92.4432 20.5409C92.0749 21.5043 91.8907 22.4889 91.8907 23.4948V33.5894H84.3038Z" fill="white"/>
<rect x="28.2471" y="19.8553" width="24.7936" height="5.31292" fill="white"/>
<path d="M28.248 16.9037C28.248 13.6435 30.891 11.0005 34.1513 11.0005H53.0417V16.9037H28.248Z" fill="white"/>
<path d="M28.2471 28.1199H53.0407V34.0231H34.1503C30.89 34.0231 28.2471 31.3801 28.2471 28.1199Z" fill="white"/>
<rect x="99.207" y="19.8553" width="24.7936" height="5.31292" fill="white"/>
<path d="M99.207 16.9037C99.207 13.6435 101.85 11.0005 105.11 11.0005H124.001V16.9037H99.207Z" fill="white"/>
<path d="M99.207 28.1199H124.001V34.0231H105.11C101.85 34.0231 99.207 31.3801 99.207 28.1199Z" fill="white"/>
<path d="M75.4119 8.78137C73.9865 8.78137 72.8311 7.62589 72.8311 6.20053C72.8311 4.77517 73.9865 3.61969 75.4119 3.61969L79.9213 3.61969L79.9213 8.78137L75.4119 8.78137Z" fill="white"/>
</svg>
