<svg width="48" height="49" viewBox="0 0 48 49" fill="none" xmlns="http://www.w3.org/2000/svg">
<g clip-path="url(#clip0_189_833)">
<path d="M7.05859 31.9009H9.88213V34.7244H7.05859V31.9009Z" fill="#2F3238"/>
<path d="M12.7061 31.9009H15.5296V34.7244H12.7061V31.9009Z" fill="#3C43ED"/>
<path d="M7.05859 37.5479H9.88213V40.3714H7.05859V37.5479Z" fill="#3C43ED"/>
<path d="M12.7061 37.5479H15.5296V40.3714H12.7061V37.5479Z" fill="#2F3238"/>
<path d="M32.4707 31.9009H35.2942V34.7244H32.4707V31.9009Z" fill="#2F3238"/>
<path d="M38.1182 31.9009H40.9417V34.7244H38.1182V31.9009Z" fill="#3C43ED"/>
<path d="M32.4707 37.5479H35.2942V40.3714H32.4707V37.5479Z" fill="#3C43ED"/>
<path d="M38.1182 37.5479H40.9417V40.3714H38.1182V37.5479Z" fill="#2F3238"/>
<path d="M48 6.48881V3.66528H0V6.48881H12.7059V9.6219L7.05882 11.0337V20.6065H0V36.365L3.21769 46.0182H19.3704L22.5882 36.365V20.6065H15.5294V17.4734L21.1765 16.0616V6.48881H26.8235V16.0616L32.4706 17.4734V20.6065H25.4118V36.365L28.6295 46.0182H44.7822L48 36.365V20.6065H40.9412V11.0337L35.2941 9.6219V6.48881H48ZM19.7647 35.9067L17.3353 43.1947H5.2528L2.82353 35.9067V23.43H19.7647V35.9067ZM18.3529 13.8572L12.7059 15.269V20.6065H9.88235V13.2381L15.5294 11.8263V6.48881H18.3529V13.8572ZM45.1765 35.9067L42.7471 43.1947H30.6646L28.2353 35.9067V23.43H45.1765V35.9067ZM38.1176 13.2381V20.6065H35.2941V15.269L29.6471 13.8572V6.48881H32.4706V11.8263L38.1176 13.2381Z" fill="#2F3238"/>
<path d="M7.05859 26.2534H9.88213V29.077H7.05859V26.2534Z" fill="#3C43ED"/>
<path d="M12.7061 26.2534H15.5296V29.077H12.7061V26.2534Z" fill="#2F3238"/>
<path d="M32.4707 26.2534H35.2942V29.077H32.4707V26.2534Z" fill="#3C43ED"/>
<path d="M38.1182 26.2534H40.9417V29.077H38.1182V26.2534Z" fill="#2F3238"/>
</g>
<defs>
<clipPath id="clip0_189_833">
<rect width="48" height="48" fill="white" transform="translate(0 0.841797)"/>
</clipPath>
</defs>
</svg>
