<svg width="88" height="88" viewBox="0 0 88 88" fill="none" xmlns="http://www.w3.org/2000/svg">
<path d="M57.2045 66H64.5455V64.75H59.1364V64.6591L61.75 61.8636C63.75 59.7216 64.3409 58.7216 64.3409 57.4318C64.3409 55.6364 62.8864 54.2045 60.8409 54.2045C58.8011 54.2045 57.25 55.5909 57.25 57.6364H58.5909C58.5909 56.3125 59.4489 55.4318 60.7955 55.4318C62.0568 55.4318 63.0227 56.2045 63.0227 57.4318C63.0227 58.5057 62.392 59.3011 61.0455 60.7727L57.2045 64.9773V66Z" fill="#2F3238"/>
<path fill-rule="evenodd" clip-rule="evenodd" d="M72.8376 45.634C65.3255 38.122 53.1461 38.122 45.634 45.634C38.122 53.1461 38.122 65.3255 45.634 72.8376C47.1961 74.3997 47.1961 76.9323 45.634 78.4944C44.0719 80.0565 41.5393 80.0565 39.9772 78.4944C29.3409 67.8582 29.3409 50.6134 39.9772 39.9772C50.6134 29.3409 67.8582 29.3409 78.4944 39.9772C80.0565 41.5393 80.0565 44.0719 78.4944 45.634C76.9323 47.1961 74.3997 47.1961 72.8376 45.634Z" fill="#3C43ED"/>
<path fill-rule="evenodd" clip-rule="evenodd" d="M74.3659 41.5056C75.928 39.9435 78.4607 39.9435 80.0228 41.5056C90.659 52.1418 90.659 69.3866 80.0228 80.0228C69.3866 90.659 52.1418 90.659 41.5056 80.0228C39.9435 78.4607 39.9435 75.928 41.5056 74.3659C43.0677 72.8038 45.6003 72.8038 47.1624 74.3659C54.6745 81.878 66.8539 81.878 74.3659 74.3659C81.878 66.8539 81.878 54.6745 74.3659 47.1624C72.8038 45.6003 72.8038 43.0677 74.3659 41.5056Z" fill="#ADF1D2"/>
</svg>
