<svg width="88" height="88" viewBox="0 0 88 88" fill="none" xmlns="http://www.w3.org/2000/svg">
<path d="M61.1364 66.1591C63.392 66.1591 65.0682 64.7443 65.0682 62.8409C65.0682 61.3636 64.1932 60.2898 62.7273 60.0455V59.9545C63.9034 59.5966 64.6364 58.6307 64.6364 57.3182C64.6364 55.6705 63.3352 54.2045 61.1818 54.2045C59.1705 54.2045 57.5 55.4432 57.4318 57.2727H58.7955C58.8466 56.1136 59.9489 55.4318 61.1591 55.4318C62.4432 55.4318 63.2727 56.2102 63.2727 57.3864C63.2727 58.6136 62.3125 59.4091 60.9318 59.4091H60V60.6591H60.9318C62.6989 60.6591 63.6818 61.5568 63.6818 62.8409C63.6818 64.0739 62.608 64.9091 61.1136 64.9091C59.767 64.9091 58.6989 64.2159 58.6136 63.0909H57.1818C57.267 64.9205 58.8807 66.1591 61.1364 66.1591Z" fill="#2F3238"/>
<path fill-rule="evenodd" clip-rule="evenodd" d="M72.8376 45.634C65.3255 38.122 53.1461 38.122 45.634 45.634C38.122 53.1461 38.122 65.3255 45.634 72.8376C47.1961 74.3997 47.1961 76.9323 45.634 78.4944C44.0719 80.0565 41.5393 80.0565 39.9772 78.4944C29.3409 67.8582 29.3409 50.6134 39.9772 39.9772C50.6134 29.3409 67.8582 29.3409 78.4944 39.9772C80.0565 41.5393 80.0565 44.0719 78.4944 45.634C76.9323 47.1961 74.3997 47.1961 72.8376 45.634Z" fill="#3C43ED"/>
<path fill-rule="evenodd" clip-rule="evenodd" d="M74.3659 41.5056C75.928 39.9435 78.4607 39.9435 80.0228 41.5056C90.659 52.1418 90.659 69.3866 80.0228 80.0228C69.3866 90.659 52.1418 90.659 41.5056 80.0228C39.9435 78.4607 39.9435 75.928 41.5056 74.3659C43.0677 72.8038 45.6003 72.8038 47.1624 74.3659C54.6745 81.878 66.8539 81.878 74.3659 74.3659C81.878 66.8539 81.878 54.6745 74.3659 47.1624C72.8038 45.6003 72.8038 43.0677 74.3659 41.5056Z" fill="#ADF1D2"/>
</svg>
