<svg width="48" height="49" viewBox="0 0 48 49" fill="none" xmlns="http://www.w3.org/2000/svg">
<g clip-path="url(#clip0_189_850)">
<path d="M41.6477 46.0183L37.4125 40.3712H33.883V34.7242H28.236V23.43H30.8935L32.4761 10.8116C33.329 5.58448 29.2908 0.841797 24.0007 0.841797C18.7047 0.841797 14.6734 5.5905 15.5252 10.8116L17.1079 23.43H19.7654V34.7242H14.1183V40.3712H9.01048L6.18695 46.0183H2.82422V48.8418H45.1772V46.0183H41.6477ZM24.0007 3.66533C27.5581 3.66533 30.272 6.86071 29.6861 10.3769L29.6814 10.405L29.1102 14.9594H18.8911L18.3235 10.4332L18.3152 10.3769C17.7305 6.86796 20.4356 3.66533 24.0007 3.66533ZM19.5994 20.6065L19.2452 17.783H28.7561L28.4019 20.6065H28.236H19.7654H19.5994ZM22.5889 23.43H25.4125V34.7242H22.5889V23.43ZM16.9419 37.5477H31.0595V40.3712H16.9419V37.5477ZM9.34384 46.0183L10.7556 43.1947H36.0007L38.1183 46.0183H9.34384Z" fill="#2F3238"/>
</g>
<defs>
<clipPath id="clip0_189_850">
<rect width="48" height="48" fill="white" transform="translate(0 0.841797)"/>
</clipPath>
</defs>
</svg>
