<svg width="1920" height="681" viewBox="0 0 1920 681" fill="none" xmlns="http://www.w3.org/2000/svg">
<g clip-path="url(#clip0_214_1072)">
<rect width="210" height="535" rx="105" transform="matrix(0.707171 0.707042 -0.707171 0.707042 776 -37)" fill="#EEEEEE"/>
<rect width="210" height="210" rx="105" transform="matrix(0.707174 0.70704 -0.707174 0.70704 1016 325)" fill="#EEEEEE"/>
<path d="M124.747 309.239C165.756 268.238 232.244 268.238 273.253 309.239V309.239C314.262 350.24 314.262 416.716 273.253 457.717L269.717 461.253C228.708 502.254 162.22 502.254 121.211 461.253V461.253C80.2019 420.252 80.2019 353.776 121.211 312.774L124.747 309.239Z" fill="#EEEEEE"/>
<rect width="210" height="215" rx="105" transform="matrix(0.707174 0.70704 -0.707174 0.70704 1772 191)" fill="#EEEEEE"/>
<rect width="210" height="558" rx="105" transform="matrix(0.707174 0.70704 -0.707174 0.70704 395 344)" fill="#EEEEEE"/>
<rect width="210" height="783" rx="105" transform="matrix(0.707174 0.70704 -0.707174 0.70704 855 185)" fill="#EEEEEE"/>
<rect width="210" height="371" rx="105" transform="matrix(0.707174 0.70704 -0.707174 0.70704 866 476)" fill="#EEEEEE"/>
<rect width="210" height="414" rx="105" transform="matrix(0.707171 0.707042 -0.707171 0.707042 1312 27)" fill="#EEEEEE"/>
<rect width="210" height="865" rx="105" transform="matrix(0.707174 0.70704 -0.707174 0.70704 1299 344)" fill="#EEEEEE"/>
<rect width="210" height="558" rx="105" transform="matrix(0.707174 0.70704 -0.707174 0.70704 1601 344)" fill="#EEEEEE"/>
</g>
<defs>
<clipPath id="clip0_214_1072">
<rect width="1920" height="681" fill="white"/>
</clipPath>
</defs>
</svg>
