<svg width="118" height="118" viewBox="0 0 118 118" fill="none" xmlns="http://www.w3.org/2000/svg">
<circle cx="59" cy="59" r="59" fill="white"/>
<g clip-path="url(#clip0_224_812)">
<path d="M74.2679 64.4884L67.5563 57.7768L77.9274 47.4056L81.2069 46.3125C81.5535 46.197 81.8545 45.9746 82.0669 45.6773L88.1779 37.1218C88.669 36.4342 88.591 35.4923 87.9935 34.895L83.105 30.0063C82.5076 29.4088 81.5658 29.3309 80.8782 29.8219L72.3227 35.9329C72.0254 36.1453 71.8031 36.4463 71.6875 36.7929L70.5944 40.0724L60.2232 50.4435L53.5116 43.7319C54.1993 39.8631 52.9591 35.8462 50.1565 33.0436C46.5364 29.4237 41.0019 28.4734 36.3846 30.6793C35.3086 31.1932 35.0651 32.6189 35.9074 33.461L42.3171 39.8707V42.3151H39.8727L33.463 35.9055C32.6183 35.0606 31.1936 35.3101 30.6813 36.3827C28.4753 41 29.4256 46.5345 33.0457 50.1546C35.8482 52.9571 39.865 54.1972 43.7339 53.5097L48.0012 57.7769L34.4783 71.2998C34.478 71.3001 34.4779 71.3002 34.4777 71.3004C34.4774 71.3007 34.4773 71.3008 34.4771 71.301L32.0333 73.7448C28.6557 77.1222 28.6554 82.5891 32.0333 85.9667C35.4107 89.3442 40.8776 89.3447 44.2553 85.9667L46.6991 83.5229C46.6994 83.5227 46.6995 83.5226 46.6997 83.5223C46.6999 83.5221 46.7001 83.522 46.7003 83.5218L60.2233 69.9989L64.4906 74.2661C63.8028 78.1349 65.043 82.1519 67.8456 84.9544C71.4666 88.5755 77.0011 89.5243 81.6177 87.3189C82.6936 86.8049 82.9371 85.3792 82.0949 84.5371L75.6849 78.1274V75.683H78.1293L84.539 82.0927C85.3819 82.9359 86.8074 82.6902 87.3208 81.6155C89.5266 76.9981 88.5763 71.4636 84.9563 67.8435C82.1536 65.041 78.1367 63.8008 74.2679 64.4884ZM73.3275 42.2284C73.5172 42.0388 73.6601 41.8074 73.7451 41.5528L74.7896 38.4195L81.6961 33.4863L84.5142 36.3043L79.5809 43.2108L76.4475 44.2553C76.193 44.3402 75.9616 44.4831 75.7719 44.6729L65.1123 55.3327L62.6678 52.8882L73.3275 42.2284ZM41.8108 83.5223C39.7845 85.5489 36.5043 85.5492 34.4776 83.5223C32.451 81.4959 32.4508 78.2159 34.4776 76.1891L35.6999 74.9669L43.0331 82.3L41.8108 83.5223ZM45.4774 79.8558L38.1442 72.5226L50.4455 60.2213L52.8899 62.6657L44.2552 71.3003C43.5802 71.9754 43.5802 73.0696 44.2552 73.7447C44.9302 74.4197 46.0247 74.4197 46.6996 73.7447L55.3342 65.11L57.7786 67.5544L45.4774 79.8558ZM84.9573 77.6221L80.0673 72.7321C79.7431 72.4079 79.3035 72.2603 78.8451 72.2603H73.9563C73.0017 72.2603 72.2625 72.9997 72.2625 73.9542V78.8431C72.2625 79.3016 72.4101 79.7411 72.7342 80.0653L77.6242 84.9553C74.981 85.3298 72.2447 84.4646 70.2899 82.5098C68.1149 80.3348 67.2573 77.135 68.0521 74.1592C68.2113 73.5631 68.0406 72.9273 67.6043 72.4909L45.5089 50.3958C45.0772 49.964 44.4428 49.7871 43.8406 49.948C40.8646 50.7427 37.665 49.8852 35.49 47.7103C33.5353 45.7555 32.6701 43.0194 33.0445 40.3759L37.9345 45.2659C38.2586 45.5901 38.6983 45.7377 39.1567 45.7377H44.0456C45.0002 45.7377 45.7395 44.9983 45.7395 44.0438V39.1549C45.7395 38.6964 45.5918 38.2569 45.2677 37.9327L40.379 33.0438L40.3779 33.0426C43.0213 32.668 45.7574 33.5334 47.7123 35.4881C49.8872 37.6631 50.7448 40.8629 49.95 43.8387C49.7909 44.4348 49.9615 45.0706 50.3978 45.507L72.493 67.6022C72.9293 68.0385 73.5651 68.2093 74.1612 68.0499C77.1369 67.2552 80.3368 68.1127 82.5118 70.2876C84.4665 72.2426 85.3317 74.9786 84.9573 77.6221Z" fill="#3C43ED"/>
</g>
<defs>
<clipPath id="clip0_224_812">
<rect width="59" height="59" fill="white" transform="translate(29.5 29.5)"/>
</clipPath>
</defs>
</svg>
