<svg width="49" height="49" viewBox="0 0 49 49" fill="none" xmlns="http://www.w3.org/2000/svg">
<g clip-path="url(#clip0_61_657)">
<path d="M7.65918 31.6338H10.4827V34.4573H7.65918V31.6338Z" fill="white"/>
<path d="M13.3066 31.6338H16.1302V34.4573H13.3066V31.6338Z" fill="#3C43ED"/>
<path d="M7.65918 37.2808H10.4827V40.1043H7.65918V37.2808Z" fill="#3C43ED"/>
<path d="M13.3066 37.2808H16.1302V40.1043H13.3066V37.2808Z" fill="white"/>
<path d="M33.0713 31.6338H35.8948V34.4573H33.0713V31.6338Z" fill="white"/>
<path d="M38.7188 31.6338H41.5423V34.4573H38.7188V31.6338Z" fill="#3C43ED"/>
<path d="M33.0713 37.2808H35.8948V40.1043H33.0713V37.2808Z" fill="#3C43ED"/>
<path d="M38.7188 37.2808H41.5423V40.1043H38.7188V37.2808Z" fill="white"/>
<path d="M48.6006 6.22172V3.39819H0.600586V6.22172H13.3065V9.35481L7.65941 10.7666V20.3394H0.600586V36.098L3.81828 45.7511H19.971L23.1888 36.098V20.3394H16.13V17.2063L21.7771 15.7945V6.22172H27.4241V15.7945L33.0712 17.2063V20.3394H26.0124V36.098L29.23 45.7511H45.3828L48.6006 36.098V20.3394H41.5418V10.7666L35.8947 9.35481V6.22172H48.6006ZM20.3653 35.6396L17.9359 42.9276H5.85339L3.42412 35.6396V23.1629H20.3653V35.6396ZM18.9535 13.5901L13.3065 15.0019V20.3394H10.4829V12.971L16.13 11.5592V6.22172H18.9535V13.5901ZM45.7771 35.6396L43.3477 42.9276H31.2652L28.8359 35.6396V23.1629H45.7771V35.6396ZM38.7182 12.971V20.3394H35.8947V15.0019L30.2476 13.5901V6.22172H33.0712V11.5592L38.7182 12.971Z" fill="white"/>
<path d="M7.65918 25.9863H10.4827V28.8099H7.65918V25.9863Z" fill="#3C43ED"/>
<path d="M13.3066 25.9863H16.1302V28.8099H13.3066V25.9863Z" fill="white"/>
<path d="M33.0713 25.9863H35.8948V28.8099H33.0713V25.9863Z" fill="#3C43ED"/>
<path d="M38.7188 25.9863H41.5423V28.8099H38.7188V25.9863Z" fill="white"/>
</g>
<defs>
<clipPath id="clip0_61_657">
<rect width="48" height="48" fill="white" transform="translate(0.600586 0.574707)"/>
</clipPath>
</defs>
</svg>
