<svg width="72" height="72" viewBox="0 0 72 72" fill="none" xmlns="http://www.w3.org/2000/svg">
<circle cx="36" cy="36" r="35" stroke="#3C43ED" stroke-linecap="round"/>
<g clip-path="url(#clip0_66_859)">
<path d="M34.5365 47.4956C27.4419 37.2105 26.125 36.1549 26.125 32.375C26.125 27.1973 30.3223 23 35.5 23C40.6777 23 44.875 27.1973 44.875 32.375C44.875 36.1549 43.5581 37.2105 36.4635 47.4956C35.9979 48.1682 35.0021 48.1681 34.5365 47.4956ZM35.5 36.2812C37.6574 36.2812 39.4062 34.5324 39.4062 32.375C39.4062 30.2176 37.6574 28.4688 35.5 28.4688C33.3426 28.4688 31.5938 30.2176 31.5938 32.375C31.5938 34.5324 33.3426 36.2812 35.5 36.2812Z" fill="white"/>
</g>
<defs>
<clipPath id="clip0_66_859">
<rect width="25" height="25" fill="white" transform="translate(23 23)"/>
</clipPath>
</defs>
</svg>
