<svg width="1920" height="917" viewBox="0 0 1920 917" fill="none" xmlns="http://www.w3.org/2000/svg">
<mask id="mask0_206_1007" style="mask-type:alpha" maskUnits="userSpaceOnUse" x="0" y="0" width="1920" height="917">
<rect width="1920" height="917" fill="#C4C4C4"/>
</mask>
<g mask="url(#mask0_206_1007)">
<rect x="775.738" y="-187" width="210.373" height="536.667" rx="105.187" transform="rotate(45 775.738 -187)" fill="#EFEFEF"/>
<rect x="1017.01" y="175.994" width="210.373" height="210.37" rx="105.185" transform="rotate(45 1017.01 175.994)" fill="#EFEFEF"/>
<rect x="197.011" y="85.9937" width="210.373" height="216.027" rx="105.187" transform="rotate(45 197.011 85.9937)" fill="#EFEFEF"/>
<rect x="1774.01" y="41.9937" width="210.373" height="216.027" rx="105.187" transform="rotate(45 1774.01 41.9937)" fill="#EFEFEF"/>
<rect x="393.744" y="194.994" width="210.373" height="559.666" rx="105.187" transform="rotate(45 393.744 194.994)" fill="#EFEFEF"/>
<rect x="855.437" y="35.5566" width="210.373" height="785.144" rx="105.187" transform="rotate(45 855.437 35.5566)" fill="#EFEFEF"/>
<rect x="865.663" y="327.588" width="210.373" height="372.149" rx="105.187" transform="rotate(45 865.663 327.588)" fill="#EFEFEF"/>
<rect x="1312.77" y="-122.87" width="210.373" height="415.093" rx="105.187" transform="rotate(45 1312.77 -122.87)" fill="#EFEFEF"/>
<rect x="1300.51" y="194.994" width="210.373" height="867.161" rx="105.187" transform="rotate(45 1300.51 194.994)" fill="#EFEFEF"/>
<rect x="1602.77" y="194.994" width="210.373" height="559.666" rx="105.187" transform="rotate(45 1602.77 194.994)" fill="#EFEFEF"/>
</g>
</svg>
