<svg width="50" height="34" viewBox="0 0 50 34" fill="none" xmlns="http://www.w3.org/2000/svg">
<path d="M35 30C42.1797 30 48 24.1797 48 17C48 9.8203 42.1797 4 35 4C27.8203 4 22 9.8203 22 17C22 24.1797 27.8203 30 35 30Z" stroke="#3C43ED" stroke-width="1.5" stroke-miterlimit="10"/>
<path d="M32 21H37" stroke="#3C43ED" stroke-width="1.5" stroke-miterlimit="10"/>
<path d="M38.2082 20.5715C38.2099 20.0127 38.3255 19.4598 38.5484 18.9448C38.7712 18.4298 39.0968 17.9631 39.5063 17.5716C39.9906 17.1021 40.3725 16.5421 40.6291 15.9252C40.8856 15.3083 41.0115 14.6473 40.9992 13.9818C40.9868 13.3164 40.8366 12.6602 40.5573 12.0528C40.2781 11.4453 39.8757 10.8991 39.3742 10.4469C38.3212 9.49979 36.9353 8.98212 35.5021 9.00047V9.00047C34.0759 8.99588 32.7007 9.51634 31.6519 10.4576C31.1522 10.9059 30.749 11.4465 30.4657 12.048C30.1825 12.6494 30.0248 13.2997 30.0018 13.961C29.9829 14.6441 30.1101 15.3235 30.3752 15.9561C30.6404 16.5888 31.0377 17.1608 31.5419 17.6359C31.9399 18.0201 32.2558 18.4774 32.471 18.9813C32.6863 19.4852 32.7967 20.0257 32.796 20.5715V20.5715V21.8572C32.796 22.7893 33.445 24 34.633 24H36.3711C37.5592 24 38.2082 22.7572 38.2082 21.8572V20.5715Z" stroke="#3C43ED" stroke-width="1.5" stroke-miterlimit="10"/>
</svg>
