<svg width="48" height="49" viewBox="0 0 48 49" fill="none" xmlns="http://www.w3.org/2000/svg">
<g clip-path="url(#clip0_189_854)">
<path d="M8.4707 0.841797V31.9006H16.9413V26.2536H19.7648V36.1398C14.405 40.1737 17.2044 48.8006 24.0002 48.8418C30.7963 48.8005 33.595 40.1724 28.2354 36.1398V26.2536H31.0589V31.9006H39.5295V0.841797H8.4707ZM36.706 3.66533V6.48886H11.2942V3.66533H36.706ZM36.706 9.31239V12.1359H11.2942V9.31239H36.706ZM24.0001 46.0183C21.6647 46.0183 19.7648 44.1184 19.7648 41.783C19.9974 36.1642 28.0037 36.1659 28.2354 41.783C28.2354 44.1184 26.3355 46.0183 24.0001 46.0183ZM25.4119 34.8663C24.4832 34.6769 23.5189 34.6765 22.5883 34.8663V26.2536H25.4119V34.8663ZM33.8825 29.0771V23.43H14.1178V29.0771H11.2942V14.9594H36.706V29.0771H33.8825Z" fill="#2F3238"/>
<path d="M14.1182 17.7827H16.9417V20.6062H14.1182V17.7827Z" fill="#3C43ED"/>
<path d="M19.7646 17.7827H22.5882V20.6062H19.7646V17.7827Z" fill="#3C43ED"/>
<path d="M25.4121 17.7827H28.2356V20.6062H25.4121V17.7827Z" fill="#3C43ED"/>
<path d="M31.0586 17.7827H33.8821V20.6062H31.0586V17.7827Z" fill="#3C43ED"/>
</g>
<defs>
<clipPath id="clip0_189_854">
<rect width="48" height="48" fill="white" transform="translate(0 0.841797)"/>
</clipPath>
</defs>
</svg>
