<svg width="48" height="49" viewBox="0 0 48 49" fill="none" xmlns="http://www.w3.org/2000/svg">
<g clip-path="url(#clip0_189_828)">
<path d="M18.4008 17.7812C11.3903 17.7812 5.71582 23.4547 5.71582 30.4663C6.3761 47.2934 30.4276 47.2899 31.0858 30.4662C31.0858 23.4558 25.4124 17.7812 18.4008 17.7812ZM24.3101 22.5638L20.2227 26.6512C19.0738 26.1039 17.7279 26.1039 16.5791 26.6512L12.4917 22.5638C15.8433 19.9603 20.9585 19.9603 24.3101 22.5638ZM17.4043 29.4696C17.9551 28.9188 18.8467 28.9188 19.3975 29.4696C19.9443 29.9942 19.9443 30.9382 19.3975 31.4628C18.0245 32.7394 16.1333 30.8352 17.4043 29.4696ZM10.4984 24.557L14.5857 28.6444C14.0384 29.7933 14.0384 31.1392 14.5857 32.288L10.4984 36.3754C7.89407 32.908 7.86353 28.0652 10.4984 24.557ZM12.4916 38.3687L16.579 34.2813C17.7299 34.8295 19.0714 34.8296 20.2226 34.2813L24.31 38.3687C20.8424 40.9731 15.9996 41.0035 12.4916 38.3687ZM26.3033 36.3755L22.2159 32.2881C22.7632 31.1392 22.7632 29.7933 22.2159 28.6445L26.3033 24.5571C28.9068 27.9087 28.9067 33.0239 26.3033 36.3755Z" fill="#2F3238"/>
<path d="M40.9528 17.6629C44.9472 16.9899 48 13.5072 48 9.32435C47.5354 -1.89465 31.5494 -1.89127 31.0866 9.32444C31.0866 13.5072 34.1394 16.9899 38.1339 17.6629V23.4188H45.1811V27.6471H36.4982C35.9247 23.9339 34.2121 20.3643 31.3578 17.5098C13.4515 1.03145 -11.026 25.5357 5.44543 43.4222C16.8956 54.9423 36.8253 46.5844 36.7157 30.466H48V20.5999H40.9528V17.6629ZM29.3646 41.429C23.3196 47.4739 13.4837 47.4738 7.43867 41.429C1.39384 35.384 1.39384 25.5481 7.43867 19.5031C13.4837 13.4583 23.3196 13.4583 29.3646 19.5031C35.4094 25.5481 35.4094 35.384 29.3646 41.429ZM39.5433 3.68656C42.652 3.68656 45.1811 6.21567 45.1811 9.32435H40.9528V6.50546H38.1339V9.32435H33.9055C33.9055 6.21567 36.4346 3.68656 39.5433 3.68656ZM34.664 12.1432H44.4225C42.2899 15.8826 36.7952 15.8806 34.664 12.1432Z" fill="#2F3238"/>
</g>
<defs>
<clipPath id="clip0_189_828">
<rect width="48" height="48" fill="white" transform="translate(0 0.841797)"/>
</clipPath>
</defs>
</svg>
