<svg width="49" height="49" viewBox="0 0 49 49" fill="none" xmlns="http://www.w3.org/2000/svg">
<g clip-path="url(#clip0_61_682)">
<path d="M8.87207 0.574707V31.6335H17.3427V25.9865H20.1662V35.8727C14.8064 39.9066 17.6058 48.5335 24.4016 48.5747C31.1976 48.5334 33.9964 39.9053 28.6368 35.8727V25.9865H31.4603V31.6335H39.9309V0.574707H8.87207ZM37.1074 3.39824V6.22177H11.6956V3.39824H37.1074ZM37.1074 9.0453V11.8688H11.6956V9.0453H37.1074ZM24.4015 45.7512C22.066 45.7512 20.1662 43.8513 20.1662 41.5159C20.3988 35.8972 28.4051 35.8988 28.6368 41.5159C28.6368 43.8513 26.7368 45.7512 24.4015 45.7512ZM25.8132 34.5992C24.8846 34.4098 23.9203 34.4094 22.9897 34.5992V25.9865H25.8132V34.5992ZM34.2838 28.81V23.1629H14.5191V28.81H11.6956V14.6924H37.1074V28.81H34.2838Z" fill="white"/>
<path d="M14.5195 17.5156H17.3431V20.3392H14.5195V17.5156Z" fill="#3C43ED"/>
<path d="M20.166 17.5156H22.9895V20.3392H20.166V17.5156Z" fill="#3C43ED"/>
<path d="M25.8135 17.5156H28.637V20.3392H25.8135V17.5156Z" fill="#3C43ED"/>
<path d="M31.46 17.5156H34.2835V20.3392H31.46V17.5156Z" fill="#3C43ED"/>
</g>
<defs>
<clipPath id="clip0_61_682">
<rect width="48" height="48" fill="white" transform="translate(0.401367 0.574707)"/>
</clipPath>
</defs>
</svg>
