<svg width="49" height="49" viewBox="0 0 49 49" fill="none" xmlns="http://www.w3.org/2000/svg">
<path d="M18.601 17.4937C11.5905 17.4937 5.91602 23.1837 5.91602 30.2156C6.57629 47.0917 30.6278 47.0881 31.286 30.2155C31.286 23.1847 25.6126 17.4937 18.601 17.4937V17.4937ZM24.5103 22.2901L20.4229 26.3894C19.274 25.8406 17.9281 25.8406 16.7793 26.3894L12.6919 22.2901C16.0434 19.6791 21.1587 19.6791 24.5103 22.2901V22.2901ZM17.6045 29.216C18.1553 28.6636 19.0469 28.6636 19.5977 29.216C20.1445 29.7421 20.1445 30.6889 19.5977 31.215C18.2247 32.4953 16.3335 30.5855 17.6045 29.216ZM10.6985 24.2891L14.7859 28.3884C14.2386 29.5407 14.2386 30.8905 14.7859 32.0426L10.6985 36.1419C8.09427 32.6644 8.06373 27.8076 10.6985 24.2891V24.2891ZM12.6918 38.141L16.7792 34.0417C17.9301 34.5915 19.2716 34.5916 20.4228 34.0417L24.5102 38.141C21.0426 40.753 16.1998 40.7834 12.6918 38.141V38.141ZM26.5035 36.142L22.4161 32.0427C22.9634 30.8905 22.9634 29.5407 22.4161 28.3885L26.5035 24.2892C29.1069 27.6506 29.1069 32.7807 26.5035 36.142Z" fill="#3C43ED"/>
<path d="M41.153 17.375C45.1474 16.7 48.2002 13.2072 48.2002 9.01216C47.7356 -2.23949 31.7496 -2.2361 31.2868 9.01225C31.2868 13.2072 34.3396 16.7 38.3341 17.375V23.1476H45.3813V27.3883H36.6984C36.1249 23.6642 34.4123 20.0842 31.558 17.2215C13.6517 0.69513 -10.8258 25.2707 5.64563 43.2093C17.0958 54.7628 37.0255 46.3806 36.9159 30.2154H48.2002V20.3205H41.153V17.375ZM29.5648 41.2102C23.5198 47.2727 13.6839 47.2726 7.63887 41.2102C1.59403 35.1476 1.59403 25.2831 7.63887 19.2205C13.6839 13.1581 23.5198 13.1581 29.5648 19.2205C35.6096 25.2831 35.6096 35.1476 29.5648 41.2102ZM39.7435 3.35797C42.8522 3.35797 45.3813 5.89444 45.3813 9.01216H41.153V6.18506H38.3341V9.01216H34.1057C34.1057 5.89444 36.6348 3.35797 39.7435 3.35797ZM34.8642 11.8393H44.6227C42.4901 15.5895 36.9954 15.5875 34.8642 11.8393Z" fill="white"/>
</svg>
