<svg width="48" height="49" viewBox="0 0 48 49" fill="none" xmlns="http://www.w3.org/2000/svg">
<g clip-path="url(#clip0_61_676)">
<path d="M41.6487 45.7512L37.4134 40.1041H33.884V34.4571H28.237V23.1629H30.8945L32.4771 10.5445C33.3299 5.31739 29.2917 0.574707 24.0017 0.574707C18.7057 0.574707 14.6744 5.32341 15.5262 10.5445L17.1089 23.1629H19.7664V34.4571H14.1193V40.1041H9.01145L6.18792 45.7512H2.8252V48.5747H45.1781V45.7512H41.6487ZM24.0017 3.39824C27.5591 3.39824 30.273 6.59362 29.6871 10.1098L29.6824 10.1379L29.1112 14.6924H18.8921L18.3245 10.1661L18.3162 10.1098C17.7315 6.60087 20.4366 3.39824 24.0017 3.39824ZM19.6003 20.3394L19.2462 17.5159H28.7571L28.4029 20.3394H28.237H19.7664H19.6003ZM22.5899 23.1629H25.4134V34.4571H22.5899V23.1629ZM16.9428 37.2806H31.0605V40.1041H16.9428V37.2806ZM9.34482 45.7512L10.7566 42.9277H36.0017L38.1193 45.7512H9.34482Z" fill="white"/>
</g>
<defs>
<clipPath id="clip0_61_676">
<rect width="48" height="48" fill="white" transform="translate(0.000976562 0.574707)"/>
</clipPath>
</defs>
</svg>
