<svg width="70" height="70" viewBox="0 0 70 70" fill="none" xmlns="http://www.w3.org/2000/svg">
<circle cx="35" cy="35" r="35" fill="#3C43ED"/>
<g clip-path="url(#clip0_66_923)">
<path d="M47.2866 39.6661L41.8179 37.3223C41.5843 37.2227 41.3246 37.2018 41.078 37.2625C40.8315 37.3233 40.6113 37.4625 40.4507 37.6592L38.0288 40.6182C34.2279 38.8261 31.169 35.7673 29.377 31.9664L32.3359 29.5445C32.533 29.3842 32.6726 29.164 32.7333 28.9173C32.7941 28.6706 32.7729 28.4108 32.6729 28.1773L30.3291 22.7085C30.2193 22.4568 30.0251 22.2512 29.78 22.1273C29.5348 22.0034 29.2542 21.969 28.9863 22.0298L23.9082 23.2017C23.65 23.2613 23.4196 23.4067 23.2547 23.6141C23.0897 23.8216 22.9999 24.0788 23 24.3438C23 36.8682 33.1514 47 45.6562 47C45.9213 47.0002 46.1787 46.9105 46.3862 46.7455C46.5937 46.5806 46.7392 46.3501 46.7988 46.0918L47.9707 41.0137C48.0312 40.7446 47.996 40.4628 47.8711 40.2168C47.7463 39.9708 47.5396 39.7761 47.2866 39.6661Z" fill="white"/>
</g>
<defs>
<clipPath id="clip0_66_923">
<rect width="25" height="25" fill="white" transform="translate(23 22)"/>
</clipPath>
</defs>
</svg>
