<svg id="Component_11_2" data-name="Component 11 – 2" xmlns="http://www.w3.org/2000/svg" xmlns:xlink="http://www.w3.org/1999/xlink" width="125.436" height="23.264" viewBox="0 0 125.436 23.264">
  <defs>
    <clipPath id="clip-path">
      <path id="Path_362" data-name="Path 362" d="M7.232-13.6v-5.344h4.7a7.325,7.325,0,0,1,1.3.112,3.237,3.237,0,0,1,1.1.4,2.131,2.131,0,0,1,.768.8,2.656,2.656,0,0,1,.288,1.312,2.417,2.417,0,0,1-.864,2.08,3.612,3.612,0,0,1-2.208.64ZM2.208-22.848V0H13.28a11.683,11.683,0,0,0,2.992-.384,8,8,0,0,0,2.592-1.184,5.831,5.831,0,0,0,1.808-2.064,6.288,6.288,0,0,0,.672-2.992,6.331,6.331,0,0,0-1.04-3.664,5.491,5.491,0,0,0-3.152-2.128,5.7,5.7,0,0,0,2.32-1.888,5,5,0,0,0,.784-2.88,6.129,6.129,0,0,0-.528-2.688,4.39,4.39,0,0,0-1.488-1.744,6.426,6.426,0,0,0-2.3-.944,14.23,14.23,0,0,0-2.976-.288ZM7.232-3.9v-6.272H12.7a4.233,4.233,0,0,1,2.624.752,2.954,2.954,0,0,1,.992,2.512,3.141,3.141,0,0,1-.3,1.472,2.416,2.416,0,0,1-.816.912,3.455,3.455,0,0,1-1.184.48,6.7,6.7,0,0,1-1.408.144Zm28.16-6.144H28a5.216,5.216,0,0,1,.208-1.088,3.341,3.341,0,0,1,.608-1.152,3.442,3.442,0,0,1,1.152-.912,3.953,3.953,0,0,1,1.808-.368,3.191,3.191,0,0,1,2.48.9A5.252,5.252,0,0,1,35.392-10.048ZM28-7.168H39.936a11.68,11.68,0,0,0-.32-3.68,9.007,9.007,0,0,0-1.456-3.136,7.344,7.344,0,0,0-2.576-2.192,7.867,7.867,0,0,0-3.68-.816,8.568,8.568,0,0,0-3.44.672,8.133,8.133,0,0,0-2.672,1.84,8.11,8.11,0,0,0-1.728,2.768,9.649,9.649,0,0,0-.608,3.456,10.073,10.073,0,0,0,.592,3.52,7.994,7.994,0,0,0,1.68,2.752A7.319,7.319,0,0,0,28.384-.208,9.449,9.449,0,0,0,31.9.416a8.666,8.666,0,0,0,4.8-1.28A7.593,7.593,0,0,0,39.648-5.12h-4a2.854,2.854,0,0,1-1.216,1.456,4.051,4.051,0,0,1-2.368.688,4.062,4.062,0,0,1-2.944-.992A4.594,4.594,0,0,1,28-7.168Zm15.1-15.68V0h16.16V-4.224H48.128V-22.848ZM65.632-8.256a9.929,9.929,0,0,1,.192-1.952,4.98,4.98,0,0,1,.656-1.7,3.685,3.685,0,0,1,1.232-1.2,3.657,3.657,0,0,1,1.92-.464,3.743,3.743,0,0,1,1.936.464,3.638,3.638,0,0,1,1.248,1.2,4.98,4.98,0,0,1,.656,1.7,9.929,9.929,0,0,1,.192,1.952,9.689,9.689,0,0,1-.192,1.936,5.157,5.157,0,0,1-.656,1.7,3.454,3.454,0,0,1-1.248,1.2,3.851,3.851,0,0,1-1.936.448,3.761,3.761,0,0,1-1.92-.448,3.494,3.494,0,0,1-1.232-1.2,5.157,5.157,0,0,1-.656-1.7A9.689,9.689,0,0,1,65.632-8.256Zm-4.544,0A10.025,10.025,0,0,0,61.7-4.672a7.775,7.775,0,0,0,1.728,2.736A7.559,7.559,0,0,0,66.112-.192a9.671,9.671,0,0,0,3.52.608,9.8,9.8,0,0,0,3.536-.608,7.531,7.531,0,0,0,2.7-1.744A7.775,7.775,0,0,0,77.6-4.672a10.025,10.025,0,0,0,.608-3.584,10.156,10.156,0,0,0-.608-3.6,7.747,7.747,0,0,0-1.728-2.752,7.712,7.712,0,0,0-2.7-1.76,9.575,9.575,0,0,0-3.536-.624,9.449,9.449,0,0,0-3.52.624,7.743,7.743,0,0,0-2.688,1.76A7.747,7.747,0,0,0,61.7-11.856,10.156,10.156,0,0,0,61.088-8.256Zm25.824-8.288V-21.5H82.368v4.96H79.616v3.04h2.752v9.76a4.227,4.227,0,0,0,.416,2.016A2.965,2.965,0,0,0,83.92-.544a4.717,4.717,0,0,0,1.664.56,13.265,13.265,0,0,0,2,.144q.672,0,1.376-.032A10.813,10.813,0,0,0,90.24,0V-3.52a6.366,6.366,0,0,1-.672.1q-.352.032-.736.032A2.224,2.224,0,0,1,87.3-3.776a2.224,2.224,0,0,1-.384-1.536V-13.5H90.24v-3.04Zm11.264,0V-21.5H93.632v4.96H90.88v3.04h2.752v9.76a4.227,4.227,0,0,0,.416,2.016A2.965,2.965,0,0,0,95.184-.544a4.717,4.717,0,0,0,1.664.56,13.265,13.265,0,0,0,2,.144q.672,0,1.376-.032A10.813,10.813,0,0,0,101.5,0V-3.52a6.366,6.366,0,0,1-.672.1q-.352.032-.736.032a2.224,2.224,0,0,1-1.536-.384,2.224,2.224,0,0,1-.384-1.536V-13.5H101.5v-3.04Zm10.176-2.56v-3.744h-4.544V-19.1Zm-4.544,2.56V0h4.544V-16.544Zm19.264,6.5H115.68a5.216,5.216,0,0,1,.208-1.088,3.341,3.341,0,0,1,.608-1.152,3.442,3.442,0,0,1,1.152-.912,3.953,3.953,0,0,1,1.808-.368,3.191,3.191,0,0,1,2.48.9A5.252,5.252,0,0,1,123.072-10.048Zm-7.392,2.88h11.936a11.68,11.68,0,0,0-.32-3.68,9.007,9.007,0,0,0-1.456-3.136,7.344,7.344,0,0,0-2.576-2.192,7.867,7.867,0,0,0-3.68-.816,8.568,8.568,0,0,0-3.44.672,8.133,8.133,0,0,0-2.672,1.84,8.11,8.11,0,0,0-1.728,2.768,9.649,9.649,0,0,0-.608,3.456,10.073,10.073,0,0,0,.592,3.52,7.994,7.994,0,0,0,1.68,2.752,7.319,7.319,0,0,0,2.656,1.776,9.449,9.449,0,0,0,3.52.624,8.666,8.666,0,0,0,4.8-1.28,7.593,7.593,0,0,0,2.944-4.256h-4a2.854,2.854,0,0,1-1.216,1.456,4.051,4.051,0,0,1-2.368.688,4.062,4.062,0,0,1-2.944-.992A4.594,4.594,0,0,1,115.68-7.168Z" transform="translate(-2.208 22.848)" fill="#017fe4"/>
    </clipPath>
    <linearGradient id="linear-gradient" x1="1" y1="0.295" x2="0" y2="0.754" gradientUnits="objectBoundingBox">
      <stop offset="0" stop-color="#65c9d0"/>
      <stop offset="0.261" stop-color="#017fe4"/>
      <stop offset="0.677" stop-color="#6c33b8"/>
      <stop offset="1" stop-color="#fa5057"/>
    </linearGradient>
  </defs>
  <g id="Mask_Group_2" data-name="Mask Group 2" clip-path="url(#clip-path)">
    <rect id="Rectangle_207" data-name="Rectangle 207" width="128" height="42" transform="translate(-2.208 -9.152)" fill="url(#linear-gradient)"/>
  </g>
</svg>
