<svg xmlns="http://www.w3.org/2000/svg" xmlns:xlink="http://www.w3.org/1999/xlink" width="160" height="160" viewBox="0 0 160 160">
  <defs>
    <clipPath id="clip-path">
      <rect id="Rectangle_240" data-name="Rectangle 240" width="160" height="160" transform="translate(1331 1576.5)" fill="#fff" stroke="#707070" stroke-width="1"/>
    </clipPath>
    <linearGradient id="linear-gradient" x1="1" y1="0.5" x2="0" y2="0.5" gradientUnits="objectBoundingBox">
      <stop offset="0" stop-color="#00d3ff"/>
      <stop offset="0.542" stop-color="#408fcf"/>
      <stop offset="1" stop-color="#814ba2"/>
    </linearGradient>
    <linearGradient id="linear-gradient-2" x1="1" y1="0.5" x2="0" y2="0.5" gradientUnits="objectBoundingBox">
      <stop offset="0" stop-color="#6e219d"/>
      <stop offset="1" stop-color="#f2327c"/>
    </linearGradient>
    <linearGradient id="linear-gradient-3" x1="1" y1="0.5" x2="0" y2="0.5" gradientUnits="objectBoundingBox">
      <stop offset="0" stop-color="#f83636"/>
      <stop offset="1" stop-color="#ff9a5b"/>
    </linearGradient>
  </defs>
  <g id="Mask_Group_9" data-name="Mask Group 9" transform="translate(-1331 -1576.5)" clip-path="url(#clip-path)">
    <g id="gradient" transform="translate(1348 1607)">
      <g id="Group_572" data-name="Group 572">
        <path id="Path_680" data-name="Path 680" d="M-15.652,382.4l4.248-6.736a.807.807,0,0,1,1.112-.252.8.8,0,0,1,.252.252l4.248,6.736a.807.807,0,0,1-.25,1.113.81.81,0,0,1-.431.124h-8.5a.806.806,0,0,1-.8-.81A.816.816,0,0,1-15.652,382.4Z" transform="translate(16.432 -358.099)" fill="#030107"/>
        <path id="Path_681" data-name="Path 681" d="M63.4,382.4l4.248-6.736a.807.807,0,0,1,1.112-.252.8.8,0,0,1,.252.252l4.248,6.736a.807.807,0,0,1-.682,1.237h-8.5A.806.806,0,0,1,63.4,382.4Z" transform="translate(16.432 -358.099)" fill="#030107"/>
        <rect id="Rectangle_214" data-name="Rectangle 214" width="125.565" height="13.194" rx="6.597" fill="url(#linear-gradient)"/>
      </g>
      <g id="Group_573" data-name="Group 573" transform="translate(0 38.035)">
        <path id="Path_684" data-name="Path 684" d="M17.721,425.189l4.248-6.736a.807.807,0,0,1,1.112-.252.8.8,0,0,1,.252.252l4.248,6.736a.807.807,0,0,1-.682,1.237H18.4a.806.806,0,0,1-.678-1.237Z" transform="translate(16.432 -401.133)" fill="#030107"/>
        <path id="Path_685" data-name="Path 685" d="M36.365,425.189l4.248-6.736a.807.807,0,0,1,1.112-.252.8.8,0,0,1,.252.252l4.248,6.736a.8.8,0,0,1-.682,1.237h-8.5a.807.807,0,0,1-.678-1.237Z" transform="translate(16.432 -401.133)" fill="#030107"/>
        <rect id="Rectangle_215" data-name="Rectangle 215" width="125.565" height="13.194" rx="6.597" fill="url(#linear-gradient-2)"/>
      </g>
      <g id="Group_574" data-name="Group 574" transform="translate(0 76.069)">
        <path id="Path_682" data-name="Path 682" d="M-15.652,467.972l4.248-6.736a.807.807,0,0,1,1.112-.252.8.8,0,0,1,.252.252l4.248,6.736a.807.807,0,0,1-.25,1.113.8.8,0,0,1-.432.124h-8.5a.806.806,0,0,1-.8-.811A.813.813,0,0,1-15.652,467.972Z" transform="translate(16.432 -444.168)" fill="#030107"/>
        <path id="Path_683" data-name="Path 683" d="M99.149,467.972l4.248-6.736a.807.807,0,0,1,1.112-.252.8.8,0,0,1,.252.252l4.248,6.736a.805.805,0,0,1-.682,1.237h-8.5a.807.807,0,0,1-.678-1.237Z" transform="translate(16.432 -444.168)" fill="#030107"/>
        <rect id="Rectangle_216" data-name="Rectangle 216" width="125.565" height="13.194" rx="6.597" fill="url(#linear-gradient-3)"/>
      </g>
    </g>
  </g>
</svg>
