<svg id="Capa_1" data-name="Capa 1" xmlns="http://www.w3.org/2000/svg" xmlns:xlink="http://www.w3.org/1999/xlink" viewBox="0 0 187.29 41.04"><defs><style>.cls-1{fill:url(#linear-gradient);}.cls-2{fill:url(#linear-gradient-2);}.cls-3{fill:url(#linear-gradient-3);}.cls-4{fill:url(#linear-gradient-4);}.cls-5{fill:url(#linear-gradient-5);}.cls-6{fill:url(#linear-gradient-6);}.cls-7{fill:url(#linear-gradient-7);}.cls-8{fill:url(#linear-gradient-8);}.cls-9{fill:#0a0130;}</style><linearGradient id="linear-gradient" x1="5.02" y1="11.76" x2="16.28" y2="0.49" gradientTransform="matrix(1, 0, 0, -1, 0.21, 17.05)" gradientUnits="userSpaceOnUse"><stop offset="0" stop-color="#73b3ff"/><stop offset="0.73" stop-color="#3a74f6"/><stop offset="1" stop-color="#205db7"/></linearGradient><linearGradient id="linear-gradient-2" x1="38.3" y1="11.76" x2="49.56" y2="0.49" xlink:href="#linear-gradient"/><linearGradient id="linear-gradient-3" x1="16.53" y1="4.43" x2="41.16" y2="-20.21" xlink:href="#linear-gradient"/><linearGradient id="linear-gradient-4" x1="25.98" y1="-10.76" x2="25.98" y2="-22.54" gradientTransform="matrix(1, 0, 0, -1, 0.21, 17.05)" gradientUnits="userSpaceOnUse"><stop offset="0" stop-color="#2b70ed" stop-opacity="0"/><stop offset="0.34" stop-color="#1152e2" stop-opacity="0.34"/><stop offset="0.96" stop-color="#1a4eb7" stop-opacity="0.96"/><stop offset="1" stop-color="#1a4eb7"/></linearGradient><linearGradient id="linear-gradient-5" x1="32.29" y1="0.75" x2="35.76" y2="-2.72" gradientTransform="matrix(1, 0, 0, -1, 0.21, 17.05)" gradientUnits="userSpaceOnUse"><stop offset="0" stop-color="#312a61"/><stop offset="0.32" stop-color="#2b2253"/><stop offset="0.94" stop-color="#1d0d2e"/><stop offset="1" stop-color="#1b0b2a"/></linearGradient><linearGradient id="linear-gradient-6" x1="33.67" y1="-0.44" x2="35.07" y2="-1.84" gradientTransform="matrix(1, 0, 0, -1, 0.21, 17.05)" gradientUnits="userSpaceOnUse"><stop offset="0" stop-color="#eef4ff"/><stop offset="1" stop-color="#cfe7fd"/></linearGradient><linearGradient id="linear-gradient-7" x1="13.94" y1="0.75" x2="17.41" y2="-2.72" xlink:href="#linear-gradient-5"/><linearGradient id="linear-gradient-8" x1="15.32" y1="-0.44" x2="16.72" y2="-1.84" xlink:href="#linear-gradient-6"/></defs><circle class="cls-1" cx="9.59" cy="9.59" r="9.59"/><circle class="cls-2" cx="43" cy="9.59" r="9.59"/><ellipse class="cls-3" cx="26.29" cy="22.1" rx="22.83" ry="18.94"/><path class="cls-4" d="M3.82,25.46C5.73,34.31,15.07,41,26.29,41s20.56-6.73,22.48-15.58Z"/><circle class="cls-5" cx="35.51" cy="19.18" r="5.4"/><circle class="cls-6" cx="34.29" cy="17.76" r="2.18"/><circle class="cls-7" cx="17.08" cy="19.18" r="5.4"/><circle class="cls-8" cx="15.86" cy="17.76" r="2.18"/><path class="cls-9" d="M68.58,25.84h5.29v3.62h-10v-17h4.74Z"/><path class="cls-9" d="M87.82,26.68h-6l-.92,2.78h-5l6.21-17h5.47l6.19,17.05h-5Zm-1.18-3.62L84.8,17.54,83,23.06Z"/><path class="cls-9" d="M112,29.46h-4.74l-6.32-9.53v9.53H96.18v-17h4.73l6.32,9.65V12.41H112Z"/><path class="cls-9" d="M127.45,13.49a7.58,7.58,0,0,1,3.11,3,9,9,0,0,1,1.09,4.43,8.79,8.79,0,0,1-1.1,4.4,7.84,7.84,0,0,1-3.12,3,9.58,9.58,0,0,1-4.68,1.1H116v-17h6.75A9.82,9.82,0,0,1,127.45,13.49Zm-1.8,10.65a4.23,4.23,0,0,0,1.18-3.21,4.33,4.33,0,0,0-1.18-3.26,4.52,4.52,0,0,0-3.27-1.14h-1.64v8.75h1.64A4.52,4.52,0,0,0,125.65,24.14Z"/><path class="cls-9" d="M139.62,12.41V29.46h-4.74v-17Z"/><path class="cls-9" d="M159.43,29.46h-4.74l-6.31-9.53v9.53h-4.74v-17h4.74l6.31,9.65V12.41h4.74Z"/><path class="cls-9" d="M174.15,18A2.81,2.81,0,0,0,173,17a3.71,3.71,0,0,0-1.68-.36,3.57,3.57,0,0,0-2.82,1.16,4.53,4.53,0,0,0-1,3.12,4.66,4.66,0,0,0,1.1,3.35,4.23,4.23,0,0,0,3.21,1.15,3.65,3.65,0,0,0,3.55-2.25H170.6V19.74h8.85v4.6a8.85,8.85,0,0,1-1.63,2.54,8.48,8.48,0,0,1-2.72,1.94,8.82,8.82,0,0,1-3.75.76,9.11,9.11,0,0,1-4.54-1.1,7.55,7.55,0,0,1-3-3.07,9.2,9.2,0,0,1-1.08-4.51,9.17,9.17,0,0,1,1.08-4.48,7.53,7.53,0,0,1,3-3.07,9,9,0,0,1,4.52-1.1,8.73,8.73,0,0,1,5.32,1.54A6.52,6.52,0,0,1,179.25,18Z"/><path class="cls-9" d="M183.57,9.46a1.06,1.06,0,0,1-.14,1.42,1.51,1.51,0,0,1-1,.29h-2v-4h1.92a1.57,1.57,0,0,1,1,.27.93.93,0,0,1,.35.77.91.91,0,0,1-.19.59.92.92,0,0,1-.49.32A1,1,0,0,1,183.57,9.46Zm-2-.71h.57c.28,0,.42-.11.42-.35s-.14-.35-.42-.35h-.57Zm1.07,1.17a.33.33,0,0,0-.11-.28.48.48,0,0,0-.31-.1h-.65v.73h.65C182.49,10.27,182.63,10.15,182.63,9.92Z"/><path class="cls-9" d="M185.84,8.05v.66h1.28v.85h-1.28v.72h1.45v.89h-2.57v-4h2.57v.89Z"/></svg>