<svg width="64" height="64" viewBox="0 0 64 64" fill="none" xmlns="http://www.w3.org/2000/svg">
<g clip-path="url(#clip0_235_4323)">
<path d="M63.9997 5.88963C63.9997 2.64208 61.3577 0 58.1082 0H58.1077C55.0169 0 52.1111 1.20361 49.9261 3.38915L39.4461 13.8691L13.3696 7.73337C8.39547 6.56296 3.1494 8.63278 0.31494 12.8842C0.109863 13.1923 0 13.5541 0 13.9243C0 14.6142 0.378905 15.249 0.986324 15.5756L24.8754 28.4393L13.1484 40.1664H5.88963C2.64208 40.1664 0 42.8084 0 46.0584C0 46.7166 0.345702 47.327 0.910641 47.6658L10.5503 53.45L16.3339 63.0896C16.6728 63.6541 17.2831 63.9998 17.9418 63.9998C19.5165 63.9998 20.996 63.3865 22.1073 62.2742C23.2206 61.1614 23.8334 59.6819 23.8334 58.1082V50.8519L35.5604 39.1244L48.4241 63.0139C48.7513 63.6213 49.386 64.0002 50.0755 64.0002C50.4456 64.0002 50.8074 63.8904 51.1155 63.6848C55.367 60.8508 57.4368 55.6048 56.2669 50.6307L50.1311 24.5541L60.6106 14.0742C62.7961 11.8881 63.9997 8.98239 63.9997 5.88963ZM4.80857 13.3749C6.8613 11.5224 9.74654 10.7334 12.5107 11.3833L36.3275 16.9872L27.6439 25.6708L4.80857 13.3749ZM52.6165 51.4896C53.2669 54.2537 52.4773 57.1389 50.6253 59.1917L38.3289 36.3558L47.0125 27.6723L52.6165 51.4896ZM57.9592 11.4223L20.6327 48.7488C20.2807 49.1009 20.0834 49.5774 20.0834 50.075V58.1082C20.0834 58.68 19.8608 59.2175 19.4555 59.6228C19.2836 59.7947 19.0878 59.9339 18.8754 60.0369L13.5244 51.1185C13.3662 50.8548 13.1455 50.6336 12.8813 50.4754L3.96385 45.1248C4.31053 44.4105 5.04344 43.9168 5.88963 43.9168H13.9252C14.4223 43.9168 14.8994 43.7191 15.2509 43.3675L52.5774 6.0405C54.0545 4.56346 56.0183 3.74999 58.1077 3.74999H58.1101C59.2898 3.74999 60.2498 4.70994 60.2498 5.89158C60.2498 7.98093 59.4363 9.94479 57.9592 11.4223Z" fill="#1E149D"/>
</g>
<defs>
<clipPath id="clip0_235_4323">
<rect width="64" height="64" fill="white"/>
</clipPath>
</defs>
</svg>
