<svg width="405" height="245" viewBox="0 0 405 245" fill="none" xmlns="http://www.w3.org/2000/svg">
<mask id="mask0_235_4340" style="mask-type:alpha" maskUnits="userSpaceOnUse" x="0" y="0" width="405" height="245">
<rect width="405" height="245" fill="#C4C4C4"/>
</mask>
<g mask="url(#mask0_235_4340)">
<path fill-rule="evenodd" clip-rule="evenodd" d="M314 40.4758L114.4 125.569C96.9741 132.998 85.6332 150.05 85.4996 168.965C85.366 150.05 74.0251 132.998 56.5988 125.569L-132.957 44.7581C-157.137 34.449 -183.993 52.1854 -183.993 78.4645L85.4996 193.354L314 95.9406V151.405L114.4 236.499C96.9741 243.927 85.6332 260.979 85.4996 279.894C85.366 260.979 74.0251 243.927 56.5988 236.499L-132.957 155.687C-154.458 146.52 -178.075 159.529 -183.044 181H-184V297H-183.848C-183.944 298.091 -183.993 299.199 -183.993 300.323L85.4996 415.213L313.54 317.995V371.477C313.54 372.68 312.822 373.766 311.716 374.237L114.4 458.357C96.9741 465.786 85.6332 482.837 85.4996 501.752C85.366 482.837 74.0251 465.786 56.5988 458.357L-132.957 377.546C-155.108 368.101 -179.507 382.196 -183.442 404.833H-183.993V520.882C-184.022 521.669 -183.522 522.382 -182.797 522.691L85.4996 637.071L313.532 539.857V594.635C303.453 599.275 301.471 600.292 300.479 600.8C300.337 600.873 300.215 600.936 300.092 600.997C299.363 601.362 298.612 601.682 293.406 603.902L293.388 603.909L293.376 603.914L114.4 680.215C96.9741 687.644 85.6332 704.696 85.4996 723.61C85.366 704.696 74.0251 687.644 56.5988 680.215L-132.957 599.404C-157.137 589.095 -183.993 606.831 -183.993 633.11L85.4996 748L326.091 645.432C342.979 638.231 354.158 621.99 354.947 603.773H354.992V496.014H354.704C354.895 494.287 354.992 492.538 354.992 490.772V466.717L114.4 569.286C96.9741 576.715 85.6332 593.767 85.4996 612.682C85.366 593.767 74.0251 576.715 56.5988 569.286L-142.532 485.823V428.928L85.4996 526.142L326.091 423.573C343.582 416.117 354.951 398.965 355 379.966L354.992 244.858L114.4 347.428C96.9741 354.857 85.6332 371.908 85.4996 390.823C85.366 371.908 74.0251 354.857 56.5988 347.428L-132.957 266.616C-136.28 265.2 -139.653 264.313 -143 263.905V206.87L85.4996 304.284L326.091 201.715C343.619 194.243 354.992 177.033 354.992 157.985V156H355V40H354.992V23L315.116 40H314V40.4758Z" fill="#2D2CB0"/>
</g>
</svg>
