<svg width="40" height="40" viewBox="0 0 40 40" fill="none" xmlns="http://www.w3.org/2000/svg">
<circle cx="20" cy="20" r="20" fill="#FFB7BA"/>
<path d="M27.1395 16.3857C27.1168 16.008 26.8035 15.7136 26.4252 15.7143H23.5681V13.5714C23.5681 11.599 21.9691 10 19.9966 10C18.0242 10 16.4252 11.599 16.4252 13.5714V15.7143H13.568C13.1897 15.7136 12.8764 16.008 12.8538 16.3857L12.2252 27.7357C12.1581 28.9173 13.0616 29.9295 14.2432 29.9966C14.2847 29.9989 14.3264 30.0001 14.368 30H25.6323C26.8158 30.0019 27.7767 29.0441 27.7786 27.8606C27.7787 27.8189 27.7776 27.7773 27.7752 27.7357L27.1395 16.3857ZM17.8538 13.5714C17.8538 12.3879 18.8131 11.4286 19.9966 11.4286C21.1801 11.4286 22.1395 12.3879 22.1395 13.5714V15.7143H17.8538V13.5714Z" fill="#1E149D"/>
</svg>
