<svg width="40" height="40" viewBox="0 0 40 40" fill="none" xmlns="http://www.w3.org/2000/svg">
<circle cx="20" cy="20" r="20" fill="#E4D0FF"/>
<path d="M15.6063 20.6807L18.5664 17.7193L11.2236 10.3837C10.44 11.1699 10 12.2349 10 13.3451C10 14.4554 10.44 15.5204 11.2236 16.3066L15.6063 20.6807V20.6807ZM22.6981 18.7867C24.2984 19.5296 26.5473 19.0064 28.2104 17.3426C30.2082 15.3439 30.5952 12.4766 29.0577 10.9383C27.5305 9.41049 24.6645 9.78721 22.6562 11.7859C20.9931 13.4498 20.4701 15.6996 21.2128 17.3007L11.004 27.514L12.4788 28.9895L19.6856 21.8004L26.882 29L28.3568 27.5245L21.1605 20.3249L22.6981 18.7867V18.7867Z" fill="#1E149D"/>
</svg>
