<svg width="40" height="40" viewBox="0 0 40 40" fill="none" xmlns="http://www.w3.org/2000/svg">
<circle cx="20" cy="20" r="20" fill="#FFE3C1"/>
<g clip-path="url(#clip0_235_4298)">
<path d="M16.4644 14.9998C16.2894 14.9998 16.116 14.9273 15.9919 14.7848C15.766 14.524 15.7935 14.129 16.0544 13.9032C16.1944 13.7815 16.2627 13.629 16.2477 13.4723C16.2327 13.3032 16.1185 13.1457 15.9377 13.0407C15.401 12.7307 15.0627 12.2223 15.0077 11.6457C14.9544 11.0848 15.1794 10.5406 15.626 10.1531C15.8869 9.92565 16.281 9.95315 16.5085 10.2148C16.7344 10.4756 16.7069 10.8706 16.446 11.0965C16.306 11.2181 16.2377 11.3706 16.2527 11.5273C16.2685 11.6965 16.3819 11.854 16.5635 11.959C17.0994 12.269 17.4377 12.7773 17.4927 13.354C17.546 13.9148 17.321 14.459 16.8744 14.8473C16.7552 14.949 16.6102 14.9998 16.4644 14.9998V14.9998Z" fill="#1E149D"/>
<path d="M20.6304 15C20.4554 15 20.2821 14.9275 20.1579 14.785C19.9321 14.5241 19.9596 14.1291 20.2204 13.9033C20.3604 13.7816 20.4287 13.6291 20.4137 13.4725C20.3979 13.3033 20.2846 13.1458 20.1029 13.0408C19.5671 12.7308 19.2287 12.2225 19.1737 11.6458C19.1204 11.085 19.3454 10.5408 19.7921 10.1525C20.0529 9.92578 20.4471 9.95328 20.6737 10.215C20.8996 10.4758 20.8721 10.8708 20.6112 11.0966C20.4712 11.2183 20.4029 11.3708 20.4179 11.5275C20.4337 11.6966 20.5471 11.8541 20.7287 11.9591C21.2646 12.2691 21.6029 12.7775 21.6579 13.3541C21.7112 13.915 21.4862 14.4591 21.0396 14.8475C20.9212 14.9491 20.7762 15 20.6304 15V15Z" fill="#1E149D"/>
<path d="M24.375 30H12.2917C11.0275 30 10 28.9725 10 27.7083V26.875C10 26.53 10.28 26.25 10.625 26.25H26.0417C26.3867 26.25 26.6667 26.53 26.6667 26.875V27.7083C26.6667 28.9725 25.6392 30 24.375 30Z" fill="#1E149D"/>
<path d="M13.1597 25.4167H23.5155C23.9714 24.9825 24.3747 24.49 24.7114 23.9442C24.733 23.9183 24.7522 23.8908 24.7697 23.8617C25.4655 22.6958 25.833 21.36 25.833 20V16.875C25.833 16.53 25.553 16.25 25.208 16.25H11.458C11.113 16.25 10.833 16.53 10.833 16.875V20C10.833 22.1292 11.7297 24.05 13.1597 25.4167Z" fill="#1E149D"/>
<path d="M26.6669 17.708V19.3747C27.5861 19.3747 28.3336 20.1222 28.3336 21.0413C28.3336 21.4913 28.1619 21.9072 27.8394 22.2238C27.5327 22.5363 27.1169 22.708 26.6669 22.708H26.1977C26.0102 23.2547 25.7844 23.7888 25.4861 24.288C25.4686 24.318 25.4477 24.3455 25.4277 24.3747H26.6669C27.5677 24.3747 28.4052 24.0255 29.0177 23.4022C29.6511 22.7797 30.0002 21.9422 30.0002 21.0413C30.0002 19.203 28.5052 17.708 26.6669 17.708V17.708Z" fill="#1E149D"/>
</g>
<defs>
<clipPath id="clip0_235_4298">
<rect width="20" height="20" fill="white" transform="translate(10 10)"/>
</clipPath>
</defs>
</svg>
