<svg width="64" height="64" viewBox="0 0 64 64" fill="none" xmlns="http://www.w3.org/2000/svg">
<circle cx="32" cy="32" r="32" fill="#E4D0FF"/>
<path d="M24.9701 33.0892L29.7063 28.3509L17.9578 16.6139C16.7041 17.8718 16 19.5758 16 21.3522C16 23.1286 16.7041 24.8326 17.9578 26.0905L24.9701 33.0892V33.0892ZM36.3169 30.0587C38.8775 31.2474 42.4757 30.4103 45.1366 27.7481C48.3332 24.5502 48.9524 19.9625 46.4922 17.5013C44.0488 15.0568 39.4632 15.6595 36.25 18.8575C33.589 21.5196 32.7522 25.1194 33.9404 27.6811L17.6064 44.0225L19.9661 46.3833L31.497 34.8807L43.0112 46.4L45.3709 44.0392L33.8568 32.5199L36.3169 30.0587V30.0587Z" fill="#1E149D"/>
</svg>
