<svg width="64" height="64" viewBox="0 0 64 64" fill="none" xmlns="http://www.w3.org/2000/svg">
<circle cx="32" cy="32" r="32" fill="#FFB7BA"/>
<path d="M43.4232 26.2171C43.3869 25.6129 42.8857 25.1418 42.2803 25.1429H37.7089V21.7143C37.7089 18.5584 35.1505 16 31.9946 16C28.8387 16 26.2803 18.5584 26.2803 21.7143V25.1429H21.7089C21.1035 25.1418 20.6023 25.6129 20.566 26.2171L19.5603 44.3771C19.453 46.2676 20.8986 47.8872 22.7891 47.9945C22.8556 47.9983 22.9222 48.0001 22.9889 48H41.0117C42.9053 48.0031 44.4427 46.4705 44.4458 44.5769C44.446 44.5103 44.4441 44.4436 44.4403 44.3771L43.4232 26.2171ZM28.566 21.7143C28.566 19.8207 30.101 18.2857 31.9946 18.2857C33.8882 18.2857 35.4232 19.8207 35.4232 21.7143V25.1429H28.566V21.7143Z" fill="#1E149D"/>
</svg>
