<svg width="64" height="64" viewBox="0 0 64 64" fill="none" xmlns="http://www.w3.org/2000/svg">
<path d="M62.125 51.2797H55.0508C55.2588 50.6976 55.3721 50.0714 55.3721 49.4195V47.5591H62.1193C63.1548 47.5591 63.9943 46.7263 63.9943 45.699V41.6578C63.9943 37.1114 62.7341 32.6348 60.2489 28.3526C57.9727 24.4305 54.7826 20.8506 50.7671 17.7123C42.9859 11.6307 32.9118 8 23.8188 8H1.875C0.8395 8 0 8.83285 0 9.86016V45.699C0 46.7263 0.8395 47.5591 1.875 47.5591H36.6221V49.4195C36.6221 50.0714 36.7354 50.6976 36.9435 51.2797H1.875C0.8395 51.2797 0 52.1125 0 53.1398C0 54.1671 0.8395 55 1.875 55H62.125C63.1605 55 64 54.1671 64 53.1398C64 52.1125 63.1605 51.2797 62.125 51.2797ZM51.6221 49.4195C51.6221 50.4452 50.781 51.2797 49.7471 51.2797C48.7132 51.2797 47.8721 50.4452 47.8721 49.4195V47.5591H51.6221V49.4195ZM56.999 30.2089C57.4914 31.0573 57.9281 31.9131 58.3092 32.775H43.7844C38.6501 32.775 34.367 29.0897 33.4806 24.2459H52.4536C54.262 26.1295 55.7999 28.1427 56.999 30.2089V30.2089ZM23.8188 11.7203C32.0439 11.7203 41.1843 15.0093 48.3063 20.5256H31.4375C30.402 20.5256 29.5625 21.3584 29.5625 22.3857C29.5625 30.1658 35.9424 36.4953 43.7844 36.4953H59.5973C60.0276 38.203 60.2443 39.9269 60.2443 41.6578V43.8388H24.2437V22.3857C24.2437 21.3584 23.4042 20.5256 22.3687 20.5256H3.75V11.7203H23.8188ZM3.75 24.2459H9.8345V32.1822H3.75V24.2459ZM3.75 35.9025H9.8345V43.8388H3.75V35.9025ZM13.5845 43.8388V24.2459H20.4937V43.8388H13.5845ZM40.3721 49.4195V47.5591H44.1221V49.4195C44.1221 50.4452 43.281 51.2797 42.2471 51.2797C41.2132 51.2797 40.3721 50.4452 40.3721 49.4195Z" fill="#1E149D"/>
</svg>
