<svg width="79" height="92" viewBox="0 0 79 92" fill="none" xmlns="http://www.w3.org/2000/svg">
<path d="M0.601225 42.1288L18.6817 23.4479C19.7937 22.3359 20.6833 21.3129 21.3504 20.3789C22.0176 19.4448 22.5069 18.5775 22.8182 17.7769C23.1296 16.9318 23.2852 16.0867 23.2852 15.2416C23.2852 13.418 22.6848 11.9947 21.4839 10.9717C20.3274 9.90419 18.7929 9.37045 16.8803 9.37045C15.0122 9.37045 13.3221 9.88195 11.8098 10.905C10.342 11.8835 8.9187 13.5069 7.53987 15.7753L0.534507 9.70404C2.4026 6.54606 4.7822 4.16646 7.6733 2.56524C10.5644 0.964017 13.878 0.163405 17.6142 0.163405C20.8612 0.163405 23.6633 0.763863 26.0207 1.96478C28.4225 3.1657 30.2684 4.87812 31.5582 7.10204C32.8926 9.32597 33.5598 11.928 33.5598 14.908C33.5598 16.7761 33.3151 18.5108 32.8259 20.112C32.3366 21.6687 31.536 23.2255 30.424 24.7822C29.3566 26.2945 27.911 27.9624 26.0874 29.7861L13.5445 42.2623L0.601225 42.1288ZM0.601225 48V42.1288L9.47468 39.0598H34.4938V48H0.601225ZM58.9427 48.7339C55.1621 48.7339 51.7372 47.7109 48.6682 45.6649C45.5992 43.6189 43.1751 40.7722 41.396 37.125C39.6613 33.4333 38.794 29.1856 38.794 24.3819C38.794 19.5338 39.6613 15.3083 41.396 11.7056C43.1306 8.05833 45.5102 5.23395 48.5348 3.23242C51.5593 1.18641 54.9841 0.163405 58.8093 0.163405C62.6789 0.163405 66.126 1.18641 69.1505 3.23242C72.1751 5.23395 74.5547 8.05833 76.2893 11.7056C78.0685 15.3528 78.958 19.6005 78.958 24.4486C78.958 29.2968 78.0685 33.5445 76.2893 37.1917C74.5547 40.839 72.1751 43.6856 69.1505 45.7316C66.1705 47.7331 62.7679 48.7339 58.9427 48.7339ZM58.876 39.4601C60.8331 39.4601 62.5232 38.9042 63.9466 37.7922C65.3699 36.6358 66.4596 34.9456 67.2157 32.7216C68.0163 30.4532 68.4166 27.6956 68.4166 24.4486C68.4166 21.1572 68.0163 18.3996 67.2157 16.1757C66.4596 13.9517 65.3699 12.2838 63.9466 11.1718C62.5232 10.0154 60.8108 9.43717 58.8093 9.43717C56.8967 9.43717 55.2065 9.99315 53.7387 11.1051C52.3154 12.2171 51.2257 13.885 50.4696 16.1089C49.7134 18.3329 49.3354 21.0905 49.3354 24.3819C49.3354 27.6733 49.7134 30.431 50.4696 32.6549C51.2257 34.8789 52.3154 36.569 53.7387 37.7255C55.2065 38.8819 56.919 39.4601 58.876 39.4601Z" fill="white"/>
<path d="M0.601225 86.1288L18.6817 67.4479C19.7937 66.3359 20.6833 65.3129 21.3504 64.3789C22.0176 63.4448 22.5069 62.5775 22.8182 61.7769C23.1296 60.9318 23.2852 60.0867 23.2852 59.2416C23.2852 57.418 22.6848 55.9947 21.4839 54.9717C20.3274 53.9042 18.7929 53.3704 16.8803 53.3704C15.0122 53.3704 13.3221 53.8819 11.8098 54.905C10.342 55.8835 8.9187 57.5069 7.53987 59.7753L0.534507 53.704C2.4026 50.5461 4.7822 48.1665 7.6733 46.5652C10.5644 44.964 13.878 44.1634 17.6142 44.1634C20.8612 44.1634 23.6633 44.7639 26.0207 45.9648C28.4225 47.1657 30.2684 48.8781 31.5582 51.102C32.8926 53.326 33.5598 55.928 33.5598 58.908C33.5598 60.7761 33.3151 62.5108 32.8259 64.112C32.3366 65.6687 31.536 67.2255 30.424 68.7822C29.3566 70.2945 27.911 71.9624 26.0874 73.7861L13.5445 86.2623L0.601225 86.1288ZM0.601225 92V86.1288L9.47468 83.0598H34.4938V92H0.601225ZM38.2602 86.1288L56.3407 67.4479C57.4527 66.3359 58.3423 65.3129 59.0094 64.3789C59.6766 63.4448 60.1659 62.5775 60.4772 61.7769C60.7886 60.9318 60.9443 60.0867 60.9443 59.2416C60.9443 57.418 60.3438 55.9947 59.1429 54.9717C57.9864 53.9042 56.4519 53.3704 54.5394 53.3704C52.6713 53.3704 50.9811 53.8819 49.4688 54.905C48.001 55.8835 46.5777 57.5069 45.1989 59.7753L38.1935 53.704C40.0616 50.5461 42.4412 48.1665 45.3323 46.5652C48.2234 44.964 51.5371 44.1634 55.2733 44.1634C58.5202 44.1634 61.3223 44.7639 63.6797 45.9648C66.0815 47.1657 67.9274 48.8781 69.2173 51.102C70.5516 53.326 71.2188 55.928 71.2188 58.908C71.2188 60.7761 70.9742 62.5108 70.4849 64.112C69.9956 65.6687 69.195 67.2255 68.0831 68.7822C67.0156 70.2945 65.57 71.9624 63.7464 73.7861L51.2035 86.2623L38.2602 86.1288ZM38.2602 92V86.1288L47.1337 83.0598H72.1528V92H38.2602Z" fill="#67E4EF"/>
</svg>
