<svg width="120" height="120" viewBox="0 0 120 120" fill="none" xmlns="http://www.w3.org/2000/svg">
<path fill-rule="evenodd" clip-rule="evenodd" d="M76.2764 35.2889L61.7566 41.4812C60.486 42.023 59.6591 43.2667 59.6494 44.6463C59.6396 43.2667 58.8127 42.023 57.5421 41.4812L43.7212 35.587C41.9582 34.8351 40.0001 36.1287 40.0001 38.0454L59.6494 46.4252L76.2764 39.3343V43.3798L61.7566 49.5721C60.486 50.1139 59.6591 51.3576 59.6494 52.7372C59.6396 51.3576 58.8127 50.1139 57.5421 49.5721L43.7212 43.6779C42.153 43.009 40.4303 43.9588 40.0689 45.5259H40.0009V46.0694C40.0004 46.0917 40.0001 46.114 40.0001 46.1364L40.0009 46.1367V53.9902H40.0102C40.0035 54.0681 40.0001 54.1472 40.0001 54.2273L59.6494 62.6071L76.2763 55.5163V57.5797C76.2763 58.7817 75.5588 59.8677 74.4531 60.3392L61.7566 65.7539C60.486 66.2958 59.6591 67.5395 59.6494 68.9191C59.6396 67.5395 58.8127 66.2958 57.5421 65.7539L43.7212 59.8597C42.1061 59.1709 40.3272 60.1989 40.0402 61.85H40.0001V70.3143C39.9979 70.3718 40.0344 70.4238 40.0873 70.4463L59.6494 78.7889L76.2757 71.6983V75.6937C75.5408 76.0321 75.3963 76.1063 75.324 76.1434L75.2958 76.1578C75.2425 76.1844 75.1876 76.2078 74.8061 76.3705L61.7566 81.9357C60.486 82.4776 59.6591 83.7213 59.6494 85.1009C59.6396 83.7213 58.8127 82.4776 57.5421 81.9357L43.7212 76.0415C41.9582 75.2896 40.0001 76.5833 40.0001 78.5L59.6494 86.8798L77.1914 79.3987C78.4227 78.8735 79.2378 77.6889 79.2954 76.3603H79.2986V68.5005H79.2777C79.2915 68.3746 79.2986 68.247 79.2986 68.1182V66.3637L61.7566 73.8449C60.486 74.3867 59.6591 75.6304 59.6494 77.01C59.6396 75.6304 58.8127 74.3867 57.5421 73.8449L43.0231 67.7572V63.6074L59.6494 70.698L77.1914 63.2169C78.4667 62.673 79.2957 61.422 79.2992 60.0362L79.2986 50.1818L61.7566 57.663C60.486 58.2048 59.6591 59.4486 59.6494 60.8281C59.6396 59.4486 58.8127 58.2048 57.5421 57.663L43.7212 51.7688C43.4905 51.6704 43.2564 51.607 43.0239 51.5755V47.4259L59.6494 54.5162L77.1914 47.0351C78.4694 46.49 79.2986 45.2348 79.2986 43.8455V43.7119H79.2994V35.2476H79.2986V34L76.3731 35.2476H76.2764V35.2889Z" fill="#3AE3D2"/>
<circle cx="60" cy="60" r="57.5" stroke="#DEE0FA"/>
</svg>
