<svg width="151" height="60" viewBox="0 0 151 60" fill="none" xmlns="http://www.w3.org/2000/svg">
<path fill-rule="evenodd" clip-rule="evenodd" d="M42 1.26753L24.9129 8.48851C23.458 9.10329 22.5111 10.5145 22.5 12.0798C22.4888 10.5145 21.542 9.10329 20.0871 8.48851L4.26149 1.80067C2.24276 0.947501 0.000600945 2.41534 0.000600945 4.59016L22.5 14.0983L42 5.85772V10.4479L24.9129 17.6689C23.458 18.2837 22.5111 19.6948 22.5 21.2602C22.4888 19.6948 21.542 18.2837 20.0871 17.6689L4.26149 10.981C2.49212 10.2332 0.551104 11.2685 0.0985845 13H0V23H0.11684L22.5 32.459L41.5386 24.4134V27.0145C41.5386 28.2201 40.8169 29.3086 39.7064 29.7779L24.9129 36.0296C23.458 36.6443 22.5111 38.0555 22.5 39.6209C22.4888 38.0555 21.542 36.6443 20.0871 36.0296L4.26149 29.3417C2.41212 28.5601 0.37514 29.7265 0.0465732 31.6H0.000600945V41.204C-0.00187009 41.2692 0.0396329 41.3281 0.0996925 41.3534L22.5 50.8197L41.5379 42.7744V47.3077C40.6967 47.6916 40.5311 47.7758 40.4483 47.8179L40.4482 47.8179L40.4159 47.8343C40.3549 47.8645 40.2921 47.891 39.8552 48.0757L24.9129 54.3902C23.458 55.005 22.5111 56.4162 22.5 57.9815C22.4888 56.4162 21.542 55.005 20.0871 54.3902L4.26149 47.7024C2.24276 46.8492 0.000600945 48.3171 0.000600945 50.4919L22.5 60L42.5865 51.5116C43.9964 50.9157 44.9297 49.5715 44.9957 48.064H44.9994V39.146H44.9754C44.9913 39.0031 44.9994 38.8583 44.9994 38.7122V36.7214L24.9129 45.2099C23.458 45.8247 22.5111 47.2359 22.5 48.8012C22.4888 47.2359 21.542 45.8247 20.0871 45.2099L3.46204 38.3026V33.594L22.5 41.6394L42.5865 33.1509C44.0468 32.5338 44.996 31.1144 45 29.542L44.9994 18.3607L24.9129 26.8492C23.458 27.464 22.5111 28.8752 22.5 30.4405C22.4888 28.8752 21.542 27.464 20.0871 26.8492L4.26149 20.1614C3.84328 19.9846 3.41547 19.9075 3 19.9156V15.038L22.5 23.2786L42.5865 14.7902C44.0498 14.1718 44.9994 12.7476 44.9994 11.1711V11H45V1H44.9994V0L42.6331 1H42V1.26753Z" fill="#3AE3D2"/>
<path d="M67.2008 26.0421V24.0876H72.1558C73.0996 24.0876 73.8389 23.8095 74.3737 23.2533C74.9085 22.6813 75.1759 21.998 75.1759 21.2034C75.1759 20.6632 75.058 20.1785 74.822 19.7494C74.5861 19.3045 74.24 18.9549 73.7838 18.7007C73.3434 18.4464 72.8243 18.3193 72.2265 18.3193H67.2008V16.3647H71.8962C72.6827 16.3647 73.3041 16.1582 73.7602 15.745C74.2321 15.316 74.4681 14.7042 74.4681 13.9096C74.4681 13.1151 74.2243 12.5113 73.7366 12.0981C73.249 11.6691 72.6041 11.4545 71.8018 11.4545H67.2008V9.5H71.849C72.9187 9.5 73.8074 9.69863 74.5153 10.0959C75.2389 10.4773 75.7816 10.9858 76.1434 11.6214C76.5209 12.257 76.7096 12.9562 76.7096 13.719C76.7096 14.6088 76.4658 15.3875 75.9782 16.0549C75.5063 16.7223 74.8063 17.2467 73.8782 17.628L74.067 16.913C75.1209 17.2943 75.9389 17.8744 76.5209 18.653C77.1186 19.4157 77.4175 20.3215 77.4175 21.3703C77.4175 22.2443 77.2051 23.0309 76.7804 23.73C76.3557 24.4292 75.7422 24.9933 74.94 25.4224C74.1535 25.8355 73.1861 26.0421 72.0378 26.0421H67.2008ZM65.7143 26.0421V9.5H67.9322V26.0421H65.7143Z" fill="white"/>
<path d="M84.568 26.2805C83.6399 26.2805 82.8062 26.0739 82.0669 25.6608C81.3433 25.2317 80.777 24.6438 80.368 23.8969C79.959 23.15 79.7545 22.284 79.7545 21.2988V14.7201H81.8781V21.2034C81.8781 21.8232 81.9803 22.3635 82.1848 22.8243C82.4051 23.2692 82.7197 23.6109 83.1286 23.8492C83.5376 24.0876 84.0174 24.2068 84.568 24.2068C85.4017 24.2068 86.0545 23.9446 86.5264 23.4202C86.9983 22.8799 87.2342 22.141 87.2342 21.2034V14.7201H89.3578V21.2988C89.3578 22.284 89.1533 23.15 88.7443 23.8969C88.3353 24.6438 87.769 25.2317 87.0455 25.6608C86.3376 26.0739 85.5118 26.2805 84.568 26.2805Z" fill="white"/>
<path d="M95.7668 26.2805C95.1376 26.2805 94.5399 26.201 93.9736 26.0421C93.423 25.8673 92.9118 25.629 92.4399 25.3271C91.968 25.0092 91.559 24.6358 91.213 24.2068L92.5815 22.8243C92.9905 23.3328 93.4624 23.7142 93.9972 23.9684C94.532 24.2068 95.1298 24.3259 95.7904 24.3259C96.4511 24.3259 96.9623 24.2147 97.3241 23.9922C97.6859 23.7539 97.8668 23.4281 97.8668 23.015C97.8668 22.6018 97.7174 22.284 97.4185 22.0615C97.1354 21.8232 96.7657 21.6325 96.3095 21.4895C95.8534 21.3306 95.3657 21.1796 94.8466 21.0366C94.3433 20.8777 93.8635 20.679 93.4073 20.4407C92.9511 20.2023 92.5736 19.8766 92.2747 19.4634C91.9916 19.0503 91.85 18.502 91.85 17.8187C91.85 17.1354 92.0152 16.5475 92.3455 16.0549C92.6759 15.5464 93.132 15.1571 93.7141 14.8869C94.3118 14.6168 95.0275 14.4817 95.8612 14.4817C96.7421 14.4817 97.5208 14.6406 98.1971 14.9584C98.8893 15.2603 99.4556 15.7212 99.896 16.3409L98.5275 17.7234C98.2129 17.3102 97.8196 16.9924 97.3477 16.77C96.8915 16.5475 96.3724 16.4363 95.7904 16.4363C95.177 16.4363 94.7051 16.5475 94.3747 16.77C94.0601 16.9765 93.9028 17.2705 93.9028 17.6519C93.9028 18.0333 94.0444 18.3272 94.3275 18.5338C94.6107 18.7404 94.9803 18.9152 95.4365 19.0582C95.9084 19.2012 96.396 19.3522 96.8994 19.5111C97.4028 19.6541 97.8825 19.8527 98.3387 20.107C98.7949 20.3612 99.1646 20.7029 99.4477 21.1319C99.7466 21.561 99.896 22.1251 99.896 22.8243C99.896 23.8889 99.5185 24.7312 98.7634 25.3509C98.0241 25.9706 97.0253 26.2805 95.7668 26.2805Z" fill="white"/>
<path d="M102.297 26.0421V14.7201H104.421V26.0421H102.297ZM103.359 12.4557C102.966 12.4557 102.643 12.3285 102.391 12.0743C102.14 11.8041 102.014 11.4704 102.014 11.0732C102.014 10.6918 102.14 10.374 102.391 10.1197C102.643 9.84959 102.966 9.71452 103.359 9.71452C103.752 9.71452 104.075 9.84959 104.326 10.1197C104.578 10.374 104.704 10.6918 104.704 11.0732C104.704 11.4704 104.578 11.8041 104.326 12.0743C104.075 12.3285 103.752 12.4557 103.359 12.4557Z" fill="white"/>
<path d="M115.478 26.0421V19.4396C115.478 18.5815 115.211 17.8744 114.676 17.3182C114.141 16.762 113.449 16.4839 112.599 16.4839C112.033 16.4839 111.53 16.611 111.089 16.8653C110.649 17.1195 110.303 17.4691 110.051 17.9141C109.799 18.359 109.674 18.8675 109.674 19.4396L108.801 18.939C108.801 18.0809 108.989 17.3182 109.367 16.6508C109.744 15.9834 110.271 15.459 110.948 15.0776C111.624 14.6803 112.387 14.4817 113.237 14.4817C114.086 14.4817 114.833 14.6962 115.478 15.1253C116.139 15.5543 116.658 16.1184 117.035 16.8176C117.413 17.5009 117.602 18.2319 117.602 19.0105V26.0421H115.478ZM107.55 26.0421V14.7201H109.674V26.0421H107.55Z" fill="white"/>
<path d="M125.668 26.2805C124.551 26.2805 123.544 26.0262 122.648 25.5177C121.751 24.9933 121.043 24.2862 120.524 23.3963C120.005 22.5065 119.745 21.4974 119.745 20.3692C119.745 19.2568 119.997 18.2557 120.5 17.3659C121.019 16.476 121.712 15.7768 122.577 15.2683C123.458 14.7439 124.441 14.4817 125.526 14.4817C126.564 14.4817 127.477 14.7201 128.263 15.1968C129.065 15.6735 129.687 16.333 130.127 17.1752C130.583 18.0174 130.811 18.9708 130.811 20.0355C130.811 20.1944 130.804 20.3692 130.788 20.5599C130.772 20.7347 130.741 20.9412 130.693 21.1796H121.232V19.3919H129.561L128.782 20.0831C128.782 19.3204 128.649 18.6768 128.381 18.1524C128.114 17.6122 127.736 17.199 127.249 16.913C126.761 16.611 126.171 16.4601 125.479 16.4601C124.755 16.4601 124.118 16.619 123.568 16.9368C123.017 17.2546 122.592 17.6996 122.294 18.2716C121.995 18.8437 121.845 19.519 121.845 20.2977C121.845 21.0922 122.003 21.7914 122.317 22.3952C122.632 22.9832 123.08 23.444 123.662 23.7777C124.244 24.0955 124.913 24.2544 125.668 24.2544C126.297 24.2544 126.871 24.1432 127.39 23.9207C127.925 23.6983 128.381 23.3646 128.759 22.9196L130.127 24.3259C129.592 24.9616 128.932 25.4462 128.145 25.7799C127.374 26.1136 126.549 26.2805 125.668 26.2805Z" fill="white"/>
<path d="M136.69 26.2805C136.061 26.2805 135.463 26.201 134.897 26.0421C134.346 25.8673 133.835 25.629 133.363 25.3271C132.891 25.0092 132.482 24.6358 132.136 24.2068L133.504 22.8243C133.913 23.3328 134.385 23.7142 134.92 23.9684C135.455 24.2068 136.053 24.3259 136.713 24.3259C137.374 24.3259 137.885 24.2147 138.247 23.9922C138.609 23.7539 138.79 23.4281 138.79 23.015C138.79 22.6018 138.64 22.284 138.341 22.0615C138.058 21.8232 137.689 21.6325 137.233 21.4895C136.776 21.3306 136.289 21.1796 135.77 21.0366C135.266 20.8777 134.786 20.679 134.33 20.4407C133.874 20.2023 133.497 19.8766 133.198 19.4634C132.915 19.0503 132.773 18.502 132.773 17.8187C132.773 17.1354 132.938 16.5475 133.269 16.0549C133.599 15.5464 134.055 15.1571 134.637 14.8869C135.235 14.6168 135.95 14.4817 136.784 14.4817C137.665 14.4817 138.444 14.6406 139.12 14.9584C139.812 15.2603 140.379 15.7212 140.819 16.3409L139.45 17.7234C139.136 17.3102 138.743 16.9924 138.271 16.77C137.815 16.5475 137.295 16.4363 136.713 16.4363C136.1 16.4363 135.628 16.5475 135.298 16.77C134.983 16.9765 134.826 17.2705 134.826 17.6519C134.826 18.0333 134.967 18.3272 135.251 18.5338C135.534 18.7404 135.903 18.9152 136.359 19.0582C136.831 19.2012 137.319 19.3522 137.822 19.5111C138.326 19.6541 138.806 19.8527 139.262 20.107C139.718 20.3612 140.088 20.7029 140.371 21.1319C140.67 21.561 140.819 22.1251 140.819 22.8243C140.819 23.8889 140.441 24.7312 139.686 25.3509C138.947 25.9706 137.948 26.2805 136.69 26.2805Z" fill="white"/>
<path d="M146.759 26.2805C146.13 26.2805 145.532 26.201 144.966 26.0421C144.415 25.8673 143.904 25.629 143.432 25.3271C142.96 25.0092 142.551 24.6358 142.205 24.2068L143.574 22.8243C143.983 23.3328 144.455 23.7142 144.99 23.9684C145.524 24.2068 146.122 24.3259 146.783 24.3259C147.444 24.3259 147.955 24.2147 148.317 23.9922C148.678 23.7539 148.859 23.4281 148.859 23.015C148.859 22.6018 148.71 22.284 148.411 22.0615C148.128 21.8232 147.758 21.6325 147.302 21.4895C146.846 21.3306 146.358 21.1796 145.839 21.0366C145.336 20.8777 144.856 20.679 144.4 20.4407C143.944 20.2023 143.566 19.8766 143.267 19.4634C142.984 19.0503 142.842 18.502 142.842 17.8187C142.842 17.1354 143.008 16.5475 143.338 16.0549C143.668 15.5464 144.124 15.1571 144.706 14.8869C145.304 14.6168 146.02 14.4817 146.854 14.4817C147.735 14.4817 148.513 14.6406 149.19 14.9584C149.882 15.2603 150.448 15.7212 150.888 16.3409L149.52 17.7234C149.205 17.3102 148.812 16.9924 148.34 16.77C147.884 16.5475 147.365 16.4363 146.783 16.4363C146.169 16.4363 145.697 16.5475 145.367 16.77C145.053 16.9765 144.895 17.2705 144.895 17.6519C144.895 18.0333 145.037 18.3272 145.32 18.5338C145.603 18.7404 145.973 18.9152 146.429 19.0582C146.901 19.2012 147.388 19.3522 147.892 19.5111C148.395 19.6541 148.875 19.8527 149.331 20.107C149.787 20.3612 150.157 20.7029 150.44 21.1319C150.739 21.561 150.888 22.1251 150.888 22.8243C150.888 23.8889 150.511 24.7312 149.756 25.3509C149.017 25.9706 148.018 26.2805 146.759 26.2805Z" fill="white"/>
<path d="M73.1468 50.5C71.967 50.5 70.8738 50.2855 69.867 49.8564C68.8603 49.4115 67.9794 48.7997 67.2244 48.0211C66.485 47.2424 65.9109 46.3367 65.5019 45.3038C65.0929 44.2709 64.8884 43.1665 64.8884 41.9906C64.8884 40.7988 65.0929 39.6864 65.5019 38.6535C65.9109 37.6207 66.485 36.7228 67.2244 35.9601C67.9794 35.1814 68.8524 34.5776 69.8434 34.1486C70.8502 33.7036 71.9434 33.4812 73.1232 33.4812C74.413 33.4812 75.5456 33.7036 76.5209 34.1486C77.4961 34.5935 78.3613 35.1973 79.1164 35.9601L77.5827 37.5094C77.0636 36.9215 76.4265 36.4606 75.6714 36.1269C74.9321 35.7932 74.0827 35.6264 73.1232 35.6264C72.258 35.6264 71.4636 35.7853 70.74 36.1031C70.0165 36.405 69.3873 36.842 68.8524 37.4141C68.3176 37.9861 67.9008 38.6615 67.6019 39.4401C67.3187 40.2188 67.1772 41.0689 67.1772 41.9906C67.1772 42.9122 67.3187 43.7624 67.6019 44.541C67.9008 45.3197 68.3176 45.995 68.8524 46.5671C69.3873 47.1391 70.0165 47.5841 70.74 47.9019C71.4636 48.2038 72.258 48.3548 73.1232 48.3548C74.1456 48.3548 75.0344 48.1879 75.7894 47.8542C76.5445 47.5046 77.1815 47.0358 77.7006 46.4479L79.2343 47.9734C78.4793 48.7679 77.5905 49.3877 76.5681 49.8326C75.5613 50.2775 74.4209 50.5 73.1468 50.5Z" fill="white"/>
<path d="M86.4038 50.5C85.2869 50.5 84.2802 50.2458 83.3836 49.7373C82.487 49.2129 81.7791 48.5057 81.26 47.6159C80.7409 46.726 80.4814 45.7169 80.4814 44.5887C80.4814 43.4763 80.7331 42.4752 81.2364 41.5854C81.7555 40.6955 82.4476 39.9963 83.3128 39.4878C84.1937 38.9634 85.1768 38.7012 86.2622 38.7012C87.3004 38.7012 88.2127 38.9396 88.9992 39.4163C89.8015 39.893 90.4228 40.5525 90.8633 41.3947C91.3194 42.2369 91.5475 43.1903 91.5475 44.255C91.5475 44.4139 91.5397 44.5887 91.5239 44.7794C91.5082 44.9542 91.4767 45.1607 91.4296 45.3991H81.9679V43.6114H90.297L89.5183 44.3027C89.5183 43.5399 89.3846 42.8963 89.1172 42.372C88.8498 41.8317 88.4723 41.4185 87.9847 41.1325C87.497 40.8306 86.9071 40.6796 86.215 40.6796C85.4914 40.6796 84.8544 40.8385 84.3038 41.1563C83.7532 41.4741 83.3285 41.9191 83.0297 42.4911C82.7308 43.0632 82.5813 43.7385 82.5813 44.5172C82.5813 45.3117 82.7386 46.0109 83.0533 46.6147C83.3679 47.2027 83.8162 47.6635 84.3982 47.9972C84.9802 48.315 85.6487 48.4739 86.4038 48.4739C87.033 48.4739 87.6071 48.3627 88.1262 48.1402C88.661 47.9178 89.1172 47.5841 89.4947 47.1391L90.8633 48.5455C90.3284 49.1811 89.6678 49.6657 88.8813 49.9994C88.1105 50.3331 87.2847 50.5 86.4038 50.5Z" fill="white"/>
<path d="M101.791 50.2616V43.6591C101.791 42.801 101.524 42.0939 100.989 41.5377C100.454 40.9815 99.7618 40.7034 98.9124 40.7034C98.3461 40.7034 97.8427 40.8306 97.4023 41.0848C96.9618 41.3391 96.6158 41.6887 96.3641 42.1336C96.1124 42.5785 95.9866 43.087 95.9866 43.6591L95.1135 43.1585C95.1135 42.3004 95.3023 41.5377 95.6798 40.8703C96.0574 40.2029 96.5843 39.6785 97.2607 39.2971C97.9371 38.8998 98.7 38.7012 99.5494 38.7012C100.399 38.7012 101.146 38.9157 101.791 39.3448C102.452 39.7738 102.971 40.3379 103.348 41.0371C103.726 41.7204 103.915 42.4514 103.915 43.23V50.2616H101.791ZM93.863 50.2616V38.9396H95.9866V50.2616H93.863Z" fill="white"/>
<path d="M108.374 50.2616V34.1962H110.497V50.2616H108.374ZM105.613 40.8941V38.9396H113.258V40.8941H105.613Z" fill="white"/>
<path d="M120.184 50.5C119.067 50.5 118.06 50.2458 117.163 49.7373C116.267 49.2129 115.559 48.5057 115.04 47.6159C114.521 46.726 114.261 45.7169 114.261 44.5887C114.261 43.4763 114.513 42.4752 115.016 41.5854C115.535 40.6955 116.228 39.9963 117.093 39.4878C117.974 38.9634 118.957 38.7012 120.042 38.7012C121.08 38.7012 121.993 38.9396 122.779 39.4163C123.581 39.893 124.203 40.5525 124.643 41.3947C125.099 42.2369 125.327 43.1903 125.327 44.255C125.327 44.4139 125.32 44.5887 125.304 44.7794C125.288 44.9542 125.257 45.1607 125.209 45.3991H115.748V43.6114H124.077L123.298 44.3027C123.298 43.5399 123.165 42.8963 122.897 42.372C122.63 41.8317 122.252 41.4185 121.765 41.1325C121.277 40.8306 120.687 40.6796 119.995 40.6796C119.271 40.6796 118.634 40.8385 118.084 41.1563C117.533 41.4741 117.108 41.9191 116.81 42.4911C116.511 43.0632 116.361 43.7385 116.361 44.5172C116.361 45.3117 116.519 46.0109 116.833 46.6147C117.148 47.2027 117.596 47.6635 118.178 47.9972C118.76 48.315 119.429 48.4739 120.184 48.4739C120.813 48.4739 121.387 48.3627 121.906 48.1402C122.441 47.9178 122.897 47.5841 123.275 47.1391L124.643 48.5455C124.108 49.1811 123.448 49.6657 122.661 49.9994C121.89 50.3331 121.065 50.5 120.184 50.5Z" fill="white"/>
<path d="M127.643 50.2616V38.9396H129.766V50.2616H127.643ZM129.766 43.8021L128.964 43.4446C128.964 41.9985 129.295 40.8464 129.955 39.9884C130.616 39.1303 131.568 38.7012 132.81 38.7012C133.377 38.7012 133.888 38.8045 134.344 39.0111C134.8 39.2018 135.225 39.5275 135.618 39.9884L134.226 41.4423C133.99 41.1881 133.73 41.0054 133.447 40.8941C133.164 40.7829 132.834 40.7273 132.456 40.7273C131.67 40.7273 131.025 40.9815 130.522 41.49C130.018 41.9985 129.766 42.7692 129.766 43.8021Z" fill="white"/>
</svg>
