<svg width="100" height="100" viewBox="0 0 100 100" fill="none" xmlns="http://www.w3.org/2000/svg">
<path d="M50.1146 31.9996C49.9453 31.9996 49.7799 31.9509 49.6382 31.8599L48.4073 31.0728C48.1533 30.9103 48 30.6302 48 30.3293V27.8828C48 27.3953 48.3961 27 48.8845 27C49.373 27 49.7691 27.3953 49.7691 27.8828V29.847L50.5923 30.3737C50.9236 30.5853 51.0747 30.9892 50.9642 31.3655C50.8536 31.7418 50.5072 32.0004 50.1146 32V31.9996Z" fill="white"/>
<path d="M64.1688 71H49.8312C49.3718 71 49 70.5522 49 70C49 69.4478 49.3718 69 49.8312 69H64.1688C64.6278 69 65 69.4478 65 70C65 70.5522 64.6278 71 64.1688 71Z" fill="white"/>
<path d="M64.04 54H62.96C62.4294 54 62 53.5522 62 53C62 52.4478 62.4294 52 62.96 52H64.04C64.5702 52 65 52.4478 65 53C65 53.5522 64.5702 54 64.04 54Z" fill="white"/>
<path d="M34.1796 55H27.8204C27.3673 55 27 55.4478 27 56C27 56.5522 27.3673 57 27.8204 57H34.1796C34.6327 57 35 56.5522 35 56C35 55.4478 34.6327 55 34.1796 55Z" fill="white"/>
<path d="M71.1441 55.2616H68.2556V54.411C68.2502 51.4218 65.8636 49.0013 62.9203 49H58.4784C55.5352 49.0013 53.1486 51.4218 53.1431 54.411V55.2616H47.8559C47.3832 55.2616 47 55.6508 47 56.1308C47 56.6108 47.3832 57 47.8559 57H71.1441C71.6168 57 72 56.6108 72 56.1308C72 55.6508 71.6168 55.2616 71.1441 55.2616V55.2616ZM66.5443 54.411V55.2616H61.5362V50.7384H62.9207C64.9191 50.7384 66.5401 52.3814 66.5443 54.411ZM54.8548 54.411C54.8594 52.3814 56.4805 50.7384 58.4784 50.7384H59.8245V55.2616H54.8548V54.411Z" fill="white"/>
<path d="M61.0054 46C63.2135 45.9972 65.002 44.2048 65 41.9966C64.998 39.7881 63.2068 37.9992 60.9982 38C58.7896 38.0012 57 39.7916 57 42.0002C57.004 44.2096 58.7956 45.9988 61.0054 46V46ZM61.0054 39.6264C62.3153 39.6292 63.3755 40.693 63.3736 42.0034C63.3716 43.3133 62.3086 44.3743 60.9982 44.3732C59.6882 44.3724 58.6264 43.3098 58.6264 41.9998C58.6292 40.6882 59.6934 39.6264 61.0054 39.6264V39.6264Z" fill="white"/>
<path d="M54 30.0004C54 27.8673 52.6468 25.969 50.6303 25.2733C48.6135 24.5781 46.3777 25.2388 45.0631 26.9186C43.5382 28.8661 43.6667 31.6355 45.3654 33.4333C46.772 34.9223 48.9442 35.4028 50.8476 34.646C52.7509 33.8893 54 32.0484 54 30.0004ZM46.5771 32.2888C45.4915 31.1395 45.3626 29.3852 46.2691 28.0899C47.1756 26.7941 48.8673 26.314 50.3195 26.9397C51.7716 27.5655 52.5841 29.1253 52.2647 30.6737C51.9449 32.2221 50.5815 33.3332 49.0004 33.3332C48.0829 33.3348 47.2057 32.9569 46.5771 32.2888Z" fill="white"/>
<path d="M61.7792 62.7496H60.0475V61.7695C60.0495 60.7959 59.2618 60.0045 58.2861 60H55.7135C54.7378 60.0045 53.9501 60.7959 53.9521 61.7695V62.75H52.2208C50.4428 62.7521 49.002 64.1899 49 65.9642V71.2902C49.0008 72.5113 49.6944 73.6263 50.7902 74.1694V74.1702C50.7906 74.5619 51.0657 74.9001 51.4501 74.9811C51.834 75.0617 52.2228 74.8632 52.3815 74.5048H61.5365C61.692 74.8571 62.0698 75.0564 62.4489 74.9859C62.8283 74.9154 63.1088 74.5935 63.1262 74.2091C64.2675 73.6834 64.9984 72.5445 65 71.2902V65.9642C64.998 64.1899 63.5572 62.7517 61.7792 62.7496V62.7496ZM55.6144 61.7695C55.6116 61.7116 55.6558 61.6626 55.7135 61.6589H58.2861C58.3437 61.6626 58.388 61.7116 58.3851 61.7695V62.75H55.6144V61.7695ZM63.3377 71.2902C63.3364 72.1488 62.6392 72.8446 61.7792 72.8454H52.2208C51.3604 72.8446 50.6631 72.1488 50.6623 71.2902V65.9642C50.6631 65.1056 51.3604 64.4102 52.2208 64.409H61.7792C62.6392 64.4102 63.3364 65.1056 63.3377 65.9642V71.2902Z" fill="white"/>
<path d="M45.0377 75H37.9983C37.5471 74.9996 37.175 74.6548 37.1501 74.2142L36.4164 61.2313H34.8494C34.3803 61.2313 34 60.8589 34 60.3996V54.1772C34.0054 51.3171 36.3745 49.0012 39.2957 49H43.7043C46.6255 49.0012 48.9946 51.3171 49 54.1772V60.3996C49 60.8589 48.6197 61.2313 48.1506 61.2313H46.5852L45.8868 74.2118C45.8627 74.6536 45.4898 75 45.0377 75ZM38.8022 73.3367H44.2323L44.9307 60.3558C44.9544 59.9143 45.3272 59.568 45.7789 59.568H47.3007V54.1772C47.2961 52.2353 45.6873 50.6633 43.7039 50.6633H39.2957C37.3123 50.6633 35.7034 52.2353 35.6989 54.1772V59.568H37.2207C37.6715 59.568 38.044 59.9131 38.0689 60.3537L38.8022 73.3367Z" fill="white"/>
<path d="M40.9948 46C38.7862 45.9972 36.998 44.2048 37 41.9966C37.0016 39.7881 38.7933 37.9992 41.0016 38C43.2103 38.0012 45 39.7916 45 42.0002C44.996 44.2096 43.2043 45.9988 40.9948 46ZM40.9948 39.6264C39.6844 39.6292 38.6245 40.693 38.6265 42.0034C38.6281 43.3133 39.6916 44.3743 41.0016 44.3732C42.312 44.3724 43.3735 43.3098 43.3735 41.9998C43.3707 40.6882 42.3065 39.6264 40.9948 39.6264Z" fill="white"/>
</svg>
