<svg width="1920" height="613" viewBox="0 0 1920 613" fill="none" xmlns="http://www.w3.org/2000/svg">
<g clip-path="url(#clip0_252_3403)">
<path d="M91 442L-105.872 525.76C-116.258 530.178 -123 540.373 -123 551.66V577L73.8723 493.24C84.258 488.822 91 478.627 91 467.34V442Z" stroke="#3638BC"/>
<path d="M91 179L-105.872 262.76C-116.258 267.178 -123 277.373 -123 288.66V314L73.8723 230.24C84.258 225.822 91 215.627 91 204.34V179Z" stroke="#3638BC"/>
<path d="M91 354L-105.872 437.76C-116.258 442.178 -123 452.373 -123 463.66V489L73.8723 405.24C84.258 400.822 91 390.627 91 379.34V354Z" stroke="#3638BC"/>
<path d="M91 91L-105.872 174.76C-116.258 179.178 -123 189.373 -123 200.66V226L73.8723 142.24C84.258 137.822 91 127.627 91 116.34V91Z" stroke="#3638BC"/>
<path d="M91 530L-105.872 613.76C-116.258 618.178 -123 628.373 -123 639.66V665L73.8723 581.24C84.258 576.822 91 566.627 91 555.34V530Z" stroke="#3638BC"/>
<path d="M91 267L-105.872 350.76C-116.258 355.178 -123 365.373 -123 376.66V402L73.8723 318.24C84.258 313.822 91 303.627 91 292.34V267Z" stroke="#3638BC"/>
<path d="M518 223L321.128 139.24C310.742 134.822 304 124.627 304 113.34V88L500.872 171.76C511.258 176.178 518 186.373 518 197.66V223Z" stroke="#3638BC"/>
<path d="M518 486L321.128 402.24C310.742 397.822 304 387.627 304 376.34V351L500.872 434.76C511.258 439.178 518 449.373 518 460.66V486Z" stroke="#3638BC"/>
<path d="M518 311L321.128 227.24C310.742 222.822 304 212.627 304 201.34V176L500.872 259.76C511.258 264.178 518 274.373 518 285.66V311Z" stroke="#3638BC"/>
<path d="M518 135L321.128 51.2405C310.742 46.8219 304 36.6267 304 25.3401V0L500.872 83.7595C511.258 88.1781 518 98.3733 518 109.66V135Z" stroke="#3638BC"/>
<path d="M518 398L321.128 314.24C310.742 309.822 304 299.627 304 288.34V263L500.872 346.76C511.258 351.178 518 361.373 518 372.66V398Z" stroke="#3638BC"/>
<path d="M287.872 139.24L130.166 206.337C111.601 214.235 91 200.611 91 180.436V179.047L305 88V113.34C305 124.627 298.258 134.822 287.872 139.24Z" stroke="#3638BC"/>
<path d="M287.872 402.24L130.166 469.337C111.601 477.235 91 463.611 91 443.436V442.047L305 351V376.34C305 387.627 298.258 397.822 287.872 402.24Z" stroke="#3638BC"/>
<path d="M287.872 227.24L130.166 294.337C111.601 302.235 91 288.611 91 268.436V267.047L305 176V201.34C305 212.627 298.258 222.822 287.872 227.24Z" stroke="#3638BC"/>
<path d="M287.872 490.24L130.166 557.337C111.601 565.235 91 551.611 91 531.436V530.047L305 439V464.34C305 475.627 298.258 485.822 287.872 490.24Z" stroke="#3638BC"/>
<path d="M287.872 51.2405L130.166 118.337C111.601 126.235 91 112.611 91 92.4362V91.0465L305 0V25.3401C305 36.6267 298.258 46.8219 287.872 51.2405Z" stroke="#3638BC"/>
<path d="M287.872 314.24L130.166 381.337C111.601 389.235 91 375.611 91 355.436V354.047L305 263V288.34C305 299.627 298.258 309.822 287.872 314.24Z" stroke="#3638BC"/>
<path d="M518 574L321.128 490.24C310.742 485.822 304 475.627 304 464.34V439L500.872 522.76C511.258 527.178 518 537.373 518 548.66V574Z" stroke="#3638BC"/>
</g>
<defs>
<clipPath id="clip0_252_3403">
<rect width="1920" height="613" fill="white"/>
</clipPath>
</defs>
</svg>
