<svg width="64" height="64" viewBox="0 0 64 64" fill="none" xmlns="http://www.w3.org/2000/svg">
<path d="M47.895 8.02987H42.2241C41.3456 3.46175 37.3194 0 32.5 0C27.6807 0 23.6545 3.46175 22.776 8.02987H17.105C13.1872 8.02987 10 11.218 10 15.1368C10 16.1723 10.8395 17.0117 11.875 17.0117C12.9105 17.0117 13.75 16.1723 13.75 15.1368C13.75 13.2858 15.2551 11.7799 17.105 11.7799H22.776C23.1056 13.4937 23.8783 15.0519 24.9696 16.3299C21.3476 17.2724 18.666 20.5714 18.666 24.4853V41.0264C18.666 44.411 20.6715 47.3359 23.5562 48.6745V53.477C23.5562 54.5125 24.3958 55.352 25.4312 55.352H27.5069V59.0163C27.5069 61.7643 29.7425 64 32.4906 64H32.5095C35.2575 64 37.4933 61.7644 37.4933 59.0163V55.352H39.5687C40.6042 55.352 41.4437 54.5125 41.4437 53.477V48.6746C44.3286 47.336 46.3341 44.4111 46.3341 41.0265V24.4853C46.3341 20.5714 43.6524 17.2724 40.0305 16.3299C41.1219 15.0519 41.8946 13.4937 42.2243 11.7799H47.8951C49.7451 11.7799 51.2501 13.2858 51.2501 15.1368C51.2501 16.1723 52.0896 17.0117 53.1251 17.0117C54.1606 17.0117 55.0001 16.1723 55.0001 15.1368C55 11.218 51.8128 8.02987 47.895 8.02987ZM32.5 3.75C35.8923 3.75 38.652 6.51112 38.652 9.90487C38.652 13.2986 35.8923 16.0599 32.5 16.0599C29.1077 16.0599 26.348 13.2987 26.348 9.905C26.348 6.51125 29.1077 3.75 32.5 3.75ZM22.416 24.4853C22.416 21.9071 24.5124 19.8097 27.0891 19.8097H30.625V37.2431C26.9484 37.576 24.0023 40.479 23.6025 44.1362C22.8649 43.3094 22.416 42.2194 22.416 41.0265V24.4853ZM33.7431 59.0163C33.7431 59.6965 33.1896 60.25 32.5094 60.25H32.4905C31.8102 60.25 31.2568 59.6966 31.2568 59.0163V55.352H33.743V59.0163H33.7431ZM37.6937 51.602H27.3062V44.987C27.3062 42.7673 29.1123 40.9613 31.332 40.9613H33.668C35.8877 40.9613 37.6937 42.7673 37.6937 44.987V51.602ZM42.5841 24.4853V41.0264C42.5841 42.2194 42.1351 43.3094 41.3975 44.1362C40.9977 40.479 38.0516 37.576 34.3751 37.243V19.8099H37.911C40.4877 19.8099 42.5841 21.9072 42.5841 24.4853Z" fill="#1E149D"/>
<path d="M32 13C33.1045 13 34 12.2088 34 11.2328V8.7672C34 7.79123 33.1045 7 32 7C30.8955 7 30 7.79123 30 8.7672V11.2328C30 12.2088 30.8955 13 32 13Z" fill="#1E149D"/>
</svg>
