<svg width="100" height="100" viewBox="0 0 100 100" fill="none" xmlns="http://www.w3.org/2000/svg">
<path d="M49.5 64C45.3577 64 42 60.6423 42 56.5C42 52.3577 45.3577 49 49.5 49C53.6423 49 57 52.3577 57 56.5C56.9955 60.6403 53.6403 63.9955 49.5 64ZM49.5 51.2881C46.6215 51.2881 44.2881 53.6215 44.2881 56.5C44.2881 59.3785 46.6215 61.7119 49.5 61.7119C52.3785 61.7119 54.7119 59.3785 54.7119 56.5C54.7084 53.6229 52.3771 51.2916 49.5 51.2881Z" fill="white"/>
<path d="M52.8592 35H37.1408C36.511 35 36 34.5521 36 34C36 33.4479 36.511 33 37.1408 33H52.8592C53.489 33 54 33.4479 54 34C54 34.5521 53.489 35 52.8592 35Z" fill="white"/>
<path d="M32.625 75H66.375C68.376 74.9975 69.9976 73.3678 70 71.3568V28.6432C69.9976 26.6322 68.376 25.0025 66.375 25H32.625C30.624 25.0025 29.0024 26.6322 29 28.6432V71.3568C29.0024 73.3678 30.624 74.9975 32.625 75ZM31.25 28.6432C31.251 27.8806 31.8662 27.2623 32.625 27.2613H66.375C67.1338 27.2623 67.749 27.8806 67.75 28.6432V71.3568C67.749 72.1194 67.1338 72.7377 66.375 72.7387H32.625C31.8662 72.7377 31.251 72.1194 31.25 71.3568V28.6432Z" fill="white"/>
<path d="M49 70C56.1797 70 62 64.1797 62 57C62 49.8203 56.1797 44 49 44C41.8203 44 36 49.8203 36 57C36.0083 64.1763 41.8237 69.9917 49 70ZM49 46.25C54.937 46.25 59.75 51.063 59.75 57C59.75 62.937 54.937 67.75 49 67.75C43.063 67.75 38.25 62.937 38.25 57C38.2568 51.0659 43.0659 46.2568 49 46.25Z" fill="white"/>
<path d="M60 37C61.6567 37 63 35.6567 63 34C63 32.3433 61.6567 31 60 31C58.3433 31 57 32.3433 57 34C57.002 35.6562 58.3438 36.998 60 37ZM60 33.25C60.4141 33.25 60.75 33.5859 60.75 34C60.75 34.4141 60.4141 34.75 60 34.75C59.5859 34.75 59.25 34.4141 59.25 34C59.2505 33.5859 59.5859 33.2505 60 33.25Z" fill="white"/>
</svg>
