<svg width="100" height="100" viewBox="0 0 100 100" fill="none" xmlns="http://www.w3.org/2000/svg">
<path d="M26.3568 39C25.8023 39 25.3038 38.6668 25.0978 38.1585C24.8912 37.6508 25.0183 37.0698 25.4191 36.6912C28.7264 33.5747 32.6216 31.131 36.8829 29.4991C41.0619 27.8865 45.5027 27.0403 49.9889 27.0019C59.3691 26.9089 68.1077 30.2255 74.5863 36.3446C75.123 36.857 75.1395 37.7008 74.6239 38.2335C74.1089 38.7668 73.2543 38.7877 72.7122 38.2818C66.8317 32.7273 58.9118 29.68 50.3797 29.68C50.259 29.68 50.1384 29.68 50.0177 29.6817C41.3809 29.769 33.3108 32.946 27.2944 38.6284C27.0424 38.8674 26.7058 39.0006 26.3568 39V39Z" fill="white"/>
<path d="M34.3513 50C33.7995 50 33.3028 49.6606 33.097 49.1436C32.8918 48.6259 33.0184 48.0342 33.4178 47.6486C37.7546 43.4612 43.4999 41.0867 49.4991 41.0032C55.5974 40.9031 61.3057 43.1414 65.5816 47.2992C65.9316 47.6368 66.0765 48.1379 65.9609 48.6129C65.8448 49.0879 65.4866 49.464 65.021 49.5984C64.5554 49.7335 64.054 49.6061 63.7069 49.265C59.9494 45.6112 54.9172 43.6436 49.5419 43.7319C44.2235 43.8053 39.1296 45.9097 35.2848 49.6215C35.0338 49.865 34.699 50.0006 34.3513 50Z" fill="white"/>
<path d="M43.3537 60C42.8003 60 42.3034 59.6457 42.0972 59.1043C41.8916 58.5629 42.0185 57.9441 42.4185 57.5409C44.5925 55.3612 47.4527 54.1031 50.4515 54.0077C53.556 53.895 56.4426 55.0211 58.5767 57.1717C58.9292 57.5236 59.076 58.0476 58.9621 58.545C58.8481 59.0424 58.4898 59.4369 58.0239 59.5794C57.5575 59.7225 57.0547 59.5912 56.7058 59.235C55.1027 57.6196 52.9146 56.7753 50.5425 56.8602C48.2111 56.945 45.9883 57.9206 44.2883 59.6048C44.0368 59.8588 43.702 60.0006 43.3537 60Z" fill="white"/>
<path d="M55 68C55 65.2386 52.7614 63 50 63C47.2386 63 45 65.2386 45 68C45 70.7614 47.2386 73 50 73C52.7602 72.9971 54.9966 70.7602 55 68ZM50 70.3529C48.7006 70.3529 47.6471 69.2994 47.6471 68C47.6471 66.7006 48.7006 65.6471 50 65.6471C51.2994 65.6471 52.3529 66.7006 52.3529 68C52.3512 69.2988 51.2988 70.3512 50 70.3529Z" fill="white"/>
</svg>
