<svg width="35" height="29" viewBox="0 0 35 29" fill="none" xmlns="http://www.w3.org/2000/svg">
<path d="M15.8394 3.54926L9.62287 15.3224L5.7056 16.4478C6.15977 15.5821 6.67072 14.8896 7.23844 14.3701C7.80616 13.793 8.45904 13.5045 9.19708 13.5045C10.8435 13.5045 12.3195 14.197 13.6253 15.5821C14.9878 16.9095 15.6691 18.6408 15.6691 20.7761C15.6691 23.0269 14.9027 24.9602 13.3698 26.5761C11.8938 28.192 10.0487 29 7.83455 29C5.73398 29 3.88889 28.2209 2.29927 26.6627C0.766423 25.0468 0 23.0846 0 20.7761C0 19.8527 0.170316 18.7851 0.510949 17.5731C0.908354 16.3612 1.618 14.7741 2.6399 12.8119L9.45255 0L15.8394 3.54926ZM35 3.54926L28.7835 15.3224L24.9513 16.4478C25.3487 15.5821 25.8313 14.8896 26.399 14.3701C27.0235 13.793 27.6764 13.5045 28.3577 13.5045C30.0041 13.5045 31.5085 14.197 32.871 15.5821C34.2336 16.9095 34.9148 18.6408 34.9148 20.7761C34.9148 23.0269 34.1484 24.9602 32.6156 26.5761C31.1395 28.192 29.2944 29 27.0803 29C24.9797 29 23.1346 28.2209 21.545 26.6627C20.0122 25.0468 19.2457 23.0846 19.2457 20.7761C19.2457 19.8527 19.4161 18.7851 19.7567 17.5731C20.0973 16.3612 20.7786 14.7741 21.8005 12.8119L28.6983 0L35 3.54926Z" fill="#67E4EF"/>
</svg>
