<svg width="59" height="48" viewBox="0 0 59 48" fill="none" xmlns="http://www.w3.org/2000/svg">
<path d="M26.7007 5.87463L16.2214 25.3612L9.618 27.2239C10.3836 25.791 11.2449 24.6448 12.2019 23.7851C13.159 22.8298 14.2595 22.3522 15.5037 22.3522C18.279 22.3522 20.7672 23.4985 22.9684 25.791C25.2652 27.9881 26.4136 30.8537 26.4136 34.3881C26.4136 38.1134 25.1217 41.3134 22.5377 43.9881C20.0495 46.6627 16.9392 48 13.2068 48C9.66586 48 6.55556 46.7104 3.87591 44.1313C1.29197 41.4567 0 38.209 0 34.3881C0 32.8597 0.287105 31.0925 0.861314 29.0866C1.53123 27.0806 2.72749 24.4537 4.45012 21.206L15.9343 0L26.7007 5.87463ZM59 5.87463L48.5207 25.3612L42.0608 27.2239C42.7307 25.791 43.5442 24.6448 44.5012 23.7851C45.5539 22.8298 46.6545 22.3522 47.8029 22.3522C50.5783 22.3522 53.1144 23.4985 55.4112 25.791C57.708 27.9881 58.8564 30.8537 58.8564 34.3881C58.8564 38.1134 57.5645 41.3134 54.9805 43.9881C52.4923 46.6627 49.382 48 45.6496 48C42.1087 48 38.9984 46.7104 36.3187 44.1313C33.7348 41.4567 32.4428 38.209 32.4428 34.3881C32.4428 32.8597 32.7299 31.0925 33.3041 29.0866C33.8783 27.0806 35.0268 24.4537 36.7494 21.206L48.3771 0L59 5.87463Z" fill="white"/>
</svg>
