<svg width="64" height="64" viewBox="0 0 64 64" fill="none" xmlns="http://www.w3.org/2000/svg">
<circle cx="32" cy="32" r="32" fill="#FFE3C1"/>
<g clip-path="url(#clip0_235_3475)">
<path d="M26.343 24.0003C26.063 24.0003 25.7857 23.8843 25.587 23.6563C25.2257 23.239 25.2697 22.607 25.687 22.2456C25.911 22.051 26.0203 21.807 25.9963 21.5563C25.9723 21.2856 25.7897 21.0336 25.5003 20.8656C24.6417 20.3696 24.1003 19.5563 24.0123 18.6336C23.927 17.7363 24.287 16.8656 25.0017 16.2456C25.419 15.8816 26.0497 15.9256 26.4137 16.3443C26.775 16.7616 26.731 17.3936 26.3137 17.755C26.0897 17.9496 25.9803 18.1936 26.0043 18.4443C26.0297 18.715 26.211 18.967 26.5017 19.135C27.359 19.631 27.9003 20.4443 27.9883 21.367C28.0737 22.2643 27.7137 23.135 26.999 23.7563C26.8083 23.919 26.5763 24.0003 26.343 24.0003V24.0003Z" fill="#1E149D"/>
<path d="M33.0087 24C32.7287 24 32.4513 23.884 32.2527 23.656C31.8913 23.2387 31.9353 22.6067 32.3527 22.2454C32.5767 22.0507 32.686 21.8067 32.662 21.556C32.6367 21.2854 32.4553 21.0334 32.1647 20.8654C31.3073 20.3694 30.766 19.556 30.678 18.6334C30.5927 17.736 30.9527 16.8654 31.6673 16.244C32.0847 15.8814 32.7153 15.9254 33.078 16.344C33.4393 16.7614 33.3953 17.3934 32.978 17.7547C32.754 17.9494 32.6447 18.1934 32.6687 18.444C32.694 18.7147 32.8753 18.9667 33.166 19.1347C34.0233 19.6307 34.5647 20.444 34.6527 21.3667C34.738 22.264 34.378 23.1347 33.6633 23.756C33.474 23.9187 33.242 24 33.0087 24V24Z" fill="#1E149D"/>
<path d="M39 48H19.6667C17.644 48 16 46.356 16 44.3333V43C16 42.448 16.448 42 17 42H41.6667C42.2187 42 42.6667 42.448 42.6667 43V44.3333C42.6667 46.356 41.0227 48 39 48Z" fill="#1E149D"/>
<path d="M21.0554 40.6666H37.6248C38.3541 39.972 38.9994 39.184 39.5381 38.3106C39.5728 38.2693 39.6035 38.2253 39.6315 38.1786C40.7448 36.3133 41.3328 34.176 41.3328 32V27C41.3328 26.448 40.8848 26 40.3328 26H18.3328C17.7808 26 17.3328 26.448 17.3328 27V32C17.3328 35.4067 18.7674 38.48 21.0554 40.6666Z" fill="#1E149D"/>
<path d="M42.667 28.333V30.9997C44.1377 30.9997 45.3337 32.1957 45.3337 33.6663C45.3337 34.3863 45.059 35.0517 44.543 35.5583C44.0524 36.0583 43.387 36.333 42.667 36.333H41.9164C41.6164 37.2077 41.2551 38.0623 40.7777 38.861C40.7497 38.909 40.7164 38.953 40.6844 38.9997H42.667C44.1084 38.9997 45.4484 38.441 46.4284 37.4437C47.4417 36.4477 48.0004 35.1077 48.0004 33.6663C48.0004 30.725 45.6084 28.333 42.667 28.333V28.333Z" fill="#1E149D"/>
</g>
<defs>
<clipPath id="clip0_235_3475">
<rect width="32" height="32" fill="white" transform="translate(16 16)"/>
</clipPath>
</defs>
</svg>
