<svg width="1920" height="850" viewBox="0 0 1920 850" fill="none" xmlns="http://www.w3.org/2000/svg">
<g clip-path="url(#clip0_387_4404)">
<path d="M639.848 284.505L639.652 284.045L640.348 283.748V284.505H639.848ZM320.423 486.494L320.619 486.954L319.923 487.251V486.494H320.423ZM622.742 357.564L622.546 357.104L622.742 357.564ZM337.332 412.975L639.652 284.045L640.044 284.965L337.725 413.895L337.332 412.975ZM320.227 486.034L622.546 357.104L622.938 358.024L320.619 486.954L320.227 486.034ZM319.923 486.494V439.326H320.923V486.494H319.923ZM639.348 331.673V284.505H640.348V331.673H639.348ZM622.546 357.104C632.736 352.758 639.348 342.75 639.348 331.673H640.348C640.348 343.151 633.497 353.521 622.938 358.024L622.546 357.104ZM337.725 413.895C327.535 418.241 320.923 428.249 320.923 439.326H319.923C319.923 427.848 326.774 417.478 337.332 412.975L337.725 413.895Z" fill="#3638BC"/>
<path d="M639.848 -110.078L639.652 -110.538L640.348 -110.835V-110.078H639.848ZM320.423 91.9111L320.619 92.3711L319.923 92.6679V91.9111H320.423ZM622.742 -37.0191L622.546 -37.4791L622.742 -37.0191ZM337.332 18.3924L639.652 -110.538L640.044 -109.618L337.725 19.3122L337.332 18.3924ZM320.227 91.4512L622.546 -37.4791L622.938 -36.5592L320.619 92.3711L320.227 91.4512ZM319.923 91.9111V44.7432H320.923V91.9111H319.923ZM639.348 -62.91V-110.078H640.348V-62.91H639.348ZM622.546 -37.4791C632.736 -41.8246 639.348 -51.8326 639.348 -62.91H640.348C640.348 -51.4319 633.497 -41.0619 622.938 -36.5592L622.546 -37.4791ZM337.725 19.3122C327.535 23.6578 320.923 33.6657 320.923 44.7432H319.923C319.923 33.2651 326.774 22.8951 337.332 18.3924L337.725 19.3122Z" fill="#3638BC"/>
<path d="M639.848 152.976L639.652 152.516L640.348 152.219V152.976H639.848ZM320.423 354.965L320.619 355.425L319.923 355.722V354.965H320.423ZM622.742 226.035L622.546 225.575L622.742 226.035ZM337.332 281.446L639.652 152.516L640.044 153.436L337.725 282.366L337.332 281.446ZM320.227 354.505L622.546 225.575L622.938 226.495L320.619 355.425L320.227 354.505ZM319.923 354.965V307.797H320.923V354.965H319.923ZM639.348 200.144V152.976H640.348V200.144H639.348ZM622.546 225.575C632.736 221.229 639.348 211.221 639.348 200.144H640.348C640.348 211.622 633.497 221.992 622.938 226.495L622.546 225.575ZM337.725 282.366C327.535 286.711 320.923 296.719 320.923 307.797H319.923C319.923 296.319 326.774 285.949 337.332 281.446L337.725 282.366Z" fill="#3638BC"/>
<path d="M639.848 416.032L639.652 415.572L640.348 415.276V416.032H639.848ZM320.423 618.021L320.619 618.481L319.923 618.778V618.021H320.423ZM622.742 489.091L622.546 488.631L622.742 489.091ZM337.332 544.503L639.652 415.572L640.044 416.492L337.725 545.423L337.332 544.503ZM320.227 617.562L622.546 488.631L622.938 489.551L320.619 618.481L320.227 617.562ZM319.923 618.021V570.854H320.923V618.021H319.923ZM639.348 463.2V416.032H640.348V463.2H639.348ZM622.546 488.631C632.736 484.286 639.348 474.278 639.348 463.2H640.348C640.348 474.678 633.497 485.048 622.938 489.551L622.546 488.631ZM337.725 545.423C327.535 549.768 320.923 559.776 320.923 570.854H319.923C319.923 559.375 326.774 549.005 337.332 544.503L337.725 545.423Z" fill="#3638BC"/>
<path d="M1 -44.3141L0.803857 -43.8541L0.5 -43.9837V-44.3141H1ZM320.425 91.9111H320.925V92.6679L320.228 92.3711L320.425 91.9111ZM40.3849 -93.825L303.515 18.3924L303.123 19.3122L39.9926 -92.9052L40.3849 -93.825ZM1.19614 -44.774L320.621 91.4512L320.228 92.3711L0.803857 -43.8541L1.19614 -44.774ZM319.925 91.9111V44.7432H320.925V91.9111H319.925ZM0.5 -44.3141V-67.4742H1.5V-44.3141H0.5ZM303.515 18.3924C314.073 22.8951 320.925 33.2651 320.925 44.7432H319.925C319.925 33.6657 313.313 23.6578 303.123 19.3122L303.515 18.3924ZM39.9926 -92.9052C21.7548 -100.683 1.5 -87.3014 1.5 -67.4742H0.5C0.5 -88.0185 21.4874 -101.884 40.3849 -93.825L39.9926 -92.9052Z" fill="#3638BC"/>
<path d="M1 218.74L0.803857 219.2L0.5 219.07V218.74H1ZM320.425 354.965H320.925V355.722L320.228 355.425L320.425 354.965ZM40.3849 169.229L303.515 281.446L303.123 282.366L39.9926 170.149L40.3849 169.229ZM1.19614 218.28L320.621 354.505L320.228 355.425L0.803857 219.2L1.19614 218.28ZM319.925 354.965V307.797H320.925V354.965H319.925ZM0.5 218.74V195.579H1.5V218.74H0.5ZM303.515 281.446C314.073 285.949 320.925 296.319 320.925 307.797H319.925C319.925 296.719 313.313 286.711 303.123 282.366L303.515 281.446ZM39.9926 170.149C21.7548 162.371 1.5 175.752 1.5 195.579H0.5C0.5 175.035 21.4874 161.169 40.3849 169.229L39.9926 170.149Z" fill="#3638BC"/>
<path d="M303.319 544.963L40.1888 432.745C21.6211 424.827 1 438.45 1 458.636V481.796L320.425 618.021V570.854C320.425 559.576 313.693 549.387 303.319 544.963Z" fill="#3638BC"/>
<path d="M1 87.2123L0.803857 87.6722L0.5 87.5426V87.2123H1ZM320.425 223.438H320.925V224.194L320.228 223.897L320.425 223.438ZM40.3849 37.7013L303.515 149.919L303.123 150.839L39.9926 38.6212L40.3849 37.7013ZM1.19614 86.7524L320.621 222.978L320.228 223.897L0.803857 87.6722L1.19614 86.7524ZM319.925 223.438V176.27H320.925V223.438H319.925ZM0.5 87.2123V64.0521H1.5V87.2123H0.5ZM303.515 149.919C314.073 154.421 320.925 164.791 320.925 176.27H319.925C319.925 165.192 313.313 155.184 303.123 150.839L303.515 149.919ZM39.9926 38.6212C21.7548 30.8433 1.5 44.225 1.5 64.0521H0.5C0.5 43.5078 21.4874 29.6421 40.3849 37.7013L39.9926 38.6212Z" fill="#3638BC"/>
<path d="M639.848 21.4484L639.652 20.9885L640.348 20.6916V21.4484H639.848ZM320.423 223.438L320.619 223.897L319.923 224.194V223.438H320.423ZM622.742 94.5072L622.546 94.0473L622.742 94.5072ZM337.332 149.919L639.652 20.9885L640.044 21.9083L337.725 150.839L337.332 149.919ZM320.227 222.978L622.546 94.0473L622.938 94.9672L320.619 223.897L320.227 222.978ZM319.923 223.438V176.27H320.923V223.438H319.923ZM639.348 68.6164V21.4484H640.348V68.6164H639.348ZM622.546 94.0473C632.736 89.7018 639.348 79.6938 639.348 68.6164H640.348C640.348 80.0945 633.497 90.4645 622.938 94.9672L622.546 94.0473ZM337.725 150.839C327.535 155.184 320.923 165.192 320.923 176.27H319.923C319.923 164.791 326.774 154.421 337.332 149.919L337.725 150.839Z" fill="#3638BC"/>
<path d="M1 350.269L0.803857 350.729L0.5 350.599V350.269H1ZM320.425 486.494H320.925V487.251L320.228 486.954L320.425 486.494ZM40.3849 300.758L303.515 412.975L303.123 413.895L39.9926 301.678L40.3849 300.758ZM1.19614 349.809L320.621 486.034L320.228 486.954L0.803857 350.729L1.19614 349.809ZM319.925 486.494V439.326H320.925V486.494H319.925ZM0.5 350.269V327.109H1.5V350.269H0.5ZM303.515 412.975C314.073 417.478 320.925 427.848 320.925 439.326H319.925C319.925 428.249 313.313 418.241 303.123 413.895L303.515 412.975ZM39.9926 301.678C21.7548 293.9 1.5 307.282 1.5 327.109H0.5C0.5 306.564 21.4874 292.699 40.3849 300.758L39.9926 301.678Z" fill="#3638BC"/>
<path d="M1279.08 350.429L1278.88 350.888L1279.58 351.185V350.429H1279.08ZM959.655 148.439L959.851 147.98L959.155 147.683V148.439H959.655ZM1261.97 277.37L1261.78 277.83L1261.97 277.37ZM976.564 221.958L1278.88 350.888L1279.28 349.969L976.956 221.038L976.564 221.958ZM959.459 148.899L1261.78 277.83L1262.17 276.91L959.851 147.98L959.459 148.899ZM959.155 148.439V195.607H960.155V148.439H959.155ZM1278.58 303.261V350.429H1279.58V303.261H1278.58ZM1261.78 277.83C1271.97 282.175 1278.58 292.183 1278.58 303.261H1279.58C1279.58 291.782 1272.73 281.413 1262.17 276.91L1261.78 277.83ZM976.956 221.038C966.767 216.693 960.155 206.685 960.155 195.607H959.155C959.155 207.086 966.006 217.455 976.564 221.958L976.956 221.038Z" fill="#3638BC"/>
<path d="M1279.08 87.3739L1278.88 87.8338L1279.58 88.1307V87.3739H1279.08ZM959.655 -114.615L959.851 -115.075L959.155 -115.372V-114.615H959.655ZM1261.97 14.315L1261.78 14.775L1261.97 14.315ZM976.564 -41.0965L1278.88 87.8338L1279.28 86.9139L976.956 -42.0163L976.564 -41.0965ZM959.459 -114.155L1261.78 14.775L1262.17 13.8551L959.851 -115.075L959.459 -114.155ZM959.155 -114.615V-67.4473H960.155V-114.615H959.155ZM1278.58 40.2059V87.3739H1279.58V40.2059H1278.58ZM1261.78 14.775C1271.97 19.1205 1278.58 29.1285 1278.58 40.2059H1279.58C1279.58 28.7278 1272.73 18.3578 1262.17 13.8551L1261.78 14.775ZM976.956 -42.0163C966.767 -46.3619 960.155 -56.3698 960.155 -67.4473H959.155C959.155 -55.9692 966.006 -45.5992 976.564 -41.0965L976.956 -42.0163Z" fill="#3638BC"/>
<path d="M1279.08 218.902L1278.88 219.362L1279.58 219.659V218.902H1279.08ZM959.655 16.9131L959.851 16.4532L959.155 16.1563V16.9131H959.655ZM1261.97 145.843L1261.78 146.303L1261.97 145.843ZM976.564 90.4318L1278.88 219.362L1279.28 218.442L976.956 89.512L976.564 90.4318ZM959.459 17.373L1261.78 146.303L1262.17 145.383L959.851 16.4532L959.459 17.373ZM959.155 16.9131V64.081H960.155V16.9131H959.155ZM1278.58 171.734V218.902H1279.58V171.734H1278.58ZM1261.78 146.303C1271.97 150.649 1278.58 160.657 1278.58 171.734H1279.58C1279.58 160.256 1272.73 149.886 1262.17 145.383L1261.78 146.303ZM976.956 89.512C966.767 85.1665 960.155 75.1585 960.155 64.081H959.155C959.155 75.5592 966.006 85.9291 976.564 90.4318L976.956 89.512Z" fill="#3638BC"/>
<path d="M640.232 284.665L640.036 284.205L639.732 284.334V284.665H640.232ZM959.656 148.439H960.156V147.683L959.46 147.98L959.656 148.439ZM679.617 334.176L942.747 221.958L942.355 221.038L679.224 333.256L679.617 334.176ZM640.428 285.125L959.852 148.899L959.46 147.98L640.036 284.205L640.428 285.125ZM959.156 148.439V195.607H960.156V148.439H959.156ZM639.732 284.665V307.825H640.732V284.665H639.732ZM942.747 221.958C953.305 217.455 960.156 207.086 960.156 195.607H959.156C959.156 206.685 952.544 216.693 942.355 221.038L942.747 221.958ZM679.224 333.256C660.986 341.034 640.732 327.652 640.732 307.825H639.732C639.732 328.369 660.719 342.235 679.617 334.176L679.224 333.256Z" fill="#3638BC"/>
<path d="M640.232 21.61L640.036 21.15L639.732 21.2796V21.61H640.232ZM959.656 -114.615H960.156V-115.372L959.46 -115.075L959.656 -114.615ZM679.617 71.1209L942.747 -41.0965L942.355 -42.0163L679.224 70.2011L679.617 71.1209ZM640.428 22.0699L959.852 -114.155L959.46 -115.075L640.036 21.15L640.428 22.0699ZM959.156 -114.615V-67.4473H960.156V-114.615H959.156ZM639.732 21.61V44.7701H640.732V21.61H639.732ZM942.747 -41.0965C953.305 -45.5992 960.156 -55.9692 960.156 -67.4473H959.156C959.156 -56.3698 952.544 -46.3619 942.355 -42.0163L942.747 -41.0965ZM679.224 70.2011C660.986 77.979 640.732 64.5973 640.732 44.7701H639.732C639.732 65.3144 660.719 79.1802 679.617 71.1209L679.224 70.2011Z" fill="#3638BC"/>
<path d="M640.232 416.193L640.036 415.733L639.732 415.863V416.193H640.232ZM959.656 279.968H960.156V279.211L959.46 279.508L959.656 279.968ZM679.617 465.704L942.747 353.487L942.355 352.567L679.224 464.784L679.617 465.704ZM640.428 416.653L959.852 280.428L959.46 279.508L640.036 415.733L640.428 416.653ZM959.156 279.968V327.136H960.156V279.968H959.156ZM639.732 416.193V439.353H640.732V416.193H639.732ZM942.747 353.487C953.305 348.984 960.156 338.614 960.156 327.136H959.156C959.156 338.213 952.544 348.221 942.355 352.567L942.747 353.487ZM679.224 464.784C660.986 472.562 640.732 459.18 640.732 439.353H639.732C639.732 459.897 660.719 473.763 679.617 465.704L679.224 464.784Z" fill="#3638BC"/>
<path d="M640.232 153.138L640.036 152.678L639.732 152.808V153.138H640.232ZM959.656 16.9131H960.156V16.1563L959.46 16.4532L959.656 16.9131ZM679.617 202.649L942.747 90.4318L942.355 89.512L679.224 201.729L679.617 202.649ZM640.428 153.598L959.852 17.373L959.46 16.4532L640.036 152.678L640.428 153.598ZM959.156 16.9131V64.081H960.156V16.9131H959.156ZM639.732 153.138V176.298H640.732V153.138H639.732ZM942.747 90.4318C953.305 85.9291 960.156 75.5592 960.156 64.081H959.156C959.156 75.1585 952.544 85.1665 942.355 89.512L942.747 90.4318ZM679.224 201.729C660.986 209.507 640.732 196.126 640.732 176.298H639.732C639.732 196.843 660.719 210.708 679.617 202.649L679.224 201.729Z" fill="#3638BC"/>
<path d="M1279.08 481.957L1278.88 482.417L1279.58 482.714V481.957H1279.08ZM959.655 279.968L959.851 279.508L959.155 279.211V279.968H959.655ZM1261.97 408.898L1261.78 409.358L1261.97 408.898ZM976.564 353.487L1278.88 482.417L1279.28 481.497L976.956 352.567L976.564 353.487ZM959.459 280.428L1261.78 409.358L1262.17 408.438L959.851 279.508L959.459 280.428ZM959.155 279.968V327.136H960.155V279.968H959.155ZM1278.58 434.789V481.957H1279.58V434.789H1278.58ZM1261.78 409.358C1271.97 413.703 1278.58 423.711 1278.58 434.789H1279.58C1279.58 423.311 1272.73 412.941 1262.17 408.438L1261.78 409.358ZM976.956 352.567C966.767 348.221 960.155 338.213 960.155 327.136H959.155C959.155 338.614 966.006 348.984 976.564 353.487L976.956 352.567Z" fill="#3638BC"/>
<path d="M1879.33 301.223L1615.99 413.528C1605.62 417.952 1598.89 428.141 1598.89 439.419V486.587L1918.31 350.362V326.979C1918.31 306.899 1897.8 293.346 1879.33 301.223Z" fill="#3638BC"/>
<path d="M1598.89 92.0039L1599.08 92.4638L1598.39 92.7607V92.0039H1598.89ZM1918.31 -44.2213H1918.81V-43.891L1918.51 -43.7614L1918.31 -44.2213ZM1879.33 -93.3597L1879.13 -93.8196L1879.33 -93.3597ZM1615.8 18.4852L1879.13 -93.8196L1879.52 -92.8997L1616.19 19.405L1615.8 18.4852ZM1598.69 91.544L1918.11 -44.6812L1918.51 -43.7614L1599.08 92.4638L1598.69 91.544ZM1598.39 92.0039V44.836H1599.39V92.0039H1598.39ZM1917.81 -44.2213V-67.604H1918.81V-44.2213H1917.81ZM1879.13 -93.8196C1897.93 -101.837 1918.81 -88.0429 1918.81 -67.604H1917.81C1917.81 -87.3257 1897.66 -100.636 1879.52 -92.8997L1879.13 -93.8196ZM1616.19 19.405C1606 23.7505 1599.39 33.7585 1599.39 44.836H1598.39C1598.39 33.3578 1605.24 22.9879 1615.8 18.4852L1616.19 19.405Z" fill="#3638BC"/>
<path d="M1598.89 355.057L1599.08 355.517L1598.39 355.813V355.057H1598.89ZM1918.31 218.831H1918.81V219.162L1918.51 219.291L1918.31 218.831ZM1879.33 169.693L1879.13 169.233L1879.33 169.693ZM1615.8 281.538L1879.13 169.233L1879.52 170.153L1616.19 282.458L1615.8 281.538ZM1598.69 354.597L1918.11 218.372L1918.51 219.291L1599.08 355.517L1598.69 354.597ZM1598.39 355.057V307.889H1599.39V355.057H1598.39ZM1917.81 218.831V195.449H1918.81V218.831H1917.81ZM1879.13 169.233C1897.93 161.215 1918.81 175.01 1918.81 195.449H1917.81C1917.81 175.727 1897.66 162.416 1879.52 170.153L1879.13 169.233ZM1616.19 282.458C1606 286.803 1599.39 296.811 1599.39 307.889H1598.39C1598.39 296.411 1605.24 286.041 1615.8 281.538L1616.19 282.458Z" fill="#3638BC"/>
<path d="M1598.89 618.114L1599.08 618.574L1598.39 618.871V618.114H1598.89ZM1918.31 481.889H1918.81V482.219L1918.51 482.349L1918.31 481.889ZM1879.33 432.751L1879.13 432.291L1879.33 432.751ZM1615.8 544.596L1879.13 432.291L1879.52 433.211L1616.19 545.515L1615.8 544.596ZM1598.69 617.654L1918.11 481.429L1918.51 482.349L1599.08 618.574L1598.69 617.654ZM1598.39 618.114V570.946H1599.39V618.114H1598.39ZM1917.81 481.889V458.506H1918.81V481.889H1917.81ZM1879.13 432.291C1897.93 424.273 1918.81 438.067 1918.81 458.506H1917.81C1917.81 438.785 1897.66 425.474 1879.52 433.211L1879.13 432.291ZM1616.19 545.515C1606 549.861 1599.39 559.869 1599.39 570.946H1598.39C1598.39 559.468 1605.24 549.098 1615.8 544.596L1616.19 545.515Z" fill="#3638BC"/>
<path d="M1598.89 223.529L1599.08 223.989L1598.39 224.286V223.529H1598.89ZM1918.31 87.3041H1918.81V87.6344L1918.51 87.764L1918.31 87.3041ZM1879.33 38.1657L1879.13 37.7058L1879.33 38.1657ZM1615.8 150.011L1879.13 37.7058L1879.52 38.6257L1616.19 150.93L1615.8 150.011ZM1598.69 223.069L1918.11 86.8442L1918.51 87.764L1599.08 223.989L1598.69 223.069ZM1598.39 223.529V176.361H1599.39V223.529H1598.39ZM1917.81 87.3041V63.9213H1918.81V87.3041H1917.81ZM1879.13 37.7058C1897.93 29.6879 1918.81 43.4825 1918.81 63.9213H1917.81C1917.81 44.1997 1897.66 30.8891 1879.52 38.6257L1879.13 37.7058ZM1616.19 150.93C1606 155.276 1599.39 165.284 1599.39 176.361H1598.39C1598.39 164.883 1605.24 154.513 1615.8 150.011L1616.19 150.93Z" fill="#3638BC"/>
<path d="M1279.46 350.362L1279.27 350.822L1278.96 350.692V350.362H1279.46ZM1598.89 486.587H1599.39V487.344L1598.69 487.047L1598.89 486.587ZM1318.85 300.851L1581.98 413.068L1581.59 413.988L1318.46 301.771L1318.85 300.851ZM1279.66 349.902L1599.08 486.127L1598.69 487.047L1279.27 350.822L1279.66 349.902ZM1598.39 486.587V439.419H1599.39V486.587H1598.39ZM1278.96 350.362V327.202H1279.96V350.362H1278.96ZM1581.98 413.068C1592.54 417.571 1599.39 427.941 1599.39 439.419H1598.39C1598.39 428.342 1591.78 418.334 1581.59 413.988L1581.98 413.068ZM1318.46 301.771C1300.22 293.993 1279.96 307.374 1279.96 327.202H1278.96C1278.96 306.657 1299.95 292.792 1318.85 300.851L1318.46 301.771Z" fill="#3638BC"/>
<path d="M1279.46 -44.2213L1279.27 -43.7614L1278.96 -43.891V-44.2213H1279.46ZM1598.89 92.0039H1599.39V92.7607L1598.69 92.4638L1598.89 92.0039ZM1318.85 -93.7322L1581.98 18.4852L1581.59 19.405L1318.46 -92.8124L1318.85 -93.7322ZM1279.66 -44.6812L1599.08 91.544L1598.69 92.4638L1279.27 -43.7614L1279.66 -44.6812ZM1598.39 92.0039V44.836H1599.39V92.0039H1598.39ZM1278.96 -44.2213V-67.3815H1279.96V-44.2213H1278.96ZM1581.98 18.4852C1592.54 22.9879 1599.39 33.3578 1599.39 44.836H1598.39C1598.39 33.7585 1591.78 23.7505 1581.59 19.405L1581.98 18.4852ZM1318.46 -92.8124C1300.22 -100.59 1279.96 -87.2086 1279.96 -67.3815H1278.96C1278.96 -87.9258 1299.95 -101.791 1318.85 -93.7322L1318.46 -92.8124Z" fill="#3638BC"/>
<path d="M1279.46 218.831L1279.27 219.291L1278.96 219.162V218.831H1279.46ZM1598.89 355.057H1599.39V355.813L1598.69 355.517L1598.89 355.057ZM1318.85 169.32L1581.98 281.538L1581.59 282.458L1318.46 170.24L1318.85 169.32ZM1279.66 218.372L1599.08 354.597L1598.69 355.517L1279.27 219.291L1279.66 218.372ZM1598.39 355.057V307.889H1599.39V355.057H1598.39ZM1278.96 218.831V195.671H1279.96V218.831H1278.96ZM1581.98 281.538C1592.54 286.041 1599.39 296.411 1599.39 307.889H1598.39C1598.39 296.811 1591.78 286.803 1581.59 282.458L1581.98 281.538ZM1318.46 170.24C1300.22 162.462 1279.96 175.844 1279.96 195.671H1278.96C1278.96 175.127 1299.95 161.261 1318.85 169.32L1318.46 170.24Z" fill="#3638BC"/>
<path d="M1279.46 481.889L1279.27 482.349L1278.96 482.219V481.889H1279.46ZM1598.89 618.114H1599.39V618.871L1598.69 618.574L1598.89 618.114ZM1318.85 432.378L1581.98 544.596L1581.59 545.515L1318.46 433.298L1318.85 432.378ZM1279.66 481.429L1599.08 617.654L1598.69 618.574L1279.27 482.349L1279.66 481.429ZM1598.39 618.114V570.946H1599.39V618.114H1598.39ZM1278.96 481.889V458.729H1279.96V481.889H1278.96ZM1581.98 544.596C1592.54 549.098 1599.39 559.468 1599.39 570.946H1598.39C1598.39 559.869 1591.78 549.861 1581.59 545.515L1581.98 544.596ZM1318.46 433.298C1300.22 425.52 1279.96 438.902 1279.96 458.729H1278.96C1278.96 438.185 1299.95 424.319 1318.85 432.378L1318.46 433.298Z" fill="#3638BC"/>
<path d="M1279.46 87.3041L1279.27 87.764L1278.96 87.6344V87.3041H1279.46ZM1598.89 223.529H1599.39V224.286L1598.69 223.989L1598.89 223.529ZM1318.85 37.7931L1581.98 150.011L1581.59 150.93L1318.46 38.713L1318.85 37.7931ZM1279.66 86.8442L1599.08 223.069L1598.69 223.989L1279.27 87.764L1279.66 86.8442ZM1598.39 223.529V176.361H1599.39V223.529H1598.39ZM1278.96 87.3041V64.1439H1279.96V87.3041H1278.96ZM1581.98 150.011C1592.54 154.513 1599.39 164.883 1599.39 176.361H1598.39C1598.39 165.284 1591.78 155.276 1581.59 150.93L1581.98 150.011ZM1318.46 38.713C1300.22 30.9351 1279.96 44.3168 1279.96 64.1439H1278.96C1278.96 43.5996 1299.95 29.7339 1318.85 37.7931L1318.46 38.713Z" fill="#3638BC"/>
</g>
<defs>
<clipPath id="clip0_387_4404">
<rect width="1920" height="850" fill="white"/>
</clipPath>
</defs>
</svg>
