<svg width="64" height="64" viewBox="0 0 64 64" fill="none" xmlns="http://www.w3.org/2000/svg">
<path d="M11.6936 48.2238C7.27474 48.2238 3.67981 44.5347 3.67981 40.0001C3.67981 35.6064 7.05469 32.0066 11.2838 31.7869L14.212 28.2812C13.4005 28.0977 12.558 28 11.6936 28C5.24569 28 0 33.3832 0 40.0001C0 46.6169 5.24569 52 11.6936 52C16.1464 52 20.0255 49.4323 22 45.6644H17.4952C16.0343 47.2392 13.9746 48.2238 11.6936 48.2238V48.2238Z" fill="#1E149D"/>
<path d="M50.387 40.8402C50.7865 41.8009 51.8861 42.2543 52.8441 41.8549C53.8009 41.4543 54.2543 40.3517 53.8548 39.3909L44.5723 17.049L48.6913 15.6714C49.6757 15.3423 50.2067 14.2761 49.8786 13.289C49.5504 12.3019 48.4872 11.7681 47.5028 12.0972L41.4663 14.115C40.4309 14.4611 39.9065 15.6162 40.3263 16.6266L41.5066 19.4675L25.0417 23.7604L23.3505 19.8039H25.9635C27.0009 19.8039 27.842 18.9605 27.842 17.9201C27.842 16.8798 27.0009 16.0363 25.9635 16.0363H17.9149C16.8774 16.0363 16.0364 16.8798 16.0364 17.9201C16.0364 18.9605 16.8774 19.8039 17.9149 19.8039H19.2628L21.764 25.6555L10.4523 38.8895C9.9748 39.4481 9.86534 40.2342 10.1719 40.9026C10.4785 41.571 11.145 41.9992 11.8786 41.9992H29.9878C30.5879 41.9992 31.152 41.7116 31.5057 41.2252L43.623 24.5606L50.387 40.8402ZM15.963 38.2316L23.4135 29.5149L27.1388 38.2316H15.963ZM30.4142 36.3314L26.5387 27.2629L39.4574 23.8945L30.4142 36.3314Z" fill="#1E149D"/>
<path d="M53.1597 28L54.9362 32.2739C58.0246 33.4615 60.2238 36.4632 60.2238 39.9719C60.2238 44.5171 56.5345 48.2149 52 48.2149C47.4655 48.2149 43.7762 44.517 43.7762 39.9719C43.7762 38.7874 44.0287 37.6614 44.4795 36.6425L42.7049 32.3734C41.0152 34.4464 40 37.0924 40 39.9719C40 46.6042 45.3831 52 52 52C58.6168 52 64 46.6042 64 39.9719C64 33.7316 59.2344 28.5867 53.1597 28V28Z" fill="#1E149D"/>
</svg>
