<svg width="100" height="100" viewBox="0 0 100 100" fill="none" xmlns="http://www.w3.org/2000/svg">
<path d="M57.9773 62H50.0227C49.4581 62 49 61.5123 49 60.9113V51.7177C49 51.3917 49.1372 51.0831 49.3738 50.8761L53.5268 47.2471C53.917 46.9064 54.483 46.9192 54.8585 47.2783L58.66 50.9073C58.8766 51.1138 59 51.4082 59 51.7177V60.9113C59 61.5123 58.5423 62 57.9773 62ZM51.0455 59.8226H56.9545V52.204L54.1465 49.5228L51.0455 52.2328V59.8226Z" fill="white"/>
<path d="M54 52C53.4479 52 53 51.5257 53 50.9412V43.0588C53 42.4743 53.4479 42 54 42C54.5521 42 55 42.4743 55 43.0588V50.9412C55 51.5257 54.5521 52 54 52Z" fill="white"/>
<path d="M66.568 73H33.432C31.5375 72.9975 30.0023 71.3343 30 69.2821V68H32.1302V69.2821C32.1311 70.0603 32.7136 70.6913 33.432 70.6923H66.568C67.2864 70.6913 67.8689 70.0603 67.8698 69.2821V68H70V69.2821C69.9977 71.3343 68.4625 72.9975 66.568 73Z" fill="white"/>
<path d="M56 37C55.4479 37 55 36.5257 55 35.9412V32.0588C55 31.4743 55.4479 31 56 31C56.5521 31 57 31.4743 57 32.0588V35.9412C57 36.5257 56.5521 37 56 37Z" fill="white"/>
<path d="M42 37C41.4479 37 41 36.5257 41 35.9412V32.0588C41 31.4743 41.4479 31 42 31C42.5521 31 43 31.4743 43 32.0588V35.9412C43 36.5257 42.5521 37 42 37Z" fill="white"/>
<path d="M73.9234 67H26.0766C25.4822 67 25 67.4479 25 68C25 68.5521 25.4822 69 26.0766 69H73.9234C74.5178 69 75 68.5521 75 68C75 67.4479 74.5178 67 73.9234 67Z" fill="white"/>
<path d="M30 43.0817V47.8894C30 58.4269 38.5823 67 49.131 67C55.1118 66.9995 60.7471 64.2027 64.3601 59.442H69.1043C72.3591 59.4382 74.9962 56.8034 75 53.5525V46.341C75 45.7433 74.515 45.2593 73.9171 45.2593H68.262V43.0817C68.262 42.4845 67.777 42 67.1791 42H31.0829C30.485 42 30 42.4845 30 43.0817ZM72.8342 47.4227V53.5525C72.8319 55.6094 71.1634 57.2762 69.1043 57.2785H65.7889C67.4137 54.4155 68.2658 51.1802 68.262 47.8894V47.4227H72.8342ZM32.1658 44.1635H66.0963V47.8894C66.0958 48.7139 66.0356 49.5374 65.9158 50.3534H58.1551V52.5168H65.4533C63.4327 59.6194 56.8795 64.8365 49.131 64.8365C41.3825 64.8365 34.8293 59.6194 32.8087 52.5168H50.0936V50.3534H32.3463C32.2264 49.5374 32.1662 48.7139 32.1658 47.8894V44.1635Z" fill="white"/>
<path d="M49 27C48.4479 27 48 27.4977 48 28.1111V35.8889C48 36.5023 48.4479 37 49 37C49.5521 37 50 36.5023 50 35.8889V28.1111C50 27.4977 49.5521 27 49 27Z" fill="white"/>
</svg>
