<svg width="100" height="100" viewBox="0 0 100 100" fill="none" xmlns="http://www.w3.org/2000/svg">
<path d="M49.0004 56C45.6609 56 42.7866 53.6413 42.1352 50.3658C41.4837 47.0908 43.2365 43.8113 46.3218 42.5336C49.4068 41.2556 52.9648 42.335 54.8202 45.1117C56.6755 47.888 56.3109 51.5884 53.9498 53.95C52.6399 55.267 50.8578 56.0054 49.0004 56V56ZM49.0004 43.6958C46.4696 43.6958 44.2914 45.4833 43.7977 47.9654C43.3039 50.4478 44.632 52.9327 46.97 53.9012C49.3079 54.8701 52.0046 54.0518 53.4106 51.9477C54.8165 49.8435 54.5404 47.0391 52.7508 45.2495C51.7584 44.2516 50.408 43.6921 49.0004 43.6958V43.6958Z" fill="white"/>
<path d="M58.784 62.9996C58.3828 62.9996 58.0379 62.7164 57.96 62.3234L57.7586 61.3055L56.4514 60.884C56.1696 60.7927 55.9564 60.5602 55.8907 60.2721L55.643 59.1854L54.3121 58.7696C54.004 58.6734 53.7789 58.4102 53.7317 58.0918L53.5127 56.6044L51.2461 54.3427C50.918 54.0152 50.918 53.4844 51.2457 53.1574C51.5739 52.8299 52.1058 52.8299 52.434 53.157L54.8973 55.6152C55.0249 55.7429 55.1082 55.9078 55.1344 56.0863L55.3173 57.3272L56.6061 57.7296C56.8915 57.8188 57.1081 58.0525 57.1741 58.3435L57.4231 59.4355L58.7458 59.862C59.0362 59.9553 59.2528 60.1988 59.3118 60.4972L59.4734 61.3145L60.3167 61.3039L60.3077 59.562L53.162 52.4309C52.8339 52.1039 52.8339 51.573 53.162 51.2456C53.4901 50.9181 54.0217 50.9181 54.3498 51.2456L61.7404 58.6206C61.8971 58.7765 61.9852 58.9881 61.9865 59.2091L62 62.109C62 62.1409 61.9984 62.1728 61.9951 62.2047L61.9926 62.2252C61.9463 62.6464 61.5923 62.9664 61.1678 62.9718L58.7942 63L58.784 62.9996Z" fill="white"/>
<path d="M48.4986 50C47.306 49.9992 46.2798 49.156 46.048 47.9865C45.8159 46.8165 46.4428 45.6459 47.5446 45.19C48.6469 44.7342 49.9171 45.1205 50.5793 46.1124C51.2415 47.1044 51.1105 48.4258 50.2669 49.2686C49.798 49.7379 49.1615 50.0011 48.4986 50ZM48.4986 46.574C48.0566 46.574 47.6761 46.8865 47.5904 47.32C47.5043 47.7536 47.7364 48.1875 48.145 48.3562C48.5531 48.5253 49.0239 48.3819 49.2695 48.0145C49.5147 47.6471 49.4663 47.1574 49.1538 46.845C48.9801 46.6709 48.7441 46.5733 48.4986 46.574Z" fill="white"/>
<path d="M48.3907 25.8893C47.2053 24.7036 45.283 24.7036 44.0971 25.8893L25.8879 44.0976C24.704 45.2838 24.704 47.2044 25.8879 48.3906L51.6093 74.111C52.7951 75.2963 54.717 75.2963 55.9029 74.111L74.1121 55.9023C75.296 54.7161 75.296 52.7955 74.1121 51.6093L48.3907 25.8893ZM54.5702 72.7784C54.1204 73.2274 53.3917 73.2274 52.9419 72.7784L27.2205 47.0584C26.7707 46.609 26.7707 45.88 27.2205 45.4302L42.4202 30.2313L69.7695 57.58L54.5702 72.7784ZM72.7795 54.5701L71.1021 56.2474L43.752 28.8992L45.4298 27.2215C45.8796 26.7725 46.6083 26.7725 47.0581 27.2215L72.7795 52.9415C73.2293 53.3909 73.2293 54.1199 72.7795 54.5697V54.5701Z" fill="white"/>
<path d="M39.371 35.7936L36.794 38.3715C35.7353 39.4302 35.7353 41.147 36.794 42.206C37.8529 43.2647 39.5693 43.2647 40.6283 42.206L43.2058 39.6285C44.2647 38.5698 44.2647 36.853 43.2058 35.794C42.1472 34.7353 40.4304 34.7353 39.3718 35.794L39.371 35.7936ZM41.9481 38.3715L39.371 40.9491C39.0061 41.311 38.4174 41.3094 38.0539 40.946C37.6909 40.5829 37.6894 39.9942 38.0509 39.6292L40.6283 37.0517C40.8636 36.814 41.2081 36.7207 41.5314 36.8067C41.8547 36.8927 42.1074 37.1454 42.1934 37.4688C42.2795 37.7921 42.1861 38.1366 41.9481 38.3719V38.3715Z" fill="white"/>
</svg>
