<svg width="1920" height="845" viewBox="0 0 1920 845" fill="none" xmlns="http://www.w3.org/2000/svg">
<g clip-path="url(#clip0_235_4455)">
<path d="M165 572L164.805 571.54L165.5 571.244V572H165ZM-97 737L-96.8045 737.46L-97.5 737.756V737H-97ZM-80.0519 675.537L164.805 571.54L165.195 572.46L-79.661 676.458L-80.0519 675.537ZM-97.1955 736.54L147.661 632.542L148.052 633.463L-96.8045 737.46L-97.1955 736.54ZM-97.5 737V701.905H-96.5V737H-97.5ZM164.5 607.095V572H165.5V607.095H164.5ZM147.661 632.542C157.871 628.206 164.5 618.187 164.5 607.095H165.5C165.5 618.589 158.631 628.969 148.052 633.463L147.661 632.542ZM-79.661 676.458C-89.8705 680.794 -96.5 690.813 -96.5 701.905H-97.5C-97.5 690.411 -90.6307 680.031 -80.0519 675.537L-79.661 676.458Z" fill="#3638BC"/>
<path d="M165 249L164.805 248.54L165.5 248.244V249H165ZM-97 414L-96.8045 414.46L-97.5 414.756V414H-97ZM-80.0519 352.537L164.805 248.54L165.195 249.46L-79.661 353.458L-80.0519 352.537ZM-97.1955 413.54L147.661 309.542L148.052 310.463L-96.8045 414.46L-97.1955 413.54ZM-97.5 414V378.905H-96.5V414H-97.5ZM164.5 284.095V249H165.5V284.095H164.5ZM147.661 309.542C157.871 305.206 164.5 295.187 164.5 284.095H165.5C165.5 295.589 158.631 305.969 148.052 310.463L147.661 309.542ZM-79.661 353.458C-89.8705 357.794 -96.5 367.813 -96.5 378.905H-97.5C-97.5 367.411 -90.6307 357.031 -80.0519 352.537L-79.661 353.458Z" fill="#3638BC"/>
<path d="M165 465L164.805 464.54L165.5 464.244V465H165ZM-97 630L-96.8045 630.46L-97.5 630.756V630H-97ZM-80.0519 568.537L164.805 464.54L165.195 465.46L-79.661 569.458L-80.0519 568.537ZM-97.1955 629.54L147.661 525.542L148.052 526.463L-96.8045 630.46L-97.1955 629.54ZM-97.5 630V594.905H-96.5V630H-97.5ZM164.5 500.095V465H165.5V500.095H164.5ZM147.661 525.542C157.871 521.206 164.5 511.187 164.5 500.095H165.5C165.5 511.589 158.631 521.969 148.052 526.463L147.661 525.542ZM-79.661 569.458C-89.8705 573.794 -96.5 583.813 -96.5 594.905H-97.5C-97.5 583.411 -90.6307 573.031 -80.0519 568.537L-79.661 569.458Z" fill="#3638BC"/>
<path d="M165 141L164.805 140.54L165.5 140.244V141H165ZM-97 306L-96.8045 306.46L-97.5 306.756V306H-97ZM-80.0519 244.537L164.805 140.54L165.195 141.46L-79.661 245.458L-80.0519 244.537ZM-97.1955 305.54L147.661 201.542L148.052 202.463L-96.8045 306.46L-97.1955 305.54ZM-97.5 306V270.905H-96.5V306H-97.5ZM164.5 176.095V141H165.5V176.095H164.5ZM147.661 201.542C157.871 197.206 164.5 187.187 164.5 176.095H165.5C165.5 187.589 158.631 197.969 148.052 202.463L147.661 201.542ZM-79.661 245.458C-89.8705 249.794 -96.5 259.813 -96.5 270.905H-97.5C-97.5 259.411 -90.6307 249.031 -80.0519 244.537L-79.661 245.458Z" fill="#3638BC"/>
<path d="M165 680L164.805 679.54L165.5 679.244V680H165ZM-97 845L-96.8045 845.46L-97.5 845.756V845H-97ZM-80.0519 783.537L164.805 679.54L165.195 680.46L-79.661 784.458L-80.0519 783.537ZM-97.1955 844.54L147.661 740.542L148.052 741.463L-96.8045 845.46L-97.1955 844.54ZM-97.5 845V809.905H-96.5V845H-97.5ZM164.5 715.095V680H165.5V715.095H164.5ZM147.661 740.542C157.871 736.206 164.5 726.187 164.5 715.095H165.5C165.5 726.589 158.631 736.969 148.052 741.463L147.661 740.542ZM-79.661 784.458C-89.8705 788.794 -96.5 798.813 -96.5 809.905H-97.5C-97.5 798.411 -90.6307 788.031 -80.0519 783.537L-79.661 784.458Z" fill="#3638BC"/>
<path d="M165 357L164.805 356.54L165.5 356.244V357H165ZM-97 522L-96.8045 522.46L-97.5 522.756V522H-97ZM-80.0519 460.537L164.805 356.54L165.195 357.46L-79.661 461.458L-80.0519 460.537ZM-97.1955 521.54L147.661 417.542L148.052 418.463L-96.8045 522.46L-97.1955 521.54ZM-97.5 522V486.905H-96.5V522H-97.5ZM164.5 392.095V357H165.5V392.095H164.5ZM147.661 417.542C157.871 413.206 164.5 403.187 164.5 392.095H165.5C165.5 403.589 158.631 413.969 148.052 418.463L147.661 417.542ZM-79.661 461.458C-89.8705 465.794 -96.5 475.813 -96.5 486.905H-97.5C-97.5 475.411 -90.6307 465.031 -80.0519 460.537L-79.661 461.458Z" fill="#3638BC"/>
<path d="M688 626L687.805 626.46L688.5 626.756V626H688ZM426 461L426.195 460.54L425.5 460.244V461H426ZM442.948 522.463L687.805 626.46L688.195 625.54L443.339 521.542L442.948 522.463ZM425.805 461.46L670.661 565.458L671.052 564.537L426.195 460.54L425.805 461.46ZM425.5 461V496.095H426.5V461H425.5ZM687.5 590.905V626H688.5V590.905H687.5ZM670.661 565.458C680.871 569.794 687.5 579.813 687.5 590.905H688.5C688.5 579.411 681.631 569.031 671.052 564.537L670.661 565.458ZM443.339 521.542C433.129 517.206 426.5 507.187 426.5 496.095H425.5C425.5 507.589 432.369 517.969 442.948 522.463L443.339 521.542Z" fill="#3638BC"/>
<path d="M688 410L687.805 410.46L688.5 410.756V410H688ZM426 245L426.195 244.54L425.5 244.244V245H426ZM442.948 306.463L687.805 410.46L688.195 409.54L443.339 305.542L442.948 306.463ZM425.805 245.46L670.661 349.458L671.052 348.537L426.195 244.54L425.805 245.46ZM425.5 245V280.095H426.5V245H425.5ZM687.5 374.905V410H688.5V374.905H687.5ZM670.661 349.458C680.871 353.794 687.5 363.813 687.5 374.905H688.5C688.5 363.411 681.631 353.031 671.052 348.537L670.661 349.458ZM443.339 305.542C433.129 301.206 426.5 291.187 426.5 280.095H425.5C425.5 291.589 432.369 301.969 442.948 306.463L443.339 305.542Z" fill="#3638BC"/>
<path d="M688 195L687.805 195.46L688.5 195.756V195H688ZM426 30L426.195 29.5398L425.5 29.2444V30H426ZM442.948 91.4625L687.805 195.46L688.195 194.54L443.339 90.5421L442.948 91.4625ZM425.805 30.4602L670.661 134.458L671.052 133.537L426.195 29.5398L425.805 30.4602ZM425.5 30V65.0952H426.5V30H425.5ZM687.5 159.905V195H688.5V159.905H687.5ZM670.661 134.458C680.871 138.794 687.5 148.813 687.5 159.905H688.5C688.5 148.411 681.631 138.031 671.052 133.537L670.661 134.458ZM443.339 90.5421C433.129 86.2058 426.5 76.1874 426.5 65.0952H425.5C425.5 76.5886 432.369 86.9694 442.948 91.4625L443.339 90.5421Z" fill="#3638BC"/>
<path d="M688 518L687.805 518.46L688.5 518.756V518H688ZM426 353L426.195 352.54L425.5 352.244V353H426ZM442.948 414.463L687.805 518.46L688.195 517.54L443.339 413.542L442.948 414.463ZM425.805 353.46L670.661 457.458L671.052 456.537L426.195 352.54L425.805 353.46ZM425.5 353V388.095H426.5V353H425.5ZM687.5 482.905V518H688.5V482.905H687.5ZM670.661 457.458C680.871 461.794 687.5 471.813 687.5 482.905H688.5C688.5 471.411 681.631 461.031 671.052 456.537L670.661 457.458ZM443.339 413.542C433.129 409.206 426.5 399.187 426.5 388.095H425.5C425.5 399.589 432.369 409.969 442.948 414.463L443.339 413.542Z" fill="#3638BC"/>
<path d="M165 249.279L164.805 248.819L164.5 248.948V249.279H165ZM427 138H427.5V137.244L426.805 137.54L427 138ZM409.856 199.002L409.661 198.542L409.856 199.002ZM204.151 286.372L203.955 285.911L204.151 286.372ZM204.346 286.832L410.052 199.463L409.661 198.542L203.955 285.911L204.346 286.832ZM165.195 249.739L427.195 138.46L426.805 137.54L164.805 248.819L165.195 249.739ZM426.5 138V173.095H427.5V138H426.5ZM164.5 249.279V260.464H165.5V249.279H164.5ZM410.052 199.463C420.631 194.969 427.5 184.589 427.5 173.095H426.5C426.5 184.187 419.871 194.206 409.661 198.542L410.052 199.463ZM203.955 285.911C185.722 293.656 165.5 280.274 165.5 260.464H164.5C164.5 280.991 185.453 294.856 204.346 286.832L203.955 285.911Z" fill="#3638BC"/>
<path d="M165 572.279L164.805 571.819L164.5 571.948V572.279H165ZM427 461H427.5V460.244L426.805 460.54L427 461ZM409.856 522.002L409.661 521.542L409.856 522.002ZM204.151 609.372L203.955 608.911L204.151 609.372ZM204.346 609.832L410.052 522.463L409.661 521.542L203.955 608.911L204.346 609.832ZM165.195 572.739L427.195 461.46L426.805 460.54L164.805 571.819L165.195 572.739ZM426.5 461V496.095H427.5V461H426.5ZM164.5 572.279V583.464H165.5V572.279H164.5ZM410.052 522.463C420.631 517.969 427.5 507.589 427.5 496.095H426.5C426.5 507.187 419.871 517.206 409.661 521.542L410.052 522.463ZM203.955 608.911C185.722 616.656 165.5 603.274 165.5 583.464H164.5C164.5 603.991 185.453 617.856 204.346 609.832L203.955 608.911Z" fill="#3638BC"/>
<path d="M165 356.279L164.805 355.819L164.5 355.948V356.279H165ZM427 245H427.5V244.244L426.805 244.54L427 245ZM409.856 306.002L409.661 305.542L409.856 306.002ZM204.151 393.372L203.955 392.911L204.151 393.372ZM204.346 393.832L410.052 306.463L409.661 305.542L203.955 392.911L204.346 393.832ZM165.195 356.739L427.195 245.46L426.805 244.54L164.805 355.819L165.195 356.739ZM426.5 245V280.095H427.5V245H426.5ZM164.5 356.279V367.464H165.5V356.279H164.5ZM410.052 306.463C420.631 301.969 427.5 291.589 427.5 280.095H426.5C426.5 291.187 419.871 301.206 409.661 305.542L410.052 306.463ZM203.955 392.911C185.722 400.656 165.5 387.274 165.5 367.464H164.5C164.5 387.991 185.453 401.856 204.346 393.832L203.955 392.911Z" fill="#3638BC"/>
<path d="M165 680.279L164.805 679.819L164.5 679.948V680.279H165ZM427 569H427.5V568.244L426.805 568.54L427 569ZM409.856 630.002L409.661 629.542L409.856 630.002ZM204.151 717.372L203.955 716.911L204.151 717.372ZM204.346 717.832L410.052 630.463L409.661 629.542L203.955 716.911L204.346 717.832ZM165.195 680.739L427.195 569.46L426.805 568.54L164.805 679.819L165.195 680.739ZM426.5 569V604.095H427.5V569H426.5ZM164.5 680.279V691.464H165.5V680.279H164.5ZM410.052 630.463C420.631 625.969 427.5 615.589 427.5 604.095H426.5C426.5 615.187 419.871 625.206 409.661 629.542L410.052 630.463ZM203.955 716.911C185.722 724.656 165.5 711.274 165.5 691.464H164.5C164.5 711.991 185.453 725.856 204.346 717.832L203.955 716.911Z" fill="#3638BC"/>
<path d="M165 141.279L164.805 140.819L164.5 140.948V141.279H165ZM427 30H427.5V29.2444L426.805 29.5398L427 30ZM409.856 91.0023L409.661 90.5421L409.856 91.0023ZM204.151 178.372L203.955 177.911L204.151 178.372ZM204.346 178.832L410.052 91.4625L409.661 90.5421L203.955 177.911L204.346 178.832ZM165.195 141.739L427.195 30.4602L426.805 29.5398L164.805 140.819L165.195 141.739ZM426.5 30V65.0952H427.5V30H426.5ZM164.5 141.279V152.464H165.5V141.279H164.5ZM410.052 91.4625C420.631 86.9694 427.5 76.5886 427.5 65.0952H426.5C426.5 76.1874 419.871 86.2058 409.661 90.5421L410.052 91.4625ZM203.955 177.911C185.722 185.656 165.5 172.274 165.5 152.464H164.5C164.5 172.991 185.453 186.856 204.346 178.832L203.955 177.911Z" fill="#3638BC"/>
<path d="M688 734L687.805 734.46L688.5 734.756V734H688ZM426 569L426.195 568.54L425.5 568.244V569H426ZM442.948 630.463L687.805 734.46L688.195 733.54L443.339 629.542L442.948 630.463ZM425.805 569.46L670.661 673.458L671.052 672.537L426.195 568.54L425.805 569.46ZM425.5 569V604.095H426.5V569H425.5ZM687.5 698.905V734H688.5V698.905H687.5ZM670.661 673.458C680.871 677.794 687.5 687.813 687.5 698.905H688.5C688.5 687.411 681.631 677.031 671.052 672.537L670.661 673.458ZM443.339 629.542C433.129 625.206 426.5 615.187 426.5 604.095H425.5C425.5 615.589 432.369 625.969 442.948 630.463L443.339 629.542Z" fill="#3638BC"/>
<path d="M688 303L687.805 303.46L688.5 303.756V303H688ZM426 138L426.195 137.54L425.5 137.244V138H426ZM442.948 199.463L687.805 303.46L688.195 302.54L443.339 198.542L442.948 199.463ZM425.805 138.46L670.661 242.458L671.052 241.537L426.195 137.54L425.805 138.46ZM425.5 138V173.095H426.5V138H425.5ZM687.5 267.905V303H688.5V267.905H687.5ZM670.661 242.458C680.871 246.794 687.5 256.813 687.5 267.905H688.5C688.5 256.411 681.631 246.031 671.052 241.537L670.661 242.458ZM443.339 198.542C433.129 194.206 426.5 184.187 426.5 173.095H425.5C425.5 184.589 432.369 194.969 442.948 199.463L443.339 198.542Z" fill="#67E4EF"/>
<path d="M165 464.279L164.805 463.819L164.5 463.948V464.279H165ZM427 353H427.5V352.244L426.805 352.54L427 353ZM409.856 414.002L409.661 413.542L409.856 414.002ZM204.151 501.372L203.955 500.911L204.151 501.372ZM204.346 501.832L410.052 414.463L409.661 413.542L203.955 500.911L204.346 501.832ZM165.195 464.739L427.195 353.46L426.805 352.54L164.805 463.819L165.195 464.739ZM426.5 353V388.095H427.5V353H426.5ZM164.5 464.279V475.464H165.5V464.279H164.5ZM410.052 414.463C420.631 409.969 427.5 399.589 427.5 388.095H426.5C426.5 399.187 419.871 409.206 409.661 413.542L410.052 414.463ZM203.955 500.911C185.722 508.656 165.5 495.274 165.5 475.464H164.5C164.5 495.991 185.453 509.856 204.346 501.832L203.955 500.911Z" fill="#67E4EF"/>
</g>
<defs>
<clipPath id="clip0_235_4455">
<rect width="1920" height="845" fill="white"/>
</clipPath>
</defs>
</svg>
