<svg width="64" height="64" viewBox="0 0 64 64" fill="none" xmlns="http://www.w3.org/2000/svg">
<circle cx="32" cy="32" r="32" fill="#67E4EF"/>
<path d="M44.9215 28.4711C44.2955 26.9597 43.0178 24.4242 41.4946 24.4242C41.0926 24.4242 40.5667 24.7593 40.4149 24.8621C40.2353 24.9839 40.1415 25.2169 40.1865 25.4289C40.1921 25.4556 40.7558 28.125 40.8743 29.3827C41.2257 33.1111 40.5629 35.8417 38.9047 37.5002C38.5733 37.8315 37.9465 38.3773 37.9405 38.3826C37.8138 38.4929 37.7533 38.6515 37.7784 38.8121C37.8036 38.9728 37.9108 39.1022 38.0655 39.1687C38.1257 39.1944 39.2382 39.6571 40.6553 39.8714C40.6421 39.9233 40.6343 39.9778 40.6343 40.0345V45.6359H33.2042V38.535C34.9927 38.2486 36.4729 37.3078 37.3648 35.8693C39.3038 32.7423 37.6971 23.3798 35.0826 18.683C34.0909 16.9017 33.0614 16 32.0225 16C32.0224 16 32.0222 16 32.022 16C30.9927 16 29.9695 16.9053 28.9813 18.6805C26.3617 23.3863 24.7444 32.7477 26.6794 35.8685C27.8023 37.6794 29.5519 38.3166 30.8401 38.5288V45.6359H23.41V40.0096C23.41 39.9488 23.4014 39.8903 23.386 39.8352C24.6551 39.6167 25.6153 39.2234 25.6705 39.2C25.8254 39.1342 25.9331 39.0174 25.9585 38.8564C25.984 38.6954 25.9233 38.5333 25.796 38.4228C25.7894 38.4171 25.1329 37.8468 24.7874 37.5014C23.2542 35.9683 22.7384 33.2354 23.2103 29.1474C23.3427 28.0012 23.8146 25.6398 23.8194 25.616C23.8599 25.4138 23.7781 25.1916 23.6159 25.0647C23.4233 24.9139 22.7582 24.4195 22.2844 24.4195C20.9703 24.4195 19.9119 26.3042 19.2553 27.8891C17.8143 31.3686 16.7685 37.1771 18.3394 38.748C19.1057 39.5143 20.1585 39.9148 21.4711 39.9712C21.4692 39.992 21.4682 40.0131 21.4682 40.0345V45.6359H19.3856C19.0042 45.6359 18.6819 45.941 18.6819 46.3022V47.3039C18.6819 47.6748 19.0107 48 19.3856 48H19.8932H24.9559H39.1032H44.166H44.6924C45.0557 48 45.3626 47.6813 45.3626 47.3039V46.3022C45.3626 45.9286 45.0683 45.6359 44.6924 45.6359H42.5762V40.0096C42.5762 39.9918 42.5751 39.9743 42.5739 39.9569C43.7657 39.8636 44.7282 39.4659 45.4394 38.7545C47.1603 37.0339 46.4569 32.1778 44.9215 28.4711Z" fill="#1E149D"/>
</svg>
