<svg width="100" height="100" viewBox="0 0 100 100" fill="none" xmlns="http://www.w3.org/2000/svg">
<path d="M51 59C46.0374 59 42 54.9625 42 50C42 45.0375 46.0374 41 51 41C55.9626 41 60 45.0375 60 50C60 54.9625 55.9626 59 51 59V59ZM51 43.254C47.3061 43.254 44.3008 46.2805 44.3008 50C44.3008 53.7196 47.3061 56.746 51 56.746C54.6939 56.746 57.6992 53.7196 57.6992 50C57.6992 46.2805 54.6939 43.254 51 43.254V43.254Z" fill="white"/>
<path d="M31 47C27.6915 47 25 44.4215 25 41.2525V31.0929C25 30.4895 25.4936 30 26.102 30C26.7105 30 27.2041 30.4895 27.2041 31.0929V41.2525C27.2041 43.2163 28.9069 44.8143 31 44.8143C33.0931 44.8143 34.7959 43.2163 34.7959 41.2525V31.0929C34.7959 30.4895 35.2895 30 35.898 30C36.5064 30 37 30.4895 37 31.0929V41.2525C37 44.4215 34.3085 47 31 47Z" fill="white"/>
<path d="M31 47C30.4479 47 30 46.5105 30 45.9071V31.0929C30 30.4895 30.4479 30 31 30C31.5521 30 32 30.4895 32 31.0929V45.9071C32 46.5105 31.5521 47 31 47Z" fill="white"/>
<path d="M73.9412 54H68.0588C67.4743 54 67 53.491 67 52.8636V36.4495C67.0041 32.3371 70.1094 29.0044 73.9412 29C74.5257 29 75 29.509 75 30.1364V52.8636C75 53.491 74.5257 54 73.9412 54ZM69.1176 51.7273H72.8824V31.399C70.6834 31.9336 69.1209 34.0293 69.1176 36.4495V51.7273Z" fill="white"/>
<path d="M50 37C42.8319 37 37 43.0558 37 50.5C37 57.9442 42.8319 64 50 64C57.1681 64 63 57.9442 63 50.5C63 43.0558 57.1681 37 50 37V37ZM50 61.7385C44.055 61.7385 39.218 56.6971 39.218 50.5C39.218 44.3029 44.055 39.2615 50 39.2615C55.945 39.2615 60.782 44.3029 60.782 50.5C60.782 56.6971 55.945 61.7385 50 61.7385Z" fill="white"/>
<path d="M30 46.1408V70.8592C30 71.489 30.4479 72 31 72C31.5521 72 32 71.489 32 70.8592V46.1408C32 45.511 31.5521 45 31 45C30.4479 45 30 45.511 30 46.1408Z" fill="white"/>
<path d="M74 51C73.4479 51 73 51.51 73 52.1386V70.8614C73 71.49 73.4479 72 74 72C74.5521 72 75 71.49 75 70.8614V52.1386C75 51.51 74.5521 51 74 51Z" fill="white"/>
</svg>
