<svg width="40" height="40" viewBox="0 0 40 40" fill="none" xmlns="http://www.w3.org/2000/svg">
<circle cx="20" cy="20" r="20" fill="#67E4EF"/>
<path d="M28.0759 17.7944C27.6846 16.8498 26.8861 15.2651 25.9341 15.2651C25.6829 15.2651 25.3541 15.4746 25.2593 15.5388C25.1471 15.6149 25.0884 15.7606 25.1165 15.893C25.1201 15.9098 25.4724 17.5781 25.5464 18.3642C25.766 20.6944 25.3518 22.4011 24.3154 23.4376C24.1083 23.6447 23.7165 23.9858 23.7128 23.9891C23.6336 24.058 23.5958 24.1572 23.6115 24.2576C23.6272 24.358 23.6942 24.4389 23.7909 24.4804C23.8286 24.4965 24.5239 24.7857 25.4096 24.9196C25.4013 24.9521 25.3964 24.9861 25.3964 25.0216V28.5224H20.7526V24.0844C21.8704 23.9054 22.7956 23.3174 23.353 22.4183C24.5649 20.464 23.5606 14.6123 21.9266 11.6769C21.3068 10.5636 20.6634 10 20.014 10C20.014 10 20.0139 10 20.0137 10C19.3704 10 18.7309 10.5658 18.1133 11.6753C16.4761 14.6164 15.4652 20.4673 16.6746 22.4178C17.3764 23.5496 18.4699 23.9479 19.275 24.0805V28.5224H14.6313V25.006C14.6313 24.968 14.6259 24.9315 14.6162 24.897C15.4094 24.7604 16.0096 24.5146 16.044 24.5C16.1409 24.4589 16.2082 24.3859 16.2241 24.2853C16.24 24.1846 16.202 24.0833 16.1225 24.0142C16.1184 24.0107 15.708 23.6542 15.4921 23.4384C14.5339 22.4802 14.2115 20.7721 14.5064 18.2171C14.5892 17.5007 14.8841 16.0249 14.8871 16.01C14.9124 15.8836 14.8613 15.7447 14.7599 15.6654C14.6395 15.5712 14.2239 15.2622 13.9277 15.2622C13.1064 15.2622 12.4449 16.4401 12.0346 17.4307C11.1339 19.6054 10.4803 23.2357 11.4621 24.2175C11.9411 24.6965 12.5991 24.9468 13.4194 24.982C13.4182 24.995 13.4176 25.0082 13.4176 25.0216V28.5224H12.116C11.8776 28.5224 11.6762 28.7131 11.6762 28.9389V29.565C11.6762 29.7967 11.8817 30 12.116 30H12.4332H15.5974H24.4395H27.6038H27.9327C28.1598 30 28.3516 29.8008 28.3516 29.565V28.9389C28.3516 28.7054 28.1677 28.5224 27.9327 28.5224H26.6101V25.006C26.6101 24.9949 26.6095 24.984 26.6087 24.973C27.3536 24.9147 27.9551 24.6662 28.3996 24.2216C29.4752 23.1462 29.0355 20.1111 28.0759 17.7944Z" fill="#1E149D"/>
</svg>
