<svg width="100" height="100" viewBox="0 0 100 100" fill="none" xmlns="http://www.w3.org/2000/svg">
<path d="M68.9831 43H31.0169C30.4555 43 30 42.5521 30 42C30 41.4479 30.4555 41 31.0169 41H68.9831C69.5445 41 70 41.4479 70 42C70 42.5521 69.5445 43 68.9831 43Z" fill="white"/>
<path d="M68.9831 39H31.0169C30.4555 39 30 38.5521 30 38C30 37.4479 30.4555 37 31.0169 37H68.9831C69.5445 37 70 37.4479 70 38C70 38.5521 69.5445 39 68.9831 39Z" fill="white"/>
<path d="M58 64C57.4479 64 57 63.5257 57 62.9412V57.0588C57 56.4743 57.4479 56 58 56C58.5521 56 59 56.4743 59 57.0588V62.9412C59 63.5257 58.5521 64 58 64Z" fill="white"/>
<path d="M43 64C42.4479 64 42 63.5257 42 62.9412V57.0588C42 56.4743 42.4479 56 43 56C43.5521 56 44 56.4743 44 57.0588V62.9412C44 63.5257 43.5521 64 43 64Z" fill="white"/>
<path d="M69.4064 32H30.5936C27.5056 32.0035 25.0036 34.4518 25 37.4734V47.5266C25.0036 50.5482 27.5056 52.9965 30.5936 53H69.4064C72.4944 52.9965 74.9964 50.5482 75 47.5266V37.4734C74.9964 34.4518 72.4944 32.0035 69.4064 32ZM72.9452 47.5266C72.943 49.4382 71.36 50.9872 69.4064 50.9894H30.5936C28.64 50.9872 27.057 49.4382 27.0548 47.5266V37.4734C27.057 35.5618 28.64 34.0128 30.5936 34.0106H69.4064C71.36 34.0128 72.943 35.5618 72.9452 37.4734V47.5266Z" fill="white"/>
<path d="M59.5 45C58.1194 45 57 46.1194 57 47.5C57 48.8806 58.1194 50 59.5 50C60.8806 50 62 48.8806 62 47.5C61.9984 46.1198 60.8802 45.0016 59.5 45ZM59.5 48.125C59.1549 48.125 58.875 47.8451 58.875 47.5C58.875 47.1549 59.1549 46.875 59.5 46.875C59.8451 46.875 60.125 47.1549 60.125 47.5C60.1246 47.8451 59.8451 48.1246 59.5 48.125Z" fill="white"/>
<path d="M67.5 45C66.1194 45 65 46.1194 65 47.5C65 48.8806 66.1194 50 67.5 50C68.8806 50 70 48.8806 70 47.5C69.9984 46.1198 68.8802 45.0016 67.5 45ZM67.5 48.125C67.1549 48.125 66.875 47.8451 66.875 47.5C66.875 47.1549 67.1549 46.875 67.5 46.875C67.8451 46.875 68.125 47.1549 68.125 47.5C68.1246 47.8451 67.8451 48.1246 67.5 48.125Z" fill="white"/>
<path d="M52 65.9898V57.0102C52 56.4525 51.5521 56 51 56C50.4479 56 50 56.4525 50 57.0102V65.9898C50 66.5475 50.4479 67 51 67C51.5521 67 52 66.5475 52 65.9898Z" fill="white"/>
<path d="M66 60.0625V56.9375C66 56.4199 65.5521 56 65 56C64.4479 56 64 56.4199 64 56.9375V60.0625C64 60.5801 64.4479 61 65 61C65.5521 61 66 60.5801 66 60.0625Z" fill="white"/>
<path d="M37 60.0625V56.9375C37 56.4199 36.5521 56 36 56C35.4479 56 35 56.4199 35 56.9375V60.0625C35 60.5801 35.4479 61 36 61C36.5521 61 37 60.5801 37 60.0625Z" fill="white"/>
</svg>
