<svg width="100" height="100" viewBox="0 0 100 100" fill="none" xmlns="http://www.w3.org/2000/svg">
<path d="M62.9065 66H52.0935C51.4898 66 51 66.4479 51 67C51 67.5521 51.4898 68 52.0935 68H62.9065C63.5102 68 64 67.5521 64 67C64 66.4479 63.5102 66 62.9065 66Z" fill="white"/>
<path d="M67.3419 56H44.6581C43.1126 55.9954 41.7552 54.993 41.3257 53.5389C41.3206 53.5211 41.3159 53.5037 41.3117 53.4859L37.0276 35.29C36.9538 34.9773 37.0299 34.6486 37.2339 34.3972C37.4379 34.1463 37.7478 34 38.0755 34H73.9245C74.2522 34 74.5621 34.1463 74.7661 34.3972C74.9701 34.6486 75.0462 34.9773 74.9724 35.29L70.6878 53.4868C70.6836 53.5042 70.679 53.5215 70.6738 53.5394C70.2444 54.993 68.8874 55.9954 67.3419 56V56ZM43.401 52.9821C43.5714 53.5224 44.0807 53.8918 44.6581 53.8936H67.3419C67.9193 53.8918 68.4286 53.5224 68.599 52.9821L72.5727 36.1064H39.4273L43.401 52.9821Z" fill="white"/>
<path d="M41 41H72V43H41V41Z" fill="white"/>
<path d="M65.5 72C63.0147 72 61 69.9853 61 67.5C61 65.0147 63.0147 63 65.5 63C67.9853 63 70 65.0147 70 67.5C69.9973 69.9839 67.9839 71.9973 65.5 72ZM65.5 65.0769C64.1618 65.0769 63.0769 66.1618 63.0769 67.5C63.0769 68.8382 64.1618 69.9231 65.5 69.9231C66.8382 69.9231 67.9231 68.8382 67.9231 67.5C67.9217 66.1623 66.8377 65.0783 65.5 65.0769Z" fill="white"/>
<path d="M47.5 72C45.0147 72 43 69.9853 43 67.5C43 65.0147 45.0147 63 47.5 63C49.9853 63 52 65.0147 52 67.5C51.9973 69.9839 49.9839 71.9973 47.5 72ZM47.5 65.0769C46.1618 65.0769 45.0769 66.1618 45.0769 67.5C45.0769 68.8382 46.1618 69.9231 47.5 69.9231C48.8382 69.9231 49.9231 68.8382 49.9231 67.5C49.9217 66.1623 48.8377 65.0783 47.5 65.0769Z" fill="white"/>
<path d="M69.9162 57.8633H43.0906C41.3817 57.8652 39.8901 56.7212 39.4719 55.0872L34.0742 31.4306C34.0723 31.4222 34.0705 31.4143 34.0681 31.406C33.4143 28.8149 31.0525 26.9968 28.344 27H26.0838C25.4854 27 25 27.4785 25 28.0683C25 28.6582 25.4854 29.1367 26.0838 29.1367H28.344C30.0529 29.1348 31.5445 30.2792 31.9627 31.9128L37.3603 55.5694C37.3622 55.5778 37.3641 55.5857 37.3665 55.594C38.0203 58.1851 40.3821 60.0032 43.0906 60H69.9162C70.5146 60 71 59.5215 71 58.9317C71 58.3418 70.5146 57.8633 69.9162 57.8633Z" fill="white"/>
</svg>
